<svg xmlns="http://www.w3.org/2000/svg" viewBox="0 0 61.49 93.75"><title>img_05</title><g id="Layer_2" data-name="Layer 2"><g id="element"><path d="M2.4,34.37,53.78,47.75,26.08,79.06,11.31,75.21,2.4,34.37m0-2A2,2,0,0,0,.45,34.8l8.9,40.84a2,2,0,0,0,1.45,1.51L25.58,81a2.14,2.14,0,0,0,.5.06,2,2,0,0,0,1.5-.67l27.7-31.31a2,2,0,0,0-1-3.26L2.91,32.44a1.79,1.79,0,0,0-.51-.07Z"/><path d="M23.06,92.75a6,6,0,0,1-1.51-.2l-12-3.14A6,6,0,0,1,5.2,82.1L6,79a6,6,0,0,1,7.32-4.29l12,3.14a6,6,0,0,1,4.29,7.32l-.8,3.09a6,6,0,0,1-5.81,4.49Z" fill="#ffc325"/><path d="M11.81,75.51a5.1,5.1,0,0,1,1.27.17l12,3.13a5,5,0,0,1,3.58,6.1L27.9,88a5,5,0,0,1-6.1,3.58l-12-3.14a5,5,0,0,1-3.58-6.1L7,79.25a5,5,0,0,1,4.83-3.74m0-2A7,7,0,0,0,5,78.75l-.8,3.09a7,7,0,0,0,5,8.54L21.3,93.52a7,7,0,0,0,8.54-5l.8-3.09a7,7,0,0,0-5-8.54l-12-3.14a7,7,0,0,0-1.77-.23Z"/><path d="M28,64.53a23.24,23.24,0,0,1-5.83-.74c-7.49-1.95-13.74-7.63-17.6-16a37.27,37.27,0,0,1-2.51-24.6A29.67,29.67,0,0,1,30.77,1a29.35,29.35,0,0,1,7.5,1A29.71,29.71,0,0,1,59.52,38.18C55.74,52.71,41.6,64.53,28,64.53Z" fill="#ffadac"/><path d="M30.77,2A28.7,28.7,0,0,1,58.55,37.93C55,51.42,41.62,63.53,28,63.53a22.12,22.12,0,0,1-5.58-.71C7.09,58.82-1,38.8,3,23.47A28.7,28.7,0,0,1,30.77,2m0-2h0A30.69,30.69,0,0,0,1.09,23,38.29,38.29,0,0,0,3.66,48.23c4,8.63,10.47,14.5,18.26,16.52a23.8,23.8,0,0,0,6.08.78c14,0,28.6-12.16,32.49-27.1A30.69,30.69,0,0,0,38.53,1a31,31,0,0,0-7.76-1Z"/><path d="M28.26,64.5a24.47,24.47,0,0,1-6.09-.71c-5.39-1.41-9.91-5.35-12.12-7.58a1,1,0,0,1-.25-1c.51-2,4.26-2.28,6.45-2.28a34,34,0,0,1,8.44,1.15,32.88,32.88,0,0,1,8.94,3.71c1.84,1.15,3.94,2.88,3.51,4.55a1,1,0,0,1-.28.46C35.8,63.87,31.57,64.5,28.26,64.5Z" fill="#ff5d63"/><path d="M16.25,54a33,33,0,0,1,8.19,1.12c7,1.83,12.16,5.39,11.73,7-.6.59-4,1.38-7.91,1.38a23.71,23.71,0,0,1-5.84-.68c-5.34-1.39-9.76-5.4-11.66-7.31C11,54.57,13.15,54,16.25,54m0-2h0c-4.4,0-6.9,1-7.42,3a2,2,0,0,0,.51,1.92c2.29,2.29,7,6.37,12.58,7.83a25,25,0,0,0,6.34.75c2.93,0,7.83-.52,9.3-1.94a2,2,0,0,0,.54-.93c1.08-4.13-7.5-8-13.16-9.48A35.32,35.32,0,0,0,16.25,52Z"/></g></g></svg>