<svg xmlns="http://www.w3.org/2000/svg" viewBox="0 0 160.87 93.17"><title>img_12</title><g id="Layer_2" data-name="Layer 2"><g id="element"><path d="M61.75,92.25c38.74-.43,74.15-1.82,86.56-1.82s17.26-4.84,7-8.17c2.73-4.84-1.43-16.8-10.93-18.52-11-2-13.88,5.81-13.88,5.81s.68-10.67-4.77-13.4c-9.28-4.64-14.38,1.59-14.38,1.59s13.54-18.51,9.38-34C115.4,3.86,94.26-6.46,73.93,4.39c-18,9.62-10.37,32.2-10.37,32.2a14.24,14.24,0,0,0-13.92-1.85c-5.46,2.07-8.17,8.17-8.17,8.17S27.17,26.64,8.55,38.67c-16.94,10.95-3.1,40.26-.68,42.68S.2,83,0,88.58C-.24,95.58,30.56,92.59,61.75,92.25Z" fill="#bdeef2"/></g></g></svg>