<svg xmlns="http://www.w3.org/2000/svg" viewBox="0 0 94.26 54.59"><title>img_04_1</title><g id="Layer_2" data-name="Layer 2"><g id="element"><path d="M36.18,54.05C58.88,53.8,79.63,53,86.9,53S97,50.15,91,48.2c1.6-2.84-.84-9.84-6.4-10.85-6.46-1.17-8.14,3.4-8.14,3.4s.4-6.25-2.79-7.85c-5.44-2.72-8.43.93-8.43.93S73.15,23,70.72,13.88C67.62,2.26,55.23-3.79,43.32,2.57c-10.55,5.64-6.08,18.87-6.08,18.87a8.35,8.35,0,0,0-8.15-1.09c-3.21,1.22-4.79,4.79-4.79,4.79S15.92,15.61,5,22.66c-9.93,6.42-1.82,23.59-.4,25S.12,48.62,0,51.9C-.14,56,17.91,54.25,36.18,54.05Z" fill="#98dae3"/></g></g></svg>