<svg xmlns="http://www.w3.org/2000/svg" viewBox="0 0 265.22 105.39"><title>img_02</title><g id="Layer_2" data-name="Layer 2"><g id="bubble_talk" data-name="bubble talk"><path d="M203.86,93.61c-9.53,0-20.38-.23-33-.51-17-.37-36.2-.79-58.92-.79h-3.71c-78,0-82.58-6.84-85.37-17.31a24.82,24.82,0,0,1-9.32,1.66h0c-3.17,0-9-.55-12.33-4.22A1,1,0,0,1,2,70.76c9.05,0,18.66-12.37,20.3-14.57-.57-3.33-3.58-23.88,5.88-38.5C38.9,1.15,69.27,1.11,129.79,1h7.38c54.69,0,87.74,1.39,105.71,8.7s21.34,20.68,21.34,42.82C264.22,88,249.89,93.61,203.86,93.61Z" fill="#ec5c89"/><path d="M137.17,2C250,2,263.22,8.16,263.22,52.52c0,34.49-13.22,40.09-59.36,40.09-22.24,0-52.13-1.3-91.87-1.3h-3.71c-79.37,0-81.91-6.82-84.71-17.77-2,1.21-5.88,2.12-10,2.12-4.4,0-9-1-11.59-3.9,10.52,0,21.36-15.33,21.36-15.33S19,33.68,29,18.23C39.54,2,69.7,2.11,131.64,2h5.53m0-2h-7.38C99,.06,76.73.09,60.31,2.14c-17.73,2.21-27.59,6.7-33,15C18,31.53,20.53,51.46,21.24,55.93,19.1,58.75,10.2,69.76,2,69.76A2,2,0,0,0,.52,73.11c3.6,4,9.73,4.55,13.07,4.55a27.37,27.37,0,0,0,8.68-1.34c3.57,11.47,12.49,17,86,17H112c22.71,0,41.94.42,58.9.79,12.57.28,23.43.51,33,.51,22.39,0,38.23-1.24,48-7.42,9.45-6,13.31-16,13.31-34.67,0-22.57-3.5-36.23-22-43.75C225.13,1.4,192,0,137.17,0Z"/><path d="M104.29,104.39c-77,0-83.78-6.91-89.38-26.82l-1.07,0h0A18.36,18.36,0,0,1,1.32,72.5,1,1,0,0,1,2,70.76a14.67,14.67,0,0,0,13.3-7.94c-.51-3-3.7-23.81,5.87-38.6C31.88,7.69,62.26,7.64,122.78,7.54h7.36c54.7,0,87.74,1.39,105.72,8.7S257.2,36.91,257.2,59.05c0,23.51-8,34.25-29.45,39.65-22.19,5.57-59.61,5.62-121.61,5.69Z" fill="#eba21e"/><path d="M130.15,8.53c112.82,0,126,6.17,126,50.52s-26.56,44.19-150.5,44.34h-1.41c-79.6,0-83.39-7.86-88.64-26.89a15.81,15.81,0,0,1-1.81.1A17.46,17.46,0,0,1,2,71.76,15.8,15.8,0,0,0,16.34,63S12,40.22,22,24.77C32.53,8.52,62.69,8.64,124.63,8.54h5.52m0-2h-7.38c-30.8,0-53,.09-69.48,2.14-17.72,2.21-27.58,6.69-33,15-9.46,14.61-6.73,35-6.07,39A13.74,13.74,0,0,1,2,69.76,2,2,0,0,0,.65,73.24,19.31,19.31,0,0,0,13.84,78.6h.32C16.87,88.05,20,94.65,31.39,99c12,4.51,33.8,6.44,72.9,6.44h1.85c62.08-.08,99.54-.12,121.85-5.72,22-5.54,30.21-16.55,30.21-40.62,0-22.57-3.5-36.23-22-43.74C218.11,7.93,185,6.53,130.15,6.53Z"/><path d="M32,43.52a.68.68,0,0,1-.47-.17.55.55,0,0,1-.18-.45.58.58,0,0,1,.18-.45.67.67,0,0,1,.47-.16h5.26a.71.71,0,0,1,.48.16.59.59,0,0,1,.19.45.56.56,0,0,1-.19.45.72.72,0,0,1-.48.17Zm1.86,6.42a.66.66,0,0,1-.51-.2.68.68,0,0,1-.19-.5V36.59a.67.67,0,0,1,.7-.71H37.1a7.43,7.43,0,0,1,2.83.52,6.47,6.47,0,0,1,2.23,1.45,6.69,6.69,0,0,1,1.44,2.23,7.34,7.34,0,0,1,.52,2.82,7.44,7.44,0,0,1-.52,2.84A6.59,6.59,0,0,1,42.16,48a6.49,6.49,0,0,1-2.23,1.46,7.62,7.62,0,0,1-2.83.51Zm.7-1.26H37.1A5.62,5.62,0,0,0,40,47.93a5.23,5.23,0,0,0,2-2,6.53,6.53,0,0,0,0-6,5.21,5.21,0,0,0-2-2,5.71,5.71,0,0,0-2.92-.74H34.56Z" fill="#fff"/><path d="M47.81,38.22a.94.94,0,0,1-.69-.28,1,1,0,0,1-.29-.71.9.9,0,0,1,.3-.71,1,1,0,0,1,.7-.26,1,1,0,0,1,.67.26.9.9,0,0,1,.3.71,1,1,0,0,1-.29.71A1,1,0,0,1,47.81,38.22Zm0,11.72a.66.66,0,0,1-.71-.7V40.8a.66.66,0,0,1,.71-.71.65.65,0,0,1,.68.71v8.44a.65.65,0,0,1-.68.7Z" fill="#fff"/><path d="M61.7,50a4.85,4.85,0,0,1-2.53-.66,4.68,4.68,0,0,1-1.74-1.79A5,5,0,0,1,56.79,45a5.34,5.34,0,0,1,.61-2.58,4.8,4.8,0,0,1,1.67-1.79A4.56,4.56,0,0,1,61.52,40a4.74,4.74,0,0,1,2,.43,4.66,4.66,0,0,1,1.63,1.29.49.49,0,0,1,.14.46.7.7,0,0,1-.31.42.53.53,0,0,1-.44.1.68.68,0,0,1-.42-.26,3.35,3.35,0,0,0-2.63-1.18,3.18,3.18,0,0,0-3,1.81,4.37,4.37,0,0,0-.42,2A4,4,0,0,0,58.59,47a3.39,3.39,0,0,0,1.26,1.34,3.57,3.57,0,0,0,1.85.48A4.06,4.06,0,0,0,63,48.58,2.83,2.83,0,0,0,64,48a.82.82,0,0,1,.45-.2.66.66,0,0,1,.44.14.77.77,0,0,1,.24.45.47.47,0,0,1-.17.43A4.65,4.65,0,0,1,61.7,50Z" fill="#fff"/><path d="M72.32,50.05A4.85,4.85,0,0,1,70,49.52,3.88,3.88,0,0,1,68.44,48a5,5,0,0,1-.58-2.5V40.78a.68.68,0,0,1,.68-.69.71.71,0,0,1,.51.2.69.69,0,0,1,.19.49v4.68a3.63,3.63,0,0,0,.43,1.84,2.66,2.66,0,0,0,1.15,1.08,3.87,3.87,0,0,0,3.24,0,2.78,2.78,0,0,0,1.12-.93,2.3,2.3,0,0,0,.42-1.35h1a4.07,4.07,0,0,1-.62,2,4.12,4.12,0,0,1-1.52,1.41A4.47,4.47,0,0,1,72.32,50.05Zm.18-11.56A.66.66,0,0,1,72,38.3l-2-2a.74.74,0,0,1-.18-.49.73.73,0,0,1,.2-.51.63.63,0,0,1,.48-.21.72.72,0,0,1,.51.22l2,2a.55.55,0,0,1,.18.45.73.73,0,0,1-.19.52A.71.71,0,0,1,72.5,38.49Zm3.78,11.45a.64.64,0,0,1-.49-.19.66.66,0,0,1-.19-.51V40.78a.65.65,0,0,1,.68-.69.75.75,0,0,1,.51.19.68.68,0,0,1,.19.5v8.46a.66.66,0,0,1-.19.51A.7.7,0,0,1,76.28,49.94Z" fill="#fff"/><path d="M80.93,49.94a.69.69,0,0,1-.52-.19.68.68,0,0,1-.19-.49V40.8a.66.66,0,0,1,.71-.71.65.65,0,0,1,.68.71v8.46a.64.64,0,0,1-.19.49A.66.66,0,0,1,80.93,49.94Zm7.74,0a.68.68,0,0,1-.71-.68V44.58a3.61,3.61,0,0,0-.42-1.84,2.72,2.72,0,0,0-1.15-1.08,3.92,3.92,0,0,0-3.24,0,2.83,2.83,0,0,0-1.13.94,2.36,2.36,0,0,0-.41,1.35h-1a3.9,3.9,0,0,1,.61-2,4.2,4.2,0,0,1,1.53-1.4A4.47,4.47,0,0,1,84.89,40a4.74,4.74,0,0,1,2.28.53,3.89,3.89,0,0,1,1.59,1.55,5,5,0,0,1,.59,2.51v4.68a.66.66,0,0,1-.2.48A.62.62,0,0,1,88.67,49.94Z" fill="#fff"/><path d="M96.75,50a4.87,4.87,0,0,1-2.52-.64,4.44,4.44,0,0,1-1.72-1.77A5.25,5.25,0,0,1,91.89,45a5.06,5.06,0,0,1,.65-2.61,4.61,4.61,0,0,1,1.78-1.78,5.58,5.58,0,0,1,5.15,0,4.66,4.66,0,0,1,1.77,1.78A5.49,5.49,0,0,1,101.9,45l-.81.43a4.94,4.94,0,0,1-.56,2.37A4.14,4.14,0,0,1,99,49.45,4.3,4.3,0,0,1,96.75,50Zm.18,3.8a5.64,5.64,0,0,1-2.5-.53,5.1,5.1,0,0,1-1.79-1.45.58.58,0,0,1-.17-.47.56.56,0,0,1,.26-.41.66.66,0,0,1,.53-.11.75.75,0,0,1,.45.27,3.69,3.69,0,0,0,1.34,1,4.22,4.22,0,0,0,1.9.4,3.39,3.39,0,0,0,1.81-.49,3.52,3.52,0,0,0,1.29-1.36,4.28,4.28,0,0,0,.48-2.07V45.91l.52-1,.85.17V48.7a5.33,5.33,0,0,1-.65,2.62,4.85,4.85,0,0,1-4.32,2.51Zm0-5.06a3.63,3.63,0,0,0,1.88-.48A3.28,3.28,0,0,0,100.06,47a4,4,0,0,0,.47-1.94,4.06,4.06,0,0,0-.47-2,3.37,3.37,0,0,0-1.29-1.33,3.62,3.62,0,0,0-1.88-.47,3.68,3.68,0,0,0-1.89.47,3.37,3.37,0,0,0-1.29,1.33,4,4,0,0,0-.47,2A3.85,3.85,0,0,0,93.71,47,3.28,3.28,0,0,0,95,48.29,3.69,3.69,0,0,0,96.89,48.77Z" fill="#fff"/><path d="M110,41.36a.56.56,0,0,1-.63-.63.56.56,0,0,1,.63-.64h6.68a.56.56,0,0,1,.63.64.56.56,0,0,1-.63.63Zm.07,8.58a.63.63,0,0,1,0-1.26h6.68a.63.63,0,0,1,0,1.26Zm.63-.47-1.13-.61,6.69-8.51.94.79Z" fill="#fff"/><path d="M123.86,50a5.1,5.1,0,0,1-2.59-.64,4.47,4.47,0,0,1-1.76-1.77,5.16,5.16,0,0,1-.64-2.59,5.42,5.42,0,0,1,.6-2.6A4.49,4.49,0,0,1,123.59,40a4.42,4.42,0,0,1,2.38.62,4.21,4.21,0,0,1,1.58,1.71,5.51,5.51,0,0,1,.55,2.51.62.62,0,0,1-.18.46.65.65,0,0,1-.46.17h-7.65V44.32h7.79l-.77.56a4.2,4.2,0,0,0-.38-1.87,3.09,3.09,0,0,0-1.13-1.29,3,3,0,0,0-1.73-.47,3.32,3.32,0,0,0-1.8.48,3.25,3.25,0,0,0-1.2,1.34,4.41,4.41,0,0,0-.42,2,3.85,3.85,0,0,0,.47,1.94A3.49,3.49,0,0,0,122,48.3a3.65,3.65,0,0,0,1.91.49,4,4,0,0,0,1.3-.23,3.05,3.05,0,0,0,1-.56.72.72,0,0,1,.45-.17.66.66,0,0,1,.44.13.72.72,0,0,1,.24.47.52.52,0,0,1-.21.43,4.72,4.72,0,0,1-1.51.84A5.19,5.19,0,0,1,123.86,50Z" fill="#fff"/><path d="M131.13,49.94a.69.69,0,0,1-.51-.18.68.68,0,0,1-.18-.5V40.78a.67.67,0,0,1,.18-.5.69.69,0,0,1,.51-.19.69.69,0,0,1,.5.19.67.67,0,0,1,.18.5v8.48a.62.62,0,0,1-.68.68ZM131,43.88a4.28,4.28,0,0,1,.58-2A4,4,0,0,1,133,40.49a3.72,3.72,0,0,1,1.9-.5,2.93,2.93,0,0,1,1.28.23.57.57,0,0,1,.34.69.55.55,0,0,1-.24.36.81.81,0,0,1-.42.07l-.55,0a4,4,0,0,0-1.79.21,2.74,2.74,0,0,0-1.24.91,2.33,2.33,0,0,0-.46,1.46Z" fill="#fff"/><path d="M142.45,50a5,5,0,0,1-2.57-.65,4.71,4.71,0,0,1-1.79-1.78,5.52,5.52,0,0,1,0-5.16,4.8,4.8,0,0,1,1.79-1.79,5.46,5.46,0,0,1,5.13,0,4.78,4.78,0,0,1,1.78,1.79,5.22,5.22,0,0,1,.66,2.59,5.11,5.11,0,0,1-.65,2.57A4.78,4.78,0,0,1,145,49.38,5,5,0,0,1,142.45,50Zm0-1.26a3.64,3.64,0,0,0,1.87-.48,3.49,3.49,0,0,0,1.3-1.34,3.9,3.9,0,0,0,.47-1.92,4,4,0,0,0-.47-1.94,3.42,3.42,0,0,0-1.3-1.34,3.88,3.88,0,0,0-3.74,0,3.51,3.51,0,0,0-1.31,1.34A3.9,3.9,0,0,0,138.8,45a3.8,3.8,0,0,0,.47,1.92,3.59,3.59,0,0,0,1.31,1.34A3.64,3.64,0,0,0,142.45,48.77Z" fill="#fff"/><path d="M157.66,49.94a.71.71,0,0,1-.41-.12.75.75,0,0,1-.26-.33l-2.8-8.42a1.05,1.05,0,0,1,0-.71.52.52,0,0,1,.51-.27.74.74,0,0,1,.41.13.79.79,0,0,1,.27.4l2.5,7.65h-.39l2.32-7.63a.86.86,0,0,1,.24-.39.66.66,0,0,1,.44-.16.63.63,0,0,1,.44.15.79.79,0,0,1,.25.4l2.21,7.45h-.3l2.44-7.47a.68.68,0,0,1,.67-.53.55.55,0,0,1,.54.3.81.81,0,0,1,0,.68l-2.81,8.42a.78.78,0,0,1-.24.33.71.71,0,0,1-.41.12.79.79,0,0,1-.42-.12.55.55,0,0,1-.24-.33L160.36,42h.22l-2.27,7.52a.57.57,0,0,1-.25.33A.72.72,0,0,1,157.66,49.94Z" fill="#fff"/><path d="M172.73,50a4.75,4.75,0,0,1-4.23-2.45,5.13,5.13,0,0,1-.63-2.55,5,5,0,0,1,.65-2.58,5,5,0,0,1,8.68,0,5.16,5.16,0,0,1,.67,2.58l-.55.43a4.58,4.58,0,0,1-.61,2.33,4.45,4.45,0,0,1-1.64,1.64A4.58,4.58,0,0,1,172.73,50Zm.14-1.26A3.48,3.48,0,0,0,176,46.94a3.82,3.82,0,0,0,.48-1.91A3.86,3.86,0,0,0,176,43.1a3.63,3.63,0,0,0-1.3-1.34,3.49,3.49,0,0,0-1.86-.49,3.53,3.53,0,0,0-1.85.49,3.69,3.69,0,0,0-1.32,1.34,3.86,3.86,0,0,0-.48,1.93,3.82,3.82,0,0,0,.48,1.91,3.54,3.54,0,0,0,3.17,1.83Zm4.3,1.17a.68.68,0,0,1-.5-.19.61.61,0,0,1-.2-.49V46.18l.34-1.42,1.06.27v4.23a.64.64,0,0,1-.19.49A.7.7,0,0,1,177.17,49.94Z" fill="#fff"/><path d="M184,50a6.35,6.35,0,0,1-2.1-.36,4,4,0,0,1-1.7-1.08.58.58,0,0,1-.16-.48.72.72,0,0,1,.79-.62.77.77,0,0,1,.45.24,2.81,2.81,0,0,0,1.15.77,4.35,4.35,0,0,0,1.57.27,3.17,3.17,0,0,0,1.93-.46,1.41,1.41,0,0,0,.61-1.1,1.27,1.27,0,0,0-.61-1.08,5.16,5.16,0,0,0-2-.65,5.38,5.38,0,0,1-2.66-1,2.17,2.17,0,0,1-.85-1.71,2.36,2.36,0,0,1,.49-1.53,2.93,2.93,0,0,1,1.29-.92A5.12,5.12,0,0,1,184,40a4.74,4.74,0,0,1,2.08.41,3.79,3.79,0,0,1,1.42,1.12.59.59,0,0,1-.15.9.74.74,0,0,1-.49.08.82.82,0,0,1-.48-.26,2.74,2.74,0,0,0-1-.77,3.68,3.68,0,0,0-1.37-.24,2.74,2.74,0,0,0-1.58.4,1.2,1.2,0,0,0-.6,1,1.17,1.17,0,0,0,.23.72,1.86,1.86,0,0,0,.77.54,6.43,6.43,0,0,0,1.54.39,7,7,0,0,1,2.13.64,2.91,2.91,0,0,1,1.12,1,2.42,2.42,0,0,1,.33,1.24,2.33,2.33,0,0,1-.49,1.48,3.24,3.24,0,0,1-1.37,1A5.22,5.22,0,0,1,184,50Z" fill="#fff"/><path d="M189.64,41.66a.64.64,0,0,1-.45-.17.54.54,0,0,1-.18-.42.57.57,0,0,1,.18-.44.6.6,0,0,1,.45-.17h4.59a.6.6,0,0,1,.45.17.57.57,0,0,1,.18.44.54.54,0,0,1-.18.42.64.64,0,0,1-.45.17Zm4.49,8.28a3.2,3.2,0,0,1-2.88-1.68,3.62,3.62,0,0,1-.44-1.79v-8.8a.73.73,0,0,1,.19-.51.67.67,0,0,1,.5-.2.69.69,0,0,1,.5.2.69.69,0,0,1,.2.51v8.8a2.12,2.12,0,0,0,.54,1.5,1.8,1.8,0,0,0,1.39.58h.48a.62.62,0,0,1,.47.2.74.74,0,0,1,.18.51.6.6,0,0,1-.22.49.76.76,0,0,1-.54.19Z" fill="#fff"/><path d="M202,50a5.09,5.09,0,0,1-2.58-.64,4.47,4.47,0,0,1-1.76-1.77A5.16,5.16,0,0,1,197,45a5.42,5.42,0,0,1,.6-2.6A4.48,4.48,0,0,1,201.7,40a4.43,4.43,0,0,1,2.39.62,4.12,4.12,0,0,1,1.57,1.71,5.39,5.39,0,0,1,.56,2.51.62.62,0,0,1-.18.46.66.66,0,0,1-.47.17h-7.65V44.32h7.8l-.78.56a4.07,4.07,0,0,0-.37-1.87,3,3,0,0,0-2.87-1.76,3.36,3.36,0,0,0-1.8.48,3.29,3.29,0,0,0-1.19,1.34,4.41,4.41,0,0,0-.43,2,3.85,3.85,0,0,0,.48,1.94,3.42,3.42,0,0,0,1.31,1.33,3.61,3.61,0,0,0,1.9.49,4,4,0,0,0,1.31-.23,3.05,3.05,0,0,0,1.05-.56.68.68,0,0,1,.45-.17.63.63,0,0,1,.43.13.69.69,0,0,1,.25.47.54.54,0,0,1-.21.43,4.83,4.83,0,0,1-1.51.84A5.21,5.21,0,0,1,202,50Z" fill="#fff"/><path d="M208.4,52.86a.41.41,0,0,1-.28-.1.38.38,0,0,1-.1-.26.9.9,0,0,1,.16-.5l.34-.47a1.13,1.13,0,0,0,.17-.62,1,1,0,0,0-.13-.54,1.82,1.82,0,0,0-.29-.38,1.79,1.79,0,0,1-.3-.38.93.93,0,0,1-.13-.52.9.9,0,0,1,.3-.71,1.15,1.15,0,0,1,1.63.15,1.8,1.8,0,0,1,.34,1.18,4.55,4.55,0,0,1-.14,1.06,4.69,4.69,0,0,1-.4,1,2.79,2.79,0,0,1-.56.77A.91.91,0,0,1,208.4,52.86Z" fill="#fff"/><path d="M38,74a4.89,4.89,0,0,1-2.53-.65,4.8,4.8,0,0,1-1.78-1.77A5.11,5.11,0,0,1,33,69.08V60.59a.66.66,0,0,1,.71-.71.68.68,0,0,1,.49.19.69.69,0,0,1,.19.52v5.29a4.28,4.28,0,0,1,1.58-1.36A4.64,4.64,0,0,1,38.12,64a4.75,4.75,0,0,1,2.49.65,4.79,4.79,0,0,1,1.73,1.79,5.42,5.42,0,0,1,0,5.13,4.76,4.76,0,0,1-1.8,1.79A5,5,0,0,1,38,74Zm0-1.26a3.55,3.55,0,0,0,1.87-.49,3.66,3.66,0,0,0,1.31-1.34,4.1,4.1,0,0,0,0-3.85,3.51,3.51,0,0,0-1.31-1.34,3.84,3.84,0,0,0-3.72,0,3.35,3.35,0,0,0-1.3,1.34,4.18,4.18,0,0,0,0,3.85,3.49,3.49,0,0,0,1.3,1.34A3.53,3.53,0,0,0,38,72.77Z" fill="#fff"/><path d="M50,74a4.75,4.75,0,0,1-2.49-.66,4.65,4.65,0,0,1-1.73-1.79,5.39,5.39,0,0,1,0-5.13,4.8,4.8,0,0,1,1.79-1.79,5,5,0,0,1,6.88,1.79A5.27,5.27,0,0,1,55.19,69l-.56.43a4.48,4.48,0,0,1-2.24,4A4.62,4.62,0,0,1,50,74Zm.14-1.26a3.45,3.45,0,0,0,3.16-1.83A3.82,3.82,0,0,0,53.82,69a3.86,3.86,0,0,0-.48-1.93,3.69,3.69,0,0,0-1.29-1.34,3.78,3.78,0,0,0-3.72,0A3.77,3.77,0,0,0,47,67.1,3.86,3.86,0,0,0,46.53,69,3.82,3.82,0,0,0,47,70.94a3.72,3.72,0,0,0,1.32,1.35A3.62,3.62,0,0,0,50.18,72.77Zm0,4.93a.93.93,0,0,1-.68-.28,1,1,0,0,1-.29-.71.9.9,0,0,1,.3-.71,1,1,0,0,1,1.37,0,.89.89,0,0,1,.29.71,1,1,0,0,1-1,1Zm4.32-3.76a.68.68,0,0,1-.5-.19.65.65,0,0,1-.2-.49V70.18l.34-1.42,1.07.27v4.23a.65.65,0,0,1-.2.49A.69.69,0,0,1,54.48,73.94Z" fill="#fff"/><path d="M58.59,73.94a.66.66,0,0,1-.51-.19.64.64,0,0,1-.19-.49V64.8a.66.66,0,0,1,.7-.71.68.68,0,0,1,.49.19.69.69,0,0,1,.19.52v8.46a.65.65,0,0,1-.68.68Zm7.74,0a.67.67,0,0,1-.51-.2.65.65,0,0,1-.19-.48V68.58a3.51,3.51,0,0,0-.43-1.84,2.66,2.66,0,0,0-1.15-1.08,3.64,3.64,0,0,0-1.65-.36,3.78,3.78,0,0,0-1.59.34,2.8,2.8,0,0,0-1.12.94,2.3,2.3,0,0,0-.42,1.35h-1a4,4,0,0,1,.61-2,4.2,4.2,0,0,1,1.53-1.4A4.47,4.47,0,0,1,62.55,64a4.74,4.74,0,0,1,2.28.53,3.85,3.85,0,0,1,1.6,1.55A5,5,0,0,1,67,68.58v4.68a.68.68,0,0,1-.68.68Z" fill="#fff"/><path d="M79.74,74a4.85,4.85,0,0,1-2.53-.66,4.7,4.7,0,0,1-1.75-1.79A5.13,5.13,0,0,1,74.82,69a5.35,5.35,0,0,1,.62-2.58,4.64,4.64,0,0,1,1.67-1.79A4.53,4.53,0,0,1,79.56,64a4.55,4.55,0,0,1,3.65,1.72.53.53,0,0,1,.15.46.7.7,0,0,1-.31.42.53.53,0,0,1-.44.1.68.68,0,0,1-.42-.26,3.37,3.37,0,0,0-2.63-1.18,3.18,3.18,0,0,0-3,1.81,4.37,4.37,0,0,0-.43,2A4,4,0,0,0,76.62,71a3.39,3.39,0,0,0,1.26,1.34,3.58,3.58,0,0,0,1.86.48A4.06,4.06,0,0,0,81,72.58a2.92,2.92,0,0,0,1-.58.76.76,0,0,1,.45-.2.62.62,0,0,1,.43.14.74.74,0,0,1,.25.45.48.48,0,0,1-.18.43A4.61,4.61,0,0,1,79.74,74Z" fill="#fff"/><path d="M90.56,74A5,5,0,0,1,88,73.38,4.68,4.68,0,0,1,86.2,71.6a5.45,5.45,0,0,1,0-5.16A4.78,4.78,0,0,1,88,64.65,5.14,5.14,0,0,1,90.56,64a5,5,0,0,1,2.56.64,4.75,4.75,0,0,1,1.77,1.79A5.12,5.12,0,0,1,95.56,69a5,5,0,0,1-.66,2.57,4.75,4.75,0,0,1-1.78,1.78A5,5,0,0,1,90.56,74Zm0-1.26a3.67,3.67,0,0,0,1.87-.48A3.46,3.46,0,0,0,93.72,71,3.8,3.8,0,0,0,94.19,69a3.9,3.9,0,0,0-.47-1.94,3.4,3.4,0,0,0-1.29-1.34,3.67,3.67,0,0,0-1.87-.48,3.7,3.7,0,0,0-1.88.48,3.49,3.49,0,0,0-1.3,1.34A3.9,3.9,0,0,0,86.9,69,3.8,3.8,0,0,0,87.38,71a3.56,3.56,0,0,0,1.3,1.34A3.7,3.7,0,0,0,90.56,72.77ZM90.43,62.6a.69.69,0,0,1-.5-.21.68.68,0,0,1-.2-.49.67.67,0,0,1,.16-.47l2-2a.7.7,0,0,1,.49-.2.66.66,0,0,1,.5.21.67.67,0,0,1,.2.51.73.73,0,0,1,0,.25.44.44,0,0,1-.16.22l-2,2A.64.64,0,0,1,90.43,62.6Z" fill="#fff"/><path d="M102.9,65.66a.64.64,0,0,1-.45-.17.54.54,0,0,1-.18-.42.57.57,0,0,1,.18-.44.6.6,0,0,1,.45-.17h4.59a.6.6,0,0,1,.45.17.57.57,0,0,1,.18.44.54.54,0,0,1-.18.42.64.64,0,0,1-.45.17Zm4.49,8.28a3.26,3.26,0,0,1-1.71-.45,3.22,3.22,0,0,1-1.17-1.23,3.62,3.62,0,0,1-.44-1.79v-8.8a.73.73,0,0,1,.19-.51.67.67,0,0,1,.5-.2.69.69,0,0,1,.5.2.69.69,0,0,1,.2.51v8.8A2.12,2.12,0,0,0,106,72a1.8,1.8,0,0,0,1.39.58h.48a.62.62,0,0,1,.47.2.74.74,0,0,1,.18.51.6.6,0,0,1-.22.49.76.76,0,0,1-.54.19Z" fill="#fff"/><path d="M111.47,69.93a.67.67,0,0,1-.7-.7V60.59a.69.69,0,0,1,.19-.52.71.71,0,0,1,.51-.19.7.7,0,0,1,.5.19.74.74,0,0,1,.19.52v8.64a.72.72,0,0,1-.19.5A.67.67,0,0,1,111.47,69.93Zm0,4a.67.67,0,0,1-.51-.19.64.64,0,0,1-.19-.49V64.8a.69.69,0,0,1,.19-.52.71.71,0,0,1,.51-.19.7.7,0,0,1,.5.19.74.74,0,0,1,.19.52v8.46a.68.68,0,0,1-.19.49A.66.66,0,0,1,111.47,73.94Zm7.74,0a.65.65,0,0,1-.5-.2.66.66,0,0,1-.2-.48V68.58a3.61,3.61,0,0,0-.42-1.84,2.74,2.74,0,0,0-1.16-1.08,3.63,3.63,0,0,0-1.64-.36,3.79,3.79,0,0,0-1.6.34,2.87,2.87,0,0,0-1.12.94,2.29,2.29,0,0,0-.41,1.35h-1a3.81,3.81,0,0,1,.61-2,4.05,4.05,0,0,1,1.53-1.4,4.4,4.4,0,0,1,2.12-.51,4.78,4.78,0,0,1,2.29.53,3.89,3.89,0,0,1,1.59,1.55,5,5,0,0,1,.59,2.51v4.68a.66.66,0,0,1-.2.48A.64.64,0,0,1,119.21,73.94Z" fill="#fff"/><path d="M127.42,74a5.09,5.09,0,0,1-2.58-.64,4.56,4.56,0,0,1-1.77-1.77,5.26,5.26,0,0,1-.64-2.59,5.31,5.31,0,0,1,.61-2.6,4.59,4.59,0,0,1,1.66-1.78,4.64,4.64,0,0,1,2.45-.64,4.4,4.4,0,0,1,2.38.62,4.14,4.14,0,0,1,1.58,1.71,5.52,5.52,0,0,1,.56,2.51.62.62,0,0,1-.18.46.68.68,0,0,1-.47.17h-7.65V68.32h7.79l-.77.56A4.07,4.07,0,0,0,130,67a3.07,3.07,0,0,0-1.12-1.29,3.11,3.11,0,0,0-1.74-.47,3.36,3.36,0,0,0-1.8.48,3.25,3.25,0,0,0-1.2,1.34,4.41,4.41,0,0,0-.42,2,3.85,3.85,0,0,0,.48,1.94,3.39,3.39,0,0,0,1.3,1.33,3.65,3.65,0,0,0,1.91.49,4,4,0,0,0,1.3-.23,3.2,3.2,0,0,0,1.06-.56.68.68,0,0,1,.45-.17.63.63,0,0,1,.43.13.64.64,0,0,1,.24.47.51.51,0,0,1-.2.43,4.78,4.78,0,0,1-1.52.84A5.19,5.19,0,0,1,127.42,74ZM125,62.53a.81.81,0,0,1-.52-.17.6.6,0,0,1-.2-.46.7.7,0,0,1,.34-.61l2.12-1.41a.65.65,0,0,1,.35-.09.58.58,0,0,1,.19,0l.17.06,2.1,1.41a.7.7,0,0,1,.34.61.58.58,0,0,1-.19.45.74.74,0,0,1-.51.18.51.51,0,0,1-.22,0,1,1,0,0,1-.21-.1l-1.67-1.16-1.68,1.16A.72.72,0,0,1,125,62.53Zm3.81-2.39a.66.66,0,0,1-.46-.19.65.65,0,0,1-.18-.46V59a.66.66,0,0,1,.57-.7l.45-.09a1,1,0,0,0,.56-.29.71.71,0,0,0,.18-.5.76.76,0,0,0-.26-.61,1,1,0,0,0-.64-.22,1.18,1.18,0,0,0-.43.08,2.12,2.12,0,0,0-.36.21A.54.54,0,0,1,128,57l-.23,0a.61.61,0,0,1-.41-.15.54.54,0,0,1-.17-.42.59.59,0,0,1,.22-.49,2.2,2.2,0,0,1,.71-.41,2.41,2.41,0,0,1,.87-.15,2.2,2.2,0,0,1,1.5.53,1.75,1.75,0,0,1,.61,1.38,1.52,1.52,0,0,1-.54,1.27,2.67,2.67,0,0,1-1.28.53l.14.23a.84.84,0,0,1-.19.59A.56.56,0,0,1,128.82,60.14Z" fill="#fff"/><path d="M143.62,74a4.87,4.87,0,0,1-2.52-.64,4.44,4.44,0,0,1-1.72-1.77,5.36,5.36,0,0,1-.62-2.59,5.16,5.16,0,0,1,.65-2.61,4.61,4.61,0,0,1,1.78-1.78,5.6,5.6,0,0,1,5.16,0,4.63,4.63,0,0,1,1.76,1.78,5.26,5.26,0,0,1,.66,2.61l-.81.43a4.94,4.94,0,0,1-.56,2.37,4.14,4.14,0,0,1-1.54,1.62A4.27,4.27,0,0,1,143.62,74Zm.18,3.8a5.64,5.64,0,0,1-2.5-.53,5,5,0,0,1-1.78-1.45.59.59,0,0,1-.18-.47.55.55,0,0,1,.27-.41.64.64,0,0,1,.52-.11.75.75,0,0,1,.45.27,3.78,3.78,0,0,0,1.34,1,4.22,4.22,0,0,0,1.9.4,3.43,3.43,0,0,0,1.82-.49,3.5,3.5,0,0,0,1.28-1.36,4.28,4.28,0,0,0,.48-2.07V69.91l.52-1,.85.17V72.7a5.33,5.33,0,0,1-.65,2.62,4.82,4.82,0,0,1-4.32,2.51Zm0-5.06a3.63,3.63,0,0,0,1.88-.48A3.28,3.28,0,0,0,146.93,71,4,4,0,0,0,147.4,69a4.06,4.06,0,0,0-.47-2,3.37,3.37,0,0,0-1.29-1.33,3.62,3.62,0,0,0-1.88-.47,3.71,3.71,0,0,0-1.89.47,3.37,3.37,0,0,0-1.29,1.33,4,4,0,0,0-.47,2,3.85,3.85,0,0,0,.47,1.94,3.28,3.28,0,0,0,1.29,1.32A3.71,3.71,0,0,0,143.76,72.77Z" fill="#fff"/><path d="M156,74a5,5,0,0,1-2.57-.65,4.71,4.71,0,0,1-1.79-1.78,5.52,5.52,0,0,1,0-5.16,4.8,4.8,0,0,1,1.79-1.79,5.46,5.46,0,0,1,5.13,0,4.78,4.78,0,0,1,1.78,1.79A5.22,5.22,0,0,1,161,69a5.11,5.11,0,0,1-.65,2.57,4.78,4.78,0,0,1-1.79,1.78A5,5,0,0,1,156,74Zm0-1.26a3.67,3.67,0,0,0,1.87-.48,3.56,3.56,0,0,0,1.3-1.34,3.9,3.9,0,0,0,.47-1.92,4,4,0,0,0-.47-1.94,3.49,3.49,0,0,0-1.3-1.34,3.88,3.88,0,0,0-3.74,0,3.51,3.51,0,0,0-1.31,1.34A3.9,3.9,0,0,0,152.3,69a3.8,3.8,0,0,0,.47,1.92,3.59,3.59,0,0,0,1.31,1.34A3.64,3.64,0,0,0,156,72.77Zm-.13-10.17a.67.67,0,0,1-.49-.21.65.65,0,0,1-.21-.49.72.72,0,0,1,.16-.47l2-2a.66.66,0,0,1,.48-.2.66.66,0,0,1,.51.21.71.71,0,0,1,.2.51.74.74,0,0,1,0,.25.48.48,0,0,1-.15.22l-2,2A.64.64,0,0,1,155.82,62.6Z" fill="#fff"/><path d="M164.35,78.15a.69.69,0,0,1-.51-.19.69.69,0,0,1-.19-.51V69a5,5,0,0,1,.68-2.53,4.9,4.9,0,0,1,1.78-1.78,5.36,5.36,0,0,1,5.1,0A4.8,4.8,0,0,1,173,66.45a5.39,5.39,0,0,1,0,5.13,4.61,4.61,0,0,1-1.74,1.79,5,5,0,0,1-4.67.15A4.34,4.34,0,0,1,165,72.16v5.29a.65.65,0,0,1-.69.7Zm4.29-5.38a3.67,3.67,0,0,0,1.87-.48,3.61,3.61,0,0,0,1.31-1.35,3.92,3.92,0,0,0,.47-1.91,4,4,0,0,0-.47-1.93,3.66,3.66,0,0,0-1.31-1.34,3.79,3.79,0,0,0-3.73,0,3.53,3.53,0,0,0-1.29,1.34A4,4,0,0,0,165,69a3.92,3.92,0,0,0,.47,1.91,3.49,3.49,0,0,0,1.29,1.35A3.66,3.66,0,0,0,168.64,72.77Z" fill="#fff"/><path d="M182.35,78.15a.69.69,0,0,1-.51-.19.69.69,0,0,1-.19-.51V69a5,5,0,0,1,.68-2.53,4.9,4.9,0,0,1,1.78-1.78,5.36,5.36,0,0,1,5.1,0A4.8,4.8,0,0,1,191,66.45a5.39,5.39,0,0,1,0,5.13,4.61,4.61,0,0,1-1.74,1.79,5,5,0,0,1-4.67.15A4.34,4.34,0,0,1,183,72.16v5.29a.65.65,0,0,1-.69.7Zm4.29-5.38a3.67,3.67,0,0,0,1.87-.48,3.61,3.61,0,0,0,1.31-1.35,3.92,3.92,0,0,0,.47-1.91,4,4,0,0,0-.47-1.93,3.66,3.66,0,0,0-1.31-1.34,3.79,3.79,0,0,0-3.73,0,3.53,3.53,0,0,0-1.29,1.34A4,4,0,0,0,183,69a3.92,3.92,0,0,0,.47,1.91,3.49,3.49,0,0,0,1.29,1.35A3.66,3.66,0,0,0,186.64,72.77Z" fill="#fff"/><path d="M195.08,69.93a.66.66,0,0,1-.51-.2.68.68,0,0,1-.19-.5V60.59a.66.66,0,0,1,.7-.71.72.72,0,0,1,.5.19.73.73,0,0,1,.18.52v8.64a.71.71,0,0,1-.18.5A.69.69,0,0,1,195.08,69.93Zm0,4a.66.66,0,0,1-.51-.19.64.64,0,0,1-.19-.49V64.8a.66.66,0,0,1,.7-.71.72.72,0,0,1,.5.19.73.73,0,0,1,.18.52v8.46a.64.64,0,0,1-.68.68Zm7.74,0a.65.65,0,0,1-.5-.2.62.62,0,0,1-.2-.48V68.58a3.61,3.61,0,0,0-.42-1.84,2.74,2.74,0,0,0-1.16-1.08,3.63,3.63,0,0,0-1.64-.36,3.79,3.79,0,0,0-1.6.34,2.8,2.8,0,0,0-1.12.94,2.3,2.3,0,0,0-.42,1.35h-1a3.91,3.91,0,0,1,.62-2,4.05,4.05,0,0,1,1.53-1.4A4.4,4.4,0,0,1,199,64a4.8,4.8,0,0,1,2.29.53,3.89,3.89,0,0,1,1.59,1.55,5,5,0,0,1,.58,2.51v4.68a.65.65,0,0,1-.19.48A.66.66,0,0,1,202.82,73.94Z" fill="#fff"/><path d="M210.9,74a4.75,4.75,0,0,1-4.22-2.45A5.13,5.13,0,0,1,206,69a5.05,5.05,0,0,1,.66-2.58,4.88,4.88,0,0,1,1.79-1.79,5,5,0,0,1,2.56-.65,4.88,4.88,0,0,1,4.33,2.44,5.27,5.27,0,0,1,.67,2.58l-.56.43a4.57,4.57,0,0,1-.6,2.33,4.45,4.45,0,0,1-1.64,1.64A4.59,4.59,0,0,1,210.9,74Zm.15-1.26a3.63,3.63,0,0,0,1.86-.48,3.59,3.59,0,0,0,1.3-1.35,3.92,3.92,0,0,0,.47-1.91,4,4,0,0,0-.47-1.93,3.63,3.63,0,0,0-1.3-1.34,3.78,3.78,0,0,0-3.72,0,3.66,3.66,0,0,0-1.31,1.34,3.77,3.77,0,0,0-.49,1.93,3.72,3.72,0,0,0,.49,1.91,3.51,3.51,0,0,0,3.17,1.83ZM209,62.53a.77.77,0,0,1-.51-.17.57.57,0,0,1-.21-.46.7.7,0,0,1,.34-.61l2.12-1.41a.65.65,0,0,1,.35-.09.58.58,0,0,1,.19,0l.17.06,2.1,1.41a.7.7,0,0,1,.34.61.58.58,0,0,1-.19.45.74.74,0,0,1-.51.18.51.51,0,0,1-.22,0,1,1,0,0,1-.21-.1l-1.67-1.16-1.68,1.16A.72.72,0,0,1,209,62.53Zm3.81-3.08a.59.59,0,0,1-.46-.2l-2-2a.71.71,0,0,1-.18-.49.73.73,0,0,1,.2-.51.64.64,0,0,1,.49-.21.66.66,0,0,1,.5.22l2,2a.58.58,0,0,1,.18.45.66.66,0,0,1-.21.51A.67.67,0,0,1,212.77,59.45Zm2.58,14.49a.7.7,0,0,1-.51-.19.64.64,0,0,1-.19-.49V70.18l.34-1.42,1.06.27v4.23a.65.65,0,0,1-.2.49A.68.68,0,0,1,215.35,73.94Z" fill="#fff"/><path d="M219.45,73.94a.69.69,0,0,1-.51-.19.64.64,0,0,1-.19-.49V64.8a.69.69,0,0,1,.19-.52.73.73,0,0,1,.51-.19.7.7,0,0,1,.5.19.74.74,0,0,1,.19.52v8.46a.68.68,0,0,1-.19.49A.66.66,0,0,1,219.45,73.94Zm7.74,0a.65.65,0,0,1-.5-.2.66.66,0,0,1-.2-.48V68.58a3.61,3.61,0,0,0-.42-1.84,2.74,2.74,0,0,0-1.16-1.08,3.63,3.63,0,0,0-1.64-.36,3.71,3.71,0,0,0-1.59.34,2.83,2.83,0,0,0-1.13.94,2.29,2.29,0,0,0-.41,1.35h-1a3.81,3.81,0,0,1,.61-2,4.05,4.05,0,0,1,1.53-1.4,4.4,4.4,0,0,1,2.12-.51,4.78,4.78,0,0,1,2.29.53,3.89,3.89,0,0,1,1.59,1.55,5,5,0,0,1,.59,2.51v4.68a.66.66,0,0,1-.2.48A.64.64,0,0,1,227.19,73.94Z" fill="#fff"/><path d="M231.06,73.94a1,1,0,0,1-1-1,1.06,1.06,0,0,1,.3-.76,1.07,1.07,0,0,1,1.5,0,1.05,1.05,0,0,1,.3.75,1,1,0,0,1-.3.74A1.06,1.06,0,0,1,231.06,73.94Zm4.2,0a1,1,0,0,1-.74-.3,1,1,0,0,1-.31-.74,1,1,0,0,1,.31-.76,1.05,1.05,0,0,1,1.48,0,1,1,0,0,1,.32.75,1,1,0,0,1-.31.74A1,1,0,0,1,235.26,73.94Zm4.19,0a1,1,0,0,1-1-1,1,1,0,0,1,.29-.75,1,1,0,0,1,.75-.31,1,1,0,0,1,.74.3,1.06,1.06,0,0,1,.3.76,1,1,0,0,1-1,1Z" fill="#fff"/></g></g></svg>