<?xml version="1.0" encoding="utf-8"?>
<!-- Generator: Adobe Illustrator 24.0.3, SVG Export Plug-In . SVG Version: 6.00 Build 0)  -->
<svg version="1.1" id="Layer_1" xmlns="http://www.w3.org/2000/svg" xmlns:xlink="http://www.w3.org/1999/xlink" x="0px" y="0px"
	 viewBox="0 0 282 150" style="enable-background:new 0 0 282 150;" xml:space="preserve">
<style type="text/css">
	.st0{fill:#EC5C89;}
	.st1{fill:#897DFF;}
	.st2{enable-background:new    ;}
	.st3{fill:#FFFFFF;}
</style>
<title>imgimg_17</title>
<g id="Layer_2_1_">
	<g id="mid_character">
		<path class="st0" d="M114.5,149c-41.9,0-68-1.5-85.6-9.2C9.6,131.4,1,115.3,1,87.5C1,57,4.8,35.7,23.6,24.3
			C41.2,13.5,71,11.5,119.8,11.5h8.4c75.4,0.3,109.3,1.5,121.4,26.2c6,12.3,7.4,27.5,7.5,38.2c0,6.1-0.3,12.3-1,18.3
			c2.7-1.3,8-3.5,13.2-3.5c5.7,0,9.7,2.8,11.6,8c0.1,0.2,0.1,0.5,0,0.8c-0.1,0.2-0.3,0.4-0.6,0.5c-13.4,4.2-16.6,6.6-21.5,11.6
			c-1.9,10.8-4.7,20.3-18.9,26.8c-15.2,7.1-43,10.4-87.4,10.4c-6.5,0-12.7,0-18.7,0.1C127.2,149,120.7,149,114.5,149z"/>
		<path d="M119.8,12.5h8.4c72.9,0.3,108.4,0.9,120.5,25.6c11.6,23.5,6.1,57.9,6.1,57.9s7.4-4.3,14.4-4.3c4.4,0,8.6,1.7,10.7,7.3
			c-13.4,4.2-16.9,6.6-22.1,12.1c-3.8,21.5-10,36.6-105.4,36.8c-13.7,0-26.4,0.1-38.1,0.1C37.2,148,2,143.9,2,87.5
			C2,21.2,21.6,12.5,119.8,12.5 M119.8,10.5c-49,0-78.9,2.1-96.8,12.9C3.9,35.1,0,56.6,0,87.5c0,28.2,8.8,44.6,28.5,53.2
			c17.8,7.8,44,9.2,86,9.2c6.2,0,12.6,0,19.4-0.1c6,0,12.2,0,18.7-0.1c58.6-0.1,78.2-6,87.8-10.5c14.4-6.7,17.4-16.3,19.4-27.3
			c4.6-4.7,7.9-7,20.8-11.1c0.5-0.2,0.9-0.5,1.2-1c0.2-0.5,0.3-1.1,0.1-1.6c-2.1-5.7-6.4-8.6-12.6-8.6c-4.1,0.2-8.2,1.1-12,2.9
			c1.1-9.7,2.8-35.9-6.8-55.3c-6.1-12.4-18.1-19.5-38.9-23c-19-3.2-44.2-3.5-83.4-3.7L119.8,10.5L119.8,10.5z"/>
		<path class="st1" d="M117.6,138.5c-41.9,0-68-1.5-85.6-9.2C12.7,120.9,4.1,104.8,4.1,77c0-30.6,3.8-51.8,22.6-63.2
			C44.4,3,74.2,1,123,1h8.4c74.8,0.3,108.4,1.5,121.4,26.2c10.1,19.1,7.4,48.8,6.7,54.7c3.7,0.7,16.8,4,21.5,16.8
			c0.2,0.5-0.1,1.1-0.6,1.3c-0.1,0.1-0.3,0.1-0.4,0.1h-0.2c-2.3-0.4-4.7-0.6-7-0.6c-4.4-0.1-8.8,0.9-12.9,2.8
			c0,5.8-0.8,12.4-6.5,18.3c-11.9,12.2-43,17.9-97.8,17.9c-6.5,0-12.7,0-18.7,0.1C130.2,138.5,123.8,138.5,117.6,138.5z"/>
		<path d="M123,2h8.4C204.3,2.3,239.1,3.3,252,27.6c10.9,20.8,6.5,55,6.5,55S274.8,84.5,280,99c-2.4-0.4-4.7-0.6-7.1-0.6
			c-4.8-0.1-9.6,1-13.9,3.2c0.4,18.3-8,35.7-103.3,35.8c-13.7,0-26.4,0.1-38.1,0.1C40.3,137.5,5,133.5,5.1,77C5.2,10.7,24.8,2,123,2
			 M123,0L123,0C74,0,44,2.1,26.2,12.9C7,24.6,3.2,46.1,3.1,77c0,28.2,8.8,44.6,28.5,53.2c17.8,7.8,44,9.2,86,9.2
			c6.2,0,12.6,0,19.4-0.1c6,0,12.2,0,18.7-0.1c72.4-0.1,90.9-10.5,98.5-18.2c5.8-5.9,6.8-12.5,6.8-18.3c3.7-1.6,7.8-2.5,11.9-2.4
			c2.3,0,4.6,0.2,6.8,0.6c0.1,0,0.2,0,0.3,0c1.1,0,2-0.9,2-2c0-0.2,0-0.5-0.1-0.7C277.3,85.7,265.4,82,260.6,81
			c0.8-7.6,2.8-35.8-6.9-54.3c-6.5-12.3-18.6-19.4-39.2-22.9C195.2,0.5,169,0.2,131.4,0H123z"/>
		<g class="st2">
			<path class="st3" d="M36.2,77.4c-0.9,0-1.8-0.2-2.5-0.7c-0.7-0.4-1.3-1-1.8-1.8c-0.4-0.8-0.6-1.6-0.6-2.6c0-1,0.2-1.8,0.6-2.6
				c0.4-0.8,1-1.4,1.7-1.8c0.7-0.4,1.5-0.7,2.5-0.7c0.7,0,1.4,0.1,2,0.4c0.6,0.3,1.2,0.7,1.6,1.3c0.1,0.2,0.2,0.3,0.2,0.5
				c0,0.2-0.2,0.3-0.3,0.5c-0.1,0.1-0.3,0.1-0.5,0.1c-0.2,0-0.3-0.1-0.5-0.3c-0.7-0.7-1.5-1.1-2.5-1.1c-0.6,0-1.2,0.2-1.7,0.5
				c-0.5,0.3-0.9,0.7-1.2,1.3s-0.4,1.2-0.4,1.9c0,0.7,0.1,1.3,0.4,1.9s0.7,1,1.2,1.3c0.5,0.3,1.1,0.5,1.8,0.5c0.5,0,0.9-0.1,1.2-0.2
				c0.4-0.1,0.7-0.3,1-0.5c0.2-0.1,0.3-0.2,0.5-0.2c0.2,0,0.3,0,0.5,0.2c0.2,0.1,0.2,0.3,0.3,0.5c0,0.2,0,0.3-0.2,0.5
				C38.6,77,37.5,77.4,36.2,77.4z"/>
			<path class="st3" d="M46.8,77.4c-0.9,0-1.7-0.2-2.4-0.7c-0.7-0.4-1.3-1-1.7-1.8c-0.4-0.8-0.6-1.6-0.6-2.6c0-1,0.2-1.8,0.7-2.6
				s1-1.4,1.8-1.8c0.8-0.4,1.6-0.7,2.6-0.7c0.9,0,1.8,0.2,2.5,0.7c0.8,0.4,1.3,1,1.8,1.8c0.4,0.8,0.7,1.6,0.7,2.6l-0.6,0.3
				c0,0.9-0.2,1.7-0.6,2.4c-0.4,0.7-0.9,1.3-1.6,1.7S47.7,77.4,46.8,77.4z M47,76c0.7,0,1.3-0.2,1.8-0.5c0.5-0.3,0.9-0.7,1.2-1.3
				c0.3-0.6,0.5-1.2,0.5-1.9c0-0.7-0.2-1.3-0.5-1.9c-0.3-0.5-0.7-1-1.2-1.3c-0.5-0.3-1.1-0.5-1.8-0.5c-0.7,0-1.3,0.2-1.8,0.5
				c-0.5,0.3-0.9,0.8-1.3,1.3c-0.3,0.5-0.5,1.2-0.5,1.9c0,0.7,0.2,1.3,0.5,1.9s0.7,1,1.3,1.3C45.8,75.8,46.4,76,47,76z M47,65.9
				c-0.2,0-0.4-0.1-0.5-0.2c-0.2-0.1-0.2-0.3-0.2-0.5s0.1-0.4,0.2-0.5l1.9-1.9c0.1-0.1,0.3-0.2,0.5-0.2c0.2,0,0.4,0.1,0.6,0.2
				s0.2,0.3,0.2,0.6c0,0.1,0,0.2-0.1,0.3c0,0.1-0.1,0.2-0.2,0.2l-1.9,1.9C47.3,65.9,47.2,65.9,47,65.9z M51.2,77.3
				c-0.2,0-0.4-0.1-0.6-0.2s-0.2-0.3-0.2-0.5v-3l0.3-1.6l1.2,0.4v4.2c0,0.2-0.1,0.4-0.2,0.5S51.4,77.3,51.2,77.3z"/>
			<path class="st3" d="M59.1,77.4c-0.9,0-1.8-0.2-2.5-0.7c-0.7-0.4-1.3-1-1.8-1.8c-0.4-0.8-0.6-1.6-0.6-2.6c0-1,0.2-1.8,0.6-2.6
				c0.4-0.8,1-1.4,1.7-1.8c0.7-0.4,1.5-0.7,2.5-0.7c0.7,0,1.4,0.1,2,0.4c0.6,0.3,1.2,0.7,1.6,1.3c0.1,0.2,0.2,0.3,0.2,0.5
				c0,0.2-0.2,0.3-0.3,0.5c-0.1,0.1-0.3,0.1-0.5,0.1c-0.2,0-0.3-0.1-0.5-0.3c-0.7-0.7-1.5-1.1-2.5-1.1c-0.6,0-1.2,0.2-1.7,0.5
				c-0.5,0.3-0.9,0.7-1.2,1.3s-0.4,1.2-0.4,1.9c0,0.7,0.1,1.3,0.4,1.9s0.7,1,1.2,1.3c0.5,0.3,1.1,0.5,1.8,0.5c0.5,0,0.9-0.1,1.2-0.2
				c0.4-0.1,0.7-0.3,1-0.5c0.2-0.1,0.3-0.2,0.5-0.2c0.2,0,0.3,0,0.5,0.2c0.2,0.1,0.2,0.3,0.3,0.5c0,0.2,0,0.3-0.2,0.5
				C61.5,77,60.4,77.4,59.1,77.4z"/>
			<path class="st3" d="M71.5,73.4c-0.2,0-0.4-0.1-0.6-0.2c-0.1-0.1-0.2-0.3-0.2-0.6V64c0-0.2,0.1-0.4,0.2-0.6
				c0.1-0.1,0.3-0.2,0.6-0.2c0.2,0,0.4,0.1,0.5,0.2c0.1,0.1,0.2,0.3,0.2,0.6v8.6c0,0.2-0.1,0.4-0.2,0.6
				C71.9,73.4,71.7,73.4,71.5,73.4z M71.5,77.3c-0.2,0-0.4-0.1-0.6-0.2s-0.2-0.3-0.2-0.5v-8.3c0-0.2,0.1-0.4,0.2-0.6
				s0.3-0.2,0.6-0.2c0.2,0,0.4,0.1,0.5,0.2s0.2,0.3,0.2,0.6v8.3c0,0.2-0.1,0.4-0.2,0.5S71.7,77.3,71.5,77.3z M79.1,77.3
				c-0.2,0-0.4-0.1-0.6-0.2c-0.1-0.1-0.2-0.3-0.2-0.5V72c0-0.7-0.1-1.3-0.4-1.8s-0.6-0.8-1.1-1s-1-0.3-1.6-0.3
				c-0.6,0-1.1,0.1-1.5,0.3c-0.5,0.2-0.8,0.5-1.1,0.9c-0.3,0.4-0.4,0.8-0.4,1.3h-1c0-0.8,0.2-1.4,0.6-2c0.4-0.6,0.9-1.1,1.5-1.4
				c0.6-0.3,1.3-0.5,2.1-0.5c0.9,0,1.6,0.2,2.3,0.5s1.2,0.9,1.6,1.6c0.4,0.7,0.6,1.5,0.6,2.5v4.6c0,0.2-0.1,0.4-0.2,0.5
				C79.5,77.2,79.4,77.3,79.1,77.3z"/>
			<path class="st3" d="M87.4,77.4c-1,0-1.8-0.2-2.6-0.6c-0.8-0.4-1.3-1-1.8-1.8s-0.6-1.6-0.6-2.6c0-1,0.2-1.8,0.6-2.6
				s1-1.4,1.8-1.8s1.6-0.6,2.6-0.6c1,0,1.8,0.2,2.6,0.6c0.7,0.4,1.3,1,1.8,1.8c0.4,0.8,0.7,1.6,0.7,2.6c0,1-0.2,1.8-0.6,2.6
				s-1,1.3-1.8,1.8C89.3,77.2,88.4,77.4,87.4,77.4z M87.4,76c0.7,0,1.3-0.2,1.8-0.5c0.5-0.3,0.9-0.7,1.2-1.3s0.4-1.2,0.4-1.9
				c0-0.7-0.1-1.3-0.4-1.9s-0.7-1-1.2-1.3c-0.5-0.3-1.1-0.5-1.8-0.5c-0.7,0-1.3,0.2-1.8,0.5c-0.5,0.3-0.9,0.7-1.3,1.3
				c-0.3,0.6-0.5,1.2-0.5,1.9c0,0.7,0.2,1.3,0.5,1.9c0.3,0.5,0.7,1,1.3,1.3C86.2,75.8,86.8,76,87.4,76z"/>
			<path class="st3" d="M99.4,77.4c-0.9,0-1.7-0.2-2.4-0.7c-0.7-0.4-1.3-1-1.7-1.8c-0.4-0.8-0.6-1.6-0.6-2.6c0-1,0.2-1.8,0.7-2.6
				s1-1.4,1.8-1.8c0.8-0.4,1.6-0.7,2.6-0.7c0.9,0,1.8,0.2,2.5,0.7c0.8,0.4,1.3,1,1.8,1.8c0.4,0.8,0.7,1.6,0.7,2.6l-0.6,0.3
				c0,0.9-0.2,1.7-0.6,2.4c-0.4,0.7-0.9,1.3-1.6,1.7S100.3,77.4,99.4,77.4z M99.6,76c0.7,0,1.3-0.2,1.8-0.5c0.5-0.3,0.9-0.7,1.2-1.3
				c0.3-0.6,0.5-1.2,0.5-1.9c0-0.7-0.2-1.3-0.5-1.9c-0.3-0.5-0.7-1-1.2-1.3c-0.5-0.3-1.1-0.5-1.8-0.5c-0.7,0-1.3,0.2-1.8,0.5
				c-0.5,0.3-0.9,0.8-1.3,1.3c-0.3,0.5-0.5,1.2-0.5,1.9c0,0.7,0.2,1.3,0.5,1.9s0.7,1,1.3,1.3C98.4,75.8,99,76,99.6,76z M99.6,81.2
				c-0.3,0-0.5-0.1-0.7-0.3c-0.2-0.2-0.3-0.5-0.3-0.8s0.1-0.5,0.3-0.7s0.5-0.3,0.7-0.3c0.3,0,0.5,0.1,0.7,0.3s0.3,0.4,0.3,0.7
				s-0.1,0.6-0.3,0.8S99.9,81.2,99.6,81.2z M103.8,77.3c-0.2,0-0.4-0.1-0.6-0.2s-0.2-0.3-0.2-0.5v-3l0.3-1.6l1.2,0.4v4.2
				c0,0.2-0.1,0.4-0.2,0.5S104,77.3,103.8,77.3z"/>
			<path class="st3" d="M106.7,69.1c-0.2,0-0.4-0.1-0.5-0.2c-0.1-0.1-0.2-0.3-0.2-0.5c0-0.2,0.1-0.4,0.2-0.5
				c0.1-0.1,0.3-0.2,0.5-0.2h4.4c0.2,0,0.4,0.1,0.5,0.2c0.1,0.1,0.2,0.3,0.2,0.5c0,0.2-0.1,0.3-0.2,0.5c-0.1,0.1-0.3,0.2-0.5,0.2
				H106.7z M111.1,77.3c-0.6,0-1.2-0.2-1.7-0.5c-0.5-0.3-0.9-0.7-1.2-1.2c-0.3-0.5-0.4-1.1-0.4-1.8v-8.7c0-0.2,0.1-0.4,0.2-0.6
				c0.1-0.1,0.3-0.2,0.5-0.2c0.2,0,0.4,0.1,0.5,0.2c0.1,0.1,0.2,0.3,0.2,0.6v8.7c0,0.6,0.2,1,0.5,1.4s0.7,0.5,1.3,0.5h0.5
				c0.2,0,0.4,0.1,0.5,0.2c0.1,0.1,0.2,0.3,0.2,0.6s-0.1,0.4-0.2,0.5c-0.2,0.1-0.4,0.2-0.6,0.2H111.1z"/>
			<path class="st3" d="M124.3,77.4c-0.9,0-1.8-0.2-2.6-0.7c-0.8-0.4-1.4-1-1.8-1.8c-0.4-0.8-0.7-1.6-0.7-2.6c0-0.9,0.2-1.8,0.6-2.6
				c0.4-0.8,1-1.4,1.7-1.8c0.7-0.4,1.5-0.7,2.4-0.7c0.8,0,1.5,0.2,2.1,0.5c0.6,0.3,1.1,0.8,1.6,1.3V64c0-0.2,0.1-0.4,0.2-0.6
				c0.1-0.1,0.3-0.2,0.6-0.2s0.4,0.1,0.6,0.2c0.1,0.1,0.2,0.3,0.2,0.6v8.4c0,0.9-0.3,1.8-0.7,2.5s-1,1.3-1.8,1.8
				C126.1,77.2,125.2,77.4,124.3,77.4z M124.3,76c0.7,0,1.3-0.2,1.8-0.5c0.5-0.3,0.9-0.7,1.2-1.3c0.3-0.5,0.5-1.2,0.5-1.9
				c0-0.7-0.2-1.3-0.5-1.9c-0.3-0.6-0.7-1-1.2-1.3c-0.5-0.3-1.1-0.5-1.8-0.5c-0.7,0-1.3,0.2-1.8,0.5c-0.5,0.3-0.9,0.7-1.3,1.3
				s-0.5,1.2-0.5,1.9c0,0.7,0.2,1.3,0.5,1.9c0.3,0.5,0.7,1,1.3,1.3C123,75.8,123.6,76,124.3,76z M124.9,66.2c-0.2,0-0.4-0.1-0.5-0.2
				s-0.2-0.3-0.2-0.4c0-0.2,0.1-0.4,0.2-0.5c0.1-0.1,0.3-0.2,0.5-0.2h5.2c0.2,0,0.4,0.1,0.6,0.2c0.1,0.1,0.2,0.3,0.2,0.5
				c0,0.2-0.1,0.3-0.2,0.4s-0.3,0.2-0.6,0.2H124.9z"/>
			<path class="st3" d="M137,77.4c-1,0-1.8-0.2-2.6-0.6c-0.8-0.4-1.3-1-1.8-1.8s-0.6-1.6-0.6-2.6c0-1,0.2-1.8,0.6-2.6s1-1.4,1.8-1.8
				s1.6-0.6,2.6-0.6c1,0,1.8,0.2,2.6,0.6c0.7,0.4,1.3,1,1.8,1.8c0.4,0.8,0.7,1.6,0.7,2.6c0,1-0.2,1.8-0.6,2.6s-1,1.3-1.8,1.8
				C138.8,77.2,138,77.4,137,77.4z M137,76c0.7,0,1.3-0.2,1.8-0.5c0.5-0.3,0.9-0.7,1.2-1.3s0.4-1.2,0.4-1.9c0-0.7-0.1-1.3-0.4-1.9
				s-0.7-1-1.2-1.3c-0.5-0.3-1.1-0.5-1.8-0.5c-0.7,0-1.3,0.2-1.8,0.5c-0.5,0.3-0.9,0.7-1.3,1.3c-0.3,0.6-0.5,1.2-0.5,1.9
				c0,0.7,0.2,1.3,0.5,1.9c0.3,0.5,0.7,1,1.3,1.3C135.7,75.8,136.3,76,137,76z M134.9,66c-0.2,0-0.4-0.1-0.6-0.2
				c-0.1-0.1-0.2-0.3-0.2-0.5c0-0.3,0.1-0.5,0.4-0.7l2.1-1.4c0.1-0.1,0.2-0.1,0.4-0.1c0.1,0,0.2,0,0.2,0s0.1,0,0.2,0.1l2.1,1.4
				c0.3,0.2,0.4,0.4,0.4,0.7c0,0.2-0.1,0.4-0.2,0.5s-0.3,0.2-0.6,0.2c-0.1,0-0.2,0-0.3,0c-0.1,0-0.1-0.1-0.2-0.1l-1.6-1.1l-1.6,1.1
				C135.3,65.9,135.1,66,134.9,66z M137,81.2c-0.3,0-0.5-0.1-0.7-0.3c-0.2-0.2-0.3-0.5-0.3-0.8s0.1-0.5,0.3-0.7s0.5-0.3,0.7-0.3
				c0.3,0,0.5,0.1,0.7,0.3s0.3,0.4,0.3,0.7s-0.1,0.6-0.3,0.8S137.3,81.2,137,81.2z"/>
			<path class="st3" d="M145.5,77.3c-0.2,0-0.4-0.1-0.6-0.2c-0.1-0.1-0.2-0.3-0.2-0.5v-8.3c0-0.2,0.1-0.4,0.2-0.6
				c0.1-0.1,0.3-0.2,0.6-0.2c0.2,0,0.4,0.1,0.5,0.2c0.1,0.1,0.2,0.3,0.2,0.6v8.3c0,0.2-0.1,0.4-0.2,0.5
				C145.9,77.2,145.7,77.3,145.5,77.3z M153.1,77.3c-0.2,0-0.4-0.1-0.6-0.2c-0.1-0.1-0.2-0.3-0.2-0.5V72c0-0.7-0.1-1.3-0.4-1.8
				c-0.3-0.5-0.6-0.8-1.1-1s-1-0.3-1.6-0.3c-0.6,0-1.1,0.1-1.5,0.3c-0.5,0.2-0.8,0.5-1.1,0.9s-0.4,0.8-0.4,1.3h-1
				c0-0.8,0.2-1.4,0.6-2c0.4-0.6,0.9-1.1,1.5-1.4c0.6-0.3,1.3-0.5,2.1-0.5c0.9,0,1.6,0.2,2.3,0.5s1.2,0.9,1.6,1.6
				c0.4,0.7,0.6,1.5,0.6,2.5v4.6c0,0.2-0.1,0.4-0.2,0.5C153.5,77.2,153.3,77.3,153.1,77.3z"/>
			<path class="st3" d="M161.2,77.4c-0.9,0-1.8-0.2-2.5-0.6c-0.7-0.4-1.3-1-1.7-1.8c-0.4-0.8-0.6-1.6-0.6-2.6c0-1,0.2-1.9,0.6-2.6
				c0.4-0.8,1-1.3,1.8-1.8s1.6-0.6,2.6-0.6c1,0,1.8,0.2,2.6,0.6s1.3,1,1.8,1.8c0.4,0.8,0.6,1.6,0.7,2.6l-0.9,0.3
				c0,0.9-0.2,1.7-0.6,2.4s-0.9,1.3-1.5,1.7C162.7,77.2,162,77.4,161.2,77.4z M161.4,81.3c-0.9,0-1.7-0.2-2.5-0.5
				c-0.7-0.3-1.3-0.8-1.8-1.5c-0.1-0.2-0.2-0.3-0.2-0.5c0-0.2,0.1-0.3,0.3-0.4c0.2-0.1,0.4-0.2,0.6-0.1s0.4,0.1,0.5,0.3
				c0.3,0.4,0.8,0.8,1.3,1s1.1,0.4,1.8,0.4c0.6,0,1.2-0.2,1.7-0.5c0.5-0.3,0.9-0.7,1.2-1.3c0.3-0.6,0.5-1.3,0.5-2v-2.7l0.6-1.2
				l1,0.2v3.7c0,1-0.2,1.8-0.6,2.6c-0.4,0.8-1,1.4-1.8,1.8C163.2,81,162.4,81.3,161.4,81.3z M161.4,76c0.7,0,1.3-0.2,1.8-0.5
				c0.5-0.3,0.9-0.7,1.2-1.3c0.3-0.5,0.4-1.2,0.4-1.9s-0.1-1.3-0.4-1.9s-0.7-1-1.2-1.3c-0.5-0.3-1.1-0.5-1.8-0.5
				c-0.7,0-1.3,0.2-1.8,0.5c-0.5,0.3-0.9,0.7-1.2,1.3c-0.3,0.6-0.5,1.2-0.5,1.9s0.1,1.3,0.5,1.9c0.3,0.5,0.7,1,1.2,1.3
				C160.1,75.9,160.7,76,161.4,76z"/>
			<path class="st3" d="M173.8,69.1c-0.2,0-0.4-0.1-0.5-0.2c-0.1-0.1-0.2-0.3-0.2-0.5c0-0.2,0.1-0.4,0.2-0.5
				c0.1-0.1,0.3-0.2,0.5-0.2h4.4c0.2,0,0.4,0.1,0.5,0.2c0.1,0.1,0.2,0.3,0.2,0.5c0,0.2-0.1,0.3-0.2,0.5c-0.1,0.1-0.3,0.2-0.5,0.2
				H173.8z M178.1,77.3c-0.6,0-1.2-0.2-1.7-0.5s-0.9-0.7-1.2-1.2c-0.3-0.5-0.4-1.1-0.4-1.8v-8.7c0-0.2,0.1-0.4,0.2-0.6
				c0.1-0.1,0.3-0.2,0.5-0.2c0.2,0,0.4,0.1,0.5,0.2c0.1,0.1,0.2,0.3,0.2,0.6v8.7c0,0.6,0.2,1,0.5,1.4s0.7,0.5,1.3,0.5h0.5
				c0.2,0,0.4,0.1,0.5,0.2c0.1,0.1,0.2,0.3,0.2,0.6s-0.1,0.4-0.2,0.5s-0.4,0.2-0.6,0.2H178.1z"/>
			<path class="st3" d="M185.8,77.4c-0.9,0-1.7-0.2-2.4-0.7c-0.7-0.4-1.3-1-1.7-1.8c-0.4-0.8-0.6-1.6-0.6-2.6c0-1,0.2-1.8,0.7-2.6
				c0.4-0.8,1-1.4,1.8-1.8c0.8-0.4,1.6-0.7,2.6-0.7c0.9,0,1.8,0.2,2.5,0.7c0.8,0.4,1.3,1,1.8,1.8c0.4,0.8,0.7,1.6,0.7,2.6l-0.6,0.3
				c0,0.9-0.2,1.7-0.6,2.4c-0.4,0.7-0.9,1.3-1.6,1.7C187.5,77.2,186.7,77.4,185.8,77.4z M186.1,76c0.7,0,1.3-0.2,1.8-0.5
				c0.5-0.3,0.9-0.7,1.2-1.3c0.3-0.6,0.5-1.2,0.5-1.9c0-0.7-0.2-1.3-0.5-1.9c-0.3-0.5-0.7-1-1.2-1.3c-0.5-0.3-1.1-0.5-1.8-0.5
				s-1.3,0.2-1.8,0.5c-0.5,0.3-0.9,0.8-1.3,1.3c-0.3,0.5-0.5,1.2-0.5,1.9c0,0.7,0.2,1.3,0.5,1.9c0.3,0.6,0.7,1,1.3,1.3
				C184.8,75.8,185.4,76,186.1,76z M186,65.9c-0.2,0-0.4-0.1-0.5-0.2c-0.2-0.1-0.2-0.3-0.2-0.5s0.1-0.4,0.2-0.5l1.9-1.9
				c0.1-0.1,0.3-0.2,0.5-0.2c0.2,0,0.4,0.1,0.6,0.2c0.1,0.2,0.2,0.3,0.2,0.6c0,0.1,0,0.2-0.1,0.3c0,0.1-0.1,0.2-0.2,0.2l-1.9,1.9
				C186.4,65.9,186.2,65.9,186,65.9z M190.3,77.3c-0.2,0-0.4-0.1-0.6-0.2c-0.1-0.1-0.2-0.3-0.2-0.5v-3l0.3-1.6l1.2,0.4v4.2
				c0,0.2-0.1,0.4-0.2,0.5C190.7,77.2,190.5,77.3,190.3,77.3z"/>
			<path class="st3" d="M194.8,65.7c-0.3,0-0.5-0.1-0.7-0.3s-0.3-0.5-0.3-0.8c0-0.3,0.1-0.5,0.3-0.7c0.2-0.2,0.5-0.3,0.7-0.3
				c0.3,0,0.5,0.1,0.7,0.3c0.2,0.2,0.3,0.4,0.3,0.7c0,0.3-0.1,0.6-0.3,0.8S195,65.7,194.8,65.7z M194.8,77.3c-0.2,0-0.4-0.1-0.6-0.2
				c-0.1-0.1-0.2-0.3-0.2-0.6v-8.3c0-0.2,0.1-0.4,0.2-0.6c0.1-0.1,0.3-0.2,0.6-0.2c0.2,0,0.4,0.1,0.5,0.2c0.1,0.1,0.2,0.3,0.2,0.6
				v8.3c0,0.2-0.1,0.4-0.2,0.6C195.2,77.2,195,77.3,194.8,77.3z"/>
			<path class="st3" d="M208.7,77.4c-0.9,0-1.8-0.2-2.5-0.7c-0.7-0.4-1.3-1-1.8-1.8c-0.4-0.8-0.6-1.6-0.6-2.6c0-1,0.2-1.8,0.6-2.6
				s1-1.4,1.7-1.8c0.7-0.4,1.5-0.7,2.5-0.7c0.7,0,1.4,0.1,2,0.4s1.2,0.7,1.6,1.3c0.1,0.2,0.2,0.3,0.2,0.5c0,0.2-0.2,0.3-0.3,0.5
				c-0.1,0.1-0.3,0.1-0.5,0.1s-0.3-0.1-0.5-0.3c-0.7-0.7-1.5-1.1-2.5-1.1c-0.6,0-1.2,0.2-1.7,0.5c-0.5,0.3-0.9,0.7-1.2,1.3
				c-0.3,0.5-0.4,1.2-0.4,1.9c0,0.7,0.1,1.3,0.4,1.9s0.7,1,1.2,1.3c0.5,0.3,1.1,0.5,1.8,0.5c0.5,0,0.9-0.1,1.2-0.2s0.7-0.3,1-0.5
				c0.2-0.1,0.3-0.2,0.5-0.2c0.2,0,0.3,0,0.5,0.2c0.2,0.1,0.2,0.3,0.3,0.5c0,0.2,0,0.3-0.2,0.5C211.1,77,210,77.4,208.7,77.4z"/>
			<path class="st3" d="M215.8,73.4c-0.2,0-0.4-0.1-0.6-0.2c-0.1-0.1-0.2-0.3-0.2-0.6V64c0-0.2,0.1-0.4,0.2-0.6
				c0.1-0.1,0.3-0.2,0.6-0.2s0.4,0.1,0.5,0.2c0.1,0.1,0.2,0.3,0.2,0.6v8.6c0,0.2-0.1,0.4-0.2,0.6C216.2,73.4,216.1,73.4,215.8,73.4z
				 M215.8,77.3c-0.2,0-0.4-0.1-0.6-0.2c-0.1-0.1-0.2-0.3-0.2-0.5v-8.3c0-0.2,0.1-0.4,0.2-0.6c0.1-0.1,0.3-0.2,0.6-0.2
				s0.4,0.1,0.5,0.2c0.1,0.1,0.2,0.3,0.2,0.6v8.3c0,0.2-0.1,0.4-0.2,0.5C216.2,77.2,216.1,77.3,215.8,77.3z M223.5,77.3
				c-0.2,0-0.4-0.1-0.6-0.2c-0.1-0.1-0.2-0.3-0.2-0.5V72c0-0.7-0.1-1.3-0.4-1.8c-0.3-0.5-0.6-0.8-1.1-1s-1-0.3-1.6-0.3
				c-0.6,0-1.1,0.1-1.5,0.3c-0.5,0.2-0.8,0.5-1.1,0.9c-0.3,0.4-0.4,0.8-0.4,1.3h-1c0-0.8,0.2-1.4,0.6-2c0.4-0.6,0.9-1.1,1.5-1.4
				c0.6-0.3,1.3-0.5,2.1-0.5c0.9,0,1.6,0.2,2.3,0.5s1.2,0.9,1.6,1.6c0.4,0.7,0.6,1.5,0.6,2.5v4.6c0,0.2-0.1,0.4-0.2,0.5
				C223.9,77.2,223.7,77.3,223.5,77.3z"/>
			<path class="st3" d="M231.8,77.4c-1,0-1.9-0.2-2.6-0.6c-0.8-0.4-1.3-1-1.8-1.8c-0.4-0.8-0.6-1.6-0.6-2.6c0-1,0.2-1.9,0.6-2.6
				c0.4-0.8,1-1.3,1.7-1.8s1.5-0.6,2.5-0.6c0.9,0,1.7,0.2,2.4,0.6c0.7,0.4,1.2,1,1.6,1.7c0.4,0.7,0.5,1.6,0.5,2.5
				c0,0.2-0.1,0.4-0.2,0.5c-0.1,0.1-0.3,0.2-0.5,0.2h-7.5v-1.2h7.6l-0.8,0.5c0-0.7-0.1-1.3-0.4-1.8c-0.3-0.5-0.6-0.9-1.1-1.2
				c-0.5-0.3-1-0.5-1.7-0.5c-0.7,0-1.3,0.2-1.8,0.5c-0.5,0.3-0.9,0.8-1.2,1.3c-0.3,0.6-0.4,1.2-0.4,1.9s0.2,1.3,0.5,1.9
				c0.3,0.5,0.7,1,1.3,1.3c0.5,0.3,1.2,0.5,1.9,0.5c0.4,0,0.8-0.1,1.3-0.2c0.4-0.1,0.8-0.3,1-0.5c0.1-0.1,0.3-0.2,0.5-0.2
				c0.2,0,0.3,0,0.5,0.2c0.2,0.2,0.3,0.3,0.3,0.5c0,0.2-0.1,0.3-0.2,0.5c-0.4,0.3-0.9,0.6-1.5,0.8C233,77.3,232.4,77.4,231.8,77.4z
				 M229.4,66c-0.2,0-0.4-0.1-0.6-0.2c-0.2-0.1-0.2-0.3-0.2-0.5c0-0.3,0.1-0.5,0.4-0.7l2.1-1.4c0.1-0.1,0.2-0.1,0.4-0.1
				c0.1,0,0.2,0,0.2,0c0.1,0,0.1,0,0.2,0.1l2.1,1.4c0.3,0.2,0.4,0.4,0.4,0.7c0,0.2-0.1,0.4-0.2,0.5c-0.1,0.1-0.3,0.2-0.6,0.2
				c-0.1,0-0.2,0-0.3,0s-0.2-0.1-0.2-0.1l-1.6-1.1l-1.6,1.1C229.7,65.9,229.5,66,229.4,66z M233.1,63c-0.2,0-0.4-0.1-0.5-0.2
				c-0.1-0.1-0.2-0.3-0.2-0.6c0-0.2,0.1-0.4,0.2-0.5l1.9-1.9c0.2-0.2,0.3-0.2,0.5-0.2c0.2,0,0.4,0.1,0.6,0.2
				c0.1,0.2,0.2,0.3,0.2,0.6c0,0.1,0,0.2,0,0.3c0,0.1-0.1,0.2-0.2,0.2l-1.9,1.9C233.5,63,233.3,63,233.1,63z"/>
		</g>
		<g class="st2">
			<path class="st3" d="M52,101.4c-0.9,0-1.8-0.2-2.5-0.7c-0.7-0.4-1.3-1-1.8-1.8c-0.4-0.8-0.6-1.6-0.6-2.6c0-1,0.2-1.8,0.6-2.6
				c0.4-0.8,1-1.4,1.7-1.8c0.7-0.4,1.5-0.7,2.5-0.7c0.7,0,1.4,0.1,2,0.4c0.6,0.3,1.2,0.7,1.6,1.3c0.1,0.2,0.2,0.3,0.2,0.5
				c0,0.2-0.2,0.3-0.3,0.5c-0.1,0.1-0.3,0.1-0.5,0.1c-0.2,0-0.3-0.1-0.5-0.3c-0.7-0.7-1.5-1.1-2.5-1.1c-0.6,0-1.2,0.2-1.7,0.5
				c-0.5,0.3-0.9,0.7-1.2,1.3s-0.4,1.2-0.4,1.9c0,0.7,0.1,1.3,0.4,1.9s0.7,1,1.2,1.3c0.5,0.3,1.1,0.5,1.8,0.5c0.5,0,0.9-0.1,1.2-0.2
				c0.4-0.1,0.7-0.3,1-0.5c0.2-0.1,0.3-0.2,0.5-0.2c0.2,0,0.3,0,0.5,0.2c0.2,0.1,0.2,0.3,0.3,0.5c0,0.2,0,0.3-0.2,0.5
				C54.4,101,53.3,101.4,52,101.4z"/>
			<path class="st3" d="M59.1,97.4c-0.2,0-0.4-0.1-0.6-0.2c-0.1-0.1-0.2-0.3-0.2-0.6V88c0-0.2,0.1-0.4,0.2-0.6
				c0.1-0.1,0.3-0.2,0.6-0.2c0.2,0,0.4,0.1,0.5,0.2c0.1,0.1,0.2,0.3,0.2,0.6v8.6c0,0.2-0.1,0.4-0.2,0.6
				C59.5,97.4,59.4,97.4,59.1,97.4z M59.1,101.3c-0.2,0-0.4-0.1-0.6-0.2s-0.2-0.3-0.2-0.5v-8.3c0-0.2,0.1-0.4,0.2-0.6
				s0.3-0.2,0.6-0.2c0.2,0,0.4,0.1,0.5,0.2s0.2,0.3,0.2,0.6v8.3c0,0.2-0.1,0.4-0.2,0.5S59.4,101.3,59.1,101.3z M66.8,101.3
				c-0.2,0-0.4-0.1-0.6-0.2c-0.1-0.1-0.2-0.3-0.2-0.5V96c0-0.7-0.1-1.3-0.4-1.8s-0.6-0.8-1.1-1s-1-0.3-1.6-0.3
				c-0.6,0-1.1,0.1-1.5,0.3c-0.5,0.2-0.8,0.5-1.1,0.9c-0.3,0.4-0.4,0.8-0.4,1.3h-1c0-0.8,0.2-1.4,0.6-2c0.4-0.6,0.9-1.1,1.5-1.4
				c0.6-0.3,1.3-0.5,2.1-0.5c0.9,0,1.6,0.2,2.3,0.5s1.2,0.9,1.6,1.6c0.4,0.7,0.6,1.5,0.6,2.5v4.6c0,0.2-0.1,0.4-0.2,0.5
				C67.2,101.2,67,101.3,66.8,101.3z"/>
			<path class="st3" d="M74.8,101.4c-0.9,0-1.7-0.2-2.4-0.7c-0.7-0.4-1.3-1-1.7-1.8c-0.4-0.8-0.6-1.6-0.6-2.6c0-1,0.2-1.8,0.7-2.6
				s1-1.4,1.8-1.8c0.8-0.4,1.6-0.7,2.6-0.7c0.9,0,1.8,0.2,2.5,0.7c0.8,0.4,1.3,1,1.8,1.8c0.4,0.8,0.7,1.6,0.7,2.6l-0.6,0.3
				c0,0.9-0.2,1.7-0.6,2.4c-0.4,0.7-0.9,1.3-1.6,1.7S75.7,101.4,74.8,101.4z M75.1,100c0.7,0,1.3-0.2,1.8-0.5
				c0.5-0.3,0.9-0.7,1.2-1.3c0.3-0.6,0.5-1.2,0.5-1.9c0-0.7-0.2-1.3-0.5-1.9c-0.3-0.5-0.7-1-1.2-1.3c-0.5-0.3-1.1-0.5-1.8-0.5
				c-0.7,0-1.3,0.2-1.8,0.5c-0.5,0.3-0.9,0.8-1.3,1.3c-0.3,0.5-0.5,1.2-0.5,1.9c0,0.7,0.2,1.3,0.5,1.9s0.7,1,1.3,1.3
				C73.8,99.8,74.4,100,75.1,100z M79.3,101.3c-0.2,0-0.4-0.1-0.6-0.2s-0.2-0.3-0.2-0.5v-3l0.3-1.6l1.2,0.4v4.2
				c0,0.2-0.1,0.4-0.2,0.5S79.5,101.3,79.3,101.3z"/>
			<path class="st3" d="M83.8,89.7c-0.3,0-0.5-0.1-0.7-0.3c-0.2-0.2-0.3-0.5-0.3-0.8c0-0.3,0.1-0.5,0.3-0.7c0.2-0.2,0.5-0.3,0.7-0.3
				c0.3,0,0.5,0.1,0.7,0.3c0.2,0.2,0.3,0.4,0.3,0.7c0,0.3-0.1,0.6-0.3,0.8S84,89.7,83.8,89.7z M83.8,101.3c-0.2,0-0.4-0.1-0.6-0.2
				c-0.1-0.1-0.2-0.3-0.2-0.6v-8.3c0-0.2,0.1-0.4,0.2-0.6s0.3-0.2,0.6-0.2s0.4,0.1,0.5,0.2c0.1,0.1,0.2,0.3,0.2,0.6v8.3
				c0,0.2-0.1,0.4-0.2,0.6C84.2,101.2,84,101.3,83.8,101.3z"/>
			<path class="st3" d="M87.9,102.7c-0.3,0-0.5-0.1-0.7-0.3c-0.1-0.2-0.2-0.5,0-0.8l5.6-13.9c0-0.1,0.1-0.3,0.3-0.3
				c0.1-0.1,0.3-0.1,0.4-0.1c0.3,0,0.5,0.1,0.6,0.3c0.1,0.2,0.2,0.5,0.1,0.7l-5.6,13.9c-0.1,0.2-0.2,0.3-0.3,0.3
				C88.1,102.6,88,102.7,87.9,102.7z"/>
			<path class="st3" d="M97.2,97.4c-0.2,0-0.4-0.1-0.6-0.2c-0.1-0.1-0.2-0.3-0.2-0.6V88c0-0.2,0.1-0.4,0.2-0.6
				c0.1-0.1,0.3-0.2,0.6-0.2c0.2,0,0.4,0.1,0.5,0.2c0.1,0.1,0.2,0.3,0.2,0.6v8.6c0,0.2-0.1,0.4-0.2,0.6
				C97.6,97.4,97.5,97.4,97.2,97.4z M97.2,101.3c-0.2,0-0.4-0.1-0.6-0.2s-0.2-0.3-0.2-0.5v-8.3c0-0.2,0.1-0.4,0.2-0.6
				s0.3-0.2,0.6-0.2c0.2,0,0.4,0.1,0.5,0.2S98,92,98,92.2v8.3c0,0.2-0.1,0.4-0.2,0.5S97.5,101.3,97.2,101.3z M104.9,101.3
				c-0.2,0-0.4-0.1-0.6-0.2c-0.1-0.1-0.2-0.3-0.2-0.5V96c0-0.7-0.1-1.3-0.4-1.8s-0.6-0.8-1.1-1s-1-0.3-1.6-0.3
				c-0.6,0-1.1,0.1-1.5,0.3c-0.5,0.2-0.8,0.5-1.1,0.9c-0.3,0.4-0.4,0.8-0.4,1.3h-1c0-0.8,0.2-1.4,0.6-2c0.4-0.6,0.9-1.1,1.5-1.4
				c0.6-0.3,1.3-0.5,2.1-0.5c0.9,0,1.6,0.2,2.3,0.5s1.2,0.9,1.6,1.6c0.4,0.7,0.6,1.5,0.6,2.5v4.6c0,0.2-0.1,0.4-0.2,0.5
				C105.3,101.2,105.1,101.3,104.9,101.3z"/>
			<path class="st3" d="M113.2,101.4c-1,0-1.8-0.2-2.6-0.6c-0.8-0.4-1.3-1-1.8-1.8s-0.6-1.6-0.6-2.6c0-1,0.2-1.8,0.6-2.6
				s1-1.4,1.8-1.8s1.6-0.6,2.6-0.6c1,0,1.8,0.2,2.6,0.6c0.7,0.4,1.3,1,1.8,1.8c0.4,0.8,0.7,1.6,0.7,2.6c0,1-0.2,1.8-0.6,2.6
				s-1,1.3-1.8,1.8C115,101.2,114.1,101.4,113.2,101.4z M113.2,100c0.7,0,1.3-0.2,1.8-0.5c0.5-0.3,0.9-0.7,1.2-1.3s0.4-1.2,0.4-1.9
				c0-0.7-0.1-1.3-0.4-1.9s-0.7-1-1.2-1.3c-0.5-0.3-1.1-0.5-1.8-0.5c-0.7,0-1.3,0.2-1.8,0.5c-0.5,0.3-0.9,0.7-1.3,1.3
				c-0.3,0.6-0.5,1.2-0.5,1.9c0,0.7,0.2,1.3,0.5,1.9c0.3,0.5,0.7,1,1.3,1.3C111.9,99.8,112.5,100,113.2,100z M111.1,90
				c-0.2,0-0.4-0.1-0.6-0.2c-0.1-0.1-0.2-0.3-0.2-0.5c0-0.3,0.1-0.5,0.4-0.7l2.1-1.4c0.1-0.1,0.2-0.1,0.4-0.1c0.1,0,0.2,0,0.2,0
				s0.1,0,0.2,0.1l2.1,1.4c0.3,0.2,0.4,0.4,0.4,0.7c0,0.2-0.1,0.4-0.2,0.5s-0.3,0.2-0.6,0.2c-0.1,0-0.2,0-0.3,0
				c-0.1,0-0.1-0.1-0.2-0.1l-1.6-1.1l-1.6,1.1C111.4,89.9,111.3,90,111.1,90z M113.1,105.2c-0.3,0-0.5-0.1-0.7-0.3
				c-0.2-0.2-0.3-0.5-0.3-0.8s0.1-0.5,0.3-0.7s0.5-0.3,0.7-0.3c0.3,0,0.5,0.1,0.7,0.3s0.3,0.4,0.3,0.7s-0.1,0.6-0.3,0.8
				S113.4,105.2,113.1,105.2z"/>
			<path class="st3" d="M121.6,105.5c-0.2,0-0.4-0.1-0.6-0.2c-0.1-0.1-0.2-0.3-0.2-0.6v-8.4c0-0.9,0.2-1.8,0.7-2.5s1-1.3,1.8-1.8
				c0.7-0.4,1.6-0.7,2.5-0.7c1,0,1.8,0.2,2.6,0.7c0.8,0.4,1.3,1,1.8,1.8c0.4,0.8,0.7,1.6,0.7,2.6c0,0.9-0.2,1.8-0.6,2.6
				c-0.4,0.8-1,1.4-1.7,1.8c-0.7,0.4-1.5,0.7-2.4,0.7c-0.8,0-1.5-0.2-2.1-0.5s-1.2-0.8-1.6-1.3v5.1c0,0.2-0.1,0.4-0.2,0.6
				C122,105.4,121.9,105.5,121.6,105.5z M125.8,100c0.7,0,1.3-0.2,1.8-0.5c0.5-0.3,0.9-0.7,1.3-1.3c0.3-0.6,0.5-1.2,0.5-1.9
				c0-0.7-0.2-1.3-0.5-1.9c-0.3-0.5-0.7-1-1.3-1.3c-0.5-0.3-1.1-0.5-1.8-0.5c-0.6,0-1.2,0.2-1.8,0.5c-0.5,0.3-1,0.8-1.3,1.3
				c-0.3,0.5-0.5,1.2-0.5,1.9c0,0.7,0.1,1.3,0.5,1.9c0.3,0.6,0.7,1,1.3,1.3C124.6,99.8,125.2,100,125.8,100z"/>
			<path class="st3" d="M138.3,93.1c-0.2,0-0.4-0.1-0.5-0.2c-0.1-0.1-0.2-0.3-0.2-0.5c0-0.2,0.1-0.4,0.2-0.5
				c0.1-0.1,0.3-0.2,0.5-0.2h4.4c0.2,0,0.4,0.1,0.5,0.2s0.2,0.3,0.2,0.5c0,0.2-0.1,0.3-0.2,0.5s-0.3,0.2-0.5,0.2H138.3z
				 M142.6,101.3c-0.6,0-1.2-0.2-1.7-0.5c-0.5-0.3-0.9-0.7-1.2-1.2c-0.3-0.5-0.4-1.1-0.4-1.8v-8.7c0-0.2,0.1-0.4,0.2-0.6
				c0.1-0.1,0.3-0.2,0.5-0.2c0.2,0,0.4,0.1,0.5,0.2c0.1,0.1,0.2,0.3,0.2,0.6v8.7c0,0.6,0.2,1,0.5,1.4s0.7,0.5,1.3,0.5h0.5
				c0.2,0,0.4,0.1,0.5,0.2c0.1,0.1,0.2,0.3,0.2,0.6s-0.1,0.4-0.2,0.5c-0.2,0.1-0.4,0.2-0.6,0.2H142.6z"/>
			<path class="st3" d="M146.8,97.4c-0.2,0-0.4-0.1-0.6-0.2c-0.1-0.1-0.2-0.3-0.2-0.6V88c0-0.2,0.1-0.4,0.2-0.6
				c0.1-0.1,0.3-0.2,0.6-0.2c0.2,0,0.4,0.1,0.5,0.2c0.1,0.1,0.2,0.3,0.2,0.6v8.6c0,0.2-0.1,0.4-0.2,0.6
				C147.3,97.4,147.1,97.4,146.8,97.4z M146.8,101.3c-0.2,0-0.4-0.1-0.6-0.2c-0.1-0.1-0.2-0.3-0.2-0.5v-8.3c0-0.2,0.1-0.4,0.2-0.6
				c0.1-0.1,0.3-0.2,0.6-0.2c0.2,0,0.4,0.1,0.5,0.2c0.1,0.1,0.2,0.3,0.2,0.6v8.3c0,0.2-0.1,0.4-0.2,0.5
				C147.3,101.2,147.1,101.3,146.8,101.3z M154.5,101.3c-0.2,0-0.4-0.1-0.6-0.2c-0.1-0.1-0.2-0.3-0.2-0.5V96c0-0.7-0.1-1.3-0.4-1.8
				c-0.3-0.5-0.6-0.8-1.1-1s-1-0.3-1.6-0.3c-0.6,0-1.1,0.1-1.5,0.3c-0.5,0.2-0.8,0.5-1.1,0.9s-0.4,0.8-0.4,1.3h-1
				c0-0.8,0.2-1.4,0.6-2c0.4-0.6,0.9-1.1,1.5-1.4c0.6-0.3,1.3-0.5,2.1-0.5c0.9,0,1.6,0.2,2.3,0.5s1.2,0.9,1.6,1.6
				c0.4,0.7,0.6,1.5,0.6,2.5v4.6c0,0.2-0.1,0.4-0.2,0.5C154.9,101.2,154.7,101.3,154.5,101.3z"/>
			<path class="st3" d="M162.5,101.4c-0.8,0-1.6-0.2-2.3-0.5s-1.2-0.9-1.6-1.6c-0.4-0.7-0.6-1.5-0.6-2.5v-4.6c0-0.2,0.1-0.4,0.2-0.5
				c0.1-0.1,0.3-0.2,0.5-0.2c0.2,0,0.4,0.1,0.6,0.2c0.1,0.1,0.2,0.3,0.2,0.5v4.6c0,0.7,0.1,1.3,0.4,1.8c0.3,0.5,0.6,0.8,1.1,1
				c0.5,0.2,1,0.3,1.6,0.3c0.6,0,1.1-0.1,1.5-0.3s0.8-0.5,1.1-0.9c0.3-0.4,0.4-0.8,0.4-1.3h1c0,0.8-0.2,1.4-0.6,2s-0.9,1.1-1.5,1.4
				C164,101.2,163.3,101.4,162.5,101.4z M162.8,90.5c-0.2,0-0.4-0.1-0.5-0.2c-0.1-0.1-0.2-0.3-0.2-0.5v-0.5c0-0.4,0.2-0.7,0.6-0.8
				l0.5-0.1c0.2,0,0.4-0.1,0.5-0.3s0.2-0.3,0.2-0.5c0-0.3-0.1-0.5-0.2-0.6s-0.4-0.2-0.6-0.2c-0.2,0-0.3,0-0.4,0.1
				c-0.1,0.1-0.3,0.1-0.4,0.2c-0.1,0.1-0.1,0.1-0.2,0.1c-0.1,0-0.2,0-0.3,0c-0.2,0-0.3-0.1-0.4-0.2c-0.1-0.1-0.2-0.2-0.2-0.4
				c0-0.2,0.1-0.4,0.2-0.5c0.2-0.2,0.5-0.3,0.8-0.4c0.3-0.1,0.6-0.1,0.9-0.1c0.6,0,1.1,0.2,1.5,0.5c0.4,0.4,0.6,0.8,0.6,1.4
				c0,0.6-0.2,1-0.6,1.3s-0.8,0.5-1.3,0.5l0.2,0.1c0,0.3-0.1,0.5-0.2,0.7C163.1,90.4,163,90.5,162.8,90.5z M166.5,101.3
				c-0.2,0-0.4-0.1-0.6-0.2c-0.1-0.1-0.2-0.3-0.2-0.6v-8.3c0-0.2,0.1-0.4,0.2-0.5c0.1-0.1,0.3-0.2,0.6-0.2c0.2,0,0.4,0.1,0.6,0.2
				s0.2,0.3,0.2,0.5v8.3c0,0.2-0.1,0.4-0.2,0.6C166.9,101.2,166.7,101.3,166.5,101.3z"/>
			<path class="st3" d="M174.3,101c-0.2,0.1-0.4,0.1-0.6,0c-0.2-0.1-0.3-0.2-0.4-0.4l-4.1-8.2c-0.1-0.2-0.1-0.4,0-0.5
				c0.1-0.2,0.2-0.3,0.4-0.4c0.2-0.1,0.4-0.1,0.6,0c0.2,0.1,0.3,0.2,0.4,0.4l3.9,8.2c0.1,0.2,0.1,0.4,0.1,0.5S174.5,100.9,174.3,101
				z M172.2,105.6c-0.1,0-0.2,0-0.4-0.1c-0.4-0.2-0.6-0.5-0.4-1l5.7-12.7c0.2-0.4,0.5-0.6,1-0.4c0.4,0.2,0.6,0.5,0.4,0.9l-5.7,12.7
				C172.7,105.4,172.5,105.6,172.2,105.6z"/>
			<path class="st3" d="M185,93.1c-0.2,0-0.4-0.1-0.5-0.2s-0.2-0.3-0.2-0.5c0-0.2,0.1-0.4,0.2-0.5s0.3-0.2,0.5-0.2h4.4
				c0.2,0,0.4,0.1,0.5,0.2s0.2,0.3,0.2,0.5c0,0.2-0.1,0.3-0.2,0.5s-0.3,0.2-0.5,0.2H185z M189.4,101.3c-0.6,0-1.2-0.2-1.7-0.5
				c-0.5-0.3-0.9-0.7-1.2-1.2c-0.3-0.5-0.4-1.1-0.4-1.8v-8.7c0-0.2,0.1-0.4,0.2-0.6c0.1-0.1,0.3-0.2,0.5-0.2c0.2,0,0.4,0.1,0.5,0.2
				c0.1,0.1,0.2,0.3,0.2,0.6v8.7c0,0.6,0.2,1,0.5,1.4s0.7,0.5,1.3,0.5h0.5c0.2,0,0.4,0.1,0.5,0.2c0.1,0.1,0.2,0.3,0.2,0.6
				s-0.1,0.4-0.2,0.5c-0.2,0.1-0.4,0.2-0.6,0.2H189.4z"/>
			<path class="st3" d="M193.8,89.7c-0.3,0-0.5-0.1-0.7-0.3c-0.2-0.2-0.3-0.5-0.3-0.8c0-0.3,0.1-0.5,0.3-0.7
				c0.2-0.2,0.5-0.3,0.7-0.3c0.3,0,0.5,0.1,0.7,0.3c0.2,0.2,0.3,0.4,0.3,0.7c0,0.3-0.1,0.6-0.3,0.8S194.1,89.7,193.8,89.7z
				 M193.9,101.3c-0.2,0-0.4-0.1-0.6-0.2c-0.1-0.1-0.2-0.3-0.2-0.6v-8.3c0-0.2,0.1-0.4,0.2-0.6c0.1-0.1,0.3-0.2,0.6-0.2
				c0.2,0,0.4,0.1,0.5,0.2s0.2,0.3,0.2,0.6v8.3c0,0.2-0.1,0.4-0.2,0.6C194.3,101.2,194.1,101.3,193.9,101.3z"/>
			<path class="st3" d="M198.9,101.3c-0.2,0-0.4-0.1-0.6-0.2c-0.1-0.1-0.2-0.3-0.2-0.5v-8.3c0-0.2,0.1-0.4,0.2-0.6
				c0.1-0.1,0.3-0.2,0.6-0.2s0.4,0.1,0.5,0.2c0.1,0.1,0.2,0.3,0.2,0.6v8.3c0,0.2-0.1,0.4-0.2,0.5
				C199.3,101.2,199.1,101.3,198.9,101.3z M206.5,101.3c-0.2,0-0.4-0.1-0.6-0.2c-0.1-0.1-0.2-0.3-0.2-0.5V96c0-0.7-0.1-1.3-0.4-1.8
				c-0.3-0.5-0.6-0.8-1.1-1s-1-0.3-1.6-0.3c-0.6,0-1.1,0.1-1.5,0.3c-0.5,0.2-0.8,0.5-1.1,0.9c-0.3,0.4-0.4,0.8-0.4,1.3h-1
				c0-0.8,0.2-1.4,0.6-2c0.4-0.6,0.9-1.1,1.5-1.4c0.6-0.3,1.3-0.5,2.1-0.5c0.9,0,1.6,0.2,2.3,0.5s1.2,0.9,1.6,1.6
				c0.4,0.7,0.6,1.5,0.6,2.5v4.6c0,0.2-0.1,0.4-0.2,0.5C206.9,101.2,206.7,101.3,206.5,101.3z"/>
			<path class="st3" d="M211.1,97.4c-0.2,0-0.4-0.1-0.6-0.2c-0.1-0.1-0.2-0.3-0.2-0.6V88c0-0.2,0.1-0.4,0.2-0.6
				c0.1-0.1,0.3-0.2,0.6-0.2s0.4,0.1,0.5,0.2c0.1,0.1,0.2,0.3,0.2,0.6v8.6c0,0.2-0.1,0.4-0.2,0.6C211.5,97.4,211.3,97.4,211.1,97.4z
				 M211.1,101.3c-0.2,0-0.4-0.1-0.6-0.2c-0.1-0.1-0.2-0.3-0.2-0.5v-8.3c0-0.2,0.1-0.4,0.2-0.6c0.1-0.1,0.3-0.2,0.6-0.2
				s0.4,0.1,0.5,0.2c0.1,0.1,0.2,0.3,0.2,0.6v8.3c0,0.2-0.1,0.4-0.2,0.5C211.5,101.2,211.3,101.3,211.1,101.3z M218.7,101.3
				c-0.2,0-0.4-0.1-0.6-0.2c-0.1-0.1-0.2-0.3-0.2-0.5V96c0-0.7-0.1-1.3-0.4-1.8c-0.3-0.5-0.6-0.8-1.1-1s-1-0.3-1.6-0.3
				c-0.6,0-1.1,0.1-1.5,0.3c-0.5,0.2-0.8,0.5-1.1,0.9c-0.3,0.4-0.4,0.8-0.4,1.3h-1c0-0.8,0.2-1.4,0.6-2c0.4-0.6,0.9-1.1,1.5-1.4
				c0.6-0.3,1.3-0.5,2.1-0.5c0.9,0,1.6,0.2,2.3,0.5s1.2,0.9,1.6,1.6c0.4,0.7,0.6,1.5,0.6,2.5v4.6c0,0.2-0.1,0.4-0.2,0.5
				C219.1,101.2,218.9,101.3,218.7,101.3z"/>
		</g>
		<g class="st2">
			<path class="st3" d="M51.3,51.7h-9.5c-0.4,0-0.7-0.1-0.8-0.3c-0.2-0.2-0.3-0.4-0.3-0.8v-3.5c0-0.4,0.1-0.7,0.3-0.8
				c0.2-0.2,0.4-0.3,0.8-0.3h8.1c0.3,0,0.5-0.1,0.6-0.3c0.1-0.2,0.2-0.4,0.2-0.6c0-0.3-0.1-0.6-0.2-0.8c-0.1-0.2-0.3-0.2-0.6-0.3
				l-4.5-0.6c-1.4-0.2-2.5-0.7-3.4-1.4c-0.9-0.7-1.3-1.9-1.3-3.6v-3.2c0-1.7,0.6-3,1.7-3.9c1.1-0.9,2.6-1.4,4.6-1.4h8.4
				c0.4,0,0.7,0.1,0.8,0.3s0.3,0.4,0.3,0.8v3.6c0,0.4-0.1,0.7-0.3,0.8s-0.4,0.3-0.8,0.3h-7c-0.3,0-0.5,0.1-0.6,0.3
				c-0.1,0.2-0.2,0.4-0.2,0.6s0.1,0.5,0.2,0.7c0.1,0.2,0.3,0.3,0.6,0.3l4.5,0.6c1.4,0.2,2.5,0.7,3.4,1.4c0.9,0.7,1.3,1.9,1.3,3.6
				v3.1c0,1.7-0.6,3-1.7,3.9C54.7,51.3,53.2,51.7,51.3,51.7z"/>
			<path class="st3" d="M79.1,46c0,0.9-0.1,1.8-0.4,2.5s-0.8,1.4-1.4,1.9c-0.7,0.5-1.6,0.9-2.8,1.2c-1.2,0.3-2.7,0.5-4.6,0.5
				s-3.4-0.2-4.6-0.5c-1.2-0.3-2.1-0.7-2.8-1.2c-0.7-0.5-1.2-1.2-1.4-1.9S60.6,47,60.6,46V31.2c0-0.4,0.1-0.7,0.3-0.8
				s0.4-0.3,0.8-0.3h4.7c0.4,0,0.7,0.1,0.8,0.3c0.2,0.2,0.3,0.4,0.3,0.8v13.7c0,0.4,0.1,0.7,0.5,1c0.3,0.3,1,0.4,2,0.4
				c1.1,0,1.7-0.1,2-0.4c0.3-0.3,0.5-0.6,0.5-1V31.2c0-0.4,0.1-0.7,0.3-0.8c0.2-0.2,0.4-0.3,0.8-0.3h4.6c0.4,0,0.7,0.1,0.8,0.3
				c0.2,0.2,0.3,0.4,0.3,0.8V46z"/>
			<path class="st3" d="M95.7,51.7H84.2c-0.4,0-0.7-0.1-0.8-0.3c-0.2-0.2-0.3-0.4-0.3-0.8V31.2c0-0.4,0.1-0.7,0.3-0.8
				c0.2-0.2,0.4-0.3,0.8-0.3h9.6c2,0,3.4,0.4,4.3,1.1s1.4,1.9,1.4,3.5v1.4c0,0.8-0.1,1.5-0.4,2.1c-0.3,0.5-0.7,0.9-1.3,1.2
				c1.3,0.1,2.2,0.6,2.9,1.3c0.6,0.8,0.9,1.9,0.9,3.3v2.8c0,1.7-0.5,2.9-1.4,3.7C99.2,51.3,97.7,51.7,95.7,51.7z M89.9,35.2v3.2h2.6
				c0.4,0,0.7-0.1,0.9-0.3c0.2-0.2,0.3-0.5,0.3-0.9v-0.8c0-0.4-0.1-0.7-0.3-0.9c-0.2-0.2-0.5-0.3-0.9-0.3H89.9z M89.9,43.1v3.5h3.9
				c0.4,0,0.7-0.1,0.9-0.3c0.2-0.2,0.3-0.5,0.3-0.9v-1.2c0-0.4-0.1-0.7-0.3-0.9c-0.2-0.2-0.5-0.3-0.9-0.3H89.9z"/>
			<path class="st3" d="M114.9,51.7h-9.5c-0.4,0-0.7-0.1-0.8-0.3c-0.2-0.2-0.3-0.4-0.3-0.8v-3.5c0-0.4,0.1-0.7,0.3-0.8
				c0.2-0.2,0.4-0.3,0.8-0.3h8.1c0.3,0,0.5-0.1,0.6-0.3c0.1-0.2,0.2-0.4,0.2-0.6c0-0.3-0.1-0.6-0.2-0.8c-0.1-0.2-0.3-0.2-0.6-0.3
				l-4.5-0.6c-1.4-0.2-2.5-0.7-3.4-1.4c-0.9-0.7-1.3-1.9-1.3-3.6v-3.2c0-1.7,0.6-3,1.7-3.9c1.1-0.9,2.6-1.4,4.6-1.4h8.4
				c0.4,0,0.7,0.1,0.8,0.3s0.3,0.4,0.3,0.8v3.6c0,0.4-0.1,0.7-0.3,0.8s-0.4,0.3-0.8,0.3h-7c-0.3,0-0.5,0.1-0.6,0.3
				c-0.1,0.2-0.2,0.4-0.2,0.6s0.1,0.5,0.2,0.7c0.1,0.2,0.3,0.3,0.6,0.3l4.5,0.6c1.4,0.2,2.5,0.7,3.4,1.4c0.9,0.7,1.3,1.9,1.3,3.6
				v3.1c0,1.7-0.6,3-1.7,3.9C118.3,51.3,116.8,51.7,114.9,51.7z"/>
			<path class="st3" d="M138.8,51.7h-7.3c-2.5,0-4.4-0.5-5.6-1.5c-1.2-1-1.8-2.5-1.8-4.6v-9.3c0-2.1,0.6-3.6,1.8-4.6
				c1.2-1,3.1-1.5,5.6-1.5h7.3c0.4,0,0.7,0.1,0.8,0.3c0.2,0.2,0.3,0.4,0.3,0.8v3.6c0,0.4-0.1,0.7-0.3,0.8c-0.2,0.2-0.4,0.3-0.8,0.3
				h-6c-0.6,0-1.1,0.1-1.4,0.4c-0.3,0.2-0.4,0.6-0.4,1.1v7.1c0,0.5,0.1,0.9,0.4,1.1c0.3,0.2,0.8,0.3,1.4,0.3h6
				c0.4,0,0.7,0.1,0.8,0.3c0.2,0.2,0.3,0.4,0.3,0.8v3.6c0,0.4-0.1,0.7-0.3,0.8C139.4,51.6,139.1,51.7,138.8,51.7z"/>
			<path class="st3" d="M148.9,51.7h-4.6c-0.4,0-0.7-0.1-0.8-0.3c-0.2-0.2-0.3-0.4-0.3-0.8V31.2c0-0.4,0.1-0.7,0.3-0.8
				c0.2-0.2,0.4-0.3,0.8-0.3h10c2.2,0,3.8,0.5,4.6,1.4c0.9,0.9,1.3,2.1,1.3,3.6v1.4c0,0.8-0.1,1.6-0.4,2.1c-0.2,0.6-0.7,1-1.3,1.3
				c1.1,0.1,2,0.6,2.6,1.3c0.7,0.8,1,1.8,1,3v6.4c0,0.4-0.1,0.7-0.3,0.8c-0.2,0.2-0.4,0.3-0.8,0.3h-4.7c-0.4,0-0.7-0.1-0.8-0.3
				s-0.3-0.4-0.3-0.8V46c0-0.4-0.1-0.8-0.3-1c-0.2-0.2-0.5-0.3-0.9-0.3H150v5.9c0,0.4-0.1,0.7-0.3,0.8S149.3,51.7,148.9,51.7z
				 M150,35.5v3.8h2.2c0.5,0,0.9-0.1,1-0.4c0.2-0.3,0.3-0.6,0.3-1v-1c0-0.4-0.1-0.7-0.3-1c-0.2-0.3-0.5-0.4-1-0.4H150z"/>
			<path class="st3" d="M166.1,51.7c-0.4,0-0.7-0.1-0.8-0.3S165,51,165,50.6v-3.6c0-0.4,0.1-0.7,0.3-0.8s0.4-0.3,0.8-0.3h3V35.9h-3
				c-0.4,0-0.7-0.1-0.8-0.3c-0.2-0.2-0.3-0.4-0.3-0.8v-3.6c0-0.4,0.1-0.7,0.3-0.8s0.4-0.3,0.8-0.3h12.8c0.4,0,0.7,0.1,0.8,0.3
				s0.3,0.4,0.3,0.8v3.6c0,0.4-0.1,0.7-0.3,0.8c-0.2,0.2-0.4,0.3-0.8,0.3H176V46h2.9c0.4,0,0.7,0.1,0.8,0.3s0.3,0.4,0.3,0.8v3.6
				c0,0.4-0.1,0.7-0.3,0.8s-0.4,0.3-0.8,0.3H166.1z"/>
			<path class="st3" d="M196.3,51.7h-11.5c-0.4,0-0.7-0.1-0.8-0.3c-0.2-0.2-0.3-0.4-0.3-0.8V31.2c0-0.4,0.1-0.7,0.3-0.8
				c0.2-0.2,0.4-0.3,0.8-0.3h9.6c2,0,3.4,0.4,4.3,1.1c0.9,0.8,1.4,1.9,1.4,3.5v1.4c0,0.8-0.1,1.5-0.4,2.1c-0.3,0.5-0.7,0.9-1.3,1.2
				c1.3,0.1,2.2,0.6,2.8,1.3s0.9,1.9,0.9,3.3v2.8c0,1.7-0.5,2.9-1.4,3.7C199.7,51.3,198.2,51.7,196.3,51.7z M190.4,35.2v3.2h2.6
				c0.4,0,0.7-0.1,0.9-0.3s0.3-0.5,0.3-0.9v-0.8c0-0.4-0.1-0.7-0.3-0.9c-0.2-0.2-0.5-0.3-0.9-0.3H190.4z M190.4,43.1v3.5h3.9
				c0.4,0,0.7-0.1,0.9-0.3c0.2-0.2,0.3-0.5,0.3-0.9v-1.2c0-0.4-0.1-0.7-0.3-0.9c-0.2-0.2-0.5-0.3-0.9-0.3H190.4z"/>
			<path class="st3" d="M220.4,51.7h-13.9c-0.4,0-0.7-0.1-0.8-0.3c-0.2-0.2-0.3-0.4-0.3-0.8V31.2c0-0.4,0.1-0.7,0.3-0.8
				c0.2-0.2,0.4-0.3,0.8-0.3h13.9c0.4,0,0.7,0.1,0.8,0.3s0.3,0.4,0.3,0.8v3.5c0,0.4-0.1,0.7-0.3,0.8s-0.4,0.3-0.8,0.3h-8.3v2.3h5.8
				c0.4,0,0.7,0.1,0.8,0.3s0.3,0.4,0.3,0.8v3.2c0,0.4-0.1,0.7-0.3,0.8s-0.4,0.3-0.8,0.3h-5.8V46h8.3c0.4,0,0.7,0.1,0.8,0.3
				s0.3,0.4,0.3,0.8v3.5c0,0.4-0.1,0.7-0.3,0.8S220.8,51.7,220.4,51.7z"/>
		</g>
	</g>
</g>
</svg>
