<svg xmlns="http://www.w3.org/2000/svg" xmlns:xlink="http://www.w3.org/1999/xlink" viewBox="0 0 331.92 147.3"><defs><linearGradient id="linear-gradient" x1="1542.05" y1="-104.4" x2="1872.22" y2="-104.4" gradientTransform="translate(1873.09 -33.02) rotate(180)" gradientUnits="userSpaceOnUse"><stop offset="0.69" stop-color="#fa8f9d"/><stop offset="1" stop-color="#ffa7b5"/></linearGradient></defs><title>img_01</title><g id="Layer_2" data-name="Layer 2"><g id="bubble_talk" data-name="bubble talk"><path d="M201.83,141.87c-105.39,0-151.2-3.36-175-12.83C.87,118.74.87,100.25.87,72.26.87,9.76,32,.87,147.08.87l6.95,0c79.4.24,121.68,1.47,139.78,25C307.54,43.74,306.69,72,306.54,75.3c.83,1.24,6.27,8.41,23.76,11A.88.88,0,0,1,331,87a.9.9,0,0,1-.33.92c-7.43,5.52-14.3,8.2-21,8.2a39.4,39.4,0,0,1-10.47-1.73l-1.72-.45c-3.59,10.82-8.78,22-21.51,31.06C260,136.35,235.75,141.87,201.83,141.87Z" fill="url(#linear-gradient)"/><path d="M147.08,1.75H154C231.23,2,275,2.83,293.12,26.42c14.25,18.53,12.53,49.1,12.53,49.1s4.66,8.7,24.52,11.69c-8.43,6.25-15,8-20.47,8-5,0-9-1.45-12.77-2.34-6.37,19.55-19.1,48.11-95.1,48.11C2.69,141,1.75,129.85,1.75,72.26,1.75,11.8,30,1.75,147.08,1.75m0-1.75h0C114.76,0,92.47.78,74.79,2.52c-19.94,2-34.25,5.22-45,10.22C18.7,17.88,11.07,25.15,6.41,35,2,44.21,0,56.06,0,72.26c0,28.35,0,47.07,26.47,57.59,24,9.52,69.84,12.9,175.36,12.9,34.11,0,58.54-5.58,74.67-17,12.63-9,17.95-20,21.58-30.72l.92.25A40.34,40.34,0,0,0,309.7,97c6.89,0,13.92-2.74,21.51-8.37a1.74,1.74,0,0,0-.78-3.13c-14.18-2.14-21.07-7.53-23-10.41.17-4.39.66-32-12.93-49.71C276.16,1.5,233.72.26,154,0Z"/><path d="M180.64,146.42c-72.59,0-119.53-1.88-144.62-11.53-24.46-9.4-29.09-26.14-29.09-53.76,0-28.68,4.78-48.62,28.6-59.34C57.66,11.82,95,9.93,156.25,9.93h4.48c77.81.12,125.35,4.11,138.08,24.16,12,18.85,7.21,45.72,6.27,50.37a35.6,35.6,0,0,0,15.24,3.75h0a25.05,25.05,0,0,0,9.52-1.81.78.78,0,0,1,.33-.07.88.88,0,0,1,.76,1.31,24.9,24.9,0,0,1-21.52,12.87,20.28,20.28,0,0,1-3.88-.36c-7.66,30.84-15.38,45.7-92.45,46.17C201,146.39,190.34,146.42,180.64,146.42Z" fill="#897dff"/><path d="M156.25,10.8h4.48c72.75.1,124.3,3.19,137.35,23.74,12.81,20.19,6,50.37,6,50.37a36.13,36.13,0,0,0,16.24,4.16,26,26,0,0,0,9.85-1.87,23.93,23.93,0,0,1-20.76,12.42,19.27,19.27,0,0,1-4.53-.52c-7.81,31.71-15.48,45.87-91.81,46.33q-17.13.1-32.43.11C26.29,145.55,7.8,136.43,7.8,81.13,7.8,18.78,33.21,10.8,156.25,10.8M330.17,87.21h0M156.25,9.05C94.91,9.05,57.44,11,35.17,21,24,26,16.65,33.06,12.1,43.12c-4.18,9.24-6,21-6,38,0,28,4.73,45,29.66,54.58C60.93,145.4,108,147.3,180.64,147.3c9.7,0,20.31,0,32.45-.11,37.7-.23,59.38-3.73,72.49-11.7,12.77-7.77,16.91-19.64,20.6-34.34a22.63,22.63,0,0,0,3.23.23,25.73,25.73,0,0,0,22.24-13.25,1.68,1.68,0,0,0,.27-.92,1.74,1.74,0,0,0-1.72-1.75H330a1.53,1.53,0,0,0-.52.13,24.11,24.11,0,0,1-9.15,1.73A34.53,34.53,0,0,1,306.06,84c1.19-6.19,5.15-32-6.51-50.35C293.08,23.43,278,17,252,13.28,226.41,9.64,191.5,9.1,160.73,9.06Z"/><path d="M53,66.55H48.39a.92.92,0,0,1-1.08-1.08V46a1.12,1.12,0,0,1,.25-.82,1.15,1.15,0,0,1,.83-.26H53A.93.93,0,0,1,54.12,46v6.9h1.2l3.09-7a1.49,1.49,0,0,1,.57-.76,1.73,1.73,0,0,1,.93-.23h4.62a.8.8,0,0,1,.69.26.73.73,0,0,1,0,.73l-3.06,7a3.75,3.75,0,0,1,2.68,1.19,4.1,4.1,0,0,1,1,2.89v8.46a1.15,1.15,0,0,1-.26.83,1.12,1.12,0,0,1-.82.25H60.12A.92.92,0,0,1,59,65.47V59.62a1.09,1.09,0,0,0-.24-.75.91.91,0,0,0-.72-.27h-4v6.87a1.15,1.15,0,0,1-.26.83A1.12,1.12,0,0,1,53,66.55Z" fill="#fff"/><path d="M75.42,66.55H70.77a.92.92,0,0,1-1.08-1.08V46a1.12,1.12,0,0,1,.25-.82,1.15,1.15,0,0,1,.83-.26h4.65a1.14,1.14,0,0,1,.82.26,1.12,1.12,0,0,1,.26.82v6.51h5V46a1.12,1.12,0,0,1,.25-.82,1.15,1.15,0,0,1,.83-.26h4.65A.93.93,0,0,1,88.32,46V65.47a1.15,1.15,0,0,1-.26.83,1.12,1.12,0,0,1-.82.25H82.59a.92.92,0,0,1-1.08-1.08V58.81h-5v6.66a.92.92,0,0,1-1.08,1.08Z" fill="#fff"/><path d="M110.75,60.88a7.38,7.38,0,0,1-.4,2.51,4.19,4.19,0,0,1-1.44,1.92,7.71,7.71,0,0,1-2.85,1.24,19.61,19.61,0,0,1-4.6.45,19.83,19.83,0,0,1-4.63-.45A7.69,7.69,0,0,1,94,65.31a4.19,4.19,0,0,1-1.44-1.92,7.38,7.38,0,0,1-.41-2.51V50.65a7.32,7.32,0,0,1,.41-2.5A4.29,4.29,0,0,1,94,46.21,7.53,7.53,0,0,1,96.83,45a19.83,19.83,0,0,1,4.63-.45,19.61,19.61,0,0,1,4.6.45,7.55,7.55,0,0,1,2.85,1.26,4.29,4.29,0,0,1,1.44,1.94,7.33,7.33,0,0,1,.4,2.5ZM100.46,42.64l-4.11,1.2q-.75.24-1,.06t-.24-1V40.48a1.5,1.5,0,0,1,.26-1,3.59,3.59,0,0,1,1-.54l3.84-1.38a2.88,2.88,0,0,1,.59-.18l.58-.09a4.41,4.41,0,0,1,.52,0,1.69,1.69,0,0,1,.44.12l4.12,1.5a3.56,3.56,0,0,1,1,.54,1.5,1.5,0,0,1,.25,1v2.43c0,.54-.08.87-.23,1s-.51.1-1-.06l-4.12-1.2a3.66,3.66,0,0,0-1.86,0ZM98.94,59.8a1.3,1.3,0,0,0,.44,1,3.5,3.5,0,0,0,2.08.4,3.4,3.4,0,0,0,2.06-.4,1.32,1.32,0,0,0,.46-1V51.73a1.27,1.27,0,0,0-.46-1,3.39,3.39,0,0,0-2.06-.41,3.48,3.48,0,0,0-2.08.41,1.25,1.25,0,0,0-.44,1Z" fill="#fff"/><path d="M120.14,66.55h-4.5a1.12,1.12,0,0,1-.82-.25,1.15,1.15,0,0,1-.26-.83V46A.93.93,0,0,1,115.64,45h3.12a2.42,2.42,0,0,1,1,.18,2.33,2.33,0,0,1,.79.63l5.82,6.66V46A.93.93,0,0,1,127.43,45h4.5a1.15,1.15,0,0,1,.83.26A1.12,1.12,0,0,1,133,46V65.47a.92.92,0,0,1-1.08,1.08h-4.5a1.12,1.12,0,0,1-.82-.25,1.15,1.15,0,0,1-.26-.83V61.78l-5.13-6.21v9.9a.92.92,0,0,1-1.08,1.08Z" fill="#fff"/><path d="M153.65,66.55H144.2q-3.75,0-5.56-1.5a5.65,5.65,0,0,1-1.82-4.62V51.07a5.65,5.65,0,0,1,1.82-4.62q1.81-1.5,5.56-1.5h7.5a1.15,1.15,0,0,1,.83.26,1.12,1.12,0,0,1,.25.82v3.63a.92.92,0,0,1-1.08,1.08h-6.24a2.12,2.12,0,0,0-1.38.38,1.37,1.37,0,0,0-.45,1.12v7.17a1.55,1.55,0,0,0,.35,1.11,1.36,1.36,0,0,0,1,.36h2.91V56.2A.93.93,0,0,1,149,55.12h4.65a1.15,1.15,0,0,1,.83.26,1.12,1.12,0,0,1,.25.82v9.27a.92.92,0,0,1-1.08,1.08Z" fill="#fff"/><path d="M183.44,60.88a7.38,7.38,0,0,1-.4,2.51,4.19,4.19,0,0,1-1.44,1.92,7.71,7.71,0,0,1-2.85,1.24,23.89,23.89,0,0,1-9.23,0,7.69,7.69,0,0,1-2.86-1.24,4.19,4.19,0,0,1-1.44-1.92,7.38,7.38,0,0,1-.41-2.51V50.65a7.32,7.32,0,0,1,.41-2.5,4.29,4.29,0,0,1,1.44-1.94A7.53,7.53,0,0,1,169.52,45a23.89,23.89,0,0,1,9.23,0,7.55,7.55,0,0,1,2.85,1.26A4.29,4.29,0,0,1,183,48.15a7.33,7.33,0,0,1,.4,2.5ZM171.62,59.8a1.31,1.31,0,0,0,.45,1,5.56,5.56,0,0,0,4.14,0,1.31,1.31,0,0,0,.45-1V51.73a1.26,1.26,0,0,0-.45-1,5.43,5.43,0,0,0-4.14,0,1.26,1.26,0,0,0-.45,1Z" fill="#fff"/><path d="M193,66.55h-4.62a1.12,1.12,0,0,1-.82-.25,1.15,1.15,0,0,1-.26-.83V46A.93.93,0,0,1,188.33,45h10q3.36,0,4.64,1.4A5.13,5.13,0,0,1,204.23,50v1.38a5.52,5.52,0,0,1-.37,2.15,2.34,2.34,0,0,1-1.31,1.27,4,4,0,0,1,2.63,1.32,4.41,4.41,0,0,1,1,3v6.36a.92.92,0,0,1-1.08,1.08h-4.65a1.12,1.12,0,0,1-.82-.25,1.15,1.15,0,0,1-.26-.83V60.88a1.52,1.52,0,0,0-.25-1,1.09,1.09,0,0,0-.89-.32H194v5.88A.92.92,0,0,1,193,66.55ZM194,50.35v3.84h2.25a1.18,1.18,0,0,0,1.05-.4,1.79,1.79,0,0,0,.27-1v-1a1.76,1.76,0,0,0-.27-1,1.18,1.18,0,0,0-1.05-.41Z" fill="#fff"/><path d="M220.73,66.55H210.62a1.12,1.12,0,0,1-.82-.25,1.15,1.15,0,0,1-.26-.83V46A.93.93,0,0,1,210.62,45h10.11q3.75,0,5.57,1.5a5.65,5.65,0,0,1,1.81,4.62v9.36a5.65,5.65,0,0,1-1.81,4.62Q224.49,66.55,220.73,66.55Zm-4.38-15.87v10.2h3.57a1.43,1.43,0,0,0,1.07-.36,1.55,1.55,0,0,0,.34-1.11V52.12A1.48,1.48,0,0,0,221,51a1.47,1.47,0,0,0-1.07-.35Z" fill="#fff"/><path d="M246.92,66.55H233a1.12,1.12,0,0,1-.82-.25,1.15,1.15,0,0,1-.26-.83V46A.93.93,0,0,1,233,45h13.92a1.15,1.15,0,0,1,.83.26A1.12,1.12,0,0,1,248,46v3.51a.92.92,0,0,1-1.08,1.08h-8.28v2.31h5.85a1.15,1.15,0,0,1,.83.26,1.12,1.12,0,0,1,.25.82v3.21a.92.92,0,0,1-1.08,1.08h-5.85v2.58h8.28a1.15,1.15,0,0,1,.83.26A1.12,1.12,0,0,1,248,62v3.51a.92.92,0,0,1-1.08,1.08Z" fill="#fff"/><path d="M257.24,66.55h-4.62a1.12,1.12,0,0,1-.82-.25,1.15,1.15,0,0,1-.26-.83V46A.93.93,0,0,1,252.62,45h10q3.36,0,4.64,1.4A5.13,5.13,0,0,1,268.52,50v1.38a5.52,5.52,0,0,1-.37,2.15,2.34,2.34,0,0,1-1.31,1.27,4,4,0,0,1,2.63,1.32,4.41,4.41,0,0,1,1,3v6.36a.92.92,0,0,1-1.08,1.08h-4.65a1.12,1.12,0,0,1-.82-.25,1.15,1.15,0,0,1-.26-.83V60.88a1.52,1.52,0,0,0-.25-1,1.09,1.09,0,0,0-.89-.32h-4.2v5.88a.92.92,0,0,1-1.08,1.08Zm1.08-16.2v3.84h2.25a1.18,1.18,0,0,0,1.05-.4,1.79,1.79,0,0,0,.27-1v-1a1.76,1.76,0,0,0-.27-1,1.18,1.18,0,0,0-1.05-.41Z" fill="#fff"/><path d="M52.17,90.75a.7.7,0,0,1-.52-.2.73.73,0,0,1-.19-.51V81.4a.73.73,0,0,1,.19-.51.74.74,0,0,1,.52-.19.7.7,0,0,1,.49.19.69.69,0,0,1,.19.51V90a.69.69,0,0,1-.19.51A.66.66,0,0,1,52.17,90.75Zm0,4a.69.69,0,0,1-.52-.19.68.68,0,0,1-.19-.49V85.62a.66.66,0,0,1,.71-.71.65.65,0,0,1,.68.71v8.46a.64.64,0,0,1-.19.49A.66.66,0,0,1,52.17,94.76Zm7.74,0a.69.69,0,0,1-.51-.2.66.66,0,0,1-.2-.48V89.4a3.61,3.61,0,0,0-.42-1.84,2.72,2.72,0,0,0-1.15-1.08A3.7,3.7,0,0,0,56,86.12a3.57,3.57,0,0,0-1.59.34,2.83,2.83,0,0,0-1.13.94,2.32,2.32,0,0,0-.41,1.35h-1a3.9,3.9,0,0,1,.61-2A4.2,4.2,0,0,1,54,85.32a4.47,4.47,0,0,1,2.13-.51,4.74,4.74,0,0,1,2.28.53A3.89,3.89,0,0,1,60,86.89a5,5,0,0,1,.59,2.51v4.68a.68.68,0,0,1-.68.68Z" fill="#fff"/><path d="M68,94.85a4.75,4.75,0,0,1-2.49-.66,4.65,4.65,0,0,1-1.73-1.79,5.06,5.06,0,0,1-.64-2.55,5.15,5.15,0,0,1,.65-2.58,5,5,0,0,1,8.68,0,5.27,5.27,0,0,1,.68,2.58l-.56.43A4.48,4.48,0,0,1,72,92.61a4.42,4.42,0,0,1-1.63,1.64A4.62,4.62,0,0,1,68,94.85Zm.14-1.26a3.53,3.53,0,0,0,3.16-1.83,4.08,4.08,0,0,0,0-3.84A3.63,3.63,0,0,0,70,86.58a3.5,3.5,0,0,0-1.86-.5,3.54,3.54,0,0,0-1.85.5A3.77,3.77,0,0,0,65,87.92a4.08,4.08,0,0,0,0,3.84,3.61,3.61,0,0,0,1.32,1.34A3.53,3.53,0,0,0,68.13,93.59Zm0,4.93a.9.9,0,0,1-.68-.29,1,1,0,0,1-.29-.7.9.9,0,0,1,.3-.71,1,1,0,0,1,1.37,0,.93.93,0,0,1,.29.71,1,1,0,0,1-1,1Zm4.32-3.76a.68.68,0,0,1-.5-.19.65.65,0,0,1-.2-.49V91l.34-1.42,1.07.27v4.23a.65.65,0,0,1-.2.49A.69.69,0,0,1,72.43,94.76Z" fill="#fff"/><path d="M75.21,86.48a.65.65,0,0,1-.46-.17.56.56,0,0,1-.18-.42.57.57,0,0,1,.18-.44.62.62,0,0,1,.46-.18h4.58a.61.61,0,0,1,.45.18.57.57,0,0,1,.18.44.56.56,0,0,1-.18.42.64.64,0,0,1-.45.17Zm4.48,8.28a3.2,3.2,0,0,1-2.88-1.68,3.62,3.62,0,0,1-.43-1.79V82.48a.71.71,0,0,1,.18-.5.67.67,0,0,1,.5-.2.68.68,0,0,1,.7.7v8.81a2.12,2.12,0,0,0,.54,1.5,1.8,1.8,0,0,0,1.39.58h.48a.62.62,0,0,1,.47.2.74.74,0,0,1,.18.51.6.6,0,0,1-.22.49.76.76,0,0,1-.54.19Z" fill="#fff"/><path d="M91.71,94.76a.7.7,0,0,1-.65-.47l-4-8.48a.53.53,0,0,1,0-.46.64.64,0,0,1,.36-.36.55.55,0,0,1,.48,0,.66.66,0,0,1,.36.32l3.84,8.3h-.74l3.78-8.3a.61.61,0,0,1,.37-.33A.75.75,0,0,1,96,85a.65.65,0,0,1,.34.37.57.57,0,0,1,0,.46l-4,8.49A.71.71,0,0,1,91.71,94.76Z" fill="#fff"/><path d="M99.27,83a.9.9,0,0,1-.68-.29.91.91,0,0,1-.29-.7.9.9,0,0,1,.3-.71,1,1,0,0,1,.69-.26,1,1,0,0,1,.67.26.9.9,0,0,1,.3.71,1,1,0,0,1-.29.7A.91.91,0,0,1,99.27,83Zm0,11.72a.66.66,0,0,1-.51-.19.67.67,0,0,1-.19-.51V85.62a.66.66,0,0,1,.7-.71.68.68,0,0,1,.49.19.69.69,0,0,1,.19.52v8.44a.67.67,0,0,1-.19.51A.64.64,0,0,1,99.29,94.76Z" fill="#fff"/><path d="M109.48,94.76a.69.69,0,0,1-.52-.19.68.68,0,0,1-.19-.49V85.62a.66.66,0,0,1,.71-.71.68.68,0,0,1,.49.19.69.69,0,0,1,.19.52v8.46a.65.65,0,0,1-.68.68Zm7.74,0a.69.69,0,0,1-.51-.2.66.66,0,0,1-.2-.48V89.4a3.61,3.61,0,0,0-.42-1.84,2.66,2.66,0,0,0-1.15-1.08,3.7,3.7,0,0,0-1.65-.36,3.57,3.57,0,0,0-1.59.34,2.9,2.9,0,0,0-1.13.94,2.32,2.32,0,0,0-.41,1.35h-1a3.9,3.9,0,0,1,.61-2,4.2,4.2,0,0,1,1.53-1.4,4.47,4.47,0,0,1,2.13-.51,4.74,4.74,0,0,1,2.28.53,3.91,3.91,0,0,1,1.6,1.55,5,5,0,0,1,.58,2.51v4.68a.68.68,0,0,1-.68.68Z" fill="#fff"/><path d="M121.66,90.75a.68.68,0,0,1-.51-.2A.69.69,0,0,1,121,90V81.4a.69.69,0,0,1,.19-.51.71.71,0,0,1,.51-.19.7.7,0,0,1,.5.19.73.73,0,0,1,.19.51V90a.73.73,0,0,1-.19.51A.67.67,0,0,1,121.66,90.75Zm0,4a.67.67,0,0,1-.51-.19.64.64,0,0,1-.19-.49V85.62a.69.69,0,0,1,.19-.52.71.71,0,0,1,.51-.19.7.7,0,0,1,.5.19.74.74,0,0,1,.19.52v8.46a.68.68,0,0,1-.19.49A.66.66,0,0,1,121.66,94.76Zm7.74,0a.69.69,0,0,1-.5-.2.66.66,0,0,1-.2-.48V89.4a3.61,3.61,0,0,0-.42-1.84,2.74,2.74,0,0,0-1.16-1.08,3.92,3.92,0,0,0-3.24,0,2.87,2.87,0,0,0-1.12.94,2.25,2.25,0,0,0-.41,1.35h-1a3.81,3.81,0,0,1,.61-2,4.05,4.05,0,0,1,1.53-1.4,4.4,4.4,0,0,1,2.12-.51,4.78,4.78,0,0,1,2.29.53,3.89,3.89,0,0,1,1.59,1.55,5,5,0,0,1,.59,2.51v4.68a.66.66,0,0,1-.2.48A.68.68,0,0,1,129.4,94.76Z" fill="#fff"/><path d="M137.43,94.87a4.92,4.92,0,0,1-2.29-.53,4,4,0,0,1-1.59-1.56,5,5,0,0,1-.58-2.5V85.6a.69.69,0,0,1,.19-.49.7.7,0,0,1,.49-.2.69.69,0,0,1,.5.2.66.66,0,0,1,.2.49v4.68a3.59,3.59,0,0,0,.42,1.83,2.68,2.68,0,0,0,1.16,1.08,3.5,3.5,0,0,0,1.64.36,3.64,3.64,0,0,0,1.6-.34,2.86,2.86,0,0,0,1.12-.93,2.3,2.3,0,0,0,.42-1.35h1a4.08,4.08,0,0,1-.63,2,4,4,0,0,1-1.52,1.41A4.4,4.4,0,0,1,137.43,94.87Zm.18,3.65a.9.9,0,0,1-.68-.29.91.91,0,0,1-.29-.7.93.93,0,0,1,.29-.71,1,1,0,0,1,.7-.26,1,1,0,0,1,.67.26.9.9,0,0,1,.3.71,1,1,0,0,1-.29.7A.91.91,0,0,1,137.61,98.52Zm3.78-3.76a.68.68,0,0,1-.5-.19.71.71,0,0,1-.18-.51V85.6a.7.7,0,0,1,1.18-.5.65.65,0,0,1,.2.5v8.46a.64.64,0,0,1-.2.51A.68.68,0,0,1,141.39,94.76Zm0-8.57V84.91h.79a.69.69,0,0,0,.55-.27,1.09,1.09,0,0,0,.23-.72v-.37a.68.68,0,0,1,.17-.49.58.58,0,0,1,.46-.2.53.53,0,0,1,.48.24.92.92,0,0,1,.17.55v.27a2.49,2.49,0,0,1-.27,1.17,2.2,2.2,0,0,1-.73.81,2,2,0,0,1-1.06.29Z" fill="#fff"/><path d="M149.67,94.85a4.69,4.69,0,0,1-2.48-.66,4.61,4.61,0,0,1-1.74-1.79,5.39,5.39,0,0,1,0-5.13,4.8,4.8,0,0,1,1.79-1.79,5,5,0,0,1,6.88,1.79,5.27,5.27,0,0,1,.68,2.58l-.56.43a4.48,4.48,0,0,1-2.24,4A4.62,4.62,0,0,1,149.67,94.85Zm.14-1.26A3.5,3.5,0,0,0,153,91.76a4.08,4.08,0,0,0,0-3.84,3.69,3.69,0,0,0-1.29-1.34,3.71,3.71,0,0,0-3.72,0,3.66,3.66,0,0,0-1.31,1.34,4,4,0,0,0,0,3.84,3.56,3.56,0,0,0,3.16,1.83Zm4.3,1.17a.68.68,0,0,1-.5-.19.65.65,0,0,1-.2-.49V91l.34-1.42,1.07.27v4.23a.65.65,0,0,1-.2.49A.69.69,0,0,1,154.11,94.76Z" fill="#fff"/><path d="M166.16,94.76a.69.69,0,0,1-.65-.47l-4-8.48a.57.57,0,0,1,0-.46.64.64,0,0,1,.36-.36.57.57,0,0,1,.49,0,.66.66,0,0,1,.36.32l3.83,8.3h-.73l3.78-8.3a.58.58,0,0,1,.37-.33.75.75,0,0,1,.51,0,.65.65,0,0,1,.34.37.57.57,0,0,1,0,.46l-3.94,8.49A.71.71,0,0,1,166.16,94.76Z" fill="#fff"/><path d="M176.72,94.85a4.75,4.75,0,0,1-4.22-2.45,5.16,5.16,0,0,1-.64-2.55,5.05,5.05,0,0,1,.66-2.58,4.88,4.88,0,0,1,1.79-1.79,5,5,0,0,1,2.56-.66,4.91,4.91,0,0,1,4.33,2.45,5.27,5.27,0,0,1,.67,2.58l-.56.43a4.57,4.57,0,0,1-.6,2.33,4.45,4.45,0,0,1-1.64,1.64A4.59,4.59,0,0,1,176.72,94.85Zm.15-1.26a3.54,3.54,0,0,0,1.86-.49,3.49,3.49,0,0,0,1.3-1.34,4.16,4.16,0,0,0,0-3.84,3.63,3.63,0,0,0-1.3-1.34,3.71,3.71,0,0,0-3.72,0,3.66,3.66,0,0,0-1.31,1.34,4,4,0,0,0,0,3.84,3.56,3.56,0,0,0,3.17,1.83Zm0-10.28a.61.61,0,0,1-.47-.2l-2-2a.76.76,0,0,1-.18-.49.72.72,0,0,1,.19-.51.68.68,0,0,1,1,0l2,2a.55.55,0,0,1,.18.45.73.73,0,0,1-.2.52A.69.69,0,0,1,176.85,83.31Zm4.32,11.45a.7.7,0,0,1-.51-.19.64.64,0,0,1-.19-.49V91l.34-1.42,1.06.27v4.23a.65.65,0,0,1-.2.49A.68.68,0,0,1,181.17,94.76Z" fill="#fff"/><path d="M189.05,94.85a5.09,5.09,0,0,1-2.57-.65,4.61,4.61,0,0,1-1.78-1.78,5,5,0,0,1-.65-2.57,5.07,5.07,0,0,1,.65-2.6,4.68,4.68,0,0,1,1.78-1.78,5.41,5.41,0,0,1,5.14,0,4.73,4.73,0,0,1,1.77,1.78,5.4,5.4,0,0,1,.67,2.6,5,5,0,0,1-.66,2.57,4.75,4.75,0,0,1-1.78,1.78A5.09,5.09,0,0,1,189.05,94.85Zm0-1.26a3.55,3.55,0,0,0,1.87-.49,3.33,3.33,0,0,0,1.3-1.33,3.9,3.9,0,0,0,.47-1.92,4,4,0,0,0-.47-1.94,3.35,3.35,0,0,0-1.3-1.34,3.81,3.81,0,0,0-3.74,0,3.42,3.42,0,0,0-1.3,1.34,3.9,3.9,0,0,0-.48,1.94,3.8,3.8,0,0,0,.48,1.92,3.39,3.39,0,0,0,1.3,1.33A3.58,3.58,0,0,0,189.05,93.59Z" fill="#fff"/><path d="M207,94.85a5,5,0,0,1-2.53-.65,4.82,4.82,0,0,1-1.79-1.77A5.11,5.11,0,0,1,202,89.9V81.4a.69.69,0,0,1,.19-.51.71.71,0,0,1,.51-.19.7.7,0,0,1,.5.19.73.73,0,0,1,.19.51v5.3A4.24,4.24,0,0,1,205,85.34a4.66,4.66,0,0,1,2.19-.52,4.72,4.72,0,0,1,2.48.66,4.9,4.9,0,0,1,1.74,1.79,5.2,5.2,0,0,1,.64,2.56,5,5,0,0,1-.66,2.57,4.73,4.73,0,0,1-1.79,1.79A5,5,0,0,1,207,94.85Zm0-1.26a3.52,3.52,0,0,0,3.17-1.84,3.8,3.8,0,0,0,.48-1.92,3.85,3.85,0,0,0-.48-1.92,3.49,3.49,0,0,0-1.3-1.34,3.67,3.67,0,0,0-1.87-.49,3.64,3.64,0,0,0-1.86.49,3.4,3.4,0,0,0-1.29,1.34,3.85,3.85,0,0,0-.47,1.92,3.8,3.8,0,0,0,.47,1.92,3.49,3.49,0,0,0,1.29,1.35A3.54,3.54,0,0,0,207,93.59Z" fill="#fff"/><path d="M219,94.87a4.92,4.92,0,0,1-2.29-.53,4,4,0,0,1-1.59-1.56,5,5,0,0,1-.58-2.5V85.6a.69.69,0,0,1,.19-.49.7.7,0,0,1,.49-.2.69.69,0,0,1,.5.2.66.66,0,0,1,.2.49v4.68a3.59,3.59,0,0,0,.42,1.83,2.68,2.68,0,0,0,1.16,1.08,3.5,3.5,0,0,0,1.64.36,3.64,3.64,0,0,0,1.6-.34,2.93,2.93,0,0,0,1.12-.93,2.3,2.3,0,0,0,.42-1.35h1a4.08,4.08,0,0,1-.63,2,4,4,0,0,1-1.52,1.41A4.4,4.4,0,0,1,219,94.87Zm2.09-11.4a2.28,2.28,0,0,1-1-.2c-.29-.14-.54-.27-.74-.39a4.11,4.11,0,0,0-.61-.32,1.31,1.31,0,0,0-.47-.09,1.38,1.38,0,0,0-.62.15,1.78,1.78,0,0,0-.57.48.73.73,0,0,1-.41.3.64.64,0,0,1-.49-.05.52.52,0,0,1-.28-.39.63.63,0,0,1,.12-.49,3.16,3.16,0,0,1,1-.89,2.6,2.6,0,0,1,1.24-.32,2.25,2.25,0,0,1,1,.2,6.9,6.9,0,0,1,.69.38c.24.14.44.25.59.32a1.19,1.19,0,0,0,.51.11,1.28,1.28,0,0,0,.5-.09,1,1,0,0,0,.38-.27,1.16,1.16,0,0,1,.41-.28.51.51,0,0,1,.44.06.53.53,0,0,1,.3.4.57.57,0,0,1-.12.5A2.31,2.31,0,0,1,221.13,83.47ZM223,94.76a.66.66,0,0,1-.5-.19.71.71,0,0,1-.18-.51V85.6a.71.71,0,0,1,.18-.5.7.7,0,0,1,.5-.19.72.72,0,0,1,.5.19.65.65,0,0,1,.2.5v8.46a.64.64,0,0,1-.2.51A.68.68,0,0,1,223,94.76Zm0-8.57V84.91h.79a.69.69,0,0,0,.55-.27,1.09,1.09,0,0,0,.23-.72v-.37a.68.68,0,0,1,.17-.49.58.58,0,0,1,.46-.2.53.53,0,0,1,.48.24.92.92,0,0,1,.17.55v.27a2.49,2.49,0,0,1-.27,1.17,2.2,2.2,0,0,1-.73.81,2,2,0,0,1-1.06.29Z" fill="#fff"/><path d="M231.28,94.85a4.75,4.75,0,0,1-2.49-.66,4.65,4.65,0,0,1-1.73-1.79,5.39,5.39,0,0,1,0-5.13,4.8,4.8,0,0,1,1.79-1.79,5,5,0,0,1,6.88,1.79,5.27,5.27,0,0,1,.68,2.58l-.56.43a4.48,4.48,0,0,1-2.24,4A4.62,4.62,0,0,1,231.28,94.85Zm.14-1.26a3.5,3.5,0,0,0,3.16-1.83,4.08,4.08,0,0,0,0-3.84,3.69,3.69,0,0,0-1.29-1.34,3.71,3.71,0,0,0-3.72,0,3.77,3.77,0,0,0-1.32,1.34,4.08,4.08,0,0,0,0,3.84,3.61,3.61,0,0,0,1.32,1.34A3.53,3.53,0,0,0,231.42,93.59Zm4.3,1.17a.68.68,0,0,1-.5-.19.65.65,0,0,1-.2-.49V91l.34-1.42,1.07.27v4.23a.65.65,0,0,1-.2.49A.69.69,0,0,1,235.72,94.76Z" fill="#fff"/><path d="M248.74,94.85a4.75,4.75,0,0,1-2.49-.66,4.65,4.65,0,0,1-1.73-1.79,5.39,5.39,0,0,1,0-5.13,4.8,4.8,0,0,1,1.79-1.79,5,5,0,0,1,6.88,1.79,5.27,5.27,0,0,1,.68,2.58l-.56.43a4.48,4.48,0,0,1-2.24,4A4.62,4.62,0,0,1,248.74,94.85Zm.14-1.26A3.5,3.5,0,0,0,252,91.76a4.08,4.08,0,0,0,0-3.84,3.69,3.69,0,0,0-1.29-1.34,3.71,3.71,0,0,0-3.72,0,3.77,3.77,0,0,0-1.32,1.34,4.08,4.08,0,0,0,0,3.84A3.61,3.61,0,0,0,247,93.1,3.53,3.53,0,0,0,248.88,93.59Zm0-10.19a3.39,3.39,0,0,1-1.39-.28,2.65,2.65,0,0,1-1-.74,1.69,1.69,0,0,1-.38-1.07.71.71,0,0,1,.19-.5.68.68,0,0,1,1,0,.63.63,0,0,1,.2.47.82.82,0,0,0,.41.7,2.08,2.08,0,0,0,2.12,0,.83.83,0,0,0,.4-.7.63.63,0,0,1,.2-.47.68.68,0,0,1,.48-.18.6.6,0,0,1,.48.21.69.69,0,0,1,.19.5,1.74,1.74,0,0,1-.41,1.1,2.6,2.6,0,0,1-1,.74A3.48,3.48,0,0,1,248.86,83.4Zm4.32,11.36a.68.68,0,0,1-.5-.19.65.65,0,0,1-.2-.49V91l.34-1.42,1.07.27v4.23a.65.65,0,0,1-.2.49A.69.69,0,0,1,253.18,94.76Z" fill="#fff"/><path d="M257.29,94.76a.69.69,0,0,1-.52-.19.67.67,0,0,1-.18-.49V85.62a.64.64,0,0,1,.7-.71.68.68,0,0,1,.49.19.69.69,0,0,1,.19.52v8.46a.65.65,0,0,1-.68.68Zm7.74,0a.71.71,0,0,1-.51-.2.65.65,0,0,1-.19-.48V89.4a3.6,3.6,0,0,0-.43-1.84,2.66,2.66,0,0,0-1.15-1.08,3.67,3.67,0,0,0-1.65-.36,3.6,3.6,0,0,0-1.59.34,2.8,2.8,0,0,0-1.12.94,2.26,2.26,0,0,0-.42,1.35h-1a4,4,0,0,1,.61-2,4.2,4.2,0,0,1,1.53-1.4,4.47,4.47,0,0,1,2.13-.51,4.74,4.74,0,0,1,2.28.53,3.85,3.85,0,0,1,1.6,1.55,5,5,0,0,1,.58,2.51v4.68a.62.62,0,0,1-.2.48A.66.66,0,0,1,265,94.76Z" fill="#fff"/></g></g></svg>