<svg xmlns="http://www.w3.org/2000/svg" viewBox="0 0 308.84 144.82"><title>img_21</title><g id="Layer_2" data-name="Layer 2"><g id="bubble_talk" data-name="bubble talk"><path d="M188.44,139.55c-115.69,0-159.81-3.07-176.92-20.34C1.48,109.08.84,93.81,1,73.35c.3-31.95,8.51-49,28.35-59C48.65,4.76,80.09,1,141.53,1h5.75c75.81.25,116.18,1.49,133.49,25.37,12.71,17.55,12.34,45,12.17,49.69,2.4,1.34,10.93,7.23,14.88,24.53a1,1,0,0,1-.3,1,1,1,0,0,1-1,.23,28.8,28.8,0,0,1-4.66-2.46c-4-2.34-10-5.88-14.11-5.88a4.13,4.13,0,0,0-3.29,1.29c-3.06,9.9-8,21.17-21.37,29.9-15.31,10-38.66,14.9-71.38,14.92Z" fill="#8782e3"/><path d="M141.53,2h5.75C220.92,2.25,262.65,3.09,280,27c13.59,18.75,12,49.69,12,49.69s10.46,4.61,14.92,24.16c-2.81-.84-12.62-8.38-19.06-8.38a5.06,5.06,0,0,0-4.18,1.8c-6.08,19.78-19.37,44.27-91.86,44.31h-3.3C8,138.55,1.49,131.29,2,73.36,2.57,13.65,29.1,2,141.53,2m0-2h0C79.93,0,48.36,3.79,28.93,13.5,18.32,18.8,11,26.22,6.42,36.19,2.2,45.45.17,57.26,0,73.34c-.19,20.71.48,36.17,10.79,46.57,8.93,9,24.66,14.11,52.59,17,28.83,3,70.84,3.62,125,3.62h3.3c32.92,0,56.45-5,71.93-15.08,13.51-8.84,18.59-20.2,21.71-30.23a3.24,3.24,0,0,1,2.4-.8c3.86,0,9.72,3.45,13.6,5.74a27.71,27.71,0,0,0,4.89,2.56,2.24,2.24,0,0,0,.57.08,2,2,0,0,0,1.37-.54,2,2,0,0,0,.58-1.9C305,83.85,297,77.43,294,75.51c.16-6.12.06-32.55-12.38-49.71C264,1.52,223.43.26,147.29,0Z"/><path d="M172.08,143.82c-3.68,0-7.55,0-11.51-.07-63.23-.76-101.4-1.22-123.41-8.89C13.8,126.72,9.37,110.48,9.37,83.34c0-17.25,1.63-29,5.3-38.15,4-10,10.64-17.06,20.8-22.08C56,13,91.4,11,149.47,11h4.21c39.84.07,66.55,1.5,86.6,4.66,23.87,3.75,38.67,10.24,45.23,19.81,9.79,14.28,6.71,44.88,6,50.74,2.68.66,10.21,3.37,16.18,14a1,1,0,0,1-.87,1.49,1,1,0,0,1-.29,0c-.59-.18-1.34-.47-2.2-.8-2.56-1-6.43-2.47-9.89-2.47a7.18,7.18,0,0,0-5.87,2.43C281,133,251.54,143.82,172.08,143.82Z" fill="#eba21e"/><path d="M149.47,12h4.2c69.4.11,117.45,4.26,131,24,10.53,15.35,5.73,51,5.73,51s9.35,1.11,16.42,13.65c-2.31-.7-7.59-3.31-12.38-3.31a8.17,8.17,0,0,0-6.79,3c-7.13,30.69-33.43,42.47-115.58,42.47-3.73,0-7.56,0-11.51-.07-128-1.54-150.21-2.21-150.21-59.41C10.37,20.22,32.11,12,149.47,12m.08-2h-.08C91.25,10,55.76,12,35,22.22,12.83,33.19,8.37,53.74,8.37,83.34c0,15.75,1.75,26.27,5.69,34.1,4.34,8.63,11.57,14.46,22.77,18.37C59,143.53,97.22,144,160.56,144.75c4,.05,7.84.07,11.53.07,42.08,0,68.81-3,86.64-9.86,17.26-6.6,26.77-17,30.77-33.69a6.35,6.35,0,0,1,5-1.9c3.27,0,7,1.44,9.53,2.4.88.34,1.64.64,2.27.83a2.32,2.32,0,0,0,.58.08,2,2,0,0,0,1.56-.75,2,2,0,0,0,.18-2.23c-5.59-9.92-12.6-13.17-16-14.2.84-7.58,3.3-36.6-6.28-50.57-6.83-10-21.41-16.39-45.91-20.24-20.1-3.17-46.86-4.6-86.75-4.67Z"/><path d="M46.77,76.35H37.29a1.15,1.15,0,0,1-.83-.26,1.12,1.12,0,0,1-.25-.82V71.76a.92.92,0,0,1,1.08-1.08h8.07a.68.68,0,0,0,.58-.26,1,1,0,0,0,.2-.61,1.18,1.18,0,0,0-.2-.75.78.78,0,0,0-.58-.27l-4.5-.63a6.55,6.55,0,0,1-3.38-1.38,4.48,4.48,0,0,1-1.27-3.6V60a4.8,4.8,0,0,1,1.65-3.92,7,7,0,0,1,4.56-1.36h8.4a1.12,1.12,0,0,1,.82.25,1.15,1.15,0,0,1,.26.83V59.4a.93.93,0,0,1-1.08,1.08h-7a.73.73,0,0,0-.6.25,1,1,0,0,0-.21.65,1,1,0,0,0,.21.66.8.8,0,0,0,.6.3l4.47.6a6.62,6.62,0,0,1,3.39,1.38A4.46,4.46,0,0,1,53,67.92v3.15A4.77,4.77,0,0,1,51.31,75,7,7,0,0,1,46.77,76.35Z" fill="#fff"/><path d="M62.37,75.27a.93.93,0,0,1-1.08,1.08H56.88a1.15,1.15,0,0,1-.83-.26,1.12,1.12,0,0,1-.25-.82V67.35a8.84,8.84,0,0,1,.28-2.07A23,23,0,0,1,57,62.55l2.61-6.81a1.4,1.4,0,0,1,.55-.75,1.8,1.8,0,0,1,1-.24h8.07a1.7,1.7,0,0,1,.94.24,1.41,1.41,0,0,1,.56.75l2.61,6.81a22.7,22.7,0,0,1,.88,2.73,8.91,8.91,0,0,1,.29,2.07v7.92a.93.93,0,0,1-1.08,1.08H68.85a1.31,1.31,0,0,1-.89-.26,1,1,0,0,1-.28-.82v-4.2H62.37Zm1.71-14.22-1.41,4.56h4.71L66,61.05a1.14,1.14,0,0,0-.26-.39.45.45,0,0,0-.31-.12h-.75a.47.47,0,0,0-.32.12A1.14,1.14,0,0,0,64.08,61.05Z" fill="#fff"/><path d="M90.63,76.35h-7.8a1.94,1.94,0,0,1-1-.21,1.39,1.39,0,0,1-.58-.78L78.36,68c-.18-.44-.33-.83-.45-1.16s-.22-.64-.3-.94a5.71,5.71,0,0,1-.17-1c0-.33,0-.73,0-1.21V55.83a.92.92,0,0,1,1.08-1.08h4.77a1.31,1.31,0,0,1,.87.25,1,1,0,0,1,.3.83v8.28a3.05,3.05,0,0,0,.06.6,4.34,4.34,0,0,0,.18.63l1.41,4.2a.86.86,0,0,0,.21.4.53.53,0,0,0,.36.11H87a.53.53,0,0,0,.36-.11.86.86,0,0,0,.21-.4L89,65.31a4.34,4.34,0,0,0,.18-.63,3.05,3.05,0,0,0,.06-.6V55.83a.92.92,0,0,1,1.08-1.08H95a1.12,1.12,0,0,1,.82.25,1.15,1.15,0,0,1,.26.83v7.92c0,.48,0,.88,0,1.21a5.71,5.71,0,0,1-.16,1c-.08.3-.18.61-.3.94s-.27.72-.45,1.16l-2.94,7.35a1.4,1.4,0,0,1-.59.78A1.9,1.9,0,0,1,90.63,76.35Z" fill="#fff"/><path d="M114.75,76.35H100.83a1.15,1.15,0,0,1-.83-.26,1.12,1.12,0,0,1-.25-.82V55.83a.92.92,0,0,1,1.08-1.08h13.92a1.12,1.12,0,0,1,.82.25,1.15,1.15,0,0,1,.26.83v3.51a.93.93,0,0,1-1.08,1.08h-8.28v2.31h5.85a1.12,1.12,0,0,1,.82.25,1.15,1.15,0,0,1,.26.83V67a.93.93,0,0,1-1.08,1.08h-5.85v2.58h8.28a1.12,1.12,0,0,1,.82.25,1.15,1.15,0,0,1,.26.83v3.51a.93.93,0,0,1-1.08,1.08Z" fill="#fff"/><path d="M137.61,76.35H127.5a1.15,1.15,0,0,1-.83-.26,1.12,1.12,0,0,1-.25-.82V68.4h-.69a1.15,1.15,0,0,1-.83-.26,1.12,1.12,0,0,1-.25-.82V64.11A.92.92,0,0,1,125.73,63h.69v-7.2a.92.92,0,0,1,1.08-1.08h10.11q4.23,0,5.8,1.71A6.26,6.26,0,0,1,145,60.87v9.36a6.26,6.26,0,0,1-1.58,4.41Q141.84,76.35,137.61,76.35Zm-4.47-5.67h3.66c.6,0,1-.15,1.15-.44a2,2,0,0,0,.26-1V61.92a2,2,0,0,0-.26-1c-.17-.29-.55-.43-1.15-.43h-3.66V63h1.23a1.12,1.12,0,0,1,.82.25,1.15,1.15,0,0,1,.26.83v3.21a.93.93,0,0,1-1.08,1.08h-1.23Z" fill="#fff"/><path d="M163.8,76.35H149.88a1.15,1.15,0,0,1-.83-.26,1.12,1.12,0,0,1-.25-.82V55.83a.92.92,0,0,1,1.08-1.08H163.8a1.12,1.12,0,0,1,.82.25,1.15,1.15,0,0,1,.26.83v3.51a.93.93,0,0,1-1.08,1.08h-8.28v2.31h5.85a1.12,1.12,0,0,1,.82.25,1.15,1.15,0,0,1,.26.83V67a.93.93,0,0,1-1.08,1.08h-5.85v2.58h8.28a1.12,1.12,0,0,1,.82.25,1.15,1.15,0,0,1,.26.83v3.51a.93.93,0,0,1-1.08,1.08Zm-7.92-23.91-4.11,1.2q-.75.24-1,.06t-.24-1V50.28a1.5,1.5,0,0,1,.25-1.05,3.53,3.53,0,0,1,1-.54l3.84-1.38a2.62,2.62,0,0,1,.58-.18l.59-.09a4.12,4.12,0,0,1,.51,0,1.66,1.66,0,0,1,.45.12l4.11,1.5a3.42,3.42,0,0,1,1,.54,1.5,1.5,0,0,1,.26,1.05v2.43q0,.81-.24,1t-1-.06l-4.11-1.2a3.66,3.66,0,0,0-1.86,0Zm7.41-12.15a.7.7,0,0,1,.75.18,1.17,1.17,0,0,1,.27.81v3.18a.88.88,0,0,1-.27.76,2.23,2.23,0,0,1-.81.32l-4.11,1a.7.7,0,0,1-.75-.18,1.17,1.17,0,0,1-.27-.81V42.36a.91.91,0,0,1,.27-.77,2.24,2.24,0,0,1,.81-.31Z" fill="#fff"/><path d="M174,76.35h-4.5a1.15,1.15,0,0,1-.83-.26,1.12,1.12,0,0,1-.25-.82V55.83a.92.92,0,0,1,1.08-1.08h3.12a2.09,2.09,0,0,1,1.77.81l5.82,6.66V55.83a.92.92,0,0,1,1.08-1.08h4.5a1.12,1.12,0,0,1,.82.25,1.15,1.15,0,0,1,.26.83V75.27a.93.93,0,0,1-1.08,1.08h-4.5a1.15,1.15,0,0,1-.83-.26,1.12,1.12,0,0,1-.25-.82V71.58l-5.13-6.21v9.9A.93.93,0,0,1,174,76.35Z" fill="#fff"/><path d="M208,76.35h-9.54a1.15,1.15,0,0,1-.83-.26,1.12,1.12,0,0,1-.25-.82V71.76a.92.92,0,0,1,1.08-1.08h7.74a1,1,0,0,0,.58-.17A.6.6,0,0,0,207,70V68.82a.62.62,0,0,0-.23-.53,1,1,0,0,0-.58-.16h-7.44a1.15,1.15,0,0,1-.83-.26,1.12,1.12,0,0,1-.25-.82V55.83a.92.92,0,0,1,1.08-1.08h12.93a1.12,1.12,0,0,1,.82.25,1.15,1.15,0,0,1,.26.83V59.4a.93.93,0,0,1-1.08,1.08h-7.2v2h4.11a5.73,5.73,0,0,1,3.84,1.2,4.43,4.43,0,0,1,1.41,3.57v4.17A4.54,4.54,0,0,1,212.23,75,6.34,6.34,0,0,1,208,76.35Z" fill="#fff"/><path d="M235.17,70.68a7.58,7.58,0,0,1-.39,2.5,4.12,4.12,0,0,1-1.41,1.92,7.57,7.57,0,0,1-2.81,1.25,23.18,23.18,0,0,1-9.09,0,7.52,7.52,0,0,1-2.8-1.25,4.24,4.24,0,0,1-1.43-1.92,7.33,7.33,0,0,1-.4-2.5V60.45a7.38,7.38,0,0,1,.4-2.51A4.32,4.32,0,0,1,218.67,56a7.36,7.36,0,0,1,2.8-1.26,23.18,23.18,0,0,1,9.09,0A7.41,7.41,0,0,1,233.37,56a4.2,4.2,0,0,1,1.41,1.93,7.64,7.64,0,0,1,.39,2.51ZM223.62,69.6a1.3,1.3,0,0,0,.43,1,3.16,3.16,0,0,0,2,.41,3.12,3.12,0,0,0,2-.41,1.31,1.31,0,0,0,.44-1V61.53a1.3,1.3,0,0,0-.44-1,3.14,3.14,0,0,0-2-.4,3.17,3.17,0,0,0-2,.4,1.29,1.29,0,0,0-.43,1Z" fill="#fff"/><path d="M248.85,63.87a4.54,4.54,0,0,1-.23,1.45,2.36,2.36,0,0,1-.82,1.14,4.38,4.38,0,0,1-1.64.72,11.16,11.16,0,0,1-2.62.26q-3.21,0-4.29-1a3.34,3.34,0,0,1-1.08-2.58v-5.7a3.34,3.34,0,0,1,1.08-2.58q1.08-1,4.29-1a11.22,11.22,0,0,1,2.62.25,4.38,4.38,0,0,1,1.64.72,2.36,2.36,0,0,1,.82,1.14,4.61,4.61,0,0,1,.23,1.46Zm-6.33-.93a.49.49,0,0,0,.18.37,1.37,1.37,0,0,0,.84.17,1.3,1.3,0,0,0,.81-.17.49.49,0,0,0,.18-.37V59.1a.48.48,0,0,0-.18-.35,1.32,1.32,0,0,0-.81-.16,1.39,1.39,0,0,0-.84.16.48.48,0,0,0-.18.35Zm4.95,12.33,4.8-19.44a1.62,1.62,0,0,1,.39-.81,1.15,1.15,0,0,1,.84-.27h3.15a1,1,0,0,1,.81.27.88.88,0,0,1,.12.81l-4.8,19.44a1.62,1.62,0,0,1-.39.81,1.15,1.15,0,0,1-.84.27H248.4a1,1,0,0,1-.81-.27A.88.88,0,0,1,247.47,75.27ZM266.79,73a4.54,4.54,0,0,1-.23,1.45,2.36,2.36,0,0,1-.82,1.14,4.38,4.38,0,0,1-1.64.72,11.16,11.16,0,0,1-2.62.26q-3.21,0-4.29-1A3.34,3.34,0,0,1,256.11,73v-5.7a3.34,3.34,0,0,1,1.08-2.58q1.08-1,4.29-1a11.22,11.22,0,0,1,2.62.25,4.38,4.38,0,0,1,1.64.72,2.36,2.36,0,0,1,.82,1.14,4.61,4.61,0,0,1,.23,1.46ZM260.46,72a.49.49,0,0,0,.18.37,1.37,1.37,0,0,0,.84.17,1.3,1.3,0,0,0,.81-.17.49.49,0,0,0,.18-.37V68.19a.48.48,0,0,0-.18-.35,1.32,1.32,0,0,0-.81-.16,1.39,1.39,0,0,0-.84.16.48.48,0,0,0-.18.35Z" fill="#fff"/><path d="M60.37,100.35a.69.69,0,0,1-.51-.19.66.66,0,0,1-.19-.5V91.2a.67.67,0,0,1,.19-.51.66.66,0,0,1,.51-.19.64.64,0,0,1,.49.19.67.67,0,0,1,.19.51v8.46a.66.66,0,0,1-.19.5A.68.68,0,0,1,60.37,100.35Zm7.74,0a.71.71,0,0,1-.51-.2.67.67,0,0,1-.19-.49V95A3.59,3.59,0,0,0,67,93.15a2.66,2.66,0,0,0-1.15-1.08,3.92,3.92,0,0,0-3.24,0,2.86,2.86,0,0,0-1.12.93,2.3,2.3,0,0,0-.42,1.35h-1a4,4,0,0,1,.61-2A4.23,4.23,0,0,1,62.2,90.9a4.47,4.47,0,0,1,2.13-.51,4.85,4.85,0,0,1,2.28.53,3.94,3.94,0,0,1,1.6,1.56,5,5,0,0,1,.58,2.5v4.68a.64.64,0,0,1-.2.49A.66.66,0,0,1,68.11,100.35Z" fill="#fff"/><path d="M76.19,100.44a4.72,4.72,0,0,1-2.48-.66A4.82,4.82,0,0,1,72,98a5.09,5.09,0,0,1-.64-2.56A5,5,0,0,1,72,92.86a4.66,4.66,0,0,1,1.79-1.79,5.26,5.26,0,0,1,5.1,0,4.71,4.71,0,0,1,1.78,1.79,5.1,5.1,0,0,1,.68,2.57l-.56.43a4.48,4.48,0,0,1-2.24,4A4.6,4.6,0,0,1,76.19,100.44Zm.14-1.26a3.65,3.65,0,0,0,1.87-.49,3.54,3.54,0,0,0,1.29-1.34A3.85,3.85,0,0,0,80,95.43a3.8,3.8,0,0,0-.48-1.92,3.64,3.64,0,0,0-1.29-1.35,3.78,3.78,0,0,0-3.72,0,3.61,3.61,0,0,0-1.31,1.35,3.71,3.71,0,0,0-.49,1.92,3.76,3.76,0,0,0,.49,1.92,3.51,3.51,0,0,0,1.31,1.34A3.63,3.63,0,0,0,76.33,99.18Zm0-10.19a3.57,3.57,0,0,1-1.4-.28,2.66,2.66,0,0,1-1-.75,1.6,1.6,0,0,1-.39-1.06.68.68,0,0,1,.2-.5.61.61,0,0,1,.48-.22.67.67,0,0,1,.47.18.62.62,0,0,1,.2.47.85.85,0,0,0,.41.7,2.1,2.1,0,0,0,2.13,0,.85.85,0,0,0,.39-.7.62.62,0,0,1,.2-.47.69.69,0,0,1,.49-.18.59.59,0,0,1,.47.21.67.67,0,0,1,.19.49A1.78,1.78,0,0,1,78.73,88a2.7,2.7,0,0,1-1,.74A3.65,3.65,0,0,1,76.32,89Zm4.32,11.36a.73.73,0,0,1-.51-.19.67.67,0,0,1-.2-.5V96.58l.35-1.42,1.06.27v4.23a.67.67,0,0,1-.2.5A.72.72,0,0,1,80.64,100.35Z" fill="#fff"/><path d="M84.74,100.35a.69.69,0,0,1-.51-.19.66.66,0,0,1-.19-.5V91.2a.67.67,0,0,1,.19-.51.66.66,0,0,1,.51-.19.68.68,0,0,1,.5.19.71.71,0,0,1,.18.51v8.46a.7.7,0,0,1-.18.5A.72.72,0,0,1,84.74,100.35Zm7.74,0a.69.69,0,0,1-.5-.2.64.64,0,0,1-.2-.49V95a3.49,3.49,0,0,0-.43-1.83,2.66,2.66,0,0,0-1.15-1.08,3.92,3.92,0,0,0-3.24,0,2.86,2.86,0,0,0-1.12.93,2.3,2.3,0,0,0-.42,1.35h-1a3.88,3.88,0,0,1,.62-2,4.08,4.08,0,0,1,1.53-1.41,4.4,4.4,0,0,1,2.12-.51,4.92,4.92,0,0,1,2.29.53,4,4,0,0,1,1.59,1.56,5,5,0,0,1,.58,2.5v4.68a.67.67,0,0,1-.19.49A.7.7,0,0,1,92.48,100.35Z" fill="#fff"/><path d="M100.56,100.44A5,5,0,0,1,98,99.8,4.6,4.6,0,0,1,96.32,98a5.33,5.33,0,0,1-.62-2.59,5.21,5.21,0,0,1,.65-2.61,4.66,4.66,0,0,1,1.78-1.77,5.52,5.52,0,0,1,5.16,0,4.54,4.54,0,0,1,1.76,1.77,5.32,5.32,0,0,1,.66,2.61l-.81.43a4.94,4.94,0,0,1-.56,2.37,4.07,4.07,0,0,1-1.54,1.62A4.28,4.28,0,0,1,100.56,100.44Zm.18,3.79a5.51,5.51,0,0,1-2.5-.53,4.85,4.85,0,0,1-1.78-1.45.56.56,0,0,1,.09-.88.68.68,0,0,1,.52-.11.75.75,0,0,1,.45.27,3.8,3.8,0,0,0,1.34,1,4.39,4.39,0,0,0,1.9.39,3.51,3.51,0,0,0,1.82-.48,3.46,3.46,0,0,0,1.28-1.37,4.28,4.28,0,0,0,.48-2.07V96.31l.52-1,.85.16V99.1a5.27,5.27,0,0,1-.65,2.62,4.77,4.77,0,0,1-4.32,2.51Zm0-5a3.68,3.68,0,0,0,1.88-.48,3.45,3.45,0,0,0,1.28-1.32,4.28,4.28,0,0,0,0-3.9,3.35,3.35,0,0,0-1.28-1.33,3.94,3.94,0,0,0-3.77,0,3.27,3.27,0,0,0-1.3,1.33,4.28,4.28,0,0,0,0,3.9,3.37,3.37,0,0,0,1.3,1.32A3.69,3.69,0,0,0,100.71,99.18Z" fill="#fff"/><path d="M115.81,100.35a2.24,2.24,0,0,1-1.29-.4,2.55,2.55,0,0,1-.88-1.1,3.93,3.93,0,0,1-.32-1.62V87a.68.68,0,0,1,.19-.49.66.66,0,0,1,.5-.19.65.65,0,0,1,.68.68V97.23a2.26,2.26,0,0,0,.32,1.26.91.91,0,0,0,.8.49h.45a.53.53,0,0,1,.43.19.71.71,0,0,1,.16.49.62.62,0,0,1-.22.5.93.93,0,0,1-.59.19Z" fill="#fff"/><path d="M123,100.45a4.74,4.74,0,0,1-2.28-.53,3.85,3.85,0,0,1-1.6-1.55,5,5,0,0,1-.58-2.51V91.18a.68.68,0,0,1,.68-.68.69.69,0,0,1,.51.2.66.66,0,0,1,.2.48v4.68a3.61,3.61,0,0,0,.42,1.84,2.66,2.66,0,0,0,1.15,1.08,3.67,3.67,0,0,0,1.65.36,3.57,3.57,0,0,0,1.59-.34,2.9,2.9,0,0,0,1.13-.94,2.32,2.32,0,0,0,.41-1.35h1a4,4,0,0,1-2.14,3.43A4.47,4.47,0,0,1,123,100.45Zm4-.1a.68.68,0,0,1-.49-.19.69.69,0,0,1-.19-.52V91.18a.65.65,0,0,1,.68-.68.7.7,0,0,1,.51.19.64.64,0,0,1,.19.49v8.46a.69.69,0,0,1-.19.52A.75.75,0,0,1,127,100.35Zm0-8.57V90.5h.79a.7.7,0,0,0,.55-.27,1.09,1.09,0,0,0,.22-.72v-.38a.72.72,0,0,1,.17-.48.63.63,0,0,1,.95,0,1,1,0,0,1,.16.56v.27a2.45,2.45,0,0,1-.27,1.16,2.12,2.12,0,0,1-.73.81,1.89,1.89,0,0,1-1.05.3Z" fill="#fff"/><path d="M135.43,100.44a5.15,5.15,0,0,1-2.58-.65A4.75,4.75,0,0,1,131.07,98a5.47,5.47,0,0,1,0-5.17,4.68,4.68,0,0,1,1.78-1.78,5.15,5.15,0,0,1,2.58-.65,5,5,0,0,1,2.56.65,4.66,4.66,0,0,1,1.77,1.78,5.17,5.17,0,0,1,.67,2.59,5.05,5.05,0,0,1-.66,2.58A4.75,4.75,0,0,1,138,99.79,5,5,0,0,1,135.43,100.44Zm0-1.26a3.67,3.67,0,0,0,1.87-.49,3.44,3.44,0,0,0,1.29-1.33,4.2,4.2,0,0,0,0-3.86,3.4,3.4,0,0,0-1.29-1.34,3.81,3.81,0,0,0-3.74,0,3.44,3.44,0,0,0-1.31,1.34,4.12,4.12,0,0,0,0,3.86,3.49,3.49,0,0,0,1.31,1.33A3.65,3.65,0,0,0,135.43,99.18Zm0,4.93a.94.94,0,0,1-.68-.29.93.93,0,0,1-.29-.7.91.91,0,0,1,.29-.71,1,1,0,0,1,.7-.26,1,1,0,0,1,.67.26.89.89,0,0,1,.3.71,1,1,0,0,1-1,1Zm2.25-11.92V90.91h.79a.69.69,0,0,0,.55-.27,1.09,1.09,0,0,0,.23-.72v-.37a.68.68,0,0,1,.17-.49.57.57,0,0,1,.46-.2.55.55,0,0,1,.48.24.92.92,0,0,1,.16.55v.27a2.42,2.42,0,0,1-.27,1.16,2,2,0,0,1-.73.81,1.85,1.85,0,0,1-1.05.3Z" fill="#fff"/><path d="M143.83,100.35a.73.73,0,0,1-.51-.19.66.66,0,0,1-.19-.5V91.2a.67.67,0,0,1,.19-.51.69.69,0,0,1,.51-.19.66.66,0,0,1,.5.19.71.71,0,0,1,.19.51v8.46a.65.65,0,0,1-.69.69Zm7.74,0a.68.68,0,0,1-.7-.69V95a3.59,3.59,0,0,0-.42-1.83,2.72,2.72,0,0,0-1.15-1.08,3.7,3.7,0,0,0-1.65-.36,3.57,3.57,0,0,0-1.59.34,2.89,2.89,0,0,0-1.13.93,2.36,2.36,0,0,0-.41,1.35h-1a3.78,3.78,0,0,1,.61-2,4.08,4.08,0,0,1,1.53-1.41,4.4,4.4,0,0,1,2.12-.51,4.89,4.89,0,0,1,2.29.53,4,4,0,0,1,1.59,1.56,5,5,0,0,1,.59,2.5v4.68a.68.68,0,0,1-.69.69Z" fill="#fff"/><path d="M159.66,100.44a5,5,0,0,1-2.53-.64A4.51,4.51,0,0,1,155.42,98a5.6,5.6,0,0,1,0-5.2,4.66,4.66,0,0,1,1.78-1.77,5.14,5.14,0,0,1,2.58-.64,5.09,5.09,0,0,1,2.58.64,4.63,4.63,0,0,1,1.77,1.77,5.43,5.43,0,0,1,.65,2.61l-.81.43a4.83,4.83,0,0,1-.56,2.37,4.12,4.12,0,0,1-1.53,1.62A4.33,4.33,0,0,1,159.66,100.44Zm.17,3.79a5.54,5.54,0,0,1-2.5-.53,4.85,4.85,0,0,1-1.78-1.45.56.56,0,0,1,.09-.88.68.68,0,0,1,.52-.11.75.75,0,0,1,.45.27,3.89,3.89,0,0,0,1.34,1,4.39,4.39,0,0,0,1.9.39,3.51,3.51,0,0,0,1.82-.48,3.55,3.55,0,0,0,1.29-1.37,4.27,4.27,0,0,0,.47-2.07V96.31l.53-1,.84.16V99.1a5.27,5.27,0,0,1-.64,2.62,5,5,0,0,1-1.77,1.84A4.84,4.84,0,0,1,159.83,104.23Zm0-5a3.65,3.65,0,0,0,1.88-.48A3.48,3.48,0,0,0,163,97.38a4.36,4.36,0,0,0,0-3.9,3.37,3.37,0,0,0-1.29-1.33,3.65,3.65,0,0,0-1.88-.48,3.69,3.69,0,0,0-1.89.48,3.33,3.33,0,0,0-1.3,1.33,4.28,4.28,0,0,0,0,3.9,3.43,3.43,0,0,0,1.3,1.32A3.69,3.69,0,0,0,159.8,99.18Z" fill="#fff"/><path d="M172.52,100.35a.58.58,0,0,1-.45-.18.6.6,0,0,1-.18-.44.67.67,0,0,1,.18-.48l3.32-4.14.77,1-3.15,4A.59.59,0,0,1,172.52,100.35Zm7.13,0a.72.72,0,0,1-.35-.08A.88.88,0,0,1,179,100l-3.11-4-.54-.47-3.13-4a.67.67,0,0,1-.19-.49.64.64,0,0,1,.17-.44.57.57,0,0,1,.47-.19.7.7,0,0,1,.52.22l3,3.87.49.39,3.35,4.29a.69.69,0,0,1,.19.54.57.57,0,0,1-.22.39A.64.64,0,0,1,179.65,100.35Zm-2.91-4.68-.89-.9,3.12-4a.73.73,0,0,1,.28-.25.67.67,0,0,1,.31-.07.57.57,0,0,1,.47.19.59.59,0,0,1,.15.45.79.79,0,0,1-.19.49Z" fill="#fff"/><path d="M186.92,100.45a4.74,4.74,0,0,1-2.28-.53,3.91,3.91,0,0,1-1.6-1.55,5.12,5.12,0,0,1-.58-2.51V91.18a.68.68,0,0,1,.68-.68.69.69,0,0,1,.51.2.66.66,0,0,1,.2.48v4.68a3.61,3.61,0,0,0,.42,1.84,2.72,2.72,0,0,0,1.15,1.08,3.7,3.7,0,0,0,1.65.36,3.57,3.57,0,0,0,1.59-.34,2.83,2.83,0,0,0,1.13-.94,2.32,2.32,0,0,0,.41-1.35h1a4,4,0,0,1-2.14,3.43A4.47,4.47,0,0,1,186.92,100.45Zm.18-10.87a.58.58,0,0,1-.45-.19.6.6,0,0,1-.19-.46v-.5a.65.65,0,0,1,.57-.7l.45-.09a1.18,1.18,0,0,0,.56-.28.72.72,0,0,0,.18-.51.78.78,0,0,0-.26-.62,1.12,1.12,0,0,0-1.07-.13,1.31,1.31,0,0,0-.36.21,1,1,0,0,1-.21.11.69.69,0,0,1-.24,0,.57.57,0,0,1-.41-.16.54.54,0,0,1-.17-.42.58.58,0,0,1,.22-.48,2.82,2.82,0,0,1,.73-.42,2.52,2.52,0,0,1,.85-.14,2.19,2.19,0,0,1,1.51.53,1.75,1.75,0,0,1,.6,1.38,1.5,1.5,0,0,1-.54,1.26,2.68,2.68,0,0,1-1.28.54l.14.23a.8.8,0,0,1-.19.58A.56.56,0,0,1,187.1,89.58Zm3.78,10.77a.65.65,0,0,1-.68-.71V91.18a.64.64,0,0,1,.19-.49.66.66,0,0,1,.49-.19.69.69,0,0,1,.51.19.65.65,0,0,1,.2.49v8.46a.7.7,0,0,1-.2.52A.73.73,0,0,1,190.88,100.35Zm0-8.57V90.5h.79a.7.7,0,0,0,.55-.27,1.09,1.09,0,0,0,.22-.72v-.38a.72.72,0,0,1,.17-.48.63.63,0,0,1,1,0,1,1,0,0,1,.16.56v.27a2.45,2.45,0,0,1-.27,1.16,2.12,2.12,0,0,1-.73.81,1.87,1.87,0,0,1-1.05.3Z" fill="#fff"/><path d="M202.22,100.35a2.21,2.21,0,0,1-1.28-.4,2.57,2.57,0,0,1-.89-1.1,3.94,3.94,0,0,1-.31-1.62V87a.65.65,0,0,1,.68-.68.66.66,0,0,1,.5.19.68.68,0,0,1,.19.49V97.23a2.26,2.26,0,0,0,.31,1.26.93.93,0,0,0,.8.49h.45a.55.55,0,0,1,.44.19.76.76,0,0,1,.16.49.63.63,0,0,1-.23.5.9.9,0,0,1-.58.19Z" fill="#fff"/><path d="M206,89a.65.65,0,0,1-.49-.21.67.67,0,0,1-.21-.5.65.65,0,0,1,.16-.46l2-2a.66.66,0,0,1,.48-.2.68.68,0,0,1,.51.21.72.72,0,0,1,.19.51.78.78,0,0,1,0,.26.51.51,0,0,1-.15.21l-2,2A.64.64,0,0,1,206,89Zm.15,11.34a.66.66,0,0,1-.71-.71V91.2a.71.71,0,0,1,.19-.51.69.69,0,0,1,.52-.19.66.66,0,0,1,.49.19.67.67,0,0,1,.19.51v8.44a.65.65,0,0,1-.68.71Z" fill="#fff"/><path d="M216.33,100.35a.68.68,0,0,1-.5-.18.69.69,0,0,1-.18-.51V91.18a.62.62,0,0,1,.68-.68.69.69,0,0,1,.51.18.68.68,0,0,1,.18.5v8.48a.63.63,0,0,1-.69.69Zm-.1-6.07a4.2,4.2,0,0,1,.58-2,3.91,3.91,0,0,1,1.39-1.38,3.63,3.63,0,0,1,1.9-.51,2.8,2.8,0,0,1,1.28.24.57.57,0,0,1,.34.68.53.53,0,0,1-.25.36.76.76,0,0,1-.41.07l-.55,0a4,4,0,0,0-1.79.2,2.69,2.69,0,0,0-1.24.91,2.35,2.35,0,0,0-.46,1.46Z" fill="#fff"/><path d="M227.51,100.44a4.72,4.72,0,0,1-2.48-.66A4.9,4.9,0,0,1,223.29,98a5.2,5.2,0,0,1-.64-2.56,5,5,0,0,1,.66-2.57,4.8,4.8,0,0,1,1.79-1.79,5,5,0,0,1,2.56-.66,4.91,4.91,0,0,1,2.54.66A4.8,4.8,0,0,1,232,92.86a5.2,5.2,0,0,1,.67,2.57l-.56.43a4.54,4.54,0,0,1-.6,2.33,4.45,4.45,0,0,1-1.64,1.64A4.6,4.6,0,0,1,227.51,100.44Zm.15-1.26a3.64,3.64,0,0,0,1.86-.49,3.49,3.49,0,0,0,1.3-1.34,4,4,0,0,0,.47-1.92,3.9,3.9,0,0,0-.47-1.92,3.59,3.59,0,0,0-1.3-1.35,3.78,3.78,0,0,0-3.72,0,3.61,3.61,0,0,0-1.31,1.35,3.71,3.71,0,0,0-.49,1.92,3.76,3.76,0,0,0,.49,1.92,3.51,3.51,0,0,0,1.31,1.34A3.66,3.66,0,0,0,227.66,99.18ZM227.53,89a.65.65,0,0,1-.49-.21.67.67,0,0,1-.21-.5.65.65,0,0,1,.16-.46l2-2a.66.66,0,0,1,.48-.2.68.68,0,0,1,.51.21.72.72,0,0,1,.19.51.78.78,0,0,1,0,.26.51.51,0,0,1-.15.21l-2,2A.64.64,0,0,1,227.53,89ZM232,100.35a.75.75,0,0,1-.51-.19.66.66,0,0,1-.19-.5V96.58l.34-1.42,1.06.27v4.23a.67.67,0,0,1-.2.5A.72.72,0,0,1,232,100.35Z" fill="#fff"/><path d="M239.75,100.44a4.87,4.87,0,0,1-2.53-.66A4.82,4.82,0,0,1,235.48,98a5.09,5.09,0,0,1-.64-2.56,5.28,5.28,0,0,1,.61-2.57,4.65,4.65,0,0,1,1.67-1.79,4.56,4.56,0,0,1,2.45-.66,4.74,4.74,0,0,1,2,.43,4.58,4.58,0,0,1,1.63,1.3.48.48,0,0,1,.14.46.76.76,0,0,1-.3.42.56.56,0,0,1-.45.1.73.73,0,0,1-.42-.26,3.36,3.36,0,0,0-2.63-1.19,3.22,3.22,0,0,0-3,1.82,4.29,4.29,0,0,0-.42,1.94,4.07,4.07,0,0,0,.45,1.93,3.36,3.36,0,0,0,1.26,1.33,3.57,3.57,0,0,0,1.85.49A4.37,4.37,0,0,0,241,99a2.78,2.78,0,0,0,1-.59.89.89,0,0,1,.46-.2.61.61,0,0,1,.43.15.72.72,0,0,1,.24.45.48.48,0,0,1-.17.43A4.7,4.7,0,0,1,239.75,100.44Z" fill="#fff"/></g></g></svg>