<svg xmlns="http://www.w3.org/2000/svg" xmlns:xlink="http://www.w3.org/1999/xlink" viewBox="0 0 431.66 470.36"><defs><clipPath id="clip-path"><polygon points="100.12 431.93 211.14 83.75 216.54 83.75 331.53 431.93 312.41 431.93 214.79 108.88 118.14 431.93 100.12 431.93" fill="#ec5c89"/></clipPath><clipPath id="clip-path-2"><path d="M173.9,168.1c9.84,4.3,19.7,9.24,41.92,9.3,24.23.07,33-5.91,37.91-8.12s10.33,4.76,4.39,9.67-21.22,9.83-42.5,10.18c-21.06.35-40.62-7.13-44.5-9.08C162.7,175.8,164.9,164.17,173.9,168.1Z" fill="none"/></clipPath></defs><title>img_11</title><g id="Layer_2" data-name="Layer 2"><g id="banana"><path d="M222.46,71.21c-6.57-.08-25.77-.2-26-.2a1,1,0,0,1-.39-.08c-.15-.07-15-6.69-14.17-23.46a47.48,47.48,0,0,1,7.3-23.27A15.82,15.82,0,0,0,191,20.62l-.16-.69c-1-4.23-2.34-10,1.27-16.68.68-1.25,1.27-2,2.12-2,1.44,0,1.57,1.61,1.79,4.53.27,3.57.69,9,3.53,9.39a56.67,56.67,0,0,0,8.3.66,26.78,26.78,0,0,0,8.64-1.19c3.57-1.25,3.82-6.48,3.41-9.38-.18-1.27-.25-2.94.44-3.74a1.38,1.38,0,0,1,1-.49c1,0,1.88,1,3.11,3.45a28.33,28.33,0,0,1,2.22,15.71c-.16,1.05,1.35,3.54,3,6.19,3.17,5.22,7.52,12.36,8.12,21.1a25.23,25.23,0,0,1-6.32,19c-2.81,3-6.16,4.8-9,4.8Z" fill="#06b791"/><path d="M221.42,2c.44,0,1.16.78,2.21,2.89,2.52,5,2.71,11.44,2.13,15.12s10.12,13.77,11.07,27.51-8.48,22.69-14.3,22.69h-.06c-6.65-.08-26-.2-26-.2s-14.34-6.21-13.57-22.49,8.72-23.64,9.11-26.93c-1-4.26-2.71-10.08,1-16.86.57-1.06,1-1.51,1.24-1.51,1.5,0-.36,13.09,5.18,13.91a58,58,0,0,0,8.44.67,27.81,27.81,0,0,0,9-1.25c4.46-1.55,4.46-7.75,4.07-10.46-.23-1.58-.12-3.09.5-3.09m0-2a2.36,2.36,0,0,0-1.8.83c-.76.87-1,2.4-.68,4.54,0,.29.95,7-2.75,8.29a25.62,25.62,0,0,1-8.31,1.14,56,56,0,0,1-8.15-.65c-2.06-.3-2.47-5.62-2.68-8.48-.24-3-.42-5.45-2.78-5.45-1.5,0-2.34,1.32-3,2.56-3.79,7-2.39,13-1.36,17.37,0,.16.07.31.1.46a21.65,21.65,0,0,1-1.62,3.08A48.31,48.31,0,0,0,181,47.43c-.84,17.45,14.6,24.35,14.76,24.42a2.09,2.09,0,0,0,.78.16c.2,0,19.39.12,26,.2h.08c3.09,0,6.72-1.92,9.71-5.12a26.18,26.18,0,0,0,6.58-19.71c-.61-9-5-16.24-8.25-21.55-1.28-2.11-2.88-4.73-2.83-5.53A29.35,29.35,0,0,0,225.42,4c-1.2-2.4-2.34-4-4-4Z"/><path d="M202.39,80.87c-.59-.07-3.76-.92-8.47-10.35-4.89-9.81,3.32-23.16,3.68-23.72a.62.62,0,0,1,.14-.18c.23-.23,5.73-5.65,13-5.65,5.1,0,9.71,2.65,13.7,7.88,12.13,15.92,2,29.93,1.94,30.07a1,1,0,0,1-.73.41l-23.13,1.55Z" fill="#cb5215"/><path d="M210.73,42c4,0,8.57,1.8,12.9,7.49,11.82,15.5,1.94,28.87,1.94,28.87l-23.06,1.55s-3-.38-7.69-9.81,3.62-22.74,3.62-22.74S203.8,42,210.73,42m0-2c-7.67,0-13.46,5.7-13.7,5.94a1.93,1.93,0,0,0-.28.36c-.37.58-8.87,14.39-3.72,24.7,4.81,9.63,8.28,10.77,9.23,10.89l.25,0h.14l23-1.55a2,2,0,0,0,1.48-.8c.11-.15,10.63-14.77-2-31.27C221,42.75,216.16,40,210.73,40Z"/><g opacity="0.1"><path d="M195.38,35.18a20.17,20.17,0,0,0,3.41,22.06,58.8,58.8,0,0,0,10.62,9.88A61.72,61.72,0,0,0,219,57.31c6.29-8,5.09-18.86,1.48-22.13Z"/></g><path d="M211.41,66.2a.94.94,0,0,1-.55-.17,56.46,56.46,0,0,1-10.46-9.72A20.64,20.64,0,0,1,197,33.88a1,1,0,0,1,.88-.53h24.22a1,1,0,0,1,.67.26c3.89,3.52,5.05,14.62-1.3,22.73A59.62,59.62,0,0,1,212,66,1,1,0,0,1,211.41,66.2Z" fill="#f4cf92"/><path d="M222.08,34.35c3.49,3.16,4.65,13.62-1.42,21.37a59.37,59.37,0,0,1-9.25,9.48,56.36,56.36,0,0,1-10.25-9.54,19.47,19.47,0,0,1-3.3-21.31h24.22m0-2H197.86a2,2,0,0,0-1.76,1.06c-.26.49-6.29,12.13,3.54,23.55a58,58,0,0,0,10.67,9.91,2,2,0,0,0,2.33-.09,61.76,61.76,0,0,0,9.6-9.82c6.93-8.85,5.3-20.36,1.18-24.09a2,2,0,0,0-1.34-.52Z"/><path d="M209.9,43.68a1,1,0,0,1-.75-.35L203.63,37a1,1,0,0,1-.17-1l1.93-4.91a1,1,0,0,1,.93-.63h5.09a1,1,0,0,1,.89.54l2.53,4.91a1,1,0,0,1,0,1l-4,6.32a1,1,0,0,1-.77.46Z" fill="#806154"/><path d="M211.41,31.44l2.53,4.91-4,6.33-5.51-6.33,1.93-4.91h5.09m0-2h-5.09a2,2,0,0,0-1.86,1.26l-1.93,4.91a2,2,0,0,0,.35,2L208.4,44a2,2,0,0,0,1.5.69h.15a2,2,0,0,0,1.54-.92l4-6.33a2,2,0,0,0,.09-2l-2.53-4.91a2,2,0,0,0-1.78-1.08Z"/><g opacity="0.1"><circle cx="201.51" cy="32.05" r="8.67" transform="translate(3.07 79.55) rotate(-22.5)"/></g><g opacity="0.1"><circle cx="216.42" cy="32.96" r="7.54"/></g><path d="M201.74,39.46a8.54,8.54,0,1,1,8.55-8.54A8.55,8.55,0,0,1,201.74,39.46Z" fill="#fff"/><path d="M201.74,23.38a7.54,7.54,0,1,1-7.54,7.54,7.55,7.55,0,0,1,7.54-7.54m0-2a9.54,9.54,0,1,0,9.55,9.54,9.55,9.55,0,0,0-9.55-9.54Z"/><path d="M217.85,39.46a8.54,8.54,0,1,1,8.54-8.54A8.55,8.55,0,0,1,217.85,39.46Z" fill="#fff"/><path d="M217.85,23.38a7.54,7.54,0,1,1-7.54,7.54,7.54,7.54,0,0,1,7.54-7.54m0-2a9.54,9.54,0,1,0,9.54,9.54,9.55,9.55,0,0,0-9.54-9.54Z"/><path d="M219.37,36.39c3.22,0,3.22-5,0-5s-3.22,5,0,5Z"/><path d="M203.09,37.68c3.22,0,3.23-5,0-5s-3.22,5,0,5Z"/><polyline points="200.51 45 202.59 48.1 204.38 45" fill="none" stroke="#000" stroke-linecap="round" stroke-linejoin="round" stroke-width="2"/><polyline points="207.97 45 210.05 48.1 211.84 45" fill="none" stroke="#000" stroke-linecap="round" stroke-linejoin="round" stroke-width="2"/><polyline points="214.91 45 217 48.1 218.79 45" fill="none" stroke="#000" stroke-linecap="round" stroke-linejoin="round" stroke-width="2"/><polyline points="204.49 51.99 206.58 55.09 208.37 51.99" fill="none" stroke="#000" stroke-linecap="round" stroke-linejoin="round" stroke-width="2"/><polyline points="211.44 51.99 213.52 55.09 215.31 51.99" fill="none" stroke="#000" stroke-linecap="round" stroke-linejoin="round" stroke-width="2"/><path d="M312.41,432.93a1,1,0,0,1-1-.71L214.79,112.35l-95.7,319.87a1,1,0,0,1-1,.71h-18a1,1,0,0,1-1-1.3l111-348.18a1,1,0,0,1,.95-.7h5.4a1,1,0,0,1,1,.69l115,348.18a1,1,0,0,1-1,1.31Z" fill="#8681e2"/><path d="M216.54,83.75l115,348.18H312.41l-97.62-323L118.14,431.93h-18l111-348.18h5.4m0-2h-5.4a2,2,0,0,0-1.91,1.4l-111,348.17a2,2,0,0,0,.29,1.79,2,2,0,0,0,1.62.82h18a2,2,0,0,0,1.91-1.42L214.8,115.82l95.69,316.69a2,2,0,0,0,1.92,1.42h19.12a2,2,0,0,0,1.9-2.62l-115-348.18a2,2,0,0,0-1.9-1.38Z"/><polygon points="100.12 431.93 211.14 83.75 216.54 83.75 331.53 431.93 312.41 431.93 214.79 108.88 118.14 431.93 100.12 431.93" fill="#ec5c89"/><g clip-path="url(#clip-path)"><g opacity="0.1"><path d="M93,428.55,202,86.42a3.73,3.73,0,0,1,1.39-1.9l2.3-1.65a3.74,3.74,0,0,1,5.74,1.9L321.26,428.54a3.74,3.74,0,0,1-3.56,4.88H306.49a3.75,3.75,0,0,1-3.59-2.69L213.28,118.37a8.56,8.56,0,0,1-6.37-.7L110.23,430.78a3.73,3.73,0,0,1-3.57,2.64H96.51A3.73,3.73,0,0,1,93,428.55Z"/></g><g opacity="0.1"><path d="M174,174.36c9.84,4.3,19.7,9.23,41.93,9.3,24.22.07,33-5.91,37.9-8.12s10.34,4.76,4.39,9.67S237,195,215.72,195.39c-21.06.35-40.63-7.13-44.5-9.08C162.79,182.06,165,170.42,174,174.36Z"/></g></g><path d="M215.82,114.75a22,22,0,1,1,22-22A22,22,0,0,1,215.82,114.75Z" fill="#ffbe25"/><path d="M215.82,71.74a21,21,0,1,1-21,21,21,21,0,0,1,21-21m0-2a23,23,0,1,0,23,23,23,23,0,0,0-23-23Z"/><g opacity="0.1"><circle cx="213.96" cy="94.69" r="10.03"/></g><path d="M215.82,101.55a8.81,8.81,0,1,1,8.81-8.8A8.82,8.82,0,0,1,215.82,101.55Z" fill="#8681e2"/><path d="M215.82,84.94A7.81,7.81,0,1,1,208,92.75a7.8,7.8,0,0,1,7.81-7.81m0-2a9.81,9.81,0,1,0,9.81,9.81,9.83,9.83,0,0,0-9.81-9.81Z"/><path d="M89.94,441.2a1,1,0,0,1-.75-.34,1,1,0,0,1-.24-.78c.17-1.45,1.91-14.15,8.13-15.58a73.23,73.23,0,0,1,14-1.1c2.6,0,9,.11,11.78,1.13,4.69,1.71,6.64,14.11,6.85,15.52a1,1,0,0,1-1,1.15Z" fill="#db4279"/><path d="M111.05,424.4c4.83,0,9.4.33,11.44,1.07,4.26,1.55,6.2,14.73,6.2,14.73H89.94s1.65-13.41,7.36-14.73a73.48,73.48,0,0,1,13.75-1.07m0-2h0a73.94,73.94,0,0,0-14.2,1.13C90,425.11,88.14,438.44,88,440a2,2,0,0,0,2,2.24h38.75a2,2,0,0,0,1.51-.69,2,2,0,0,0,.47-1.6c-.5-3.37-2.5-14.5-7.5-16.32-2.86-1-8.82-1.19-12.12-1.19Z"/><path d="M301.15,441.2a1,1,0,0,1-.75-.34,1,1,0,0,1-.24-.78c.17-1.45,1.91-14.15,8.13-15.58a73.23,73.23,0,0,1,14-1.1c2.6,0,9,.11,11.78,1.13,4.69,1.71,6.64,14.11,6.85,15.52a1,1,0,0,1-1,1.15Z" fill="#db4279"/><path d="M322.26,424.4c4.83,0,9.4.33,11.44,1.07,4.26,1.55,6.2,14.73,6.2,14.73H301.15s1.65-13.41,7.36-14.73a73.48,73.48,0,0,1,13.75-1.07m0-2h0a74,74,0,0,0-14.21,1.13c-6.88,1.58-8.71,14.91-8.89,16.43a2,2,0,0,0,.48,1.56,2,2,0,0,0,1.5.68H339.9a2,2,0,0,0,2-2.29c-.49-3.37-2.5-14.5-7.5-16.32-2.86-1-8.82-1.19-12.11-1.19Z"/><path d="M58.22,455.6a1,1,0,0,1-.7-.29,1,1,0,0,1-.3-.71,26.56,26.56,0,0,1,1.5-8c2-5.64,5.71-9.49,10.73-11.15S151.77,433,225.63,433c22.39,0,134.41.12,140.27,2.51,9.07,3.72,8.54,16.7,8.52,17.25a1,1,0,0,1-1,1Z" fill="#db4279"/><path d="M225.63,434c69.06,0,135.78.76,139.89,2.44,8.52,3.49,7.9,16.27,7.9,16.27L58.22,454.6s0-14.4,11.55-18.21c4.73-1.56,81.64-2.44,155.86-2.44m0-2v0c-51.47,0-150.41.53-156.5,2.54-5.33,1.76-9.26,5.83-11.36,11.77a27.58,27.58,0,0,0-1.56,8.34,2,2,0,0,0,.59,1.42,2,2,0,0,0,1.41.58h0l315.2-1.94a2,2,0,0,0,2-1.9c0-.58.59-14.24-9.13-18.22C360.4,432.13,257.15,432,225.64,432Z"/><path d="M2,469.36a1.05,1.05,0,0,1-.71-.29,1.05,1.05,0,0,1-.29-.71c0-.15.19-14.57,16.44-18.33,6.66-1.55,111.53-2.36,211.68-2.36,83.89,0,184,.62,190.08,2.37,12.2,3.51,11.44,16.41,11.43,16.54a1,1,0,0,1-1,.93Z" fill="#eaa11e"/><path d="M229.13,448.67c93.69,0,184.21.73,189.79,2.33,11.57,3.32,10.71,15.51,10.71,15.51L2,468.36S2,454.63,17.66,451c6.43-1.49,110.77-2.33,211.47-2.33m0-2v0c-81.06,0-204.39.64-211.92,2.38C.2,453,0,468.21,0,468.36a2,2,0,0,0,2,2H2l427.63-1.85a2,2,0,0,0,2-1.86c.33-4.77-1.78-14.59-12.16-17.57-8-2.29-160-2.41-190.33-2.41Z"/><g opacity="0.1"><path d="M279.46,450.7c-2.34-.67-19.55-1.19-45.64-1.56-.41-4-2-10.68-7.76-13.05-8.53-3.49-147.15-2.72-156.29.3-7.11,2.35-9.84,8.71-10.89,13.25C35.39,450,20,450.46,17.66,451,2,454.63,2,468.36,2,468.36l291.51-1.26S291,454,279.46,450.7Z"/></g><path d="M214.19,190.15c-20.77,0-39.89-7.38-43.52-9.21-4.74-2.39-6.42-7-5.63-10.31a5.41,5.41,0,0,1,5.47-4.33,9.5,9.5,0,0,1,3.79.89l1.68.73c9.39,4.14,19.09,8.42,39.85,8.48h.42c20.81,0,29.75-4.43,35.1-7.08.72-.36,1.37-.68,2-.95a5.64,5.64,0,0,1,2.34-.51,6.24,6.24,0,0,1,5.7,4.15c1,2.69,0,5.57-2.6,7.71-5.53,4.57-20.14,10-43.12,10.41Z" fill="#ffbe25"/><path d="M170.51,167.3a8.61,8.61,0,0,1,3.39.8c9.84,4.3,19.7,9.24,41.92,9.3h.43c23.9,0,32.6-5.92,37.48-8.12a4.64,4.64,0,0,1,1.93-.42c4.2,0,7.62,5.83,2.46,10.09-5.94,4.91-21.22,9.83-42.5,10.18l-1.43,0c-20.51,0-39.28-7.19-43.07-9.1-7.23-3.65-6.63-12.75-.61-12.75m0-2h0a6.38,6.38,0,0,0-6.45,5.1c-.88,3.7,1,8.81,6.16,11.44,3.91,2,22.8,9.31,44,9.31l1.47,0c23.24-.38,38.08-6,43.73-10.64,2.94-2.42,4-5.72,2.91-8.82a7.25,7.25,0,0,0-6.64-4.81,6.58,6.58,0,0,0-2.75.6c-.62.28-1.29.61-2,1-5.26,2.61-14.08,7-34.65,7h-.42c-20.54-.06-30.15-4.29-39.44-8.39l-1.69-.74a10.58,10.58,0,0,0-4.19-1Z"/><g clip-path="url(#clip-path-2)"><g opacity="0.1"><path d="M173.9,168.1c-9.36,9.24,14.25,16,36.39,18,24.13,2.15,35.27-1.15,40.35-2.93s10.21,1.21,3.87,5.59-22,8-43.21,6.49c-21-1.46-39.86-10.59-43.56-12.87C159.71,177.38,159.6,161.22,173.9,168.1Z"/></g></g><g opacity="0.1"><path d="M200,77.47c-1.47-2.56-1.18-4.43-.27-4.63s2.54.81,4,3.92c1.39,2.92.53,3.68,0,3.78S201.55,80.14,200,77.47Z"/><path d="M202.83,75.81c-1-2.76-.45-4.55.47-4.61s2.34,1.2,3.28,4.5c.89,3.1-.07,3.72-.62,3.73S203.89,78.69,202.83,75.81Z"/><path d="M205.39,74.83c-.95-2.76-.39-4.55.49-4.62s2.23,1.19,3.11,4.48c.82,3.09-.1,3.71-.62,3.72S206.39,77.69,205.39,74.83Z"/><path d="M214.36,72.85c0-3.21,1.18-5,2.07-4.77S218.24,70,218,73.75c-.25,3.53-1.38,3.92-1.9,3.78S214.36,76.19,214.36,72.85Z"/><path d="M216.93,73c0-3.21,1.18-5,2.08-4.77s1.8,1.92,1.54,5.68c-.25,3.53-1.38,3.92-1.9,3.78S216.93,76.32,216.93,73Z"/><path d="M219.12,72.91c0-3.21,1.18-5,2.07-4.77s1.8,1.91,1.54,5.67c-.24,3.53-1.38,3.92-1.9,3.78S219.12,76.25,219.12,72.91Z"/></g><path d="M203.28,78.9c-.46,0-2.08-.26-3.48-3.68-.84-2-1.05-4-.55-5.07a1.56,1.56,0,0,1,1.43-1c1.35,0,2.61,1.59,3.65,4.61.68,2,.78,3.37.3,4.26a1.57,1.57,0,0,1-1,.81A1.34,1.34,0,0,1,203.28,78.9Z" fill="#806154"/><path d="M200.68,70.18c.67,0,1.73,1.09,2.7,3.93s.39,3.68,0,3.78h-.1c-.46,0-1.54-.6-2.56-3.06s-.86-4.42-.21-4.63a.47.47,0,0,1,.17,0m0-2h0a2.5,2.5,0,0,0-2.34,1.56c-.63,1.37-.44,3.51.53,5.86,1.6,3.88,3.62,4.3,4.41,4.3a2.32,2.32,0,0,0,.59-.07,2.57,2.57,0,0,0,1.64-1.31c.63-1.15.55-2.76-.23-5.06-1.21-3.5-2.76-5.28-4.6-5.28Z"/><path d="M205.82,78c-.46,0-2.08-.27-3.48-3.68-.84-2-1.05-4-.55-5.07a1.63,1.63,0,0,1,1-.9,1.59,1.59,0,0,1,.48-.07c1.35,0,2.61,1.59,3.65,4.6.68,2,.78,3.38.3,4.26a1.61,1.61,0,0,1-1,.82A1.34,1.34,0,0,1,205.82,78Z" fill="#806154"/><path d="M203.22,69.31c.67,0,1.73,1.09,2.7,3.93s.39,3.68,0,3.78h-.1c-.46,0-1.54-.6-2.56-3.06s-.86-4.43-.21-4.64l.17,0m0-2h0a2.51,2.51,0,0,0-2.34,1.55c-.63,1.38-.44,3.51.53,5.87C203,78.61,205,79,205.82,79a2.32,2.32,0,0,0,.59-.07,2.6,2.6,0,0,0,1.64-1.31c.63-1.16.55-2.77-.23-5.06-1.21-3.51-2.75-5.28-4.6-5.28Z"/><path d="M208.44,77c-.47,0-2.08-.26-3.49-3.68-.84-2-1-4-.55-5.07a1.66,1.66,0,0,1,.95-.9,1.59,1.59,0,0,1,.48-.07c1.36,0,2.62,1.59,3.65,4.61.68,2,.78,3.37.3,4.25a1.53,1.53,0,0,1-1,.82A1.27,1.27,0,0,1,208.44,77Z" fill="#806154"/><path d="M205.84,68.27c.66,0,1.72,1.09,2.7,3.93s.39,3.68,0,3.78h-.1c-.47,0-1.55-.6-2.57-3.06s-.85-4.42-.21-4.63a.52.52,0,0,1,.18,0m0-2a2.67,2.67,0,0,0-.8.12,2.6,2.6,0,0,0-1.54,1.43c-.64,1.38-.45,3.52.52,5.87,1.6,3.88,3.62,4.3,4.42,4.3a2.25,2.25,0,0,0,.58-.07,2.55,2.55,0,0,0,1.64-1.31c.63-1.16.56-2.76-.23-5.06-1.21-3.5-2.75-5.28-4.59-5.28Z"/><path d="M216.78,76.29l-.31,0c-1-.22-2-1.66-1.79-5,.23-3,1.39-5.16,2.82-5.16h.22c.72.11,2.33.91,1.65,5.91C218.9,75.55,217.7,76.29,216.78,76.29Z" fill="#806154"/><path d="M217.51,67.12h.06c.67.11,1.25,1.54.81,4.78-.38,2.83-1.17,3.39-1.6,3.39h-.09c-.39-.09-1.23-1-1-3.92.2-2.68,1.15-4.24,1.83-4.24m0-2h0c-2,0-3.55,2.39-3.83,6.09-.29,4,1.13,5.7,2.57,6a2.33,2.33,0,0,0,.53.06c2.39,0,3.27-2.78,3.58-5.12s.45-6.58-2.49-7a2.19,2.19,0,0,0-.36,0Z"/><path d="M219.44,76.65l-.31,0c-1-.22-2-1.66-1.79-5,.23-3,1.39-5.16,2.83-5.16h.21c.72.11,2.33.91,1.66,5.91C221.56,75.91,220.36,76.65,219.44,76.65Z" fill="#806154"/><path d="M220.17,67.48h.06c.67.11,1.25,1.54.81,4.78-.38,2.83-1.17,3.39-1.6,3.39h-.09c-.39-.09-1.23-1-1-3.92.2-2.68,1.16-4.24,1.83-4.24m0-2h0c-2,0-3.55,2.39-3.83,6.09-.29,4,1.14,5.7,2.57,6a2.39,2.39,0,0,0,.53.06c2.39,0,3.27-2.78,3.59-5.12s.44-6.58-2.5-7a2.19,2.19,0,0,0-.36,0Z"/><path d="M222.25,76.9a1.65,1.65,0,0,1-.32,0c-1-.22-2-1.65-1.79-5,.23-3,1.39-5.17,2.83-5.17l.21,0c.72.11,2.33.91,1.66,5.9C224.36,76.16,223.16,76.9,222.25,76.9Z" fill="#806154"/><path d="M223,67.72H223c.67.1,1.25,1.53.81,4.78-.38,2.82-1.17,3.39-1.59,3.39h-.1c-.39-.09-1.23-1-1-3.93.2-2.67,1.16-4.24,1.83-4.24m0-2h0c-2.05,0-3.55,2.4-3.83,6.09-.29,4,1.14,5.71,2.57,6a2.42,2.42,0,0,0,.54.06c2.38,0,3.26-2.79,3.58-5.12s.44-6.58-2.5-7a2.19,2.19,0,0,0-.36,0Z"/></g></g></svg>