<svg xmlns="http://www.w3.org/2000/svg" xmlns:xlink="http://www.w3.org/1999/xlink" viewBox="0 0 283.46 114.53"><defs><linearGradient id="linear-gradient" x1="1" y1="62.86" x2="282.46" y2="62.86" gradientUnits="userSpaceOnUse"><stop offset="0.69" stop-color="#fa8f9d"/><stop offset="1" stop-color="#ffa7b5"/></linearGradient></defs><title>img_22</title><g id="Layer_2" data-name="Layer 2"><g id="bubble_talk" data-name="bubble talk"><path d="M139.13,113.52C73,113.42,36.6,113.36,25.26,91.9c-8.11-15.32-9.2-31.81-9.34-35.17C13.1,55.27,1,48.22,1,34.87a1,1,0,0,1,1-1,1.15,1.15,0,0,1,.41.08A13.16,13.16,0,0,0,7.9,35.11c3.31,0,6.45-1.11,9.22-2.08a19.38,19.38,0,0,1,6-1.5,5.28,5.28,0,0,1,1.28.15c3-11,7.52-18.13,91.31-18.13h4c24.31,0,44.89-.43,63-.82,13.44-.28,25-.53,35.25-.53,49.18,0,64.5,5.88,64.5,42.67,0,23.77-3.69,38.32-23.16,47.15-18.25,8.28-50.57,11.51-115.28,11.51Z" fill="url(#linear-gradient)"/><path d="M218,13.2c49.36,0,63.5,5.83,63.5,41.67,0,46.43-14.37,57.66-137.44,57.66h-3.33c-66.26-.1-103.4,0-114.55-21.09-9-17.06-9.24-35.33-9.24-35.33S2,49.18,2,34.87a14.42,14.42,0,0,0,5.9,1.24c6.16,0,11.58-3.58,15.22-3.58a3.65,3.65,0,0,1,1.95.49c3-11.38,5.71-18.47,90.63-18.47h4c42.52,0,74.49-1.35,98.29-1.35m0-2c-10.21,0-21.82.25-35.27.53-18.15.39-38.72.82-63,.82h-4c-79.44,0-88.28,5.85-92,18a5.44,5.44,0,0,0-.57,0,20.21,20.21,0,0,0-6.33,1.55,27.19,27.19,0,0,1-8.89,2A12.26,12.26,0,0,1,2.81,33,2.06,2.06,0,0,0,2,32.87a2,2,0,0,0-1.09.32A2,2,0,0,0,0,34.87C0,48.06,11.27,55.33,14.94,57.34c.21,4.44,1.52,20.07,9.43,35,11.63,22,48.26,22,114.76,22.15H144c64.87,0,97.31-3.26,115.7-11.6,19.85-9,23.74-24.44,23.74-48.06,0-19.39-4.12-29.81-14.2-36-10.47-6.41-27.39-7.69-51.3-7.69Z"/><path d="M135.37,103.65c-70.51-.12-101.76-2.83-112.79-19.38C13,69.85,15.38,49.88,16.17,44.93a21.45,21.45,0,0,1-15-9.49,1,1,0,0,1-.05-1.06A1,1,0,0,1,2,33.87h0c1.11.06,2.05.08,2.87.08,4.79,0,6.86-.85,10.8-4.54C21.74,8.31,28.37,1,111.43,1h2c66.32.08,106.35.12,130.08,5.91C266.42,12.51,275,23.67,275,48.08c0,24-3.39,37.59-21.91,45.56-19.47,8.37-56.23,10-113.15,10Z" fill="#897dff"/><path d="M111.43,2h1.51c132.59.15,161,.13,161,46.08,0,46.28-12.13,54.57-134.06,54.57h-4.52c-66.26-.11-100.71-2.05-112-18.93C12.7,67.66,17.35,44,17.35,44h0c-.21,0-9-.06-15.34-9.15,1.07.05,2,.08,2.92.08,5.32,0,7.59-1.13,11.68-5C22.22,10.17,26.28,2,111.43,2m0-2C69.62,0,46.32,2,33.5,6.68,20.87,11.29,17.81,18.47,14.83,28.87,11.22,32.22,9.36,33,4.92,33c-.8,0-1.72,0-2.82-.08H2a2,2,0,0,0-1.75,1A2,2,0,0,0,.36,36,22.73,22.73,0,0,0,15,45.77c-.9,6.33-2.55,25.18,6.7,39.06,5.81,8.7,17.14,13.83,36.74,16.62,18.14,2.59,42.87,3.14,76.89,3.2h4.52c57.05,0,93.92-1.65,113.55-10.09,9.3-4,15.2-9.61,18.56-17.66,3.47-8.32,3.95-18.77,3.95-28.82,0-25-8.73-36.4-32.22-42.14C219.88.12,179.81.08,113.41,0h-2Z"/><path d="M53.46,47.44a.72.72,0,0,1-.71-.7V34.08a.66.66,0,0,1,.21-.5.7.7,0,0,1,.5-.2.68.68,0,0,1,.63.36L60.15,45.8h-.61l6-12.06a.68.68,0,0,1,.63-.36.7.7,0,0,1,.49.2.68.68,0,0,1,.19.5V46.74a.69.69,0,0,1-.19.49.71.71,0,0,1-1.21-.49V35.9l.3,0-5.3,10.85a.67.67,0,0,1-.62.34.65.65,0,0,1-.64-.43L53.8,36l.36-.09V46.74a.72.72,0,0,1-.7.7Z" fill="#fff"/><path d="M74.71,47.53a5.11,5.11,0,0,1-2.57-.65,4.75,4.75,0,0,1-1.78-1.78,5.47,5.47,0,0,1,0-5.17,4.75,4.75,0,0,1,1.78-1.78,5.41,5.41,0,0,1,5.14,0,4.73,4.73,0,0,1,1.77,1.78,5.17,5.17,0,0,1,.67,2.59,5.05,5.05,0,0,1-.66,2.58,4.83,4.83,0,0,1-1.78,1.78A5.09,5.09,0,0,1,74.71,47.53Zm0-1.26a3.61,3.61,0,0,0,1.88-.49,3.44,3.44,0,0,0,1.29-1.33,4.2,4.2,0,0,0,0-3.86,3.4,3.4,0,0,0-1.29-1.34,3.83,3.83,0,0,0-3.75,0,3.49,3.49,0,0,0-1.3,1.34,4.12,4.12,0,0,0,0,3.86,3.53,3.53,0,0,0,1.3,1.33A3.6,3.6,0,0,0,74.71,46.27Zm0,4.93a1,1,0,0,1-1-1A.88.88,0,0,1,74,49.5a1,1,0,0,1,.69-.26,1,1,0,0,1,.68.26.89.89,0,0,1,.3.71,1,1,0,0,1-.29.7A1,1,0,0,1,74.7,51.2Z" fill="#fff"/><path d="M83.39,35.72a.94.94,0,0,1-.68-.29.91.91,0,0,1-.29-.7.89.89,0,0,1,.3-.71,1,1,0,0,1,.69-.26,1,1,0,0,1,.67.26.89.89,0,0,1,.3.71,1,1,0,0,1-1,1Zm0,11.72a.66.66,0,0,1-.51-.19.69.69,0,0,1-.19-.51V38.29a.69.69,0,0,1,.19-.51.66.66,0,0,1,.51-.19.64.64,0,0,1,.49.19.69.69,0,0,1,.19.51v8.45a.69.69,0,0,1-.19.51A.64.64,0,0,1,83.41,47.44Z" fill="#fff"/><path d="M92.27,39.16a.63.63,0,0,1-.45-.17.58.58,0,0,1-.18-.43.59.59,0,0,1,.18-.44.63.63,0,0,1,.45-.17h4.59a.66.66,0,0,1,.45.17.62.62,0,0,1,0,.87.66.66,0,0,1-.45.17Zm4.48,8.28a3.19,3.19,0,0,1-2.88-1.69A3.59,3.59,0,0,1,93.44,44v-8.8a.71.71,0,0,1,.18-.5.67.67,0,0,1,.5-.2.68.68,0,0,1,.7.7V44a2.13,2.13,0,0,0,.54,1.51,1.8,1.8,0,0,0,1.39.58h.48a.62.62,0,0,1,.47.2.71.71,0,0,1,.18.5.62.62,0,0,1-.22.5.76.76,0,0,1-.54.19Z" fill="#fff"/><path d="M100.83,43.42a.69.69,0,0,1-.51-.19.7.7,0,0,1-.19-.51V34.08a.67.67,0,0,1,.19-.51.69.69,0,0,1,.51-.19.66.66,0,0,1,.5.19.71.71,0,0,1,.19.51v8.64a.75.75,0,0,1-.19.51A.66.66,0,0,1,100.83,43.42Zm0,4a.69.69,0,0,1-.51-.19.66.66,0,0,1-.19-.5V38.29a.65.65,0,0,1,.7-.7.66.66,0,0,1,.5.19.73.73,0,0,1,.19.51v8.46a.7.7,0,0,1-.19.5A.66.66,0,0,1,100.83,47.44Zm7.74,0a.69.69,0,0,1-.5-.2.66.66,0,0,1-.2-.49V42.07a3.59,3.59,0,0,0-.42-1.83,2.72,2.72,0,0,0-1.15-1.08,3.7,3.7,0,0,0-1.65-.36,3.57,3.57,0,0,0-1.59.34,2.83,2.83,0,0,0-1.13.94,2.32,2.32,0,0,0-.41,1.35h-1a3.9,3.9,0,0,1,.61-2,4.05,4.05,0,0,1,1.53-1.4,4.32,4.32,0,0,1,2.12-.52,4.75,4.75,0,0,1,2.29.54,3.89,3.89,0,0,1,1.59,1.55,5,5,0,0,1,.59,2.5v4.68a.68.68,0,0,1-.69.69Z" fill="#fff"/><path d="M116.66,47.53a4.73,4.73,0,0,1-2.49-.66,4.82,4.82,0,0,1-1.74-1.79,5.2,5.2,0,0,1-.64-2.56,5,5,0,0,1,.66-2.57,4.88,4.88,0,0,1,1.79-1.79,5,5,0,0,1,2.56-.66,4.94,4.94,0,0,1,2.55.66A4.85,4.85,0,0,1,121.13,40a5.12,5.12,0,0,1,.67,2.57l-.56.44a4.57,4.57,0,0,1-.6,2.33A4.42,4.42,0,0,1,119,46.92,4.49,4.49,0,0,1,116.66,47.53Zm.14-1.26A3.53,3.53,0,0,0,120,44.44a3.85,3.85,0,0,0,.48-1.92A3.8,3.8,0,0,0,120,40.6a3.56,3.56,0,0,0-1.3-1.34,3.65,3.65,0,0,0-5,1.34,3.8,3.8,0,0,0-.48,1.92,3.85,3.85,0,0,0,.48,1.92A3.47,3.47,0,0,0,115,45.78,3.53,3.53,0,0,0,116.8,46.27Zm4.3,1.17a.68.68,0,0,1-.5-.19.63.63,0,0,1-.2-.5V43.68l.34-1.43,1.06.27v4.23a.66.66,0,0,1-.19.5A.72.72,0,0,1,121.1,47.44Z" fill="#fff"/><path d="M128.19,47.13a.64.64,0,0,1-.5,0,.71.71,0,0,1-.38-.35l-4-8.32a.6.6,0,0,1,0-.5.75.75,0,0,1,.86-.41.59.59,0,0,1,.36.35l4,8.32a.78.78,0,0,1,.09.5A.53.53,0,0,1,128.19,47.13Zm-2,4.59a.84.84,0,0,1-.32-.07.57.57,0,0,1-.34-.86L131.34,38a.59.59,0,0,1,.87-.32.56.56,0,0,1,.34.84l-5.83,12.82A.58.58,0,0,1,126.19,51.72Z" fill="#fff"/><path d="M144.12,47.53a5,5,0,0,1-2.55-.66,4.73,4.73,0,0,1-1.79-1.79,5,5,0,0,1-.66-2.57,5.09,5.09,0,0,1,.64-2.56,4.72,4.72,0,0,1,1.73-1.79A4.78,4.78,0,0,1,144,37.5a4.53,4.53,0,0,1,2.18.52,4.28,4.28,0,0,1,1.56,1.35V34.08a.68.68,0,0,1,.2-.51.69.69,0,0,1,.51-.19.67.67,0,0,1,.7.7v8.5a5.26,5.26,0,0,1-.7,2.53,4.73,4.73,0,0,1-1.78,1.77A5,5,0,0,1,144.12,47.53Zm0-1.26a3.56,3.56,0,0,0,1.87-.5,3.61,3.61,0,0,0,1.29-1.34,3.8,3.8,0,0,0,.48-1.92,3.85,3.85,0,0,0-.48-1.92,3.67,3.67,0,0,0-5-1.34A3.61,3.61,0,0,0,141,40.59a3.85,3.85,0,0,0-.48,1.92,3.8,3.8,0,0,0,.48,1.92,3.69,3.69,0,0,0,1.32,1.34A3.54,3.54,0,0,0,144.12,46.27Zm.71-10a.69.69,0,0,1-.48-.17.54.54,0,0,1-.19-.42.53.53,0,0,1,.19-.43.73.73,0,0,1,.48-.15h5.23a.78.78,0,0,1,.5.15.56.56,0,0,1,.19.43.57.57,0,0,1-.19.42.74.74,0,0,1-.5.17Z" fill="#fff"/><path d="M156.85,47.53a5.09,5.09,0,0,1-2.57-.65,4.71,4.71,0,0,1-1.79-1.78,5.47,5.47,0,0,1,0-5.17,4.71,4.71,0,0,1,1.79-1.78,5.39,5.39,0,0,1,5.13,0,4.83,4.83,0,0,1,1.78,1.78,5.27,5.27,0,0,1,.66,2.59,5.15,5.15,0,0,1-.65,2.58,4.85,4.85,0,0,1-1.79,1.78A5,5,0,0,1,156.85,47.53Zm0-1.26a3.58,3.58,0,0,0,1.87-.49,3.53,3.53,0,0,0,1.3-1.33,4.2,4.2,0,0,0,0-3.86,3.49,3.49,0,0,0-1.3-1.34,3.81,3.81,0,0,0-3.74,0,3.44,3.44,0,0,0-1.31,1.34,4.2,4.2,0,0,0,0,3.86A3.49,3.49,0,0,0,155,45.78,3.55,3.55,0,0,0,156.85,46.27Zm-2-10.24a.77.77,0,0,1-.52-.18.54.54,0,0,1-.21-.45.72.72,0,0,1,.35-.62l2.12-1.4a.69.69,0,0,1,.54-.06.76.76,0,0,1,.16.06l2.11,1.4a.71.71,0,0,1,.34.62.59.59,0,0,1-.2.45.71.71,0,0,1-.5.18.79.79,0,0,1-.23,0,.81.81,0,0,1-.2-.11l-1.68-1.15-1.67,1.15A.67.67,0,0,1,154.82,36Zm3.81-2.4a.62.62,0,0,1-.46-.19A.64.64,0,0,1,158,33v-.5a.65.65,0,0,1,.58-.7l.45-.09a1.1,1.1,0,0,0,.56-.29.71.71,0,0,0,.18-.5.78.78,0,0,0-.26-.62,1,1,0,0,0-.64-.21,1.27,1.27,0,0,0-.44.08,1.31,1.31,0,0,0-.36.21.45.45,0,0,1-.21.12.7.7,0,0,1-.23,0,.56.56,0,0,1-.41-.16.54.54,0,0,1-.17-.42.6.6,0,0,1,.21-.48A2.61,2.61,0,0,1,158,29a2.56,2.56,0,0,1,.87-.14,2.2,2.2,0,0,1,1.5.53,1.75,1.75,0,0,1,.61,1.38,1.56,1.56,0,0,1-.54,1.27,2.82,2.82,0,0,1-1.28.53l.14.23a.8.8,0,0,1-.19.58A.56.56,0,0,1,158.63,33.63Z" fill="#fff"/><path d="M165.52,35.72a.94.94,0,0,1-.68-.29,1,1,0,0,1-.29-.7.89.89,0,0,1,.3-.71,1,1,0,0,1,1.37,0,.88.88,0,0,1,.29.71.94.94,0,0,1-.28.7A1,1,0,0,1,165.52,35.72Zm0,11.72a.65.65,0,0,1-.7-.7V38.29a.65.65,0,0,1,.7-.7.66.66,0,0,1,.5.19.73.73,0,0,1,.19.51v8.45a.73.73,0,0,1-.19.51A.66.66,0,0,1,165.54,47.44Z" fill="#fff"/><path d="M179.51,47.53a5,5,0,0,1-2.56-.66,4.88,4.88,0,0,1-1.79-1.79,5.42,5.42,0,0,1,0-5.13,4.72,4.72,0,0,1,4.22-2.45,4.46,4.46,0,0,1,2.17.52,4.39,4.39,0,0,1,1.57,1.35V34.08a.67.67,0,0,1,.7-.7.7.7,0,0,1,.51.19.68.68,0,0,1,.2.51v8.5a5.26,5.26,0,0,1-.7,2.53A4.8,4.8,0,0,1,182,46.88,5,5,0,0,1,179.51,47.53Zm0-1.26a3.5,3.5,0,0,0,1.86-.5,3.56,3.56,0,0,0,1.3-1.34,3.8,3.8,0,0,0,.48-1.92,3.85,3.85,0,0,0-.48-1.92,3.53,3.53,0,0,0-3.16-1.83,3.53,3.53,0,0,0-1.85.49,3.61,3.61,0,0,0-1.32,1.34,3.85,3.85,0,0,0-.48,1.92,3.8,3.8,0,0,0,.48,1.92,3.69,3.69,0,0,0,1.32,1.34A3.54,3.54,0,0,0,179.51,46.27Zm.7-10a.68.68,0,0,1-.47-.17.54.54,0,0,1-.19-.42.53.53,0,0,1,.19-.43.72.72,0,0,1,.47-.15h5.24a.78.78,0,0,1,.5.15.55.55,0,0,1,.18.43.56.56,0,0,1-.18.42.74.74,0,0,1-.5.17Z" fill="#fff"/><path d="M192.22,47.53a5.19,5.19,0,0,1-2.58-.64,4.7,4.7,0,0,1-1.77-1.77,5.27,5.27,0,0,1-.64-2.6,5.34,5.34,0,0,1,.61-2.6,4.49,4.49,0,0,1,1.66-1.77A4.62,4.62,0,0,1,192,37.5a4.49,4.49,0,0,1,2.38.62,4.23,4.23,0,0,1,1.58,1.72,5.48,5.48,0,0,1,.56,2.5.59.59,0,0,1-.18.46.63.63,0,0,1-.47.17h-7.65V41.82H196l-.77.56a4.17,4.17,0,0,0-.38-1.87,3.1,3.1,0,0,0-1.12-1.3,3.19,3.19,0,0,0-1.74-.47,3.32,3.32,0,0,0-1.8.49,3.19,3.19,0,0,0-1.2,1.34,4.37,4.37,0,0,0-.42,2,3.89,3.89,0,0,0,.48,1.95,3.46,3.46,0,0,0,1.3,1.33,3.74,3.74,0,0,0,1.91.49,4,4,0,0,0,1.3-.23,3.21,3.21,0,0,0,1.06-.57.8.8,0,0,1,.45-.17.64.64,0,0,1,.67.61.5.5,0,0,1-.21.43,4.91,4.91,0,0,1-1.51.83A5,5,0,0,1,192.22,47.53ZM189.77,36a.76.76,0,0,1-.51-.18.54.54,0,0,1-.21-.45.71.71,0,0,1,.34-.62l2.13-1.4a.62.62,0,0,1,.34-.09.64.64,0,0,1,.2,0,.76.76,0,0,1,.16.06l2.11,1.4a.74.74,0,0,1,.34.62.59.59,0,0,1-.2.45A.72.72,0,0,1,194,36a.78.78,0,0,1-.22,0,.71.71,0,0,1-.21-.11l-1.67-1.15-1.68,1.15A.67.67,0,0,1,189.77,36ZM193.59,33a.65.65,0,0,1-.47-.2l-2-2a.68.68,0,0,1-.18-.48.73.73,0,0,1,.2-.52.68.68,0,0,1,.49-.2.69.69,0,0,1,.5.21l2,2a.58.58,0,0,1,.18.45.69.69,0,0,1-.21.51A.67.67,0,0,1,193.59,33Z" fill="#fff"/><path d="M203.09,47.55A4.92,4.92,0,0,1,200.8,47a4,4,0,0,1-1.59-1.56,5,5,0,0,1-.58-2.5V38.28a.66.66,0,0,1,.19-.49.7.7,0,0,1,.49-.2.69.69,0,0,1,.5.2.63.63,0,0,1,.2.49V43a3.49,3.49,0,0,0,.43,1.83,2.66,2.66,0,0,0,1.15,1.08,3.92,3.92,0,0,0,3.24,0A2.8,2.8,0,0,0,206,45a2.26,2.26,0,0,0,.42-1.35h1a4.18,4.18,0,0,1-.62,2,4.05,4.05,0,0,1-1.53,1.4A4.3,4.3,0,0,1,203.09,47.55Zm4-.11a.64.64,0,0,1-.49-.19.69.69,0,0,1-.19-.51V38.28a.66.66,0,0,1,.19-.5.64.64,0,0,1,.49-.19.68.68,0,0,1,.5.19.63.63,0,0,1,.2.5v8.46a.66.66,0,0,1-.2.51A.68.68,0,0,1,207.05,47.44Z" fill="#fff"/><path d="M221.25,47.53a5,5,0,0,1-2.53-.65,4.8,4.8,0,0,1-1.78-1.77,5,5,0,0,1-.67-2.53v-8.5a.71.71,0,0,1,.18-.51.69.69,0,0,1,.52-.19.64.64,0,0,1,.49.19.67.67,0,0,1,.19.51v5.29A4.34,4.34,0,0,1,219.23,38a4.53,4.53,0,0,1,2.18-.52,4.73,4.73,0,0,1,2.49.66A4.82,4.82,0,0,1,225.64,40a5.19,5.19,0,0,1,.63,2.56,5,5,0,0,1-.65,2.57,4.88,4.88,0,0,1-1.79,1.79A5.05,5.05,0,0,1,221.25,47.53Zm0-1.26a3.56,3.56,0,0,0,1.87-.5,3.51,3.51,0,0,0,1.31-1.34,3.8,3.8,0,0,0,.48-1.92,3.85,3.85,0,0,0-.48-1.92,3.44,3.44,0,0,0-1.31-1.34,3.78,3.78,0,0,0-3.72,0,3.42,3.42,0,0,0-1.3,1.34,4,4,0,0,0-.47,1.92,3.9,3.9,0,0,0,.47,1.92,3.49,3.49,0,0,0,1.3,1.34A3.54,3.54,0,0,0,221.25,46.27Z" fill="#fff"/><path d="M233.33,47.53a4.75,4.75,0,0,1-4.22-2.45,5.09,5.09,0,0,1-.64-2.56,5,5,0,0,1,.66-2.57,4.8,4.8,0,0,1,1.79-1.79,5.26,5.26,0,0,1,5.1,0A4.78,4.78,0,0,1,237.8,40a5.13,5.13,0,0,1,.68,2.57l-.56.44a4.57,4.57,0,0,1-.6,2.33,4.54,4.54,0,0,1-4,2.24Zm.14-1.26a3.55,3.55,0,0,0,1.87-.49,3.46,3.46,0,0,0,1.29-1.34,3.85,3.85,0,0,0,.48-1.92,3.8,3.8,0,0,0-.48-1.92,3.65,3.65,0,0,0-5-1.34,3.59,3.59,0,0,0-1.31,1.34,3.71,3.71,0,0,0-.49,1.92,3.76,3.76,0,0,0,.49,1.92,3.56,3.56,0,0,0,3.16,1.83Zm0-10.19a3.4,3.4,0,0,1-1.4-.28,2.59,2.59,0,0,1-1-.76,1.63,1.63,0,0,1-.38-1,.69.69,0,0,1,.2-.51.63.63,0,0,1,.48-.21.67.67,0,0,1,.47.18.62.62,0,0,1,.2.47.85.85,0,0,0,.41.69,1.76,1.76,0,0,0,1.05.3,1.84,1.84,0,0,0,1.08-.29.84.84,0,0,0,.39-.7.62.62,0,0,1,.2-.47.69.69,0,0,1,.49-.18.59.59,0,0,1,.47.21.69.69,0,0,1,.19.49,1.78,1.78,0,0,1-.41,1.11,2.6,2.6,0,0,1-1,.74A3.65,3.65,0,0,1,233.46,36.08Zm-.11-3a.71.71,0,0,1-.5-.19.67.67,0,0,1-.2-.51.72.72,0,0,1,.16-.47l2-2a.68.68,0,0,1,.49-.2.66.66,0,0,1,.5.21.73.73,0,0,1,.2.51,1,1,0,0,1,0,.25.6.6,0,0,1-.16.22l-2,2A.64.64,0,0,1,233.35,33.07Zm4.43,14.37a.69.69,0,0,1-.51-.19.67.67,0,0,1-.2-.5V43.68l.35-1.43,1.06.27v4.23a.67.67,0,0,1-.2.5A.68.68,0,0,1,237.78,47.44Z" fill="#fff"/><path d="M240.55,39.16a.64.64,0,0,1-.45-.17.58.58,0,0,1-.18-.43.59.59,0,0,1,.18-.44.64.64,0,0,1,.45-.17h4.59a.64.64,0,0,1,.45.17.59.59,0,0,1,.18.44.58.58,0,0,1-.18.43.64.64,0,0,1-.45.17ZM245,47.44a3.19,3.19,0,0,1-2.88-1.69,3.59,3.59,0,0,1-.43-1.79v-8.8a.68.68,0,0,1,.19-.5.65.65,0,0,1,.49-.2.71.71,0,0,1,.51.2.68.68,0,0,1,.19.5V44a2.13,2.13,0,0,0,.54,1.51,1.81,1.81,0,0,0,1.39.58h.49a.6.6,0,0,1,.46.2.71.71,0,0,1,.18.5.64.64,0,0,1-.21.5.79.79,0,0,1-.54.19Z" fill="#fff"/><path d="M57,71.53a4.94,4.94,0,0,1-2.55-.66,4.83,4.83,0,0,1-1.8-1.79,5.42,5.42,0,0,1,0-5.13,4.72,4.72,0,0,1,4.22-2.45,4.53,4.53,0,0,1,2.18.52,4.36,4.36,0,0,1,1.56,1.35V58.08a.67.67,0,0,1,.7-.7.69.69,0,0,1,.51.19.68.68,0,0,1,.2.51v8.5a5.26,5.26,0,0,1-.7,2.53,4.8,4.8,0,0,1-1.78,1.77A5,5,0,0,1,57,71.53Zm0-1.26a3.5,3.5,0,0,0,1.86-.5,3.56,3.56,0,0,0,1.3-1.34,3.8,3.8,0,0,0,.48-1.92,3.85,3.85,0,0,0-.48-1.92A3.53,3.53,0,0,0,57,62.76a3.53,3.53,0,0,0-1.85.49,3.61,3.61,0,0,0-1.32,1.34,3.85,3.85,0,0,0-.48,1.92,3.8,3.8,0,0,0,.48,1.92,3.69,3.69,0,0,0,1.32,1.34A3.54,3.54,0,0,0,57,70.27Zm.7-10a.68.68,0,0,1-.47-.17.54.54,0,0,1-.19-.42.53.53,0,0,1,.19-.43.72.72,0,0,1,.47-.15H63a.78.78,0,0,1,.5.15.56.56,0,0,1,.19.43.57.57,0,0,1-.19.42.74.74,0,0,1-.5.17Z" fill="#fff"/><path d="M69.59,71.53a4.72,4.72,0,0,1-2.48-.66,4.82,4.82,0,0,1-1.74-1.79,5.2,5.2,0,0,1-.64-2.56A5,5,0,0,1,65.39,64a4.88,4.88,0,0,1,1.79-1.79,5,5,0,0,1,2.56-.66A4.91,4.91,0,0,1,74.07,64a5.23,5.23,0,0,1,.67,2.57l-.56.44a4.57,4.57,0,0,1-.6,2.33,4.42,4.42,0,0,1-1.64,1.63A4.5,4.5,0,0,1,69.59,71.53Zm.15-1.26a3.54,3.54,0,0,0,1.86-.49,3.49,3.49,0,0,0,1.3-1.34,4,4,0,0,0,.47-1.92,3.9,3.9,0,0,0-.47-1.92,3.63,3.63,0,0,0-6.33,0,3.81,3.81,0,0,0-.49,1.92,3.86,3.86,0,0,0,.49,1.92,3.51,3.51,0,0,0,1.31,1.34A3.57,3.57,0,0,0,69.74,70.27ZM67.65,60a.74.74,0,0,1-.51-.18.54.54,0,0,1-.21-.45.71.71,0,0,1,.34-.62l2.13-1.4a.62.62,0,0,1,.34-.09.64.64,0,0,1,.2,0,.76.76,0,0,1,.16.06l2.1,1.4a.72.72,0,0,1,.35.62.59.59,0,0,1-.2.45.75.75,0,0,1-.73.14.71.71,0,0,1-.21-.11l-1.67-1.15-1.68,1.15A.67.67,0,0,1,67.65,60ZM71.47,57a.65.65,0,0,1-.47-.2l-2-2a.68.68,0,0,1-.18-.48.73.73,0,0,1,.2-.52.68.68,0,0,1,.49-.2.69.69,0,0,1,.5.21l2,2a.58.58,0,0,1,.18.45.69.69,0,0,1-.21.51A.67.67,0,0,1,71.47,57ZM74,71.44a.68.68,0,0,1-.5-.19.63.63,0,0,1-.2-.5V67.68l.34-1.43,1.06.27v4.23a.63.63,0,0,1-.2.5A.68.68,0,0,1,74,71.44Z" fill="#fff"/><path d="M81.73,71.55A4.86,4.86,0,0,1,79.44,71a4,4,0,0,1-1.59-1.56,5,5,0,0,1-.59-2.5V62.28a.68.68,0,0,1,.69-.69.69.69,0,0,1,.5.2.66.66,0,0,1,.2.49V67a3.59,3.59,0,0,0,.42,1.83,2.72,2.72,0,0,0,1.15,1.08,3.7,3.7,0,0,0,1.65.36,3.57,3.57,0,0,0,1.59-.34A2.83,2.83,0,0,0,84.59,69,2.32,2.32,0,0,0,85,67.6h1a4.07,4.07,0,0,1-.62,2A4,4,0,0,1,83.85,71,4.35,4.35,0,0,1,81.73,71.55Zm4-.11a.66.66,0,0,1-.5-.19.69.69,0,0,1-.19-.51V62.28a.65.65,0,0,1,.69-.69.68.68,0,0,1,.5.19.67.67,0,0,1,.2.5v8.46a.69.69,0,0,1-.2.51A.68.68,0,0,1,85.69,71.44Z" fill="#fff"/><path d="M94.27,63.16a.64.64,0,0,1-.45-.17.58.58,0,0,1-.18-.43.59.59,0,0,1,.18-.44.64.64,0,0,1,.45-.17h4.59a.64.64,0,0,1,.45.17.59.59,0,0,1,.18.44.58.58,0,0,1-.18.43.64.64,0,0,1-.45.17Zm4.48,8.28a3.25,3.25,0,0,1-1.7-.45,3.2,3.2,0,0,1-1.18-1.24A3.59,3.59,0,0,1,95.44,68v-8.8a.68.68,0,0,1,.19-.5.66.66,0,0,1,.49-.2.69.69,0,0,1,.51.2.69.69,0,0,1,.2.5V68a2.13,2.13,0,0,0,.54,1.51,1.79,1.79,0,0,0,1.38.58h.49a.62.62,0,0,1,.47.2.71.71,0,0,1,.18.5.62.62,0,0,1-.22.5.76.76,0,0,1-.54.19Z" fill="#fff"/><path d="M106.42,71.55a4.85,4.85,0,0,1-2.28-.53,3.94,3.94,0,0,1-1.6-1.56A5,5,0,0,1,102,67V62.28a.63.63,0,0,1,.2-.49.66.66,0,0,1,.48-.2.71.71,0,0,1,.51.2.66.66,0,0,1,.19.49V67a3.49,3.49,0,0,0,.43,1.83,2.66,2.66,0,0,0,1.15,1.08,3.92,3.92,0,0,0,3.24,0,2.8,2.8,0,0,0,1.12-.94,2.26,2.26,0,0,0,.42-1.35h1a4.18,4.18,0,0,1-.62,2,4.1,4.1,0,0,1-1.52,1.4A4.36,4.36,0,0,1,106.42,71.55ZM106.6,60a.67.67,0,0,1-.47-.2l-2-2a.76.76,0,0,1-.18-.49.73.73,0,0,1,.2-.51.63.63,0,0,1,.48-.21.7.7,0,0,1,.51.22l2,2a.55.55,0,0,1,.18.45.7.7,0,0,1-.19.51A.68.68,0,0,1,106.6,60Zm3.78,11.45a.64.64,0,0,1-.49-.19.69.69,0,0,1-.19-.51V62.28a.66.66,0,0,1,.19-.5.64.64,0,0,1,.49-.19.7.7,0,0,1,.51.19.66.66,0,0,1,.19.5v8.46a.69.69,0,0,1-.19.51A.7.7,0,0,1,110.38,71.44Zm0-8.57V61.59h.8a.68.68,0,0,0,.54-.27,1.09,1.09,0,0,0,.23-.72v-.38a.72.72,0,0,1,.17-.48.58.58,0,0,1,.46-.2.57.57,0,0,1,.49.23,1,1,0,0,1,.16.56v.27a2.45,2.45,0,0,1-.27,1.16,2.13,2.13,0,0,1-.73.81,1.89,1.89,0,0,1-1,.3Z" fill="#fff"/><path d="M120.3,71.44a.65.65,0,0,1-.7-.69V62.29a.68.68,0,0,1,.19-.5.66.66,0,0,1,.51-.2.65.65,0,0,1,.49.2.68.68,0,0,1,.19.5v8.46a.66.66,0,0,1-.19.5A.64.64,0,0,1,120.3,71.44Zm6.32,0a.69.69,0,0,1-.51-.19.66.66,0,0,1-.19-.5V65.57a3,3,0,0,0-.67-2,2.2,2.2,0,0,0-1.71-.74,2.46,2.46,0,0,0-1.84.73,2.58,2.58,0,0,0-.72,1.9h-1a4.67,4.67,0,0,1,.52-2.05,3.63,3.63,0,0,1,5-1.39,3.33,3.33,0,0,1,1.28,1.42,4.71,4.71,0,0,1,.46,2.16v5.18a.66.66,0,0,1-.19.5A.64.64,0,0,1,126.62,71.44Zm6.28,0a.68.68,0,0,1-.5-.19.63.63,0,0,1-.2-.5V65.57a2.93,2.93,0,0,0-.67-2,2.2,2.2,0,0,0-1.71-.74,2.46,2.46,0,0,0-1.83.74,2.75,2.75,0,0,0-.69,2h-1.24a4.41,4.41,0,0,1,.52-2.12A3.58,3.58,0,0,1,128,62a3.92,3.92,0,0,1,2-.51,3.51,3.51,0,0,1,1.88.51,3.38,3.38,0,0,1,1.27,1.42,4.71,4.71,0,0,1,.46,2.16v5.18a.66.66,0,0,1-.19.5A.64.64,0,0,1,132.9,71.44Z" fill="#fff"/><path d="M141.12,71.53a5.11,5.11,0,0,1-2.57-.65,4.75,4.75,0,0,1-1.78-1.78,5.47,5.47,0,0,1,0-5.17,4.75,4.75,0,0,1,1.78-1.78,5.41,5.41,0,0,1,5.14,0,4.73,4.73,0,0,1,1.77,1.78,5.17,5.17,0,0,1,.67,2.59,5.05,5.05,0,0,1-.66,2.58,4.83,4.83,0,0,1-1.78,1.78A5.09,5.09,0,0,1,141.12,71.53Zm0-1.26a3.59,3.59,0,0,0,1.88-.49,3.44,3.44,0,0,0,1.29-1.33,4.2,4.2,0,0,0,0-3.86A3.4,3.4,0,0,0,143,63.25a3.83,3.83,0,0,0-3.75,0,3.49,3.49,0,0,0-1.3,1.34,4.12,4.12,0,0,0,0,3.86,3.53,3.53,0,0,0,1.3,1.33A3.6,3.6,0,0,0,141.12,70.27Zm1.1-13.47a1.64,1.64,0,0,1-.8-.2,3.17,3.17,0,0,1-.6-.46,3.54,3.54,0,0,0-.43-.36.62.62,0,0,0-.38-.13.47.47,0,0,0-.37.18,2.32,2.32,0,0,0-.31.49.74.74,0,0,1-.36.32.58.58,0,0,1-.45,0,.55.55,0,0,1-.33-.32.57.57,0,0,1,0-.49,2.76,2.76,0,0,1,.75-1,1.55,1.55,0,0,1,1-.31,1.41,1.41,0,0,1,.83.23c.21.15.41.3.59.45a4,4,0,0,0,.46.35.54.54,0,0,0,.28.09c.17,0,.31-.15.45-.44a.84.84,0,0,1,.35-.35.57.57,0,0,1,.46,0,.63.63,0,0,1,.39.34.51.51,0,0,1,0,.49,2.51,2.51,0,0,1-.67.9A1.3,1.3,0,0,1,142.22,56.8ZM139.07,60a.76.76,0,0,1-.51-.18.54.54,0,0,1-.21-.45.72.72,0,0,1,.35-.62l2.12-1.4a.62.62,0,0,1,.34-.09.64.64,0,0,1,.2,0,.76.76,0,0,1,.16.06l2.11,1.4a.71.71,0,0,1,.34.62.59.59,0,0,1-.2.45.71.71,0,0,1-.5.18.79.79,0,0,1-.23,0,1.08,1.08,0,0,1-.21-.11l-1.67-1.15-1.67,1.15A.68.68,0,0,1,139.07,60Z" fill="#fff"/><path d="M149.8,59.72a.94.94,0,0,1-.68-.29.91.91,0,0,1-.29-.7.89.89,0,0,1,.3-.71,1,1,0,0,1,.69-.26,1,1,0,0,1,.67.26.89.89,0,0,1,.3.71,1,1,0,0,1-1,1Zm0,11.72a.66.66,0,0,1-.51-.19.69.69,0,0,1-.19-.51V62.29a.69.69,0,0,1,.19-.51.66.66,0,0,1,.51-.19.64.64,0,0,1,.49.19.69.69,0,0,1,.19.51v8.45a.69.69,0,0,1-.19.51A.64.64,0,0,1,149.82,71.44Z" fill="#fff"/><path d="M163.7,71.53a4.85,4.85,0,0,1-2.53-.66,4.77,4.77,0,0,1-1.75-1.79,5.2,5.2,0,0,1-.64-2.56A5.31,5.31,0,0,1,159.4,64a4.53,4.53,0,0,1,4.12-2.45,4.85,4.85,0,0,1,2,.43,4.58,4.58,0,0,1,1.63,1.3.52.52,0,0,1,.15.46.73.73,0,0,1-.31.42.53.53,0,0,1-.44.1.73.73,0,0,1-.42-.26,3.38,3.38,0,0,0-2.63-1.19,3.19,3.19,0,0,0-3,1.82,4.17,4.17,0,0,0-.43,1.94,4,4,0,0,0,.45,1.93,3.36,3.36,0,0,0,1.26,1.33,3.49,3.49,0,0,0,1.86.49,4,4,0,0,0,1.28-.19,2.9,2.9,0,0,0,1-.59.75.75,0,0,1,.45-.19.55.55,0,0,1,.43.14.63.63,0,0,1,.24.45.46.46,0,0,1-.17.43A4.63,4.63,0,0,1,163.7,71.53Z" fill="#fff"/><path d="M170.74,67.42a.69.69,0,0,1-.52-.19.75.75,0,0,1-.19-.51V58.08a.71.71,0,0,1,.19-.51.69.69,0,0,1,.52-.19.66.66,0,0,1,.49.19.67.67,0,0,1,.19.51v8.64a.7.7,0,0,1-.19.51A.66.66,0,0,1,170.74,67.42Zm0,4a.69.69,0,0,1-.52-.19.7.7,0,0,1-.19-.5V62.29a.73.73,0,0,1,.19-.51.69.69,0,0,1,.52-.19.66.66,0,0,1,.49.19.69.69,0,0,1,.19.51v8.46a.66.66,0,0,1-.19.5A.66.66,0,0,1,170.74,71.44Zm7.73,0a.69.69,0,0,1-.5-.2.66.66,0,0,1-.2-.49V66.07a3.59,3.59,0,0,0-.42-1.83,2.72,2.72,0,0,0-1.15-1.08,3.7,3.7,0,0,0-1.65-.36,3.57,3.57,0,0,0-1.59.34,2.83,2.83,0,0,0-1.13.94,2.32,2.32,0,0,0-.41,1.35h-1a3.9,3.9,0,0,1,.61-2,4.05,4.05,0,0,1,1.53-1.4,4.33,4.33,0,0,1,2.13-.52A4.74,4.74,0,0,1,177,62a3.89,3.89,0,0,1,1.59,1.55,5,5,0,0,1,.59,2.5v4.68a.68.68,0,0,1-.69.69Z" fill="#fff"/><path d="M186.5,71.55a4.85,4.85,0,0,1-2.28-.53,3.94,3.94,0,0,1-1.6-1.56A5,5,0,0,1,182,67V62.28a.63.63,0,0,1,.2-.49.66.66,0,0,1,.48-.2.71.71,0,0,1,.51.2.66.66,0,0,1,.19.49V67a3.59,3.59,0,0,0,.43,1.83A2.66,2.66,0,0,0,185,69.87a3.67,3.67,0,0,0,1.65.36,3.6,3.6,0,0,0,1.59-.34,2.8,2.8,0,0,0,1.12-.94,2.26,2.26,0,0,0,.42-1.35h1A4,4,0,0,1,188.63,71,4.36,4.36,0,0,1,186.5,71.55Zm.07-11.45a.72.72,0,0,1-.7-.7.7.7,0,0,1,.16-.47l2-2a.65.65,0,0,1,.48-.19.69.69,0,0,1,.51.2.73.73,0,0,1,.2.52.79.79,0,0,1,0,.25.51.51,0,0,1-.15.21l-2,2A.63.63,0,0,1,186.57,60.1Zm3.89,11.34a.64.64,0,0,1-.49-.19.69.69,0,0,1-.19-.51V62.28a.66.66,0,0,1,.19-.5.64.64,0,0,1,.49-.19.7.7,0,0,1,.51.19.66.66,0,0,1,.19.5v8.46a.69.69,0,0,1-.19.51A.7.7,0,0,1,190.46,71.44Z" fill="#fff"/><path d="M195.11,71.44a.69.69,0,0,1-.52-.19.7.7,0,0,1-.19-.5V62.29a.73.73,0,0,1,.19-.51.69.69,0,0,1,.52-.19.64.64,0,0,1,.49.19.69.69,0,0,1,.19.51v8.46a.66.66,0,0,1-.19.5A.64.64,0,0,1,195.11,71.44Zm7.74,0a.69.69,0,0,1-.51-.2.66.66,0,0,1-.2-.49V66.07a3.59,3.59,0,0,0-.42-1.83,2.66,2.66,0,0,0-1.15-1.08,3.7,3.7,0,0,0-1.65-.36,3.57,3.57,0,0,0-1.59.34,2.9,2.9,0,0,0-1.13.94,2.32,2.32,0,0,0-.41,1.35h-1a3.9,3.9,0,0,1,.61-2,4.2,4.2,0,0,1,1.53-1.4,4.36,4.36,0,0,1,2.13-.52,4.74,4.74,0,0,1,2.28.54,4,4,0,0,1,1.6,1.55,5.1,5.1,0,0,1,.58,2.5v4.68a.68.68,0,0,1-.68.69Z" fill="#fff"/><path d="M210.93,71.53a5,5,0,0,1-2.52-.64,4.57,4.57,0,0,1-1.72-1.77,5.26,5.26,0,0,1-.62-2.6,5.11,5.11,0,0,1,.65-2.61,4.66,4.66,0,0,1,1.78-1.77,5.5,5.5,0,0,1,5.15,0,4.7,4.7,0,0,1,1.77,1.77,5.55,5.55,0,0,1,.66,2.61l-.81.44a4.93,4.93,0,0,1-.56,2.36,4.14,4.14,0,0,1-1.54,1.62A4.31,4.31,0,0,1,210.93,71.53Zm.18,3.8a5.51,5.51,0,0,1-2.5-.54,5,5,0,0,1-1.79-1.44.59.59,0,0,1-.17-.47.6.6,0,0,1,.26-.42.7.7,0,0,1,.53-.1.66.66,0,0,1,.45.27,3.69,3.69,0,0,0,1.34,1,4.36,4.36,0,0,0,1.9.4,3.45,3.45,0,0,0,3.1-1.86,4.28,4.28,0,0,0,.48-2.07V67.41l.52-1,.85.16V70.2a5.26,5.26,0,0,1-.65,2.61,4.83,4.83,0,0,1-4.32,2.52Zm0-5.06a3.63,3.63,0,0,0,1.88-.48,3.41,3.41,0,0,0,1.29-1.32,4.28,4.28,0,0,0,0-3.9A3.37,3.37,0,0,0,213,63.24a3.63,3.63,0,0,0-1.88-.48,3.69,3.69,0,0,0-1.89.48,3.37,3.37,0,0,0-1.29,1.33,4.28,4.28,0,0,0,0,3.9,3.41,3.41,0,0,0,1.29,1.32A3.69,3.69,0,0,0,211.07,70.27Z" fill="#fff"/><path d="M223.42,63.16A.64.64,0,0,1,223,63a.58.58,0,0,1-.18-.43.59.59,0,0,1,.18-.44.64.64,0,0,1,.45-.17H228a.64.64,0,0,1,.45.17.59.59,0,0,1,.18.44.58.58,0,0,1-.18.43.64.64,0,0,1-.45.17Zm4.48,8.28a3.25,3.25,0,0,1-1.7-.45A3.2,3.2,0,0,1,225,69.75a3.59,3.59,0,0,1-.43-1.79v-8.8a.68.68,0,0,1,.19-.5.65.65,0,0,1,.49-.2.69.69,0,0,1,.51.2.69.69,0,0,1,.2.5V68a2.13,2.13,0,0,0,.54,1.51,1.79,1.79,0,0,0,1.38.58h.49a.62.62,0,0,1,.47.2.71.71,0,0,1,.18.5.65.65,0,0,1-.22.5.76.76,0,0,1-.54.19Z" fill="#fff"/><path d="M235.62,71.53a4.72,4.72,0,0,1-2.48-.66,4.82,4.82,0,0,1-1.74-1.79,5.2,5.2,0,0,1-.64-2.56,5,5,0,0,1,.66-2.57,4.88,4.88,0,0,1,1.79-1.79,5.28,5.28,0,0,1,5.11,0A4.93,4.93,0,0,1,240.1,64a5.23,5.23,0,0,1,.67,2.57l-.56.44a4.57,4.57,0,0,1-.6,2.33A4.42,4.42,0,0,1,238,70.92,4.5,4.5,0,0,1,235.62,71.53Zm.15-1.26a3.54,3.54,0,0,0,1.86-.49,3.49,3.49,0,0,0,1.3-1.34,4,4,0,0,0,.47-1.92,3.9,3.9,0,0,0-.47-1.92,3.63,3.63,0,0,0-6.33,0,3.81,3.81,0,0,0-.49,1.92,3.86,3.86,0,0,0,.49,1.92,3.51,3.51,0,0,0,1.31,1.34A3.57,3.57,0,0,0,235.77,70.27Zm4.3,1.17a.68.68,0,0,1-.5-.19.63.63,0,0,1-.2-.5V67.68l.34-1.43,1.06.27v4.23a.63.63,0,0,1-.2.5A.68.68,0,0,1,240.07,71.44Z" fill="#fff"/><path d="M243.8,71.44a1.06,1.06,0,1,1,.73-1.79,1,1,0,0,1,.31.74,1.06,1.06,0,0,1-1,1Zm0-3.19a.67.67,0,0,1-.5-.21.65.65,0,0,1-.21-.49V58.08a.69.69,0,0,1,.21-.51.67.67,0,0,1,.5-.21.66.66,0,0,1,.5.21.73.73,0,0,1,.2.51v9.47a.63.63,0,0,1-.22.49A.66.66,0,0,1,243.8,68.25Z" fill="#fff"/></g></g></svg>