<svg xmlns="http://www.w3.org/2000/svg" viewBox="0 0 282.04 149.97"><title>img_17</title><g id="Layer_2" data-name="Layer 2"><g id="bubble_talk" data-name="bubble talk"><path d="M114.46,149c-41.91,0-68-1.46-85.6-9.16C9.57,131.39,1,115.26,1,87.51,1,57,4.81,35.71,23.59,24.27,41.23,13.52,71,11.48,119.82,11.48l8.44,0c75.41.33,109.26,1.51,121.42,26.2,6,12.3,7.42,27.55,7.51,38.17a147.17,147.17,0,0,1-1,18.35c2.68-1.3,8-3.52,13.19-3.52,5.7,0,9.72,2.76,11.62,8a1,1,0,0,1,0,.78,1,1,0,0,1-.6.51c-13.41,4.25-16.65,6.59-21.46,11.6-1.91,10.81-4.74,20.29-18.86,26.85-15.21,7.07-43,10.38-87.41,10.44q-9.69,0-18.73.06Q123.77,149,114.46,149Z" fill="#ec5c89"/><path d="M119.82,12.48l8.43,0c72.89.32,108.37.95,120.53,25.64C260.34,61.63,254.92,96,254.92,96s7.45-4.3,14.44-4.3c4.41,0,8.64,1.71,10.68,7.32-13.35,4.22-16.87,6.6-22.09,12.08-3.78,21.55-10,36.64-105.35,36.76-13.69,0-26.4.11-38.13.11C37.25,148,2,143.92,2,87.51c0-66.34,19.63-75,117.82-75m0-2c-49,0-78.91,2.06-96.75,12.93C3.89,35.1,0,56.6,0,87.51c0,28.21,8.76,44.62,28.46,53.22,17.8,7.77,44,9.24,86,9.24,6.2,0,12.62,0,19.42-.05q9,0,18.72-.06c58.57-.07,78.17-6,87.83-10.53,14.43-6.7,17.41-16.32,19.37-27.29,4.57-4.72,7.85-7,20.84-11.11a2,2,0,0,0,1.19-1,2,2,0,0,0,.08-1.57c-2.06-5.65-6.4-8.63-12.56-8.63a31.74,31.74,0,0,0-12,2.87c1.06-9.67,2.77-35.86-6.81-55.31-6.12-12.43-18.13-19.54-38.95-23-19-3.2-44.18-3.54-83.36-3.71l-8.44,0Z"/><path d="M117.6,138.49c-41.92,0-68-1.46-85.61-9.16C12.7,120.91,4.11,104.78,4.13,77c0-30.56,3.81-51.8,22.59-63.24C44.36,3,74.15,1,123,1l8.42,0c74.82.33,108.44,1.51,121.41,26.18,10.07,19.14,7.38,48.85,6.74,54.67,3.71.7,16.79,4,21.45,16.81A1,1,0,0,1,280,100h-.16a42,42,0,0,0-7-.61,29.42,29.42,0,0,0-12.86,2.77c.05,5.81-.79,12.43-6.5,18.26-11.93,12.18-43,17.88-97.81,17.95q-9.7,0-18.73.06Q126.9,138.49,117.6,138.49Z" fill="#897dff"/><path d="M123,2l8.43,0c72.89.32,107.71,1.27,120.53,25.64,10.94,20.81,6.51,55,6.51,55S274.76,84.54,280,99a43,43,0,0,0-7.13-.62A30.24,30.24,0,0,0,259,101.55c.35,18.26-8,35.71-103.31,35.83-13.69,0-26.4.11-38.13.11-77.22,0-112.52-4-112.47-60.45C5.18,10.7,24.77,2,123,2m0-2h0C74,0,44,2.06,26.2,12.93,7,24.62,3.15,46.13,3.13,77c0,28.21,8.75,44.62,28.46,53.22,17.8,7.77,44,9.24,86,9.24,6.2,0,12.62,0,19.42-.05q9,0,18.72-.06c72.38-.09,90.9-10.46,98.53-18.25,5.75-5.87,6.76-12.47,6.78-18.32a28.55,28.55,0,0,1,11.86-2.41,42,42,0,0,1,6.8.59,1.84,1.84,0,0,0,.33,0,2,2,0,0,0,1.88-2.69c-4.57-12.52-16.54-16.27-21.3-17.28.77-7.61,2.8-35.79-6.94-54.32-6.47-12.29-18.55-19.35-39.17-22.88C195.17.54,169,.18,131.39,0L123,0Z"/><path d="M36.26,77.39A4.78,4.78,0,0,1,32,74.94a5.19,5.19,0,0,1-.63-2.56A5.28,5.28,0,0,1,32,69.81a4.53,4.53,0,0,1,4.12-2.45,4.66,4.66,0,0,1,2,.43,4.5,4.5,0,0,1,1.63,1.3.51.51,0,0,1,.15.46.73.73,0,0,1-.31.42.53.53,0,0,1-.44.1.73.73,0,0,1-.42-.26,3.38,3.38,0,0,0-2.63-1.19,3.22,3.22,0,0,0-3,1.82,4.29,4.29,0,0,0-.42,1.94,4.07,4.07,0,0,0,.45,1.93,3.34,3.34,0,0,0,1.25,1.33,3.61,3.61,0,0,0,1.86.49,4.37,4.37,0,0,0,1.29-.19,2.86,2.86,0,0,0,1-.59.9.9,0,0,1,.45-.2.58.58,0,0,1,.43.15.69.69,0,0,1,.25.45.51.51,0,0,1-.17.43A4.7,4.7,0,0,1,36.26,77.39Z" fill="#fff"/><path d="M46.93,77.39a4.72,4.72,0,0,1-2.48-.66,4.9,4.9,0,0,1-1.74-1.79,5.2,5.2,0,0,1-.64-2.56,5,5,0,0,1,.66-2.57A4.8,4.8,0,0,1,44.52,68a5,5,0,0,1,2.56-.66,4.91,4.91,0,0,1,2.54.66,4.8,4.8,0,0,1,1.79,1.79,5.2,5.2,0,0,1,.67,2.57l-.56.43a4.61,4.61,0,0,1-.6,2.34,4.54,4.54,0,0,1-4,2.24Zm.15-1.26a3.64,3.64,0,0,0,1.86-.49,3.49,3.49,0,0,0,1.3-1.34,4,4,0,0,0,.47-1.92,3.9,3.9,0,0,0-.47-1.92,3.59,3.59,0,0,0-1.3-1.35,3.78,3.78,0,0,0-3.72,0,3.61,3.61,0,0,0-1.31,1.35,3.81,3.81,0,0,0-.49,1.92,3.86,3.86,0,0,0,.49,1.92,3.51,3.51,0,0,0,1.31,1.34A3.66,3.66,0,0,0,47.08,76.13ZM47,66a.65.65,0,0,1-.49-.21.67.67,0,0,1-.21-.5.65.65,0,0,1,.16-.46l2-2a.66.66,0,0,1,.48-.2.69.69,0,0,1,.51.21.72.72,0,0,1,.19.51.78.78,0,0,1,0,.26.51.51,0,0,1-.15.21l-2,2A.64.64,0,0,1,47,66ZM51.38,77.3a.75.75,0,0,1-.51-.19.66.66,0,0,1-.19-.5V73.53L51,72.11l1.06.27v4.23a.67.67,0,0,1-.2.5A.72.72,0,0,1,51.38,77.3Z" fill="#fff"/><path d="M59.17,77.39a4.75,4.75,0,0,1-4.27-2.45,5.09,5.09,0,0,1-.64-2.56,5.28,5.28,0,0,1,.61-2.57A4.65,4.65,0,0,1,56.54,68,4.56,4.56,0,0,1,59,67.36a4.74,4.74,0,0,1,2,.43,4.58,4.58,0,0,1,1.63,1.3.48.48,0,0,1,.14.46.76.76,0,0,1-.3.42.56.56,0,0,1-.45.1.73.73,0,0,1-.42-.26A3.36,3.36,0,0,0,59,68.62a3.22,3.22,0,0,0-3,1.82,4.29,4.29,0,0,0-.42,1.94,4.07,4.07,0,0,0,.45,1.93,3.36,3.36,0,0,0,1.26,1.33,3.57,3.57,0,0,0,1.85.49,4.37,4.37,0,0,0,1.29-.19,2.78,2.78,0,0,0,1-.59.89.89,0,0,1,.46-.2.61.61,0,0,1,.43.15.72.72,0,0,1,.24.45.48.48,0,0,1-.17.43A4.7,4.7,0,0,1,59.17,77.39Z" fill="#fff"/><path d="M71.48,73.28a.66.66,0,0,1-.51-.2.72.72,0,0,1-.19-.5V63.94a.69.69,0,0,1,.19-.51.69.69,0,0,1,.51-.19.65.65,0,0,1,.69.7v8.64a.68.68,0,0,1-.19.5A.63.63,0,0,1,71.48,73.28Zm0,4a.73.73,0,0,1-.51-.19.7.7,0,0,1-.19-.5V68.15a.73.73,0,0,1,.19-.51.69.69,0,0,1,.51-.19.66.66,0,0,1,.5.19.69.69,0,0,1,.19.51v8.46a.66.66,0,0,1-.19.5A.7.7,0,0,1,71.48,77.3Zm7.74,0a.68.68,0,0,1-.7-.69V71.93a3.59,3.59,0,0,0-.42-1.83A2.72,2.72,0,0,0,77,69a3.7,3.7,0,0,0-1.65-.36,3.57,3.57,0,0,0-1.59.34,2.89,2.89,0,0,0-1.13.93,2.36,2.36,0,0,0-.41,1.35h-1a3.87,3.87,0,0,1,.61-2,4.08,4.08,0,0,1,1.53-1.41,4.43,4.43,0,0,1,2.12-.51,4.86,4.86,0,0,1,2.29.53,4,4,0,0,1,1.59,1.56,5,5,0,0,1,.59,2.5v4.68a.68.68,0,0,1-.2.49A.66.66,0,0,1,79.22,77.3Z" fill="#fff"/><path d="M87.45,77.39a5.09,5.09,0,0,1-2.57-.65A4.78,4.78,0,0,1,83.09,75a5.54,5.54,0,0,1,0-5.17A4.71,4.71,0,0,1,84.88,68,5.41,5.41,0,0,1,90,68a4.66,4.66,0,0,1,1.77,1.78,5.27,5.27,0,0,1,.66,2.59A5,5,0,0,1,91.8,75,4.83,4.83,0,0,1,90,76.74,5.09,5.09,0,0,1,87.45,77.39Zm0-1.26a3.65,3.65,0,0,0,1.87-.49,3.46,3.46,0,0,0,1.3-1.33,4.2,4.2,0,0,0,0-3.86,3.42,3.42,0,0,0-1.3-1.34,3.81,3.81,0,0,0-3.74,0,3.51,3.51,0,0,0-1.31,1.34,4.2,4.2,0,0,0,0,3.86,3.56,3.56,0,0,0,1.31,1.33A3.65,3.65,0,0,0,87.45,76.13Z" fill="#fff"/><path d="M99.49,77.39A4.72,4.72,0,0,1,97,76.73a4.9,4.9,0,0,1-1.74-1.79,5.09,5.09,0,0,1-.64-2.56,5,5,0,0,1,.66-2.57A4.73,4.73,0,0,1,97.08,68a5,5,0,0,1,2.56-.66,4.93,4.93,0,0,1,2.54.66A4.8,4.8,0,0,1,104,69.81a5.2,5.2,0,0,1,.67,2.57l-.56.43a4.61,4.61,0,0,1-.6,2.34,4.54,4.54,0,0,1-4,2.24Zm.15-1.26a3.64,3.64,0,0,0,1.86-.49,3.49,3.49,0,0,0,1.3-1.34,4,4,0,0,0,.47-1.92,3.9,3.9,0,0,0-.47-1.92,3.59,3.59,0,0,0-1.3-1.35,3.78,3.78,0,0,0-3.72,0,3.61,3.61,0,0,0-1.31,1.35A3.71,3.71,0,0,0,96,72.38a3.76,3.76,0,0,0,.49,1.92,3.51,3.51,0,0,0,1.31,1.34A3.64,3.64,0,0,0,99.64,76.13Zm0,4.93a1,1,0,0,1-1-1,.88.88,0,0,1,.29-.71,1,1,0,0,1,.7-.26,1,1,0,0,1,.67.26.89.89,0,0,1,.3.71,1,1,0,0,1-1,1Zm4.32-3.76a.75.75,0,0,1-.51-.19.66.66,0,0,1-.19-.5V73.53l.34-1.42,1.06.27v4.23a.67.67,0,0,1-.2.5A.72.72,0,0,1,103.94,77.3Z" fill="#fff"/><path d="M106.71,69a.61.61,0,0,1-.45-.18.54.54,0,0,1-.18-.42.59.59,0,0,1,.18-.44.64.64,0,0,1,.45-.17h4.59a.64.64,0,0,1,.45.17.59.59,0,0,1,.18.44.54.54,0,0,1-.18.42.61.61,0,0,1-.45.18Zm4.48,8.28a3.19,3.19,0,0,1-2.88-1.69,3.62,3.62,0,0,1-.43-1.79V65a.68.68,0,0,1,.19-.5.63.63,0,0,1,.49-.2.66.66,0,0,1,.51.2.69.69,0,0,1,.2.5v8.8a2.11,2.11,0,0,0,.54,1.5,1.8,1.8,0,0,0,1.38.59h.49a.62.62,0,0,1,.47.2.71.71,0,0,1,.18.5.65.65,0,0,1-.22.5.81.81,0,0,1-.54.19Z" fill="#fff"/><path d="M124.33,77.39A4.94,4.94,0,0,1,120,74.94a5.15,5.15,0,0,1-.65-2.58,5.06,5.06,0,0,1,.64-2.55A4.65,4.65,0,0,1,121.7,68a4.75,4.75,0,0,1,2.49-.66,4.64,4.64,0,0,1,2.18.51,4.39,4.39,0,0,1,1.56,1.36V63.94a.66.66,0,0,1,.2-.51.68.68,0,0,1,.5-.19.69.69,0,0,1,.51.19.66.66,0,0,1,.2.51v8.5a5.23,5.23,0,0,1-.7,2.52,4.83,4.83,0,0,1-1.78,1.78A5,5,0,0,1,124.33,77.39Zm0-1.26a3.56,3.56,0,0,0,1.87-.5,3.69,3.69,0,0,0,1.29-1.34,4.08,4.08,0,0,0,0-3.84,3.67,3.67,0,0,0-5-1.34,3.61,3.61,0,0,0-1.32,1.34,4.08,4.08,0,0,0,0,3.84,3.77,3.77,0,0,0,1.32,1.34A3.54,3.54,0,0,0,124.33,76.13Zm.7-10a.68.68,0,0,1-.47-.17.56.56,0,0,1-.19-.43.5.5,0,0,1,.19-.42A.72.72,0,0,1,125,65h5.24a.78.78,0,0,1,.5.15.52.52,0,0,1,.19.42.59.59,0,0,1-.19.43.74.74,0,0,1-.5.17Z" fill="#fff"/><path d="M137.06,77.39a5.15,5.15,0,0,1-2.58-.65A4.75,4.75,0,0,1,132.7,75a5.47,5.47,0,0,1,0-5.17A4.68,4.68,0,0,1,134.48,68a5.15,5.15,0,0,1,2.58-.65,5,5,0,0,1,2.56.65,4.75,4.75,0,0,1,1.78,1.78,5.27,5.27,0,0,1,.66,2.59A5.05,5.05,0,0,1,141.4,75a4.75,4.75,0,0,1-1.78,1.78A5,5,0,0,1,137.06,77.39Zm0-1.26a3.67,3.67,0,0,0,1.87-.49,3.53,3.53,0,0,0,1.3-1.33,4.28,4.28,0,0,0,0-3.86,3.49,3.49,0,0,0-1.3-1.34,3.81,3.81,0,0,0-3.74,0,3.44,3.44,0,0,0-1.31,1.34,4.12,4.12,0,0,0,0,3.86,3.49,3.49,0,0,0,1.31,1.33A3.65,3.65,0,0,0,137.06,76.13ZM135,65.88a.73.73,0,0,1-.51-.17.55.55,0,0,1-.21-.46.71.71,0,0,1,.34-.61l2.13-1.4a.62.62,0,0,1,.34-.09l.2,0,.16.07,2.1,1.4a.72.72,0,0,1,.35.61.59.59,0,0,1-.2.45.72.72,0,0,1-.51.18.73.73,0,0,1-.22,0,1.06,1.06,0,0,1-.21-.11l-1.67-1.15-1.68,1.15A.66.66,0,0,1,135,65.88ZM137,81.06a.94.94,0,0,1-.68-.29.93.93,0,0,1-.29-.7.91.91,0,0,1,.29-.71,1,1,0,0,1,.7-.26,1,1,0,0,1,.67.26.89.89,0,0,1,.3.71,1,1,0,0,1-.29.7A1,1,0,0,1,137,81.06Z" fill="#fff"/><path d="M145.46,77.3a.73.73,0,0,1-.51-.19.66.66,0,0,1-.19-.5V68.15a.65.65,0,0,1,.7-.7.66.66,0,0,1,.5.19.73.73,0,0,1,.19.51v8.46a.65.65,0,0,1-.69.69Zm7.74,0a.68.68,0,0,1-.7-.69V71.93a3.59,3.59,0,0,0-.42-1.83A2.72,2.72,0,0,0,150.93,69a3.7,3.7,0,0,0-1.65-.36,3.57,3.57,0,0,0-1.59.34,2.89,2.89,0,0,0-1.13.93,2.29,2.29,0,0,0-.41,1.35h-1a3.87,3.87,0,0,1,.61-2,4.08,4.08,0,0,1,1.53-1.41,4.43,4.43,0,0,1,2.12-.51,4.86,4.86,0,0,1,2.29.53,4,4,0,0,1,1.59,1.56,5,5,0,0,1,.59,2.5v4.68a.68.68,0,0,1-.2.49A.66.66,0,0,1,153.2,77.3Z" fill="#fff"/><path d="M161.28,77.39a5,5,0,0,1-2.51-.64A4.46,4.46,0,0,1,157.05,75a5.68,5.68,0,0,1,0-5.2A4.68,4.68,0,0,1,158.86,68,5.5,5.5,0,0,1,164,68a4.63,4.63,0,0,1,1.77,1.77,5.43,5.43,0,0,1,.65,2.61l-.81.43a4.93,4.93,0,0,1-.55,2.37,4.21,4.21,0,0,1-1.54,1.62A4.34,4.34,0,0,1,161.28,77.39Zm.19,3.79a5.55,5.55,0,0,1-2.51-.53,4.85,4.85,0,0,1-1.78-1.45.56.56,0,0,1,.09-.88.68.68,0,0,1,.52-.11.69.69,0,0,1,.45.27,3.89,3.89,0,0,0,1.34,1,4.39,4.39,0,0,0,1.9.39,3.51,3.51,0,0,0,1.82-.48,3.55,3.55,0,0,0,1.29-1.37,4.28,4.28,0,0,0,.48-2.07V73.26l.52-1,.84.16v3.67a5.17,5.17,0,0,1-.65,2.62,4.77,4.77,0,0,1-4.31,2.51Zm0-5.05a3.65,3.65,0,0,0,1.88-.48,3.48,3.48,0,0,0,1.29-1.32,4.28,4.28,0,0,0,0-3.9,3.37,3.37,0,0,0-1.29-1.33,3.65,3.65,0,0,0-1.88-.48,3.69,3.69,0,0,0-1.89.48,3.39,3.39,0,0,0-1.3,1.33,4.36,4.36,0,0,0,0,3.9,3.51,3.51,0,0,0,1.3,1.32A3.69,3.69,0,0,0,161.43,76.13Z" fill="#fff"/><path d="M173.78,69a.61.61,0,0,1-.45-.18.54.54,0,0,1-.18-.42.59.59,0,0,1,.18-.44.64.64,0,0,1,.45-.17h4.59a.64.64,0,0,1,.45.17.59.59,0,0,1,.18.44.54.54,0,0,1-.18.42.61.61,0,0,1-.45.18Zm4.48,8.28a3.22,3.22,0,0,1-1.7-.45,3.27,3.27,0,0,1-1.18-1.24,3.62,3.62,0,0,1-.43-1.79V65a.68.68,0,0,1,.19-.5.61.61,0,0,1,.49-.2.68.68,0,0,1,.7.7v8.8a2.11,2.11,0,0,0,.54,1.5,1.81,1.81,0,0,0,1.39.59h.48a.6.6,0,0,1,.47.2.71.71,0,0,1,.18.5.64.64,0,0,1-.21.5.85.85,0,0,1-.54.19Z" fill="#fff"/><path d="M186,77.39a4.72,4.72,0,0,1-2.48-.66,4.82,4.82,0,0,1-1.74-1.79,5.09,5.09,0,0,1-.64-2.56,5,5,0,0,1,.66-2.57A4.73,4.73,0,0,1,183.57,68a5.26,5.26,0,0,1,5.1,0,4.71,4.71,0,0,1,1.78,1.79,5.1,5.1,0,0,1,.68,2.57l-.56.43a4.61,4.61,0,0,1-.6,2.34,4.54,4.54,0,0,1-4,2.24Zm.14-1.26a3.65,3.65,0,0,0,1.87-.49,3.46,3.46,0,0,0,1.29-1.34,3.85,3.85,0,0,0,.48-1.92,3.8,3.8,0,0,0-.48-1.92,3.67,3.67,0,0,0-5-1.35A3.61,3.61,0,0,0,183,70.46a3.71,3.71,0,0,0-.49,1.92A3.76,3.76,0,0,0,183,74.3a3.51,3.51,0,0,0,1.31,1.34A3.63,3.63,0,0,0,186.12,76.13ZM186,66a.69.69,0,0,1-.5-.21.7.7,0,0,1-.2-.5.65.65,0,0,1,.16-.46l2-2a.68.68,0,0,1,.49-.2.66.66,0,0,1,.5.21.73.73,0,0,1,.2.51.78.78,0,0,1,0,.26.54.54,0,0,1-.16.21l-2,2A.64.64,0,0,1,186,66Zm4.43,11.34a.73.73,0,0,1-.51-.19.67.67,0,0,1-.2-.5V73.53l.35-1.42,1.06.27v4.23a.67.67,0,0,1-.2.5A.72.72,0,0,1,190.43,77.3Z" fill="#fff"/><path d="M194.8,65.58a.94.94,0,0,1-.68-.29.93.93,0,0,1-.29-.7.89.89,0,0,1,.3-.71,1,1,0,0,1,.69-.26.94.94,0,0,1,.67.26.89.89,0,0,1,.3.71,1,1,0,0,1-.29.7A1,1,0,0,1,194.8,65.58Zm0,11.72a.66.66,0,0,1-.7-.71V68.15a.69.69,0,0,1,.19-.51.66.66,0,0,1,.51-.19.64.64,0,0,1,.49.19.69.69,0,0,1,.19.51v8.44a.69.69,0,0,1-.19.52A.68.68,0,0,1,194.82,77.3Z" fill="#fff"/><path d="M208.7,77.39a4.78,4.78,0,0,1-4.28-2.45,5.09,5.09,0,0,1-.64-2.56,5.39,5.39,0,0,1,.61-2.57A4.6,4.6,0,0,1,206.07,68a4.54,4.54,0,0,1,2.45-.66,4.69,4.69,0,0,1,2,.43,4.58,4.58,0,0,1,1.63,1.3.48.48,0,0,1,.14.46.67.67,0,0,1-.3.42.53.53,0,0,1-.44.1.72.72,0,0,1-.43-.26,3.34,3.34,0,0,0-2.62-1.19,3.19,3.19,0,0,0-3,1.82,4.17,4.17,0,0,0-.43,1.94,4.07,4.07,0,0,0,.45,1.93,3.36,3.36,0,0,0,1.26,1.33,3.58,3.58,0,0,0,1.86.49,4.35,4.35,0,0,0,1.28-.19,2.9,2.9,0,0,0,1-.59.83.83,0,0,1,.45-.2.6.6,0,0,1,.43.15.72.72,0,0,1,.24.45.48.48,0,0,1-.17.43A4.67,4.67,0,0,1,208.7,77.39Z" fill="#fff"/><path d="M215.73,73.28a.66.66,0,0,1-.51-.2.68.68,0,0,1-.19-.5V63.94a.66.66,0,0,1,.19-.51.69.69,0,0,1,.51-.19.65.65,0,0,1,.69.7v8.64a.68.68,0,0,1-.19.5A.63.63,0,0,1,215.73,73.28Zm0,4a.73.73,0,0,1-.51-.19.66.66,0,0,1-.19-.5V68.15a.65.65,0,0,1,.7-.7.66.66,0,0,1,.5.19.69.69,0,0,1,.19.51v8.46a.66.66,0,0,1-.19.5A.7.7,0,0,1,215.73,77.3Zm7.74,0a.68.68,0,0,1-.7-.69V71.93a3.59,3.59,0,0,0-.42-1.83A2.72,2.72,0,0,0,221.2,69a3.7,3.7,0,0,0-1.65-.36A3.57,3.57,0,0,0,218,69a2.89,2.89,0,0,0-1.13.93,2.36,2.36,0,0,0-.41,1.35h-1a3.87,3.87,0,0,1,.61-2,4.08,4.08,0,0,1,1.53-1.41,4.43,4.43,0,0,1,2.12-.51,4.86,4.86,0,0,1,2.29.53,4,4,0,0,1,1.59,1.56,5,5,0,0,1,.59,2.5v4.68a.68.68,0,0,1-.2.49A.66.66,0,0,1,223.47,77.3Z" fill="#fff"/><path d="M231.68,77.39a5.19,5.19,0,0,1-2.58-.64A4.66,4.66,0,0,1,227.33,75a5.23,5.23,0,0,1-.63-2.59,5.45,5.45,0,0,1,.6-2.6A4.57,4.57,0,0,1,229,68a4.65,4.65,0,0,1,2.45-.65,4.55,4.55,0,0,1,2.39.62,4.28,4.28,0,0,1,1.57,1.72,5.48,5.48,0,0,1,.56,2.5.6.6,0,0,1-.18.46.68.68,0,0,1-.47.17h-7.65V71.68h7.8l-.78.56a4,4,0,0,0-.38-1.87,3,3,0,0,0-1.12-1.3,3.19,3.19,0,0,0-1.74-.47,3.28,3.28,0,0,0-1.8.49,3.32,3.32,0,0,0-1.2,1.34,4.37,4.37,0,0,0-.42,1.95,3.91,3.91,0,0,0,.48,2,3.61,3.61,0,0,0,1.3,1.33,3.76,3.76,0,0,0,1.91.48,4,4,0,0,0,1.31-.22,3.16,3.16,0,0,0,1-.57.74.74,0,0,1,.45-.17.59.59,0,0,1,.43.14.62.62,0,0,1,.24.46.52.52,0,0,1-.2.44,5,5,0,0,1-1.51.83A5.27,5.27,0,0,1,231.68,77.39Zm-2.45-11.51a.75.75,0,0,1-.51-.17.55.55,0,0,1-.21-.46.72.72,0,0,1,.35-.61l2.12-1.4a.64.64,0,0,1,.34-.09l.2,0,.16.07,2.11,1.4a.71.71,0,0,1,.34.61.59.59,0,0,1-.2.45.71.71,0,0,1-.5.18.8.8,0,0,1-.23,0,1.36,1.36,0,0,1-.2-.11l-1.68-1.15-1.67,1.15A.66.66,0,0,1,229.23,65.88Zm3.69-3a.69.69,0,0,1-.49-.19.68.68,0,0,1-.21-.51.78.78,0,0,1,.16-.47l2-2a.66.66,0,0,1,.48-.2.67.67,0,0,1,.52.21.76.76,0,0,1,.19.51.7.7,0,0,1-.05.25.48.48,0,0,1-.15.22l-2,2A.63.63,0,0,1,232.92,62.91Z" fill="#fff"/><path d="M52.13,101.39a4.78,4.78,0,0,1-4.28-2.45,5.2,5.2,0,0,1-.64-2.56,5.39,5.39,0,0,1,.61-2.57A4.6,4.6,0,0,1,49.5,92,4.54,4.54,0,0,1,52,91.36a4.69,4.69,0,0,1,2,.43,4.58,4.58,0,0,1,1.63,1.3.48.48,0,0,1,.14.46.67.67,0,0,1-.3.42.53.53,0,0,1-.44.1.75.75,0,0,1-.43-.26A3.34,3.34,0,0,0,52,92.62a3.19,3.19,0,0,0-3,1.82,4.17,4.17,0,0,0-.43,1.94A4.07,4.07,0,0,0,49,98.31a3.36,3.36,0,0,0,1.26,1.33,3.58,3.58,0,0,0,1.86.49,4.35,4.35,0,0,0,1.28-.19,2.9,2.9,0,0,0,1-.59.83.83,0,0,1,.45-.2.6.6,0,0,1,.43.15.67.67,0,0,1,.24.45.48.48,0,0,1-.17.43A4.67,4.67,0,0,1,52.13,101.39Z" fill="#fff"/><path d="M59.16,97.28a.66.66,0,0,1-.51-.2.72.72,0,0,1-.19-.5V87.94a.69.69,0,0,1,.19-.51.69.69,0,0,1,.51-.19.65.65,0,0,1,.69.7v8.64a.68.68,0,0,1-.19.5A.63.63,0,0,1,59.16,97.28Zm0,4a.73.73,0,0,1-.51-.19.7.7,0,0,1-.19-.5V92.15a.73.73,0,0,1,.19-.51.69.69,0,0,1,.51-.19.66.66,0,0,1,.5.19.69.69,0,0,1,.19.51v8.46a.66.66,0,0,1-.19.5A.7.7,0,0,1,59.16,101.3Zm7.74,0a.68.68,0,0,1-.7-.69V95.93a3.59,3.59,0,0,0-.42-1.83A2.72,2.72,0,0,0,64.63,93,3.7,3.7,0,0,0,63,92.66a3.57,3.57,0,0,0-1.59.34,2.89,2.89,0,0,0-1.13.93,2.36,2.36,0,0,0-.41,1.35h-1a3.87,3.87,0,0,1,.61-2A4.08,4.08,0,0,1,61,91.85a4.43,4.43,0,0,1,2.12-.51,4.86,4.86,0,0,1,2.29.53A4,4,0,0,1,67,93.43a5,5,0,0,1,.59,2.5v4.68a.68.68,0,0,1-.2.49A.66.66,0,0,1,66.9,101.3Z" fill="#fff"/><path d="M75,101.39a4.73,4.73,0,0,1-2.49-.66,4.79,4.79,0,0,1-1.73-1.79,5.09,5.09,0,0,1-.64-2.56,5,5,0,0,1,.65-2.57A4.8,4.8,0,0,1,72.57,92a5,5,0,0,1,2.56-.66,4.94,4.94,0,0,1,2.55.66,4.78,4.78,0,0,1,1.78,1.79,5.1,5.1,0,0,1,.67,2.57l-.55.43A4.61,4.61,0,0,1,79,99.15a4.42,4.42,0,0,1-1.64,1.63A4.49,4.49,0,0,1,75,101.39Zm.14-1.26A3.58,3.58,0,0,0,77,99.64a3.49,3.49,0,0,0,1.3-1.34,3.85,3.85,0,0,0,.48-1.92,3.8,3.8,0,0,0-.48-1.92A3.59,3.59,0,0,0,77,93.11a3.49,3.49,0,0,0-1.86-.49,3.53,3.53,0,0,0-1.85.49A3.64,3.64,0,0,0,72,94.46a3.8,3.8,0,0,0-.48,1.92A3.85,3.85,0,0,0,72,98.3a3.54,3.54,0,0,0,1.32,1.34A3.63,3.63,0,0,0,75.13,100.13Zm4.3,1.17a.72.72,0,0,1-.5-.19.67.67,0,0,1-.2-.5V97.53l.34-1.42,1.06.27v4.23a.66.66,0,0,1-.19.5A.75.75,0,0,1,79.43,101.3Z" fill="#fff"/><path d="M83.81,89.58a.94.94,0,0,1-.69-.29,1,1,0,0,1-.29-.7.89.89,0,0,1,.3-.71,1,1,0,0,1,.69-.26,1,1,0,0,1,.68.26.89.89,0,0,1,.3.71,1,1,0,0,1-1,1Zm0,11.72a.73.73,0,0,1-.51-.19.69.69,0,0,1-.19-.52V92.15a.65.65,0,0,1,.7-.7.66.66,0,0,1,.5.19.69.69,0,0,1,.19.51v8.44a.69.69,0,0,1-.19.52A.7.7,0,0,1,83.82,101.3Z" fill="#fff"/><path d="M87.8,102.7a.65.65,0,0,1-.58-.3.68.68,0,0,1,0-.69l5.65-14.09a.57.57,0,0,1,.26-.31.77.77,0,0,1,.39-.11.62.62,0,0,1,.58.32.75.75,0,0,1,0,.67L88.45,102.3a.56.56,0,0,1-.27.31A.85.85,0,0,1,87.8,102.7Z" fill="#fff"/><path d="M97.18,97.28a.63.63,0,0,1-.51-.2.68.68,0,0,1-.19-.5V87.94a.65.65,0,0,1,.7-.7.64.64,0,0,1,.49.19.66.66,0,0,1,.19.51v8.64a.68.68,0,0,1-.19.5A.61.61,0,0,1,97.18,97.28Zm0,4a.69.69,0,0,1-.51-.19.66.66,0,0,1-.19-.5V92.15a.69.69,0,0,1,.19-.51.66.66,0,0,1,.51-.19.64.64,0,0,1,.49.19.69.69,0,0,1,.19.51v8.46a.66.66,0,0,1-.19.5A.68.68,0,0,1,97.18,101.3Zm7.74,0a.69.69,0,0,1-.5-.2.64.64,0,0,1-.2-.49V95.93a3.49,3.49,0,0,0-.43-1.83A2.66,2.66,0,0,0,102.64,93a3.92,3.92,0,0,0-3.24,0,2.86,2.86,0,0,0-1.12.93,2.3,2.3,0,0,0-.42,1.35h-1a3.88,3.88,0,0,1,.62-2A4.08,4.08,0,0,1,99,91.85a4.4,4.4,0,0,1,2.12-.51,4.92,4.92,0,0,1,2.29.53A4,4,0,0,1,105,93.43a5,5,0,0,1,.58,2.5v4.68a.67.67,0,0,1-.19.49A.7.7,0,0,1,104.92,101.3Z" fill="#fff"/><path d="M113.15,101.39a5.15,5.15,0,0,1-2.58-.65A4.75,4.75,0,0,1,108.79,99a5.47,5.47,0,0,1,0-5.17A4.68,4.68,0,0,1,110.57,92a5.15,5.15,0,0,1,2.58-.65,5,5,0,0,1,2.56.65,4.66,4.66,0,0,1,1.77,1.78,5.17,5.17,0,0,1,.67,2.59,5.05,5.05,0,0,1-.66,2.58,4.83,4.83,0,0,1-1.78,1.78A5,5,0,0,1,113.15,101.39Zm0-1.26a3.67,3.67,0,0,0,1.87-.49,3.44,3.44,0,0,0,1.29-1.33,4.2,4.2,0,0,0,0-3.86A3.4,3.4,0,0,0,115,93.11a3.83,3.83,0,0,0-3.75,0,3.49,3.49,0,0,0-1.3,1.34,4.12,4.12,0,0,0,0,3.86,3.53,3.53,0,0,0,1.3,1.33A3.68,3.68,0,0,0,113.15,100.13Zm-2.09-10.25a.76.76,0,0,1-.52-.17.57.57,0,0,1-.2-.46.71.71,0,0,1,.34-.61l2.12-1.4a.65.65,0,0,1,.35-.09l.19,0,.17.07,2.1,1.4a.71.71,0,0,1,.34.61.58.58,0,0,1-.19.45.76.76,0,0,1-.51.18.73.73,0,0,1-.22,0,1.06,1.06,0,0,1-.21-.11l-1.67-1.15-1.68,1.15A.66.66,0,0,1,111.06,89.88Zm2.07,15.18a.94.94,0,0,1-.69-.29,1,1,0,0,1-.29-.7.89.89,0,0,1,.3-.71,1,1,0,0,1,.7-.26,1,1,0,0,1,.67.26.89.89,0,0,1,.3.71,1,1,0,0,1-1,1Z" fill="#fff"/><path d="M121.55,105.51a.69.69,0,0,1-.51-.19.69.69,0,0,1-.19-.51v-8.5a5.11,5.11,0,0,1,.67-2.53A4.82,4.82,0,0,1,123.31,92a5,5,0,0,1,2.52-.65,5.05,5.05,0,0,1,2.58.66,4.8,4.8,0,0,1,1.79,1.79,5,5,0,0,1,.66,2.57,5.2,5.2,0,0,1-.64,2.56,4.9,4.9,0,0,1-1.74,1.79,4.72,4.72,0,0,1-2.48.66,4.66,4.66,0,0,1-2.19-.52,4.24,4.24,0,0,1-1.57-1.36v5.3a.73.73,0,0,1-.19.51A.72.72,0,0,1,121.55,105.51Zm4.28-5.38a3.71,3.71,0,0,0,1.88-.49A3.49,3.49,0,0,0,129,98.3a3.85,3.85,0,0,0,.48-1.92,3.8,3.8,0,0,0-.48-1.92,3.52,3.52,0,0,0-3.18-1.84,3.53,3.53,0,0,0-1.85.49,3.49,3.49,0,0,0-1.29,1.35,3.8,3.8,0,0,0-.47,1.92,3.85,3.85,0,0,0,.47,1.92A3.4,3.4,0,0,0,124,99.64,3.63,3.63,0,0,0,125.83,100.13Z" fill="#fff"/><path d="M138.22,93a.61.61,0,0,1-.45-.18.54.54,0,0,1-.18-.42.59.59,0,0,1,.18-.44.64.64,0,0,1,.45-.17h4.59a.64.64,0,0,1,.45.17.59.59,0,0,1,.18.44.54.54,0,0,1-.18.42.61.61,0,0,1-.45.18Zm4.48,8.28a3.22,3.22,0,0,1-1.7-.45,3.27,3.27,0,0,1-1.18-1.24,3.62,3.62,0,0,1-.43-1.79V89a.68.68,0,0,1,.19-.5.61.61,0,0,1,.49-.2.67.67,0,0,1,.51.2.68.68,0,0,1,.19.5v8.8a2.11,2.11,0,0,0,.54,1.5,1.82,1.82,0,0,0,1.39.59h.49a.6.6,0,0,1,.46.2.71.71,0,0,1,.18.5.64.64,0,0,1-.21.5.85.85,0,0,1-.54.19Z" fill="#fff"/><path d="M146.79,97.28a.66.66,0,0,1-.52-.2.72.72,0,0,1-.19-.5V87.94a.66.66,0,0,1,.71-.7.64.64,0,0,1,.49.19.66.66,0,0,1,.19.51v8.64a.68.68,0,0,1-.19.5A.61.61,0,0,1,146.79,97.28Zm0,4a.74.74,0,0,1-.52-.19.7.7,0,0,1-.19-.5V92.15a.73.73,0,0,1,.19-.51.69.69,0,0,1,.52-.19.64.64,0,0,1,.49.19.69.69,0,0,1,.19.51v8.46a.66.66,0,0,1-.19.5A.68.68,0,0,1,146.79,101.3Zm7.74,0a.69.69,0,0,1-.51-.2.68.68,0,0,1-.2-.49V95.93a3.59,3.59,0,0,0-.42-1.83A2.66,2.66,0,0,0,152.25,93a3.7,3.7,0,0,0-1.65-.36A3.57,3.57,0,0,0,149,93a3,3,0,0,0-1.13.93,2.36,2.36,0,0,0-.41,1.35h-1a3.87,3.87,0,0,1,.61-2,4.23,4.23,0,0,1,1.53-1.41,4.47,4.47,0,0,1,2.13-.51,4.85,4.85,0,0,1,2.28.53,4,4,0,0,1,1.6,1.56,5,5,0,0,1,.58,2.5v4.68a.68.68,0,0,1-.2.49A.66.66,0,0,1,154.53,101.3Z" fill="#fff"/><path d="M162.55,101.4a4.74,4.74,0,0,1-2.28-.53,3.89,3.89,0,0,1-1.59-1.55,5,5,0,0,1-.59-2.51V92.13a.68.68,0,0,1,.68-.68.69.69,0,0,1,.51.2.66.66,0,0,1,.2.48v4.68a3.61,3.61,0,0,0,.42,1.84,2.72,2.72,0,0,0,1.15,1.08,3.7,3.7,0,0,0,1.65.36,3.57,3.57,0,0,0,1.59-.34,2.83,2.83,0,0,0,1.13-.94,2.32,2.32,0,0,0,.41-1.35h1a4,4,0,0,1-2.14,3.43A4.47,4.47,0,0,1,162.55,101.4Zm.18-10.87a.58.58,0,0,1-.45-.19.6.6,0,0,1-.19-.46v-.5a.65.65,0,0,1,.57-.7l.45-.09a1.09,1.09,0,0,0,.56-.28.72.72,0,0,0,.18-.51.78.78,0,0,0-.26-.62A1,1,0,0,0,163,87a1,1,0,0,0-.43.08,1.31,1.31,0,0,0-.36.21,1,1,0,0,1-.21.11.69.69,0,0,1-.24,0,.61.61,0,0,1-.41-.15.63.63,0,0,1,0-.91,2.82,2.82,0,0,1,.73-.42,2.57,2.57,0,0,1,.85-.14,2.24,2.24,0,0,1,1.51.53,1.75,1.75,0,0,1,.6,1.38A1.53,1.53,0,0,1,164.5,89a2.77,2.77,0,0,1-1.28.53l.14.23a.84.84,0,0,1-.18.58A.6.6,0,0,1,162.73,90.53Zm3.78,10.77a.65.65,0,0,1-.68-.71V92.13a.65.65,0,0,1,.68-.68.69.69,0,0,1,.51.19.66.66,0,0,1,.2.49v8.46a.7.7,0,0,1-.2.52A.73.73,0,0,1,166.51,101.3Z" fill="#fff"/><path d="M174.15,101a.66.66,0,0,1-.51,0,.71.71,0,0,1-.38-.35l-4-8.31a.66.66,0,0,1,0-.51.7.7,0,0,1,.36-.36.66.66,0,0,1,.51,0,.64.64,0,0,1,.36.35l3.94,8.32a.66.66,0,0,1,.09.5A.52.52,0,0,1,174.15,101Zm-2,4.59a.85.85,0,0,1-.33-.07.59.59,0,0,1-.34-.87l5.82-12.81a.59.59,0,0,1,.86-.33.56.56,0,0,1,.34.85l-5.83,12.82A.57.57,0,0,1,172.15,105.58Z" fill="#fff"/><path d="M185,93a.61.61,0,0,1-.45-.18.54.54,0,0,1-.18-.42.59.59,0,0,1,.18-.44.64.64,0,0,1,.45-.17h4.59A.64.64,0,0,1,190,92a.59.59,0,0,1,.18.44.54.54,0,0,1-.18.42.61.61,0,0,1-.45.18Zm4.49,8.28a3.16,3.16,0,0,1-2.88-1.69,3.62,3.62,0,0,1-.44-1.79V89a.72.72,0,0,1,.19-.5.63.63,0,0,1,.5-.2.65.65,0,0,1,.5.2.69.69,0,0,1,.2.5v8.8a2.11,2.11,0,0,0,.54,1.5,1.81,1.81,0,0,0,1.39.59h.48a.62.62,0,0,1,.47.2.71.71,0,0,1,.18.5.62.62,0,0,1-.22.5.81.81,0,0,1-.54.19Z" fill="#fff"/><path d="M193.8,89.58a.94.94,0,0,1-.68-.29,1,1,0,0,1-.29-.7.89.89,0,0,1,.3-.71,1,1,0,0,1,.69-.26.94.94,0,0,1,.67.26.89.89,0,0,1,.3.71.93.93,0,0,1-.29.7A1,1,0,0,1,193.8,89.58Zm0,11.72a.66.66,0,0,1-.7-.71V92.15a.69.69,0,0,1,.19-.51.66.66,0,0,1,.51-.19.64.64,0,0,1,.49.19.69.69,0,0,1,.19.51v8.44a.69.69,0,0,1-.19.52A.68.68,0,0,1,193.82,101.3Z" fill="#fff"/><path d="M198.73,101.3a.73.73,0,0,1-.51-.19.66.66,0,0,1-.19-.5V92.15a.65.65,0,0,1,.7-.7.66.66,0,0,1,.5.19.73.73,0,0,1,.19.51v8.46a.65.65,0,0,1-.69.69Zm7.74,0a.68.68,0,0,1-.7-.69V95.93a3.59,3.59,0,0,0-.42-1.83A2.72,2.72,0,0,0,204.2,93a3.7,3.7,0,0,0-1.65-.36A3.57,3.57,0,0,0,201,93a2.89,2.89,0,0,0-1.13.93,2.36,2.36,0,0,0-.41,1.35h-1a3.78,3.78,0,0,1,.61-2,4.08,4.08,0,0,1,1.53-1.41,4.43,4.43,0,0,1,2.12-.51,4.86,4.86,0,0,1,2.29.53,4,4,0,0,1,1.59,1.56,5,5,0,0,1,.59,2.5v4.68a.68.68,0,0,1-.2.49A.66.66,0,0,1,206.47,101.3Z" fill="#fff"/><path d="M210.92,97.28a.63.63,0,0,1-.51-.2.68.68,0,0,1-.19-.5V87.94a.65.65,0,0,1,.7-.7.64.64,0,0,1,.49.19.66.66,0,0,1,.19.51v8.64a.68.68,0,0,1-.19.5A.61.61,0,0,1,210.92,97.28Zm0,4a.69.69,0,0,1-.51-.19.66.66,0,0,1-.19-.5V92.15a.69.69,0,0,1,.19-.51.66.66,0,0,1,.51-.19.64.64,0,0,1,.49.19.69.69,0,0,1,.19.51v8.46a.66.66,0,0,1-.19.5A.68.68,0,0,1,210.92,101.3Zm7.74,0a.71.71,0,0,1-.51-.2.67.67,0,0,1-.19-.49V95.93a3.49,3.49,0,0,0-.43-1.83A2.66,2.66,0,0,0,216.38,93a3.92,3.92,0,0,0-3.24,0,2.86,2.86,0,0,0-1.12.93,2.3,2.3,0,0,0-.42,1.35h-1a3.88,3.88,0,0,1,.62-2,4.08,4.08,0,0,1,1.53-1.41,4.4,4.4,0,0,1,2.12-.51,4.92,4.92,0,0,1,2.29.53,4,4,0,0,1,1.59,1.56,5,5,0,0,1,.58,2.5v4.68a.67.67,0,0,1-.19.49A.7.7,0,0,1,218.66,101.3Z" fill="#fff"/><path d="M50.6,51.71H41.12A.93.93,0,0,1,40,50.63V47.12a1.15,1.15,0,0,1,.26-.83,1.12,1.12,0,0,1,.82-.25H49.2a.7.7,0,0,0,.58-.26,1,1,0,0,0,.19-.61,1.18,1.18,0,0,0-.19-.75.8.8,0,0,0-.58-.27l-4.5-.63a6.51,6.51,0,0,1-3.38-1.38A4.49,4.49,0,0,1,40,38.54V35.39a4.78,4.78,0,0,1,1.66-3.92,6.91,6.91,0,0,1,4.56-1.36h8.39a.93.93,0,0,1,1.09,1.08v3.57a1.12,1.12,0,0,1-.26.82,1.15,1.15,0,0,1-.83.26h-7a.73.73,0,0,0-.6.25,1,1,0,0,0-.21.65,1,1,0,0,0,.21.66.8.8,0,0,0,.6.3l4.47.6a6.62,6.62,0,0,1,3.39,1.38,4.46,4.46,0,0,1,1.29,3.6v3.15a4.76,4.76,0,0,1-1.66,3.91A7,7,0,0,1,50.6,51.71Z" fill="#fff"/><path d="M78.47,46a7.33,7.33,0,0,1-.4,2.5,4.19,4.19,0,0,1-1.44,1.92,7.73,7.73,0,0,1-2.84,1.25,19.4,19.4,0,0,1-4.59.45,19.4,19.4,0,0,1-4.59-.45,7.68,7.68,0,0,1-2.83-1.25,4.19,4.19,0,0,1-1.44-1.92,7.32,7.32,0,0,1-.41-2.5V31.19a1.15,1.15,0,0,1,.26-.83,1.12,1.12,0,0,1,.82-.25h4.71a.92.92,0,0,1,1.08,1.08V44.87a1.27,1.27,0,0,0,.46,1,3.23,3.23,0,0,0,2,.41,3.33,3.33,0,0,0,2-.41,1.3,1.3,0,0,0,.46-1V31.19a1.15,1.15,0,0,1,.25-.83,1.12,1.12,0,0,1,.82-.25h4.56a.92.92,0,0,1,1.08,1.08Z" fill="#fff"/><path d="M95.06,51.71H83.54a.93.93,0,0,1-1.08-1.08V31.19a1.15,1.15,0,0,1,.26-.83,1.12,1.12,0,0,1,.82-.25h9.57a6.93,6.93,0,0,1,4.35,1.12,4.18,4.18,0,0,1,1.41,3.47v1.44a4.24,4.24,0,0,1-.43,2,2.7,2.7,0,0,1-1.34,1.19A4,4,0,0,1,100,40.7a5.16,5.16,0,0,1,.93,3.33v2.76a4.59,4.59,0,0,1-1.42,3.72A6.74,6.74,0,0,1,95.06,51.71Zm-5.85-16.5v3.24h2.55a1.14,1.14,0,0,0,.86-.3,1.26,1.26,0,0,0,.28-.9v-.84a1.26,1.26,0,0,0-.28-.9,1.14,1.14,0,0,0-.86-.3Zm0,7.86v3.54h3.9a1.14,1.14,0,0,0,.86-.3,1.26,1.26,0,0,0,.28-.9V44.24a1.22,1.22,0,0,0-.28-.89,1.17,1.17,0,0,0-.86-.28Z" fill="#fff"/><path d="M118.58,51.71h-7.32q-3.75,0-5.56-1.5a5.65,5.65,0,0,1-1.82-4.62V36.26a5.71,5.71,0,0,1,1.82-4.64q1.81-1.52,5.56-1.51h7.32a.92.92,0,0,1,1.08,1.08v3.63a1.12,1.12,0,0,1-.25.82,1.15,1.15,0,0,1-.83.26h-6a2.13,2.13,0,0,0-1.38.37,1.39,1.39,0,0,0-.45,1.13v7.14a1.28,1.28,0,0,0,.45,1.09,2.26,2.26,0,0,0,1.38.35h6a.92.92,0,0,1,1.08,1.08v3.57a1.12,1.12,0,0,1-.25.82A1.15,1.15,0,0,1,118.58,51.71Z" fill="#fff"/><path d="M128.75,51.71h-4.62a.93.93,0,0,1-1.08-1.08V31.19a1.15,1.15,0,0,1,.26-.83,1.12,1.12,0,0,1,.82-.25h10q3.36,0,4.64,1.39A5.16,5.16,0,0,1,140,35.12V36.5a5.47,5.47,0,0,1-.37,2.14,2.35,2.35,0,0,1-1.31,1.28A4,4,0,0,1,141,41.24a4.41,4.41,0,0,1,1,3v6.36a1.12,1.12,0,0,1-.25.82,1.15,1.15,0,0,1-.83.26h-4.65a.93.93,0,0,1-1.08-1.08V46a1.55,1.55,0,0,0-.25-1,1.09,1.09,0,0,0-.89-.31h-4.2v5.88a1.12,1.12,0,0,1-.25.82A1.15,1.15,0,0,1,128.75,51.71Zm1.08-16.2v3.84h2.25a1.18,1.18,0,0,0,1-.41,1.76,1.76,0,0,0,.27-1v-1a1.79,1.79,0,0,0-.27-1,1.18,1.18,0,0,0-1-.4Z" fill="#fff"/><path d="M145.94,51.71a.93.93,0,0,1-1.08-1.08V47.06a1.15,1.15,0,0,1,.26-.83,1.12,1.12,0,0,1,.82-.25h3V35.9h-3a.93.93,0,0,1-1.08-1.08V31.19a1.15,1.15,0,0,1,.26-.83,1.12,1.12,0,0,1,.82-.25h12.78a.92.92,0,0,1,1.08,1.08v3.63a1.12,1.12,0,0,1-.25.82,1.15,1.15,0,0,1-.83.26h-2.91V46h2.91a.92.92,0,0,1,1.08,1.08v3.57a1.12,1.12,0,0,1-.25.82,1.15,1.15,0,0,1-.83.26Z" fill="#fff"/><path d="M176.09,51.71H164.57a.93.93,0,0,1-1.08-1.08V31.19a1.15,1.15,0,0,1,.26-.83,1.12,1.12,0,0,1,.82-.25h9.57a6.93,6.93,0,0,1,4.35,1.12,4.18,4.18,0,0,1,1.41,3.47v1.44a4.24,4.24,0,0,1-.43,2,2.7,2.7,0,0,1-1.34,1.19A4,4,0,0,1,181,40.7a5.16,5.16,0,0,1,.93,3.33v2.76a4.59,4.59,0,0,1-1.42,3.72A6.74,6.74,0,0,1,176.09,51.71Zm-5.85-16.5v3.24h2.55a1.14,1.14,0,0,0,.86-.3,1.26,1.26,0,0,0,.28-.9v-.84a1.26,1.26,0,0,0-.28-.9,1.14,1.14,0,0,0-.86-.3Zm0,7.86v3.54h3.9a1.14,1.14,0,0,0,.86-.3,1.26,1.26,0,0,0,.28-.9V44.24a1.22,1.22,0,0,0-.28-.89,1.17,1.17,0,0,0-.86-.28Z" fill="#fff"/><path d="M201.59,51.71H186.32a.93.93,0,0,1-1.08-1.08V31.19a1.15,1.15,0,0,1,.26-.83,1.12,1.12,0,0,1,.82-.25H191a.92.92,0,0,1,1.08,1.08V46h4.11V41.18a1.15,1.15,0,0,1,.26-.83,1.12,1.12,0,0,1,.82-.25h4.35a.92.92,0,0,1,1.08,1.08v9.45a1.12,1.12,0,0,1-.25.82A1.15,1.15,0,0,1,201.59,51.71Z" fill="#fff"/><path d="M221.09,51.71H207.17a.93.93,0,0,1-1.08-1.08V31.19a1.15,1.15,0,0,1,.26-.83,1.12,1.12,0,0,1,.82-.25h13.92a.92.92,0,0,1,1.08,1.08V34.7a1.12,1.12,0,0,1-.25.82,1.15,1.15,0,0,1-.83.26h-8.28v2.31h5.85a.92.92,0,0,1,1.08,1.08v3.21a1.12,1.12,0,0,1-.25.82,1.15,1.15,0,0,1-.83.26h-5.85V46h8.28a.92.92,0,0,1,1.08,1.08v3.51a1.12,1.12,0,0,1-.25.82A1.15,1.15,0,0,1,221.09,51.71Z" fill="#fff"/></g></g></svg>