<svg xmlns="http://www.w3.org/2000/svg" viewBox="0 0 83.75 128.93"><title>img_13</title><g id="Layer_2" data-name="Layer 2"><g id="element"><path d="M81.08,47.93h0m0,0-13.8,56.35-20.63,4.81L9.33,64.68,81.08,47.93m0-2H81a2.57,2.57,0,0,0-.4.06L8.87,62.73A2,2,0,0,0,7.8,66l37.32,44.41a2,2,0,0,0,1.53.71,1.73,1.73,0,0,0,.45,0l20.64-4.82a2,2,0,0,0,1.49-1.47L83,48.5a1.79,1.79,0,0,0,.09-.57,2,2,0,0,0-2-2Zm0,4Z"/><path d="M50.25,127.93a6,6,0,0,1-5.83-4.64l-1.89-8.1A6,6,0,0,1,47,108l20.61-4.81A6.33,6.33,0,0,1,69,103a6,6,0,0,1,5.84,4.64l1.89,8.1A6,6,0,0,1,72.23,123l-20.61,4.81a6.31,6.31,0,0,1-1.36.16Z" fill="#e8651c"/><path d="M69,104a5,5,0,0,1,4.86,3.87l1.9,8.1A5,5,0,0,1,72,122l-20.6,4.81a5.09,5.09,0,0,1-1.15.14,5,5,0,0,1-4.86-3.87L43.5,115a5,5,0,0,1,3.73-6l20.61-4.81A4.94,4.94,0,0,1,69,104m0-2a7.28,7.28,0,0,0-1.6.19L46.78,107a7,7,0,0,0-4.36,3.12,7,7,0,0,0-.87,5.29l1.89,8.1a7,7,0,0,0,6.81,5.41,7.14,7.14,0,0,0,1.6-.19l20.61-4.81a7,7,0,0,0,5.22-8.41l-1.89-8.1A7,7,0,0,0,69,102Z"/><path d="M45.34,88.48C26.62,88.48,6.8,71.37,2.07,51.11a40.82,40.82,0,1,1,79.5-18.56c2.52,10.79,1,23.11-4.32,33.78-5.6,11.34-14.38,18.91-24.73,21.33A31.25,31.25,0,0,1,45.34,88.48Z" fill="#ffadac"/><path d="M41.86,2A39.83,39.83,0,0,1,80.6,32.77c5,21.42-6.89,48.92-28.3,53.92a30.52,30.52,0,0,1-7,.79C26.16,87.48,7.51,70,3.05,50.88A39.84,39.84,0,0,1,41.86,2m0-2V0h0A41.84,41.84,0,0,0,1.1,51.33C3.36,61,9.28,70.68,17.35,77.84c8.46,7.51,18.4,11.64,28,11.64a32.21,32.21,0,0,0,7.41-.85c10.64-2.48,19.66-10.25,25.4-21.86,5.36-10.87,7-23.43,4.4-34.45A41.82,41.82,0,0,0,41.86,0Z"/><path d="M46.09,88.36A45,45,0,0,1,33,86.19a1,1,0,0,1-.67-.73C31.43,81.82,40.7,77,49.55,74.92a47.65,47.65,0,0,1,10.74-1.31c2.61,0,8.76.31,9.41,3.12a.91.91,0,0,1,0,.54c-.75,2.27-9.17,8.52-17.16,10.39A28.54,28.54,0,0,1,46.09,88.36Z" fill="#efa61e"/><path d="M60.29,74.61c4.78,0,8.11.94,8.44,2.34-.54,1.64-8.36,7.85-16.43,9.74a27.52,27.52,0,0,1-6.21.67,44.44,44.44,0,0,1-12.84-2.12c-.54-2.3,6.73-7.06,16.53-9.35a47.25,47.25,0,0,1,10.51-1.28m0-2h0a49.1,49.1,0,0,0-11,1.33c-7.94,1.86-19.16,6.87-18,11.75a2,2,0,0,0,1.35,1.45,46.07,46.07,0,0,0,13.44,2.22,29.42,29.42,0,0,0,6.66-.73A38.43,38.43,0,0,0,64.44,83.4c1.28-.84,5.51-3.75,6.19-5.82a2,2,0,0,0,.05-1.08c-.75-3.21-6.06-3.89-10.39-3.89Z"/></g></g></svg>