<svg xmlns="http://www.w3.org/2000/svg" viewBox="0 0 347.5 152.41"><title>img_16</title><g id="Layer_2" data-name="Layer 2"><g id="bubble_talk" data-name="bubble talk"><path d="M170.21,151.35c-86.52-.24-134.39-4.78-155.92-29C2.83,109.51-1,90.57,2.12,62.77,4.67,40.39,14.79,28.2,37,20.7S94.76,10.09,159.1,10.09h1.81c95.31.09,146,18.16,151.93,31a59.66,59.66,0,0,1,19.84-3.62c4.41,0,10.33.69,13.46,4a1.08,1.08,0,0,1,.21,1.15,1.06,1.06,0,0,1-1,.64c-11.15,0-17.66,12.64-18.18,13.7a454,454,0,0,0-10.45,45.21c-3.08,18.39-13.25,29.88-33,37.27-21.64,8.1-56.71,11.87-110.37,11.87Z" fill="#efa61e"/><path d="M159.11,11.16h1.8c95.53.08,148,18.82,151.31,31.35a58.21,58.21,0,0,1,20.46-3.95c5.36,0,10.17,1,12.69,3.68-12.41,0-19.18,14.37-19.18,14.37A453.22,453.22,0,0,0,315.69,102c-5.5,32.86-33.19,48.26-142.3,48.26h-3.18c-133.33-.35-175.67-11.52-167-87.39C7.83,22.05,37.76,11.16,159.11,11.16m0-2.13C94.64,9,59.18,12.12,36.7,19.69c-11.76,4-20.24,9.38-25.93,16.57C5.43,43,2.35,51.39,1.07,62.65-2.13,90.77,1.82,110,13.5,123.1,24.05,135,41.36,142.5,68,146.86c22.92,3.76,53.49,5.42,102.24,5.55h3.18c53.8,0,89-3.79,110.75-11.94,20.12-7.53,30.5-19.28,33.65-38.09a454.33,454.33,0,0,1,10.39-45c.7-1.39,6.9-13,17.19-13a2.11,2.11,0,0,0,1.95-1.28,2.14,2.14,0,0,0-.4-2.31c-2.73-2.88-7.52-4.34-14.24-4.34a61.59,61.59,0,0,0-19.33,3.36c-4.11-7-19-14.11-41.7-19.69-20.44-5-56.24-11-110.74-11.07Z"/><path d="M168.93,140.11c-84.61-.22-128.4-4.21-148.39-26.24-11.49-12.66-15.17-31-12.3-61.41,3.5-37,48.63-51.4,161-51.4h1.11c96,.09,146.69,18.42,152,31.3.86,0,1.7-.07,2.51-.07,8.68,0,15.24,2.84,21.26,9.22a1.08,1.08,0,0,1,.21,1.15,1.06,1.06,0,0,1-1,.64,72.73,72.73,0,0,0-19.09,2.35c.61,4.79,3.22,27.56-.13,47.53-2.92,17.48-15.06,29-38.18,36.17-23.61,7.34-60.26,10.77-115.32,10.77Z" fill="#e8651c"/><path d="M169.22,2.13h1.11c95.52.08,148,18.82,151.3,31.35,1.13-.09,2.21-.13,3.25-.13,9.21,0,15.18,3.27,20.49,8.89-12.41,0-20.27,2.65-20.27,2.65s3.76,25.69,0,48.11c-5.49,32.81-43.55,46.06-152.47,46.06h-3.69C35.61,138.69,2.1,128.8,9.3,52.56c3.08-32.65,38-50.43,159.92-50.43m0-2.13C109.28,0,69.49,4.16,44,13.09c-23.35,8.18-35,20.66-36.8,39.27-2.9,30.71.86,49.32,12.57,62.22C40,136.91,84,141,168.93,141.18h3.7c55.18,0,91.93-3.44,115.65-10.82,23.56-7.33,35.92-19.09,38.92-37,3.23-19.28,1-40.57.25-46.91a73.49,73.49,0,0,1,17.92-2.08,2.11,2.11,0,0,0,1.95-1.28,2.14,2.14,0,0,0-.4-2.31c-6.24-6.6-13-9.54-22-9.54-.6,0-1.21,0-1.84,0-3.68-7.21-18.74-14.49-42-20.2C260.62,6.05,224.82.05,170.33,0Z"/><text transform="translate(26.33 58.81)" font-size="30" fill="#fff" font-family="Bungee-Regular, Bungee">CẬ<tspan x="40.74" y="0" letter-spacing="-0.01em">P</tspan><tspan x="60.9" y="0" xml:space="preserve" letter-spacing="0em"> NH</tspan><tspan x="113.01" y="0" letter-spacing="-0.04em">Ậ</tspan><tspan x="133.71" y="0" letter-spacing="-0.01em">T</tspan><tspan x="153.09" y="0" letter-spacing="0em"> </tspan><tspan x="159.84" y="0" letter-spacing="-0.01em">S</tspan><tspan x="179.04" y="0" letter-spacing="-0.04em">TA</tspan><tspan x="218.22" y="0">TUS</tspan></text><path d="M55.44,76.37a.51.51,0,0,1-.37-.14.61.61,0,0,1-.17-.36l-.16-2.65a.7.7,0,0,1,.7-.7.63.63,0,0,1,.49.2.69.69,0,0,1,.2.5L56,75.87a.5.5,0,0,1-.51.5Zm2.17,0a.5.5,0,0,1-.51-.5l-.2-2.65a.72.72,0,0,1,.71-.72.66.66,0,0,1,.5.21.71.71,0,0,1,.2.51l-.18,2.65a.46.46,0,0,1-.16.36A.52.52,0,0,1,57.61,76.37Z" fill="#fff"/><path d="M63.76,86.67a4.94,4.94,0,0,1-4.35-2.45,5.15,5.15,0,0,1-.65-2.58,5.06,5.06,0,0,1,.64-2.55,4.65,4.65,0,0,1,1.73-1.79,4.75,4.75,0,0,1,2.49-.66,4.64,4.64,0,0,1,2.18.51,4.39,4.39,0,0,1,1.56,1.36V73.22a.66.66,0,0,1,.2-.51.68.68,0,0,1,.5-.19.69.69,0,0,1,.51.19.66.66,0,0,1,.2.51v8.5a5.23,5.23,0,0,1-.7,2.52A4.83,4.83,0,0,1,66.29,86,5,5,0,0,1,63.76,86.67Zm0-1.26a3.5,3.5,0,0,0,1.86-.5,3.63,3.63,0,0,0,1.3-1.34,4.08,4.08,0,0,0,0-3.84,3.53,3.53,0,0,0-3.16-1.83,3.53,3.53,0,0,0-1.85.49,3.61,3.61,0,0,0-1.32,1.34,4.08,4.08,0,0,0,0,3.84,3.77,3.77,0,0,0,1.32,1.34A3.54,3.54,0,0,0,63.76,85.41Zm.7-10a.68.68,0,0,1-.47-.17.56.56,0,0,1-.19-.43.5.5,0,0,1,.19-.42.72.72,0,0,1,.47-.15H69.7a.78.78,0,0,1,.5.15.52.52,0,0,1,.19.42.59.59,0,0,1-.19.43.74.74,0,0,1-.5.17Z" fill="#fff"/><path d="M76.34,86.67A4.72,4.72,0,0,1,73.86,86a4.9,4.9,0,0,1-1.74-1.79,5.2,5.2,0,0,1-.64-2.56,5,5,0,0,1,.66-2.57,4.73,4.73,0,0,1,1.79-1.79,5,5,0,0,1,2.56-.66A4.93,4.93,0,0,1,79,77.3a4.8,4.8,0,0,1,1.79,1.79,5.2,5.2,0,0,1,.67,2.57l-.56.43a4.54,4.54,0,0,1-.6,2.33,4.45,4.45,0,0,1-1.64,1.64A4.6,4.6,0,0,1,76.34,86.67Zm.15-1.26a3.64,3.64,0,0,0,1.86-.49,3.49,3.49,0,0,0,1.3-1.34,4,4,0,0,0,.47-1.92,3.9,3.9,0,0,0-.47-1.92,3.59,3.59,0,0,0-1.3-1.35,3.78,3.78,0,0,0-3.72,0,3.61,3.61,0,0,0-1.31,1.35,3.71,3.71,0,0,0-.49,1.92,3.76,3.76,0,0,0,.49,1.92,3.51,3.51,0,0,0,1.31,1.34A3.64,3.64,0,0,0,76.49,85.41Zm4.3,1.17a.75.75,0,0,1-.51-.19.66.66,0,0,1-.19-.5V82.81l.34-1.42,1.06.27v4.23a.67.67,0,0,1-.2.5A.72.72,0,0,1,80.79,86.58Z" fill="#fff"/><path d="M84.89,86.58a.73.73,0,0,1-.51-.19.66.66,0,0,1-.19-.5V77.43a.67.67,0,0,1,.19-.51.69.69,0,0,1,.51-.19.66.66,0,0,1,.5.19.71.71,0,0,1,.19.51v8.46a.65.65,0,0,1-.69.69Zm7.74,0a.68.68,0,0,1-.7-.69V81.21a3.59,3.59,0,0,0-.42-1.83,2.72,2.72,0,0,0-1.15-1.08,3.7,3.7,0,0,0-1.65-.36,3.57,3.57,0,0,0-1.59.34,2.89,2.89,0,0,0-1.13.93,2.29,2.29,0,0,0-.41,1.35h-1a3.78,3.78,0,0,1,.61-2,4.08,4.08,0,0,1,1.53-1.41,4.4,4.4,0,0,1,2.12-.51,4.89,4.89,0,0,1,2.29.53,4,4,0,0,1,1.59,1.56,5,5,0,0,1,.59,2.5v4.68a.68.68,0,0,1-.69.69Z" fill="#fff"/><path d="M100.71,86.67A5,5,0,0,1,98.19,86a4.51,4.51,0,0,1-1.71-1.78,5.6,5.6,0,0,1,0-5.2,4.66,4.66,0,0,1,1.78-1.77,5.14,5.14,0,0,1,2.58-.64,5.09,5.09,0,0,1,2.58.64,4.63,4.63,0,0,1,1.77,1.77,5.43,5.43,0,0,1,.65,2.61l-.81.43a4.83,4.83,0,0,1-.56,2.37A4.12,4.12,0,0,1,103,86.08,4.34,4.34,0,0,1,100.71,86.67Zm.18,3.79a5.54,5.54,0,0,1-2.5-.53,4.85,4.85,0,0,1-1.78-1.45.56.56,0,0,1,.09-.88.68.68,0,0,1,.52-.11.75.75,0,0,1,.45.27,3.89,3.89,0,0,0,1.34,1,4.39,4.39,0,0,0,1.9.39,3.51,3.51,0,0,0,1.82-.48A3.55,3.55,0,0,0,104,87.35a4.39,4.39,0,0,0,.47-2.07V82.54l.53-1,.84.16v3.67a5.17,5.17,0,0,1-.65,2.62,4.77,4.77,0,0,1-4.32,2.51Zm0-5a3.65,3.65,0,0,0,1.88-.48A3.55,3.55,0,0,0,104,83.61a4.36,4.36,0,0,0,0-3.9,3.44,3.44,0,0,0-1.29-1.33,3.65,3.65,0,0,0-1.88-.48,3.69,3.69,0,0,0-1.89.48,3.33,3.33,0,0,0-1.3,1.33,4.28,4.28,0,0,0,0,3.9A3.43,3.43,0,0,0,99,84.93,3.69,3.69,0,0,0,100.86,85.41Z" fill="#fff"/><path d="M118.17,86.67a5,5,0,0,1-2.52-.64,4.6,4.6,0,0,1-1.72-1.78,5.33,5.33,0,0,1-.62-2.59,5.21,5.21,0,0,1,.65-2.61,4.66,4.66,0,0,1,1.78-1.77,5.14,5.14,0,0,1,2.58-.64,5.09,5.09,0,0,1,2.58.64,4.54,4.54,0,0,1,1.76,1.77,5.32,5.32,0,0,1,.66,2.61l-.81.43a4.83,4.83,0,0,1-.56,2.37,4.07,4.07,0,0,1-1.54,1.62A4.28,4.28,0,0,1,118.17,86.67Zm.18,3.79a5.54,5.54,0,0,1-2.5-.53,4.85,4.85,0,0,1-1.78-1.45.56.56,0,0,1,.09-.88.68.68,0,0,1,.52-.11.75.75,0,0,1,.45.27,3.89,3.89,0,0,0,1.34,1,4.39,4.39,0,0,0,1.9.39,3.51,3.51,0,0,0,1.82-.48,3.55,3.55,0,0,0,1.29-1.37,4.39,4.39,0,0,0,.47-2.07V82.54l.53-1,.84.16v3.67a5.17,5.17,0,0,1-.65,2.62,4.77,4.77,0,0,1-4.32,2.51Zm0-5a3.65,3.65,0,0,0,1.88-.48,3.55,3.55,0,0,0,1.29-1.32,4.36,4.36,0,0,0,0-3.9,3.44,3.44,0,0,0-1.29-1.33,3.65,3.65,0,0,0-1.88-.48,3.69,3.69,0,0,0-1.89.48,3.33,3.33,0,0,0-1.3,1.33,4.28,4.28,0,0,0,0,3.9,3.43,3.43,0,0,0,1.3,1.32A3.69,3.69,0,0,0,118.32,85.41Z" fill="#fff"/><path d="M127,74.86a.94.94,0,0,1-.68-.29,1,1,0,0,1-.29-.7.89.89,0,0,1,.3-.71,1,1,0,0,1,1.37,0,.91.91,0,0,1,.29.71.93.93,0,0,1-.29.7A1,1,0,0,1,127,74.86Zm0,11.72a.71.71,0,0,1-.51-.19.69.69,0,0,1-.19-.52V77.43a.65.65,0,0,1,.7-.7.68.68,0,0,1,.5.19.71.71,0,0,1,.18.51v8.44a.73.73,0,0,1-.18.52A.72.72,0,0,1,127,86.58Z" fill="#fff"/><path d="M135.56,86.67a4.72,4.72,0,0,1-2.48-.66,4.82,4.82,0,0,1-1.74-1.79,5.09,5.09,0,0,1-.64-2.56,5,5,0,0,1,.66-2.57,4.73,4.73,0,0,1,1.79-1.79,5.26,5.26,0,0,1,5.1,0A4.71,4.71,0,0,1,140,79.09a5.1,5.1,0,0,1,.68,2.57l-.56.43a4.54,4.54,0,0,1-.6,2.33,4.45,4.45,0,0,1-1.64,1.64A4.6,4.6,0,0,1,135.56,86.67Zm.14-1.26a3.65,3.65,0,0,0,1.87-.49,3.46,3.46,0,0,0,1.29-1.34,3.85,3.85,0,0,0,.48-1.92,3.8,3.8,0,0,0-.48-1.92,3.67,3.67,0,0,0-5-1.35,3.61,3.61,0,0,0-1.31,1.35,3.71,3.71,0,0,0-.49,1.92,3.76,3.76,0,0,0,.49,1.92,3.51,3.51,0,0,0,1.31,1.34A3.63,3.63,0,0,0,135.7,85.41Zm0-9.6a.65.65,0,0,1-.65-.65v-.5a.65.65,0,0,1,.57-.7l.45-.09a1.13,1.13,0,0,0,.56-.28.72.72,0,0,0,.18-.51.75.75,0,0,0-.26-.62,1,1,0,0,0-.64-.21,1,1,0,0,0-.43.08,1.31,1.31,0,0,0-.36.21,1,1,0,0,1-.21.11.64.64,0,0,1-.24,0,.54.54,0,0,1-.4-.16.52.52,0,0,1-.18-.42.61.61,0,0,1,.22-.48,2.82,2.82,0,0,1,.73-.42,2.57,2.57,0,0,1,.85-.14,2.18,2.18,0,0,1,1.51.53A1.75,1.75,0,0,1,138,73a1.5,1.5,0,0,1-.54,1.26,2.68,2.68,0,0,1-1.28.54l.15.23a.84.84,0,0,1-.19.58A.59.59,0,0,1,135.69,75.81ZM140,86.58a.73.73,0,0,1-.51-.19.67.67,0,0,1-.2-.5V82.81l.35-1.42,1.06.27v4.23a.67.67,0,0,1-.2.5A.72.72,0,0,1,140,86.58Z" fill="#fff"/><path d="M144.11,86.58a.69.69,0,0,1-.51-.19.66.66,0,0,1-.19-.5V77.43a.68.68,0,0,1,.19-.5.66.66,0,0,1,.51-.2.69.69,0,0,1,.5.2.71.71,0,0,1,.18.5v8.46a.7.7,0,0,1-.18.5A.72.72,0,0,1,144.11,86.58Zm6.32,0a.75.75,0,0,1-.51-.19.66.66,0,0,1-.19-.5V80.71a3,3,0,0,0-.67-2,2.16,2.16,0,0,0-1.71-.74,2.5,2.5,0,0,0-1.84.72,2.59,2.59,0,0,0-.72,1.9h-1a4.63,4.63,0,0,1,.52-2,3.65,3.65,0,0,1,5.06-1.39,3.38,3.38,0,0,1,1.27,1.42,4.71,4.71,0,0,1,.46,2.16v5.18a.66.66,0,0,1-.19.5A.68.68,0,0,1,150.43,86.58Zm6.28,0a.72.72,0,0,1-.5-.19.63.63,0,0,1-.2-.5V80.71a2.93,2.93,0,0,0-.67-2,2.16,2.16,0,0,0-1.71-.74,2.38,2.38,0,0,0-1.82.74,2.7,2.7,0,0,0-.7,2h-1.24a4.52,4.52,0,0,1,.52-2.12,3.58,3.58,0,0,1,1.39-1.42,3.92,3.92,0,0,1,2-.51,3.51,3.51,0,0,1,1.88.51,3.47,3.47,0,0,1,1.28,1.42,4.84,4.84,0,0,1,.45,2.16v5.18a.7.7,0,0,1-.18.5A.72.72,0,0,1,156.71,86.58Z" fill="#fff"/><path d="M166.41,86.58a.68.68,0,0,1-.5-.18.69.69,0,0,1-.18-.51V77.41a.62.62,0,0,1,.68-.68.69.69,0,0,1,.51.18.68.68,0,0,1,.18.5v8.48a.63.63,0,0,1-.69.69Zm-.11-6.07a4.21,4.21,0,0,1,.59-2,3.75,3.75,0,0,1,1.39-1.38,3.59,3.59,0,0,1,1.89-.51,2.75,2.75,0,0,1,1.28.24.55.55,0,0,1,.34.68.49.49,0,0,1-.24.36.76.76,0,0,1-.41.07l-.55,0a4,4,0,0,0-1.79.2,2.77,2.77,0,0,0-1.25.91,2.41,2.41,0,0,0-.45,1.46Z" fill="#fff"/><path d="M177.59,86.67a4.75,4.75,0,0,1-4.22-2.45,5.09,5.09,0,0,1-.64-2.56,5,5,0,0,1,.66-2.57,4.66,4.66,0,0,1,1.79-1.79,5.26,5.26,0,0,1,5.1,0,4.78,4.78,0,0,1,1.78,1.79,5.1,5.1,0,0,1,.68,2.57l-.56.43a4.48,4.48,0,0,1-2.24,4A4.6,4.6,0,0,1,177.59,86.67Zm.14-1.26a3.65,3.65,0,0,0,1.87-.49,3.54,3.54,0,0,0,1.29-1.34,3.85,3.85,0,0,0,.48-1.92,3.8,3.8,0,0,0-.48-1.92,3.64,3.64,0,0,0-1.29-1.35,3.78,3.78,0,0,0-3.72,0,3.61,3.61,0,0,0-1.31,1.35,3.71,3.71,0,0,0-.49,1.92,3.76,3.76,0,0,0,.49,1.92,3.51,3.51,0,0,0,1.31,1.34A3.63,3.63,0,0,0,177.73,85.41Zm-.12-10.17a.69.69,0,0,1-.5-.21.66.66,0,0,1-.2-.5.65.65,0,0,1,.16-.46l2-2a.68.68,0,0,1,.49-.2.66.66,0,0,1,.5.21.73.73,0,0,1,.2.51.8.8,0,0,1,0,.26.51.51,0,0,1-.15.21l-2,2A.64.64,0,0,1,177.61,75.24ZM182,86.58a.73.73,0,0,1-.51-.19.67.67,0,0,1-.2-.5V82.81l.35-1.42,1.06.27v4.23a.67.67,0,0,1-.2.5A.72.72,0,0,1,182,86.58Z" fill="#fff"/><path d="M189.83,86.67a4.78,4.78,0,0,1-4.28-2.45,5.19,5.19,0,0,1-.63-2.56,5.28,5.28,0,0,1,.61-2.57,4.53,4.53,0,0,1,4.12-2.45,4.66,4.66,0,0,1,2,.43,4.5,4.5,0,0,1,1.63,1.3.51.51,0,0,1,.15.46.73.73,0,0,1-.31.42.53.53,0,0,1-.44.1.73.73,0,0,1-.42-.26,3.38,3.38,0,0,0-2.63-1.19,3.22,3.22,0,0,0-3,1.82,4.29,4.29,0,0,0-.42,1.94,4.19,4.19,0,0,0,.44,1.93A3.39,3.39,0,0,0,188,84.92a3.55,3.55,0,0,0,1.85.49,4.37,4.37,0,0,0,1.29-.19,2.86,2.86,0,0,0,1-.59.86.86,0,0,1,.45-.2.58.58,0,0,1,.43.15.69.69,0,0,1,.25.45.51.51,0,0,1-.17.43A4.7,4.7,0,0,1,189.83,86.67Z" fill="#fff"/><path d="M202.14,86.58a.69.69,0,0,1-.51-.19.66.66,0,0,1-.19-.5V77.43a.67.67,0,0,1,.19-.51.66.66,0,0,1,.51-.19.68.68,0,0,1,.5.19.71.71,0,0,1,.18.51v8.46a.7.7,0,0,1-.18.5A.72.72,0,0,1,202.14,86.58Zm7.74,0a.69.69,0,0,1-.5-.2.64.64,0,0,1-.2-.49V81.21a3.59,3.59,0,0,0-.42-1.83,2.74,2.74,0,0,0-1.16-1.08,3.92,3.92,0,0,0-3.24,0,2.86,2.86,0,0,0-1.12.93,2.3,2.3,0,0,0-.42,1.35h-1a3.78,3.78,0,0,1,.61-2A4.08,4.08,0,0,1,204,77.13a4.4,4.4,0,0,1,2.12-.51,4.92,4.92,0,0,1,2.29.53A4,4,0,0,1,210,78.71a5,5,0,0,1,.59,2.5v4.68a.68.68,0,0,1-.2.49A.7.7,0,0,1,209.88,86.58Z" fill="#fff"/><path d="M214.33,82.56a.66.66,0,0,1-.52-.2.72.72,0,0,1-.19-.5V73.22a.66.66,0,0,1,.71-.7.64.64,0,0,1,.49.19.66.66,0,0,1,.19.51v8.64a.68.68,0,0,1-.19.5A.61.61,0,0,1,214.33,82.56Zm0,4a.74.74,0,0,1-.52-.19.7.7,0,0,1-.19-.5V77.43a.71.71,0,0,1,.19-.51.69.69,0,0,1,.52-.19.64.64,0,0,1,.49.19.67.67,0,0,1,.19.51v8.46a.66.66,0,0,1-.19.5A.68.68,0,0,1,214.33,86.58Zm7.74,0a.69.69,0,0,1-.51-.2.68.68,0,0,1-.2-.49V81.21a3.59,3.59,0,0,0-.42-1.83,2.66,2.66,0,0,0-1.15-1.08,3.7,3.7,0,0,0-1.65-.36,3.57,3.57,0,0,0-1.59.34,3,3,0,0,0-1.13.93,2.36,2.36,0,0,0-.41,1.35h-1a3.87,3.87,0,0,1,.61-2,4.23,4.23,0,0,1,1.53-1.41,4.47,4.47,0,0,1,2.13-.51,4.85,4.85,0,0,1,2.28.53,4,4,0,0,1,1.6,1.56,5,5,0,0,1,.58,2.5v4.68a.68.68,0,0,1-.2.49A.66.66,0,0,1,222.07,86.58Z" fill="#fff"/><path d="M230.09,86.68a4.74,4.74,0,0,1-2.28-.53,4,4,0,0,1-1.6-1.55,5,5,0,0,1-.58-2.51V77.41a.68.68,0,0,1,.68-.68.69.69,0,0,1,.51.2.66.66,0,0,1,.2.48v4.68a3.61,3.61,0,0,0,.42,1.84A2.72,2.72,0,0,0,228.59,85a3.7,3.7,0,0,0,1.65.36,3.57,3.57,0,0,0,1.59-.34,2.9,2.9,0,0,0,1.13-.94,2.32,2.32,0,0,0,.41-1.35h1a4,4,0,0,1-2.14,3.43A4.47,4.47,0,0,1,230.09,86.68Zm.18,3.66a.94.94,0,0,1-.68-.29,1,1,0,0,1-.29-.7.89.89,0,0,1,.3-.71,1,1,0,0,1,1.37,0,.88.88,0,0,1,.29.71,1,1,0,0,1-.28.7A1,1,0,0,1,230.27,90.34Zm3.78-3.76a.65.65,0,0,1-.68-.71V77.41a.64.64,0,0,1,.19-.49.66.66,0,0,1,.49-.19.69.69,0,0,1,.51.19.65.65,0,0,1,.2.49v8.46a.7.7,0,0,1-.2.52A.73.73,0,0,1,234.05,86.58ZM234,78V76.73h.79a.7.7,0,0,0,.55-.27,1.09,1.09,0,0,0,.22-.72v-.38a.72.72,0,0,1,.17-.48.63.63,0,0,1,.95,0,1,1,0,0,1,.16.56v.27a2.45,2.45,0,0,1-.27,1.16,2.12,2.12,0,0,1-.73.81,1.89,1.89,0,0,1-1,.3Z" fill="#fff"/><path d="M242.33,86.67a4.72,4.72,0,0,1-2.48-.66,4.9,4.9,0,0,1-1.74-1.79,5.2,5.2,0,0,1-.64-2.56,5,5,0,0,1,.66-2.57,4.8,4.8,0,0,1,1.79-1.79,5,5,0,0,1,2.56-.66,4.91,4.91,0,0,1,2.54.66,4.8,4.8,0,0,1,1.79,1.79,5.2,5.2,0,0,1,.67,2.57l-.56.43a4.54,4.54,0,0,1-.6,2.33,4.45,4.45,0,0,1-1.64,1.64A4.6,4.6,0,0,1,242.33,86.67Zm.15-1.26a3.64,3.64,0,0,0,1.86-.49,3.49,3.49,0,0,0,1.3-1.34,4,4,0,0,0,.47-1.92,3.9,3.9,0,0,0-.47-1.92,3.59,3.59,0,0,0-1.3-1.35,3.78,3.78,0,0,0-3.72,0,3.61,3.61,0,0,0-1.31,1.35,3.81,3.81,0,0,0-.49,1.92,3.86,3.86,0,0,0,.49,1.92,3.51,3.51,0,0,0,1.31,1.34A3.66,3.66,0,0,0,242.48,85.41Zm4.3,1.17a.72.72,0,0,1-.5-.19.63.63,0,0,1-.2-.5V82.81l.34-1.42,1.06.27v4.23a.63.63,0,0,1-.2.5A.72.72,0,0,1,246.78,86.58Z" fill="#fff"/><path d="M248.92,76.37a.56.56,0,0,1-.38-.14.6.6,0,0,1-.16-.36l-.16-2.65a.66.66,0,0,1,.21-.5.7.7,0,0,1,1,0,.69.69,0,0,1,.2.5l-.18,2.65a.5.5,0,0,1-.51.5Zm2.16,0a.48.48,0,0,1-.5-.5l-.2-2.65a.68.68,0,0,1,.21-.51.65.65,0,0,1,.49-.21.68.68,0,0,1,.51.21.7.7,0,0,1,.19.51l-.18,2.65a.49.49,0,0,1-.15.36A.53.53,0,0,1,251.08,76.37Z" fill="#fff"/><path d="M263.68,86.67a4.85,4.85,0,0,1-2.53-.66,4.75,4.75,0,0,1-1.74-1.79,5.09,5.09,0,0,1-.64-2.56,5.28,5.28,0,0,1,.61-2.57,4.65,4.65,0,0,1,1.67-1.79,4.56,4.56,0,0,1,2.45-.66,4.74,4.74,0,0,1,2,.43,4.67,4.67,0,0,1,1.63,1.3.48.48,0,0,1,.14.46.73.73,0,0,1-.31.42.53.53,0,0,1-.44.1.73.73,0,0,1-.42-.26,3.36,3.36,0,0,0-2.63-1.19,3.22,3.22,0,0,0-3,1.82,4.29,4.29,0,0,0-.42,1.94,4.07,4.07,0,0,0,.45,1.93,3.36,3.36,0,0,0,1.26,1.33,3.57,3.57,0,0,0,1.85.49,4.37,4.37,0,0,0,1.29-.19,2.86,2.86,0,0,0,1-.59.9.9,0,0,1,.45-.2.62.62,0,0,1,.44.15.72.72,0,0,1,.24.45.48.48,0,0,1-.17.43A4.7,4.7,0,0,1,263.68,86.67Z" fill="#fff"/><path d="M270.72,82.56a.63.63,0,0,1-.51-.2.68.68,0,0,1-.19-.5V73.22a.65.65,0,0,1,.7-.7.64.64,0,0,1,.49.19.66.66,0,0,1,.19.51v8.64a.68.68,0,0,1-.19.5A.61.61,0,0,1,270.72,82.56Zm0,4a.69.69,0,0,1-.51-.19.66.66,0,0,1-.19-.5V77.43a.67.67,0,0,1,.19-.51.66.66,0,0,1,.51-.19.64.64,0,0,1,.49.19.67.67,0,0,1,.19.51v8.46a.66.66,0,0,1-.19.5A.68.68,0,0,1,270.72,86.58Zm7.74,0a.69.69,0,0,1-.5-.2.64.64,0,0,1-.2-.49V81.21a3.49,3.49,0,0,0-.43-1.83,2.66,2.66,0,0,0-1.15-1.08,3.92,3.92,0,0,0-3.24,0,2.86,2.86,0,0,0-1.12.93,2.3,2.3,0,0,0-.42,1.35h-1a3.88,3.88,0,0,1,.62-2,4.08,4.08,0,0,1,1.53-1.41,4.4,4.4,0,0,1,2.12-.51,4.92,4.92,0,0,1,2.29.53,4,4,0,0,1,1.59,1.56,5,5,0,0,1,.58,2.5v4.68a.67.67,0,0,1-.19.49A.7.7,0,0,1,278.46,86.58Z" fill="#fff"/><path d="M286.69,86.67a5.12,5.12,0,0,1-2.58-.65,4.75,4.75,0,0,1-1.78-1.78,5.47,5.47,0,0,1,0-5.17,4.68,4.68,0,0,1,1.78-1.78,5.12,5.12,0,0,1,2.58-.65,5,5,0,0,1,2.56.65A4.66,4.66,0,0,1,291,79.07a5.17,5.17,0,0,1,.67,2.59,5.05,5.05,0,0,1-.66,2.58A4.83,4.83,0,0,1,289.25,86,5,5,0,0,1,286.69,86.67Zm0-1.26a3.7,3.7,0,0,0,1.87-.49,3.44,3.44,0,0,0,1.29-1.33,4.2,4.2,0,0,0,0-3.86,3.4,3.4,0,0,0-1.29-1.34,3.83,3.83,0,0,0-3.75,0,3.49,3.49,0,0,0-1.3,1.34,4.12,4.12,0,0,0,0,3.86,3.53,3.53,0,0,0,1.3,1.33A3.68,3.68,0,0,0,286.69,85.41Z" fill="#fff"/><path d="M71.66,110.58a.68.68,0,0,1-.65-.45L65.67,97.62a1,1,0,0,1,0-.81.66.66,0,0,1,.6-.29.67.67,0,0,1,.65.45l5,11.88h-.4l5-11.85a.87.87,0,0,1,.27-.37.74.74,0,0,1,.44-.11.54.54,0,0,1,.55.31.88.88,0,0,1,0,.71l-5.37,12.59a.76.76,0,0,1-.27.35A.75.75,0,0,1,71.66,110.58Z" fill="#fff"/><path d="M80.68,98.86a.94.94,0,0,1-.68-.29.93.93,0,0,1-.29-.7.89.89,0,0,1,.3-.71,1,1,0,0,1,.69-.26.94.94,0,0,1,.67.26.89.89,0,0,1,.3.71,1,1,0,0,1-.29.7A1,1,0,0,1,80.68,98.86Zm0,11.72a.66.66,0,0,1-.7-.71v-8.44a.67.67,0,0,1,.19-.51.66.66,0,0,1,.51-.19.64.64,0,0,1,.49.19.67.67,0,0,1,.19.51v8.44a.69.69,0,0,1-.19.52A.68.68,0,0,1,80.7,110.58Z" fill="#fff"/><path d="M89.37,110.67a5.19,5.19,0,0,1-2.58-.64A4.56,4.56,0,0,1,85,108.25a5.13,5.13,0,0,1-.64-2.59,5.45,5.45,0,0,1,.6-2.6,4.52,4.52,0,0,1,1.67-1.77,4.59,4.59,0,0,1,2.44-.65,4.52,4.52,0,0,1,2.39.62A4.15,4.15,0,0,1,93.06,103a5.35,5.35,0,0,1,.56,2.5.6.6,0,0,1-.18.46.66.66,0,0,1-.47.17H85.32V105h7.8l-.78.56a4,4,0,0,0-.37-1.87,3.06,3.06,0,0,0-1.13-1.3,3.14,3.14,0,0,0-1.74-.47,3.28,3.28,0,0,0-1.8.49,3.23,3.23,0,0,0-1.19,1.34,4.24,4.24,0,0,0-.43,2,3.91,3.91,0,0,0,.48,2,3.56,3.56,0,0,0,1.31,1.33,3.7,3.7,0,0,0,1.9.48,4,4,0,0,0,1.31-.22,3.06,3.06,0,0,0,1-.57.74.74,0,0,1,.45-.17.59.59,0,0,1,.43.14.67.67,0,0,1,.25.46.56.56,0,0,1-.21.44,5,5,0,0,1-1.51.83A5.23,5.23,0,0,1,89.37,110.67ZM86.93,99.16a.76.76,0,0,1-.52-.17.57.57,0,0,1-.2-.46.71.71,0,0,1,.34-.61l2.12-1.4a.64.64,0,0,1,.34-.09l.2,0a.59.59,0,0,1,.16.07l2.11,1.4a.71.71,0,0,1,.34.61.56.56,0,0,1-.2.45.71.71,0,0,1-.5.18.73.73,0,0,1-.22,0,1.06,1.06,0,0,1-.21-.11L89,97.87,87.34,99A.66.66,0,0,1,86.93,99.16ZM89,114.34a.94.94,0,0,1-.69-.29,1,1,0,0,1-.29-.7.89.89,0,0,1,.3-.71,1,1,0,0,1,.69-.26,1,1,0,0,1,.68.26.89.89,0,0,1,.3.71,1,1,0,0,1-1,1Z" fill="#fff"/><path d="M95.33,102.3a.61.61,0,0,1-.45-.18.54.54,0,0,1-.18-.42.57.57,0,0,1,.18-.44.64.64,0,0,1,.45-.17h4.59a.64.64,0,0,1,.45.17.57.57,0,0,1,.18.44.54.54,0,0,1-.18.42.61.61,0,0,1-.45.18Zm4.48,8.28a3.19,3.19,0,0,1-2.88-1.69,3.73,3.73,0,0,1-.43-1.79V98.3a.72.72,0,0,1,.19-.5.63.63,0,0,1,.5-.2.65.65,0,0,1,.5.2.69.69,0,0,1,.2.5v8.8a2.12,2.12,0,0,0,.54,1.5,1.8,1.8,0,0,0,1.38.59h.49a.62.62,0,0,1,.47.2.71.71,0,0,1,.18.5.62.62,0,0,1-.22.5.81.81,0,0,1-.54.19Z" fill="#fff"/><path d="M109.35,110.58a.69.69,0,0,1-.5-.2.69.69,0,0,1-.2-.51V97.22a.69.69,0,0,1,.2-.5.65.65,0,0,1,.5-.2.66.66,0,0,1,.54.25l8.61,11.3V97.22a.68.68,0,0,1,.7-.7.64.64,0,0,1,.49.2.66.66,0,0,1,.21.5v12.65a.66.66,0,0,1-.21.51.68.68,0,0,1-.49.2.75.75,0,0,1-.29-.06.44.44,0,0,1-.23-.18L110.06,99v10.83a.66.66,0,0,1-.21.51A.7.7,0,0,1,109.35,110.58Z" fill="#fff"/><path d="M127.66,110.67a4.75,4.75,0,0,1-4.22-2.45,5.09,5.09,0,0,1-.64-2.56,5,5,0,0,1,.66-2.57,4.66,4.66,0,0,1,1.79-1.79,5.26,5.26,0,0,1,5.1,0,4.78,4.78,0,0,1,1.78,1.79,5.1,5.1,0,0,1,.68,2.57l-.56.43a4.48,4.48,0,0,1-2.24,4A4.6,4.6,0,0,1,127.66,110.67Zm.14-1.26a3.65,3.65,0,0,0,1.87-.49,3.54,3.54,0,0,0,1.29-1.34,3.85,3.85,0,0,0,.48-1.92,3.8,3.8,0,0,0-.48-1.92,3.64,3.64,0,0,0-1.29-1.35,3.78,3.78,0,0,0-3.72,0,3.61,3.61,0,0,0-1.31,1.35,3.71,3.71,0,0,0-.49,1.92,3.76,3.76,0,0,0,.49,1.92,3.51,3.51,0,0,0,1.31,1.34A3.63,3.63,0,0,0,127.8,109.41Zm4.31,1.17a.73.73,0,0,1-.51-.19.67.67,0,0,1-.2-.5v-3.08l.35-1.42,1.06.27v4.23a.67.67,0,0,1-.2.5A.72.72,0,0,1,132.11,110.58Z" fill="#fff"/><path d="M136.21,110.58a.69.69,0,0,1-.51-.19.66.66,0,0,1-.19-.5v-8.46a.68.68,0,0,1,.19-.5.66.66,0,0,1,.51-.2.65.65,0,0,1,.49.2.68.68,0,0,1,.19.5v8.46a.66.66,0,0,1-.19.5A.68.68,0,0,1,136.21,110.58Zm6.32,0a.75.75,0,0,1-.51-.19.66.66,0,0,1-.19-.5v-5.18a3,3,0,0,0-.67-2,2.16,2.16,0,0,0-1.71-.74,2.5,2.5,0,0,0-1.84.72,2.59,2.59,0,0,0-.72,1.9h-1a4.63,4.63,0,0,1,.52-2,3.63,3.63,0,0,1,5.05-1.39,3.33,3.33,0,0,1,1.28,1.42,4.71,4.71,0,0,1,.46,2.16v5.18a.66.66,0,0,1-.19.5A.68.68,0,0,1,142.53,110.58Zm6.28,0a.72.72,0,0,1-.5-.19.63.63,0,0,1-.2-.5v-5.18a2.93,2.93,0,0,0-.67-2,2.16,2.16,0,0,0-1.71-.74,2.42,2.42,0,0,0-1.83.74,2.73,2.73,0,0,0-.69,2H142a4.52,4.52,0,0,1,.52-2.12,3.58,3.58,0,0,1,1.39-1.42,3.89,3.89,0,0,1,2-.51,3.51,3.51,0,0,1,1.88.51,3.38,3.38,0,0,1,1.27,1.42,4.71,4.71,0,0,1,.46,2.16v5.18a.66.66,0,0,1-.19.5A.68.68,0,0,1,148.81,110.58Z" fill="#fff"/><path d="M161.19,110.58a.69.69,0,0,1-.64-.47l-4-8.48a.59.59,0,0,1,0-.47.7.7,0,0,1,.36-.36.6.6,0,0,1,.49,0,.7.7,0,0,1,.36.32l3.83,8.3h-.74l3.78-8.3a.58.58,0,0,1,.37-.33.67.67,0,0,1,.86.39.56.56,0,0,1,0,.46l-3.94,8.5A.74.74,0,0,1,161.19,110.58Z" fill="#fff"/><path d="M171.76,110.67a4.75,4.75,0,0,1-4.22-2.45,5.09,5.09,0,0,1-.64-2.56,5,5,0,0,1,.66-2.57,4.66,4.66,0,0,1,1.79-1.79,5.26,5.26,0,0,1,5.1,0,4.78,4.78,0,0,1,1.78,1.79,5.1,5.1,0,0,1,.68,2.57l-.56.43a4.48,4.48,0,0,1-2.24,4A4.6,4.6,0,0,1,171.76,110.67Zm.14-1.26a3.65,3.65,0,0,0,1.87-.49,3.54,3.54,0,0,0,1.29-1.34,3.85,3.85,0,0,0,.48-1.92,3.8,3.8,0,0,0-.48-1.92,3.64,3.64,0,0,0-1.29-1.35,3.78,3.78,0,0,0-3.72,0,3.61,3.61,0,0,0-1.31,1.35,3.71,3.71,0,0,0-.49,1.92,3.76,3.76,0,0,0,.49,1.92,3.51,3.51,0,0,0,1.31,1.34A3.63,3.63,0,0,0,171.9,109.41Zm0-10.28a.65.65,0,0,1-.47-.2l-2-2a.72.72,0,0,1-.18-.48.73.73,0,0,1,.2-.52.68.68,0,0,1,.49-.2.69.69,0,0,1,.5.21l2,2a.53.53,0,0,1,.18.45.73.73,0,0,1-.2.51A.66.66,0,0,1,171.89,99.13Zm4.32,11.45a.73.73,0,0,1-.51-.19.67.67,0,0,1-.2-.5v-3.08l.35-1.42,1.06.27v4.23a.67.67,0,0,1-.2.5A.72.72,0,0,1,176.21,110.58Z" fill="#fff"/><path d="M184.09,110.67a5.15,5.15,0,0,1-2.58-.65,4.83,4.83,0,0,1-1.78-1.78,5.54,5.54,0,0,1,0-5.17,4.75,4.75,0,0,1,1.78-1.78,5.15,5.15,0,0,1,2.58-.65,5,5,0,0,1,2.56.65,4.75,4.75,0,0,1,1.78,1.78,5.27,5.27,0,0,1,.66,2.59,5.15,5.15,0,0,1-.65,2.58,4.85,4.85,0,0,1-1.79,1.78A5,5,0,0,1,184.09,110.67Zm0-1.26a3.67,3.67,0,0,0,1.87-.49,3.53,3.53,0,0,0,1.3-1.33,4.28,4.28,0,0,0,0-3.86,3.49,3.49,0,0,0-1.3-1.34,3.81,3.81,0,0,0-3.74,0,3.44,3.44,0,0,0-1.31,1.34,4.2,4.2,0,0,0,0,3.86,3.49,3.49,0,0,0,1.31,1.33A3.65,3.65,0,0,0,184.09,109.41Z" fill="#fff"/><path d="M197.77,110.58a.69.69,0,0,1-.51-.19.66.66,0,0,1-.19-.5v-8.46a.68.68,0,0,1,.19-.5.66.66,0,0,1,.51-.2.65.65,0,0,1,.49.2.68.68,0,0,1,.19.5v8.46a.66.66,0,0,1-.19.5A.68.68,0,0,1,197.77,110.58Zm6.32,0a.73.73,0,0,1-.51-.19.67.67,0,0,1-.2-.5v-5.18a3,3,0,0,0-.66-2,2.19,2.19,0,0,0-1.71-.74,2.49,2.49,0,0,0-1.84.72,2.59,2.59,0,0,0-.72,1.9h-1a4.63,4.63,0,0,1,.52-2,3.63,3.63,0,0,1,5.05-1.39,3.33,3.33,0,0,1,1.28,1.42,4.71,4.71,0,0,1,.46,2.16v5.18a.66.66,0,0,1-.19.5A.68.68,0,0,1,204.09,110.58Zm6.28,0a.75.75,0,0,1-.51-.19.66.66,0,0,1-.19-.5v-5.18a3,3,0,0,0-.67-2,2.16,2.16,0,0,0-1.71-.74,2.42,2.42,0,0,0-1.83.74,2.73,2.73,0,0,0-.69,2h-1.24a4.41,4.41,0,0,1,.52-2.12,3.58,3.58,0,0,1,1.39-1.42,3.88,3.88,0,0,1,2-.51,3.52,3.52,0,0,1,1.89.51,3.38,3.38,0,0,1,1.27,1.42,4.71,4.71,0,0,1,.46,2.16v5.18a.66.66,0,0,1-.19.5A.68.68,0,0,1,210.37,110.58Z" fill="#fff"/><path d="M218.59,110.67A5.11,5.11,0,0,1,216,110a4.68,4.68,0,0,1-1.78-1.78,5.47,5.47,0,0,1,0-5.17,4.61,4.61,0,0,1,1.78-1.78,5.41,5.41,0,0,1,5.14,0,4.66,4.66,0,0,1,1.77,1.78,5.28,5.28,0,0,1,.67,2.59,5.05,5.05,0,0,1-.66,2.58,4.83,4.83,0,0,1-1.78,1.78A5.09,5.09,0,0,1,218.59,110.67Zm0-1.26a3.71,3.71,0,0,0,1.88-.49,3.44,3.44,0,0,0,1.29-1.33,4.2,4.2,0,0,0,0-3.86,3.4,3.4,0,0,0-1.29-1.34,3.83,3.83,0,0,0-3.75,0,3.42,3.42,0,0,0-1.3,1.34,4.12,4.12,0,0,0,0,3.86,3.46,3.46,0,0,0,1.3,1.33A3.67,3.67,0,0,0,218.59,109.41Zm1.1-13.47a1.54,1.54,0,0,1-.8-.21,3.13,3.13,0,0,1-.6-.45,3.54,3.54,0,0,0-.43-.36.62.62,0,0,0-.38-.13.46.46,0,0,0-.37.18,2.77,2.77,0,0,0-.32.49.68.68,0,0,1-.35.32.61.61,0,0,1-.46,0,.56.56,0,0,1-.32-.32.57.57,0,0,1,0-.49,2.76,2.76,0,0,1,.75-1,1.55,1.55,0,0,1,1-.31,1.4,1.4,0,0,1,.83.22c.21.15.41.31.59.46a3.63,3.63,0,0,0,.46.34.54.54,0,0,0,.28.09c.16,0,.31-.14.45-.43a.84.84,0,0,1,.35-.35.57.57,0,0,1,.46,0,.63.63,0,0,1,.39.34.51.51,0,0,1,0,.48,2.55,2.55,0,0,1-.67.91A1.3,1.3,0,0,1,219.69,95.94Zm-3.15,3.22A.75.75,0,0,1,216,99a.55.55,0,0,1-.21-.46.73.73,0,0,1,.34-.61l2.13-1.4a.62.62,0,0,1,.34-.09l.2,0,.16.07,2.11,1.4a.73.73,0,0,1,.34.61.59.59,0,0,1-.2.45.71.71,0,0,1-.5.18.8.8,0,0,1-.23,0L220.3,99l-1.67-1.15L217,99A.68.68,0,0,1,216.54,99.16Z" fill="#fff"/><path d="M227.27,98.86a.94.94,0,0,1-.68-.29.93.93,0,0,1-.29-.7.91.91,0,0,1,.29-.71,1,1,0,0,1,.7-.26,1,1,0,0,1,.67.26.89.89,0,0,1,.3.71,1,1,0,0,1-.29.7A1,1,0,0,1,227.27,98.86Zm0,11.72a.66.66,0,0,1-.7-.71v-8.44a.67.67,0,0,1,.19-.51.66.66,0,0,1,.51-.19.64.64,0,0,1,.49.19.67.67,0,0,1,.19.51v8.44a.69.69,0,0,1-.19.52A.68.68,0,0,1,227.29,110.58Z" fill="#fff"/><path d="M237.48,110.58a.74.74,0,0,1-.52-.19.7.7,0,0,1-.19-.5v-8.46a.71.71,0,0,1,.19-.51.69.69,0,0,1,.52-.19.66.66,0,0,1,.49.19.67.67,0,0,1,.19.51v8.46a.66.66,0,0,1-.19.5A.7.7,0,0,1,237.48,110.58Zm7.74,0a.69.69,0,0,1-.51-.2.68.68,0,0,1-.2-.49v-4.68a3.59,3.59,0,0,0-.42-1.83,2.72,2.72,0,0,0-1.15-1.08,3.7,3.7,0,0,0-1.65-.36,3.57,3.57,0,0,0-1.59.34,2.89,2.89,0,0,0-1.13.93,2.36,2.36,0,0,0-.41,1.35h-1a3.87,3.87,0,0,1,.61-2,4.23,4.23,0,0,1,1.53-1.41,4.47,4.47,0,0,1,2.13-.51,4.85,4.85,0,0,1,2.28.53,4,4,0,0,1,1.59,1.56,5,5,0,0,1,.59,2.5v4.68a.68.68,0,0,1-.2.49A.66.66,0,0,1,245.22,110.58Z" fill="#fff"/><path d="M253.3,110.67a5,5,0,0,1-2.52-.64,4.53,4.53,0,0,1-1.72-1.78,5.22,5.22,0,0,1-.62-2.59,5.11,5.11,0,0,1,.65-2.61,4.59,4.59,0,0,1,1.78-1.77,5.5,5.5,0,0,1,5.15,0,4.63,4.63,0,0,1,1.77,1.77,5.43,5.43,0,0,1,.65,2.61l-.81.43a4.93,4.93,0,0,1-.55,2.37,4.21,4.21,0,0,1-1.54,1.62A4.31,4.31,0,0,1,253.3,110.67Zm.18,3.79a5.48,5.48,0,0,1-2.5-.53,4.81,4.81,0,0,1-1.79-1.45A.57.57,0,0,1,249,112a.6.6,0,0,1,.26-.42.68.68,0,0,1,.52-.11.69.69,0,0,1,.45.27,3.84,3.84,0,0,0,1.35,1,4.34,4.34,0,0,0,1.89.39,3.48,3.48,0,0,0,1.82-.48,3.55,3.55,0,0,0,1.29-1.37,4.28,4.28,0,0,0,.48-2.07v-2.74l.52-1,.84.16v3.67a5.27,5.27,0,0,1-.64,2.62,4.89,4.89,0,0,1-1.77,1.84A4.81,4.81,0,0,1,253.48,114.46Zm0-5a3.63,3.63,0,0,0,1.88-.48,3.41,3.41,0,0,0,1.29-1.32,4.28,4.28,0,0,0,0-3.9,3.31,3.31,0,0,0-1.29-1.33,3.63,3.63,0,0,0-1.88-.48,3.69,3.69,0,0,0-1.89.48,3.39,3.39,0,0,0-1.3,1.33,4.36,4.36,0,0,0,0,3.9,3.51,3.51,0,0,0,1.3,1.32A3.69,3.69,0,0,0,253.44,109.41Z" fill="#fff"/><path d="M265.48,110.67A4.72,4.72,0,0,1,263,110a4.9,4.9,0,0,1-1.74-1.79,5.2,5.2,0,0,1-.64-2.56,5,5,0,0,1,.66-2.57,4.73,4.73,0,0,1,1.79-1.79,5,5,0,0,1,2.56-.66,4.93,4.93,0,0,1,2.54.66,4.8,4.8,0,0,1,1.79,1.79,5.2,5.2,0,0,1,.67,2.57l-.56.43a4.54,4.54,0,0,1-.6,2.33,4.45,4.45,0,0,1-1.64,1.64A4.6,4.6,0,0,1,265.48,110.67Zm.15-1.26a3.64,3.64,0,0,0,1.86-.49,3.49,3.49,0,0,0,1.3-1.34,4,4,0,0,0,.47-1.92,3.9,3.9,0,0,0-.47-1.92,3.59,3.59,0,0,0-1.3-1.35,3.78,3.78,0,0,0-3.72,0,3.61,3.61,0,0,0-1.31,1.35,3.71,3.71,0,0,0-.49,1.92,3.76,3.76,0,0,0,.49,1.92,3.51,3.51,0,0,0,1.31,1.34A3.64,3.64,0,0,0,265.63,109.41Zm0-10.28a.65.65,0,0,1-.47-.2l-2-2a.72.72,0,0,1-.18-.48.73.73,0,0,1,.19-.52.7.7,0,0,1,.49-.2.69.69,0,0,1,.5.21l2,2a.53.53,0,0,1,.18.45.73.73,0,0,1-.2.51A.66.66,0,0,1,265.61,99.13Zm4.32,11.45a.75.75,0,0,1-.51-.19.66.66,0,0,1-.19-.5v-3.08l.34-1.42,1.06.27v4.23a.67.67,0,0,1-.2.5A.72.72,0,0,1,269.93,110.58Z" fill="#fff"/><path d="M277,110.27a.64.64,0,0,1-.5,0,.65.65,0,0,1-.38-.35l-4-8.31a.65.65,0,0,1,0-.51.7.7,0,0,1,.36-.36.64.64,0,0,1,.5,0,.59.59,0,0,1,.36.35l3.94,8.32a.66.66,0,0,1,.09.5A.5.5,0,0,1,277,110.27Zm-2,4.59a.84.84,0,0,1-.32-.07.58.58,0,0,1-.34-.87l5.81-12.81a.59.59,0,0,1,.86-.33.56.56,0,0,1,.35.85l-5.84,12.82A.57.57,0,0,1,275,114.86Z" fill="#fff"/></g></g></svg>