<svg xmlns="http://www.w3.org/2000/svg" viewBox="0 0 64.66 99.14"><title>img_07</title><g id="Layer_2" data-name="Layer 2"><g id="element"><path d="M61.92,38.46h0m0,0L49.26,80.77,33.38,83.63,6.73,48.43l55.19-10m0-2h-.09a1.55,1.55,0,0,0-.31,0l-55.15,10a2,2,0,0,0-1.5,1.24,2,2,0,0,0,.26,1.94l26.66,35.2a2,2,0,0,0,1.59.79,2.19,2.19,0,0,0,.36,0l15.87-2.87a2,2,0,0,0,1.56-1.39L63.8,39.13a1.85,1.85,0,0,0,.12-.67,2,2,0,0,0-2-2Zm0,4Z"/><path d="M36.59,98.14a6,6,0,0,1-5.9-4.93L30,89.33a6,6,0,0,1,4.84-7l13.5-2.44a5.61,5.61,0,0,1,1.07-.1,6,6,0,0,1,5.9,4.94l.7,3.87a6,6,0,0,1-4.83,7L37.67,98a5.64,5.64,0,0,1-1.08.1Z" fill="#ffadac"/><path d="M49.4,80.82a5,5,0,0,1,4.92,4.11l.7,3.88a5,5,0,0,1-4,5.81l-13.5,2.44a5.47,5.47,0,0,1-.9.08A5,5,0,0,1,31.68,93L31,89.15a5,5,0,0,1,4-5.81l13.5-2.44a5.45,5.45,0,0,1,.89-.08m0-2a7.64,7.64,0,0,0-1.25.11l-13.5,2.44A7,7,0,0,0,29,89.5l.7,3.88a7,7,0,0,0,6.88,5.76A7.45,7.45,0,0,0,37.84,99l13.5-2.44A7,7,0,0,0,57,88.46l-.7-3.88a7,7,0,0,0-6.89-5.76Z"/><path d="M34.43,68.18c-14.88,0-30-13.87-32.93-30.3A31.35,31.35,0,0,1,26.75,1.5a32,32,0,0,1,5.6-.5A31.27,31.27,0,0,1,63.12,26.75a39.35,39.35,0,0,1-4.61,25.67C53.78,60.89,46.75,66.35,38.72,67.8A23.6,23.6,0,0,1,34.43,68.18Z" fill="#ffc325"/><path d="M32.35,2A30.31,30.31,0,0,1,62.14,26.93c3,16.47-7.12,36.91-23.6,39.89a22.83,22.83,0,0,1-4.11.36c-15,0-29.22-14.38-31.94-29.48A30.34,30.34,0,0,1,32.35,2m0-2V0h0A32.34,32.34,0,0,0,.52,38.06C3.57,54.93,19.1,69.18,34.43,69.18a25.7,25.7,0,0,0,4.47-.39c8.33-1.51,15.6-7.15,20.48-15.88A40.4,40.4,0,0,0,64.1,26.57,32.25,32.25,0,0,0,32.35,0Z"/><path d="M35,68.12a33.47,33.47,0,0,1-11.24-2.2,1,1,0,0,1-.63-.76c-.32-1.76,2-3.39,4-4.45a34.87,34.87,0,0,1,9.7-3.18,37.71,37.71,0,0,1,6.7-.62c1.94,0,8.33.21,8.83,3a1,1,0,0,1-.06.54c-.67,1.75-7.4,6.27-13.62,7.39A21.09,21.09,0,0,1,35,68.12Z" fill="#efa61e"/><path d="M43.57,57.91c4.44,0,7.62.92,7.84,2.14-.47,1.23-6.65,5.65-12.87,6.77a20,20,0,0,1-3.53.3A32.62,32.62,0,0,1,24.12,65c-.32-1.77,5.39-5.11,12.92-6.47a37.11,37.11,0,0,1,6.53-.6m0-2h0a38.87,38.87,0,0,0-6.88.63c-6.49,1.18-15.28,4.68-14.54,8.8a2,2,0,0,0,1.28,1.52A34.41,34.41,0,0,0,35,69.12a22.19,22.19,0,0,0,3.89-.33,29.94,29.94,0,0,0,9.24-3.59c1.33-.78,4.5-2.78,5.14-4.43a2,2,0,0,0,.1-1.07c-.6-3.3-6.4-3.79-9.81-3.79Z"/></g></g></svg>