<svg xmlns="http://www.w3.org/2000/svg" viewBox="0 0 587.05 131.94"><title>img_00</title><g id="Layer_2" data-name="Layer 2"><g id="bubble_talk" data-name="bubble talk"><path d="M38.24,67.58,3.16,69a2.66,2.66,0,0,1-2-.53A2.66,2.66,0,0,1,.51,66.5L.14,57a6.15,6.15,0,0,1,.34-2.38,6.55,6.55,0,0,1,1.26-2.07L18.12,31,3,31.62a2.69,2.69,0,0,1-2-.53,2.66,2.66,0,0,1-.67-1.92L0,20.61a2.69,2.69,0,0,1,.53-2A2.67,2.67,0,0,1,2.45,18L35,16.7a2.67,2.67,0,0,1,2,.53,2.72,2.72,0,0,1,.68,1.92l.41,10.54a6.67,6.67,0,0,1-.33,2.46,7,7,0,0,1-1.27,2.07L20.81,54.73l16.91-.66a2.69,2.69,0,0,1,2,.53,2.69,2.69,0,0,1,.67,1.92l.33,8.42a2.17,2.17,0,0,1-2.45,2.64Z" fill="#0c8389"/><path d="M84.29,65.8,51.47,67.07a2.18,2.18,0,0,1-2.64-2.45L47,18.79a2.66,2.66,0,0,1,.53-2,2.63,2.63,0,0,1,1.92-.68l32.82-1.28a2.7,2.7,0,0,1,2,.53A2.69,2.69,0,0,1,85,17.31l.32,8.28a2.69,2.69,0,0,1-.53,2,2.66,2.66,0,0,1-1.92.67L63.31,29l.21,5.45,13.79-.54a2.66,2.66,0,0,1,2,.53A2.63,2.63,0,0,1,80,36.35l.29,7.57a2.68,2.68,0,0,1-.52,2,2.65,2.65,0,0,1-1.92.67L64,47.1l.24,6.08,19.52-.75a2.18,2.18,0,0,1,2.65,2.44l.32,8.28a2.19,2.19,0,0,1-2.45,2.65Z" fill="#0c8389"/><path d="M108.63,64.85l-10.9.42a2.17,2.17,0,0,1-2.64-2.44L93.31,17a2.68,2.68,0,0,1,.52-2,2.69,2.69,0,0,1,1.92-.68l23.56-.91q7.92-.31,11.06,2.86a12.18,12.18,0,0,1,3.33,8.41l.13,3.25a12.8,12.8,0,0,1-.69,5.09,5.48,5.48,0,0,1-3,3.13A9.29,9.29,0,0,1,136.49,39a10.43,10.43,0,0,1,2.65,7.05l.58,15a2.18,2.18,0,0,1-2.45,2.65l-11,.42a2.18,2.18,0,0,1-2.65-2.45l-.42-10.82a3.6,3.6,0,0,0-.69-2.27,2.57,2.57,0,0,0-2.11-.67l-9.91.39.54,13.86a2.66,2.66,0,0,1-.52,2A2.69,2.69,0,0,1,108.63,64.85Zm1.06-38.3.35,9.06,5.3-.21a2.79,2.79,0,0,0,2.44-1,4.23,4.23,0,0,0,.55-2.4l-.1-2.4a4.25,4.25,0,0,0-.72-2.35,2.78,2.78,0,0,0-2.52-.85Z" fill="#0c8389"/><path d="M190,48.3a17.37,17.37,0,0,1-.73,5.94,9.87,9.87,0,0,1-3.21,4.66,18.35,18.35,0,0,1-6.61,3.2,46.71,46.71,0,0,1-10.82,1.48,46.44,46.44,0,0,1-10.93-.64,18,18,0,0,1-6.87-2.67,9.81,9.81,0,0,1-3.57-4.4A17.36,17.36,0,0,1,146.09,50l-.93-24.12a17.13,17.13,0,0,1,.72-5.94,10.15,10.15,0,0,1,3.22-4.7A18,18,0,0,1,155.74,12a46.61,46.61,0,0,1,10.85-1.48,46.06,46.06,0,0,1,10.9.64,17.77,17.77,0,0,1,6.84,2.71,10.13,10.13,0,0,1,3.57,4.43,17.36,17.36,0,0,1,1.18,5.87Zm-28-1.47a3.07,3.07,0,0,0,1.15,2.33c.74.61,2.38.87,4.92.77s4.16-.48,4.85-1.15a3,3,0,0,0,1-2.41l-.73-19a3,3,0,0,0-1.15-2.25c-.74-.61-2.38-.87-4.92-.77s-4.16.48-4.85,1.15a3,3,0,0,0-1,2.34Z" fill="#0c8389"/><path d="M199.31,43.12a2.69,2.69,0,0,1-2-.53,2.66,2.66,0,0,1-.67-1.92l-.37-9.48a2.69,2.69,0,0,1,.52-2,2.7,2.7,0,0,1,1.93-.67l18.95-.74a2.66,2.66,0,0,1,2,.53,2.66,2.66,0,0,1,.68,1.92l.37,9.48a2.65,2.65,0,0,1-.53,2,2.62,2.62,0,0,1-1.92.68Z" fill="#0c8389"/><path d="M263.83,7.81l10.54-.41a2.65,2.65,0,0,1,2,.53A2.62,2.62,0,0,1,277,9.85l1.07,27.44c.06,1.52.05,2.92,0,4.22a18.88,18.88,0,0,1-.92,4.61L274,55.87a5.23,5.23,0,0,1-1,1.85,2.33,2.33,0,0,1-1.78.81l-9.41.37a4.23,4.23,0,0,1-2.07-.42,2.4,2.4,0,0,1-1.26-1.58L254.8,45.5a1.89,1.89,0,0,0-.56-.94,1.24,1.24,0,0,0-.76-.22l-.63,0a1.22,1.22,0,0,0-.74.27,2,2,0,0,0-.49,1l-2.87,11.66a2.74,2.74,0,0,1-1,1.63,3.3,3.3,0,0,1-1.89.61l-9.34.36a2.85,2.85,0,0,1-2-.63,3.89,3.89,0,0,1-1.24-1.8l-3.92-9.62a19.53,19.53,0,0,1-1.27-4.52c-.17-1.29-.28-2.69-.34-4.2L226.72,11.8a2.69,2.69,0,0,1,.52-2,2.69,2.69,0,0,1,1.92-.67l10.9-.43a2.73,2.73,0,0,1,2,.53,2.69,2.69,0,0,1,.67,1.92l1,26,3.76-9.07a3.57,3.57,0,0,1,1.42-1.75,4.72,4.72,0,0,1,2.24-.59l3-.11a4.76,4.76,0,0,1,2.28.4,3.64,3.64,0,0,1,1.55,1.64l4.45,8.76-1-26a2.66,2.66,0,0,1,.52-2A2.7,2.7,0,0,1,263.83,7.81Z" fill="#0c8389"/><path d="M302.35,54.77a2.19,2.19,0,0,1-2.45,2.65l-10.4.4a2.17,2.17,0,0,1-2.64-2.45l-.73-18.67a20.5,20.5,0,0,1,.48-4.91,54.09,54.09,0,0,1,1.84-6.52L294,9a3.26,3.26,0,0,1,1.24-1.82,4.22,4.22,0,0,1,2.28-.66l19-.74a4.13,4.13,0,0,1,2.25.48A3.31,3.31,0,0,1,320.15,8l6.78,15.82a53.47,53.47,0,0,1,2.34,6.35,21.24,21.24,0,0,1,.86,4.86l.72,18.67a2.66,2.66,0,0,1-.52,2,2.69,2.69,0,0,1-1.92.68l-10.68.41a3,3,0,0,1-2.11-.52,2.44,2.44,0,0,1-.75-1.91l-.39-9.91L302,44.87Zm2.73-33.68L302.17,32l11.11-.43-3.75-10.63a2.68,2.68,0,0,0-.63-.89,1.12,1.12,0,0,0-.76-.26l-1.77.07a1.12,1.12,0,0,0-.73.31A2.73,2.73,0,0,0,305.08,21.09Z" fill="#0c8389"/><path d="M363.28,55l-22.35.87a2.66,2.66,0,0,1-2-.52,2.7,2.7,0,0,1-.68-1.93L338,45.1a2.19,2.19,0,0,1,2.45-2.65l19-.74a1.62,1.62,0,0,0,1.36-.65,2.33,2.33,0,0,0,.41-1.47,2.86,2.86,0,0,0-.53-1.75,1.9,1.9,0,0,0-1.41-.58l-10.67-1.08a15.36,15.36,0,0,1-8.08-2.94q-3.11-2.43-3.34-8.37l-.29-7.43q-.22-6,3.54-9.38T351,4.42l19.81-.77a2.67,2.67,0,0,1,2,.53,2.7,2.7,0,0,1,.68,1.92l.32,8.42a2.69,2.69,0,0,1-.52,2,2.7,2.7,0,0,1-1.93.67l-16.48.64a1.77,1.77,0,0,0-1.39.66,2.3,2.3,0,0,0-.43,1.54,2.45,2.45,0,0,0,.55,1.54,1.88,1.88,0,0,0,1.44.65l10.6,1a15.7,15.7,0,0,1,8.12,2.95c2.09,1.62,3.22,4.41,3.37,8.37l.29,7.42c.15,4-1,7.14-3.57,9.39S367.81,54.78,363.28,55Z" fill="#0c8389"/><path d="M409,53.18l-11.46.44a2.66,2.66,0,0,1-2-.52,2.69,2.69,0,0,1-.68-1.92l-1.35-34.74-10.4.41a2.69,2.69,0,0,1-2-.53,2.66,2.66,0,0,1-.67-1.92l-.34-8.56a2.69,2.69,0,0,1,.53-2,2.69,2.69,0,0,1,1.92-.67l37.35-1.46a2.72,2.72,0,0,1,2,.53,2.69,2.69,0,0,1,.68,1.92l.33,8.56a2.67,2.67,0,0,1-.53,2,2.66,2.66,0,0,1-1.92.68l-10.4.4,1.35,34.73a2.66,2.66,0,0,1-.52,2A2.69,2.69,0,0,1,409,53.18Z" fill="#0c8389"/><path d="M466.7,50.93l-32.83,1.28a2.19,2.19,0,0,1-2.64-2.45L429.45,3.93A2.66,2.66,0,0,1,430,2a2.66,2.66,0,0,1,1.93-.68L464.72,0a2.73,2.73,0,0,1,2,.53,2.69,2.69,0,0,1,.67,1.92l.32,8.28a2.69,2.69,0,0,1-.52,2,2.69,2.69,0,0,1-1.92.67l-19.53.76.22,5.45L459.72,19a2.69,2.69,0,0,1,2,.53,2.67,2.67,0,0,1,.67,1.92l.3,7.57a2.67,2.67,0,0,1-.53,2,2.61,2.61,0,0,1-1.92.67l-13.79.54.23,6.08,19.53-.75A2.17,2.17,0,0,1,468.82,40l.32,8.28a2.68,2.68,0,0,1-.52,2A2.65,2.65,0,0,1,466.7,50.93Z" fill="#0c8389"/><path d="M109.64,79.91h10.55a2.18,2.18,0,0,1,2.55,2.54v27.47c0,1.51-.06,2.92-.18,4.21a19.19,19.19,0,0,1-1.09,4.57l-3.54,9.63a5,5,0,0,1-1,1.8,2.3,2.3,0,0,1-1.8.75h-9.42a4.23,4.23,0,0,1-2.05-.5,2.39,2.39,0,0,1-1.21-1.63l-3.25-11.54a1.85,1.85,0,0,0-.53-.95,1.17,1.17,0,0,0-.75-.25h-.63a1.17,1.17,0,0,0-.75.25,1.85,1.85,0,0,0-.53.95l-3.33,11.54a2.61,2.61,0,0,1-1.06,1.59,3.26,3.26,0,0,1-1.91.54H80.34a2.87,2.87,0,0,1-2-.71,4,4,0,0,1-1.17-1.84l-3.54-9.77A19.19,19.19,0,0,1,72.59,114c-.12-1.3-.18-2.7-.18-4.21V82.45A2.18,2.18,0,0,1,75,79.91h10.9a2.71,2.71,0,0,1,2,.6,2.67,2.67,0,0,1,.6,1.94v26.06l4.1-8.92A3.56,3.56,0,0,1,94,97.89a4.73,4.73,0,0,1,2.27-.5h3a4.72,4.72,0,0,1,2.26.5,3.51,3.51,0,0,1,1.49,1.7l4.11,8.92V82.45a2.18,2.18,0,0,1,2.54-2.54Z" fill="#0c8389"/><path d="M175.05,117.5a17.53,17.53,0,0,1-1,5.91,9.89,9.89,0,0,1-3.4,4.53,18.26,18.26,0,0,1-6.72,2.94,46.73,46.73,0,0,1-10.87,1.06,47.07,47.07,0,0,1-10.9-1.06,18.18,18.18,0,0,1-6.76-2.94,9.89,9.89,0,0,1-3.4-4.53,17.28,17.28,0,0,1-1-5.91V93.36a17.28,17.28,0,0,1,1-5.91,10.1,10.1,0,0,1,3.4-4.57,17.71,17.71,0,0,1,6.76-3,46.53,46.53,0,0,1,10.9-1.06A46.2,46.2,0,0,1,164,79.91a17.78,17.78,0,0,1,6.72,3,10.1,10.1,0,0,1,3.4,4.57,17.53,17.53,0,0,1,1,5.91ZM147.16,115a3.09,3.09,0,0,0,1.06,2.37c.71.64,2.34,1,4.89,1s4.18-.31,4.88-1a3.07,3.07,0,0,0,1.07-2.37v-19A3,3,0,0,0,158,93.6c-.7-.63-2.33-.95-4.88-.95s-4.18.32-4.89.95a3,3,0,0,0-1.06,2.31Z" fill="#0c8389"/><path d="M197.21,130.88H186.59a2.2,2.2,0,0,1-2.55-2.55V82.45a2.62,2.62,0,0,1,.61-1.94,2.65,2.65,0,0,1,1.94-.6H194a5.66,5.66,0,0,1,2.3.42,5.43,5.43,0,0,1,1.88,1.49l13.73,15.71V82.45a2.62,2.62,0,0,1,.61-1.94,2.67,2.67,0,0,1,1.94-.6H225a2.18,2.18,0,0,1,2.55,2.54v45.88a2.67,2.67,0,0,1-.6,1.94,2.64,2.64,0,0,1-1.95.61H214.41a2.2,2.2,0,0,1-2.55-2.55v-8.71L199.76,105v23.36a2.67,2.67,0,0,1-.6,1.94A2.64,2.64,0,0,1,197.21,130.88Z" fill="#0c8389"/><path d="M263.75,130.88H239.9a2.64,2.64,0,0,1-2-.61,2.67,2.67,0,0,1-.6-1.94V82.45a2.18,2.18,0,0,1,2.55-2.54h23.85q8.85,0,13.13,3.54t4.29,10.9v22.08q0,7.36-4.29,10.91T263.75,130.88ZM253.42,93.43V117.5h8.42a3.35,3.35,0,0,0,2.51-.85,3.64,3.64,0,0,0,.82-2.62V96.83a3.52,3.52,0,0,0-.82-2.59,3.43,3.43,0,0,0-2.51-.81Z" fill="#0c8389"/><path d="M325.55,130.88H292.7a2.62,2.62,0,0,1-1.94-.61,2.67,2.67,0,0,1-.6-1.94V82.45a2.18,2.18,0,0,1,2.54-2.54h32.85a2.18,2.18,0,0,1,2.55,2.54v8.29a2.67,2.67,0,0,1-.6,1.94,2.64,2.64,0,0,1-1.95.61H306v5.45h13.81a2.19,2.19,0,0,1,2.55,2.55v7.57a2.19,2.19,0,0,1-2.55,2.55H306v6.09h19.54A2.18,2.18,0,0,1,328.1,120v8.29a2.67,2.67,0,0,1-.6,1.94A2.64,2.64,0,0,1,325.55,130.88Z" fill="#0c8389"/><path d="M349.9,130.88H339a2.64,2.64,0,0,1-1.95-.61,2.67,2.67,0,0,1-.6-1.94V82.45A2.18,2.18,0,0,1,339,79.91h23.57q7.94,0,10.94,3.29a12.13,12.13,0,0,1,3,8.53V95a13,13,0,0,1-.89,5.07,5.52,5.52,0,0,1-3.08,3,9.32,9.32,0,0,1,6.2,3.11,10.42,10.42,0,0,1,2.37,7.15v15a2.67,2.67,0,0,1-.6,1.94,2.64,2.64,0,0,1-1.95.61h-11a2.64,2.64,0,0,1-2-.61,2.67,2.67,0,0,1-.6-1.94V117.5a3.62,3.62,0,0,0-.6-2.3,2.54,2.54,0,0,0-2.09-.75h-9.91v13.88a2.67,2.67,0,0,1-.6,1.94A2.64,2.64,0,0,1,349.9,130.88Zm2.55-38.23v9.06h5.31a2.78,2.78,0,0,0,2.48-1,4.18,4.18,0,0,0,.63-2.37V96a4.24,4.24,0,0,0-.63-2.38,2.8,2.8,0,0,0-2.48-.95Z" fill="#0c8389"/><path d="M427.63,130.88h-36a2.64,2.64,0,0,1-2-.61,2.67,2.67,0,0,1-.6-1.94V82.45a2.18,2.18,0,0,1,2.55-2.54h11a2.18,2.18,0,0,1,2.55,2.54V117.5h9.7V106a2.18,2.18,0,0,1,2.54-2.55h10.27a2.71,2.71,0,0,1,1.95.6,2.68,2.68,0,0,1,.6,2v22.3a2.19,2.19,0,0,1-2.55,2.55Z" fill="#0c8389"/><path d="M452.69,128.33a2.19,2.19,0,0,1-2.55,2.55H439.73a2.62,2.62,0,0,1-1.94-.61,2.67,2.67,0,0,1-.61-1.94V109.64a20.91,20.91,0,0,1,.68-4.89A53.46,53.46,0,0,1,440,98.31l6.15-16.07a3.37,3.37,0,0,1,1.31-1.77,4.28,4.28,0,0,1,2.3-.56h19.05a4.14,4.14,0,0,1,2.23.56,3.37,3.37,0,0,1,1.31,1.77l6.16,16.07a55,55,0,0,1,2.08,6.44,20.91,20.91,0,0,1,.68,4.89v18.69a2.67,2.67,0,0,1-.61,1.94,2.62,2.62,0,0,1-1.94.61H468a3,3,0,0,1-2.09-.61,2.48,2.48,0,0,1-.67-1.94v-9.91H452.69Zm4-33.56-3.32,10.76h11.11l-3.33-10.76a2.81,2.81,0,0,0-.6-.92,1.07,1.07,0,0,0-.74-.28h-1.77a1.09,1.09,0,0,0-.75.28A2.81,2.81,0,0,0,456.72,94.77Z" fill="#0c8389"/><path d="M503.09,130.88H492.47a2.19,2.19,0,0,1-2.55-2.55V82.45a2.18,2.18,0,0,1,2.55-2.54h7.36a5.66,5.66,0,0,1,2.3.42A5.43,5.43,0,0,1,504,81.82l13.73,15.71V82.45a2.62,2.62,0,0,1,.61-1.94,2.65,2.65,0,0,1,1.94-.6h10.62a2.18,2.18,0,0,1,2.55,2.54v45.88a2.67,2.67,0,0,1-.6,1.94,2.64,2.64,0,0,1-2,.61H520.29a2.2,2.2,0,0,1-2.55-2.55v-8.71L505.64,105v23.36a2.67,2.67,0,0,1-.6,1.94A2.64,2.64,0,0,1,503.09,130.88Z" fill="#0c8389"/><path d="M569.63,130.88H545.78a2.64,2.64,0,0,1-1.95-.61,2.67,2.67,0,0,1-.6-1.94V82.45a2.18,2.18,0,0,1,2.55-2.54h23.85q8.85,0,13.13,3.54t4.29,10.9v22.08q0,7.36-4.29,10.91T569.63,130.88ZM559.3,93.43V117.5h8.42a3.35,3.35,0,0,0,2.51-.85,3.64,3.64,0,0,0,.82-2.62V96.83a3.52,3.52,0,0,0-.82-2.59,3.43,3.43,0,0,0-2.51-.81Z" fill="#0c8389"/></g></g></svg>