<svg xmlns="http://www.w3.org/2000/svg" xmlns:xlink="http://www.w3.org/1999/xlink" viewBox="0 0 466.99 323.64"><defs><clipPath id="clip-path"><path d="M149.05,142.75s-8.78,35-14.13,48.75c-15.3-2.08-16.49-3.78-16.49-3.78l12.33-26.17s-15.69,9.59-20.13,8.78c-7.9-1.43-3.9-28.68-3.9-28.68l9.7-10.28s.18,18.08,2,18.64,14.28-9.54,18.35-10.91S149.05,142.75,149.05,142.75Z" fill="none"/></clipPath><pattern id="_10_dpi_20_" data-name="10 dpi 20%" width="28.8" height="28.8" patternTransform="translate(0.52 56.72) scale(0.66)" patternUnits="userSpaceOnUse" viewBox="0 0 28.8 28.8"><rect width="28.8" height="28.8" fill="none"/><path d="M28.8,30.24a1.44,1.44,0,1,0-1.44-1.44A1.44,1.44,0,0,0,28.8,30.24Z" fill="#231f20"/><path d="M14.4,30.24A1.44,1.44,0,1,0,13,28.8,1.44,1.44,0,0,0,14.4,30.24Z" fill="#231f20"/><path d="M28.8,15.84a1.44,1.44,0,1,0-1.44-1.44A1.44,1.44,0,0,0,28.8,15.84Z" fill="#231f20"/><path d="M14.4,15.84A1.44,1.44,0,1,0,13,14.4,1.44,1.44,0,0,0,14.4,15.84Z" fill="#231f20"/><path d="M7.2,23A1.44,1.44,0,1,0,5.76,21.6,1.44,1.44,0,0,0,7.2,23Z" fill="#231f20"/><path d="M21.6,23a1.44,1.44,0,1,0-1.44-1.44A1.44,1.44,0,0,0,21.6,23Z" fill="#231f20"/><path d="M7.2,8.64A1.44,1.44,0,1,0,5.76,7.2,1.44,1.44,0,0,0,7.2,8.64Z" fill="#231f20"/><path d="M21.6,8.64A1.44,1.44,0,1,0,20.16,7.2,1.44,1.44,0,0,0,21.6,8.64Z" fill="#231f20"/><path d="M0,30.24A1.44,1.44,0,0,0,1.44,28.8,1.45,1.45,0,0,0,0,27.36,1.44,1.44,0,0,0-1.44,28.8,1.43,1.43,0,0,0,0,30.24Z" fill="#231f20"/><path d="M0,15.84A1.44,1.44,0,0,0,1.44,14.4,1.45,1.45,0,0,0,0,13,1.44,1.44,0,0,0-1.44,14.4,1.43,1.43,0,0,0,0,15.84Z" fill="#231f20"/><path d="M28.8,1.44A1.45,1.45,0,0,0,30.24,0,1.44,1.44,0,0,0,28.8-1.44,1.43,1.43,0,0,0,27.36,0,1.44,1.44,0,0,0,28.8,1.44Z" fill="#231f20"/><path d="M14.4,1.44A1.45,1.45,0,0,0,15.84,0,1.44,1.44,0,0,0,14.4-1.44,1.43,1.43,0,0,0,13,0,1.44,1.44,0,0,0,14.4,1.44Z" fill="#231f20"/><path d="M0,1.44A1.45,1.45,0,0,0,1.44,0,1.44,1.44,0,0,0,0-1.44,1.43,1.43,0,0,0-1.44,0,1.44,1.44,0,0,0,0,1.44Z" fill="#231f20"/></pattern><clipPath id="clip-path-2"><path d="M255.49,191.85A211.37,211.37,0,0,0,259.06,165h0c1.09-6.08,1.66-12.74-.58-19.44-3.21-9.57-21.69-9.44-40.05-11.68s-23,1.81-22.88,15.77a38.9,38.9,0,0,0,1.78,10h0c.35,6.15,10.17,29.51,10.17,29.51s.24.29,2.38.44c1.36,2.68,2.25,4.31,2.25,4.31l38.4,4s.77-2.44,1.8-5.9Z" fill="none"/></clipPath><clipPath id="clip-path-3"><path d="M279.68,197.65s11.38-33.23,23.45-49.75,13.81-18,9.32-23.81a24.31,24.31,0,0,1-5-11.62s-8.63-2.16-11.44-8c-3.4-7.09-4.53-13.66-1.82-17.52s6.52-1,8.77-.37,12.61,3.16,13.42-3.31,2.37-10.67,3.63-12-5,2.06-7.81,1.89-5.24-1.61-4.44-7,6.17-3.09,10.34-2.84,9.86,1.31,9.09-3-4.42-19.62-1.5-21,8,13.63,8.1,20.38c0,0,7.86,2.42,9.55,3.36s8.3-15.79,13.51-18,3.79,3.79.95,11-4.57,10-1.34,12.22,10.05,4.45,16.44,6,7.25,8.85,4.48,11.4-7,5.42-13.71-3-5.24-4.32-5.24-4.32,2.42,7.28-1.44,22.74-6.33,24.34-4.19,30.11.63,45.61-2.05,49.48S279.68,197.65,279.68,197.65Z" fill="none"/></clipPath><clipPath id="clip-path-4"><path d="M12.27,156.64c3.32-3.08,10-9.39,13.15-7.91s45.35,34.87,124,39.62S293.3,201.6,373.23,167c18.83-8.15,28.34-8.33,39.53-5.7s25.79-25.63,32.84-27.87,22.77,9.87,17,16.59-23.37,25-29.6,24.63,9.67,17.65-19.3,48.2-76.46,68.21-162.64,70.36c-83.2,2.08-150.33-20.31-198.91-66.76C4.78,181.13,9.22,159.46,12.27,156.64Z" fill="none"/></clipPath></defs><title>img_101</title><g id="Layer_2" data-name="Layer 2"><g id="banana"><path d="M325.44,178.17a1.08,1.08,0,0,1-.72-.39L195.82,9.27a1,1,0,0,1,.1-1.33l6.83-6.66a1,1,0,0,1,.7-.28h.07a1,1,0,0,1,.72.39L332.73,170.31a1,1,0,0,1-.1,1.32l-6.42,6.25a.94.94,0,0,1-.69.29Z" fill="#897dff"/><path d="M203.45,2,331.93,170.91l-6.41,6.26L196.61,8.66,203.45,2m0-2a2,2,0,0,0-1.4.57l-6.83,6.66A2,2,0,0,0,195,9.87l128.9,168.51a2,2,0,0,0,1.44.78h.15a2,2,0,0,0,1.39-.57l6.42-6.25a2,2,0,0,0,.2-2.65L205,.79A2,2,0,0,0,203.6,0Z"/><path d="M141.35,166.28a1,1,0,0,1-.71-.37,1,1,0,0,1-.21-.76L144,139.41a1,1,0,0,1,1-.86l25.41,1.67a1,1,0,0,1,.93,1.1l-2.86,26.07a1,1,0,0,1-1,.89Z" fill="#ffe6c9"/><path d="M145,139.55l25.34,1.66-2.86,26.07-26.05-2L145,139.55m0-2a2,2,0,0,0-2,1.72L139.44,165a2,2,0,0,0,.43,1.53,2,2,0,0,0,1.4.74l26,2h.15a2,2,0,0,0,2-1.78l2.86-26.07a2,2,0,0,0-1.85-2.21l-25.35-1.67Z"/><path d="M165,193.29l-40.65-3.73a1,1,0,0,1-.76-.48,1,1,0,0,1-.07-.9l16.4-40.25a1,1,0,0,1,.81-.61h.12a1,1,0,0,1,.81.42c.08.11,7.43,10.35,17.92,10.35a19.11,19.11,0,0,0,10.85-3.67,1.06,1.06,0,0,1,.57-.17,1,1,0,0,1,.44.1,1,1,0,0,1,.55.84c1.2,22-5.7,36.92-6,37.54a1,1,0,0,1-.9.58Z" fill="#06b791"/><path d="M140.86,148.31s7.58,10.77,18.73,10.77A20.08,20.08,0,0,0,171,155.24c1.19,22-5.91,37.06-5.91,37.06l-40.65-3.74,16.41-40.25m0-2h-.23a2,2,0,0,0-1.63,1.24l-16.4,40.25a2,2,0,0,0,1.67,2.74l40.65,3.74h.18a2,2,0,0,0,1.81-1.15c.3-.64,7.3-15.79,6.09-38a2,2,0,0,0-2-1.89,2,2,0,0,0-1.13.35,18.21,18.21,0,0,1-10.29,3.49c-10,0-17-9.82-17.1-9.92a2,2,0,0,0-1.63-.85Z"/><g opacity="0.1"><polygon points="146.79 141.49 161.51 149.64 134.15 193.13 146.79 141.49"/></g><path d="M134.92,192.5h-.13c-10-1.36-16.26-2.89-17.18-4.2a1,1,0,0,1-.09-1l11-23.24c-4.53,2.6-13.32,7.33-17.25,7.33h0a4.54,4.54,0,0,1-.77-.06c-8.6-1.57-5.14-26.93-4.71-29.82A1,1,0,0,1,106,141l9.7-10.28a1,1,0,0,1,.73-.31.92.92,0,0,1,.36.07,1,1,0,0,1,.64.92c.07,7.34.63,15.85,1.41,17.63,1.3-.41,5.16-3.05,8-5,3.87-2.64,7.53-5.14,9.57-5.83a6.18,6.18,0,0,1,1.94-.28c4.53,0,10.91,3.86,11.18,4A1,1,0,0,1,150,143c-.09.35-8.86,35.21-14.16,48.87A1,1,0,0,1,134.92,192.5Z" fill="#ff5d63"/><path d="M116.43,131.37s.18,18.08,2,18.64a.43.43,0,0,0,.17,0c2.3,0,14.22-9.61,18.18-10.94a5.24,5.24,0,0,1,1.62-.23c4.3,0,10.66,3.88,10.66,3.88s-8.78,35-14.13,48.75c-15.3-2.08-16.49-3.78-16.49-3.78l12.33-26.17s-14.45,8.83-19.54,8.83a2.71,2.71,0,0,1-.59,0c-7.9-1.43-3.9-28.68-3.9-28.68l9.7-10.28m0-2A2,2,0,0,0,115,130l-9.7,10.27a2,2,0,0,0-.52,1.09,110.69,110.69,0,0,0-1,14.09c0,10.53,2.12,16.05,6.55,16.85a5.61,5.61,0,0,0,1,.08c3.47,0,10.17-3.27,15-5.92l-9.61,20.4a2,2,0,0,0,.17,2c.42.59,1.7,2.42,17.87,4.61l.26,0a2,2,0,0,0,1.87-1.28c5.33-13.72,13.84-47.55,14.2-49a2,2,0,0,0-.9-2.19c-.7-.43-7-4.17-11.7-4.17a7,7,0,0,0-2.25.34c-2.18.73-5.9,3.26-9.83,5.95-2.14,1.46-5.13,3.5-6.83,4.42-.58-2.89-1-10.08-1-16.23a2,2,0,0,0-1.28-1.84,1.81,1.81,0,0,0-.72-.14Z"/><g clip-path="url(#clip-path)"><g opacity="0.1"><path d="M102.86,139.84s2.5,27.88,12.12,24.06,20.46-8.7,20.46-8.7-9.65,29-12.29,34.85-16.3-3.22-16.3-3.22Z"/></g></g><path d="M163.16,195.73c-6.1,0-7.59-1-8.2-1.8a2,2,0,0,1-.28-1.83c1.68-5.34,8-44.46,8.1-44.86a1,1,0,0,1,.5-.71,1.05,1.05,0,0,1,.49-.13.89.89,0,0,1,.36.07c.74.29,18.08,7.23,23,24.62,4.71,16.82,4.34,20.67,4.29,21.06a1,1,0,0,1-.83.84C190.37,193,173.37,195.73,163.16,195.73Z" fill="#ff5d63"/><path d="M163.77,147.4s17.56,6.85,22.34,24S190.38,192,190.38,192s-17,2.73-27.22,2.73c-4.77,0-8.08-.59-7.53-2.33,1.72-5.47,8.14-45,8.14-45m0-2a2,2,0,0,0-2,1.68c-2.21,13.62-6.75,40.5-8.08,44.72a3,3,0,0,0,.43,2.72c1.16,1.57,3.77,2.21,9,2.21,10.29,0,26.84-2.64,27.54-2.75a2,2,0,0,0,1.66-1.69c.09-.66.35-4.8-4.32-21.47-5-17.87-22.79-25-23.54-25.28a2.06,2.06,0,0,0-.73-.14Z"/><path d="M134.92,192.5h-.13c-10-1.36-16.26-2.89-17.18-4.2a1,1,0,0,1-.09-1l11-23.24c-4.53,2.6-13.32,7.33-17.25,7.33h0a4.54,4.54,0,0,1-.77-.06c-8.6-1.57-5.14-26.93-4.71-29.82A1,1,0,0,1,106,141l9.7-10.28a1,1,0,0,1,.73-.31.92.92,0,0,1,.36.07,1,1,0,0,1,.64.92c.07,7.34.63,15.85,1.41,17.63,1.3-.41,5.16-3.05,8-5,3.87-2.64,7.53-5.14,9.57-5.83a6.18,6.18,0,0,1,1.94-.28c4.53,0,10.91,3.86,11.18,4A1,1,0,0,1,150,143c-.09.35-8.86,35.21-14.16,48.87A1,1,0,0,1,134.92,192.5Z" fill="url(#_10_dpi_20_)"/><path d="M116.43,131.37s.18,18.08,2,18.64a.43.43,0,0,0,.17,0c2.3,0,14.22-9.61,18.18-10.94a5.24,5.24,0,0,1,1.62-.23c4.3,0,10.66,3.88,10.66,3.88s-8.78,35-14.13,48.75c-15.3-2.08-16.49-3.78-16.49-3.78l12.33-26.17s-14.45,8.83-19.54,8.83a2.71,2.71,0,0,1-.59,0c-7.9-1.43-3.9-28.68-3.9-28.68l9.7-10.28m0-2A2,2,0,0,0,115,130l-9.7,10.27a2,2,0,0,0-.52,1.09,110.69,110.69,0,0,0-1,14.09c0,10.53,2.12,16.05,6.55,16.85a5.61,5.61,0,0,0,1,.08c3.47,0,10.17-3.27,15-5.92l-9.61,20.4a2,2,0,0,0,.17,2c.42.59,1.7,2.42,17.87,4.61l.26,0a2,2,0,0,0,1.87-1.28c5.33-13.72,13.84-47.55,14.2-49a2,2,0,0,0-.9-2.19c-.7-.43-7-4.17-11.7-4.17a7,7,0,0,0-2.25.34c-2.18.73-5.9,3.26-9.83,5.95-2.14,1.46-5.13,3.5-6.83,4.42-.58-2.89-1-10.08-1-16.23a2,2,0,0,0-1.28-1.84,1.81,1.81,0,0,0-.72-.14Z"/><path d="M163.16,195.73c-6.1,0-7.59-1-8.2-1.8a2,2,0,0,1-.28-1.83c1.68-5.34,8-44.46,8.1-44.86a1,1,0,0,1,.5-.71,1.05,1.05,0,0,1,.49-.13.89.89,0,0,1,.36.07c.74.29,18.08,7.23,23,24.62,4.71,16.82,4.34,20.67,4.29,21.06a1,1,0,0,1-.83.84C190.37,193,173.37,195.73,163.16,195.73Z" fill="url(#_10_dpi_20_)"/><path d="M163.77,147.4s17.56,6.85,22.34,24S190.38,192,190.38,192s-17,2.73-27.22,2.73c-4.77,0-8.08-.59-7.53-2.33,1.72-5.47,8.14-45,8.14-45m0-2a2,2,0,0,0-2,1.68c-2.21,13.62-6.75,40.5-8.08,44.72a3,3,0,0,0,.43,2.72c1.16,1.57,3.77,2.21,9,2.21,10.29,0,26.84-2.64,27.54-2.75a2,2,0,0,0,1.66-1.69c.09-.66.35-4.8-4.32-21.47-5-17.87-22.79-25-23.54-25.28a2.06,2.06,0,0,0-.73-.14Z"/><path d="M163.31,153.48a26.34,26.34,0,0,1-6.51-.85c-13-3.36-16-15.56-16.74-20.65-1.11-8,8.16-23.19,8.56-23.83a1,1,0,0,1,.85-.48h.14L186,112.82a1,1,0,0,1,.66.39,1,1,0,0,1,.19.74c0,.11-1.53,10.62-4.21,23.51-2.08,10-9.29,16-19.29,16Z" fill="#ffe6c9"/><path d="M149.47,108.67l36.35,5.14s-1.49,10.44-4.19,23.44c-2.18,10.48-9.81,15.23-18.32,15.23a25.08,25.08,0,0,1-6.25-.82c-10.76-2.78-14.93-12.11-16-19.82s8.42-23.17,8.42-23.17m0-2a2,2,0,0,0-1.7,1c-1,1.64-9.84,16.29-8.7,24.48,2.22,15.88,13,20.32,17.48,21.49a27.34,27.34,0,0,0,6.76.88c10.51,0,18.08-6.29,20.27-16.82,2.69-12.92,4.21-23.46,4.22-23.57a2,2,0,0,0-.38-1.48,2,2,0,0,0-1.32-.78l-36.35-5.14-.28,0Z"/><path d="M183.78,156.42a1,1,0,0,1-.89-.6l-2.19-5-3.15,3.42a1,1,0,0,1-.73.32.9.9,0,0,1-.23,0,1,1,0,0,1-.73-.69l-1.54-5.07a1,1,0,0,1,.16-.89c.08-.11,8.19-11.21,5.26-25a14.39,14.39,0,0,0-3.81-7.3c-1.33.75-3.7,3.33-5.13,5.15a1,1,0,0,1-.78.38,1.07,1.07,0,0,1-.25,0,1,1,0,0,1-.74-.8,38.18,38.18,0,0,0-1.27-5.34,40.87,40.87,0,0,0-2.72,5.36,1,1,0,0,1-.83.6h-.09a1,1,0,0,1-.84-.45c-2-3-4.27-6.33-5.27-7.53-.26.32-.6.78-.85,1.12-1.15,1.55-2.23,3-3.51,3h0a1.45,1.45,0,0,1-.68-.16,11.8,11.8,0,0,1-2.22-1.67,13.08,13.08,0,0,0-2.48-1.87c-1.22,2-7.64,19.08-2.78,28.55,2,3.88,1.91,4.55,1.56,5.13a1.14,1.14,0,0,1-1,.55h0c-.38,0-1.19,0-4.55-4-.45,3.09-1.32,3.09-1.83,3.09a1.31,1.31,0,0,1-.89-.36,46.46,46.46,0,0,1-3.87-5.47c-.51,2.62-1.55,5.61-3.64,5.61a2.16,2.16,0,0,1-.78-.15,1,1,0,0,1-.54-.47c-.16-.3-3.9-7.7.82-24.3S151.57,97.12,161,97.09h.11c11.09,0,25.71,5.49,30.44,20.94,4.57,14.9-6.33,36.91-6.8,37.84a1,1,0,0,1-.89.55Z" fill="#806154"/><path d="M161.06,98.09c11.42,0,25,5.59,29.49,20.23s-6.74,37.1-6.74,37.1L181,149l-4.18,4.56-1.54-5.07s8.5-11.39,5.44-25.81a15.13,15.13,0,0,0-4.59-8.25c-2,.52-6.11,5.69-6.11,5.69s-1.07-6.21-2-6.65a.13.13,0,0,0-.09,0c-1,0-3.8,6.46-3.8,6.46s-5.15-7.85-6-8.24l-.09,0c-.85,0-3,4.41-4.41,4.41a.54.54,0,0,1-.25-.06c-1.26-.59-4-3.68-5.28-3.68a.59.59,0,0,0-.41.14c-1.08.92-8.36,19.67-3.11,29.91,1.61,3.13,1.87,4.22,1.46,4.22-.94,0-5.32-5.57-5.32-5.57s-.23,4.64-1.06,4.64a.33.33,0,0,1-.22-.1c-1-.9-5.14-7.56-5.14-7.56s-.72,7.44-3,7.44a1.35,1.35,0,0,1-.43-.08s-3.77-7.16.9-23.57S152.37,98.12,161,98.09h.1m0-2H161c-9.68,0-26.27,8-31.13,25.1s-.91,24.73-.74,25.05a2,2,0,0,0,1.06.94,3.28,3.28,0,0,0,1.14.21c1.13,0,2.89-.64,4.05-4.15a27.31,27.31,0,0,0,2.8,3.76,2.25,2.25,0,0,0,1.55.61,2.46,2.46,0,0,0,2.36-2c2.59,2.88,3.37,2.88,4,2.88a2.12,2.12,0,0,0,1.84-1c.7-1.14.39-2.39-1.52-6.11-4.13-8.06.48-22.48,2.31-26.64.48.37,1,.85,1.4,1.17a12.65,12.65,0,0,0,2.45,1.83,2.65,2.65,0,0,0,1.11.25c1.78,0,3-1.66,4.31-3.42l.06-.07c1.14,1.55,2.92,4.15,4.43,6.44a2,2,0,0,0,1.67.9h.17a2,2,0,0,0,1.67-1.2c.47-1.1,1-2.22,1.49-3.17.21.91.42,1.93.6,2.93a2,2,0,0,0,3.54.9,31.36,31.36,0,0,1,4.21-4.47,14.33,14.33,0,0,1,3,6.21c2.83,13.31-5,24.09-5.09,24.2a2,2,0,0,0-.31,1.77l1.54,5.07a2,2,0,0,0,1.47,1.37,1.73,1.73,0,0,0,.45,0,2,2,0,0,0,1.47-.64l2.1-2.29,1.58,3.63a2,2,0,0,0,1.78,1.21h.06a2,2,0,0,0,1.78-1.11c.48-.94,11.55-23.29,6.87-38.57-4.9-16-20-21.65-31.4-21.65Z"/><g opacity="0.1"><circle cx="154.59" cy="130.08" r="7.98"/></g><g opacity="0.1"><circle cx="175.71" cy="132.65" r="7.98" transform="translate(-19.2 235.03) rotate(-64.76)"/></g><path d="M155.86,136.34a9,9,0,0,1-8.11-12.81,9,9,0,0,1,8.12-5.15A9,9,0,0,1,164,131.19,9,9,0,0,1,155.86,136.34Z" fill="#fff"/><path d="M155.87,119.38a8,8,0,0,1,0,16,8,8,0,0,1,0-16m0-2h0a10,10,0,1,0,9,14.23,10,10,0,0,0-4.77-13.27,9.78,9.78,0,0,0-4.25-1Z"/><path d="M177,138.91a8.88,8.88,0,0,1-3.82-.86A9,9,0,0,1,177,121a8.88,8.88,0,0,1,3.82.86,9,9,0,0,1-3.83,17.1Z" fill="#fff"/><path d="M177,122a8,8,0,1,1-7.22,4.58A7.95,7.95,0,0,1,177,122m0-2h0a10,10,0,1,0,4.25,1,9.93,9.93,0,0,0-4.25-1Z"/><path d="M158.84,130.37c3.22,0,3.23-5,0-5s-3.22,5,0,5Z"/><path d="M172.5,132.31c3.21,0,3.22-5,0-5s-3.23,5,0,5Z"/><path d="M164.34,126.56s2-1.66,4.66.67" fill="none" stroke="#000" stroke-linecap="round" stroke-linejoin="round" stroke-width="2"/><line x1="145.17" y1="121.43" x2="148.5" y2="123" fill="none" stroke="#000" stroke-linecap="round" stroke-linejoin="round" stroke-width="2"/><path d="M166.2,128s2.35,9.32-3,9.57" fill="none" stroke="#000" stroke-linecap="round" stroke-linejoin="round" stroke-width="2"/><path d="M162.13,149.39a7,7,0,0,1-.92-.06c-3-.36-8-2.35-9.66-5.61a3.81,3.81,0,0,1,0-3.57,2.41,2.41,0,0,1,2.11-1.16,5.36,5.36,0,0,1,3.24,1.47,12.67,12.67,0,0,0,6.2,2.45,6,6,0,0,1,3,1.07,2.63,2.63,0,0,1,.87,3c-.58,1.43-2.59,2.42-4.91,2.42Z" fill="#ff5d63"/><path d="M153.69,140a4.42,4.42,0,0,1,2.6,1.24c3.62,3,8,2.37,9.18,3.48,2,1.93-.51,3.68-3.34,3.68a7.34,7.34,0,0,1-.81,0c-3.11-.38-7.52-2.34-8.88-5.07-.68-1.36-.29-3.28,1.25-3.28m0-2a3.41,3.41,0,0,0-3,1.63,4.77,4.77,0,0,0-.08,4.54c1.68,3.39,6.63,5.71,10.44,6.17a8.94,8.94,0,0,0,1,.06c2.3,0,5-.94,5.83-3a3.58,3.58,0,0,0-1.1-4.08,6.79,6.79,0,0,0-3.55-1.33,11.89,11.89,0,0,1-5.75-2.24,6.25,6.25,0,0,0-3.87-1.7Z"/><path d="M82.73,192a.9.9,0,0,1-.42-.1l-8.63-4.07a1,1,0,0,1-.54-.62,1,1,0,0,1,.12-.81L186.47,6.85a1,1,0,0,1,.84-.47,1.07,1.07,0,0,1,.43.09l8.1,3.82a1,1,0,0,1,.54.63,1,1,0,0,1-.12.81L83.58,191.49A1,1,0,0,1,82.73,192Z" fill="#897dff"/><path d="M187.31,7.38l8.11,3.82L82.73,191l-8.63-4.07L187.31,7.38m0-2a2,2,0,0,0-1.69.93L72.41,185.82a2,2,0,0,0,.84,2.88l8.63,4.07a2,2,0,0,0,2.55-.75L197.11,12.26a2,2,0,0,0,.23-1.62,2,2,0,0,0-1.07-1.25l-8.11-3.82a2,2,0,0,0-.85-.19Z"/><path d="M117.78,140.35a7.09,7.09,0,0,1-3-.89,1,1,0,0,1-.48-.67,5.08,5.08,0,0,1,.06-2.25c.08-.27.32-1.08,7.32-7.34a1,1,0,0,1,.67-.25.84.84,0,0,1,.38.08,5.94,5.94,0,0,1,3.14,3.15,4.5,4.5,0,0,1-.56,3.81c-1.67,2.85-3.49,4.24-5.56,4.24a4.59,4.59,0,0,1-.81-.07,3.1,3.1,0,0,1-1.12.19Z" fill="#ffe6c9"/><path d="M122.31,130s4.29,1.79,2.1,5.54c-1.76,3-3.37,3.74-4.7,3.74a4.1,4.1,0,0,1-.94-.12,1.84,1.84,0,0,1-1,.24,6.17,6.17,0,0,1-2.54-.76,4.15,4.15,0,0,1,0-1.76c.24-.82,7-6.88,7-6.88m0-2a2,2,0,0,0-1.34.51c-7.2,6.44-7.45,7.26-7.61,7.8a6.12,6.12,0,0,0-.08,2.73,2,2,0,0,0,1,1.34,8,8,0,0,0,3.53,1,3.93,3.93,0,0,0,1.21-.17,5.94,5.94,0,0,0,.72,0c2.46,0,4.56-1.55,6.42-4.73a5.49,5.49,0,0,0,.65-4.64,6.91,6.91,0,0,0-3.7-3.76,2.07,2.07,0,0,0-.77-.15Z"/><path d="M114.36,142.3a6.93,6.93,0,0,1-4.72-2.54,7.17,7.17,0,0,0-2.34-1.52c-1.37-.67-2.93-1.43-3.33-3.37a3.06,3.06,0,0,1,.45-2.69,2.3,2.3,0,0,1,.9-.67,3.9,3.9,0,0,1,1.31-3.31,2.76,2.76,0,0,1,2.36-2.62,3.54,3.54,0,0,1,.77-1.87,3.91,3.91,0,0,1,3-1.38h0c2.18,0,10.35,1.87,11.26,5.12a3.53,3.53,0,0,1-1.47,4.14,3.34,3.34,0,0,1-.64,2A3.78,3.78,0,0,1,120,135a3.16,3.16,0,0,1-.33,1.4,4.68,4.68,0,0,1-2.33,2.09,4.29,4.29,0,0,1-2,3.61A2.28,2.28,0,0,1,114.36,142.3Z" fill="#ffe6c9"/><path d="M112.86,123.33c2.06,0,9.5,1.87,10.21,4.39a2.57,2.57,0,0,1-1.62,3.3,2.6,2.6,0,0,1-2.48,3.17h-.16c.77,1.84-1,3.24-2.58,3.65a3.25,3.25,0,0,1-1.35,3.37,1.28,1.28,0,0,1-.52.09,6,6,0,0,1-4-2.21c-1.82-2-4.92-1.93-5.43-4.42-.48-2.28,1.15-2.38,1.43-2.38h0s-.61-2.64,1.18-3.52a2.05,2.05,0,0,1,2.41-2.28,2.67,2.67,0,0,1,2.78-3.16h.07m0-2h-.12a4.92,4.92,0,0,0-3.76,1.75,4.71,4.71,0,0,0-.86,1.7,3.67,3.67,0,0,0-2.41,2.89,4.71,4.71,0,0,0-1.38,3.25,3.45,3.45,0,0,0-.69.63,4.07,4.07,0,0,0-.65,3.53c.5,2.42,2.45,3.37,3.88,4.06a6.55,6.55,0,0,1,2,1.29,7.9,7.9,0,0,0,5.46,2.87,3.22,3.22,0,0,0,1.35-.27,5.31,5.31,0,0,0,2.58-3.88,5.47,5.47,0,0,0,2.28-2.29,4.06,4.06,0,0,0,.37-1.15,5,5,0,0,0,1.8-1.55,4.37,4.37,0,0,0,.79-2,4.46,4.46,0,0,0,1.47-4.94c-.51-1.8-2.43-3.27-5.86-4.49a23.19,23.19,0,0,0-6.28-1.36Z"/><line x1="106.42" y1="132.29" x2="116.23" y2="137.84" fill="#fff" stroke="#000" stroke-linecap="round" stroke-linejoin="round" stroke-width="2"/><line x1="118.81" y1="134.19" x2="107.6" y2="128.77" fill="#fff" stroke="#000" stroke-linecap="round" stroke-linejoin="round" stroke-width="2"/><path d="M110,126.49S116.9,128,121.45,131" fill="#fff" stroke="#000" stroke-linecap="round" stroke-linejoin="round" stroke-width="2"/><path d="M250.43,198.86l-38.4-4a1,1,0,0,1-.78-.52c-.67-1.25-16.59-30.67-16.7-44.72-.05-6.95,1.06-11.06,3.71-13.73,2.44-2.47,6.24-3.61,12-3.61a70.33,70.33,0,0,1,8.33.58c3.19.39,6.4.71,9.51,1,15.3,1.52,28.52,2.83,31.36,11.34,3,8.87,1.2,17.44-.37,25-.17.81-.33,1.61-.49,2.39-1.55,7.82-6.85,24.79-7.07,25.51a1,1,0,0,1-1,.71Z" fill="#0280bf"/><path d="M210.22,133.32a68.73,68.73,0,0,1,8.21.57c18.36,2.24,36.84,2.11,40.05,11.68s.66,19-.9,26.89-7,25.4-7,25.4l-38.4-4s-16.47-30.28-16.58-44.24c-.09-11.59,3.08-16.34,14.67-16.34m0-2h0c-6,0-10,1.24-12.67,3.91-2.86,2.88-4.06,7.2-4,14.44.12,14.3,16.14,43.93,16.82,45.19a2,2,0,0,0,1.56,1l38.4,4h.2a2,2,0,0,0,1.91-1.4c.23-.72,5.54-17.74,7.1-25.61.16-.78.32-1.58.49-2.39,1.51-7.31,3.4-16.4.34-25.53s-16.56-10.46-32.21-12c-3.1-.31-6.31-.63-9.49-1a70.29,70.29,0,0,0-8.45-.59Z"/><g opacity="0.1"><path d="M224.6,148.48s-.66,14.65-.36,17,7.91,2.83,7.83,1.54.94-17.2.94-17.2Z"/></g><path d="M231.32,167.21c-2.11,0-5.75-.62-6-2.94s.77-16.31.82-16.91a1,1,0,0,1,1-.92h.13l7.87,1a1,1,0,0,1,.86,1.08c-.56,6.3-1.39,16-1.36,16.87a1.37,1.37,0,0,1-.4,1A4.13,4.13,0,0,1,231.32,167.21Z" fill="#4b547d"/><path d="M227.16,147.44l7.87,1s-1.41,15.72-1.37,17c0,.5-1,.75-2.34.75-2.09,0-4.84-.65-5-2-.22-2.26.82-16.73.82-16.73m0-2a2,2,0,0,0-2,1.85c-.11,1.5-1,14.71-.82,17.07.28,2.84,3.93,3.85,7,3.85,2.61,0,3.4-.82,3.66-1.08a2.37,2.37,0,0,0,.68-1.73c0-1,.83-10.8,1.36-16.75a2,2,0,0,0-1.73-2.16l-7.87-1Z"/><path d="M230.67,158.18a1.8,1.8,0,0,1-.82-.19,1.92,1.92,0,0,1,.82-3.66,1.83,1.83,0,0,1,.82.19,1.93,1.93,0,0,1,1,1.09,1.9,1.9,0,0,1-.08,1.46A1.92,1.92,0,0,1,230.67,158.18Z" fill="#fff"/><path d="M230.67,155.33a.93.93,0,0,1,0,1.85.93.93,0,0,1-.4-.09.92.92,0,0,1-.44-1.23.94.94,0,0,1,.84-.53m0-2h0a2.92,2.92,0,1,0,2.75,1.94,2.9,2.9,0,0,0-1.51-1.66,3,3,0,0,0-1.24-.28Z"/><path d="M230.08,164.1a1.69,1.69,0,0,1-.76-.17,1.78,1.78,0,0,1-.85-2.37,1.8,1.8,0,0,1,1.62-1,1.83,1.83,0,0,1,.76.17,1.79,1.79,0,0,1-.77,3.4Z" fill="#fff"/><path d="M230.09,161.53a.8.8,0,0,1,.33.08.77.77,0,1,1-.33-.08m0-2h0a2.79,2.79,0,0,0-1.19,5.31,2.82,2.82,0,0,0,1.18.26,2.78,2.78,0,0,0,1.19-5.3,2.68,2.68,0,0,0-1.18-.27Z"/><path d="M212.71,190.67c-5.28,0-5.76-.61-6-.9a1,1,0,0,1-.13-.23c-.4-1-9.89-23.6-10.25-29.84a1,1,0,0,1,.36-.83,1,1,0,0,1,.64-.23l.24,0a31,31,0,0,0,7.35,1h0a13.89,13.89,0,0,0,7.17-1.7,1.06,1.06,0,0,1,.51-.14,1,1,0,0,1,.47.12,1,1,0,0,1,.53.82c0,.17,1.09,17.26,8,30.09a1,1,0,0,1,0,1,1,1,0,0,1-.81.51C217.57,190.57,214.86,190.67,212.71,190.67Z" fill="#e7ad99"/><path d="M212.6,158.86s1,17.32,8.08,30.5c-3.5.23-6.08.31-8,.31-4.8,0-5.21-.52-5.21-.52s-9.82-23.36-10.17-29.51a31.36,31.36,0,0,0,7.59,1.06,15,15,0,0,0,7.68-1.84m0-2a2,2,0,0,0-1,.28,13,13,0,0,1-6.66,1.56,29.49,29.49,0,0,1-7.11-1,2,2,0,0,0-1.76.4,2,2,0,0,0-.72,1.66c.37,6.3,9.31,27.74,10.33,30.16a1.92,1.92,0,0,0,.27.46c.53.68,1.45,1.29,6.78,1.29,2.17,0,4.9-.1,8.1-.31a2,2,0,0,0,1.63-2.94c-6.78-12.65-7.83-29.51-7.84-29.68a2,2,0,0,0-1.06-1.65,2,2,0,0,0-.94-.23Z"/><path d="M241.89,193.31a1,1,0,0,1-.77-.36,1,1,0,0,1-.2-.86c1.08-4.73,4.14-22,4-27.64a1,1,0,0,1,.29-.73,1,1,0,0,1,.71-.3h.34c1.11,0,2.19-.06,3.24-.12s2.15-.13,3.29-.13a23.76,23.76,0,0,1,6.53.88,1,1,0,0,1,.73,1,214.53,214.53,0,0,1-3.59,27,1,1,0,0,1-.94.8Z" fill="#e7ad99"/><path d="M252.8,164.17a22.73,22.73,0,0,1,6.26.84,211.37,211.37,0,0,1-3.57,26.84l-13.6.46c1.1-4.79,4.17-22.1,4-27.89h.34c2.27,0,4.3-.25,6.53-.25m0-2h0c-1.17,0-2.28.06-3.35.13s-2.1.12-3.18.12h-.34a2,2,0,0,0-2,2.05c.13,5.54-2.91,22.7-4,27.39a2,2,0,0,0,.41,1.72,2,2,0,0,0,1.54.73H242l13.6-.46a2,2,0,0,0,1.89-1.6,211.16,211.16,0,0,0,3.61-27.14,2,2,0,0,0-1.46-2,24.58,24.58,0,0,0-6.8-.92Z"/><g clip-path="url(#clip-path-2)"><g opacity="0.1"><path d="M236,195.81l7.93.65s4.63-31.88.93-37.75C243,170.24,242.66,179.38,236,195.81Z"/></g><g opacity="0.1"><path d="M225.14,136A46.76,46.76,0,0,0,212.25,132c-.31-1.33-.61-2.29-.61-2.29l-17.56,4.05s-6.28,44.37,1.42,51.21,23.14,10.91,23.14,10.91-15.06-31.94-15.45-42c-.2-5.06.87-8.68,2.49-11A44.37,44.37,0,0,0,218,151.15c10.76,5.08,23.1,3.51,26.58-2.36C246.94,144.82,235.9,141.1,225.14,136Z"/></g></g><line x1="213.02" y1="150.62" x2="213.08" y2="158.67" fill="none" stroke="#000" stroke-linecap="round" stroke-linejoin="round" stroke-width="2"/><path d="M213.06,155.16c.21,2.1-3.41,2.62-8.83,2-6.58-.72-8.51-1.83-8.51-1.83" fill="none" stroke="#000" stroke-linecap="round" stroke-linejoin="round" stroke-width="2"/><path d="M244.59,158.19c1.14,2.12.84,8.09.84,8.09" fill="none" stroke="#000" stroke-linecap="round" stroke-linejoin="round" stroke-width="2"/><path d="M259.62,160.33a57.82,57.82,0,0,0-5.92.09c-3.43.31-5.95,1-8.39.79" fill="none" stroke="#000" stroke-linecap="round" stroke-linejoin="round" stroke-width="2"/><path d="M208.34,133.06a8,8,0,0,1-6-3.15,8.45,8.45,0,0,1-1.36-7.45c.89-3.45,3.56-5.36,7.53-5.36a12.93,12.93,0,0,1,2.52.26,1,1,0,0,1,.82.92c.13,1.87.65,11.33-1.64,13.95a2.27,2.27,0,0,1-1.57.82Z" fill="#e7ad99"/><path d="M208.54,118.1a12.33,12.33,0,0,1,2.35.24s.92,13.5-2.29,13.71h-.26a7.21,7.21,0,0,1-6.37-9.35c1-3.89,4.28-4.61,6.57-4.61m0-2c-4.4,0-7.5,2.23-8.5,6.11a9.43,9.43,0,0,0,1.54,8.31,9,9,0,0,0,6.76,3.54l.39,0a3.2,3.2,0,0,0,2.26-1.15c2.49-2.84,2.08-12,1.89-14.68a2,2,0,0,0-1.6-1.83,14,14,0,0,0-2.74-.28Z"/><path d="M250.3,137.46a1.48,1.48,0,0,1-1.1-.51c-1.43-1.62-.71-9.17-.33-12.35a1,1,0,0,1,1-.88h.08a7.39,7.39,0,0,1,4.74,2.38,6.72,6.72,0,0,1,1.36,5.24c-.41,3.89-2.26,5.89-5.64,6.11Z" fill="#e7ad99"/><path d="M249.86,124.72s5.84.41,5.19,6.51c-.47,4.39-2.84,5.1-4.72,5.23h0c-1.84,0-.44-11.74-.44-11.74m0-2a2,2,0,0,0-2,1.76c-1.31,11,.11,12.61.58,13.13a2.43,2.43,0,0,0,1.84.85h.17c4.85-.33,6.25-4,6.57-7a7.71,7.71,0,0,0-1.59-6,8.26,8.26,0,0,0-5.44-2.73Z"/><path d="M233.9,152.05a31.82,31.82,0,0,1-17.34-5.2c-8.45-5.67-10.08-15.16-9.13-19.81.72-3.53,2.8-19.63,2.82-19.8a.31.31,0,0,1,0-.13c.1-.4,2.76-9.82,10.14-11.29a17,17,0,0,1,3.28-.27c8,0,23.25,3.64,25.47,6.08,1.6,1.75,2.76,11.41,3.45,28.7.25,6.27-3.38,15.57-9.19,19.41-2.25,1.49-5.63,2.31-9.53,2.31Z" fill="#e7ad99"/><path d="M223.7,96.55c8.25,0,23,3.79,24.74,5.76,2,2.25,2.93,21.73,3.18,28.06s-3.49,15.06-8.74,18.54c-2.12,1.4-5.34,2.14-9,2.14a31.05,31.05,0,0,1-16.78-5c-8.54-5.74-9.45-15.16-8.71-18.78s2.83-19.87,2.83-19.87,2.52-9.2,9.38-10.57a16.17,16.17,0,0,1,3.08-.25m0-2a17.48,17.48,0,0,0-3.48.29c-8,1.59-10.79,11.58-10.91,12a2.33,2.33,0,0,0-.05.28c0,.16-2.1,16.22-2.81,19.72-1,4.9.7,14.89,9.55,20.84a32.86,32.86,0,0,0,17.9,5.37c4.09,0,7.67-.88,10.08-2.47,6.29-4.16,9.9-13.77,9.64-20.29-1.06-26.42-2.91-28.46-3.71-29.33-2.57-2.83-18.46-6.41-26.21-6.41Z"/><path d="M251.16,128.27a1.89,1.89,0,0,1-1.81-1.59,52.9,52.9,0,0,1-.51-5.27c-.24-3.52-.52-7.52-1.42-10.25-1.75-5.33-3.79-8.46-4.54-8.58a2.12,2.12,0,0,1-.39.25c-1.75,1-6.4,3.76-11.69,3.83h-.24c-4.36,0-9-1.56-11.72-2.49-.81-.27-1.72-.58-2.07-.64-1.12.63-3.38,6.74-3.69,8.79s-.38,6.23.54,8a2.2,2.2,0,0,1,0,2.22,3.52,3.52,0,0,1-3,1.39,3.08,3.08,0,0,1-2.79-1.35c-1-1.86-1.69-12.47-.05-17.13-2.45-1.5-5.22-3.53-5.21-6,0-1.35.85-2.54,2.53-3.55,2.84-1.72,6.76-2.38,9.9-2.91,1.93-.32,3.93-.66,4.47-1.1a7.78,7.78,0,0,0,1.43-1.81,6.66,6.66,0,0,1,3.55-3.24,22.62,22.62,0,0,1,6.44-.93,7.94,7.94,0,0,1,2.76.36,2.2,2.2,0,0,0,.54-.44,3.35,3.35,0,0,1,2.29-1.15,3,3,0,0,1,1.27.31c2.41,1.13,5.6,5.36,6.7,8.87.41,1.29,1.14,1.65,2.47,2.32a13.61,13.61,0,0,1,4.85,3.65,4.09,4.09,0,0,0,1.47.94c1.37.64,3.24,1.51,3.15,5.23-.06,2.56-1.05,3.27-2.14,3.82-.65.33-1,.52-.92,2.57a54.93,54.93,0,0,1,.06,10.24,18.82,18.82,0,0,0,0,2.39c.07,1.34.15,2.72-1.83,3.18A1.64,1.64,0,0,1,251.16,128.27Z"/><path d="M236.46,85.71a2,2,0,0,1,.85.21c2.1,1,5.14,5,6.17,8.27s4,2.19,7.51,6.32c1.54,1.8,4.5.94,4.38,5.49s-3.39,1.3-3.05,6.49a54.08,54.08,0,0,1,.05,10.09c-.23,3.23.66,4.28-1.06,4.67l-.15,0a.91.91,0,0,1-.83-.77c-.63-3.48-.48-11.15-2-15.66s-3.81-9.26-5.48-9.26a.78.78,0,0,0-.36.08c-.81.4-6,3.93-11.74,4h-.23c-6.06,0-12.66-3.14-13.85-3.14h-.08c-1.84.3-4.28,8-4.54,9.64s-.48,6.46.64,8.63c.71,1.37-.74,2.15-2.13,2.15a2.12,2.12,0,0,1-1.91-.84c-.83-1.48-1.58-11.86,0-16.35a.92.92,0,0,0-.37-1.1c-3.58-2.19-7.17-5.2-2.76-7.87,4.69-2.82,12.75-2.66,14.5-4.09s2.11-4,4.65-4.87a21.93,21.93,0,0,1,6.13-.88,7.2,7.2,0,0,1,2.39.29,1.13,1.13,0,0,0,.38.08c1,0,1.55-1.6,2.82-1.6m0-2a4.24,4.24,0,0,0-3,1.42l-.06.06a10.62,10.62,0,0,0-2.56-.25,23.8,23.8,0,0,0-6.76,1A7.63,7.63,0,0,0,220,89.57a6.33,6.33,0,0,1-1.21,1.57,20.27,20.27,0,0,1-4,.9c-3.22.54-7.24,1.22-10.25,3-2,1.2-3,2.69-3,4.41,0,2.7,2.54,4.82,5,6.42-1.35,5-.82,15,.36,17.17a4,4,0,0,0,3.66,1.87,4.51,4.51,0,0,0,3.87-1.87,3.2,3.2,0,0,0,0-3.2c-.74-1.43-.76-5.4-.45-7.4a28.4,28.4,0,0,1,3-7.82c.41.12,1,.31,1.44.47,2.81.95,7.51,2.54,12,2.54h.26c5.38-.07,10.08-2.74,12-3.87a25.94,25.94,0,0,1,3.64,7.68c.86,2.61,1.13,6.54,1.37,10,.15,2.14.27,4,.52,5.38a2.88,2.88,0,0,0,2.8,2.41,2.46,2.46,0,0,0,.6-.07c2.8-.64,2.68-2.87,2.61-4.21a16.86,16.86,0,0,1,0-2.26,57.24,57.24,0,0,0-.06-10.37,4,4,0,0,1,.08-1.47l.29-.15c1.35-.68,2.62-1.72,2.69-4.69.11-4.37-2.29-5.49-3.73-6.16a3.28,3.28,0,0,1-1.12-.67,14.83,14.83,0,0,0-5.18-3.91c-1.33-.66-1.68-.87-2-1.72-1.2-3.8-4.57-8.22-7.23-9.48a4,4,0,0,0-1.7-.4Z"/><path d="M224.84,122c3.22,0,3.22-5,0-5s-3.22,5,0,5Z"/><path d="M242.07,124.83c3.21,0,3.22-5,0-5s-3.23,5,0,5Z"/><path d="M234.86,119.65s2.63,4.52-.1,6.38" fill="none" stroke="#000" stroke-linecap="round" stroke-linejoin="round" stroke-width="2"/><path d="M232.75,143.36c-4.43,0-13.34-1.92-15.29-9.21-.58-2.17-.47-3.74.34-4.79a3.63,3.63,0,0,1,3.07-1.28,16.26,16.26,0,0,1,4.62,1l.7.22a39.55,39.55,0,0,0,8.55,1.08c1.25.06,2.34.11,3.13.23a3.24,3.24,0,0,1,2.55,2.73c.39,1.65.07,3.93-1.3,4.89a4.73,4.73,0,0,1-2,.75v.22c0,1.22-.07,3.05-1.85,3.84A7.07,7.07,0,0,1,232.75,143.36Z" fill="#fff"/><path d="M220.87,129.08a19.67,19.67,0,0,1,5,1.14c4.38,1.24,9.53,1,11.8,1.34s2.36,4.73.82,5.82a4.67,4.67,0,0,1-2.3.65c-.25,1.14.3,3.33-1.34,4.06a6.15,6.15,0,0,1-2.15.27c-4.19,0-12.55-1.85-14.32-8.47-1-3.81.47-4.81,2.44-4.81m0-2h0a4.56,4.56,0,0,0-3.86,1.67c-1,1.32-1.18,3.17-.52,5.66,2.12,7.87,11.56,10,16.26,10a7.55,7.55,0,0,0,3-.45,4.4,4.4,0,0,0,2.42-4.16,5.6,5.6,0,0,0,1.57-.74c1.74-1.24,2.17-3.92,1.69-5.94a4.22,4.22,0,0,0-3.37-3.48,30.48,30.48,0,0,0-3.23-.25,38.19,38.19,0,0,1-8.33-1l-.67-.21a17,17,0,0,0-4.92-1Z"/><path d="M226.11,135.59a19.49,19.49,0,0,0,10.52,3" fill="#fff" stroke="#000" stroke-linecap="round" stroke-linejoin="round" stroke-width="2"/><g opacity="0.3"><path d="M213.48,155.41c.21,2.1-3.41,2.62-8.84,2-6.58-.72-8.5-1.83-8.5-1.83l1,3.72s5.35,1.45,8.43,1.12,7.7-2,7.69-3.22A5.32,5.32,0,0,1,213.48,155.41Z"/></g><g opacity="0.3"><path d="M260.31,160.17c-1.29.35-1.93-.35-7.34.32a43.32,43.32,0,0,1-7.57.52l.3,3s3.68,0,6.76-.31a22.54,22.54,0,0,1,7.23.84A33.5,33.5,0,0,1,260.31,160.17Z"/></g><path d="M279.68,198.65a1,1,0,0,1-.76-.35,1,1,0,0,1-.19-1c.12-.34,11.57-33.57,23.59-50l2.4-3.27c9.85-13.42,10.65-14.52,6.94-19.34a26,26,0,0,1-5.09-11.45c-2.16-.66-8.89-3.07-11.43-8.36-3.86-8-4.48-14.61-1.74-18.53A5.06,5.06,0,0,1,297.69,84a11,11,0,0,1,4.16,1.12,14.34,14.34,0,0,0,1.41.54,25.57,25.57,0,0,0,6.47,1c5.26,0,5.59-2.6,5.69-3.45A38.38,38.38,0,0,1,318,72.72a18.94,18.94,0,0,1-5.54,1.44h-.27a5.67,5.67,0,0,1-4.29-1.93c-1.12-1.38-1.48-3.45-1.08-6.17.45-2.94,2.16-4.37,5.23-4.37a25.59,25.59,0,0,1,3.54.36c.88.14,1.79.28,2.62.33l1.62.11c1.07.09,2.17.18,3.17.18,1.62,0,2.65-.25,3.06-.73.09-.11.37-.44.19-1.42-.11-.65-.3-1.57-.51-2.65-2.34-11.62-3.1-18.16-.42-19.39a2,2,0,0,1,.8-.17c4.06,0,8.28,14.53,8.69,20.72,1.88.59,6.8,2.15,8.69,3a40.29,40.29,0,0,0,3.44-5.48c2.95-5.16,6.29-11,9.56-12.43a6,6,0,0,1,2.26-.56,2.38,2.38,0,0,1,2.08,1c1.15,1.69.53,5.23-2.06,11.83-.37.94-.72,1.8-1,2.59-2.23,5.51-2.73,7-.66,8.45,2.71,1.87,8.58,4,16.11,5.88a8.55,8.55,0,0,1,6.46,6.28c.68,2.66.08,5.34-1.54,6.82s-3.47,2.88-6,2.88c-2.95,0-5.94-2-9.17-6-1.45-1.83-2.46-3-3.15-3.72.53,2.94,1.15,10-1.78,21.75l-.72,2.91c-3.37,13.41-5.4,21.51-3.5,26.61,2,5.42,1,45.83-2.17,50.4-2.77,4-60.24,15.16-71.73,17.35Z" fill="#ffa8a7"/><path d="M326.1,39.3c3,0,7.62,14,7.72,20.46,0,0,7.86,2.42,9.55,3.36a.28.28,0,0,0,.15,0c1.91,0,8.3-15.89,13.36-18.09a4.84,4.84,0,0,1,1.86-.48c2.91,0,1.51,5.31-.91,11.5-2.84,7.23-4.57,10-1.34,12.22s10.05,4.45,16.44,6,7.25,8.85,4.48,11.4c-1.37,1.26-3.1,2.61-5.32,2.61s-5-1.39-8.39-5.65-4.7-5.33-5.16-5.33-.08,1-.08,1,2.42,7.28-1.44,22.74-6.33,24.34-4.19,30.11.63,45.61-2.05,49.48-71.1,16.94-71.1,16.94,11.38-33.23,23.45-49.75,13.81-18,9.32-23.81a24.31,24.31,0,0,1-5-11.62s-8.63-2.16-11.44-8c-3.4-7.09-4.53-13.66-1.82-17.52a4.05,4.05,0,0,1,3.47-2c1.94,0,3.92,1.23,5.3,1.62a26.81,26.81,0,0,0,6.74,1c3.16,0,6.26-.9,6.68-4.33.82-6.47,2.37-10.67,3.63-12,.21-.22.22-.31.06-.31-.75,0-5.28,2.21-7.66,2.21h-.21c-2.78-.17-5.24-1.61-4.44-7,.43-2.81,2.12-3.52,4.24-3.52,1.9,0,4.13.56,6.1.68,1.54.1,3.29.3,4.85.3,2.64,0,4.72-.59,4.24-3.32-.77-4.33-4.42-19.62-1.5-21a.84.84,0,0,1,.38-.08m0-2a3,3,0,0,0-1.21.26c-3.33,1.53-2.7,7.83-.15,20.5.21,1.07.39,2,.51,2.63a1.1,1.1,0,0,1,0,.61h0s-.38.36-2.28.36c-1,0-2-.09-3.09-.17l-1.64-.12c-.78,0-1.63-.18-2.53-.31a24.44,24.44,0,0,0-3.69-.38c-4.49,0-5.86,2.84-6.21,5.23-.46,3,0,5.34,1.28,6.94a6.68,6.68,0,0,0,5,2.3h.33a12.72,12.72,0,0,0,3.82-.78A46.46,46.46,0,0,0,314.43,83c-.09.71-.32,2.58-4.7,2.58a25.37,25.37,0,0,1-6.2-.94c-.33-.1-.8-.29-1.29-.5a11.86,11.86,0,0,0-4.55-1.2,6.08,6.08,0,0,0-5.11,2.84c-2.95,4.22-2.36,11.16,1.66,19.54,2.5,5.21,8.73,7.78,11.45,8.69a27.46,27.46,0,0,0,5.17,11.29c3.07,4,3.26,4.23-6.95,18.14l-2.4,3.27c-5.09,7-10.64,17.57-16.48,31.48-4.33,10.31-7.21,18.72-7.24,18.8a2,2,0,0,0,1.89,2.65,1.55,1.55,0,0,0,.37,0c.18,0,17.33-3.31,34.59-7,35.66-7.67,37-9.59,37.78-10.74,3.33-4.8,4.48-45.41,2.28-51.32-1.78-4.81.22-12.8,3.54-26l.72-2.91c2.19-8.73,2.42-15,2.17-18.9.31.37.64.79,1,1.25,3.42,4.3,6.68,6.4,9.95,6.4,2.89,0,5.09-1.68,6.68-3.14,1.88-1.73,2.6-4.8,1.83-7.81a9.65,9.65,0,0,0-7.19-7c-7.31-1.81-13.21-4-15.78-5.73-1.29-.9-1.32-1.46,1-7.25.32-.8.67-1.66,1-2.6,2.76-7,3.33-10.74,1.95-12.76a3.37,3.37,0,0,0-2.9-1.47,6.72,6.72,0,0,0-2.66.65c-3.31,1.43-6.37,6.45-10,12.85-1,1.7-2.13,3.74-2.87,4.75-2-.83-5.44-1.94-7.44-2.57a51.23,51.23,0,0,0-2.82-11.84c-3.29-9.13-5.85-9.13-6.82-9.13Z"/><g clip-path="url(#clip-path-3)"><g opacity="0.1"><path d="M274.24,197.07l14-3a117.31,117.31,0,0,1,8-24c.82-1.8-21.16-1.67-21.16-1.67Z"/></g><g opacity="0.2"><path d="M367.93,87.84c6.58-.33,10.79-9,3.46-11.44-10.57-3.51-18.11-5-18.55-9.73s5.61-17.36,3.84-19.05c-4.43-4.23-13.31,15.5-13.31,15.5l-9.55-3.36s-4.37-14-5.78-13.64c-4.05,1.17-2.55,2.17-2.3,5.34s2.41,12.19-1.44,12.14-20.52-31-20.52-31L332,5.77l72.65,42S370.6,110.16,367.93,87.84Z" fill="#fff"/></g></g><path d="M307.28,141.36s-13.21,18.87-16.37,17.38c-1.58-.74-8.48-7.53-7.65-14.42s7.39-13.51,6.18-17.94-4.63-.75-6.19,2.08a22.18,22.18,0,0,0-2,7s-.4-11.19-6.35-11-.21,10.75.72,13.62-1.36,5.62,1.62,16.26c2.71,9.7,6.47,16.57,10.87,19.34s9-4.7,9-4.7" fill="#ffa8a7" stroke="#000" stroke-linecap="round" stroke-linejoin="round" stroke-width="2"/><path d="M276.51,146.82a6.47,6.47,0,0,1-3.75-.94,7.07,7.07,0,0,1-3.19-5.6,3.72,3.72,0,0,1,2-3.11,5.65,5.65,0,0,1,2.75-.6c3.4,0,8.13,2,9.18,3.48a4.22,4.22,0,0,1,.24,3.85c-.19.53-.74,1.79-1.7,2A21.88,21.88,0,0,1,276.51,146.82Z" fill="#ffa8a7"/><path d="M274.34,137.56c3.22,0,7.57,1.94,8.37,3.07,1,1.43-.15,4.15-.91,4.36a21.37,21.37,0,0,1-5.29.83,5.67,5.67,0,0,1-3.18-.75c-2.46-1.74-4.12-5.44-1.26-7a4.82,4.82,0,0,1,2.27-.49m0-2h0a6.72,6.72,0,0,0-3.24.74,4.68,4.68,0,0,0-2.53,3.93c-.14,2.62,1.71,5.14,3.61,6.47a7.37,7.37,0,0,0,4.33,1.12,23.13,23.13,0,0,0,5.84-.91,4.07,4.07,0,0,0,2.35-2.67,5.12,5.12,0,0,0-.36-4.76c-1.34-1.9-6.48-3.92-10-3.92Z"/><path d="M285.59,148.42a10.59,10.59,0,0,1-5-1.79.89.89,0,0,1-.3-.31,4.88,4.88,0,0,1,.32-5c1.5-2.64,4.59-4.86,6.75-4.86a3,3,0,0,1,.85.12,3.18,3.18,0,0,1,2,1.81c1.1,2.48-.49,6.38-1.23,7.95a3.53,3.53,0,0,1-3.4,2.11Z" fill="#ffa8a7"/><path d="M287.34,137.43a1.67,1.67,0,0,1,.55.08c2.62.8,1.85,4.86.2,8.37a2.57,2.57,0,0,1-2.5,1.54,9.87,9.87,0,0,1-4.47-1.61c-1.93-3.26,3.37-8.38,6.22-8.38m0-2c-2.83,0-6.15,2.78-7.62,5.36-1.23,2.17-1.34,4.31-.31,6a1.9,1.9,0,0,0,.6.63,11.5,11.5,0,0,0,5.58,2,4.54,4.54,0,0,0,4.31-2.69c1-2.09,2.46-6,1.24-8.78a4.22,4.22,0,0,0-2.66-2.36,3.88,3.88,0,0,0-1.14-.16Z"/><g opacity="0.1"><ellipse cx="317.24" cy="85.91" rx="7.27" ry="6.52" transform="translate(104.27 336.24) rotate(-64.76)"/></g><g opacity="0.1"><path d="M343.46,88.31a7.27,7.27,0,1,1-6.46-8A7.27,7.27,0,0,1,343.46,88.31Z"/></g><path d="M318.34,91.53a6.89,6.89,0,0,1-3-.66c-3.75-1.77-5.22-6.56-3.28-10.68a8.3,8.3,0,0,1,7.36-4.93,6.89,6.89,0,0,1,3,.66c3.75,1.77,5.23,6.56,3.28,10.68A8.3,8.3,0,0,1,318.34,91.53Z" fill="#fff"/><path d="M319.45,76.26a6,6,0,0,1,2.55.56c3.25,1.54,4.51,5.73,2.8,9.36a7.32,7.32,0,0,1-6.46,4.35A6,6,0,0,1,315.8,90c-3.26-1.54-4.52-5.73-2.8-9.36a7.31,7.31,0,0,1,6.45-4.35m0-2h0a9.31,9.31,0,0,0-8.26,5.5c-2.18,4.62-.5,10,3.76,12a7.88,7.88,0,0,0,3.39.75,9.33,9.33,0,0,0,8.27-5.5,9.65,9.65,0,0,0,.57-6.89A8.18,8.18,0,0,0,322.85,75a8,8,0,0,0-3.4-.75Z"/><path d="M337.91,93.29a8.83,8.83,0,0,1-.89,0,8.27,8.27,0,0,1,.87-16.49,8.77,8.77,0,0,1,.88,0,8.27,8.27,0,0,1-.86,16.49Z" fill="#fff"/><path d="M337.89,77.76a6.74,6.74,0,0,1,.77,0,7.27,7.27,0,0,1-.75,14.49,6.79,6.79,0,0,1-.78,0,7.27,7.27,0,0,1,.76-14.49m0-2h0a9.27,9.27,0,0,0-1,18.48,8.1,8.1,0,0,0,1,.05,9.27,9.27,0,0,0,1-18.48c-.33,0-.66,0-1,0Z"/><path d="M299.13,100.06c-2.34-.16-4.09-2.53-3.9-5.28s2.09-4.71,4.34-4.71h.25c2.34.16,4.09,2.54,3.9,5.29s-2.09,4.7-4.34,4.7Z" fill="#806154"/><path d="M299.57,91.07h.18c1.8.12,3.13,2,3,4.22s-1.62,3.77-3.34,3.77h-.18c-1.8-.13-3.13-2-3-4.22s1.62-3.78,3.34-3.78m0-2h0c-2.77,0-5.12,2.48-5.34,5.64a6.51,6.51,0,0,0,1.12,4.18,5,5,0,0,0,3.71,2.17h.32c2.77,0,5.12-2.47,5.34-5.63a6.5,6.5,0,0,0-1.12-4.18,5,5,0,0,0-3.71-2.18Z"/><path d="M308.58,101.73c-2.34-.16-4.08-2.54-3.89-5.29s2.09-4.7,4.34-4.7h.25c2.34.16,4.09,2.53,3.9,5.28s-2.09,4.71-4.34,4.71Z" fill="#806154"/><path d="M309,92.74h.18c1.8.13,3.12,2,3,4.22s-1.62,3.78-3.34,3.78h-.19c-1.79-.12-3.12-2-3-4.22s1.62-3.77,3.34-3.77m0-2h0c-2.77,0-5.12,2.47-5.34,5.63a6.53,6.53,0,0,0,1.11,4.18,5,5,0,0,0,3.71,2.18h.33c2.77,0,5.11-2.48,5.34-5.64a6.51,6.51,0,0,0-1.12-4.18,5,5,0,0,0-3.71-2.17Z"/><path d="M324.19,123.4a15.37,15.37,0,0,1-9.82-3.59,23.47,23.47,0,0,1-4.5-6.12,1,1,0,0,1,.12-1.1,1,1,0,0,1,.77-.35,1,1,0,0,1,.3,0,10.73,10.73,0,0,0,3,.35,18.76,18.76,0,0,0,10.56-3.51,30,30,0,0,0,5.9-5.61c1.54-1.78,2.56-3,3.82-3,1.77,0,3.1,1.24,3.67,3.37,1.27,4.71-1.11,14.2-7,17.65A13.27,13.27,0,0,1,324.19,123.4Z" fill="#fff"/><path d="M334.32,101.55h0c5.3,0,3.3,15-3.82,19.16a12.35,12.35,0,0,1-6.32,1.69A14.36,14.36,0,0,1,315,119a23.08,23.08,0,0,1-4.26-5.8,11.89,11.89,0,0,0,3.28.39A19.75,19.75,0,0,0,325.16,110c5.14-3.5,7.45-8.4,9.16-8.4m0-2c-1.72,0-2.92,1.39-4.57,3.31a29.16,29.16,0,0,1-5.71,5.43,17.76,17.76,0,0,1-10,3.34,9.82,9.82,0,0,1-2.69-.31,2.32,2.32,0,0,0-.58-.08,2,2,0,0,0-1.54.72,2,2,0,0,0-.25,2.19,25.12,25.12,0,0,0,4.74,6.42,16.36,16.36,0,0,0,10.47,3.83,14.46,14.46,0,0,0,7.34-2c6.24-3.68,8.77-13.76,7.43-18.77-.7-2.59-2.38-4.09-4.61-4.11Z"/><path d="M317.27,116.69a12.85,12.85,0,0,0,13.58-3.37" fill="none" stroke="#000" stroke-linecap="round" stroke-linejoin="round" stroke-width="2"/><path d="M336.1,89.69c3.22,0,3.22-5,0-5s-3.22,5,0,5Z"/><path d="M319.23,87.3c3.22,0,3.22-5,0-5s-3.22,5,0,5Z"/><path d="M365.54,90.61a4.71,4.71,0,0,1-3.3-1.38,4,4,0,0,1-1.18-2.88c.05-6.71,4.4-7.23,5.74-7.23a5.76,5.76,0,0,1,3.63,1.21,1.18,1.18,0,0,1,.4.83,3.41,3.41,0,0,1-1.12,2.18,1,1,0,0,1-.75.34,1,1,0,0,1-.54-.16,3.52,3.52,0,0,0-1.61-.51,1.4,1.4,0,0,0-.47.08,4.2,4.2,0,0,0-1.53,2.75c0,.35,0,.81.27,1a.73.73,0,0,0,.32.12c.19,0,.4-.24.47-.35a1,1,0,0,1,.77-.45h.08a1,1,0,0,1,.74.33h0a3.89,3.89,0,0,0,.84.49,1,1,0,0,1,.57,1.15A3.24,3.24,0,0,1,365.54,90.61Z" fill="#ffbe25"/><path d="M366.8,80.12a4.7,4.7,0,0,1,3,1c.34.29-.81,1.59-.81,1.59a4.51,4.51,0,0,0-2.15-.67,2.54,2.54,0,0,0-.81.13c-1.37.5-3.27,4.37-1.46,5.55a1.58,1.58,0,0,0,.86.28,1.73,1.73,0,0,0,1.32-.81,3.69,3.69,0,0,0,1.18.73,2.25,2.25,0,0,1-2.36,1.72,3.39,3.39,0,0,1-3.48-3.26c0-4.81,2.52-6.23,4.74-6.23m0-2c-3.23,0-6.7,2.16-6.74,8.22a5,5,0,0,0,1.47,3.6,5.78,5.78,0,0,0,4,1.67,4.25,4.25,0,0,0,4.3-3.24,2,2,0,0,0-1.14-2.31,3.54,3.54,0,0,1-.53-.28,1.77,1.77,0,0,0-1.48-.8h-.16a1.86,1.86,0,0,0-.48.1,3.31,3.31,0,0,1,.7-1.08h.06a2.5,2.5,0,0,1,1.06.35,2,2,0,0,0,1.09.32,2,2,0,0,0,1.5-.67c1.45-1.65,1.39-2.57,1.37-2.92a2.17,2.17,0,0,0-.74-1.51,6.75,6.75,0,0,0-4.29-1.46Z"/><path d="M240.57,294.36c-78.86,0-142.48-22.6-189.08-67.17-36.66-35.07-42-55.37-41.95-64.35,0-3.18.79-5.77,2.05-6.94l.28-.25c4.24-3.94,9.05-8.14,12.47-8.14a3.51,3.51,0,0,1,1.5.32,24.82,24.82,0,0,1,2.3,1.45c42.11,28,89.25,36.13,121.37,38.07,7.53.45,14.94.94,22.24,1.42,24,1.59,46.7,3.08,69.31,3.08,50,0,90.61-7.94,131.77-25.75,11.65-5,20.35-7.29,28.22-7.29A50.74,50.74,0,0,1,413,160.34a5.38,5.38,0,0,0,1.27.15c6.07,0,13.62-9.29,19.68-16.75,4.48-5.52,8.36-10.29,11.36-11.25a7.39,7.39,0,0,1,2.22-.32c5.75,0,13.93,5.5,16.51,11.1,1.31,2.83,1.09,5.39-.64,7.42-4.51,5.28-22.83,25-30.16,25l-.4,0a.58.58,0,0,0-.28,0c-.28.28-.1,2.07,0,3.5.75,7.4,2.3,22.8-18.13,44.36-19.08,20.12-38.19,34.75-60.14,46-29.93,15.39-64.66,23.68-103.21,24.64C247.59,294.32,244,294.36,240.57,294.36Z" fill="#fdc10f"/><path d="M447.52,133.17c7.59,0,20.37,10.7,15.11,16.87-5.68,6.65-23,24.64-29.4,24.64h-.4c-5.7,0,9.56,18-19.1,48.21-29,30.55-76.46,68.21-162.64,70.36q-5.31.13-10.52.13c-78.36,0-141.88-22.41-188.39-66.89-47.4-45.34-43-67-39.91-69.83s8.66-8.13,12.07-8.13a2.58,2.58,0,0,1,1.08.22c3.15,1.49,45.35,34.87,124,39.62,32.15,1.94,62,4.5,91.61,4.5,42.79,0,84.9-5.38,132.17-25.83,12.18-5.27,20.46-7.21,27.82-7.21a50.07,50.07,0,0,1,11.71,1.51,6.9,6.9,0,0,0,1.5.17c11,0,24.6-25.9,31.34-28a6.23,6.23,0,0,1,1.92-.28m0-2a8.38,8.38,0,0,0-2.52.37c-3.29,1-7.06,5.69-11.84,11.57-5.93,7.29-13.31,16.38-18.9,16.38a4.42,4.42,0,0,1-1-.12,51.65,51.65,0,0,0-12.17-1.56c-8,0-16.84,2.28-28.62,7.37-41,17.76-81.54,25.67-131.37,25.67-22.58,0-45.24-1.49-69.24-3.07-7.24-.48-14.72-1-22.25-1.43-32-1.93-78.95-10.07-120.88-37.91a26.15,26.15,0,0,0-2.42-1.52,4.54,4.54,0,0,0-1.93-.41c-3.78,0-8.57,4.15-13.15,8.4l-.28.26c-1.48,1.37-2.34,4.16-2.37,7.66-.07,9.14,5.32,29.75,42.26,65.08,46.8,44.76,110.64,67.45,189.77,67.45,3.48,0,7,0,10.57-.13,38.7-1,73.57-9.29,103.64-24.75,22.05-11.33,41.25-26,60.4-46.23,20.75-21.89,19.17-37.6,18.41-45.15-.08-.83-.18-1.8-.19-2.43,9-.31,30.53-25.08,30.75-25.33,2-2.31,2.25-5.33.79-8.49-2.72-5.9-11.35-11.68-17.42-11.68Z"/><g clip-path="url(#clip-path-4)"><g opacity="0.1"><path d="M34.11,164.83c-3,1.68-9.13,5.58-7.06,9.52,9.85,18.74,41.26,55,92.74,82.27,61.34,32.48,179.83,33.85,229.25,7.17s62.7-38.49,73.21-51.25-20.39,78.93-60.57,101.12S57.44,326.19,13.81,231.52s29.48-91.18,35.46-82.73,47.8,31.51,47.8,31.51S78.93,176.66,34.11,164.83Z"/></g><g opacity="0.2"><path d="M331,174.53s31.7-3.32,48.46-7.07,30.45-2.81,37.08-1.43,25.39-21.85,28.63-24.64c4.17-3.59,15.85-1.25,17.47,8.65,1.17,7.15,4.36-43.79,4.36-43.79Z" fill="#fff"/></g></g><path d="M228.38,257.45a16.44,16.44,0,0,1-2.22-.14,17.3,17.3,0,0,1,2.18-34.46,16.71,16.71,0,0,1,2.23.15,17.3,17.3,0,0,1-2.19,34.45Z" fill="#e0651c"/><path d="M228.34,223.85a16.7,16.7,0,0,1,2.1.14,16.3,16.3,0,0,1-2.06,32.46,16.67,16.67,0,0,1-2.1-.13,16.3,16.3,0,0,1,2.06-32.47m0-2h0A18.3,18.3,0,0,0,226,258.3a18.54,18.54,0,0,0,2.35.15A18.29,18.29,0,0,0,242.84,229a18.13,18.13,0,0,0-12.15-7,18.56,18.56,0,0,0-2.35-.16Z"/><g opacity="0.1"><circle cx="224.93" cy="243.08" r="16.3" transform="translate(-19.91 466.09) rotate(-89.55)"/></g><path d="M228.38,254.64a14.68,14.68,0,0,1-1.87-.12,14.49,14.49,0,0,1,1.83-28.86,14.68,14.68,0,0,1,1.87.12,14.49,14.49,0,0,1-1.83,28.86Z" fill="#ffbe25"/><path d="M228.34,226.66a12.72,12.72,0,0,1,1.74.12,13.48,13.48,0,0,1-1.7,26.86,12.81,12.81,0,0,1-1.74-.11,13.49,13.49,0,0,1,1.7-26.87m0-2h0a15.49,15.49,0,0,0-2,30.86,16.61,16.61,0,0,0,2,.12,15.49,15.49,0,0,0,2-30.85,16.62,16.62,0,0,0-2-.13Z"/><path d="M223.75,239.29c3.22,0,3.22-5,0-5s-3.22,5,0,5Z"/><path d="M233.33,240.6c3.21,0,3.22-5,0-5s-3.23,5,0,5Z"/><path d="M222.83,242.89s4.49,6.13,10.47,1.34" fill="none" stroke="#000" stroke-linecap="round" stroke-linejoin="round" stroke-width="2"/><path d="M167,252.87a17.3,17.3,0,1,1,16.78-13.15A17.32,17.32,0,0,1,167,252.87Z" fill="#e0651c"/><path d="M167,219.26a16.7,16.7,0,0,1,3.93.48A16.31,16.31,0,0,1,167,251.87a16.31,16.31,0,0,1,0-32.61m0-2h0a18.31,18.31,0,1,0,4.41.54,18.26,18.26,0,0,0-4.41-.54Z"/><g opacity="0.1"><circle cx="163.24" cy="238.08" r="16.3" transform="translate(-120.88 289.13) rotate(-65.75)"/></g><path d="M167,250.06a14.84,14.84,0,0,1-3.5-.43A14.49,14.49,0,0,1,167,221.07a14.69,14.69,0,0,1,3.49.43A14.49,14.49,0,0,1,167,250.06Z" fill="#ffbe25"/><path d="M167,222.07a13.49,13.49,0,1,1-13.08,10.25A13.51,13.51,0,0,1,167,222.07m0-2h0a15.49,15.49,0,0,0-3.72,30.53,15.82,15.82,0,0,0,3.74.46,15.49,15.49,0,0,0,3.71-30.53,15.68,15.68,0,0,0-3.73-.46Z"/><path d="M162.79,234.19c3.22,0,3.23-5,0-5s-3.22,5,0,5Z"/><path d="M172.16,236.6c3.21,0,3.22-5,0-5s-3.23,5,0,5Z"/><path d="M161.18,237.64s3.75,6.61,10.25,2.54" fill="none" stroke="#000" stroke-linecap="round" stroke-linejoin="round" stroke-width="2"/><path d="M286.83,253.1a17.3,17.3,0,0,1-2.37-34.43,17.79,17.79,0,0,1,2.42-.17,17.3,17.3,0,0,1,2.38,34.43A16.55,16.55,0,0,1,286.83,253.1Z" fill="#e0651c"/><path d="M286.88,219.5a16.3,16.3,0,0,1,2.24,32.44,16.09,16.09,0,0,1-2.28.16,16.3,16.3,0,0,1-2.25-32.44,17.75,17.75,0,0,1,2.29-.16m0-2h0a19.9,19.9,0,0,0-2.56.18,18.32,18.32,0,0,0-15.59,20.66,18.37,18.37,0,0,0,18.11,15.76,19.74,19.74,0,0,0,2.55-.17,18.3,18.3,0,0,0-2.51-36.43Z"/><g opacity="0.1"><circle cx="284.31" cy="239.53" r="16.3" transform="translate(-70.7 129.19) rotate(-22.85)"/></g><path d="M286.84,250.3a14.54,14.54,0,0,1-14.33-12.48,14.48,14.48,0,0,1,12.34-16.36,13.73,13.73,0,0,1,2-.15,14.54,14.54,0,0,1,14.33,12.48,14.48,14.48,0,0,1-12.33,16.36A14,14,0,0,1,286.84,250.3Z" fill="#ffbe25"/><path d="M286.87,222.31a13.55,13.55,0,1,1-1.89.14,13.49,13.49,0,0,1,1.89-.14m0-2h0a15.58,15.58,0,0,0-2.16.16A15.48,15.48,0,0,0,271.52,238a15.48,15.48,0,1,0,15.35-17.64Z"/><path d="M281.52,236.28c3.22,0,3.22-5,0-5s-3.22,5,0,5Z"/><path d="M291.11,235c3.21,0,3.22-5,0-5s-3.23,5,0,5Z"/><path d="M282.24,239.9s5.95,4.73,10.46-1.47" fill="none" stroke="#000" stroke-linecap="round" stroke-linejoin="round" stroke-width="2"/><path d="M404.08,229.5s-44.2,41.61-132.9,44.45" fill="none" stroke="#000" stroke-linecap="round" stroke-linejoin="round" stroke-width="2"/><path d="M190.84,200a3.52,3.52,0,0,1-2.52-1.22,3.43,3.43,0,0,1-.48,0,3.9,3.9,0,0,1-2.65-.92,3.2,3.2,0,0,1-.75.09,4.27,4.27,0,0,1-2.73-1.11,5.78,5.78,0,0,1-.63,0h0a5.29,5.29,0,0,1-2.37-.53c-2.3-1.15-3-4.32-3.08-4.68a1.19,1.19,0,0,1,0-.42l1.05-4.58c0-.86.42-4.17,6.3-4.78.42,0,.83-.06,1.22-.06a11,11,0,0,1,8.3,4.07,6.8,6.8,0,0,0,.68.67c1.44,1.19,1.29,6.39,1.13,8.12-.4,4.06-1.55,4.67-1.93,4.88A3.24,3.24,0,0,1,190.84,200Z" fill="#ffe6c9"/><path d="M184.21,182.87c4.92,0,7.19,3.57,8.34,4.52s1.28,10.31-.63,11.34a2.37,2.37,0,0,1-1.08.29,2.79,2.79,0,0,1-2.09-1.29,3.94,3.94,0,0,1-.91.1,2.81,2.81,0,0,1-2.35-1.06,2.63,2.63,0,0,1-1.05.23,3.53,3.53,0,0,1-2.39-1.17,4.87,4.87,0,0,1-1,.09,4.29,4.29,0,0,1-1.92-.42c-1.94-1-2.55-4-2.55-4l1.08-4.7s-.31-3.29,5.4-3.88a8.68,8.68,0,0,1,1.12-.06m0-2a12,12,0,0,0-1.33.07c-5.66.59-7.16,3.77-7.2,5.67l-1,4.46a2.16,2.16,0,0,0,0,.84c.09.4.89,4,3.62,5.38a6.24,6.24,0,0,0,2.81.63h.31a5.12,5.12,0,0,0,3.05,1.09,3.87,3.87,0,0,0,.48,0,5,5,0,0,0,2.92.86h.1a4.12,4.12,0,0,0,4.93.67c1.36-.73,2.14-2.53,2.44-5.66.07-.74.64-7.25-1.49-9-.12-.1-.36-.35-.59-.59a11.89,11.89,0,0,0-9-4.38Z"/><line x1="188.75" y1="197.73" x2="189.08" y2="189.32" fill="#fff" stroke="#000" stroke-linecap="round" stroke-linejoin="round" stroke-width="2"/><line x1="185.53" y1="196.85" x2="185.77" y2="189.05" fill="#fff" stroke="#000" stroke-linecap="round" stroke-linejoin="round" stroke-width="2"/><line x1="181.88" y1="195.95" x2="182.48" y2="189.07" fill="#fff" stroke="#000" stroke-linecap="round" stroke-linejoin="round" stroke-width="2"/><path d="M246.32,203.54a4.64,4.64,0,0,1-2-.53c-2-1-2-4.37-1.85-6.76a2.49,2.49,0,0,1-1.17.32h0a2.5,2.5,0,0,1-1.94-1,4.39,4.39,0,0,1-.82-4.63c1.21-3,5.49-5.08,8.11-5.4a30.42,30.42,0,0,1,3.56-.18c3.24,0,7.58.37,9.85,2.14,3.07,2.4,3.84,7.24,3.24,11-.38,2.43-1.49,3.66-3.3,3.66a6,6,0,0,1-2.21-.49,2.93,2.93,0,0,1-2.18.87,4.74,4.74,0,0,1-1.72-.34,3.29,3.29,0,0,1-2.48,1.13,5,5,0,0,1-2.76-1A2.71,2.71,0,0,1,246.32,203.54Z" fill="#e7ad99"/><path d="M250.21,186.32c3.15,0,7.26.39,9.23,1.93,2.88,2.25,3.37,6.94,2.88,10-.32,2-1.07,2.82-2.32,2.82a6.52,6.52,0,0,1-2.62-.76,1.67,1.67,0,0,1-1.77,1.14,4.46,4.46,0,0,1-2-.57,2.54,2.54,0,0,1-2.17,1.36,5.32,5.32,0,0,1-3.17-1.63s-.27,1.9-1.92,1.9a3.51,3.51,0,0,1-1.55-.43c-2-1-1.11-6.52-1.28-7.56,0-.15-.07-.21-.14-.21-.32,0-1.09,1.23-2,1.23a1.51,1.51,0,0,1-1.16-.68c-3.29-4,2.93-7.95,6.64-8.4a30.72,30.72,0,0,1,3.43-.17m0-2a35.2,35.2,0,0,0-3.68.18c-3.29.41-7.63,2.82-8.92,6a5.41,5.41,0,0,0,1,5.63,3.46,3.46,0,0,0,2.71,1.41h.13c0,2.44.27,5.25,2.45,6.33a5.55,5.55,0,0,0,2.44.64,3.65,3.65,0,0,0,2.53-1,5.48,5.48,0,0,0,2.56.69,4.24,4.24,0,0,0,2.73-1,5.44,5.44,0,0,0,1.47.21,4.07,4.07,0,0,0,2.4-.73,6.33,6.33,0,0,0,2,.35c1.33,0,3.67-.58,4.29-4.51s-.23-9.27-3.62-11.92c-2.49-1.94-7.06-2.35-10.46-2.35Z"/><path d="M248.27,194.23c.53,2.06,0,6.41,0,6.41" fill="#fff" stroke="#000" stroke-linecap="round" stroke-linejoin="round" stroke-width="2"/><path d="M253.41,194.52c.91,2.56,0,6.42,0,6.42" fill="#fff" stroke="#000" stroke-linecap="round" stroke-linejoin="round" stroke-width="2"/><path d="M257.57,194c.69,1.73,0,6.42,0,6.42" fill="#fff" stroke="#000" stroke-linecap="round" stroke-linejoin="round" stroke-width="2"/><path d="M216.88,203.84a3.78,3.78,0,0,1-2.72-1.26,3.23,3.23,0,0,1-2.54,1.25,3.71,3.71,0,0,1-2.64-1.19,3.26,3.26,0,0,1-2.59,1.2,4.18,4.18,0,0,1-3.73-2.52,14.56,14.56,0,0,1-.87-11c1.62-4.52,7.59-5,11.94-5,.87,0,1.81,0,2.81.07,9.62.46,12,5.4,12.56,7.51a4.48,4.48,0,0,1-.3,3.49,4,4,0,0,1-2.32,1.77,2.22,2.22,0,0,1-.57.07,2.77,2.77,0,0,1-.42,0,7.18,7.18,0,0,1-.31,3.56,3,3,0,0,1-3,1.94,4.39,4.39,0,0,1-2.83-1.08A3,3,0,0,1,216.88,203.84Z" fill="#e7ad99"/><path d="M213.73,186.25c.88,0,1.8,0,2.77.07,7.33.35,10.73,3.45,11.63,6.77s-1.9,4-1.9,4a1.22,1.22,0,0,1-.32,0,3.09,3.09,0,0,1-2-1.24s1.24,3.09.34,5.41a2.07,2.07,0,0,1-2,1.3,3.42,3.42,0,0,1-3.15-2.25c-.1,1.69-1.09,2.46-2.18,2.46a3,3,0,0,1-2.8-2.66,2.69,2.69,0,0,1-2.46,2.65c-1,0-2-.64-2.9-2.18a2.27,2.27,0,0,1-2.33,2.19,3.16,3.16,0,0,1-2.82-1.94,13.51,13.51,0,0,1-.83-10.27c1.17-3.29,5.15-4.38,11-4.38m0-2c-4.65,0-11,.59-12.88,5.7a15.55,15.55,0,0,0,.91,11.79,5.14,5.14,0,0,0,4.63,3.1A4.36,4.36,0,0,0,209,204a4.49,4.49,0,0,0,2.59.86,4.14,4.14,0,0,0,2.56-.89,4.58,4.58,0,0,0,2.7.9,4.07,4.07,0,0,0,2.64-1,5.3,5.3,0,0,0,2.69.76,4.08,4.08,0,0,0,3.91-2.58,7.66,7.66,0,0,0,.45-3l.15,0a4.92,4.92,0,0,0,2.94-2.24,5.34,5.34,0,0,0,.4-4.25c-.62-2.32-3.19-7.76-13.47-8.25-1,0-2-.07-2.86-.07Z"/><path d="M208.72,200.65a40.67,40.67,0,0,0-1-5" fill="#fff" stroke="#000" stroke-linecap="round" stroke-linejoin="round" stroke-width="2"/><path d="M214.08,200.18a31.31,31.31,0,0,0-.59-4.49" fill="#fff" stroke="#000" stroke-linecap="round" stroke-linejoin="round" stroke-width="2"/><path d="M219.06,200.38a32.41,32.41,0,0,0-.69-4.07" fill="#fff" stroke="#000" stroke-linecap="round" stroke-linejoin="round" stroke-width="2"/><path d="M353,121.29c-1.25,5.84.21,12,3.91,19,3,5.62,5.76,20.95,4.83,29.28s-2.74,14.31-9.5,15.92S326.67,187,327,188.82s3.36,4.68,6.07,6.81,1.24,6.12-1.38,6.4a7.49,7.49,0,0,1-6.21-2.12s-2.46,1-5.06-2.89c0,0-2.58,1.83-5.38-2.84s-1.9-10.8-.56-12.74,16.1-3.55,22.6-4.63,7.62-3.12,7.56-10.28a63.3,63.3,0,0,0-1.39-12.8" fill="#ffa8a7" stroke="#000" stroke-linecap="round" stroke-linejoin="round" stroke-width="2"/><path d="M318.43,191.17c-.65,1.4,2,5.85,2,5.85" fill="#fff" stroke="#000" stroke-linecap="round" stroke-linejoin="round" stroke-width="2"/><path d="M325.45,199.91s-3.68-4.31-3.16-6.92" fill="#fff" stroke="#000" stroke-linecap="round" stroke-linejoin="round" stroke-width="2"/><path d="M319.5,143.47l-3.33-5.77a.9.9,0,0,1,.47-1.2l.16-.08a1,1,0,0,1,1.32.27l3.33,5.77a.71.71,0,0,1,.09.28l.09-.05a1.59,1.59,0,0,0,.85-2.13l-3.48-6a1.77,1.77,0,0,0-2.35-.47l-2,1a1.61,1.61,0,0,0-.84,2.14l3.48,6a1.77,1.77,0,0,0,2.35.48l.1-.05A.73.73,0,0,1,319.5,143.47Z" fill="#06bb95" stroke="#000" stroke-miterlimit="10" stroke-width="2"/><path d="M339.77,143.39l-4.94,3.16a.84.84,0,0,1-1.12-.38l-.09-.14a.86.86,0,0,1,.13-1.18l4.95-3.16a.53.53,0,0,1,.25-.08l-.06-.09a1.5,1.5,0,0,0-2-.68l-5.17,3.3a1.53,1.53,0,0,0-.23,2.11l1.11,1.76a1.51,1.51,0,0,0,2,.69l5.16-3.3a1.54,1.54,0,0,0,.24-2.11l-.06-.08A.52.52,0,0,1,339.77,143.39Z" fill="#06bb95" stroke="#000" stroke-miterlimit="10" stroke-width="2"/><path d="M341.45,142.3l-4.12,2.64a.76.76,0,0,1-1.06-.26l-.23-.35a.81.81,0,0,1,.23-1.09l4.12-2.64a.77.77,0,0,1,1.06.26l.23.36A.78.78,0,0,1,341.45,142.3Z" fill="#06bb95" stroke="#000" stroke-miterlimit="10" stroke-width="2"/><path d="M347.64,138.3l-4.87,3.25a.85.85,0,0,1-1.13-.35l-.09-.14a.86.86,0,0,1,.11-1.19l4.88-3.25a.5.5,0,0,1,.24-.09l0-.09a1.51,1.51,0,0,0-2-.64l-5.09,3.4a1.52,1.52,0,0,0-.2,2.11l1.15,1.75a1.5,1.5,0,0,0,2,.64l5.09-3.4a1.52,1.52,0,0,0,.2-2.11l-.06-.08A.54.54,0,0,1,347.64,138.3Z" fill="#06bb95" stroke="#000" stroke-miterlimit="10" stroke-width="2"/><path d="M355,131.6l-4.09,4.17a.83.83,0,0,1-1.16-.13l-.12-.12a.86.86,0,0,1-.14-1.18l4.08-4.18a.61.61,0,0,1,.22-.13l-.07-.08a1.5,1.5,0,0,0-2.09-.23l-4.26,4.35a1.54,1.54,0,0,0,.25,2.12l1.47,1.5a1.49,1.49,0,0,0,2.09.23l4.26-4.35a1.55,1.55,0,0,0-.24-2.12l-.07-.07A.61.61,0,0,1,355,131.6Z" fill="#06bb95" stroke="#000" stroke-miterlimit="10" stroke-width="2"/><path d="M330.37,147.25l-5.56-.68a.88.88,0,0,1-.64-1v-.16c0-.5.38-.86.77-.82l5.56.69a.75.75,0,0,1,.24.08v-.09a1.55,1.55,0,0,0-1.14-1.76l-5.8-.72c-.69-.08-1.31.57-1.37,1.46l-.15,2a1.58,1.58,0,0,0,1.14,1.77l5.8.71c.69.08,1.31-.57,1.37-1.45v-.1A.5.5,0,0,1,330.37,147.25Z" fill="#06bb95" stroke="#000" stroke-miterlimit="10" stroke-width="2"/><path d="M333.25,146.81l-4.63.06a.79.79,0,0,1-.75-.77l0-.42a.73.73,0,0,1,.69-.79l4.62,0a.78.78,0,0,1,.76.77l0,.41A.74.74,0,0,1,333.25,146.81Z" fill="#06bb95" stroke="#000" stroke-miterlimit="10" stroke-width="2"/><path d="M323.38,150.91s.77-5.26,2-5,.63.78.63.78" fill="none" stroke="#000" stroke-linecap="round" stroke-linejoin="round" stroke-width="2"/><path d="M325.81,148.34c.07,0-1.64,2.77-1.64,2.77" fill="none" stroke="#000" stroke-linecap="round" stroke-linejoin="round" stroke-width="2"/><path d="M330.92,160.78a8.55,8.55,0,0,1-10.15,7,9.2,9.2,0,0,1-7.61-10.2,8.56,8.56,0,0,1,10.15-7A9.21,9.21,0,0,1,330.92,160.78Z" fill="#fff"/><path d="M315.64,136.35l-3.15-5.8a.82.82,0,0,1,.37-1.15l.4-.19a.92.92,0,0,1,1.2.38l3.15,5.8a.82.82,0,0,1-.37,1.14l-.4.2A.92.92,0,0,1,315.64,136.35Z" fill="#06bb95" stroke="#000" stroke-miterlimit="10" stroke-width="2"/><path d="M322,146l-3.35-4.43a.83.83,0,0,1,.18-1.19l.37-.25a.93.93,0,0,1,1.25.21l3.35,4.42a.82.82,0,0,1-.19,1.19l-.36.26A.94.94,0,0,1,322,146Z" fill="#06bb95" stroke="#000" stroke-miterlimit="10" stroke-width="2"/><path d="M349.88,136.84l-4.07,2.73a.78.78,0,0,1-1.07-.24l-.23-.35a.79.79,0,0,1,.21-1.09l4.06-2.72a.77.77,0,0,1,1.07.23l.23.36A.79.79,0,0,1,349.88,136.84Z" fill="#06bb95" stroke="#000" stroke-miterlimit="10" stroke-width="2"/><path d="M320.21,167.38a10.47,10.47,0,0,1-1.67-.15,9.45,9.45,0,0,1-7.79-10.48,8.76,8.76,0,0,1,8.79-7.44,9.54,9.54,0,0,1,1.68.15A9.44,9.44,0,0,1,329,159.94,8.75,8.75,0,0,1,320.21,167.38Z" fill="#ffbe25"/><path d="M319.54,150.31A8.57,8.57,0,0,1,328,159.8a7.78,7.78,0,0,1-7.81,6.58,8.64,8.64,0,0,1-1.5-.14,8.43,8.43,0,0,1-7-9.35,7.77,7.77,0,0,1,7.8-6.58m0-2h0a9.75,9.75,0,0,0-9.78,8.29,10.45,10.45,0,0,0,8.6,11.61,10.61,10.61,0,0,0,1.85.17,9.74,9.74,0,0,0,9.78-8.29,10.45,10.45,0,0,0-8.59-11.61,10.64,10.64,0,0,0-1.86-.17Z"/><line x1="324.36" y1="156.36" x2="319.92" y2="159" fill="none" stroke="#fff" stroke-linecap="round" stroke-linejoin="round" stroke-width="2"/><line x1="323.05" y1="153.9" x2="317.07" y2="156.76" fill="none" stroke="#fff" stroke-linecap="round" stroke-linejoin="round" stroke-width="2"/></g></g></svg>