<svg xmlns="http://www.w3.org/2000/svg" viewBox="0 0 113.35 65.65"><title>img_15</title><g id="Layer_2" data-name="Layer 2"><g id="element"><path d="M69.84.65c-27.3.3-52.25,1.28-61,1.28S-3.31,5.34,3.94,7.69c-1.92,3.41,1,11.84,7.7,13,7.77,1.41,9.79-4.09,9.79-4.09s-.48,7.52,3.36,9.43C31.33,29.35,34.92,25,34.92,25s-9.54,13-6.61,24c3.73,14,18.62,21.24,33,13.59,12.68-6.77,7.3-22.68,7.3-22.68a10,10,0,0,0,9.81,1.3c3.85-1.46,5.76-5.75,5.76-5.75s10.08,11.46,23.19,3c11.94-7.72,2.19-28.36.48-30.07s5.41-1.15,5.55-5.09C113.52-1.69,91.82.41,69.84.65Z" fill="#80dee5"/></g></g></svg>