<svg xmlns="http://www.w3.org/2000/svg" viewBox="0 0 254.97 202.31"><title>img_09</title><g id="Layer_2" data-name="Layer 2"><g id="bubble_talk" data-name="bubble talk"><path d="M242,197.68c-.29,0-.58,0-.87,0-4.89-.29-7.58-2.9-7.58-7.35s4-8.06,8.83-8.06c5.13,0,8.31,4.53,8.31,8.73C250.64,195,247.15,197.68,242,197.68Z" fill="#eba21e"/><path d="M242.33,183.25c4.32,0,7.31,3.83,7.31,7.73,0,3.67-3.45,5.7-7.69,5.7-.27,0-.54,0-.81,0-4.32-.26-6.64-2.45-6.64-6.35s3.5-7.06,7.83-7.06m0-2c-5.42,0-9.83,4.07-9.83,9.06s3.1,8,8.52,8.35l.93,0c5.7,0,9.69-3.17,9.69-7.7s-3.56-9.73-9.31-9.73Z"/><path d="M245.27,201.31l-.87,0c-4.89-.29-7.58-2.9-7.58-7.34s4-8.07,8.84-8.07c5.13,0,8.31,4.53,8.31,8.73C254,198.61,250.47,201.31,245.27,201.31Z" fill="#8782e3"/><path d="M245.66,186.87c4.32,0,7.31,3.83,7.31,7.73,0,3.67-3.46,5.71-7.7,5.71l-.81,0c-4.32-.25-6.64-2.44-6.64-6.34s3.51-7.07,7.84-7.07m0-2c-5.43,0-9.84,4.07-9.84,9.07s3.11,8,8.52,8.34l.93,0c5.71,0,9.7-3.17,9.7-7.71s-3.56-9.73-9.31-9.73Z"/><path d="M118.06,167.33c-4.17,0-8.44-.11-12.67-.3C37.1,163.82,1,136.63,1,88.39S56.18,1,124,1c31.77,0,61.2,10.52,82.88,29.61,20.35,17.93,32,42,32,65.91C238.9,138.87,190.34,167.33,118.06,167.33Z" fill="#fdc10f"/><path d="M124,2c67.38,0,113.9,46.8,113.9,94.52,0,44.88-53.79,69.81-119.84,69.81-4.16,0-8.38-.1-12.63-.3C38.14,162.87,2,136.11,2,88.39S56.62,2,124,2m0-2C91,0,60,9.12,36.58,25.67,13,42.37,0,64.65,0,88.39,0,112.76,9.18,132,27.28,145.52c17.84,13.34,44.1,20.91,78.06,22.5,4.25.2,8.53.31,12.72.31,33.58,0,64-6.51,85.64-18.32,23.68-12.92,36.2-31.42,36.2-53.49,0-24.25-11.8-48.54-32.36-66.66C185.68,10.61,156,0,124,0Z"/><path d="M248.79,104.18c0,47.71-60.79,72.87-132.47,69.51C49,170.53,12.89,143.77,12.89,96.06s54.62-86.4,122-86.4S248.79,56.47,248.79,104.18Z" fill="#0aa587" stroke="#000" stroke-miterlimit="10" stroke-width="2"/><path d="M193.45,196.16c-.84,0-1.71,0-2.56-.07-13.86-.77-21.48-7.61-21.48-19.26s11.31-21.32,25.22-21.32a23.47,23.47,0,0,1,23.61,23.23C218.24,189.16,208.28,196.16,193.45,196.16Z" fill="#48b6f6"/><path d="M194.63,156.51a22.52,22.52,0,0,1,22.61,22.23c0,10.56-10.68,16.42-23.79,16.42-.83,0-1.66,0-2.51-.07-13.36-.74-20.53-7-20.53-18.26s10.84-20.32,24.22-20.32m0-2c-14.46,0-26.22,10-26.22,22.32s8,19.46,22.42,20.26c.88,0,1.76.07,2.62.07,15.43,0,25.79-7.4,25.79-18.42a24.47,24.47,0,0,0-24.61-24.23Z"/><path d="M196.63,199c-.59,0-1.19,0-1.79,0-11.94-.67-19.35-8-19.35-19.24,0-10.59,10.19-19.22,22.71-19.22a21.15,21.15,0,0,1,21.28,20.93C219.48,191.26,209.44,199,196.63,199Z" fill="#ec5c89"/><path d="M198.2,161.47a20.19,20.19,0,0,1,20.28,19.93c0,9.61-9.86,16.58-21.85,16.58-.57,0-1.15,0-1.73,0-12-.67-18.41-8.18-18.41-18.24s9.72-18.22,21.71-18.22m0-2c-13.07,0-23.71,9.07-23.71,20.22,0,11.79,7.78,19.54,20.3,20.23.61,0,1.23.06,1.84.06,13.37,0,23.85-8.16,23.85-18.58a22.15,22.15,0,0,0-22.28-21.93Z"/><text transform="translate(35.78 84.67)" font-size="30" fill="#fff" font-family="Bungee-Regular, Bungee">“TH<tspan x="62.97" y="0" letter-spacing="0em">Ả</tspan><tspan x="84.72" y="0" letter-spacing="-0.01em"> </tspan><tspan x="91.17" y="0">TYM</tspan><tspan x="157.47" y="0" letter-spacing="-0.01em">”</tspan></text><path d="M47.49,109.08a4.85,4.85,0,0,1-2.53-.66,4.68,4.68,0,0,1-1.74-1.79,5.09,5.09,0,0,1-.64-2.56,5.3,5.3,0,0,1,.61-2.57,4.72,4.72,0,0,1,1.67-1.79,4.56,4.56,0,0,1,2.45-.66,4.89,4.89,0,0,1,2,.43,4.67,4.67,0,0,1,1.63,1.3.49.49,0,0,1,.14.46.73.73,0,0,1-.31.42.53.53,0,0,1-.44.1.73.73,0,0,1-.42-.26,3.36,3.36,0,0,0-2.63-1.19,3.18,3.18,0,0,0-1.77.49,3.27,3.27,0,0,0-1.19,1.33,4.29,4.29,0,0,0-.42,1.94,4,4,0,0,0,.45,1.93,3.36,3.36,0,0,0,1.26,1.33,3.48,3.48,0,0,0,1.85.49,4.06,4.06,0,0,0,1.29-.19,2.86,2.86,0,0,0,1-.59.8.8,0,0,1,.45-.19.57.57,0,0,1,.44.14.72.72,0,0,1,.24.45.48.48,0,0,1-.17.43A4.65,4.65,0,0,1,47.49,109.08Z" fill="#fff"/><path d="M54.53,105a.66.66,0,0,1-.51-.19.7.7,0,0,1-.19-.51V95.63a.67.67,0,0,1,.19-.51.66.66,0,0,1,.51-.19.64.64,0,0,1,.49.19.67.67,0,0,1,.19.51v8.64a.7.7,0,0,1-.19.51A.64.64,0,0,1,54.53,105Zm0,4a.65.65,0,0,1-.7-.69V99.84a.69.69,0,0,1,.19-.51.66.66,0,0,1,.51-.19.64.64,0,0,1,.49.19.69.69,0,0,1,.19.51v8.46a.66.66,0,0,1-.19.5A.64.64,0,0,1,54.53,109Zm7.74,0a.69.69,0,0,1-.5-.2.63.63,0,0,1-.2-.49v-4.68a3.49,3.49,0,0,0-.43-1.83A2.66,2.66,0,0,0,60,100.71a3.92,3.92,0,0,0-3.24,0,2.8,2.8,0,0,0-1.12.94,2.26,2.26,0,0,0-.42,1.35h-1a3.91,3.91,0,0,1,.62-2,4.05,4.05,0,0,1,1.53-1.4A4.3,4.3,0,0,1,58.49,99a4.81,4.81,0,0,1,2.29.54,3.89,3.89,0,0,1,1.59,1.55,5,5,0,0,1,.58,2.5v4.68a.66.66,0,0,1-.19.49A.7.7,0,0,1,62.27,109Z" fill="#fff"/><path d="M70.49,109.08a5.11,5.11,0,0,1-2.57-.65,4.68,4.68,0,0,1-1.78-1.78,5.47,5.47,0,0,1,0-5.17,4.68,4.68,0,0,1,1.78-1.78,5.41,5.41,0,0,1,5.14,0,4.73,4.73,0,0,1,1.77,1.78,5.28,5.28,0,0,1,.67,2.59,5.05,5.05,0,0,1-.66,2.58,4.83,4.83,0,0,1-1.78,1.78A5.09,5.09,0,0,1,70.49,109.08Zm0-1.26a3.61,3.61,0,0,0,1.88-.49A3.44,3.44,0,0,0,73.66,106a4.2,4.2,0,0,0,0-3.86,3.4,3.4,0,0,0-1.29-1.34,3.83,3.83,0,0,0-3.75,0,3.49,3.49,0,0,0-1.3,1.34,4.12,4.12,0,0,0,0,3.86,3.53,3.53,0,0,0,1.3,1.33A3.58,3.58,0,0,0,70.49,107.82Z" fill="#fff"/><path d="M87.86,109.08a4.81,4.81,0,0,1-2.52-.66,4.7,4.7,0,0,1-1.75-1.79,5.09,5.09,0,0,1-.64-2.56,5.3,5.3,0,0,1,.61-2.57,4.67,4.67,0,0,1,1.68-1.79,4.5,4.5,0,0,1,2.44-.66,4.86,4.86,0,0,1,2,.43,4.58,4.58,0,0,1,1.63,1.3.49.49,0,0,1,.14.46.71.71,0,0,1-.3.42.54.54,0,0,1-.44.1.72.72,0,0,1-.43-.26,3.35,3.35,0,0,0-2.63-1.19,3.18,3.18,0,0,0-1.77.49,3.34,3.34,0,0,0-1.19,1.33,4.29,4.29,0,0,0-.42,1.94,4,4,0,0,0,.45,1.93A3.36,3.36,0,0,0,86,107.33a3.48,3.48,0,0,0,1.85.49,4.06,4.06,0,0,0,1.29-.19,2.9,2.9,0,0,0,1-.59.75.75,0,0,1,.45-.19.55.55,0,0,1,.43.14.72.72,0,0,1,.24.45.48.48,0,0,1-.17.43A4.65,4.65,0,0,1,87.86,109.08Z" fill="#fff"/><path d="M98.48,109.1a4.85,4.85,0,0,1-2.28-.53A4,4,0,0,1,94.61,107a5,5,0,0,1-.59-2.5V99.83a.68.68,0,0,1,.68-.69.69.69,0,0,1,.51.2.66.66,0,0,1,.2.49v4.68a3.59,3.59,0,0,0,.42,1.83A2.72,2.72,0,0,0,97,107.42a3.7,3.7,0,0,0,1.65.36,3.57,3.57,0,0,0,1.59-.34,2.83,2.83,0,0,0,1.13-.94,2.32,2.32,0,0,0,.41-1.35h1a4,4,0,0,1-2.14,3.43A4.36,4.36,0,0,1,98.48,109.1Zm4-.11a.66.66,0,0,1-.49-.19.69.69,0,0,1-.19-.51V99.83a.66.66,0,0,1,.19-.5.66.66,0,0,1,.49-.19.69.69,0,0,1,.51.19.67.67,0,0,1,.2.5v8.46a.67.67,0,0,1-.71.7Z" fill="#fff"/><path d="M110.87,109.08a5.15,5.15,0,0,1-2.58-.65,4.75,4.75,0,0,1-1.78-1.78,5.47,5.47,0,0,1,0-5.17,4.75,4.75,0,0,1,1.78-1.78,5.15,5.15,0,0,1,2.58-.65,5,5,0,0,1,2.56.65,4.83,4.83,0,0,1,1.78,1.78,5.27,5.27,0,0,1,.66,2.59,5.15,5.15,0,0,1-.65,2.58,4.85,4.85,0,0,1-1.79,1.78A5,5,0,0,1,110.87,109.08Zm0-1.26a3.58,3.58,0,0,0,1.87-.49A3.53,3.53,0,0,0,114,106a4.28,4.28,0,0,0,0-3.86,3.49,3.49,0,0,0-1.3-1.34,3.81,3.81,0,0,0-3.74,0,3.44,3.44,0,0,0-1.31,1.34,4.12,4.12,0,0,0,0,3.86,3.49,3.49,0,0,0,1.31,1.33A3.55,3.55,0,0,0,110.87,107.82Zm-2.09-10.24a.78.78,0,0,1-.51-.17.57.57,0,0,1-.21-.46.71.71,0,0,1,.34-.62l2.13-1.4a.62.62,0,0,1,.34-.09.64.64,0,0,1,.2,0l.16.06,2.1,1.4a.72.72,0,0,1,.35.62.59.59,0,0,1-.2.45.75.75,0,0,1-.73.14.71.71,0,0,1-.21-.11l-1.67-1.15-1.68,1.15A.67.67,0,0,1,108.78,97.58Zm2.07,15.17a.94.94,0,0,1-.68-.29.91.91,0,0,1-.29-.7.89.89,0,0,1,.3-.71,1,1,0,0,1,1.36,0,.89.89,0,0,1,.3.71,1,1,0,0,1-1,1Z" fill="#fff"/><path d="M123,109.08a4.87,4.87,0,0,1-2.53-.66,4.75,4.75,0,0,1-1.74-1.79,5.09,5.09,0,0,1-.64-2.56,5.3,5.3,0,0,1,.61-2.57,4.67,4.67,0,0,1,1.68-1.79,4.5,4.5,0,0,1,2.44-.66,4.86,4.86,0,0,1,2,.43,4.58,4.58,0,0,1,1.63,1.3.49.49,0,0,1,.14.46.71.71,0,0,1-.3.42.56.56,0,0,1-.45.1.73.73,0,0,1-.42-.26,3.35,3.35,0,0,0-2.63-1.19,3.18,3.18,0,0,0-1.77.49,3.27,3.27,0,0,0-1.19,1.33,4.29,4.29,0,0,0-.42,1.94,4,4,0,0,0,.45,1.93,3.36,3.36,0,0,0,1.26,1.33,3.48,3.48,0,0,0,1.85.49,4.06,4.06,0,0,0,1.29-.19,2.9,2.9,0,0,0,1-.59.75.75,0,0,1,.45-.19.55.55,0,0,1,.43.14.72.72,0,0,1,.24.45.48.48,0,0,1-.17.43A4.65,4.65,0,0,1,123,109.08Z" fill="#fff"/><path d="M138,109.08a6.35,6.35,0,0,1-2.1-.36,4,4,0,0,1-1.7-1.08.61.61,0,0,1-.16-.49.81.81,0,0,1,.27-.47.73.73,0,0,1,.52-.14.7.7,0,0,1,.45.23,2.73,2.73,0,0,0,1.15.78,4.38,4.38,0,0,0,1.57.27,3.24,3.24,0,0,0,1.93-.46,1.44,1.44,0,0,0,.61-1.11,1.28,1.28,0,0,0-.61-1.07,5.31,5.31,0,0,0-2-.66,5.38,5.38,0,0,1-2.66-1,2.17,2.17,0,0,1-.85-1.71,2.32,2.32,0,0,1,.49-1.53,2.86,2.86,0,0,1,1.29-.92,4.91,4.91,0,0,1,1.79-.31,4.72,4.72,0,0,1,2.07.42,3.67,3.67,0,0,1,1.42,1.11.62.62,0,0,1,.14.49.56.56,0,0,1-.29.41.68.68,0,0,1-.49.08.77.77,0,0,1-.48-.26,2.72,2.72,0,0,0-1-.76,3.64,3.64,0,0,0-1.37-.25,2.74,2.74,0,0,0-1.58.41,1.2,1.2,0,0,0-.6,1,1.21,1.21,0,0,0,.23.72,1.86,1.86,0,0,0,.77.54,7.55,7.55,0,0,0,1.54.39,7,7,0,0,1,2.13.64,2.76,2.76,0,0,1,1.12,1,2.41,2.41,0,0,1,.33,1.23,2.36,2.36,0,0,1-.49,1.49,3.24,3.24,0,0,1-1.37,1A5.22,5.22,0,0,1,138,109.08Z" fill="#fff"/><path d="M148.76,109.08a5.15,5.15,0,0,1-2.58-.65,4.75,4.75,0,0,1-1.78-1.78,5.47,5.47,0,0,1,0-5.17,4.75,4.75,0,0,1,1.78-1.78,5.15,5.15,0,0,1,2.58-.65,5,5,0,0,1,2.56.65,4.73,4.73,0,0,1,1.77,1.78,5.17,5.17,0,0,1,.67,2.59,5.05,5.05,0,0,1-.66,2.58,4.75,4.75,0,0,1-1.78,1.78A5,5,0,0,1,148.76,109.08Zm0-1.26a3.58,3.58,0,0,0,1.87-.49,3.53,3.53,0,0,0,1.3-1.33,4.28,4.28,0,0,0,0-3.86,3.49,3.49,0,0,0-1.3-1.34,3.81,3.81,0,0,0-3.74,0,3.44,3.44,0,0,0-1.31,1.34,4.12,4.12,0,0,0,0,3.86,3.49,3.49,0,0,0,1.31,1.33A3.55,3.55,0,0,0,148.76,107.82Zm-2.09-10.24a.77.77,0,0,1-.51-.17A.57.57,0,0,1,146,97a.71.71,0,0,1,.34-.62l2.12-1.4a.65.65,0,0,1,.35-.09.58.58,0,0,1,.19,0l.17.06,2.1,1.4a.72.72,0,0,1,.35.62.59.59,0,0,1-.2.45.74.74,0,0,1-.51.18.72.72,0,0,1-.22,0,.71.71,0,0,1-.21-.11l-1.67-1.15-1.68,1.15A.67.67,0,0,1,146.67,97.58Zm3.69-3a.72.72,0,0,1-.5-.2.69.69,0,0,1-.2-.51.68.68,0,0,1,.16-.46l2-2a.7.7,0,0,1,.49-.2.65.65,0,0,1,.51.21.72.72,0,0,1,.19.51.78.78,0,0,1,0,.26.54.54,0,0,1-.16.21l-2,2A.64.64,0,0,1,150.36,94.61Z" fill="#fff"/><path d="M157.16,109a.69.69,0,0,1-.51-.19.66.66,0,0,1-.19-.5V99.84a.65.65,0,0,1,.7-.7.66.66,0,0,1,.5.19.73.73,0,0,1,.19.51v8.46a.7.7,0,0,1-.19.5A.66.66,0,0,1,157.16,109Zm7.74,0a.69.69,0,0,1-.5-.2.66.66,0,0,1-.2-.49v-4.68a3.59,3.59,0,0,0-.42-1.83,2.72,2.72,0,0,0-1.15-1.08,3.7,3.7,0,0,0-1.65-.36,3.57,3.57,0,0,0-1.59.34,2.83,2.83,0,0,0-1.13.94,2.25,2.25,0,0,0-.41,1.35h-1a3.81,3.81,0,0,1,.61-2,4.05,4.05,0,0,1,1.53-1.4,4.3,4.3,0,0,1,2.12-.52,4.78,4.78,0,0,1,2.29.54,3.89,3.89,0,0,1,1.59,1.55,5,5,0,0,1,.59,2.5v4.68a.66.66,0,0,1-.2.49A.68.68,0,0,1,164.9,109Z" fill="#fff"/><path d="M173,109.08a4.92,4.92,0,0,1-2.52-.64,4.55,4.55,0,0,1-1.71-1.77,5.27,5.27,0,0,1-.63-2.6,5.21,5.21,0,0,1,.65-2.61,4.73,4.73,0,0,1,1.78-1.77,5.25,5.25,0,0,1,2.58-.64,5.19,5.19,0,0,1,2.58.64,4.7,4.7,0,0,1,1.77,1.77,5.43,5.43,0,0,1,.65,2.61l-.81.44a4.81,4.81,0,0,1-.56,2.36,4.12,4.12,0,0,1-1.53,1.62A4.34,4.34,0,0,1,173,109.08Zm.18,3.8a5.67,5.67,0,0,1-2.5-.53,5.06,5.06,0,0,1-1.78-1.45.59.59,0,0,1-.17-.47A.57.57,0,0,1,169,110a.68.68,0,0,1,.52-.1.66.66,0,0,1,.45.27,3.87,3.87,0,0,0,1.34,1,4.39,4.39,0,0,0,1.9.4,3.52,3.52,0,0,0,1.82-.49,3.48,3.48,0,0,0,1.29-1.37,4.39,4.39,0,0,0,.47-2.07V105l.53-1,.84.16v3.68a5.22,5.22,0,0,1-.65,2.62,4.91,4.91,0,0,1-1.76,1.83A4.85,4.85,0,0,1,173.16,112.88Zm0-5.06a3.65,3.65,0,0,0,1.88-.48A3.55,3.55,0,0,0,176.3,106a4.36,4.36,0,0,0,0-3.9,3.51,3.51,0,0,0-1.29-1.33,3.65,3.65,0,0,0-1.88-.48,3.69,3.69,0,0,0-1.89.48,3.39,3.39,0,0,0-1.3,1.33,4.28,4.28,0,0,0,0,3.9,3.43,3.43,0,0,0,1.3,1.32A3.69,3.69,0,0,0,173.13,107.82Z" fill="#fff"/><path d="M190.5,109.08a4.85,4.85,0,0,1-2.53-.66,4.77,4.77,0,0,1-1.75-1.79,5.2,5.2,0,0,1-.64-2.56,5.31,5.31,0,0,1,.62-2.57,4.53,4.53,0,0,1,4.12-2.45,4.85,4.85,0,0,1,2,.43,4.58,4.58,0,0,1,1.63,1.3.52.52,0,0,1,.15.46.73.73,0,0,1-.31.42.53.53,0,0,1-.44.1.73.73,0,0,1-.42-.26,3.38,3.38,0,0,0-2.63-1.19,3.19,3.19,0,0,0-3,1.82,4.17,4.17,0,0,0-.43,1.94,4,4,0,0,0,.45,1.93,3.36,3.36,0,0,0,1.26,1.33,3.49,3.49,0,0,0,1.86.49,4,4,0,0,0,1.28-.19,2.9,2.9,0,0,0,1-.59.75.75,0,0,1,.45-.19.54.54,0,0,1,.43.14.63.63,0,0,1,.24.45.46.46,0,0,1-.17.43A4.61,4.61,0,0,1,190.5,109.08Z" fill="#fff"/><path d="M201.17,109.08a4.72,4.72,0,0,1-2.48-.66,4.82,4.82,0,0,1-1.74-1.79,5.09,5.09,0,0,1-.64-2.56,5,5,0,0,1,.66-2.57,4.8,4.8,0,0,1,1.79-1.79,5,5,0,0,1,2.56-.66,4.93,4.93,0,0,1,2.54.66,4.78,4.78,0,0,1,1.78,1.79,5.13,5.13,0,0,1,.68,2.57l-.56.44a4.57,4.57,0,0,1-.6,2.33,4.42,4.42,0,0,1-1.64,1.63A4.5,4.5,0,0,1,201.17,109.08Zm.15-1.26a3.54,3.54,0,0,0,1.86-.49,3.46,3.46,0,0,0,1.29-1.34,3.85,3.85,0,0,0,.48-1.92,3.8,3.8,0,0,0-.48-1.92,3.65,3.65,0,0,0-5-1.34,3.59,3.59,0,0,0-1.31,1.34,3.71,3.71,0,0,0-.49,1.92,3.76,3.76,0,0,0,.49,1.92,3.56,3.56,0,0,0,3.17,1.83Zm-.13-10.17a.69.69,0,0,1-.5-.21.7.7,0,0,1-.2-.49.65.65,0,0,1,.16-.47l2-2a.7.7,0,0,1,1.19.53.77.77,0,0,1,0,.25.46.46,0,0,1-.16.21l-2,2A.64.64,0,0,1,201.19,97.65ZM205.62,109a.7.7,0,0,1-.51-.19.66.66,0,0,1-.19-.5v-3.07l.34-1.43,1.06.27v4.23a.67.67,0,0,1-.2.5A.68.68,0,0,1,205.62,109Z" fill="#fff"/><path d="M213.41,109.08a4.85,4.85,0,0,1-2.53-.66,4.68,4.68,0,0,1-1.74-1.79,5.09,5.09,0,0,1-.64-2.56,5.3,5.3,0,0,1,.61-2.57,4.65,4.65,0,0,1,1.67-1.79,4.56,4.56,0,0,1,2.45-.66,4.89,4.89,0,0,1,2,.43,4.67,4.67,0,0,1,1.63,1.3.49.49,0,0,1,.14.46.73.73,0,0,1-.31.42.53.53,0,0,1-.44.1.73.73,0,0,1-.42-.26,3.36,3.36,0,0,0-2.63-1.19,3.18,3.18,0,0,0-1.77.49,3.27,3.27,0,0,0-1.19,1.33,4.29,4.29,0,0,0-.42,1.94,4,4,0,0,0,.45,1.93,3.36,3.36,0,0,0,1.26,1.33,3.48,3.48,0,0,0,1.85.49,4.06,4.06,0,0,0,1.29-.19,2.86,2.86,0,0,0,1-.59.8.8,0,0,1,.45-.19.54.54,0,0,1,.43.14.69.69,0,0,1,.25.45.48.48,0,0,1-.17.43A4.65,4.65,0,0,1,213.41,109.08Z" fill="#fff"/><path d="M45.22,129a2.12,2.12,0,0,1-1.28-.4,2.57,2.57,0,0,1-.89-1.1,3.87,3.87,0,0,1-.31-1.62V115.61a.65.65,0,0,1,.68-.68.66.66,0,0,1,.5.19.68.68,0,0,1,.19.49v10.26a2.26,2.26,0,0,0,.31,1.26.93.93,0,0,0,.8.49h.45a.55.55,0,0,1,.44.19.76.76,0,0,1,.16.49.63.63,0,0,1-.23.5.85.85,0,0,1-.58.19Z" fill="#fff"/><path d="M52.12,129.08a5.15,5.15,0,0,1-2.58-.65,4.75,4.75,0,0,1-1.78-1.78,5.47,5.47,0,0,1,0-5.17,4.75,4.75,0,0,1,1.78-1.78,5.15,5.15,0,0,1,2.58-.65,5,5,0,0,1,2.56.65,4.83,4.83,0,0,1,1.78,1.78,5.27,5.27,0,0,1,.66,2.59,5.05,5.05,0,0,1-.66,2.58,4.75,4.75,0,0,1-1.78,1.78A5,5,0,0,1,52.12,129.08Zm0-1.26a3.58,3.58,0,0,0,1.87-.49,3.53,3.53,0,0,0,1.3-1.33,4.28,4.28,0,0,0,0-3.86A3.49,3.49,0,0,0,54,120.8a3.81,3.81,0,0,0-3.74,0,3.44,3.44,0,0,0-1.31,1.34,4.12,4.12,0,0,0,0,3.86,3.49,3.49,0,0,0,1.31,1.33A3.55,3.55,0,0,0,52.12,127.82Z" fill="#fff"/><path d="M64.16,129.08a4.75,4.75,0,0,1-4.22-2.45,5.09,5.09,0,0,1-.64-2.56A5,5,0,0,1,60,121.5a4.73,4.73,0,0,1,1.79-1.79,5.26,5.26,0,0,1,5.1,0,4.85,4.85,0,0,1,1.78,1.79,5.24,5.24,0,0,1,.68,2.57l-.56.44a4.57,4.57,0,0,1-.6,2.33,4.54,4.54,0,0,1-4,2.24Zm.14-1.26A3.5,3.5,0,0,0,67.46,126a3.85,3.85,0,0,0,.48-1.92,3.8,3.8,0,0,0-.48-1.92,3.61,3.61,0,0,0-1.29-1.34,3.64,3.64,0,0,0-5,1.34,3.71,3.71,0,0,0-.49,1.92,3.76,3.76,0,0,0,.49,1.92,3.56,3.56,0,0,0,3.16,1.83Zm0-10.28a.63.63,0,0,1-.46-.2l-2-2a.76.76,0,0,1-.18-.49.73.73,0,0,1,.2-.51.64.64,0,0,1,.49-.21.66.66,0,0,1,.5.22l2,2a.55.55,0,0,1,.18.45.71.71,0,0,1-.2.51A.66.66,0,0,1,64.28,117.54ZM68.6,129a.68.68,0,0,1-.5-.19.67.67,0,0,1-.2-.5v-3.07l.34-1.43,1.07.27v4.23a.67.67,0,0,1-.2.5A.69.69,0,0,1,68.6,129Z" fill="#fff"/><path d="M73,117.27a1,1,0,0,1-.69-.29.94.94,0,0,1-.28-.7.91.91,0,0,1,.29-.71,1,1,0,0,1,.7-.26,1,1,0,0,1,.67.26.89.89,0,0,1,.3.71,1,1,0,0,1-.29.7A1,1,0,0,1,73,117.27ZM73,129a.69.69,0,0,1-.52-.19.73.73,0,0,1-.19-.51v-8.45a.73.73,0,0,1,.19-.51.69.69,0,0,1,.52-.19.64.64,0,0,1,.49.19.69.69,0,0,1,.19.51v8.45a.69.69,0,0,1-.19.51A.64.64,0,0,1,73,129Z" fill="#fff"/><path d="M85.92,129.08a6.45,6.45,0,0,1-2.11-.36,4,4,0,0,1-1.69-1.08.61.61,0,0,1-.16-.49.72.72,0,0,1,.27-.47.73.73,0,0,1,.52-.14.7.7,0,0,1,.45.23,2.76,2.76,0,0,0,1.14.78,4.44,4.44,0,0,0,1.58.27,3.24,3.24,0,0,0,1.93-.46,1.44,1.44,0,0,0,.61-1.11,1.28,1.28,0,0,0-.61-1.07,5.31,5.31,0,0,0-2-.66,5.38,5.38,0,0,1-2.66-1,2.17,2.17,0,0,1-.85-1.71,2.32,2.32,0,0,1,.49-1.53,2.86,2.86,0,0,1,1.29-.92,4.9,4.9,0,0,1,1.78-.31,4.73,4.73,0,0,1,2.08.42,3.67,3.67,0,0,1,1.42,1.11.65.65,0,0,1,.14.49.56.56,0,0,1-.29.41.68.68,0,0,1-.49.08.77.77,0,0,1-.48-.26,2.72,2.72,0,0,0-1-.76,3.68,3.68,0,0,0-1.37-.25,2.8,2.8,0,0,0-1.59.41,1.21,1.21,0,0,0-.59,1,1.15,1.15,0,0,0,.23.72,1.86,1.86,0,0,0,.77.54,7.37,7.37,0,0,0,1.54.39,7,7,0,0,1,2.13.64,2.76,2.76,0,0,1,1.12,1,2.49,2.49,0,0,1-.16,2.72,3.24,3.24,0,0,1-1.37,1A5.26,5.26,0,0,1,85.92,129.08Z" fill="#fff"/><path d="M93.16,117.27a1,1,0,0,1-1-1,.89.89,0,0,1,.3-.71,1,1,0,0,1,.69-.26,1,1,0,0,1,.68.26.89.89,0,0,1,.3.71,1,1,0,0,1-.29.7A1,1,0,0,1,93.16,117.27Zm0,11.72a.65.65,0,0,1-.7-.7v-8.45a.65.65,0,0,1,.7-.7.66.66,0,0,1,.5.19.73.73,0,0,1,.19.51v8.45a.73.73,0,0,1-.19.51A.66.66,0,0,1,93.17,129Z" fill="#fff"/><path d="M98.09,129a.64.64,0,0,1-.7-.69v-8.46a.72.72,0,0,1,.18-.51.69.69,0,0,1,.52-.19.64.64,0,0,1,.49.19.69.69,0,0,1,.19.51v8.46a.66.66,0,0,1-.19.5A.64.64,0,0,1,98.09,129Zm7.74,0a.71.71,0,0,1-.51-.2.66.66,0,0,1-.19-.49v-4.68a3.59,3.59,0,0,0-.43-1.83,2.66,2.66,0,0,0-1.15-1.08,3.67,3.67,0,0,0-1.65-.36,3.6,3.6,0,0,0-1.59.34,2.8,2.8,0,0,0-1.12.94,2.26,2.26,0,0,0-.42,1.35h-1a4,4,0,0,1,.61-2,4.2,4.2,0,0,1,1.53-1.4,4.36,4.36,0,0,1,2.13-.52,4.74,4.74,0,0,1,2.28.54,3.85,3.85,0,0,1,1.6,1.55,5,5,0,0,1,.58,2.5v4.68a.63.63,0,0,1-.2.49A.66.66,0,0,1,105.83,129Z" fill="#fff"/><path d="M110.27,125a.69.69,0,0,1-.51-.19.7.7,0,0,1-.19-.51v-8.64a.67.67,0,0,1,.19-.51.69.69,0,0,1,.51-.19.66.66,0,0,1,.5.19.71.71,0,0,1,.19.51v8.64a.75.75,0,0,1-.19.51A.66.66,0,0,1,110.27,125Zm0,4a.69.69,0,0,1-.51-.19.66.66,0,0,1-.19-.5v-8.46a.65.65,0,0,1,.7-.7.66.66,0,0,1,.5.19.73.73,0,0,1,.19.51v8.46a.7.7,0,0,1-.19.5A.66.66,0,0,1,110.27,129Zm7.74,0a.69.69,0,0,1-.5-.2.66.66,0,0,1-.2-.49v-4.68a3.59,3.59,0,0,0-.42-1.83,2.72,2.72,0,0,0-1.15-1.08,3.7,3.7,0,0,0-1.65-.36,3.57,3.57,0,0,0-1.59.34,2.83,2.83,0,0,0-1.13.94A2.25,2.25,0,0,0,111,123h-1a3.81,3.81,0,0,1,.61-2,4.05,4.05,0,0,1,1.53-1.4,4.3,4.3,0,0,1,2.12-.52,4.78,4.78,0,0,1,2.29.54,3.89,3.89,0,0,1,1.59,1.55,5,5,0,0,1,.59,2.5v4.68a.66.66,0,0,1-.2.49A.68.68,0,0,1,118,129Z" fill="#fff"/><path d="M130.4,129a.69.69,0,0,1-.65-.47l-4-8.48a.59.59,0,0,1,0-.47.7.7,0,0,1,.36-.36.6.6,0,0,1,.49,0,.66.66,0,0,1,.36.32l3.83,8.3H130l3.78-8.3a.53.53,0,0,1,.37-.33.69.69,0,0,1,.51,0,.62.62,0,0,1,.34.37.54.54,0,0,1,0,.45l-3.94,8.5A.71.71,0,0,1,130.4,129Z" fill="#fff"/><path d="M141,129.08a4.72,4.72,0,0,1-2.48-.66,4.82,4.82,0,0,1-1.74-1.79,5.2,5.2,0,0,1-.64-2.56,5,5,0,0,1,.66-2.57,4.8,4.8,0,0,1,1.79-1.79,5,5,0,0,1,2.56-.66,4.93,4.93,0,0,1,2.54.66,4.88,4.88,0,0,1,1.79,1.79,5.23,5.23,0,0,1,.67,2.57l-.56.44a4.57,4.57,0,0,1-.6,2.33,4.42,4.42,0,0,1-1.64,1.63A4.5,4.5,0,0,1,141,129.08Zm.15-1.26a3.54,3.54,0,0,0,1.86-.49,3.49,3.49,0,0,0,1.3-1.34,4,4,0,0,0,.47-1.92,3.9,3.9,0,0,0-.47-1.92,3.63,3.63,0,0,0-6.33,0,3.71,3.71,0,0,0-.49,1.92,3.76,3.76,0,0,0,.49,1.92,3.56,3.56,0,0,0,3.17,1.83ZM139,117.58a.77.77,0,0,1-.51-.17.57.57,0,0,1-.21-.46.71.71,0,0,1,.34-.62l2.12-1.4a.65.65,0,0,1,.35-.09.58.58,0,0,1,.19,0l.17.06,2.1,1.4a.71.71,0,0,1,.34.62.58.58,0,0,1-.19.45.74.74,0,0,1-.51.18.72.72,0,0,1-.22,0,.71.71,0,0,1-.21-.11l-1.67-1.15-1.68,1.15A.67.67,0,0,1,139,117.58Zm2.07,15.17a1,1,0,0,1-.69-.29.94.94,0,0,1-.28-.7.91.91,0,0,1,.29-.71,1,1,0,0,1,.7-.26,1,1,0,0,1,.67.26.89.89,0,0,1,.3.71,1,1,0,0,1-.29.7A1,1,0,0,1,141.09,132.75Zm4.32-3.76a.7.7,0,0,1-.51-.19.66.66,0,0,1-.19-.5v-3.07l.34-1.43,1.06.27v4.23a.67.67,0,0,1-.2.5A.68.68,0,0,1,145.41,129Z" fill="#fff"/><path d="M148.18,120.71a.64.64,0,0,1-.45-.17.58.58,0,0,1-.18-.43.59.59,0,0,1,.18-.44.64.64,0,0,1,.45-.17h4.59a.64.64,0,0,1,.45.17.59.59,0,0,1,.18.44.58.58,0,0,1-.18.43.64.64,0,0,1-.45.17Zm4.48,8.28a3.2,3.2,0,0,1-2.88-1.68,3.66,3.66,0,0,1-.43-1.8v-8.8a.68.68,0,0,1,.19-.5.66.66,0,0,1,.49-.2.69.69,0,0,1,.51.2.69.69,0,0,1,.2.5v8.8a2.13,2.13,0,0,0,.54,1.51,1.79,1.79,0,0,0,1.38.58h.49a.62.62,0,0,1,.47.2.71.71,0,0,1,.18.5.65.65,0,0,1-.22.5.76.76,0,0,1-.54.19Z" fill="#fff"/><path d="M166.31,129.08a5,5,0,0,1-2.53-.65,4.82,4.82,0,0,1-1.79-1.77,5.13,5.13,0,0,1-.67-2.53v-8.5a.67.67,0,0,1,.19-.51.69.69,0,0,1,.51-.19.66.66,0,0,1,.5.19.71.71,0,0,1,.19.51v5.29a4.31,4.31,0,0,1,1.57-1.35,4.54,4.54,0,0,1,2.19-.52,4.72,4.72,0,0,1,2.48.66,4.82,4.82,0,0,1,1.74,1.79,5.2,5.2,0,0,1,.64,2.56,5,5,0,0,1-.66,2.57,4.8,4.8,0,0,1-1.79,1.79A5,5,0,0,1,166.31,129.08Zm0-1.26a3.57,3.57,0,0,0,3.17-1.84,3.8,3.8,0,0,0,.48-1.92,3.85,3.85,0,0,0-.48-1.92,3.49,3.49,0,0,0-1.3-1.34,3.58,3.58,0,0,0-1.87-.49,3.54,3.54,0,0,0-1.86.49,3.4,3.4,0,0,0-1.29,1.34,3.85,3.85,0,0,0-.47,1.92,3.8,3.8,0,0,0,.47,1.92,3.46,3.46,0,0,0,1.29,1.34A3.55,3.55,0,0,0,166.31,127.82Z" fill="#fff"/><path d="M175,117.27a1,1,0,0,1-.69-.29.94.94,0,0,1-.28-.7.88.88,0,0,1,.29-.71,1,1,0,0,1,.7-.26,1,1,0,0,1,.67.26.89.89,0,0,1,.3.71,1,1,0,0,1-.29.7A1,1,0,0,1,175,117.27ZM175,129a.69.69,0,0,1-.52-.19.73.73,0,0,1-.19-.51v-8.45a.73.73,0,0,1,.19-.51.69.69,0,0,1,.52-.19.66.66,0,0,1,.49.19.69.69,0,0,1,.19.51v8.45a.69.69,0,0,1-.19.51A.66.66,0,0,1,175,129Z" fill="#fff"/><path d="M183.71,129.08a5.09,5.09,0,0,1-2.58-.64,4.7,4.7,0,0,1-1.77-1.77,5.27,5.27,0,0,1-.63-2.6,5.45,5.45,0,0,1,.6-2.6A4.49,4.49,0,0,1,181,119.7a4.65,4.65,0,0,1,2.45-.65,4.55,4.55,0,0,1,2.39.62,4.28,4.28,0,0,1,1.57,1.72,5.48,5.48,0,0,1,.56,2.5.59.59,0,0,1-.18.46.63.63,0,0,1-.47.17h-7.65v-1.15h7.8l-.78.56a4,4,0,0,0-.38-1.87,3.1,3.1,0,0,0-1.12-1.3,3.19,3.19,0,0,0-1.74-.47,3.37,3.37,0,0,0-1.8.49,3.32,3.32,0,0,0-1.2,1.34,4.37,4.37,0,0,0-.42,1.95,3.89,3.89,0,0,0,.48,2,3.53,3.53,0,0,0,1.3,1.33,3.77,3.77,0,0,0,1.91.49,4.06,4.06,0,0,0,1.31-.23,3.26,3.26,0,0,0,1-.57.8.8,0,0,1,.45-.17.64.64,0,0,1,.43.14.62.62,0,0,1,.24.47.52.52,0,0,1-.2.43,5.66,5.66,0,0,1-3.28,1.17Zm-2.41-11.5a.77.77,0,0,1-.51-.17.57.57,0,0,1-.21-.46.71.71,0,0,1,.34-.62l2.13-1.4a.62.62,0,0,1,.34-.09.64.64,0,0,1,.2,0l.16.06,2.1,1.4a.72.72,0,0,1,.35.62.59.59,0,0,1-.2.45.74.74,0,0,1-.51.18.72.72,0,0,1-.22,0,.71.71,0,0,1-.21-.11l-1.67-1.15-1.68,1.15A.67.67,0,0,1,181.3,117.58Zm3.81-2.4a.6.6,0,0,1-.45-.19.6.6,0,0,1-.19-.46V114a.65.65,0,0,1,.57-.7l.45-.09a1.06,1.06,0,0,0,.56-.29.71.71,0,0,0,.18-.5.78.78,0,0,0-.26-.62,1,1,0,0,0-.64-.21,1.22,1.22,0,0,0-.43.08,1.31,1.31,0,0,0-.36.21.43.43,0,0,1-.22.12.66.66,0,0,1-.23,0,.57.57,0,0,1-.41-.16.54.54,0,0,1-.17-.42.61.61,0,0,1,.22-.48,2.56,2.56,0,0,1,.71-.42,2.65,2.65,0,0,1,.87-.14,2.24,2.24,0,0,1,1.51.53,1.75,1.75,0,0,1,.6,1.38,1.53,1.53,0,0,1-.54,1.27,2.77,2.77,0,0,1-1.28.53l.15.23a.84.84,0,0,1-.19.58A.6.6,0,0,1,185.11,115.18Z" fill="#fff"/><path d="M191,129a.65.65,0,0,1-.7-.69v-8.46a.69.69,0,0,1,.19-.51.66.66,0,0,1,.51-.19.68.68,0,0,1,.5.19.72.72,0,0,1,.18.51v8.46a.7.7,0,0,1-.18.5A.68.68,0,0,1,191,129Zm7.74,0a.69.69,0,0,1-.5-.2.63.63,0,0,1-.2-.49v-4.68a3.59,3.59,0,0,0-.42-1.83,2.74,2.74,0,0,0-1.16-1.08,3.92,3.92,0,0,0-3.24,0,2.8,2.8,0,0,0-1.12.94,2.26,2.26,0,0,0-.42,1.35h-1a3.81,3.81,0,0,1,.61-2,4.05,4.05,0,0,1,1.53-1.4A4.3,4.3,0,0,1,195,119a4.81,4.81,0,0,1,2.29.54,3.89,3.89,0,0,1,1.59,1.55,5,5,0,0,1,.59,2.5v4.68a.66.66,0,0,1-.2.49A.7.7,0,0,1,198.74,129Z" fill="#fff"/></g></g></svg>