<svg xmlns="http://www.w3.org/2000/svg" viewBox="0 0 244.14 70.26"><title>m_01</title><g id="Layer_2" data-name="Layer 2"><g id="bubble_talk" data-name="bubble talk"><path d="M187.57,62.22c-8.76,0-18.73-.15-30.28-.33-15.6-.24-33.27-.52-54.16-.52H99.72c-68.5,0-75.39-3.68-78.48-11.33a30.57,30.57,0,0,1-8.59,1.1h0c-2.89,0-8.19-.36-11.27-2.76a1,1,0,0,1,.12-1.65c8.8-5,14-15,14.7-16.39.14-1.38,1.3-9,9.9-18.4C36,1.1,63.88,1.07,119.48,1h6.77C230,1,243.14,4.81,243.14,35,243.14,58.47,229.94,62.22,187.57,62.22Z" fill="#ec5c89"/><path d="M126.26,2C230,2,242.14,6,242.14,35c0,22.54-12.15,26.2-54.57,26.2-20.44,0-47.92-.85-84.46-.85h-3.4c-73,0-75.3-4.46-77.88-11.61a26.37,26.37,0,0,1-9.18,1.38c-4,0-8.27-.68-10.65-2.54,9.79-5.62,15.18-17,15.18-17s.46-7.91,9.66-18C36.52,2,64.24,2.07,121.18,2h5.08m0-2h-6.78C61.84.07,35.53.1,25.36,11.26c-8.43,9.26-9.89,16.88-10.13,18.79-.9,1.75-6,11.06-14.23,15.81a2,2,0,0,0-.23,3.31c3.31,2.58,8.86,3,11.88,3a33.94,33.94,0,0,0,8-.9c1.59,3.5,4.3,6.16,13.32,8,10.91,2.19,31.19,3.16,65.73,3.16h3.4c20.89,0,38.56.27,54.16.52,11.56.18,21.54.33,30.3.33,20.52,0,35-.8,44-4.82,8.8-3.94,12.56-10.94,12.56-23.38,0-15.16-3.27-24.32-20.49-29.3C207,.91,176.6,0,126.26,0Z"/><path d="M96,69.26c-70.49,0-77-4.52-82.16-17.53-.33,0-.67,0-1,0A20.83,20.83,0,0,1,1.45,48.43,1,1,0,0,1,2,46.6c7.74,0,11.23-3.8,12.11-5C13.49,39,11,25.7,19.66,16.21,29.53,5.37,57.43,5.34,113,5.27h6.8c103.75,0,116.86,3.81,116.86,34,0,15.6-7.37,22.72-27.2,26.26-20.38,3.64-54.77,3.67-111.74,3.71Z" fill="#eba21e"/><path d="M119.81,6.27c103.71,0,115.88,4,115.88,33s-24.42,28.88-138.36,29H96c-73.18,0-76.66-5.13-81.48-17.57-.56,0-1.12.07-1.67.07A20,20,0,0,1,2,47.6c9.67,0,13.19-5.76,13.19-5.76s-4-14.86,5.2-25C30.07,6.26,57.79,6.34,114.73,6.27h5.08m0-2H113c-57.64.07-83.94.1-94.11,11.26C10.39,24.9,12.27,37.74,13,41.38c-1.12,1.28-4.4,4.22-11,4.22A2,2,0,0,0,.91,49.27a21.85,21.85,0,0,0,12,3.49h.34C18.55,65.73,26,70.26,96,70.26h1.71c57,0,91.46-.07,111.92-3.73s28-11,28-27.24c0-15.16-3.27-24.32-20.49-29.3-16.61-4.81-47-5.72-97.39-5.72Z"/><path d="M31.71,28a.6.6,0,0,1-.42-.15.53.53,0,0,1-.16-.4.54.54,0,0,1,.16-.4.64.64,0,0,1,.42-.14h4.67a.64.64,0,0,1,.42.14.48.48,0,0,1,.17.4.47.47,0,0,1-.17.4.6.6,0,0,1-.42.15Zm1.65,5.71a.6.6,0,0,1-.45-.18.57.57,0,0,1-.18-.44V21.79a.61.61,0,0,1,.18-.45.6.6,0,0,1,.45-.18h2.88a6.89,6.89,0,0,1,2.52.46,5.64,5.64,0,0,1,2,1.3,5.71,5.71,0,0,1,1.29,2,7.11,7.11,0,0,1,0,5,5.7,5.7,0,0,1-1.29,2,5.62,5.62,0,0,1-2,1.29,6.68,6.68,0,0,1-2.52.46ZM34,32.54h2.26a5.08,5.08,0,0,0,2.6-.66,4.69,4.69,0,0,0,1.76-1.83,5.79,5.79,0,0,0,0-5.29,4.6,4.6,0,0,0-1.76-1.82,5.08,5.08,0,0,0-2.6-.66H34Z" fill="#fff"/><path d="M45.76,23.24a.82.82,0,0,1-.61-.25.86.86,0,0,1-.26-.63.8.8,0,0,1,.27-.63.91.91,0,0,1,.61-.23.88.88,0,0,1,.6.23.8.8,0,0,1,.27.63.86.86,0,0,1-.26.63A.84.84,0,0,1,45.76,23.24Zm0,10.42a.61.61,0,0,1-.45-.17.57.57,0,0,1-.17-.45V25.53a.57.57,0,0,1,.17-.45.61.61,0,0,1,.45-.17.6.6,0,0,1,.44.17.61.61,0,0,1,.17.45V33a.61.61,0,0,1-.17.45A.6.6,0,0,1,45.77,33.66Z" fill="#fff"/><path d="M58.11,33.74a4.34,4.34,0,0,1-2.25-.58,4.18,4.18,0,0,1-1.55-1.6,4.53,4.53,0,0,1-.57-2.27A4.81,4.81,0,0,1,54.28,27a4.22,4.22,0,0,1,1.49-1.59A4.06,4.06,0,0,1,58,24.83a4.3,4.3,0,0,1,1.8.38,4.18,4.18,0,0,1,1.45,1.15.44.44,0,0,1,.12.41.62.62,0,0,1-.27.38.54.54,0,0,1-.39.09.69.69,0,0,1-.38-.24A3,3,0,0,0,58,26a2.88,2.88,0,0,0-1.58.43,2.93,2.93,0,0,0-1,1.18,3.86,3.86,0,0,0-.38,1.73,3.54,3.54,0,0,0,.4,1.71,3,3,0,0,0,1.12,1.19,3.12,3.12,0,0,0,1.65.43,3.74,3.74,0,0,0,1.14-.17,2.39,2.39,0,0,0,.92-.52.74.74,0,0,1,.4-.17.57.57,0,0,1,.39.12.63.63,0,0,1,.21.4.43.43,0,0,1-.15.39A4.16,4.16,0,0,1,58.11,33.74Z" fill="#fff"/><path d="M67.55,33.76a4.2,4.2,0,0,1-2-.48A3.43,3.43,0,0,1,64.1,31.9a4.39,4.39,0,0,1-.52-2.22V25.52a.6.6,0,0,1,.18-.44.6.6,0,0,1,.43-.17.64.64,0,0,1,.45.17.64.64,0,0,1,.17.44v4.16a3.2,3.2,0,0,0,.38,1.63,2.48,2.48,0,0,0,1,1,3.31,3.31,0,0,0,1.47.32,3.11,3.11,0,0,0,1.41-.31,2.49,2.49,0,0,0,1-.83,2,2,0,0,0,.37-1.2h.88a3.66,3.66,0,0,1-.55,1.8,3.61,3.61,0,0,1-1.35,1.25A4,4,0,0,1,67.55,33.76Zm.16-10.28a.57.57,0,0,1-.42-.17l-1.81-1.79a.72.72,0,0,1-.16-.44.61.61,0,0,1,.18-.45.59.59,0,0,1,.43-.19.62.62,0,0,1,.45.2l1.79,1.8a.48.48,0,0,1,.16.4.65.65,0,0,1-.17.46A.61.61,0,0,1,67.71,23.48Zm3.36,10.18a.6.6,0,0,1-.44-.17.61.61,0,0,1-.17-.45V25.52a.58.58,0,0,1,.61-.61.64.64,0,0,1,.45.17.6.6,0,0,1,.17.44V33a.61.61,0,0,1-.17.45A.64.64,0,0,1,71.07,33.66Z" fill="#fff"/><path d="M75.2,33.66a.62.62,0,0,1-.46-.17.6.6,0,0,1-.17-.44V25.53a.61.61,0,0,1,.17-.45.68.68,0,0,1,.9,0,.61.61,0,0,1,.16.45v7.52a.6.6,0,0,1-.16.44A.62.62,0,0,1,75.2,33.66Zm6.88,0a.6.6,0,0,1-.45-.18.57.57,0,0,1-.18-.43V28.89a3.2,3.2,0,0,0-.37-1.63,2.38,2.38,0,0,0-1-1,3.5,3.5,0,0,0-2.88,0,2.58,2.58,0,0,0-1,.84,2.08,2.08,0,0,0-.37,1.2h-.88a3.41,3.41,0,0,1,.55-1.8,3.56,3.56,0,0,1,1.36-1.25,3.94,3.94,0,0,1,1.89-.46,4.37,4.37,0,0,1,2,.47,3.49,3.49,0,0,1,1.41,1.39,4.39,4.39,0,0,1,.52,2.22v4.16a.56.56,0,0,1-.17.43A.58.58,0,0,1,82.08,33.66Z" fill="#fff"/><path d="M89.26,33.74A4.36,4.36,0,0,1,87,33.17a4.05,4.05,0,0,1-1.53-1.57,4.72,4.72,0,0,1-.55-2.31A4.54,4.54,0,0,1,85.52,27,4.11,4.11,0,0,1,87.1,25.4a4.89,4.89,0,0,1,4.58,0A4.08,4.08,0,0,1,93.25,27a4.87,4.87,0,0,1,.59,2.32l-.72.39a4.35,4.35,0,0,1-.5,2.1,3.72,3.72,0,0,1-1.37,1.44A3.76,3.76,0,0,1,89.26,33.74Zm.16,3.38a4.9,4.9,0,0,1-2.22-.48,4.44,4.44,0,0,1-1.59-1.28.5.5,0,0,1-.15-.42.52.52,0,0,1,.23-.37.6.6,0,0,1,.47-.09.62.62,0,0,1,.4.24,3.25,3.25,0,0,0,1.19.92,3.76,3.76,0,0,0,1.69.36,3.06,3.06,0,0,0,1.61-.44,3.12,3.12,0,0,0,1.15-1.21,3.84,3.84,0,0,0,.42-1.84V30.08l.46-.93.76.14v3.27a4.7,4.7,0,0,1-.58,2.32,4.26,4.26,0,0,1-3.84,2.24Zm0-4.5a3.29,3.29,0,0,0,1.67-.42A3,3,0,0,0,92.2,31a3.77,3.77,0,0,0,0-3.46,2.91,2.91,0,0,0-1.14-1.19A3.29,3.29,0,0,0,89.39,26a3.33,3.33,0,0,0-1.68.42,2.93,2.93,0,0,0-1.15,1.19,3.77,3.77,0,0,0,0,3.46,3,3,0,0,0,1.15,1.18A3.33,3.33,0,0,0,89.39,32.62Z" fill="#fff"/><path d="M101,26a.56.56,0,0,1,0-1.12H107A.56.56,0,1,1,107,26Zm.06,7.63a.56.56,0,0,1,0-1.12H107a.56.56,0,0,1,0,1.12Zm.56-.42-1-.54,6-7.57.83.71Z" fill="#fff"/><path d="M113.36,33.74a4.56,4.56,0,0,1-2.3-.57,4.08,4.08,0,0,1-1.57-1.57,4.63,4.63,0,0,1-.57-2.31,4.8,4.8,0,0,1,.54-2.31,4,4,0,0,1,3.66-2.15,4,4,0,0,1,2.12.55,3.84,3.84,0,0,1,1.4,1.53,4.83,4.83,0,0,1,.49,2.22.53.53,0,0,1-.16.41.58.58,0,0,1-.41.15h-6.8v-1h6.92l-.68.49a3.74,3.74,0,0,0-.34-1.66,2.81,2.81,0,0,0-1-1.15,2.77,2.77,0,0,0-1.54-.42,3,3,0,0,0-1.6.43,2.9,2.9,0,0,0-1.07,1.2,3.83,3.83,0,0,0-.37,1.73A3.49,3.49,0,0,0,110.5,31a3.06,3.06,0,0,0,1.16,1.18,3.29,3.29,0,0,0,1.7.44,3.68,3.68,0,0,0,1.16-.2,3,3,0,0,0,.93-.51.73.73,0,0,1,.4-.15.59.59,0,0,1,.39.12.61.61,0,0,1,.21.42.44.44,0,0,1-.18.38,4.12,4.12,0,0,1-1.35.74A4.48,4.48,0,0,1,113.36,33.74Z" fill="#fff"/><path d="M119.82,33.66a.56.56,0,0,1-.61-.61V25.52a.58.58,0,0,1,.16-.45.71.71,0,0,1,.9,0,.61.61,0,0,1,.16.45v7.53a.65.65,0,0,1-.16.45A.61.61,0,0,1,119.82,33.66Zm-.1-5.39a3.93,3.93,0,0,1,.52-1.78,3.56,3.56,0,0,1,1.24-1.23,3.2,3.2,0,0,1,1.68-.45,2.52,2.52,0,0,1,1.14.21.49.49,0,0,1,.3.61.48.48,0,0,1-.21.32A.72.72,0,0,1,124,26l-.49,0a3.68,3.68,0,0,0-1.59.18,2.46,2.46,0,0,0-1.1.81,2.08,2.08,0,0,0-.41,1.3Z" fill="#fff"/><path d="M129.88,33.74a4.44,4.44,0,0,1-2.28-.58A4.16,4.16,0,0,1,126,31.58,4.91,4.91,0,0,1,126,27a4.26,4.26,0,0,1,1.59-1.59,4.54,4.54,0,0,1,2.28-.57,4.49,4.49,0,0,1,2.28.57A4.23,4.23,0,0,1,133.74,27a4.71,4.71,0,0,1,.59,2.3,4.46,4.46,0,0,1-.58,2.29,4.23,4.23,0,0,1-1.59,1.58A4.39,4.39,0,0,1,129.88,33.74Zm0-1.12a3.22,3.22,0,0,0,1.67-.43A3.06,3.06,0,0,0,132.7,31a3.44,3.44,0,0,0,.42-1.71,3.51,3.51,0,0,0-.42-1.72,3.13,3.13,0,0,0-1.15-1.19,3.22,3.22,0,0,0-1.67-.43,3.14,3.14,0,0,0-2.82,1.62,3.51,3.51,0,0,0-.42,1.72,3.44,3.44,0,0,0,.42,1.71,3.09,3.09,0,0,0,1.16,1.19A3.19,3.19,0,0,0,129.88,32.62Z" fill="#fff"/><path d="M143.4,33.66a.61.61,0,0,1-.36-.11.59.59,0,0,1-.23-.29l-2.49-7.49a1,1,0,0,1,0-.63.47.47,0,0,1,.45-.23.67.67,0,0,1,.37.11.73.73,0,0,1,.24.35l2.22,6.8h-.35l2.06-6.78a.84.84,0,0,1,.22-.35.65.65,0,0,1,.78,0,.66.66,0,0,1,.22.35l2,6.62h-.27l2.17-6.64a.6.6,0,0,1,.59-.46.48.48,0,0,1,.48.26.7.7,0,0,1,0,.6L149,33.26a.7.7,0,0,1-.22.29.61.61,0,0,1-.36.11.67.67,0,0,1-.37-.11.48.48,0,0,1-.22-.29l-2-6.69h.2l-2,6.69a.57.57,0,0,1-.22.3A.65.65,0,0,1,143.4,33.66Z" fill="#fff"/><path d="M156.8,33.74a4.19,4.19,0,0,1-2.21-.58,4.25,4.25,0,0,1-1.55-1.6,4.85,4.85,0,0,1,0-4.56,4.33,4.33,0,0,1,1.59-1.59,4.73,4.73,0,0,1,4.54,0A4.38,4.38,0,0,1,160.77,27a4.62,4.62,0,0,1,.6,2.29l-.49.39a4,4,0,0,1-.54,2.07,3.91,3.91,0,0,1-1.46,1.45A4,4,0,0,1,156.8,33.74Zm.12-1.12A3.11,3.11,0,0,0,159.73,31a3.5,3.5,0,0,0,.43-1.71,3.44,3.44,0,0,0-.43-1.71,3.2,3.2,0,0,0-1.15-1.19,3.31,3.31,0,0,0-3.3,0,3.18,3.18,0,0,0-1.17,1.19,3.34,3.34,0,0,0-.43,1.71,3.39,3.39,0,0,0,.43,1.71,3.17,3.17,0,0,0,2.81,1.62Zm3.83,1a.64.64,0,0,1-.45-.17.57.57,0,0,1-.18-.44V30.32l.31-1.27.94.24v3.76a.6.6,0,0,1-.17.44A.64.64,0,0,1,160.75,33.66Z" fill="#fff"/><path d="M166.83,33.74a5.74,5.74,0,0,1-1.87-.32,3.51,3.51,0,0,1-1.51-1,.51.51,0,0,1-.14-.43.65.65,0,0,1,.24-.42.67.67,0,0,1,.46-.13.68.68,0,0,1,.4.21,2.49,2.49,0,0,0,1,.69,3.92,3.92,0,0,0,1.4.24,2.83,2.83,0,0,0,1.71-.41,1.25,1.25,0,0,0,.54-1,1.11,1.11,0,0,0-.54-.95,4.63,4.63,0,0,0-1.79-.59,4.87,4.87,0,0,1-2.37-.89,2,2,0,0,1-.75-1.52,2.09,2.09,0,0,1,.43-1.36,2.56,2.56,0,0,1,1.15-.82,4.5,4.5,0,0,1,1.59-.27,4.17,4.17,0,0,1,1.84.37,3.28,3.28,0,0,1,1.26,1,.55.55,0,0,1,.13.43.53.53,0,0,1-.26.37.65.65,0,0,1-.44.07.71.71,0,0,1-.42-.23,2.43,2.43,0,0,0-.93-.68,3.09,3.09,0,0,0-1.22-.22,2.44,2.44,0,0,0-1.4.36,1.05,1.05,0,0,0-.53.91,1,1,0,0,0,.2.64,1.6,1.6,0,0,0,.69.48,6.26,6.26,0,0,0,1.36.35,6.13,6.13,0,0,1,1.9.57,2.47,2.47,0,0,1,1,.88,2.08,2.08,0,0,1,.3,1.09,2.12,2.12,0,0,1-.44,1.32,2.89,2.89,0,0,1-1.22.89A4.71,4.71,0,0,1,166.83,33.74Z" fill="#fff"/><path d="M171.83,26.3a.57.57,0,0,1-.4-.15.52.52,0,0,1-.15-.38.53.53,0,0,1,.15-.39.57.57,0,0,1,.4-.15h4.08a.59.59,0,0,1,.41.15.53.53,0,0,1,.15.39.52.52,0,0,1-.15.38.59.59,0,0,1-.41.15Zm4,7.36a2.82,2.82,0,0,1-1.51-.4,2.78,2.78,0,0,1-1.05-1.1,3.18,3.18,0,0,1-.39-1.59V22.75a.64.64,0,0,1,.17-.45.57.57,0,0,1,.44-.18.62.62,0,0,1,.63.63v7.82a1.9,1.9,0,0,0,.48,1.34,1.59,1.59,0,0,0,1.23.52h.43a.57.57,0,0,1,.42.17.69.69,0,0,1,.16.45.56.56,0,0,1-.2.44.69.69,0,0,1-.48.17Z" fill="#fff"/><path d="M182.79,33.74a4.55,4.55,0,0,1-2.29-.57,4.08,4.08,0,0,1-1.57-1.57,4.63,4.63,0,0,1-.57-2.31A4.8,4.8,0,0,1,178.9,27a4,4,0,0,1,3.65-2.15,3.94,3.94,0,0,1,2.12.55,3.7,3.7,0,0,1,1.4,1.53,4.71,4.71,0,0,1,.5,2.22.53.53,0,0,1-.16.41.58.58,0,0,1-.42.15h-6.8v-1h6.93l-.69.49a3.6,3.6,0,0,0-.33-1.66,2.69,2.69,0,0,0-2.55-1.57,3,3,0,0,0-1.6.43,3,3,0,0,0-1.06,1.2,3.83,3.83,0,0,0-.38,1.73,3.49,3.49,0,0,0,.43,1.73,3.06,3.06,0,0,0,1.16,1.18,3.25,3.25,0,0,0,1.69.44,3.58,3.58,0,0,0,1.16-.2,3,3,0,0,0,.94-.51.73.73,0,0,1,.4-.15.54.54,0,0,1,.38.12.58.58,0,0,1,.22.42.46.46,0,0,1-.18.38,4.23,4.23,0,0,1-1.35.74A4.49,4.49,0,0,1,182.79,33.74Z" fill="#fff"/><path d="M188.51,36.25a.33.33,0,0,1-.25-.09.29.29,0,0,1-.09-.23.79.79,0,0,1,.14-.44l.3-.42a1,1,0,0,0,.15-.55.9.9,0,0,0-.11-.48,1.7,1.7,0,0,0-.26-.34,1.84,1.84,0,0,1-.27-.34.88.88,0,0,1-.11-.45.84.84,0,0,1,.26-.64,1,1,0,0,1,.67-.24,1,1,0,0,1,.78.37,1.58,1.58,0,0,1,.31,1.05,4.09,4.09,0,0,1-.13.95,4.61,4.61,0,0,1-.35.92,2.66,2.66,0,0,1-.5.68A.79.79,0,0,1,188.51,36.25Z" fill="#fff"/><path d="M37,51.74a4.32,4.32,0,0,1-2.24-.58,4.2,4.2,0,0,1-1.59-1.57,4.5,4.5,0,0,1-.6-2.25V39.79a.64.64,0,0,1,.17-.46.68.68,0,0,1,.9,0,.63.63,0,0,1,.16.46v4.7a4,4,0,0,1,1.4-1.21,4.48,4.48,0,0,1,4.16.13A4.27,4.27,0,0,1,40.9,45a4.57,4.57,0,0,1,.57,2.28,4.45,4.45,0,0,1-.59,2.28,4.21,4.21,0,0,1-1.59,1.6A4.46,4.46,0,0,1,37,51.74Zm0-1.12a3.23,3.23,0,0,0,1.67-.44A3.16,3.16,0,0,0,39.83,49a3.44,3.44,0,0,0,.42-1.71,3.49,3.49,0,0,0-.42-1.71,3.16,3.16,0,0,0-1.16-1.19A3.22,3.22,0,0,0,37,44a3.14,3.14,0,0,0-2.8,1.62,3.6,3.6,0,0,0-.41,1.71A3.54,3.54,0,0,0,34.2,49,3.17,3.17,0,0,0,37,50.62Z" fill="#fff"/><path d="M47.74,51.74A4.16,4.16,0,0,1,44,49.56,4.81,4.81,0,0,1,44,45a4.28,4.28,0,0,1,1.6-1.59,4.43,4.43,0,0,1,2.27-.58A4.34,4.34,0,0,1,51.72,45a4.62,4.62,0,0,1,.6,2.29l-.5.39a4,4,0,0,1-.54,2.07,3.88,3.88,0,0,1-1.45,1.45A4,4,0,0,1,47.74,51.74Zm.13-1.12a3.12,3.12,0,0,0,1.65-.43A3.23,3.23,0,0,0,50.68,49a3.49,3.49,0,0,0,.42-1.71,3.44,3.44,0,0,0-.42-1.71,3.23,3.23,0,0,0-1.16-1.19A3,3,0,0,0,47.87,44a3.09,3.09,0,0,0-1.65.44,3.26,3.26,0,0,0-1.17,1.19,3.34,3.34,0,0,0-.43,1.71A3.39,3.39,0,0,0,45.05,49a3.26,3.26,0,0,0,1.17,1.19A3.17,3.17,0,0,0,47.87,50.62Zm0,4.38a.84.84,0,0,1-.61-.25.85.85,0,0,1-.25-.63.83.83,0,0,1,.26-.63.93.93,0,0,1,.62-.23.92.92,0,0,1,.6.23.83.83,0,0,1,.26.63.85.85,0,0,1-.88.88Zm3.84-3.34a.64.64,0,0,1-.45-.17.6.6,0,0,1-.17-.44V48.32l.3-1.27,1,.24v3.76a.57.57,0,0,1-.18.44A.64.64,0,0,1,51.69,51.66Z" fill="#fff"/><path d="M55.34,51.66a.65.65,0,0,1-.46-.17.6.6,0,0,1-.16-.44V43.53a.61.61,0,0,1,.16-.45.65.65,0,0,1,.46-.17.6.6,0,0,1,.44.17.61.61,0,0,1,.17.45v7.52a.58.58,0,0,1-.61.61Zm6.88,0a.61.61,0,0,1-.45-.18.56.56,0,0,1-.17-.43V46.89a3.2,3.2,0,0,0-.38-1.63,2.36,2.36,0,0,0-1-1A3.34,3.34,0,0,0,58.73,44a3.24,3.24,0,0,0-1.41.3,2.44,2.44,0,0,0-1,.84,2,2,0,0,0-.37,1.2h-.88a3.4,3.4,0,0,1,.54-1.8A3.63,3.63,0,0,1,57,43.27a4,4,0,0,1,1.89-.46,4.34,4.34,0,0,1,2,.47,3.52,3.52,0,0,1,1.42,1.39,4.5,4.5,0,0,1,.52,2.22v4.16a.57.57,0,0,1-.18.43A.58.58,0,0,1,62.22,51.66Z" fill="#fff"/><path d="M74.14,51.74a4.34,4.34,0,0,1-2.25-.58,4.25,4.25,0,0,1-1.55-1.6,4.53,4.53,0,0,1-.57-2.27A4.7,4.7,0,0,1,70.32,45a4.12,4.12,0,0,1,1.48-1.59A4.06,4.06,0,0,1,74,42.83a4.3,4.3,0,0,1,1.8.38,4.18,4.18,0,0,1,1.45,1.15.45.45,0,0,1,.13.41.68.68,0,0,1-.28.38.52.52,0,0,1-.39.09.63.63,0,0,1-.37-.24A3,3,0,0,0,74,44a2.88,2.88,0,0,0-1.58.43,2.93,2.93,0,0,0-1.05,1.18A3.86,3.86,0,0,0,71,47.29a3.66,3.66,0,0,0,.4,1.71,3,3,0,0,0,1.12,1.19,3.12,3.12,0,0,0,1.65.43,3.69,3.69,0,0,0,1.14-.17,2.39,2.39,0,0,0,.92-.52.77.77,0,0,1,.4-.17.57.57,0,0,1,.39.12.59.59,0,0,1,.21.4.43.43,0,0,1-.15.39A4.16,4.16,0,0,1,74.14,51.74Z" fill="#fff"/><path d="M83.76,51.74a4.46,4.46,0,0,1-2.29-.58,4.23,4.23,0,0,1-1.59-1.58,4.91,4.91,0,0,1,0-4.59,4.33,4.33,0,0,1,1.59-1.59,4.87,4.87,0,0,1,4.57,0A4.28,4.28,0,0,1,87.61,45a4.6,4.6,0,0,1,.59,2.3,4.46,4.46,0,0,1-.58,2.29A4.28,4.28,0,0,1,86,51.16,4.44,4.44,0,0,1,83.76,51.74Zm0-1.12a3.21,3.21,0,0,0,1.66-.43A3.06,3.06,0,0,0,86.57,49,3.44,3.44,0,0,0,87,47.29a3.51,3.51,0,0,0-.42-1.72,3.13,3.13,0,0,0-1.15-1.19,3.44,3.44,0,0,0-3.33,0,3.16,3.16,0,0,0-1.16,1.19,3.51,3.51,0,0,0-.42,1.72A3.44,3.44,0,0,0,80.93,49a3.09,3.09,0,0,0,1.16,1.19A3.22,3.22,0,0,0,83.76,50.62Zm-.12-9A.61.61,0,0,1,83,41a.64.64,0,0,1,.14-.42L85,38.73a.61.61,0,0,1,.43-.17.6.6,0,0,1,.45.18.63.63,0,0,1,.18.46.85.85,0,0,1,0,.22.38.38,0,0,1-.14.19l-1.79,1.81A.57.57,0,0,1,83.64,41.58Z" fill="#fff"/><path d="M94.73,44.3a.57.57,0,0,1-.4-.15.49.49,0,0,1-.16-.38.5.5,0,0,1,.16-.39.57.57,0,0,1,.4-.15h4.08a.57.57,0,0,1,.4.15.5.5,0,0,1,.16.39.49.49,0,0,1-.16.38.57.57,0,0,1-.4.15Zm4,7.36a2.88,2.88,0,0,1-1.52-.4,2.82,2.82,0,0,1-1-1.1,3.18,3.18,0,0,1-.39-1.59V40.75a.64.64,0,0,1,.17-.45.57.57,0,0,1,.44-.18.61.61,0,0,1,.45.18.64.64,0,0,1,.17.45v7.82a1.9,1.9,0,0,0,.48,1.34,1.59,1.59,0,0,0,1.24.52h.43a.53.53,0,0,1,.41.17.64.64,0,0,1,.16.45.55.55,0,0,1-.19.44.72.72,0,0,1-.48.17Z" fill="#fff"/><path d="M102.35,48.09a.64.64,0,0,1-.46-.17.64.64,0,0,1-.17-.45V39.79a.59.59,0,0,1,.63-.63.6.6,0,0,1,.44.17.64.64,0,0,1,.17.46v7.68a.64.64,0,0,1-.17.45A.6.6,0,0,1,102.35,48.09Zm0,3.57a.64.64,0,0,1-.46-.17.6.6,0,0,1-.17-.44V43.53a.61.61,0,0,1,.17-.45.64.64,0,0,1,.46-.17.6.6,0,0,1,.44.17.61.61,0,0,1,.17.45v7.52a.58.58,0,0,1-.61.61Zm6.88,0a.61.61,0,0,1-.45-.18.57.57,0,0,1-.18-.43V46.89a3.2,3.2,0,0,0-.37-1.63,2.33,2.33,0,0,0-1-1,3.5,3.5,0,0,0-2.88,0,2.58,2.58,0,0,0-1,.84,2.07,2.07,0,0,0-.36,1.2h-.88a3.4,3.4,0,0,1,.54-1.8A3.56,3.56,0,0,1,104,43.27a3.94,3.94,0,0,1,1.89-.46,4.37,4.37,0,0,1,2,.47,3.52,3.52,0,0,1,1.42,1.39,4.5,4.5,0,0,1,.52,2.22v4.16a.57.57,0,0,1-.18.43A.58.58,0,0,1,109.23,51.66Z" fill="#fff"/><path d="M116.52,51.74a4.52,4.52,0,0,1-2.29-.57,4.08,4.08,0,0,1-1.57-1.57,4.63,4.63,0,0,1-.57-2.31,4.8,4.8,0,0,1,.54-2.31,4,4,0,0,1,1.48-1.58,4.11,4.11,0,0,1,2.17-.57,4,4,0,0,1,2.12.55,3.7,3.7,0,0,1,1.4,1.53,4.84,4.84,0,0,1,.5,2.22.53.53,0,0,1-.16.41.6.6,0,0,1-.42.15h-6.8v-1h6.93l-.69.49a3.73,3.73,0,0,0-.33-1.66,2.69,2.69,0,0,0-2.55-1.57,3,3,0,0,0-1.6.43,2.88,2.88,0,0,0-1.06,1.2,3.83,3.83,0,0,0-.38,1.73,3.39,3.39,0,0,0,.43,1.73,3.06,3.06,0,0,0,1.16,1.18,3.25,3.25,0,0,0,1.69.44,3.63,3.63,0,0,0,1.16-.2,3.08,3.08,0,0,0,.94-.51.73.73,0,0,1,.4-.15.54.54,0,0,1,.38.12.62.62,0,0,1,.22.42.49.49,0,0,1-.18.38,4.23,4.23,0,0,1-1.35.74A4.54,4.54,0,0,1,116.52,51.74Zm-2.14-10.22a.68.68,0,0,1-.46-.16.49.49,0,0,1-.18-.4.64.64,0,0,1,.3-.55l1.89-1.25a.62.62,0,0,1,.31-.08.47.47,0,0,1,.17,0l.15,0,1.87,1.25a.64.64,0,0,1,.3.55.54.54,0,0,1-.17.4.69.69,0,0,1-.45.16.42.42,0,0,1-.2,0l-.19-.09-1.48-1-1.49,1A.66.66,0,0,1,114.38,41.52Zm3.39-2.13a.58.58,0,0,1-.41-.17.56.56,0,0,1-.16-.41v-.45a.58.58,0,0,1,.51-.62l.4-.08a.88.88,0,0,0,.49-.26.6.6,0,0,0,.16-.44.66.66,0,0,0-.23-.55.84.84,0,0,0-.57-.19,1,1,0,0,0-.38.07,1.29,1.29,0,0,0-.32.19.45.45,0,0,1-.19.11l-.21,0a.52.52,0,0,1-.36-.14.47.47,0,0,1-.15-.37.51.51,0,0,1,.19-.43,2,2,0,0,1,.63-.37,2.13,2.13,0,0,1,.78-.13,2,2,0,0,1,1.33.47,1.57,1.57,0,0,1,.54,1.23,1.33,1.33,0,0,1-.48,1.12,2.34,2.34,0,0,1-1.14.48l.13.2a.7.7,0,0,1-.17.52A.49.49,0,0,1,117.77,39.39Z" fill="#fff"/><path d="M130.92,51.74a4.36,4.36,0,0,1-2.24-.57,4,4,0,0,1-1.52-1.57,4.73,4.73,0,0,1-.56-2.31,4.64,4.64,0,0,1,.58-2.32,4.11,4.11,0,0,1,1.58-1.57,4.91,4.91,0,0,1,4.59,0A4.15,4.15,0,0,1,134.92,45a4.86,4.86,0,0,1,.58,2.32l-.72.39a4.35,4.35,0,0,1-.5,2.1,3.7,3.7,0,0,1-1.36,1.44A3.82,3.82,0,0,1,130.92,51.74Zm.16,3.38a4.9,4.9,0,0,1-2.22-.48,4.32,4.32,0,0,1-1.58-1.28.55.55,0,0,1-.16-.42.53.53,0,0,1,.24-.37.57.57,0,0,1,.46-.09.62.62,0,0,1,.4.24,3.43,3.43,0,0,0,1.19.92,3.79,3.79,0,0,0,1.69.36,3.07,3.07,0,0,0,1.62-.44,3,3,0,0,0,1.14-1.21,3.84,3.84,0,0,0,.42-1.84V48.08l.47-.93.75.14v3.27a4.59,4.59,0,0,1-.58,2.32,4.23,4.23,0,0,1-3.84,2.24Zm0-4.5a3.26,3.26,0,0,0,1.67-.42A3.1,3.1,0,0,0,133.87,49a3.85,3.85,0,0,0,0-3.46,3,3,0,0,0-1.15-1.19,3.26,3.26,0,0,0-1.67-.42,3.33,3.33,0,0,0-1.68.42,3,3,0,0,0-1.15,1.19,3.77,3.77,0,0,0,0,3.46,3.1,3.1,0,0,0,1.15,1.18A3.33,3.33,0,0,0,131.05,50.62Z" fill="#fff"/><path d="M141.88,51.74a4.51,4.51,0,0,1-2.29-.58A4.2,4.2,0,0,1,138,49.58,4.91,4.91,0,0,1,138,45a4.3,4.3,0,0,1,1.58-1.59,4.6,4.6,0,0,1,2.29-.57,4.49,4.49,0,0,1,2.28.57A4.23,4.23,0,0,1,145.74,45a4.71,4.71,0,0,1,.59,2.3,4.46,4.46,0,0,1-.58,2.29,4.23,4.23,0,0,1-1.59,1.58A4.39,4.39,0,0,1,141.88,51.74Zm0-1.12a3.22,3.22,0,0,0,1.67-.43A3.06,3.06,0,0,0,144.7,49a3.43,3.43,0,0,0,.41-1.71,3.5,3.5,0,0,0-.41-1.72,3.13,3.13,0,0,0-1.15-1.19,3.22,3.22,0,0,0-1.67-.43,3.14,3.14,0,0,0-2.82,1.62,3.51,3.51,0,0,0-.43,1.72,3.44,3.44,0,0,0,.43,1.71,3.09,3.09,0,0,0,1.16,1.19A3.19,3.19,0,0,0,141.88,50.62Zm-.11-9a.6.6,0,0,1-.44-.18.62.62,0,0,1-.18-.44.59.59,0,0,1,.14-.42l1.81-1.81a.64.64,0,0,1,.88,0,.63.63,0,0,1,.17.46.57.57,0,0,1,0,.22.36.36,0,0,1-.13.19l-1.79,1.81A.57.57,0,0,1,141.77,41.58Z" fill="#fff"/><path d="M149.35,55.4a.61.61,0,0,1-.45-.16.65.65,0,0,1-.17-.46V47.23a4.5,4.5,0,0,1,.6-2.25,4.35,4.35,0,0,1,1.58-1.58,4.77,4.77,0,0,1,4.54,0A4.33,4.33,0,0,1,157,45a4.77,4.77,0,0,1,0,4.56,4.19,4.19,0,0,1-3.75,2.18,4.07,4.07,0,0,1-1.95-.46,3.81,3.81,0,0,1-1.4-1.2v4.7a.61.61,0,0,1-.17.46A.58.58,0,0,1,149.35,55.4Zm3.81-4.78A3.14,3.14,0,0,0,156,49a3.49,3.49,0,0,0,.42-1.71,3.44,3.44,0,0,0-.42-1.71,3.23,3.23,0,0,0-1.16-1.19,3.22,3.22,0,0,0-4.47,1.19,3.54,3.54,0,0,0-.41,1.71,3.6,3.6,0,0,0,.41,1.71,3.13,3.13,0,0,0,1.15,1.19A3.2,3.2,0,0,0,153.16,50.62Z" fill="#fff"/><path d="M165.35,55.4a.61.61,0,0,1-.45-.16.65.65,0,0,1-.17-.46V47.23a4.5,4.5,0,0,1,.6-2.25,4.35,4.35,0,0,1,1.58-1.58,4.77,4.77,0,0,1,4.54,0A4.33,4.33,0,0,1,173,45a4.77,4.77,0,0,1,0,4.56,4.19,4.19,0,0,1-3.75,2.18,4.07,4.07,0,0,1-1.95-.46,3.81,3.81,0,0,1-1.4-1.2v4.7a.61.61,0,0,1-.17.46A.58.58,0,0,1,165.35,55.4Zm3.81-4.78A3.14,3.14,0,0,0,172,49a3.49,3.49,0,0,0,.42-1.71,3.44,3.44,0,0,0-.42-1.71,3.23,3.23,0,0,0-1.16-1.19,3.22,3.22,0,0,0-4.47,1.19,3.54,3.54,0,0,0-.41,1.71,3.6,3.6,0,0,0,.41,1.71,3.13,3.13,0,0,0,1.15,1.19A3.2,3.2,0,0,0,169.16,50.62Z" fill="#fff"/><path d="M176.67,48.09a.62.62,0,0,1-.46-.17.64.64,0,0,1-.17-.45V39.79a.64.64,0,0,1,.17-.46.68.68,0,0,1,.9,0,.63.63,0,0,1,.16.46v7.68a.64.64,0,0,1-.16.45A.62.62,0,0,1,176.67,48.09Zm0,3.57a.62.62,0,0,1-.46-.17.6.6,0,0,1-.17-.44V43.53a.61.61,0,0,1,.17-.45.68.68,0,0,1,.9,0,.61.61,0,0,1,.16.45v7.52a.6.6,0,0,1-.16.44A.62.62,0,0,1,176.67,51.66Zm6.88,0a.6.6,0,0,1-.45-.18.57.57,0,0,1-.18-.43V46.89a3.2,3.2,0,0,0-.37-1.63,2.38,2.38,0,0,0-1-1,3.5,3.5,0,0,0-2.88,0,2.58,2.58,0,0,0-1,.84,2.08,2.08,0,0,0-.37,1.2h-.88a3.5,3.5,0,0,1,.55-1.8,3.56,3.56,0,0,1,1.36-1.25,3.94,3.94,0,0,1,1.89-.46,4.37,4.37,0,0,1,2,.47,3.43,3.43,0,0,1,1.41,1.39,4.39,4.39,0,0,1,.52,2.22v4.16a.56.56,0,0,1-.17.43A.58.58,0,0,1,183.55,51.66Z" fill="#fff"/><path d="M190.73,51.74A4.16,4.16,0,0,1,187,49.56,4.81,4.81,0,0,1,187,45a4.28,4.28,0,0,1,1.6-1.59,4.43,4.43,0,0,1,2.27-.58A4.34,4.34,0,0,1,194.71,45a4.62,4.62,0,0,1,.6,2.29l-.5.39a4,4,0,0,1-.54,2.07,3.88,3.88,0,0,1-1.45,1.45A4.07,4.07,0,0,1,190.73,51.74Zm.13-1.12a3.12,3.12,0,0,0,1.65-.43A3.23,3.23,0,0,0,193.67,49a3.49,3.49,0,0,0,.42-1.71,3.44,3.44,0,0,0-.42-1.71,3.23,3.23,0,0,0-1.16-1.19,3,3,0,0,0-1.65-.44,3.09,3.09,0,0,0-1.65.44A3.26,3.26,0,0,0,188,45.58a3.34,3.34,0,0,0-.43,1.71A3.39,3.39,0,0,0,188,49a3.26,3.26,0,0,0,1.17,1.19A3.17,3.17,0,0,0,190.86,50.62ZM189,41.52a.64.64,0,0,1-.45-.16.47.47,0,0,1-.19-.4.63.63,0,0,1,.31-.55l1.88-1.25a.62.62,0,0,1,.31-.08.47.47,0,0,1,.17,0l.15,0,1.87,1.25a.64.64,0,0,1,.3.55.51.51,0,0,1-.17.4.69.69,0,0,1-.45.16.45.45,0,0,1-.2,0,.76.76,0,0,1-.18-.09l-1.49-1-1.49,1A.66.66,0,0,1,189,41.52Zm3.39-2.74a.55.55,0,0,1-.41-.18l-1.81-1.79a.59.59,0,0,1-.16-.43.65.65,0,0,1,.18-.46.57.57,0,0,1,.43-.18.61.61,0,0,1,.45.19l1.79,1.81a.54.54,0,0,1,.16.4.62.62,0,0,1-.19.46A.6.6,0,0,1,192.39,38.78Zm2.29,12.88a.64.64,0,0,1-.45-.17.6.6,0,0,1-.17-.44V48.32l.3-1.27.95.24v3.76a.57.57,0,0,1-.18.44A.64.64,0,0,1,194.68,51.66Z" fill="#fff"/><path d="M198.33,51.66a.65.65,0,0,1-.46-.17.6.6,0,0,1-.16-.44V43.53a.61.61,0,0,1,.16-.45.65.65,0,0,1,.46-.17.6.6,0,0,1,.44.17.61.61,0,0,1,.17.45v7.52a.58.58,0,0,1-.61.61Zm6.88,0a.61.61,0,0,1-.45-.18.56.56,0,0,1-.17-.43V46.89a3.2,3.2,0,0,0-.38-1.63,2.36,2.36,0,0,0-1-1,3.34,3.34,0,0,0-1.47-.32,3.24,3.24,0,0,0-1.41.3,2.44,2.44,0,0,0-1,.84,2,2,0,0,0-.37,1.2h-.88a3.4,3.4,0,0,1,.54-1.8A3.63,3.63,0,0,1,200,43.27a4,4,0,0,1,1.89-.46,4.34,4.34,0,0,1,2,.47,3.52,3.52,0,0,1,1.42,1.39,4.5,4.5,0,0,1,.52,2.22v4.16a.57.57,0,0,1-.18.43A.58.58,0,0,1,205.21,51.66Z" fill="#fff"/><path d="M208.65,51.66a.92.92,0,0,1-.93-.93.92.92,0,0,1,.27-.67.9.9,0,0,1,.66-.27.88.88,0,0,1,.67.28.93.93,0,0,1,.27.66.92.92,0,0,1-.94.93Zm3.73,0a.92.92,0,0,1-.93-.93.92.92,0,0,1,.27-.67.9.9,0,0,1,.66-.27.88.88,0,0,1,.66.28.93.93,0,0,1,0,1.32A.92.92,0,0,1,212.38,51.66Zm3.73,0a.9.9,0,0,1-.67-.27.93.93,0,0,1-.26-.66,1,1,0,0,1,.26-.66.88.88,0,0,1,.67-.28.89.89,0,0,1,.65.27.92.92,0,0,1,.27.67.92.92,0,0,1-.92.93Z" fill="#fff"/></g></g></svg>