<svg xmlns="http://www.w3.org/2000/svg" xmlns:xlink="http://www.w3.org/1999/xlink" viewBox="0 0 236.82 140.65"><defs><linearGradient id="linear-gradient" x1="0.87" y1="70.32" x2="226.19" y2="70.32" gradientUnits="userSpaceOnUse"><stop offset="0.69" stop-color="#fa8f9d"/><stop offset="1" stop-color="#ffa7b5"/></linearGradient></defs><title>m_03</title><g id="Layer_2" data-name="Layer 2"><g id="bubble_talk" data-name="bubble talk"><path d="M120.17,139.77c-10.21,0-18-2.83-23.3-8.42C90.61,124.68,90,116.16,90,113.28c-1.08.06-3.08.14-6.07.14-7.82,0-21.39-.56-41.64-3.23-36-4.75-41.11-30-41.35-54.12-.18-17.1,1.42-29.43,9.88-38C24.86,3.79,57.93,1.08,118,.88h5.48c51.89,0,78.9,2.46,92.1,16.49,10.54,11.19,11.64,29.19,10,56.49-1.68,27.7-55.23,30.56-107,33.33l-9.06.49a7,7,0,0,0-1,4.53c.31,7.91,7.19,21.38,12.29,26a.87.87,0,0,1-.59,1.52Z" fill="url(#linear-gradient)"/><path d="M123.48,1.75c92.59,0,105.07,8.4,101.21,72.06-1.74,28.62-63.16,30.1-115.63,33-5.24,5.61,4.66,26.17,11.11,32.07-31,0-29.32-26.56-29.32-26.56s-2.26.21-7,.21c-7.45,0-21-.53-41.53-3.23C8.31,104.83,2,81.72,1.76,56.07,1.31,11.31,13.54,2.09,118,1.76h5.48m0-1.75H118C57.69.2,24.45,3,10.15,17.45,1.47,26.24-.16,38.75,0,56.08.17,71.77,2.68,83,7.9,91.55c6.74,11,17.93,17.35,34.22,19.5,20.3,2.68,33.92,3.25,41.76,3.25,2.32,0,4.05,0,5.23-.1.16,3.61,1.23,11.47,7.12,17.75,5.42,5.77,13.48,8.7,23.94,8.7a1.77,1.77,0,0,0,1.64-1.12,1.73,1.73,0,0,0-.46-1.92c-5-4.56-11.7-17.71-12-25.43a6.94,6.94,0,0,1,.63-3.65l8.62-.46c25.24-1.35,51.35-2.75,71.56-7.21,23.63-5.21,35.5-14,36.28-26.94,1.68-27.54.54-45.72-10.21-57.15C202.79,2.51,175.62,0,123.48,0Z"/><path d="M120.06,139.77c-7.25-.92-12.7-3.77-16.19-8.48-4.67-6.3-4.47-14-4.2-16.84-1.49.11-4.48.28-9.06.28a307.06,307.06,0,0,1-39.74-3C17.6,107.37,10.93,90.41,10.64,62.59c-.17-17.11,1.42-29.43,9.89-38C34.62,10.3,67.69,7.59,127.76,7.4h5.48c51.88,0,78.9,2.47,92.1,16.49,10.53,11.2,11.63,29.2,10,56.5-1.68,27.69-55.23,30.56-107,33.33l-9.08.49c-2.19,2.55-3.43,7-3.24,11.82.21,5.11,2,9.68,4.78,12.23a.87.87,0,0,1,.21,1,.88.88,0,0,1-.8.5Z" fill="#897dff"/><path d="M133.23,8.27c92.59,0,105.08,8.4,101.22,72.06-1.74,28.61-63.16,30.1-115.64,33-5.24,5.61-5.09,19.65,1.36,25.55-23.33-2.94-19.5-25.42-19.5-25.42a99.8,99.8,0,0,1-10.07.38,306.1,306.1,0,0,1-39.61-3C17,106.4,11.78,88.24,11.52,62.58c-.45-44.76,11.78-54,116.24-54.3h5.47m0-1.75h-5.47C67.45,6.72,34.21,9.47,19.91,24,11.23,32.76,9.59,45.27,9.77,62.6c.2,19.76,3.83,27.79,7.36,33.05,6.31,9.39,17,14.78,33.63,17a309.14,309.14,0,0,0,39.84,3c3.74,0,6.43-.12,8.13-.22-.2,3.51.08,10.55,4.43,16.42,3.65,4.91,9.3,7.88,16.8,8.82l.22,0a1.75,1.75,0,0,0,1.17-3c-2.62-2.4-4.3-6.74-4.49-11.62-.18-4.4.89-8.51,2.79-10.94l8.7-.47c25.24-1.35,51.34-2.74,71.56-7.2,23.63-5.21,35.5-14,36.28-26.95,1.67-27.54.54-45.72-10.22-57.14C212.55,9,185.37,6.52,133.23,6.52Z"/><path d="M53,58.62h-3.1a.77.77,0,0,1-.55-.17.79.79,0,0,1-.17-.55v-13a.75.75,0,0,1,.17-.55.73.73,0,0,1,.55-.17H53a.73.73,0,0,1,.55.17.75.75,0,0,1,.17.55v4.6h.8l2.06-4.66a1,1,0,0,1,.38-.51,1.16,1.16,0,0,1,.62-.15h3.08a.51.51,0,0,1,.46.17c.08.11.07.27,0,.49l-2,4.66a2.49,2.49,0,0,1,1.79.79,2.72,2.72,0,0,1,.67,1.93V57.9a.79.79,0,0,1-.17.55.77.77,0,0,1-.55.17H57.69a.77.77,0,0,1-.55-.17A.79.79,0,0,1,57,57.9V54a.7.7,0,0,0-.16-.5.62.62,0,0,0-.48-.18H53.69V57.9a.79.79,0,0,1-.17.55A.77.77,0,0,1,53,58.62Z" fill="#fff"/><path d="M67.89,58.62h-3.1a.77.77,0,0,1-.55-.17.79.79,0,0,1-.17-.55v-13a.75.75,0,0,1,.17-.55.73.73,0,0,1,.55-.17h3.1a.74.74,0,0,1,.55.17.75.75,0,0,1,.17.55v4.34H72V44.94a.75.75,0,0,1,.17-.55.73.73,0,0,1,.55-.17h3.1a.73.73,0,0,1,.55.17.75.75,0,0,1,.17.55v13a.79.79,0,0,1-.17.55.77.77,0,0,1-.55.17h-3.1a.77.77,0,0,1-.55-.17A.79.79,0,0,1,72,57.9V53.46H68.61V57.9a.62.62,0,0,1-.72.72Z" fill="#fff"/><path d="M91.45,54.84a4.92,4.92,0,0,1-.27,1.67,2.83,2.83,0,0,1-1,1.28,5.25,5.25,0,0,1-1.9.83,15.91,15.91,0,0,1-6.15,0,5.22,5.22,0,0,1-1.91-.83,2.83,2.83,0,0,1-1-1.28A4.92,4.92,0,0,1,79,54.84V48a4.88,4.88,0,0,1,.27-1.67,2.85,2.85,0,0,1,1-1.29,5.06,5.06,0,0,1,1.91-.84,15.91,15.91,0,0,1,6.15,0,5.08,5.08,0,0,1,1.9.84,2.85,2.85,0,0,1,1,1.29A4.88,4.88,0,0,1,91.45,48ZM84.59,42.68l-2.74.8c-.34.1-.56.12-.66,0s-.16-.3-.16-.66V41.24c0-.36,0-.6.17-.7a2.12,2.12,0,0,1,.65-.36l2.56-.92a1.27,1.27,0,0,1,.39-.12l.39-.06a1.88,1.88,0,0,1,.34,0,1,1,0,0,1,.3.08l2.74,1a2.29,2.29,0,0,1,.67.36,1,1,0,0,1,.17.7v1.62c0,.36,0,.58-.16.66s-.34.06-.68,0l-2.74-.8a2.44,2.44,0,0,0-1.24,0Zm-1,11.44a.87.87,0,0,0,.3.67,3.66,3.66,0,0,0,2.76,0,.87.87,0,0,0,.3-.67V48.74a.83.83,0,0,0-.3-.65,3.66,3.66,0,0,0-2.76,0,.83.83,0,0,0-.3.65Z" fill="#fff"/><path d="M97.71,58.62h-3a.75.75,0,0,1-.55-.17A.74.74,0,0,1,94,57.9v-13a.62.62,0,0,1,.72-.72h2.08a1.6,1.6,0,0,1,.65.12,1.63,1.63,0,0,1,.53.42l3.88,4.44V44.94a.75.75,0,0,1,.17-.55.73.73,0,0,1,.55-.17h3a.74.74,0,0,1,.55.17.75.75,0,0,1,.17.55v13a.62.62,0,0,1-.72.72h-3a.77.77,0,0,1-.55-.17.79.79,0,0,1-.17-.55V55.44L98.43,51.3v6.6a.79.79,0,0,1-.17.55A.77.77,0,0,1,97.71,58.62Z" fill="#fff"/><path d="M120.05,58.62h-6.3a5.77,5.77,0,0,1-3.71-1,3.77,3.77,0,0,1-1.21-3.08V48.3A3.74,3.74,0,0,1,110,45.22a5.71,5.71,0,0,1,3.71-1h5a.74.74,0,0,1,.55.17.75.75,0,0,1,.17.55v2.42a.62.62,0,0,1-.72.72h-4.16a1.39,1.39,0,0,0-.92.25.9.9,0,0,0-.3.75v4.78a1.06,1.06,0,0,0,.23.74.9.9,0,0,0,.69.24h1.94V51.72a.71.71,0,0,1,.17-.55A.73.73,0,0,1,117,51h3.1a.73.73,0,0,1,.55.17.75.75,0,0,1,.17.55V57.9a.79.79,0,0,1-.17.55A.77.77,0,0,1,120.05,58.62Z" fill="#fff"/><path d="M139.91,54.84a4.92,4.92,0,0,1-.27,1.67,2.83,2.83,0,0,1-1,1.28,5.25,5.25,0,0,1-1.9.83,15.91,15.91,0,0,1-6.15,0,5.15,5.15,0,0,1-1.91-.83,2.83,2.83,0,0,1-1-1.28,4.92,4.92,0,0,1-.27-1.67V48a4.88,4.88,0,0,1,.27-1.67,2.85,2.85,0,0,1,1-1.29,5,5,0,0,1,1.91-.84,15.91,15.91,0,0,1,6.15,0,5.08,5.08,0,0,1,1.9.84,2.85,2.85,0,0,1,1,1.29,4.88,4.88,0,0,1,.27,1.67ZM132,54.12a.87.87,0,0,0,.3.67,3.66,3.66,0,0,0,2.76,0,.87.87,0,0,0,.3-.67V48.74a.83.83,0,0,0-.3-.65,3.66,3.66,0,0,0-2.76,0,.83.83,0,0,0-.3.65Z" fill="#fff"/><path d="M146.25,58.62h-3.08a.75.75,0,0,1-.55-.17.74.74,0,0,1-.17-.55v-13a.62.62,0,0,1,.72-.72h6.66a4.1,4.1,0,0,1,3.09.93,3.46,3.46,0,0,1,.85,2.41v.92a3.81,3.81,0,0,1-.25,1.43,1.61,1.61,0,0,1-.87.85,2.62,2.62,0,0,1,1.75.88,3,3,0,0,1,.67,2V57.9a.62.62,0,0,1-.72.72h-3.1a.75.75,0,0,1-.55-.17.74.74,0,0,1-.17-.55V54.84a1,1,0,0,0-.17-.65.73.73,0,0,0-.59-.21H147V57.9a.62.62,0,0,1-.72.72Zm.72-10.8v2.56h1.5a.79.79,0,0,0,.7-.27,1.2,1.2,0,0,0,.18-.67v-.68a1.17,1.17,0,0,0-.18-.67.79.79,0,0,0-.7-.27Z" fill="#fff"/><path d="M164.77,58.62H158a.75.75,0,0,1-.55-.17.74.74,0,0,1-.17-.55v-13a.62.62,0,0,1,.72-.72h6.74a5.75,5.75,0,0,1,3.71,1,3.77,3.77,0,0,1,1.21,3.08v6.24a3.8,3.8,0,0,1-1.21,3.08A5.81,5.81,0,0,1,164.77,58.62ZM161.85,48v6.8h2.38a1,1,0,0,0,.71-.24,1.06,1.06,0,0,0,.23-.74V49a1,1,0,0,0-.23-.73,1,1,0,0,0-.71-.23Z" fill="#fff"/><path d="M182.23,58.62H173a.75.75,0,0,1-.55-.17.74.74,0,0,1-.17-.55v-13a.62.62,0,0,1,.72-.72h9.28a.74.74,0,0,1,.55.17.75.75,0,0,1,.17.55v2.34a.62.62,0,0,1-.72.72h-5.52v1.54h3.9a.74.74,0,0,1,.55.17.75.75,0,0,1,.17.55V52.4a.62.62,0,0,1-.72.72h-3.9v1.72h5.52a.74.74,0,0,1,.55.17.75.75,0,0,1,.17.55V57.9a.62.62,0,0,1-.72.72Z" fill="#fff"/><path d="M189.11,58.62H186a.75.75,0,0,1-.55-.17.74.74,0,0,1-.17-.55v-13a.62.62,0,0,1,.72-.72h6.66a4.1,4.1,0,0,1,3.09.93,3.46,3.46,0,0,1,.85,2.41v.92a3.81,3.81,0,0,1-.25,1.43,1.61,1.61,0,0,1-.87.85,2.62,2.62,0,0,1,1.75.88,3,3,0,0,1,.67,2V57.9a.62.62,0,0,1-.72.72h-3.1a.75.75,0,0,1-.55-.17.74.74,0,0,1-.17-.55V54.84a1,1,0,0,0-.17-.65.73.73,0,0,0-.59-.21h-2.8V57.9a.62.62,0,0,1-.72.72Zm.72-10.8v2.56h1.5a.79.79,0,0,0,.7-.27,1.2,1.2,0,0,0,.18-.67v-.68a1.17,1.17,0,0,0-.18-.67.79.79,0,0,0-.7-.27Z" fill="#fff"/><path d="M28.72,72a.62.62,0,0,1-.46-.18.64.64,0,0,1-.17-.45V63.64a.59.59,0,0,1,.63-.62.57.57,0,0,1,.44.17.61.61,0,0,1,.17.45v7.68a.64.64,0,0,1-.17.45A.57.57,0,0,1,28.72,72Zm0,3.56a.65.65,0,0,1-.46-.16.62.62,0,0,1-.17-.44V67.39a.62.62,0,0,1,.17-.46.65.65,0,0,1,.46-.17.6.6,0,0,1,.44.17.62.62,0,0,1,.17.46v7.52a.62.62,0,0,1-.17.44A.6.6,0,0,1,28.72,75.51Zm6.88,0a.6.6,0,0,1-.45-.17.58.58,0,0,1-.18-.43V70.75a3.24,3.24,0,0,0-.37-1.64,2.45,2.45,0,0,0-1-1,3.43,3.43,0,0,0-2.87,0,2.42,2.42,0,0,0-1,.83,2,2,0,0,0-.37,1.2h-.88a3.46,3.46,0,0,1,.54-1.8,3.72,3.72,0,0,1,1.36-1.25,4,4,0,0,1,1.89-.45,4.22,4.22,0,0,1,2,.47,3.43,3.43,0,0,1,1.42,1.38,4.51,4.51,0,0,1,.52,2.23v4.16a.58.58,0,0,1-.18.43A.57.57,0,0,1,35.6,75.51Z" fill="#fff"/><path d="M42.78,75.59A4.22,4.22,0,0,1,40.57,75,4.27,4.27,0,0,1,39,73.42a4.53,4.53,0,0,1-.57-2.27,4.46,4.46,0,0,1,.59-2.29,4.33,4.33,0,0,1,1.59-1.59,4.44,4.44,0,0,1,2.27-.59,4.38,4.38,0,0,1,2.26.59,4.33,4.33,0,0,1,1.59,1.59,4.57,4.57,0,0,1,.6,2.29l-.5.38a4.09,4.09,0,0,1-.53,2.07,4,4,0,0,1-3.55,2Zm.13-1.12A3.19,3.19,0,0,0,44.57,74a3.06,3.06,0,0,0,1.15-1.19,3.46,3.46,0,0,0,.42-1.7,3.51,3.51,0,0,0-.42-1.72,3.28,3.28,0,0,0-1.15-1.19,3.33,3.33,0,0,0-3.31,0,3.34,3.34,0,0,0-1.17,1.19,3.51,3.51,0,0,0-.43,1.72,3.46,3.46,0,0,0,.43,1.7A3.11,3.11,0,0,0,41.26,74,3.17,3.17,0,0,0,42.91,74.47Zm0,4.39a.83.83,0,0,1-.6-.26A.85.85,0,0,1,42,78a.8.8,0,0,1,.26-.63.91.91,0,0,1,.62-.24.88.88,0,0,1,.6.24.77.77,0,0,1,.26.63.84.84,0,0,1-.25.62A.86.86,0,0,1,42.89,78.86Zm3.84-3.35a.6.6,0,0,1-.44-.16.59.59,0,0,1-.18-.44V72.17l.3-1.26,1,.24v3.76a.59.59,0,0,1-.18.44A.61.61,0,0,1,46.73,75.51Z" fill="#fff"/><path d="M49.2,68.15a.57.57,0,0,1-.4-.15.47.47,0,0,1-.16-.37.54.54,0,0,1,.16-.4.57.57,0,0,1,.4-.15h4.08a.57.57,0,0,1,.4.15.58.58,0,0,1,.16.4.51.51,0,0,1-.16.37.57.57,0,0,1-.4.15Zm4,7.36a2.84,2.84,0,0,1-1.51-.4A2.89,2.89,0,0,1,50.62,74a3.34,3.34,0,0,1-.38-1.59V64.6a.62.62,0,0,1,1-.45.61.61,0,0,1,.18.45v7.83A1.87,1.87,0,0,0,52,73.76a1.59,1.59,0,0,0,1.23.52h.43a.54.54,0,0,1,.42.18.64.64,0,0,1,.16.45.56.56,0,0,1-.19.44.71.71,0,0,1-.48.16Z" fill="#fff"/><path d="M63.87,75.51a.61.61,0,0,1-.58-.41l-3.55-7.54a.49.49,0,0,1,0-.41.56.56,0,0,1,.32-.32.51.51,0,0,1,.43,0,.64.64,0,0,1,.32.29l3.41,7.38h-.66l3.36-7.38a.46.46,0,0,1,.33-.29.64.64,0,0,1,.45,0,.59.59,0,0,1,.31.33.49.49,0,0,1,0,.41l-3.5,7.55A.63.63,0,0,1,63.87,75.51Z" fill="#fff"/><path d="M70.59,65.1a.87.87,0,0,1-.86-.88.77.77,0,0,1,.26-.63.89.89,0,0,1,.62-.24.88.88,0,0,1,.6.24.8.8,0,0,1,.26.63.82.82,0,0,1-.26.62A.84.84,0,0,1,70.59,65.1Zm0,10.41a.61.61,0,0,1-.46-.16.65.65,0,0,1-.17-.46v-7.5a.62.62,0,1,1,1.23,0v7.5a.65.65,0,0,1-.16.46A.61.61,0,0,1,70.61,75.51Z" fill="#fff"/><path d="M79.66,75.51a.61.61,0,0,1-.45-.16.58.58,0,0,1-.17-.44V67.39a.58.58,0,0,1,.17-.46.61.61,0,0,1,.45-.17.6.6,0,0,1,.44.17.62.62,0,0,1,.17.46v7.52a.62.62,0,0,1-.17.44A.6.6,0,0,1,79.66,75.51Zm6.88,0a.6.6,0,0,1-.45-.17.61.61,0,0,1-.17-.43V70.75a3.24,3.24,0,0,0-.38-1.64,2.48,2.48,0,0,0-1-1,3.31,3.31,0,0,0-1.47-.32,3.24,3.24,0,0,0-1.41.31,2.49,2.49,0,0,0-1,.83,2,2,0,0,0-.37,1.2h-.88a3.46,3.46,0,0,1,.54-1.8,3.8,3.8,0,0,1,1.36-1.25,4,4,0,0,1,1.89-.45,4.19,4.19,0,0,1,2,.47,3.43,3.43,0,0,1,1.42,1.38,4.41,4.41,0,0,1,.52,2.23v4.16a.58.58,0,0,1-.18.43A.56.56,0,0,1,86.54,75.51Z" fill="#fff"/><path d="M90.49,72a.58.58,0,0,1-.45-.18.64.64,0,0,1-.17-.45V63.64a.61.61,0,0,1,.17-.45.57.57,0,0,1,.45-.17.55.55,0,0,1,.44.17.57.57,0,0,1,.17.45v7.68a.6.6,0,0,1-.17.45A.56.56,0,0,1,90.49,72Zm0,3.56a.61.61,0,0,1-.45-.16.62.62,0,0,1-.17-.44V67.39a.62.62,0,0,1,.17-.46.61.61,0,0,1,.45-.17.58.58,0,0,1,.61.63v7.52a.57.57,0,0,1-.61.6Zm6.88,0a.57.57,0,0,1-.44-.17.58.58,0,0,1-.18-.43V70.75a3.24,3.24,0,0,0-.38-1.64,2.48,2.48,0,0,0-1-1,3.3,3.3,0,0,0-1.46-.32,3.25,3.25,0,0,0-1.42.31,2.55,2.55,0,0,0-1,.83,2,2,0,0,0-.37,1.2h-.88a3.38,3.38,0,0,1,.55-1.8,3.64,3.64,0,0,1,1.36-1.25A3.93,3.93,0,0,1,94,66.67a4.26,4.26,0,0,1,2,.47,3.41,3.41,0,0,1,1.41,1.38A4.41,4.41,0,0,1,98,70.75v4.16a.61.61,0,0,1-.17.43A.6.6,0,0,1,97.37,75.51Z" fill="#fff"/><path d="M104.51,75.61a4.34,4.34,0,0,1-2-.47,3.56,3.56,0,0,1-1.42-1.38,4.51,4.51,0,0,1-.52-2.23V67.37a.61.61,0,0,1,.61-.61.61.61,0,0,1,.45.18.57.57,0,0,1,.17.43v4.16a3.17,3.17,0,0,0,.38,1.63,2.36,2.36,0,0,0,1,1,3.5,3.5,0,0,0,2.88,0,2.42,2.42,0,0,0,1-.83,2.05,2.05,0,0,0,.37-1.2h.88a3.56,3.56,0,0,1-.55,1.8,3.66,3.66,0,0,1-1.35,1.24A3.89,3.89,0,0,1,104.51,75.61Zm.16,3.25a.87.87,0,0,1-.86-.88.77.77,0,0,1,.26-.63.89.89,0,0,1,.62-.24.88.88,0,0,1,.6.24.8.8,0,0,1,.26.63.85.85,0,0,1-.26.62A.84.84,0,0,1,104.67,78.86ZM108,75.51a.6.6,0,0,1-.44-.16.65.65,0,0,1-.17-.46V67.37a.58.58,0,0,1,.61-.61.64.64,0,0,1,.45.17.6.6,0,0,1,.17.44v7.52a.65.65,0,0,1-.17.46A.64.64,0,0,1,108,75.51Zm0-7.61V66.76h.71a.63.63,0,0,0,.49-.24,1,1,0,0,0,.2-.64v-.33a.67.67,0,0,1,.15-.44.53.53,0,0,1,.41-.17.49.49,0,0,1,.43.21.86.86,0,0,1,.14.49v.24a2.15,2.15,0,0,1-.24,1,1.75,1.75,0,0,1-.65.72,1.64,1.64,0,0,1-.93.27Z" fill="#fff"/><path d="M115.39,75.59a4.22,4.22,0,0,1-2.21-.58,4.27,4.27,0,0,1-1.54-1.59,4.53,4.53,0,0,1-.57-2.27,4.46,4.46,0,0,1,.58-2.29,4.28,4.28,0,0,1,1.6-1.59,4.44,4.44,0,0,1,2.27-.59,4.38,4.38,0,0,1,2.26.59,4.33,4.33,0,0,1,1.59,1.59,4.57,4.57,0,0,1,.6,2.29l-.5.38a4,4,0,0,1-.54,2.07,3.91,3.91,0,0,1-1.45,1.46A4.06,4.06,0,0,1,115.39,75.59Zm.13-1.12a3.12,3.12,0,0,0,1.65-.43,3.09,3.09,0,0,0,1.16-1.19,3.46,3.46,0,0,0,.42-1.7,3.51,3.51,0,0,0-.42-1.72,3.31,3.31,0,0,0-1.16-1.19,3.13,3.13,0,0,0-1.65-.44,3.18,3.18,0,0,0-1.65.44,3.34,3.34,0,0,0-1.17,1.19,3.41,3.41,0,0,0-.43,1.72,3.36,3.36,0,0,0,.43,1.7A3.11,3.11,0,0,0,113.87,74,3.17,3.17,0,0,0,115.52,74.47Zm3.82,1a.64.64,0,0,1-.45-.16.62.62,0,0,1-.17-.44V72.17l.3-1.26,1,.24v3.76a.59.59,0,0,1-.18.44A.64.64,0,0,1,119.34,75.51Z" fill="#fff"/><path d="M130.05,75.51a.61.61,0,0,1-.58-.41l-3.55-7.54a.49.49,0,0,1,0-.41.59.59,0,0,1,.32-.32.51.51,0,0,1,.43,0,.6.6,0,0,1,.32.29l3.41,7.38h-.65l3.36-7.38a.46.46,0,0,1,.32-.29.66.66,0,0,1,.46,0,.54.54,0,0,1,.3.33.49.49,0,0,1,0,.41l-3.51,7.55A.62.62,0,0,1,130.05,75.51Z" fill="#fff"/><path d="M139.44,75.59a4.18,4.18,0,0,1-3.75-2.17,4.53,4.53,0,0,1-.57-2.27,4.46,4.46,0,0,1,.58-2.29,4.33,4.33,0,0,1,1.59-1.59,4.48,4.48,0,0,1,2.28-.59,4.4,4.4,0,0,1,2.26.59,4.3,4.3,0,0,1,1.58,1.59,4.57,4.57,0,0,1,.6,2.29l-.49.38a4,4,0,0,1-2,3.53A4.06,4.06,0,0,1,139.44,75.59Zm.13-1.12a3.15,3.15,0,0,0,1.65-.43,3,3,0,0,0,1.15-1.19,3.36,3.36,0,0,0,.43-1.7,3.41,3.41,0,0,0-.43-1.72,3.2,3.2,0,0,0-1.15-1.19,3.31,3.31,0,0,0-3.3,0,3.34,3.34,0,0,0-1.17,1.19,3.41,3.41,0,0,0-.43,1.72,3.36,3.36,0,0,0,.43,1.7A3.11,3.11,0,0,0,137.92,74,3.17,3.17,0,0,0,139.57,74.47Zm0-9.13a.58.58,0,0,1-.42-.18l-1.8-1.79a.64.64,0,0,1-.16-.43.63.63,0,0,1,.17-.46.58.58,0,0,1,.43-.18.6.6,0,0,1,.45.19L140,64.3a.47.47,0,0,1,.16.4.6.6,0,0,1-.17.45A.58.58,0,0,1,139.55,65.34Zm3.84,10.17a.64.64,0,0,1-.45-.16.58.58,0,0,1-.17-.44V72.17l.3-1.26.94.24v3.76a.58.58,0,0,1-.17.44A.64.64,0,0,1,143.39,75.51Z" fill="#fff"/><path d="M150.4,75.59a4.55,4.55,0,0,1-2.29-.57,4.16,4.16,0,0,1-1.58-1.59,4.44,4.44,0,0,1-.58-2.28,4.5,4.5,0,0,1,.58-2.31,4.13,4.13,0,0,1,1.58-1.58,4.79,4.79,0,0,1,4.57,0,4.18,4.18,0,0,1,1.57,1.58,4.62,4.62,0,0,1,.6,2.31,4.45,4.45,0,0,1-.59,2.28A4.3,4.3,0,0,1,152.68,75,4.54,4.54,0,0,1,150.4,75.59Zm0-1.12a3.19,3.19,0,0,0,1.66-.43,3,3,0,0,0,1.15-1.18,3.44,3.44,0,0,0,.42-1.71,3.48,3.48,0,0,0-.42-1.72,3,3,0,0,0-1.15-1.2,3.28,3.28,0,0,0-1.66-.43,3.32,3.32,0,0,0-1.67.43,3.18,3.18,0,0,0-1.16,1.2,3.48,3.48,0,0,0-.42,1.72,3.44,3.44,0,0,0,.42,1.71A3.13,3.13,0,0,0,148.73,74,3.22,3.22,0,0,0,150.4,74.47Z" fill="#fff"/><path d="M166.37,75.59a4.43,4.43,0,0,1-2.25-.57,4.3,4.3,0,0,1-1.59-1.58,4.55,4.55,0,0,1-.6-2.25V63.64a.61.61,0,0,1,.17-.45.6.6,0,0,1,.46-.17.57.57,0,0,1,.44.17.61.61,0,0,1,.17.45v4.71a3.75,3.75,0,0,1,1.4-1.21,4.06,4.06,0,0,1,1.94-.46,4.22,4.22,0,0,1,2.21.59,4.27,4.27,0,0,1,1.54,1.59,4.53,4.53,0,0,1,.57,2.27,4.48,4.48,0,0,1-.58,2.29,4.28,4.28,0,0,1-1.6,1.59A4.44,4.44,0,0,1,166.37,75.59Zm0-1.12A3.1,3.1,0,0,0,168,74a3.16,3.16,0,0,0,1.16-1.19,3.67,3.67,0,0,0,0-3.41,3.11,3.11,0,0,0-1.16-1.2,3.4,3.4,0,0,0-3.31,0,3,3,0,0,0-1.15,1.2,3.67,3.67,0,0,0,0,3.41A3.06,3.06,0,0,0,164.72,74,3.09,3.09,0,0,0,166.37,74.47Z" fill="#fff"/><path d="M177.05,75.61a4.37,4.37,0,0,1-2-.47,3.53,3.53,0,0,1-1.41-1.38,4.41,4.41,0,0,1-.52-2.23V67.37a.57.57,0,0,1,.17-.43.58.58,0,0,1,.43-.18.6.6,0,0,1,.45.18.58.58,0,0,1,.18.43v4.16a3.17,3.17,0,0,0,.37,1.63,2.44,2.44,0,0,0,1,1,3.16,3.16,0,0,0,1.46.32,3.28,3.28,0,0,0,1.42-.3,2.55,2.55,0,0,0,1-.83,2.13,2.13,0,0,0,.37-1.2h.88a3.67,3.67,0,0,1-.56,1.8,3.51,3.51,0,0,1-1.35,1.24A3.83,3.83,0,0,1,177.05,75.61Zm1.86-10.13a2.13,2.13,0,0,1-.9-.18c-.25-.12-.47-.24-.65-.35a4.09,4.09,0,0,0-.55-.28,1,1,0,0,0-.41-.08,1.17,1.17,0,0,0-.55.13,1.54,1.54,0,0,0-.51.43.67.67,0,0,1-.37.27.59.59,0,0,1-.43,0,.46.46,0,0,1-.25-.34.59.59,0,0,1,.11-.44,2.84,2.84,0,0,1,.93-.8,2.4,2.4,0,0,1,1.1-.28,1.93,1.93,0,0,1,.87.18,6.67,6.67,0,0,1,.62.34,5.85,5.85,0,0,0,.52.28.93.93,0,0,0,.45.1,1.25,1.25,0,0,0,.45-.08.88.88,0,0,0,.34-.24,1.12,1.12,0,0,1,.36-.25.41.41,0,0,1,.39.06.46.46,0,0,1,.27.35.53.53,0,0,1-.11.45A2.08,2.08,0,0,1,178.91,65.48Zm1.66,10a.61.61,0,0,1-.44-.16.65.65,0,0,1-.16-.46V67.37a.6.6,0,0,1,.16-.44.62.62,0,0,1,.44-.17.61.61,0,0,1,.45.17.57.57,0,0,1,.18.44v7.52a.62.62,0,0,1-.18.46A.61.61,0,0,1,180.57,75.51Zm0-7.61V66.76h.7a.62.62,0,0,0,.49-.24,1,1,0,0,0,.2-.64v-.33a.67.67,0,0,1,.15-.44.53.53,0,0,1,.41-.17.48.48,0,0,1,.43.21.79.79,0,0,1,.15.49v.24a2.15,2.15,0,0,1-.24,1,1.82,1.82,0,0,1-.65.72,1.67,1.67,0,0,1-.94.27Z" fill="#fff"/><path d="M187.93,75.59a4.18,4.18,0,0,1-2.2-.58,4.3,4.3,0,0,1-1.55-1.59,4.53,4.53,0,0,1-.57-2.27,4.46,4.46,0,0,1,.59-2.29,4.33,4.33,0,0,1,1.59-1.59,4.66,4.66,0,0,1,4.54,0,4.38,4.38,0,0,1,1.58,1.59,4.57,4.57,0,0,1,.6,2.29l-.5.38a4,4,0,0,1-.53,2.07A3.93,3.93,0,0,1,190,75.06,4,4,0,0,1,187.93,75.59Zm.13-1.12a3.19,3.19,0,0,0,1.66-.43,3.06,3.06,0,0,0,1.15-1.19,3.46,3.46,0,0,0,.42-1.7,3.51,3.51,0,0,0-.42-1.72,3.28,3.28,0,0,0-1.15-1.19,3.33,3.33,0,0,0-3.31,0,3.23,3.23,0,0,0-1.16,1.19,3.41,3.41,0,0,0-.44,1.72,3.36,3.36,0,0,0,.44,1.7A3,3,0,0,0,186.41,74,3.2,3.2,0,0,0,188.06,74.47Zm3.83,1a.62.62,0,0,1-.45-.16.59.59,0,0,1-.18-.44V72.17l.31-1.26.94.24v3.76a.59.59,0,0,1-.18.44A.6.6,0,0,1,191.89,75.51Z" fill="#fff"/><path d="M203.45,75.59a4.18,4.18,0,0,1-2.2-.58,4.3,4.3,0,0,1-1.55-1.59,4.53,4.53,0,0,1-.57-2.27,4.46,4.46,0,0,1,.59-2.29,4.33,4.33,0,0,1,1.59-1.59,4.66,4.66,0,0,1,4.54,0,4.38,4.38,0,0,1,1.58,1.59,4.57,4.57,0,0,1,.6,2.29l-.5.38A4,4,0,0,1,207,73.6a3.93,3.93,0,0,1-1.46,1.46A4,4,0,0,1,203.45,75.59Zm.13-1.12a3.19,3.19,0,0,0,1.66-.43,3.06,3.06,0,0,0,1.15-1.19,3.46,3.46,0,0,0,.42-1.7,3.51,3.51,0,0,0-.42-1.72,3.28,3.28,0,0,0-1.15-1.19,3.33,3.33,0,0,0-3.31,0,3.23,3.23,0,0,0-1.16,1.19,3.41,3.41,0,0,0-.44,1.72,3.36,3.36,0,0,0,.44,1.7A3,3,0,0,0,201.93,74,3.2,3.2,0,0,0,203.58,74.47Zm0-9a3,3,0,0,1-1.24-.25,2.45,2.45,0,0,1-.92-.66,1.46,1.46,0,0,1-.34-1,.64.64,0,0,1,.18-.45.57.57,0,0,1,.43-.19.6.6,0,0,1,.41.16.54.54,0,0,1,.18.42.74.74,0,0,0,.37.62,1.57,1.57,0,0,0,.93.26,1.63,1.63,0,0,0,1-.26.76.76,0,0,0,.35-.62.57.57,0,0,1,.17-.42.68.68,0,0,1,.44-.16.52.52,0,0,1,.42.19.64.64,0,0,1,.17.44,1.53,1.53,0,0,1-.37,1,2.38,2.38,0,0,1-.91.66A3.28,3.28,0,0,1,203.57,65.42Zm3.84,10.09a.62.62,0,0,1-.45-.16.59.59,0,0,1-.18-.44V72.17l.31-1.26.94.24v3.76a.59.59,0,0,1-.18.44A.6.6,0,0,1,207.41,75.51Z" fill="#fff"/><path d="M211.05,75.51a.61.61,0,0,1-.45-.16.62.62,0,0,1-.17-.44V67.39a.62.62,0,0,1,.17-.46.61.61,0,0,1,.45-.17.58.58,0,0,1,.61.63v7.52a.57.57,0,0,1-.61.6Zm6.88,0a.57.57,0,0,1-.44-.17.58.58,0,0,1-.18-.43V70.75a3.24,3.24,0,0,0-.38-1.64,2.48,2.48,0,0,0-1-1,3.3,3.3,0,0,0-1.46-.32,3.25,3.25,0,0,0-1.42.31,2.55,2.55,0,0,0-1,.83,2,2,0,0,0-.37,1.2h-.88a3.38,3.38,0,0,1,.55-1.8,3.64,3.64,0,0,1,1.36-1.25,3.93,3.93,0,0,1,1.88-.45,4.26,4.26,0,0,1,2,.47A3.41,3.41,0,0,1,218,68.52a4.41,4.41,0,0,1,.52,2.23v4.16a.61.61,0,0,1-.17.43A.6.6,0,0,1,217.93,75.51Z" fill="#fff"/></g></g></svg>