<svg xmlns="http://www.w3.org/2000/svg" viewBox="0 0 203.76 191.54"><title>m_04</title><g id="Layer_2" data-name="Layer 2"><g id="bubble_talk" data-name="bubble talk"><path d="M36.34,188l-.62,0c-3.51-.21-5.53-2.18-5.53-5.39a6.25,6.25,0,0,1,12.48.46C42.67,186,40.07,188,36.34,188Z" fill="#eba21e"/><path d="M36.61,177.73a5.24,5.24,0,0,1,5.06,5.35c0,2.54-2.39,3.95-5.33,3.95l-.56,0c-3-.18-4.59-1.69-4.59-4.39a5.17,5.17,0,0,1,5.42-4.89m0-2a7.18,7.18,0,0,0-7.42,6.89c0,3.76,2.42,6.14,6.47,6.39l.68,0c4.32,0,7.33-2.45,7.33-5.95a7.22,7.22,0,0,0-7.06-7.35Z"/><path d="M38.65,190.54l-.63,0c-3.51-.21-5.53-2.18-5.53-5.39a6.25,6.25,0,0,1,12.48.46C45,188.5,42.37,190.54,38.65,190.54Z" fill="#8782e3"/><path d="M38.91,180.24A5.24,5.24,0,0,1,44,185.59c0,2.54-2.39,3.95-5.32,3.95l-.57,0c-3-.18-4.59-1.69-4.59-4.39a5.18,5.18,0,0,1,5.42-4.89m0-2a7.18,7.18,0,0,0-7.42,6.89c0,3.75,2.42,6.14,6.47,6.38q.34,0,.69,0c4.31,0,7.32-2.45,7.32-5.95a7.22,7.22,0,0,0-7.06-7.35Z"/><path d="M96.41,157.39c-3.4,0-6.87-.09-10.32-.28C30.42,154.09,1,128.52,1,83.17S46,1,101.25,1c25.91,0,49.92,9.9,67.59,27.89C185.4,45.74,194.9,68.31,194.9,90.8,194.9,130.63,155.32,157.39,96.41,157.39Z" fill="#fdc10f"/><path d="M101.25,2c54.81,0,92.65,44,92.65,88.8,0,42.17-43.76,65.59-97.49,65.59-3.38,0-6.81-.09-10.27-.28C31.4,153.14,2,128,2,83.17S46.43,2,101.25,2m0-2C74.28,0,48.9,8.6,29.8,24.23S0,60.88,0,83.17C0,106,7.48,124.11,22.24,136.85,36.82,149.45,58.29,156.6,86,158.11c3.47.19,7,.28,10.38.28,27.42,0,52.27-6.14,70-17.29,19.32-12.17,29.53-29.57,29.53-50.3,0-22.76-9.6-45.58-26.35-62.61C151.69,10,127.43,0,101.25,0Z"/><path d="M202.76,98c0,44.83-49.46,68.47-107.76,65.31-54.74-3-84.14-28.11-84.14-72.94S55.29,9.2,110.1,9.2,202.76,53.17,202.76,98Z" fill="#0aa587" stroke="#000" stroke-miterlimit="10" stroke-width="2"/><path d="M59.91,177.73c-.59,0-1.18,0-1.79,0C48.35,177.14,43,172.3,43,164.05S50.94,149,60.73,149a16.55,16.55,0,0,1,16.65,16.38C77.38,172.77,70.36,177.73,59.91,177.73Z" fill="#48b6f6"/><path d="M60.73,150a15.59,15.59,0,0,1,15.65,15.38c0,7.31-7.39,11.36-16.47,11.36-.57,0-1.15,0-1.73,0C48.93,176.17,44,171.82,44,164.05S51.47,150,60.73,150m0-2C50.38,148,42,155.19,42,164.05c0,5.13,2.09,13.85,16.1,14.63.61,0,1.23,0,1.84,0,11,0,18.47-5.37,18.47-13.36A17.55,17.55,0,0,0,60.73,148Z"/><path d="M62.11,179.68c-.41,0-.83,0-1.25,0C52.42,179.18,47.18,174,47.18,166c0-7.5,7.18-13.61,16-13.61a14.94,14.94,0,0,1,15,14.79C78.23,174.2,71.15,179.68,62.11,179.68Z" fill="#ec5c89"/><path d="M63.2,153.42a14,14,0,0,1,14,13.79c0,6.65-6.82,11.47-15.11,11.47l-1.21,0C52.63,178.19,48.18,173,48.18,166s6.72-12.61,15-12.61m0-2c-9.39,0-17,6.55-17,14.61,0,8.38,5.74,14.12,14.62,14.61.44,0,.88,0,1.32,0,9.59,0,17.11-5.92,17.11-13.47a15.94,15.94,0,0,0-16-15.79Z"/><path d="M36.18,57.75h1.54a.77.77,0,0,1,.55.17.79.79,0,0,1,.17.55v.81a.79.79,0,0,1-.17.55.77.77,0,0,1-.55.17H36.34a.49.49,0,0,0-.4.15.57.57,0,0,0-.14.4v.31H38a.73.73,0,0,1,.55.17.75.75,0,0,1,.17.55v3a.74.74,0,0,1-.17.54.73.73,0,0,1-.55.17h-4a.73.73,0,0,1-.55-.17.7.7,0,0,1-.17-.54V60.78A3,3,0,0,1,34,58.5,3,3,0,0,1,36.18,57.75Zm6.4,0h1.54a.77.77,0,0,1,.55.17.79.79,0,0,1,.17.55v.81a.79.79,0,0,1-.17.55.77.77,0,0,1-.55.17H42.74a.47.47,0,0,0-.4.15.57.57,0,0,0-.14.4v.31h2.18a.74.74,0,0,1,.55.17.75.75,0,0,1,.17.55v3a.61.61,0,0,1-.72.71h-4a.71.71,0,0,1-.55-.17.7.7,0,0,1-.17-.54V60.78a3,3,0,0,1,.81-2.28A3,3,0,0,1,42.58,57.75Z" fill="#fff"/><path d="M54.18,72.16H50.94a.77.77,0,0,1-.55-.17.75.75,0,0,1-.17-.56V61.62H47.28a.75.75,0,0,1-.55-.17.74.74,0,0,1-.17-.55V58.47a.74.74,0,0,1,.17-.55.75.75,0,0,1,.55-.17H57.84a.62.62,0,0,1,.72.72V60.9a.62.62,0,0,1-.72.72H54.9v9.81a.8.8,0,0,1-.17.56A.79.79,0,0,1,54.18,72.16Z" fill="#fff"/><path d="M64.32,72.16h-3.1a.62.62,0,0,1-.72-.73v-13a.74.74,0,0,1,.17-.55.75.75,0,0,1,.55-.17h3.1a.62.62,0,0,1,.72.72v4.35h3.34V58.47a.79.79,0,0,1,.17-.55.75.75,0,0,1,.55-.17h3.1a.62.62,0,0,1,.72.72v13a.8.8,0,0,1-.17.56.79.79,0,0,1-.55.17H69.1a.75.75,0,0,1-.55-.17.8.8,0,0,1-.17-.56V67H65v4.43a.8.8,0,0,1-.17.56A.79.79,0,0,1,64.32,72.16Z" fill="#fff"/><path d="M79.76,71.43a.8.8,0,0,1-.17.56.79.79,0,0,1-.55.17H76.1a.62.62,0,0,1-.72-.73V66.16a5.62,5.62,0,0,1,.19-1.38A13,13,0,0,1,76.16,63l1.74-4.54a.89.89,0,0,1,.37-.5,1.14,1.14,0,0,1,.65-.17H84.3a1.14,1.14,0,0,1,.63.17.93.93,0,0,1,.37.5L87,63a16.34,16.34,0,0,1,.59,1.82,6.14,6.14,0,0,1,.19,1.38v5.27a.8.8,0,0,1-.17.56.79.79,0,0,1-.55.17h-3a.87.87,0,0,1-.59-.17.72.72,0,0,1-.19-.56v-2.8H79.76Zm3.32-14.61-2.82.38a.46.46,0,0,1-.29-.05.38.38,0,0,1-.11-.27l-.22-1.59A.33.33,0,0,1,79.7,55a.35.35,0,0,1,.28-.12l1.78-.29a.52.52,0,0,0,.29-.09c.06,0,.09-.12.09-.25A.25.25,0,0,0,82,54a.6.6,0,0,0-.27-.07H79.18a.35.35,0,0,1-.29-.09.37.37,0,0,1-.09-.29V52.13a.42.42,0,0,1,.09-.29.43.43,0,0,1,.29-.09h3.36a2.26,2.26,0,0,1,1.59.53,1.93,1.93,0,0,1,.57,1.51v1.29a1.58,1.58,0,0,1-.44,1.25A2.23,2.23,0,0,1,83.08,56.82ZM80.9,62,80,65H83.1l-.94-3A.72.72,0,0,0,82,61.7a.28.28,0,0,0-.21-.08h-.5a.28.28,0,0,0-.21.08A.61.61,0,0,0,80.9,62Z" fill="#fff"/><path d="M101.28,72.16H98a.62.62,0,0,1-.72-.73V61.62H94.38a.75.75,0,0,1-.55-.17.74.74,0,0,1-.17-.55V58.47a.74.74,0,0,1,.17-.55.75.75,0,0,1,.55-.17h10.56a.62.62,0,0,1,.72.72V60.9a.62.62,0,0,1-.72.72H102v9.81a.8.8,0,0,1-.17.56A.79.79,0,0,1,101.28,72.16Z" fill="#fff"/><path d="M114.9,72.16h-3.24a.62.62,0,0,1-.72-.73V68.88l-3.06-4.1a4.1,4.1,0,0,1-.61-1.08,4.78,4.78,0,0,1-.15-1.38V58.47a.74.74,0,0,1,.17-.55.75.75,0,0,1,.55-.17h3.08a.62.62,0,0,1,.72.72v3.28a3,3,0,0,0,0,.42.75.75,0,0,0,.16.42l.92,1.45a.6.6,0,0,0,.21.25.4.4,0,0,0,.27.09h.2a.44.44,0,0,0,.27-.09.79.79,0,0,0,.21-.25l.92-1.45a.94.94,0,0,0,.16-.42c0-.14,0-.28,0-.42V58.47a.74.74,0,0,1,.17-.55.75.75,0,0,1,.55-.17h3a.62.62,0,0,1,.72.72v3.85a4.72,4.72,0,0,1-.16,1.38,5.08,5.08,0,0,1-.6,1.08l-3,4.12v2.53a.8.8,0,0,1-.17.56A.79.79,0,0,1,114.9,72.16Z" fill="#fff"/><path d="M125.4,72.16h-3a.62.62,0,0,1-.72-.73v-13a.74.74,0,0,1,.17-.55.75.75,0,0,1,.55-.17h3.22a.9.9,0,0,1,.53.15,1.23,1.23,0,0,1,.39.46l1.8,3.26a1.3,1.3,0,0,0,.17.26.24.24,0,0,0,.19.08h.18a.26.26,0,0,0,.19-.08c0-.06.1-.14.17-.26L131,58.36a1.23,1.23,0,0,1,.39-.46.88.88,0,0,1,.53-.15h3.24a.62.62,0,0,1,.72.72v13a.8.8,0,0,1-.17.56.79.79,0,0,1-.55.17h-3.08a.62.62,0,0,1-.72-.73v-7l-1.18,2.18a1.39,1.39,0,0,1-.43.49,1.22,1.22,0,0,1-.63.14h-.8a1.18,1.18,0,0,1-.63-.14,1.3,1.3,0,0,1-.43-.49l-1.18-2.18v7A.8.8,0,0,1,126,72,.79.79,0,0,1,125.4,72.16Z" fill="#fff"/><path d="M140.72,65.25h-1.54a.71.71,0,0,1-.55-.17.7.7,0,0,1-.17-.54v-.8a.62.62,0,0,1,.72-.73h1.38a.57.57,0,0,0,.4-.14.62.62,0,0,0,.14-.41v-.3h-2.18a.62.62,0,0,1-.72-.73v-3a.74.74,0,0,1,.17-.55.75.75,0,0,1,.55-.17h4a.62.62,0,0,1,.72.72v3.77a2.93,2.93,0,0,1-.81,2.26A3,3,0,0,1,140.72,65.25Zm6.4,0h-1.54a.71.71,0,0,1-.55-.17.7.7,0,0,1-.17-.54v-.8a.62.62,0,0,1,.72-.73H147a.57.57,0,0,0,.4-.14.62.62,0,0,0,.14-.41v-.3h-2.18a.62.62,0,0,1-.72-.73v-3a.74.74,0,0,1,.17-.55.75.75,0,0,1,.55-.17h4a.62.62,0,0,1,.72.72v3.77a2.93,2.93,0,0,1-.81,2.26A3,3,0,0,1,147.12,65.25Z" fill="#fff"/><path d="M37.39,95.42a4.21,4.21,0,0,1-3.8-2.17A4.57,4.57,0,0,1,33,91a4.63,4.63,0,0,1,.55-2.28,4,4,0,0,1,3.66-2.18,4.3,4.3,0,0,1,1.8.38,4.09,4.09,0,0,1,1.45,1.16.45.45,0,0,1,.13.4.68.68,0,0,1-.28.38.48.48,0,0,1-.39.09.67.67,0,0,1-.37-.23,3,3,0,0,0-2.34-1.06,2.81,2.81,0,0,0-2.63,1.62A3.79,3.79,0,0,0,34.22,91a3.61,3.61,0,0,0,.4,1.72,3,3,0,0,0,1.12,1.18,3.12,3.12,0,0,0,1.65.43,3.41,3.41,0,0,0,1.14-.17,2.39,2.39,0,0,0,.92-.52.74.74,0,0,1,.4-.17.53.53,0,0,1,.39.13.57.57,0,0,1,.21.4.41.41,0,0,1-.15.38A4.16,4.16,0,0,1,37.39,95.42Z" fill="#fff"/><path d="M43.65,91.77a.62.62,0,0,1-.46-.17.64.64,0,0,1-.17-.45V83.47a.65.65,0,0,1,.17-.46.61.61,0,0,1,.46-.16.57.57,0,0,1,.43.16.61.61,0,0,1,.17.46v7.68a.6.6,0,0,1-.17.45A.58.58,0,0,1,43.65,91.77Zm0,3.57a.58.58,0,0,1-.63-.61V87.21a.61.61,0,0,1,.17-.45.62.62,0,0,1,.46-.17.58.58,0,0,1,.43.17.57.57,0,0,1,.17.45v7.52a.55.55,0,0,1-.17.44A.54.54,0,0,1,43.65,95.34Zm6.87,0a.6.6,0,0,1-.62-.61V90.57a3.1,3.1,0,0,0-.38-1.63,2.42,2.42,0,0,0-1-1A3.3,3.3,0,0,0,47,87.66a3.12,3.12,0,0,0-1.42.31,2.55,2.55,0,0,0-1,.83,2.08,2.08,0,0,0-.37,1.2h-.88a3.47,3.47,0,0,1,.55-1.8A3.56,3.56,0,0,1,45.28,87a3.94,3.94,0,0,1,1.89-.46,4.25,4.25,0,0,1,2,.48,3.41,3.41,0,0,1,1.41,1.38,4.39,4.39,0,0,1,.52,2.22v4.16a.64.64,0,0,1-.17.44A.62.62,0,0,1,50.52,95.34Z" fill="#fff"/><path d="M57.84,95.42a4.55,4.55,0,0,1-2.29-.57A4.33,4.33,0,0,1,54,93.26a4.91,4.91,0,0,1,0-4.59,4.23,4.23,0,0,1,1.59-1.58,4.79,4.79,0,0,1,4.57,0,4.18,4.18,0,0,1,1.57,1.58,4.71,4.71,0,0,1,.6,2.3,4.46,4.46,0,0,1-.59,2.29,4.38,4.38,0,0,1-1.58,1.59A4.54,4.54,0,0,1,57.84,95.42Zm0-1.12a3.19,3.19,0,0,0,1.66-.43,3,3,0,0,0,1.15-1.18,3.73,3.73,0,0,0,0-3.44,3.06,3.06,0,0,0-1.15-1.19,3.19,3.19,0,0,0-1.66-.43A3.14,3.14,0,0,0,55,89.25a3.73,3.73,0,0,0,0,3.44,3.16,3.16,0,0,0,2.83,1.61Z" fill="#fff"/><path d="M73.28,95.42A4.31,4.31,0,0,1,71,94.84a4.23,4.23,0,0,1-1.55-1.59A4.57,4.57,0,0,1,68.91,91a4.74,4.74,0,0,1,.54-2.28,4.18,4.18,0,0,1,1.49-1.6,4.06,4.06,0,0,1,2.18-.58,4.3,4.3,0,0,1,1.8.38,4.09,4.09,0,0,1,1.45,1.16.44.44,0,0,1,.12.4.62.62,0,0,1-.27.38.5.5,0,0,1-.39.09.73.73,0,0,1-.38-.23,3,3,0,0,0-2.33-1.06,2.86,2.86,0,0,0-1.58.43,3,3,0,0,0-1.06,1.19A3.78,3.78,0,0,0,70.11,91a3.61,3.61,0,0,0,.4,1.72,3,3,0,0,0,1.12,1.18,3.12,3.12,0,0,0,1.65.43,3.49,3.49,0,0,0,1.14-.17,2.47,2.47,0,0,0,.92-.52.74.74,0,0,1,.4-.17.49.49,0,0,1,.38.13.58.58,0,0,1,.22.4.41.41,0,0,1-.15.38A4.16,4.16,0,0,1,73.28,95.42Z" fill="#fff"/><path d="M82.72,95.44a4.38,4.38,0,0,1-2-.47,3.55,3.55,0,0,1-1.41-1.39,4.39,4.39,0,0,1-.52-2.22V87.2a.6.6,0,0,1,.17-.43.6.6,0,0,1,.44-.18.57.57,0,0,1,.44.18.57.57,0,0,1,.18.43v4.16A3.2,3.2,0,0,0,80.36,93a2.36,2.36,0,0,0,1,1,3.3,3.3,0,0,0,1.46.32,3.25,3.25,0,0,0,1.42-.3,2.51,2.51,0,0,0,1-.84,2,2,0,0,0,.37-1.2h.88a3.6,3.6,0,0,1-.55,1.8A3.56,3.56,0,0,1,84.6,95,3.82,3.82,0,0,1,82.72,95.44Zm3.52-.1a.57.57,0,0,1-.44-.17.57.57,0,0,1-.17-.45V87.2a.57.57,0,0,1,.17-.44.65.65,0,0,1,.88,0,.57.57,0,0,1,.18.44v7.52a.58.58,0,0,1-.18.45A.57.57,0,0,1,86.24,95.34Z" fill="#fff"/><path d="M93.72,95.42a4.54,4.54,0,0,1-2.28-.57,4.26,4.26,0,0,1-1.59-1.59,4.91,4.91,0,0,1,0-4.59,4.16,4.16,0,0,1,1.59-1.58,4.44,4.44,0,0,1,2.28-.58,4.39,4.39,0,0,1,2.28.58,4.13,4.13,0,0,1,1.58,1.58,4.71,4.71,0,0,1,.59,2.3,4.46,4.46,0,0,1-.58,2.29A4.33,4.33,0,0,1,96,94.85,4.49,4.49,0,0,1,93.72,95.42Zm0-1.12a3.22,3.22,0,0,0,1.67-.43,3.1,3.1,0,0,0,1.15-1.18,3.73,3.73,0,0,0,0-3.44,3.13,3.13,0,0,0-1.15-1.19,3.44,3.44,0,0,0-3.33,0,3.16,3.16,0,0,0-1.16,1.19,3.73,3.73,0,0,0,0,3.44,3.13,3.13,0,0,0,1.16,1.18A3.21,3.21,0,0,0,93.72,94.3Zm-1.85-9.1a.73.73,0,0,1-.46-.15.52.52,0,0,1-.18-.41.64.64,0,0,1,.3-.55l1.89-1.24a.52.52,0,0,1,.3-.08.5.5,0,0,1,.18,0,.59.59,0,0,1,.14.06l1.88,1.24a.64.64,0,0,1,.3.55A.52.52,0,0,1,96,85a.64.64,0,0,1-.44.16.6.6,0,0,1-.2,0l-.19-.1-1.49-1-1.48,1A.6.6,0,0,1,91.87,85.2Zm1.84,13.49a.83.83,0,0,1-.61-.26.85.85,0,0,1-.26-.62.81.81,0,0,1,.27-.64.91.91,0,0,1,.61-.23.88.88,0,0,1,.6.23.81.81,0,0,1,.27.64.89.89,0,0,1-.88.88Z" fill="#fff"/><path d="M104.48,95.42a4.29,4.29,0,0,1-2.25-.58,4.23,4.23,0,0,1-1.55-1.59,4.57,4.57,0,0,1-.57-2.28,4.74,4.74,0,0,1,.54-2.28,4.18,4.18,0,0,1,1.49-1.6,4.06,4.06,0,0,1,2.18-.58,4.3,4.3,0,0,1,1.8.38,4,4,0,0,1,1.44,1.16.42.42,0,0,1,.13.4.62.62,0,0,1-.27.38.5.5,0,0,1-.39.09.69.69,0,0,1-.38-.23,3,3,0,0,0-2.33-1.06,2.86,2.86,0,0,0-1.58.43,3,3,0,0,0-1.06,1.19,3.78,3.78,0,0,0-.37,1.72,3.61,3.61,0,0,0,.4,1.72,3,3,0,0,0,1.12,1.18,3.12,3.12,0,0,0,1.65.43,3.49,3.49,0,0,0,1.14-.17,2.47,2.47,0,0,0,.92-.52.74.74,0,0,1,.4-.17.49.49,0,0,1,.38.13.62.62,0,0,1,.22.4.41.41,0,0,1-.15.38A4.16,4.16,0,0,1,104.48,95.42Z" fill="#fff"/><path d="M117.85,95.42A5.53,5.53,0,0,1,116,95.1a3.41,3.41,0,0,1-1.5-1,.51.51,0,0,1-.15-.43.65.65,0,0,1,.24-.42.63.63,0,0,1,.47-.12.67.67,0,0,1,.4.2,2.39,2.39,0,0,0,1,.69,3.92,3.92,0,0,0,1.4.24,2.76,2.76,0,0,0,1.71-.41,1.24,1.24,0,0,0,.55-1,1.11,1.11,0,0,0-.55-1,4.63,4.63,0,0,0-1.79-.59,5,5,0,0,1-2.37-.89,2,2,0,0,1-.75-1.52,2.15,2.15,0,0,1,.43-1.36,2.67,2.67,0,0,1,1.16-.82,4.48,4.48,0,0,1,1.58-.27,4.21,4.21,0,0,1,1.85.37,3.24,3.24,0,0,1,1.25,1,.55.55,0,0,1,.13.43.51.51,0,0,1-.25.37.66.66,0,0,1-.44.07.73.73,0,0,1-.43-.23,2.29,2.29,0,0,0-.93-.68,3.22,3.22,0,0,0-1.21-.22,2.45,2.45,0,0,0-1.41.36,1.07,1.07,0,0,0-.33,1.55,1.74,1.74,0,0,0,.69.48,6.38,6.38,0,0,0,1.37.35,6.06,6.06,0,0,1,1.89.57,2.44,2.44,0,0,1,1,.88,2.17,2.17,0,0,1,.29,1.09,2,2,0,0,1-.44,1.32,2.86,2.86,0,0,1-1.21.89A4.57,4.57,0,0,1,117.85,95.42Z" fill="#fff"/><path d="M127.4,95.42a4.54,4.54,0,0,1-2.28-.57,4.26,4.26,0,0,1-1.59-1.59,4.91,4.91,0,0,1,0-4.59,4.16,4.16,0,0,1,1.59-1.58,4.44,4.44,0,0,1,2.28-.58,4.39,4.39,0,0,1,2.28.58,4.13,4.13,0,0,1,1.58,1.58,4.71,4.71,0,0,1,.59,2.3,4.46,4.46,0,0,1-.58,2.29,4.33,4.33,0,0,1-1.59,1.59A4.49,4.49,0,0,1,127.4,95.42Zm0-1.12a3.22,3.22,0,0,0,1.67-.43,3.1,3.1,0,0,0,1.15-1.18,3.73,3.73,0,0,0,0-3.44,3.13,3.13,0,0,0-1.15-1.19,3.44,3.44,0,0,0-3.33,0,3.16,3.16,0,0,0-1.16,1.19,3.73,3.73,0,0,0,0,3.44,3.13,3.13,0,0,0,1.16,1.18A3.21,3.21,0,0,0,127.4,94.3Zm-1.85-9.1a.71.71,0,0,1-.46-.15.52.52,0,0,1-.18-.41.64.64,0,0,1,.3-.55l1.89-1.24a.52.52,0,0,1,.3-.08.5.5,0,0,1,.18,0,.59.59,0,0,1,.14.06l1.88,1.24a.64.64,0,0,1,.3.55.52.52,0,0,1-.18.4.64.64,0,0,1-.44.16.56.56,0,0,1-.2,0l-.19-.1-1.49-1-1.48,1A.6.6,0,0,1,125.55,85.2Zm3.28-2.64a.63.63,0,0,1-.63-.63.59.59,0,0,1,.15-.41l1.81-1.81a.57.57,0,0,1,.43-.18.55.55,0,0,1,.45.19.6.6,0,0,1,.17.45.62.62,0,0,1,0,.23.41.41,0,0,1-.13.19l-1.8,1.81A.57.57,0,0,1,128.83,82.56Z" fill="#fff"/><path d="M134.88,95.34a.58.58,0,0,1-.63-.61V87.21a.61.61,0,0,1,.17-.45.68.68,0,0,1,.9,0,.61.61,0,0,1,.16.45v7.52a.57.57,0,0,1-.6.61Zm6.88,0a.64.64,0,0,1-.45-.17.6.6,0,0,1-.18-.44V90.57a3.2,3.2,0,0,0-.37-1.63,2.44,2.44,0,0,0-1-1,3.3,3.3,0,0,0-1.46-.32,3.15,3.15,0,0,0-1.42.31,2.55,2.55,0,0,0-1,.83,2.08,2.08,0,0,0-.37,1.2h-.88a3.55,3.55,0,0,1,1.91-3,3.94,3.94,0,0,1,1.89-.46,4.25,4.25,0,0,1,2,.48,3.35,3.35,0,0,1,1.41,1.38,4.39,4.39,0,0,1,.52,2.22v4.16a.6.6,0,0,1-.17.44A.61.61,0,0,1,141.76,95.34Z" fill="#fff"/><path d="M148.94,95.42a4.36,4.36,0,0,1-2.24-.57,4.05,4.05,0,0,1-1.53-1.57,4.7,4.7,0,0,1-.55-2.31,4.57,4.57,0,0,1,.58-2.32,4.11,4.11,0,0,1,1.58-1.57,4.89,4.89,0,0,1,4.58,0,4.08,4.08,0,0,1,1.57,1.57,4.78,4.78,0,0,1,.59,2.32l-.72.39a4.35,4.35,0,0,1-.5,2.1,3.65,3.65,0,0,1-1.37,1.44A3.76,3.76,0,0,1,148.94,95.42Zm.16,3.38a5,5,0,0,1-2.22-.47A4.57,4.57,0,0,1,145.29,97a.5.5,0,0,1-.15-.42.52.52,0,0,1,.23-.37.64.64,0,0,1,.47-.09.62.62,0,0,1,.4.24,3.48,3.48,0,0,0,1.19.93,3.89,3.89,0,0,0,1.69.35,3.15,3.15,0,0,0,1.61-.43A3.22,3.22,0,0,0,151.88,96a3.84,3.84,0,0,0,.42-1.84V91.76l.46-.93.76.14v3.27a4.76,4.76,0,0,1-.58,2.33,4.39,4.39,0,0,1-1.57,1.63A4.3,4.3,0,0,1,149.1,98.8Zm0-4.5a3.29,3.29,0,0,0,1.67-.42,3,3,0,0,0,1.14-1.18,3.77,3.77,0,0,0,0-3.46,3,3,0,0,0-1.14-1.19,3.29,3.29,0,0,0-1.67-.42,3.33,3.33,0,0,0-1.68.42,3,3,0,0,0-1.15,1.19,3.77,3.77,0,0,0,0,3.46,3,3,0,0,0,1.15,1.18A3.33,3.33,0,0,0,149.07,94.3Z" fill="#fff"/><path d="M164.51,95.42a4.34,4.34,0,0,1-2.25-.58,4.23,4.23,0,0,1-1.55-1.59,4.57,4.57,0,0,1-.57-2.28,4.74,4.74,0,0,1,.54-2.28,4.18,4.18,0,0,1,1.49-1.6,4.06,4.06,0,0,1,2.18-.58,4.3,4.3,0,0,1,1.8.38,4.09,4.09,0,0,1,1.45,1.16.42.42,0,0,1,.12.4.62.62,0,0,1-.27.38.5.5,0,0,1-.39.09.73.73,0,0,1-.38-.23,2.94,2.94,0,0,0-2.33-1.06,2.81,2.81,0,0,0-2.63,1.62,3.79,3.79,0,0,0-.38,1.72,3.61,3.61,0,0,0,.4,1.72,3,3,0,0,0,1.12,1.18,3.12,3.12,0,0,0,1.65.43,3.45,3.45,0,0,0,1.14-.17,2.39,2.39,0,0,0,.92-.52.74.74,0,0,1,.4-.17.53.53,0,0,1,.39.13.61.61,0,0,1,.21.4.41.41,0,0,1-.15.38A4.16,4.16,0,0,1,164.51,95.42Z" fill="#fff"/><path d="M174,95.42a4.19,4.19,0,0,1-2.21-.58,4.3,4.3,0,0,1-1.55-1.59,4.67,4.67,0,0,1-.56-2.28,4.44,4.44,0,0,1,.58-2.28,4.28,4.28,0,0,1,1.59-1.6,4.73,4.73,0,0,1,4.54,0,4.33,4.33,0,0,1,1.58,1.6,4.56,4.56,0,0,1,.6,2.28l-.49.39a4,4,0,0,1-2,3.53A4.12,4.12,0,0,1,174,95.42Zm.12-1.12a3.19,3.19,0,0,0,1.66-.43,3.13,3.13,0,0,0,1.15-1.19,3.5,3.5,0,0,0,.43-1.71,3.44,3.44,0,0,0-.43-1.71,3.13,3.13,0,0,0-1.15-1.19,3.31,3.31,0,0,0-3.3,0,3.26,3.26,0,0,0-1.17,1.19,3.34,3.34,0,0,0-.43,1.71,3.39,3.39,0,0,0,.43,1.71,3.26,3.26,0,0,0,1.17,1.19A3.16,3.16,0,0,0,174.12,94.3Zm-.11-9a.61.61,0,0,1-.62-.62.64.64,0,0,1,.14-.42l1.81-1.81a.64.64,0,0,1,.88,0,.63.63,0,0,1,.18.46.85.85,0,0,1,0,.22.45.45,0,0,1-.14.19l-1.79,1.81A.57.57,0,0,1,174,85.26ZM178,95.34a.6.6,0,0,1-.45-.17.56.56,0,0,1-.18-.44V92l.31-1.27.94.24v3.76a.59.59,0,0,1-.17.44A.6.6,0,0,1,178,95.34Z" fill="#fff"/><path d="M184.88,95.42a4.29,4.29,0,0,1-2.25-.58,4.15,4.15,0,0,1-1.55-1.59,4.57,4.57,0,0,1-.57-2.28,4.74,4.74,0,0,1,.54-2.28,4.11,4.11,0,0,1,1.49-1.6,4,4,0,0,1,2.18-.58,4.3,4.3,0,0,1,1.8.38A4,4,0,0,1,188,88.05a.42.42,0,0,1,.13.4.62.62,0,0,1-.27.38.5.5,0,0,1-.39.09.69.69,0,0,1-.38-.23,3,3,0,0,0-2.33-1.06,2.86,2.86,0,0,0-1.58.43,2.92,2.92,0,0,0-1.06,1.19,3.78,3.78,0,0,0-.37,1.72,3.61,3.61,0,0,0,.4,1.72,3,3,0,0,0,1.12,1.18,3.12,3.12,0,0,0,1.65.43,3.49,3.49,0,0,0,1.14-.17,2.47,2.47,0,0,0,.92-.52.74.74,0,0,1,.4-.17.49.49,0,0,1,.38.13.62.62,0,0,1,.22.4.41.41,0,0,1-.15.38A4.16,4.16,0,0,1,184.88,95.42Z" fill="#fff"/><path d="M35.37,113.34a2,2,0,0,1-1.14-.35,2.25,2.25,0,0,1-.78-1,3.4,3.4,0,0,1-.28-1.44v-9.12a.55.55,0,0,1,.6-.6.6.6,0,0,1,.44.16.58.58,0,0,1,.17.44v9.12a2,2,0,0,0,.28,1.12.84.84,0,0,0,.71.44h.4a.5.5,0,0,1,.39.16.7.7,0,0,1,.14.44.54.54,0,0,1-.2.44.74.74,0,0,1-.52.17Z" fill="#fff"/><path d="M41.5,113.42a4.6,4.6,0,0,1-2.29-.57,4.23,4.23,0,0,1-1.58-1.59,4.83,4.83,0,0,1,0-4.59,4.13,4.13,0,0,1,1.58-1.58,4.51,4.51,0,0,1,2.29-.58,4.44,4.44,0,0,1,2.28.58,4.2,4.2,0,0,1,1.58,1.58A4.71,4.71,0,0,1,46,109a4.56,4.56,0,0,1-.58,2.29,4.33,4.33,0,0,1-1.59,1.59A4.54,4.54,0,0,1,41.5,113.42Zm0-1.12a3.25,3.25,0,0,0,1.67-.43,3.1,3.1,0,0,0,1.15-1.18,3.81,3.81,0,0,0,0-3.44,3.13,3.13,0,0,0-1.15-1.19,3.25,3.25,0,0,0-1.67-.43,3.14,3.14,0,0,0-2.82,1.62,3.65,3.65,0,0,0,0,3.44,3.13,3.13,0,0,0,1.16,1.18A3.19,3.19,0,0,0,41.5,112.3Z" fill="#fff"/><path d="M52.21,113.42a4.19,4.19,0,0,1-2.21-.58,4.3,4.3,0,0,1-1.55-1.59,4.56,4.56,0,0,1-.56-2.28,4.44,4.44,0,0,1,.58-2.28,4.28,4.28,0,0,1,1.59-1.6,4.73,4.73,0,0,1,4.54,0,4.33,4.33,0,0,1,1.58,1.6,4.56,4.56,0,0,1,.6,2.28l-.49.39a4,4,0,0,1-2,3.53A4.12,4.12,0,0,1,52.21,113.42Zm.12-1.12a3.19,3.19,0,0,0,1.66-.43,3.13,3.13,0,0,0,1.15-1.19,3.5,3.5,0,0,0,.43-1.71,3.44,3.44,0,0,0-.43-1.71A3.13,3.13,0,0,0,54,106.07a3.24,3.24,0,0,0-4.47,1.19,3.34,3.34,0,0,0-.43,1.71,3.39,3.39,0,0,0,.43,1.71,3.17,3.17,0,0,0,2.81,1.62Zm0-9.13a.58.58,0,0,1-.42-.18l-1.81-1.79a.69.69,0,0,1-.16-.43.62.62,0,0,1,.18-.46.58.58,0,0,1,.43-.18.61.61,0,0,1,.45.19l1.79,1.81a.46.46,0,0,1,.16.4.64.64,0,0,1-.17.45A.62.62,0,0,1,52.32,103.17Zm3.84,10.17a.6.6,0,0,1-.45-.17.56.56,0,0,1-.18-.44V110l.31-1.27.94.24v3.76a.59.59,0,0,1-.17.44A.6.6,0,0,1,56.16,113.34Z" fill="#fff"/><path d="M60.05,102.93a.83.83,0,0,1-.61-.26.85.85,0,0,1-.26-.62.81.81,0,0,1,.27-.64.91.91,0,0,1,.61-.23.88.88,0,0,1,.6.23.81.81,0,0,1,.27.64.89.89,0,0,1-.88.88Zm0,10.41a.58.58,0,0,1-.62-.62v-7.51a.57.57,0,0,1,.17-.45.61.61,0,0,1,.45-.17.6.6,0,0,1,.44.17.61.61,0,0,1,.17.45v7.51a.61.61,0,0,1-.17.45A.57.57,0,0,1,60.06,113.34Z" fill="#fff"/><path d="M71.55,113.42a5.53,5.53,0,0,1-1.87-.32,3.51,3.51,0,0,1-1.51-1,.54.54,0,0,1-.14-.43.65.65,0,0,1,.24-.42.61.61,0,0,1,.46-.12.64.64,0,0,1,.4.2,2.49,2.49,0,0,0,1,.69,3.92,3.92,0,0,0,1.4.24,2.76,2.76,0,0,0,1.71-.41,1.29,1.29,0,0,0,.55-1,1.13,1.13,0,0,0-.55-1,4.63,4.63,0,0,0-1.79-.59,4.87,4.87,0,0,1-2.37-.89,2,2,0,0,1-.75-1.52,2.09,2.09,0,0,1,.43-1.36,2.64,2.64,0,0,1,1.15-.82,4.5,4.5,0,0,1,1.59-.27,4.24,4.24,0,0,1,1.85.37,3.32,3.32,0,0,1,1.25,1,.55.55,0,0,1,.13.43.53.53,0,0,1-.26.37.64.64,0,0,1-.44.07.73.73,0,0,1-.42-.23,2.43,2.43,0,0,0-.93-.68,3.26,3.26,0,0,0-1.21-.22,2.45,2.45,0,0,0-1.41.36,1.07,1.07,0,0,0-.33,1.55,1.6,1.6,0,0,0,.69.48,6.22,6.22,0,0,0,1.37.35,6.06,6.06,0,0,1,1.89.57,2.34,2.34,0,0,1,1,.88,2.17,2.17,0,0,1-.14,2.41,2.83,2.83,0,0,1-1.22.89A4.49,4.49,0,0,1,71.55,113.42Z" fill="#fff"/><path d="M78,102.93a.87.87,0,0,1-.86-.88.84.84,0,0,1,.26-.64.93.93,0,0,1,.62-.23.92.92,0,0,1,.6.23.84.84,0,0,1,.26.64.84.84,0,0,1-.25.62A.88.88,0,0,1,78,102.93Zm0,10.41a.6.6,0,0,1-.46-.17.61.61,0,0,1-.17-.45v-7.51a.61.61,0,0,1,.17-.45.64.64,0,0,1,.46-.17.6.6,0,0,1,.44.17.61.61,0,0,1,.17.45v7.51a.61.61,0,0,1-.17.45A.57.57,0,0,1,78,113.34Z" fill="#fff"/><path d="M82.37,113.34a.58.58,0,0,1-.63-.61v-7.52a.61.61,0,0,1,.17-.45.68.68,0,0,1,.9,0,.61.61,0,0,1,.16.45v7.52a.57.57,0,0,1-.6.61Zm6.88,0a.61.61,0,0,1-.45-.17.6.6,0,0,1-.18-.44v-4.16a3.2,3.2,0,0,0-.37-1.63,2.5,2.5,0,0,0-1-1,3.3,3.3,0,0,0-1.46-.32,3.12,3.12,0,0,0-1.42.31,2.55,2.55,0,0,0-1,.83A2.08,2.08,0,0,0,83,108h-.88a3.47,3.47,0,0,1,.55-1.8A3.56,3.56,0,0,1,84,105a3.94,3.94,0,0,1,1.89-.46,4.25,4.25,0,0,1,2,.48,3.41,3.41,0,0,1,1.41,1.38,4.39,4.39,0,0,1,.52,2.22v4.16a.64.64,0,0,1-.17.44A.61.61,0,0,1,89.25,113.34Z" fill="#fff"/><path d="M93.2,109.77a.64.64,0,0,1-.46-.17.64.64,0,0,1-.17-.45v-7.68a.65.65,0,0,1,.17-.46.63.63,0,0,1,.46-.16.6.6,0,0,1,.44.16.65.65,0,0,1,.17.46v7.68a.64.64,0,0,1-.17.45A.6.6,0,0,1,93.2,109.77Zm0,3.57a.6.6,0,0,1-.46-.17.59.59,0,0,1-.17-.44v-7.52a.61.61,0,0,1,.17-.45.64.64,0,0,1,.46-.17.6.6,0,0,1,.44.17.61.61,0,0,1,.17.45v7.52a.59.59,0,0,1-.17.44A.57.57,0,0,1,93.2,113.34Zm6.88,0a.64.64,0,0,1-.45-.17.6.6,0,0,1-.18-.44v-4.16a3.2,3.2,0,0,0-.37-1.63,2.39,2.39,0,0,0-1-1,3.3,3.3,0,0,0-1.46-.32,3.15,3.15,0,0,0-1.42.31,2.55,2.55,0,0,0-1,.83,2.07,2.07,0,0,0-.36,1.2h-.88a3.46,3.46,0,0,1,.54-1.8A3.56,3.56,0,0,1,94.83,105a3.94,3.94,0,0,1,1.89-.46,4.25,4.25,0,0,1,2,.48,3.43,3.43,0,0,1,1.42,1.38,4.5,4.5,0,0,1,.52,2.22v4.16a.6.6,0,0,1-.18.44A.61.61,0,0,1,100.08,113.34Z" fill="#fff"/><path d="M111.09,113.34a.62.62,0,0,1-.58-.41L107,105.39a.51.51,0,0,1,0-.42.59.59,0,0,1,.32-.32.54.54,0,0,1,.43,0,.57.57,0,0,1,.32.29l3.41,7.38h-.65l3.36-7.38a.5.5,0,0,1,.32-.3.66.66,0,0,1,.46,0,.54.54,0,0,1,.3.33.47.47,0,0,1,0,.4l-3.51,7.56A.63.63,0,0,1,111.09,113.34Z" fill="#fff"/><path d="M120.48,113.42a4.18,4.18,0,0,1-3.75-2.17,4.57,4.57,0,0,1-.57-2.28,4.44,4.44,0,0,1,.58-2.28,4.28,4.28,0,0,1,1.59-1.6,4.47,4.47,0,0,1,2.28-.58,4.4,4.4,0,0,1,2.26.58,4.26,4.26,0,0,1,1.58,1.6,4.56,4.56,0,0,1,.6,2.28l-.49.39a4,4,0,0,1-.54,2.07,4.06,4.06,0,0,1-1.45,1.46A4.16,4.16,0,0,1,120.48,113.42Zm.13-1.12a3.11,3.11,0,0,0,2.8-1.62,3.39,3.39,0,0,0,.43-1.71,3.34,3.34,0,0,0-.43-1.71,3.14,3.14,0,0,0-2.8-1.63,3.18,3.18,0,0,0-1.65.44,3.26,3.26,0,0,0-1.17,1.19,3.34,3.34,0,0,0-.43,1.71,3.39,3.39,0,0,0,.43,1.71,3.26,3.26,0,0,0,1.17,1.19A3.17,3.17,0,0,0,120.61,112.3Zm-1.86-9.1a.73.73,0,0,1-.46-.15.52.52,0,0,1-.18-.41.64.64,0,0,1,.3-.55l1.89-1.24a.53.53,0,0,1,.31-.08.47.47,0,0,1,.17,0,.94.94,0,0,1,.15.06l1.87,1.24a.64.64,0,0,1,.3.55.54.54,0,0,1-.17.4.69.69,0,0,1-.45.16.6.6,0,0,1-.2,0l-.19-.1-1.48-1-1.49,1A.6.6,0,0,1,118.75,103.2Zm1.84,13.49a.83.83,0,0,1-.61-.26.84.84,0,0,1-.25-.62.8.8,0,0,1,.26-.64.93.93,0,0,1,.62-.23.92.92,0,0,1,.6.23.84.84,0,0,1,.26.64.89.89,0,0,1-.88.88Zm3.84-3.35a.6.6,0,0,1-.45-.17.55.55,0,0,1-.17-.44V110l.3-1.27.94.24v3.76a.55.55,0,0,1-.17.44A.6.6,0,0,1,124.43,113.34Z" fill="#fff"/><path d="M126.89,106a.57.57,0,0,1-.4-.15.53.53,0,0,1-.16-.38.53.53,0,0,1,.16-.39.57.57,0,0,1,.4-.15H131a.55.55,0,0,1,.4.15.5.5,0,0,1,.16.39.49.49,0,0,1-.16.38.55.55,0,0,1-.4.15Zm4,7.36a2.86,2.86,0,0,1-2.56-1.49,3.24,3.24,0,0,1-.39-1.6v-7.82a.64.64,0,0,1,.17-.45.57.57,0,0,1,.44-.17.6.6,0,0,1,.45.17.61.61,0,0,1,.18.45v7.82a1.9,1.9,0,0,0,.48,1.34,1.59,1.59,0,0,0,1.23.52h.43a.54.54,0,0,1,.42.18.64.64,0,0,1,.16.44.54.54,0,0,1-.2.44.64.64,0,0,1-.48.17Z" fill="#fff"/><path d="M143,113.42a4.43,4.43,0,0,1-2.25-.57,4.3,4.3,0,0,1-1.59-1.58,4.5,4.5,0,0,1-.6-2.25v-7.55a.65.65,0,0,1,.17-.46.63.63,0,0,1,.46-.16.6.6,0,0,1,.44.16.65.65,0,0,1,.17.46v4.7a3.74,3.74,0,0,1,1.4-1.2,4,4,0,0,1,1.94-.46,4.16,4.16,0,0,1,3.75,2.18,4.53,4.53,0,0,1,.57,2.27,4.61,4.61,0,0,1-.58,2.29,4.28,4.28,0,0,1-1.6,1.59A4.44,4.44,0,0,1,143,113.42Zm0-1.12a3.17,3.17,0,0,0,2.82-1.63,3.44,3.44,0,0,0,.42-1.71,3.49,3.49,0,0,0-.42-1.71,3.16,3.16,0,0,0-1.16-1.19,3.21,3.21,0,0,0-1.66-.43,3.17,3.17,0,0,0-1.65.43,3.06,3.06,0,0,0-1.15,1.19,3.49,3.49,0,0,0-.42,1.71,3.44,3.44,0,0,0,.42,1.71,3.06,3.06,0,0,0,1.15,1.19A3.09,3.09,0,0,0,143,112.3Z" fill="#fff"/><path d="M150.75,102.93a.83.83,0,0,1-.61-.26.84.84,0,0,1-.25-.62.8.8,0,0,1,.26-.64.93.93,0,0,1,.62-.23.92.92,0,0,1,.6.23.84.84,0,0,1,.26.64.89.89,0,0,1-.88.88Zm0,10.41a.58.58,0,0,1-.46-.17.61.61,0,0,1-.17-.45v-7.51a.61.61,0,0,1,.17-.45.68.68,0,0,1,.9,0,.61.61,0,0,1,.16.45v7.51a.61.61,0,0,1-.16.45A.58.58,0,0,1,150.77,113.34Z" fill="#fff"/><path d="M158.48,113.42a4.56,4.56,0,0,1-2.3-.57,4.08,4.08,0,0,1-1.57-1.57,4.6,4.6,0,0,1-.56-2.31,4.8,4.8,0,0,1,.53-2.31,4,4,0,0,1,3.66-2.15,4,4,0,0,1,2.12.55,3.77,3.77,0,0,1,1.4,1.53,4.83,4.83,0,0,1,.49,2.22.53.53,0,0,1-.16.41.56.56,0,0,1-.41.15h-6.8v-1h6.93l-.69.5a3.62,3.62,0,0,0-.34-1.67,2.74,2.74,0,0,0-1-1.15,2.77,2.77,0,0,0-1.54-.42,2.93,2.93,0,0,0-1.6.44,2.81,2.81,0,0,0-1.07,1.19,3.83,3.83,0,0,0-.37,1.73,3.49,3.49,0,0,0,.42,1.73,3.16,3.16,0,0,0,1.16,1.19,3.38,3.38,0,0,0,1.7.43,3.68,3.68,0,0,0,1.16-.2,2.72,2.72,0,0,0,.93-.51.73.73,0,0,1,.4-.15.65.65,0,0,1,.39.12.57.57,0,0,1,.21.42.43.43,0,0,1-.18.38,4.39,4.39,0,0,1-1.34.75A4.81,4.81,0,0,1,158.48,113.42Zm-2.15-10.22a.68.68,0,0,1-.45-.15.5.5,0,0,1-.19-.41.63.63,0,0,1,.31-.55l1.89-1.24a.48.48,0,0,1,.3-.08.55.55,0,0,1,.18,0,.59.59,0,0,1,.14.06l1.87,1.24a.65.65,0,0,1,.31.55.52.52,0,0,1-.18.4.69.69,0,0,1-.45.16.64.64,0,0,1-.2,0l-.18-.1-1.49-1-1.49,1A.6.6,0,0,1,156.33,103.2Zm3.4-2.13a.58.58,0,0,1-.58-.58v-.44a.59.59,0,0,1,.51-.63l.4-.08a1,1,0,0,0,.5-.25.75.75,0,0,0-.07-1,.93.93,0,0,0-.57-.19,1.23,1.23,0,0,0-.39.07,1.5,1.5,0,0,0-.32.19.4.4,0,0,1-.19.11.76.76,0,0,1-.21,0,.52.52,0,0,1-.36-.13.49.49,0,0,1-.15-.38.54.54,0,0,1,.19-.43,2.42,2.42,0,0,1,.64-.37,2,2,0,0,1,.77-.13,2,2,0,0,1,1.34.47,1.6,1.6,0,0,1,.53,1.23,1.36,1.36,0,0,1-.48,1.13,2.43,2.43,0,0,1-1.13.47l.13.21a.77.77,0,0,1-.17.52A.53.53,0,0,1,159.73,101.07Z" fill="#fff"/><path d="M165,113.34a.6.6,0,0,1-.46-.17.59.59,0,0,1-.17-.44v-7.52a.61.61,0,0,1,.17-.45.64.64,0,0,1,.46-.17.6.6,0,0,1,.44.17.61.61,0,0,1,.17.45v7.52a.59.59,0,0,1-.17.44A.57.57,0,0,1,165,113.34Zm6.88,0a.64.64,0,0,1-.45-.17.6.6,0,0,1-.18-.44v-4.16a3.2,3.2,0,0,0-.37-1.63,2.39,2.39,0,0,0-1-1,3.3,3.3,0,0,0-1.46-.32,3.15,3.15,0,0,0-1.42.31,2.55,2.55,0,0,0-1,.83,2.07,2.07,0,0,0-.36,1.2h-.88a3.46,3.46,0,0,1,.54-1.8,3.56,3.56,0,0,1,1.36-1.25,3.94,3.94,0,0,1,1.89-.46,4.25,4.25,0,0,1,2,.48,3.43,3.43,0,0,1,1.42,1.38,4.5,4.5,0,0,1,.52,2.22v4.16a.6.6,0,0,1-.18.44A.61.61,0,0,1,171.84,113.34Z" fill="#fff"/></g></g></svg>