<svg xmlns="http://www.w3.org/2000/svg" viewBox="0 0 234.6 139.22"><title>m_05_1</title><g id="Layer_2" data-name="Layer 2"><g id="bubble_talk" data-name="bubble talk"><path d="M180.05,138.22c-10,0-19.07-5.3-24.92-9.75A68.56,68.56,0,0,1,145,119.06a663.74,663.74,0,0,0-66.6-6.17c-29.54-1.26-47.79-3.36-59.67-10.85C6.43,94.28,1.12,80.57,1,56.21.92,39.75,4.92,27.68,13.25,19.32,30.16,2.31,64.46,1,111.07,1L126.7,1q8.38,0,17.29,0c47.72,0,79.71,8.64,80.73,50.75.49,20.08-3.75,34.58-12.95,44.33-8.23,8.71-20.18,13.65-37.6,15.55C171.42,117.28,183,131,188,135.45a1,1,0,0,1,.32,1,1,1,0,0,1-.71.74,27.77,27.77,0,0,1-7.6,1.05Z" fill="#efa61e"/><path d="M111.08,2c10.3,0,21.28.07,32.91.07,48.16,0,78.74,8.9,79.73,49.77,1,41.13-18.1,55.56-50.16,58.92-4.05,6.09,8.71,21,13.82,25.45a26.86,26.86,0,0,1-7.33,1c-18.81,0-34.52-19.09-34.52-19.09a654.44,654.44,0,0,0-67.08-6.24C22.33,109.5,2.24,104.32,2,56.2,1.74,5.27,40.45,2,111.08,2m0-2C64.22,0,29.73,1.33,12.54,18.61,4,27.17-.08,39.47,0,56.21c.25,49.67,21.69,55.27,78.36,57.68,34.13,1.46,61.4,5.39,66.13,6.1,2.93,3.36,17.72,19.23,35.56,19.23a29,29,0,0,0,7.88-1.09,2,2,0,0,0,.77-3.43,66.2,66.2,0,0,1-10-11.72c-3-4.52-4.34-8.28-3.8-10.36,17.11-2,29.41-7.12,37.59-15.79,9.4-10,13.73-24.68,13.23-45-.49-20.16-8.09-33.88-23.24-41.93C189.75,3.1,171.71.07,144,.07q-8.9,0-17.29,0L111.08,0Z"/><path d="M185.47,137.27c-15.38,0-22.41-12.28-23.88-15.24-2.8.08-14.35.36-29.79.36-16,0-30.94-.29-44.55-.87-29.54-1.26-47.8-3.36-59.67-10.85C15.27,102.91,10,89.2,9.84,64.83,9.76,48.37,13.76,36.3,22.09,27.94,39,10.94,73.31,9.63,119.93,9.63l15.6,0q8.4,0,17.3,0c47.72,0,79.71,8.64,80.73,50.75.49,20.08-3.75,34.57-13,44.32-8.22,8.71-20.19,13.66-37.62,15.56-3.65,6.06,1.57,12,5.06,15.12a1,1,0,0,1,.29,1.08,1,1,0,0,1-.88.67C186.77,137.25,186.11,137.27,185.47,137.27Z" fill="#e8651c"/><path d="M119.92,10.63c10.3,0,21.28.07,32.91.07,48.16,0,78.74,8.9,79.73,49.77,1,41.12-18.1,55.55-50.16,58.91-4.05,6.09-.13,12.33,5,16.83-.65,0-1.29.06-1.91.06-16.93,0-23.25-15.26-23.25-15.26s-12.5.38-30.42.38c-12.91,0-28.63-.19-44.51-.87C31.17,118.13,11.08,113,10.84,64.83c-.26-50.94,38.45-54.2,109.08-54.2m0-2C73.06,8.63,38.57,10,21.38,27.24,12.86,35.8,8.76,48.1,8.84,64.84c.25,49.67,21.69,55.26,78.36,57.68,13.64.58,28.64.87,44.6.87,14.46,0,25.52-.25,29.18-.34,2,3.89,9.2,15.22,24.49,15.22.67,0,1.36,0,2-.07a2,2,0,0,0,1.76-1.35,2,2,0,0,0-.57-2.15c-6.73-5.92-6.65-10.47-5.1-13.44,17.18-1.94,29.53-7.12,37.73-15.8,9.4-9.95,13.73-24.68,13.23-45-.49-20.16-8.09-33.87-23.24-41.93-12.73-6.77-30.77-9.79-58.49-9.79q-8.9,0-17.29,0l-15.62,0Z"/><path d="M35,59.93a.43.43,0,0,1,.33.17.38.38,0,0,1,0,.4,3.65,3.65,0,0,0-.29,1,2.84,2.84,0,0,0,.08,1.2,2.49,2.49,0,0,1,.06.57.83.83,0,0,1-.24.62.84.84,0,0,1-.59.23.73.73,0,0,1-.64-.34,1.61,1.61,0,0,1-.24-.94,2.93,2.93,0,0,1,.15-.85A6.85,6.85,0,0,1,34,61a3.65,3.65,0,0,1,.48-.77A.69.69,0,0,1,35,59.93Zm2.33,0a.42.42,0,0,1,.33.17.36.36,0,0,1,0,.4,4.09,4.09,0,0,0-.29,1,3,3,0,0,0,0,.66,4.34,4.34,0,0,0,.09.54,2,2,0,0,1,.07.57.83.83,0,0,1-.24.62.84.84,0,0,1-.59.23.73.73,0,0,1-.64-.34,1.61,1.61,0,0,1-.24-.94,2.93,2.93,0,0,1,.15-.85,6.79,6.79,0,0,1,.37-.94,3.65,3.65,0,0,1,.48-.77A.69.69,0,0,1,37.32,59.93Z" fill="#fff"/><path d="M43.13,73.05a4.44,4.44,0,0,1-2.27-.59,4.33,4.33,0,0,1-1.59-1.59,4.46,4.46,0,0,1-.59-2.29,4.53,4.53,0,0,1,.57-2.27A4.25,4.25,0,0,1,43,64.13a4.15,4.15,0,0,1,1.94.46,3.81,3.81,0,0,1,1.39,1.21V61.09a.58.58,0,0,1,.18-.45.61.61,0,0,1,.45-.17.6.6,0,0,1,.44.17.58.58,0,0,1,.18.45v7.56A4.55,4.55,0,0,1,47,70.89a4.2,4.2,0,0,1-1.58,1.58A4.49,4.49,0,0,1,43.13,73.05Zm0-1.12a3.19,3.19,0,0,0,1.66-.44,3.28,3.28,0,0,0,1.15-1.19,3.51,3.51,0,0,0,.42-1.72,3.46,3.46,0,0,0-.42-1.7,3.06,3.06,0,0,0-1.15-1.19,3.4,3.4,0,0,0-3.31,0,3,3,0,0,0-1.16,1.19,3.36,3.36,0,0,0-.44,1.7,3.41,3.41,0,0,0,.44,1.72,3.23,3.23,0,0,0,1.16,1.19A3.18,3.18,0,0,0,43.13,71.93Zm.63-8.9a.61.61,0,0,1-.43-.15.5.5,0,0,1-.17-.38.45.45,0,0,1,.17-.37.65.65,0,0,1,.43-.14h4.65a.68.68,0,0,1,.44.14.45.45,0,0,1,.17.37.5.5,0,0,1-.17.38.63.63,0,0,1-.44.15Z" fill="#fff"/><path d="M54.31,73.05a4.19,4.19,0,0,1-2.2-.59,4.3,4.3,0,0,1-1.55-1.59,4.77,4.77,0,0,1,0-4.56,4.33,4.33,0,0,1,1.59-1.59,4.66,4.66,0,0,1,4.54,0,4.38,4.38,0,0,1,1.58,1.59,4.6,4.6,0,0,1,.6,2.29l-.5.38a4,4,0,0,1-.53,2.07,3.93,3.93,0,0,1-1.46,1.46A4,4,0,0,1,54.31,73.05Zm.13-1.12a3.28,3.28,0,0,0,1.66-.43,3.16,3.16,0,0,0,1.15-1.2,3.67,3.67,0,0,0,0-3.41,3.31,3.31,0,0,0-1.15-1.2,3.4,3.4,0,0,0-3.31,0,3.26,3.26,0,0,0-1.16,1.2,3.52,3.52,0,0,0,0,3.41,3.11,3.11,0,0,0,1.16,1.2A3.3,3.3,0,0,0,54.44,71.93Zm3.83,1a.64.64,0,0,1-.45-.17.57.57,0,0,1-.18-.44V69.62L58,68.36l.94.24v3.76a.57.57,0,0,1-.18.44A.6.6,0,0,1,58.27,73Z" fill="#fff"/><path d="M61.91,73a.61.61,0,0,1-.45-.17.6.6,0,0,1-.17-.44V64.84a.65.65,0,0,1,.17-.46.61.61,0,0,1,.45-.17.59.59,0,0,1,.44.17.61.61,0,0,1,.17.46v7.52a.57.57,0,0,1-.17.44A.59.59,0,0,1,61.91,73Zm6.88,0a.57.57,0,0,1-.44-.18.58.58,0,0,1-.18-.43V68.2a3.07,3.07,0,0,0-.38-1.63,2.36,2.36,0,0,0-1-1,3.16,3.16,0,0,0-1.46-.32,3.25,3.25,0,0,0-1.42.3,2.55,2.55,0,0,0-1,.83,2.08,2.08,0,0,0-.37,1.2h-.88a3.47,3.47,0,0,1,.55-1.8,3.62,3.62,0,0,1,1.36-1.24,3.82,3.82,0,0,1,1.88-.46,4.38,4.38,0,0,1,2,.47A3.53,3.53,0,0,1,68.88,66a4.41,4.41,0,0,1,.52,2.23v4.16a.61.61,0,0,1-.17.43A.59.59,0,0,1,68.79,73Z" fill="#fff"/><path d="M76,73.05a4.36,4.36,0,0,1-2.24-.57,4,4,0,0,1-1.53-1.58,4.69,4.69,0,0,1-.55-2.3,4.61,4.61,0,0,1,.57-2.32,4.23,4.23,0,0,1,1.59-1.58,4.89,4.89,0,0,1,4.58,0A4.11,4.11,0,0,1,80,66.28a4.72,4.72,0,0,1,.58,2.32l-.72.38a4.41,4.41,0,0,1-.49,2.11A3.72,3.72,0,0,1,78,72.53,3.86,3.86,0,0,1,76,73.05Zm.16,3.37A4.94,4.94,0,0,1,73.91,76a4.33,4.33,0,0,1-1.58-1.29.47.47,0,0,1-.15-.41.5.5,0,0,1,.23-.37.64.64,0,0,1,.86.14,3.29,3.29,0,0,0,1.2.93,3.73,3.73,0,0,0,1.69.35,3.06,3.06,0,0,0,1.61-.43,3.09,3.09,0,0,0,1.14-1.21,3.77,3.77,0,0,0,.43-1.85V69.38l.46-.92.75.14v3.26A4.73,4.73,0,0,1,80,74.19a4.28,4.28,0,0,1-3.84,2.23Zm0-4.49a3.2,3.2,0,0,0,1.67-.43,3,3,0,0,0,1.14-1.17,3.49,3.49,0,0,0,.42-1.73,3.56,3.56,0,0,0-.42-1.74,3,3,0,0,0-1.14-1.18,3.29,3.29,0,0,0-1.67-.42,3.33,3.33,0,0,0-1.68.42,3.06,3.06,0,0,0-1.16,1.18,3.66,3.66,0,0,0-.41,1.74,3.6,3.6,0,0,0,.41,1.73,3,3,0,0,0,1.16,1.17A3.23,3.23,0,0,0,76.11,71.93Z" fill="#fff"/><path d="M91.5,73.05a4.36,4.36,0,0,1-2.24-.57,4,4,0,0,1-1.53-1.58,4.69,4.69,0,0,1-.55-2.3,4.61,4.61,0,0,1,.57-2.32,4.23,4.23,0,0,1,1.59-1.58,4.89,4.89,0,0,1,4.58,0,4.11,4.11,0,0,1,1.57,1.58,4.84,4.84,0,0,1,.59,2.32l-.73.38a4.41,4.41,0,0,1-.49,2.11,3.72,3.72,0,0,1-1.37,1.44A3.86,3.86,0,0,1,91.5,73.05Zm.16,3.37A5,5,0,0,1,89.43,76a4.33,4.33,0,0,1-1.58-1.29.47.47,0,0,1-.15-.41.5.5,0,0,1,.23-.37.64.64,0,0,1,.86.14A3.29,3.29,0,0,0,90,75a3.73,3.73,0,0,0,1.69.35,3.06,3.06,0,0,0,1.61-.43,3.09,3.09,0,0,0,1.14-1.21,3.77,3.77,0,0,0,.43-1.85V69.38l.46-.92.76.14v3.26a4.74,4.74,0,0,1-.58,2.33,4.28,4.28,0,0,1-3.84,2.23Zm0-4.49a3.2,3.2,0,0,0,1.67-.43,3,3,0,0,0,1.14-1.17,3.49,3.49,0,0,0,.42-1.73,3.56,3.56,0,0,0-.42-1.74,3,3,0,0,0-1.14-1.18,3.29,3.29,0,0,0-1.67-.42,3.33,3.33,0,0,0-1.68.42,3.06,3.06,0,0,0-1.16,1.18,3.66,3.66,0,0,0-.41,1.74,3.6,3.6,0,0,0,.41,1.73A3,3,0,0,0,90,71.5,3.23,3.23,0,0,0,91.63,71.93Z" fill="#fff"/><path d="M99.34,62.55a.82.82,0,0,1-.61-.25.88.88,0,0,1-.26-.63.77.77,0,0,1,.27-.63.86.86,0,0,1,.61-.23.84.84,0,0,1,.6.23.77.77,0,0,1,.27.63.88.88,0,0,1-.26.63A.84.84,0,0,1,99.34,62.55Zm0,10.42a.61.61,0,0,1-.45-.17.62.62,0,0,1-.17-.46v-7.5a.65.65,0,0,1,.17-.46.61.61,0,0,1,.45-.17.59.59,0,0,1,.44.17.61.61,0,0,1,.17.46v7.5a.58.58,0,0,1-.61.63Z" fill="#fff"/><path d="M107,73.05a4.19,4.19,0,0,1-2.2-.59,4.3,4.3,0,0,1-1.55-1.59,4.77,4.77,0,0,1,0-4.56,4.33,4.33,0,0,1,1.59-1.59,4.66,4.66,0,0,1,4.54,0,4.38,4.38,0,0,1,1.58,1.59,4.6,4.6,0,0,1,.6,2.29L111,69a4,4,0,0,1-.53,2.07A3.93,3.93,0,0,1,109,72.51,4,4,0,0,1,107,73.05Zm.13-1.12a3.28,3.28,0,0,0,1.66-.43,3.16,3.16,0,0,0,1.15-1.2,3.67,3.67,0,0,0,0-3.41,3.31,3.31,0,0,0-1.15-1.2,3.4,3.4,0,0,0-3.31,0,3.26,3.26,0,0,0-1.16,1.2,3.52,3.52,0,0,0,0,3.41,3.11,3.11,0,0,0,1.16,1.2A3.3,3.3,0,0,0,107.08,71.93Zm0-8.53a.58.58,0,0,1-.58-.58v-.44a.59.59,0,0,1,.51-.63l.4-.08a.91.91,0,0,0,.5-.25.61.61,0,0,0,.16-.45.69.69,0,0,0-.23-.55.93.93,0,0,0-.57-.19,1.23,1.23,0,0,0-.39.07,1.5,1.5,0,0,0-.32.19.77.77,0,0,1-.18.1.54.54,0,0,1-.22,0,.55.55,0,0,1-.36-.13.5.5,0,0,1-.15-.38.54.54,0,0,1,.19-.43,2.36,2.36,0,0,1,.65-.37,2.09,2.09,0,0,1,.76-.13,2,2,0,0,1,1.34.47,1.56,1.56,0,0,1,.53,1.23,1.33,1.33,0,0,1-.48,1.12,2.31,2.31,0,0,1-1.13.48l.13.2a.74.74,0,0,1-.17.52A.49.49,0,0,1,107.07,63.4ZM110.91,73a.63.63,0,0,1-.45-.17.57.57,0,0,1-.18-.44V69.62l.31-1.26.94.24v3.76a.57.57,0,0,1-.18.44A.6.6,0,0,1,110.91,73Z" fill="#fff"/><path d="M114.55,73a.61.61,0,0,1-.45-.17.6.6,0,0,1-.17-.44V64.84a.64.64,0,0,1,.17-.45.58.58,0,0,1,.45-.18.56.56,0,0,1,.44.18.6.6,0,0,1,.17.45v7.52a.57.57,0,0,1-.17.44A.59.59,0,0,1,114.55,73Zm5.62,0a.64.64,0,0,1-.45-.17.57.57,0,0,1-.17-.44V67.75A2.58,2.58,0,0,0,119,66a1.94,1.94,0,0,0-1.52-.66,2.2,2.2,0,0,0-1.63.64,2.35,2.35,0,0,0-.64,1.69h-.88a4.07,4.07,0,0,1,.46-1.81,3.15,3.15,0,0,1,1.16-1.24,3.31,3.31,0,0,1,3.33,0,3,3,0,0,1,1.14,1.26,4.28,4.28,0,0,1,.41,1.92v4.61a.58.58,0,0,1-.61.61Zm5.58,0a.6.6,0,0,1-.44-.17.57.57,0,0,1-.18-.44V67.75a2.62,2.62,0,0,0-.59-1.8,2,2,0,0,0-1.52-.66,2.18,2.18,0,0,0-1.63.66,2.4,2.4,0,0,0-.61,1.77h-1.11a4,4,0,0,1,.47-1.89,3.24,3.24,0,0,1,1.23-1.26,3.51,3.51,0,0,1,1.78-.45,3.12,3.12,0,0,1,1.67.45A3.07,3.07,0,0,1,126,65.83a4.15,4.15,0,0,1,.41,1.92v4.61a.57.57,0,0,1-.17.44A.59.59,0,0,1,125.75,73Z" fill="#fff"/><path d="M134.38,73a.65.65,0,0,1-.45-.16.61.61,0,0,1-.16-.45V64.82a.57.57,0,0,1,.16-.44.61.61,0,0,1,1.06.44v7.54a.56.56,0,0,1-.61.61Zm-.1-5.39a3.74,3.74,0,0,1,.52-1.78A3.62,3.62,0,0,1,136,64.57a3.26,3.26,0,0,1,1.69-.45,2.52,2.52,0,0,1,1.14.21.49.49,0,0,1,.3.6.5.5,0,0,1-.21.33.72.72,0,0,1-.37.06l-.49,0a3.53,3.53,0,0,0-1.59.18,2.49,2.49,0,0,0-1.11.81,2.1,2.1,0,0,0-.4,1.3Z" fill="#fff"/><path d="M144.31,73.05a4.19,4.19,0,0,1-2.2-.59,4.3,4.3,0,0,1-1.55-1.59,4.77,4.77,0,0,1,0-4.56,4.33,4.33,0,0,1,1.59-1.59,4.66,4.66,0,0,1,4.54,0,4.38,4.38,0,0,1,1.58,1.59,4.6,4.6,0,0,1,.6,2.29l-.5.38a4,4,0,0,1-.53,2.07,3.93,3.93,0,0,1-1.46,1.46A4,4,0,0,1,144.31,73.05Zm.13-1.12a3.28,3.28,0,0,0,1.66-.43,3.16,3.16,0,0,0,1.15-1.2,3.67,3.67,0,0,0,0-3.41,3.31,3.31,0,0,0-1.15-1.2,3.4,3.4,0,0,0-3.31,0,3.26,3.26,0,0,0-1.16,1.2,3.52,3.52,0,0,0,0,3.41,3.11,3.11,0,0,0,1.16,1.2A3.3,3.3,0,0,0,144.44,71.93Zm-.11-9a.58.58,0,0,1-.44-.19.6.6,0,0,1-.18-.44.55.55,0,0,1,.14-.41L145.66,60a.62.62,0,0,1,.88,0,.6.6,0,0,1,.17.45.62.62,0,0,1,0,.23.41.41,0,0,1-.13.19l-1.79,1.81A.61.61,0,0,1,144.33,62.89ZM148.27,73a.64.64,0,0,1-.45-.17.57.57,0,0,1-.18-.44V69.62l.31-1.26.94.24v3.76a.57.57,0,0,1-.18.44A.6.6,0,0,1,148.27,73Z" fill="#fff"/><path d="M155.2,73.05a4.28,4.28,0,0,1-3.81-2.18,4.63,4.63,0,0,1-.56-2.27,4.78,4.78,0,0,1,.54-2.29,4.15,4.15,0,0,1,1.49-1.59,4,4,0,0,1,2.17-.59,4.1,4.1,0,0,1,1.8.39,4,4,0,0,1,1.45,1.15.44.44,0,0,1,.13.41.65.65,0,0,1-.27.38.49.49,0,0,1-.39.08.59.59,0,0,1-.38-.23,3,3,0,0,0-2.34-1,2.85,2.85,0,0,0-1.57.43,2.89,2.89,0,0,0-1.06,1.18A3.83,3.83,0,0,0,152,68.6a3.54,3.54,0,0,0,.4,1.71,3,3,0,0,0,1.12,1.19,3.22,3.22,0,0,0,1.65.43,3.78,3.78,0,0,0,1.14-.17,2.62,2.62,0,0,0,.92-.52.69.69,0,0,1,.4-.18.49.49,0,0,1,.38.13.65.65,0,0,1,.22.4.45.45,0,0,1-.15.38A4.13,4.13,0,0,1,155.2,73.05Z" fill="#fff"/><path d="M166.14,73a.64.64,0,0,1-.46-.17.6.6,0,0,1-.17-.44V64.84a.65.65,0,0,1,.17-.46.64.64,0,0,1,.46-.17.6.6,0,0,1,.44.17.65.65,0,0,1,.17.46v7.52a.58.58,0,0,1-.61.61ZM173,73a.61.61,0,0,1-.45-.18.58.58,0,0,1-.18-.43V68.2a3.17,3.17,0,0,0-.37-1.63,2.33,2.33,0,0,0-1-1,3.16,3.16,0,0,0-1.46-.32,3.31,3.31,0,0,0-1.42.3,2.55,2.55,0,0,0-1,.83,2.07,2.07,0,0,0-.36,1.2h-.88a3.46,3.46,0,0,1,.54-1.8,3.62,3.62,0,0,1,1.36-1.24,3.89,3.89,0,0,1,1.89-.46,4.34,4.34,0,0,1,2,.47A3.56,3.56,0,0,1,173.11,66a4.51,4.51,0,0,1,.52,2.23v4.16A.61.61,0,0,1,173,73Z" fill="#fff"/><path d="M177,69.4a.62.62,0,0,1-.46-.18.61.61,0,0,1-.16-.45V61.09a.61.61,0,0,1,.16-.45.65.65,0,0,1,.46-.17.6.6,0,0,1,.44.17.61.61,0,0,1,.17.45v7.68a.61.61,0,0,1-.17.45A.57.57,0,0,1,177,69.4ZM177,73a.65.65,0,0,1-.46-.17.6.6,0,0,1-.16-.44V64.84a.57.57,0,0,1,.62-.63.6.6,0,0,1,.44.17.65.65,0,0,1,.17.46v7.52A.58.58,0,0,1,177,73Zm6.88,0a.61.61,0,0,1-.45-.18.57.57,0,0,1-.17-.43V68.2a3.17,3.17,0,0,0-.38-1.63,2.36,2.36,0,0,0-1-1,3.5,3.5,0,0,0-2.88,0,2.49,2.49,0,0,0-1,.83,2,2,0,0,0-.37,1.2h-.88a3.46,3.46,0,0,1,.54-1.8,3.69,3.69,0,0,1,1.36-1.24,3.89,3.89,0,0,1,1.89-.46,4.31,4.31,0,0,1,2,.47A3.56,3.56,0,0,1,183.94,66a4.51,4.51,0,0,1,.52,2.23v4.16a.61.61,0,0,1-.61.61Z" fill="#fff"/><path d="M191,73.06a4.26,4.26,0,0,1-2-.47,3.53,3.53,0,0,1-1.41-1.38A4.41,4.41,0,0,1,187,69V64.82a.61.61,0,0,1,.17-.43.6.6,0,0,1,.44-.18.57.57,0,0,1,.44.18.58.58,0,0,1,.18.43V69a3.24,3.24,0,0,0,.38,1.64,2.48,2.48,0,0,0,1,1,3.29,3.29,0,0,0,1.46.31,3.25,3.25,0,0,0,1.42-.3,2.55,2.55,0,0,0,1-.83,2,2,0,0,0,.37-1.2h.88a3.55,3.55,0,0,1-1.91,3A3.93,3.93,0,0,1,191,73.06Zm.16,3.25a.8.8,0,0,1-.61-.26.84.84,0,0,1-.26-.62.77.77,0,0,1,.27-.63.86.86,0,0,1,.61-.23.84.84,0,0,1,.6.23.77.77,0,0,1,.27.63.84.84,0,0,1-.26.62A.82.82,0,0,1,191.15,76.31ZM194.51,73a.6.6,0,0,1-.44-.17.58.58,0,0,1-.17-.46V64.82a.58.58,0,0,1,.17-.44.65.65,0,0,1,.88,0,.59.59,0,0,1,.18.44v7.52a.59.59,0,0,1-.18.46A.6.6,0,0,1,194.51,73Zm0-7.62V64.21h.7a.6.6,0,0,0,.49-.24.92.92,0,0,0,.2-.63V63a.63.63,0,0,1,.15-.43.52.52,0,0,1,.41-.18.48.48,0,0,1,.43.21.81.81,0,0,1,.15.49v.25a2.2,2.2,0,0,1-.24,1,2,2,0,0,1-.65.72,1.72,1.72,0,0,1-.94.26Z" fill="#fff"/><path d="M201.87,73.05a4.22,4.22,0,0,1-2.21-.59,4.3,4.3,0,0,1-1.55-1.59,4.63,4.63,0,0,1-.56-2.27,4.48,4.48,0,0,1,.58-2.29,4.33,4.33,0,0,1,1.59-1.59,4.66,4.66,0,0,1,4.54,0,4.3,4.3,0,0,1,1.58,1.59,4.6,4.6,0,0,1,.6,2.29L206,69a4,4,0,0,1-.54,2.07A3.93,3.93,0,0,1,204,72.51,4,4,0,0,1,201.87,73.05Zm.12-1.12a3.26,3.26,0,0,0,1.66-.43,3.09,3.09,0,0,0,1.15-1.2,3.6,3.6,0,0,0,0-3.41,3.23,3.23,0,0,0-1.15-1.2,3.38,3.38,0,0,0-3.3,0,3.49,3.49,0,0,0-1.17,4.61,3.21,3.21,0,0,0,1.17,1.2A3.26,3.26,0,0,0,202,71.93Zm3.83,1a.64.64,0,0,1-.45-.17.57.57,0,0,1-.18-.44V69.62l.31-1.26.94.24v3.76a.6.6,0,0,1-.17.44A.64.64,0,0,1,205.82,73Z" fill="#fff"/><path d="M208.39,64.07a.81.81,0,0,1-.57-.23.83.83,0,0,1-.24-.62,3.27,3.27,0,0,1,0-.57c0-.17.07-.35.1-.54a2.13,2.13,0,0,0,0-.66,4,4,0,0,0-.28-1,.38.38,0,0,1,0-.4.39.39,0,0,1,.33-.17.65.65,0,0,1,.47.3,3.65,3.65,0,0,1,.48.77,5.78,5.78,0,0,1,.38.94,2.88,2.88,0,0,1,.14.85,1.62,1.62,0,0,1-.23.94A.73.73,0,0,1,208.39,64.07Zm2.31,0a.82.82,0,0,1-.58-.23.83.83,0,0,1-.24-.62,2.49,2.49,0,0,1,.06-.57,4.34,4.34,0,0,0,.09-.54,2.11,2.11,0,0,0,0-.66,4.53,4.53,0,0,0-.28-1,.38.38,0,0,1,0-.4.42.42,0,0,1,.34-.17.69.69,0,0,1,.48.3,3.65,3.65,0,0,1,.48.77,5.68,5.68,0,0,1,.36.94,2.93,2.93,0,0,1,.15.85,1.7,1.7,0,0,1-.23.94A.74.74,0,0,1,210.7,64.07Z" fill="#fff"/><path d="M31.21,91.05a4.25,4.25,0,0,1-3.8-2.18,4.53,4.53,0,0,1-.57-2.27,4.67,4.67,0,0,1,.55-2.29,4.15,4.15,0,0,1,1.49-1.59,4,4,0,0,1,2.17-.59,4.16,4.16,0,0,1,1.8.39,4.06,4.06,0,0,1,1.45,1.15.44.44,0,0,1,.13.41.69.69,0,0,1-.27.38.51.51,0,0,1-.4.08.57.57,0,0,1-.37-.23,3,3,0,0,0-2.34-1,2.85,2.85,0,0,0-2.63,1.61A3.83,3.83,0,0,0,28,86.6a3.66,3.66,0,0,0,.4,1.71,3.05,3.05,0,0,0,1.12,1.19,3.22,3.22,0,0,0,1.65.43,3.8,3.8,0,0,0,1.15-.17,2.71,2.71,0,0,0,.92-.52.66.66,0,0,1,.4-.18.52.52,0,0,1,.38.13.65.65,0,0,1,.22.4.43.43,0,0,1-.16.38A4.13,4.13,0,0,1,31.21,91.05Z" fill="#fff"/><path d="M37.47,87.4a.6.6,0,0,1-.46-.18.61.61,0,0,1-.17-.45V79.09a.61.61,0,0,1,.17-.45.64.64,0,0,1,.46-.17.6.6,0,0,1,.44.17.61.61,0,0,1,.17.45v7.68a.61.61,0,0,1-.17.45A.57.57,0,0,1,37.47,87.4Zm0,3.57A.64.64,0,0,1,37,90.8a.6.6,0,0,1-.17-.44V82.84a.65.65,0,0,1,.17-.46.64.64,0,0,1,.46-.17.6.6,0,0,1,.44.17.65.65,0,0,1,.17.46v7.52a.58.58,0,0,1-.61.61Zm6.88,0a.61.61,0,0,1-.45-.18.58.58,0,0,1-.18-.43V86.2a3.17,3.17,0,0,0-.37-1.63,2.33,2.33,0,0,0-1-1,3.16,3.16,0,0,0-1.46-.32,3.31,3.31,0,0,0-1.42.3,2.55,2.55,0,0,0-1,.83,2.07,2.07,0,0,0-.36,1.2H37.2a3.46,3.46,0,0,1,.54-1.8,3.62,3.62,0,0,1,1.36-1.24A3.83,3.83,0,0,1,41,82.12a4.37,4.37,0,0,1,2,.47A3.56,3.56,0,0,1,44.44,84,4.51,4.51,0,0,1,45,86.2v4.16a.61.61,0,0,1-.61.61Z" fill="#fff"/><path d="M51.66,91.05a4.58,4.58,0,0,1-2.29-.58,4.13,4.13,0,0,1-1.58-1.58,4.83,4.83,0,0,1,0-4.59,4.09,4.09,0,0,1,1.58-1.59,4.79,4.79,0,0,1,4.57,0,4.16,4.16,0,0,1,1.58,1.59,4.68,4.68,0,0,1,.59,2.3,4.51,4.51,0,0,1-.59,2.29,4.2,4.2,0,0,1-1.58,1.58A4.55,4.55,0,0,1,51.66,91.05Zm0-1.12a3.28,3.28,0,0,0,1.66-.43,3.16,3.16,0,0,0,1.16-1.19,3.54,3.54,0,0,0,.41-1.71,3.61,3.61,0,0,0-.41-1.72,3,3,0,0,0-1.16-1.19,3.42,3.42,0,0,0-3.32,0,3,3,0,0,0-1.16,1.19,3.41,3.41,0,0,0-.43,1.72,3.34,3.34,0,0,0,.43,1.71A3.08,3.08,0,0,0,50,89.5,3.28,3.28,0,0,0,51.66,89.93Z" fill="#fff"/><path d="M67.5,91a.61.61,0,0,1-.58-.4L62.17,79.45a.83.83,0,0,1,0-.72.57.57,0,0,1,.53-.26.6.6,0,0,1,.58.4l4.42,10.56h-.36l4.4-10.53a.74.74,0,0,1,.24-.33.67.67,0,0,1,.39-.1.48.48,0,0,1,.49.28.77.77,0,0,1,0,.63L68.06,90.57a.6.6,0,0,1-.24.31A.59.59,0,0,1,67.5,91Z" fill="#fff"/><path d="M75.52,80.55a.82.82,0,0,1-.61-.25.88.88,0,0,1-.26-.63.77.77,0,0,1,.27-.63.86.86,0,0,1,.61-.23.84.84,0,0,1,.6.23.77.77,0,0,1,.27.63.88.88,0,0,1-.26.63A.84.84,0,0,1,75.52,80.55Zm0,10.42a.61.61,0,0,1-.45-.17.58.58,0,0,1-.17-.46v-7.5a.59.59,0,0,1,.62-.63.6.6,0,0,1,.44.17.65.65,0,0,1,.17.46v7.5a.62.62,0,0,1-.17.46A.6.6,0,0,1,75.53,91Z" fill="#fff"/><path d="M83.24,91.05A4.52,4.52,0,0,1,81,90.48a4,4,0,0,1-1.57-1.58,4.59,4.59,0,0,1-.57-2.3,4.75,4.75,0,0,1,.54-2.31,4,4,0,0,1,1.48-1.58A4.12,4.12,0,0,1,83,82.13a4,4,0,0,1,2.12.56,3.61,3.61,0,0,1,1.4,1.52,4.91,4.91,0,0,1,.5,2.23.53.53,0,0,1-.16.41.6.6,0,0,1-.42.15h-6.8V86h6.93l-.69.5a3.71,3.71,0,0,0-.33-1.66,2.74,2.74,0,0,0-1-1.15A2.79,2.79,0,0,0,83,83.24a3,3,0,0,0-1.6.43,2.91,2.91,0,0,0-1.06,1.19A3.9,3.9,0,0,0,80,86.6a3.39,3.39,0,0,0,.43,1.73,3.13,3.13,0,0,0,1.16,1.18,3.24,3.24,0,0,0,1.69.43,3.37,3.37,0,0,0,1.16-.2,2.87,2.87,0,0,0,.94-.5.6.6,0,0,1,.4-.15.5.5,0,0,1,.38.12.6.6,0,0,1,.22.41.51.51,0,0,1-.18.39,4.43,4.43,0,0,1-1.35.74A4.54,4.54,0,0,1,83.24,91.05ZM81.07,80.82a.71.71,0,0,1-.46-.15.51.51,0,0,1-.18-.41.63.63,0,0,1,.3-.54l1.89-1.25a.58.58,0,0,1,.3-.08.48.48,0,0,1,.18,0l.14,0,1.88,1.25a.63.63,0,0,1,.3.54.5.5,0,0,1-.18.4.6.6,0,0,1-.44.16.56.56,0,0,1-.2,0,.7.7,0,0,1-.19-.1l-1.49-1-1.48,1A.6.6,0,0,1,81.07,80.82Zm1.84,13.49a.8.8,0,0,1-.61-.26.84.84,0,0,1-.26-.62.77.77,0,0,1,.27-.63.86.86,0,0,1,.61-.23.84.84,0,0,1,.6.23.77.77,0,0,1,.27.63.84.84,0,0,1-.26.62A.82.82,0,0,1,82.91,94.31Z" fill="#fff"/><path d="M88.54,83.61a.57.57,0,0,1-.4-.15.51.51,0,0,1-.16-.38.5.5,0,0,1,.16-.39.57.57,0,0,1,.4-.15h4.08a.57.57,0,0,1,.4.15.5.5,0,0,1,.16.39.51.51,0,0,1-.16.38.57.57,0,0,1-.4.15Zm4,7.36a2.93,2.93,0,0,1-1.51-.4A3,3,0,0,1,90,89.47a3.28,3.28,0,0,1-.38-1.59V80.05a.6.6,0,0,1,.17-.44.57.57,0,0,1,.44-.18.61.61,0,0,1,.45.18.6.6,0,0,1,.17.44v7.83a1.87,1.87,0,0,0,.48,1.33,1.59,1.59,0,0,0,1.23.52H93a.52.52,0,0,1,.41.18.64.64,0,0,1,.16.45.55.55,0,0,1-.19.44.72.72,0,0,1-.48.17Z" fill="#fff"/><path d="M101,91a.61.61,0,0,1-.45-.18.64.64,0,0,1-.17-.45V79.09a.6.6,0,0,1,.17-.44.64.64,0,0,1,.93,0l7.65,10V79.09a.57.57,0,0,1,.18-.44.58.58,0,0,1,.45-.18.62.62,0,0,1,.44.18.57.57,0,0,1,.18.44V90.34a.61.61,0,0,1-.18.45.62.62,0,0,1-.44.18.75.75,0,0,1-.26,0,.42.42,0,0,1-.21-.16l-7.66-10.05v9.63a.58.58,0,0,1-.19.45A.6.6,0,0,1,101,91Z" fill="#fff"/><path d="M117.27,91.05a4.19,4.19,0,0,1-2.2-.59,4.3,4.3,0,0,1-1.55-1.59,4.77,4.77,0,0,1,0-4.56,4.33,4.33,0,0,1,1.59-1.59,4.66,4.66,0,0,1,4.54,0,4.38,4.38,0,0,1,1.58,1.59,4.6,4.6,0,0,1,.6,2.29l-.5.38a4,4,0,0,1-.53,2.07,3.93,3.93,0,0,1-1.46,1.46A4,4,0,0,1,117.27,91.05Zm.13-1.12a3.28,3.28,0,0,0,1.66-.43,3.16,3.16,0,0,0,1.15-1.2,3.67,3.67,0,0,0,0-3.41,3.31,3.31,0,0,0-1.15-1.2,3.4,3.4,0,0,0-3.31,0,3.26,3.26,0,0,0-1.16,1.2,3.52,3.52,0,0,0,0,3.41,3.11,3.11,0,0,0,1.16,1.2A3.3,3.3,0,0,0,117.4,89.93Zm3.83,1a.64.64,0,0,1-.45-.17.57.57,0,0,1-.18-.44V87.62l.31-1.26.94.24v3.76a.57.57,0,0,1-.18.44A.6.6,0,0,1,121.23,91Z" fill="#fff"/><path d="M124.87,91a.61.61,0,0,1-.45-.17.6.6,0,0,1-.17-.44V82.84a.64.64,0,0,1,.17-.45.58.58,0,0,1,.45-.18.56.56,0,0,1,.44.18.6.6,0,0,1,.17.45v7.52a.57.57,0,0,1-.17.44A.59.59,0,0,1,124.87,91Zm5.62,0a.64.64,0,0,1-.45-.17.6.6,0,0,1-.17-.44V85.75a2.58,2.58,0,0,0-.6-1.8,1.94,1.94,0,0,0-1.52-.66,2.2,2.2,0,0,0-1.63.64,2.35,2.35,0,0,0-.64,1.69h-.88a4.07,4.07,0,0,1,.46-1.81,3.15,3.15,0,0,1,1.16-1.24,3.31,3.31,0,0,1,3.33,0,3,3,0,0,1,1.14,1.26,4.28,4.28,0,0,1,.41,1.92v4.61a.58.58,0,0,1-.61.61Zm5.59,0a.61.61,0,0,1-.45-.17.57.57,0,0,1-.18-.44V85.75a2.62,2.62,0,0,0-.59-1.8,2,2,0,0,0-1.52-.66,2.18,2.18,0,0,0-1.63.66,2.4,2.4,0,0,0-.61,1.77H130a4.1,4.1,0,0,1,.47-1.89,3.24,3.24,0,0,1,1.23-1.26,3.51,3.51,0,0,1,1.78-.45,3.12,3.12,0,0,1,1.67.45,3.07,3.07,0,0,1,1.13,1.26,4.15,4.15,0,0,1,.41,1.92v4.61a.57.57,0,0,1-.17.44A.58.58,0,0,1,136.08,91Z" fill="#fff"/><path d="M144.71,91a.61.61,0,0,1-.45-.17.6.6,0,0,1-.17-.44V82.84a.64.64,0,0,1,.17-.45.58.58,0,0,1,.45-.18.56.56,0,0,1,.44.18.6.6,0,0,1,.17.45v7.52a.57.57,0,0,1-.17.44A.59.59,0,0,1,144.71,91Zm5.62,0a.64.64,0,0,1-.45-.17.57.57,0,0,1-.17-.44V85.75a2.58,2.58,0,0,0-.6-1.8,1.94,1.94,0,0,0-1.52-.66,2.2,2.2,0,0,0-1.63.64,2.35,2.35,0,0,0-.64,1.69h-.88a4.07,4.07,0,0,1,.46-1.81,3.15,3.15,0,0,1,1.16-1.24,3.31,3.31,0,0,1,3.33,0,3,3,0,0,1,1.14,1.26,4.28,4.28,0,0,1,.41,1.92v4.61a.58.58,0,0,1-.61.61Zm5.58,0a.6.6,0,0,1-.44-.17.57.57,0,0,1-.18-.44V85.75a2.62,2.62,0,0,0-.59-1.8,2,2,0,0,0-1.52-.66,2.18,2.18,0,0,0-1.63.66,2.4,2.4,0,0,0-.61,1.77h-1.11a4.1,4.1,0,0,1,.47-1.89,3.24,3.24,0,0,1,1.23-1.26,3.51,3.51,0,0,1,1.78-.45,3.12,3.12,0,0,1,1.67.45,3.07,3.07,0,0,1,1.13,1.26,4.15,4.15,0,0,1,.41,1.92v4.61a.57.57,0,0,1-.17.44A.59.59,0,0,1,155.91,91Z" fill="#fff"/><path d="M163.23,91.05a4.56,4.56,0,0,1-2.29-.58,4.23,4.23,0,0,1-1.59-1.58,4.91,4.91,0,0,1,0-4.59,4.19,4.19,0,0,1,1.59-1.59,4.79,4.79,0,0,1,4.57,0,4.14,4.14,0,0,1,1.57,1.59,4.57,4.57,0,0,1,.59,2.3,4.51,4.51,0,0,1-.58,2.29,4.28,4.28,0,0,1-1.58,1.58A4.55,4.55,0,0,1,163.23,91.05Zm0-1.12a3.28,3.28,0,0,0,1.66-.43A3.13,3.13,0,0,0,166,88.31a3.44,3.44,0,0,0,.42-1.71,3.51,3.51,0,0,0-.42-1.72,3,3,0,0,0-1.15-1.19,3.19,3.19,0,0,0-1.66-.43,3.22,3.22,0,0,0-1.67.43,3,3,0,0,0-1.16,1.19A3.51,3.51,0,0,0,160,86.6a3.44,3.44,0,0,0,.42,1.71,3.16,3.16,0,0,0,1.16,1.19A3.32,3.32,0,0,0,163.23,89.93Zm1-12a1.33,1.33,0,0,1-.71-.19,2.52,2.52,0,0,1-.54-.4,2.93,2.93,0,0,0-.38-.32.56.56,0,0,0-.34-.12.43.43,0,0,0-.32.16,2.4,2.4,0,0,0-.28.44.58.58,0,0,1-.32.28.47.47,0,0,1-.4,0,.45.45,0,0,1-.29-.28.57.57,0,0,1,0-.44,2.57,2.57,0,0,1,.67-.9,1.36,1.36,0,0,1,.85-.28,1.25,1.25,0,0,1,.74.2,5.53,5.53,0,0,1,.52.41,3.81,3.81,0,0,0,.41.3.45.45,0,0,0,.25.08c.15,0,.28-.13.4-.38a.77.77,0,0,1,.31-.31.5.5,0,0,1,.41,0,.56.56,0,0,1,.35.3.42.42,0,0,1,0,.43,2.18,2.18,0,0,1-.59.81A1.16,1.16,0,0,1,164.2,78Zm-2.8,2.86a.68.68,0,0,1-.45-.15.49.49,0,0,1-.19-.41.62.62,0,0,1,.31-.54L163,78.47a.62.62,0,0,1,.31-.08.47.47,0,0,1,.17,0l.15,0,1.87,1.25a.63.63,0,0,1,.3.54.5.5,0,0,1-.17.4.64.64,0,0,1-.45.16.64.64,0,0,1-.2,0,.54.54,0,0,1-.18-.1l-1.49-1-1.49,1A.6.6,0,0,1,161.4,80.82Z" fill="#fff"/><path d="M170.94,80.55a.82.82,0,0,1-.61-.25.88.88,0,0,1-.26-.63.77.77,0,0,1,.27-.63.86.86,0,0,1,.61-.23.84.84,0,0,1,.6.23.77.77,0,0,1,.27.63.88.88,0,0,1-.26.63A.84.84,0,0,1,170.94,80.55ZM171,91a.61.61,0,0,1-.45-.17.62.62,0,0,1-.17-.46v-7.5a.65.65,0,0,1,.17-.46.61.61,0,0,1,.45-.17.59.59,0,0,1,.44.17.61.61,0,0,1,.17.46v7.5A.58.58,0,0,1,171,91Z" fill="#fff"/><path d="M180,91a.65.65,0,0,1-.46-.17.6.6,0,0,1-.16-.44V82.84a.57.57,0,0,1,.62-.63.6.6,0,0,1,.44.17.65.65,0,0,1,.17.46v7.52A.58.58,0,0,1,180,91Zm6.88,0a.61.61,0,0,1-.45-.18.57.57,0,0,1-.17-.43V86.2a3.17,3.17,0,0,0-.38-1.63,2.36,2.36,0,0,0-1-1,3.5,3.5,0,0,0-2.88,0,2.42,2.42,0,0,0-1,.83,2,2,0,0,0-.37,1.2h-.88a3.46,3.46,0,0,1,.54-1.8,3.69,3.69,0,0,1,1.36-1.24,3.89,3.89,0,0,1,1.89-.46,4.34,4.34,0,0,1,2,.47A3.56,3.56,0,0,1,187,84a4.51,4.51,0,0,1,.52,2.23v4.16a.61.61,0,0,1-.61.61Z" fill="#fff"/><path d="M194.07,91.05a4.36,4.36,0,0,1-2.24-.57,3.92,3.92,0,0,1-1.52-1.58,4.69,4.69,0,0,1-.56-2.3,4.62,4.62,0,0,1,.58-2.32,4.13,4.13,0,0,1,1.58-1.58,4.91,4.91,0,0,1,4.59,0,4.18,4.18,0,0,1,1.57,1.58,4.83,4.83,0,0,1,.58,2.32l-.72.38a4.41,4.41,0,0,1-.5,2.11,3.7,3.7,0,0,1-1.36,1.44A3.92,3.92,0,0,1,194.07,91.05Zm.16,3.37A4.9,4.9,0,0,1,192,94a4.25,4.25,0,0,1-1.58-1.29.48.48,0,0,1,.08-.78.57.57,0,0,1,.46-.1.62.62,0,0,1,.4.24,3.34,3.34,0,0,0,1.19.93,3.78,3.78,0,0,0,1.69.35A3,3,0,0,0,197,91.66a3.89,3.89,0,0,0,.42-1.85V87.38l.47-.92.75.14v3.26a4.63,4.63,0,0,1-.58,2.33,4.29,4.29,0,0,1-1.56,1.63A4.34,4.34,0,0,1,194.23,94.42Zm0-4.49a3.17,3.17,0,0,0,1.67-.43A3,3,0,0,0,197,88.33a3.6,3.6,0,0,0,.41-1.73,3.66,3.66,0,0,0-.41-1.74,3,3,0,0,0-1.15-1.18,3.26,3.26,0,0,0-1.67-.42,3.33,3.33,0,0,0-1.68.42,3,3,0,0,0-1.15,1.18A3.56,3.56,0,0,0,191,86.6a3.49,3.49,0,0,0,.42,1.73,3,3,0,0,0,1.15,1.17A3.23,3.23,0,0,0,194.2,89.93Z" fill="#fff"/><path d="M204.91,91.05a4.2,4.2,0,0,1-2.21-.59,4.3,4.3,0,0,1-1.55-1.59,4.85,4.85,0,0,1,0-4.56,4.33,4.33,0,0,1,1.59-1.59,4.66,4.66,0,0,1,4.54,0,4.38,4.38,0,0,1,1.58,1.59,4.6,4.6,0,0,1,.6,2.29L209,87a4,4,0,0,1-.54,2.07A3.93,3.93,0,0,1,207,90.51,4,4,0,0,1,204.91,91.05Zm.12-1.12a3.28,3.28,0,0,0,1.66-.43,3.09,3.09,0,0,0,1.15-1.2,3.6,3.6,0,0,0,0-3.41,3.23,3.23,0,0,0-1.15-1.2,3.38,3.38,0,0,0-3.3,0,3.28,3.28,0,0,0-1.17,1.2,3.6,3.6,0,0,0,0,3.41,3.14,3.14,0,0,0,1.17,1.2A3.26,3.26,0,0,0,205,89.93Zm0-9.14a.61.61,0,0,1-.42-.17l-1.81-1.8a.69.69,0,0,1-.16-.43.65.65,0,0,1,.18-.46.58.58,0,0,1,.43-.18.61.61,0,0,1,.45.19l1.79,1.81a.48.48,0,0,1,.16.4.69.69,0,0,1-.17.46A.61.61,0,0,1,205,80.79ZM208.86,91a.64.64,0,0,1-.45-.17.57.57,0,0,1-.18-.44V87.62l.31-1.26.94.24v3.76a.6.6,0,0,1-.17.44A.64.64,0,0,1,208.86,91Z" fill="#fff"/><path d="M215.16,90.69a.56.56,0,0,1-.45,0,.58.58,0,0,1-.33-.31L210.81,83a.55.55,0,0,1,0-.45.59.59,0,0,1,.32-.32.6.6,0,0,1,.45,0,.62.62,0,0,1,.32.32l3.5,7.39a.68.68,0,0,1,.08.45A.46.46,0,0,1,215.16,90.69Zm-1.77,4.08a.79.79,0,0,1-.29-.06.52.52,0,0,1-.31-.77L218,82.55a.53.53,0,0,1,.77-.29.49.49,0,0,1,.3.75l-5.18,11.4A.51.51,0,0,1,213.39,94.77Z" fill="#fff"/><text transform="translate(28.5 52.95)" font-size="20" fill="#fff" font-family="Bungee-Regular, Bungee">Cậ<tspan x="27.16" y="0" letter-spacing="-0.01em">p</tspan><tspan x="40.6" y="0" xml:space="preserve"> nh</tspan><tspan x="75.34" y="0" letter-spacing="-0.04em">ậ</tspan><tspan x="89.14" y="0" letter-spacing="-0.01em">t</tspan><tspan x="102.06" y="0"> </tspan><tspan x="106.56" y="0" letter-spacing="-0.01em">s</tspan><tspan x="119.36" y="0" letter-spacing="-0.04em">ta</tspan><tspan x="145.48" y="0" letter-spacing="0em">tus</tspan></text></g></g></svg>