<svg xmlns="http://www.w3.org/2000/svg" viewBox="0 0 236.2 135.26"><title>m_06_1</title><g id="Layer_2" data-name="Layer 2"><g id="bubble_talk" data-name="bubble talk"><path d="M137.32,134.26c-21,0-29.29-13.3-35-27.85-5.07.12-10,.18-14.51.18-31.1,0-52-2.74-65.66-8.6C7.91,91.9,1,82,1,67.79,1,41,4.32,22.3,20.85,12.23,36.35,2.79,62.49,1,105.3,1l7.4,0c65.65.28,95.15,1.33,106.56,23,7.08,13.45,5.68,25.69,4.44,36.48-.42,3.7-.82,7.19-.86,10.52v.23c0,.71,0,1.42-.07,2.12-1.46,21-17.46,32.32-97.74,32.42a.35.35,0,0,0-.14,0c-1,1.47,6.12,15.42,16.92,26.59a1,1,0,0,1,.22,1.05,1,1,0,0,1-.86.64C139.86,134.21,138.56,134.26,137.32,134.26Z" fill="#ec5c89"/><path d="M105.31,2l7.39,0c63.91.28,94.44,1.11,105.68,22.48C227.7,42.23,222,57.85,221.84,71c0,.77,0,1.54-.06,2.3C220.43,92.66,207,104.7,125,104.81c-4.86,0,6.25,18.16,16.06,28.3-1.3.1-2.56.15-3.77.15-21.11,0-29-14.17-34.35-27.87q-7.93.19-15.19.2C28.1,105.59,2,95.47,2,67.79,2,9.62,19.21,2,105.31,2m0-2c-43,0-69.29,1.81-85,11.37C3.4,21.69,0,40.61,0,67.79,0,82.47,7.11,92.64,21.72,98.9c13.83,5.93,34.82,8.69,66.06,8.69,4.36,0,9-.06,13.84-.17,5.62,14,14.42,27.84,35.7,27.84,1.27,0,2.59,0,3.92-.15a2,2,0,0,0,1.72-1.29,2,2,0,0,0-.43-2.1c-9.34-9.66-15.92-21.49-16.62-24.91,80.3-.19,96.36-11.88,97.86-33.35,0-.74.06-1.46.07-2.15v-.26c0-3.28.44-6.75.85-10.41,1.26-10.94,2.67-23.34-4.54-37.07-5.71-10.85-16.36-17.08-34.52-20.19C168.65.47,145.73.16,112.71,0l-7.4,0Z"/><path d="M141.09,134.11l-.25,0C125,130,120,128.14,114.33,113.87c-5.17.12-10.14.18-14.79.18-31.27,0-52.33-2.7-66.3-8.5C18.6,99.47,11.49,89.63,11.49,75.47c0-26.84,3.32-45.49,19.85-55.56C46.84,10.47,73,8.68,115.8,8.68l7.39,0c65.65.28,95.15,1.32,106.56,23,7.07,13.45,5.67,25.68,4.44,36.48-.42,3.7-.82,7.19-.86,10.51V79c0,.7,0,1.4-.06,2.1-1.46,21-17.47,32.32-97.74,32.42a1.66,1.66,0,0,0-1.63,1.16c-1.17,2.76.51,10.11,7.92,17.77a1,1,0,0,1-.72,1.69Z" fill="#897dff"/><path d="M115.79,9.68l7.39,0c63.91.28,94.44,1.11,105.68,22.48,9.33,17.73,3.62,33.35,3.47,46.52,0,.77,0,1.54-.07,2.3-1.35,19.34-14.8,31.38-96.74,31.49-4.86,0-4.24,10.48,5.57,20.62-15.74-4-20.46-5.77-26.09-20.25q-8.06.19-15.46.19c-59.7,0-87.05-9.94-87.05-37.58,0-58.17,17.21-65.79,103.3-65.79m0-2c-43,0-69.28,1.81-85,11.37C13.89,29.36,10.49,48.28,10.49,75.47c0,14.61,7.32,24.75,22.37,31,14.09,5.86,35.28,8.59,66.68,8.59,4.45,0,9.19-.06,14.12-.17C119.4,129,124.93,131,140.59,135.05a2.2,2.2,0,0,0,.5.06,2,2,0,0,0,1.44-3.39c-7.69-8-8.52-14.79-7.72-16.68.22-.51.44-.55.71-.55,81.06-.11,97.24-11.8,98.74-33.35.05-.74.06-1.46.06-2.16v-.25c0-3.28.43-6.75.85-10.42,1.25-10.94,2.67-23.33-4.55-37.06-5.71-10.85-16.35-17.08-34.52-20.19-17-2.91-39.89-3.22-72.92-3.36l-7.4,0Z"/><path d="M31.52,67.87a4.25,4.25,0,0,1-3.8-2.18,4.53,4.53,0,0,1-.57-2.27,4.67,4.67,0,0,1,.55-2.29,4.15,4.15,0,0,1,1.49-1.59A4,4,0,0,1,31.36,59a4.07,4.07,0,0,1,3.25,1.54.44.44,0,0,1,.13.41.69.69,0,0,1-.27.38.51.51,0,0,1-.4.08.57.57,0,0,1-.37-.23,3,3,0,0,0-2.34-1.06,2.88,2.88,0,0,0-2.63,1.62,3.83,3.83,0,0,0-.38,1.73,3.66,3.66,0,0,0,.4,1.71,3.05,3.05,0,0,0,1.12,1.19,3.22,3.22,0,0,0,1.65.43,3.8,3.8,0,0,0,1.15-.17,2.71,2.71,0,0,0,.92-.52.66.66,0,0,1,.4-.18.52.52,0,0,1,.38.13.65.65,0,0,1,.22.4.43.43,0,0,1-.16.38A4.11,4.11,0,0,1,31.52,67.87Z" fill="#fff"/><path d="M41,67.87a4.22,4.22,0,0,1-2.21-.59,4.27,4.27,0,0,1-1.54-1.59,4.53,4.53,0,0,1-.57-2.27,4.48,4.48,0,0,1,.58-2.29,4.28,4.28,0,0,1,1.6-1.59,4.64,4.64,0,0,1,4.53,0A4.33,4.33,0,0,1,45,61.13a4.81,4.81,0,0,1,.6,2.29l-.5.38a4,4,0,0,1-.54,2.07,3.91,3.91,0,0,1-1.45,1.46A4.07,4.07,0,0,1,41,67.87Zm.13-1.12a3.22,3.22,0,0,0,1.65-.43A3.18,3.18,0,0,0,44,65.12a3.67,3.67,0,0,0,0-3.41,3.23,3.23,0,0,0-1.16-1.19,3,3,0,0,0-1.65-.45,3.1,3.1,0,0,0-1.65.45,3.26,3.26,0,0,0-1.17,1.19,3.6,3.6,0,0,0,0,3.41,3.21,3.21,0,0,0,1.17,1.2A3.27,3.27,0,0,0,41.14,66.75Zm-.11-9a.56.56,0,0,1-.44-.19.58.58,0,0,1-.19-.44.56.56,0,0,1,.15-.41l1.8-1.81a.59.59,0,0,1,.44-.18.55.55,0,0,1,.44.19.61.61,0,0,1,.18.45.62.62,0,0,1,0,.23.43.43,0,0,1-.14.19l-1.79,1.81A.58.58,0,0,1,41,57.71ZM45,67.79a.64.64,0,0,1-.45-.17.6.6,0,0,1-.17-.44V64.44l.3-1.26,1,.24v3.76a.57.57,0,0,1-.18.44A.64.64,0,0,1,45,67.79Z" fill="#fff"/><path d="M51.89,67.87a4.25,4.25,0,0,1-3.8-2.18,4.53,4.53,0,0,1-.57-2.27,4.67,4.67,0,0,1,.55-2.29,4.12,4.12,0,0,1,1.48-1.59A4.07,4.07,0,0,1,51.73,59,4.07,4.07,0,0,1,55,60.49a.47.47,0,0,1,.13.41.72.72,0,0,1-.28.38.48.48,0,0,1-.39.08.57.57,0,0,1-.37-.23,3,3,0,0,0-2.34-1.06,2.85,2.85,0,0,0-2.63,1.62,3.83,3.83,0,0,0-.38,1.73,3.54,3.54,0,0,0,.4,1.71,3.05,3.05,0,0,0,1.12,1.19,3.22,3.22,0,0,0,1.65.43A3.69,3.69,0,0,0,53,66.58a2.53,2.53,0,0,0,.92-.52.69.69,0,0,1,.4-.18.53.53,0,0,1,.39.13.63.63,0,0,1,.21.4.4.4,0,0,1-.15.38A4.13,4.13,0,0,1,51.89,67.87Z" fill="#fff"/><path d="M62.83,64.22a.58.58,0,0,1-.45-.18.6.6,0,0,1-.17-.44V55.91a.58.58,0,0,1,.62-.62.6.6,0,0,1,.44.17.57.57,0,0,1,.17.45V63.6a.57.57,0,0,1-.17.44A.57.57,0,0,1,62.83,64.22Zm0,3.57a.61.61,0,0,1-.45-.17.6.6,0,0,1-.17-.44V59.66a.65.65,0,0,1,.17-.46.61.61,0,0,1,.45-.17.6.6,0,0,1,.44.17.61.61,0,0,1,.17.46v7.52a.57.57,0,0,1-.17.44A.6.6,0,0,1,62.83,67.79Zm6.88,0a.57.57,0,0,1-.44-.18.58.58,0,0,1-.18-.43V63a3.17,3.17,0,0,0-.38-1.63,2.36,2.36,0,0,0-1-1,3.16,3.16,0,0,0-1.46-.32,3.25,3.25,0,0,0-1.42.3,2.49,2.49,0,0,0-1,.83,2,2,0,0,0-.37,1.2h-.88a3.38,3.38,0,0,1,.55-1.8,3.54,3.54,0,0,1,1.36-1.24,3.82,3.82,0,0,1,1.88-.46,4.38,4.38,0,0,1,2,.47,3.59,3.59,0,0,1,1.41,1.38A4.41,4.41,0,0,1,70.32,63v4.16a.61.61,0,0,1-.17.43A.6.6,0,0,1,69.71,67.79Z" fill="#fff"/><path d="M77,67.87a4.46,4.46,0,0,1-2.29-.58,4.23,4.23,0,0,1-1.59-1.58,4.6,4.6,0,0,1-.57-2.29,4.65,4.65,0,0,1,.57-2.31,4.23,4.23,0,0,1,1.59-1.58A4.56,4.56,0,0,1,77,59a4.48,4.48,0,0,1,2.27.58,4.13,4.13,0,0,1,1.58,1.58,4.77,4.77,0,0,1,.59,2.31,4.51,4.51,0,0,1-.58,2.29,4.23,4.23,0,0,1-1.59,1.58A4.38,4.38,0,0,1,77,67.87Zm0-1.12a3.31,3.31,0,0,0,1.66-.43,3.13,3.13,0,0,0,1.15-1.19,3.44,3.44,0,0,0,.42-1.71,3.51,3.51,0,0,0-.42-1.72,3,3,0,0,0-1.15-1.19,3.37,3.37,0,0,0-3.33,0A3,3,0,0,0,74.2,61.7a3.51,3.51,0,0,0-.42,1.72,3.44,3.44,0,0,0,.42,1.71,3.16,3.16,0,0,0,1.16,1.19A3.32,3.32,0,0,0,77,66.75Z" fill="#fff"/><path d="M87.73,67.87a4.22,4.22,0,0,1-2.21-.59A4.27,4.27,0,0,1,84,65.69a4.53,4.53,0,0,1-.57-2.27A4.48,4.48,0,0,1,84,61.13a4.33,4.33,0,0,1,1.59-1.59A4.48,4.48,0,0,1,87.86,59a4.4,4.4,0,0,1,2.26.59,4.23,4.23,0,0,1,1.58,1.59,4.6,4.6,0,0,1,.6,2.29l-.49.38a4,4,0,0,1-2,3.53A4.07,4.07,0,0,1,87.73,67.87Zm.13-1.12a3.22,3.22,0,0,0,1.65-.43,3.09,3.09,0,0,0,1.15-1.2,3.6,3.6,0,0,0,0-3.41,3.13,3.13,0,0,0-1.15-1.19,3,3,0,0,0-1.65-.45,3.1,3.1,0,0,0-1.65.45A3.26,3.26,0,0,0,85,61.71a3.6,3.6,0,0,0,0,3.41,3.21,3.21,0,0,0,1.17,1.2A3.27,3.27,0,0,0,87.86,66.75Zm0,4.38a.81.81,0,0,1-.61-.26.83.83,0,0,1-.25-.62.77.77,0,0,1,.26-.63.89.89,0,0,1,.62-.23.87.87,0,0,1,.6.23.89.89,0,0,1-.62,1.51Zm3.84-3.34a.64.64,0,0,1-.45-.17.57.57,0,0,1-.17-.44V64.44l.3-1.26.94.24v3.76a.57.57,0,0,1-.17.44A.64.64,0,0,1,91.68,67.79Z" fill="#fff"/><path d="M94.14,60.43a.57.57,0,0,1-.4-.15.55.55,0,0,1-.16-.38.53.53,0,0,1,.16-.39.57.57,0,0,1,.4-.15h4.08a.55.55,0,0,1,.4.15.5.5,0,0,1,.16.39.51.51,0,0,1-.16.38.55.55,0,0,1-.4.15Zm4,7.36a2.91,2.91,0,0,1-1.51-.4,2.85,2.85,0,0,1-1.05-1.1,3.18,3.18,0,0,1-.39-1.59V56.87a.6.6,0,0,1,.17-.44.57.57,0,0,1,.44-.18.61.61,0,0,1,.45.18.57.57,0,0,1,.18.44V64.7A1.87,1.87,0,0,0,96.9,66a1.6,1.6,0,0,0,1.23.53h.43a.54.54,0,0,1,.42.17.69.69,0,0,1,.16.45.56.56,0,0,1-.2.44.69.69,0,0,1-.48.17Z" fill="#fff"/><path d="M109.81,67.87a4.44,4.44,0,0,1-2.27-.59,4.28,4.28,0,0,1-1.6-1.59,4.46,4.46,0,0,1-.58-2.29,4.53,4.53,0,0,1,.57-2.27,4.27,4.27,0,0,1,1.54-1.59,4.22,4.22,0,0,1,2.21-.59,4.17,4.17,0,0,1,1.94.46A4,4,0,0,1,113,60.62V55.91a.61.61,0,0,1,.17-.45.68.68,0,0,1,.9,0,.58.58,0,0,1,.18.45v7.56a4.62,4.62,0,0,1-.62,2.25,4.33,4.33,0,0,1-1.58,1.57A4.39,4.39,0,0,1,109.81,67.87Zm0-1.12a3.13,3.13,0,0,0,1.65-.44,3.26,3.26,0,0,0,1.16-1.2,3.67,3.67,0,0,0,0-3.41,3.09,3.09,0,0,0-1.16-1.19,3.13,3.13,0,0,0-1.65-.44,3.18,3.18,0,0,0-1.65.44A3.11,3.11,0,0,0,107,61.7a3.6,3.6,0,0,0,0,3.41,3.29,3.29,0,0,0,1.17,1.2A3.18,3.18,0,0,0,109.81,66.75Zm.62-8.9a.6.6,0,0,1-.42-.15.5.5,0,0,1-.17-.38A.45.45,0,0,1,110,57a.64.64,0,0,1,.42-.14h4.66a.68.68,0,0,1,.44.14.45.45,0,0,1,.17.37.5.5,0,0,1-.17.38.63.63,0,0,1-.44.15Z" fill="#fff"/><path d="M121.12,67.87a4.48,4.48,0,0,1-2.29-.58,4.13,4.13,0,0,1-1.58-1.58,4.51,4.51,0,0,1-.58-2.29,4.56,4.56,0,0,1,.58-2.31,4.13,4.13,0,0,1,1.58-1.58,4.79,4.79,0,0,1,4.57,0A4.2,4.2,0,0,1,125,61.11a4.77,4.77,0,0,1,.59,2.31,4.51,4.51,0,0,1-.59,2.29,4.2,4.2,0,0,1-1.58,1.58A4.44,4.44,0,0,1,121.12,67.87Zm0-1.12a3.28,3.28,0,0,0,1.66-.43,3.16,3.16,0,0,0,1.16-1.19,3.54,3.54,0,0,0,.41-1.71,3.61,3.61,0,0,0-.41-1.72,3,3,0,0,0-1.16-1.19,3.35,3.35,0,0,0-3.32,0,3,3,0,0,0-1.16,1.19,3.41,3.41,0,0,0-.43,1.72,3.34,3.34,0,0,0,.43,1.71,3.16,3.16,0,0,0,1.16,1.19A3.28,3.28,0,0,0,121.12,66.75Zm-1.86-9.11a.68.68,0,0,1-.45-.15.52.52,0,0,1-.19-.41.65.65,0,0,1,.31-.54l1.89-1.25a.56.56,0,0,1,.3-.08.57.57,0,0,1,.18,0l.14,0,1.87,1.25a.65.65,0,0,1,.31.54.5.5,0,0,1-.18.4.64.64,0,0,1-.45.16.64.64,0,0,1-.2,0,.76.76,0,0,1-.18-.09l-1.49-1-1.49,1A.65.65,0,0,1,119.26,57.64Zm1.84,13.49a.79.79,0,0,1-.6-.26.88.88,0,0,1,0-1.25.9.9,0,0,1,.62-.23.87.87,0,0,1,.6.23.77.77,0,0,1,.26.63.87.87,0,0,1-.88.88Z" fill="#fff"/><path d="M128.59,67.79a.61.61,0,0,1-.45-.17.57.57,0,0,1-.17-.44V59.66a.59.59,0,0,1,.62-.63.6.6,0,0,1,.44.17.65.65,0,0,1,.17.46v7.52a.58.58,0,0,1-.61.61Zm6.88,0a.6.6,0,0,1-.62-.61V63a3.17,3.17,0,0,0-.38-1.63,2.36,2.36,0,0,0-1-1,3.18,3.18,0,0,0-1.47-.32,3.24,3.24,0,0,0-1.41.3,2.49,2.49,0,0,0-1,.83,2,2,0,0,0-.37,1.2h-.88a3.46,3.46,0,0,1,.54-1.8,3.61,3.61,0,0,1,1.36-1.24,3.89,3.89,0,0,1,1.89-.46,4.31,4.31,0,0,1,2,.47,3.56,3.56,0,0,1,1.42,1.38,4.41,4.41,0,0,1,.52,2.23v4.16a.58.58,0,0,1-.18.43A.57.57,0,0,1,135.47,67.79Z" fill="#fff"/><path d="M142.66,67.87a4.34,4.34,0,0,1-2.24-.57,3.94,3.94,0,0,1-1.53-1.58,4.69,4.69,0,0,1-.55-2.3,4.61,4.61,0,0,1,.57-2.32,4.16,4.16,0,0,1,1.59-1.58,4.89,4.89,0,0,1,4.58,0,4.11,4.11,0,0,1,1.57,1.58,4.72,4.72,0,0,1,.58,2.32l-.72.38a4.41,4.41,0,0,1-.49,2.11,3.8,3.8,0,0,1-1.37,1.44A3.88,3.88,0,0,1,142.66,67.87Zm.16,3.37a4.91,4.91,0,0,1-2.23-.47A4.25,4.25,0,0,1,139,69.48a.5.5,0,0,1,.08-.78.58.58,0,0,1,.46-.1.68.68,0,0,1,.4.24,3.34,3.34,0,0,0,1.19.93,3.78,3.78,0,0,0,1.69.35,3,3,0,0,0,2.76-1.64,3.88,3.88,0,0,0,.43-1.84V64.2l.46-.92.75.14v3.26a4.73,4.73,0,0,1-.57,2.33,4.39,4.39,0,0,1-1.57,1.63A4.3,4.3,0,0,1,142.82,71.24Zm0-4.49a3.23,3.23,0,0,0,1.68-.43,3.05,3.05,0,0,0,1.14-1.17,3.49,3.49,0,0,0,.42-1.73,3.56,3.56,0,0,0-.42-1.74,3.08,3.08,0,0,0-1.14-1.18,3.5,3.5,0,0,0-3.36,0A3,3,0,0,0,140,61.68a3.55,3.55,0,0,0-.41,1.74,3.49,3.49,0,0,0,.41,1.73,3,3,0,0,0,1.15,1.17A3.23,3.23,0,0,0,142.78,66.75Z" fill="#fff"/><path d="M153.76,60.43a.57.57,0,0,1-.4-.15.51.51,0,0,1-.16-.38.5.5,0,0,1,.16-.39.57.57,0,0,1,.4-.15h4.08a.57.57,0,0,1,.4.15.5.5,0,0,1,.16.39.51.51,0,0,1-.16.38.57.57,0,0,1-.4.15Zm4,7.36a2.93,2.93,0,0,1-1.51-.4,3,3,0,0,1-1-1.1,3.28,3.28,0,0,1-.38-1.59V56.87a.6.6,0,0,1,.17-.44.57.57,0,0,1,.44-.18.61.61,0,0,1,.45.18.6.6,0,0,1,.17.44V64.7a1.87,1.87,0,0,0,.48,1.33,1.6,1.6,0,0,0,1.23.53h.44a.52.52,0,0,1,.41.17.64.64,0,0,1,.16.45.55.55,0,0,1-.19.44.72.72,0,0,1-.48.17Z" fill="#fff"/><path d="M164.61,67.87a4.21,4.21,0,0,1-3.75-2.18,4.53,4.53,0,0,1-.57-2.27,4.48,4.48,0,0,1,.58-2.29,4.33,4.33,0,0,1,1.59-1.59,4.48,4.48,0,0,1,2.28-.59,4.4,4.4,0,0,1,2.26.59,4.3,4.3,0,0,1,1.58,1.59,4.6,4.6,0,0,1,.6,2.29l-.49.38a4,4,0,0,1-2,3.53A4.07,4.07,0,0,1,164.61,67.87Zm.13-1.12a3.25,3.25,0,0,0,1.65-.43,3.09,3.09,0,0,0,1.15-1.2,3.6,3.6,0,0,0,0-3.41,3.13,3.13,0,0,0-1.15-1.19,3.25,3.25,0,0,0-3.3,0,3.26,3.26,0,0,0-1.17,1.19,3.6,3.6,0,0,0,0,3.41,3.21,3.21,0,0,0,1.17,1.2A3.27,3.27,0,0,0,164.74,66.75Zm-.12-9a.59.59,0,0,1-.44-.19.65.65,0,0,1,0-.85L166,54.86a.62.62,0,0,1,.88,0,.61.61,0,0,1,.18.45.93.93,0,0,1,0,.23.43.43,0,0,1-.14.19L165,57.55A.61.61,0,0,1,164.62,57.71Zm3.94,10.08a.64.64,0,0,1-.45-.17.57.57,0,0,1-.17-.44V64.44l.3-1.26.94.24v3.76a.6.6,0,0,1-.17.44A.64.64,0,0,1,168.56,67.79Z" fill="#fff"/><path d="M172.45,57.37a.8.8,0,0,1-.61-.26.82.82,0,0,1-.26-.62.77.77,0,0,1,.27-.63.86.86,0,0,1,.61-.23.84.84,0,0,1,.6.23.77.77,0,0,1,.27.63.89.89,0,0,1-.88.88Zm0,10.42a.61.61,0,0,1-.45-.17.62.62,0,0,1-.17-.46v-7.5a.65.65,0,0,1,.17-.46.61.61,0,0,1,.45-.17.6.6,0,0,1,.44.17.61.61,0,0,1,.17.46v7.5a.58.58,0,0,1-.17.46A.6.6,0,0,1,172.46,67.79Z" fill="#fff"/><path d="M184.8,67.87a4.34,4.34,0,0,1-2.25-.59A4.23,4.23,0,0,1,181,65.69a4.53,4.53,0,0,1-.57-2.27,4.78,4.78,0,0,1,.54-2.29,4.22,4.22,0,0,1,1.49-1.59,4.07,4.07,0,0,1,2.18-.59,4.07,4.07,0,0,1,3.25,1.54.43.43,0,0,1,.12.41.65.65,0,0,1-.27.38.49.49,0,0,1-.39.08.62.62,0,0,1-.38-.23,3,3,0,0,0-2.33-1.06A2.85,2.85,0,0,0,182,61.69a3.83,3.83,0,0,0-.38,1.73,3.54,3.54,0,0,0,.4,1.71,3.05,3.05,0,0,0,1.12,1.19,3.22,3.22,0,0,0,1.65.43,3.74,3.74,0,0,0,1.14-.17,2.53,2.53,0,0,0,.92-.52.69.69,0,0,1,.4-.18.53.53,0,0,1,.39.13.59.59,0,0,1,.21.4.4.4,0,0,1-.15.38A4.13,4.13,0,0,1,184.8,67.87Z" fill="#fff"/><path d="M191.05,64.22a.58.58,0,0,1-.45-.18.6.6,0,0,1-.17-.44V55.91a.58.58,0,0,1,.62-.62.59.59,0,0,1,.44.17.57.57,0,0,1,.17.45V63.6a.57.57,0,0,1-.17.44A.56.56,0,0,1,191.05,64.22Zm0,3.57a.61.61,0,0,1-.45-.17.6.6,0,0,1-.17-.44V59.66a.65.65,0,0,1,.17-.46.61.61,0,0,1,.45-.17.59.59,0,0,1,.44.17.61.61,0,0,1,.17.46v7.52a.57.57,0,0,1-.17.44A.59.59,0,0,1,191.05,67.79Zm6.88,0a.57.57,0,0,1-.44-.18.58.58,0,0,1-.18-.43V63a3.07,3.07,0,0,0-.38-1.63,2.36,2.36,0,0,0-1-1,3.16,3.16,0,0,0-1.46-.32,3.25,3.25,0,0,0-1.42.3,2.55,2.55,0,0,0-1,.83,2,2,0,0,0-.37,1.2h-.88a3.47,3.47,0,0,1,.55-1.8,3.54,3.54,0,0,1,1.36-1.24,3.82,3.82,0,0,1,1.88-.46,4.38,4.38,0,0,1,2,.47A3.53,3.53,0,0,1,198,60.79a4.41,4.41,0,0,1,.52,2.23v4.16a.61.61,0,0,1-.17.43A.59.59,0,0,1,197.93,67.79Z" fill="#fff"/><path d="M205.23,67.87a4.59,4.59,0,0,1-2.3-.57,4,4,0,0,1-1.56-1.58,4.59,4.59,0,0,1-.57-2.3,4.86,4.86,0,0,1,.53-2.31,4.1,4.1,0,0,1,1.48-1.58A4.15,4.15,0,0,1,205,59a4,4,0,0,1,2.12.56,3.68,3.68,0,0,1,1.4,1.52,4.91,4.91,0,0,1,.5,2.23.57.57,0,0,1-.16.41.6.6,0,0,1-.42.15h-6.8v-1h6.93l-.69.5a3.58,3.58,0,0,0-.34-1.66,2.61,2.61,0,0,0-1-1.15,2.75,2.75,0,0,0-1.54-.42,2.84,2.84,0,0,0-2.66,1.62,3.9,3.9,0,0,0-.38,1.74,3.49,3.49,0,0,0,.42,1.73,3.2,3.2,0,0,0,1.16,1.18,3.31,3.31,0,0,0,1.7.43,3.41,3.41,0,0,0,1.16-.2,2.87,2.87,0,0,0,.94-.5.59.59,0,0,1,.4-.15.51.51,0,0,1,.38.12.6.6,0,0,1,.22.41.49.49,0,0,1-.19.39,4.37,4.37,0,0,1-1.34.74A4.58,4.58,0,0,1,205.23,67.87Zm-2.18-10.23a.68.68,0,0,1-.45-.15.52.52,0,0,1-.19-.41.65.65,0,0,1,.31-.54l1.89-1.25a.56.56,0,0,1,.3-.08.57.57,0,0,1,.18,0l.14,0,1.87,1.25a.65.65,0,0,1,.31.54.5.5,0,0,1-.18.4.64.64,0,0,1-.45.16.64.64,0,0,1-.2,0,.76.76,0,0,1-.18-.09l-1.49-1-1.49,1A.65.65,0,0,1,203.05,57.64ZM206.33,55a.6.6,0,0,1-.62-.62.68.68,0,0,1,.14-.42l1.81-1.8a.58.58,0,0,1,.43-.18.59.59,0,0,1,.46.18.69.69,0,0,1,.17.46.85.85,0,0,1,0,.22.38.38,0,0,1-.14.19l-1.79,1.81A.55.55,0,0,1,206.33,55Z" fill="#fff"/><path d="M45.63,85.87a4.29,4.29,0,0,1-2.25-.59,4.15,4.15,0,0,1-1.55-1.59,4.53,4.53,0,0,1-.57-2.27,4.78,4.78,0,0,1,.54-2.29,4.15,4.15,0,0,1,1.49-1.59A4,4,0,0,1,45.47,77a4,4,0,0,1,3.24,1.54.44.44,0,0,1,.13.41.65.65,0,0,1-.27.38.49.49,0,0,1-.39.08.59.59,0,0,1-.38-.23,3,3,0,0,0-2.33-1.06,2.88,2.88,0,0,0-2.64,1.62,3.83,3.83,0,0,0-.37,1.73,3.54,3.54,0,0,0,.4,1.71A3,3,0,0,0,44,84.32a3.22,3.22,0,0,0,1.65.43,3.78,3.78,0,0,0,1.14-.17,2.62,2.62,0,0,0,.92-.52.69.69,0,0,1,.4-.18.49.49,0,0,1,.38.13.65.65,0,0,1,.22.4.4.4,0,0,1-.15.38A4.13,4.13,0,0,1,45.63,85.87Z" fill="#fff"/><path d="M51.88,82.22a.58.58,0,0,1-.45-.18.57.57,0,0,1-.17-.44V73.91a.57.57,0,0,1,.17-.45.61.61,0,0,1,.45-.17.6.6,0,0,1,.44.17.61.61,0,0,1,.17.45V81.6a.6.6,0,0,1-.17.44A.57.57,0,0,1,51.88,82.22Zm0,3.57a.61.61,0,0,1-.45-.17.57.57,0,0,1-.17-.44V77.66a.59.59,0,0,1,.62-.63.6.6,0,0,1,.44.17.65.65,0,0,1,.17.46v7.52a.58.58,0,0,1-.61.61Zm6.88,0a.6.6,0,0,1-.62-.61V81a3.17,3.17,0,0,0-.38-1.63,2.36,2.36,0,0,0-1-1,3.18,3.18,0,0,0-1.47-.32,3.24,3.24,0,0,0-1.41.3,2.49,2.49,0,0,0-1,.83,2,2,0,0,0-.37,1.2h-.88a3.46,3.46,0,0,1,.54-1.8,3.61,3.61,0,0,1,1.36-1.24,3.89,3.89,0,0,1,1.89-.46,4.31,4.31,0,0,1,2,.47,3.56,3.56,0,0,1,1.42,1.38A4.41,4.41,0,0,1,59.37,81v4.16a.58.58,0,0,1-.18.43A.57.57,0,0,1,58.76,85.79Z" fill="#fff"/><path d="M66,85.87a4.2,4.2,0,0,1-2.21-.59,4.3,4.3,0,0,1-1.55-1.59,4.85,4.85,0,0,1,0-4.56,4.33,4.33,0,0,1,1.59-1.59,4.66,4.66,0,0,1,4.54,0,4.38,4.38,0,0,1,1.58,1.59,4.6,4.6,0,0,1,.6,2.29L70,81.8a4,4,0,0,1-.54,2.07A3.93,3.93,0,0,1,68,85.33,4,4,0,0,1,66,85.87Zm.12-1.12a3.28,3.28,0,0,0,1.66-.43,3.16,3.16,0,0,0,1.15-1.2,3.6,3.6,0,0,0,0-3.41,3.2,3.2,0,0,0-1.15-1.19,3.25,3.25,0,0,0-3.3,0,3.18,3.18,0,0,0-1.17,1.19,3.52,3.52,0,0,0,0,3.41,3.14,3.14,0,0,0,1.17,1.2A3.26,3.26,0,0,0,66.07,84.75Zm3.83,1a.64.64,0,0,1-.45-.17.57.57,0,0,1-.18-.44V82.44l.31-1.26.94.24v3.76a.6.6,0,0,1-.17.44A.64.64,0,0,1,69.9,85.79Z" fill="#fff"/><path d="M73.78,75.37a.79.79,0,0,1-.6-.26.82.82,0,0,1-.26-.62.77.77,0,0,1,.27-.63.91.91,0,0,1,1.21,0,.77.77,0,0,1,.26.63.81.81,0,0,1-.25.62A.82.82,0,0,1,73.78,75.37Zm0,10.42a.65.65,0,0,1-.46-.17.61.61,0,0,1-.16-.46v-7.5A.57.57,0,0,1,73.8,77a.6.6,0,0,1,.44.17.65.65,0,0,1,.17.46v7.5a.62.62,0,0,1-.17.46A.6.6,0,0,1,73.8,85.79Z" fill="#fff"/><path d="M77.34,87a.6.6,0,0,1-.56-.87l5-12.53a.49.49,0,0,1,.22-.27.65.65,0,0,1,.36-.1.54.54,0,0,1,.51.28.74.74,0,0,1,0,.6l-5,12.54a.46.46,0,0,1-.24.27A.64.64,0,0,1,77.34,87Z" fill="#fff"/><path d="M85.67,82.22a.58.58,0,0,1-.45-.18.57.57,0,0,1-.17-.44V73.91a.57.57,0,0,1,.17-.45.61.61,0,0,1,.45-.17.6.6,0,0,1,.44.17.61.61,0,0,1,.17.45V81.6a.6.6,0,0,1-.17.44A.57.57,0,0,1,85.67,82.22Zm0,3.57a.61.61,0,0,1-.45-.17.57.57,0,0,1-.17-.44V77.66a.59.59,0,0,1,.62-.63.6.6,0,0,1,.44.17.65.65,0,0,1,.17.46v7.52a.58.58,0,0,1-.61.61Zm6.88,0a.6.6,0,0,1-.62-.61V81a3.17,3.17,0,0,0-.38-1.63,2.36,2.36,0,0,0-1-1,3.18,3.18,0,0,0-1.47-.32,3.24,3.24,0,0,0-1.41.3,2.49,2.49,0,0,0-1,.83,2,2,0,0,0-.37,1.2H85.4a3.46,3.46,0,0,1,.54-1.8A3.68,3.68,0,0,1,87.3,77.4a3.89,3.89,0,0,1,1.89-.46,4.31,4.31,0,0,1,2,.47,3.56,3.56,0,0,1,1.42,1.38A4.41,4.41,0,0,1,93.16,81v4.16a.58.58,0,0,1-.18.43A.57.57,0,0,1,92.55,85.79Z" fill="#fff"/><path d="M99.86,85.87a4.44,4.44,0,0,1-2.28-.58A4.16,4.16,0,0,1,96,83.71a4.6,4.6,0,0,1-.57-2.29A4.65,4.65,0,0,1,96,79.11a4.16,4.16,0,0,1,1.59-1.58A4.55,4.55,0,0,1,99.86,77a4.49,4.49,0,0,1,2.28.58,4.13,4.13,0,0,1,1.58,1.58,4.77,4.77,0,0,1,.59,2.31,4.51,4.51,0,0,1-.58,2.29,4.23,4.23,0,0,1-1.59,1.58A4.39,4.39,0,0,1,99.86,85.87Zm0-1.12a3.32,3.32,0,0,0,1.67-.43,3.13,3.13,0,0,0,1.15-1.19,3.44,3.44,0,0,0,.42-1.71,3.51,3.51,0,0,0-.42-1.72,3,3,0,0,0-1.15-1.19,3.37,3.37,0,0,0-3.33,0A3,3,0,0,0,97,79.7a3.51,3.51,0,0,0-.42,1.72A3.44,3.44,0,0,0,97,83.13a3.16,3.16,0,0,0,1.16,1.19A3.31,3.31,0,0,0,99.86,84.75ZM98,75.64a.73.73,0,0,1-.46-.15.51.51,0,0,1-.18-.41.63.63,0,0,1,.3-.54l1.89-1.25a.61.61,0,0,1,.3-.08.48.48,0,0,1,.18,0l.14.05,1.88,1.25a.63.63,0,0,1,.3.54.5.5,0,0,1-.18.4.6.6,0,0,1-.44.16.56.56,0,0,1-.2,0l-.19-.09-1.49-1-1.48,1A.65.65,0,0,1,98,75.64Zm1.84,13.49a.8.8,0,0,1-.61-.26.84.84,0,0,1-.26-.62.77.77,0,0,1,.27-.63.86.86,0,0,1,.61-.23.84.84,0,0,1,.6.23.77.77,0,0,1,.27.63.84.84,0,0,1-.26.62A.82.82,0,0,1,99.85,89.13Z" fill="#fff"/><path d="M107.34,89.53a.58.58,0,0,1-.46-.17.61.61,0,0,1-.17-.45V81.36a4.45,4.45,0,0,1,.6-2.25,4.23,4.23,0,0,1,1.59-1.58,4.68,4.68,0,0,1,4.53,0A4.33,4.33,0,0,1,115,79.13a4.77,4.77,0,0,1,0,4.56,4.27,4.27,0,0,1-1.54,1.59,4.22,4.22,0,0,1-2.21.59,4.1,4.1,0,0,1-2-.46,3.92,3.92,0,0,1-1.4-1.21v4.71a.61.61,0,0,1-.16.45A.58.58,0,0,1,107.34,89.53Zm3.8-4.78a3.32,3.32,0,0,0,1.67-.43,3.11,3.11,0,0,0,1.16-1.2,3.67,3.67,0,0,0,0-3.41,3.21,3.21,0,0,0-2.83-1.64,3.09,3.09,0,0,0-1.64.45,3.16,3.16,0,0,0-1.16,1.19,3.75,3.75,0,0,0,0,3.41,3.11,3.11,0,0,0,1.16,1.2A3.26,3.26,0,0,0,111.14,84.75Z" fill="#fff"/><path d="M122.15,78.43a.57.57,0,0,1-.4-.15.55.55,0,0,1-.16-.38.53.53,0,0,1,.16-.39.57.57,0,0,1,.4-.15h4.08a.55.55,0,0,1,.4.15.5.5,0,0,1,.16.39.51.51,0,0,1-.16.38.55.55,0,0,1-.4.15Zm4,7.36a3,3,0,0,1-1.52-.4,2.89,2.89,0,0,1-1-1.1,3.18,3.18,0,0,1-.39-1.59V74.87a.6.6,0,0,1,.17-.44.57.57,0,0,1,.44-.18.61.61,0,0,1,.45.18.6.6,0,0,1,.17.44V82.7A1.87,1.87,0,0,0,124.9,84a1.6,1.6,0,0,0,1.24.53h.43a.5.5,0,0,1,.41.17.64.64,0,0,1,.16.45.55.55,0,0,1-.19.44.72.72,0,0,1-.48.17Z" fill="#fff"/><path d="M129.77,82.22a.6.6,0,0,1-.63-.62V73.91a.61.61,0,0,1,.17-.45.64.64,0,0,1,.46-.17.6.6,0,0,1,.44.17.61.61,0,0,1,.17.45V81.6a.6.6,0,0,1-.17.44A.57.57,0,0,1,129.77,82.22Zm0,3.57a.64.64,0,0,1-.46-.17.6.6,0,0,1-.17-.44V77.66a.65.65,0,0,1,.17-.46.64.64,0,0,1,.46-.17.6.6,0,0,1,.44.17.65.65,0,0,1,.17.46v7.52a.58.58,0,0,1-.61.61Zm6.88,0a.61.61,0,0,1-.45-.18.58.58,0,0,1-.18-.43V81a3.17,3.17,0,0,0-.37-1.63,2.33,2.33,0,0,0-1-1,3.16,3.16,0,0,0-1.46-.32,3.28,3.28,0,0,0-1.42.3,2.55,2.55,0,0,0-1,.83,2.09,2.09,0,0,0-.36,1.2h-.88a3.46,3.46,0,0,1,.54-1.8,3.54,3.54,0,0,1,1.36-1.24,3.86,3.86,0,0,1,1.89-.46,4.34,4.34,0,0,1,2,.47,3.56,3.56,0,0,1,1.42,1.38,4.51,4.51,0,0,1,.52,2.23v4.16a.61.61,0,0,1-.61.61Z" fill="#fff"/><path d="M143.78,85.88a4.25,4.25,0,0,1-2-.47A3.35,3.35,0,0,1,140.34,84a4.41,4.41,0,0,1-.52-2.23V77.64a.57.57,0,0,1,.17-.43.58.58,0,0,1,.43-.18.6.6,0,0,1,.45.18.58.58,0,0,1,.18.43V81.8a3.24,3.24,0,0,0,.37,1.64,2.51,2.51,0,0,0,1,1,3.45,3.45,0,0,0,2.88,0,2.55,2.55,0,0,0,1-.83,2.08,2.08,0,0,0,.37-1.2h.88a3.67,3.67,0,0,1-.56,1.8,3.54,3.54,0,0,1-1.35,1.25A3.94,3.94,0,0,1,143.78,85.88Zm.16-9.66a.54.54,0,0,1-.4-.17.53.53,0,0,1-.17-.41V75.2a.59.59,0,0,1,.51-.63l.4-.08a1,1,0,0,0,.5-.25.65.65,0,0,0,.16-.45.66.66,0,0,0-.24-.55.83.83,0,0,0-.56-.19,1,1,0,0,0-.39.07,1.29,1.29,0,0,0-.32.19.77.77,0,0,1-.18.1.54.54,0,0,1-.22,0,.52.52,0,0,1-.36-.13.5.5,0,0,1-.15-.38.51.51,0,0,1,.19-.43,2.23,2.23,0,0,1,.65-.37,2.06,2.06,0,0,1,.76-.13,2,2,0,0,1,1.34.47,1.6,1.6,0,0,1,.53,1.23,1.33,1.33,0,0,1-.48,1.12,2.35,2.35,0,0,1-1.13.48l.12.21a.73.73,0,0,1-.16.51A.53.53,0,0,1,143.94,76.22Zm3.36,9.57a.57.57,0,0,1-.6-.63V77.64a.61.61,0,0,1,.16-.44.62.62,0,0,1,.44-.17.63.63,0,0,1,.45.17.59.59,0,0,1,.18.44v7.52a.59.59,0,0,1-.18.46A.63.63,0,0,1,147.3,85.79Z" fill="#fff"/><path d="M154.09,85.52a.56.56,0,0,1-.79-.28l-3.56-7.39a.56.56,0,0,1,0-.45.62.62,0,0,1,.32-.32.6.6,0,0,1,.45,0,.56.56,0,0,1,.32.32l3.51,7.39a.68.68,0,0,1,.08.45A.53.53,0,0,1,154.09,85.52Zm-1.78,4.08a.93.93,0,0,1-.29-.07.52.52,0,0,1-.3-.77l5.17-11.39a.53.53,0,0,1,.77-.29.49.49,0,0,1,.3.75l-5.18,11.4A.53.53,0,0,1,152.31,89.6Z" fill="#fff"/><path d="M163.7,78.43a.57.57,0,0,1-.4-.15.55.55,0,0,1-.16-.38.53.53,0,0,1,.16-.39.57.57,0,0,1,.4-.15h4.08a.55.55,0,0,1,.4.15.5.5,0,0,1,.16.39.51.51,0,0,1-.16.38.55.55,0,0,1-.4.15Zm4,7.36a2.91,2.91,0,0,1-1.51-.4,2.85,2.85,0,0,1-1.05-1.1,3.18,3.18,0,0,1-.39-1.59V74.87a.6.6,0,0,1,.17-.44.57.57,0,0,1,.44-.18.61.61,0,0,1,.45.18.57.57,0,0,1,.18.44V82.7a1.87,1.87,0,0,0,.48,1.33,1.6,1.6,0,0,0,1.23.53h.43a.5.5,0,0,1,.41.17.64.64,0,0,1,.17.45.56.56,0,0,1-.2.44.69.69,0,0,1-.48.17Z" fill="#fff"/><path d="M171.56,75.37a.8.8,0,0,1-.61-.26.81.81,0,0,1-.25-.62.77.77,0,0,1,.26-.63.92.92,0,0,1,1.22,0,.8.8,0,0,1,.26.63.89.89,0,0,1-.88.88Zm0,10.42a.61.61,0,0,1-.45-.17.62.62,0,0,1-.17-.46v-7.5a.65.65,0,0,1,.17-.46.61.61,0,0,1,.45-.17.63.63,0,0,1,.45.17.65.65,0,0,1,.16.46v7.5a.61.61,0,0,1-.16.46A.63.63,0,0,1,171.57,85.79Z" fill="#fff"/><path d="M175.94,85.79a.61.61,0,0,1-.45-.17.57.57,0,0,1-.17-.44V77.66a.59.59,0,0,1,.62-.63.6.6,0,0,1,.44.17.65.65,0,0,1,.17.46v7.52a.58.58,0,0,1-.61.61Zm6.88,0a.6.6,0,0,1-.62-.61V81a3.17,3.17,0,0,0-.38-1.63,2.36,2.36,0,0,0-1-1,3.18,3.18,0,0,0-1.47-.32,3.24,3.24,0,0,0-1.41.3,2.49,2.49,0,0,0-1,.83,2,2,0,0,0-.37,1.2h-.88a3.46,3.46,0,0,1,.54-1.8,3.68,3.68,0,0,1,1.36-1.24,3.89,3.89,0,0,1,1.89-.46,4.31,4.31,0,0,1,2,.47,3.56,3.56,0,0,1,1.42,1.38,4.41,4.41,0,0,1,.52,2.23v4.16a.58.58,0,0,1-.18.43A.57.57,0,0,1,182.82,85.79Z" fill="#fff"/><path d="M186.77,82.22a.58.58,0,0,1-.45-.18.6.6,0,0,1-.17-.44V73.91a.58.58,0,0,1,.62-.62.59.59,0,0,1,.44.17.57.57,0,0,1,.17.45V81.6a.57.57,0,0,1-.17.44A.56.56,0,0,1,186.77,82.22Zm0,3.57a.61.61,0,0,1-.45-.17.6.6,0,0,1-.17-.44V77.66a.65.65,0,0,1,.17-.46.61.61,0,0,1,.45-.17.59.59,0,0,1,.44.17.61.61,0,0,1,.17.46v7.52a.57.57,0,0,1-.17.44A.59.59,0,0,1,186.77,85.79Zm6.89,0a.61.61,0,0,1-.63-.61V81a3.17,3.17,0,0,0-.37-1.63,2.44,2.44,0,0,0-1-1,3.16,3.16,0,0,0-1.46-.32,3.25,3.25,0,0,0-1.42.3,2.55,2.55,0,0,0-1,.83,2.1,2.1,0,0,0-.37,1.2h-.88a3.38,3.38,0,0,1,.55-1.8,3.54,3.54,0,0,1,1.36-1.24,3.82,3.82,0,0,1,1.88-.46,4.38,4.38,0,0,1,2,.47,3.53,3.53,0,0,1,1.41,1.38,4.41,4.41,0,0,1,.52,2.23v4.16a.61.61,0,0,1-.17.43A.6.6,0,0,1,193.66,85.79Z" fill="#fff"/><text transform="translate(54.22 43.76)" font-size="20" fill="#fff" font-family="Bungee-Regular, Bungee">SUBCRIBLE</text></g></g></svg>