<svg xmlns="http://www.w3.org/2000/svg" viewBox="0 0 231.25 134.78"><title>m_07</title><g id="Layer_2" data-name="Layer 2"><g id="bubble_talk" data-name="bubble talk"><path d="M73.81,133.78a1,1,0,0,1-.84-1.53,30.56,30.56,0,0,1,1.93-2.47c3.24-4,10.81-13.23,9.57-17.91a3.54,3.54,0,0,0-2.35-2.36c-5.07-.73-10.35-1.17-15.94-1.64-29.06-2.42-62-5.17-58.23-53.2C9.73,32,21,17.11,42.41,9.07,60.25,2.37,82.75,1,111,1H112c41.87,0,71.31,3.88,90,11.75,15.59,6.57,20.75,14.64,24,22.38,6.38,15.12,5.56,31-2.3,44.67-9.28,16.13-27.23,27-49.27,29.86a343.43,343.43,0,0,1-43.34,2.46c-13.9,0-24.67-.64-27.55-.83a36,36,0,0,1-29.59,22.49Z" fill="#8782e3"/><path d="M111,2H112c93.9.09,107.34,19.88,113.09,33.51,13.91,33-8.12,67.65-50.78,73.15a346.35,346.35,0,0,1-43.21,2.45c-16.38,0-28.24-.87-28.24-.87s-6,19.69-29,22.54c1.74-2.73,18.74-20.37,8.56-24.25C49.9,103.84,4.56,110.61,9,54.75,12.79,5.78,61.24,2,111,2m0-2c-22.89,0-49,.63-69,8.14C20.25,16.33,8.76,31.52,7,54.59c-1.71,21.86,3.9,36.46,17.18,44.64,11.51,7.1,27,8.39,42,9.64,5.53.46,10.75.9,15.75,1.61a2.44,2.44,0,0,1,1.65,1.65c1.12,4.18-6.5,13.5-9.37,17-1,1.22-1.66,2-2,2.57a2,2,0,0,0,1.68,3.07h.25a36.75,36.75,0,0,0,30.14-22.44c3.71.23,14,.78,26.88.78a343.56,343.56,0,0,0,43.46-2.46c22.36-2.89,40.59-14,50-30.35,8-14,8.86-30.14,2.36-45.56-3.19-7.56-8.59-16.18-24.55-22.91C183.55,3.91,154,0,112,0Z"/><path d="M73.81,133.78a1,1,0,0,1-.83-1.54c1-1.58,3.37-11.52.65-17.28a6.15,6.15,0,0,0-5.16-3.77c-52-5.67-65.67-8.93-67.42-51.9-.52-12.87,2.94-23,10.6-31,14.86-15.48,45-22.39,97.8-22.39,54.06,0,83.31,6.22,97.84,20.79,7,7,10.37,15.91,10.34,27.21-.15,47.53-29.52,55.73-58.23,57.49-6.7.41-14.59.62-23.44.62-19.29,0-37.74-1-41.73-1.23-1.18,3.7-6.8,19-20.13,22.94A1,1,0,0,1,73.81,133.78Z" fill="#eba21e"/><path d="M109.48,6.92c70.65,0,107.26,10.63,107.15,47-.14,43-23.94,54.46-57.29,56.5-7.36.45-15.46.62-23.37.62-21.91,0-42.47-1.27-42.47-1.27s-5.18,18.74-19.69,23c1.78-2.74,5.47-21.39-5.23-22.58-52.67-5.75-64.83-9.18-66.53-51C.41,18.93,39.46,6.92,109.45,6.92h0m0-2h0c-53.07,0-83.45,7-98.52,22.69C3.07,35.8-.48,46.17.05,59.33.83,78.5,3.62,92,15.07,99.88c10.4,7.19,27.07,9.44,53.3,12.3a5.13,5.13,0,0,1,4.35,3.21c2.53,5.35.35,14.87-.58,16.31a2,2,0,0,0,.07,2.28,2,2,0,0,0,1.6.8,1.87,1.87,0,0,0,.57-.08c13-3.84,18.92-18.07,20.56-22.85,5.21.29,22.74,1.18,41,1.18,8.86,0,16.77-.21,23.49-.62,19.37-1.19,32.8-5.44,42.27-13.38,11.3-9.48,16.83-24.24,16.9-45.11,0-11.57-3.44-20.71-10.63-27.92-7.74-7.76-19.81-13.18-36.9-16.55-15.42-3-35.57-4.53-61.62-4.53Z"/><path d="M26.25,61.18H18.66A.9.9,0,0,1,18,61a1,1,0,0,1-.2-.66V57.51a.73.73,0,0,1,.86-.86h6.46a.55.55,0,0,0,.47-.21.79.79,0,0,0,.15-.49,1,1,0,0,0-.15-.6.61.61,0,0,0-.47-.21l-3.6-.51a5.27,5.27,0,0,1-2.7-1.1,3.6,3.6,0,0,1-1-2.88V48.13A3.82,3.82,0,0,1,19.12,45a5.54,5.54,0,0,1,3.65-1.1h6.72a.9.9,0,0,1,.66.21.91.91,0,0,1,.2.66v2.85a.91.91,0,0,1-.2.66.9.9,0,0,1-.66.21H23.9a.63.63,0,0,0-.49.2.81.81,0,0,0-.16.52.86.86,0,0,0,.16.53.7.7,0,0,0,.49.24l3.57.48a5.26,5.26,0,0,1,2.71,1.1,3.57,3.57,0,0,1,1,2.88V57a3.81,3.81,0,0,1-1.33,3.13A5.55,5.55,0,0,1,26.25,61.18Z" fill="#fff"/><path d="M38.73,60.32a.9.9,0,0,1-.21.66.87.87,0,0,1-.66.2H34.33a.9.9,0,0,1-.66-.2,1,1,0,0,1-.2-.66V54a7.15,7.15,0,0,1,.23-1.65,18.12,18.12,0,0,1,.71-2.19l2.08-5.44a1.09,1.09,0,0,1,.45-.6,1.41,1.41,0,0,1,.78-.2h6.45a1.36,1.36,0,0,1,.76.2,1,1,0,0,1,.44.6l2.09,5.44a18.12,18.12,0,0,1,.71,2.19A7.15,7.15,0,0,1,48.4,54v6.34a1,1,0,0,1-.2.66.91.91,0,0,1-.67.2H43.91a1,1,0,0,1-.71-.2.87.87,0,0,1-.23-.66V57H38.73Zm1.36-11.38L39,52.59h3.77l-1.13-3.65a1.18,1.18,0,0,0-.21-.31.37.37,0,0,0-.25-.09h-.6a.37.37,0,0,0-.25.09A1.18,1.18,0,0,0,40.09,48.94Z" fill="#fff"/><path d="M61.33,61.18H55.09a1.54,1.54,0,0,1-.75-.16,1.13,1.13,0,0,1-.47-.63l-2.35-5.88c-.15-.35-.26-.66-.36-.92a7.27,7.27,0,0,1-.24-.76,4.52,4.52,0,0,1-.13-.75,9.13,9.13,0,0,1,0-1V44.77a.91.91,0,0,1,.2-.66.9.9,0,0,1,.66-.21h3.82a1,1,0,0,1,.7.21.81.81,0,0,1,.24.66v6.62a2.59,2.59,0,0,0,0,.48,4.07,4.07,0,0,0,.15.51l1.13,3.36a.67.67,0,0,0,.17.32.38.38,0,0,0,.28.08h.27a.43.43,0,0,0,.29-.08.67.67,0,0,0,.16-.32L60,52.35a3.43,3.43,0,0,0,.14-.5,2,2,0,0,0,0-.48v-6.6a.75.75,0,0,1,.87-.87h3.77a.9.9,0,0,1,.66.21.91.91,0,0,1,.2.66V51.1a9.13,9.13,0,0,1,0,1,4.52,4.52,0,0,1-.13.75,7.27,7.27,0,0,1-.24.76c-.1.26-.21.57-.36.92l-2.35,5.88a1.13,1.13,0,0,1-.47.63A1.56,1.56,0,0,1,61.33,61.18Z" fill="#fff"/><path d="M80.63,61.18H69.49a.86.86,0,0,1-.65-.2.9.9,0,0,1-.21-.66V44.77a.87.87,0,0,1,.21-.66.86.86,0,0,1,.65-.21H80.63a.9.9,0,0,1,.66.21.87.87,0,0,1,.2.66v2.81a.9.9,0,0,1-.2.66,1,1,0,0,1-.66.2H74v1.85h4.68a.73.73,0,0,1,.86.86v2.57a1,1,0,0,1-.2.66.9.9,0,0,1-.66.2H74v2.07h6.62a1,1,0,0,1,.66.2.9.9,0,0,1,.2.66v2.81a.73.73,0,0,1-.86.86Z" fill="#fff"/><path d="M98.92,61.18H90.83a.73.73,0,0,1-.86-.86v-5.5h-.56a.9.9,0,0,1-.66-.2,1,1,0,0,1-.2-.66V51.39a.73.73,0,0,1,.86-.86H90V44.77a.87.87,0,0,1,.2-.66.9.9,0,0,1,.66-.21h8.09c2.25,0,3.8.46,4.64,1.37a5,5,0,0,1,1.26,3.53v7.49a5,5,0,0,1-1.26,3.53Q102.3,61.18,98.92,61.18Zm-3.58-4.53h2.93c.48,0,.79-.12.93-.35a1.67,1.67,0,0,0,.2-.83V49.64a1.61,1.61,0,0,0-.2-.8c-.14-.24-.45-.35-.93-.35H95.34v2h1a.73.73,0,0,1,.86.86V54a1,1,0,0,1-.2.66.9.9,0,0,1-.66.2h-1Z" fill="#fff"/><path d="M119.87,61.18H108.74a.91.91,0,0,1-.67-.2,1,1,0,0,1-.2-.66V44.77a.74.74,0,0,1,.87-.87h11.13a.9.9,0,0,1,.66.21.87.87,0,0,1,.21.66v2.81a.9.9,0,0,1-.21.66,1,1,0,0,1-.66.2h-6.62v1.85h4.68a.73.73,0,0,1,.86.86v2.57a1,1,0,0,1-.2.66.9.9,0,0,1-.66.2h-4.68v2.07h6.62a1,1,0,0,1,.66.2.9.9,0,0,1,.21.66v2.81a.74.74,0,0,1-.87.86Zm-6.34-19.12-3.28,1c-.4.12-.67.14-.8,0s-.19-.36-.19-.79V40.33a1.18,1.18,0,0,1,.21-.84,2.57,2.57,0,0,1,.78-.43L113.32,38a2.15,2.15,0,0,1,.47-.14,4.3,4.3,0,0,1,.46-.07,2.68,2.68,0,0,1,.41,0,1.36,1.36,0,0,1,.36.1l3.29,1.2a2.61,2.61,0,0,1,.8.43,1.18,1.18,0,0,1,.21.84v1.94c0,.43-.07.7-.19.79s-.4.08-.82,0l-3.29-1a3,3,0,0,0-.74-.1A3,3,0,0,0,113.53,42.06Zm5.93-9.72a.55.55,0,0,1,.6.14.92.92,0,0,1,.22.65v2.54a.68.68,0,0,1-.22.61,1.75,1.75,0,0,1-.65.26l-3.28.79a.57.57,0,0,1-.6-.15.89.89,0,0,1-.22-.64V34a.69.69,0,0,1,.22-.61,1.77,1.77,0,0,1,.64-.25Z" fill="#fff"/><path d="M128,61.18h-3.6a.73.73,0,0,1-.86-.86V44.77a.87.87,0,0,1,.2-.66.9.9,0,0,1,.66-.21h2.5a1.87,1.87,0,0,1,.78.15,1.84,1.84,0,0,1,.63.5L133,49.88V44.77a.91.91,0,0,1,.2-.66.9.9,0,0,1,.66-.21h3.6a.75.75,0,0,1,.87.87V60.32a.9.9,0,0,1-.21.66.87.87,0,0,1-.66.2h-3.6a.9.9,0,0,1-.66-.2,1,1,0,0,1-.2-.66v-3l-4.11-5v7.92a.73.73,0,0,1-.86.86Z" fill="#fff"/><path d="M155.2,61.18h-7.63a.87.87,0,0,1-.66-.2.9.9,0,0,1-.21-.66V57.51a.9.9,0,0,1,.21-.66.91.91,0,0,1,.66-.2h6.19a.84.84,0,0,0,.47-.13.49.49,0,0,0,.18-.42v-.94a.49.49,0,0,0-.18-.42.77.77,0,0,0-.47-.13h-5.95a.75.75,0,0,1-.87-.87v-9a.75.75,0,0,1,.87-.87h10.34a.9.9,0,0,1,.66.21.87.87,0,0,1,.2.66v2.85a.87.87,0,0,1-.2.66.9.9,0,0,1-.66.21h-5.76v1.56h3.29a4.59,4.59,0,0,1,3.07,1,3.54,3.54,0,0,1,1.13,2.85V57.2a3.62,3.62,0,0,1-1.26,2.9A5.08,5.08,0,0,1,155.2,61.18Z" fill="#fff"/><path d="M177,56.65a6,6,0,0,1-.32,2,3.29,3.29,0,0,1-1.12,1.54,6.19,6.19,0,0,1-2.25,1,18.53,18.53,0,0,1-7.27,0,6.06,6.06,0,0,1-2.24-1,3.34,3.34,0,0,1-1.14-1.54,5.79,5.79,0,0,1-.33-2V48.46a5.79,5.79,0,0,1,.33-2,3.36,3.36,0,0,1,1.14-1.55,5.91,5.91,0,0,1,2.24-1,18.53,18.53,0,0,1,7.27,0,6,6,0,0,1,2.25,1,3.32,3.32,0,0,1,1.12,1.55,6,6,0,0,1,.32,2Zm-9.24-.87a1.07,1.07,0,0,0,.34.81,2.6,2.6,0,0,0,1.58.32,2.57,2.57,0,0,0,1.57-.32,1.08,1.08,0,0,0,.35-.81V49.33a1,1,0,0,0-.35-.78,2.48,2.48,0,0,0-1.57-.33,2.52,2.52,0,0,0-1.58.33,1,1,0,0,0-.34.78Z" fill="#fff"/><path d="M187.91,51.2a3.62,3.62,0,0,1-.18,1.16,1.93,1.93,0,0,1-.66.92,3.54,3.54,0,0,1-1.31.57,8.72,8.72,0,0,1-2.1.21c-1.71,0-2.85-.27-3.43-.8a2.63,2.63,0,0,1-.86-2.06V46.64a2.63,2.63,0,0,1,.86-2.06c.58-.53,1.72-.8,3.43-.8a8.72,8.72,0,0,1,2.1.21,3.54,3.54,0,0,1,1.31.57,1.93,1.93,0,0,1,.66.92,3.62,3.62,0,0,1,.18,1.16Zm-5.06-.74a.39.39,0,0,0,.14.3,1.18,1.18,0,0,0,.67.13,1.12,1.12,0,0,0,.65-.13.39.39,0,0,0,.14-.3V47.38a.36.36,0,0,0-.14-.27,1,1,0,0,0-.65-.13,1.1,1.1,0,0,0-.67.13.36.36,0,0,0-.14.27Zm4,9.86,3.84-15.55a1.2,1.2,0,0,1,.31-.65.93.93,0,0,1,.67-.22h2.52a.86.86,0,0,1,.65.22.69.69,0,0,1,.09.65l-3.84,15.55a1.24,1.24,0,0,1-.31.65.93.93,0,0,1-.67.21h-2.52a.86.86,0,0,1-.65-.21A.69.69,0,0,1,186.81,60.32Zm15.45-1.85a3.68,3.68,0,0,1-.18,1.17,1.9,1.9,0,0,1-.66.91,3.32,3.32,0,0,1-1.31.57,8.72,8.72,0,0,1-2.1.21c-1.71,0-2.85-.27-3.43-.79a2.7,2.7,0,0,1-.86-2.07V53.91a2.68,2.68,0,0,1,.86-2.06c.58-.53,1.72-.79,3.43-.79a9.33,9.33,0,0,1,2.1.2,3.47,3.47,0,0,1,1.31.58,1.9,1.9,0,0,1,.66.91,3.66,3.66,0,0,1,.18,1.16Zm-5.06-.74a.42.42,0,0,0,.14.3,1.1,1.1,0,0,0,.67.13,1,1,0,0,0,.65-.13.4.4,0,0,0,.15-.3V54.66a.38.38,0,0,0-.15-.28,1,1,0,0,0-.65-.13,1.1,1.1,0,0,0-.67.13.4.4,0,0,0-.14.28Z" fill="#fff"/><path d="M16.62,81.18A.73.73,0,0,1,16.1,81a.71.71,0,0,1-.18-.5V72a.64.64,0,0,1,.7-.7.64.64,0,0,1,.49.19.66.66,0,0,1,.19.51V80.5a.64.64,0,0,1-.68.68Zm7.74,0a.7.7,0,0,1-.51-.19.69.69,0,0,1-.19-.49V75.82A3.63,3.63,0,0,0,23.23,74a2.66,2.66,0,0,0-1.15-1.08,3.67,3.67,0,0,0-1.65-.36,3.6,3.6,0,0,0-1.59.35,2.78,2.78,0,0,0-1.12.93,2.3,2.3,0,0,0-.42,1.35h-1a4,4,0,0,1,.61-2,4.23,4.23,0,0,1,1.53-1.41,4.47,4.47,0,0,1,2.13-.51,4.85,4.85,0,0,1,2.28.53,3.88,3.88,0,0,1,1.6,1.56,5,5,0,0,1,.58,2.5V80.5a.66.66,0,0,1-.2.49A.65.65,0,0,1,24.36,81.18Z" fill="#fff"/><path d="M32.44,81.27A4.69,4.69,0,0,1,30,80.62a4.75,4.75,0,0,1-1.74-1.79,5.09,5.09,0,0,1-.64-2.56,5,5,0,0,1,.66-2.57A4.66,4.66,0,0,1,30,71.91a5.26,5.26,0,0,1,5.1,0,4.78,4.78,0,0,1,1.78,1.79,5.21,5.21,0,0,1,.68,2.57L37,76.7a4.48,4.48,0,0,1-2.24,4A4.59,4.59,0,0,1,32.44,81.27ZM32.58,80a3.47,3.47,0,0,0,3.16-1.82,4.1,4.1,0,0,0,0-3.85A3.69,3.69,0,0,0,34.45,73a3.78,3.78,0,0,0-3.72,0,3.66,3.66,0,0,0-1.31,1.34,4,4,0,0,0,0,3.85A3.53,3.53,0,0,0,32.58,80Zm0-10.18a3.57,3.57,0,0,1-1.4-.28,2.78,2.78,0,0,1-1-.75,1.66,1.66,0,0,1-.38-1.06.72.72,0,0,1,.2-.51.63.63,0,0,1,.48-.21.67.67,0,0,1,.47.18.6.6,0,0,1,.2.47.83.83,0,0,0,.41.7,2.1,2.1,0,0,0,2.13,0,.85.85,0,0,0,.39-.7.6.6,0,0,1,.2-.47.69.69,0,0,1,.49-.18.59.59,0,0,1,.47.21.67.67,0,0,1,.19.49A1.78,1.78,0,0,1,35,68.83a2.7,2.7,0,0,1-1,.74A3.65,3.65,0,0,1,32.57,69.83Zm4.32,11.35a.72.72,0,0,1-.51-.18.69.69,0,0,1-.2-.5V77.42L36.53,76l1.06.27V80.5a.69.69,0,0,1-.2.5A.71.71,0,0,1,36.89,81.18Z" fill="#fff"/><path d="M41,81.18a.69.69,0,0,1-.51-.18.68.68,0,0,1-.19-.5V72a.65.65,0,0,1,.7-.7.64.64,0,0,1,.49.19.66.66,0,0,1,.19.51V80.5a.64.64,0,0,1-.68.68Zm7.74,0a.68.68,0,0,1-.5-.19.66.66,0,0,1-.2-.49V75.82A3.53,3.53,0,0,0,47.6,74a2.66,2.66,0,0,0-1.15-1.08,3.87,3.87,0,0,0-3.24,0,2.78,2.78,0,0,0-1.12.93,2.3,2.3,0,0,0-.42,1.35h-1a4,4,0,0,1,.61-2,4.23,4.23,0,0,1,1.53-1.41A4.47,4.47,0,0,1,45,71.23a4.92,4.92,0,0,1,2.29.53,3.91,3.91,0,0,1,1.59,1.56,5,5,0,0,1,.58,2.5V80.5a.65.65,0,0,1-.68.68Z" fill="#fff"/><path d="M56.81,81.27a5,5,0,0,1-2.52-.63,4.6,4.6,0,0,1-1.72-1.78A5.33,5.33,0,0,1,52,76.27a5.21,5.21,0,0,1,.65-2.61,4.52,4.52,0,0,1,1.78-1.77,5.52,5.52,0,0,1,5.16,0,4.47,4.47,0,0,1,1.76,1.77A5.32,5.32,0,0,1,62,76.27l-.81.43a4.94,4.94,0,0,1-.56,2.37,4.07,4.07,0,0,1-1.54,1.62A4.27,4.27,0,0,1,56.81,81.27Zm.18,3.8a5.51,5.51,0,0,1-2.5-.53,4.87,4.87,0,0,1-1.78-1.45.55.55,0,0,1-.17-.47.54.54,0,0,1,.26-.41.68.68,0,0,1,.52-.11.75.75,0,0,1,.45.27,3.92,3.92,0,0,0,1.34,1,4.39,4.39,0,0,0,1.9.39,3.51,3.51,0,0,0,1.82-.48A3.46,3.46,0,0,0,60.11,82a4.28,4.28,0,0,0,.48-2.07V77.15l.52-1,.85.16v3.67a5.3,5.3,0,0,1-.65,2.62A4.77,4.77,0,0,1,57,85.07ZM57,80a3.68,3.68,0,0,0,1.89-.47,3.41,3.41,0,0,0,1.28-1.33,4,4,0,0,0,.47-1.94,4,4,0,0,0-.47-2A3.35,3.35,0,0,0,58.84,73,3.69,3.69,0,0,0,57,72.51a3.74,3.74,0,0,0-1.89.48,3.31,3.31,0,0,0-1.29,1.33,4,4,0,0,0-.47,2,4,4,0,0,0,.47,1.94,3.37,3.37,0,0,0,1.29,1.33A3.73,3.73,0,0,0,57,80Z" fill="#fff"/><path d="M72.06,81.18a2.23,2.23,0,0,1-1.29-.39,2.61,2.61,0,0,1-.88-1.1,3.93,3.93,0,0,1-.32-1.62V67.81a.68.68,0,0,1,.19-.49.66.66,0,0,1,.5-.19.65.65,0,0,1,.68.68V78.07a2.26,2.26,0,0,0,.32,1.26.94.94,0,0,0,.8.49h.45a.55.55,0,0,1,.43.18.75.75,0,0,1,.16.5.63.63,0,0,1-.22.5.92.92,0,0,1-.59.18Z" fill="#fff"/><path d="M79.29,81.29A4.74,4.74,0,0,1,77,80.76a3.82,3.82,0,0,1-1.6-1.56,5,5,0,0,1-.58-2.5V72a.68.68,0,0,1,.68-.68.67.67,0,0,1,.51.2.65.65,0,0,1,.19.48V76.7a3.6,3.6,0,0,0,.43,1.84,2.66,2.66,0,0,0,1.15,1.08,3.67,3.67,0,0,0,1.65.36A3.74,3.74,0,0,0,81,79.64a2.8,2.8,0,0,0,1.12-.94,2.3,2.3,0,0,0,.42-1.35h1a4,4,0,0,1-2.14,3.43A4.47,4.47,0,0,1,79.29,81.29Zm4-.11a.67.67,0,0,1-.49-.18.69.69,0,0,1-.19-.52V72a.65.65,0,0,1,.68-.68.7.7,0,0,1,.51.19A.64.64,0,0,1,84,72v8.46a.69.69,0,0,1-.19.52A.74.74,0,0,1,83.25,81.18Zm0-8.56V71.34H84a.7.7,0,0,0,.55-.27,1.09,1.09,0,0,0,.22-.72V70a.77.77,0,0,1,.17-.49.59.59,0,0,1,.46-.19.54.54,0,0,1,.49.23,1,1,0,0,1,.16.56v.27a2.45,2.45,0,0,1-.27,1.16,2.12,2.12,0,0,1-.73.81,1.89,1.89,0,0,1-1,.3Z" fill="#fff"/><path d="M91.68,81.27a5.14,5.14,0,0,1-2.58-.64,4.78,4.78,0,0,1-1.78-1.79,5.45,5.45,0,0,1,0-5.16A4.68,4.68,0,0,1,89.1,71.9a5,5,0,0,1,2.58-.65,5,5,0,0,1,2.56.65A4.66,4.66,0,0,1,96,73.68a5.15,5.15,0,0,1,.67,2.59A5,5,0,0,1,96,78.84a4.85,4.85,0,0,1-1.78,1.79A5,5,0,0,1,91.68,81.27Zm0-1.26a3.67,3.67,0,0,0,1.87-.48,3.5,3.5,0,0,0,1.29-1.33,4.2,4.2,0,0,0,0-3.86A3.49,3.49,0,0,0,93.55,73a3.67,3.67,0,0,0-1.87-.48A3.7,3.7,0,0,0,89.8,73a3.59,3.59,0,0,0-1.3,1.35,4.12,4.12,0,0,0,0,3.86,3.61,3.61,0,0,0,1.3,1.33A3.7,3.7,0,0,0,91.68,80Zm0,4.94a1,1,0,0,1-1-1,.88.88,0,0,1,.29-.71,1,1,0,0,1,.7-.27,1,1,0,0,1,.67.27.89.89,0,0,1,.3.71,1,1,0,0,1-1,1ZM93.91,73V71.75h.79a.69.69,0,0,0,.55-.27,1.09,1.09,0,0,0,.22-.72v-.38a.68.68,0,0,1,.18-.48.56.56,0,0,1,.45-.2.57.57,0,0,1,.49.23,1,1,0,0,1,.16.56v.27a2.45,2.45,0,0,1-.27,1.16,2,2,0,0,1-.73.81,1.85,1.85,0,0,1-1,.3Z" fill="#fff"/><path d="M100.08,81.18a.72.72,0,0,1-.51-.18.68.68,0,0,1-.19-.5V72a.66.66,0,0,1,.19-.51.69.69,0,0,1,.51-.19.66.66,0,0,1,.5.19.69.69,0,0,1,.19.51V80.5a.72.72,0,0,1-.19.5A.7.7,0,0,1,100.08,81.18Zm7.74,0a.68.68,0,0,1-.5-.19.7.7,0,0,1-.2-.49V75.82A3.63,3.63,0,0,0,106.7,74a2.74,2.74,0,0,0-1.16-1.08,3.87,3.87,0,0,0-3.24,0,2.85,2.85,0,0,0-1.12.93,2.29,2.29,0,0,0-.41,1.35h-1a3.78,3.78,0,0,1,.61-2,4.08,4.08,0,0,1,1.53-1.41,4.4,4.4,0,0,1,2.12-.51,4.89,4.89,0,0,1,2.29.53,3.91,3.91,0,0,1,1.59,1.56,5,5,0,0,1,.59,2.5V80.5a.7.7,0,0,1-.2.49A.67.67,0,0,1,107.82,81.18Z" fill="#fff"/><path d="M115.9,81.27a5,5,0,0,1-2.52-.63,4.6,4.6,0,0,1-1.72-1.78,5.33,5.33,0,0,1-.62-2.59,5.21,5.21,0,0,1,.65-2.61,4.59,4.59,0,0,1,1.78-1.77,5.14,5.14,0,0,1,2.58-.64,5.09,5.09,0,0,1,2.58.64,4.47,4.47,0,0,1,1.76,1.77,5.32,5.32,0,0,1,.66,2.61l-.81.43a4.83,4.83,0,0,1-.56,2.37,4.07,4.07,0,0,1-1.54,1.62A4.27,4.27,0,0,1,115.9,81.27Zm.18,3.8a5.54,5.54,0,0,1-2.5-.53,5,5,0,0,1-1.78-1.45.58.58,0,0,1-.17-.47.57.57,0,0,1,.26-.41.68.68,0,0,1,.52-.11.75.75,0,0,1,.45.27,4,4,0,0,0,1.34,1,4.39,4.39,0,0,0,1.9.39,3.51,3.51,0,0,0,1.82-.48A3.55,3.55,0,0,0,119.21,82a4.39,4.39,0,0,0,.47-2.07V77.15l.53-1,.84.16v3.67a5.2,5.2,0,0,1-.65,2.62,4.77,4.77,0,0,1-4.32,2.51Zm0-5.06a3.65,3.65,0,0,0,1.88-.47,3.51,3.51,0,0,0,1.29-1.33,4,4,0,0,0,.46-1.94,4,4,0,0,0-.46-2A3.44,3.44,0,0,0,117.93,73a3.65,3.65,0,0,0-1.88-.48,3.69,3.69,0,0,0-1.89.48,3.33,3.33,0,0,0-1.3,1.33,4,4,0,0,0-.47,2,4,4,0,0,0,.47,1.94,3.39,3.39,0,0,0,1.3,1.33A3.68,3.68,0,0,0,116.05,80Z" fill="#fff"/><path d="M128.77,81.18a.62.62,0,0,1-.46-.18.67.67,0,0,1-.18-.43.72.72,0,0,1,.19-.48L131.64,76l.77,1-3.15,4A.58.58,0,0,1,128.77,81.18Zm7.13,0a.73.73,0,0,1-.35-.07,1,1,0,0,1-.28-.25l-3.11-4-.54-.47-3.13-4a.63.63,0,0,1-.19-.48.64.64,0,0,1,.17-.44.57.57,0,0,1,.47-.19.73.73,0,0,1,.52.21l3,3.87.49.4,3.35,4.28a.72.72,0,0,1,.19.54.59.59,0,0,1-.22.4A.62.62,0,0,1,135.9,81.18ZM133,76.5l-.89-.9,3.12-3.94a.66.66,0,0,1,.28-.25.67.67,0,0,1,.31-.07.57.57,0,0,1,.47.19.59.59,0,0,1,.15.45.79.79,0,0,1-.19.49Z" fill="#fff"/><path d="M143.17,81.29a4.74,4.74,0,0,1-2.28-.53,3.87,3.87,0,0,1-1.6-1.56,5,5,0,0,1-.58-2.5V72a.66.66,0,0,1,.2-.48.62.62,0,0,1,.48-.2.68.68,0,0,1,.71.68V76.7a3.61,3.61,0,0,0,.42,1.84,2.66,2.66,0,0,0,1.15,1.08,3.7,3.7,0,0,0,1.65.36,3.74,3.74,0,0,0,1.59-.34A2.9,2.9,0,0,0,146,78.7a2.36,2.36,0,0,0,.41-1.35h1a4,4,0,0,1-2.14,3.43A4.47,4.47,0,0,1,143.17,81.29Zm.18-10.87a.62.62,0,0,1-.46-.19.63.63,0,0,1-.18-.46v-.5a.65.65,0,0,1,.57-.7l.45-.09a1.18,1.18,0,0,0,.56-.28.73.73,0,0,0,.18-.52.77.77,0,0,0-.26-.61,1.12,1.12,0,0,0-1.07-.13,1.58,1.58,0,0,0-.36.2.72.72,0,0,1-.21.12.69.69,0,0,1-.24,0,.57.57,0,0,1-.41-.16.54.54,0,0,1-.17-.42.6.6,0,0,1,.22-.49,2.78,2.78,0,0,1,.73-.41,2.3,2.3,0,0,1,.85-.14,2.15,2.15,0,0,1,1.5.53,1.72,1.72,0,0,1,.61,1.37,1.5,1.5,0,0,1-.54,1.27,2.58,2.58,0,0,1-1.28.53l.14.24a.8.8,0,0,1-.19.58A.56.56,0,0,1,143.35,70.42Zm3.78,10.76a.67.67,0,0,1-.49-.18.69.69,0,0,1-.19-.52V72a.65.65,0,0,1,.68-.68.69.69,0,0,1,.51.19.65.65,0,0,1,.2.49v8.46a.7.7,0,0,1-.2.52A.72.72,0,0,1,147.13,81.18Zm0-8.56V71.34h.8a.7.7,0,0,0,.55-.27,1.09,1.09,0,0,0,.22-.72V70a.77.77,0,0,1,.17-.49.59.59,0,0,1,.46-.19.54.54,0,0,1,.49.23,1,1,0,0,1,.16.56v.27a2.45,2.45,0,0,1-.27,1.16,2.12,2.12,0,0,1-.73.81,1.89,1.89,0,0,1-1.05.3Z" fill="#fff"/><path d="M158.47,81.18a2.18,2.18,0,0,1-1.28-.39,2.63,2.63,0,0,1-.89-1.1,3.94,3.94,0,0,1-.31-1.62V67.81a.65.65,0,0,1,.68-.68.66.66,0,0,1,.5.19.68.68,0,0,1,.19.49V78.07a2.26,2.26,0,0,0,.31,1.26,1,1,0,0,0,.8.49h.45a.57.57,0,0,1,.44.18.81.81,0,0,1,.16.5.64.64,0,0,1-.23.5.89.89,0,0,1-.58.18Z" fill="#fff"/><path d="M165.11,80.88a.63.63,0,0,1-.5,0,.68.68,0,0,1-.38-.35l-4-8.31a.62.62,0,0,1,0-.51.7.7,0,0,1,.36-.36.66.66,0,0,1,.51,0,.64.64,0,0,1,.36.35L165.35,80a.74.74,0,0,1,.09.51A.58.58,0,0,1,165.11,80.88Zm-2,4.59a1.09,1.09,0,0,1-.33-.07.58.58,0,0,1-.34-.87l5.81-12.81a.59.59,0,0,1,.87-.33.56.56,0,0,1,.34.85l-5.83,12.81A.58.58,0,0,1,163.12,85.47Zm1.6-15.63a.68.68,0,0,1-.5-.2.72.72,0,0,1-.2-.5.67.67,0,0,1,.16-.47l2-2a.68.68,0,0,1,.49-.2.66.66,0,0,1,.5.21.73.73,0,0,1,.2.51.69.69,0,0,1,0,.25.44.44,0,0,1-.16.22l-2,2A.64.64,0,0,1,164.72,69.84Z" fill="#fff"/><path d="M177.25,81.18a.69.69,0,0,1-.51-.18.67.67,0,0,1-.18-.5V72a.68.68,0,0,1,.18-.5.69.69,0,0,1,.51-.18.62.62,0,0,1,.68.68V80.5a.67.67,0,0,1-.18.5A.68.68,0,0,1,177.25,81.18Zm-.11-6.06a4.17,4.17,0,0,1,.58-2,4,4,0,0,1,1.39-1.39,3.72,3.72,0,0,1,1.9-.5,2.93,2.93,0,0,1,1.28.23.57.57,0,0,1,.34.69.55.55,0,0,1-.24.36.81.81,0,0,1-.42.07l-.55,0a4,4,0,0,0-1.79.21,2.74,2.74,0,0,0-1.24.91,2.33,2.33,0,0,0-.46,1.46Z" fill="#fff"/><path d="M188.42,81.27a4.71,4.71,0,0,1-2.48-.65,4.9,4.9,0,0,1-1.74-1.79,5.2,5.2,0,0,1-.64-2.56,5,5,0,0,1,.66-2.57A4.8,4.8,0,0,1,186,71.91a5,5,0,0,1,2.56-.66,4.94,4.94,0,0,1,2.55.66,4.78,4.78,0,0,1,1.78,1.79,5.1,5.1,0,0,1,.67,2.57l-.56.43a4.54,4.54,0,0,1-.6,2.33,4.45,4.45,0,0,1-1.64,1.64A4.59,4.59,0,0,1,188.42,81.27Zm.15-1.26a3.6,3.6,0,0,0,1.86-.48,3.56,3.56,0,0,0,1.3-1.34,4.18,4.18,0,0,0,0-3.85,3.63,3.63,0,0,0-1.3-1.34,3.52,3.52,0,0,0-1.86-.49,3.57,3.57,0,0,0-1.86.49,3.66,3.66,0,0,0-1.31,1.34,4,4,0,0,0,0,3.85,3.59,3.59,0,0,0,1.31,1.34A3.66,3.66,0,0,0,188.57,80Zm-.13-10.17a.66.66,0,0,1-.49-.2.69.69,0,0,1-.21-.5.67.67,0,0,1,.16-.47l2-2a.66.66,0,0,1,.48-.2.68.68,0,0,1,.51.21.72.72,0,0,1,.19.51.69.69,0,0,1,0,.25.48.48,0,0,1-.15.22l-2,2A.64.64,0,0,1,188.44,69.84Zm4.43,11.34a.71.71,0,0,1-.5-.18.65.65,0,0,1-.2-.5V77.42l.34-1.42,1.06.27V80.5a.65.65,0,0,1-.2.5A.71.71,0,0,1,192.87,81.18Z" fill="#fff"/><path d="M200.66,81.27a4.75,4.75,0,0,1-4.27-2.44,5.09,5.09,0,0,1-.64-2.56,5.28,5.28,0,0,1,.61-2.57A4.6,4.6,0,0,1,198,71.91a4.5,4.5,0,0,1,2.44-.66,4.71,4.71,0,0,1,2,.43,4.58,4.58,0,0,1,1.63,1.3.48.48,0,0,1,.14.46.71.71,0,0,1-.3.42.58.58,0,0,1-.44.1.72.72,0,0,1-.43-.26,3.32,3.32,0,0,0-2.63-1.19,3.26,3.26,0,0,0-1.77.48,3.37,3.37,0,0,0-1.19,1.34,4.29,4.29,0,0,0-.42,1.94,4.07,4.07,0,0,0,.45,1.93,3.43,3.43,0,0,0,1.26,1.33,3.57,3.57,0,0,0,1.85.48,4.37,4.37,0,0,0,1.29-.18,3.06,3.06,0,0,0,1-.59.76.76,0,0,1,.45-.2.6.6,0,0,1,.43.15.72.72,0,0,1,.24.45.49.49,0,0,1-.17.43A4.69,4.69,0,0,1,200.66,81.27Z" fill="#fff"/></g></g></svg>