<svg xmlns="http://www.w3.org/2000/svg" xmlns:xlink="http://www.w3.org/1999/xlink" viewBox="0 0 177.64 114.53"><defs><linearGradient id="linear-gradient" x1="1" y1="62.86" x2="176.64" y2="62.86" gradientUnits="userSpaceOnUse"><stop offset="0.69" stop-color="#fa8f9d"/><stop offset="1" stop-color="#ffa7b5"/></linearGradient></defs><title>m_08_1</title><g id="Layer_2" data-name="Layer 2"><g id="bubble_talk" data-name="bubble talk"><path d="M91.84,113.52c-39.17-.1-60.75-.16-67.48-21.79-4.76-15.28-5.59-35.27-5.72-39.32a34.52,34.52,0,0,1-8.39-4.07C4.2,44.26,1,38.82,1,32.62a1,1,0,0,1,.55-.89A1.06,1.06,0,0,1,2,31.62a1,1,0,0,1,.6.2c3.19,2.41,7.48,3.59,13.11,3.59,1.93,0,3.78-.14,5.29-.28,2-11.88,8.46-21.58,57.35-21.58h2c14.3,0,26.41-.43,37.1-.82,7.92-.28,14.76-.53,20.78-.53,29.27,0,38.38,5.88,38.38,42.67,0,23.67-2.17,38.17-13.67,47-10.85,8.37-30,11.63-68.24,11.63Z" fill="url(#linear-gradient)"/><path d="M138.26,13.2c29.06,0,37.38,5.83,37.38,41.67,0,46.43-8.45,57.66-80.92,57.66h-2c-39-.1-60.88,0-67.45-21.09C20,74.37,19.63,51.66,19.63,51.66S2,46.94,2,32.62c4,3,9,3.78,13.71,3.78,2.16,0,4.25-.16,6.15-.35,1.78-11.4,6.16-21.5,56.49-21.5h2c25,0,43.87-1.35,57.88-1.35m0-2c-6,0-12.89.25-20.82.53-10.67.39-22.77.82-37.06.82h-2c-23.51,0-38.57,2.13-47.37,6.7-7.79,4-9.86,9.71-10.83,15-1.33.11-2.86.2-4.44.2-5.4,0-9.5-1.1-12.5-3.37A2,2,0,0,0,0,32.62c0,6.55,3.35,12.27,9.69,16.55a35.77,35.77,0,0,0,8,4c.18,5.32,1.12,24,5.74,38.89,3.32,10.65,10.33,16.72,22.74,19.7,11.24,2.7,26.45,2.74,45.7,2.79h2.88c38.5,0,57.81-3.32,68.86-11.84,11.82-9.11,14.06-23.83,14.06-47.82,0-19.16-2.42-29.5-8.35-35.66-6.42-6.67-16.63-8-31-8Z"/><path d="M89.63,103.65c-36.86-.1-59.75-1.47-66.86-19.57C17.09,69.59,18.6,49.44,19,44.83c-3.36-.67-14.57-3.51-18-11.83a1,1,0,0,1,.13-1,1,1,0,0,1,.8-.41h.09l1.25.11c1.79.18,4.24.41,6.65.41,4.61,0,7.56-.87,8.76-2.58C22.16,9.25,25.69,1,75.53,1H76.7c77.19.15,95.53.18,95.53,47.08,0,23.87-2,37.45-13,45.45-11.6,8.46-33.34,10.12-67,10.12Z" fill="#897dff"/><path d="M75.53,2h.89c78.07.15,94.81.13,94.81,46.08,0,46.28-7.16,54.57-78.94,54.57H89.63c-39-.11-59.3-2.05-65.93-18.93C17.4,67.66,20.14,44,20.14,44S5.76,41.83,2,32.62c1.91.17,4.94.53,8,.53,4,0,8.11-.63,9.71-3.2C23,10.16,25.39,2,75.53,2m0-2C25.07,0,21.3,8.43,17.8,29.16c-.8,1-2.83,2-7.81,2-2.36,0-4.69-.22-6.56-.4l-1.26-.12H2A2,2,0,0,0,.15,33.38C3.47,41.51,13.72,44.65,18,45.62c-.2,2.37-.49,6.83-.41,12.25.14,10.75,1.58,19.69,4.28,26.58,7.34,18.69,30.5,20.1,67.78,20.2h2.67c33.85,0,55.75-1.69,67.57-10.32,11.3-8.25,13.37-22,13.37-46.25,0-12.5-1.23-20.93-4-27.33-3-6.94-7.86-11.62-15.32-14.71C139.65.12,116,.08,76.7,0H75.53Z"/><path d="M48.23,37.62a.61.61,0,0,1-.62-.62V25.75a.57.57,0,0,1,.18-.44.6.6,0,0,1,.44-.18.6.6,0,0,1,.56.32l5.39,10.72h-.54l5.29-10.72a.63.63,0,0,1,.56-.32.6.6,0,0,1,.61.62V37a.64.64,0,0,1-.17.44.6.6,0,0,1-.44.18.63.63,0,0,1-.64-.62V27.37h.28L54.41,37a.58.58,0,0,1-.55.31.58.58,0,0,1-.57-.39l-4.76-9.5.32-.08V37a.61.61,0,0,1-.62.62Z" fill="#fff"/><path d="M67.13,37.7a4.55,4.55,0,0,1-2.29-.57,4.26,4.26,0,0,1-1.59-1.59,4.54,4.54,0,0,1-.57-2.28A4.6,4.6,0,0,1,63.25,31a4.23,4.23,0,0,1,1.59-1.58,4.79,4.79,0,0,1,4.57,0A4.18,4.18,0,0,1,71,31a4.61,4.61,0,0,1,.59,2.31A4.44,4.44,0,0,1,71,35.54a4.3,4.3,0,0,1-1.58,1.59A4.54,4.54,0,0,1,67.13,37.7Zm0-1.12a3.21,3.21,0,0,0,1.66-.43A3.1,3.1,0,0,0,69.94,35a3.44,3.44,0,0,0,.42-1.71,3.48,3.48,0,0,0-.42-1.72,3,3,0,0,0-1.15-1.19,3.37,3.37,0,0,0-3.33,0,3,3,0,0,0-1.16,1.19,3.48,3.48,0,0,0-.42,1.72A3.44,3.44,0,0,0,64.3,35a3.13,3.13,0,0,0,1.16,1.18A3.22,3.22,0,0,0,67.13,36.58Zm0,4.39a.83.83,0,0,1-.61-.26.84.84,0,0,1-.25-.62.77.77,0,0,1,.26-.63.89.89,0,0,1,.62-.23.87.87,0,0,1,.6.23.8.8,0,0,1,.26.63.89.89,0,0,1-.88.88Z" fill="#fff"/><path d="M74.84,27.21a.83.83,0,0,1-.61-.26.85.85,0,0,1-.26-.62.77.77,0,0,1,.27-.63.87.87,0,0,1,.61-.24.85.85,0,0,1,.6.24.77.77,0,0,1,.27.63.89.89,0,0,1-.88.88Zm0,10.41a.61.61,0,0,1-.45-.16.64.64,0,0,1-.17-.46V29.5A.64.64,0,0,1,74.4,29a.61.61,0,0,1,.45-.17.6.6,0,0,1,.44.17.6.6,0,0,1,.17.46V37a.57.57,0,0,1-.61.62Z" fill="#fff"/><path d="M82.73,30.27a.56.56,0,0,1-.4-.16.47.47,0,0,1-.16-.37.5.5,0,0,1,.16-.39.52.52,0,0,1,.4-.16h4.08a.55.55,0,0,1,.56.55.51.51,0,0,1-.16.37.58.58,0,0,1-.4.16Zm4,7.35a2.9,2.9,0,0,1-1.51-.39,3,3,0,0,1-1-1.1,3.22,3.22,0,0,1-.38-1.59V26.71a.6.6,0,0,1,.16-.44.59.59,0,0,1,.44-.18.61.61,0,0,1,.45.18.57.57,0,0,1,.18.44v7.83a1.87,1.87,0,0,0,.48,1.33,1.59,1.59,0,0,0,1.23.52h.43a.54.54,0,0,1,.42.18.69.69,0,0,1,.16.45.58.58,0,0,1-.19.44.71.71,0,0,1-.48.16Z" fill="#fff"/><path d="M90.34,34.06a.58.58,0,0,1-.45-.18.6.6,0,0,1-.17-.45V25.75a.57.57,0,0,1,.17-.45.61.61,0,0,1,.45-.17.6.6,0,0,1,.44.17.61.61,0,0,1,.17.45v7.68a.64.64,0,0,1-.17.45A.57.57,0,0,1,90.34,34.06Zm0,3.56a.61.61,0,0,1-.45-.16.57.57,0,0,1-.17-.44V29.5a.6.6,0,0,1,.17-.46.61.61,0,0,1,.45-.17.6.6,0,0,1,.44.17.64.64,0,0,1,.17.46V37a.6.6,0,0,1-.17.44A.6.6,0,0,1,90.34,37.62Zm6.88,0a.6.6,0,0,1-.45-.17A.61.61,0,0,1,96.6,37V32.86a3.17,3.17,0,0,0-.38-1.63,2.36,2.36,0,0,0-1-1A3.18,3.18,0,0,0,93.73,30a3.24,3.24,0,0,0-1.41.3,2.49,2.49,0,0,0-1,.83,2,2,0,0,0-.37,1.2h-.88a3.46,3.46,0,0,1,.54-1.8A3.8,3.8,0,0,1,92,29.23a4,4,0,0,1,1.89-.45,4.19,4.19,0,0,1,2,.47,3.49,3.49,0,0,1,1.42,1.38,4.41,4.41,0,0,1,.52,2.23V37a.58.58,0,0,1-.18.43A.56.56,0,0,1,97.22,37.62Z" fill="#fff"/><path d="M104.41,37.7a4.19,4.19,0,0,1-2.21-.58,4.3,4.3,0,0,1-1.55-1.59,4.52,4.52,0,0,1-.56-2.27,4.46,4.46,0,0,1,.58-2.29,4.33,4.33,0,0,1,1.59-1.59,4.66,4.66,0,0,1,4.54,0A4.38,4.38,0,0,1,108.38,31a4.57,4.57,0,0,1,.6,2.29l-.49.38a4,4,0,0,1-.54,2.07,3.93,3.93,0,0,1-1.46,1.46A4,4,0,0,1,104.41,37.7Zm.12-1.12a3.19,3.19,0,0,0,1.66-.43A3.06,3.06,0,0,0,107.34,35a3.46,3.46,0,0,0,.43-1.7,3.51,3.51,0,0,0-.43-1.72,3.25,3.25,0,0,0-4.45-1.19,3.26,3.26,0,0,0-1.17,1.19,3.41,3.41,0,0,0-.43,1.72,3.36,3.36,0,0,0,.43,1.7,3.11,3.11,0,0,0,1.17,1.19A3.16,3.16,0,0,0,104.53,36.58Zm3.83,1a.64.64,0,0,1-.45-.16.57.57,0,0,1-.18-.44V34.28L108,33l.94.24V37a.6.6,0,0,1-.17.44A.64.64,0,0,1,108.36,37.62Z" fill="#fff"/><path d="M114.66,37.35a.55.55,0,0,1-.78-.27l-3.57-7.39a.51.51,0,0,1,0-.45.59.59,0,0,1,.32-.32.54.54,0,0,1,.77.27l3.5,7.39A.63.63,0,0,1,115,37,.46.46,0,0,1,114.66,37.35Zm-1.77,4.08a.79.79,0,0,1-.29-.06.51.51,0,0,1-.31-.77l5.17-11.39a.53.53,0,0,1,.77-.29.49.49,0,0,1,.3.75l-5.18,11.4A.51.51,0,0,1,112.89,41.43Z" fill="#fff"/><path d="M128.82,37.7a4.43,4.43,0,0,1-2.27-.58A4.33,4.33,0,0,1,125,35.53a4.77,4.77,0,0,1,0-4.56,4.21,4.21,0,0,1,3.75-2.18,4.15,4.15,0,0,1,1.94.46A3.89,3.89,0,0,1,132,30.46V25.75a.58.58,0,0,1,.18-.45.6.6,0,0,1,.44-.17.63.63,0,0,1,.45.17.58.58,0,0,1,.18.45v7.56a4.55,4.55,0,0,1-.62,2.24,4.28,4.28,0,0,1-1.58,1.58A4.48,4.48,0,0,1,128.82,37.7Zm0-1.12a3.19,3.19,0,0,0,1.66-.43,3.31,3.31,0,0,0,1.15-1.2,3.67,3.67,0,0,0,0-3.41,3.06,3.06,0,0,0-1.15-1.19,3.33,3.33,0,0,0-3.31,0A3,3,0,0,0,126,31.54,3.52,3.52,0,0,0,126,35a3.26,3.26,0,0,0,1.16,1.2A3.17,3.17,0,0,0,128.82,36.58Zm.62-8.89a.6.6,0,0,1-.42-.15.5.5,0,0,1-.17-.38.49.49,0,0,1,.17-.38.64.64,0,0,1,.42-.13h4.66a.68.68,0,0,1,.44.13.49.49,0,0,1,.17.38.5.5,0,0,1-.17.38.63.63,0,0,1-.44.15Z" fill="#fff"/><path d="M140.13,37.7a4.6,4.6,0,0,1-2.29-.57,4.16,4.16,0,0,1-1.58-1.59,4.55,4.55,0,0,1-.58-2.28,4.61,4.61,0,0,1,.58-2.31,4.13,4.13,0,0,1,1.58-1.58,4.61,4.61,0,0,1,2.29-.58,4.49,4.49,0,0,1,2.28.58A4.2,4.2,0,0,1,144,31a4.72,4.72,0,0,1,.59,2.31,4.44,4.44,0,0,1-.58,2.28,4.26,4.26,0,0,1-1.59,1.59A4.49,4.49,0,0,1,140.13,37.7Zm0-1.12a3.22,3.22,0,0,0,1.67-.43A3.1,3.1,0,0,0,143,35a3.43,3.43,0,0,0,.41-1.71,3.47,3.47,0,0,0-.41-1.72,3,3,0,0,0-1.15-1.19,3.23,3.23,0,0,0-1.67-.44,3.19,3.19,0,0,0-1.66.44,3,3,0,0,0-1.16,1.19,3.48,3.48,0,0,0-.43,1.72,3.44,3.44,0,0,0,.43,1.71,3.13,3.13,0,0,0,1.16,1.18A3.19,3.19,0,0,0,140.13,36.58Zm-1.81-9.1a.68.68,0,0,1-.45-.15.52.52,0,0,1-.19-.41.65.65,0,0,1,.31-.54l1.89-1.25a.56.56,0,0,1,.3-.08l.18,0,.14.06,1.87,1.25a.65.65,0,0,1,.31.54.52.52,0,0,1-.18.4.64.64,0,0,1-.45.16.64.64,0,0,1-.2,0,.54.54,0,0,1-.18-.1l-1.49-1-1.49,1A.6.6,0,0,1,138.32,27.48Zm3.4-2.13a.56.56,0,0,1-.41-.16.58.58,0,0,1-.17-.41v-.45a.59.59,0,0,1,.51-.63l.4-.08a.91.91,0,0,0,.5-.25.69.69,0,0,0,.16-.45.67.67,0,0,0-.23-.54.87.87,0,0,0-.57-.19,1,1,0,0,0-.39.07,2,2,0,0,0-.32.18.4.4,0,0,1-.19.11.76.76,0,0,1-.21,0,.55.55,0,0,1-.36-.13.49.49,0,0,1-.15-.38.56.56,0,0,1,.19-.43,2.42,2.42,0,0,1,.64-.37,2.3,2.3,0,0,1,.77-.12,1.92,1.92,0,0,1,1.34.47,1.53,1.53,0,0,1,.53,1.22,1.35,1.35,0,0,1-.48,1.13,2.29,2.29,0,0,1-1.13.47l.13.21a.76.76,0,0,1-.17.52A.51.51,0,0,1,141.72,25.35Z" fill="#fff"/><path d="M147.84,27.21a.83.83,0,0,1-.6-.26.85.85,0,0,1-.26-.62.8.8,0,0,1,.26-.63.91.91,0,0,1,.62-.24.88.88,0,0,1,.6.24.77.77,0,0,1,.26.63.84.84,0,0,1-.25.62A.86.86,0,0,1,147.84,27.21Zm0,10.41a.65.65,0,0,1-.46-.16.63.63,0,0,1-.16-.46V29.5a.63.63,0,0,1,.16-.46.65.65,0,0,1,.46-.17.6.6,0,0,1,.44.17.64.64,0,0,1,.17.46V37a.64.64,0,0,1-.17.46A.6.6,0,0,1,147.86,37.62Z" fill="#fff"/><path d="M41.09,57.7a4.47,4.47,0,0,1-2.28-.58,4.33,4.33,0,0,1-1.59-1.59,4.48,4.48,0,0,1-.58-2.29A4.53,4.53,0,0,1,37.21,51a4.27,4.27,0,0,1,1.54-1.59A4.22,4.22,0,0,1,41,48.79a4.1,4.1,0,0,1,1.93.46,3.92,3.92,0,0,1,1.4,1.21V45.75a.57.57,0,0,1,.17-.45.68.68,0,0,1,.9,0,.57.57,0,0,1,.17.45v7.56a4.55,4.55,0,0,1-.61,2.24,4.3,4.3,0,0,1-1.59,1.58A4.42,4.42,0,0,1,41.09,57.7Zm0-1.12a3.12,3.12,0,0,0,1.65-.43A3.23,3.23,0,0,0,43.89,55a3.6,3.6,0,0,0,0-3.41,3,3,0,0,0-1.15-1.19,3.13,3.13,0,0,0-1.65-.44,3.18,3.18,0,0,0-1.65.44,3.11,3.11,0,0,0-1.17,1.19,3.41,3.41,0,0,0,1.17,4.61A3.17,3.17,0,0,0,41.09,56.58Zm.62-8.89a.6.6,0,0,1-.42-.15.47.47,0,0,1-.17-.38.46.46,0,0,1,.17-.38.64.64,0,0,1,.42-.13h4.66a.7.7,0,0,1,.44.13.48.48,0,0,1,.16.38.49.49,0,0,1-.16.38.65.65,0,0,1-.44.15Z" fill="#fff"/><path d="M52.38,57.7a4.52,4.52,0,0,1-2.29-.56,4.11,4.11,0,0,1-1.57-1.58,4.59,4.59,0,0,1-.57-2.3A4.75,4.75,0,0,1,48.49,51,4,4,0,0,1,50,49.37a4.09,4.09,0,0,1,2.17-.58,4,4,0,0,1,2.12.56,3.68,3.68,0,0,1,1.4,1.52,4.88,4.88,0,0,1,.5,2.23.54.54,0,0,1-.16.4.57.57,0,0,1-.42.16h-6.8v-1h6.93l-.69.5a3.78,3.78,0,0,0-.33-1.67,2.81,2.81,0,0,0-1-1.15,2.89,2.89,0,0,0-1.55-.41,2.93,2.93,0,0,0-1.6.43,2.85,2.85,0,0,0-1.06,1.19,3.9,3.9,0,0,0-.38,1.74A3.42,3.42,0,0,0,49.53,55a3.13,3.13,0,0,0,1.16,1.18,3.24,3.24,0,0,0,1.69.43,3.63,3.63,0,0,0,1.16-.2,2.87,2.87,0,0,0,.94-.5.65.65,0,0,1,.4-.16.6.6,0,0,1,.38.12.62.62,0,0,1,.22.42.46.46,0,0,1-.19.38,4.39,4.39,0,0,1-1.34.75A4.52,4.52,0,0,1,52.38,57.7ZM50.21,47.48a.69.69,0,0,1-.46-.15.51.51,0,0,1-.18-.41.63.63,0,0,1,.3-.54l1.89-1.25a.56.56,0,0,1,.3-.08l.18,0,.14.06,1.87,1.25a.62.62,0,0,1,.31.54.52.52,0,0,1-.18.4.62.62,0,0,1-.45.16.64.64,0,0,1-.2,0,.66.66,0,0,1-.18-.1l-1.49-1-1.49,1A.57.57,0,0,1,50.21,47.48Zm3.39-2.74a.57.57,0,0,1-.42-.17l-1.81-1.79a.65.65,0,0,1-.16-.43.62.62,0,0,1,.18-.46.59.59,0,0,1,.43-.19.62.62,0,0,1,.45.2l1.79,1.8a.51.51,0,0,1,.16.41.61.61,0,0,1-.18.45A.6.6,0,0,1,53.6,44.74Z" fill="#fff"/><path d="M62.05,57.72a4.38,4.38,0,0,1-2-.47,3.49,3.49,0,0,1-1.41-1.39,4.34,4.34,0,0,1-.52-2.22V49.48a.61.61,0,0,1,.17-.43.59.59,0,0,1,.44-.18.57.57,0,0,1,.44.18.58.58,0,0,1,.18.43v4.16a3.17,3.17,0,0,0,.38,1.63,2.36,2.36,0,0,0,1,1,3.16,3.16,0,0,0,1.46.32,3.25,3.25,0,0,0,1.42-.3,2.55,2.55,0,0,0,1-.83,2,2,0,0,0,.37-1.2h.88a3.66,3.66,0,0,1-.55,1.8,3.72,3.72,0,0,1-1.36,1.25A3.93,3.93,0,0,1,62.05,57.72Zm3.52-.1A.57.57,0,0,1,65,57V49.48a.57.57,0,0,1,.17-.44A.65.65,0,0,1,66,49a.57.57,0,0,1,.18.44V57a.58.58,0,0,1-.62.62Z" fill="#fff"/><path d="M78.19,57.7a4.48,4.48,0,0,1-2.25-.57,4.35,4.35,0,0,1-1.58-1.58,4.44,4.44,0,0,1-.6-2.24V45.75a.57.57,0,0,1,.17-.45.61.61,0,0,1,.45-.17.6.6,0,0,1,.44.17.61.61,0,0,1,.17.45v4.71a3.84,3.84,0,0,1,1.4-1.21,4.38,4.38,0,0,1,4.15.13A4.3,4.3,0,0,1,82.09,51a4.85,4.85,0,0,1,0,4.56,4.33,4.33,0,0,1-1.59,1.59A4.48,4.48,0,0,1,78.19,57.7Zm0-1.12a3.19,3.19,0,0,0,1.66-.43A3.26,3.26,0,0,0,81,55a3.6,3.6,0,0,0,0-3.41,3,3,0,0,0-1.16-1.19,3.33,3.33,0,0,0-3.31,0,3,3,0,0,0-1.15,1.19,3.67,3.67,0,0,0,0,3.41,3.23,3.23,0,0,0,1.15,1.2A3.17,3.17,0,0,0,78.19,56.58Z" fill="#fff"/><path d="M88.93,57.7a4.19,4.19,0,0,1-2.21-.58,4.3,4.3,0,0,1-1.55-1.59,4.63,4.63,0,0,1-.56-2.27A4.46,4.46,0,0,1,85.19,51a4.33,4.33,0,0,1,1.59-1.59,4.66,4.66,0,0,1,4.54,0A4.38,4.38,0,0,1,92.9,51a4.57,4.57,0,0,1,.6,2.29l-.49.38a4,4,0,0,1-.54,2.07A3.93,3.93,0,0,1,91,57.17,4,4,0,0,1,88.93,57.7Zm.12-1.12a3.19,3.19,0,0,0,1.66-.43A3.06,3.06,0,0,0,91.86,55a3.46,3.46,0,0,0,.43-1.7,3.51,3.51,0,0,0-.43-1.72,3.25,3.25,0,0,0-4.45-1.19,3.34,3.34,0,0,0-1.17,1.19,3.41,3.41,0,0,0-.43,1.72,3.36,3.36,0,0,0,.43,1.7,3.17,3.17,0,0,0,2.81,1.62Zm0-9a3,3,0,0,1-1.24-.25,2.33,2.33,0,0,1-.91-.67,1.46,1.46,0,0,1-.35-.94.61.61,0,0,1,.18-.45.56.56,0,0,1,.43-.19.65.65,0,0,1,.42.16.57.57,0,0,1,.17.42.76.76,0,0,0,.37.62,1.6,1.6,0,0,0,.93.26,1.63,1.63,0,0,0,1-.26.76.76,0,0,0,.35-.62.54.54,0,0,1,.18-.42A.63.63,0,0,1,91,45a.52.52,0,0,1,.42.19.64.64,0,0,1,.17.44,1.53,1.53,0,0,1-.37,1,2.38,2.38,0,0,1-.91.66A3.25,3.25,0,0,1,89,47.53Zm-.1-2.67a.6.6,0,0,1-.44-.18.61.61,0,0,1-.18-.45.64.64,0,0,1,.14-.41L90.27,42a.62.62,0,0,1,.88,0,.61.61,0,0,1,.18.45.93.93,0,0,1,0,.23.52.52,0,0,1-.14.19L89.36,44.7A.61.61,0,0,1,88.94,44.86Zm3.94,12.76a.64.64,0,0,1-.45-.16.57.57,0,0,1-.18-.44V54.28L92.56,53l.94.24V57a.6.6,0,0,1-.17.44A.64.64,0,0,1,92.88,57.62Z" fill="#fff"/><path d="M95.34,50.27a.58.58,0,0,1-.4-.16.51.51,0,0,1-.16-.37.55.55,0,0,1,.56-.55h4.08a.52.52,0,0,1,.4.16.5.5,0,0,1,.16.39.47.47,0,0,1-.16.37.56.56,0,0,1-.4.16Zm4,7.35a3,3,0,0,1-1.52-.39,2.89,2.89,0,0,1-1-1.1,3.23,3.23,0,0,1-.39-1.59V46.71a.6.6,0,0,1,.17-.44.57.57,0,0,1,.44-.18.61.61,0,0,1,.45.18.6.6,0,0,1,.17.44v7.83a1.87,1.87,0,0,0,.48,1.33,1.59,1.59,0,0,0,1.24.52h.43a.51.51,0,0,1,.41.18.64.64,0,0,1,.16.45.55.55,0,0,1-.19.44.71.71,0,0,1-.48.16Z" fill="#fff"/><path d="M111,57.7a4.47,4.47,0,0,1-2.28-.58,4.33,4.33,0,0,1-1.59-1.59,4.48,4.48,0,0,1-.58-2.29,4.53,4.53,0,0,1,.57-2.27,4.27,4.27,0,0,1,1.54-1.59,4.22,4.22,0,0,1,2.21-.59,4.1,4.1,0,0,1,1.93.46,3.92,3.92,0,0,1,1.4,1.21V45.75a.57.57,0,0,1,.17-.45.68.68,0,0,1,.9,0,.57.57,0,0,1,.17.45v7.56a4.55,4.55,0,0,1-.61,2.24,4.3,4.3,0,0,1-1.59,1.58A4.42,4.42,0,0,1,111,57.7Zm0-1.12a3.12,3.12,0,0,0,1.65-.43,3.23,3.23,0,0,0,1.15-1.2,3.6,3.6,0,0,0,0-3.41,3,3,0,0,0-1.15-1.19,3.13,3.13,0,0,0-1.65-.44,3.18,3.18,0,0,0-1.65.44,3.11,3.11,0,0,0-1.17,1.19,3.41,3.41,0,0,0,1.17,4.61A3.17,3.17,0,0,0,111,56.58Zm.62-8.89a.6.6,0,0,1-.42-.15.47.47,0,0,1-.17-.38.46.46,0,0,1,.17-.38.64.64,0,0,1,.42-.13h4.66a.7.7,0,0,1,.44.13.48.48,0,0,1,.16.38.49.49,0,0,1-.16.38.65.65,0,0,1-.44.15Z" fill="#fff"/><path d="M122.19,57.7a4.22,4.22,0,0,1-2.21-.58,4.27,4.27,0,0,1-1.54-1.59,4.53,4.53,0,0,1-.57-2.27,4.46,4.46,0,0,1,.58-2.29,4.28,4.28,0,0,1,1.6-1.59,4.64,4.64,0,0,1,4.53,0A4.33,4.33,0,0,1,126.17,51a4.67,4.67,0,0,1,.6,2.29l-.5.38a4,4,0,0,1-.54,2.07,3.91,3.91,0,0,1-1.45,1.46A4.06,4.06,0,0,1,122.19,57.7Zm.13-1.12a3.12,3.12,0,0,0,1.65-.43A3.16,3.16,0,0,0,125.13,55a3.46,3.46,0,0,0,.42-1.7,3.51,3.51,0,0,0-.42-1.72A3.31,3.31,0,0,0,124,50.35a3.13,3.13,0,0,0-1.65-.44,3.18,3.18,0,0,0-1.65.44,3.34,3.34,0,0,0-1.17,1.19,3.41,3.41,0,0,0-.43,1.72,3.36,3.36,0,0,0,.43,1.7,3.17,3.17,0,0,0,2.82,1.62Zm-1.86-9.1a.68.68,0,0,1-.45-.15.49.49,0,0,1-.19-.41.62.62,0,0,1,.31-.54L122,45.13a.62.62,0,0,1,.31-.08l.17,0,.15.06,1.87,1.25a.63.63,0,0,1,.3.54.51.51,0,0,1-.17.4.64.64,0,0,1-.45.16.64.64,0,0,1-.2,0,.54.54,0,0,1-.18-.1l-1.49-1-1.49,1A.6.6,0,0,1,120.46,47.48Zm3.39-2.74a.53.53,0,0,1-.41-.17l-1.81-1.79a.6.6,0,0,1-.16-.43.62.62,0,0,1,.18-.46.57.57,0,0,1,.43-.19.62.62,0,0,1,.45.2l1.79,1.8a.55.55,0,0,1,.16.41.58.58,0,0,1-.19.45A.6.6,0,0,1,123.85,44.74Zm2.29,12.88a.64.64,0,0,1-.45-.16.6.6,0,0,1-.17-.44V54.28l.3-1.26,1,.24V57a.57.57,0,0,1-.18.44A.64.64,0,0,1,126.14,57.62Z" fill="#fff"/><path d="M133,57.72a4.37,4.37,0,0,1-2-.47,3.43,3.43,0,0,1-1.41-1.39,4.34,4.34,0,0,1-.52-2.22V49.48a.57.57,0,0,1,.17-.43.58.58,0,0,1,.43-.18.6.6,0,0,1,.45.18.58.58,0,0,1,.18.43v4.16a3.17,3.17,0,0,0,.37,1.63,2.38,2.38,0,0,0,1,1,3.16,3.16,0,0,0,1.46.32,3.28,3.28,0,0,0,1.42-.3,2.55,2.55,0,0,0,1-.83,2.1,2.1,0,0,0,.37-1.2h.88a3.67,3.67,0,0,1-.56,1.8,3.62,3.62,0,0,1-1.35,1.25A3.94,3.94,0,0,1,133,57.72Zm3.52-.1a.61.61,0,0,1-.44-.16.63.63,0,0,1-.16-.46V49.48a.6.6,0,0,1,.16-.44.62.62,0,0,1,.44-.17.63.63,0,0,1,.45.17.57.57,0,0,1,.18.44V57a.6.6,0,0,1-.18.46A.62.62,0,0,1,136.49,57.62Z" fill="#fff"/><path d="M144.13,50.27a.56.56,0,0,1-.4-.16.47.47,0,0,1-.16-.37.5.5,0,0,1,.16-.39.52.52,0,0,1,.4-.16h4.08a.55.55,0,0,1,.56.55.51.51,0,0,1-.16.37.58.58,0,0,1-.4.16Zm4,7.35a2.93,2.93,0,0,1-1.51-.39,3,3,0,0,1-1-1.1,3.22,3.22,0,0,1-.38-1.59V46.71a.6.6,0,0,1,.16-.44.59.59,0,0,1,.44-.18.6.6,0,0,1,.45.18.57.57,0,0,1,.18.44v7.83a1.87,1.87,0,0,0,.48,1.33,1.59,1.59,0,0,0,1.23.52h.43a.54.54,0,0,1,.42.18.69.69,0,0,1,.16.45.58.58,0,0,1-.19.44.71.71,0,0,1-.48.16Z" fill="#fff"/><path d="M154.93,57.72a4.38,4.38,0,0,1-2-.47,3.49,3.49,0,0,1-1.41-1.39,4.34,4.34,0,0,1-.52-2.22V49.48a.61.61,0,0,1,.17-.43.59.59,0,0,1,.44-.18.57.57,0,0,1,.44.18.58.58,0,0,1,.18.43v4.16a3.17,3.17,0,0,0,.38,1.63,2.36,2.36,0,0,0,1,1,3.16,3.16,0,0,0,1.46.32,3.25,3.25,0,0,0,1.42-.3,2.55,2.55,0,0,0,1-.83,2,2,0,0,0,.37-1.2h.88a3.66,3.66,0,0,1-.55,1.8,3.72,3.72,0,0,1-1.36,1.25A3.93,3.93,0,0,1,154.93,57.72Zm.16-10.27a.58.58,0,0,1-.42-.18l-1.81-1.79a.69.69,0,0,1-.16-.43.65.65,0,0,1,.18-.46.58.58,0,0,1,.43-.18.61.61,0,0,1,.45.19l1.79,1.81a.47.47,0,0,1,.16.4.65.65,0,0,1-.18.46A.57.57,0,0,1,155.09,47.45Zm3.36,10.17a.58.58,0,0,1-.44-.16.6.6,0,0,1-.17-.46V49.48A.57.57,0,0,1,158,49a.59.59,0,0,1,.44-.17.6.6,0,0,1,.44.17.57.57,0,0,1,.18.44V57a.58.58,0,0,1-.62.62Zm0-7.61V48.87h.7a.6.6,0,0,0,.49-.24.93.93,0,0,0,.2-.64v-.33a.63.63,0,0,1,.15-.43.52.52,0,0,1,.41-.18.48.48,0,0,1,.43.21.81.81,0,0,1,.15.49V48a2.21,2.21,0,0,1-.24,1,1.86,1.86,0,0,1-.65.71,1.65,1.65,0,0,1-.94.27Z" fill="#fff"/><path d="M43,77.62a.61.61,0,0,1-.46-.16.6.6,0,0,1-.17-.44V69.5a.64.64,0,0,1,.17-.45.65.65,0,0,1,.9,0,.64.64,0,0,1,.16.45V77a.6.6,0,0,1-.16.44A.61.61,0,0,1,43,77.62Zm5.61,0a.6.6,0,0,1-.44-.16A.57.57,0,0,1,48,77V72.41a2.62,2.62,0,0,0-.59-1.8A2,2,0,0,0,45.85,70a2.21,2.21,0,0,0-1.64.64,2.35,2.35,0,0,0-.64,1.69h-.88a4.26,4.26,0,0,1,.46-1.82,3.25,3.25,0,0,1,4.5-1.23,3,3,0,0,1,1.13,1.26,4.25,4.25,0,0,1,.41,1.92V77a.57.57,0,0,1-.17.44A.6.6,0,0,1,48.58,77.62Zm5.59,0a.62.62,0,0,1-.45-.16.57.57,0,0,1-.18-.44V72.41a2.62,2.62,0,0,0-.59-1.8A1.94,1.94,0,0,0,51.43,70a2.14,2.14,0,0,0-1.62.66,2.41,2.41,0,0,0-.62,1.77h-1.1a3.94,3.94,0,0,1,.46-1.89,3.17,3.17,0,0,1,1.23-1.26,3.51,3.51,0,0,1,1.78-.45,3.09,3.09,0,0,1,1.67.45,3,3,0,0,1,1.14,1.26,4.25,4.25,0,0,1,.4,1.92V77a.6.6,0,0,1-.16.44A.61.61,0,0,1,54.17,77.62Z" fill="#fff"/><path d="M61.48,77.7a4.58,4.58,0,0,1-2.29-.57,4.16,4.16,0,0,1-1.58-1.59A4.44,4.44,0,0,1,57,73.26,4.5,4.5,0,0,1,57.61,71a4.13,4.13,0,0,1,1.58-1.58,4.79,4.79,0,0,1,4.57,0A4.2,4.2,0,0,1,65.34,71a4.72,4.72,0,0,1,.59,2.31,4.45,4.45,0,0,1-.59,2.28,4.23,4.23,0,0,1-1.58,1.59A4.54,4.54,0,0,1,61.48,77.7Zm0-1.12a3.19,3.19,0,0,0,1.66-.43A3.13,3.13,0,0,0,64.3,75a3.54,3.54,0,0,0,.41-1.71,3.58,3.58,0,0,0-.41-1.72,3,3,0,0,0-1.16-1.19,3.19,3.19,0,0,0-1.66-.44,3.25,3.25,0,0,0-1.67.44,3.09,3.09,0,0,0-1.16,1.19,3.48,3.48,0,0,0-.42,1.72A3.44,3.44,0,0,0,58.65,75a3.2,3.2,0,0,0,1.16,1.18A3.25,3.25,0,0,0,61.48,76.58Zm1-12a1.34,1.34,0,0,1-.72-.19,3.19,3.19,0,0,1-.53-.4,4.32,4.32,0,0,0-.39-.33.59.59,0,0,0-.33-.11.44.44,0,0,0-.33.16,2.1,2.1,0,0,0-.28.44.64.64,0,0,1-.31.28.49.49,0,0,1-.41,0,.47.47,0,0,1-.29-.28.57.57,0,0,1,0-.44,2.7,2.7,0,0,1,.67-.9,1.36,1.36,0,0,1,.85-.28,1.3,1.3,0,0,1,.75.2c.18.13.36.27.52.41a3.08,3.08,0,0,0,.4.3.59.59,0,0,0,.25.08c.15,0,.29-.13.4-.38a.8.8,0,0,1,.31-.32.59.59,0,0,1,.41,0,.6.6,0,0,1,.35.31.42.42,0,0,1,0,.43,2.36,2.36,0,0,1-.59.81A1.19,1.19,0,0,1,62.46,64.62Zm-2.81,2.86a.68.68,0,0,1-.45-.15.52.52,0,0,1-.19-.41.65.65,0,0,1,.31-.54l1.89-1.25a.56.56,0,0,1,.3-.08l.18,0,.14.06,1.87,1.25a.62.62,0,0,1,.31.54.52.52,0,0,1-.18.4.64.64,0,0,1-.45.16.64.64,0,0,1-.2,0,.54.54,0,0,1-.18-.1l-1.49-1-1.49,1A.58.58,0,0,1,59.65,67.48Z" fill="#fff"/><path d="M69.19,67.21a.87.87,0,0,1-.86-.88.8.8,0,0,1,.26-.63.89.89,0,0,1,.62-.24.88.88,0,0,1,.6.24.8.8,0,0,1,.26.63.82.82,0,0,1-.26.62A.84.84,0,0,1,69.19,67.21Zm0,10.41a.61.61,0,0,1-.46-.16.64.64,0,0,1-.17-.46V69.5a.64.64,0,0,1,.17-.46.62.62,0,0,1,.46-.17.6.6,0,0,1,.44.17.63.63,0,0,1,.16.46V77a.63.63,0,0,1-.16.46A.6.6,0,0,1,69.21,77.62Z" fill="#fff"/><path d="M81.54,77.7a4.24,4.24,0,0,1-3.8-2.17,4.52,4.52,0,0,1-.56-2.27A4.75,4.75,0,0,1,77.72,71a4.15,4.15,0,0,1,1.49-1.59,4,4,0,0,1,2.17-.59,4.16,4.16,0,0,1,1.8.39,4,4,0,0,1,1.45,1.15.44.44,0,0,1,.13.41.6.6,0,0,1-.27.37.46.46,0,0,1-.39.09.64.64,0,0,1-.38-.23,3,3,0,0,0-2.34-1.06,2.85,2.85,0,0,0-1.57.44,2.82,2.82,0,0,0-1.06,1.18,3.83,3.83,0,0,0-.37,1.73,3.54,3.54,0,0,0,.4,1.71,3,3,0,0,0,1.12,1.18,3.11,3.11,0,0,0,1.64.43,3.81,3.81,0,0,0,1.15-.16,2.71,2.71,0,0,0,.92-.52.69.69,0,0,1,.4-.18.51.51,0,0,1,.38.13.65.65,0,0,1,.22.4.45.45,0,0,1-.15.38A4.13,4.13,0,0,1,81.54,77.7Z" fill="#fff"/><path d="M87.8,74.06a.62.62,0,0,1-.46-.18.64.64,0,0,1-.16-.45V65.75a.61.61,0,0,1,.16-.45.65.65,0,0,1,.46-.17.6.6,0,0,1,.44.17.61.61,0,0,1,.17.45v7.68a.64.64,0,0,1-.17.45A.57.57,0,0,1,87.8,74.06Zm0,3.56a.65.65,0,0,1-.46-.16.6.6,0,0,1-.16-.44V69.5a.63.63,0,0,1,.16-.46.65.65,0,0,1,.46-.17.6.6,0,0,1,.44.17.64.64,0,0,1,.17.46V77a.6.6,0,0,1-.17.44A.6.6,0,0,1,87.8,77.62Zm6.88,0a.6.6,0,0,1-.45-.17.57.57,0,0,1-.17-.43V72.86a3.17,3.17,0,0,0-.38-1.63,2.36,2.36,0,0,0-1-1,3.5,3.5,0,0,0-2.88,0,2.42,2.42,0,0,0-1,.83,2,2,0,0,0-.37,1.2h-.88a3.46,3.46,0,0,1,.54-1.8,3.72,3.72,0,0,1,1.36-1.25,4,4,0,0,1,1.89-.45,4.22,4.22,0,0,1,2,.47,3.49,3.49,0,0,1,1.42,1.38,4.51,4.51,0,0,1,.52,2.23V77a.58.58,0,0,1-.18.43A.57.57,0,0,1,94.68,77.62Z" fill="#fff"/><path d="M101.82,77.72a4.38,4.38,0,0,1-2-.47,3.49,3.49,0,0,1-1.41-1.39,4.34,4.34,0,0,1-.52-2.22V69.48a.61.61,0,0,1,.17-.43.59.59,0,0,1,.44-.18.57.57,0,0,1,.44.18.58.58,0,0,1,.18.43v4.16a3.17,3.17,0,0,0,.38,1.63,2.36,2.36,0,0,0,1,1,3.16,3.16,0,0,0,1.46.32,3.25,3.25,0,0,0,1.42-.3,2.55,2.55,0,0,0,1-.83,2.1,2.1,0,0,0,.37-1.2h.88a3.66,3.66,0,0,1-.55,1.8,3.72,3.72,0,0,1-1.36,1.25A3.93,3.93,0,0,1,101.82,77.72Zm.06-10.18a.61.61,0,0,1-.62-.62.59.59,0,0,1,.14-.42l1.81-1.8a.57.57,0,0,1,.43-.18.61.61,0,0,1,.45.18.64.64,0,0,1,.17.46.54.54,0,0,1,0,.22.44.44,0,0,1-.13.2l-1.79,1.8A.57.57,0,0,1,101.88,67.54Zm3.46,10.08a.58.58,0,0,1-.44-.16.6.6,0,0,1-.17-.46V69.48a.57.57,0,0,1,.17-.44.59.59,0,0,1,.44-.17.6.6,0,0,1,.44.17.57.57,0,0,1,.18.44V77a.58.58,0,0,1-.62.62Z" fill="#fff"/><path d="M109.46,77.62a.57.57,0,0,1-.62-.6V69.5A.64.64,0,0,1,109,69a.61.61,0,0,1,.45-.17.6.6,0,0,1,.44.17.6.6,0,0,1,.17.46V77a.57.57,0,0,1-.17.44A.6.6,0,0,1,109.46,77.62Zm6.88,0a.57.57,0,0,1-.44-.17.58.58,0,0,1-.18-.43V72.86a3.17,3.17,0,0,0-.38-1.63,2.36,2.36,0,0,0-1-1,3.16,3.16,0,0,0-1.46-.32,3.25,3.25,0,0,0-1.42.3,2.49,2.49,0,0,0-1,.83,2,2,0,0,0-.37,1.2h-.88a3.38,3.38,0,0,1,.55-1.8,3.64,3.64,0,0,1,1.36-1.25,3.93,3.93,0,0,1,1.88-.45,4.26,4.26,0,0,1,2,.47,3.47,3.47,0,0,1,1.41,1.38,4.41,4.41,0,0,1,.52,2.23V77a.61.61,0,0,1-.17.43A.6.6,0,0,1,116.34,77.62Z" fill="#fff"/><path d="M123.53,77.7a4.33,4.33,0,0,1-2.24-.56,4.08,4.08,0,0,1-1.53-1.58,4.69,4.69,0,0,1-.55-2.3,4.61,4.61,0,0,1,.57-2.32,4.23,4.23,0,0,1,1.59-1.58,4.89,4.89,0,0,1,4.58,0,4.11,4.11,0,0,1,1.57,1.58,4.72,4.72,0,0,1,.58,2.32l-.72.38a4.34,4.34,0,0,1-.49,2.1,3.68,3.68,0,0,1-1.37,1.45A3.88,3.88,0,0,1,123.53,77.7Zm.16,3.38a5,5,0,0,1-2.23-.47,4.54,4.54,0,0,1-1.58-1.29.49.49,0,0,1-.15-.41.47.47,0,0,1,.23-.37.58.58,0,0,1,.46-.1.59.59,0,0,1,.4.24,3.4,3.4,0,0,0,1.2.93,3.85,3.85,0,0,0,1.68.35,3,3,0,0,0,2.76-1.65,3.71,3.71,0,0,0,.43-1.84V74l.46-.93.75.15v3.26a4.76,4.76,0,0,1-.57,2.33A4.39,4.39,0,0,1,126,80.48,4.3,4.3,0,0,1,123.69,81.08Zm0-4.5a3.29,3.29,0,0,0,1.67-.42A3.05,3.05,0,0,0,126.47,75a3.52,3.52,0,0,0,.42-1.73,3.56,3.56,0,0,0-.42-1.74,3,3,0,0,0-1.14-1.18,3.2,3.2,0,0,0-1.67-.43,3.23,3.23,0,0,0-1.68.43,2.93,2.93,0,0,0-1.16,1.18,3.66,3.66,0,0,0-.41,1.74,3.62,3.62,0,0,0,.41,1.73A3,3,0,0,0,122,76.16,3.33,3.33,0,0,0,123.66,76.58Z" fill="#fff"/><path d="M134.63,70.27a.58.58,0,0,1-.4-.16.51.51,0,0,1-.16-.37.55.55,0,0,1,.56-.55h4.08a.52.52,0,0,1,.4.16.5.5,0,0,1,.16.39.47.47,0,0,1-.16.37.56.56,0,0,1-.4.16Zm4,7.35a3,3,0,0,1-1.52-.39,2.89,2.89,0,0,1-1-1.1,3.23,3.23,0,0,1-.39-1.59V66.71a.6.6,0,0,1,.17-.44.57.57,0,0,1,.44-.18.61.61,0,0,1,.45.18.6.6,0,0,1,.17.44v7.83a1.87,1.87,0,0,0,.48,1.33,1.59,1.59,0,0,0,1.24.52h.43a.51.51,0,0,1,.41.18.64.64,0,0,1,.16.45.55.55,0,0,1-.19.44.71.71,0,0,1-.48.16Z" fill="#fff"/><path d="M145.48,77.7a4.22,4.22,0,0,1-2.21-.58,4.27,4.27,0,0,1-1.54-1.59,4.53,4.53,0,0,1-.57-2.27,4.46,4.46,0,0,1,.58-2.29,4.28,4.28,0,0,1,1.6-1.59,4.64,4.64,0,0,1,4.53,0A4.33,4.33,0,0,1,149.46,71a4.67,4.67,0,0,1,.6,2.29l-.5.38a4,4,0,0,1-.54,2.07,3.91,3.91,0,0,1-1.45,1.46A4.06,4.06,0,0,1,145.48,77.7Zm.13-1.12a3.12,3.12,0,0,0,1.65-.43A3.16,3.16,0,0,0,148.42,75a3.46,3.46,0,0,0,.42-1.7,3.51,3.51,0,0,0-.42-1.72,3.31,3.31,0,0,0-1.16-1.19,3.13,3.13,0,0,0-1.65-.44,3.18,3.18,0,0,0-1.65.44,3.34,3.34,0,0,0-1.17,1.19,3.41,3.41,0,0,0-.43,1.72,3.36,3.36,0,0,0,.43,1.7,3.17,3.17,0,0,0,2.82,1.62Zm3.82,1a.64.64,0,0,1-.45-.16.6.6,0,0,1-.17-.44V74.28l.3-1.26.95.24V77a.57.57,0,0,1-.18.44A.64.64,0,0,1,149.43,77.62Z" fill="#fff"/><path d="M152.74,77.62a.92.92,0,0,1-.92-.92.9.9,0,0,1,.27-.67.86.86,0,0,1,.65-.28.91.91,0,0,1,.66.28.94.94,0,0,1,.27.67.92.92,0,0,1-.93.92Zm0-2.83a.62.62,0,0,1-.44-.18.6.6,0,0,1-.18-.44V65.75a.61.61,0,0,1,.18-.45.59.59,0,0,1,.44-.19.57.57,0,0,1,.45.19.61.61,0,0,1,.18.45v8.42a.61.61,0,0,1-.19.44A.64.64,0,0,1,152.74,74.79Z" fill="#fff"/></g></g></svg>