<?xml version="1.0" encoding="utf-8"?>
<!-- Generator: Adobe Illustrator 16.0.0, SVG Export Plug-In . SVG Version: 6.00 Build 0)  -->
<!DOCTYPE svg PUBLIC "-//W3C//DTD SVG 1.1//EN" "http://www.w3.org/Graphics/SVG/1.1/DTD/svg11.dtd">
<svg version="1.1" id="Layer_1" xmlns="http://www.w3.org/2000/svg" xmlns:xlink="http://www.w3.org/1999/xlink" x="0px" y="0px"
	 width="612px" height="792px" viewBox="0 0 612 792" enable-background="new 0 0 612 792" xml:space="preserve">
<title>Q_05</title>
<g opacity="0.3">
	<circle fill="#FFFFFF" cx="306" cy="379.17" r="147.05"/>
</g>
<g>
	<g>
		<g>
			
				<line fill="none" stroke="#000000" stroke-width="2" stroke-linecap="round" stroke-linejoin="round" stroke-miterlimit="10" x1="162.043" y1="571.791" x2="163.979" y2="490.787"/>
		</g>
		
			<line fill="none" stroke="#000000" stroke-width="2" stroke-linecap="round" stroke-linejoin="round" stroke-miterlimit="10" x1="413.445" y1="531.773" x2="409.572" y2="449.479"/>
		
			<line fill="none" stroke="#000000" stroke-width="2" stroke-linecap="round" stroke-linejoin="round" stroke-miterlimit="10" x1="166.885" y1="328.134" x2="175.275" y2="225.831"/>
		
			<line fill="none" stroke="#000000" stroke-width="2" stroke-linecap="round" stroke-linejoin="round" stroke-miterlimit="10" x1="317.596" y1="125.787" x2="350.191" y2="223.249"/>
		<g>
			<path fill="#01AC83" d="M177.211,646.984c-5.164,0-10.327-1.613-15.814-4.518c-3.227,0.968-6.455,1.29-9.358,1.29
				c-8.068,0-15.168-3.226-19.686-8.713c-4.84-5.81-6.776-14.201-5.809-22.592c-9.037-12.262-7.099-22.591-5.163-27.753
				c2.581-7.423,8.713-13.232,15.49-15.17c5.487-8.714,14.846-13.876,25.495-13.876c11.295,0,20.331,5.808,24.205,15.813
				c13.876,7.1,18.394,15.813,19.362,21.945c1.613,7.746-0.968,16.46-6.777,23.236c1.615,8.068,0,16.137-4.517,22.269
				C190.121,644.081,183.989,646.984,177.211,646.984z"/>
			<g>
				<path d="M162.043,558.881c9.359,0,18.074,4.843,21.299,14.846c25.818,12.264,21.3,31.951,11.619,41.954
					c3.873,14.201-3.873,28.079-18.074,28.079c-4.519,0-9.681-1.292-15.491-4.843c-3.549,0.966-6.776,1.291-9.681,1.291
					c-16.459,0-24.85-13.878-21.945-29.047c-15.491-19.361-2.259-37.112,8.713-39.049
					C143.648,563.4,153.007,558.881,162.043,558.881 M162.043,552.428L162.043,552.428c-11.296,0-21.299,5.486-27.432,14.522
					c-7.1,2.582-13.554,8.715-16.458,16.458c-2.259,5.812-4.195,16.784,4.841,29.692c-0.968,9.035,1.292,17.427,6.454,23.881
					c5.164,6.454,13.231,10.003,22.269,10.003c2.905,0,5.809-0.321,9.037-0.967c5.487,2.905,10.972,4.519,16.459,4.519
					c8.068,0,14.846-3.55,19.687-9.682c4.84-6.131,6.777-14.845,5.164-23.236c5.808-7.422,8.067-16.458,6.455-24.526
					c-1.292-6.779-5.809-16.459-20.009-23.884C183.989,558.881,173.984,552.428,162.043,552.428L162.043,552.428z"/>
			</g>
		</g>
		<g>
			<path fill="#01AC83" d="M196.898,512.409c-40.986,0-88.427-6.455-114.89-15.813c-1.291-0.322-1.937-1.614-2.259-2.906
				c0-1.288,0.646-2.58,1.614-3.226l10.004-5.488l-9.683-7.423c-0.646-0.645-1.291-1.612-1.291-2.579
				c0-0.969,0.646-1.937,1.291-2.582l10.973-8.069l-8.068-7.1c-0.646-0.645-0.968-1.29-0.968-2.257c0-0.97,0.322-1.615,0.968-2.261
				l9.038-9.681l-10.328-10.972c-0.646-0.646-0.969-1.613-0.969-2.261c0-0.644,0.323-1.613,0.969-2.257l9.358-8.713l-8.714-8.715
				c-0.645-0.646-0.968-1.614-0.968-2.582c0-0.969,0.323-1.612,1.292-2.259l8.39-7.099l-10.649-9.038
				c-0.645-0.644-1.291-1.613-0.969-2.581c0-0.967,0.646-1.938,1.292-2.582l13.231-10.004l-9.359-10.006
				c-1.291-1.29-1.291-3.227,0-4.517l6.777-7.423L86.204,340.4c-0.323-0.645-0.645-1.613-0.323-2.582
				c0.323-0.968,0.968-1.614,1.613-1.936c19.686-9.681,48.409-15.168,81.326-15.168c27.109,0,55.185,3.872,76.485,10.327
				c0.967,0.323,1.937,1.29,2.258,2.259c0.322,0.969,0,2.26-0.645,2.904l-10.005,10.974l10.327,11.295
				c0.968,0.968,0.968,2.581,0.322,3.873l-9.035,14.843l10.004,10.007c0.646,0.644,0.969,1.612,0.969,2.581
				c0,0.968-0.323,1.613-1.292,2.258l-11.295,9.358l12.908,12.586c0.646,0.647,0.969,1.615,0.969,2.581
				c0,0.969-0.646,1.938-1.613,2.262l-11.942,7.744l9.36,8.392c0.646,0.644,0.967,1.612,0.967,2.257
				c0,0.969-0.322,1.938-0.967,2.261l-10.973,9.681l8.39,8.391c0.646,0.646,0.969,1.614,0.969,2.58c0,0.97-0.646,1.938-1.292,2.26
				l-11.94,9.36l11.94,11.296c0.646,0.646,0.969,1.613,0.969,2.579c0,0.968-0.646,1.937-1.291,2.583l-11.294,7.422l9.681,7.746
				c0.968,0.646,1.292,1.937,0.968,3.226c-0.323,1.292-1.291,2.261-2.582,2.261C228.847,511.119,214.001,512.409,196.898,512.409z"
				/>
			<g>
				<path d="M169.465,323.939c27.111,0,54.541,3.873,75.519,10.327l-11.941,13.231l12.264,13.555l-10.327,16.784l11.618,11.938
					l-14.2,11.617l15.49,15.168l-15.49,10.006l12.263,11.295l-13.555,11.94l10.972,10.649l-15.489,10.974l14.844,13.876
					l-14.844,10.006l13.23,10.647c-11.94,2.261-27.109,3.228-43.245,3.228c-40.341,0-87.459-6.455-113.922-15.814l14.2-7.745
					l-13.554-10.649L97.5,464.646l-10.974-9.68l11.296-11.941l-12.263-12.908l11.94-10.973l-10.974-11.297l11.618-9.357
					l-13.555-11.617l16.135-12.264l-11.616-12.586l8.39-9.36l-7.746-13.554C110.408,328.457,139.776,323.939,169.465,323.939
					 M169.465,317.484v6.454V317.484L169.465,317.484c-33.24,0-62.607,5.487-82.617,15.491c-1.613,0.646-2.905,2.259-3.227,3.873
					c-0.646,1.614-0.324,3.549,0.646,5.164l5.487,9.358l-5.165,5.808c-2.259,2.583-2.259,6.134,0,8.715l6.777,7.421l-10.329,8.068
					c-1.612,1.292-2.582,2.904-2.582,4.842c0,1.937,0.647,3.872,2.26,5.163l7.745,6.778l-5.486,4.52
					c-1.292,1.289-2.259,2.901-2.259,4.518c0,1.936,0.646,3.55,1.937,4.841l6.131,6.456l-7.101,6.453
					c-1.291,1.292-1.936,2.905-1.936,4.52s0.646,3.549,1.614,4.518l8.068,8.714l-7.1,7.746c-1.292,1.289-1.937,2.903-1.614,4.843
					c0,1.611,0.967,3.225,2.259,4.516l5.164,4.519l-7.746,5.81c-1.613,1.292-2.582,3.227-2.582,5.166
					c0,1.934,0.968,3.872,2.582,5.161l5.809,4.519l-5.809,3.229c-2.259,1.289-3.55,3.55-3.226,6.131
					c0.322,2.583,1.936,4.842,4.195,5.489c27.108,9.357,74.549,16.134,116.179,16.134c17.427,0,32.595-1.29,44.536-3.551
					c2.582-0.321,4.519-2.258,5.164-4.839c0.645-2.582-0.323-5.166-2.259-6.454l-6.454-5.164l7.421-5.165
					c1.614-0.968,2.583-2.904,2.905-4.842c0-1.935-0.646-3.873-1.937-5.164l-9.037-8.391l9.037-6.454
					c1.614-0.968,2.582-2.903,2.582-4.842c0-1.935-0.646-3.872-1.937-5.163l-6.132-5.811l8.39-7.425
					c1.292-1.288,2.259-2.901,2.259-4.84c0-1.936-0.645-3.55-2.259-4.84l-6.131-5.485l8.39-5.488
					c1.614-0.968,2.582-2.903,2.906-4.842c0.323-1.935-0.646-3.871-1.937-5.163l-10.327-10.005l8.39-7.1
					c1.291-1.29,2.259-2.904,2.259-4.518s-0.646-3.548-1.936-4.841l-8.068-8.391l7.746-12.585c1.613-2.583,1.291-5.486-0.646-7.746
					l-8.39-9.034l8.067-8.714c1.614-1.613,1.937-3.873,1.292-6.132c-0.646-2.259-2.259-3.873-4.195-4.519
					C224.974,321.357,196.898,317.484,169.465,317.484L169.465,317.484z"/>
			</g>
		</g>
		<g>
			<path fill="#0780C2" d="M408.928,631.493c-0.971,0-2.582-0.323-4.198-1.935c-4.84-5.165-5.808-21.947-4.84-35.5
				c-3.229-12.908-4.52-36.791,3.87-52.604c1.293-13.231,4.842-20.33,10.007-20.33c5.163,0,8.713,6.132,10.648,18.073
				c5.166,6.453,7.425,28.721,3.229,49.697c0.646,13.231-0.646,30.658-5.81,36.146c-1.614,1.612-3.55,2.257-4.518,2.257l0,0
				c-0.647,0-1.292,0-1.938-0.321C413.445,629.559,411.508,631.493,408.928,631.493z"/>
			<g>
				<path d="M413.768,524.674c2.903,0,6.131,5.485,7.747,16.457c3.55,2.584,7.744,24.206,2.901,47.764
					c0.971,18.072-1.936,35.18-7.098,35.18c-0.971,0-1.938-0.649-3.229-1.616c-1.937,4.196-3.548,5.811-5.162,5.811
					c-4.521,0-7.101-17.106-5.811-34.21c-3.228-12.265-4.519-36.466,3.872-51.313C407.636,530.805,410.541,524.674,413.768,524.674
					 M413.768,518.218c-7.422,0-11.617,7.748-13.232,22.593c-8.391,16.457-7.099,40.341-3.874,53.895
					c-0.321,5.809-1.29,29.688,5.812,37.11c1.612,1.939,4.194,2.907,6.456,2.907c3.547,0,5.808-1.937,7.743-4.196
					c0.324,0,0.324,0,0.647,0c1.936,0,4.517-0.645,6.776-3.228c7.422-7.743,7.101-30.013,6.776-38.079
					c3.873-20.011,2.261-42.278-3.226-50.991C425.064,524.996,420.544,518.218,413.768,518.218L413.768,518.218z"/>
			</g>
		</g>
		<g>
			<path fill="#0780C2" d="M97.5,352.661l-7.746-13.554c57.443-24.85,122.311-14.2,155.23-4.84l-11.941,13.23
				C193.669,339.43,140.421,339.43,97.5,352.661z"/>
			<path fill="#0780C2" d="M89.107,361.698c41.309-10.649,114.244-8.067,156.198-0.969l-10.327,16.781
				c-47.441-6.13-86.813-8.711-134.254-3.225L89.107,361.698z"/>
			<path fill="#0780C2" d="M84.589,386.547c35.5-4.194,117.471-5.164,162.007,2.904l-14.2,11.617
				c-47.765-5.485-87.136-5.485-134.253-2.902L84.589,386.547z"/>
			<path fill="#0780C2" d="M86.526,407.847c41.31-3.226,127.153,0.324,161.361,8.392l-15.49,10.005
				c-37.436-6.455-98.108-9.038-134.898-7.422L86.526,407.847z"/>
			<path fill="#0780C2" d="M85.558,429.792c47.762-0.968,117.471,1.292,159.102,7.744l-13.555,11.941
				c-40.985-3.872-98.753-6.776-133.606-6.454L85.558,429.792z"/>
			<path fill="#0780C2" d="M86.848,454.966c52.281,3.55,104.563,6.775,155.553,5.485l-15.491,10.973
				c-43.245,2.259-91.008,0.968-129.089-6.777L86.848,454.966z"/>
			<path fill="#0780C2" d="M83.622,474.974c41.954,8.392,123.28,14.2,158.134,10.327l-14.845,10.006
				c-39.049,2.902-94.88-0.97-129.735-9.684L83.622,474.974z"/>
		</g>
		<g>
			<path fill="none" stroke="#000000" stroke-width="2" stroke-linecap="round" stroke-linejoin="round" stroke-miterlimit="10" d="
				M233.042,347.497c-39.05-7.744-92.299-7.744-135.543,5.165"/>
			<path fill="none" stroke="#000000" stroke-width="2" stroke-linecap="round" stroke-linejoin="round" stroke-miterlimit="10" d="
				M234.98,377.835c-47.441-6.132-86.813-8.715-134.255-3.228"/>
			<path fill="none" stroke="#000000" stroke-width="2" stroke-linecap="round" stroke-linejoin="round" stroke-miterlimit="10" d="
				M232.397,401.069c-47.764-5.485-87.137-5.485-134.253-2.903"/>
			<path fill="none" stroke="#000000" stroke-width="2" stroke-linecap="round" stroke-linejoin="round" stroke-miterlimit="10" d="
				M232.397,426.243c-37.436-6.455-98.108-9.038-134.898-7.422"/>
			<path fill="none" stroke="#000000" stroke-width="2" stroke-linecap="round" stroke-linejoin="round" stroke-miterlimit="10" d="
				M231.429,449.479c-40.986-3.873-98.754-6.777-133.607-6.454"/>
			<path fill="none" stroke="#000000" stroke-width="2" stroke-linecap="round" stroke-linejoin="round" stroke-miterlimit="10" d="
				M226.911,471.424c-43.245,2.259-91.008,0.968-129.089-6.777"/>
			<path fill="none" stroke="#000000" stroke-width="2" stroke-linecap="round" stroke-linejoin="round" stroke-miterlimit="10" d="
				M226.911,495.307c-39.049,2.902-94.88-0.97-129.735-9.684"/>
		</g>
		<g>
			<path fill="#0780C2" d="M307.269,474.974c-2.258,0-4.196,0-6.455,0c-1.292,0-2.259-0.968-2.903-1.936
				c-0.646-0.968-0.323-2.582,0.645-3.55l12.586-13.877l-18.396-8.713c-0.969-0.323-1.615-1.293-1.615-2.26
				c-0.322-0.968,0-1.937,0.646-2.583l14.847-19.039l-20.009-10.005c-0.969-0.323-1.614-1.289-1.614-2.258
				c0-0.97,0-1.937,0.645-2.582l10.329-14.198l-17.751-11.297c-0.646-0.644-1.291-1.291-1.291-2.259s0-1.936,0.645-2.581
				l11.618-14.523l-19.363-8.39c-0.968-0.323-1.614-1.291-1.937-2.26c-0.324-0.969,0-1.936,0.646-2.903l15.813-20.978
				l-18.396-10.651c-0.646-0.323-1.291-1.29-1.614-2.259c-0.323-0.967,0-1.936,0.645-2.582l11.618-16.782L260.47,277.79
				c-0.967-0.967-0.967-2.582-0.323-3.871l12.263-18.397l-16.78-13.554c-0.969-0.646-1.292-1.938-1.292-2.906
				s0.646-1.936,1.937-2.581c42.922-20.977,105.53-34.854,155.874-34.854c22.27,0,41.955,2.582,58.094,7.746
				c0.968,0.322,1.61,0.968,1.934,1.612c0.322,0.646,0.322,1.615,0,2.583l-6.776,18.072l11.617,9.036
				c1.292,0.969,1.613,2.903,0.646,4.196l-10.972,16.781l21.298,11.295c0.969,0.321,1.615,1.291,1.615,2.258
				c0.323,0.969,0,1.937-0.646,2.583l-13.231,15.813l14.201,8.391c0.645,0.322,1.29,1.29,1.613,2.259
				c0.323,0.967,0,1.936-0.646,2.582l-10.65,14.845l15.815,10.328c0.644,0.324,1.287,1.292,1.287,1.937s0,1.613-0.644,2.582
				l-12.264,17.75l15.491,11.941c0.646,0.645,0.968,1.29,1.29,2.258c0.322,0.968-0.322,1.614-0.645,2.259l-10.326,12.587
				l17.749,9.358c0.968,0.323,1.614,1.293,1.614,2.259c0.323,0.969,0,1.935-0.969,2.902l-12.584,13.558l16.458,5.808
				c1.292,0.323,1.936,1.616,2.26,2.905c0.322,1.291-0.646,2.582-1.617,3.228C469.274,447.542,370.2,474.974,307.269,474.974
				L307.269,474.974z"/>
			<g>
				<path d="M412.153,205.5c20.979,0,40.342,2.259,57.122,7.422l-7.743,20.009l13.553,10.649l-12.907,19.687l24.204,13.232
					l-15.813,18.717l17.425,10.327l-12.585,17.428l18.395,12.263l-13.878,20.331l17.75,13.877l-12.909,15.492l21.301,10.973
					l-16.137,17.104l21.3,7.424c-45.827,24.849-144.581,50.667-204.286,50.667c-2.257,0-4.194,0-6.452,0l15.489-17.105
					l-22.268-10.326l17.104-21.946l-23.558-11.616l12.584-17.104l-20.651-13.232l14.522-17.749l-23.237-10.329l17.75-23.88
					l-21.622-12.586l13.231-18.718l-17.75-20.653l13.876-20.978l-19.04-15.167C297.91,220.345,359.227,205.5,412.153,205.5
					 M412.153,199.045c-50.988,0-114.242,14.199-157.488,35.177c-1.937,0.969-3.227,2.904-3.55,5.164
					c-0.323,2.259,0.646,4.518,2.259,5.808l14.522,11.619l-10.648,15.813c-1.615,2.259-1.292,5.486,0.323,7.745l14.199,16.781
					l-10.327,14.523c-0.969,1.613-1.292,3.228-0.969,5.163c0.325,1.615,1.614,3.227,2.906,4.196l15.49,9.036l-13.554,18.073
					c-1.291,1.616-1.613,3.551-0.969,5.489c0.646,1.935,1.937,3.547,3.55,4.195l15.492,6.775l-9.037,11.296
					c-1.291,1.29-1.614,3.227-1.291,5.162c0.322,1.938,1.291,3.551,2.903,4.519l14.846,9.683l-8.391,11.293
					c-1.291,1.615-1.613,3.552-0.968,5.487c0.323,1.938,1.614,3.55,3.551,4.195l16.458,8.068l-12.264,15.814
					c-1.291,1.612-1.614,3.549-1.291,5.484c0.322,1.938,1.613,3.551,3.549,4.196l14.201,6.777l-9.681,10.649
					c-1.616,1.936-2.26,4.52-1.293,6.777c0.969,2.259,3.229,3.871,5.812,3.871c2.256,0,4.195,0,6.452,0
					c57.77,0,158.458-24.85,207.191-51.312c2.257-1.292,3.546-3.549,3.224-6.131c-0.322-2.583-1.935-4.843-4.195-5.487
					l-11.939-4.195l9.36-10.005c1.29-1.613,1.937-3.55,1.614-5.486c-0.324-1.938-1.614-3.55-3.229-4.519l-14.198-7.421l7.745-9.359
					c0.968-1.293,1.613-3.228,1.29-4.842c-0.322-1.614-0.969-3.226-2.582-4.518l-12.909-10.328l10.651-15.491
					c0.967-1.292,1.291-3.227,0.967-4.841c-0.322-1.613-1.289-3.228-2.904-4.196l-12.909-8.39l8.713-11.94
					c0.97-1.614,1.293-3.227,0.97-5.163c-0.323-1.614-1.614-3.228-2.904-4.196l-10.973-6.455l10.973-12.91
					c1.29-1.614,1.612-3.549,1.29-5.486c-0.321-1.937-1.612-3.55-3.227-4.518l-18.071-9.682l9.035-13.876
					c1.938-2.904,1.289-6.454-1.29-8.714l-9.683-7.746l6.132-15.814c0.646-1.612,0.646-3.549-0.322-5.164
					c-0.968-1.613-2.26-2.904-3.872-3.227C454.755,201.627,434.744,199.045,412.153,199.045L412.153,199.045z"/>
			</g>
		</g>
		<g>
			<path fill="#8582BE" d="M461.531,233.254l7.743-20.008c-82.938-21.301-169.105,7.099-211.705,27.107l19.04,15.168
				C327.922,236.159,400.212,224.863,461.531,233.254z"/>
			<path fill="#8582BE" d="M475.084,243.903c-58.089-5.486-156.521,13.554-212.028,32.272l17.75,20.654
				c62.929-18.395,115.855-30.335,181.372-33.241L475.084,243.903z"/>
			<path fill="#8582BE" d="M486.381,276.822c-49.054,1.936-160.395,18.396-219.13,39.049l21.624,12.587
				c63.575-17.427,117.147-26.141,181.694-32.918L486.381,276.822z"/>
			<path fill="#8582BE" d="M487.992,305.866c-56.798,4.196-172.333,27.754-216.869,46.149l23.236,10.329
				c49.375-16.781,131.028-33.242,181.371-39.05L487.992,305.866z"/>
			<path fill="#8582BE" d="M494.126,335.557c-64.867,9.036-158.781,27.11-214.289,44.536l20.656,13.231
				c54.538-13.876,132.638-30.657,179.432-37.436L494.126,335.557z"/>
			<path fill="#8582BE" d="M497.998,369.767c-70.03,15.813-140.385,31.625-209.77,40.664l23.557,11.615
				c59.06-6.132,123.605-18.394,173.627-36.791L497.998,369.767z"/>
			<path fill="#8582BE" d="M506.39,396.228c-54.864,20.331-163.946,45.826-212.031,47.764l22.269,10.325
				c53.571-4.517,128.443-21.944,173.625-40.984L506.39,396.228z"/>
		</g>
		<g>
			<path fill="none" stroke="#000000" stroke-width="2" stroke-linecap="round" stroke-linejoin="round" stroke-miterlimit="10" d="
				M276.609,255.521c51.313-19.04,123.603-30.658,184.922-22.268"/>
			<path fill="none" stroke="#000000" stroke-width="2" stroke-linecap="round" stroke-linejoin="round" stroke-miterlimit="10" d="
				M280.482,296.83c62.931-18.395,115.857-30.335,181.371-33.241"/>
			<path fill="none" stroke="#000000" stroke-width="2" stroke-linecap="round" stroke-linejoin="round" stroke-miterlimit="10" d="
				M288.874,328.134c63.575-17.426,117.147-26.14,181.694-32.917"/>
			<path fill="none" stroke="#000000" stroke-width="2" stroke-linecap="round" stroke-linejoin="round" stroke-miterlimit="10" d="
				M294.359,362.021c49.375-16.784,131.028-33.241,181.371-39.05"/>
			<path fill="none" stroke="#000000" stroke-width="2" stroke-linecap="round" stroke-linejoin="round" stroke-miterlimit="10" d="
				M300.493,393.324c54.539-13.876,132.639-30.657,179.433-37.436"/>
			<path fill="none" stroke="#000000" stroke-width="2" stroke-linecap="round" stroke-linejoin="round" stroke-miterlimit="10" d="
				M311.464,422.046c59.058-6.132,123.604-18.394,173.624-36.791"/>
			<path fill="none" stroke="#000000" stroke-width="2" stroke-linecap="round" stroke-linejoin="round" stroke-miterlimit="10" d="
				M316.628,454.643c53.571-4.52,128.443-21.946,173.625-40.988"/>
		</g>
	</g>
	
		<polyline fill="none" stroke="#000000" stroke-width="2" stroke-linecap="round" stroke-linejoin="round" stroke-miterlimit="10" points="
		160.752,585.346 160.752,603.095 140.744,594.058 	"/>
	
		<polyline fill="none" stroke="#000000" stroke-width="2" stroke-linecap="round" stroke-linejoin="round" stroke-miterlimit="10" points="
		147.52,619.553 160.752,603.095 172.369,621.813 	"/>
	
		<line fill="none" stroke="#000000" stroke-width="2" stroke-linecap="round" stroke-linejoin="round" stroke-miterlimit="10" x1="160.752" y1="603.095" x2="183.343" y2="595.996"/>
	
		<polyline fill="none" stroke="#000000" stroke-width="2" stroke-linecap="round" stroke-linejoin="round" stroke-miterlimit="10" points="
		403.441,574.373 413.445,576.632 413.445,552.75 	"/>
	
		<polyline fill="none" stroke="#000000" stroke-width="2" stroke-linecap="round" stroke-linejoin="round" stroke-miterlimit="10" points="
		421.515,566.627 413.445,576.632 408.602,605.031 	"/>
	
		<line fill="none" stroke="#000000" stroke-width="2" stroke-linecap="round" stroke-linejoin="round" stroke-miterlimit="10" x1="418.93" y1="599.867" x2="413.445" y2="576.632"/>
</g>
</svg>
