<?xml version="1.0" encoding="utf-8"?>
<!-- Generator: Adobe Illustrator 16.0.0, SVG Export Plug-In . SVG Version: 6.00 Build 0)  -->
<!DOCTYPE svg PUBLIC "-//W3C//DTD SVG 1.1//EN" "http://www.w3.org/Graphics/SVG/1.1/DTD/svg11.dtd">
<svg version="1.1" id="Layer_1" xmlns="http://www.w3.org/2000/svg" xmlns:xlink="http://www.w3.org/1999/xlink" x="0px" y="0px"
	 width="612px" height="792px" viewBox="0 0 612 792" enable-background="new 0 0 612 792" xml:space="preserve">
<title>Q_01</title>
<g id="Layer_2_1_">
	<g id="Landmark">
		<path fill="#05AC83" d="M363.328,251c-0.3,0-0.898,0-1.198-0.3l-62.58-24.554c-1.197-0.298-1.796-1.497-1.796-2.694
			s0.599-2.395,1.796-2.694c34.435-15.87,58.987-19.463,73.659-19.463c23.653,0,38.624,8.684,38.624,22.158
			c0,9.582-8.382,17.068-24.852,22.457C379.497,248.604,371.711,250.101,363.328,251L363.328,251z"/>
		<path fill="#010101" d="M373.209,204.588c22.757,0,35.631,8.384,35.631,19.163c0,19.463-45.512,24.554-45.512,24.554
			l-62.582-24.554C330.09,209.978,354.945,204.588,373.209,204.588 M373.209,198.6L373.209,198.6
			c-14.973,0-40.123,3.294-74.856,19.762c-2.995,1.498-4.192,5.091-2.995,8.084c0.599,1.498,1.796,2.396,3.293,2.995l62.88,24.554
			c0.599,0.299,1.497,0.299,2.095,0.299h0.602c8.082-0.897,16.166-2.694,23.953-5.09c17.665-5.689,26.948-14.373,26.948-25.151
			C415.129,212.373,404.051,198.899,373.209,198.6L373.209,198.6z"/>
		<path fill="#8583BF" d="M276.494,711.816c-1.797,0-2.995-1.197-2.995-2.994V494.731l24.254-271.279
			c0-0.898,0.598-1.497,1.197-2.097c0.599-0.298,1.197-0.598,1.796-0.598h0.301c10.778,1.497,21.558,3.892,32.038,6.586
			c23.056,5.989,33.834,12.875,33.235,20.96c0,2.095-0.599,5.689-0.896,10.48c-2.697,29.643-10.783,120.37-2.097,258.404
			c10.18,158.397-8.383,191.935-9.283,193.431c-0.6,0.898-1.497,1.496-2.694,1.496L276.494,711.816z"/>
		<path fill="#010101" d="M300.747,223.751c0,0,63.481,8.983,62.879,24.554c-0.598,15.569-13.174,109.589-2.993,269.186
			c10.181,159.293-8.984,191.633-8.984,191.633h-74.855V495.032L300.747,223.751 M301.048,217.763c-1.498,0-2.696,0.299-3.894,1.198
			c-1.197,0.898-2.096,2.395-2.395,4.192l-24.254,270.981c0,0.3,0,0.3,0,0.598v214.091c0,3.293,2.695,5.988,5.989,5.988h74.856
			c2.095,0,4.191-1.195,5.089-2.994c0.6-0.897,5.392-9.881,8.985-38.326c4.79-37.428,4.79-90.126,0.598-156.6
			c-8.684-137.736-0.598-228.164,2.097-257.807c0.597-4.791,0.597-8.384,0.899-10.48c0.597-10.181-10.481-17.366-35.636-24.253
			C322.605,221.655,311.826,219.261,301.048,217.763h-0.9H301.048z"/>
		<path fill="#0F81C2" d="M218.106,711.816c-1.498,0-2.995-1.197-2.995-2.693c-6.887-130.551,5.689-368.596,12.576-496.451
			c2.096-41.62,3.893-71.862,4.193-85.636c0.299-8.683,0.299-17.066,0.299-25.151c0.599-47.309,0.898-81.144,17.666-91.026
			c2.096-1.498,4.79-2.096,7.486-2.395c9.581,0,13.474,11.677,14.971,20.66c0.599-0.3,1.198-0.3,1.797-0.3
			c3.593,0,9.281,0,20.96,61.383c16.169,86.535,27.847,124.562,27.847,124.86c0.599,1.498-0.3,2.995-1.797,3.593l-17.066,6.888
			c2.395,21.26,22.156,185.045,31.438,254.513c10.182,74.258,0,180.256,0,181.452c0,0.898-0.598,1.497-1.197,2.097l-55.992,47.908
			c-0.6,0.598-1.198,0.598-1.797,0.598L218.106,711.816z"/>
		<path fill="#010101" d="M257.031,11.758c12.277,0,13.176,27.547,13.176,27.547s0.898-7.486,3.592-7.486
			c3.294,0,8.983,10.779,17.966,58.988c16.468,87.731,27.846,125.159,27.846,125.159l-18.865,8.085c0,0,21.56,182.049,31.74,256.908
			c10.181,74.856,0,180.554,0,180.554l-55.992,47.907h-58.388c-8.983-171.57,15.271-523.996,16.468-582.084
			s-1.198-103.301,16.468-113.483C252.839,12.356,254.935,11.758,257.031,11.758 M257.031,5.769c-3.293,0-6.287,0.899-8.982,2.695
			c-17.965,10.479-18.565,45.214-19.164,93.421c0,8.085-0.299,16.468-0.299,25.151c-0.299,13.774-1.796,44.016-4.192,85.636
			c-6.588,127.855-19.163,365.9-12.576,496.748c0.3,3.296,2.695,5.69,5.988,5.69h58.388c1.498,0,2.695-0.599,3.893-1.495
			l55.992-47.611c1.198-0.896,1.797-2.395,2.096-3.891c0-1.199,10.181-107.495,0-182.053
			c-8.981-67.371-27.846-223.672-31.14-252.117l14.973-5.988c2.992-1.197,4.49-4.192,3.592-7.187
			c0-0.3-11.678-38.327-27.846-124.562c-11.08-57.19-16.77-63.479-23.356-63.778C272.601,16.548,267.811,5.769,257.031,5.769
			L257.031,5.769z"/>
		<path fill="none" stroke="#010101" stroke-width="2" stroke-linecap="round" stroke-linejoin="round" d="M256.432,214.468
			c11.378-3.593,23.355-5.988,35.632-6.586"/>
		<path fill="none" stroke="#010101" stroke-width="2" stroke-linecap="round" stroke-linejoin="round" d="M253.738,183.628
			c12.576-2.396,25.451-3.592,38.027-3.892"/>
		<path fill="none" stroke="#010101" stroke-width="2" stroke-linecap="round" stroke-linejoin="round" d="M253.738,153.685h32.937"
			/>
		<path fill="none" stroke="#010101" stroke-width="2" stroke-linecap="round" stroke-linejoin="round" d="M283.082,121.946
			l-30.542,3.594"/>
		<path fill="none" stroke="#010101" stroke-width="2" stroke-linecap="round" stroke-linejoin="round" d="M323.203,256.389
			l21.26,1.797c2.696,0,5.092,0.599,7.487,2.096"/>
		<path fill="none" stroke="#010101" stroke-width="2" stroke-linecap="round" stroke-linejoin="round" d="M321.108,278.846
			c8.981,1.198,17.965,3.293,26.649,6.288"/>
		<path fill="none" stroke="#010101" stroke-width="2" stroke-linecap="round" stroke-linejoin="round" d="M322.008,304.298
			c8.082,0.599,16.167,1.796,24.252,3.892"/>
	</g>
</g>
</svg>
