<svg xmlns="http://www.w3.org/2000/svg" width="28" height="23.626" viewBox="0 0 28 23.626"><defs><style>.a{fill:#fff;}</style></defs><path class="a" d="M5.59,63.615a2.1,2.1,0,0,1-.877-.194A2.063,2.063,0,0,1,3.5,61.528V59.239H2.516A2.518,2.518,0,0,1,0,56.723V42.5a2.519,2.519,0,0,1,2.516-2.516H25.484A2.519,2.519,0,0,1,28,42.5V56.723a2.518,2.518,0,0,1-2.516,2.516H10.859L6.985,63.068l-.046.042A2.068,2.068,0,0,1,5.59,63.615ZM2.516,41.739a.766.766,0,0,0-.766.766V56.723a.766.766,0,0,0,.766.766H4.375a.875.875,0,0,1,.875.875v3.164a.334.334,0,0,0,.533.268l4.1-4.054a.875.875,0,0,1,.615-.253H25.484a.766.766,0,0,0,.766-.766V42.5a.766.766,0,0,0-.766-.766H2.516Z" transform="translate(0 -39.989)"/><path class="a" d="M146.077,108.677a.874.874,0,0,1-.411-.1l-3.1-1.65-3.1,1.65a.875.875,0,0,1-1.273-.919l.6-3.508-2.519-2.482a.875.875,0,0,1,.487-1.489l3.473-.51,1.555-3.186a.875.875,0,0,1,1.573,0l1.555,3.186,3.473.51a.875.875,0,0,1,.487,1.489l-2.519,2.482.6,3.508a.875.875,0,0,1-.863,1.021Zm-3.515-3.618a.875.875,0,0,1,.411.1l1.944,1.033-.374-2.2a.875.875,0,0,1,.248-.77l1.592-1.569-2.191-.322a.875.875,0,0,1-.659-.482l-.971-1.99-.971,1.99a.875.875,0,0,1-.659.482l-2.191.322,1.592,1.569a.875.875,0,0,1,.248.77l-.374,2.2,1.944-1.033A.875.875,0,0,1,142.562,105.059Z" transform="translate(-128.562 -92.927)"/></svg>