<svg xmlns="http://www.w3.org/2000/svg" width="21.328" height="28" viewBox="0 0 21.328 28"><defs><style>.a{fill:#fff;}</style></defs><path class="a" d="M71.082,27.758a.82.82,0,0,0,1.163,0c3.666-3.685,10.082-11.589,10.082-17.039a10.664,10.664,0,1,0-21.328,0C61,16.195,67.467,24.124,71.082,27.758Zm.582-26.117a9.061,9.061,0,0,1,9.023,9.078c0,5.253-6.943,13.055-9.024,15.274-2.081-2.219-9.023-10.017-9.023-15.274A9.061,9.061,0,0,1,71.664,1.641Z" transform="translate(-61)"/><path class="a" d="M163.517,101.493a.82.82,0,0,0,1.1-.8l-.112-2.779,1.724-2.182a.82.82,0,0,0-.422-1.3l-2.678-.752-1.543-2.314a.82.82,0,0,0-1.365,0l-1.543,2.314-2.677.752a.82.82,0,0,0-.422,1.3l1.724,2.182-.112,2.779a.82.82,0,0,0,1.1.8l2.608-.965Zm-4.632-1.966.075-1.853a.82.82,0,0,0-.176-.542l-1.149-1.455,1.785-.5a.82.82,0,0,0,.461-.335l1.029-1.543,1.029,1.543a.821.821,0,0,0,.461.335l1.785.5-1.149,1.455a.82.82,0,0,0-.176.542l.075,1.853-1.739-.644a.82.82,0,0,0-.569,0Z" transform="translate(-150.244 -86.023)"/></svg>