<svg xmlns="http://www.w3.org/2000/svg" viewBox="0 0 68.37 236.92"><defs><style>.cls-1{fill:#05ac83;}.cls-1,.cls-3,.cls-4,.cls-5{fill-rule:evenodd;}.cls-2{fill:#010101;}.cls-3{fill:#8583bf;}.cls-4{fill:#0f81c2;}.cls-5{fill:none;stroke:#010101;stroke-linecap:round;stroke-linejoin:round;stroke-width:2px;}</style></defs><title>Q_01</title><g id="Layer_2" data-name="Layer 2"><g id="Landmark"><path class="cls-1" d="M51.19,82.06a1.16,1.16,0,0,1-.37-.07L29.88,73.8a1,1,0,0,1-.64-.9,1,1,0,0,1,.58-.94c11.46-5.35,19.72-6.47,24.62-6.47,7.86,0,12.93,2.9,12.93,7.38,0,3.19-2.79,5.71-8.28,7.49a44.07,44.07,0,0,1-7.79,1.69Z"/><path class="cls-2" d="M54.44,66.49c7.61,0,11.93,2.77,11.93,6.38,0,6.52-15.18,8.19-15.18,8.19L30.24,72.87c9.83-4.58,18.08-6.38,24.2-6.38m0-2h0c-5,0-13.41,1.14-25,6.57a2,2,0,0,0,.12,3.67l21,8.19a2,2,0,0,0,.73.14h.21a45.45,45.45,0,0,0,8-1.74c5.95-1.93,9-4.77,9-8.44,0-3.86-3.65-8.38-13.93-8.38Z"/><path class="cls-3" d="M22.18,235.92a1,1,0,0,1-1-1V163.4l8.06-90.62a1,1,0,0,1,.38-.69,1,1,0,0,1,.62-.22h.14a106.78,106.78,0,0,1,10.69,2.18c7.73,2,11.26,4.29,11.12,7,0,.7-.15,1.86-.29,3.48-.91,9.94-3.65,40.19-.71,86.27,3.37,52.92-2.84,64.12-3.11,64.57a1,1,0,0,1-.86.49Z"/><path class="cls-2" d="M30.24,72.87s21.22,3,21,8.19-4.4,36.63-1,89.86-3,64-3,64h-25V163.4l8.06-90.53m0-2A2,2,0,0,0,29,71.3a2,2,0,0,0-.75,1.39l-8.06,90.53a1.09,1.09,0,0,0,0,.18v71.52a2,2,0,0,0,2,2h25a2,2,0,0,0,1.72-1c.18-.32,1.84-3.33,3-12.81,1.57-12.53,1.64-30.14.22-52.34-2.93-46-.19-76.19.71-86.11.15-1.62.25-2.79.29-3.51.18-3.36-3.47-5.85-11.85-8.08a105.55,105.55,0,0,0-10.81-2.2l-.28,0Z"/><path class="cls-4" d="M2.65,235.92a1,1,0,0,1-1-.95c-2.26-43.64,1.91-123.1,4.16-165.8.73-13.94,1.26-24,1.36-28.64q.09-4.37.13-8.4C7.5,16.36,7.64,5,13.18,1.75A5,5,0,0,1,15.66,1c3.19,0,4.5,3.9,5,6.9a1.46,1.46,0,0,1,.6-.12c1.16,0,3.1,0,7,20.51,5.44,28.9,9.27,41.58,9.31,41.7A1,1,0,0,1,37,71.21l-5.66,2.3c.85,7.09,7.37,61.79,10.52,85,3.37,24.83,0,60.21,0,60.57a1,1,0,0,1-.35.66l-18.67,16a1,1,0,0,1-.65.24Z"/><path class="cls-2" d="M15.66,2c4.07,0,4.39,9.24,4.39,9.24s.35-2.46,1.24-2.46c1.08,0,2.95,3.63,6,19.7,5.52,29.31,9.34,41.8,9.34,41.8l-6.37,2.59s7.22,60.77,10.61,85.77,0,60.33,0,60.33L22.18,234.92H2.65c-3-57.32,5.09-175,5.52-194.37S7.74,6.07,13.68,2.62a4,4,0,0,1,2-.62m0-2a6,6,0,0,0-3,.89C6.64,4.39,6.5,16,6.3,32.11c0,2.7-.07,5.49-.13,8.39-.1,4.62-.63,14.69-1.36,28.63C2.56,111.84-1.61,191.33.65,235a2,2,0,0,0,2,1.9H22.18a2,2,0,0,0,1.3-.48l18.67-15.95a2,2,0,0,0,.69-1.33c0-.35,3.38-35.86,0-60.79-3-22.5-9.29-74.66-10.42-84.22l5-2a2,2,0,0,0,1.16-2.44c0-.12-3.86-12.77-9.29-41.59C25.63,9,23.64,6.9,21.5,6.78,20.8,3.61,19.22,0,15.66,0Z"/><path class="cls-5" d="M15.44,69.83a47.19,47.19,0,0,1,11.88-2.21"/><path class="cls-5" d="M14.59,59.47a78.82,78.82,0,0,1,12.73-1.29"/><path class="cls-5" d="M14.59,49.56h11"/><path class="cls-5" d="M24.35,38.81,14.15,40"/><path class="cls-5" d="M37.72,83.82l7.12.56a4.69,4.69,0,0,1,2.48.68"/><path class="cls-5" d="M37.09,91.33A51.81,51.81,0,0,1,46,93.42"/><path class="cls-5" d="M37.3,99.78a45.88,45.88,0,0,1,8.06,1.29"/></g></g></svg>