<svg xmlns="http://www.w3.org/2000/svg" viewBox="0 0 105.71 223.65"><defs><style>.cls-1{fill:#0c81c3;}.cls-2{fill:#010101;}.cls-3{fill:#8683bf;}.cls-4{fill:#08ad84;}.cls-5{fill:none;}.cls-5,.cls-6{stroke:#010101;stroke-linecap:round;stroke-linejoin:round;stroke-width:2px;}.cls-6{fill:#eda520;}</style></defs><title>Q_10</title><g id="Layer_2" data-name="Layer 2"><g id="Landmark"><path class="cls-1" d="M50.48,40.41A3.42,3.42,0,0,1,48,39.47a2.87,2.87,0,0,1-.8-2.07c0-.31-.08-1.38.1-6.92.11-3.5.12-7.77.13-11.89C47.49,2.81,47.69,1,49.4,1,50.73,1,51.53,1,54,35.65c.06.84.1,1.43.12,1.68a2.45,2.45,0,0,1-.68,1.91A4.09,4.09,0,0,1,50.48,40.41Z"/><path class="cls-2" d="M49.4,2c1.34,0,3.5,32.92,3.69,35.41.1,1.23-1.29,2-2.61,2a2,2,0,0,1-2.27-2.07s0,.07,0,.07a3,3,0,0,0,.09-.84l0,0a3.37,3.37,0,0,0-.09.73c-.05-.34-.06-1.93.09-6.83C48.65,19.73,48.06,2,49.4,2m0-2c-2.53,0-2.65,3.09-2.81,7-.12,3.12-.13,7.23-.15,11.58,0,4.11,0,8.37-.13,11.86-.18,5.34-.14,6.58-.1,7a3.85,3.85,0,0,0,1.08,2.72,4.41,4.41,0,0,0,3.19,1.24,5,5,0,0,0,3.66-1.49,3.5,3.5,0,0,0,1-2.66c0-.26-.06-.84-.12-1.68C54.71,32,54.12,23.49,53.44,16c-.39-4.25-.75-7.61-1.07-10-.48-3.6-.81-6-3-6Z"/><path class="cls-3" d="M30.19,222.65a1,1,0,0,1-.71-.29,1,1,0,0,1-.29-.71V211.5a1,1,0,0,1,.92-1l68.24-4.79a1,1,0,0,1,1,1v14a1,1,0,0,1-1,1Z"/><path class="cls-2" d="M98.35,206.72v14l-68.16.92V211.5l68.16-4.78m0-2h-.14l-68.16,4.79a2,2,0,0,0-1.86,2v10.15a2,2,0,0,0,.59,1.42,2,2,0,0,0,1.41.58h0l68.17-.92a2,2,0,0,0,2-2v-14a2,2,0,0,0-2-2Z"/><path class="cls-3" d="M33.05,210.91l-.22,0-16.44-3.63a1,1,0,0,1-.78-1v-9.22c-2.26-.27-8-1.23-10.49-4.22a5.16,5.16,0,0,1-1.23-4c.34-3.13.58-4.31,1.71-4.31s1.35,1.14,1.59,3.94c.08.82,1.61,1.61,3.15,1.61a3.28,3.28,0,0,0,.82-.1c1.77-.5,5.76-1.9,5.8-1.91a.87.87,0,0,1,.32-.06l10-.16-.17-5.74c-3-.19-11.94-1.24-13.8-6.66-1.27-3.68-1.1-4.35-.75-4.84a1.13,1.13,0,0,1,.92-.48c.26,0,1.07,0,2.18,2.15a5.39,5.39,0,0,0,4.67,3,4.76,4.76,0,0,0,.74-.05,20.41,20.41,0,0,0,5.78-1.81v-5.76C25,167.35,20.49,166.45,19,166c-1.11-.32-4.72-1.78-4.63-7.3,0-1.22,0-2.6,1.25-2.6.89,0,1.16.77,1.68,2.32a11.58,11.58,0,0,0,.7,1.78c.11.17.92.54,2.59.54a9.13,9.13,0,0,0,3.12-.5c1.28-.53,2.63-1.19,3.36-1.56V155c-1.63-.61-5.83-2.19-7.67-3.18-2.09-1.13-4.51-3.47-4.16-8.23.09-1.23.15-2.11,1.16-2.11.85,0,1,.75,1.18,1.47.2.91.74,3.32,1.74,3.7a6.59,6.59,0,0,0,2.29.36,8,8,0,0,0,5.08-1.62l1.18-1v-3.71c-1.59-.43-5.32-1.46-7-1.9-2.62-.69-5.85-4.16-5.92-7.43,0-.74,0-1.19.33-1.55a1.06,1.06,0,0,1,.73-.3c.68,0,.95.54,1.18,1,.41.84,1.25,2.58,2.85,2.84a4.68,4.68,0,0,0,.67,0c2.49,0,5.74-1.77,6.93-2.47v-3.26c-1.74-.55-6.21-2-7.42-2.33-2.16-.64-4.07-5-4.07-8,0-.44,0-1.62,1.08-1.62.71,0,1,.54,1.28,1.23.5,1.1,1.54,3.39,3.27,3.39H22c3-.3,5.53-2.65,6.32-3.45v-2.1L23,112.71c-1.12,0-4.51-.33-5.52-2.85-.73-1.82-1.4-5.75-.29-6.7a1.12,1.12,0,0,1,.7-.26c.72,0,1,.56,1.49,1.41S20.85,107,21.87,107a5.36,5.36,0,0,0,3.29-.88l.51-.3a30.56,30.56,0,0,0,3.65-2.88v-.82c-1.67-.54-5.86-1.89-7.09-2.2-2-.5-5-3.86-5-7.3,0-.8,0-1.89,1.1-1.89.75,0,1,.62,1.22,1.21s.82,2.12,1.53,2.29a9.29,9.29,0,0,0,2,.27A2.77,2.77,0,0,0,24.77,94c.56-.42,2.83-2.49,4.41-3.94l-5.32-2.52c-.75-.25-6.41-2.19-6.6-6.18-.11-2.34.2-3,.56-3.39a1.22,1.22,0,0,1,.89-.39c1,0,1.57,1.17,2,2.32a3.08,3.08,0,0,0,2.93,1.83,3,3,0,0,0,1.84-.59,48.52,48.52,0,0,0,4.46-4c-1.76-.53-5.7-1.72-7-2.21-2.2-.81-4.57-4.63-4.18-7.94.06-.51.2-1.72,1.26-1.72.84,0,1.13.75,1.58,1.89a7.28,7.28,0,0,0,1.18,2.3,5.26,5.26,0,0,0,1.35.2,2.1,2.1,0,0,0,1.61-.62c.62-.67,2.34-2.62,3.42-3.85-1.68-.65-4.48-1.72-5.52-2-2.22-.62-4.54-5.08-4-7.7.23-1.12.81-1.36,1.26-1.36.83,0,1.17.74,1.65,1.76.25.53,1,2.17,1.46,2.21l.58,0a2.27,2.27,0,0,0,1.88-.65c.34-.46,2.46-3.22,3.65-4.76-.31-.12-.63-.24-1-.35C25.79,51.25,21.71,49.8,21.3,44a1,1,0,0,1,1-1.07,1,1,0,0,1,.76.35c.68.8,2.8,2.88,4.42,2.88a1.56,1.56,0,0,0,1.29-.7c.9-1.17,2.2-2.75,3.56-4.43a89.4,89.4,0,0,0,5.74-7.41C38.33,33,38.13,30,38,28c-.29-4.54-.33-6.32.4-7.1a1.22,1.22,0,0,1,.91-.4h.14c1.1.12,1.44,1.31,2,3.27.87,3.09,2.18,7.76,6.32,9.16,7,2.37,22.91,7.33,25,7.77a2.13,2.13,0,0,0,.46,0c2.09,0,5-1.77,5.06-2.81a1,1,0,0,1,.92-.92h.08a1,1,0,0,1,1,.76c0,.19,1,4.53-4.52,8.47a65.39,65.39,0,0,0-6.21,5,16.42,16.42,0,0,0,6.06,1.77,3.23,3.23,0,0,0,1.25-.21c2.52-1.07,3.27-4.52,3.28-4.56a1,1,0,0,1,.72-.76,1.15,1.15,0,0,1,.26,0,1,1,0,0,1,.75.34s3,3.58-1.46,8.16a91.56,91.56,0,0,1-8.53,7.39,18.7,18.7,0,0,0,5.76,1.52,1.7,1.7,0,0,0,.94-.18C80.82,63,81.82,62.17,81.38,61a1,1,0,0,1,.35-1.17,1.05,1.05,0,0,1,.58-.19,1,1,0,0,1,.64.24,4.22,4.22,0,0,1,1.36,3.26c-.07,2.14-1.65,4.35-4.7,6.57-4.06,3-6.25,4.72-7.35,5.65a14.38,14.38,0,0,0,5,1.72h.17a5.78,5.78,0,0,0,4-1.49,3,3,0,0,0,.83-2.29,1,1,0,0,1,.75-1,1.07,1.07,0,0,1,.25,0,1,1,0,0,1,.89.55s2.46,5.11-3.69,9.3c-4.25,2.89-6.88,4.8-7.82,5.49v.53a18.43,18.43,0,0,0,6.22,1.64,3.87,3.87,0,0,0,.79-.07A5.77,5.77,0,0,0,84,85.51a1,1,0,0,1,1-.76h0a1,1,0,0,1,1,.76c.06.23,1.37,5.74-5.7,9.9-4.18,2.46-6,3.5-6.85,3.94v1.35c1.37.78,4.09,2.14,5.77,2.14a2.38,2.38,0,0,0,.39,0,5.29,5.29,0,0,0,4.53-4.54,1,1,0,0,1,.8-.81l.19,0a1,1,0,0,1,.86.49,6.51,6.51,0,0,1,.57,4.62c-.52,2-2,3.8-4.5,5.24-4.45,2.6-6.66,3.74-7.61,4.21v2.29a11.4,11.4,0,0,0,6,2c2.68,0,4.14-1.2,4.6-3.76a1,1,0,0,1,1-.83h.07a1,1,0,0,1,.93,1c0,.29.27,7.31-5.9,9.76-3.61,1.44-5.34,2.19-6.1,2.54v3.34a14.48,14.48,0,0,0,6.15,1.88,5.27,5.27,0,0,0,2.59-.65c1.6-.86,1.66-1.29,1.78-2.22l0-.28c.17-1.2.87-1.62,1.47-1.62a1.33,1.33,0,0,1,1,.42,2.29,2.29,0,0,1,.52,1.73c-.18,4.09-2.54,7-7,8.68a48.11,48.11,0,0,0-6.25,2.67v2.68c1,1,3.31,2.76,5.06,2.9.37,0,.74.05,1.1.05,1.82,0,3.09-.49,3.76-3,.34-1.2.92-2.81,2.13-2.81a1.29,1.29,0,0,1,1,.51c.78,1,.38,3.09.17,3.94-.87,3.61-4.36,5.44-7.43,7.06l-.36.19a40.93,40.93,0,0,1-4.93,2.21v3.7a14.67,14.67,0,0,0,6.66,1.92,12.56,12.56,0,0,0,2.36-.25c1.19-.22,1.41-.82,1.82-2.25.07-.24.14-.48.22-.72.43-1.33,1.15-1.53,1.55-1.53a1.19,1.19,0,0,1,1,.52c.65.92.18,2.83-.33,4.27-1.4,3.94-2.64,4.48-5.61,5.76-2.26,1-5.5,2.43-6.84,3l.09,3.67a13.36,13.36,0,0,0,6.75,2.35h.25c3.38-.11,4-1.83,4.12-3.49.11-1.34.8-2.24,1.72-2.24a1.33,1.33,0,0,1,1,.48c.49.58.62,1.59.37,3.09-.57,3.47-2.27,5-5.43,6.79-2.4,1.36-6.57,3.36-8.1,4.09v4.68H86.7a1,1,0,0,1,.58.19,10.78,10.78,0,0,0,5.56,1.71l.51,0c3.49-.21,4.9-3,5.46-5.22.4-1.6,1.26-1.84,1.73-1.84a1.61,1.61,0,0,1,1.4,1c.69,1.33.57,4-1.33,6.76-2.82,4.06-7.84,6.65-14.22,7.34v8.25a1,1,0,0,1-.9,1L33.15,210.9Z"/><path class="cls-2" d="M39.32,21.45h0c1.37.16,1.3,10.1,8.1,12.39s22.94,7.34,25.15,7.8a3.55,3.55,0,0,0,.67.06c2.32,0,5.92-1.93,6.06-3.73,0,0,.92,3.82-4.13,7.41a54.45,54.45,0,0,0-7.34,6s4.52,2.51,7.77,2.51a4.28,4.28,0,0,0,1.64-.29c3.06-1.3,3.87-5.27,3.87-5.27s2.47,2.82-1.43,6.8a98.38,98.38,0,0,1-9.78,8.33s4.86,2.28,7.73,2.28a2.66,2.66,0,0,0,1.52-.37c2.06-1.45,3.89-2.77,3.13-4.74,0,0,3.75,3.14-3.28,8.26s-8.49,6.65-8.49,6.65,4,2.45,6.73,2.53h.2c2.65,0,6-1.47,5.84-4.82,0,0,2.14,4.28-3.37,8s-8.25,5.81-8.25,5.81v1.68s4.16,2,7.22,2a5.92,5.92,0,0,0,1-.08,6.76,6.76,0,0,0,5.08-5s1.26,5-5.24,8.79-7.34,4.21-7.34,4.21v2.52s4.16,2.57,6.77,2.57a2.63,2.63,0,0,0,.57,0,6.3,6.3,0,0,0,5.34-5.35s2.84,4.74-3.58,8.49a90.08,90.08,0,0,1-8.1,4.43v3.44a12.45,12.45,0,0,0,7,2.45c4,0,5.2-2.45,5.58-4.59,0,0,.31,6.58-5.27,8.79S74,124.28,74,124.28v4.59c3.09,1.62,5.35,2.27,7.15,2.27a6.29,6.29,0,0,0,3.07-.77c2.21-1.19,2.16-2,2.33-3.24.07-.52.28-.76.48-.76s.52.4.48,1.1c0,1.25-.26,5.52-6.35,7.8s-6.9,3.07-6.9,3.07V142s3.24,3.24,6,3.47c.41,0,.8.05,1.19.05,2.18,0,3.91-.69,4.73-3.69.4-1.45.84-2.08,1.16-2.08S88,141,87.5,143c-.8,3.3-4.27,5-7.29,6.6a38.85,38.85,0,0,1-5.46,2.39v5a15.82,15.82,0,0,0,7.66,2.32A13.19,13.19,0,0,0,85,159c2.15-.4,2.28-2,2.81-3.64.18-.56.41-.84.6-.84.36,0,.54,1.11-.3,3.46-1.25,3.52-2.16,3.92-5.06,5.17s-7.45,3.3-7.45,3.3l.11,4.84s3.69,2.82,7.74,2.82h.28c4.16-.14,4.93-2.58,5.08-4.4.07-.84.42-1.33.73-1.33s.67.7.39,2.41c-.51,3.13-2,4.43-4.93,6.08s-8.61,4.33-8.61,4.33v6.31H86.7a11.63,11.63,0,0,0,6.14,1.9l.57,0c3.76-.23,5.63-3,6.37-6,.19-.76.48-1.09.76-1.09.82,0,1.53,2.84-.76,6.15-3.07,4.44-8.53,6.54-14.39,7v9.16l-52.34,5.29-16.44-3.64V196.14S4.21,195.29,4.89,189c.27-2.56.51-3.42.71-3.42s.5,1.87.6,3c.14,1.59,2.35,2.53,4.14,2.53a4.06,4.06,0,0,0,1.09-.14c1.82-.51,5.86-1.93,5.86-1.93l11-.17-.23-7.68s-11.83-.23-13.82-6c-1-3-1.09-4-.78-4s.88.82,1.29,1.61a6.34,6.34,0,0,0,5.56,3.58,6.58,6.58,0,0,0,.87-.06,21.63,21.63,0,0,0,6.65-2.19V166.9s-6.77-1.31-8.56-1.82-4-2.22-3.91-6.32c0-1.18.11-1.62.25-1.62.34,0,1,2.7,1.53,3.62.43.71,1.89,1,3.44,1a10,10,0,0,0,3.5-.57c1.93-.8,4-1.88,4-1.88v-5.06s-6-2.16-8.19-3.36-3.93-3.41-3.64-7.28c.06-.84.1-1.18.16-1.18s.56,4.35,2.57,5.1a7.39,7.39,0,0,0,2.64.43,8.91,8.91,0,0,0,5.78-1.9l1.48-1.2v-4.95s-5.58-1.53-7.74-2.1S16,134.19,16,131.34c0-.6,0-.83.06-.83.23,0,1.12,3.4,3.87,3.85a5.49,5.49,0,0,0,.83.06c3.42,0,7.93-2.91,7.93-2.91V127s-6.6-2.11-8.14-2.56-3.35-4.27-3.35-7c0-.44,0-.62.08-.62.3,0,1.45,4.62,4.55,4.62a1.77,1.77,0,0,0,.32,0c4-.39,7.22-4,7.22-4v-3.18l-6.13-2.45h0c-.33,0-3.89,0-4.76-2.22s-1-5.23-.57-5.57l.05,0c.43,0,1.64,4.06,4,4.06H22a6.69,6.69,0,0,0,4.16-1.31,35.47,35.47,0,0,0,4.15-3.3v-2s-6.26-2-7.85-2.45S18.2,95.5,18.26,92.6c0-.65,0-.91.1-.91.22,0,.84,3.07,2.51,3.47a10,10,0,0,0,2.23.3,3.69,3.69,0,0,0,2.27-.64c.91-.69,5.57-5,5.57-5l-6.71-3.19s-5.8-1.76-6-5.29c-.09-1.9.11-2.73.45-2.73s.66.6,1,1.65A4.22,4.22,0,0,0,26.05,82a53.57,53.57,0,0,0,5-4.5v-1s-6.15-1.83-7.84-2.45-3.88-3.93-3.54-6.88c.07-.6.16-.84.26-.84.43,0,1.2,3.77,2.47,4.14a6.24,6.24,0,0,0,1.65.25,3,3,0,0,0,2.33-.94c1-1,4.38-5,4.38-5s-5.34-2.11-6.94-2.56-3.75-4.26-3.3-6.54c.08-.39.17-.55.28-.55.52,0,1.42,3.82,3,4l.67,0a3.09,3.09,0,0,0,2.69-1.06c.45-.62,4.43-5.78,4.43-5.78-3.44-1.6-8.86-2-9.32-8.41,0,0,2.73,3.23,5.18,3.23a2.53,2.53,0,0,0,2.08-1.09c2.6-3.36,8.56-10.32,9.4-12s-1-12.62.36-12.62m0-2a2.24,2.24,0,0,0-1.64.72c-1,1.07-1,2.79-.67,7.84a36.42,36.42,0,0,1,.12,5.24c-.57,1-3.57,4.7-5.57,7.15-1.37,1.68-2.67,3.27-3.58,4.45-.24.31-.39.31-.5.31-1,0-2.75-1.47-3.66-2.52a2,2,0,0,0-1.52-.71,2,2,0,0,0-2,2.14c.45,6.24,4.94,8,8.1,9.17l-2.83,3.7c0,.05-.32.24-1.07.24h-.22a9.61,9.61,0,0,1-.92-1.66c-.51-1.09-1.09-2.33-2.55-2.33a2.31,2.31,0,0,0-2.24,2.16c-.64,3.21,2,8.09,4.73,8.86.73.21,2.49.85,4.09,1.47-.95,1.08-2,2.26-2.45,2.74a1.09,1.09,0,0,1-.88.31,3.57,3.57,0,0,1-.81-.1,12.73,12.73,0,0,1-.79-1.76c-.46-1.19-1-2.53-2.52-2.53-.89,0-2,.45-2.25,2.61-.36,3.13,1.72,7.84,4.84,9,1,.37,3.53,1.15,5.46,1.73a38,38,0,0,1-3.13,2.69,2,2,0,0,1-1.25.4,2.12,2.12,0,0,1-2-1.16c-.31-.89-1-3-2.91-3a2.23,2.23,0,0,0-1.62.7c-.7.74-.94,1.9-.83,4.13.22,4.56,6,6.67,7.24,7.06l3.91,1.85c-1.43,1.31-2.85,2.58-3.24,2.88a2,2,0,0,1-1.07.24,7.92,7.92,0,0,1-1.7-.23,5,5,0,0,1-.89-1.69,2.35,2.35,0,0,0-2.15-1.85c-1.36,0-2.06,1-2.1,2.87-.07,3.68,3.09,7.63,5.72,8.29.95.24,3.91,1.18,6,1.86a24.78,24.78,0,0,1-2.85,2.21l-.52.3a4.38,4.38,0,0,1-2.77.74c-.22,0-.68-.44-1.6-2.13-.5-.9-1.06-1.93-2.37-1.93a2.07,2.07,0,0,0-1.35.5c-1.92,1.65-.37,6.88,0,7.84,1.19,3,4.86,3.4,6.24,3.46l4.54,1.81v1c-.94.88-3.08,2.64-5.42,2.87h-.12c-1.08,0-2-2-2.36-2.8s-.83-1.82-2.19-1.82c-.49,0-2.08.19-2.08,2.62,0,3,1.91,8.06,4.79,8.92,1.06.31,4.68,1.46,6.7,2.1v2c-1.52.85-4.08,2-5.93,2a2.64,2.64,0,0,1-.51,0c-1.09-.18-1.75-1.55-2.11-2.28A2.32,2.32,0,0,0,16,128.51a2,2,0,0,0-1.44.6,2.84,2.84,0,0,0-.62,2.27c.08,3.75,3.65,7.59,6.67,8.38,1.44.38,4.44,1.2,6.25,1.7v2.47l-.74.59-.13.12A6.93,6.93,0,0,1,21.64,146a5.57,5.57,0,0,1-1.94-.3c-.18-.12-.6-.68-1.12-3-.16-.73-.5-2.25-2.15-2.25-1.94,0-2.07,1.9-2.16,3-.3,4.14,1.36,7.4,4.69,9.19a76.09,76.09,0,0,0,7.14,3v2.44c-.74.37-1.76.86-2.74,1.26a8.06,8.06,0,0,1-2.74.42,5.64,5.64,0,0,1-1.83-.24c-.15-.35-.37-1-.51-1.4-.55-1.61-1-3-2.63-3-2.19,0-2.23,2.42-2.25,3.59-.11,6.22,4.08,7.9,5.36,8.27s5,1.12,7.11,1.54v4.3A18.74,18.74,0,0,1,21,174.3a4.35,4.35,0,0,1-.61,0,4.43,4.43,0,0,1-3.79-2.5c-1.24-2.41-2.34-2.69-3.06-2.69a2.14,2.14,0,0,0-1.73.9c-.71,1-.57,2.28.61,5.75,1.07,3.09,4.12,5.27,9.08,6.48a33,33,0,0,0,4.69.77l.12,3.84-9,.14a1.9,1.9,0,0,0-.63.11s-4,1.41-5.74,1.9a2.21,2.21,0,0,1-.55.06,3.15,3.15,0,0,1-2.15-.74c-.22-2.48-.44-4.81-2.59-4.81S3.2,186,2.9,188.76a6.11,6.11,0,0,0,1.45,4.71c2.46,2.94,7.49,4.06,10.26,4.46v8.34a2,2,0,0,0,1.57,2l16.44,3.63a2,2,0,0,0,.43,0h.2l52.34-5.29a2,2,0,0,0,1.8-2v-7.37c6.25-.86,11.19-3.54,14-7.65,2.15-3.11,2.25-6.16,1.4-7.79a2.61,2.61,0,0,0-2.29-1.5c-.48,0-2.09.19-2.7,2.6-.7,2.82-2.23,4.32-4.55,4.46l-.45,0a9.79,9.79,0,0,1-5-1.53,2,2,0,0,0-1.15-.37H78.34v-3.05c1.84-.88,5.42-2.62,7.59-3.85,3.36-1.89,5.3-3.65,5.93-7.5.29-1.8.1-3.08-.6-3.9a2.33,2.33,0,0,0-1.77-.83c-1.22,0-2.53,1-2.72,3.16-.11,1.3-.44,2.48-3.15,2.57H83.4a11.87,11.87,0,0,1-5.76-1.9l-.06-2.48c1.55-.69,4.27-1.9,6.21-2.74,3.28-1.42,4.67-2.16,6.16-6.35,1.29-3.64.48-4.79.21-5.17a2.2,2.2,0,0,0-1.8-1c-.54,0-1.86.22-2.5,2.22-.09.26-.16.51-.23.75-.41,1.43-.5,1.44-1,1.54a11.27,11.27,0,0,1-2.17.24,13.12,13.12,0,0,1-5.66-1.54v-2.39a41.41,41.41,0,0,0,4.4-2l.36-.19c3.1-1.63,6.95-3.66,7.93-7.7.37-1.52.6-3.58-.35-4.8a2.31,2.31,0,0,0-1.8-.89c-2.12,0-2.82,2.58-3.09,3.55-.52,1.9-1.29,2.22-2.8,2.22-.3,0-.63,0-1,0-1.16-.1-2.93-1.3-4.14-2.35v-1.64a59.45,59.45,0,0,1,5.59-2.33c3.36-1.25,7.41-3.93,7.66-9.58a3.28,3.28,0,0,0-.8-2.46,2.32,2.32,0,0,0-1.68-.73,2.59,2.59,0,0,0-2.46,2.48l0,.29c-.1.74-.11.85-1.26,1.47a4.3,4.3,0,0,1-2.12.53,12.56,12.56,0,0,1-5.15-1.5v-2.08c.93-.4,2.6-1.11,5.47-2.25C88.27,120.6,88,112.9,88,112.57a2,2,0,0,0-1.87-1.9H86a2,2,0,0,0-2,1.65c-.37,2.09-1.42,2.94-3.61,2.94a10.19,10.19,0,0,1-5-1.51v-1.12c1.18-.6,3.35-1.77,7.11-4,2.7-1.58,4.38-3.55,5-5.86a7.4,7.4,0,0,0-.69-5.39,2,2,0,0,0-1.71-1,1.55,1.55,0,0,0-.37,0,2,2,0,0,0-1.6,1.62,4.37,4.37,0,0,1-3.72,3.73h-.22a13.41,13.41,0,0,1-4.77-1.72v-.18c1.17-.65,3.21-1.82,6.36-3.67,7.7-4.53,6.22-10.75,6.16-11A2,2,0,0,0,85,83.75h0A2,2,0,0,0,83,85.26a4.84,4.84,0,0,1-3.49,3.49,3.58,3.58,0,0,1-.61,0,15.09,15.09,0,0,1-4.64-1.08c1.32-1,3.6-2.57,6.8-4.75,5.5-3.74,5-8.55,4-10.57a2,2,0,0,0-1.79-1.11,2.07,2.07,0,0,0-.5.06,2,2,0,0,0-1.5,2,2,2,0,0,1-.55,1.55,4.85,4.85,0,0,1-3.29,1.18h-.15a10.13,10.13,0,0,1-3.22-1c1.25-1,3.18-2.49,6.1-4.61,3.31-2.41,5-4.88,5.11-7.35a5.24,5.24,0,0,0-1.71-4.06,2,2,0,0,0-3.15,2.26c.19.48-1,1.35-2.37,2.34a1.89,1.89,0,0,1-.42,0,13.45,13.45,0,0,1-3.74-.84,82.33,82.33,0,0,0,7.22-6.37c4.11-4.19,2.78-8.06,1.5-9.52a2,2,0,0,0-1.5-.68,2.24,2.24,0,0,0-.52.06A2,2,0,0,0,79.18,48c-.18.81-1,3.11-2.69,3.83a2.21,2.21,0,0,1-.86.13,12.52,12.52,0,0,1-4.23-1.06c1.15-1,2.8-2.31,5-3.86,6.08-4.32,5-9.3,4.92-9.51a2,2,0,0,0-2-1.53h-.16a2,2,0,0,0-1.83,1.77,6.17,6.17,0,0,1-4.07,2,1.18,1.18,0,0,1-.26,0c-2.06-.43-18.1-5.44-24.92-7.74-3.64-1.22-4.87-5.59-5.68-8.48-.6-2.12-1.07-3.8-2.84-4l-.25,0Z"/><polygon class="cls-1" points="44.04 38.89 49.4 40.7 49.71 186.85 40.72 187.12 44.04 38.89"/><polygon class="cls-1" points="62.74 44.7 65.56 45.66 72.74 186.76 66.62 186.5 62.74 44.7"/><polygon class="cls-4" points="49.4 40.7 49.71 188.13 66.62 187.97 62.93 44.88 49.4 40.7"/><path class="cls-5" d="M31.8,175c2.75-.39,4.8-1.58,4.51-3.22-.38-2.08,1.07,1.62,5.14,2.62,3.32.81,23.62.66,32.7.28"/><path class="cls-5" d="M31.29,160.94c2.83-.83,5.2-1.83,5.22-2.85,0-1.72,0-3.08,3.49,0s10.55,2.17,13.09,2.17c1.83,0,13.28.14,20.11.22"/><path class="cls-5" d="M31.29,147.1c2.86-.74,4.75-1.39,5-2.55.44-1.9-1.56-5.06,2.69-1.81s6.06,2.71,8.68,2.9c2.06.14,17.21,1,24.54,1.45"/><path class="cls-5" d="M32.35,133.19c2.6-1.32,4.58-2.83,4.6-4.28,0-2.62-1.38-4.15,2-1.08s10,2.64,13.75,3.17c2.71.39,12.66,1.95,18.83,2.56"/><path class="cls-5" d="M33.25,117.6c3.18-2.47,4.07-4.77,4-6.4-.05-2.18,1.18-.43,4.35,1.86,2.71,2,21.22,4.69,29.11,5.76"/><path class="cls-5" d="M33.25,103.33c2.51-1.69,4.24-3.29,4-5.06-.36-3.08-1.08-3.62,2-.91s9.94,3.89,16.63,5.25c4,.8,10.31,1.68,14.83,2.27"/><path class="cls-5" d="M34.39,87.87a8.68,8.68,0,0,0,3.24-6.69c0-2.44.2.18,3.09,2.17,2.17,1.49,19.41,5.4,29.06,7.55"/><path class="cls-5" d="M34.75,74c1.54-1.27,4.29-5.16,3.5-7.33s1.48.46,4.1,3.17c2.28,2.36,18.55,5.94,25.8,7.73"/><path class="cls-5" d="M33.85,62.92c2.35-2.35,4.62-5.07,4.4-8s-.51-3.16,2.11,0,10.31,5.7,14,6.51c2.32.51,8.66,2.32,13.09,3.61"/><path class="cls-5" d="M34.75,50.35c2.9-3.16,4.62-6.33,4.34-8.68s1.36.09,2.63,1.81S65.49,52,65.49,52"/><path class="cls-5" d="M19.9,195.31c4.84.36,6.07.44,8.24.58s4.27-.36,3.19-2.6.36-1.81,2.67,0,5.22,1.78,11.94,2.24c5.58.38,25.42.28,34.34-.2"/><line class="cls-5" x1="38.25" y1="187.07" x2="73.29" y2="187.02"/><line class="cls-6" x1="49.4" y1="60.03" x2="49.4" y2="52.69"/><line class="cls-6" x1="49.46" y1="72.76" x2="49.45" y2="65.46"/><line class="cls-6" x1="49.49" y1="86.13" x2="49.48" y2="79.57"/><line class="cls-6" x1="49.52" y1="101.3" x2="49.52" y2="92.64"/><line class="cls-6" x1="49.53" y1="107.59" x2="49.61" y2="115.37"/><line class="cls-6" x1="49.57" y1="123.33" x2="49.58" y2="130.6"/><line class="cls-6" x1="49.6" y1="138.4" x2="49.62" y2="145.76"/><line class="cls-6" x1="49.64" y1="153.05" x2="49.64" y2="160.38"/><line class="cls-6" x1="49.67" y1="166.81" x2="49.68" y2="174.73"/><line class="cls-6" x1="63.57" y1="69.78" x2="63.74" y2="76.46"/><line class="cls-6" x1="63.91" y1="82.85" x2="64.08" y2="89.62"/><line class="cls-6" x1="64.24" y1="95.61" x2="64.45" y2="104.02"/><line class="cls-6" x1="64.61" y1="110.2" x2="64.81" y2="117.97"/><line class="cls-6" x1="65" y1="125.26" x2="65.18" y2="132.4"/><line class="cls-6" x1="65.37" y1="139.21" x2="65.56" y2="146.69"/><line class="cls-6" x1="65.78" y1="153.86" x2="65.95" y2="160.4"/><line class="cls-6" x1="66.15" y1="166.88" x2="66.26" y2="174.38"/><line class="cls-6" x1="49.69" y1="180.43" x2="49.71" y2="186.85"/><line class="cls-6" x1="66.51" y1="180.24" x2="66.62" y2="186.5"/><line class="cls-6" x1="49.4" y1="46.8" x2="49.4" y2="40.7"/><line class="cls-6" x1="63.42" y1="63.92" x2="63.25" y2="57.1"/><line class="cls-6" x1="62.93" y1="44.98" x2="63.1" y2="51.29"/><line class="cls-6" x1="49.74" y1="196.52" x2="49.74" y2="203.46"/><line class="cls-6" x1="66.82" y1="195.91" x2="67.01" y2="203.46"/><path class="cls-3" d="M6.23,221.56a1,1,0,0,1-1-1l-.18-10a1,1,0,0,1,1-1l24.13,1a1,1,0,0,1,1,1v10.15a1,1,0,0,1-.31.72,1,1,0,0,1-.69.28Z"/><path class="cls-2" d="M6.1,210.54l24.09,1v10.15L6.28,220.56l-.18-10m0-2a2,2,0,0,0-2,2l.18,10a2,2,0,0,0,1.91,2l23.9,1.1h.1a2,2,0,0,0,2-2V211.5a2,2,0,0,0-1.92-2l-24.09-1Z"/><path class="cls-3" d="M2,211.38a1,1,0,0,1-1-1v-4a1,1,0,0,1,1-1l28.2-.42a1,1,0,0,1,.7.29,1,1,0,0,1,.3.71v5.54a1,1,0,0,1-.31.73,1,1,0,0,1-.69.27Z"/><path class="cls-2" d="M30.19,206v5.54L2,210.38v-4L30.19,206m0-2h0L2,204.38a2,2,0,0,0-2,2v4a2,2,0,0,0,1.92,2l28.19,1.12h.08a2,2,0,0,0,1.38-.55,2,2,0,0,0,.62-1.45V206a2,2,0,0,0-2-2Z"/><path class="cls-3" d="M30.19,212.5a1,1,0,0,1-.71-.28,1,1,0,0,1-.29-.72V206a1,1,0,0,1,.29-.7,1,1,0,0,1,.71-.3l73.52.21a1,1,0,0,1,1,1v4.29a1,1,0,0,1-1,1Z"/><path class="cls-2" d="M30.19,206l73.52.21v4.29l-73.52,1V206m0-2a2,2,0,0,0-2,2v5.54a2,2,0,0,0,2,2h0l73.53-1a2,2,0,0,0,2-2v-4.29a2,2,0,0,0-2-2L30.19,204Z"/><polygon class="cls-4" points="88.89 212.45 40.73 213.13 40.73 222.47 88.89 221.79 88.89 212.45"/><path class="cls-6" d="M40.73,213.13v0Z"/><path class="cls-6" d="M88.89,221.79v0Z"/><line class="cls-6" x1="88.89" y1="212.45" x2="40.73" y2="213.13"/><line class="cls-6" x1="40.73" y1="222.47" x2="88.89" y2="221.79"/></g></g></svg>