<svg xmlns="http://www.w3.org/2000/svg" viewBox="0 0 289.65 116.7"><defs><style>.cls-1,.cls-7{fill:#08ad84;}.cls-2{fill:#010101;}.cls-3,.cls-6{fill:#8683bf;}.cls-4,.cls-8{fill:#0c81c3;}.cls-5{fill:none;}.cls-5,.cls-6,.cls-7,.cls-8{stroke:#010101;stroke-linecap:round;stroke-linejoin:round;stroke-width:2px;}</style></defs><title>Q_11</title><g id="Layer_2" data-name="Layer 2"><g id="Landmark"><path class="cls-1" d="M112.15,29.34a2.25,2.25,0,0,1-2-1.28,3.21,3.21,0,0,1-.33-1.28,1.7,1.7,0,0,0,0-.28h0l-.16-.07a17.19,17.19,0,0,0-4.37-1.12c-2.25-.2-3-3.66-3.51-7.38-.32-2.36,2.19-6.13,2.48-6.56a1,1,0,0,1,.82-.43h0a1,1,0,0,1,.81.41L107.77,14a1,1,0,0,1,.18.58,17.54,17.54,0,0,1-.17,2.52,20.16,20.16,0,0,0-.16,2.07,3.55,3.55,0,0,0,2.62,3.17,5.16,5.16,0,0,0,1.62.28h0a5.89,5.89,0,0,0,.82-.06,5.5,5.5,0,0,1,.63-.06,1.43,1.43,0,0,1,1.31,1c.46,1,.73,3.5-.39,4.77A2.75,2.75,0,0,1,112.15,29.34Z"/><path class="cls-2" d="M105.07,11.94,107,14.57c0,2-.29,2.6-.33,4.57a4.49,4.49,0,0,0,3.31,4.14,6.06,6.06,0,0,0,1.93.33c.65,0,1.11-.12,1.46-.12h0c.62,0,1.13,3,.16,4.1a1.82,1.82,0,0,1-1.33.74,1.22,1.22,0,0,1-1.09-.74c-.46-.87.12-1.63-1-2.09a17.6,17.6,0,0,0-4.65-1.18c-1.72-.16-2.34-4.46-2.61-6.52s2.32-5.86,2.32-5.86m0-2h0a2,2,0,0,0-1.63.87c-.71,1-3,4.65-2.66,7.26.37,2.77,1.06,7.93,4.42,8.24a15.3,15.3,0,0,1,3.7.9,3.83,3.83,0,0,0,.4,1.31,3.23,3.23,0,0,0,2.87,1.81A3.72,3.72,0,0,0,115,28.92c1.49-1.68,1.1-4.64.55-5.84a2.4,2.4,0,0,0-2.21-1.59,5.86,5.86,0,0,0-.76.06,5.21,5.21,0,0,1-.7.06,4.41,4.41,0,0,1-1.31-.23,2.58,2.58,0,0,1-1.93-2.2,16.2,16.2,0,0,1,.15-2,19.15,19.15,0,0,0,.18-2.65,2,2,0,0,0-.37-1.16l-1.88-2.64a2,2,0,0,0-1.63-.83Z"/><path class="cls-3" d="M105.88,42.75a1,1,0,0,1-.24,0l-8.78-2.09a1,1,0,0,1-.66-.52l-3.57-6.86a.94.94,0,0,1-.11-.54l.54-6.66a1.31,1.31,0,0,1,.06-.27l1-2.85a1,1,0,0,1,.93-.65h.15l3.65.55a.94.94,0,0,1,.31.1l.67.34c3.48,1.8,7.43,3.83,8.37,7.28a16.81,16.81,0,0,1,.75,7.58c-.31,4-2.8,4.56-2.9,4.59Z"/><path class="cls-2" d="M95.1,23.28l3.65.55c3.55,1.84,7.66,3.76,8.54,7a15.84,15.84,0,0,1,.71,7.24c-.25,3.27-2.12,3.69-2.12,3.69l-8.79-2.1-3.58-6.86.55-6.66,1-2.85m0-2a2,2,0,0,0-1.87,1.31l-1,2.85a2.4,2.4,0,0,0-.12.53l-.54,6.66a1.93,1.93,0,0,0,.22,1.08l3.58,6.87a2,2,0,0,0,1.31,1l8.78,2.1a2.42,2.42,0,0,0,.47,0,2.28,2.28,0,0,0,.44,0c.34-.07,3.32-.88,3.67-5.48a17.65,17.65,0,0,0-.77-7.93c-1.06-3.87-5.22-6-8.89-7.9l-.66-.34a2,2,0,0,0-.63-.2L95.4,21.3a1.51,1.51,0,0,0-.3,0Z"/><path class="cls-4" d="M96.15,90.65a2.27,2.27,0,0,1-1.23-.42,10.6,10.6,0,0,1-2-1.75,12.24,12.24,0,0,0-2.1-1.79,27.6,27.6,0,0,0-5.37-2.43l-2-.78A34.06,34.06,0,0,1,80.27,82a17.27,17.27,0,0,0-5-2.1c-4.3-.77-4.15-5.35-3.67-9.59.59-5.28.27-6.25-1-9.09a2.56,2.56,0,0,1,0-2.39c1.24-2.25,5.9-3,6.82-3.08l.58-.07,5.91,7.85-.14.48a58.27,58.27,0,0,1-2.05,6,13.71,13.71,0,0,0-1,3.26c-.3,2,2,5.39,4.82,6.1a103.47,103.47,0,0,1,10,3.43,5.67,5.67,0,0,0,1.17.18c1.08.11,2.32.23,2.79,1.23a2.37,2.37,0,0,1-.43,2.25,9,9,0,0,0-1,2.22C97.7,89.58,97.33,90.65,96.15,90.65Z"/><path class="cls-2" d="M77.57,56.7l5.26,7c-1.65,5.79-2.7,6.84-3.08,9.4s2.33,6.39,5.56,7.21,8.57,2.86,9.85,3.38,4.66-.15,3.08,2.18c-1.31,1.93-1.22,3.8-2.09,3.8a1.38,1.38,0,0,1-.69-.26c-1.66-1.06-2.11-2.18-4.14-3.54s-5-2.25-7.59-3.3-5.33-3.16-8.26-3.69S72,75.71,72.61,70.37s.3-6.54-1.13-9.62,6.09-4,6.09-4m.9-2.14-1.16.15c-1.41.19-6.13,1-7.56,3.59a3.54,3.54,0,0,0-.08,3.29c1.25,2.7,1.52,3.53,1,8.56-.38,3.38-1.09,9.68,4.49,10.68a17.11,17.11,0,0,1,4.69,2A29.47,29.47,0,0,0,83,84.4c.67.27,1.36.53,2.05.79a27.18,27.18,0,0,1,5.17,2.33,11,11,0,0,1,2,1.67,12,12,0,0,0,2.22,1.88,3.26,3.26,0,0,0,1.77.58C98,91.65,98.65,89.9,99,89a8.21,8.21,0,0,1,.91-2,3.18,3.18,0,0,0,.51-3.25c-.71-1.51-2.38-1.67-3.6-1.79a6.84,6.84,0,0,1-.9-.12,101.24,101.24,0,0,0-10.09-3.46c-2.35-.6-4.29-3.6-4.08-5a12.56,12.56,0,0,1,.94-3,57.93,57.93,0,0,0,2.08-6.1l.28-1-.6-.8-5.26-7-.7-.93Z"/><path class="cls-4" d="M97.15,92.85A17,17,0,0,1,92.57,92a13.32,13.32,0,0,0-3.15-.68h-.14a14.23,14.23,0,0,0-5,1,5.52,5.52,0,0,1-1.89.4,2.06,2.06,0,0,1-1.86-.89,3,3,0,0,1,.15-2.89A22.17,22.17,0,0,1,82.21,86a3.2,3.2,0,0,0,.31-.52,1.22,1.22,0,0,1,1.3-1.06c1.24,0,3.38,1.41,3.62,1.57a16.28,16.28,0,0,0,6.15,1.33,3.06,3.06,0,0,0,.92-.09c.21-.08.43-.14.65-.2,1.13-.32,1.6-.45,1.12-3a12.66,12.66,0,0,1,.32-5.86,20.4,20.4,0,0,0,.64-4.57c.07-4.6.74-6,.88-6.26l.46-.83,11.06,5.52-.18.77a36.52,36.52,0,0,1-3.66,8.23c-.46.85-.92,1.7-1.34,2.51a20.8,20.8,0,0,0-1.25,3.26c-.64,2-1.24,3.88-3.28,5.24A4.88,4.88,0,0,1,97.15,92.85Z"/><path class="cls-2" d="M99,67.89l9.5,4.74c-.78,3.3-3.19,7.14-4.92,10.52s-1.48,6.31-4.19,8.11a4,4,0,0,1-2.23.59c-2.56,0-5.71-1.57-7.73-1.57h-.2a15.19,15.19,0,0,0-5.34,1,4.63,4.63,0,0,1-1.53.33c-1,0-1.61-.58-.8-2.36,1.21-2.63,1.88-3.08,2-3.68,0-.14.13-.2.31-.2a8.25,8.25,0,0,1,3.07,1.4c1.09.73,4.58,1.5,6.7,1.5a3.8,3.8,0,0,0,1.24-.15c1.53-.52,3.18-.37,2.43-4.28s.9-5.64,1-10.22.75-5.79.75-5.79m-.81-2.64-.93,1.66c-.28.5-.94,2.14-1,6.74A19.57,19.57,0,0,1,95.62,78a13.73,13.73,0,0,0-.32,6.27,5.3,5.3,0,0,1,.13,1.63l-.54.17c-.24.06-.47.13-.71.21h0a3,3,0,0,1-.59,0A16.1,16.1,0,0,1,88,85.17c-.61-.41-2.71-1.74-4.18-1.74a2.23,2.23,0,0,0-2.26,1.74c0,.08-.12.2-.19.3a22.4,22.4,0,0,0-1.64,3,3.92,3.92,0,0,0-.09,3.84,3.07,3.07,0,0,0,2.71,1.35,6.57,6.57,0,0,0,2.25-.46,13.13,13.13,0,0,1,4.73-.93h.09a13.36,13.36,0,0,1,2.87.64,18,18,0,0,0,4.86.93,5.91,5.91,0,0,0,3.33-.92c2.34-1.55,3-3.7,3.68-5.77a19.26,19.26,0,0,1,1.19-3.1c.41-.8.86-1.63,1.33-2.5a36.57,36.57,0,0,0,3.75-8.47l.37-1.55-1.42-.7-9.5-4.74-1.7-.85Z"/><path class="cls-4" d="M31.32,63.17c-1.4,0-1.83-.66-2-1.05s-.13-1.21.94-2l.29-.22c-.67.22-1.44.5-2.32.85a14.57,14.57,0,0,1-4.92,1.16c-1.78,0-2.09-.91-2.14-1.3s-.24-2,5.33-3.34a12.2,12.2,0,0,0,5.16-2.32,74.14,74.14,0,0,1-9.87,2.25,16.25,16.25,0,0,1-2.57.24A5.89,5.89,0,0,1,15.12,56a6.27,6.27,0,0,0-3-1.39,3,3,0,0,0-.54,0c-2.09,0-5.27,1.73-7.17,2.76-1.41.77-1.88,1-2.34,1a1.16,1.16,0,0,1-1-.63c-.33-.76.22-1.4,1.49-2.77,4.12-4.46,7.51-5.14,14.93-6.64,1.56-.31,3.3-.67,5.28-1.1A28.77,28.77,0,0,0,30,44.9c1.92-.91,3-1.23,10.4-1.23,7.12,0,8-.93,8.88-1.91s1.76-1.93,5.21-2.58l.19,0a1,1,0,0,1,1,1.28s-1,3.39-2,6.85C52.63,50.4,47.07,55,45.76,55h0a1.12,1.12,0,0,1-.8-.37,12.61,12.61,0,0,0-2.85,4.08c-1,2.27-2.06,3.38-3.12,3.38a1.39,1.39,0,0,1-1.28-.85,2.48,2.48,0,0,1-.15-1.44l-.12.18A8,8,0,0,1,31.32,63.17Z"/><path class="cls-2" d="M54.65,40.16h0m0,0s-1,3.38-2,6.84c-.9,2.94-6.26,7-6.86,7-.1,0-.06-.12.17-.4a1.68,1.68,0,0,0,.35-.54c0-.16,0-.25-.17-.25-.7,0-3.19,1.72-4.91,5.48-.92,2-1.73,2.8-2.21,2.8-.78,0-.7-2,1.16-4.22,1-1.17,1.19-1.65.93-1.65-.53,0-2.95,2-4.47,4.2a7.05,7.05,0,0,1-5.29,2.77c-1.05,0-1.5-.46-.42-1.3,1.23-.95,2.59-2.23,3.58-3.15a1.87,1.87,0,0,0,1.23-.87c.15-.22.19-.31.14-.31a10,10,0,0,0-1.37,1.18,43.85,43.85,0,0,0-6.58,2.06,13.61,13.61,0,0,1-4.56,1.09c-2.11,0-1.5-1.44,3.43-2.67,6.72-1.68,7.24-4.67,6.07-4.67a1,1,0,0,0-.28,0,67.55,67.55,0,0,1-10.9,2.59,15,15,0,0,1-2.41.23c-3.55,0-3.17-2.09-6.91-2.82a4.23,4.23,0,0,0-.73-.06c-3.43,0-8.78,3.77-9.51,3.77-.26,0,.06-.46,1.22-1.72,4.74-5.11,8.34-5,19.69-7.44s4.51-3.46,17.36-3.46,6.69-3.08,14.28-4.51m0-2h-.08l-.33,0c-3.46.66-4.65,1.7-5.73,2.88-.72.78-1.46,1.59-8.14,1.59-7.66,0-8.76.34-10.83,1.33a27.68,27.68,0,0,1-7,2.17c-2,.43-3.71.79-5.25,1.1C9.92,48.77,6.2,49.52,1.85,54.21.53,55.63-.42,56.66.19,58.06A2.08,2.08,0,0,0,2.1,59.29c.74,0,1.35-.33,2.82-1.13,1.7-.92,4.85-2.64,6.69-2.64a1.83,1.83,0,0,1,.35,0,5.23,5.23,0,0,1,2.55,1.2,6.92,6.92,0,0,0,4.74,1.65,15.67,15.67,0,0,0,2.14-.16,2.55,2.55,0,0,0-1.18,2.45c.06.51.47,2.18,3.13,2.18a15,15,0,0,0,4.94-1.1,2.11,2.11,0,0,0,.13.68c.17.51.81,1.72,2.91,1.72A9.37,9.37,0,0,0,37,62a2.39,2.39,0,0,0,2,1.1c1.51,0,2.79-1.26,4-4a12.1,12.1,0,0,1,2.1-3.22,2.25,2.25,0,0,0,.64.1c2,0,7.8-5.19,8.77-8.4s1.84-6.17,2-6.76a2.08,2.08,0,0,0,.11-.66,2,2,0,0,0-2-2Zm0,4Z"/><path class="cls-4" d="M63.88,95.8a1.53,1.53,0,0,1-1.36-.72c-.72-1.18.19-3.16,1.66-6l.32-.63c.19-.37.76-1.52,1.93-1.52a2.52,2.52,0,0,1,1.3.45l.29.17c.94-.86,4.4-7.06,5.29-9.28-.86-.38-3.7-.45-5.45-.49-1.13,0-2.3-.06-3.36-.13-.34,0-.69,0-1,0-.87,0-1.78.06-2.66.12s-1.7.1-2.47.1c-1.35,0-2.85-.13-3.68-1.15a2.77,2.77,0,0,1-.45-2.41A49.62,49.62,0,0,1,57,66.67c.65-1.57,1.51-3.6,1.81-4.63l-.42,0c-2.77-.24-9.26-.81-11-9-2.18-10.14,4.74-15.8,11.81-20a17.36,17.36,0,0,1,9-2.29c4.49,0,8.88,1.28,12.4,2.3l.56.17c2.76.8,7.53,1.2,14.2,1.2,2.58,0,4.91-.06,6.61-.1l1.1,0c2.92-.06,4-1,7.09-3.88.86-.79,1.85-1.7,3.06-2.75,5.81-5.05,8.84-10.2,8-11.85a3.33,3.33,0,0,1-.09-3.37,2.13,2.13,0,0,1,1.8-1.05,1.85,1.85,0,0,1,1.46.7,10.06,10.06,0,0,0,2.05,1,19.55,19.55,0,0,1,4.84,2.49,3.73,3.73,0,0,0,2.23.83,4.33,4.33,0,0,1,3.76,2.4c1.21,1.9,3.9,3.9,6.74,6,1.41,1.05,2.87,2.14,4.21,3.26a5.54,5.54,0,0,0,.61,0,3.12,3.12,0,0,1,2.54.83,2.35,2.35,0,0,1,.39,2c-.13.68-.21,1.37-.29,2-.23,1.94-.42,3.47-1.8,3.47h0a1.5,1.5,0,0,1-.55-.11h0c-.17,0-.7.4-1.08,1.39a3.59,3.59,0,0,1-3.27,2,2.18,2.18,0,0,1-2.33-1.79h0a1.22,1.22,0,0,0-.55-.07c-.27,0-.54,0-.8.05s-.56,0-.79,0a1.8,1.8,0,0,1-1.35-.47,14.82,14.82,0,0,0-5.63-1.19,4.22,4.22,0,0,0-2.94.82c-1.74,1.73-1.9,2.78-2.36,5.59-.1.65-.22,1.38-.37,2.22-.65,3.53-3.41,7.34-5.43,10.12-.66.92-1.23,1.71-1.53,2.22-1.08,1.91-2.08,5.71-2.88,8.76l-.1.39a6.82,6.82,0,0,1-2.55,3.79c1.61,1.22,4.66,3.52,6.16,4.62a6.92,6.92,0,0,1,2.65,6c-.21,1.3-1,3-3.9,4s-5.34,3.49-7.16,5.33c-1.49,1.51-2.31,2.34-3.22,2.34a1.32,1.32,0,0,1-.94-.39c-.47-.4-3.19-.53-5.37-.63-1.44-.06-3.06-.14-4.76-.29-.82-.07-2.76-.23-3-1.64-.08-.62-.29-2.08,6.9-4.8a4.35,4.35,0,0,1,1.49-.34,1.54,1.54,0,0,1,1.21.5,2.28,2.28,0,0,1,.38,1.85c0,.12,0,.29,0,.42h.16c1.52,0,3-1,7.41-4,2.07-1.41,2.41-2.24,2.43-2.61s-.57-1-1.15-1.53l-.25-.22c-1.14-1-8.26-4.55-12-5.82-1.38-.46-3.4-.94-5.54-1.43a61.33,61.33,0,0,1-9.49-2.73l-1.65-.74c-3.8-1.71-11.72-5.27-15.21-5.27-.65,0-1,.14-1,.27a43.39,43.39,0,0,1-2.64,5.14,34.32,34.32,0,0,0-1.73,3.26,34.66,34.66,0,0,0,8.41,1.09q.54,0,1,0l.53,0c2.19,0,6.61,1.1,7.25,3.2A2,2,0,0,1,81,78c-1.31.88-2.69,3.73-3.8,6-1,2.07-1.85,3.85-2.78,4.66l-.78.69c-2,1.82-5.11,4.57-8.26,6A3.74,3.74,0,0,1,63.88,95.8Z"/><path class="cls-2" d="M122.92,12.37a.82.82,0,0,1,.67.32c.75.93,4.56,1.67,7.07,3.62s3.81-.09,5.76,3,7.21,6.18,11.23,9.57c.66.56,3.57-.57,3.12,1.86s-.39,4.67-1.11,4.67a.38.38,0,0,1-.17,0,1.14,1.14,0,0,0-.4-.08c-.78,0-1.56.88-2,2a2.63,2.63,0,0,1-2.34,1.35,1.24,1.24,0,0,1-1.35-1c-.13-.73-.79-.89-1.53-.89-.56,0-1.15.09-1.59.09s-.53,0-.63-.17c-.3-.4-3.51-1.49-6.35-1.49a5.14,5.14,0,0,0-3.65,1.11c-2.4,2.4-2.18,3.83-3,8.34s-5.63,9.92-6.83,12-2.26,6.23-3.09,9.39-3.53,3.83-3.23,4.06,5.19,3.91,7.22,5.41,4.36,6.46-1,8.26c-5,1.69-8.77,7.62-10.06,7.62a.33.33,0,0,1-.24-.1c-1-1-5.48-.75-10.74-1.2s.82-3.23,4.21-4.51a3.48,3.48,0,0,1,1.13-.28c1.48,0-.38,2.63,1.35,2.76h.36c1.87,0,3.53-1.11,8-4.14,4.73-3.24,2.48-4.74,1.13-5.94s-8.8-4.81-12.33-6-10.82-2.33-15-4.14c-3.34-1.45-13-6.09-17.26-6.09-1,0-1.74.27-2,.91C67.05,66,63.44,71.05,63.82,72s6.2,1.61,9.48,1.61c.39,0,.74,0,1,0l.45,0c3,0,8.21,2,5.64,3.7S75.54,86.38,73.74,88s-5.34,5-8.79,6.54a2.82,2.82,0,0,1-1.07.3c-1.68,0,.54-4,1.52-5.94.37-.74.7-1,1-1,.54,0,1,.64,1.63.64a.8.8,0,0,0,.42-.12c1.12-.68,5.18-8.19,5.86-10.07s-5.49-1.43-9.77-1.73c-.36,0-.73,0-1.11,0-1.73,0-3.6.22-5.13.22-2.09,0-3.55-.41-3.15-2.36.75-3.68,5.26-12.4,4.65-13.15s-9.47,1-11.51-8.47S52.78,38,59.66,33.88a16.25,16.25,0,0,1,8.49-2.15c4.6,0,9.17,1.4,12.69,2.43s9.44,1.24,14.47,1.24c3.24,0,6.11-.09,7.75-.13,4.18-.09,5.11-2,10.78-6.87s9.47-10.6,8.27-13.06c-.93-1.87,0-3,.81-3m0-2a3.12,3.12,0,0,0-2.65,1.52,4.43,4.43,0,0,0,0,4.34c.33.82-1.51,5.2-7.79,10.66-1.22,1.06-2.21,2-3.08,2.76-3.21,2.94-4,3.57-6.43,3.62l-1.13,0c-1.69,0-4,.1-6.57.1-6.56,0-11.24-.39-13.91-1.16l-.56-.17c-3.59-1-8-2.34-12.68-2.34a18.33,18.33,0,0,0-9.53,2.43C51.7,36.28,44,42.41,46.36,53.23c1.74,8.09,7.89,9.35,11,9.69-.38,1-.92,2.3-1.37,3.36A50.55,50.55,0,0,0,53.22,74a3.69,3.69,0,0,0,.66,3.24c1.09,1.35,2.95,1.52,4.45,1.52.8,0,1.64-.05,2.53-.1s1.77-.12,2.6-.12a9.67,9.67,0,0,1,1,0c1.08.07,2.26.1,3.41.13s2.93.07,4.06.21a66.55,66.55,0,0,1-4.13,7.27A2.94,2.94,0,0,0,63.61,88c-.1.18-.2.39-.32.62-1.62,3.18-2.62,5.39-1.62,7a2.52,2.52,0,0,0,2.21,1.2,4.58,4.58,0,0,0,1.9-.48c3.28-1.5,6.43-4.31,8.51-6.17l.77-.69c1-.9,1.82-2.47,3-5,1-2.06,2.37-4.89,3.46-5.61A3,3,0,0,0,83,75.42c-.82-2.73-5.83-3.91-8.2-3.91a5.93,5.93,0,0,0-.61,0l-.88,0a39,39,0,0,1-7-.74c.35-.66.8-1.46,1.17-2.11A49.07,49.07,0,0,0,70,63.81h.27c3.28,0,11.06,3.5,14.8,5.19l1.66.74a60.75,60.75,0,0,0,9.66,2.78c2.12.49,4.12,1,5.45,1.41,3.7,1.26,10.69,4.77,11.64,5.61l.26.23a7.11,7.11,0,0,1,.78.76,5.86,5.86,0,0,1-2,1.8c-3.19,2.18-4.81,3.26-5.94,3.64a2.69,2.69,0,0,0-.67-1.78,2.62,2.62,0,0,0-2-.83,5.15,5.15,0,0,0-1.84.41c-3.84,1.45-7.9,3.22-7.54,5.86.31,2.2,3,2.43,3.87,2.51,1.71.15,3.35.22,4.79.29a26.89,26.89,0,0,1,4.84.46,2.34,2.34,0,0,0,1.52.56c1.33,0,2.31-1,3.94-2.64s4.14-4.2,6.76-5.08c3.5-1.18,4.36-3.52,4.56-4.8a7.88,7.88,0,0,0-3-7l-5.19-3.88a7.71,7.71,0,0,0,2-3.47l.11-.41c.74-2.84,1.75-6.72,2.77-8.5.27-.47.83-1.24,1.47-2.13,2.07-2.86,4.91-6.78,5.6-10.53.16-.84.28-1.58.38-2.24.44-2.72.57-3.54,2.07-5,.13-.12.65-.52,2.24-.52a14.56,14.56,0,0,1,5,1,2.77,2.77,0,0,0,1.94.65,8.46,8.46,0,0,0,.87-.05l.52,0a3.23,3.23,0,0,0,3.08,1.86A4.58,4.58,0,0,0,149,38a2.64,2.64,0,0,1,.36-.67,2,2,0,0,0,.35,0c2.27,0,2.56-2.41,2.8-4.35.07-.65.16-1.31.27-1.95a3.32,3.32,0,0,0-.6-2.85,4.06,4.06,0,0,0-3.3-1.19h-.23c-1.29-1.06-2.66-2.09-4-3.08-2.65-2-5.39-4-6.49-5.76a5.35,5.35,0,0,0-4.5-2.86,2.83,2.83,0,0,1-1.73-.61,20.45,20.45,0,0,0-5.08-2.64,16.1,16.1,0,0,1-1.73-.76,2.84,2.84,0,0,0-2.15-1Z"/><path class="cls-1" d="M93,72.19a1.42,1.42,0,0,1-1-.48,5.06,5.06,0,0,0-1.22-.55A3.77,3.77,0,0,1,88.88,70l-.18-.22A7.64,7.64,0,0,1,87,65.68c-.49-3.23-.09-13.73,0-15.8a1,1,0,0,1,.42-.77.94.94,0,0,1,.58-.19.9.9,0,0,1,.28,0l5.59,1.65a1,1,0,0,1,.7,1.09L94.12,55c-.42,3.11,0,7.35.35,11.09l0,.39c.4,4.21-.28,5-.53,5.24a1.31,1.31,0,0,1-1,.44Z"/><path class="cls-2" d="M88,49.92l5.58,1.65-.45,3.33c-.45,3.33,0,7.74.38,11.71.32,3.27,0,4.58-.49,4.58a.46.46,0,0,1-.31-.17c-.6-.63-2.64-1-3-1.53a6.88,6.88,0,0,1-1.71-4c-.41-2.71-.18-11.17,0-15.61m0-2a2,2,0,0,0-1.16.37A2,2,0,0,0,86,49.84c-.12,2.93-.47,12.75,0,16a8.72,8.72,0,0,0,1.9,4.61l.13.16a4.47,4.47,0,0,0,2.37,1.49c.28.11.74.28.92.38a2.4,2.4,0,0,0,1.68.72,2.29,2.29,0,0,0,1.7-.77c.61-.67,1.18-1.91.78-6l0-.4c-.36-3.68-.76-7.86-.36-10.85l.45-3.33a2,2,0,0,0-1.41-2.19L88.57,48a2.24,2.24,0,0,0-.57-.08Z"/><path class="cls-1" d="M91.52,53.92a5.27,5.27,0,0,1-3.17-1c-.71-.54-1.93-.71-3.77-1-1.51-.21-3.38-.47-5.77-1-1-.23-2-.45-2.91-.66-5.22-1.17-7.55-1.74-7.92-3.11a1.45,1.45,0,0,1,.46-1.47c.58-.55,1.26-2.39,1.91-4.16a41,41,0,0,1,2.32-5.44c1.92-3.48,4-3.56,8.24-3.72.78,0,1.65-.07,2.64-.13h.14s3.32.29,7.7.8a21.55,21.55,0,0,0,2.19.1c1.76,0,3.81-.13,5.79-.26,1.7-.11,3.3-.21,4.5-.21,1.38,0,2.55.08,2.89,1s-.1,1.75-.71,2.84a26.61,26.61,0,0,0-1.9,4,15.92,15.92,0,0,1-3.36,5.29,23.22,23.22,0,0,0-2.93,4A7.43,7.43,0,0,1,91.52,53.92Z"/><path class="cls-2" d="M83.6,33.26s3.26.29,7.67.8a20,20,0,0,0,2.31.11c3.34,0,7.77-.47,10.29-.47,1.11,0,1.85.09,1.95.36.36,1-1,1.95-2.61,6.15S99.45,45.06,97,49.33c-1.55,2.68-3.7,3.59-5.47,3.59A4.24,4.24,0,0,1,89,52.15C87.37,50.92,84.54,51.28,79,50s-11.28-2.25-9.91-3.55,2.46-6.29,4.42-9.84,3.76-3,10-3.33m0-2h-.11l-2.62.12c-4.29.16-6.88.26-9.08,4.24a41.17,41.17,0,0,0-2.37,5.57A18,18,0,0,1,67.75,45,2.49,2.49,0,0,0,67,47.45c.56,2,3.1,2.57,8.67,3.81l2.9.66a56.71,56.71,0,0,0,5.86,1,8.78,8.78,0,0,1,3.29.76,6.27,6.27,0,0,0,3.79,1.19,8.38,8.38,0,0,0,7.2-4.59,22.4,22.4,0,0,1,2.82-3.82,16.94,16.94,0,0,0,3.54-5.59,26.28,26.28,0,0,1,1.84-3.87c.66-1.17,1.28-2.27.78-3.66-.6-1.69-2.62-1.69-3.83-1.69s-2.85.1-4.57.21c-2,.13-4,.26-5.72.26a19.24,19.24,0,0,1-2.08-.1c-4.39-.5-7.69-.8-7.72-.8Z"/><path class="cls-3" d="M92.22,50.92c-1.27,0-4.84-2.42-5.65-3.64A6.62,6.62,0,0,0,84.63,46a8.87,8.87,0,0,1-2.4-1.59,1.88,1.88,0,0,1-.62-1.53c.11-.78.76-1.17,1.51-1.63a15.35,15.35,0,0,0,1.34-.87c1.21-.9,1.71-1.28,2.34-1.76l1.42-1.08A29.07,29.07,0,0,0,92,33.82l.83-.91a1,1,0,0,1,.74-.33,1.18,1.18,0,0,1,.31.05c4.62,1.5,5,2.42,5.13,2.73a1.19,1.19,0,0,1,0,1,9.72,9.72,0,0,1-1.82,2c-1.32,1.29-3.32,3.24-3.86,4.43-.08.18-.22.49-.31.72a5.81,5.81,0,0,1,1.11,1.28,4.14,4.14,0,0,1,.32,3.79,3.8,3.8,0,0,1-1.88,2.29,1.34,1.34,0,0,1-.35.05Z"/><path class="cls-2" d="M93.6,33.58s4.89,1.59,4.52,2.35-4.73,4.31-5.7,6.44-.37,1.09.88,3-.42,4.39-1,4.56h-.08c-.76,0-4.09-2.1-4.82-3.19S84,44.84,83,43.76s.17-1.13,2.1-2.56,2-1.55,3.76-2.85a37.72,37.72,0,0,0,4.78-4.77m0-2a2,2,0,0,0-1.48.65c-.28.31-.56.61-.83.92a28.87,28.87,0,0,1-3.67,3.61l-1.41,1.07c-.64.49-1.13.87-2.34,1.76a14.92,14.92,0,0,1-1.27.83,3.35,3.35,0,0,0-2,2.34,2.85,2.85,0,0,0,.87,2.35,9.69,9.69,0,0,0,2.68,1.8,8.57,8.57,0,0,1,1.58,1c.88,1.33,4.78,4.06,6.47,4.06a2.18,2.18,0,0,0,.63-.09c1.56-.44,2.38-2.5,2.53-2.91A5.07,5.07,0,0,0,95,44.24a7.48,7.48,0,0,0-.76-1l0-.07c.46-1,2.45-3,3.64-4.12a10.34,10.34,0,0,0,2-2.26A2.25,2.25,0,0,0,100,35c-.24-.58-.69-1.65-5.75-3.29a1.86,1.86,0,0,0-.61-.1Z"/><path class="cls-3" d="M96.91,38l-.43,0c-2-.18-3.6-2.43-3.91-3.64a1.65,1.65,0,0,1,0-1l-.82,0a16.54,16.54,0,0,1-4.64-.61c-5.07-1.45-6.43-4.36-6.67-6.54a10.76,10.76,0,0,1,3.59-9,1,1,0,0,1,1-.13l3.32,1.5.11.06c.26.16,6.52,3.92,7.8,4.85a14.66,14.66,0,0,0,2.06,1,19.17,19.17,0,0,1,5,2.83A4.19,4.19,0,0,1,105,30.59c0,1.41-.88,2.82-2.54,4.18l-1,.84C99.85,37,98.67,38,96.91,38Z"/><path class="cls-2" d="M84.68,18,88,19.51s6.48,3.9,7.73,4.81,4.86,1.89,7,3.78,1.46,4-.89,5.9-3.25,3-4.93,3l-.34,0c-1.89-.16-3.48-3-3-3.39s1.59-1.21.75-1.3H94.1c-.49,0-1.31.08-2.33.08a15.9,15.9,0,0,1-4.37-.57c-3.22-.92-5.61-2.68-6-5.69A9.81,9.81,0,0,1,84.68,18m0-2a2,2,0,0,0-1.27.45,11.86,11.86,0,0,0-3.94,9.85c.27,2.49,1.78,5.79,7.38,7.39a17.44,17.44,0,0,0,4.7.65c0,.07,0,.15,0,.23C92,36,93.74,38.73,96.39,39l.52,0c2.13,0,3.49-1.15,5.21-2.61l1-.83C105,34,106,32.33,106,30.6a5.16,5.16,0,0,0-2-4,20.21,20.21,0,0,0-5.27-3,14.82,14.82,0,0,1-1.88-.9c-1.28-.94-7.2-4.5-7.87-4.9l-.2-.11-3.33-1.5a2,2,0,0,0-.82-.18Z"/><path class="cls-1" d="M90.65,24.52a1.62,1.62,0,0,1-.52-.08,26.49,26.49,0,0,1-5.43-4.12l-.52-.54c-.76-.78-1.4-1.44-1.35-2.3a1.57,1.57,0,0,1,.65-1.14c.11-.11.48-.64.81-1.11A26.67,26.67,0,0,1,91.12,8a11.77,11.77,0,0,1,6.57-2.11,13.26,13.26,0,0,1,5,1.06h.21c1.89,0,2.32.91,2.41,1.44l0,.11a7.13,7.13,0,0,1,1.14,2.06A5.36,5.36,0,0,1,107,14c0,.33-.09.72-.11,1.26-.07,1.27-.58,1.91-1.51,1.91h-.3l-.2,0c-.1,0-.39,0-.92.73a6.42,6.42,0,0,1-3.53,2.63,18.12,18.12,0,0,0-2.16,1C96.68,22.33,92.25,24.52,90.65,24.52Z"/><path class="cls-2" d="M97.69,6.93A12.47,12.47,0,0,1,102.47,8a3.39,3.39,0,0,1,.38,0c.51,0,1.34.08,1.42.61.13.75.38.25,1.26,2.38s.46,2.14.35,4.26c0,.83-.22,1-.51,1s-.3,0-.5,0c-.43,0-1,.15-1.73,1.14-1.71,2.34-2.55,1.8-5.36,3.3-2.61,1.41-6.09,2.92-7.13,2.92a.5.5,0,0,1-.19,0,26.28,26.28,0,0,1-5-3.85c-1.09-1.17-2.09-1.93-1.34-2.51s3.23-5.4,7.58-8.25a10.82,10.82,0,0,1,6-2m0-2h0a12.89,12.89,0,0,0-7.11,2.28,27.34,27.34,0,0,0-7.11,7.45c-.25.36-.56.8-.69,1a2.53,2.53,0,0,0-.94,1.8c-.09,1.3.78,2.19,1.62,3.06L84,21a26,26,0,0,0,5.82,4.38,2.67,2.67,0,0,0,.86.14c2.18,0,7.84-3,8.08-3.16a16.14,16.14,0,0,1,2-.9,7.44,7.44,0,0,0,4-3,2.13,2.13,0,0,1,.25-.31,2.3,2.3,0,0,0,.36,0c.71,0,2.36-.28,2.5-2.86,0-.49.08-.86.12-1.18a6.48,6.48,0,0,0-.61-3.94A9,9,0,0,0,106.2,8c-.19-.69-.88-2-3.35-2h0a14.16,14.16,0,0,0-5.13-1.05Z"/><path class="cls-3" d="M108.3,17.71c-1.73,0-3.16-2.15-3.92-4.16l-.26-.68c-.7-1.8-1.43-3.66-.47-5.4s5.24-2.23,6.51-2.31h.06a1,1,0,0,1,.85.48l3.06,5a1,1,0,0,1-.08,1.15A13.43,13.43,0,0,1,113,13a3.62,3.62,0,0,0-1,1.56c-.31.83-.69,1.64-1.56,1.77a2.4,2.4,0,0,1-2,1.43Z"/><path class="cls-2" d="M110.22,6.16l3,5c-1.21,1.51-1.63,1.47-2.21,3-.42,1.09-.65,1.14-.88,1.14h-.05a.59.59,0,0,0-.25.05c-.37.2-.42,1.29-1.51,1.37h-.07c-1.07,0-2.29-1.68-3-3.52s-1.63-3.72-.8-5.23,5.7-1.8,5.7-1.8m0-2h-.12c-2.22.14-6.13.68-7.32,2.83s-.31,4.42.41,6.25c.09.22.18.44.26.66.43,1.13,2,4.81,4.85,4.81h.23a3.19,3.19,0,0,0,2.55-1.56,3.56,3.56,0,0,0,1.85-2.28,2.72,2.72,0,0,1,.79-1.22,15.22,15.22,0,0,0,1.11-1.24,2,2,0,0,0,.15-2.31l-3.06-5a2,2,0,0,0-1.7-1Z"/><path class="cls-4" d="M114.24,11.83a21.89,21.89,0,0,1-7-1.1l-1.47-.56c-2.65-1-3.69-1.42-4.15-2-.82-1.06.25-2.18,1.11-3.09a8.87,8.87,0,0,0,.64-.71l.19-.29A5.91,5.91,0,0,1,108.84,1h.48c2.36.15,6.77.42,6.71,5.16a17.71,17.71,0,0,0,.22,2.77c.15,1,.26,1.78-.25,2.38a1.7,1.7,0,0,1-1.33.53Z"/><path class="cls-2" d="M108.84,2h.42c3.39.21,5.81.84,5.77,4.15s1,4.69-.36,4.69h-.1a22,22,0,0,1-6.95-1c-2.26-.88-4.77-1.72-5.19-2.26s1.18-1.8,1.76-2.6S105.77,2,108.84,2m0-2h0a6.87,6.87,0,0,0-6.09,3.51l-.17.25a6.56,6.56,0,0,1-.56.61c-.87.93-2.51,2.65-1.17,4.39.64.84,1.87,1.33,4.59,2.35l1.46.55a22.54,22.54,0,0,0,7.29,1.17l.29,0h.19a2.62,2.62,0,0,0,2.08-.88c.82-.94.65-2.08.49-3.17A16.29,16.29,0,0,1,117,6.18c.08-5.69-5.34-6-7.65-6.16l-.54,0Z"/><path class="cls-5" d="M108,38.06a45.13,45.13,0,0,0,7.47,12.43,50.49,50.49,0,0,0,5,5.15"/><path class="cls-6" d="M115.14,27.22c3.3,2,13.83,5.39,17.88,6"/><path class="cls-5" d="M125.55,19.51c.81,4,3.69,10.45,9.91,12.43"/><path class="cls-6" d="M144.88,26.67c-3.39,1.49-5.1,3.56-6.45,4.64s-3,.07-3.78,1.2-1.63.78-2.44,2.36"/><path class="cls-6" d="M126.4,22.41a9.74,9.74,0,0,1,4.91-3.89"/><path class="cls-3" d="M134.9,26.12a2.93,2.93,0,0,1-2.41-1,3.39,3.39,0,0,1-.44-2.93,1.4,1.4,0,0,1,1.4-1.14c.87,0,1.84.64,3.23,1.62a11.51,11.51,0,0,0,1,.68,1,1,0,0,1,.78,1.11C138.36,25.82,135.44,26.12,134.9,26.12Z"/><path class="cls-2" d="M133.45,22.06c1,0,3.4,2.14,4,2.26.38.07-1.15.8-2.54.8-1.23,0-2.34-.58-1.88-2.71a.4.4,0,0,1,.43-.35m0-2h0A2.39,2.39,0,0,0,131.07,22a4.34,4.34,0,0,0,.64,3.78,3.91,3.91,0,0,0,3.19,1.36s4.34-.07,4.59-2.55a2.07,2.07,0,0,0-1.4-2.15c-.18-.1-.56-.36-.84-.56-1.54-1.09-2.64-1.8-3.8-1.8Z"/><path class="cls-3" d="M145.78,35.51a3,3,0,0,1-.89-.15c-2.08-.64-2.15-3.1-1.9-4.31a1,1,0,0,1,.64-.74,3.53,3.53,0,0,1,1.18-.22,2.75,2.75,0,0,1,2.5,1.92,3,3,0,0,1,0,2.71A1.75,1.75,0,0,1,145.78,35.51Z"/><path class="cls-2" d="M144.81,31.09c.91,0,1.3.69,1.59,1.33s.49,2.08-.62,2.08a2.08,2.08,0,0,1-.6-.1c-1.75-.54-1.21-3.15-1.21-3.15a2.62,2.62,0,0,1,.84-.16m0-2h0a4.41,4.41,0,0,0-1.51.28A2,2,0,0,0,142,30.85c-.44,2.11.18,4.72,2.58,5.46a4,4,0,0,0,1.19.19,2.77,2.77,0,0,0,2.37-1.24,3.93,3.93,0,0,0,.07-3.65,3.63,3.63,0,0,0-3.41-2.52Z"/><path class="cls-7" d="M95.51,11.94A36.63,36.63,0,0,0,90.19,20c-1.42,2.84-2.38,4.81,0,5.73a21.9,21.9,0,0,0,6.79,1c1.26,0,4.39-.6,5-.54s2.81-1.19,3.56-.8,1.68,1.27,1.26-.74-.38-2.3-2.26-2.42a16.24,16.24,0,0,0-4.3.17c-1.85.25-1.48.84-3.12,0s-1.89-.77-.55-1.94,2.23-2.75,3.82-3.76"/><path class="cls-3" d="M254.18,42.61l-.19,0a19.59,19.59,0,0,0-2.89-.3,3.1,3.1,0,0,0-1,.1,3.16,3.16,0,0,1-1.26.22,10.36,10.36,0,0,1-4.73-1.34l-.68-.46a75.46,75.46,0,0,1-7.26-5.28.77.77,0,0,0-.45-.3.91.91,0,0,0-.53.32,1,1,0,0,1-.72.3.94.94,0,0,1-.55-.17L228.48,32a1,1,0,0,1,.3-1.79,41.56,41.56,0,0,1,7.48-1.31,2.79,2.79,0,0,1,1.58.34,32.52,32.52,0,0,1,3.85,2.83c1.55,1.36,5.91,4.61,7.28,4.86,1.78.32,6.14.74,6.19.74A1,1,0,0,1,256,39l-.89,2.92A1,1,0,0,1,254.18,42.61Z"/><path class="cls-2" d="M236.26,29.91a2.24,2.24,0,0,1,1.05.18A32.15,32.15,0,0,1,241,32.83c1,.9,5.92,4.76,7.76,5.09s6.27.76,6.27.76l-.88,2.93a20,20,0,0,0-3.08-.32,3.9,3.9,0,0,0-1.35.18,2.5,2.5,0,0,1-.88.14,9.59,9.59,0,0,1-4.17-1.16c-.88-.62-6.88-4.63-7.76-5.6a1.64,1.64,0,0,0-1.19-.62,1.84,1.84,0,0,0-1.25.62L229,31.18a42.19,42.19,0,0,1,7.23-1.27m0-2a41.56,41.56,0,0,0-7.73,1.34,2,2,0,0,0-.61,3.59l5.47,3.67a2,2,0,0,0,1.11.34,2,2,0,0,0,1.21-.4,81,81,0,0,0,7.19,5.19l.67.45a11.17,11.17,0,0,0,5.3,1.52,4.24,4.24,0,0,0,1.63-.29h0a4.92,4.92,0,0,1,.6,0,18.88,18.88,0,0,1,2.71.28,2.21,2.21,0,0,0,.37,0,2,2,0,0,0,1.91-1.43l.88-2.92a2,2,0,0,0-1.72-2.57s-4.37-.42-6.1-.74c-1.08-.22-5.23-3.24-6.8-4.62a34.32,34.32,0,0,0-4-2.93,3.89,3.89,0,0,0-2.12-.49Z"/><path class="cls-4" d="M225.8,56.9a1,1,0,0,1-.92-1.25l.68-2.6,0-.11,3.92-10.19a1,1,0,0,1,.63-.59.81.81,0,0,1,.31,0,1,1,0,0,1,.54.16c2.83,1.83,4.26,3.55,4.26,5.12,0,.46,0,.75,0,1,0,.49,0,.89,0,2,0,1.7-.16,4.4-.16,4.4a1,1,0,0,1-.61.87l-3.26,1.41a1.1,1.1,0,0,1-.4.08Z"/><path class="cls-2" d="M230.45,43.11c2.27,1.47,3.8,3,3.8,4.28s0,1.28,0,3-.16,4.38-.16,4.38l-3.27,1.41-5-.25.68-2.6,3.92-10.19m0-2a2.16,2.16,0,0,0-.62.09,2,2,0,0,0-1.25,1.19l-3.92,10.19a1.42,1.42,0,0,0-.07.22l-.67,2.6a2,2,0,0,0,.32,1.68,2,2,0,0,0,1.51.82l5,.24h.1a2,2,0,0,0,.79-.17l3.27-1.4a2,2,0,0,0,1.2-1.75c0-.11.13-2.72.17-4.42,0-1.12,0-1.54,0-2,0-.26,0-.54,0-1,0-2-1.54-3.91-4.71-6a2,2,0,0,0-1.09-.32Z"/><path class="cls-1" d="M164.4,96.81a19.46,19.46,0,0,1-4.35-1,27.36,27.36,0,0,0-5.59-1.33h-.19l-.34,0h0a1.34,1.34,0,0,1-1.39-.84c-.4-1.06.58-2.05,3.09-4.22l.77-.67a2.87,2.87,0,0,1,2-.72,9.74,9.74,0,0,1,4.42,1.6l.22.12c.89-.26,4-3,5.26-5.58,1.54-3.22,7.28-5.71,7.93-6,4.52-1.51,16.42-6.16,18-9.72.81-1.79,3-2.69,6.39-2.69,5.28,0,12,2.06,12.3,2.15a1,1,0,0,1,.38,1.69c-5,4.54-8.72,9.39-9.37,11s-2.66,1.72-4.8,1.72c-1.4,0-3.06-.11-4.81-.22-1.59-.11-3.23-.22-4.85-.26h-.2c-5.89,0-16.13,6.26-17.89,8.29-.49.57-1,1.25-1.57,2C167.94,94.51,166.14,96.81,164.4,96.81Z"/><path class="cls-2" d="M200.65,66.75c5.19,0,12,2.1,12,2.1-4.89,4.43-8.86,9.47-9.62,11.38-.34.84-1.81,1.09-3.88,1.09-2.62,0-6.19-.39-9.64-.48h-.22c-6.21,0-16.68,6.37-18.64,8.63s-4.57,6.34-6.26,6.34-7.5-2.38-9.94-2.38h-.3l-.23,0c-1.71,0,1.67-2.67,3.13-4A2,2,0,0,1,158.4,89c1.58,0,3.56,1.28,4.32,1.68a.41.41,0,0,0,.23.06c1.29,0,4.93-3.39,6.26-6.17,1.41-3,7.4-5.49,7.4-5.49s16.42-5.5,18.56-10.24c.71-1.58,2.89-2.1,5.48-2.1m0-2h0c-3.86,0-6.32,1.1-7.3,3.28-1.22,2.69-11.08,7-17.37,9.16l-.14,0c-.69.29-6.74,2.92-8.44,6.48a14.43,14.43,0,0,1-4.34,4.87A9.9,9.9,0,0,0,158.4,87a3.9,3.9,0,0,0-2.67,1l-.75.66c-2.44,2.12-4.06,3.52-3.38,5.33a2.33,2.33,0,0,0,2.33,1.49l.44,0h.09a27.9,27.9,0,0,1,5.3,1.28,19.27,19.27,0,0,0,4.64,1.1c2.23,0,4.08-2.37,6.23-5.12.55-.7,1.07-1.37,1.54-1.91,1.63-1.89,11.61-7.94,17.13-7.94h.17c1.6,0,3.24.15,4.82.25,1.76.12,3.43.23,4.87.23s4.79,0,5.73-2.35c.54-1.34,4-6,9.11-10.64a2,2,0,0,0,.61-1.91,2,2,0,0,0-1.36-1.48c-.29-.09-7.17-2.19-12.6-2.19Z"/><path class="cls-1" d="M166.74,69.15a1,1,0,0,1-1-.79,1,1,0,0,1,0-.49l-.2.06a19.14,19.14,0,0,1-5.82,1,20.09,20.09,0,0,1-9.22-2.4c-5.83-3-7.76-7.24-7.26-9.28a1.92,1.92,0,0,1,1.92-1.55,3.43,3.43,0,0,1,1.72.54c2.73,1.6,11.91,3.74,17.56,3.74a10.88,10.88,0,0,0,3.14-.36c.89-.3,1.86-.65,2.91-1,4.3-1.54,9.66-3.45,14.64-3.85h.08a1,1,0,0,1,1,.81c.06.33,1.47,7.91-3.73,9.79-2.64,1-3.28,1.77-3.49,2a1.22,1.22,0,0,1-1,.54h0a1.2,1.2,0,0,1-1-.55,3.43,3.43,0,0,1-.28-.49l-.21.12-.48.28a6.82,6.82,0,0,1-2.91,1.28A1.26,1.26,0,0,1,172.1,68a1.21,1.21,0,0,1-.23-.68l-.73.35A27.75,27.75,0,0,1,166.74,69.15Z"/><path class="cls-2" d="M185.21,55.71s1.36,7-3.09,8.66c-3.73,1.35-3.9,2.52-4.11,2.52,0,0-.08,0-.15-.14-.3-.42-.34-1-.85-1a2,2,0,0,0-.95.35,10.1,10.1,0,0,1-2.89,1.43c-.3,0-.41-.21-.2-.78s.18-.92-.09-.92a10.6,10.6,0,0,0-2.14.92,31.49,31.49,0,0,1-4,1.4c-.08,0,0-.08.42-.25,1.39-.65.94-1.26-.2-1.26a4,4,0,0,0-.92.11,21.17,21.17,0,0,1-6.32,1.15A19,19,0,0,1,151,65.61c-6.86-3.54-8-8.94-5.79-8.94a2.5,2.5,0,0,1,1.22.4c2.89,1.7,12.22,3.88,18.06,3.88a11.77,11.77,0,0,0,3.46-.41c4.45-1.49,11.25-4.33,17.31-4.83m0-2h-.16c-5.11.42-10.53,2.35-14.89,3.91-1,.37-2,.72-2.89,1a9.43,9.43,0,0,1-2.83.31c-5.41,0-14.48-2.1-17.05-3.6a4.45,4.45,0,0,0-2.23-.68A2.91,2.91,0,0,0,142.27,57c-.67,2.76,1.82,7.34,7.77,10.4a21,21,0,0,0,9.68,2.52,19.24,19.24,0,0,0,5.26-.76,2.06,2.06,0,0,0,1.76,1,23.52,23.52,0,0,0,4.6-1.49,2.26,2.26,0,0,0,1.83.87,6.94,6.94,0,0,0,3.29-1.34,2.07,2.07,0,0,0,1.55.7,2.19,2.19,0,0,0,1.74-.92,7.15,7.15,0,0,1,3.05-1.72c2.55-.92,4.16-3.26,4.52-6.59a16.47,16.47,0,0,0-.14-4.33,2,2,0,0,0-2-1.62Z"/><path class="cls-1" d="M273.47,115.7a25,25,0,0,1-5.8-1.35,18.29,18.29,0,0,0-1.76-.51h0c-1,0-1.3-1-1.71-2.57a30.42,30.42,0,0,0-1.57-4.7,40.58,40.58,0,0,0-5.82-9.14c-.57-.53-1-1.63-1.74-3.71s-1.65-4.6-2.59-5.43l-1.21-1a23.08,23.08,0,0,1-5.52-5.9,2.14,2.14,0,0,1-.12-1.85c1.15-3.06,9.81-6.21,11.53-6.8a1,1,0,0,1,.33-.06,1,1,0,0,1,.87.5,38.34,38.34,0,0,1,4.47,14.78,31.3,31.3,0,0,0,2.06,9.31c.13.25.36.76.66,1.44,1.07,2.44,3.29,7.5,6,10.73,1,1.19,1.8,2.08,2.4,2.73,1.26,1.38,1.78,2,1.41,2.78S274.08,115.7,273.47,115.7Z"/><path class="cls-2" d="M257.49,73.65A37.42,37.42,0,0,1,261.83,88a32.08,32.08,0,0,0,2.18,9.7c.62,1.16,3.26,8.15,6.75,12.34s4.73,4.65,2.71,4.65-6.86-1.86-7.5-1.86-.72-2.79-2.43-6.67a40.83,40.83,0,0,0-6.05-9.47c-1-.93-2.41-7.45-4.35-9.16s-4.89-3.8-6.52-6.67,10.87-7.22,10.87-7.22m0-2a2.17,2.17,0,0,0-.66.11c-9.71,3.38-11.72,6.3-12.14,7.4a3.16,3.16,0,0,0,.19,2.69A23.71,23.71,0,0,0,250.63,88l1.19,1c.75.66,1.73,3.39,2.31,5,.83,2.29,1.25,3.42,2,4.11a39.62,39.62,0,0,1,5.58,8.8,29.28,29.28,0,0,1,1.52,4.56c.4,1.5.85,3.21,2.58,3.31.26.06,1,.28,1.56.46a24.42,24.42,0,0,0,6.1,1.4,2.76,2.76,0,0,0,2.79-1.38c.63-1.42-.3-2.44-1.59-3.85-.59-.64-1.4-1.53-2.38-2.7-2.59-3.12-4.78-8.1-5.83-10.49-.31-.73-.53-1.21-.69-1.51a31.07,31.07,0,0,1-1.94-8.91,39.26,39.26,0,0,0-4.61-15.21,2,2,0,0,0-1.73-1Z"/><path class="cls-1" d="M212.9,115.14c-1.44,0-2.42-1.68-3.46-3.45a14.82,14.82,0,0,0-1.2-1.86,1.58,1.58,0,0,1-.37-1.43c.34-1.38,2.46-2.29,5.9-3.64a17.92,17.92,0,0,0,3.66-1.7l.81-.83c1.12-1.14,2.39-2.42,2.7-3.49,0-.13,3.69-12.8,5.93-15.62-.44-.11-1.07-.22-1.65-.33a37.82,37.82,0,0,1-6-1.46,29.49,29.49,0,0,1-6.61-3.65c-2.49-1.67-4.84-3.24-6.9-3.24a3.64,3.64,0,0,0-1.32.24,4.34,4.34,0,0,0-2.57,2.53c-1,1.9-2.27,4.26-8.43,6A49.85,49.85,0,0,1,180,84.94c-1.5,0-2.76-.06-3.68-.1-.53,0-1,0-1.26,0H175c-.67,1-1.84,5.86-1.43,9.53.44,4-4.36,6-8.21,7.62-1,.41-1.9.8-2.64,1.17a4.16,4.16,0,0,1-1.83.57,1.49,1.49,0,0,1-1.26-.62c-.62-.87-.17-2.13.36-3.6a11.2,11.2,0,0,0,.45-1.45c.37-2.14,1.52-3.42,3.07-3.42a3.25,3.25,0,0,1,1.31.31.32.32,0,0,0,.14,0c.93,0,2.66-1.88,3.18-2.71.36-.8,2.35-9.45,1.13-12.71-.68-1.83-.71-3.17-.06-4.1a2.68,2.68,0,0,1,2.38-1.08,7.46,7.46,0,0,1,2.12.36,12.64,12.64,0,0,0,3.57.55h0a3.65,3.65,0,0,0,2.73-.8,2,2,0,0,0,.22-1.65c-3.62-17.76,3.16-23,9.48-24.31a53.74,53.74,0,0,1,10.84-1.25,55.14,55.14,0,0,1,9.86,1.06c1.89.32,3.85.65,6.17.93a91.32,91.32,0,0,0,11,.83,33.64,33.64,0,0,0,13.17-2.32c4.52-1.89,10.76-6.78,15.31-10.35s6.1-4.72,7.13-4.86a7,7,0,0,0-.29-.68,5.62,5.62,0,0,1-.56-1.74,1.35,1.35,0,0,1,.34-1.08,1.18,1.18,0,0,1,.89-.38,3.81,3.81,0,0,1,1.84.81,7.44,7.44,0,0,0,1.32.74,2.32,2.32,0,0,1,.74-1.32,1.35,1.35,0,0,1,.88-.34c.82,0,1.21.69,1.52,1.23.22.39.5.87.8.95a3.9,3.9,0,0,1,2,1.69c.47.64.73.94,1,.94,2.49,0,7.91,7.91,9.18,10.89A14.12,14.12,0,0,0,287,49.44a12.13,12.13,0,0,1,1,.93c.81.89.7,2.51.33,3.73a5.94,5.94,0,0,1-4.23,4.16,6.72,6.72,0,0,1-1.53.18,8.77,8.77,0,0,1-4.15-1.25,4.73,4.73,0,0,0-1.71-.66l-.28,0c-1.25,0-2.24-1.13-3.29-2.32s-2.11-2.38-3.16-2.38l-1,0c-1.9.06-2.42.08-4.27,4.15-.72,1.57-1.29,2.78-1.74,3.75a23.3,23.3,0,0,0-1.78,4.33,3.13,3.13,0,0,0,.14,1.6,15.43,15.43,0,0,1,.25,6.46c-.73,5.49-6.57,10.43-14.87,12.58l-.8.21c-6.49,1.68-8.92,2.31-11.73,5.53-1.71,2-3.46,4.42-5,6.59-1.26,1.77-2.46,3.44-3.47,4.63-.76.89-2,2.16-3.5,3.63-2.78,2.78-6.24,6.25-7.29,8.25a2.36,2.36,0,0,1-2,1.53Z"/><path class="cls-2" d="M268.35,29.53c.56,0,.84,1.82,2.06,2.15s1.74,2.66,3.3,2.66S280.41,41,282,44.62,286.38,50,287.29,51s.1,5.42-3.39,6.24a5.56,5.56,0,0,1-1.3.16c-2.61,0-4.32-1.91-5.86-1.91h-.28c-1.78,0-3.74-4.69-6.45-4.69h-.15c-2.85.18-3.67-.46-6.06,4.77s-3.12,6.43-3.58,8.26,1.1,2.66.37,8.17S253.52,82,246.45,83.81s-9.89,2.45-13,6-6.26,8.63-8.48,11.23-9.24,8.86-10.92,12.06c-.37.71-.75,1-1.13,1-1.34,0-2.72-3.6-3.91-5-1.52-1.75,7.79-4,9.17-5.42s3.28-3.13,3.74-4.73,4-13.52,5.88-15.43-2.45-1.22-8.25-3.21c-5.12-1.75-9.64-6.94-13.83-6.94a4.64,4.64,0,0,0-1.67.3c-4.66,1.76-1.3,5.8-10.92,8.48A49.14,49.14,0,0,1,180,83.94c-2.36,0-4.1-.15-4.94-.15a2.29,2.29,0,0,0-.44,0c-1.07.23-2.52,6.49-2.06,10.62s-6.72,6-10.31,7.78a3.27,3.27,0,0,1-1.38.46c-1.42,0,.29-3.05.54-4.5s.94-2.59,2.07-2.59a2.2,2.2,0,0,1,.91.22,1.3,1.3,0,0,0,.55.12c1.63,0,3.69-2.63,4-3.18s2.59-9.92,1.22-13.59c-1-2.76-.25-3.83,1.38-3.83a6.35,6.35,0,0,1,1.83.32,14,14,0,0,0,3.86.59c2.35,0,4.5-.81,3.93-3.65-.92-4.5-4-20.54,8.7-23.13a52.38,52.38,0,0,1,10.64-1.23c5.55,0,9.47,1.2,15.91,2a92.87,92.87,0,0,0,11.13.83,34.81,34.81,0,0,0,13.55-2.39c7.89-3.31,20.19-15,22.21-15.15s.09-2.2,0-3.48c0-.28.07-.39.23-.39.59,0,2.16,1.44,3.17,1.58l.25,0c.95,0,.44-1,1.12-1.6a.37.37,0,0,1,.24-.11m0-2a2.36,2.36,0,0,0-1.53.58,3.06,3.06,0,0,0-.59.68l-.28-.18a4.49,4.49,0,0,0-2.38-1,2.18,2.18,0,0,0-1.62.7,2.32,2.32,0,0,0-.6,1.83,5.17,5.17,0,0,0,.51,1.78,48.86,48.86,0,0,0-6.42,4.64c-4.51,3.54-10.68,8.38-15.08,10.22a32.65,32.65,0,0,1-12.78,2.24,89.65,89.65,0,0,1-10.89-.82c-2.29-.28-4.24-.61-6.12-.93a56.75,56.75,0,0,0-10-1.07,54.27,54.27,0,0,0-11,1.27c-6.77,1.37-14,6.92-10.26,25.49.09.47,0,.73,0,.81s-.69.44-1.95.44a12.31,12.31,0,0,1-3.28-.5,8.45,8.45,0,0,0-2.41-.41,3.67,3.67,0,0,0-3.2,1.51c-.85,1.21-.87,2.86,0,5,1,2.71-.59,10.46-1.12,11.94a7.85,7.85,0,0,1-2.2,2.1,4.17,4.17,0,0,0-1.52-.31c-2,0-3.59,1.63-4,4.24a10.35,10.35,0,0,1-.42,1.3c-.56,1.58-1.14,3.21-.23,4.51a2.51,2.51,0,0,0,2.08,1,5.15,5.15,0,0,0,2.29-.67c.7-.36,1.61-.75,2.57-1.15,3.94-1.65,9.34-3.92,8.81-8.65a21.85,21.85,0,0,1,1.06-8.4l.67,0c.93,0,2.2.1,3.73.1a50.92,50.92,0,0,0,13.63-1.8c6.58-1.82,8-4.5,9.06-6.46.59-1.12.86-1.63,2-2.07a2.87,2.87,0,0,1,1-.17c1.76,0,4,1.49,6.34,3.07a30.82,30.82,0,0,0,6.84,3.77,41.23,41.23,0,0,0,6.16,1.5l.22,0C222.94,88.15,220.11,98,220,98.47a10.71,10.71,0,0,1-2.44,3.06c-.28.28-.55.55-.8.82a23.84,23.84,0,0,1-3.33,1.48c-3.85,1.52-6.05,2.47-6.5,4.33a2.59,2.59,0,0,0,.58,2.33,13.37,13.37,0,0,1,1.1,1.7c1.13,1.94,2.3,4,4.32,4a3.25,3.25,0,0,0,2.9-2.07c1-1.87,4.53-5.42,7.12-8,1.49-1.48,2.76-2.76,3.55-3.68,1-1.22,2.25-2.91,3.52-4.7,1.53-2.15,3.27-4.59,4.95-6.51,2.6-3,4.95-3.6,11.22-5.22l.8-.21c8.7-2.26,14.82-7.52,15.61-13.42a16.64,16.64,0,0,0-.26-6.83c-.17-.68-.21-.88-.15-1.11a24.06,24.06,0,0,1,1.71-4.16c.46-1,1-2.18,1.75-3.76,1.6-3.5,1.84-3.51,3.4-3.56l1,0h0c.62,0,1.75,1.27,2.43,2,1.15,1.3,2.34,2.64,4,2.64h.3a6,6,0,0,1,1.23.55,9.87,9.87,0,0,0,4.61,1.36,7.62,7.62,0,0,0,1.76-.21,6.93,6.93,0,0,0,4.95-4.84c.59-1.91.39-3.67-.54-4.69a11.14,11.14,0,0,0-1.09-1,12.92,12.92,0,0,1-3.87-4.84c-1.15-2.72-6.57-11.15-9.9-11.49a6.35,6.35,0,0,1-.42-.54,4.81,4.81,0,0,0-2.43-2c-.09-.12-.23-.37-.32-.52a2.8,2.8,0,0,0-2.39-1.74Z"/><path class="cls-4" d="M237.25,33.83c-.7,0-1.43-.38-2.7-1.39-1.92-1.52-2.52-3.36-2.22-6.8.1-1.09.79-2.92,4.32-2.92a13.82,13.82,0,0,1,2.84.33,1,1,0,0,1,.67.56l2.12,4.61a1,1,0,0,1,0,.75,31.35,31.35,0,0,1-1.21,3l-.18.39a1.6,1.6,0,0,1-1.63.87h-.74A1.64,1.64,0,0,1,237.25,33.83Z"/><path class="cls-2" d="M236.65,23.72a12.49,12.49,0,0,1,2.6.3l2.12,4.62A28.12,28.12,0,0,1,240,31.93c-.1.24-.38.28-.71.28h-.61a1,1,0,0,0-.83.28.73.73,0,0,1-.6.35c-.43,0-1.06-.36-2.08-1.17-1.64-1.3-2.12-2.86-1.84-5.93.14-1.62,1.8-2,3.32-2m0-2h0c-4.62,0-5.24,2.94-5.32,3.83-.24,2.73-.09,5.55,2.6,7.68a5.59,5.59,0,0,0,3.32,1.6A2.6,2.6,0,0,0,239,34.2h.33a2.54,2.54,0,0,0,2.54-1.47l.17-.37a30.32,30.32,0,0,0,1.26-3.06,2,2,0,0,0-.07-1.51l-2.12-4.61a2,2,0,0,0-1.35-1.11,14,14,0,0,0-3.07-.36Z"/><path class="cls-3" d="M245.91,45.8s-4.38-.4-6.77-.4a7.9,7.9,0,0,0-1.12.05l-.33,0h0c-1.46,0-3.1-1.57-5.08-3.63-.52-.53-1-1-1.25-1.22-.68-.51-1.38-1.11-1.83-1.51a26.09,26.09,0,0,0-2.87,1.55,6.3,6.3,0,0,1-3.94.92H222a24.48,24.48,0,0,1-4-.28c-.76-.12-1.27-.76-1.82-1.43s-1.08-1.34-1.71-1.48l-.44-.09c-1.31-.28-2.26-.48-2.54-1.38a1.64,1.64,0,0,1,.53-1.65c4.12-4.4,12.82-8.72,15.24-9.29a19.54,19.54,0,0,1,4.09-.68,3.45,3.45,0,0,1,2.11.58c.9.66.95,2,1,3.76a10.25,10.25,0,0,0,.54,3.76c.71,1.47,2.6,5.36,3.88,6.22,1,.63,5.63,1.28,7.33,1.28h.2l.21,0a1.19,1.19,0,0,1,1,.53c.18.28.61.93-.6,3.8a1,1,0,0,1-.92.61Z"/><path class="cls-2" d="M231.26,26.3a2.51,2.51,0,0,1,1.52.39c1,.75.14,4.9,1.23,7.15s2.79,5.65,4.22,6.61,6.35,1.45,7.89,1.45l.36,0h.05c.71,0-.53,2.94-.53,2.94s-4.39-.41-6.86-.41a8.51,8.51,0,0,0-1.29.07h-.16c-1.64,0-4.68-3.85-5.73-4.65s-2.26-1.9-2.26-1.9a35.16,35.16,0,0,0-3.59,1.9,5.34,5.34,0,0,1-3.39.76H222a23,23,0,0,1-3.88-.27c-.89-.13-1.78-2.53-3.48-2.9s-2.84-.49-1.93-1.46c4-4.24,12.42-8.45,14.74-9a19.12,19.12,0,0,1,3.86-.66m0-2h0a20.51,20.51,0,0,0-4.32.71c-2.57.61-11.42,5-15.74,9.57a2.57,2.57,0,0,0-.75,2.64c.46,1.46,1.9,1.76,3.29,2.06l.43.09c.28.06.84.75,1.14,1.12a4.09,4.09,0,0,0,2.45,1.8,26.19,26.19,0,0,0,4.19.29h.77a7.25,7.25,0,0,0,4.49-1.09,24.4,24.4,0,0,1,2.16-1.19c.41.35.91.76,1.39,1.12.18.14.71.68,1.13,1.12,2.22,2.3,3.94,3.93,5.8,3.93a2.81,2.81,0,0,0,.5,0,6.1,6.1,0,0,1,.95,0c2.35,0,6.63.4,6.67.4H246a2,2,0,0,0,1.84-1.22c1.42-3.37.83-4.26.51-4.74a2.18,2.18,0,0,0-1.82-1l-.32,0h-.09c-1.62,0-5.94-.62-6.79-1.12-.47-.32-1.47-1.59-3.52-5.81a10,10,0,0,1-.44-3.35c-.06-1.93-.11-3.6-1.41-4.55a4.41,4.41,0,0,0-2.7-.77Z"/><path class="cls-6" d="M221.57,65.63c-.08,6,4.28,16.26,4.28,16.26s1.94.81,2.85-1.77S225.76,69.78,227,66.68Z"/><path class="cls-4" d="M249.7,46.15a4.76,4.76,0,0,1-1.14-.19,6.69,6.69,0,0,0-.75-.16l-2.36-.29a1,1,0,0,1-.82-.65l-.38-1a1,1,0,0,1,.33-1.14l1.71-1.31a.94.94,0,0,1,.61-.21h0A15.68,15.68,0,0,0,249,41l.71-.1.43,0a3.69,3.69,0,0,1,2.21.9c.22.16.47.34.78.53s1.5.94,1.2,2c-.2.7-.89,1.06-2,1.06h-1.26A1.37,1.37,0,0,1,249.7,46.15Z"/><path class="cls-2" d="M250.17,41.82c.84,0,1.3.55,2.45,1.27s.86,1.21-.3,1.21l-1.11,0c-.6,0-1,.08-1.06.53,0,.25-.2.34-.45.34-.44,0-1.13-.26-1.76-.34l-2.37-.3-.38-1,1.71-1.31H247a27.09,27.09,0,0,0,2.86-.33,1.46,1.46,0,0,1,.29,0m0-2a3.6,3.6,0,0,0-.56,0l-.74.1a15.84,15.84,0,0,1-1.85.21h-.12a2,2,0,0,0-1.23.41L244,41.9a2,2,0,0,0-.66,2.27l.38,1a2,2,0,0,0,1.64,1.3l2.35.29a5.42,5.42,0,0,1,.64.14,5.61,5.61,0,0,0,1.38.22,2.46,2.46,0,0,0,1.92-.87h.7c2.16,0,2.81-1.11,3-1.78s.14-2-1.63-3.12c-.29-.18-.52-.35-.73-.5a4.6,4.6,0,0,0-2.79-1.08Z"/><path class="cls-4" d="M219.93,49.7c-2.23,0-5.35-.31-7.51-1.77A5.66,5.66,0,0,1,210,44.14,11.39,11.39,0,0,1,212.16,36a1,1,0,0,1,.82-.43l.19,0L220,37a1.13,1.13,0,0,1,.39.17A20.71,20.71,0,0,1,224,40.27c.38.51,2.08.68,3.33.8.49,0,1,.1,1.46.17A4.71,4.71,0,0,1,232,43.4a3.67,3.67,0,0,1,.69,2.8c-.47,1.76-.94,2.77-1.92,2.77h0a1.33,1.33,0,0,1-.28,0,2.43,2.43,0,0,1-.89-.52,4.55,4.55,0,0,0-1.49-.85h0a5.45,5.45,0,0,0-2.43,1.25,1,1,0,0,1-.37.19,19.8,19.8,0,0,1-2.3.48A21.21,21.21,0,0,1,219.93,49.7Z"/><path class="cls-2" d="M213,36.55l6.85,1.38a21.71,21.71,0,0,1,3.35,2.93c.83,1.12,3.39,1.08,5.45,1.37s3.39,2.64,3.1,3.71-.63,2-.95,2h0a11.19,11.19,0,0,0-2.35-1.37,1.75,1.75,0,0,0-.33,0c-1.22,0-3,1.49-3,1.49a19.12,19.12,0,0,1-2.19.45,20,20,0,0,1-2.92.2c-2.2,0-5.05-.31-7-1.6-3.06-2.07-2.44-7.06,0-10.55m0-2a2,2,0,0,0-1.64.86,12.39,12.39,0,0,0-2.28,8.92,6.66,6.66,0,0,0,2.8,4.43c2.37,1.6,5.7,1.94,8.07,1.94a23.13,23.13,0,0,0,3.23-.22,18.81,18.81,0,0,0,2.43-.51,1.85,1.85,0,0,0,.72-.38,6.7,6.7,0,0,1,1.69-1,4.45,4.45,0,0,1,1,.63,3.35,3.35,0,0,0,1.26.7,2.24,2.24,0,0,0,.52.06c1.94,0,2.53-2.19,2.88-3.51a4.56,4.56,0,0,0-.81-3.61,5.72,5.72,0,0,0-3.94-2.6c-.48-.07-1-.12-1.51-.17a10.75,10.75,0,0,1-2.66-.47,21.55,21.55,0,0,0-3.74-3.3,1.84,1.84,0,0,0-.77-.34l-6.86-1.38a2.58,2.58,0,0,0-.39,0Z"/><path class="cls-6" d="M215.58,49.63c-3.09-.11-5.29,1-7.52,7.18s-2.23,7-3,8,.78.62,2.35.66,10.29.7,12,1.08a59.41,59.41,0,0,0,10.08,0c1.16-.21,4.79-8.39,6.65-12.11s2-5,2-5,.62-.91-2-.24a39.73,39.73,0,0,1-11.52,1C219.75,49.91,216.94,49.68,215.58,49.63Z"/><path class="cls-1" d="M228.05,65.18c-.3,0-.63,0-1,0l-1.75-.07c-3.48-.13-4.92-.18-5.61-1.24a2.37,2.37,0,0,1,0-2.2c.58-1.49,1.2-3.15,1.06-3.93a2.88,2.88,0,0,1,.61-2.09,5.3,5.3,0,0,0,.77-1.67c.09-.37.19-.81.29-1.27.54-2.41,1-4.34,1.87-5.3a4.78,4.78,0,0,1,3.58-1.88,5.12,5.12,0,0,1,3.58,1.75,1,1,0,0,1,.29.65,7.91,7.91,0,0,1-1,3.87A10.82,10.82,0,0,0,230,53.7a13.91,13.91,0,0,1-1.15,2.69c-.53,1-1.34,2.62-1.11,3.19.32.82,1.22,1.13,2.36,1.45l.52.15a2.19,2.19,0,0,1,1.64,2.21C232,65.18,229.13,65.18,228.05,65.18Z"/><path class="cls-2" d="M227.87,46.52A4,4,0,0,1,230.74,48c.12,2-1.22,3.55-1.71,5.49s-2.83,4.92-2.21,6.49,2.47,1.86,3.51,2.19,2.31,2-2.28,2c-.29,0-.6,0-.94,0-5.71-.25-7.32,0-6.49-2.15s1.28-3.51,1.12-4.46.9-1.53,1.36-3.34,1-5.09,1.94-6.16a4,4,0,0,1,2.83-1.53m0-2h0a5.73,5.73,0,0,0-4.33,2.21c-1,1.14-1.51,3.1-2.09,5.74-.11.46-.2.88-.29,1.25a4.71,4.71,0,0,1-.65,1.39,3.84,3.84,0,0,0-.75,2.78,13,13,0,0,1-1,3.39,3.37,3.37,0,0,0,.1,3.12c1,1.49,2.68,1.55,6.42,1.69l1.74.07c.37,0,.71,0,1,0,1.19,0,4.8,0,5.21-2.64a3.16,3.16,0,0,0-2.32-3.31l-.56-.16c-.64-.18-1.43-.4-1.66-.78a10.39,10.39,0,0,1,1-2.44A14.91,14.91,0,0,0,231,54a10.22,10.22,0,0,1,.68-1.76,8.9,8.9,0,0,0,1.08-4.34,2,2,0,0,0-.58-1.3,6.08,6.08,0,0,0-4.29-2Z"/><path class="cls-7" d="M260.22,63.89c-7.54,1.59-13.61-10.43-13.74-14.26"/><path class="cls-8" d="M269.71,51.31c-1.66-1.23-6.9-13.08-7.58-17.23"/><path class="cls-8" d="M252.89,45.49a33.26,33.26,0,0,0,16.82,5.82"/><path class="cls-8" d="M282,44.62c-4,.59-8.85,5.87-10.46,5.64"/><path class="cls-8" d="M273.45,35.55A21,21,0,0,0,264,40.07"/><path class="cls-4" d="M282.41,54.31a1.93,1.93,0,0,1-1.91-1.71,1.69,1.69,0,0,1,1-1.86l.14-.05a5.85,5.85,0,0,1,1.77-.38,1.66,1.66,0,0,1,1.68,1,2,2,0,0,1-.3,1.86,2.57,2.57,0,0,1-2.18,1.13Z"/><path class="cls-2" d="M283.43,51.31c.35,0,.64.1.75.39a1.45,1.45,0,0,1-1.55,1.62h-.15a.93.93,0,0,1-.69-1.61,6.13,6.13,0,0,1,1.64-.39m0-2a6.5,6.5,0,0,0-2.1.44l-.11,0a2.71,2.71,0,0,0-1.72,2.92,2.92,2.92,0,0,0,2.83,2.6h.3a3.56,3.56,0,0,0,3-1.57A3,3,0,0,0,286,51a2.68,2.68,0,0,0-2.61-1.65Z"/><path class="cls-1" d="M273.71,43a2.49,2.49,0,0,1-.91-.23,2.83,2.83,0,0,0-.41-.14,3.18,3.18,0,0,1-2.55-2.81,1.78,1.78,0,0,1,.5-1.34,1.73,1.73,0,0,1,1.25-.5,3.59,3.59,0,0,1,3.11,2.54,2.24,2.24,0,0,1,0,2A1.21,1.21,0,0,1,273.71,43Z"/><path class="cls-2" d="M271.59,38.93a2.61,2.61,0,0,1,2.15,1.85c.3.91.22,1.17,0,1.17a8.9,8.9,0,0,1-1.08-.34,2.23,2.23,0,0,1-1.79-1.85.72.72,0,0,1,.75-.83m0-2h0a2.73,2.73,0,0,0-2,.8,2.82,2.82,0,0,0-.79,2.06,4.19,4.19,0,0,0,3.31,3.76,2,2,0,0,1,.29.1,3.34,3.34,0,0,0,1.27.3,2.17,2.17,0,0,0,1.78-.9,3.1,3.1,0,0,0,.16-2.88,4.58,4.58,0,0,0-4.06-3.24Z"/><path class="cls-1" d="M241,29.66a9.17,9.17,0,0,1-4.77-1.59,7.1,7.1,0,0,0-3.64-.89c-.6,0-1.34-.05-1.56-.82a1.11,1.11,0,0,1,.55-1.26,4.18,4.18,0,0,0,.06-.76,6.17,6.17,0,0,1,.3-1.94,6,6,0,0,1,5.86-4h.17a6.08,6.08,0,0,1,4.39,1.74,5.61,5.61,0,0,1,1.47,4.12,2,2,0,0,0,.46,1.61c.7.86.63,1.61-.24,2.58A4,4,0,0,1,241,29.66Z"/><path class="cls-2" d="M237.77,19.39h.15c3.16.06,5,2,4.88,4.83s1.77,2.12.47,3.55a3,3,0,0,1-2.3.88,8.25,8.25,0,0,1-4.24-1.43c-2.45-1.57-5.45-.74-4.63-1.29s.27-1.84.75-3.21a5,5,0,0,1,4.92-3.34m0-2A7,7,0,0,0,231,22.07a7.35,7.35,0,0,0-.35,2.24,2.35,2.35,0,0,1,0,.27,2.07,2.07,0,0,0-.56,2.05,2.35,2.35,0,0,0,2.49,1.54,6.22,6.22,0,0,1,3.13.75A10.18,10.18,0,0,0,241,30.66a5,5,0,0,0,3.79-1.54c1.19-1.33,1.29-2.63.28-3.88-.16-.19-.26-.31-.24-1a6.59,6.59,0,0,0-1.75-4.83A7,7,0,0,0,238,17.4Z"/></g></g></svg>