<svg xmlns="http://www.w3.org/2000/svg" viewBox="0 0 308.94 112.59"><defs><style>.cls-1{fill:none;}.cls-1,.cls-5,.cls-6{stroke:#010101;stroke-linecap:round;stroke-linejoin:round;stroke-width:2px;}.cls-2{fill:#08ad84;}.cls-3{fill:#010101;}.cls-4,.cls-5{fill:#0c81c3;}.cls-6,.cls-7{fill:#8683bf;}.cls-8{fill:#231f20;}</style></defs><title>Q_tan-binh</title><g id="Layer_2" data-name="Layer 2"><g id="Landmark"><line class="cls-1" x1="108.82" y1="81.65" x2="89.06" y2="100.34"/><path class="cls-2" d="M87.87,107a1,1,0,0,1-1-1V96.46a1,1,0,0,1-.8-.85,27.55,27.55,0,0,1-.25-3.42c.12-1.82,14-14.39,14.08-14.48a1,1,0,0,1,.58-.18,1,1,0,0,1,.73.31l3.18,3.41a1,1,0,0,1,.27.72,1,1,0,0,1-.33.7L91.54,94.12l-.73,12a1,1,0,0,1-1,.94Z"/><path class="cls-3" d="M100.48,78.53l3.18,3.4L90.56,93.64,89.81,106H87.87V95.48h-.81a29.39,29.39,0,0,1-.24-3.23c.05-.86,11.87-12.48,13.66-13.72m0-2a2,2,0,0,0-1.14.36c-1.26.88-5.61,5.11-7.74,7.22-6.68,6.65-6.71,7.2-6.77,8a26,26,0,0,0,.26,3.6,2,2,0,0,0,.79,1.35V106a2,2,0,0,0,2,2h1.94a2,2,0,0,0,2-1.88l.7-11.55L105,83.42a2,2,0,0,0,.67-1.4,2,2,0,0,0-.54-1.46l-3.18-3.4a2,2,0,0,0-1.47-.63Z"/><rect class="cls-4" x="90.84" y="101.59" width="5.78" height="10" rx="2.03"/><path class="cls-3" d="M94.59,102.59a1,1,0,0,1,1,1v5.94a1,1,0,0,1-1,1H92.87a1,1,0,0,1-1-1v-5.94a1,1,0,0,1,1-1h1.72m0-2H92.87a3,3,0,0,0-3,3v5.94a3,3,0,0,0,3,3h1.72a3,3,0,0,0,3-3v-5.94a3,3,0,0,0-3-3Z"/><rect class="cls-4" x="81.09" y="101.59" width="5.78" height="10" rx="2.03"/><path class="cls-3" d="M84.84,102.59a1,1,0,0,1,1,1v5.94a1,1,0,0,1-1,1H83.12a1,1,0,0,1-1-1v-5.94a1,1,0,0,1,1-1h1.72m0-2H83.12a3,3,0,0,0-3,3v5.94a3,3,0,0,0,3,3h1.72a3,3,0,0,0,3-3v-5.94a3,3,0,0,0-3-3Z"/><line class="cls-1" x1="124.56" y1="81.65" x2="144.32" y2="100.34"/><path class="cls-2" d="M143.56,107a1,1,0,0,1-1-.94l-.72-12L129.05,82.67a1,1,0,0,1-.34-.7,1,1,0,0,1,.27-.72l3.19-3.41a1,1,0,0,1,.73-.31.92.92,0,0,1,.57.18c.14.09,14,12.66,14.08,14.48a27.55,27.55,0,0,1-.25,3.42,1,1,0,0,1-.79.85V106a1,1,0,0,1-1,1Z"/><path class="cls-3" d="M132.9,78.53c1.78,1.24,13.6,12.86,13.65,13.72a27,27,0,0,1-.24,3.23h-.8V106h-1.95l-.75-12.38-13.1-11.71,3.19-3.4m0-2a2,2,0,0,0-1.46.63l-3.19,3.4a2,2,0,0,0,.13,2.86l12.49,11.17.7,11.55a2,2,0,0,0,2,1.88h1.95a2,2,0,0,0,2-2V97.08a2,2,0,0,0,.79-1.35,27.69,27.69,0,0,0,.25-3.6c-.05-.83-.09-1.37-6.77-8-2.12-2.11-6.48-6.34-7.74-7.22a1.91,1.91,0,0,0-1.14-.36Z"/><rect class="cls-4" x="136.76" y="101.59" width="5.78" height="10" rx="2.03"/><path class="cls-3" d="M140.51,102.59a1,1,0,0,1,1,1v5.94a1,1,0,0,1-1,1h-1.72a1,1,0,0,1-1-1v-5.94a1,1,0,0,1,1-1h1.72m0-2h-1.72a3,3,0,0,0-3,3v5.94a3,3,0,0,0,3,3h1.72a3,3,0,0,0,3-3v-5.94a3,3,0,0,0-3-3Z"/><rect class="cls-4" x="146.5" y="101.59" width="5.78" height="10" rx="2.03"/><path class="cls-3" d="M150.25,102.59a1,1,0,0,1,1,1v5.94a1,1,0,0,1-1,1h-1.72a1,1,0,0,1-1-1v-5.94a1,1,0,0,1,1-1h1.72m0-2h-1.72a3,3,0,0,0-3,3v5.94a3,3,0,0,0,3,3h1.72a3,3,0,0,0,3-3v-5.94a3,3,0,0,0-3-3Z"/><path class="cls-2" d="M128.07,78.94c-.51,0-1,0-1.39-.06-1.76-.17-2.33-1-2.49-1.64C123.4,74,133,67.42,137.1,64.71a1.17,1.17,0,0,1,.51-.16c3.65-.14,89.5-3.5,92.17-3.5,2,0,2.4.75,2.43,1.38s.09,2.19-10,3S169,71.7,162.33,72.81c-2,.32-5.12,1-8.8,1.82C144.74,76.55,133.8,78.94,128.07,78.94Z"/><path class="cls-3" d="M229.78,62.05c2.68,0,2.36,1.58-7.64,2.4s-53.09,6.22-60,7.37c-6.5,1.08-26,6.12-34.1,6.12a12.71,12.71,0,0,1-1.29-.06c-7-.65,10.87-12.33,10.87-12.33s89.45-3.5,92.13-3.5m0-2c-2.69,0-88.55,3.36-92.21,3.5a2,2,0,0,0-1,.33c-.14.09-3.41,2.22-6.65,4.75-6.18,4.82-7.14,7-6.69,8.85.2.8.9,2.16,3.37,2.39.44,0,.94.07,1.48.07,5.84,0,16.84-2.41,25.68-4.34,3.66-.8,6.82-1.49,8.75-1.81,6.64-1.11,49.71-6.52,59.8-7.35,7.16-.59,11-1.41,10.91-4.06,0-.7-.42-2.33-3.43-2.33Z"/><path class="cls-2" d="M189.74,94.37A24,24,0,0,1,177.89,91a13.78,13.78,0,0,1-6.74-15.13,13.6,13.6,0,0,1,11.72-11.15,33.68,33.68,0,0,1,3.63-.2c7.54,0,13.86,2.58,16.9,6.91,2.63,3.74,2.91,8.55.84,14.29C202.38,90.91,196.55,94.37,189.74,94.37Z"/><path class="cls-3" d="M186.5,65.56c10.77,0,22,5.54,16.8,19.86-1.67,4.63-7,8-13.56,8a22.83,22.83,0,0,1-11.35-3.2c-11.14-6.39-7-23.1,4.59-24.41a31.4,31.4,0,0,1,3.52-.2m0-2h0a33.53,33.53,0,0,0-3.75.21c-6.28.71-11.22,5.39-12.58,11.94a14.91,14.91,0,0,0,7.23,16.2,25,25,0,0,0,12.34,3.46c7.23,0,13.44-3.73,15.44-9.27,2.72-7.56,1-12.44-1-15.21-3.27-4.66-9.73-7.33-17.72-7.33Z"/><circle class="cls-4" cx="192.07" cy="79.27" r="10.29"/><path class="cls-3" d="M192.07,70a9.3,9.3,0,1,1-9.29,9.29A9.29,9.29,0,0,1,192.07,70m0-2a11.3,11.3,0,1,0,11.29,11.29A11.31,11.31,0,0,0,192.07,68Z"/><path class="cls-4" d="M252.39,100.76a1,1,0,0,1-.59-.19l-6.55-4.84a1,1,0,0,1-.35-1.11,1,1,0,0,1,.95-.69h26a.94.94,0,0,1,.47.12l5.23,2.77a1,1,0,0,1-.39,1.88Z"/><path class="cls-3" d="M271.83,94.93l5.23,2.78-24.67,2.05-6.54-4.83h26m0-2h-26a2,2,0,0,0-1.19,3.61l6.54,4.83a2,2,0,0,0,1.19.39h.17l24.66-2.06a2,2,0,0,0,.77-3.76l-5.22-2.78a2,2,0,0,0-.94-.23Z"/><line class="cls-5" x1="231.67" y1="73.89" x2="228.85" y2="80.92"/><line class="cls-5" x1="227.58" y1="73.89" x2="224.75" y2="80.92"/><polygon class="cls-6" points="219.12 91.72 224.91 78.62 226.59 78.62 226.13 79.5 228.18 79.5 228.65 78.62 230.89 78.62 223.69 97.71 219.68 98.17 219.12 91.72"/><polygon class="cls-6" points="261.01 85.06 293.36 104.83 305.8 104.83 305.8 97.75 275.18 78.62 261.01 85.06"/><polyline class="cls-6" points="233.54 73.37 251.7 85.06 261.01 85.06 261.95 77.94 209.37 42.66 165.17 49.19 164.65 53.18 178.09 53.18 202.18 53.18 227.69 69.6 223.91 73.58 233.54 73.37"/><path class="cls-7" d="M292.29,74.89a1,1,0,0,1-.52-.15L207,22l-33.86.91a1,1,0,0,1-1-1V10.32a1,1,0,0,1,1-1h39.72a1,1,0,0,1,.56.17l88.38,59.37a1,1,0,0,1-.56,1.83.73.73,0,0,1-.25,0,10.44,10.44,0,0,0-2.56-.36,4.89,4.89,0,0,0-5.14,3.88,1,1,0,0,1-.61.65A.86.86,0,0,1,292.29,74.89Z"/><path class="cls-3" d="M212.83,10.32l88.38,59.37a10.92,10.92,0,0,0-2.81-.39,5.91,5.91,0,0,0-6.11,4.59L207.24,21l-34.13.92V10.32h39.72m0-2H173.11a2,2,0,0,0-2,2V21.89a2,2,0,0,0,2,2h0l33.53-.9,84.55,52.6a2,2,0,0,0,1.05.3,2,2,0,0,0,.72-.13,2,2,0,0,0,1.21-1.32,3.92,3.92,0,0,1,4.18-3.14,8.89,8.89,0,0,1,2.3.32,1.79,1.79,0,0,0,.51.07A2,2,0,0,0,302.33,68L214,8.66a2,2,0,0,0-1.12-.34Z"/><line class="cls-5" x1="303.87" y1="72.35" x2="303.87" y2="90.07"/><line class="cls-5" x1="269.89" y1="49.19" x2="269.89" y2="70.27"/><line class="cls-5" x1="228.73" y1="23.6" x2="228.73" y2="45.02"/><line class="cls-5" x1="210.83" y1="13.12" x2="210.83" y2="34.31"/><line class="cls-5" x1="183.09" y1="15.25" x2="192.29" y2="36.17"/><path class="cls-4" d="M261,86.06a.94.94,0,0,1-.52-.16L241.24,73.35h-11a1,1,0,0,1-.79-1.62l3.14-4-31-20.21a1,1,0,0,1-.35-1.29L208.48,32a1,1,0,0,1,.63-.52,1.09,1.09,0,0,1,.26,0,1,1,0,0,1,.54.16L278.59,75.9a1,1,0,0,1,.46.84v8.79a1,1,0,0,1-1,1Z"/><path class="cls-3" d="M209.37,32.42l68.68,44.32v8.79l-17-.47L241.54,72.35H230.26l3.8-4.88L202.18,46.66l7.19-14.24m0-2a1.81,1.81,0,0,0-.52.07,2,2,0,0,0-1.27,1L200.4,45.76a2,2,0,0,0,.69,2.58L231.15,68l-2.47,3.16a2,2,0,0,0,1.58,3.23h10.68l19,12.39a2,2,0,0,0,1,.32l17,.47h.05a2,2,0,0,0,1.4-.57,2,2,0,0,0,.6-1.43V76.74a2,2,0,0,0-.91-1.68L210.45,30.74a2,2,0,0,0-1.08-.32Z"/><path class="cls-4" d="M177.43,50.19a1,1,0,0,1-1-1c0-8.22,1.59-12.31,1.66-12.48a1,1,0,0,1,.93-.63h.92l2.22-5.63a1,1,0,0,1,.93-.63h26.28a1,1,0,0,1,1,1V49.19a1,1,0,0,1-1,1Z"/><path class="cls-3" d="M209.37,30.82V49.19h-32c0-8.12,1.6-12.11,1.6-12.11h1.6l2.47-6.26h26.28m0-2H183.09a2,2,0,0,0-1.86,1.27l-2,5H179a2,2,0,0,0-1.86,1.25c-.07.18-1.74,4.45-1.74,12.86a2,2,0,0,0,2,2h32a2,2,0,0,0,2-2V30.82a2,2,0,0,0-2-2Z"/><path class="cls-4" d="M306.94,104.9a1.1,1.1,0,0,1-.55-.16L243.84,64.45a.79.79,0,0,1-.22-.19L231.91,50.78a1,1,0,0,1,.75-1.66H244.1a1,1,0,0,1,.54.15l62.83,39.29a1,1,0,0,1,.47.85V103.9a1,1,0,0,1-.53.87A.9.9,0,0,1,306.94,104.9Z"/><path class="cls-3" d="M244.1,50.12l62.84,39.29V103.9L244.38,63.61,232.66,50.12H244.1m0-2H232.66a2,2,0,0,0-1.51,3.31l11.72,13.49a1.86,1.86,0,0,0,.42.37l62.56,40.29a2,2,0,0,0,2,.07,2,2,0,0,0,1.05-1.75V89.41a2,2,0,0,0-.94-1.7L245.16,48.43a2,2,0,0,0-1.06-.31Z"/><polygon class="cls-6" points="192.29 96.21 205.75 80.23 220.05 80.23 220.98 97.71 223.69 97.71 226.69 91.4 245.94 91.4 248.28 93.59 251.64 93.59 254.17 97.71 278.05 97.71 278.05 107.44 273.3 107.44 273.3 99.3 262.39 99.3 262.39 106.12 225.96 106.12 225.96 100.14 215.53 100.14 215.53 106.21 192.29 105.84 192.29 96.21"/><path class="cls-4" d="M199.08,103a1,1,0,0,1-1-1V96.52a1,1,0,0,1,.25-.66l9.38-10.69a1,1,0,0,1,.75-.34h6.23a1,1,0,0,1,1,1l.38,8.89a1,1,0,0,1-.28.73,1,1,0,0,1-.72.31H209V102a1,1,0,0,1-1,1Z"/><path class="cls-3" d="M214.69,85.83l.38,8.89H208V102h-8.91V96.52l9.38-10.69h6.23m0-2h-6.23a2,2,0,0,0-1.5.68L197.58,95.2a2,2,0,0,0-.5,1.32V102a2,2,0,0,0,2,2H208a2,2,0,0,0,2-2V96.72h5.08a2,2,0,0,0,1.44-.62,2,2,0,0,0,.55-1.47l-.37-8.88a2,2,0,0,0-2-1.92Z"/><path class="cls-8" d="M267.37,111a7.36,7.36,0,1,1,7.36-7.36A7.37,7.37,0,0,1,267.37,111Z"/><path class="cls-3" d="M267.37,97.24A6.36,6.36,0,1,1,261,103.6a6.36,6.36,0,0,1,6.36-6.36m0-2a8.36,8.36,0,1,0,8.36,8.36,8.37,8.37,0,0,0-8.36-8.36Z"/><path class="cls-4" d="M267.37,107.12a3.53,3.53,0,1,1,3.52-3.53A3.53,3.53,0,0,1,267.37,107.12Z"/><path class="cls-3" d="M267.37,101.07a2.53,2.53,0,1,1-2.52,2.53,2.52,2.52,0,0,1,2.52-2.53m0-2a4.53,4.53,0,1,0,4.52,4.53,4.53,4.53,0,0,0-4.52-4.53Z"/><path class="cls-8" d="M220.31,111a7.36,7.36,0,1,1,7.35-7.36A7.37,7.37,0,0,1,220.31,111Z"/><path class="cls-3" d="M220.31,97.24A6.36,6.36,0,1,1,214,103.6a6.35,6.35,0,0,1,6.36-6.36m0-2a8.36,8.36,0,1,0,8.35,8.36,8.37,8.37,0,0,0-8.35-8.36Z"/><path class="cls-4" d="M220.31,107.12a3.53,3.53,0,1,1,3.52-3.53A3.54,3.54,0,0,1,220.31,107.12Z"/><path class="cls-3" d="M220.31,101.07a2.53,2.53,0,1,1-2.53,2.53,2.52,2.52,0,0,1,2.53-2.53m0-2a4.53,4.53,0,1,0,4.52,4.53,4.53,4.53,0,0,0-4.52-4.53Z"/><path class="cls-4" d="M303.87,73.35a1,1,0,0,1-.54-.16L211.9,13.87,174.82,16a1,1,0,0,1-.69-.27,1,1,0,0,1-.31-.73V10a1,1,0,0,1,.94-1L213.1,6.79a1,1,0,0,1,.53.16l58.3,36.51a1,1,0,0,1,.47.85v1.14l33.88,21.8a1,1,0,0,1,.42.57,5.08,5.08,0,0,1-2.23,5.33A1,1,0,0,1,303.87,73.35Z"/><path class="cls-3" d="M213.1,7.79l58.3,36.52V46l34.34,22.1a4.14,4.14,0,0,1-1.87,4.26l-91.71-59.5L174.82,15V10L213.1,7.79m0-2H213L174.71,8a2,2,0,0,0-1.89,2V15a2,2,0,0,0,.63,1.46,2,2,0,0,0,1.37.54h.11l36.7-2.13L302.79,74a2,2,0,0,0,1.08.32,2,2,0,0,0,1.19-.39,6.14,6.14,0,0,0,2.61-6.4,2,2,0,0,0-.85-1.15L273.4,44.9v-.59a2,2,0,0,0-.94-1.69L214.16,6.1a2,2,0,0,0-1.06-.31Z"/><path class="cls-4" d="M170.58,16.25a1,1,0,0,1-.68-.27,1,1,0,0,1-.32-.71L169.43,8a1,1,0,0,1,.94-1l39-2.53a1,1,0,0,1,1,.81l1.47,7.72a1,1,0,0,1-.93,1.19Z"/><path class="cls-3" d="M209.37,5.4l1.46,7.72-40.25,2.13-.15-7.32L209.37,5.4m0-2h-.13L170.3,5.93a2,2,0,0,0-1.87,2l.15,7.32a2,2,0,0,0,2,2h.11l40.25-2.12a2,2,0,0,0,1.47-.77,2,2,0,0,0,.39-1.6L211.33,5a2,2,0,0,0-2-1.63Z"/><path class="cls-2" d="M159.63,44.47a1,1,0,0,1-1-1l-.34-11.7-6.5,1-.16,0a1,1,0,0,1-.82-.43l-2.24-3.21a1,1,0,0,1,0-1.09L150,25.66a1,1,0,0,1,.86-.49H152c3.51,0,5.66,0,6.79-.09,0-.11-.09-.22-.14-.33l-1.68-.87a1,1,0,0,1-.55-.92c.11-3.54.16-7.54.05-8.11a2.59,2.59,0,0,1,.24-1.95A5.27,5.27,0,0,0,156,12a1.68,1.68,0,0,1-.29-1.83,1.73,1.73,0,0,1,1.61-1.11c.83,0,1.61.57,2.3,1.71.23.37.52.8.87,1.3,2,2.9,5.78,8.29,7.56,18.92,1.89,11.31.85,12.55.46,13a1.21,1.21,0,0,1-.9.45Z"/><path class="cls-3" d="M157.33,10.08c.38,0,.89.31,1.45,1.23,1.51,2.48,6.23,7.57,8.29,19.86s.55,12.3.55,12.3h-8l-.37-12.84-7.63,1.18-2.24-3.21,1.46-2.43H152c2.4,0,7.9,0,8-.21s-.61-1.94-.61-1.94l-2-1s.24-7.81,0-8.42.43-1.69.43-1.69a8.5,8.5,0,0,0-1.09-1.58.8.8,0,0,1,.61-1.23m0-2a2.76,2.76,0,0,0-2.53,1.73,2.67,2.67,0,0,0,.5,2.92,2.18,2.18,0,0,1,.25.3,3.45,3.45,0,0,0-.1,2.07c.08.84,0,4.66-.06,7.84a2,2,0,0,0,.36,1.22l-3.8,0h-1.1a2,2,0,0,0-1.72,1l-1.45,2.42a2,2,0,0,0,.07,2.17L150,33a2,2,0,0,0,1.64.86,1.55,1.55,0,0,0,.31,0l5.39-.83.3,10.57a2,2,0,0,0,2,1.95h8a2.22,2.22,0,0,0,1.66-.8c.61-.72,1.74-2.06-.23-13.83-1.82-10.84-5.66-16.36-7.73-19.32-.34-.49-.63-.92-.83-1.25-.89-1.45-2-2.19-3.16-2.19Z"/><path class="cls-5" d="M159.08,15.61c1.39,2.85,4.78,9.51,4.91,10.48s-.79.6-.79,2.48S165,39.23,165,40.32s2.55.72,2.55.72"/><path class="cls-4" d="M165.82,40.26a1.11,1.11,0,0,1-.61-.2,9.81,9.81,0,0,0-2.47-.27,5.06,5.06,0,0,0-1.91.25,1.58,1.58,0,0,1-.78.21,1.68,1.68,0,0,1-1.3-.67c-.95-1.18-1.23-4.08-.65-6.74.85-3.88,4-3.88,5.45-3.88h.8a1,1,0,0,1,1,.82c1.78,9.5,1.63,9.68,1.27,10.12a1,1,0,0,1-.78.36Z"/><path class="cls-3" d="M163.55,30h.8s1.74,9.3,1.47,9.3h0a7.21,7.21,0,0,0-3.06-.46,5.7,5.7,0,0,0-2.39.38.67.67,0,0,1-.3.08c-1,0-1.63-3.15-1-6.2S161.69,30,163.55,30m0-2c-1.49,0-5.4,0-6.41,4.66-.54,2.48-.51,5.9.84,7.58a2.66,2.66,0,0,0,2.08,1,2.62,2.62,0,0,0,1.27-.33,5.7,5.7,0,0,1,1.42-.13,10,10,0,0,1,2.06.19,2,2,0,0,0,2.57-.45c.7-.84.81-1-1.06-10.94a2,2,0,0,0-2-1.63h-.81Z"/><path class="cls-2" d="M157.91,48.63a1,1,0,0,1-.76-.34,1,1,0,0,1-.23-.8l.89-6.52a1,1,0,0,1,1-.87c.06,0,6.12-.11,10.27-.11,3.9,0,4.09.09,4.35.21A1,1,0,0,1,174,41l.53,6.53a1,1,0,0,1-.26.76,1,1,0,0,1-.74.32Z"/><path class="cls-3" d="M169.05,41a30.68,30.68,0,0,1,3.91.11l.53,6.53H157.91l.89-6.53s6.06-.11,10.25-.11m0-2c-4.16,0-10.23.11-10.29.11a2,2,0,0,0-1.94,1.73l-.9,6.53a2,2,0,0,0,.48,1.58,2,2,0,0,0,1.51.69h15.58a2,2,0,0,0,2-2.16L175,40.94a2,2,0,0,0-1.11-1.64c-.47-.22-.66-.31-4.79-.31Z"/><path class="cls-2" d="M105.14,78.94c-5.73,0-16.67-2.39-25.46-4.31-3.67-.81-6.85-1.5-8.8-1.82C64.23,71.7,21.11,66.27,11,65.44s-10-2.25-10-3,.47-1.38,2.43-1.38c2.67,0,88.52,3.36,92.17,3.5a1.13,1.13,0,0,1,.51.16c4.14,2.71,13.7,9.33,12.91,12.53-.16.66-.73,1.47-2.49,1.64-.42,0-.88.06-1.39.06Z"/><path class="cls-3" d="M3.43,62.05c2.68,0,92.13,3.5,92.13,3.5s17.92,11.68,10.87,12.33a12.57,12.57,0,0,1-1.29.06c-8.08,0-27.6-5-34.1-6.12-6.88-1.15-50-6.56-60-7.37s-10.32-2.4-7.64-2.4m0-2c-3,0-3.4,1.63-3.43,2.33C-.11,65,3.75,65.85,10.91,66.44c10.09.83,53.16,6.24,59.8,7.35,1.93.32,5.09,1,8.75,1.81,8.84,1.93,19.84,4.34,25.68,4.34.54,0,1,0,1.48-.07,2.47-.23,3.17-1.59,3.37-2.39.45-1.82-.51-4-6.69-8.85-3.24-2.53-6.51-4.66-6.65-4.75a2,2,0,0,0-1-.33c-3.65-.14-89.52-3.5-92.21-3.5Z"/><path class="cls-2" d="M43.48,94.37c-6.82,0-12.65-3.46-14.51-8.61-2.07-5.74-1.79-10.55.84-14.29,3-4.33,9.36-6.91,16.9-6.91a33.68,33.68,0,0,1,3.63.2A13.6,13.6,0,0,1,62.06,75.91,13.76,13.76,0,0,1,55.32,91a24,24,0,0,1-11.84,3.33Z"/><path class="cls-3" d="M46.71,65.56a31.4,31.4,0,0,1,3.52.2c11.64,1.31,15.73,18,4.59,24.41a22.79,22.79,0,0,1-11.34,3.2c-6.58,0-11.89-3.32-13.57-8-5.16-14.32,6-19.86,16.8-19.86m0-2c-8,0-14.44,2.67-17.72,7.34-1.94,2.76-3.68,7.64-1,15.2,2,5.54,8.21,9.27,15.45,9.27a25,25,0,0,0,12.34-3.46A14.91,14.91,0,0,0,63,75.71c-1.36-6.55-6.3-11.23-12.58-11.94a33.53,33.53,0,0,0-3.75-.21Z"/><path class="cls-4" d="M41.14,89.56A10.29,10.29,0,1,1,51.42,79.27,10.3,10.3,0,0,1,41.14,89.56Z"/><path class="cls-3" d="M41.14,70a9.29,9.29,0,1,1-9.28,9.28A9.28,9.28,0,0,1,41.14,70m0-2A11.29,11.29,0,1,0,52.42,79.27,11.29,11.29,0,0,0,41.14,68Z"/><path class="cls-2" d="M116.69,84.5c-24.92,0-33.55-19-35.6-24.77a45,45,0,0,1,1.66-35.21C89.45,10.23,102.77,1,116.69,1s27.24,9.23,33.93,23.52a45,45,0,0,1,1.66,35.21C150.23,65.54,141.6,84.5,116.69,84.5Z"/><path class="cls-3" d="M116.69,2c14.34,0,27,10,33,23a44.16,44.16,0,0,1,1.62,34.44C148,69,138.2,83.5,116.69,83.5S85.42,69,82,59.39A44.12,44.12,0,0,1,83.66,25C89.72,12,102.34,2,116.69,2m0-2c-14.31,0-28,9.46-34.84,24.1a46,46,0,0,0-1.7,36c2.11,6,11,25.44,36.54,25.44S151.12,66,153.23,60.06a46.06,46.06,0,0,0-1.7-36C144.67,9.46,131,0,116.69,0Z"/><path class="cls-4" d="M84.41,33.26a1.08,1.08,0,0,1-.43-.1,1,1,0,0,1-.49-1.3C88.8,19.62,94,11,102,8.86a95.36,95.36,0,0,1,11.14-2.48h.13a1,1,0,0,1,1,1l.09,8.79a1,1,0,0,1-1,1c-.12,0-12,.46-17.55,4.56C90,26,88,27.6,85.29,32.73A1,1,0,0,1,84.41,33.26Z"/><path class="cls-3" d="M113.27,7.37l.09,8.79s-12.19.42-18.11,4.75-8,6-10.84,11.35C90.16,19,95.17,11.74,102.26,9.82a96.81,96.81,0,0,1,11-2.45m0-2a1.23,1.23,0,0,0-.27,0,98.18,98.18,0,0,0-11.27,2.5C93.34,10.16,88,19,82.57,31.46a2,2,0,0,0,1,2.6,2.08,2.08,0,0,0,.87.2,2,2,0,0,0,1.77-1.07c2.62-4.94,4.42-6.39,10.25-10.66,5.35-3.92,16.88-4.37,17-4.37a2,2,0,0,0,1.93-2l-.09-8.79a2,2,0,0,0-.69-1.5,2,2,0,0,0-1.31-.48Z"/><path class="cls-4" d="M149,33.26a1,1,0,0,1-.89-.53c-2.72-5.13-4.7-6.73-10.55-11-5.6-4.1-18.68-4.56-18.82-4.56a1,1,0,0,1-1-1l.08-8.79a1,1,0,0,1,.33-.74,1,1,0,0,1,.67-.25h.1a85.94,85.94,0,0,1,12.45,2.49c8,2.17,13.19,10.76,18.5,23a1,1,0,0,1-.48,1.3A1.12,1.12,0,0,1,149,33.26Z"/><path class="cls-3" d="M118.83,7.37a85.23,85.23,0,0,1,12.29,2.45C138.21,11.74,143.21,19,149,32.26c-2.84-5.34-4.93-7-10.85-11.35s-19.37-4.75-19.37-4.75l.08-8.79m0-2a2,2,0,0,0-2,2l-.08,8.79a2,2,0,0,0,1.93,2c.13,0,12.91.45,18.26,4.37,5.83,4.27,7.63,5.72,10.26,10.66A2,2,0,0,0,149,34.26a2,2,0,0,0,.86-.2,2,2,0,0,0,1-2.6C145.37,19,140,10.16,131.64,7.89A86.15,86.15,0,0,0,119,5.38Z"/><path class="cls-2" d="M116,82a28.17,28.17,0,0,1-9.09-1.28,1,1,0,0,1-.51-.41L105,78a1,1,0,0,1,.12-1.2,1,1,0,0,1,1.18-.22c3.11,1.56,7,1.69,11,1.69a31.79,31.79,0,0,0,9.79-1.78,1,1,0,0,1,.4-.09,1,1,0,0,1,.74.33,1,1,0,0,1,.13,1.17l-1.31,2.32a1,1,0,0,1-.58.46A39.11,39.11,0,0,1,116,82Z"/><path class="cls-3" d="M127.53,77.44h0m0,0-1.31,2.32A38.11,38.11,0,0,1,116,81a26.78,26.78,0,0,1-8.75-1.22l-1.4-2.29c3.37,1.69,7.56,1.79,11.49,1.79a32.28,32.28,0,0,0,10.19-1.87m0-2h-.19a2,2,0,0,0-.64.17,30.42,30.42,0,0,1-9.36,1.69c-3.92,0-7.69-.12-10.6-1.58a2,2,0,0,0-2.6,2.83l1.41,2.3a2,2,0,0,0,1,.83A29.11,29.11,0,0,0,116,83a40.45,40.45,0,0,0,10.8-1.35,2,2,0,0,0,1.16-.93l1.27-2.25a2,2,0,0,0-1.67-3.06Zm0,4Z"/><path class="cls-2" d="M116.69,68.8C105.59,68.8,93.8,61,93.8,46.48c0-13.77,10.91-26.31,22.89-26.31s22.88,12.54,22.88,26.31C139.57,61,127.78,68.8,116.69,68.8Z"/><path class="cls-3" d="M116.69,21.17c11.08,0,21.88,11.52,21.88,25.31S127.36,67.8,116.69,67.8,94.8,60.27,94.8,46.48s10.81-25.31,21.89-25.31m0-2c-6,0-12,3-16.6,8.15A28.85,28.85,0,0,0,92.8,46.48a22.23,22.23,0,0,0,7.63,17.34,25.1,25.1,0,0,0,32.52,0,22.23,22.23,0,0,0,7.62-17.34,28.85,28.85,0,0,0-7.29-19.16c-4.6-5.18-10.65-8.15-16.59-8.15Z"/><path class="cls-2" d="M116.23,105.82a2.67,2.67,0,0,1-1.69-.57,1,1,0,0,1-.37-.77V93.64a1,1,0,0,1,1-1h2.19a1,1,0,0,1,1,1v10.84a1,1,0,0,1-.49.86,3.24,3.24,0,0,1-1.64.48Z"/><path class="cls-3" d="M117.36,93.64v10.84a2.22,2.22,0,0,1-1.13.34,1.77,1.77,0,0,1-1.06-.34V93.64h2.19m0-2h-2.19a2,2,0,0,0-2,2v10.84a2,2,0,0,0,.74,1.55,3.75,3.75,0,0,0,2.32.79,4.12,4.12,0,0,0,2.16-.63,2,2,0,0,0,1-1.71V93.64a2,2,0,0,0-2-2Z"/><rect class="cls-2" x="113.21" y="78.37" width="6.12" height="17.2" rx="1"/><path class="cls-3" d="M118.32,79.36V94.57h-4.11V79.36h4.11m0-2h-4.11a2,2,0,0,0-2,2V94.57a2,2,0,0,0,2,2h4.11a2,2,0,0,0,2-2V79.36a2,2,0,0,0-2-2Z"/><path class="cls-2" d="M109.15,91.41a1.28,1.28,0,0,1-.91-.42,23.72,23.72,0,0,1-3.82-13.53,1,1,0,0,1,.49-.8,1,1,0,0,1,.51-.14,1,1,0,0,1,.44.1l2.6,1.26a1,1,0,0,1,.56,1,25.7,25.7,0,0,0,.47,7.53c1,3.51.87,4.13.54,4.57a1.17,1.17,0,0,1-.88.45Z"/><path class="cls-3" d="M105.42,77.52,108,78.78a26.44,26.44,0,0,0,.5,7.89c.77,2.61.9,3.74.62,3.74a.32.32,0,0,1-.2-.13,22.86,22.86,0,0,1-3.53-12.76m0-2a2,2,0,0,0-2,1.89c-.36,6.65,3,13.21,4.11,14.29a2.26,2.26,0,0,0,1.61.71,2.07,2.07,0,0,0,1.68-.85c.7-.93.61-2.1-.38-5.46A23.68,23.68,0,0,1,110,79a2,2,0,0,0-1.12-2l-2.61-1.26a1.88,1.88,0,0,0-.87-.2Z"/><path class="cls-2" d="M123.38,91.33a1.2,1.2,0,0,1-.88-.44c-.33-.44-.5-1.06.54-4.58a25.64,25.64,0,0,0,.47-7.52,1,1,0,0,1,.56-1l2.6-1.26a1.13,1.13,0,0,1,.44-.1,1.06,1.06,0,0,1,.51.14,1,1,0,0,1,.49.81,23.84,23.84,0,0,1-3.82,13.53A1.31,1.31,0,0,1,123.38,91.33Z"/><path class="cls-3" d="M127.11,77.44a22.88,22.88,0,0,1-3.53,12.77.34.34,0,0,1-.2.12c-.28,0-.16-1.13.62-3.73a26.5,26.5,0,0,0,.5-7.9l2.61-1.26m0-2a2,2,0,0,0-.87.2l-2.61,1.26a2,2,0,0,0-1.12,2,23.67,23.67,0,0,1-.43,7.15c-1,3.35-1.08,4.53-.38,5.46a2.06,2.06,0,0,0,1.68.84,2.22,2.22,0,0,0,1.61-.71c1.08-1.07,4.46-7.63,4.11-14.28a2,2,0,0,0-1-1.62,2,2,0,0,0-1-.28Z"/><rect class="cls-4" x="106.74" y="94.41" width="7.71" height="17.04" rx="2.74"/><path class="cls-3" d="M111.71,95.41a1.74,1.74,0,0,1,1.74,1.73v11.57a1.74,1.74,0,0,1-1.74,1.73h-2.23a1.74,1.74,0,0,1-1.74-1.73V97.14a1.74,1.74,0,0,1,1.74-1.73h2.23m0-2h-2.23a3.73,3.73,0,0,0-3.74,3.73v11.57a3.73,3.73,0,0,0,3.74,3.73h2.23a3.74,3.74,0,0,0,3.74-3.73V97.14a3.74,3.74,0,0,0-3.74-3.73Z"/><rect class="cls-4" x="118.08" y="94.41" width="7.71" height="17.04" rx="2.74"/><path class="cls-3" d="M123.05,95.41a1.74,1.74,0,0,1,1.74,1.73v11.57a1.74,1.74,0,0,1-1.74,1.73h-2.24a1.74,1.74,0,0,1-1.73-1.73V97.14a1.74,1.74,0,0,1,1.73-1.73h2.24m0-2h-2.24a3.73,3.73,0,0,0-3.73,3.73v11.57a3.73,3.73,0,0,0,3.73,3.73h2.24a3.74,3.74,0,0,0,3.74-3.73V97.14a3.74,3.74,0,0,0-3.74-3.73Z"/></g></g></svg>