<svg id="Landmark" xmlns="http://www.w3.org/2000/svg" viewBox="0 0 360 360"><defs><style>.cls-1,.cls-4{fill:#8683bf;}.cls-1,.cls-2,.cls-3{stroke:#010101;stroke-linecap:round;stroke-linejoin:round;stroke-width:2px;}.cls-2,.cls-5{fill:#0f81c2;}.cls-3{fill:#08ad84;}.cls-6{fill:#fff;}</style></defs><path class="cls-1" d="M91,97.53V104c14.78,4.89,52.11,3.92,63.11-.28V96.84s-6.83-9.44-31.4-9.44C102.34,87.4,93.73,93.65,91,97.53Z"/><path class="cls-2" d="M91.79,107.42c5.27,7.08,58.73,8.75,62.2-1.6,1.58-4.71-8.24-13.21-31.94-13.21C99.28,92.61,87.9,102.2,91.79,107.42Z"/><path class="cls-1" d="M98.18,104.72v35.1L147,134.44V104.72s-5.85-5.85-24.42-5.85C105.3,98.87,98.18,104.72,98.18,104.72Z"/><polygon class="cls-3" points="36.16 181.74 36.16 275.34 103.81 277.37 98.73 162.41 36.16 181.74"/><polygon class="cls-2" points="315.49 272.16 315.95 167.69 219.58 158.28 126.71 122.65 126.71 278.6 315.49 272.16"/><polygon class="cls-2" points="323.84 169.15 323.84 161.74 219.93 150.31 126.71 114.26 126.71 122.65 219.93 158.38 323.84 169.15"/><polygon class="cls-3" points="125.52 253.68 218.72 255.4 315.49 253.6 315.49 247.64 218.72 249.42 125.52 247.23 125.52 253.68"/><polygon class="cls-4" points="51.65 184.64 51.65 207.24 42.94 209.26 42.94 187.35 51.65 184.64"/><polygon class="cls-5" points="77.64 204.54 77.64 225.79 66.96 226.99 66.96 206.72 77.64 204.54"/><polygon class="cls-4" points="64.48 207.23 64.48 227.26 54.55 228.34 54.55 209.26 64.48 207.23"/><polygon class="cls-5" points="51.65 209.85 51.65 228.66 42.94 229.61 42.94 211.62 51.65 209.85"/><polygon class="cls-4" points="77.64 228.94 77.64 247.09 66.96 247.4 66.96 230.07 77.64 228.94"/><polygon class="cls-5" points="64.48 230.33 64.48 247.47 54.55 247.76 54.55 231.38 64.48 230.33"/><polygon class="cls-4" points="51.65 231.69 51.65 247.84 42.94 248.11 42.94 232.63 51.65 231.69"/><polygon class="cls-5" points="77.64 250.54 77.64 269.86 66.96 269.54 66.96 250.65 77.64 250.54"/><polygon class="cls-4" points="64.48 250.67 64.48 269.46 54.55 269.16 54.55 250.76 64.48 250.67"/><polygon class="cls-5" points="51.65 250.79 51.65 269.07 42.94 268.81 42.94 250.89 51.65 250.79"/><polygon class="cls-4" points="77.64 176.6 77.64 201.2 66.96 203.63 66.96 179.91 77.64 176.6"/><polygon class="cls-5" points="64.48 180.7 64.48 204.25 54.55 206.57 54.55 183.76 64.48 180.7"/><polygon class="cls-1" points="83.47 139.44 83.47 276.76 126.71 278.6 126.71 122.65 83.47 139.44"/><polygon class="cls-1" points="78.21 133.67 78.21 141.83 126.71 122.65 126.71 114.26 78.21 133.67"/><polygon class="cls-3" points="82.11 254.01 82.11 249.1 126.71 247.23 126.71 253.68 82.11 254.01"/><polygon class="cls-1" points="218.72 157.95 218.72 249.15 173.84 248.22 173.84 140.72 218.72 157.95"/><line class="cls-2" x1="189.13" y1="147.15" x2="189.13" y2="248.6"/><line class="cls-2" x1="203.68" y1="153.51" x2="203.68" y2="248.6"/><line class="cls-2" x1="218.72" y1="236.01" x2="173.84" y2="235.31"/><line class="cls-2" x1="218.72" y1="218.05" x2="173.84" y2="218.05"/><line class="cls-2" x1="218.72" y1="168.99" x2="173.84" y2="160.41"/><line class="cls-2" x1="218.72" y1="183.98" x2="173.84" y2="181.07"/><line class="cls-2" x1="218.72" y1="200.35" x2="173.84" y2="200.35"/><path class="cls-6" d="M251.37,172a5.27,5.27,0,0,0-5.94,3.59,15.34,15.34,0,0,0-.34,2.1,26.13,26.13,0,0,1-5.13-.38c0-.58,0-1.11,0-1.64l.35-.06,3.69-.12a3,3,0,0,0,.42-.05s0-.09,0-.14a27.36,27.36,0,0,0-4.43.08c0-.8,0-1.57.08-2.38l4.59.14c0-.4,0-.77,0-1.15l-.23,0c-2.25-.07-4.5-.15-6.75-.2a.74.74,0,0,0-.48.26l-5.15,6.34c-.83,1-1.68,2.05-2.52,3.07v.07c.36,0,.72,0,1.08,0a.64.64,0,0,0,.63-.27q3-3.72,6-7.42l1.46-1.79c0,1.19-.07,2.27-.12,3.36,0,.07-.13.18-.22.22a10.21,10.21,0,0,0-1.23.5.61.61,0,0,0,0,1.14,5.41,5.41,0,0,0,1.14.54.31.31,0,0,1,.25.37c0,.56,0,1.11-.05,1.67s0,1.25-.06,1.9l6.06.19c0-.4,0-.77,0-1.17l-4.72-.15c0-.81,0-1.58.07-2.37h.19a26.75,26.75,0,0,0,5,.34c.09,0,.23.11.27.21a5.36,5.36,0,0,0,5.72,3.52,5.16,5.16,0,0,0,4.63-6.45A5.11,5.11,0,0,0,251.37,172Zm-12.76,5c-.31-.14-.74-.19-.71-.55,0-.2.41-.37.64-.55l.1.11C238.63,176.24,238.62,176.56,238.61,176.92Zm12.64,4.16c-1.94.33-4.25-1-4.47-2.58.74-.15,1.49-.27,2.22-.45a4.5,4.5,0,0,0,1-.41c.54-.31.6-.82.07-1.15a7.94,7.94,0,0,0-1.72-.73,8.59,8.59,0,0,0-1.36-.24l0,.14.34.12c.56.15,1.13.27,1.68.46.16,0,.38.28.37.43s-.23.36-.4.4c-.78.22-1.58.38-2.37.57a3.92,3.92,0,0,1,3.13-4.46,4,4,0,1,1,1.55,7.9Z"/><path class="cls-6" d="M278.71,173.28c-.58,1.57-1.18,3.14-1.78,4.71l-1.2,3.15-.16-.46-2.37-7.52c-.06-.17-.06-.36-.34-.36-.73,0-1.46,0-2.22-.07-.11,3.36-.21,6.67-.32,10l1.38,0c.09-2.93.18-5.83.27-8.72a1,1,0,0,1,.21.38l2.45,7.61c.28.87.28.86,1.22.9a.42.42,0,0,0,.5-.33c1-2.68,2.1-5.35,3.15-8,.05-.13.11-.26.17-.39l.07,0c-.09,2.94-.18,5.87-.28,8.81l1.36,0c.11-3.34.21-6.64.31-10-.68,0-1.34,0-2-.07A.36.36,0,0,0,278.71,173.28Z"/><path class="cls-6" d="M263.3,180a1.69,1.69,0,0,1-.38-.44l-4.65-6.9c-.08-.11-.19-.26-.31-.28a5.84,5.84,0,0,0-.84,0c-.11,3.36-.21,6.66-.32,10l1.2,0c.08-2.51.16-5,.24-7.46h.08l.21.3,4.63,6.86a1,1,0,0,0,1.29.48q.15-5,.31-9.91l-1.23,0C263.46,175,263.38,177.5,263.3,180Z"/><path class="cls-6" d="M288.22,174.31c-.12-.33-.17-.79-.42-1s-.71-.07-1.08-.12-.43.08-.55.35c-1.37,3-2.76,6-4.14,9-.07.16-.12.31-.2.5l1.12,0a.35.35,0,0,0,.42-.25c.3-.69.62-1.37.92-2.06a.35.35,0,0,1,.39-.24l4.1.13a.33.33,0,0,1,.37.26c.25.69.52,1.36.76,2.05a.44.44,0,0,0,.51.35c.36,0,.72,0,1.14,0-.06-.18-.09-.29-.13-.4Zm-3.28,5.06,2-4.73c.57,1.66,1.1,3.23,1.65,4.84Z"/><path class="cls-6" d="M294.28,173.5l-1.36,0c-.11,3.34-.21,6.64-.31,9.95l6,.18c0-.4,0-.78,0-1.18l-4.62-.14C294.1,179.32,294.19,176.41,294.28,173.5Z"/><path class="cls-6" d="M301.31,182.51c.09-3,.18-5.87.27-8.79l-1.36,0c-.11,3.33-.21,6.64-.32,9.95l6,.19c0-.39,0-.76,0-1.17Z"/><polygon class="cls-1" points="218.72 190.12 315.49 193.7 315.49 247.75 218.72 249.15 218.72 190.12"/></svg>