<?xml version="1.0" encoding="utf-8"?>
<!-- Generator: Adobe Illustrator 24.0.3, SVG Export Plug-In . SVG Version: 6.00 Build 0)  -->
<svg version="1.1" id="Layer_1" xmlns="http://www.w3.org/2000/svg" xmlns:xlink="http://www.w3.org/1999/xlink" x="0px" y="0px"
	 viewBox="0 0 360 360" style="enable-background:new 0 0 360 360;" xml:space="preserve">
<style type="text/css">
	.st0{fill:#0C81C3;}
	.st1{fill:#010101;}
	.st2{fill:#8683BF;}
	.st3{fill:#08AD84;}
	.st4{fill:#08AD84;stroke:#010101;stroke-width:2;stroke-linecap:round;stroke-linejoin:round;}
	.st5{fill:none;stroke:#010101;stroke-width:2;stroke-linecap:round;stroke-linejoin:round;}
</style>
<title>Q_phu-nhuan</title>
<g id="Layer_2_1_">
	<g id="Landmark">
		<path class="st0" d="M252.6,306.3c-0.1,0-0.2,0-0.3,0c-0.3-0.1-0.6-0.3-0.7-0.7l-39.8-125.1c-0.1-0.4,0-0.9,0.4-1.2
			c0.2-0.1,0.3-0.1,0.5-0.1c0.3,0,0.5,0.1,0.7,0.3l64.1,63.4c0.2,0.2,0.3,0.4,0.3,0.7l1,40.5c0,0.3-0.1,0.6-0.4,0.8l-25.3,21.3
			C253.1,306.3,252.8,306.4,252.6,306.3z"/>
		<path class="st1" d="M212.8,180.2l64.1,63.3l1,40.5l-25.3,21.3L212.8,180.2 M212.9,178.2c-1.1,0-2,0.9-2,2c0,0.2,0,0.4,0.1,0.6
			l39.7,125.1c0.2,0.6,0.7,1.1,1.4,1.3c0.2,0.1,0.4,0.1,0.5,0.1c0.5,0,0.9-0.2,1.3-0.5l25.3-21.3c0.5-0.4,0.7-1,0.7-1.6l-1-40.5
			c0-0.5-0.2-1-0.6-1.4l-64.1-63.3C213.8,178.4,213.3,178.2,212.9,178.2L212.9,178.2z"/>
		<path class="st0" d="M150,158.7c-0.3,0-0.5-0.1-0.7-0.3l-15.6-14.6c-0.3-0.3-0.4-0.6-0.3-1c0.1-0.4,0.4-0.6,0.8-0.7l68.2-8.2
			l9.7-4c0.1-0.1,0.3-0.1,0.4-0.1c0.2,0,0.4,0.1,0.6,0.2c0.3,0.2,0.4,0.6,0.4,0.9c-0.4,3.9,3.1,13.6,4.5,15.2c1.3,1.2,3,1.9,4.8,1.9
			c0.7,0,1.4-0.2,1.9-0.6c0.5-0.5,2-1.9,2-2.8c0-0.3-0.2-0.6-0.5-0.8c-1.4-1.2-1.3-2.3-1.1-2.8c0.5-1,1.7-1.6,2.8-1.5
			c2.3,0,2.7-0.6,2.8-1.2c0.2-1.1,0.9-1.3,1.2-1.3c0.5,0,0.9,0.3,1,0.8c0.4,1.9-0.4,3.8-1.9,5c-1.5,1.3-1.6,2.5-1.8,4.3
			c-0.1,0.6-0.1,1.3-0.3,2.1c-0.8,3.7-3.8,6.4-7.5,7c-3.5,0.5-12,0.7-12.3,0.8L150,158.7z"/>
		<path class="st1" d="M212.6,130.9c-0.4,4.1,3.1,14.1,4.8,16c1.5,1.4,3.5,2.2,5.5,2.2c1,0.1,1.9-0.3,2.6-0.9c1.9-1.8,3.2-3.5,1.5-5
			c-1.7-1.5-0.7-2.5,1.1-2.5c1.8,0,3.5-0.3,3.8-2c0.1-0.4,0.1-0.5,0.2-0.5c0.3,0,0.4,2.3-1.5,4c-2.4,2.1-1.9,4.1-2.4,7
			c-0.7,3.2-3.4,5.7-6.7,6.1c-3.5,0.5-12.2,0.7-12.2,0.7l-59.3,1.6l-15.6-14.5l68.3-8.3L212.6,130.9 M212.6,128.9
			c-0.3,0-0.5,0.1-0.8,0.2l-9.6,3.9l-68.1,8.3c-1.1,0.1-1.9,1.1-1.8,2.2c0.1,0.5,0.3,0.9,0.6,1.2l15.6,14.6c0.4,0.3,0.9,0.5,1.4,0.5
			h0.1l59.3-1.6c0.4,0,8.9-0.2,12.4-0.8c4.1-0.6,7.4-3.7,8.3-7.8c0.1-0.8,0.2-1.5,0.3-2.1c0.2-1.8,0.3-2.6,1.5-3.7
			c2.3-2,2.7-4.8,2.2-6.1c-0.3-0.8-1.1-1.4-2-1.4c-1.2,0-2.1,0.9-2.2,2.1c0,0.1,0,0.1,0,0.1l0,0c0,0-0.3,0.3-1.8,0.3
			c-1.9,0-3.3,0.8-3.8,2.1c-0.2,0.6-0.6,2.2,1.4,3.9l0.1,0.1c-0.4,0.7-1,1.4-1.6,1.9c-0.4,0.2-0.8,0.4-1.3,0.3c-1.5,0-2.9-0.6-4-1.6
			c-1.3-1.5-4.6-10.9-4.3-14.5c0.1-0.7-0.2-1.4-0.8-1.8C213.5,129,213.1,128.9,212.6,128.9z M212.6,132.9L212.6,132.9z"/>
		<path class="st0" d="M134.5,202.6c-0.1,0-0.2,0-0.3,0l-32.3-9.3c-0.4-0.1-0.7-0.5-0.7-1c0-0.5,0.3-0.9,0.7-1l12.1-3.8l25.6-8.4
			l0.2-0.1l72.5-7.2h0.1c0.3,0,0.5,0.1,0.7,0.3l10.7,10.7l17.2,16.2c0.3,0.3,0.4,0.7,0.2,1.1c-0.1,0.4-0.5,0.6-0.9,0.6L134.5,202.6z
			"/>
		<path class="st1" d="M212.5,172.9l10.7,10.7l17.2,16.2l-105.9,1.8l-32.3-9.3l12.1-3.8L140,180L212.5,172.9 M212.5,170.9h-0.2
			l-72.5,7.2c-0.1,0-0.3,0-0.4,0.1l-25.7,8.5l-12.1,3.7c-1.1,0.3-1.7,1.4-1.3,2.5c0.2,0.6,0.7,1.1,1.3,1.3l32.3,9.3
			c0.2,0.1,0.4,0.1,0.6,0.1l0,0l105.9-1.8c1.1,0,2-0.9,2-2c0-0.5-0.2-1.1-0.6-1.4l-17.1-16.2l-10.7-10.7
			C213.5,171,213,170.8,212.5,170.9L212.5,170.9z"/>
		<path class="st2" d="M154.1,175.8c-0.3,0-0.5-0.1-0.7-0.3c-0.2-0.2-0.3-0.5-0.3-0.7l0.3-22.7c0-0.2,0-0.3,0.1-0.4l3.6-7
			c0.2-0.3,0.5-0.5,0.8-0.5l19.6-1.8h0.1h0.2l18.4,3.6c0.5,0.1,0.9,0.6,0.8,1.1l-1.5,12c-0.1,0.4-0.4,0.8-0.8,0.9
			c-0.1,0-0.2,0-0.2,0c-0.3,0-0.6-0.2-0.8-0.4c-0.3-0.3-0.6-0.4-1-0.4l-0.1,14c0,0.5-0.4,1-0.9,1L154.1,175.8z"/>
		<path class="st1" d="M177.7,143.3l18.4,3.6l-1.5,12c-0.6-0.8-1.9-0.9-2.6-0.9h-0.3l-0.1,15l-37.5,1.7l0.3-22.7l3.6-7L177.7,143.3
			 M177.7,141.2h-0.2l-19.7,1.9c-0.7,0.1-1.3,0.5-1.6,1.1l-3.6,7c-0.1,0.3-0.2,0.6-0.2,0.9l-0.3,22.7c0,0.5,0.2,1.1,0.6,1.5
			c0.4,0.4,0.9,0.6,1.4,0.6h0.1l37.5-1.7c1.1,0,1.9-0.9,1.9-2l0.1-12.3c0.3,0.1,0.6,0.2,0.9,0.2c0.2,0,0.3,0,0.5-0.1
			c0.8-0.2,1.4-0.9,1.5-1.7l1.5-12c0.1-1-0.6-2-1.6-2.2l-18.3-3.7c-0.1,0-0.3,0-0.4,0L177.7,141.2z"/>
		<path class="st0" d="M200.1,176.9c-0.6,0-1-0.4-1-1l-0.6-18.7c0-0.5,0.3-0.9,0.7-1l7.7-2.5h0.1l3.3-0.5h0.1c0.2,0,0.5,0.1,0.7,0.2
			c0.2,0.2,0.3,0.5,0.3,0.8l-0.2,19.2c0,0.5-0.3,0.9-0.8,1l-10.1,2.4H200.1z"/>
		<path class="st1" d="M210.4,154.2l-0.2,19.2l-10.1,2.5l-0.6-18.7l7.7-2.4L210.4,154.2 M210.4,152.2c-0.1,0-0.2,0-0.3,0l-3.3,0.5
			c-0.1,0-0.2,0-0.3,0.1l-7.7,2.5c-0.9,0.3-1.4,1.1-1.4,2l0.7,18.7c0,0.6,0.3,1.2,0.8,1.5c0.5,0.4,1.1,0.5,1.7,0.4l10-2.5
			c0.9-0.2,1.5-1,1.5-1.9l0.2-19.2c0-0.6-0.2-1.1-0.7-1.5C211.3,152.4,210.9,152.2,210.4,152.2L210.4,152.2z"/>
		<path class="st3" d="M164.6,177.9c-0.6,0-1-0.4-1-1l0.6-31.3c0-0.5,0.4-0.9,0.9-1l16.5-2.6h0.2c0.2,0,0.5,0.1,0.7,0.2
			c0.2,0.2,0.4,0.5,0.3,0.8l0.2,32.6c0,0.5-0.4,1-0.9,1L164.6,177.9z"/>
		<path class="st1" d="M181.8,143l0.2,32.6l-17.4,1.3l0.6-31.3L181.8,143 M181.8,141c-0.1,0-0.2,0-0.3,0l-16.6,2.6
			c-1,0.2-1.7,1-1.7,1.9l-0.6,31.3c0,0.6,0.2,1.1,0.6,1.5c0.4,0.4,0.9,0.5,1.4,0.5h0.1l17.4-1.3c1-0.1,1.9-1,1.9-2l-0.2-32.6
			C183.8,141.9,182.9,141,181.8,141L181.8,141z"/>
		<path class="st2" d="M203.6,160.5c-0.3,0-0.5-0.1-0.7-0.3l-8.4-9.1l-5.6,0.6h-0.1c-0.2,0-0.3,0-0.5-0.1
			c-9.2-5.5-20.8-4.5-28.9,2.4c-0.2,0.1-0.4,0.2-0.6,0.2l-6.8,0.5c-0.2,0-0.4,0-0.5-0.1l-6.7-3.9l-0.1-0.1l-8-6.1
			c-0.3-0.2-0.5-0.7-0.4-1.1c0.1-0.4,0.5-0.7,0.9-0.7l62.2-6.8h0.1c0.3,0,0.6,0.1,0.8,0.4l7.7,10.3c0.1,0.2,0.2,0.4,0.2,0.6
			l-0.1,12.3c0,0.6-0.4,1-1,1L203.6,160.5z"/>
		<path class="st1" d="M199.4,136.9l7.7,10.3l-0.1,12.3l-3.4,0.1l-8.8-9.5l-6.2,0.7c-9.5-5.7-21.6-4.7-30.1,2.4l-6.7,0.5l-6.7-3.9
			l-8-6.1L199.4,136.9 M199.4,134.9h-0.2l-62.1,6.8c-0.8,0.1-1.5,0.7-1.7,1.5c-0.2,0.8,0.1,1.6,0.7,2.1l8,6.1l0.2,0.1l6.7,3.9
			c0.3,0.2,0.6,0.3,1,0.3h0.1l6.7-0.5c0.4,0,0.8-0.2,1.1-0.4c7.8-6.6,19-7.5,27.8-2.3c0.3,0.2,0.6,0.3,1,0.3h0.2l5.1-0.6l8.1,8.8
			c0.4,0.4,0.9,0.6,1.5,0.6h0.1l3.4-0.1c1.1,0,2-0.9,2-2l0.1-12.3c0-0.4-0.1-0.9-0.4-1.2l-7.7-10.3
			C200.7,135.2,200.1,134.9,199.4,134.9L199.4,134.9z"/>
		<path class="st3" d="M194.5,175.1c-0.2,0-0.5-0.1-0.7-0.2c-0.2-0.2-0.3-0.5-0.3-0.8l-0.2-32.3c0-0.5,0.4-1,0.9-1l6.7-0.5
			c0.6,0,1,0.4,1,1l0.2,32c0,0.5-0.4,0.9-0.9,1l-6.6,0.8L194.5,175.1z"/>
		<path class="st1" d="M200.9,141.3l0.2,32l-6.6,0.8l-0.2-32.3L200.9,141.3 M200.9,139.3h-0.1l-6.6,0.5c-1,0.1-1.9,1-1.8,2l0.2,32.3
			c0,0.6,0.3,1.1,0.7,1.5c0.4,0.3,0.8,0.5,1.3,0.5h0.2l6.5-0.8c1-0.1,1.8-1,1.8-2l-0.2-32C202.9,140.2,202,139.3,200.9,139.3
			L200.9,139.3z"/>
		<path class="st3" d="M144.4,176.5c-0.3,0-0.5-0.1-0.7-0.3c-0.2-0.2-0.3-0.5-0.3-0.7l0.9-29.5c0-0.6,0.4-1,1-1l6.6-0.3
			c0.3,0,0.5,0.1,0.7,0.3c0.2,0.2,0.3,0.5,0.3,0.7l-0.3,29.9c0,0.3-0.1,0.5-0.3,0.7c-0.2,0.2-0.4,0.3-0.7,0.3L144.4,176.5z"/>
		<path class="st1" d="M151.8,145.7l-0.3,29.9l-7.1-0.1l0.9-29.5L151.8,145.7 M151.8,143.7L151.8,143.7l-6.6,0.3
			c-1,0.1-1.9,0.9-1.9,1.9l-0.9,29.5c0,1.1,0.8,2,1.9,2.1c0,0,0,0,0.1,0l7.1,0.1l0,0c0.5,0,1-0.2,1.4-0.6c0.4-0.4,0.6-0.9,0.6-1.4
			l0.3-29.9c0-0.5-0.2-1.1-0.6-1.5C152.9,143.9,152.4,143.7,151.8,143.7z M151.8,147.7L151.8,147.7z"/>
		<polygon class="st4" points="151.5,175.6 155.6,174.4 155.9,144.2 152,144.4 		"/>
		<path class="st3" d="M202.7,174.4l-1.8-0.2c-0.5,0-0.9-0.5-0.9-1l-0.2-32c0-0.4,0.2-0.9,0.7-1c0.1,0,0.2,0,0.3,0
			c0.3,0,0.6,0.1,0.8,0.4l1.7,2.3c0.1,0.2,0.2,0.4,0.2,0.6l0.2,29.9c0,0.3-0.1,0.6-0.3,0.8C203.3,174.3,203.1,174.4,202.7,174.4
			L202.7,174.4z"/>
		<path class="st1" d="M200.9,141.3l1.7,2.2l0.2,29.9l-1.8-0.2L200.9,141.3 M200.9,139.2c-0.2,0-0.4,0-0.6,0.1
			c-0.8,0.3-1.4,1-1.4,1.9l0.2,32c0,1,0.8,1.9,1.8,2l1.8,0.2h0.2c1.1,0,2-0.9,2-2l-0.2-29.9c0-0.4-0.2-0.9-0.4-1.2l-1.7-2.2
			C202.1,139.6,201.5,139.3,200.9,139.2L200.9,139.2z"/>
		<polyline class="st4" points="123.3,184.9 123.5,170.5 130.5,170 131.4,170.5 131.4,175.3 207.2,171.5 207.3,165.8 213.6,165.2 
			214.7,167.2 214.6,182.4 		"/>
		<path class="st3" d="M120.5,195.9c-0.6,0-1.4-0.1-2.3-0.1c-6.5-0.2-18.5-0.6-23.7-6.2c-5.8-6.3-7.2-12-7.6-14.7
			c-0.9-0.6-2.3-2.1-3.4-6.3c-0.4-1.4-0.4-2-0.1-2.6c0.2-0.3,0.5-0.4,0.9-0.4c0.7,0,1.1,0.5,2,1.6s2.9,3.5,4.3,3.5
			c0.1,0,0.2,0,0.3,0c0.6-0.2,1.3-0.3,1.9-0.3c1.2-0.1,2.3,0.6,2.9,1.6c0.5,1,0.4,2.1-0.2,3c-0.6,0.7-1.7,1.2-3.5,1.3
			c0.9,1.3,1.9,2.5,3.1,3.5c4,3.4,9.1,5.3,14.3,5.3c1.1,0,2.1,0.1,3.1,0.1c7.2,0,10.5-1.2,10.6-1.2c0.1,0,0.2-0.1,0.3-0.1h5.3l1-0.8
			c0.2-0.1,0.4-0.2,0.6-0.2l77.2-2.5c0.5,0,0.9,0.4,1,0.9l0,0.4l6.2-0.2c0.1,0,0.2,0,0.3,0c1.2,0.3,2.5,0.4,3.7,0.4
			c4.4,0,8.6-1.6,11.8-4.5c4-3.6,6.5-6.5,7.2-8.5c-1.1-0.3-2.1-1.1-2.6-2.1c-0.4-1.1-0.3-2.3,0.4-3.3c0.6-0.8,1.6-1.2,2.6-1.3
			c1,0,2-0.5,2.6-1.3c1.6-2.6,2.4-2.6,2.8-2.6c0.4,0,0.8,0.2,1,0.5c0.4,0.5,0.4,1.4,0,3c-0.6,2.2-1.5,4.2-2.8,6
			c0.3,4.8-0.9,9.6-3.4,13.8c-4.3,7.8-13.5,11.6-13.9,11.8c-0.1,0-0.2,0.1-0.4,0.1L120.5,195.9L120.5,195.9z"/>
		<path class="st1" d="M243.3,159.3c0.3,0,0.4,0.6,0,2.2c-0.6,2.1-1.6,4.2-2.9,5.9c0,0,1,6-3.2,13.6c-4.1,7.6-13.4,11.3-13.4,11.3
			l-103.3,2.6c-5-0.3-19.7,0.1-25.3-6c-5.1-5.6-7.1-11.1-7.4-14.7c0,0-1.9-0.2-3.4-5.9c-0.3-1.2-0.3-1.7-0.2-1.7
			c0.6,0,3.5,5.1,6.2,5.1c0.2,0,0.4,0,0.6-0.1c0.5-0.2,1.1-0.3,1.6-0.3c1.1-0.1,2.1,0.8,2.1,1.9c0,0.4-0.1,0.8-0.3,1.1
			c-0.7,0.9-3.2,1-4.1,1h-0.3c0,0,4.6,10.2,19.1,10.8c1.1,0,2.1,0.1,3.1,0.1c7.5,0,10.9-1.3,10.9-1.3h5.6l1.2-1l77.1-2.5l0.2,1.3
			l7-0.3c1.3,0.3,2.7,0.5,4,0.4c4.6,0,9.1-1.7,12.5-4.8c7.7-6.8,7.6-9.4,7.7-10c-3.5-0.7-3.3-2.9-2.5-4.1s3.8-0.3,5.1-2.6
			C242.1,160.2,242.9,159.3,243.3,159.3 M243.3,157.3L243.3,157.3c-1.2,0-2.3,0.9-3.6,3.1c-0.3,0.5-0.8,0.6-1.9,0.8
			c-1.3,0.1-2.4,0.7-3.2,1.7c-1.4,2-0.9,4.7,1,6.1c0.2,0.2,0.4,0.3,0.7,0.4c-0.7,1.3-2.4,3.6-6.5,7.2c-3.1,2.7-7.1,4.3-11.2,4.2
			c-1.2,0-2.3-0.1-3.4-0.4c-0.2-0.1-0.4-0.1-0.6-0.1h-0.1l-5.3,0.2c-0.3-0.7-1-1.2-1.8-1.2h-0.1l-77.2,2.5c-0.4,0-0.9,0.2-1.2,0.5
			l-0.7,0.6h-4.9c-0.2,0-0.5,0-0.7,0.1c0,0-3.3,1.1-10.2,1.1c-1,0-2,0-3-0.1c-8.7-0.4-13.4-4.4-15.7-7.1c1-0.1,1.9-0.6,2.5-1.4
			c0.9-1.2,1-2.8,0.3-4.1c-0.7-1.4-2.2-2.3-3.8-2.2c-0.8,0-1.5,0.1-2.2,0.4l0,0c-0.9,0-2.9-2.3-3.5-3.1c-1-1.2-1.6-2-2.8-2
			c-0.6,0-1.3,0.3-1.6,0.8c-0.7,0.9-0.5,1.9-0.1,3.4c1,3.9,2.4,5.8,3.5,6.7c0.5,3,2.2,8.6,7.8,14.8c5.5,6,17.8,6.4,24.4,6.6
			c0.9,0,1.7,0,2.3,0.1h0.2l103.2-2.6c0.2,0,0.5-0.1,0.7-0.1c0.4-0.2,9.9-4.1,14.4-12.2c2.4-4.3,3.7-9.1,3.5-14
			c1.3-1.8,2.2-3.9,2.8-6c0.5-1.7,0.6-2.9-0.1-3.9C244.6,157.5,244,157.2,243.3,157.3L243.3,157.3z"/>
		<path class="st2" d="M117.1,189.7c-0.6,0-1-0.5-1-1c0-0.4,0.3-0.8,0.7-0.9l6.9-2c0.1,0,0.2,0,0.3,0h2.7l2.8-2.5
			c0.2-0.2,0.4-0.2,0.6-0.2l77.2-2.5c0.5,0,0.9,0.4,1,0.9l0,0.4l3.6-0.2c0.1,0,0.3,0,0.4,0.1l5.5,2.5c0.5,0.2,0.7,0.8,0.5,1.3
			c-0.1,0.2-0.3,0.4-0.6,0.5c-3.2,1-6.5,1.5-9.9,1.6C202.1,187.8,118,189.7,117.1,189.7L117.1,189.7z"/>
		<path class="st1" d="M207.4,181.4l0.2,1.3l4.5-0.2l5.5,2.5c-3.1,0.9-6.3,1.4-9.6,1.5c-5.9,0.2-90.9,2.2-90.9,2.2l6.9-2h3.1
			l3.1-2.8L207.4,181.4 M207.4,179.4L207.4,179.4l-77.2,2.5c-0.5,0-0.9,0.2-1.3,0.5l-2.5,2.2H124c-0.2,0-0.4,0-0.6,0.1l-6.9,2
			c-1.1,0.3-1.6,1.4-1.3,2.5c0.3,0.8,1,1.4,1.9,1.4l0,0c0.8,0,85.1-2,90.9-2.2c3.5,0,6.9-0.5,10.2-1.5c1-0.4,1.6-1.5,1.2-2.6
			c-0.2-0.5-0.6-0.9-1-1.1l-5.5-2.5c-0.3-0.1-0.5-0.2-0.8-0.2h-0.1l-2.7,0.1C208.9,179.9,208.2,179.4,207.4,179.4L207.4,179.4z"/>
		<path class="st0" d="M258.6,310c-0.1,0-0.3,0-0.4-0.1c-0.4-0.2-0.6-0.5-0.6-0.9l-0.9-86.6c0-0.3,0.2-0.7,0.5-0.9
			c0.2-0.1,0.3-0.2,0.5-0.2c0.1,0,0.3,0,0.4,0.1l2.3,1.1c0.3,0.2,0.6,0.5,0.6,0.9l2.4,81.9c0,0.3-0.1,0.6-0.3,0.8l-3.8,3.6
			C259.1,309.9,258.9,310,258.6,310z"/>
		<path class="st1" d="M257.7,222.4l2.3,1.1l2.4,82l-3.8,3.6L257.7,222.4 M257.8,220.4c-0.4,0-0.8,0.1-1.1,0.3
			c-0.6,0.4-0.9,1-0.9,1.7l0.9,86.6c0,0.8,0.5,1.5,1.2,1.8c0.7,0.3,1.6,0.2,2.1-0.4l3.8-3.6c0.4-0.4,0.6-0.9,0.6-1.5l-2.4-81.9
			c0-0.8-0.5-1.4-1.1-1.8l-2.3-1.1C258.4,220.5,258.1,220.4,257.8,220.4L257.8,220.4z"/>
		<path class="st0" d="M257.9,307.8l-154.3-12.4c-0.1,0-0.3,0-0.4-0.1l-6-3.2c-0.3-0.2-0.5-0.5-0.5-0.9l3.1-76.8
			c0-0.2,0.1-0.3,0.1-0.5l4.3-7.1l0.1-10.5c0-0.5,0.4-1,0.9-1l4.6-0.3h0.2l2.4,0.5c0.5,0.1,0.8,0.5,0.8,1v1.3l19.6-0.1l111.4-2.1
			v-4.1c0-0.6,0.4-1,1-1l6.8-0.3c0.4,0,0.7,0.2,0.9,0.5l0.5,0.9c0.1,0.2,0.1,0.3,0.1,0.5l-0.2,10.4l4,10.7c0,0.1,0.1,0.2,0.1,0.4
			l-0.3,13.8l1.9,79.3c0,0.3-0.1,0.6-0.3,0.8C258.4,307.7,258.1,307.7,257.9,307.8L257.9,307.8z"/>
		<path class="st1" d="M251.8,191.2l0.5,0.9l-0.2,10.6l4.1,10.9l-0.3,13.8l1.9,79.3l-154.3-12.4l-6-3.2l3.1-76.8l4.4-7.4l0.1-10.8
			l4.5-0.3l2.4,0.5v2.3l20.6-0.1l112.3-2.1v-5.1L251.8,191.2 M251.8,189.2L251.8,189.2l-6.8,0.3c-1.1,0-1.9,0.9-1.9,2v3.1
			l-110.4,2.1l-18.6,0.1v-0.3c0-1-0.7-1.8-1.6-2L110,194c-0.1,0-0.3,0-0.4,0h-0.1l-4.5,0.3c-1.1,0.1-1.9,0.9-1.9,2l-0.1,10.2
			l-4.1,6.9c-0.2,0.3-0.3,0.6-0.3,0.9l-3.1,76.8c0,0.8,0.3,1.5,1,1.8l6,3.2c0.2,0.1,0.5,0.2,0.8,0.2l154.4,12.4h0.2
			c0.5,0,1-0.2,1.4-0.5c0.4-0.4,0.6-0.9,0.6-1.5l-2-79.3l0.3-13.7c0-0.3,0-0.5-0.1-0.8l-4-10.5l0.2-10.3c0-0.3-0.1-0.7-0.2-1
			l-0.5-0.9C253.2,189.6,252.5,189.2,251.8,189.2L251.8,189.2z"/>
		<path class="st2" d="M100.9,255.7c-0.3,0-0.5-0.1-0.7-0.3c-0.2-0.2-0.3-0.5-0.2-0.8l2-21c0-0.5,0.5-0.9,1-0.9l3.9,0.1v-1.2
			c0-0.4,0.2-0.7,0.5-0.9c3.1-1.7,6.5-2.6,10-2.7c1.7,0,3.5,0.3,5.1,0.9c0.4,0.2,0.7,0.6,0.6,1l-0.8,8c0,0.3-0.2,0.6-0.5,0.8
			c-0.1,0.1-0.3,0.1-0.5,0.1c-0.2,0-0.3,0-0.4-0.1c-1.3-0.6-2.6-0.9-4-0.9c-1.9-0.1-3.7,0.9-4.6,2.6c0.5,1.1,0.6,2.3,0.3,3.4
			c-0.1,0.3-0.2,0.7-0.3,1l-0.1,1.8c0,0.6-0.4,1-1,1H110l-0.1,1.8c0,0.6-0.4,1-1,1h-0.9l-0.2,4.5c0,0.6-0.4,1-1,1L100.9,255.7z"/>
		<path class="st1" d="M117.2,229c1.6,0,3.2,0.3,4.8,0.8l-0.8,8c-1.4-0.6-2.9-1-4.4-1c-2.5-0.1-4.7,1.3-5.7,3.6
			c0.7,1.2,0.8,2.7,0.1,4l-0.1,2.1l-2.1-0.1l-0.1,2.8l-1.9-0.1l-0.2,5.7l-5.9-0.1l2-21l4.9,0.1l-0.1-2.2
			C110.7,230,113.9,229.2,117.2,229 M117.2,227.1L117.2,227.1c-3.7,0.1-7.3,1-10.5,2.8c-0.6,0.4-1,1.1-1,1.8v0.1h-2.8l0,0
			c-1,0-1.9,0.8-2,1.8l-2,21c-0.1,1.1,0.7,2.1,1.8,2.2c0.1,0,0.1,0,0.2,0l5.9,0.1l0,0c1.1,0,2-0.9,2-1.9l0.1-3.6
			c1,0,1.9-0.9,1.9-1.9v-0.8h0.1c1.1,0,2-0.8,2-1.9l0.1-1.6c0.1-0.3,0.3-0.7,0.3-1c0.3-1.2,0.2-2.4-0.2-3.5c0.8-1.1,2.1-1.8,3.5-1.7
			c1.2,0,2.4,0.3,3.5,0.8c0.3,0.1,0.6,0.2,0.9,0.2c1,0,1.9-0.8,2-1.8l0.8-8c0.1-0.9-0.4-1.8-1.3-2.1
			C120.9,227.3,119,227,117.2,227.1L117.2,227.1z"/>
		<path class="st3" d="M89.5,216.9c-7.2,0-17.1-7.6-19-10.6c-0.8-1.6-1.2-3.3-1.4-5c0-0.8-0.2-1.7-0.5-2.5c-0.7-0.6-3.4-4.2-2.9-5.6
			c0.2-0.5,0.6-0.8,1.1-0.8c0.5,0,1,0.3,1.9,1.1c0.7,0.7,1.5,1.1,2.5,1.2c0.4,0,0.8-0.1,1.2-0.2c0.4-0.1,0.9-0.2,1.4-0.2
			c0.3,0,0.5,0,0.8,0.1c1.5,0.6,2.5,2.2,2.3,3.8c-0.2,1.1-0.9,1.9-2,2.2c0.4,1,1.1,1.9,2,2.5c2.2,1.5,13.6,4.9,15.4,5.1l0,0
			c1.7,0,8.4-2,12.5-3.4c0.3-0.1,0.6-0.1,0.9,0.1c0.3,0.2,0.4,0.5,0.4,0.8l0.1,1.5c0,0.4-0.2,0.8-0.6,1l-5.6,2.1l22.5,0.1
			c0.6,0,1,0.4,1,1c0,0,0,0.1,0,0.1l-0.4,4.6c0,0.5-0.5,0.9-1,0.9c-0.2,0-25.4,0-32.3,0.1L89.5,216.9z"/>
		<path class="st1" d="M66.8,193.4c0.2,0,0.6,0.2,1.2,0.8c0.8,0.9,2,1.4,3.2,1.5c1,0,1.8-0.5,2.5-0.5c0.2,0,0.3,0,0.5,0.1
			c1.6,0.5,3,4.1-0.7,4.2c0.4,1.7,1.4,3.1,2.8,4.1c2.4,1.7,14,5.1,15.8,5.3h0.2c2.3,0,12.7-3.4,12.7-3.4l0.1,1.5l-10.7,4.1l27.9,0.1
			l-0.4,4.6c0,0-25.3,0-32.3,0.1h-0.2c-7,0-16.5-7.5-18.1-10.2c-1.6-2.6-1-6.8-2.2-7.7C68.2,197.2,66,193.4,66.8,193.4 M66.8,191.4
			c-0.9,0-1.7,0.6-2,1.4c-0.7,2,2.2,5.7,3.1,6.6c0.2,0.6,0.3,1.3,0.3,1.9c0.1,1.9,0.6,3.7,1.5,5.4c1.9,3.3,12.2,11.1,19.8,11.1h0.2
			c6.9-0.1,32-0.1,32.3-0.1c1,0,1.9-0.8,2-1.8l0.4-4.6c0.1-1.1-0.7-2.1-1.8-2.2c-0.1,0-0.1,0-0.2,0l-17.2-0.1l0.6-0.2
			c0.8-0.3,1.3-1.1,1.3-2l-0.1-1.5c-0.1-1.1-1-1.9-2.1-1.9c-0.2,0-0.3,0-0.5,0.1c-4.9,1.6-10.8,3.3-12.1,3.3
			c-1.9-0.3-12.9-3.6-14.9-5c-0.5-0.3-0.9-0.7-1.2-1.2c0.9-0.6,1.5-1.5,1.6-2.5c0.2-2.1-1-4.1-3-4.9c-0.3-0.1-0.7-0.2-1.1-0.1
			c-0.6,0-1.1,0.1-1.7,0.3c-0.3,0.1-0.6,0.2-0.9,0.2c-0.7-0.1-1.4-0.5-1.8-1C68.7,191.9,67.8,191.5,66.8,191.4L66.8,191.4z"/>
		<path class="st2" d="M94.4,212.1c-0.6,0-1-0.5-1-1c0-0.4,0.3-0.8,0.7-0.9l10.7-3.7c0.1,0,0.2-0.1,0.3-0.1h3.4l1.8-1.8
			c0.2-0.2,0.4-0.3,0.7-0.3h10.4c0.5,0,0.9,0.4,1,0.9l0.9,5.9c0,0.3,0,0.6-0.2,0.8c-0.2,0.2-0.5,0.4-0.8,0.4L94.4,212.1z"/>
		<path class="st1" d="M121.4,205.3l1,6l-27.9-0.1l10.6-3.7h3.9l2.1-2.1L121.4,205.3 M121.4,203.3H111c-0.5,0-1,0.2-1.4,0.6
			l-1.5,1.5h-3c-0.2,0-0.4,0-0.7,0.1l-10.6,3.7c-1,0.4-1.6,1.5-1.2,2.5c0.3,0.8,1,1.3,1.9,1.3l27.9,0.1l0,0c1.1,0,2-0.9,2-2
			c0-0.1,0-0.2,0-0.3l-0.9-5.9C123.3,204,122.5,203.2,121.4,203.3L121.4,203.3z"/>
		<path class="st2" d="M196.5,249.3c-0.3,0-0.5-0.1-0.7-0.3c-0.2-0.2-0.3-0.4-0.3-0.7l-0.1-5.7l-5-0.1c-0.2,0-0.4-0.1-0.6-0.2
			c-3.4-2.8-4.5-7.5-2.6-11.5c-4.7-6.2-12-9.7-19.8-9.5c-8.5,0-14.9,7.5-16.3,9.3c0.5,1.7,0.6,3.6,0.4,5.4c-0.4,3.5-4.6,5.4-4.8,5.4
			c-0.1,0.1-0.3,0.1-0.4,0.1h-3v5.3c0,0.6-0.4,1-1,1l-6.2-0.2c-0.6,0-1-0.4-1-1v-3.2l-1.2-30.7c0-0.2,0-0.4,0.1-0.5l6-11.4
			c0.2-0.3,0.5-0.5,0.9-0.5l42.2,0.4c0.2,0,0.3,0,0.4,0.1l23.4,12c0.4,0.2,0.6,0.6,0.5,1l-3.9,34.5c-0.1,0.5-0.5,0.9-1,0.9
			L196.5,249.3z"/>
		<path class="st1" d="M141,201.2l42.2,0.4l23.4,12l-4.1,34.5l-6.2,0.2l-0.1-6.7l-6-0.1c-3.2-2.6-4.1-7.2-2-10.8
			c-4.9-6.7-12.7-10.6-21-10.4c-10.3,0-17.4,10.1-17.4,10.1c0.6,1.8,0.8,3.6,0.5,5.4c-0.4,3-4.2,4.6-4.2,4.6h-4v6.3l-6.2-0.2v-3.2
			l-1.2-30.8l6-11.4 M140.9,199.2c-0.7,0-1.4,0.4-1.8,1.1l-6,11.4c-0.2,0.3-0.2,0.7-0.2,1l1.2,30.7v3.1c0,1.1,0.8,2,1.9,2l6.2,0.2
			h0.1c0.5,0,1-0.2,1.4-0.6c0.4-0.4,0.6-0.9,0.6-1.4v-4.3h1.9c0.3,0,0.5-0.1,0.8-0.2c0.5-0.2,4.9-2.2,5.4-6.2
			c0.2-1.8,0.1-3.5-0.3-5.3c1.8-2.2,7.7-8.5,15.2-8.5c7.2-0.2,14.1,3,18.6,8.7c-1.8,4.3-0.5,9.3,3.1,12.2c0.3,0.3,0.8,0.4,1.2,0.4
			l4,0.1l0.1,4.8c0,0.5,0.2,1,0.6,1.4c0.4,0.4,0.9,0.6,1.4,0.6h0l6.2-0.2c1,0.1,2-0.7,2.1-1.7l4.1-34.5c0.1-0.8-0.3-1.6-1.1-2
			l-23.4-12c-0.3-0.1-0.6-0.2-0.9-0.2l-42.2-0.4L140.9,199.2z"/>
		<path class="st2" d="M244.6,254.9c-0.6,0-1-0.4-1-1v-2.2h-1.6c-0.6,0-1-0.4-1-1v-1.8c-0.5-0.5-0.8-1.1-0.9-1.8
			c-0.2-1-0.1-2.1,0.3-3c-1.7-2.2-4.2-3.7-7-3.9h-0.3c-2.6,0-5,1.5-6,3.9c0.5,1.2,0.3,2.5-0.6,3.5l0.1,2.3c0,0.6-0.4,1-1,1l-1.5,0.1
			v2c0,0.6-0.4,1-1,1H219c-0.6,0-1-0.4-1-1l-0.8-17.8c0-0.2,0-0.4,0.1-0.5c0.1-0.3,3.9-6.4,15.2-6.8h0.9c10.7,0,16.2,6.3,16.5,6.6
			c0.2,0.2,0.2,0.4,0.2,0.6l0.3,18.7c0,0.3-0.1,0.5-0.3,0.7c-0.2,0.2-0.4,0.3-0.7,0.3L244.6,254.9z"/>
		<path class="st1" d="M233.6,228.9c10.3,0,15.7,6.2,15.7,6.2l0.3,18.7l-5,0.1l-0.1-3.2l-2.5,0.1v-2.3c-0.9-0.5-1.6-2.6-0.4-4.3
			c-1.8-2.8-4.8-4.6-8.1-4.9h-0.4c-3.2,0-6,2-7.1,5c0.6,1,0.4,2.2-0.5,3l0.1,2.7l-2.5,0.1v2.9h-4.1l-0.8-17.8c0,0,3.5-5.9,14.4-6.3
			L233.6,228.9 M233.6,226.9h-1c-11.9,0.4-15.9,7-16.1,7.3c-0.2,0.3-0.3,0.7-0.3,1.1l0.8,17.8c0,1.1,0.9,1.9,2,1.9h4.1
			c1.1,0,2-0.9,2-2v-1h0.6c1.1-0.1,1.9-0.9,1.9-2l-0.1-2c0.8-1.1,1-2.5,0.6-3.7c0.9-1.9,2.8-3,4.9-3h0.3c2.3,0.2,4.4,1.3,5.9,3.1
			c-0.3,1-0.4,2-0.1,3.1c0.2,0.7,0.5,1.3,0.9,1.9v1.4c0,0.5,0.2,1.1,0.6,1.4c0.4,0.4,0.9,0.6,1.4,0.6h0.6v1.2c0,1.1,0.9,2,2,2l0,0
			l5-0.1c0.5,0,1-0.2,1.4-0.6c0.4-0.4,0.6-0.9,0.6-1.4l-0.3-18.7c0-0.5-0.2-0.9-0.5-1.3C250.6,233.5,244.7,226.9,233.6,226.9
			L233.6,226.9z"/>
		<path class="st2" d="M240.8,306.4l-13.6-1.2c-0.5,0-0.9-0.5-0.9-1l-0.2-42.3c0-0.3,0.1-0.5,0.3-0.7c0.2-0.2,0.4-0.3,0.7-0.3
			l13.3,0.3c0.6,0,1,0.4,1,1l0.5,43.2c0,0.6-0.4,1-1,1L240.8,306.4z"/>
		<path class="st1" d="M227.1,261.8l13.3,0.3l0.5,43.2l-13.6-1.2L227.1,261.8 M227.1,259.8c-1.1,0-2,0.9-2,2l0.2,42.4
			c0,1,0.8,1.9,1.8,2l13.6,1.2h0.2c1.1,0,2-0.9,2-2l-0.5-43.2c0-1.1-0.9-2-1.9-2L227.1,259.8L227.1,259.8z"/>
		<path class="st2" d="M109.6,295.7c-0.5,0-0.9-0.5-0.9-1l1.7-38.4c0-0.3,0.1-0.5,0.3-0.7c0.2-0.2,0.4-0.3,0.7-0.3l8.9,0.4
			c0.6,0,1,0.4,1,1l-1.7,38.6c0,0.3-0.1,0.5-0.3,0.7c-0.2,0.2-0.4,0.3-0.7,0.3L109.6,295.7z"/>
		<path class="st1" d="M111.4,256.3l8.8,0.4l-1.6,38.6l-8.9-0.6L111.4,256.3 M111.4,254.3c-0.5,0-1,0.2-1.3,0.5
			c-0.4,0.4-0.6,0.9-0.6,1.4l-1.7,38.4c-0.1,1.1,0.8,2,1.9,2.1c0,0,0,0,0,0l9,0.6h0c1.1,0,2-0.8,2-1.9l1.6-38.6c0-1.1-0.8-2-1.9-2.1
			l-8.8-0.4L111.4,254.3z"/>
		<path class="st3" d="M217,216.8c-0.6,0-1-0.4-1-1l-0.1-5.4c0-0.3,0.1-0.5,0.3-0.7c0.2-0.2,0.4-0.3,0.7-0.3l0,0
			c0.1,0,8,0.2,17.1,0.2c10.1,0,17.6-0.2,22.2-0.7l-4.5-2.4c-0.3-0.2-0.5-0.5-0.5-0.9l-0.1-2.8c0-0.6,0.4-1,1-1
			c0.2,0,0.4,0.1,0.6,0.2c2.5,1.7,6.8,2.7,11.9,2.7c2.3,0,4.6-0.2,6.9-0.7c3.3-1,6.4-2.4,9.3-4.3c-0.9-0.6-1.3-1.7-1.2-2.8
			c0.5-2.1,2.6-3.4,4.7-2.9c0.3,0.1,0.7,0.2,1,0.4l0.6,0.4c0.6,0.5,1.3,0.7,2,0.8c0.7,0,1.4-0.3,2-0.6l0.7-0.4
			c1.6-0.9,2.2-1.2,2.8-1.2c0.4,0,0.8,0.2,1,0.6c0.4,0.7-0.1,1.5-1.2,3.1c-1.4,1.9-3.5,3.2-5.9,3.4c-2.4,3.4-14.3,15.8-22.5,16.2
			L217,216.8z"/>
		<path class="st1" d="M293.2,194.3c0.4,0,0.1,0.6-1,2.1c-1.3,1.8-3.4,3-5.6,3.1c-1.6,2.8-14,15.8-22,16.1l-47.7,0.2l-0.1-5.4
			c0,0,8,0.2,17.1,0.2c9.7,0,20.7-0.2,25.4-1.2l-7.1-3.8l-0.1-2.8c3,2.1,8,2.9,12.5,2.9c2.4,0,4.8-0.2,7.1-0.7c5-1.2,11-5.4,11-5.4
			s-2.4-0.5-2.2-2.6c0.2-1.3,1.5-2.2,2.8-2.1c0.5,0,0.9,0.1,1.3,0.3c0.9,0.7,1.9,1.2,3,1.3c0.9,0,1.7-0.3,2.5-0.7
			c0.9-0.6,1.9-1.1,3-1.4 M293.1,192.3L293.1,192.3c-0.8,0-1.6,0.4-3.3,1.3l-0.7,0.4c-0.5,0.3-1,0.5-1.5,0.5c-0.5-0.1-1-0.3-1.4-0.6
			c-0.2-0.1-0.4-0.3-0.6-0.4c-0.7-0.4-1.5-0.6-2.4-0.6c-2.4-0.1-4.4,1.6-4.8,3.9c-0.1,0.9,0.1,1.9,0.6,2.7c-2.5,1.6-5.1,2.7-7.9,3.6
			c-2.2,0.5-4.4,0.7-6.6,0.7c-4.9,0-9.1-0.9-11.4-2.5c-0.3-0.2-0.7-0.3-1.1-0.4c-0.3,0-0.7,0.1-1,0.2c-0.6,0.4-1,1.1-1,1.8l0.1,2.8
			c0,0.7,0.4,1.4,1,1.7l1.5,0.8c-4.5,0.3-10.9,0.4-18.7,0.4c-9.1,0-17-0.2-17.1-0.2h0c-1.1,0-2,0.9-2,2l0.1,5.4c0,1.1,0.9,2,2,2l0,0
			l47.7-0.2h0.1c8.4-0.3,20-12.2,23-16.2c2.5-0.4,4.7-1.8,6.1-3.8c1.1-1.5,2-2.7,1.3-4.1C294.6,192.7,293.8,192.3,293.1,192.3
			L293.1,192.3z"/>
		<path class="st2" d="M235.2,211.6c-9.6,0-18.3-0.2-18.4-0.2c-0.6,0-1-0.5-1-1c0-0.1,0-0.2,0.1-0.4l2.9-6.9
			c0.2-0.4,0.5-0.6,0.9-0.6l25.3-0.3c0.6,0,1,0.4,1,1v1.3l6.1,0.2c0.2,0,0.3,0,0.4,0.1l7.1,3.8c0.4,0.2,0.6,0.6,0.5,1
			c-0.1,0.4-0.4,0.8-0.8,0.9C256.1,211.2,247.9,211.6,235.2,211.6L235.2,211.6z"/>
		<path class="st1" d="M245.1,203.1v2.2l7.1,0.2l7.1,3.8c-4.1,1-14.6,1.2-24.2,1.2c-9.6,0-18.3-0.2-18.3-0.2l2.9-6.9L245.1,203.1
			 M245,201.1L245,201.1l-25.3,0.3c-0.8,0-1.5,0.5-1.8,1.2l-2.9,6.9c-0.3,0.6-0.2,1.3,0.2,1.9c0.4,0.6,1,0.9,1.6,0.9
			c0.1,0,8.8,0.2,18.4,0.2c12.8,0,21.1-0.4,24.6-1.2c1.1-0.2,1.7-1.3,1.5-2.4c-0.1-0.6-0.5-1-1-1.3l-7.1-3.8
			c-0.3-0.1-0.6-0.2-0.9-0.2l-5.2-0.1v-0.3C247,202,246.2,201.1,245,201.1L245,201.1z"/>
		<path class="st2" d="M218.1,273.8c-0.6,0-1-0.4-1-1l-0.4-13.7c0-0.3,0.1-0.5,0.3-0.7c0.2-0.2,0.4-0.3,0.7-0.3l32.6,1.1
			c0.6,0,1,0.4,1,1l0.5,13.8c0,0.3-0.1,0.6-0.3,0.8c-0.2,0.2-0.4,0.3-0.7,0.3L218.1,273.8z"/>
		<path class="st1" d="M217.7,259.1l32.6,1.1l0.5,13.8l-32.7-1.2L217.7,259.1 M217.7,257.1c-0.5,0-1,0.2-1.4,0.6
			c-0.4,0.4-0.6,0.9-0.6,1.5l0.4,13.7c0,1.1,0.9,1.9,1.9,1.9l32.7,1.2h0.1c1.1,0,2-0.9,2-2c0,0,0-0.1,0-0.1l-0.5-13.8
			c0-1.1-0.9-1.9-1.9-1.9L217.7,257.1L217.7,257.1z"/>
		<path class="st2" d="M103,266.9c-0.5,0-1-0.5-0.9-1.1l0.7-11.5c0-0.5,0.5-0.9,1-0.9l19.1,0.8c0.6,0,1,0.4,1,1l-0.3,11.9
			c0,0.3-0.1,0.5-0.3,0.7c-0.2,0.2-0.4,0.3-0.7,0.3L103,266.9z"/>
		<path class="st1" d="M103.8,254.4l19,0.8l-0.3,11.9l-19.4-1.3L103.8,254.4 M103.8,252.4c-1.1,0-1.9,0.8-2,1.9l-0.7,11.5
			c-0.1,1.1,0.8,2.1,1.9,2.1c0,0,0,0,0,0l19.4,1.3h0.1c0.5,0,1-0.2,1.4-0.5c0.4-0.4,0.6-0.9,0.6-1.4l0.3-11.9c0-1.1-0.8-2-1.9-2.1
			l-19-0.8L103.8,252.4z"/>
		<path class="st0" d="M100.7,296.4c-0.2,0-0.4-0.1-0.6-0.2c-0.3-0.2-0.4-0.5-0.4-0.9l2.7-72.5c0-0.3,0.2-0.6,0.4-0.8
			c0.2-0.1,0.4-0.2,0.6-0.2c0.1,0,0.2,0,0.2,0l2.8,0.7c0.5,0.1,0.8,0.5,0.8,1l-2.6,70.7c0,0.4-0.3,0.8-0.7,0.9l-2.9,1
			C101,296.4,100.8,296.4,100.7,296.4z"/>
		<path class="st1" d="M103.4,223l2.8,0.7l-2.6,70.7l-2.9,1L103.4,223 M103.4,221c-1.1,0-2,0.8-2,1.9l-2.7,72.5
			c0,0.7,0.3,1.3,0.8,1.7c0.3,0.3,0.8,0.4,1.2,0.4c0.2,0,0.5,0,0.7-0.1l2.9-1c0.8-0.3,1.3-1,1.3-1.8l2.6-70.7c0-0.9-0.6-1.8-1.5-2
			l-2.8-0.7C103.8,221,103.6,221,103.4,221L103.4,221z"/>
		<path class="st3" d="M91.8,295.7c-0.5,0-0.9-0.5-0.9-1.1l4-71.7c0-0.5,0.5-1,1-0.9h7.5c0.3,0,0.5,0.1,0.7,0.3
			c0.2,0.2,0.3,0.5,0.3,0.7l-2.7,72.4c0,0.6-0.4,1-1,1L91.8,295.7z"/>
		<path class="st1" d="M95.9,223h7.5l-2.7,72.5l-8.8-0.7L95.9,223 M95.9,221c-1.1,0-1.9,0.8-2,1.9l-4,71.7c-0.1,1.1,0.8,2,1.8,2.1
			l8.8,0.7h0.2c0.5,0,1-0.2,1.3-0.5c0.4-0.4,0.7-0.9,0.7-1.4l2.7-72.5c0-1.1-0.8-2-1.9-2.1c0,0,0,0-0.1,0H95.9z"/>
		<polyline class="st5" points="92.5,284.4 101.1,284.8 103.9,283.8 		"/>
		<path class="st3" d="M103.3,224.7l-8.3,0.1c-0.3,0-0.5-0.1-0.7-0.3c-0.2-0.2-0.3-0.5-0.3-0.7l0.2-2.7c0-0.5,0.4-0.9,1-0.9l8.6-0.4
			c0.1,0,0.2,0,0.2,0l3.2,0.9c0.4,0.1,0.8,0.5,0.7,1l-0.1,2.3c0,0.5-0.5,1-1,0.9L103.3,224.7z"/>
		<path class="st1" d="M103.8,220.8l3.2,0.9l-0.1,2.3l-3.4-0.2l-8.4,0.1l0.1-2.7L103.8,220.8 M103.8,218.8h-0.1l-8.6,0.4
			c-1,0-1.8,0.9-1.9,1.9l-0.2,2.7c-0.1,1.1,0.8,2,1.9,2.1c0,0,0.1,0,0.1,0l0,0l8.3-0.1l3.4,0.2h0.1c0.5,0,1-0.2,1.3-0.5
			c0.4-0.4,0.6-0.9,0.7-1.4l0.1-2.3c0-0.9-0.6-1.8-1.5-2l-3.2-0.9C104.1,218.8,103.9,218.8,103.8,218.8L103.8,218.8z"/>
		<path class="st3" d="M94.2,239.1c-0.3,0-0.5-0.1-0.7-0.3c-0.2-0.2-0.3-0.5-0.2-0.7l0.1-2.3c0-0.5,0.5-0.9,1-0.9l9-0.2h0.1l3.2,0.4
			c0.5,0.1,0.9,0.5,0.9,1l-0.1,2.4c0,0.6-0.4,1-1,1l-3.5,0.1L94.2,239.1z"/>
		<path class="st1" d="M103.4,235.6l3.2,0.4l-0.1,2.4l-3.4,0.1l-8.8-0.4l0.2-2.3L103.4,235.6 M103.4,233.6L103.4,233.6l-9,0.2
			c-1,0-1.9,0.8-1.9,1.9l-0.1,2.3c-0.1,1.1,0.8,2.1,1.9,2.1c0,0,0,0,0,0l8.8,0.4h0.2l3.4-0.1c1,0,1.9-0.9,1.9-1.9l0.1-2.5
			c0-1-0.7-2-1.8-2.1l-3.2-0.4L103.4,233.6L103.4,233.6z"/>
		<path class="st0" d="M190.8,309.9c-0.1,0-0.2,0-0.4-0.1c-0.4-0.1-0.6-0.5-0.6-0.9l-2.3-33.8c0-0.4,0.2-0.8,0.6-1l5.8-2.2
			c0.1,0,0.2-0.1,0.4-0.1c0.2,0,0.4,0.1,0.6,0.2c0.3,0.2,0.4,0.5,0.4,0.8v32.5c0,0.3-0.1,0.5-0.3,0.7l-3.5,3.5
			C191.3,309.8,191.1,309.9,190.8,309.9z"/>
		<path class="st1" d="M194.4,272.9v32.5l-3.5,3.5l-2.3-33.8L194.4,272.9 M194.4,270.9c-0.2,0-0.5,0-0.7,0.1l-5.8,2.2
			c-0.8,0.3-1.3,1.1-1.3,2l2.3,33.8c0.1,0.8,0.6,1.5,1.3,1.7c0.2,0.1,0.5,0.1,0.7,0.1c0.5,0,1-0.2,1.4-0.6l3.5-3.5
			c0.4-0.4,0.6-0.9,0.6-1.4v-32.5c0-0.7-0.3-1.3-0.9-1.6C195.2,271,194.8,270.9,194.4,270.9L194.4,270.9z"/>
		<path class="st2" d="M135.2,275.5c-0.5,0-0.9-0.5-0.9-1l0.5-15.2c0-0.6,0.4-1,1-1l8.9,0.7v-5c0-0.3,0.1-0.5,0.3-0.7
			c0.2-0.2,0.4-0.3,0.7-0.3l5.2,0.1l0.1-4.8c0-0.3,0.1-0.5,0.3-0.7c0.2-0.2,0.4-0.3,0.7-0.3l2.8,0.1l0.2-5.6c0-0.3,0.1-0.5,0.3-0.7
			c0.3-0.2,6.5-5.6,13-5.6h0.5c6.6,0.3,13.4,6.4,13.7,6.7c0.2,0.2,0.3,0.5,0.3,0.7v5.2h2.2c0.6,0,1,0.4,1,1v5.3l5.6,0.2
			c0.6,0,1,0.4,1,1v5.1l11.4,0.5c0.5,0,1,0.5,0.9,1l-0.6,16c0,0.3-0.1,0.5-0.3,0.7c-0.2,0.2-0.4,0.3-0.7,0.3L135.2,275.5z"/>
		<path class="st1" d="M168.2,236.3h0.4c6.3,0.3,13.1,6.4,13.1,6.4v6.2h3.2v6.3l6.5,0.3v6.1l12.3,0.5l-0.6,16l-67.9-3.6l0.4-15.2
			l9.9,0.7v-6.1l6.2,0.1l0.1-5.8l3.8,0.1l0.2-6.6C155.8,241.7,162,236.3,168.2,236.3 M168.2,234.3c-6.9,0-13.4,5.6-13.7,5.9
			c-0.4,0.4-0.7,0.9-0.7,1.5l-0.1,4.6h-1.8l0,0c-1.1,0-2,0.9-2,2l-0.1,3.8l-4.2-0.1l0,0c-0.5,0-1,0.2-1.4,0.6
			c-0.4,0.4-0.6,0.9-0.6,1.4v3.9l-7.8-0.6h-0.2c-0.5,0-1,0.2-1.3,0.5c-0.4,0.4-0.6,0.9-0.7,1.4l-0.4,15.2c0,1.1,0.8,1.9,1.9,2
			l67.9,3.6h0.1c0.5,0,1-0.2,1.3-0.5c0.4-0.4,0.6-0.9,0.6-1.4l0.6-16c0-1.1-0.8-2-1.9-2.1l-10.4-0.5v-4.2c0-1.1-0.8-2-1.9-2
			l-4.6-0.2v-4.3c0-1.1-0.9-2-2-2h-1.2v-4.2c0-0.6-0.2-1.1-0.6-1.5c-0.3-0.3-7.3-6.7-14.4-7L168.2,234.3L168.2,234.3z"/>
		<path class="st3" d="M214.3,312.1c-0.2,0-0.3,0-0.5-0.1c-0.3-0.2-0.5-0.5-0.5-0.8l-6.3-88.8l-11.8-12c-7.3-4.8-14.9-7.3-22.6-7.3
			c-11.5,0-22.8,5.3-33.8,15.7l-1.5,81c0,0.4-0.2,0.7-0.6,0.9l-6.6,3.2c-0.1,0.1-0.3,0.1-0.4,0.1c-0.2,0-0.4-0.1-0.6-0.2
			c-0.3-0.2-0.5-0.5-0.4-0.8l1.2-95.1c0-0.5,0.3-0.9,0.7-1l23.1-6.6c0.1,0,0.1,0,0.2,0l59.7-5.9h0.1c0.1,0,0.2,0,0.3,0.1l5.6,2
			c0.4,0.1,0.7,0.5,0.7,0.9l1.5,110.2c0,0.4-0.2,0.7-0.5,0.9l-6.5,3.6C214.7,312.1,214.5,312.1,214.3,312.1z"/>
		<path class="st1" d="M213.7,195.4l5.6,2l1.5,110.2l-6.5,3.6L208,222L196,209.7c-8.2-5.4-16.1-7.5-23.2-7.5
			c-17.1,0-30.1,11.7-34.8,16.2l-1.5,81.4l-6.7,3.1l1.2-95.1l23.1-6.6L213.7,195.4 M213.7,193.4h-0.2l-59.7,5.9
			c-0.1,0-0.2,0-0.3,0.1l-23.2,6.6c-0.9,0.2-1.4,1-1.4,1.9l-1.2,95c0,0.7,0.3,1.3,0.9,1.7c0.3,0.2,0.7,0.3,1.1,0.3
			c0.3,0,0.6-0.1,0.8-0.2l6.7-3.1c0.7-0.3,1.1-1,1.2-1.7l1.5-80.5c10.7-10,21.8-15.1,32.8-15.1c7.4,0,14.8,2.4,21.9,7l11.4,11.6
			l6.2,88.5c0,0.7,0.4,1.3,1.1,1.6c0.6,0.3,1.3,0.3,1.9,0l6.5-3.6c0.6-0.4,1-1,1-1.8l-1.5-110.2c0-0.8-0.5-1.6-1.3-1.9l-5.6-2
			C214.2,193.4,213.9,193.3,213.7,193.4L213.7,193.4z"/>
		<path class="st3" d="M167.2,254.7c-1.5-0.1-2.9-0.9-3.8-2.1c-0.1-0.2-0.2-0.4-0.2-0.6v-7c0-0.3,0.1-0.5,0.3-0.7
			c1-1.1,2.5-1.8,4-1.9h0.2c1.6,0,3.1,0.6,4.2,1.7c0.2,0.2,0.3,0.5,0.3,0.8l-0.1,7.2c0,0.2-0.1,0.5-0.2,0.6
			c-1.2,1.2-2.8,1.9-4.5,1.9L167.2,254.7z"/>
		<path class="st1" d="M167.6,243.5h0.1c1.3,0,2.6,0.5,3.5,1.4l-0.1,7.2c-1,1-2.3,1.6-3.7,1.6h-0.2c-1.2-0.1-2.3-0.7-3-1.7v-7
			C165.1,244.1,166.3,243.5,167.6,243.5 M167.6,241.5c-1.8,0.1-3.5,0.8-4.7,2.1c-0.4,0.4-0.6,0.9-0.6,1.4v7c0,0.4,0.1,0.8,0.3,1.1
			c1,1.5,2.7,2.5,4.6,2.6h0.2c2,0,3.9-0.8,5.2-2.3c0.3-0.4,0.5-0.8,0.5-1.3l0.1-7.2c0-0.6-0.2-1.1-0.7-1.5c-1.3-1.3-3-2-4.8-2H167.6
			z"/>
		<path class="st3" d="M214.2,312.1l-13.5-1.3c-0.5-0.1-0.9-0.5-0.9-1v-92.3c-9-7.6-23.2-13.3-33.3-13.3h-0.6
			c-9.3,0.2-17.2,1.4-32.7,14.3l-2.4,84.3c0,0.3-0.1,0.5-0.3,0.7c-0.2,0.2-0.4,0.2-0.7,0.2h-0.1l-14-1.4c-0.5-0.1-0.9-0.5-0.9-1
			l4.8-104.1c0-0.6,0.4-1,1-1l93.3-2.1c0.3,0,0.5,0.1,0.7,0.3c0.2,0.2,0.3,0.4,0.3,0.7l0.6,115.8c0,0.3-0.1,0.6-0.3,0.7
			c-0.2,0.2-0.4,0.3-0.7,0.3L214.2,312.1z"/>
		<path class="st1" d="M213.7,195.4l0.6,115.8l-13.5-1.3v-92.7c-9.8-8.4-24.5-13.8-34.3-13.8h-0.7c-9.9,0.2-17.9,1.6-33.7,14.8
			l-2.4,84.8l-14-1.4l4.8-104.1L213.7,195.4 M213.8,193.4L213.8,193.4l-93.4,2.1c-1.1,0-1.9,0.9-1.9,1.9l-4.8,104.1
			c-0.1,1.1,0.7,2,1.8,2.1l14,1.4h0.2c0.5,0,1-0.2,1.3-0.5c0.4-0.4,0.7-0.9,0.7-1.4l2.4-83.9c15.1-12.4,22.7-13.6,31.8-13.8h0.6
			c9.8,0,23.5,5.4,32.3,12.8v91.8c0,1,0.8,1.9,1.8,2l13.5,1.3h0.2c0.5,0,1-0.2,1.3-0.5c0.4-0.4,0.7-0.9,0.7-1.5l-0.6-115.8
			C215.7,194.3,214.8,193.4,213.8,193.4L213.8,193.4z"/>
		<path class="st3" d="M117.1,240.6c-0.6,0-1-0.4-1-1c0,0,0,0,0-0.1l0.2-2.4c0-0.5,0.5-0.9,1-0.9l14.9-0.3l6.1,0.4
			c0.5,0,0.9,0.5,0.9,1v2.6c0,0.6-0.4,1-1,1l-6.4,0.2L117.1,240.6z"/>
		<path class="st1" d="M132.2,236.9l6,0.4v2.6l-6.3,0.2l-14.7-0.5l0.2-2.4L132.2,236.9 M132.2,234.9L132.2,234.9l-14.9,0.3
			c-1,0-1.9,0.8-2,1.9l-0.1,2.4c-0.1,1.1,0.8,2.1,1.9,2.1c0,0,0,0,0,0l14.7,0.5h0.1l6.3-0.2c1.1,0,1.9-0.9,1.9-2v-2.6
			c0-1.1-0.8-1.9-1.9-2l-6-0.4L132.2,234.9z"/>
		<path class="st3" d="M118,223.6c-0.3,0-0.5-0.1-0.7-0.3c-0.2-0.2-0.3-0.5-0.3-0.7l0.1-2.1c0-0.6,0.4-1,1-1l14.8-0.4h0.1l6,0.6
			c0.5,0.1,0.9,0.5,0.9,1v2.1c0,0.6-0.4,1-1,1l-6.3,0.1L118,223.6z"/>
		<path class="st1" d="M132.9,220.1l6,0.6v2.1l-6.3,0.1l-14.5-0.3l0.1-2.1L132.9,220.1 M132.9,218.1L132.9,218.1l-14.8,0.4
			c-1.1,0-2,0.9-2,1.9l-0.1,2.1c0,0.5,0.2,1.1,0.6,1.4c0.4,0.4,0.9,0.6,1.4,0.6l14.5,0.3h0.1l6.3-0.1c1.1,0,2-0.9,2-2v-2.1
			c0-1-0.8-1.9-1.8-2l-6-0.6H132.9z"/>
		<path class="st3" d="M199.2,224.3c-0.3,0-0.5-0.1-0.7-0.3c-0.2-0.2-0.3-0.5-0.3-0.7l0.1-2.4c0-0.6,0.4-1,1-1l15.5-0.4h0.1l5.9,0.5
			c0.5,0,0.9,0.5,0.9,1v2.1c0,0.6-0.4,1-1,1l-6.1,0.2L199.2,224.3z"/>
		<path class="st1" d="M214.8,220.5l5.9,0.5v2.1l-6.1,0.2l-15.4,0.1l0.1-2.4L214.8,220.5 M214.8,218.5L214.8,218.5l-15.6,0.4
			c-1.1,0-1.9,0.9-1.9,1.9l-0.1,2.4c0,0.5,0.2,1.1,0.6,1.5c0.4,0.4,0.9,0.6,1.4,0.6l0,0l15.4-0.1h0l6.1-0.2c1.1,0,1.9-0.9,1.9-2V221
			c0-1-0.8-1.9-1.8-2L214.8,218.5L214.8,218.5z"/>
		<path class="st3" d="M199.6,241.9c-0.6,0-1-0.4-1-1l-0.1-2c0-0.3,0.1-0.5,0.3-0.7c0.2-0.2,0.4-0.3,0.7-0.3l15.2,0.3h6.3
			c0.6,0,1,0.4,1,1v1.8c0,0.6-0.4,1-1,1l-6.5,0.2L199.6,241.9z"/>
		<path class="st1" d="M199.6,238.9l15.2,0.3h6.3v1.8l-6.5,0.2l-15-0.3V238.9 M199.6,236.9c-0.5,0-1.1,0.2-1.4,0.6
			c-0.4,0.4-0.6,0.9-0.6,1.5l0.1,2c0,1.1,0.9,1.9,2,1.9l15,0.4h0.1l6.5-0.2c1.1,0,1.9-0.9,1.9-2v-1.8c0-1.1-0.9-2-2-2h-6.3
			L199.6,236.9L199.6,236.9z"/>
		<path class="st3" d="M258.5,310l-10.5-1.2c-0.5-0.1-0.9-0.5-0.9-1l-0.9-84.1c0-0.6,0.4-1,1-1l10.4-0.3c0.3,0,0.5,0.1,0.7,0.3
			c0.2,0.2,0.3,0.4,0.3,0.7l1.1,85.6c0,0.3-0.1,0.6-0.3,0.8c-0.2,0.2-0.4,0.3-0.7,0.2H258.5z"/>
		<path class="st1" d="M257.5,223.4l1.1,85.6l-10.5-1.2l-0.9-84.1L257.5,223.4 M257.5,221.4L257.5,221.4l-10.4,0.3
			c-1.1,0-1.9,0.9-1.9,2l0.9,84.1c0,1,0.8,1.9,1.8,2l10.5,1.2h0.2c0.5,0,1-0.2,1.3-0.5c0.4-0.4,0.7-0.9,0.7-1.5l-1.1-85.6
			c0-0.5-0.2-1-0.6-1.4C258.5,221.6,258,221.4,257.5,221.4L257.5,221.4z"/>
		<polyline class="st5" points="247.7,297.7 258.8,298.1 262.4,294.6 		"/>
		<path class="st3" d="M246,224.9c-0.3,0-0.5-0.1-0.7-0.3c-0.2-0.2-0.3-0.5-0.3-0.7l0.1-2.4c0-0.6,0.4-1,1-1l10.7-0.2h0.1l3.9,0.5
			c0.5,0.1,0.9,0.5,0.9,1v2.1c0,0.5-0.4,1-0.9,1l-4.1,0.2L246,224.9z"/>
		<path class="st1" d="M256.8,221.3l3.9,0.4v2.1l-4.1,0.2l-10.5-0.2l0.1-2.4L256.8,221.3 M256.9,219.3L256.9,219.3l-10.7,0.2
			c-1.1,0-2,0.9-2,1.9l-0.1,2.4c0,0.5,0.2,1,0.5,1.4c0.4,0.4,0.9,0.6,1.4,0.6l10.5,0.2h0.1l4.1-0.2c1.1-0.1,1.9-0.9,1.9-2v-2.1
			c0-1-0.8-1.9-1.8-2l-3.9-0.4L256.9,219.3z"/>
		<path class="st3" d="M246.4,242.7c-0.6,0-1-0.4-1-1l-0.1-2c0-0.3,0.1-0.5,0.3-0.7c0.2-0.2,0.4-0.3,0.7-0.3l11,0.2h3.9
			c0.6,0,1,0.4,1,1v1.8c0,0.5-0.4,1-0.9,1l-4.1,0.3L246.4,242.7z"/>
		<path class="st1" d="M246.3,239.8l11,0.2h3.9v1.8l-4,0.3l-10.7-0.3L246.3,239.8 M246.4,237.7c-1.1,0-2,0.9-2,2c0,0,0,0.1,0,0.1
			l0.1,2c0,1.1,0.9,1.9,1.9,1.9l10.7,0.3h0.2l4-0.3c1-0.1,1.9-0.9,1.9-2v-1.8c0-1.1-0.9-2-2-2h-3.9L246.4,237.7L246.4,237.7z"/>
		<path class="st0" d="M148.1,305.7c-0.2,0-0.3-0.1-0.5-0.1c-0.3-0.2-0.5-0.5-0.5-0.8l-0.9-30.8c0-0.4,0.2-0.8,0.6-1l5-2
			c0.1,0,0.2-0.1,0.4-0.1c0.2,0,0.4,0.1,0.6,0.2c0.3,0.2,0.4,0.5,0.4,0.8l-0.6,30.9c0,0.4-0.2,0.7-0.5,0.9l-3.5,1.9
			C148.5,305.7,148.3,305.7,148.1,305.7z"/>
		<path class="st1" d="M152.3,272L152.3,272 M152.3,272l-0.6,30.8l-3.6,1.9l-0.9-30.8L152.3,272 M152.3,270L152.3,270
			c-0.3,0-0.6,0.1-0.8,0.2l-5,2c-0.8,0.3-1.3,1.1-1.3,1.9l0.9,30.7c0,1.1,0.9,2,2,2c0.3,0,0.7-0.1,0.9-0.2l3.6-1.9
			c0.6-0.3,1-1,1.1-1.7l0.6-30.7V272C154.3,270.9,153.4,270,152.3,270L152.3,270z"/>
		<path class="st3" d="M190.7,309.9l-5.9-0.6c-0.5-0.1-0.9-0.5-0.9-1v-30.2l-34-1.8l-0.7,28.4c0,0.3-0.1,0.5-0.3,0.7
			c-0.2,0.2-0.4,0.2-0.7,0.2h-0.1l-5.9-0.6c-0.5-0.1-0.9-0.5-0.9-1l0.7-35.3c0-0.6,0.4-1,1-1l3.9,0.1V266c0-0.6,0.4-1,1-1h5.8
			c3.7-2.9,8.1-4.5,12.7-4.8c0.5,0,1-0.1,1.4-0.1c4,0,7.9,2,13.3,6.8l4.6,0.1c0.6,0,1,0.4,1,1l0.1,2.2l3.9-0.1
			c0.3,0,0.5,0.1,0.7,0.3c0.2,0.2,0.3,0.4,0.3,0.7v37.8c0,0.3-0.1,0.6-0.3,0.7C191.3,309.8,191,309.9,190.7,309.9L190.7,309.9z"/>
		<path class="st1" d="M167.9,261.2c3.4,0,7,1.4,13,6.8l5,0.1l0.1,3.2l4.9-0.1v37.8l-5.9-0.6v-31.1l-36-1.9l-0.8,29.5l-5.9-0.6
			l0.7-35.3l4.9,0.1l0.1-2.9h6.1c3.6-2.9,7.9-4.6,12.5-4.8C167,261.3,167.4,261.2,167.9,261.2 M167.9,259.2L167.9,259.2
			c-0.5,0-1,0-1.5,0.1c-4.7,0.3-9.2,2-13,4.8h-5.4c-1.1,0-2,0.9-2,1.9v0.9l-2.9-0.1l0,0c-1.1,0-2,0.9-2,2l-0.7,35.3
			c0,1,0.8,1.9,1.8,2l5.9,0.6h0.2c1.1,0,2-0.9,2-2l0.7-27.4l32.1,1.7v29.2c0,1,0.8,1.9,1.8,2l5.9,0.6h0.2c0.5,0,1-0.2,1.3-0.5
			c0.4-0.4,0.7-0.9,0.7-1.5V271c0-1.1-0.9-2-2-2l0,0l-2.9,0.1v-1.2c0-1.1-0.9-1.9-2-1.9l-4.2,0C176.1,261.1,172.1,259.2,167.9,259.2
			L167.9,259.2z"/>
		<path class="st3" d="M164.2,127.7c-0.6,0-1-0.4-1-1l-1.3-33.9c0-0.5,0.3-0.9,0.7-1l8.8-2.7c0.1,0,0.2,0,0.3,0
			c0.2,0,0.4,0.1,0.6,0.2c0.2,0.2,0.4,0.5,0.4,0.8l0.4,36.1c0,0.3-0.2,0.7-0.5,0.8l-1,0.7c-0.2,0.1-0.4,0.2-0.5,0.2L164.2,127.7z"/>
		<path class="st1" d="M171.6,90.1l0.4,36.1l-1,0.6l-6.8-0.2l-1.3-33.9L171.6,90.1 M171.7,88.1c-0.2,0-0.4,0-0.6,0.1l-8.8,2.7
			c-0.9,0.3-1.5,1.1-1.4,2l1.4,34c0,1.1,0.9,1.9,2,1.9l6.8,0.2l0,0c0.4,0,0.8-0.1,1.1-0.3l1-0.7c0.6-0.4,0.9-1,0.9-1.7L173.6,90
			C173.6,88.9,172.7,88,171.7,88.1L171.7,88.1z"/>
		<path class="st0" d="M161.5,105.7c-0.4,0-0.7-0.2-0.9-0.6l-10.1-19.9c-0.1-0.3-0.1-0.6,0-0.9c0.1-0.3,0.4-0.5,0.7-0.5l46.4-8.6
			h0.2c0.4,0,0.7,0.2,0.9,0.6l10.1,22c0.1,0.3,0.1,0.6,0,0.9c-0.1,0.3-0.4,0.5-0.7,0.5l-22.8,3.6l-23.7,2.8L161.5,105.7z"/>
		<path class="st1" d="M197.8,76.2l10.1,22l-22.7,3.7l-23.6,2.8l-10.1-19.8L197.8,76.2 M197.8,74.3c-0.1,0-0.2,0-0.4,0l-46.3,8.6
			c-1.1,0.2-1.8,1.2-1.6,2.3c0,0.2,0.1,0.4,0.2,0.5l10.1,19.9c0.3,0.7,1,1.1,1.8,1.1h0.2l23.7-2.8h0.1l22.7-3.6
			c1.1-0.2,1.8-1.2,1.6-2.3c0-0.2-0.1-0.4-0.2-0.5l-10-22C199.3,74.7,198.6,74.2,197.8,74.3L197.8,74.3z"/>
		<path class="st2" d="M161.6,82.9c-0.6,0-1-0.5-1-1c0-0.4,0.2-0.8,0.6-0.9c4.4-1.8,7.4-3.8,8.9-6.1c1.4-2.1,3.5-3.6,5.9-4.3
			l0.1-11.7l-3.7,0.7h-0.2c-0.2,0-0.5-0.1-0.6-0.2c-0.2-0.2-0.4-0.5-0.4-0.8v-3c0-0.5,0.3-0.9,0.8-1l4.1-0.7l0.1-4.2
			c0-0.5,0.3-0.9,0.8-1l3.4-0.8c0.1,0,0.2,0,0.2,0c0.6,0,1,0.4,1,1v3.9l3.8-0.8h0.2c0.6,0,1,0.4,1,1v3.4c0,0.5-0.4,0.9-0.9,1
			l-4.2,0.6l-0.3,11.8c1.8,0.3,3.5,1,4.9,2.2c1.8,1.2,3.5,2.3,6.1,2.3c0.5,0,1,0,1.6-0.1h0.1c0.6,0,1,0.4,1,1c0,0.4-0.3,0.8-0.7,0.9
			l-7.7,2.5h-0.1l-24.7,4.4L161.6,82.9z"/>
		<path class="st1" d="M180.6,48.9V54l5-1.1v3.5l-5,0.7l-0.3,13.6h0.3c4.3,0,6.2,4.5,11.8,4.5c0.6,0,1.1,0,1.7-0.1l-7.7,2.5
			l-24.7,4.3c5.3-2.2,8-4.4,9.3-6.4c1.4-2.1,3.6-3.5,6-4l0.2-13.8l-4.9,1v-3l4.9-0.9l0.1-5.1L180.6,48.9 M180.6,46.9
			c-0.2,0-0.3,0-0.5,0.1l-3.4,0.9c-0.9,0.2-1.5,1-1.5,1.9l-0.1,3.4l-3.3,0.6c-1,0.2-1.7,1-1.7,2v3c0,0.6,0.3,1.2,0.7,1.6
			c0.4,0.3,0.8,0.5,1.3,0.4c0.1,0,0.3,0,0.4,0l2.5-0.5l-0.1,9.8c-2.3,0.9-4.3,2.4-5.7,4.4c-1.4,2.1-4.2,4-8.4,5.7
			c-0.9,0.4-1.4,1.3-1.2,2.3c0.3,0.9,1.1,1.5,2,1.4c0.1,0,0.2,0,0.3,0l24.8-4.3l0.3-0.1l7.7-2.5c1-0.3,1.6-1.5,1.3-2.5
			c-0.3-0.8-1-1.4-1.9-1.4c-0.1,0-0.2,0-0.3,0c-0.5,0.1-0.9,0.1-1.4,0.1c-2.4,0-3.9-1-5.6-2.1c-1.3-1-2.8-1.7-4.4-2.2l0.2-10.1
			l3.3-0.5c1-0.1,1.7-1,1.7-2V53c0-1.1-0.9-2-2-2c-0.1,0-0.3,0-0.4,0.1l-2.6,0.5v-2.7C182.6,47.8,181.7,46.9,180.6,46.9z"/>
		<path class="st2" d="M163.9,96.7c-0.6,0-1-0.4-1-1l-0.4-11.5c0-0.5,0.4-0.9,0.8-1l25.2-3.9h0.2c0.6,0,1,0.4,1,1l-0.3,12.5
			c0,0.5-0.4,0.9-0.9,1l-7,0.9h-0.1c-0.4,0-0.7-0.2-0.9-0.6c-0.6-1.3-1.9-2.1-3.4-2.1c-1.9,0-3.7,1.2-4,2.7
			c-0.1,0.4-0.4,0.7-0.8,0.8L163.9,96.7L163.9,96.7z"/>
		<path class="st1" d="M188.7,80.2l-0.3,12.5l-7,0.9c-0.8-1.7-2.5-2.7-4.3-2.7c-2.3,0-4.6,1.4-4.9,3.5l-8.3,1.2l-0.4-11.5
			L188.7,80.2 M188.7,78.2h-0.3l-25.2,4c-1,0.2-1.7,1-1.7,2l0.4,11.5c0,1.1,0.9,1.9,2,1.9h0.3l8.3-1.2c0.8-0.1,1.5-0.7,1.7-1.5
			c0.2-1,1.6-1.9,3-1.9c1,0,2,0.6,2.4,1.5c0.3,0.7,1,1.1,1.8,1.1h0.2l7-0.9c1-0.1,1.7-0.9,1.8-1.9l0.3-12.5
			C190.7,79.2,189.8,78.3,188.7,78.2C188.7,78.3,188.7,78.3,188.7,78.2L188.7,78.2z M188.7,82.2L188.7,82.2z"/>
		<path class="st3" d="M198.4,123.2l-8.4-0.8c-0.5-0.1-1-0.5-0.9-1.1l3.3-36.9c0-0.4,0.4-0.8,0.8-0.9h0.2c0.4,0,0.7,0.2,0.9,0.5
			l2.2,4c0.1,0.1,0.1,0.3,0.1,0.4v1.1l0.5-0.1h0.2c0.3,0,0.5,0.1,0.7,0.3l1.1,1.2c0.2,0.2,0.3,0.4,0.3,0.7v30.5
			C199.5,122.8,199,123.2,198.4,123.2L198.4,123.2z"/>
		<path class="st1" d="M193.4,84.5l2.2,4l0.1,2.2l1.7-0.3l1.1,1.2v30.6l-8.4-0.8L193.4,84.5 M193.4,82.5c-0.1,0-0.3,0-0.4,0
			c-0.9,0.2-1.5,0.9-1.6,1.8l-3.3,36.9c-0.1,1.1,0.7,2.1,1.8,2.2l8.4,0.8h0.2c0.5,0,1-0.2,1.3-0.5c0.4-0.4,0.7-0.9,0.7-1.5V91.7
			c0-0.5-0.2-1-0.5-1.4l-1.1-1.2c-0.3-0.3-0.7-0.6-1.2-0.6c0-0.3-0.1-0.6-0.2-0.9l-2.2-4C194.8,83,194.2,82.6,193.4,82.5L193.4,82.5
			z"/>
		<polygon class="st4" points="165.9,89.2 168.4,92.1 168.9,127 164.9,128.2 		"/>
		<path class="st3" d="M160.2,106.7c-0.2,0-0.4-0.1-0.6-0.2c-1.6-1.2-2.6-4.4-3.5-7.3c-0.3-0.9-0.6-1.8-0.9-2.6
			c-0.7-1.5-7.7-9.4-11.5-11.5c-5.2-2.8-8.3-10.4-9.1-12.7c-0.2-0.9-0.6-1.8-1.1-2.6c-0.7-0.4-1.2-1-1.5-1.7c-0.9-1.5-1-3.3-0.5-4.9
			c0.2-0.4,0.6-0.6,1-0.6c0.7,0,1.2,0.6,1.3,1.7c0,0.4,0.1,1.1,1.7,1.1c0.3,0,0.7,0,1-0.1l0.3-0.1c0.4-0.1,0.8-0.1,1.2-0.1
			c1.4,0,2.2,0.9,2.4,2.8c0.1,0.7-0.1,1.3-0.5,1.8c-0.7,0.6-1.5,0.9-2.4,0.9h-0.4c0.3,1,0.8,2,1.3,2.9c1.1,1.8,3,2.6,5.5,3.6
			c0.8,0.3,1.5,0.6,2.3,1c1.8,0.8,6,1.3,11.1,1.3c1.9,0,3.7-0.1,5.1-0.2c4.8-0.4,24.3-4,25.2-4.2c4.4-0.8,9.6-4.2,13.4-8.6
			c1.7-2,3.2-4.2,4.3-6.5c-0.7-0.3-1.1-1-1.3-1.7c-0.3-1.7,1.4-3,3.2-4.4c0.8-0.6,1.3-2.8,1.6-3.9c0.3-1.1,0.5-1.9,1.3-1.9
			c1,0,1.1,1,1.2,2c0.2,2.3-0.4,4.6-1.6,6.5c0,1.2-0.1,2.3-0.2,3.5c-0.2,2.2-1.4,4.6-2.6,7.3c-0.6,1.3-1.2,2.6-1.9,4.1
			c-1.8,4.2-1.5,9.2,1,15.8c2.1,5.6,4.2,5.9,6.7,6.2h0.3c0.2,0,0.4,0,0.7,0c1.1,0,1.6-0.5,2.2-2c-1.1-0.5-1.8-1.6-1.8-2.8
			c-0.1-0.7,0.2-1.3,0.6-1.8c0.4-0.4,1-0.6,1.6-0.6c1,0.1,2,0.5,2.7,1.2c0.1,0.1,0.3,0.2,0.4,0.3c0.1,0,0.4-0.3,0.8-1.7
			c0.2-0.5,0.4-1.1,1.1-1.1c1.1,0,1.1,1,1.1,1.9c0,2.8-1.4,4-2.6,4.3c-0.3,1.9-1.1,3.8-2.1,5.4c-2.1,2.6-5.1,4.2-8.4,4.5
			c-0.2,0-0.5,0-0.7,0c-2.8-0.4-3.9-1.8-4.1-2.7c-0.4-0.9-5-9.8-8.3-16.1l-40.7,7.1l6.1,8.1c0.1,0.2,0.2,0.4,0.2,0.7l-0.6,7.7
			c0,0.4-0.3,0.7-0.6,0.8C160.5,106.7,160.3,106.8,160.2,106.7z"/>
		<path class="st1" d="M210.3,48.9c0.1,0,0.1,0.3,0.2,1.1c0.2,2.2-0.4,4.4-1.6,6.2c0.1,1.2,0.1,2.4-0.2,3.6
			c-0.3,3.1-2.4,6.4-4.4,11.1c-2,4.7-1.4,10.1,1,16.5c2.5,6.3,5,6.5,7.8,6.9c0.3,0,0.5,0.1,0.8,0.1c2.1,0,2.7-1.5,3.7-3.8
			c-0.1,0-0.2,0-0.3,0c-1.1,0-1.9-0.9-1.9-2c0-0.9,0.4-1.4,1.1-1.4c0.8,0.1,1.5,0.4,2,1c0.3,0.3,0.7,0.5,1.1,0.6
			c1.3,0,1.8-2.8,2-2.8s0.1,0.3,0.1,1c0,3.5-2.5,3.5-2.5,3.5c-0.3,2-1,4-2.1,5.7c-1.9,2.4-4.6,3.8-7.6,4.1c-0.2,0-0.4,0-0.6,0
			c-2.5-0.3-3.2-1.6-3.3-2s-8.7-16.9-8.7-16.9l-43,7.5l7.1,9.4l-0.7,7.7c-2-1.5-3.2-7.8-4.1-9.6c-0.9-1.8-8-9.8-11.9-11.9
			s-7-7.5-8.7-12.2s-1.4-2-2.7-4.5c-1-1.9-0.7-4-0.4-4c0.1,0,0.2,0.2,0.3,0.8c0.2,1.6,1.4,2,2.7,2c0.4,0,0.8,0,1.2-0.1
			c0.5-0.1,0.9-0.2,1.4-0.2c0.8,0,1.3,0.4,1.4,1.9c0.1,1.3-1,1.6-2,1.6c-0.6,0-1.1-0.1-1.6-0.2c0.2,1.7,0.8,3.3,1.8,4.6
			c1.7,2.7,4.8,3.4,8.2,4.9c2.3,1,7.2,1.4,11.5,1.4c2,0,3.8-0.1,5.2-0.2c4.3-0.4,20.4-3.3,25.3-4.2c4.8-0.9,10.2-4.5,14-8.9
			c2.2-2.5,4-5.4,5.3-8.5c-0.2,0.3-0.5,0.6-0.9,0.6c-0.6,0-1-0.4-1.1-1c-0.2-1,0.8-1.9,2.8-3.4C209.5,53.5,210,49,210.3,48.9
			 M210.3,47c-1.7,0-2,1.5-2.3,2.6c-0.5,1.9-0.9,3.1-1.2,3.4c-2.1,1.5-4,3.1-3.6,5.3c0.1,0.7,0.5,1.4,1,1.8c-1.1,2-2.4,3.8-3.8,5.5
			c-3.6,4.3-8.7,7.5-12.8,8.3c-7.5,1.4-21.3,3.8-25.1,4.2c-1.4,0.1-3.2,0.2-5,0.2c-4.9,0-9-0.5-10.7-1.2c-0.8-0.4-1.6-0.7-2.3-1
			c-2.2-0.9-4-1.6-5-3.2c-0.3-0.5-0.5-0.9-0.8-1.4c0.8-0.1,1.5-0.5,2-1.1c0.6-0.7,0.9-1.6,0.8-2.6c-0.3-3.2-2.3-3.7-3.4-3.7
			c-0.5,0-0.9,0.1-1.4,0.2l-0.3,0c-0.3,0.1-0.6,0.1-0.8,0.1c-0.2,0-0.5,0-0.7-0.1c0,0,0-0.1,0-0.2c-0.2-2.3-1.7-2.5-2.3-2.5l0,0
			c-0.8,0-1.5,0.4-1.9,1.1c-0.7,1.2-0.7,3.7,0.5,5.9c0.4,0.8,1,1.5,1.7,2c0.4,0.7,0.6,1.5,0.9,2.2c0.8,2.3,4,10.2,9.5,13.2
			c3.6,1.9,10.4,9.7,11.1,11c0.3,0.8,0.6,1.6,0.8,2.5c1.1,3.6,2.1,6.5,3.8,7.8c0.3,0.3,0.8,0.4,1.2,0.4c0.3,0,0.6-0.1,0.8-0.2
			c0.7-0.3,1.1-0.9,1.2-1.7l0.6-7.6c0-0.5-0.1-1-0.4-1.4l-5.1-6.8l38.4-6.7c3.1,5.9,7.4,14.2,7.9,15.3c0.4,1.2,1.7,2.9,4.9,3.3
			c0.3,0,0.6,0,0.8,0.1c3.6-0.2,7-2,9.2-4.9c1-1.6,1.8-3.4,2.2-5.3c1.4-0.7,2.8-2.2,2.8-5c0-0.8,0-3-2.1-3l0,0
			c-1,0.1-1.9,0.8-2.1,1.8c0,0.1-0.1,0.3-0.2,0.5c-0.8-0.6-1.8-1-2.8-1c-0.9,0-1.7,0.4-2.3,1c-0.6,0.7-0.9,1.6-0.9,2.5
			c0,1.2,0.6,2.3,1.5,3.1c-0.4,0.6-0.6,0.6-0.9,0.6c-0.2,0-0.3,0-0.5,0h-0.3c-2.4-0.3-4-0.6-5.9-5.6c-2.4-6.2-2.7-11-1-15
			c0.6-1.5,1.2-2.8,1.8-4c1.3-2.8,2.5-5.2,2.7-7.6c0.1-1.1,0.2-2.2,0.2-3.3c1.3-2.1,1.8-4.6,1.6-7.1C212.4,49,212.2,47,210.3,47
			L210.3,47z"/>
		<path class="st3" d="M159.2,128.6c-0.2,0-0.5-0.1-0.7-0.3c-0.2-0.2-0.3-0.5-0.3-0.7l0.2-37.4c0-0.5,0.4-0.9,0.8-1l6.5-1.1h0.2
			c0.2,0,0.5,0.1,0.6,0.2c0.2,0.2,0.4,0.5,0.4,0.8l0.2,14.3l2.2-0.3c1.5-2.3,3.9-3.8,6.6-4.2c0.4,0,0.7-0.1,1.1-0.1
			c2.4,0,4.6,0.9,6.4,2.5l2.4-0.2l0.1-15.5c0-0.5,0.3-0.9,0.8-1l6.6-1.2h0.2c0.2,0,0.5,0.1,0.6,0.2c0.2,0.2,0.4,0.5,0.4,0.8
			l-0.2,40.7c0,0.5-0.4,1-0.9,1l-6.7,0.6h-0.1c-0.3,0-0.5-0.1-0.7-0.3c-0.2-0.2-0.3-0.5-0.3-0.7v-8.2l-3.7,0.2
			c-0.3,0-0.6-0.1-0.8-0.4c-1.3-1.6-2.2-2.3-4.1-2.3c-0.3,0-0.6,0-0.9,0c-2.4,0.3-3.8,2.9-3.8,3c-0.2,0.3-0.5,0.5-0.8,0.6l-4.1,0.3
			l0.1,7.9c0,0.5-0.4,1-0.9,1l-7.3,0.7L159.2,128.6z M167.3,113.8l2.2-0.2c1.3-2.2,4.2-3.7,7.4-3.7c2.3-0.1,4.5,0.9,6.1,2.6l2.8-0.2
			l0.1-5.5l-3.5,0.3c-0.3,0-0.6-0.2-0.8-0.4c-1-1.2-2.5-1.8-4-1.8c-1.9-0.1-3.7,1-4.5,2.7c-0.1,0.3-0.4,0.5-0.8,0.6l-5,0.6
			L167.3,113.8z"/>
		<path class="st1" d="M193.4,84.5L193.4,84.5 M193.4,84.5l-0.2,40.7l-6.7,0.6v-9.3l-4.7,0.3c-1.4-1.6-2.6-2.7-4.8-2.7
			c-0.3,0-0.7,0-1,0.1c-3,0.3-4.6,3.5-4.6,3.5l-5,0.4l0.1,8.8l-7.3,0.7l0.2-37.4l6.5-1.1l0.2,15.5l3.8-0.6c1.3-2.2,3.6-3.7,6.1-4.1
			c0.3,0,0.7,0,1,0c2.3,0,4.4,0.9,6,2.6l3.8-0.3l0.1-16.4L193.4,84.5 M166.3,114.9l3.8-0.3c0.9-2.2,3.8-3.7,6.7-3.7
			c2.2-0.1,4.3,0.9,5.6,2.6l4.2-0.2l0.1-7.6l-4.5,0.4c-1.2-1.4-2.9-2.2-4.8-2.1c-2.3-0.1-4.4,1.2-5.4,3.3l-5.9,0.7L166.3,114.9
			 M193.4,82.5L193.4,82.5H193l-6.5,1.2c-1,0.2-1.7,1-1.7,2v14.6l-1.1,0.1c-1.9-1.6-4.2-2.5-6.7-2.5c-0.4,0-0.8,0-1.2,0.1
			c-2.8,0.4-5.4,1.9-7.1,4.2l-0.7,0.1l-0.2-13.2c0-0.6-0.3-1.1-0.7-1.5c-0.4-0.3-0.8-0.5-1.3-0.5c-0.1,0-0.2,0-0.3,0l-6.5,1.1
			c-1,0.2-1.7,1-1.7,2l-0.2,37.4c0,0.6,0.2,1.1,0.6,1.5c0.4,0.3,0.8,0.5,1.4,0.5h0.2l7.3-0.6c1-0.1,1.8-1,1.8-2l-0.1-6.9l3.1-0.2
			c0.7-0.1,1.3-0.5,1.6-1.1c0,0,1.2-2.2,3-2.4c0.3,0,0.5,0,0.8,0c1.3,0,2,0.4,3.3,1.9c0.4,0.5,0.9,0.7,1.5,0.7h0.1l2.6-0.2v7.1
			c0,0.6,0.2,1.1,0.7,1.5c0.4,0.3,0.8,0.5,1.3,0.5h0.2l6.7-0.6c1-0.1,1.8-1,1.8-2l0.2-40.6c0,0,0-0.1,0-0.1
			C195.5,83.4,194.6,82.5,193.4,82.5L193.4,82.5z M168.2,109.5l4.1-0.5c0.7-0.1,1.3-0.5,1.6-1.1c0.7-1.4,2.1-2.2,3.6-2.1
			c1.2-0.1,2.4,0.5,3.2,1.4c0.4,0.5,1,0.8,1.6,0.8h0.2l2.3-0.2v3.5l-1.4,0.1c-1.8-1.7-4.1-2.6-6.6-2.5c-3.1-0.1-6,1.3-7.9,3.8
			l-0.6,0.1L168.2,109.5L168.2,109.5z"/>
		<path class="st2" d="M155,140c-0.3,0-0.5-0.1-0.7-0.3c-0.2-0.2-0.3-0.5-0.3-0.8l0.4-12.3c0-0.5,0.4-0.9,0.9-1l39.5-3.7h0.1
			c0.2,0,0.5,0.1,0.7,0.3c0.2,0.2,0.3,0.5,0.3,0.7v11.9c0,0.5-0.4,0.9-0.9,1l-39.9,4.1L155,140z"/>
		<path class="st1" d="M194.9,123v11.9l-40,4.1l0.4-12.3L194.9,123 M194.9,121h-0.2l-39.5,3.7c-1,0.1-1.8,0.9-1.8,1.9l-0.4,12.3
			c0,1.1,0.8,2,1.9,2.1c0,0,0,0,0.1,0h0.2l39.9-4.1c1-0.1,1.8-1,1.8-2V123c0-0.6-0.2-1.1-0.6-1.5C195.9,121.1,195.4,121,194.9,121z"
			/>
		<path class="st3" d="M138.4,145.9c-5.8-0.3-11.6-3.4-15.9-8.5c-3-3.7-4.7-7.8-4.5-11.2c-2.6-1.3-4-4.2-3.5-7
			c0.2-1.1,0.8-1.3,1.2-1.3c0.6,0,1,0.4,1.1,1c0,0.3,0.6,2.5,4.4,2.6c2.3,0,3.3,1.5,3.3,2.8c0,1.5-1.1,2.7-2.6,3
			c0.9,2.1,2.5,3.4,7.6,6.3s11.8,3.3,15.5,3.3c1.6,0,3.2-0.1,4.7-0.2l0.1-12.8c0-0.5,0.4-0.9,0.9-1l5.1-0.6h0.1
			c0.3,0,0.5,0.1,0.7,0.3l1.1,1.1c0.2,0.2,0.3,0.4,0.3,0.7l0.1,11l33.1-2.9l0.1-13c0-0.5,0.4-1,0.9-1l5.9-0.4c0.4,0,0.7,0.2,0.9,0.5
			l0.8,1.4c0.1,0.2,0.1,0.3,0.1,0.5l0.1,10.2c2.2-0.7,4.4-1.6,6.4-2.7c4.9-2.3,8.3-8.5,9.7-11.5c-0.1,0-0.2,0-0.3-0.1
			c-0.9-0.4-1.6-1.3-1.6-2.3c0-0.9,0.4-2.3,2.8-3.3c1.7-0.8,2-2.9,2.1-4.5c0-0.9,0.4-1.3,1-1.3c0.5,0,0.9,0.4,1,0.9
			c0,0.1,0.1,0.3,0.2,0.4c0.7,1.5,1.1,3.3-1.3,8.1c0.2,2.9-0.8,6.3-2.5,11.8l-0.2,0.6c-2,6.7-6.2,11.3-11.1,12
			c-4.5,0.8-65.1,6.8-67.7,7H138.4z"/>
		<path class="st1" d="M220.2,106.1c0,0,0,0,0.1,0.2c0.3,1.1,1.8,2.2-1.1,8c0.2,2.9-0.8,6.3-2.6,12.4s-5.6,10.7-10.2,11.3
			c-4.6,0.7-67.8,6.9-67.8,6.9c-11.4-0.6-20.4-12.3-19.4-19.3c-4.4-1.7-3.7-6.7-3.4-6.7c0,0,0.1,0.1,0.1,0.2
			c0.2,1.3,1.6,3.4,5.3,3.4c3.5,0.1,2.8,3.9-0.1,3.9c-0.2,0-0.4,0-0.6-0.1c1.1,3.3,2.5,4.7,8.5,8.1c4.4,2.5,10.5,3.4,16,3.4
			c1.9,0,3.8-0.1,5.7-0.3l0.1-13.6l5.1-0.6l1.2,1.1l0.2,12.1l35-3.1l0.1-13.9l5.9-0.4l0.8,1.4l0.1,11.4c0,0,0.1,0,0.1,0
			c0.4,0,2.1-0.3,7.7-3c7-3.4,11-13.8,11-13.8c-0.4,0.2-0.8,0.4-1.2,0.4c-0.1,0-0.3,0-0.4-0.1c-0.7-0.2-2.1-2.2,1.2-3.7
			C220.5,110.4,220.1,106,220.2,106.1 M220.2,104c-0.3,0-2,0.1-2,2.3c0,1.3-0.3,3.1-1.5,3.6c-3,1.3-3.4,3.2-3.3,4.3
			c0.1,1.1,0.6,2.1,1.5,2.8c-1.6,3.1-4.6,8.1-8.8,10.1c-2.4,1.1-3.9,1.8-5,2.2l-0.1-8.8c0-0.4-0.1-0.7-0.3-1L200,118
			c-0.4-0.6-1-1-1.7-1h-0.1l-5.9,0.4c-1.1,0.1-1.9,0.9-1.9,2l-0.1,12.1l-31.2,2.8l-0.1-10c0-0.5-0.2-1.1-0.6-1.4l-1.1-1
			c-0.4-0.3-0.9-0.5-1.4-0.5h-0.2l-5.1,0.5c-1,0.1-1.8,1-1.8,2l-0.1,11.8c-1.2,0.1-2.5,0.1-3.8,0.1c-6.1,0-11.5-1.1-15-3.1
			c-4.1-2.3-5.7-3.6-6.6-4.9c1.3-0.7,2.1-2,2.1-3.5c0-1.8-1.3-3.8-4.3-3.9c-2.4,0-3.3-1.2-3.4-1.8c-0.1-1-1-1.8-2-1.8
			c-0.4,0-1.8,0.2-2.2,2.1c-0.5,3.1,0.9,6.1,3.5,7.8c0,3.5,1.8,7.6,4.8,11.2c4.4,5.3,10.5,8.6,16.6,8.9h0.3
			c2.6-0.2,63.3-6.2,67.9-6.9c5.2-0.8,9.8-5.6,11.9-12.7l0.2-0.7c1.6-5.5,2.6-8.9,2.5-11.9c2.4-5,1.9-7,1.2-8.7
			c0-0.1-0.1-0.2-0.1-0.3C222,104.8,221.2,104.1,220.2,104L220.2,104z"/>
	</g>
</g>
</svg>
