<svg xmlns="http://www.w3.org/2000/svg" viewBox="0 0 39.79 272.88"><defs><style>.cls-1,.cls-4{fill:#0f81c2;}.cls-1,.cls-5{stroke:#010101;stroke-linecap:round;stroke-linejoin:round;stroke-width:2px;}.cls-2{fill:#08ad84;}.cls-3{fill:#010101;}.cls-5{fill:none;}</style></defs><title>Q_binh-thanh</title><g id="Layer_2" data-name="Layer 2"><g id="Landmark"><polyline class="cls-1" points="14.52 1 10.04 4.93 10.04 46.78 13.42 44.39"/><path class="cls-2" d="M14.49,41a1,1,0,0,1-1-1v-38a1,1,0,0,1,.39-.79,1,1,0,0,1,.61-.21,1,1,0,0,1,.24,0l4,1a1,1,0,0,1,.76,1V40a1,1,0,0,1-1,1Z"/><path class="cls-3" d="M14.49,2.08l4,1V40h-4v-38m0-2a2,2,0,0,0-2,2V40a2,2,0,0,0,2,2h4a2,2,0,0,0,2-2v-37A2,2,0,0,0,19,1.13l-4-1a2,2,0,0,0-.48-.06Z"/><path class="cls-2" d="M2,271.87a1,1,0,0,1-1-1V102.58a1,1,0,0,1,.34-.75l3-2.59A1,1,0,0,1,5,99h1V54.15a1,1,0,0,1,.26-.68l1-1.07V49.21a1,1,0,0,1,.41-.8l1.85-1.36a1,1,0,0,1,.59-.19h.48V43.55a1,1,0,0,1,.46-.84l1.64-1.06V39.23a1,1,0,0,1,.47-.85l1.6-1a1.08,1.08,0,0,1,.53-.14h.13l2.88.4v-.71a1,1,0,0,1,.36-.76,1,1,0,0,1,.64-.24l.17,0,4.46.77a1,1,0,0,1,.83,1v5.19l1.09.13a1,1,0,0,1,.88,1c-.05,12.3-.13,43.05,0,48.54l2,.13a1,1,0,0,1,.93,1v64.94l4.25-.05a1,1,0,0,1,.7.29,1,1,0,0,1,.3.71v64.86l1.11,0a1,1,0,0,1,1,1v13.95l1,0a1,1,0,0,1,.7.29,1,1,0,0,1,.3.71V258a1,1,0,0,1-1,1h-.33l-.22,11.9a1,1,0,0,1-1,1Z"/><path class="cls-3" d="M19.2,36.94l4.46.78V43.8l2,.24s-.18,49.49,0,49.49,2.86.18,2.86.18v66l5.25-.06v65.83l2.08.06v15l2,0V258H36.48l-.24,12.88H2V102.58L5,100h2V54.15l1.23-1.36V49.22L10,47.86h1.48V43.55l2.1-1.36v-3l1.6-1,4,.54V36.94m0-2a2,2,0,0,0-1.29.47,2,2,0,0,0-.66,1.1l-1.79-.25h-.27a2.05,2.05,0,0,0-1,.29l-1.6,1a2,2,0,0,0-.95,1.7V41.1l-1.19.77a2,2,0,0,0-.91,1.68v2.38a1.84,1.84,0,0,0-.66.32L7,47.6a2,2,0,0,0-.82,1.62V52l-.71.78a2,2,0,0,0-.52,1.35V98a2,2,0,0,0-1.29.49l-3,2.59a2,2,0,0,0-.68,1.5V270.87a2,2,0,0,0,2,2H36.24a2,2,0,0,0,2-2l.2-11A2,2,0,0,0,39.79,258V240.42a2,2,0,0,0-2-2V225.49a2,2,0,0,0-1.94-2h-.14V159.6a2,2,0,0,0-2-2h0l-3.22,0V93.71a2,2,0,0,0-1.87-2l-1-.07c-.07-6.63,0-30.91.05-47.6a2,2,0,0,0-1.76-2l-.21,0V37.72a2,2,0,0,0-1.66-2L19.54,35a1.87,1.87,0,0,0-.34,0Z"/><path class="cls-4" d="M17,165.21a1,1,0,0,1-1-1l-.36-21.76-1.06-.73a1,1,0,0,1-.43-.83V47.66L12,47a1,1,0,0,1-.69-1V43.32a1,1,0,0,1,.28-.7l1-1.07V39.23a1,1,0,0,1,.35-.76l1.6-1.36a1,1,0,0,1,.65-.24,1.06,1.06,0,0,1,.42.09,1,1,0,0,1,.58.91v.33l.13-.13a1,1,0,0,1,.72-.3,1,1,0,0,1,.37.07,1,1,0,0,1,.63.93v64.76l.25-.19a1,1,0,0,1,.6-.19.91.91,0,0,1,.45.11,1,1,0,0,1,.55.89v60.06a1,1,0,0,1-1,1Z"/><path class="cls-3" d="M15.19,37.87v2.78L17,38.77V105.5l1.85-1.35v60.06H17l-.37-22.27-1.48-1v-94L12.28,46V43.31L13.59,42V39.23l1.6-1.36m0-2a2,2,0,0,0-1.3.47l-1.6,1.37a2,2,0,0,0-.7,1.52v1.92l-.75.78a2,2,0,0,0-.56,1.38V46a2,2,0,0,0,1.39,1.9l1.52.49v92.52a2,2,0,0,0,.86,1.65l.63.44L15,164.24a2,2,0,0,0,2,2h1.85a2,2,0,0,0,2-2V104.15a2,2,0,0,0-1.1-1.79,2.06,2.06,0,0,0-.75-.21V38.77a2,2,0,0,0-1.25-1.86,2,2,0,0,0-.75-.14h-.18a2,2,0,0,0-1.67-.9Z"/><path class="cls-4" d="M6.93,99.47a.94.94,0,0,1-.43-.1,1,1,0,0,1-.57-.9V54.15a1,1,0,0,1,.26-.68l1-1.07V49.21a1,1,0,0,1,.41-.8l1.85-1.36a1,1,0,0,1,.59-.19,1,1,0,0,1,1,1V96a1,1,0,0,1-.37.77L7.56,99.25A1,1,0,0,1,6.93,99.47Z"/><path class="cls-3" d="M10,47.86V96L6.93,98.47V54.15l1.23-1.36V49.22L10,47.86m0-2a2,2,0,0,0-1.18.39L7,47.6a2,2,0,0,0-.82,1.62V52l-.71.78a2,2,0,0,0-.52,1.35V98.47a2,2,0,0,0,1.14,1.81,2,2,0,0,0,.86.19A2,2,0,0,0,8.19,100l3.09-2.51A2,2,0,0,0,12,96V47.86a2,2,0,0,0-1.09-1.78,2,2,0,0,0-.91-.22Z"/><path class="cls-4" d="M12.85,232.56a1,1,0,0,1-1-1l-.11-60.28-1.86-.77a1,1,0,0,1-.62-.92V141.31a1,1,0,0,1,.54-.89l1.23-.64a1,1,0,0,1,.46-.11,1.07,1.07,0,0,1,.52.14,1,1,0,0,1,.48.86v22.49l1.06-.48a1,1,0,0,1,.41-.09,1.06,1.06,0,0,1,.54.16,1,1,0,0,1,.46.84v68a1,1,0,0,1-1,1Z"/><path class="cls-3" d="M11.49,140.67v24L14,163.59v68H12.85l-.11-60.95-2.48-1V141.31l1.23-.64m0-2a1.91,1.91,0,0,0-.93.23l-1.22.64a2,2,0,0,0-1.08,1.77v28.28a2,2,0,0,0,1.24,1.85l1.24.51.11,59.61a2,2,0,0,0,2,2H14a2,2,0,0,0,2-2v-68a2,2,0,0,0-.92-1.68,2,2,0,0,0-1.08-.32,1.84,1.84,0,0,0-.47.06v-21a2,2,0,0,0-1-1.71,2,2,0,0,0-1-.29Z"/><polyline class="cls-5" points="37.79 259 28.43 259 28.43 262.88 23.29 262.88 23.29 266.43 17.85 266.43 17.85 271.88"/><line class="cls-5" x1="22.01" y1="46" x2="22.01" y2="92.29"/><polyline class="cls-5" points="28.26 162.13 28.26 215.5 31.59 215.5"/><path class="cls-4" d="M2,271.87a1,1,0,0,1-1-1V102.58a1,1,0,0,1,.34-.75l3-2.59A1,1,0,0,1,5,99a.85.85,0,0,1,.41.09A1,1,0,0,1,6,100v69.94l.63-.33a.93.93,0,0,1,.46-.12,1,1,0,0,1,1,1V232l1,0a1,1,0,0,1,1,1v37.82a1,1,0,0,1-1,1Z"/><path class="cls-3" d="M5,100V171.6l2.09-1.11V233l2,.07v37.82H2V102.58L5,100m0-2a2,2,0,0,0-1.32.5l-3,2.59a2,2,0,0,0-.68,1.5V270.87a2,2,0,0,0,2,2H9a2,2,0,0,0,2-2V233.05a2,2,0,0,0-1.94-2h0V170.49a2,2,0,0,0-2-2H7V100a2,2,0,0,0-1.18-1.82A2,2,0,0,0,5,98Z"/></g></g></svg>