<?xml version="1.0" encoding="utf-8"?>
<!-- Generator: Adobe Illustrator 16.0.0, SVG Export Plug-In . SVG Version: 6.00 Build 0)  -->
<!DOCTYPE svg PUBLIC "-//W3C//DTD SVG 1.1//EN" "http://www.w3.org/Graphics/SVG/1.1/DTD/svg11.dtd">
<svg version="1.1" id="Layer_1" xmlns="http://www.w3.org/2000/svg" xmlns:xlink="http://www.w3.org/1999/xlink" x="0px" y="0px"
	 width="612px" height="792px" viewBox="0 0 612 792" enable-background="new 0 0 612 792" xml:space="preserve">
<title>Q_binh-thanh</title>
<g id="Layer_2_1_">
	<g id="Landmark">
		<polyline fill="#0F81C2" stroke="#010101" stroke-width="2" stroke-linecap="round" stroke-linejoin="round" points="
			290.601,12.201 279.021,22.239 279.021,129.817 287.771,123.64 		"/>
		<path fill="#08AD84" d="M290.601,115.146c-1.544,0-2.573-1.028-2.573-2.573V14.775c0-0.773,0.257-1.544,1.029-2.06
			c0.515-0.257,1.03-0.515,1.544-0.515c0.258,0,0.516,0,0.516,0l10.294,2.574c1.287,0.257,2.059,1.286,2.059,2.573v95.226
			c0,1.544-1.029,2.573-2.573,2.573H290.601z"/>
		<path fill="#010101" d="M290.601,14.775l10.295,2.573v94.968h-10.295V14.775 M290.601,9.628c-2.83,0-5.147,2.316-5.147,5.147
			v97.798c0,2.831,2.317,5.147,5.147,5.147h10.295c2.831,0,5.146-2.316,5.146-5.147V17.348c0-2.315-1.543-4.117-3.859-4.889
			l-10.295-2.574C291.374,9.885,291.117,9.628,290.601,9.628L290.601,9.628z"/>
		<path fill="#08AD84" d="M258.431,709.145c-1.545,0-2.574-1.029-2.574-2.573V273.426c0-0.772,0.257-1.543,0.772-2.058l7.721-6.692
			c0.514-0.514,1.029-0.514,1.801-0.514h2.574v-115.3c0-0.771,0.257-1.286,0.772-1.801l2.574-2.83v-8.237
			c0-0.771,0.514-1.544,1.029-2.058l4.891-3.603c0.515-0.258,1.03-0.515,1.544-0.515h1.286v-8.493c0-0.771,0.515-1.802,1.287-2.059
			l4.118-2.831v-6.177c0-0.771,0.515-1.801,1.287-2.058l4.118-2.574c0.514-0.258,0.772-0.258,1.287-0.258h0.257l7.464,1.029v-1.801
			c0-0.772,0.257-1.544,1.029-2.059c0.515-0.516,1.029-0.516,1.544-0.516h0.515l11.581,2.059c1.287,0.258,2.059,1.287,2.059,2.574
			v13.382l2.831,0.257c1.286,0.258,2.317,1.287,2.317,2.573c0,31.657-0.258,110.924,0,124.822l5.146,0.258
			c1.287,0,2.317,1.287,2.317,2.574V417.55l10.809-0.256c0.772,0,1.288,0.256,1.802,0.771c0.514,0.515,0.771,1.028,0.771,1.801
			v167.285h2.83c1.546,0,2.575,1.032,2.575,2.575v36.03h2.573c0.771,0,1.285,0.258,1.801,0.773c0.515,0.515,0.772,1.029,0.772,1.801
			v45.296c0,1.545-1.03,2.574-2.573,2.574h-0.773l-0.514,30.627c0,1.543-1.029,2.572-2.573,2.572L258.431,709.145z"/>
		<path fill="#010101" d="M302.697,104.595l11.582,2.059v15.699l5.147,0.514c0,0-0.516,127.396,0,127.396
			c0.515,0,7.462,0.516,7.462,0.516V420.64l13.384-0.258v169.345l5.404,0.258v38.604h5.147v45.038h-3.603l-0.516,33.201h-88.017
			V273.426l7.72-6.691h5.148V148.861l3.088-3.603v-9.266l4.632-3.603h3.861v-11.067l5.404-3.603V110l4.118-2.574l10.294,1.287
			L302.697,104.595 M302.697,99.448c-1.287,0-2.315,0.515-3.346,1.286c-0.772,0.773-1.543,1.803-1.801,2.832l-4.633-0.515h-0.772
			c-1.029,0-1.802,0.258-2.573,0.772l-4.118,2.573c-1.544,1.03-2.316,2.575-2.316,4.375v4.633l-3.088,2.059
			c-1.544,1.029-2.317,2.573-2.317,4.375v6.176c-0.514,0.258-1.286,0.515-1.802,0.772l-4.889,3.346
			c-1.288,1.03-2.059,2.574-2.059,4.118v7.207l-1.801,2.059c-0.772,1.029-1.287,2.317-1.287,3.345v112.984
			c-1.287,0-2.315,0.515-3.346,1.286l-7.722,6.692c-1.028,1.029-1.801,2.316-1.801,3.86v433.145c0,2.832,2.317,5.146,5.147,5.146
			h88.275c2.832,0,5.148-2.314,5.148-5.146l0.514-28.31c2.06-0.771,3.347-2.575,3.604-4.892v-45.296c0-2.83-2.316-5.146-5.148-5.146
			v-33.459c0-2.831-2.314-5.146-4.89-5.146h-0.257V420.123c0-2.829-2.316-5.146-5.147-5.146l0,0h-8.234V250.521
			c0-2.832-2.059-4.89-4.892-5.148l-2.573-0.257c-0.256-16.986,0-79.525,0-122.505c0-2.575-2.058-4.89-4.632-5.147h-0.515v-11.067
			c0-2.573-1.802-4.632-4.376-5.147l-11.581-1.801C303.212,99.448,302.955,99.448,302.697,99.448L302.697,99.448z"/>
		<path fill="#0F81C2" d="M297.035,434.794c-1.543,0-2.572-1.029-2.572-2.575l-1.03-56.104l-2.831-1.802
			c-0.772-0.514-1.029-1.286-1.029-2.058V132.133l-5.662-1.801c-1.029-0.258-1.802-1.287-1.802-2.574v-6.949
			c0-0.772,0.258-1.288,0.772-1.801l2.573-2.832v-5.919c0-0.771,0.257-1.544,0.772-2.058l4.117-3.604
			c0.516-0.515,1.03-0.515,1.544-0.515c0.257,0,0.772,0,1.03,0.258c1.03,0.515,1.544,1.287,1.544,2.316v0.772l0.257-0.258
			c0.515-0.514,1.03-0.772,1.802-0.772c0.258,0,0.773,0,1.03,0.258c1.029,0.514,1.544,1.286,1.544,2.317v166.771l0.515-0.515
			c0.515-0.257,1.03-0.515,1.544-0.515c0.514,0,0.772,0,1.287,0.257c0.772,0.514,1.287,1.287,1.287,2.315v154.676
			c0,1.546-1.03,2.574-2.574,2.574L297.035,434.794z"/>
		<path fill="#010101" d="M292.403,106.911v7.207l4.631-4.89V280.89l4.891-3.604v154.676h-4.891l-1.028-57.393l-3.861-2.572V130.074
			l-7.463-2.316v-6.949l3.346-3.345v-7.207L292.403,106.911 M292.403,101.764c-1.287,0-2.316,0.515-3.346,1.287l-4.118,3.604
			c-1.029,1.029-1.801,2.317-1.801,3.86v4.891l-2.06,2.059c-1.029,1.029-1.543,2.315-1.543,3.603v6.948
			c0,2.317,1.543,4.118,3.603,4.89l3.86,1.287v238.063c0,1.801,0.773,3.345,2.316,4.117l1.545,1.029l0.772,54.561
			c0,2.832,2.315,5.148,5.147,5.148h4.889c2.832,0,5.147-2.316,5.147-5.148V277.286c0-2.058-1.03-3.603-2.831-4.633
			c-0.515-0.256-1.288-0.514-2.06-0.514V109.228c0-2.06-1.286-4.119-3.088-4.89c-0.515-0.258-1.286-0.258-2.058-0.258h-0.515
			C295.749,102.794,293.947,101.764,292.403,101.764L292.403,101.764z"/>
		<path fill="#0F81C2" d="M271.042,265.448c-0.257,0-0.772,0-1.029-0.257c-0.773-0.516-1.544-1.287-1.544-2.316V148.861
			c0-0.771,0.257-1.286,0.771-1.801l2.575-2.83v-8.237c0-0.771,0.514-1.544,1.028-2.058l4.633-3.603
			c0.515-0.258,1.03-0.515,1.545-0.515c1.543,0,2.573,1.029,2.573,2.574v123.792c0,0.773-0.258,1.544-1.03,2.059l-7.979,6.434
			C272.329,265.448,271.814,265.448,271.042,265.448z"/>
		<path fill="#010101" d="M279.021,132.648v123.792l-7.979,6.435V148.861l3.088-3.603v-9.266L279.021,132.648 M279.021,127.5
			c-1.03,0-2.06,0.257-3.089,1.029l-4.633,3.346c-1.286,1.029-2.059,2.574-2.059,4.118v7.207l-1.801,2.059
			c-0.772,1.029-1.287,2.317-1.287,3.345v114.271c0,2.058,1.03,3.86,2.831,4.632c0.771,0.257,1.544,0.515,2.315,0.515
			c1.287,0,2.317-0.515,3.089-1.287l7.979-6.434c1.029-1.029,1.801-2.316,1.801-3.861V132.648c0-2.059-1.029-3.603-2.831-4.633
			C280.564,127.758,279.792,127.5,279.021,127.5z"/>
		<path fill="#0F81C2" d="M286.483,607.999c-1.544,0-2.573-1.028-2.573-2.573l-0.257-155.189l-4.89-2.06
			c-1.03-0.516-1.544-1.287-1.544-2.317v-72.833c0-1.029,0.514-1.803,1.287-2.317l3.088-1.543c0.257-0.257,0.772-0.257,1.287-0.257
			s1.029,0,1.286,0.257c0.772,0.515,1.287,1.287,1.287,2.315v57.907l2.832-1.287c0.257-0.257,0.771-0.257,1.029-0.257
			c0.514,0,1.029,0.257,1.286,0.515c0.772,0.514,1.287,1.286,1.287,2.06v175.007c0,1.545-1.029,2.573-2.573,2.573H286.483z"/>
		<path fill="#010101" d="M282.881,371.481v61.769l6.434-2.831v175.007h-2.832l-0.257-156.734l-6.434-2.573v-72.834L282.881,371.481
			 M282.881,366.335c-0.772,0-1.545,0.258-2.317,0.515l-3.088,1.543c-1.801,0.773-2.831,2.575-2.831,4.634v72.833
			c0,2.06,1.286,3.862,3.088,4.891l3.088,1.286l0.259,153.39c0,2.831,2.315,5.147,5.146,5.147h2.831
			c2.831,0,5.147-2.316,5.147-5.147V430.419c0-1.802-0.772-3.345-2.316-4.376c-0.771-0.516-1.801-0.771-2.831-0.771
			c-0.515,0-0.771,0-1.286,0.256v-54.046c0-1.801-1.03-3.604-2.574-4.375C284.683,366.593,283.91,366.335,282.881,366.335
			L282.881,366.335z"/>
		<polyline fill="none" stroke="#010101" stroke-width="2" stroke-linecap="round" stroke-linejoin="round" points="
			350.566,676.201 326.375,676.201 326.375,685.98 313.25,685.98 313.25,695.246 299.352,695.246 299.352,709.145 		"/>
		
			<line fill="none" stroke="#010101" stroke-width="2" stroke-linecap="round" stroke-linejoin="round" x1="309.905" y1="128.015" x2="309.905" y2="247.174"/>
		<polyline fill="none" stroke="#010101" stroke-width="2" stroke-linecap="round" stroke-linejoin="round" points="
			326.117,426.816 326.117,564.248 334.609,564.248 		"/>
		<path fill="#0F81C2" d="M258.431,709.145c-1.545,0-2.574-1.029-2.574-2.573V273.426c0-0.772,0.257-1.543,0.772-2.058l7.721-6.692
			c0.514-0.514,1.029-0.514,1.801-0.514c0.257,0,0.772,0,1.03,0.257c1.029,0.515,1.544,1.288,1.544,2.317v179.897l1.544-0.772
			c0.257-0.258,0.772-0.258,1.287-0.258c1.544,0,2.573,1.03,2.573,2.575v158.278h2.574c1.544,0,2.573,1.03,2.573,2.573v97.284
			c0,1.546-1.029,2.574-2.573,2.574L258.431,709.145z"/>
		<path fill="#010101" d="M266.152,266.992v184.271l5.405-2.83v160.853l5.147,0.257v97.285h-18.273V273.426L266.152,266.992
			 M266.152,261.845c-1.287,0-2.573,0.515-3.346,1.286l-7.721,6.692c-1.029,1.029-1.801,2.316-1.801,3.86v433.145
			c0,2.83,2.316,5.146,5.147,5.146h18.016c2.83,0,5.146-2.316,5.146-5.146v-97.285c0-2.83-2.316-5.145-4.89-5.145l0,0V448.434
			c0-2.832-2.316-5.147-5.147-5.147h-0.259V266.992c0-2.06-1.286-3.861-3.087-4.632
			C267.696,261.845,266.924,261.845,266.152,261.845z"/>
	</g>
</g>
</svg>
