<svg id="Landmark" xmlns="http://www.w3.org/2000/svg" viewBox="0 0 360 360"><defs><style>.cls-1{fill:#0f81c2;}.cls-1,.cls-3,.cls-4{stroke:#010101;stroke-linecap:round;stroke-linejoin:round;stroke-width:2px;}.cls-2,.cls-3{fill:#08ad84;}.cls-4{fill:#8683bf;}</style></defs><path class="cls-1" d="M126.29,103.21s105.61-7.45,200.13,47.05C183,150.26,33,150,33,150s37.45-28.63,99.87-34.19"/><path class="cls-2" d="M140.4,114.65,157,144.4s-1.81-21.63,15.85-29.37C150.52,112.57,140.4,114.65,140.4,114.65Z"/><path class="cls-2" d="M169,144.4c2.36-20.81,17.18-27.51,17.18-27.51s-1.82-.19-5.91-.69c-16.18,5.6-18.11,28.2-18.11,28.2Z"/><path class="cls-2" d="M182.15,144.4a35.38,35.38,0,0,1,17-25.74,37.67,37.67,0,0,0-6-1c-16.27,6.06-17.58,26.74-17.58,26.74Z"/><path class="cls-2" d="M218.35,135.12a8.63,8.63,0,1,1-7.17-9.86A8.62,8.62,0,0,1,218.35,135.12Z"/><circle class="cls-2" cx="238.06" cy="135.79" r="6.61" transform="translate(67.92 350.66) rotate(-81.33)"/><path class="cls-2" d="M266.36,138.41a4.73,4.73,0,1,1-3.94-5.42A4.74,4.74,0,0,1,266.36,138.41Z"/><path class="cls-3" d="M135.4,120.63,131.34,113S79.19,113.77,33,150C57.79,137.93,94.45,122.15,135.4,120.63Z"/><path class="cls-3" d="M127,106.58,122.46,99s117.56-6.08,204,51.28C270.65,118.26,170.83,101.76,127,106.58Z"/><rect class="cls-1" x="51.43" y="164.89" width="254.96" height="71.07"/><rect class="cls-3" x="47.45" y="204.72" width="262.92" height="31.23"/><rect class="cls-4" x="47.45" y="164.89" width="7.96" height="71.07"/><rect class="cls-4" x="89.95" y="164.89" width="7.96" height="71.07"/><rect class="cls-4" x="132.44" y="164.89" width="7.96" height="71.07"/><rect class="cls-4" x="174.93" y="164.89" width="7.96" height="71.07"/><rect class="cls-4" x="217.43" y="164.89" width="7.96" height="71.07"/><rect class="cls-4" x="259.92" y="164.89" width="7.96" height="71.07"/><rect class="cls-4" x="302.42" y="164.89" width="7.96" height="71.07"/><rect class="cls-3" x="44.65" y="150.26" width="268.53" height="17.32"/><line class="cls-1" x1="53.84" y1="163.33" x2="53.84" y2="155.33"/><line class="cls-1" x1="63.85" y1="163.33" x2="63.85" y2="155.33"/><line class="cls-1" x1="73.85" y1="163.33" x2="73.85" y2="155.33"/><line class="cls-1" x1="83.86" y1="163.33" x2="83.86" y2="155.33"/><line class="cls-1" x1="93.86" y1="163.33" x2="93.86" y2="155.33"/><line class="cls-1" x1="103.87" y1="163.33" x2="103.87" y2="155.33"/><line class="cls-1" x1="113.88" y1="163.33" x2="113.88" y2="155.33"/><line class="cls-1" x1="123.88" y1="163.33" x2="123.88" y2="155.33"/><line class="cls-1" x1="133.89" y1="163.33" x2="133.89" y2="155.33"/><line class="cls-1" x1="143.89" y1="163.33" x2="143.89" y2="155.33"/><line class="cls-1" x1="153.9" y1="163.33" x2="153.9" y2="155.33"/><line class="cls-1" x1="163.9" y1="163.33" x2="163.9" y2="155.33"/><line class="cls-1" x1="173.91" y1="163.33" x2="173.91" y2="155.33"/><line class="cls-1" x1="183.92" y1="163.33" x2="183.92" y2="155.33"/><line class="cls-1" x1="193.92" y1="163.33" x2="193.92" y2="155.33"/><line class="cls-1" x1="203.93" y1="163.33" x2="203.93" y2="155.33"/><line class="cls-1" x1="213.93" y1="163.33" x2="213.93" y2="155.33"/><line class="cls-1" x1="223.94" y1="163.33" x2="223.94" y2="155.33"/><line class="cls-1" x1="233.95" y1="163.33" x2="233.95" y2="155.33"/><line class="cls-1" x1="243.95" y1="163.33" x2="243.95" y2="155.33"/><line class="cls-1" x1="253.96" y1="163.33" x2="253.96" y2="155.33"/><line class="cls-1" x1="263.96" y1="163.33" x2="263.96" y2="155.33"/><line class="cls-1" x1="273.97" y1="163.33" x2="273.97" y2="155.33"/><line class="cls-1" x1="283.97" y1="163.33" x2="283.97" y2="155.33"/><line class="cls-1" x1="293.98" y1="163.33" x2="293.98" y2="155.33"/><line class="cls-1" x1="303.99" y1="162.98" x2="303.99" y2="154.99"/><rect class="cls-1" x="47.48" y="234.09" width="262.9" height="9.08"/><rect class="cls-4" x="43.06" y="243.03" width="271.75" height="9.08"/><rect class="cls-1" x="40.18" y="252.12" width="279.02" height="9.08"/></svg>