<svg xmlns="http://www.w3.org/2000/svg" viewBox="0 0 357.01 172.28"><defs><style>.cls-1{fill:#2f5d9d;}.cls-2{fill:#010101;}.cls-3{fill:#01916f;}.cls-4{fill:none;}.cls-4,.cls-6{stroke:#010101;stroke-linecap:round;stroke-linejoin:round;stroke-width:2px;}.cls-5{fill:#8683bf;}.cls-6,.cls-7{fill:#08ad84;}.cls-8{fill:#0c81c3;}</style></defs><title>Q_02</title><g id="Layer_2" data-name="Layer 2"><g id="Landmark"><path class="cls-1" d="M59.23,163.19c-.35,0-1.18,0-12.19-6s-11.16-6.33-11.26-6.89a1,1,0,0,1,.14-.69c.06-.25.15-.87.24-1.42.58-3.89,1.66-11.12,5.76-11.12s6.42-.95,7.5-3S60,108,64.94,95.52a1,1,0,0,1,.79-.62c6.66-.91,20.71-1.52,35-1.52,3.25,0,6.48,0,9.62.1a1,1,0,0,1,1,.81l1.47,7.72a.93.93,0,0,1,0,.44L98.46,156.7a1,1,0,0,1-.82.74c-14.72,2.14-37,5.43-38.09,5.7A1.77,1.77,0,0,1,59.23,163.19Z"/><path class="cls-2" d="M100.69,94.38c3.15,0,6.37,0,9.6.1l1.47,7.72L97.5,156.45s-37.35,5.44-38.23,5.73h0c-1.36,0-22.89-11.92-22.45-12.06s.88-12.06,5.14-12.06,7.06-1,8.38-3.53S65.87,95.89,65.87,95.89c6.19-.84,19.82-1.51,34.82-1.51m0-2c-14.29,0-28.4.62-35.09,1.53A2,2,0,0,0,64,95.16c-5.71,14.49-14.54,36.69-15.47,38.45-.56,1.06-1.86,2.46-6.62,2.46-5,0-6.13,7.79-6.75,12-.07.43-.14,1-.2,1.22a2,2,0,0,0-.17,1.2c.18,1.15.21,1.32,11.76,7.61,11.23,6.12,12.06,6.12,12.67,6.12a2.16,2.16,0,0,0,.56-.08c1.47-.32,23.5-3.57,38-5.68A2,2,0,0,0,99.43,157l14.26-54.25a1.87,1.87,0,0,0,0-.88l-1.47-7.73a2,2,0,0,0-1.92-1.62c-3.15-.06-6.39-.1-9.64-.1Z"/><path class="cls-3" d="M340.54,146.26l-21.32-2a1,1,0,0,1-.91-1.06l.9-13.61a1,1,0,0,1,1-.94h7.41a1,1,0,0,1,.42.09l10.7,4.94a1,1,0,0,1,.53,1.21l-1.07,3.46,2.07.85a1,1,0,0,1,.61.76c.23,1.4.76,4.71.76,5.26a1,1,0,0,1-.33.74,1,1,0,0,1-.67.26Z"/><path class="cls-2" d="M327.61,129.69l10.7,4.94L337,139l2.92,1.2s.75,4.56.75,5.09l-21.32-1.95.89-13.62h7.41m0-2H320.2a2,2,0,0,0-2,1.87l-.9,13.61a2,2,0,0,0,1.81,2.13l21.33,1.95h.18a2,2,0,0,0,1.35-.52,2,2,0,0,0,.65-1.48c0-.46-.26-2.28-.78-5.42a2,2,0,0,0-1.21-1.52l-1.23-.51.81-2.59a2,2,0,0,0-1.07-2.41l-10.7-4.93a2,2,0,0,0-.84-.19Z"/><path class="cls-3" d="M350.28,151c-1,0-1.82,0-1.82,0l-.16,0-22.45-4.5a1,1,0,0,1-.75-.68,1,1,0,0,1,.24-1l5.85-6a1,1,0,0,1,.71-.3.94.94,0,0,1,.37.07c23.47,9.25,23.59,9.95,23.72,10.62a1.16,1.16,0,0,1-.26,1C355.43,150.47,355,151,350.28,151Z"/><path class="cls-2" d="M331.9,139.46s23,9,23.1,9.87c.1.55-2.76.64-4.72.64-1,0-1.79,0-1.79,0l-22.44-4.5,5.85-6m0-2a2,2,0,0,0-1.43.6l-5.85,6a2,2,0,0,0,1,3.35l22.44,4.5a1.24,1.24,0,0,0,.33,0s.8,0,1.85,0c4.42,0,5.53-.4,6.22-1.22A2.16,2.16,0,0,0,357,149c-.24-1.32-.29-1.59-12.81-6.74-5.71-2.35-11.47-4.62-11.52-4.64a1.91,1.91,0,0,0-.74-.14Z"/><path class="cls-4" d="M245.21,66.11c4-5.91,6.4-33.63,5.57-43.13"/><path class="cls-5" d="M260.71,30.53a.84.84,0,0,1-.27,0,79.35,79.35,0,0,0-8.27-.36,1,1,0,0,1-.74-.34,1,1,0,0,1-.24-.79,32.91,32.91,0,0,0,0-5.72,1,1,0,0,1,.3-.82,1,1,0,0,1,.69-.28h.14c1.43.21,8.34,2.19,9.12,2.42a1,1,0,0,1,.71.79,9.94,9.94,0,0,1-.5,4.48A1,1,0,0,1,260.71,30.53Z"/><path class="cls-2" d="M252.18,23.18c1.4.2,9,2.39,9,2.39a9,9,0,0,1-.45,4c-1.13-.32-8.53-.4-8.53-.4a33.14,33.14,0,0,0,0-5.95m0-2a2,2,0,0,0-2,2.19,31.22,31.22,0,0,1,0,5.51,2,2,0,0,0,.47,1.56,2,2,0,0,0,1.49.69c3.3,0,7.32.17,8,.33a1.68,1.68,0,0,0,.54.08,2,2,0,0,0,1.85-1.32,10.83,10.83,0,0,0,.54-5,2,2,0,0,0-1.42-1.58c-1.28-.37-7.78-2.24-9.25-2.45l-.28,0Z"/><polyline class="cls-4" points="295.61 90.79 295.61 80.9 268.08 80.9"/><line class="cls-4" x1="288.6" y1="80.9" x2="288.6" y2="90.61"/><line class="cls-4" x1="295.61" y1="83.86" x2="288.6" y2="83.86"/><line class="cls-4" x1="295.61" y1="87.26" x2="288.6" y2="87.26"/><line class="cls-4" x1="275.64" y1="80.9" x2="275.64" y2="90.61"/><line class="cls-4" x1="275.64" y1="84.4" x2="266.24" y2="84.4"/><line class="cls-4" x1="275.64" y1="87.72" x2="266.7" y2="87.72"/><polyline class="cls-6" points="275.9 71.28 263.49 75.91 224.12 76.49 215.69 74.79 216.6 73.43"/><path class="cls-3" d="M253.49,94.27a1,1,0,0,1-1-1V70.57a1,1,0,0,1,1-1l15.84.71a1,1,0,0,1,.91,1.27L266.36,85l3,8a1,1,0,0,1-.11.92,1,1,0,0,1-.83.43Z"/><path class="cls-2" d="M253.48,70.57l15.8.71-4,13.72,3.14,8.27h-15V70.57m0-2a2,2,0,0,0-2,2v22.7a2,2,0,0,0,2,2h15a2,2,0,0,0,1.87-2.71l-2.9-7.64,3.78-13.09a2,2,0,0,0-.29-1.72,2,2,0,0,0-1.54-.83l-15.8-.71Z"/><path class="cls-7" d="M225.45,94.77a1,1,0,0,1-.74-.33,1,1,0,0,1-.26-.78l1-8.39-3.94-12.2a1,1,0,0,1,.11-.85,1,1,0,0,1,.73-.45l21.87-2.48h.15l9.18.29a1,1,0,0,1,1,1v22.7a1,1,0,0,1-1,1Z"/><path class="cls-2" d="M244.3,70.28l9.18.29v22.7l-28,.5,1-8.6-4-12.41,21.87-2.48m0-2-.22,0-21.87,2.48a2,2,0,0,0-1.68,2.6l3.87,12-.94,8.17a2,2,0,0,0,2,2.23h0l28-.5a2,2,0,0,0,2-2V70.57a2,2,0,0,0-1.93-2l-9.18-.29Z"/><path class="cls-8" d="M229.63,84.89a1,1,0,0,1-.95-.67l-2.19-6.28a1,1,0,0,1,.1-.86,1,1,0,0,1,.72-.46l11.84-1.47h.13a1,1,0,0,1,1,.73l1.81,6.59a1,1,0,0,1-.14.83,1,1,0,0,1-.72.43l-11.46,1.17Z"/><path class="cls-2" d="M239.28,76.14l1.81,6.58-11.46,1.17-2.19-6.28,11.84-1.47m0-2a1.06,1.06,0,0,0-.25,0l-11.84,1.47a2,2,0,0,0-1.45.92,2,2,0,0,0-.19,1.72l2.19,6.28a2,2,0,0,0,1.89,1.34h.2l11.46-1.17a2,2,0,0,0,1.45-.86,2,2,0,0,0,.28-1.66l-1.81-6.58a2,2,0,0,0-1.93-1.47Z"/><path class="cls-8" d="M246.36,83.57a1,1,0,0,1-1-.75l-1.8-6.93a1,1,0,0,1,1-1.25l5.67.13a1,1,0,0,1,1,1v6.8a1,1,0,0,1-1,1Z"/><path class="cls-2" d="M244.55,75.64l5.64.13v6.8h-3.83l-1.81-6.93m0-2a2,2,0,0,0-1.93,2.51l1.8,6.93a2,2,0,0,0,1.94,1.49h3.83a2,2,0,0,0,2-2v-6.8a2,2,0,0,0-1.95-2l-5.69-.13Z"/><path class="cls-8" d="M262.46,84.05l-3.69-.36a1,1,0,0,1-.9-1V75.93a1,1,0,0,1,.31-.72,1,1,0,0,1,.69-.28l5.65.22a1,1,0,0,1,.77.41,1,1,0,0,1,.16.86l-1.92,6.9a1,1,0,0,1-1,.74Z"/><path class="cls-2" d="M258.87,75.93l5.61.22-1.92,6.91-3.69-.37V75.93m0-2a2,2,0,0,0-2,2v6.76a2,2,0,0,0,1.8,2l3.69.37h.2a2,2,0,0,0,1.93-1.47l1.92-6.9a2,2,0,0,0-1.85-2.54L259,73.93Z"/><path class="cls-7" d="M243.26,69.17a1,1,0,0,1-.72-.3,1,1,0,0,1-.28-.73l.42-14.44-.42,0a1.05,1.05,0,0,1-.71-.29,1,1,0,0,1-.29-.75l.06-1.44a1,1,0,0,1,.78-.94l.69-.15.6-22.09-.34-.34a1,1,0,0,1-.3-.79l.08-1.08-2.2.47-.21,0a1,1,0,0,1-1-1v-1a1,1,0,0,1,.73-1l3.07-.87.18-2.85a1,1,0,0,1,.86-.93l1.64-.23H246a1,1,0,0,1,1,1v2.22l3.52-.79a.78.78,0,0,1,.22,0,1,1,0,0,1,.62.22,1,1,0,0,1,.38.78V23a1,1,0,0,1-.78,1l-3.95.93L247,33.22l.16,0,1.3-.18h.14a1,1,0,0,1,1,1l-.1,3.52a1,1,0,0,1-.82,1l-1.7.3.24,11.15,2.7,0a1,1,0,0,1,.7.29,1,1,0,0,1,.3.71v1a1,1,0,0,1-.68.94l-2.14.74a1.1,1.1,0,0,1-.26.06l-.54,0,.17,14.51a1,1,0,0,1-.29.72,1,1,0,0,1-.71.29Z"/><path class="cls-2" d="M246,19.47v3.47l4.74-1.07V23l-4.72,1.11-.14,12.21,1.34-.14v-2l1.3-.18-.1,3.51-2.54.46.28,13,3.68-.05v1l-2.14.74-1.49.09.18,15.46h-3.17l.45-15.51-1.45.06.06-1.44,1.45-.32.63-23.31-.65-.64.18-2.41-3.51.74v-1l3.75-1.06.23-3.56,1.64-.23M248.56,34h0M246,17.47l-.28,0-1.64.23a2,2,0,0,0-1.71,1.85l-.14,2.15-2.4.68a2,2,0,0,0-1.45,1.92v1a2,2,0,0,0,.74,1.55,2,2,0,0,0,1.26.45,1.84,1.84,0,0,0,.41,0l.92-.2a2,2,0,0,0,.59,1.33l0,0-.57,20.88a2,2,0,0,0-1.49,1.86l-.06,1.44a2,2,0,0,0,.59,1.49,1.85,1.85,0,0,0,.8.49l-.39,13.5a2,2,0,0,0,2,2h3.17a2,2,0,0,0,2-2l-.16-13.6.12,0,2.14-.74a2,2,0,0,0,1.35-1.89v-1a2,2,0,0,0-2-2h0l-1.69,0-.2-9.3.86-.16a2,2,0,0,0,1.64-1.92l.09-3.41a.76.76,0,0,0,0-.15,2,2,0,0,0-2-2h-.05l-.27,0-.27,0,.07-6.37,3.19-.75A2,2,0,0,0,252.78,23V21.87a2,2,0,0,0-.75-1.56,2,2,0,0,0-1.25-.44,2.12,2.12,0,0,0-.44.05l-2.3.52v-1a2,2,0,0,0-2-2Z"/><line class="cls-6" x1="248.69" y1="54.05" x2="262.7" y2="66.15"/><path class="cls-7" d="M216.6,74.43a1,1,0,0,1-1-.73l-.91-3.14a1,1,0,0,1,.82-1.27l28.61-4.13h.14a1,1,0,0,1,1,1v4.13a1,1,0,0,1-.88,1l-27.71,3.14Z"/><path class="cls-2" d="M244.3,66.15v4.13l-27.7,3.15-.91-3.15,28.61-4.13m0-2a1.32,1.32,0,0,0-.28,0L215.4,68.3a2,2,0,0,0-1.39.9,2,2,0,0,0-.24,1.64l.91,3.14a2,2,0,0,0,1.92,1.45l.22,0,27.71-3.14a2,2,0,0,0,1.77-2V66.15a2,2,0,0,0-2-2Z"/><path class="cls-3" d="M244.27,71.28a1,1,0,0,1-1-1V66.15a1,1,0,0,1,1-1l26.68-1.08a1,1,0,0,1,.78.38l5,6.2a1,1,0,0,1-.78,1.62Z"/><path class="cls-2" d="M270.94,65.07l5,6.21-31.6-1V66.15l26.64-1.08m0-2h-.09l-26.63,1.08a2,2,0,0,0-1.92,2v4.13a2,2,0,0,0,1.94,2l31.59,1h.07a2,2,0,0,0,1.79-1.11,2,2,0,0,0-.23-2.14l-5-6.21a2,2,0,0,0-1.56-.75Z"/><path class="cls-5" d="M119.44,18.94a1.47,1.47,0,0,1-.75-.21,20.48,20.48,0,0,0-3.91-.3c-2.26,0-2.87-.06-3.29-.57a1.1,1.1,0,0,1-.22-.84c0-.34-.3-3.4-.61-6.12a1,1,0,0,1,.29-.82,1,1,0,0,1,.71-.29h.11c.06,0,5.65.63,8.48.7,2.36.06,3.85.72,4.19,1.88.14.47.18,1.39-1.09,2.25a6.86,6.86,0,0,0-1.52,2.07c-.7,1.2-1.3,2.24-2.39,2.24Z"/><path class="cls-2" d="M111.66,10.79s5.66.63,8.56.71,4.21,1.19,2.57,2.31-2.35,4.13-3.35,4.13a.56.56,0,0,1-.26-.08c-1.12-.63-7-.26-6.93-.67s-.59-6.4-.59-6.4m0-2a2,2,0,0,0-1.42.59,2,2,0,0,0-.57,1.63c.29,2.55.58,5.47.59,6a2.06,2.06,0,0,0,.46,1.44c.7.87,1.54.89,4,.94a25.58,25.58,0,0,1,3.53.23,2.6,2.6,0,0,0,1.15.28c1.67,0,2.51-1.46,3.25-2.74a7,7,0,0,1,1.23-1.74,3,3,0,0,0,1.48-3.37c-.47-1.6-2.29-2.52-5.13-2.59s-8.33-.69-8.39-.7Z"/><path class="cls-4" d="M110.08,7c1.63,7,4,37.67-1.64,50.08"/><path class="cls-7" d="M108.44,58a1,1,0,0,1-.38-.08l-1.9-.78a1,1,0,0,1-.62-1c0-.55,0-7.13,0-11.87l-4.79-1.81a1,1,0,0,1-.65-.93V40.38a1,1,0,0,1,1-1h4.67l-.22-13.24-2.7-1.83a1,1,0,0,1-.44-.83V19.87a1,1,0,0,1,1-1h1.81l-.14-8.66-1.6.86a1,1,0,0,1-1,0,1,1,0,0,1-.52-.78l-.11-1.08a1,1,0,0,1,.53-1L105,6.93l0-3.71a1,1,0,0,1,.54-.88l2.34-1.23a1.12,1.12,0,0,1,.47-.11,1,1,0,0,1,1,1V3.86a1,1,0,0,1-.53.88l-1,.52,0,.35,1.77-1a1,1,0,0,1,.49-.13,1,1,0,0,1,1,1V7a1,1,0,0,1-.61.92L108,8.94l1.13,30.38h.57a1,1,0,0,1,.69.28,1,1,0,0,1,.31.72v1.75a1,1,0,0,1-.93,1l-.58,0L109.44,57a1,1,0,0,1-.44.84A1,1,0,0,1,108.44,58Z"/><path class="cls-2" d="M108.33,2V3.86l-1.46.78-.14,2.72,3.35-1.86V7L107,8.29l1.19,32.06,1.53,0v1.75l-1.53.11.3,14.86-1.9-.79c0-.18,0-12.65,0-12.65l-5.44-2.05V40.38h5.69l-.25-14.78-3.13-2.12V19.87h1.86l-.11,3.28,1.12-.19-.22-14.41L103,10.19l-.11-1.08,3-1.56,0-4.32L108.33,2m0-2a2,2,0,0,0-.93.23l-2.35,1.23A2,2,0,0,0,104,3.21l0,3.11-2,1a2,2,0,0,0-1.08,2L101,10.4A2,2,0,0,0,102.07,12a2,2,0,0,0,.93.23,2,2,0,0,0,1-.24l.16-.08.09,6h-.79a2,2,0,0,0-2,2v3.61a2,2,0,0,0,.88,1.66l2.27,1.54.19,11.7H101.1a2,2,0,0,0-2,2v1.16a2,2,0,0,0,1.3,1.87L104.54,45c0,4.46,0,10.47,0,11.13a2,2,0,0,0,1.24,2l1.9.78a1.82,1.82,0,0,0,.76.16,2,2,0,0,0,1.13-.35,2,2,0,0,0,.87-1.69l-.26-13a2,2,0,0,0,1.49-1.93V40.31a2,2,0,0,0-.61-1.43,2,2,0,0,0-1-.53L109,9.59l1.86-.8A2,2,0,0,0,112.08,7V5.5a2,2,0,0,0-1-1.72,2,2,0,0,0-.76-.26V2a2,2,0,0,0-2-2Z"/><path class="cls-1" d="M118.9,91.7a1,1,0,0,1-1-1l-.41-24.48a1,1,0,0,1,.28-.71,1,1,0,0,1,.72-.3h25a1,1,0,0,1,1,1.3l-4.45,13.91-1.59,10.84a1,1,0,0,1-1,.86Z"/><path class="cls-2" d="M143.57,66.22l-4.47,14-1.6,10.92-18.57-.43-.41-24.48h25m0-2h-25a2,2,0,0,0-1.43.59,2,2,0,0,0-.57,1.44l.41,24.48a2,2,0,0,0,1.95,2l18.58.42h0a2,2,0,0,0,2-1.72l1.58-10.75,4.42-13.84a2,2,0,0,0-1.91-2.6Zm0,4h0Z"/><path class="cls-7" d="M89.24,72.39l-.19,0-16.64-3.3a1,1,0,0,1-.8-.86,1,1,0,0,1,.57-1l15.23-7a.9.9,0,0,1,.42-.1H123l28,3.75a1,1,0,0,1,.06,2l-30.74,6-.18,0Z"/><path class="cls-2" d="M122.83,61l28,3.75-30.74,6-30.88.6L72.6,68.09,87.83,61h35m0-2h-35a2.06,2.06,0,0,0-.84.19L71.76,66.28a2,2,0,0,0,.45,3.77l16.65,3.3a1.61,1.61,0,0,0,.39,0h0l30.89-.6a2.09,2.09,0,0,0,.35,0l30.74-6a2,2,0,0,0-.12-3.94l-28-3.75-.27,0Z"/><path class="cls-7" d="M120,94.6,83.86,91.5A1,1,0,0,1,83,90.18l2.6-7.54L78.18,65.1a1,1,0,0,1,0-.85,1,1,0,0,1,.68-.52l8.73-1.86.15,0,20.51-1.27,12.87,1a1,1,0,0,1,.92,1l.75,27.66a1,1,0,0,1-.11.48L121,94.06a1,1,0,0,1-.89.55Z"/><path class="cls-2" d="M108.28,61.58l12.79,1,.75,27.66-1.74,3.42-36.14-3.1,2.73-7.9L79.1,64.71l8.73-1.87,20.45-1.26m0-2h-.12L87.71,60.85a1.35,1.35,0,0,0-.29,0l-8.74,1.86a2,2,0,0,0-1.42,2.74l7.27,17.19-2.48,7.17a2,2,0,0,0,1.72,2.65l36.14,3.1h.17a2,2,0,0,0,1.78-1.1l1.74-3.41a2,2,0,0,0,.22-1l-.75-27.66a2,2,0,0,0-1.85-1.94l-12.79-.95Z"/><path class="cls-3" d="M139.85,94.11a1.26,1.26,0,0,1-.33,0c-.36-.07-6.12-.83-9.64-1.28a1,1,0,0,1-.87-1l.91-29.17a1,1,0,0,1,.32-.7,1,1,0,0,1,.68-.27l12.89.64a1,1,0,0,1,.74.39,1.06,1.06,0,0,1,.19.81l-3.61,17.64C141.09,94.11,141.09,94.11,139.85,94.11Z"/><path class="cls-2" d="M130.92,62.61l12.84.64L140.13,81s0,12.12-.28,12.12h0C139.6,93,130,91.79,130,91.79l.91-29.18m0-2a2,2,0,0,0-1.36.53,2,2,0,0,0-.64,1.41L128,91.72a2,2,0,0,0,1.74,2c3.4.44,9,1.17,9.65,1.29a1.73,1.73,0,0,0,.45,0c2,0,2.08-1.86,2.15-3.83,0-1,.06-2.43.08-4.2,0-2.58,0-5.16,0-5.88l3.59-17.55a2.06,2.06,0,0,0-.38-1.63,2,2,0,0,0-1.49-.77L131,60.61Z"/><path class="cls-8" d="M97.55,81.19a1,1,0,0,1-.94-.64l-4.3-11a1,1,0,0,1,.1-.92,1,1,0,0,1,.8-.45l13.49-.42a1,1,0,0,1,.94.66l4,11.2a1,1,0,0,1-.12.9,1,1,0,0,1-.81.43Z"/><path class="cls-2" d="M106.7,68.78l4,11.19-13.16.22-4.31-11,13.46-.42m0-2h-.06l-13.46.42a2,2,0,0,0-1.61.9,2,2,0,0,0-.19,1.83l4.3,11a2,2,0,0,0,1.87,1.28h0L110.74,82a2,2,0,0,0,1.61-.86,2,2,0,0,0,.24-1.81l-4-11.19a2,2,0,0,0-1.88-1.33Z"/><path class="cls-8" d="M89.3,81.77a1,1,0,0,1-.92-.61L84,70.83a1,1,0,0,1,0-.86,1,1,0,0,1,.68-.51l3.68-.74.2,0a1,1,0,0,1,.93.63L93.84,80a1,1,0,0,1-.93,1.37c-.24,0-2,.2-3.5.37Z"/><path class="cls-2" d="M88.63,69.7l4.28,10.7c-.37,0-3.61.37-3.61.37L85,70.44l3.68-.74m0-2a1.72,1.72,0,0,0-.39,0l-3.68.74a2,2,0,0,0-1.38,1,2,2,0,0,0-.07,1.71l4.35,10.32a2,2,0,0,0,1.84,1.23h.23c1.42-.17,3.13-.35,3.42-.37a2,2,0,0,0,1.64-.87,2,2,0,0,0,.18-1.87L90.49,69a2,2,0,0,0-1.86-1.26Z"/><path class="cls-8" d="M115.58,81.25a1,1,0,0,1-.91-.67l-4.2-11.79a1,1,0,0,1,.14-.93,1,1,0,0,1,.81-.4l7.35.27a1,1,0,0,1,1,1l.44,11.63a1,1,0,0,1-.29.74,1,1,0,0,1-.71.3Z"/><path class="cls-2" d="M111.42,68.46l7.32.27.44,11.63-3.57-.11-4.19-11.79m0-2a2,2,0,0,0-1.89,2.67l4.19,11.79a2,2,0,0,0,1.83,1.33l3.57.11h.06a2,2,0,0,0,2-2.08l-.45-11.63a2,2,0,0,0-1.92-1.92l-7.32-.27Z"/><path class="cls-8" d="M133.53,81.38a1,1,0,0,1-.72-.31,1,1,0,0,1-.28-.73L133,69.2a1,1,0,0,1,1-1l5.17.06a1,1,0,0,1,.76.36,1,1,0,0,1,.21.82L138,80.56a1,1,0,0,1-1,.82Z"/><path class="cls-2" d="M134,69.24l5.16.06-2.07,11.08h-3.52L134,69.24m0-2a2,2,0,0,0-2,1.92l-.44,11.14a2,2,0,0,0,2,2.08h3.52a2,2,0,0,0,2-1.64l2.07-11.08a2,2,0,0,0-2-2.36L134,67.24Z"/><path class="cls-1" d="M158.43,92.45a1,1,0,0,1-.73-.35,1,1,0,0,1-.23-.79l3.12-22.12-1.08-3.43a1,1,0,0,1,1-1.3l18.67,1a.94.94,0,0,1,.75.41,1,1,0,0,1,.16.84l-.8,3L183.65,92a1.05,1.05,0,0,1-.22.84,1,1,0,0,1-.77.36Z"/><path class="cls-2" d="M160.47,65.46l18.61,1-.85,3.23,4.44,22.49-24.21-.72,3.15-22.34-1.14-3.65m0-2a2,2,0,0,0-1.91,2.6l1,3.22-3.09,21.89a2,2,0,0,0,.45,1.57,2,2,0,0,0,1.47.71l24.21.72h.06a2,2,0,0,0,2-2.39l-4.35-22L181,67a2,2,0,0,0-.32-1.69,2,2,0,0,0-1.51-.82l-18.62-1Z"/><path class="cls-8" d="M154.88,93.17a1,1,0,0,1-.68-.27,1,1,0,0,1-.3-.92l4.27-22.54L157,66.85a1.05,1.05,0,0,1,0-.78,1,1,0,0,1,.56-.54l2.51-1a.94.94,0,0,1,.37-.07,1,1,0,0,1,.7.29l2.37,2.36a1,1,0,0,1,.29.77l-1.36,22.61a1,1,0,0,1-.75.91l-6.58,1.73A.78.78,0,0,1,154.88,93.17Z"/><path class="cls-2" d="M160.47,65.46l2.36,2.36-1.36,22.61-6.59,1.74,4.33-22.85L158,66.45l2.51-1m0-2a1.91,1.91,0,0,0-.74.14l-2.51,1a2,2,0,0,0-1.11,1.09,2,2,0,0,0,0,1.56l1,2.31-4.21,22.23a2,2,0,0,0,2,2.38,1.79,1.79,0,0,0,.51-.07L162,92.36a2,2,0,0,0,1.49-1.81l1.36-22.61a2,2,0,0,0-.59-1.53L161.88,64a2,2,0,0,0-1.41-.58Z"/><path class="cls-2" d="M27.12,110l3.58,4.32L9.43,145.55,8,142.76,27.12,110m0-2H27a2,2,0,0,0-1.57,1L6.25,141.75a2,2,0,0,0,0,1.93l1.45,2.79a2,2,0,0,0,1.65,1.07h.12a2,2,0,0,0,1.65-.88l21.28-31.19a2,2,0,0,0-.12-2.4l-3.58-4.33a2,2,0,0,0-1.54-.72Z"/><path class="cls-3" d="M35.38,155.65a1,1,0,0,1-1-1l.19-32.81H29.26a1,1,0,0,1-1-1V106.22a1,1,0,0,1,1-1H39.79a1,1,0,0,1,.69.28l4.11,3.91a1,1,0,0,1,.31.7l1,44.52a1,1,0,0,1-.28.72,1,1,0,0,1-.72.3Z"/><path class="cls-2" d="M39.79,106.22l4.11,3.91,1,44.52H35.38l.2-33.81H29.26V106.22H39.79m0-2H29.26a2,2,0,0,0-2,2v14.62a2,2,0,0,0,2,2h4.31l-.19,31.8a1.92,1.92,0,0,0,.58,1.42,2,2,0,0,0,1.42.59H44.9a2,2,0,0,0,1.43-.6,1.94,1.94,0,0,0,.57-1.44l-1-44.52a2,2,0,0,0-.62-1.41l-4.11-3.91a2,2,0,0,0-1.38-.55Z"/><path class="cls-7" d="M33.19,155.83c-.46,0-1.56,0-1.79-.93,0-.17-.13-.53.45-32.11a1,1,0,0,1,1-1h2.73a1,1,0,0,1,.71.29,1,1,0,0,1,.29.71l-.2,31.85a1,1,0,0,1-.87,1,19.86,19.86,0,0,1-2.32.19Z"/><path class="cls-2" d="M35.58,122.81h0m0,0-.2,31.84a19.8,19.8,0,0,1-2.19.18c-.44,0-.79,0-.82-.18-.1-.4.48-31.84.48-31.84h2.73m0-2H32.85a2,2,0,0,0-2,2c-.59,31.71-.51,32-.42,32.37.19.77.83,1.69,2.76,1.69a22,22,0,0,0,2.46-.19,2,2,0,0,0,1.73-2l.2-31.75v-.11a2,2,0,0,0-2-2Zm0,4Z"/><path class="cls-8" d="M29,116.13A4.11,4.11,0,0,1,29,108a3.31,3.31,0,0,1,2.4,1.08,1,1,0,0,1,.27.69v4.61a1,1,0,0,1-.27.69A3.31,3.31,0,0,1,29,116.13Z"/><path class="cls-2" d="M29,109a2.27,2.27,0,0,1,1.67.77v4.61a2.27,2.27,0,0,1-1.67.77A3.13,3.13,0,0,1,29,109m0-2a5.11,5.11,0,0,0,0,10.15,4.29,4.29,0,0,0,3.13-1.4,2,2,0,0,0,.54-1.37v-4.61a2,2,0,0,0-.54-1.37A4.29,4.29,0,0,0,29,107Z"/><path class="cls-8" d="M6,149.2a1,1,0,0,1-.64-.23l-.85-.71a1,1,0,0,1-.19-1.32l1.12-1.66-.09-.93a1,1,0,0,1,.16-.66s.49-.74,1-1.44a2.79,2.79,0,0,1,2.21-1,2.9,2.9,0,0,1,2.15,1c1.3,1.45.36,3.76-.11,4.39-1.53,2-2.09,2-2.42,2H8.21a1.85,1.85,0,0,1-.75-.28l-.87.68A1,1,0,0,1,6,149.2Z"/><path class="cls-2" d="M8.7,142.21a1.84,1.84,0,0,1,1.4.64c.92,1,0,2.85-.17,3.12s-1.26,1.62-1.61,1.62h0c-.34,0-.81-.57-.81-.57L6,148.2l-.84-.71s1.21-1.83,1.32-1.94l-.14-1.31s.47-.71,1-1.39a1.8,1.8,0,0,1,1.41-.64m0-2a3.8,3.8,0,0,0-3,1.44c-.53.72-1,1.45-1,1.48a2,2,0,0,0-.33,1.32l.06.56-.92,1.37A2,2,0,0,0,3.84,149l.85.71A1.93,1.93,0,0,0,6,150.2a2,2,0,0,0,1.23-.42l.4-.31a1.72,1.72,0,0,0,.51.11h.21c.86,0,1.7-.4,3.21-2.42.74-1,1.77-3.76.06-5.65a3.83,3.83,0,0,0-2.89-1.31Z"/><polyline class="cls-6" points="65.87 95.89 111.24 99.48 127.5 98.85 110.29 94.48"/><path class="cls-1" d="M192.66,94.77a1,1,0,0,1-1-1.11l3.45-32.11-1.41-4.18a1,1,0,0,1,.14-.92,1,1,0,0,1,.8-.4L215,57a1,1,0,0,1,.73.37,1,1,0,0,1,.21.79L215.1,63l7.39,30.57a1,1,0,0,1-.18.85,1,1,0,0,1-.79.38Z"/><path class="cls-2" d="M194.64,57.05,214.9,58l-.82,5,7.44,30.77H192.66l3.47-32.34-1.49-4.38m0-2a2,2,0,0,0-1.6.8,2,2,0,0,0-.29,1.84l1.34,4-3.42,31.9a2,2,0,0,0,2,2.21h28.86a2,2,0,0,0,1.57-.76,2,2,0,0,0,.37-1.71l-7.34-30.37.76-4.65a2,2,0,0,0-.42-1.58A2,2,0,0,0,215,56l-20.26-.91Z"/><path class="cls-8" d="M188.44,93.53a1,1,0,0,1-.74-.32,1,1,0,0,1-.25-.83l4.63-30.58-1.43-3.55a1,1,0,0,1,0-.82,1,1,0,0,1,.63-.52l3.06-.83.26,0a1,1,0,0,1,.77.36l3.31,4a1,1,0,0,1,.23.71l-2.15,31a1,1,0,0,1-.93.93Z"/><path class="cls-2" d="M194.64,57.05,198,61,195.8,92l-7.36.5,4.67-30.85-1.53-3.8,3.06-.83m0-2a1.86,1.86,0,0,0-.52.07l-3.06.83a2,2,0,0,0-1.27,1,2,2,0,0,0-.06,1.63l1.32,3.3-4.59,30.31a2,2,0,0,0,.51,1.65,2,2,0,0,0,1.47.65h.13l7.36-.5a2,2,0,0,0,1.86-1.86l2.16-31a2,2,0,0,0-.46-1.41l-3.31-4a2,2,0,0,0-1.54-.72Z"/><path class="cls-7" d="M65.87,96.89a1,1,0,0,1-.79-.39,1,1,0,0,1-.17-.91l1.26-4a1,1,0,0,1,.52-.6c.36-.17,4.31-1.69,32.29-1.69,4.23,0,8.85,0,13.75.1a1,1,0,0,1,.86.52,1,1,0,0,1,0,1l-2.43,4a1,1,0,0,1-.85.49c-.2,0-20.14.13-44.37,1.41Z"/><path class="cls-2" d="M99,90.34c4,0,8.61,0,13.74.1l-2.43,4s-19.89.12-44.42,1.41l1.25-4s3.3-1.59,31.86-1.59m0-2v0c-21.4,0-30.93.92-32.73,1.79a2,2,0,0,0-1,1.2l-1.26,4a2,2,0,0,0,1.91,2.61H66c24.2-1.28,44.13-1.41,44.33-1.41a2,2,0,0,0,1.7-1l2.43-4a2,2,0,0,0-1.68-3c-4.91-.07-9.54-.1-13.77-.1Z"/><path class="cls-7" d="M55.71,171.28c-23.91,0-36-5.28-36.54-5.51a1,1,0,0,1-.6-.91v-6.51a1,1,0,0,1,1-1h.79v-3.91a1,1,0,0,1,1-1,1.24,1.24,0,0,1,.27,0c1.19.33,9.08.54,19.65.54,9.26,0,15.81-.17,16.71-.33a9.42,9.42,0,0,1,3-.24c1.35,0,3.11,0,5.1.09,2.58.05,5.5.12,8.41.12l2.91,0c3.18-.46,28.29-4.08,30.13-4.08h.13c2.9,0,103-4.81,162.74-7.68,28.64-1.38,49.34-2.37,50.66-2.42s2.84-.07,4.7-.07c3.16,0,6.08.07,6.11.07a1,1,0,0,1,1,1v5.21a1,1,0,0,1-.54.89,47.49,47.49,0,0,1-7.19,3c-.77.22-.79.36-.57,1.42.14.7.44,2.16-1,2.64s-8.66,1.9-45,4.93c-34.37,2.87-183.5,12-214.49,13.52C61.26,171.21,58.44,171.28,55.71,171.28Z"/><path class="cls-2" d="M325.82,139.38c3.19,0,6.08.08,6.08.08v5.21a46.72,46.72,0,0,1-7,2.93c-2.93.81-.16,3.58-1.63,4.07s-9.61,2-44.78,4.89S93.5,168.61,64,170.07c-2.92.15-5.69.21-8.32.21-24,0-36.14-5.42-36.14-5.42v-6.51h1.8v-4.91c1.5.41,10.93.57,19.9.57,8.5,0,16.58-.15,17.06-.39a10.7,10.7,0,0,1,2.71-.18c3.09,0,8.33.21,13.52.21,1,0,2,0,3,0,0,0,28.21-4.07,30-4.07h.14c4.1,0,209.22-9.94,213.42-10.1,1.42-.06,3.08-.08,4.67-.08m0-2c-1.87,0-3.47,0-4.74.08s-21.79,1-50.13,2.39c-59.69,2.87-159.38,7.65-163.17,7.7h-.19c-1.86,0-25.2,3.35-30.21,4.08l-2.82,0c-2.91,0-5.82-.07-8.39-.12-2-.05-3.76-.09-5.13-.09a10.74,10.74,0,0,0-3.31.27c-1.2.15-7.65.3-16.46.3-11.39,0-18.37-.25-19.39-.5a2,2,0,0,0-2.51,1.93v2.92a2,2,0,0,0-1.8,2v6.51a2,2,0,0,0,1.19,1.83c.51.23,12.83,5.59,37,5.59,2.75,0,5.58-.07,8.42-.21,31-1.54,180.17-10.66,214.53-13.52,36.47-3,43.79-4.5,45.24-5,1.05-.35,2.19-1.29,1.68-3.79,0-.08,0-.18-.06-.28a47,47,0,0,0,7.3-3.06,2,2,0,0,0,1.08-1.77v-5.21a2,2,0,0,0-1.95-2s-3-.08-6.13-.08Z"/><path class="cls-3" d="M80.7,154.59a1,1,0,0,1-.68-.27,1,1,0,0,1-.32-.72l-.33-35.75H76.91a.78.78,0,0,1-.22,0l-3-.65a1,1,0,0,1-.79-1l.17-15a1,1,0,0,1,1-1H89a1,1,0,0,1,1,1s.7,12.92,1.39,25.85c1.4,26.3,1.4,26.3,1,26.67a1,1,0,0,1-.72.31Z"/><path class="cls-2" d="M89,101.23S91.8,153,91.7,153l-11,.58-.34-36.74H76.91l-3-.65.17-15H89m0-2H74.06a2,2,0,0,0-2,2l-.17,15a2,2,0,0,0,1.57,2l3,.66a2,2,0,0,0,.43,0h1.47l.32,34.76a2,2,0,0,0,2,2h.11l11-.58a2,2,0,0,0,1.39-.62c.6-.64.6-.64.46-3.72-.07-1.43-.17-3.46-.3-5.89-.25-4.86-.59-11.33-.93-17.8-.69-12.93-1.4-25.85-1.4-25.85a2,2,0,0,0-2-1.9Z"/><path class="cls-7" d="M77.25,154.59a1,1,0,0,1-1-1l-.34-34.89a1,1,0,0,1,1-1H80.5a1,1,0,0,1,1,1l.91,34.89a1,1,0,0,1-.28.73,1,1,0,0,1-.72.3Z"/><path class="cls-2" d="M80.5,118.7l.91,34.89H77.25l-.34-34.89H80.5m0-2H76.91a2,2,0,0,0-2,2l.34,34.89a2,2,0,0,0,2,2h4.16a2,2,0,0,0,2-2.05l-.91-34.89a2,2,0,0,0-2-2Z"/><path class="cls-2" d="M72.94,104.71l2.22,6L55.7,147.22,53.45,145l19.49-40.26m0-2a2,2,0,0,0-1.8,1.13L51.65,144.1a2,2,0,0,0,.39,2.28l2.25,2.25a2,2,0,0,0,1.41.59l.3,0a2,2,0,0,0,1.47-1L76.92,111.7a2,2,0,0,0,.11-1.63l-2.22-6a2,2,0,0,0-1.77-1.3Z"/><path class="cls-8" d="M74.49,111.87a3.74,3.74,0,0,1-2.73-1.24,4.86,4.86,0,0,1-1-4c.38-3.09,2.36-3.42,3.19-3.42a4.36,4.36,0,0,1,1.62.34,1,1,0,0,1,.58.91v6.26a1,1,0,0,1-.63.93,2.83,2.83,0,0,1-1,.19Z"/><path class="cls-2" d="M74,104.24a3.17,3.17,0,0,1,1.2.25v6.26a1.69,1.69,0,0,1-.66.12c-1.26,0-3.11-1-2.73-4.09.25-2.09,1.32-2.54,2.19-2.54m0-2c-.85,0-3.7.31-4.18,4.3A5.81,5.81,0,0,0,71,111.29a4.68,4.68,0,0,0,3.49,1.58,3.8,3.8,0,0,0,1.41-.26,2,2,0,0,0,1.25-1.86v-6.26A2,2,0,0,0,76,102.67a5.26,5.26,0,0,0-2-.43Z"/><path class="cls-8" d="M53,151.29a1,1,0,0,1-.65-.23l-1.56-1.32a1,1,0,0,1-.14-1.39l1.56-2a5.43,5.43,0,0,1,1.14-3.57,3.16,3.16,0,0,1,2.41-1,5,5,0,0,1,.75.06,2.33,2.33,0,0,1,1.7,1.22,5.4,5.4,0,0,1-.1,3.89c-.4.85-2.28,1.76-3.23,1.94a7.76,7.76,0,0,0-1,1.77,1,1,0,0,1-.68.59A1,1,0,0,1,53,151.29Z"/><path class="cls-2" d="M55.75,142.79a3,3,0,0,1,.58.05c1.88.33,1.07,3.26.86,3.7a5.1,5.1,0,0,1-2.61,1.39c-.65,0-1.59,2.36-1.59,2.36L51.42,149l1.8-2.25c-.11-1.1.18-3.93,2.53-3.93m0-2h0a4.14,4.14,0,0,0-3.15,1.36A6.18,6.18,0,0,0,51.21,146l-1.35,1.69a2,2,0,0,0,.27,2.78l1.57,1.32a2,2,0,0,0,3.14-.77,10,10,0,0,1,.63-1.27c1.24-.36,3-1.3,3.53-2.39a6.25,6.25,0,0,0,.08-4.78,3.29,3.29,0,0,0-2.4-1.74,5,5,0,0,0-.93-.08Z"/><path class="cls-7" d="M77.54,154.62a1,1,0,0,1-.74-.33,1,1,0,0,1-.23-.88c.2-.92,2-9,3-10.85.62-1.13,2.21-1.28,4.23-1.46,2.72-.25,6.11-.56,7.3-3.19,2.25-5,20.49-47.44,20.67-47.86a1,1,0,0,1,.87-.61c3.16-.16,9.23-.25,18-.25,45.53,0,154.56,2.27,170,2.86a1,1,0,0,1,.92.69c.38,1.19,8.93,28.18,10.75,35.9.9,0,2.38-.1,3.69-.1a10.82,10.82,0,0,1,2.6.18,1,1,0,0,1,.67.56l4.88,10.91a1,1,0,0,1-.06.93,1,1,0,0,1-.8.48c-2.37.12-237.48,12.05-245.66,13Z"/><path class="cls-2" d="M130.7,90.19c46.25,0,155.46,2.31,169.94,2.86,0,0,9.6,30.29,10.91,36.64,0,0,2.46-.15,4.48-.15a12.33,12.33,0,0,1,2.36.15l4.88,10.91s-237.42,12.05-245.72,13c0,0,2-8.79,2.93-10.58s9.28.33,11.56-4.72,20.68-47.88,20.68-47.88c3.31-.17,9.62-.25,18-.25m0-2v0c-8.82,0-14.9.09-18.09.25a2,2,0,0,0-1.73,1.21c-.18.43-18.42,42.87-20.66,47.84-.89,1.95-3.35,2.33-6.48,2.61-2.22.2-4.14.38-5,2-1.06,1.94-2.79,9.6-3.13,11.11a2,2,0,0,0,.47,1.77,2,2,0,0,0,1.48.66h.24c8.14-1,243.22-12.9,245.59-13a2,2,0,0,0,1.73-2.81l-4.89-10.91a2,2,0,0,0-1.34-1.12,11.52,11.52,0,0,0-2.84-.21c-1,0-2,0-2.91.07-2.19-8.69-10.21-34-10.58-35.17a2,2,0,0,0-1.83-1.39c-15.41-.59-124.47-2.86-170-2.86Z"/><path class="cls-8" d="M131.61,141.31a4,4,0,0,1-3.94-3.95v-4.82a4,4,0,0,1,3.94-3.94l9.88-.24a4,4,0,0,1,4,3.94v4.83a4,4,0,0,1-4,3.94Z"/><path class="cls-2" d="M141.51,129.36a3,3,0,0,1,3,2.94v4.83a3,3,0,0,1-3,2.94l-9.9.24a3,3,0,0,1-2.94-2.95v-4.82a2.94,2.94,0,0,1,2.94-2.94l9.9-.24m0-2h0l-9.91.24h0a4.93,4.93,0,0,0-4.89,4.94v4.82a5,5,0,0,0,4.94,4.95l9.95-.24h0a4.94,4.94,0,0,0,4.9-4.94V132.3a5,5,0,0,0-5-4.94Z"/><path class="cls-8" d="M172.72,140.23c-2.39,0-3.94-1.31-3.94-3.34v-5.24a4,4,0,0,1,3.94-4l8.75-.18a4,4,0,0,1,4,4v4.4a4,4,0,0,1-3.95,3.95Z"/><path class="cls-2" d="M181.49,128.52a3,3,0,0,1,2.95,2.95v4.4a3,3,0,0,1-2.95,2.95l-8.77.41c-1.62,0-2.94-.72-2.94-2.34v-5.24a3,3,0,0,1,2.94-3l8.77-.18m0-2h0l-8.77.18h0a4.94,4.94,0,0,0-4.9,5v5.24c0,2.6,2,4.34,4.94,4.34h.1l8.73-.41a5,5,0,0,0,4.89-4.95v-4.4a5,5,0,0,0-4.95-5Z"/><path class="cls-8" d="M171.72,106.67a4,4,0,0,1-3.95-3.94V98.38a4,4,0,0,1,3.95-3.94l9.22.3a3.94,3.94,0,0,1,3.91,3.94v4a4,4,0,0,1-3.95,3.94Z"/><path class="cls-2" d="M171.72,95.44l9.18.3a3,3,0,0,1,2.95,2.94v4a3,3,0,0,1-2.95,2.94h-9.18a3,3,0,0,1-2.95-2.94V98.38a3,3,0,0,1,2.95-2.94m0-2a5,5,0,0,0-4.95,4.94v4.35a5,5,0,0,0,4.95,4.94h9.18a5,5,0,0,0,4.95-4.94v-4a5,5,0,0,0-4.91-4.94l-9.16-.3Z"/><path class="cls-8" d="M132.34,107.36a4.1,4.1,0,0,1-3.94-4.23V98.59a4.1,4.1,0,0,1,3.94-4.23l10,.12a4.1,4.1,0,0,1,3.93,4.23v4.48a4.1,4.1,0,0,1-3.94,4.23Z"/><path class="cls-2" d="M132.34,95.36l10,.12a3.1,3.1,0,0,1,2.94,3.23v4.48a3.1,3.1,0,0,1-2.94,3.23l-10-.06a3.1,3.1,0,0,1-2.94-3.23V98.59a3.1,3.1,0,0,1,2.94-3.23m0-2a5.1,5.1,0,0,0-4.94,5.23v4.54a5.1,5.1,0,0,0,4.94,5.23l9.95.06a5.11,5.11,0,0,0,5-5.23V98.71a5.1,5.1,0,0,0-4.94-5.23l-9.94-.12Z"/><path class="cls-8" d="M249.89,106.69a3.19,3.19,0,0,1-3.18-3.18V99.15A3.18,3.18,0,0,1,249.89,96l7.9.12A3.18,3.18,0,0,1,261,99.27v4.18a3.19,3.19,0,0,1-3.18,3.18Z"/><path class="cls-2" d="M249.89,97l7.89.12A2.18,2.18,0,0,1,260,99.27v4.18a2.19,2.19,0,0,1-2.18,2.18l-7.89.06a2.19,2.19,0,0,1-2.18-2.18V99.15A2.18,2.18,0,0,1,249.89,97m0-2a4.18,4.18,0,0,0-4.18,4.17v4.36a4.18,4.18,0,0,0,4.18,4.18l7.9-.06a4.18,4.18,0,0,0,4.17-4.18V99.27a4.18,4.18,0,0,0-4.18-4.17L249.92,95Z"/><path class="cls-8" d="M287.47,106.3a2.83,2.83,0,0,1-2.83-2.83V99.82a2.9,2.9,0,0,1,2.83-2.88l5,.16a2.82,2.82,0,0,1,2.8,2.82l.24,3.38a2.84,2.84,0,0,1-2.82,2.9Z"/><path class="cls-2" d="M287.47,97.94l5,.15a1.84,1.84,0,0,1,1.83,1.83l.25,3.45a1.84,1.84,0,0,1-1.83,1.83l-5.26.1a1.84,1.84,0,0,1-1.83-1.83V99.82a1.89,1.89,0,0,1,1.83-1.88m0-2a3.86,3.86,0,0,0-3.83,3.88v3.65a3.84,3.84,0,0,0,3.83,3.83l5.3-.1h0a3.83,3.83,0,0,0,3.79-3.83c0-.05,0-.1,0-.14l-.25-3.39a3.83,3.83,0,0,0-3.78-3.75l-5-.14Z"/><path class="cls-8" d="M250,136.28a3.18,3.18,0,0,1-3.18-3.18v-4.6a3.17,3.17,0,0,1,3.18-3.17l7.51-.12a3.19,3.19,0,0,1,3.2,3.18v4.53a3.19,3.19,0,0,1-3.18,3.18Z"/><path class="cls-2" d="M257.52,126.21a2.18,2.18,0,0,1,2.17,2.17v4.54a2.18,2.18,0,0,1-2.17,2.18l-7.53.18a2.19,2.19,0,0,1-2.18-2.18v-4.6a2.18,2.18,0,0,1,2.18-2.17l7.53-.12m0-2h0l-7.53.12a4.17,4.17,0,0,0-4.14,4.17v4.6a4.18,4.18,0,0,0,4.18,4.18l7.57-.18h0a4.17,4.17,0,0,0,4.13-4.18v-4.54a4.17,4.17,0,0,0-4.17-4.17Z"/><path class="cls-8" d="M288.53,134.69a2.83,2.83,0,0,1-2.83-2.82v-3.65a2.83,2.83,0,0,1,2.83-2.83l5.22-.19a2.83,2.83,0,0,1,2.86,2.82v3.65a2.83,2.83,0,0,1-2.82,2.83Z"/><path class="cls-2" d="M293.79,126.19a1.84,1.84,0,0,1,1.82,1.83v3.65a1.84,1.84,0,0,1-1.82,1.83l-5.26.2a1.84,1.84,0,0,1-1.83-1.83v-3.65a1.84,1.84,0,0,1,1.83-1.83l5.26-.2m0-2h-.08l-5.23.19a3.84,3.84,0,0,0-3.78,3.83v3.65a3.84,3.84,0,0,0,3.83,3.83h.07l5.23-.19a3.84,3.84,0,0,0,3.78-3.83V128a3.83,3.83,0,0,0-3.82-3.83Z"/><path class="cls-8" d="M210.35,107a3.94,3.94,0,0,1-3.94-3.94V99.21a3.94,3.94,0,0,1,3.94-3.95l7.43.24a3.94,3.94,0,0,1,3.91,3.94v3.46a4,4,0,0,1-3.94,3.94Z"/><path class="cls-2" d="M210.35,96.26l7.4.24a3,3,0,0,1,2.94,2.94v3.46a2.94,2.94,0,0,1-2.94,2.94l-7.4.12a3,3,0,0,1-2.94-2.94V99.21a3,3,0,0,1,2.94-2.95m0-2a5,5,0,0,0-4.94,4.95V103a4.94,4.94,0,0,0,4.94,4.94l7.43-.12a4.94,4.94,0,0,0,4.91-4.94V99.44a5,5,0,0,0-4.9-4.94l-7.38-.24Z"/><path class="cls-5" d="M99.68,121.72a1,1,0,0,1-.83-.44,1,1,0,0,1-.09-1l3.52-8.16a1,1,0,0,1,.91-.6l203.08-1.37a1,1,0,0,1,1,.75l1.74,6.71a1,1,0,0,1-1,1.25Z"/><path class="cls-2" d="M306.27,111.2l1.74,6.71L99.68,120.72l3.52-8.15,203.07-1.37m0-2h0l-203.08,1.37a2,2,0,0,0-1.82,1.21l-3.52,8.15a2,2,0,0,0,.18,1.9,2,2,0,0,0,1.66.89h0L308,119.91a2,2,0,0,0,1.91-2.5l-1.74-6.71a2,2,0,0,0-1.94-1.5Z"/><path class="cls-6" d="M87.74,158.55c-17.7,1.06-28.94,1.75-29.4,1.82-6.19.9-21,.64-37-2"/><path class="cls-6" d="M148.49,155l-31.71,1.87"/><path class="cls-6" d="M209.57,151.4l-34.62,2"/><path class="cls-6" d="M256.93,148.69l-26.45,1.51"/><path class="cls-6" d="M298.29,146.38c-6,.32-12.48.69-19.47,1.08"/><path class="cls-6" d="M331.9,144.67c-2.44.08-7.43.32-14.4.68"/><path class="cls-7" d="M17.64,155.36l-7.5-1-.12,0L2,152.2a1,1,0,0,1-.66-.54,1,1,0,0,1,0-.85c.79-1.69,1.77-2.44,3.17-2.44a7.73,7.73,0,0,1,1.22.13c.46.08,1.84.27,3.43.48,3.24.44,7.28,1,8.51,1.28a2.06,2.06,0,0,1,1.47,1.18c.59,1.32-.28,3.06-.46,3.4a1,1,0,0,1-.88.53Z"/><path class="cls-2" d="M4.49,149.37a5.93,5.93,0,0,1,1,.12c1.38.24,10.07,1.31,11.87,1.75s.37,3.13.37,3.13l-7.51-1-8-2.11c.7-1.5,1.4-1.87,2.27-1.87m0-2a4.56,4.56,0,0,0-4.08,3,2,2,0,0,0,0,1.7,2,2,0,0,0,1.3,1.09l8.06,2.11.23.05,7.51,1,.27,0a2,2,0,0,0,1.76-1.06c.31-.57,1.25-2.58.49-4.28a3.06,3.06,0,0,0-2.14-1.74c-1.19-.29-4.61-.76-8.62-1.3l-3.39-.47a8.22,8.22,0,0,0-1.39-.15Z"/><path class="cls-7" d="M46.35,161A254.3,254.3,0,0,1,21,159.34C13.34,157.74.74,154.68,1,152.05a1.2,1.2,0,0,1,1.31-1c.39,0,2.1.12,5.6.36,8.19.57,23.44,1.63,30.71,1.63L40,153h0a.87.87,0,0,1,.32.06l16.07,5.44a1,1,0,0,1,.67,1,1,1,0,0,1-.85.9,69.32,69.32,0,0,1-9.85.58Z"/><path class="cls-2" d="M2.33,152c1.38,0,26.3,2,36.31,2L40,154l16.06,5.45a68.35,68.35,0,0,1-9.7.57,248,248,0,0,1-25.27-1.66C3.9,154.73.88,152,2.33,152m0-2A2.2,2.2,0,0,0,0,152c-.13,1.27-.4,3.92,20.65,8.35l.17,0A251.73,251.73,0,0,0,46.35,162a70,70,0,0,0,10-.59,2,2,0,0,0,.35-3.88l-16.07-5.44A2,2,0,0,0,40,152h-.05l-1.3,0c-7.23,0-22.46-1.06-30.64-1.62-3.62-.26-5.24-.37-5.67-.37Z"/><path class="cls-7" d="M56.05,160.43a1.12,1.12,0,0,1-.31-.05l-15.26-5.07a1,1,0,0,1-.68-.9c0-.67-.06-2.94.93-4a1.76,1.76,0,0,1,1.31-.57,1.51,1.51,0,0,1,.3,0c1.2.18,10.13.82,14.69,1.13a1,1,0,0,1,.68.35,1,1,0,0,1,.25.72,69.33,69.33,0,0,1-.93,7.58,1,1,0,0,1-.49.64A1,1,0,0,1,56.05,160.43Z"/><path class="cls-2" d="M42,150.86h.15C43.75,151.11,57,152,57,152a65.94,65.94,0,0,1-.91,7.42L40.8,154.36s-.17-3.5,1.24-3.5m0-2a2.77,2.77,0,0,0-2,.88c-1.23,1.29-1.26,3.73-1.21,4.72a2,2,0,0,0,1.37,1.8l15.25,5.07a2,2,0,0,0,.63.1,2.1,2.1,0,0,0,1-.25,2,2,0,0,0,1-1.29,67.18,67.18,0,0,0,1-7.74,2,2,0,0,0-.48-1.45A2,2,0,0,0,57.1,150c-5.28-.36-13.52-1-14.61-1.13l-.45,0Z"/><path class="cls-7" d="M72.6,69.09a1,1,0,0,1-.84-1.53l4.94-7.8a1,1,0,0,1,.54-.42l12.6-4.05a1.06,1.06,0,0,1,.31,0h21.59a1,1,0,0,1,.84,1.55l-5,7.64a1,1,0,0,1-.8.46l-20.29.9L72.83,69.06A.85.85,0,0,1,72.6,69.09Z"/><path class="cls-2" d="M111.74,56.24h0m0,0-4.95,7.65-20.39.9-13.8,3.3,5-7.8,12.6-4h21.59m0-2H90.15a2.17,2.17,0,0,0-.62.1l-12.6,4a2,2,0,0,0-1.07.83l-5,7.8A2,2,0,0,0,71,69.25a2,2,0,0,0,1.63.84,2.5,2.5,0,0,0,.47,0l13.61-3.26,20.2-.89a2,2,0,0,0,1.59-.91l4.9-7.58a2,2,0,0,0,.37-1.16,2,2,0,0,0-2-2Zm0,4Z"/><path class="cls-3" d="M106.77,64.89a1,1,0,0,1-.86-.53,1,1,0,0,1,0-1l5-7.65a1,1,0,0,1,.84-.46h.12l37.94,4.8a1,1,0,0,1,.83.69l1.2,3.75a1,1,0,0,1-.15.9,1,1,0,0,1-.81.4Z"/><path class="cls-2" d="M111.74,56.24,149.67,61l1.2,3.75-44.08-.9,4.95-7.65m0-2a2,2,0,0,0-1.68.92l-5,7.65a2,2,0,0,0,1.64,3.08l44.08.9h0a2,2,0,0,0,1.91-2.61l-1.2-3.75a2,2,0,0,0-1.65-1.37L112,54.26l-.25,0Z"/><path class="cls-5" d="M102.66,165.5a13.74,13.74,0,0,1-2-.15c-3.48-.48-6-2.31-7.15-5.15a8.58,8.58,0,0,1,1.25-8.42,8.91,8.91,0,0,1,7.09-3.72,10.18,10.18,0,0,1,9.33,7.05,8.18,8.18,0,0,1-1.25,7.17,8.86,8.86,0,0,1-7.28,3.22Zm-.13-9.84c-.33,0-1.14.06-1.43.61a2.16,2.16,0,0,0-.35,1.69c.18.37.77.67,1.67.84a4.89,4.89,0,0,0,1,.11,1.84,1.84,0,0,0,1.43-.49,1.74,1.74,0,0,0,.21-1.44C105,156.3,103.71,155.66,102.53,155.66Z"/><path class="cls-2" d="M101.86,149.06a9.15,9.15,0,0,1,8.36,6.31c1.24,4.57-1.54,9.13-7.57,9.13a13.26,13.26,0,0,1-1.84-.13c-7.29-1-8.31-8.15-5.26-12a8,8,0,0,1,6.31-3.34m1.59,10.85c2.13,0,3-1.37,2.62-3.13-.26-1.27-2-2.12-3.54-2.12a2.48,2.48,0,0,0-2.31,1.14c-.85,1.61-1,3.39,2,4a7.08,7.08,0,0,0,1.23.12m-1.59-12.85A9.9,9.9,0,0,0,94,151.15a9.34,9.34,0,0,0,6.54,15.2,15.66,15.66,0,0,0,2.12.15,9.83,9.83,0,0,0,8.08-3.61,9.15,9.15,0,0,0,1.42-8,11.08,11.08,0,0,0-10.29-7.79Zm.11,9.7a1.29,1.29,0,0,1,.56-.1,2.37,2.37,0,0,1,1.59.57,1,1,0,0,1,0,.56,1.2,1.2,0,0,1-.66.12,4.46,4.46,0,0,1-.84-.09,2.6,2.6,0,0,1-.92-.3,2.2,2.2,0,0,1,.28-.76Z"/><path class="cls-5" d="M268.32,153.66a8.9,8.9,0,0,1-4-1,6.49,6.49,0,0,1-4-5.48,6.64,6.64,0,0,1,2.95-5.84,7.52,7.52,0,0,1,4.08-1.3,6.69,6.69,0,0,1,4.87,2.2,7.72,7.72,0,0,1,2.17,5.48,6.08,6.08,0,0,1-6.14,6Zm-.88-7.44a.48.48,0,0,0-.38.12c-.44.42-.58.73-.56.88s.25.45.83.78a2.53,2.53,0,0,0,1.2.4c.16,0,.6,0,.71-.86A.9.9,0,0,0,269,147,2.32,2.32,0,0,0,267.44,146.22Z"/><path class="cls-2" d="M267.42,141c3.62,0,6.2,3.7,6,6.62a5.06,5.06,0,0,1-5.14,5,8,8,0,0,1-3.53-.91c-4.86-2.41-3.92-7.63-.9-9.59a6.48,6.48,0,0,1,3.53-1.14m1.11,8.38c1,0,1.57-.69,1.7-1.74s-1.48-2.44-2.79-2.44a1.51,1.51,0,0,0-1.08.4c-1,.93-1.5,2.14.48,3.25a3.47,3.47,0,0,0,1.69.53M267.42,139a8.37,8.37,0,0,0-4.62,1.47,7.4,7.4,0,0,0,1.11,13,10,10,0,0,0,4.41,1.12,7.07,7.07,0,0,0,7.14-6.9,8.58,8.58,0,0,0-2.44-6.22,7.66,7.66,0,0,0-5.6-2.52Z"/><path class="cls-5" d="M162.38,161a8,8,0,0,1-1.38-.12,6.78,6.78,0,0,1-4.81-3.29,7.45,7.45,0,0,1-.36-6.36c1.43-3.8,3.85-5.72,7.18-5.72a10.82,10.82,0,0,1,2,.2,6.63,6.63,0,0,1,4.51,3.32,8,8,0,0,1,.66,6.33,8.51,8.51,0,0,1-7.79,5.64Zm1.42-8.8A2.5,2.5,0,0,0,162,153.4a1,1,0,0,0,0,1A1.17,1.17,0,0,0,163,155h.21a1.44,1.44,0,0,0,1.16-.47,1.92,1.92,0,0,0,.3-1.59A.83.83,0,0,0,163.8,152.24Z"/><path class="cls-2" d="M163,146.55a9.79,9.79,0,0,1,1.8.18c4.08.82,5.44,5.5,4.42,8.33a7.52,7.52,0,0,1-6.85,5,7.26,7.26,0,0,1-1.21-.11c-3.9-.68-5.85-4.49-4.41-8.31,1.23-3.24,3.21-5.07,6.25-5.07m.21,9.49c1.81,0,2.77-1.46,2.45-3.24a1.83,1.83,0,0,0-1.87-1.56,3.43,3.43,0,0,0-2.63,1.56,2.11,2.11,0,0,0,1.75,3.23h.3M163,144.55c-2.6,0-6.13,1.1-8.12,6.36a8.5,8.5,0,0,0,.43,7.21,7.71,7.71,0,0,0,5.51,3.78,9,9,0,0,0,1.55.14,9.54,9.54,0,0,0,8.73-6.3,8.84,8.84,0,0,0-.73-7.16,7.61,7.61,0,0,0-5.18-3.81,11.29,11.29,0,0,0-2.19-.22Zm-.17,9.36a1.72,1.72,0,0,1,.87-.65.89.89,0,0,1-.1.67.55.55,0,0,1-.39.11h-.13c-.13,0-.21,0-.22-.07s0,0,0-.06Z"/><path class="cls-5" d="M219.88,156.61a6.5,6.5,0,0,1-5.78-3.88c-1.87-3.9-1.16-7,2.11-9.34a5.78,5.78,0,0,1,3.38-1.07,7.1,7.1,0,0,1,6.08,3.69,7.54,7.54,0,0,1-2.1,9.34,6.21,6.21,0,0,1-3.69,1.26Zm.36-8.55a.67.67,0,0,0-.52.27,2.15,2.15,0,0,0-.3,1.71.84.84,0,0,0,.8.57,1,1,0,0,0,.67-.3,1.29,1.29,0,0,0,.51-1,1.54,1.54,0,0,0-.78-1.11A.67.67,0,0,0,220.24,148.06Z"/><path class="cls-2" d="M219.59,143.32a6.09,6.09,0,0,1,5.19,3.14,6.52,6.52,0,0,1-1.8,8.09,5.21,5.21,0,0,1-3.1,1.06A5.5,5.5,0,0,1,215,152.3c-1.56-3.26-1.22-6,1.78-8.09a4.81,4.81,0,0,1,2.81-.89m.63,8.29a2,2,0,0,0,1.34-.55,2.21,2.21,0,0,0-.39-3.71,1.67,1.67,0,0,0-.93-.29c-1.13,0-2.13,1.22-1.8,3.15a1.81,1.81,0,0,0,1.78,1.4m-.63-10.29a6.87,6.87,0,0,0-4,1.25c-2.56,1.8-5.07,5.1-2.43,10.6a7.47,7.47,0,0,0,6.68,4.44,7.2,7.2,0,0,0,4.29-1.45,8.56,8.56,0,0,0,2.4-10.6,8,8,0,0,0-7-4.24Zm.79,8.09v-.09l0,.05h0a.11.11,0,0,0,0,0Z"/><path class="cls-5" d="M308,150.28a5.72,5.72,0,0,1-5.09-3.41c-2-4.27-.12-6.82,1.86-8.2a5.15,5.15,0,0,1,3-.95,6.27,6.27,0,0,1,5.36,3.25,6.62,6.62,0,0,1-1.85,8.2,5.51,5.51,0,0,1-3.26,1.11Zm.31-7.35a.47.47,0,0,0-.33.19,1.73,1.73,0,0,0-.23,1.35.59.59,0,0,0,.54.37.72.72,0,0,0,.49-.22,1,1,0,0,0,.39-.75,1.19,1.19,0,0,0-.61-.85A.43.43,0,0,0,308.29,142.93Z"/><path class="cls-2" d="M307.73,138.72a5.24,5.24,0,0,1,4.46,2.7,5.59,5.59,0,0,1-1.54,7,4.46,4.46,0,0,1-2.67.91,4.73,4.73,0,0,1-4.19-2.84c-1.34-2.8-1.05-5.15,1.53-7a4.21,4.21,0,0,1,2.41-.76m.54,7.12a1.71,1.71,0,0,0,1.15-.47,1.9,1.9,0,0,0-.32-3.19,1.5,1.5,0,0,0-.81-.25c-1,0-1.83,1-1.54,2.71a1.54,1.54,0,0,0,1.52,1.2m-.54-9.12a6.14,6.14,0,0,0-3.55,1.13c-3.25,2.27-4,5.63-2.19,9.45a6.71,6.71,0,0,0,6,4,6.45,6.45,0,0,0,3.85-1.3,7.64,7.64,0,0,0,2.15-9.46,7.2,7.2,0,0,0-6.25-3.8Z"/></g></g></svg>