<?xml version="1.0" encoding="utf-8"?>
<!-- Generator: Adobe Illustrator 16.0.0, SVG Export Plug-In . SVG Version: 6.00 Build 0)  -->
<!DOCTYPE svg PUBLIC "-//W3C//DTD SVG 1.1//EN" "http://www.w3.org/Graphics/SVG/1.1/DTD/svg11.dtd">
<svg version="1.1" id="Layer_1" xmlns="http://www.w3.org/2000/svg" xmlns:xlink="http://www.w3.org/1999/xlink" x="0px" y="0px"
	 width="612px" height="792px" viewBox="0 0 612 792" enable-background="new 0 0 612 792" xml:space="preserve">
<title>Q_03</title>
<g id="Layer_2_1_">
	<g id="Landmark">
		<path fill="#8683BF" d="M253.42,200.182c-15.135,0-40.361,0-44.26-24.768c0-0.229,0-0.458,0-0.688
			c1.606-9.632,20.411-20.181,48.617-20.181c22.017,0,36.005,7.568,37.84,20.181c0,0.229,0,0.459,0,0.917
			C292.176,191.467,277.041,200.182,253.42,200.182z"/>
		<path fill="#010101" d="M257.776,156.838c17.66,0,33.713,5.275,35.546,18.347c-3.668,16.97-21.097,22.703-39.902,22.703
			c-18.805,0-38.757-1.375-42.196-22.703C212.83,164.636,236.449,156.838,257.776,156.838 M257.776,152.252L257.776,152.252
			c-11.006,0-21.785,1.834-32.334,5.504c-11.236,4.128-17.658,9.861-18.805,16.742c0,0.458,0,0.917,0,1.375
			c4.129,26.602,30.73,26.602,46.554,26.602c24.997,0,40.821-9.402,44.49-26.373c0-0.458,0-1.146,0-1.604
			C295.845,160.966,280.939,152.252,257.776,152.252L257.776,152.252z"/>
		<path fill="none" stroke="#010101" stroke-width="2" stroke-linecap="round" stroke-linejoin="round" d="M229.799,185.046
			c14.449-8.715,32.565-8.715,47.242,0"/>
		
			<line fill="none" stroke="#010101" stroke-width="2" stroke-linecap="round" stroke-linejoin="round" x1="235.762" y1="190.321" x2="235.762" y2="235.498"/>
		
			<line fill="none" stroke="#010101" stroke-width="2" stroke-linecap="round" stroke-linejoin="round" x1="271.766" y1="190.321" x2="271.766" y2="235.498"/>
		<path fill="#08AD84" d="M247.916,303.379c-4.816,0-9.402-0.23-13.988-0.689c-22.017-2.294-47.242-14.906-74.761-37.838
			c-3.44-2.981-7.339-13.072-0.459-23.85c0.459-0.458,0.917-0.918,1.605-0.918h0.459c0.458,0,1.146,0.229,1.376,0.46l22.933,18.346
			l-14.448-26.373c-0.688-1.146-0.229-2.522,0.918-2.981c2.751-1.604,5.962-3.211,8.943-4.357c6.879-2.753,13.76-4.815,20.869-6.421
			h0.458c0.689,0,1.376,0.229,1.836,0.917l19.951,25.226l-8.484-26.143c-0.23-0.688,0-1.377,0.229-1.835
			c0.458-0.458,0.917-0.916,1.605-1.146c11.008-1.607,22.015-2.294,33.252-2.294h4.586c1.147,0,2.064,0.917,2.293,2.063l2.752,27.75
			l9.173-27.52c0.229-0.918,1.146-1.607,2.294-1.607h0.229c9.861,0.918,19.493,2.523,29.125,4.817
			c0.688,0.229,1.146,0.458,1.375,1.146c0.229,0.458,0.459,1.147,0.229,1.835l-6.88,23.162l14.677-21.786
			c0.46-0.688,1.148-0.918,1.836-0.918c0.228,0,0.457,0,0.687,0.23c5.734,1.835,11.237,4.357,16.741,7.109
			c2.752,1.606,5.505,3.211,8.028,5.046c0.456,0.458,0.915,0.917,0.915,1.605c0,0.688-0.229,1.147-0.459,1.836
			c-2.979,3.668-8.255,9.63-13.069,15.135l16.739-11.695c0.461-0.23,0.919-0.459,1.376-0.459c0.23,0,0.23,0,0.458,0
			c0.689,0.229,1.147,0.459,1.605,1.147c9.174,14.905-10.089,27.978-25.685,38.527c-2.522,1.833-5.045,3.439-7.567,5.045
			C296.075,297.187,272.913,303.379,247.916,303.379z"/>
		<path fill="#010101" d="M250.209,216.006c1.605,0,2.981,0,4.357,0l3.899,38.527l12.613-37.84
			c9.63,0.918,19.263,2.523,28.666,4.816l-10.779,37.381l22.703-33.941c5.505,1.835,11.008,4.128,16.284,6.88
			c2.751,1.376,5.271,2.981,7.795,4.816c-6.88,8.256-25.456,29.354-25.456,29.354l32.108-22.474
			c9.4,15.365-16.055,28.895-32.566,40.59c-16.741,12.155-40.59,16.971-62.147,16.971c-4.816,0-9.402-0.229-13.759-0.689
			c-24.539-2.521-50.453-18.115-73.615-37.149c-2.98-2.294-6.191-11.466,0-20.869l31.877,25.456l-19.951-36.234
			c2.751-1.604,5.733-2.981,8.713-4.128c6.65-2.751,13.531-4.816,20.64-6.421l27.52,34.858l-11.926-37.84
			C228.194,216.463,239.201,216.006,250.209,216.006 M250.209,211.418L250.209,211.418c-11.237,0-22.474,0.688-33.481,2.293
			c-1.376,0.229-2.522,0.917-3.211,2.065c-0.687,1.146-0.917,2.522-0.458,3.898l4.357,14.218l-12.154-15.364
			c-0.917-1.147-2.294-1.606-3.669-1.606c-0.458,0-0.687,0-1.147,0c-7.109,1.606-14.218,3.899-21.097,6.651
			c-3.211,1.375-6.192,2.751-9.174,4.587c-2.063,1.146-2.981,3.898-1.606,6.191l8.944,16.283l-13.988-11.237
			c-0.917-0.688-1.835-0.917-2.752-0.917h-0.917c-1.376,0.229-2.294,0.917-3.211,2.064c-7.108,11.006-4.127,22.703,0.917,26.831
			c27.979,22.703,53.663,35.545,76.138,37.839c4.586,0.458,9.402,0.688,14.218,0.688c25.456,0,49.076-6.421,64.9-17.657
			c2.292-1.606,4.815-3.44,7.338-5.046c16.282-11.008,36.692-24.768,26.373-41.737c-0.688-1.147-1.835-1.835-2.982-2.064
			c-0.229,0-0.688,0-0.915,0c-0.919,0-1.837,0.229-2.752,0.917l-1.836,1.147l1.146-1.377c1.604-2.063,1.376-4.815-0.688-6.42
			c0,0,0,0-0.229-0.229c-2.522-2.064-5.274-3.899-8.255-5.274c-5.505-2.981-11.238-5.275-16.971-7.339
			c-2.063-0.688-4.127,0-5.275,1.834l-6.42,9.632l2.752-9.173c0.688-2.523-0.688-5.045-3.211-5.733h-0.229
			c-9.631-2.294-19.493-4.128-29.583-5.046h-0.459c-2.063,0-3.668,1.376-4.356,3.21l-5.734,17.429l-1.604-17.429
			c-0.23-2.293-2.292-4.127-4.586-4.127C253.191,211.418,251.814,211.418,250.209,211.418L250.209,211.418z"/>
		<path fill="none" stroke="#010101" stroke-width="2" stroke-linecap="round" stroke-linejoin="round" d="M198.381,279.07
			c16.742-7.798,34.857-11.925,53.433-11.925s38.527,0.458,54.809,8.944"/>
		<path fill="#0C81C3" d="M232.322,644.16c-1.376,0-2.293-0.917-2.293-2.295V289.39c0-0.688,0.23-1.146,0.689-1.606
			c6.191-6.879,16.283-8.256,24.079-3.439c0.688,0.459,0.917,1.146,0.917,1.834v355.916c0,1.377-0.917,2.294-2.293,2.294h-21.098
			V644.16z"/>
		<path fill="#010101" d="M244.706,283.886c2.981,0,5.963,0.688,8.714,2.293v356.147h-21.098V289.39
			C235.533,285.72,239.89,283.886,244.706,283.886 M244.706,279.07c-5.961,0-11.467,2.522-15.594,6.88
			c-0.917,0.917-1.376,2.064-1.376,3.21v352.934c0,2.522,2.063,4.588,4.586,4.588h21.098c2.523,0,4.586-2.065,4.586-4.588V286.179
			c0-1.605-0.687-2.982-2.063-3.898C252.503,279.988,248.604,279.07,244.706,279.07z"/>
		<path fill="#8683BF" d="M294.241,559.309h8.255c1.377,0,2.293,0.917,2.293,2.292v79.807c0,1.378-0.916,2.294-2.293,2.294h-8.255
			c-1.376,0-2.293-0.916-2.293-2.294v-79.807C291.947,560.226,293.093,559.309,294.241,559.309z"/>
		<path fill="#010101" d="M302.726,561.601v80.036h-8.256v-80.036H302.726 M302.726,557.015h-8.256
			c-2.522,0-4.586,2.065-4.586,4.586v80.036c0,2.523,2.064,4.587,4.586,4.587h8.256c2.522,0,4.586-2.063,4.586-4.587v-80.036
			C307.312,559.08,305.248,557.015,302.726,557.015z"/>
		<path fill="#8683BF" d="M308.459,557.015h8.026c1.376,0,2.292,0.918,2.292,2.294v82.328c0,1.377-0.916,2.294-2.292,2.294h-8.026
			c-1.377,0-2.293-0.917-2.293-2.294v-82.328C306.166,558.162,307.312,557.015,308.459,557.015z"/>
		<path fill="#010101" d="M316.714,559.309v82.328h-8.255v-82.328H316.714 M316.714,554.722h-8.255
			c-2.523,0-4.587,2.063-4.587,4.587v82.328c0,2.523,2.064,4.587,4.587,4.587h8.255c2.522,0,4.585-2.063,4.585-4.587v-82.328
			C321.299,556.785,319.236,554.722,316.714,554.722z"/>
		<path fill="#8683BF" d="M353.867,575.133h8.255c1.604,0,2.752,1.146,2.752,2.751v64.211c0,1.606-1.148,2.753-2.752,2.753h-8.255
			c-1.607,0-2.753-1.146-2.753-2.753v-64.211C351.114,576.278,352.26,575.133,353.867,575.133z"/>
		<path fill="#010101" d="M362.352,577.655v64.21h-8.257v-64.21H362.352 M362.352,572.151h-8.257c-2.98,0-5.503,2.523-5.503,5.504
			l0,0v64.21c0,2.981,2.522,5.505,5.503,5.505l0,0h8.257c2.981,0,5.505-2.523,5.505-5.505l0,0v-64.21
			C367.856,574.675,365.333,572.151,362.352,572.151L362.352,572.151z"/>
		<path fill="#8683BF" d="M368.086,582.929h9.401c1.375,0,2.522,1.146,2.522,2.522v56.644c0,1.377-1.147,2.522-2.522,2.522h-9.401
			c-1.378,0-2.524-1.146-2.524-2.522v-56.644C365.562,583.846,366.708,582.929,368.086,582.929z"/>
		<path fill="#010101" d="M377.487,585.451v56.644h-9.401v-56.644H377.487 M377.487,580.179h-9.401
			c-2.753,0-5.275,2.291-5.275,5.272v56.644c0,2.753,2.293,5.275,5.275,5.275h9.401c2.751,0,5.043-2.294,5.043-5.275v-56.413
			C382.53,582.47,380.238,580.179,377.487,580.179z"/>
		<path fill="#8683BF" d="M184.163,644.16c-1.375,0-2.292-0.917-2.292-2.295v-55.267h-10.778c-1.375,0-2.294-0.917-2.294-2.294
			v-19.492h-27.061c-1.376,0-2.293-0.919-2.293-2.293v-19.035c0-1.375,0.917-2.294,2.293-2.294l113.288-0.916
			c0.688,0,1.147,0.229,1.607,0.687c0.458,0.46,0.688,0.919,0.688,1.607v17.888c0,1.374-0.918,2.292-2.294,2.292h-27.29v21.327
			c0,1.376-0.917,2.295-2.293,2.295h-8.256v55.725c0,1.377-0.917,2.294-2.293,2.294L184.163,644.16z"/>
		<path fill="#010101" d="M255.025,542.339v17.887h-29.583v23.62h-10.549v58.02h-30.73v-57.561h-13.071v-21.557h-29.354v-19.034
			L255.025,542.339 M255.025,537.752L255.025,537.752l-113.288,0.915c-2.522,0-4.586,2.064-4.586,4.589v19.034
			c0,2.522,2.063,4.586,4.586,4.586h24.768v17.199c0,2.523,2.063,4.588,4.586,4.588h8.485v52.974c0,2.523,2.063,4.587,4.586,4.587
			h30.73c2.523,0,4.587-2.063,4.587-4.587v-53.433h5.962c2.523,0,4.586-2.063,4.586-4.587v-19.035h24.997
			c2.523,0,4.587-2.063,4.587-4.586v-17.887C259.612,539.816,257.548,537.752,255.025,537.752L255.025,537.752z"/>
		<path fill="#8683BF" d="M259.841,644.16c-1.375,0-2.293-0.917-2.293-2.295l-0.917-348.807c0-0.688,0.228-1.375,0.688-1.604
			c0.457-0.458,0.917-0.917,1.375-1.377c1.605-2.521,4.357-3.898,7.338-3.898c2.523,0.229,5.275,0.917,7.568,2.065
			c0.688,0.458,1.376,1.146,1.376,2.063v351.788c0,1.377-0.917,2.294-2.293,2.294h-12.842V644.16L259.841,644.16z"/>
		<path fill="#010101" d="M266.033,288.473c2.293,0.229,4.586,0.688,6.422,1.834v351.788h-12.842l-0.918-348.806
			C261.217,290.996,262.364,288.473,266.033,288.473 M266.033,283.886c-3.669,0-7.108,1.834-9.173,4.815
			c-0.459,0.459-0.688,0.918-1.147,1.375c-0.917,0.918-1.604,2.064-1.604,3.44l0.917,348.809c0,2.521,2.064,4.585,4.587,4.585
			h12.842c2.522,0,4.586-2.063,4.586-4.585V290.077c0-1.833-0.917-3.439-2.522-4.127
			C271.766,284.804,269.014,283.886,266.033,283.886L266.033,283.886z"/>
		<path fill="#8683BF" d="M440.781,642.785c-0.459,0-1.147-0.23-1.376-0.459l-56.187-45.408h-28.207
			c-0.458,0-1.145-0.229-1.604-0.457l-39.217-34.631h-27.06c-0.46,0-1.147-0.229-1.606-0.458l-28.894-25.456
			c-0.919-0.915-1.148-2.293-0.231-3.21c0.459-0.458,1.147-0.688,1.605-0.688l44.948-0.458c0.688,0,1.147,0.229,1.606,0.688
			l25.914,24.537h28.436c0.46,0,1.147,0.229,1.378,0.458l30.729,26.374h31.645c0.461,0,0.919,0.229,1.378,0.458l68.34,55.269
			c0.916,0.688,1.146,2.293,0.459,3.211c-0.459,0.459-1.146,0.917-1.836,0.917L440.781,642.785z"/>
		<path fill="#010101" d="M303.413,533.394l26.603,25.228h29.354l31.417,27.061h32.565l68.34,55.267l-50.682-0.227l-56.646-45.868
			h-28.895l-39.903-35.315h-27.978l-29.124-25.685L303.413,533.394 M303.413,528.808L303.413,528.808l-44.947,0.46
			c-2.523,0-4.586,2.063-4.586,4.586c0,1.376,0.458,2.522,1.604,3.44l28.896,25.454c0.917,0.688,1.834,1.146,2.981,1.146h26.143
			l38.756,33.941c0.918,0.688,1.835,1.147,2.981,1.147h27.289l55.499,44.948c0.915,0.687,1.834,0.916,2.752,0.916l50.682,0.229l0,0
			c2.522,0,4.585-2.063,4.585-4.586c0-1.377-0.687-2.751-1.604-3.669l-68.34-55.269c-0.918-0.687-1.833-0.917-2.751-0.917h-30.961
			l-30.271-25.914c-0.916-0.687-1.832-1.145-2.98-1.145h-27.519l-25.227-23.853C305.478,529.268,304.331,528.808,303.413,528.808
			L303.413,528.808z"/>
		<path fill="#08AD84" d="M479.078,626.96c-0.459,0-1.146-0.229-1.376-0.459l-59.854-51.139h-26.371
			c-0.689,0-1.148-0.229-1.608-0.688l-35.773-33.484l-28.896,0.459c-0.457,0-1.146-0.229-1.604-0.459l-11.926-10.547H256.86
			c-1.376,0-2.293-0.919-2.293-2.294v-7.109c0-1.377,0.917-2.293,2.293-2.293h54.352c0.457,0,0.915,0.229,1.374,0.458l16.971,12.843
			l29.813-0.23c0.459,0,1.146,0.23,1.604,0.688l37.151,33.711h27.749c0.458,0,1.145,0.229,1.375,0.459l65.13,56.187
			c0.916,0.916,1.146,2.292,0.229,3.21c-0.459,0.459-1.146,0.915-1.834,0.915L479.078,626.96z"/>
		<path fill="#010101" d="M311.441,521.24l17.658,13.302l30.729-0.229l37.84,34.398h28.894l65.13,55.955h-12.386l-60.541-51.826
			h-27.289l-36.693-33.942l-29.813,0.46l-12.385-11.008H256.86v-7.109H311.441 M311.441,516.653h-54.352
			c-2.523,0-4.586,2.063-4.586,4.587v7.109c0,2.522,2.063,4.586,4.586,4.586h53.892l11.237,9.862
			c0.918,0.687,1.834,1.146,2.98,1.146l0,0l27.748-0.459l35.088,32.794c0.919,0.688,2.063,1.146,3.211,1.146h25.686l59.395,50.683
			c0.917,0.688,1.836,1.147,2.98,1.147h12.386c2.522,0,4.585-2.067,4.585-4.589c0-1.375-0.688-2.521-1.605-3.438l-65.13-56.185
			c-0.916-0.69-1.834-1.149-2.979-1.149h-27.061l-36.691-33.021c-0.918-0.688-1.836-1.147-2.981-1.147l0,0l-29.125,0.23
			l-16.513-12.385C313.275,517.112,312.356,516.653,311.441,516.653L311.441,516.653z"/>
		<path fill="#08AD84" d="M267.867,548.761c-0.229,0-0.458,0-0.688,0c-1.147,0-7.797-0.229-35.775-0.229
			c-41.508,0-104.345,0.229-105.032,0.229l0,0c-0.688,0-1.147-0.229-1.605-0.689c-0.458-0.458-0.688-0.917-0.688-1.604v-25
			c0-1.375,0.918-2.29,2.294-2.29l141.495,0.229c0.689,0,1.147,0.229,1.605,0.687c0.459,0.461,0.688,1.148,0.688,1.606
			c-0.229,8.716-0.458,21.329-0.229,23.852v0.229c0.229,0.916,0,1.604-0.459,2.293C268.785,548.531,268.326,548.761,267.867,548.761
			L267.867,548.761z"/>
		<path fill="#010101" d="M126.373,521.24l141.495,0.227c0,0-0.458,23.623,0,24.77c-1.146-0.229-16.282-0.229-36.233-0.229
			c-41.966,0-105.032,0.229-105.032,0.229L126.373,521.24 M267.867,546.467L267.867,546.467 M126.373,516.653
			c-1.147,0-2.294,0.459-3.21,1.376c-0.917,0.918-1.376,2.063-1.376,3.211v24.996c0,2.524,2.064,4.587,4.587,4.587l0,0
			c0.688,0,63.524-0.229,105.032-0.229c26.832,0,33.94,0.229,35.546,0.229c0.229,0,0.687,0,0.917,0c2.523,0,4.587-2.063,4.587-4.587
			c0-0.458,0-0.917-0.229-1.375c-0.23-2.752,0-13.531,0.229-23.395c0-1.144-0.459-2.52-1.376-3.207
			c-0.918-0.918-2.064-1.377-3.211-1.377L126.373,516.653z"/>
		
			<line fill="none" stroke="#010101" stroke-width="2" stroke-linecap="round" stroke-linejoin="round" x1="288.508" y1="542.339" x2="288.508" y2="559.309"/>
		
			<line fill="none" stroke="#010101" stroke-width="2" stroke-linecap="round" stroke-linejoin="round" x1="349.736" y1="576.967" x2="349.736" y2="593.708"/>
		
			<line fill="none" stroke="#010101" stroke-width="2" stroke-linecap="round" stroke-linejoin="round" x1="380.468" y1="578.571" x2="380.468" y2="595.771"/>
		
			<line fill="none" stroke="#010101" stroke-width="2" stroke-linecap="round" stroke-linejoin="round" x1="445.826" y1="628.336" x2="445.826" y2="641.865"/>
		
			<line fill="none" stroke="#010101" stroke-width="2" stroke-linecap="round" stroke-linejoin="round" x1="487.563" y1="628.336" x2="487.563" y2="641.865"/>
		<path fill="#08AD84" d="M440.093,626.96c-0.459,0-1.148-0.229-1.377-0.459l-59.854-51.139h-26.375
			c-0.687,0-1.143-0.229-1.603-0.688l-35.776-33.484l-26.143,0.459c-0.458,0-0.918-0.229-1.376-0.459l-24.767-18.115
			c-0.918-0.688-1.147-2.064-0.459-3.212c0.459-0.687,1.146-0.916,1.835-0.916h8.485c0.458,0,0.917,0.229,1.376,0.458l16.971,12.843
			l29.813-0.23c0.456,0,1.146,0.23,1.605,0.688l37.15,33.711h27.978c0.459,0,1.147,0.229,1.605,0.459l65.13,56.187
			c0.916,0.916,1.146,2.292,0.229,3.21c-0.458,0.459-1.147,0.915-1.836,0.915L440.093,626.96z"/>
		<path fill="#010101" d="M272.225,521.24l17.658,13.302l30.73-0.229l37.838,34.398h28.896l65.129,55.955h-12.383l-60.542-51.826
			H352.26l-36.692-34.173l-27.06,0.461l-24.539-18.117h8.256 M272.225,516.653h-8.485c-2.522,0-4.587,2.063-4.587,4.587
			c0,1.375,0.688,2.751,1.835,3.67l24.767,18.117c0.688,0.687,1.834,0.916,2.752,0.916l0,0l25.226-0.459l35.317,32.794
			c0.915,0.688,2.063,1.146,3.209,1.146h25.455l59.167,50.683c0.919,0.688,1.834,1.147,2.981,1.147h12.383
			c2.524,0,4.588-2.067,4.588-4.589c0-1.375-0.688-2.521-1.606-3.438l-64.899-56.185c-0.917-0.69-1.834-1.149-2.981-1.149h-27.059
			l-36.465-33.021c-0.916-0.688-2.064-1.147-3.21-1.147l0,0l-29.124,0.23l-16.513-12.385
			C274.289,517.112,273.142,516.653,272.225,516.653L272.225,516.653z"/>
	</g>
</g>
</svg>
