<svg xmlns="http://www.w3.org/2000/svg" viewBox="0 0 304.46 177.08"><defs><style>.cls-1{fill:#8683bf;}.cls-2{fill:#010101;}.cls-3{fill:#0c81c3;}.cls-4{fill:#2f5d9d;}.cls-5,.cls-6{fill:#08ad84;}.cls-6{stroke:#010101;stroke-linecap:round;stroke-linejoin:round;stroke-width:2px;}</style></defs><title>Q_04</title><g id="Layer_2" data-name="Layer 2"><g id="Landmark"><path class="cls-1" d="M155.06,40.45a5.39,5.39,0,0,1-2.5-.66,1,1,0,0,1-.5-.89l.22-7.86a1,1,0,0,1,1-1h.09L154.19,2a1,1,0,0,1,1-1h0a1,1,0,0,1,1,1l.48,28.09h.3a1,1,0,0,1,1,1v7.67a1,1,0,0,1-.34.75A3.86,3.86,0,0,1,155.06,40.45Z"/><path class="cls-2" d="M155.19,2l.5,29.07H157v7.67a2.8,2.8,0,0,1-1.91.71,4.5,4.5,0,0,1-2-.52l.22-7.86h1.06L155.19,2m0-2a2,2,0,0,0-2,1.94l-.8,27.34A2,2,0,0,0,151.28,31l-.22,7.86a2,2,0,0,0,1,1.79,6.42,6.42,0,0,0,3,.79,4.84,4.84,0,0,0,3.24-1.21,2,2,0,0,0,.67-1.5V31.07a2,2,0,0,0-1.31-1.88L157.19,2a2,2,0,0,0-2-2Z"/><path class="cls-3" d="M49.72,167.62a1,1,0,0,1-1-1V73.77a1,1,0,0,1,1-1L209,68.09h.09l50.81,4.68a1,1,0,0,1,.91,1v90.57a1,1,0,0,1-.9,1l-49.77,5H210Z"/><path class="cls-2" d="M209,69.09l50.81,4.68v90.57l-49.77,5-160.29-2.7V73.77L209,69.09m0-2h-.06L49.68,71.77a2,2,0,0,0-1.94,2v92.85a2,2,0,0,0,2,2L210,171.32h.24l49.77-5a2,2,0,0,0,1.8-2V73.77a2,2,0,0,0-1.82-2L209.17,67.1Z"/><polygon class="cls-4" points="259.8 164.34 259.8 121.04 259.8 73.77 208.99 69.09 208.99 169.3 210.03 169.32 259.8 164.34"/><path class="cls-3" d="M221.74,87a1,1,0,0,1-1-1V82.43a1,1,0,0,1,2,0V86A1,1,0,0,1,221.74,87Z"/><path class="cls-2" d="M221.74,82.43v0m0-2a2,2,0,0,0-2,2V86a2,2,0,1,0,4,0V82.43a2,2,0,0,0-2-2Z"/><path class="cls-3" d="M221.74,126.79a1,1,0,0,1-1-1V86a1,1,0,1,1,2,0v39.76A1,1,0,0,1,221.74,126.79Z"/><path class="cls-2" d="M221.74,86v0m0-2a2,2,0,0,0-2,2v39.76a2,2,0,1,0,4,0V86a2,2,0,0,0-2-2Z"/><path class="cls-3" d="M221.74,125.76a1,1,0,0,1-1-1v-7.39a1,1,0,0,1,.3-.71,1,1,0,0,1,.7-.29l80.74,1.44a1,1,0,0,1,1,1v6a1,1,0,0,1-1,1Z"/><path class="cls-2" d="M221.74,117.37l80.72,1.44v6H221.74v-7.39m0-2a2,2,0,0,0-2,2v7.39a2,2,0,0,0,2,2h80.72a2,2,0,0,0,2-2v-6a2,2,0,0,0-2-2l-80.72-1.44Z"/><path class="cls-5" d="M2,125.76a1,1,0,0,1-1-1v-6a1,1,0,0,1,1-1l219.75-1.37a1,1,0,0,1,1,1v7.39a1,1,0,0,1-1,1Z"/><path class="cls-2" d="M221.74,117.37v7.39H2v-6l219.74-1.37m0-2h0L2,116.74a2,2,0,0,0-2,2v6a2,2,0,0,0,2,2H221.74a2,2,0,0,0,2-2v-7.39a2,2,0,0,0-2-2Z"/><path class="cls-3" d="M221.74,97.62a1,1,0,0,1-1-1V91.08a1,1,0,0,1,.3-.71,1,1,0,0,1,.7-.29l80.73,1.08a1,1,0,0,1,1,1v4.46a1,1,0,0,1-1,1Z"/><path class="cls-2" d="M221.74,91.08l80.72,1.08v4.46H221.74V91.08m0-2a2,2,0,0,0-1.4.58,2,2,0,0,0-.6,1.42v5.54a2,2,0,0,0,2,2h80.72a2,2,0,0,0,2-2V92.16a2,2,0,0,0-2-2l-80.72-1.07Z"/><path class="cls-5" d="M2,97.62a1,1,0,0,1-1-1V92.11a1,1,0,0,1,1-1l219.74-1a1,1,0,0,1,1,1v5.54a1,1,0,0,1-1,1Z"/><path class="cls-2" d="M221.74,91.08v5.54H2V92.1l219.74-1m0-2h0L2,90.1a2,2,0,0,0-2,2v4.52a2,2,0,0,0,2,2H221.74a2,2,0,0,0,2-2V91.08a2,2,0,0,0-2-2Z"/><path class="cls-3" d="M221.69,87a1,1,0,0,1-.95-1V82.43a1,1,0,0,1,.31-.73,1,1,0,0,1,.69-.27l7.39.37a1,1,0,0,1,1,1v3.51a1,1,0,0,1-.31.73,1,1,0,0,1-.69.27Z"/><path class="cls-2" d="M221.74,82.43l7.34.37v3.51L221.74,86V82.43m0-2a2,2,0,0,0-2,2V86a2,2,0,0,0,1.91,2l7.34.34h.09a2,2,0,0,0,1.38-.55,2,2,0,0,0,.62-1.45V82.8a2,2,0,0,0-1.89-2l-7.35-.37Z"/><path class="cls-3" d="M250.57,87.73a1,1,0,0,1-1-1V83.26a1,1,0,0,1,.31-.72,1,1,0,0,1,.69-.28l9.09.38a1,1,0,0,1,1,1v3.44a1,1,0,0,1-.31.72,1,1,0,0,1-.69.28Z"/><path class="cls-2" d="M250.6,83.26l9,.38v3.44l-9-.34V83.26m0-2a2,2,0,0,0-2,2v3.48a2,2,0,0,0,1.93,2l9,.35h.08a2,2,0,0,0,2-2V83.64a2,2,0,0,0-1.92-2l-9-.38Z"/><path class="cls-3" d="M276.79,89.47a1,1,0,0,1-1-1v-3.4a1,1,0,0,1,.31-.73,1,1,0,0,1,.69-.27l7.52.38a1,1,0,0,1,.95,1v3.37a1,1,0,0,1-.31.72,1,1,0,0,1-.69.28Z"/><path class="cls-2" d="M276.84,85.07l7.47.38v3.37l-7.47-.35v-3.4m0-2a2,2,0,0,0-2,2v3.4a2,2,0,0,0,1.9,2l7.48.35h.09a2,2,0,0,0,1.38-.55,2,2,0,0,0,.62-1.45V85.45a2,2,0,0,0-1.9-2l-7.47-.38Z"/><path class="cls-3" d="M221.74,126.79a1,1,0,0,1-1-1V86a1,1,0,0,1,1-1l7.39.34a1,1,0,0,1,1,1v39.42a1,1,0,0,1-1,1Z"/><path class="cls-2" d="M221.74,86l7.34.34v39.42h-7.34V86m0-2a2,2,0,0,0-1.38.55,2,2,0,0,0-.62,1.45v39.76a2,2,0,0,0,2,2h7.34a2,2,0,0,0,2-2V86.37a2,2,0,0,0-1.9-2L221.83,84Z"/><path class="cls-3" d="M250.6,126.79a1,1,0,0,1-1-1v-39a1,1,0,0,1,.31-.73,1,1,0,0,1,.69-.27l9.08.35a1,1,0,0,1,1,1v38.65a1,1,0,0,1-1,1Z"/><path class="cls-2" d="M250.6,86.8l9,.34v38.65h-9v-39m0-2a2,2,0,0,0-1.38.55,2,2,0,0,0-.62,1.45v39a2,2,0,0,0,2,2h9a2,2,0,0,0,2-2V87.14a2,2,0,0,0-1.93-2l-9-.35Z"/><path class="cls-1" d="M246.92,88.08a1,1,0,0,1-.67-.26,1,1,0,0,1-.33-.74V83.64a1,1,0,0,1,.9-1l3.68-.38h.1a1,1,0,0,1,.67.26,1,1,0,0,1,.33.74v3.47a1,1,0,0,1-.9,1l-3.69.35Z"/><path class="cls-2" d="M250.6,83.26v3.47l-3.68.35V83.64l3.68-.38m0-2h-.2l-3.69.38a2,2,0,0,0-1.79,2v3.44a2,2,0,0,0,.65,1.48,2,2,0,0,0,1.35.52h.19l3.68-.34a2,2,0,0,0,1.81-2V83.26a2,2,0,0,0-2-2Z"/><path class="cls-5" d="M246.92,126.79a1,1,0,0,1-1-1V87.14a1,1,0,0,1,.91-1l3.68-.35h.09a1,1,0,0,1,.68.27,1,1,0,0,1,.32.73v39a1,1,0,0,1-1,1Z"/><path class="cls-2" d="M250.6,86.79v39h-3.68V87.14l3.68-.35m0-2h-.19l-3.68.35a2,2,0,0,0-1.81,2v38.65a2,2,0,0,0,2,2h3.68a2,2,0,0,0,2-2v-39a2,2,0,0,0-.65-1.47,2,2,0,0,0-1.35-.53Z"/><path class="cls-3" d="M276.84,127.76a1,1,0,0,1-1-1V88.53a1,1,0,0,1,.31-.72,1,1,0,0,1,.69-.28l7.52.35a1,1,0,0,1,.95,1v37.88a1,1,0,0,1-1,1Z"/><path class="cls-2" d="M276.84,88.53l7.47.35v37.88h-7.47V88.53m0-2a2,2,0,0,0-2,2v38.23a2,2,0,0,0,2,2h7.47a2,2,0,0,0,2-2V88.88a2,2,0,0,0-1.91-2l-7.47-.35Z"/><path class="cls-1" d="M273.1,89.82a1,1,0,0,1-.67-.26,1,1,0,0,1-.33-.74V85.44a1,1,0,0,1,.9-1l3.74-.38h.1a1.06,1.06,0,0,1,.67.26,1,1,0,0,1,.33.74v3.41a1,1,0,0,1-.91,1l-3.74.35Z"/><path class="cls-2" d="M276.84,85.06v3.41l-3.74.35V85.44l3.74-.38m0-2h-.21l-3.73.38a2,2,0,0,0-1.8,2v3.38a2,2,0,0,0,.65,1.48,2,2,0,0,0,1.35.52h.19l3.73-.35a2,2,0,0,0,1.82-2V85.06a2,2,0,0,0-.66-1.48,2,2,0,0,0-1.34-.52Z"/><path class="cls-5" d="M273.1,127.76a1,1,0,0,1-1-1V88.88a1,1,0,0,1,.91-1l3.73-.35h.1a1,1,0,0,1,.67.26,1,1,0,0,1,.33.74v38.23a1,1,0,0,1-1,1Z"/><path class="cls-2" d="M276.84,88.53v38.23H273.1V88.88l3.74-.35m0-2h-.19l-3.74.35a2,2,0,0,0-1.81,2v37.88a2,2,0,0,0,2,2h3.74a2,2,0,0,0,2-2V88.53a2,2,0,0,0-.66-1.48,2,2,0,0,0-1.34-.52Z"/><path class="cls-1" d="M210.7,87.16a1,1,0,0,1-.7-.29.94.94,0,0,1-.3-.71V82.63a1,1,0,0,1,1-1l11.06-.2a1,1,0,0,1,1,1V86a1,1,0,0,1-1,1Z"/><path class="cls-2" d="M221.74,82.43V86l-11,.19V82.63l11-.2m0-2h0l-11,.2a2,2,0,0,0-2,2v3.53a2,2,0,0,0,.59,1.43,2.05,2.05,0,0,0,1.41.57h0l11-.19a2,2,0,0,0,2-2V82.43a2,2,0,0,0-.6-1.43,2,2,0,0,0-1.4-.57Z"/><path class="cls-1" d="M2,90.74a1,1,0,0,1-1-1V86.53a1,1,0,0,1,1-1l11-.2a1,1,0,0,1,1,1v3.22a1,1,0,0,1-1,1Z"/><path class="cls-2" d="M13,86.33v3.22L2,89.74V86.53l11-.2m0-2h0l-11,.2a2,2,0,0,0-2,2v3.21a2,2,0,0,0,2,2H2l11-.19a2,2,0,0,0,2-2V86.33a2,2,0,0,0-2-2Z"/><path class="cls-1" d="M33.05,90a1,1,0,0,1-1-1V85.76a1,1,0,0,1,1-1l7.49-.14a1,1,0,0,1,1,1V88.9a1,1,0,0,1-1,1Z"/><path class="cls-2" d="M40.52,85.62V88.9L33.05,89V85.76l7.47-.14m0-2h0L33,83.76a2,2,0,0,0-2,2V89a2,2,0,0,0,.59,1.43,2.05,2.05,0,0,0,1.41.57h0l7.47-.13a2,2,0,0,0,2-2V85.62a2,2,0,0,0-.6-1.43,2,2,0,0,0-1.4-.57Z"/><path class="cls-1" d="M60.39,89.34a1,1,0,0,1-1-1V85a1,1,0,0,1,1-1l7.49-.14a1,1,0,0,1,1,1v3.34a1,1,0,0,1-1,1Z"/><path class="cls-2" d="M67.87,84.87v3.34l-7.48.13V85l7.48-.14m0-2h0L60.36,83a2,2,0,0,0-2,2v3.33a2,2,0,0,0,.6,1.43,2,2,0,0,0,1.4.57h0l7.47-.13a2,2,0,0,0,2-2V84.87a2,2,0,0,0-.6-1.43,2,2,0,0,0-1.4-.57Z"/><path class="cls-1" d="M90.77,89a1,1,0,0,1-.7-.28,1,1,0,0,1-.3-.72V84.63a1,1,0,0,1,1-1l7.49-.14a1,1,0,0,1,.7.29,1,1,0,0,1,.3.71v3.38a1,1,0,0,1-1,1Z"/><path class="cls-2" d="M98.24,84.49v3.38L90.77,88V84.63l7.47-.14m0-2h0l-7.48.14a2,2,0,0,0-2,2V88a2,2,0,0,0,2,2h0l7.48-.12a2,2,0,0,0,2-2V84.49a2,2,0,0,0-2-2Z"/><path class="cls-1" d="M120.52,88.3a1,1,0,0,1-.71-.29,1,1,0,0,1-.29-.71V83.87a1,1,0,0,1,1-1l7.49-.14a1,1,0,0,1,1,1v3.44a1,1,0,0,1-1,1Z"/><path class="cls-2" d="M128,83.73v3.44l-7.47.13V83.87l7.47-.14m0-2h0l-7.47.14a2,2,0,0,0-2,2V87.3a2,2,0,0,0,.59,1.42,2,2,0,0,0,1.41.58h0l7.47-.13a2,2,0,0,0,2-2V83.73a2,2,0,0,0-2-2Z"/><path class="cls-1" d="M149.61,87.94a1,1,0,0,1-1-1V83.48a1,1,0,0,1,1-1l7.49-.14a1,1,0,0,1,.7.29,1,1,0,0,1,.3.71v3.47a1,1,0,0,1-1,1Z"/><path class="cls-2" d="M157.08,83.34v3.47l-7.47.13V83.48l7.47-.14m0-2h0l-7.47.14a2,2,0,0,0-2,2v3.46a2,2,0,0,0,2,2h0l7.48-.13a2,2,0,0,0,2-2V83.34a2,2,0,0,0-.6-1.43,2,2,0,0,0-1.4-.57Z"/><path class="cls-1" d="M181.19,87.6a1,1,0,0,1-.7-.29,1,1,0,0,1-.3-.71V83.11a1,1,0,0,1,1-1l7.49-.14a1,1,0,0,1,.7.29,1,1,0,0,1,.3.71v3.5a1,1,0,0,1-1,1Z"/><path class="cls-2" d="M188.66,83v3.5l-7.47.13V83.11l7.47-.14m0-2h0l-7.48.14a2,2,0,0,0-2,2V86.6a2,2,0,0,0,.6,1.43,2,2,0,0,0,1.4.57h0l7.48-.13a2,2,0,0,0,2-2V83a2,2,0,0,0-2-2Z"/><path class="cls-5" d="M210.7,126.79a1,1,0,0,1-1-1V86.22a1,1,0,0,1,1-1L221.74,85a1,1,0,0,1,.7.29,1,1,0,0,1,.3.71v39.76a1,1,0,0,1-1,1Z"/><path class="cls-2" d="M221.74,86v39.76h-11V86.22l11-.19m0-2h0l-11.05.19a2,2,0,0,0-2,2v39.57a2,2,0,0,0,2,2h11a2,2,0,0,0,2-2V86a2,2,0,0,0-.6-1.43,2,2,0,0,0-1.4-.57Z"/><path class="cls-5" d="M2,126.79a1,1,0,0,1-1-1v-36a1,1,0,0,1,1-1l11-.19a1,1,0,0,1,.7.29,1,1,0,0,1,.3.71v36.18a1,1,0,0,1-1,1Z"/><path class="cls-2" d="M13,89.61v36.18H2v-36l11-.19m0-2h0L2,87.8a2,2,0,0,0-2,2v36a2,2,0,0,0,2,2H13a2,2,0,0,0,2-2V89.61a2,2,0,0,0-2-2Z"/><path class="cls-3" d="M12.93,90.55a1,1,0,0,1-.94-1V86.33a1,1,0,0,1,.32-.74,1,1,0,0,1,.68-.26l2.93.2a1,1,0,0,1,.93,1v3.21a1,1,0,0,1-1,1Z"/><path class="cls-2" d="M13,86.33l2.86.2v3.21L13,89.55V86.33m0-2a2,2,0,0,0-1.36.53A2,2,0,0,0,11,86.33v3.22a2,2,0,0,0,1.87,2l2.86.18h.13a2,2,0,0,0,2-2V86.53a2,2,0,0,0-1.86-2l-2.86-.21Z"/><path class="cls-3" d="M13,126.79a1,1,0,0,1-1-1V89.61a1,1,0,0,1,1-1l2.92.19a1,1,0,0,1,.94,1v36a1,1,0,0,1-1,1Z"/><path class="cls-2" d="M13,89.61l2.86.19v36H13V89.61m0-2a2,2,0,0,0-2,2v36.18a2,2,0,0,0,2,2h2.86a2,2,0,0,0,2-2v-36a2,2,0,0,0-1.87-2l-2.86-.18Z"/><path class="cls-5" d="M33.05,126.79a1,1,0,0,1-1-1V89.09a1,1,0,0,1,1-1L40.52,88a1,1,0,0,1,.7.29,1,1,0,0,1,.3.71v36.83a1,1,0,0,1-1,1Z"/><path class="cls-2" d="M40.52,89v36.83H33.05V89.09L40.52,89m0-2h0L33,87.09a2,2,0,0,0-2,2v36.7a2,2,0,0,0,2,2h7.47a2,2,0,0,0,2-2V89a2,2,0,0,0-2-2Z"/><path class="cls-3" d="M40.47,89.9a1,1,0,0,1-.95-1V85.62a1,1,0,0,1,.31-.73,1,1,0,0,1,.69-.27l2.72.14a1,1,0,0,1,.95,1V89a1,1,0,0,1-.31.72,1,1,0,0,1-.69.28Z"/><path class="cls-2" d="M40.52,85.62l2.67.14V89l-2.67-.13V85.62m0-2a2,2,0,0,0-2,2V88.9a2,2,0,0,0,1.9,2l2.67.13h.1a2,2,0,0,0,2-2V85.76a2,2,0,0,0-1.9-2l-2.67-.14Z"/><path class="cls-3" d="M40.52,126.79a1,1,0,0,1-1-1V89a1,1,0,0,1,.31-.72,1,1,0,0,1,.69-.28l2.71.13a1,1,0,0,1,1,1v36.7a1,1,0,0,1-1,1Z"/><path class="cls-2" d="M40.52,89l2.67.13v36.7H40.52V89m0-2a2,2,0,0,0-1.38.55A2,2,0,0,0,38.52,89v36.83a2,2,0,0,0,2,2h2.67a2,2,0,0,0,2-2V89.09a2,2,0,0,0-1.91-2L40.61,87Z"/><path class="cls-5" d="M60.39,126.79a1,1,0,0,1-1-1V88.4a1,1,0,0,1,1-1l7.49-.13a1,1,0,0,1,.7.29,1,1,0,0,1,.3.71v37.52a1,1,0,0,1-1,1Z"/><path class="cls-2" d="M67.87,88.27v37.52H60.39V88.4l7.48-.13m0-2h0l-7.47.13a2,2,0,0,0-2,2v37.39a2,2,0,0,0,2,2h7.48a2,2,0,0,0,2-2V88.27a2,2,0,0,0-2-2Z"/><path class="cls-3" d="M67.83,89.21a1,1,0,0,1-1-1V84.87a1,1,0,0,1,1-1L71,84a1,1,0,0,1,1,1v3.33a1,1,0,0,1-.31.72,1,1,0,0,1-.69.28Z"/><path class="cls-2" d="M67.87,84.87l3,.14v3.33l-3-.13V84.87m0-2a2,2,0,0,0-2,2v3.34a2,2,0,0,0,1.91,2l3,.13h.08a2,2,0,0,0,1.39-.56,2,2,0,0,0,.61-1.44V85A2,2,0,0,0,71,83l-3-.14Z"/><path class="cls-3" d="M67.87,126.79a1,1,0,0,1-1-1V88.27a1,1,0,0,1,1-1L71,87.4a1,1,0,0,1,1,1v37.39a1,1,0,0,1-1,1Z"/><path class="cls-2" d="M67.87,88.27l3,.13v37.39h-3V88.27m0-2a2,2,0,0,0-2,2v37.52a2,2,0,0,0,2,2h3a2,2,0,0,0,2-2V88.4a2,2,0,0,0-1.91-2l-3-.13Z"/><path class="cls-5" d="M90.77,126.79a1,1,0,0,1-1-1V88.06a1,1,0,0,1,1-1l7.49-.13a1,1,0,0,1,.7.28,1,1,0,0,1,.3.72v37.86a1,1,0,0,1-1,1Z"/><path class="cls-2" d="M98.24,87.93v37.86H90.77V88.06l7.47-.13m0-2h0l-7.48.13a2,2,0,0,0-2,2v37.73a2,2,0,0,0,2,2h7.47a2,2,0,0,0,2-2V87.93a2,2,0,0,0-2-2Z"/><path class="cls-3" d="M98.2,88.86a1,1,0,0,1-1-1V84.49a1,1,0,0,1,.31-.72,1,1,0,0,1,.69-.28l2.92.14a1,1,0,0,1,1,1V88a1,1,0,0,1-.31.73,1,1,0,0,1-.69.27Z"/><path class="cls-2" d="M98.24,84.49l2.87.14V88l-2.87-.12V84.49m0-2a2,2,0,0,0-2,2v3.38a2,2,0,0,0,1.91,2L101,90h.09a2,2,0,0,0,2-2V84.63a2,2,0,0,0-1.9-2l-2.87-.14Z"/><path class="cls-3" d="M98.24,126.79a1,1,0,0,1-1-1V87.93a1,1,0,0,1,.31-.73,1,1,0,0,1,.69-.27l2.92.13a1,1,0,0,1,1,1v37.74a1,1,0,0,1-1,1Z"/><path class="cls-2" d="M98.24,87.93l2.87.12v37.74H98.24V87.93m0-2a2,2,0,0,0-1.38.55,2,2,0,0,0-.62,1.45v37.86a2,2,0,0,0,2,2h2.87a2,2,0,0,0,2-2V88.05a2,2,0,0,0-1.91-2l-2.87-.13Z"/><path class="cls-5" d="M120.52,126.79a1,1,0,0,1-1-1V87.36a1,1,0,0,1,1-1l7.49-.13a1,1,0,0,1,1,1v38.56a1,1,0,0,1-1,1Z"/><path class="cls-2" d="M128,87.23v38.56h-7.47V87.36l7.47-.13m0-2h0l-7.48.13a2,2,0,0,0-2,2v38.43a2,2,0,0,0,2,2H128a2,2,0,0,0,2-2V87.23a2,2,0,0,0-.6-1.43,2,2,0,0,0-1.4-.57Z"/><path class="cls-3" d="M127.93,88.16a1,1,0,0,1-.94-1V83.73a1,1,0,0,1,.31-.73,1,1,0,0,1,.69-.27l2.3.14a1,1,0,0,1,.93,1v3.42a1,1,0,0,1-.31.73,1,1,0,0,1-.69.27Z"/><path class="cls-2" d="M128,83.73l2.23.14v3.42L128,87.17V83.73m0-2a2,2,0,0,0-1.37.54,2,2,0,0,0-.63,1.46v3.44a2,2,0,0,0,1.89,2l2.23.13h.11a2,2,0,0,0,2-2V83.87a2,2,0,0,0-1.87-2l-2.24-.14Z"/><path class="cls-3" d="M128,126.79a1,1,0,0,1-1-1V87.23a1,1,0,0,1,.31-.73,1,1,0,0,1,.69-.27l2.29.13a1,1,0,0,1,.94,1v38.44a1,1,0,0,1-1,1Z"/><path class="cls-2" d="M128,87.23l2.23.12v38.44H128V87.23m0-2a2,2,0,0,0-1.37.54,2,2,0,0,0-.63,1.46v38.56a2,2,0,0,0,2,2h2.23a2,2,0,0,0,2-2V87.35a2,2,0,0,0-1.88-2l-2.24-.13Z"/><path class="cls-5" d="M149.61,126.79a1,1,0,0,1-1-1V87a1,1,0,0,1,1-1l7.49-.13a1,1,0,0,1,.7.29,1,1,0,0,1,.3.71v38.92a1,1,0,0,1-1,1Z"/><path class="cls-2" d="M157.08,86.87v38.92h-7.47V87l7.47-.13m0-2h0l-7.48.13a2,2,0,0,0-2,2v38.79a2,2,0,0,0,2,2h7.47a2,2,0,0,0,2-2V86.87a2,2,0,0,0-2-2Z"/><path class="cls-3" d="M157,87.81a1,1,0,0,1-.95-1V83.34a1,1,0,0,1,.32-.73,1,1,0,0,1,.68-.27l2.39.14a1,1,0,0,1,.94,1v3.46a1,1,0,0,1-.31.72,1,1,0,0,1-.69.28Z"/><path class="cls-2" d="M157.08,83.34l2.33.14v3.46l-2.33-.13V83.34m0-2a2,2,0,0,0-1.37.54,2,2,0,0,0-.63,1.46v3.47a2,2,0,0,0,1.89,2l2.33.13h.11a2,2,0,0,0,1.38-.55,2,2,0,0,0,.62-1.45V83.48a2,2,0,0,0-1.88-2l-2.33-.14Z"/><path class="cls-3" d="M157.08,126.79a1,1,0,0,1-1-1V86.87a1,1,0,0,1,.31-.73,1,1,0,0,1,.69-.27l2.39.13a1,1,0,0,1,.94,1v38.79a1,1,0,0,1-1,1Z"/><path class="cls-2" d="M157.08,86.87l2.33.13v38.79h-2.33V86.87m0-2a2,2,0,0,0-1.37.55,2,2,0,0,0-.63,1.45v38.92a2,2,0,0,0,2,2h2.33a2,2,0,0,0,2-2V87a2,2,0,0,0-1.89-2l-2.33-.13Z"/><path class="cls-5" d="M181.19,126.79a1,1,0,0,1-1-1V86.66a1,1,0,0,1,1-1l7.49-.13a1,1,0,0,1,1,1v39.26a1,1,0,0,1-1,1Z"/><path class="cls-2" d="M188.66,86.53v39.26h-7.47V86.66l7.47-.13m0-2h0l-7.47.13a2,2,0,0,0-2,2v39.13a2,2,0,0,0,2,2h7.47a2,2,0,0,0,2-2V86.53a2,2,0,0,0-.59-1.42,2,2,0,0,0-1.41-.58Z"/><path class="cls-3" d="M188.61,87.47a1,1,0,0,1-1-1V83a1,1,0,0,1,.32-.73,1,1,0,0,1,.68-.27l2.33.14a1,1,0,0,1,.94,1V86.6a1,1,0,0,1-.31.72,1,1,0,0,1-.69.28Z"/><path class="cls-2" d="M188.66,83l2.27.14V86.6l-2.27-.13V83m0-2a2,2,0,0,0-2,2v3.5a2,2,0,0,0,1.89,2l2.27.13h.11a2,2,0,0,0,1.38-.55,2,2,0,0,0,.62-1.45V83.11a2,2,0,0,0-1.87-2L188.79,81Z"/><path class="cls-3" d="M188.66,126.79a1,1,0,0,1-1-1V86.53a1,1,0,0,1,.32-.73,1,1,0,0,1,.68-.27l2.33.13a1,1,0,0,1,.94,1v39.13a1,1,0,0,1-1,1Z"/><path class="cls-2" d="M188.66,86.53l2.27.13v39.13h-2.27V86.53m0-2a2,2,0,0,0-2,2v39.26a2,2,0,0,0,2,2h2.27a2,2,0,0,0,2-2V86.66a2,2,0,0,0-1.88-2l-2.27-.13Z"/><path class="cls-5" d="M295.44,166.49a1,1,0,0,1-1-1V142.14c0-3.48-1.05-6-2.69-6.38a1,1,0,0,1-.76-.94,1,1,0,0,1,.71-1,4.5,4.5,0,0,1,1.11-.18h.12c3.26,0,5.82,3.69,5.82,8.4V165.5a1,1,0,0,1-.3.71,1,1,0,0,1-.7.29Z"/><path class="cls-2" d="M292.93,134.64c2.67,0,4.82,3.29,4.82,7.41V165.5h-2.31V142.14c0-3.74-1.14-6.79-3.45-7.35a3.09,3.09,0,0,1,.85-.14h.09m0-2h-.15a4.91,4.91,0,0,0-1.37.23,2,2,0,0,0,.11,3.86c1.13.27,1.92,2.49,1.92,5.4v23.35a2,2,0,0,0,2,2h2.32a2,2,0,0,0,2-2V142.05c0-5.27-3-9.41-6.82-9.41Z"/><path class="cls-5" d="M280.58,168.44a1,1,0,0,1-.7-.29,1,1,0,0,1-.3-.71V142.91c0-3.67-1.06-6.31-2.7-6.73a1,1,0,0,1-.05-1.93,4.17,4.17,0,0,1,1.12-.19h.11c3.27,0,5.83,3.85,5.83,8.76v24.55a1,1,0,0,1-1,1Z"/><path class="cls-2" d="M278.06,135.06c2.67,0,4.83,3.44,4.83,7.76v24.55l-2.31.07V142.91c0-3.92-1.15-7.11-3.45-7.7a3,3,0,0,1,.85-.15h.08m0-2h-.14a5,5,0,0,0-1.39.24,2,2,0,0,0,.1,3.85c1,.24,1.95,2.3,1.95,5.76v24.53a2,2,0,0,0,2,2h.06l2.3-.07a2,2,0,0,0,1.95-2V142.82c0-5.48-3-9.76-6.83-9.76Z"/><path class="cls-5" d="M265.41,170.23a1,1,0,0,1-1-1V143.67c0-4.09-.88-6.67-2.41-7.08a1,1,0,0,1-.74-.94,1,1,0,0,1,.69-1,4.2,4.2,0,0,1,1.13-.2h.11c3.27,0,5.82,4,5.82,9.12v25.66a1,1,0,0,1-.29.71,1,1,0,0,1-.71.29Z"/><path class="cls-2" d="M263.2,135.47c2.67,0,4.82,3.6,4.82,8.12v25.66l-2.6,0V143.67c0-4.09-.85-7.43-3.15-8a3,3,0,0,1,.85-.16h.08m0-2h-.14a5.11,5.11,0,0,0-1.41.25,2,2,0,0,0,.1,3.84c.83.22,1.67,2.2,1.67,6.11v25.56a2,2,0,0,0,2,2l2.6,0h0a2,2,0,0,0,2-2V143.59c0-5.77-2.93-10.12-6.82-10.12Z"/><path class="cls-5" d="M250.25,172.11a1,1,0,0,1-1-1V144.44c0-4.6-.69-7-2.11-7.43a1,1,0,0,1-.73-.94,1,1,0,0,1,.67-1,3.76,3.76,0,0,1,1.15-.22h.1c3.27,0,5.83,4.16,5.83,9.47v26.77a1,1,0,0,1-1,1Z"/><path class="cls-2" d="M248.33,135.88c2.68,0,4.83,3.76,4.83,8.47v26.77h-2.91V144.44c0-4.27-.54-7.75-2.84-8.4a3,3,0,0,1,.85-.16h.07m0-2h-.13a4.74,4.74,0,0,0-1.44.27,2,2,0,0,0,.11,3.82c.32.09,1.38.83,1.38,6.47v26.67a2,2,0,0,0,2,2h2.91a2,2,0,0,0,2-2V144.35c0-6-2.93-10.47-6.83-10.47Z"/><path class="cls-5" d="M234.82,173.83a1,1,0,0,1-1-1V145.21c0-3.77,0-7.32-1.6-7.79a1,1,0,0,1-.71-.93,1,1,0,0,1,.66-1,3.52,3.52,0,0,1,1.16-.23h.1c3.27,0,5.83,4.32,5.83,9.83V173a1,1,0,0,1-.31.73,1,1,0,0,1-.69.27Z"/><path class="cls-2" d="M233.47,136.29c2.68,0,4.83,3.93,4.83,8.83V173l-3.44-.16V145.21c0-4.44,0-8.07-2.31-8.75a2.67,2.67,0,0,1,.84-.17h.08m0-2h-.13a4.83,4.83,0,0,0-1.46.28,2,2,0,0,0,.1,3.81c.88.26.88,4.53.88,6.83v27.62a2,2,0,0,0,1.91,2l3.44.16h.09a2,2,0,0,0,1.38-.55,2,2,0,0,0,.62-1.45V145.12c0-6.17-2.93-10.83-6.83-10.83Z"/><path class="cls-3" d="M221.74,176.08a1,1,0,0,1-.66-.25,1,1,0,0,1-.34-.75V125.79a1,1,0,0,1,1-1h80.72a1,1,0,0,1,1,1v39.12a1,1,0,0,1-.87,1l-4.72.59h-.12a1,1,0,0,1-1-1V142.05c0-3.47-1.75-6.4-3.82-6.4a2,2,0,0,0-.65.1,1,1,0,0,1-.29,0,1,1,0,0,1-.24,0,2.67,2.67,0,0,0-.54-.07c-2.17.06-4,3.25-4,7V167a1,1,0,0,1-.87,1l-3.35.43h-.12a1,1,0,0,1-.67-.25,1,1,0,0,1-.33-.75V142.82c0-3.67-1.75-6.76-3.83-6.76a2.19,2.19,0,0,0-.63.1,1,1,0,0,1-.3.05,1,1,0,0,1-.25,0,2.13,2.13,0,0,0-.53-.08c-2.18.06-4,3.41-4,7.31v25.41a1,1,0,0,1-.87,1l-3.35.42H268a1,1,0,0,1-1-1V143.59c0-3.86-1.75-7.12-3.82-7.12a1.84,1.84,0,0,0-.62.11,1.12,1.12,0,0,1-.31,0,1.26,1.26,0,0,1-.27,0,1.92,1.92,0,0,0-.51-.08c-1.91.06-4,3.22-4,7.67V170.7a1,1,0,0,1-.87,1l-3.35.42h-.13a1,1,0,0,1-1-1V144.35c0-4.47-2-7.47-3.83-7.47a1.73,1.73,0,0,0-.6.11.93.93,0,0,1-.32,0,.86.86,0,0,1-.28,0,1.89,1.89,0,0,0-.51-.07c-1.9,0-4,3.35-4,8v27.62a1,1,0,0,1-.88,1l-3.34.43h-.13a1,1,0,0,1-.66-.25,1,1,0,0,1-.34-.75V145.12c0-4.68-2-7.83-3.83-7.83a1.71,1.71,0,0,0-.59.11,1,1,0,0,1-.33.06.92.92,0,0,1-.29,0,1.57,1.57,0,0,0-.5-.08c-1.9,0-4,3.5-4,8.37v28.73a1,1,0,0,1-.88,1l-5,.63Z"/><path class="cls-2" d="M302.46,125.79v39.12l-4.71.59V142.05c0-4.12-2.15-7.41-4.82-7.41h-.09a3.09,3.09,0,0,0-.85.14,3.32,3.32,0,0,0-.77-.1h-.08c-2.71.08-4.91,3.64-4.91,8V167l-3.34.42V142.82c0-4.32-2.16-7.76-4.83-7.76H278a3,3,0,0,0-.85.15,2.88,2.88,0,0,0-.78-.11h-.07c-2.71.08-4.91,3.8-4.91,8.31v25.41l-3.35.43V143.59c0-4.52-2.15-8.12-4.82-8.12h-.08a3,3,0,0,0-.85.16,3,3,0,0,0-.78-.12h-.07c-2.71.07-4.91,3.95-4.91,8.66V170.7l-3.35.42V144.35c0-4.71-2.15-8.47-4.83-8.47h-.07a3,3,0,0,0-.85.16,3,3,0,0,0-.79-.11h-.06c-2.71.07-4.91,4.11-4.91,9v27.62l-3.35.42V145.12c0-4.91-2.15-8.83-4.83-8.83h-.08a2.38,2.38,0,0,1-1.63.05h-.06c-2.71.07-4.91,4.27-4.91,9.37v28.73l-5,.64V125.79h80.72m0-2H221.74a2,2,0,0,0-2,2v49.29a2,2,0,0,0,2,2l.25,0,5-.63a2,2,0,0,0,1.75-2V145.71c0-4.38,1.78-7.34,3-7.37h0a.6.6,0,0,1,.23,0,2.12,2.12,0,0,0,.57.08,2.17,2.17,0,0,0,.66-.11.75.75,0,0,1,.24-.06c1.15,0,2.85,2.72,2.85,6.83V173a2,2,0,0,0,2,2h.25l3.35-.42a2,2,0,0,0,1.75-2V145c0-4.17,1.78-7,3-7h0a.77.77,0,0,1,.25,0,2.14,2.14,0,0,0,1.19,0,.78.78,0,0,1,.26-.06h0c1.18,0,2.85,2.52,2.85,6.47v26.77a2,2,0,0,0,2,2l.25,0,3.35-.42a2,2,0,0,0,1.75-2V144.18c0-4,1.76-6.63,3-6.67h0a.91.91,0,0,1,.26.05,2.41,2.41,0,0,0,.53.07,2.17,2.17,0,0,0,.62-.1.88.88,0,0,1,.28-.06h0c1.18,0,2.85,2.38,2.85,6.12v25.66a2,2,0,0,0,2,2l.25,0,3.35-.42a2,2,0,0,0,1.75-2V143.41c0-3.8,1.76-6.27,3-6.31h0a1.1,1.1,0,0,1,.29.05,2.08,2.08,0,0,0,1.1,0,1,1,0,0,1,.3-.06h0c1.21,0,2.86,2.19,2.86,5.76v24.55a2,2,0,0,0,2,2h.25l3.34-.42a2,2,0,0,0,1.75-2v-24.3c0-3.31,1.6-5.92,3-6h0a1.76,1.76,0,0,1,.31,0,2,2,0,0,0,.48.06,2.32,2.32,0,0,0,.58-.08,1,1,0,0,1,.32-.06h0c1.37,0,2.86,2.31,2.86,5.4V165.5a2,2,0,0,0,.67,1.5,2,2,0,0,0,1.33.5H298l4.71-.6a2,2,0,0,0,1.75-2V125.79a2,2,0,0,0-2-2Z"/><path class="cls-3" d="M192.56,175.1a1,1,0,0,1-.7-.29,1,1,0,0,1-.3-.71V145.57c0-5.57,4.27-10.11,9.52-10.11a8.33,8.33,0,0,1,1.73.18,1,1,0,0,1,.81,1,1,1,0,0,1-.82,1,7.94,7.94,0,0,0-6.27,8v28.44a1,1,0,0,1-1,1Z"/><path class="cls-2" d="M201.08,136.46h.06a7.29,7.29,0,0,1,1.48.16,8.94,8.94,0,0,0-7.09,9v28.44l-3,0V145.57c0-5,3.81-9.11,8.52-9.11m0-2c-5.8,0-10.52,5-10.52,11.11V174.1a2,2,0,0,0,2,2h0l3,0a2,2,0,0,0,2-2V145.61a6.93,6.93,0,0,1,5.44-7,2,2,0,0,0,0-3.93,10.15,10.15,0,0,0-1.85-.2Z"/><path class="cls-3" d="M166.57,174.22a1,1,0,0,1-1-1v-28a9.75,9.75,0,0,1,9.51-9.95,9.14,9.14,0,0,1,1.73.17,1,1,0,0,1,0,2,7.81,7.81,0,0,0-6.27,7.85v28.06a1,1,0,0,1-1,1Z"/><path class="cls-2" d="M175.11,136.27h.06a8.18,8.18,0,0,1,1.49.15,8.84,8.84,0,0,0-7.1,8.84v28.06l-3-.1v-28a8.72,8.72,0,0,1,8.51-8.95m0-2a10.74,10.74,0,0,0-10.51,10.95v28a2,2,0,0,0,1.93,2l3,.1h.06a2,2,0,0,0,2-2V145.26a6.82,6.82,0,0,1,5.44-6.87,2,2,0,0,0,0-3.93,10,10,0,0,0-1.84-.19Z"/><path class="cls-3" d="M140.64,173.35a1,1,0,0,1-1-1V144.86a9.65,9.65,0,0,1,9.51-9.78,9.06,9.06,0,0,1,1.73.17,1,1,0,0,1,.81,1,1,1,0,0,1-.83,1,7.68,7.68,0,0,0-6.26,7.68v27.4a1,1,0,0,1-1,1Z"/><path class="cls-2" d="M149.15,136.08h.06a8,8,0,0,1,1.48.15,8.71,8.71,0,0,0-7.09,8.67v27.4l-3,0V144.86a8.63,8.63,0,0,1,8.51-8.78m0-2a10.65,10.65,0,0,0-10.51,10.78v27.49a2,2,0,0,0,.59,1.43,2.05,2.05,0,0,0,1.41.57h0l3,0a2,2,0,0,0,2-2V144.9a6.69,6.69,0,0,1,5.44-6.7,2,2,0,0,0,0-3.94,9.88,9.88,0,0,0-1.84-.18Z"/><path class="cls-3" d="M114.67,172.48a1,1,0,0,1-.7-.29,1,1,0,0,1-.3-.71v-27a9.57,9.57,0,0,1,9.51-9.61,9.05,9.05,0,0,1,1.73.16,1,1,0,0,1,.82,1,1,1,0,0,1-.83,1,7.57,7.57,0,0,0-6.26,7.52v26.88a1,1,0,0,1-1,1Z"/><path class="cls-2" d="M123.18,135.88h.07a8.07,8.07,0,0,1,1.48.15,8.57,8.57,0,0,0-7.09,8.5v26.88l-3,.06v-27a8.56,8.56,0,0,1,8.51-8.62m0-2a10.58,10.58,0,0,0-10.51,10.62v27a2,2,0,0,0,2,2h0l3-.05a2,2,0,0,0,2-2V144.54a6.56,6.56,0,0,1,5.43-6.53,2,2,0,0,0,0-3.94,10,10,0,0,0-1.84-.18Z"/><path class="cls-3" d="M88.71,171.6a1,1,0,0,1-1-1V144.14a9.49,9.49,0,0,1,9.51-9.45,10,10,0,0,1,1.73.17,1,1,0,0,1,.82,1,1,1,0,0,1-.84,1,7.45,7.45,0,0,0-6.26,7.35V170.4a1,1,0,0,1-.93,1Z"/><path class="cls-2" d="M97.22,135.69h.06a9.18,9.18,0,0,1,1.49.15,8.47,8.47,0,0,0-7.1,8.34V170.4l-3,.2V144.14a8.47,8.47,0,0,1,8.51-8.45m0-2a10.49,10.49,0,0,0-10.51,10.45V170.6a2,2,0,0,0,2,2h.14l3-.21a2,2,0,0,0,1.86-2V144.18a6.46,6.46,0,0,1,5.43-6.37,2,2,0,0,0,0-3.94,12,12,0,0,0-1.83-.18Z"/><path class="cls-3" d="M62.75,170.73a1.07,1.07,0,0,1-.68-.26,1,1,0,0,1-.32-.74V143.78a9.4,9.4,0,0,1,9.5-9.28,10,10,0,0,1,1.73.16,1,1,0,0,1,0,2,7.34,7.34,0,0,0-6.25,7.19v25.63a1,1,0,0,1-.9,1l-3,.28Z"/><path class="cls-2" d="M71.25,135.5h.07a8.94,8.94,0,0,1,1.48.15,8.34,8.34,0,0,0-7.09,8.17v25.63l-3,.28V143.78a8.38,8.38,0,0,1,8.5-8.28m0-2a10.4,10.4,0,0,0-10.5,10.28v25.95a2,2,0,0,0,.65,1.48,2,2,0,0,0,1.35.52h.18l3-.28a2,2,0,0,0,1.81-2V143.82a6.33,6.33,0,0,1,5.42-6.2,2,2,0,0,0,0-3.94,10.78,10.78,0,0,0-1.82-.18Z"/><path class="cls-3" d="M36.78,169.85a1,1,0,0,1-.67-.26,1,1,0,0,1-.33-.74V143.43a9.33,9.33,0,0,1,9.51-9.12,9,9,0,0,1,1.72.16,1,1,0,0,1,0,2,7.22,7.22,0,0,0-6.25,7v25.1a1,1,0,0,1-.91,1l-3,.28Z"/><path class="cls-2" d="M45.29,135.31h.07a9.05,9.05,0,0,1,1.48.14,8.23,8.23,0,0,0-7.09,8v25.1l-3,.28V143.43a8.31,8.31,0,0,1,8.51-8.12m0-2a10.34,10.34,0,0,0-10.51,10.12v25.42a2,2,0,0,0,2,2H37l3-.27a2,2,0,0,0,1.81-2v-25.1a6.22,6.22,0,0,1,5.41-6,2,2,0,0,0,0-4,10.63,10.63,0,0,0-1.82-.17Z"/><path class="cls-3" d="M10.82,169a1,1,0,0,1-.67-.26,1,1,0,0,1-.33-.74V143.07a9.24,9.24,0,0,1,9.5-8.95,9.85,9.85,0,0,1,1.73.15,1,1,0,0,1,0,2,7.1,7.1,0,0,0-6.24,6.86V167.7a1,1,0,0,1-.91,1l-3,.27Z"/><path class="cls-2" d="M19.32,135.12h.07a8.18,8.18,0,0,1,1.49.14,8.12,8.12,0,0,0-7.09,7.85V167.7l-3,.28V143.07a8.22,8.22,0,0,1,8.5-7.95m0-2a10.25,10.25,0,0,0-10.5,9.95V168a2,2,0,0,0,2,2H11l3-.28a2,2,0,0,0,1.82-2V143.11a6.12,6.12,0,0,1,5.4-5.88,2,2,0,0,0,0-3.94,10.61,10.61,0,0,0-1.81-.17Z"/><path class="cls-5" d="M212.64,175.77a1,1,0,0,1-1-1V145.85c0-4.58-3.4-8.34-7.58-8.37h0a7.12,7.12,0,0,0-1.29.12l-.18,0-.19,0a6.87,6.87,0,0,0-1.3-.14,7.85,7.85,0,0,0-7.57,8.11V174.1a1,1,0,0,1-1,1l-5.88-.2a1,1,0,0,1-1-1V145.49c0-4.49-3.4-8.17-7.58-8.2h0a7.23,7.23,0,0,0-1.3.12h-.36a7,7,0,0,0-1.3-.14,7.75,7.75,0,0,0-7.57,7.95v28a1,1,0,0,1-.31.72,1,1,0,0,1-.69.28l-5.88-.19a1,1,0,0,1-1-1v-27.9a7.86,7.86,0,0,0-7.58-8h0a7.07,7.07,0,0,0-1.3.12h-.18l-.18,0a6.83,6.83,0,0,0-1.31-.13,7.66,7.66,0,0,0-7.56,7.78v27.49a1,1,0,0,1-.31.72,1,1,0,0,1-.69.28l-5.89-.2a1,1,0,0,1-1-1V144.78a7.78,7.78,0,0,0-7.58-7.87h0a7.21,7.21,0,0,0-1.3.11l-.17,0-.18,0a6.91,6.91,0,0,0-1.31-.13,7.58,7.58,0,0,0-7.57,7.61v27a1,1,0,0,1-.3.71,1,1,0,0,1-.7.29l-5.88-.2a1,1,0,0,1-1-1V144.42a7.69,7.69,0,0,0-7.58-7.7h0a7.24,7.24,0,0,0-1.31.11h-.16l-.18,0a9.06,9.06,0,0,0-1.31-.13,7.5,7.5,0,0,0-7.57,7.45V170.6a1,1,0,0,1-.31.72,1,1,0,0,1-.69.28l-5.88-.2a1,1,0,0,1-1-1V144.06a7.61,7.61,0,0,0-7.58-7.54h0a8.27,8.27,0,0,0-1.31.11l-.17,0-.17,0a8.06,8.06,0,0,0-1.32-.13,7.42,7.42,0,0,0-7.56,7.28v25.95a1,1,0,0,1-.31.72,1,1,0,0,1-.69.28l-5.88-.2a1,1,0,0,1-1-1V143.7a7.53,7.53,0,0,0-7.58-7.37h0a8.27,8.27,0,0,0-1.31.11h-.33a6.93,6.93,0,0,0-1.32-.13,7.34,7.34,0,0,0-7.57,7.12v25.42a1,1,0,0,1-1,1l-5.88-.19a1,1,0,0,1-1-1V143.34a7.44,7.44,0,0,0-7.58-7.2h0a8.38,8.38,0,0,0-1.32.1l-.15,0-.17,0a7.89,7.89,0,0,0-1.32-.12c-4.2,0-7.57,3.12-7.57,6.95V168a1,1,0,0,1-.31.72,1,1,0,0,1-.69.28L2,168.68a1,1,0,0,1-1-1V125.79a1,1,0,0,1,1-1H221.74a1,1,0,0,1,1,1v49.29a1,1,0,0,1-1,1Z"/><path class="cls-2" d="M221.74,125.79v49.29l-9.06-.31V145.85c0-5.14-3.84-9.33-8.58-9.37h0a7.54,7.54,0,0,0-1.43.14,7.29,7.29,0,0,0-1.48-.16h-.06c-4.71,0-8.52,4.07-8.52,9.11V174.1l-5.85-.2V145.49a9,9,0,0,0-8.57-9.2h0a8.36,8.36,0,0,0-1.43.13,8.18,8.18,0,0,0-1.49-.15h-.06a8.72,8.72,0,0,0-8.51,8.95v28l-5.85-.19v-27.9a8.85,8.85,0,0,0-8.57-9h-.06a8.54,8.54,0,0,0-1.43.13,8,8,0,0,0-1.48-.15h-.06a8.63,8.63,0,0,0-8.51,8.78v27.49l-5.85-.2V144.78a8.77,8.77,0,0,0-8.58-8.87h0a8.45,8.45,0,0,0-1.43.13,8.07,8.07,0,0,0-1.48-.15h-.07a8.56,8.56,0,0,0-8.51,8.62v27l-5.85-.2V144.42a8.67,8.67,0,0,0-8.57-8.7h-.06a8.33,8.33,0,0,0-1.42.13,9.18,9.18,0,0,0-1.49-.15h-.06a8.47,8.47,0,0,0-8.51,8.45V170.6l-5.85-.2V144.06a8.61,8.61,0,0,0-8.57-8.54h-.06a8.45,8.45,0,0,0-1.43.13,8.94,8.94,0,0,0-1.48-.15h-.07a8.38,8.38,0,0,0-8.5,8.28v25.95l-5.85-.2V143.7a8.52,8.52,0,0,0-8.58-8.37h0a9.51,9.51,0,0,0-1.43.12,9.05,9.05,0,0,0-1.48-.14h-.07a8.31,8.31,0,0,0-8.51,8.12v25.42l-5.85-.19V143.34a8.43,8.43,0,0,0-8.57-8.2H22.3a8.33,8.33,0,0,0-1.42.12,8.18,8.18,0,0,0-1.49-.14h-.07a8.22,8.22,0,0,0-8.5,7.95V168L2,167.68V125.79H221.74m0-2H2a2,2,0,0,0-2,2v41.89a2,2,0,0,0,1.93,2l8.82.3h.07a2,2,0,0,0,1.39-.56,2,2,0,0,0,.61-1.44V143.07a6.25,6.25,0,0,1,6.5-5.95h.06a7.07,7.07,0,0,1,1.16.11,1.87,1.87,0,0,0,.34,0l.31,0a7.41,7.41,0,0,1,1.11-.09,6.46,6.46,0,0,1,6.63,6.2v25.32a2,2,0,0,0,1.94,2l5.85.2h.06a2,2,0,0,0,1.39-.56,2,2,0,0,0,.61-1.44V143.43a6.33,6.33,0,0,1,6.51-6.12h.05a6.86,6.86,0,0,1,1.15.11,2.07,2.07,0,0,0,.35,0l.32,0a6.35,6.35,0,0,1,1.11-.1,6.54,6.54,0,0,1,6.63,6.37v25.83a2,2,0,0,0,1.93,2l5.85.2h.07a2,2,0,0,0,1.39-.57,2,2,0,0,0,.61-1.43V143.78a6.4,6.4,0,0,1,6.5-6.28h.06a6,6,0,0,1,1.14.12l.35,0,.33,0a6.33,6.33,0,0,1,1.1-.1,6.61,6.61,0,0,1,6.63,6.54V170.4a2,2,0,0,0,1.93,2l5.85.2h.07A2,2,0,0,0,90.1,172a2,2,0,0,0,.61-1.44V144.14a6.49,6.49,0,0,1,6.51-6.45h0a6.91,6.91,0,0,1,1.14.12,2.19,2.19,0,0,0,.36,0,1.84,1.84,0,0,0,.33,0,7.24,7.24,0,0,1,1.09-.1,6.7,6.7,0,0,1,6.63,6.71v26.86a2,2,0,0,0,1.94,2l5.84.19h.07a2,2,0,0,0,1.39-.57,2,2,0,0,0,.61-1.43v-27a6.57,6.57,0,0,1,6.51-6.62,7.74,7.74,0,0,1,1.18.12,2.46,2.46,0,0,0,.37,0,2,2,0,0,0,.34,0,6.13,6.13,0,0,1,1.09-.1,6.78,6.78,0,0,1,6.63,6.87v27.37a2,2,0,0,0,1.93,2l5.85.2h.07a2,2,0,0,0,2-2V144.86a6.66,6.66,0,0,1,6.51-6.78,5.88,5.88,0,0,1,1.17.12,2.31,2.31,0,0,0,.37,0,2.07,2.07,0,0,0,.35,0,6.11,6.11,0,0,1,1.08-.1,6.87,6.87,0,0,1,6.63,7V173a2,2,0,0,0,1.93,2l5.85.19h.07a2,2,0,0,0,2-2v-28a6.74,6.74,0,0,1,6.51-6.95,5.88,5.88,0,0,1,1.17.12,2.34,2.34,0,0,0,.38,0l.35,0a6,6,0,0,1,1.08-.1,7,7,0,0,1,6.62,7.2V173.9a2,2,0,0,0,1.94,2l5.84.2h.07a2,2,0,0,0,1.39-.56,2,2,0,0,0,.61-1.44V145.57c0-3.92,2.92-7.11,6.52-7.11a5.86,5.86,0,0,1,1.16.12,1.58,1.58,0,0,0,.38,0,2.19,2.19,0,0,0,.36,0,6.07,6.07,0,0,1,1.07-.11c3.67,0,6.63,3.33,6.63,7.37v28.92a2,2,0,0,0,1.93,2l9.06.31h.07a2,2,0,0,0,1.39-.56,2,2,0,0,0,.61-1.44V125.79a2,2,0,0,0-2-2Z"/><path class="cls-3" d="M221.74,152.32a1,1,0,0,1-1-1V147a1,1,0,0,1,.95-1l5.1-.27a1,1,0,0,1,1,1V151a1,1,0,0,1-.94,1Z"/><path class="cls-2" d="M226.79,146.7V151l-5,.33V147l5-.27m0-2h-.11l-5.05.27a2,2,0,0,0-1.89,2v4.35a2,2,0,0,0,2,2h.13l5-.33a2,2,0,0,0,1.87-2V146.7a2,2,0,0,0-.63-1.45,2,2,0,0,0-1.37-.55Z"/><path class="cls-3" d="M282.89,148.34a1,1,0,0,1-.69-.27,1,1,0,0,1-.31-.73v-3.67a1,1,0,0,1,.94-1l3.4-.18a1,1,0,0,1,.69.28,1,1,0,0,1,.31.72v3.63a1,1,0,0,1-.93,1Z"/><path class="cls-2" d="M286.23,143.49v3.63l-3.34.22v-3.67l3.34-.18m0-2h-.11l-3.34.18a2,2,0,0,0-1.89,2v3.67a2,2,0,0,0,.63,1.46,2,2,0,0,0,1.37.54H283l3.34-.22a2,2,0,0,0,1.87-2v-3.63a2,2,0,0,0-.62-1.45,2,2,0,0,0-1.38-.55Z"/><path class="cls-1" d="M280.54,148.33a1,1,0,0,1-1-1v-3.69a1,1,0,0,1,1-1l.66,0a1,1,0,0,1,1,1v3.67a1,1,0,0,1-1,1Z"/><path class="cls-2" d="M280.55,143.64l.62,0v3.67h-.62v-3.7m0-2a2,2,0,0,0-2,2v3.7a2,2,0,0,0,2,2h.63a2,2,0,0,0,2-2v-3.67a2,2,0,0,0-1.91-2l-.63,0Z"/><path class="cls-3" d="M268,149.31a1,1,0,0,1-1-1v-3.84a1,1,0,0,1,1-1l3.4-.18a1,1,0,0,1,1,1v3.8a1,1,0,0,1-.93,1Z"/><path class="cls-2" d="M271.37,144.29v3.8l-3.35.21v-3.83l3.35-.18m0-2h-.11l-3.34.18a2,2,0,0,0-1.9,2v3.83a2,2,0,0,0,.64,1.46,2,2,0,0,0,1.36.54h.13l3.35-.22a2,2,0,0,0,1.87-2v-3.8a2,2,0,0,0-.62-1.45,2,2,0,0,0-1.38-.55Z"/><path class="cls-1" d="M265.34,149.24a1,1,0,0,1-.92-1v-3.86a1,1,0,0,1,.33-.75,1,1,0,0,1,.67-.25h.11l.77.09a1,1,0,0,1,.89,1v3.84a1,1,0,0,1-.32.73,1,1,0,0,1-.68.27Z"/><path class="cls-2" d="M265.42,144.39l.77.08v3.83l-.77-.05v-3.86m0-2a2,2,0,0,0-2,2v3.86a2,2,0,0,0,1.85,2l.77.06h.15a2,2,0,0,0,1.36-.53,2,2,0,0,0,.64-1.47v-3.83a2,2,0,0,0-1.78-2l-.77-.09Z"/><path class="cls-3" d="M253.16,150.27a1,1,0,0,1-.68-.27,1,1,0,0,1-.32-.73v-4a1,1,0,0,1,1-1l3.4-.19a1,1,0,0,1,1,1v4a1,1,0,0,1-.93,1Z"/><path class="cls-2" d="M256.51,145.09v4l-3.35.21v-4l3.35-.18m0-2h-.11l-3.34.18a2,2,0,0,0-1.9,2v4a2,2,0,0,0,2,2h.13l3.35-.22a2,2,0,0,0,1.87-2v-4a2,2,0,0,0-2-2Z"/><path class="cls-1" d="M250.21,150.24a1,1,0,0,1-1-1v-4a1,1,0,0,1,.33-.73,1,1,0,0,1,.67-.27l1,.08a1,1,0,0,1,.92,1v4a1,1,0,0,1-.31.72,1,1,0,0,1-.69.28Z"/><path class="cls-2" d="M250.25,145.2l.93.07v4l-.93,0v-4m0-2a2,2,0,0,0-1.36.54,2,2,0,0,0-.64,1.46v4a2,2,0,0,0,1.92,2l.93,0h.08a2,2,0,0,0,1.38-.55,2,2,0,0,0,.62-1.45v-4a2,2,0,0,0-1.85-2l-.92-.07Z"/><path class="cls-3" d="M238.3,151.24a1,1,0,0,1-.68-.27,1,1,0,0,1-.32-.73v-4.16a1,1,0,0,1,.95-1l3.4-.18a1,1,0,0,1,1,1V150a1,1,0,0,1-.94,1Z"/><path class="cls-2" d="M241.65,145.9V150l-3.35.22v-4.16l3.35-.18m0-2h-.11l-3.35.18a2,2,0,0,0-1.89,2v4.16a2,2,0,0,0,2,2h.13l3.35-.22a2,2,0,0,0,1.87-2V145.9a2,2,0,0,0-2-2Z"/><path class="cls-1" d="M234.82,151.09a1,1,0,0,1-1-1V146a1,1,0,0,1,1-1l1.22,0a1,1,0,0,1,1,1v4.16a1,1,0,0,1-.31.73,1,1,0,0,1-.69.27Z"/><path class="cls-2" d="M234.86,146l1.2,0v4.16l-1.2-.05V146m0-2a2,2,0,0,0-1.4.57,2,2,0,0,0-.6,1.43v4.13a2,2,0,0,0,1.91,2l1.19.06h.1a2,2,0,0,0,1.38-.55,2,2,0,0,0,.62-1.45V146a2,2,0,0,0-2-2l-1.19,0Z"/><path class="cls-1" d="M186.71,151.91a1,1,0,0,1-1-1v-4.29a1,1,0,0,1,.3-.71,1,1,0,0,1,.7-.29l8.82.06a1,1,0,0,1,1,1V151a1,1,0,0,1-.3.71,1,1,0,0,1-.7.29Z"/><path class="cls-2" d="M186.71,146.62l8.82.06V151l-8.82-.07v-4.29m0-2a2,2,0,0,0-2,2v4.29a2,2,0,0,0,2,2l8.81.07h0a2,2,0,0,0,2-2v-4.3a2,2,0,0,0-2-2l-8.81-.06Z"/><path class="cls-3" d="M194.54,152a1,1,0,0,1-1-1v-4.3a1,1,0,0,1,1-1l1,0a1,1,0,0,1,1,1V151a1,1,0,0,1-.31.72,1,1,0,0,1-.69.28Z"/><path class="cls-2" d="M194.58,146.68l.95,0V151l-.95,0v-4.3m0-2a2,2,0,0,0-2,2V151a2,2,0,0,0,1.92,2l.95,0h.08a2,2,0,0,0,2-2v-4.31a2,2,0,0,0-1.94-2l-1,0Z"/><path class="cls-1" d="M160.74,151.61a1,1,0,0,1-1-1v-4.25a1,1,0,0,1,1-1l8.82.06a1,1,0,0,1,1,1v4.26a1,1,0,0,1-1,1Z"/><path class="cls-2" d="M160.75,146.37l8.81,0v4.26l-8.81-.07v-4.24m0-2a2,2,0,0,0-2,2v4.24a2,2,0,0,0,2,2l8.81.07h0a2,2,0,0,0,2-2v-4.26a2,2,0,0,0-2-2l-8.82,0Z"/><path class="cls-3" d="M168.6,151.68a1,1,0,0,1-1-1v-4.26a1,1,0,0,1,1-1l1,0a1,1,0,0,1,1,1v4.27a1,1,0,0,1-1,1Z"/><path class="cls-2" d="M168.64,146.42l.92,0v4.27l-.92,0v-4.26m0-2a2,2,0,0,0-1.4.57,2,2,0,0,0-.6,1.43v4.26a2,2,0,0,0,1.92,2l.93,0h.07a2,2,0,0,0,1.39-.56,2,2,0,0,0,.61-1.44v-4.27a2,2,0,0,0-1.93-2l-.93,0Z"/><path class="cls-1" d="M134.78,151.31a1,1,0,0,1-1-1v-4.2a1,1,0,0,1,1-1l8.82.06a1,1,0,0,1,1,1v4.21a1,1,0,0,1-.29.71,1,1,0,0,1-.71.29Z"/><path class="cls-2" d="M134.79,146.11l8.81.06v4.21l-8.81-.07v-4.2m0-2a2,2,0,0,0-2,2v4.2a2,2,0,0,0,2,2l8.82.07h0a2,2,0,0,0,2-2v-4.21a2,2,0,0,0-2-2l-8.81-.06Z"/><path class="cls-3" d="M142.65,151.38a1,1,0,0,1-1-1v-4.21a1,1,0,0,1,.31-.72,1,1,0,0,1,.69-.28l.94,0a1,1,0,0,1,1,1v4.21a1,1,0,0,1-1,1Z"/><path class="cls-2" d="M142.69,146.17l.91,0v4.21l-.91,0v-4.21m0-2a2,2,0,0,0-2,2v4.21a2,2,0,0,0,1.93,2l.91,0h.07a2,2,0,0,0,1.39-.56,2,2,0,0,0,.61-1.44V146.2a2,2,0,0,0-1.93-2l-.91,0Z"/><path class="cls-1" d="M108.82,151a1,1,0,0,1-1-1v-4.16a1,1,0,0,1,.3-.71,1,1,0,0,1,.7-.29l8.82.06a1,1,0,0,1,1,1v4.17a1,1,0,0,1-.3.71,1,1,0,0,1-.7.29Z"/><path class="cls-2" d="M108.82,145.85l8.82.06v4.17l-8.82-.07v-4.16m0-2a2,2,0,0,0-2,2V150a2,2,0,0,0,2,2l8.81.07h0a2,2,0,0,0,2-2v-4.17a2,2,0,0,0-2-2l-8.81-.06Z"/><path class="cls-3" d="M116.64,151.08a1,1,0,0,1-1-1v-4.17a1,1,0,0,1,1-1l1,0a1,1,0,0,1,1,1v4.17a1,1,0,0,1-.31.72,1,1,0,0,1-.69.28Z"/><path class="cls-2" d="M116.68,145.91l1,0v4.17l-1,0v-4.17m0-2a2,2,0,0,0-2,2v4.17a2,2,0,0,0,1.93,2l1,0h.07a2,2,0,0,0,2-2v-4.17a2,2,0,0,0-1.94-2l-1,0Z"/><path class="cls-1" d="M82.85,150.71a1,1,0,0,1-1-1v-4.12a1,1,0,0,1,1-1l8.82.06a1,1,0,0,1,1,1v4.13a1,1,0,0,1-.29.71,1,1,0,0,1-.71.29Z"/><path class="cls-2" d="M82.86,145.59l8.81.06v4.13l-8.81-.07v-4.12m0-2a2,2,0,0,0-2,2v4.12a2,2,0,0,0,2,2l8.81.07h0a2,2,0,0,0,2-2v-4.13a2,2,0,0,0-2-2l-8.82-.06Z"/><path class="cls-3" d="M90.68,150.77a1,1,0,0,1-1-1v-4.13a1,1,0,0,1,1-1l1,0a1,1,0,0,1,1,1v4.13a1,1,0,0,1-1,1Z"/><path class="cls-2" d="M90.72,145.65l1,0v4.13l-1,0v-4.13m0-2a2,2,0,0,0-2,2v4.13a2,2,0,0,0,1.93,2l.95,0h.07a2,2,0,0,0,1.39-.56,2,2,0,0,0,.61-1.44v-4.13a2,2,0,0,0-1.93-2l-1,0Z"/><path class="cls-1" d="M56.89,150.41a1,1,0,0,1-1-1v-4.07a1,1,0,0,1,1-1l8.82,0a1,1,0,0,1,1,1v4.08a1,1,0,0,1-.29.71,1,1,0,0,1-.71.29Z"/><path class="cls-2" d="M56.9,145.34l8.81,0v4.08l-8.81-.06v-4.07m0-2a2,2,0,0,0-1.41.58,2,2,0,0,0-.59,1.42v4.07a2,2,0,0,0,2,2l8.82.06h0a2,2,0,0,0,1.41-.58,2,2,0,0,0,.59-1.42v-4.08a2,2,0,0,0-2-2l-8.81,0Z"/><path class="cls-3" d="M64.72,150.47a1,1,0,0,1-1-1v-4.08a1,1,0,0,1,1-1l1,0a1,1,0,0,1,1,1v4.09a1,1,0,0,1-1,1Z"/><path class="cls-2" d="M64.76,145.39l.95,0v4.09l-.95,0v-4.08m0-2a2,2,0,0,0-2,2v4.08a2,2,0,0,0,1.93,2l1,0h.07A2,2,0,0,0,67.1,151a2,2,0,0,0,.61-1.44v-4.09a2,2,0,0,0-1.94-2l-1,0Z"/><path class="cls-1" d="M30.93,150.1a1,1,0,0,1-1-1v-4a1,1,0,0,1,.3-.71,1,1,0,0,1,.7-.29l8.82.06a1,1,0,0,1,1,1v4a1,1,0,0,1-.3.71,1,1,0,0,1-.7.29Z"/><path class="cls-2" d="M30.93,145.08l8.82.06v4l-8.82-.07v-4m0-2a2,2,0,0,0-1.4.58,2,2,0,0,0-.6,1.42v4a2,2,0,0,0,2,2l8.81.07h0a2,2,0,0,0,1.41-.58,2,2,0,0,0,.59-1.42v-4a2,2,0,0,0-2-2L31,143.08Z"/><path class="cls-3" d="M38.74,150.17a1,1,0,0,1-1-1v-4a1,1,0,0,1,.31-.72,1,1,0,0,1,.69-.28l1,0a1,1,0,0,1,1,1v4a1,1,0,0,1-.31.72,1,1,0,0,1-.69.28Z"/><path class="cls-2" d="M38.77,145.14l1,0v4l-1,0v-4m0-2a2,2,0,0,0-2,2v4a2,2,0,0,0,1.93,2l1,0h.07a2,2,0,0,0,2-2v-4a2,2,0,0,0-1.94-2l-1,0Z"/><path class="cls-1" d="M2,149.77a1,1,0,0,1-1-1v-4a1,1,0,0,1,1-1l8.83.09a1,1,0,0,1,1,1v4a1,1,0,0,1-.3.71,1,1,0,0,1-.7.29Z"/><path class="cls-2" d="M2,144.79l8.82.09v4L2,148.77v-4m0-2a2,2,0,0,0-2,2v4a2,2,0,0,0,2,2l8.82.1h0a2,2,0,0,0,2-2v-4a2,2,0,0,0-2-2L2,142.79Z"/><path class="cls-3" d="M12.56,149.87a1,1,0,0,1-1-1v-4a1,1,0,0,1,1-1l1.22,0a1,1,0,0,1,1,1v4a1,1,0,0,1-.31.72,1,1,0,0,1-.69.28Z"/><path class="cls-2" d="M12.59,144.88l1.19,0v4l-1.19,0v-4m0-2a2,2,0,0,0-2,2v4a2,2,0,0,0,1.94,2l1.2,0h0a2,2,0,0,0,1.4-.56,2,2,0,0,0,.6-1.44v-4a2,2,0,0,0-1.95-2l-1.19,0Z"/><path class="cls-1" d="M212.67,152.22a1,1,0,0,1-1-1v-4.34a1,1,0,0,1,1-1l9.07.09a1,1,0,0,1,1,1v4.35a1,1,0,0,1-.3.71,1,1,0,0,1-.7.29Z"/><path class="cls-2" d="M212.68,146.88l9.06.09v4.35l-9.06-.1v-4.34m0-2a2,2,0,0,0-1.41.58,2,2,0,0,0-.59,1.42v4.34a2,2,0,0,0,2,2l9.07.1h0a2,2,0,0,0,1.41-.58,2,2,0,0,0,.59-1.42V147a2,2,0,0,0-2-2l-9.06-.09Z"/><path class="cls-1" d="M210.74,74.06l-168,3.46a1,1,0,0,1-1-.8L41.17,74a1,1,0,0,1,.7-1.16l5.05-1.48a14.92,14.92,0,0,1-1.22-2.83,3.39,3.39,0,0,1,.55-3,4.15,4.15,0,0,1,3.26-1.72,3.44,3.44,0,0,1,2.84,1.54,3.18,3.18,0,0,1,.39,3.61,13,13,0,0,0,1.57-.23L86.08,57.31,102.19,43A10.55,10.55,0,0,1,100,38.69a4.59,4.59,0,0,1,.86-4,5.55,5.55,0,0,1,4.28-2.26,4.34,4.34,0,0,1,3.6,2,4.3,4.3,0,0,1,.9,4,2.46,2.46,0,0,1-.2.47c4.12,0,8.11-.57,8.73-1a2.9,2.9,0,0,1,2-.79,2.63,2.63,0,0,1,2.09.95,2.41,2.41,0,0,1,.47,1l70.08-2.4a2.29,2.29,0,0,1,.11-.58,3.16,3.16,0,0,1,2.86-2,2.17,2.17,0,0,1,1.23.36c.86.57,3.35,1.92,7.92,2h.52a28.36,28.36,0,0,0,5.72-.61,4,4,0,0,1-.4-1.58,3.35,3.35,0,0,1,2.92-3.67,10.93,10.93,0,0,1,1.56-.13c3,0,4.89,1.73,5.26,4.88.35,3-2.75,4.68-4.68,5.44l14.75,17.51L258.44,69.6a4.32,4.32,0,0,1-.46-2,2.91,2.91,0,0,1,.91-2.06,3.69,3.69,0,0,1,2.63-1.14,3.45,3.45,0,0,1,2.63,1.26,4.82,4.82,0,0,1,1.38,4.15,6,6,0,0,1-2,3.27l1.3.36a1,1,0,0,1,.73,1v2.79a1,1,0,0,1-.32.74,1,1,0,0,1-.68.26Z"/><path class="cls-2" d="M215.23,31.43c2.33,0,3.93,1.16,4.27,4,.39,3.38-5.41,4.84-5.41,4.84L230,59.09,259.15,71s2.94-1.26,2.2-1.26l-.3,0a2.91,2.91,0,0,1-.49.05c-1.2,0-1.55-.93-1.58-2.22a2.55,2.55,0,0,1,2.54-2.18,2.49,2.49,0,0,1,1.88.92c3.65,4.12-2.2,7.15-2.2,7.15l3.31.93v2.79l-53.69-4.12L42.71,76.52l-.56-2.77,6.35-1.86a11.69,11.69,0,0,1-1.85-3.72c-.55-1.7,1.15-3.46,2.86-3.46a2.43,2.43,0,0,1,2,1.12c1.86,2.64-1.27,3.52-.29,3.91a3,3,0,0,0,1,.14,12.48,12.48,0,0,0,2.33-.29l32-11.4L103.69,43s-1.79-1.09-2.78-4.57c-.7-2.45,1.76-5,4.18-5a3.33,3.33,0,0,1,2.78,1.53c2.58,3.68-1.2,4.77-1.2,4.77.68.06,1.52.09,2.43.09,3.78,0,8.9-.48,9.7-1.28a1.93,1.93,0,0,1,1.35-.52,1.49,1.49,0,0,1,1.53,2l72.57-2.48c-1.25-1,.28-2.48,1.51-2.48a1.19,1.19,0,0,1,.67.19c1.2.79,3.88,2.09,8.45,2.19h.55a28.76,28.76,0,0,0,7.8-1.1c-1.69-.1-2.48-4.27.6-4.77a8.73,8.73,0,0,1,1.4-.12m0-2h0a10.53,10.53,0,0,0-1.72.15,4.35,4.35,0,0,0-3.76,4.7,4.78,4.78,0,0,0,.09.76,26.35,26.35,0,0,1-4.41.38h-.5c-4.3-.1-6.6-1.33-7.39-1.85a3.13,3.13,0,0,0-1.78-.53A4.17,4.17,0,0,0,192,35.59l-68.56,2.35A3.49,3.49,0,0,0,120.15,36a4,4,0,0,0-2.61,1,28.66,28.66,0,0,1-6.8.81,5.71,5.71,0,0,0-1.24-4,5.3,5.3,0,0,0-4.41-2.38A6.56,6.56,0,0,0,100,34.06,5.56,5.56,0,0,0,99,39a12.14,12.14,0,0,0,1.83,3.9L85.56,56.44,54.13,67.63a4.63,4.63,0,0,0-1-2.95,4.41,4.41,0,0,0-3.66-2,5.14,5.14,0,0,0-4.06,2.13,4.38,4.38,0,0,0-.71,3.94,18.76,18.76,0,0,0,.74,1.91l-3.9,1.14a2,2,0,0,0-1.39,2.32l.56,2.77a2,2,0,0,0,2,1.6h0l168-3.46,53.59,4.12h.16a2,2,0,0,0,2-2V74.39a2,2,0,0,0-1.19-1.83A6,6,0,0,0,266.51,70a5.8,5.8,0,0,0-1.61-5,4.49,4.49,0,0,0-3.38-1.59,4.73,4.73,0,0,0-3.35,1.44A3.9,3.9,0,0,0,257,67.61c0,.11,0,.22,0,.32l-25.83-10.5-13.74-16.3c2.07-1,4.41-2.91,4-5.94-.43-3.66-2.71-5.76-6.25-5.76Z"/><polygon class="cls-6" points="50.02 73.68 87.37 61.52 105.86 45.35 208.81 41.64 192.29 56.58 206.38 69.91 50.02 73.68"/><polygon class="cls-6" points="212.9 44.02 197.95 57.06 226.27 59.11 212.9 44.02"/><polygon class="cls-6" points="202.33 60.86 212.26 70.07 257.77 73.91 230 62.96 202.33 60.86"/></g></g></svg>