<svg xmlns="http://www.w3.org/2000/svg" viewBox="0 0 136.83 163.54"><defs><style>.cls-1{fill:none;stroke:#010101;stroke-linecap:round;stroke-linejoin:round;stroke-width:2px;}.cls-2{fill:#08ad84;}.cls-3{fill:#010101;}.cls-4{fill:#0c81c3;}.cls-5{fill:#8683bf;}</style></defs><title>Q_05</title><g id="Layer_2" data-name="Layer 2"><g id="Landmark"><line class="cls-1" x1="26.49" y1="139.23" x2="27.15" y2="114.06"/><line class="cls-1" x1="104.44" y1="126.82" x2="103.22" y2="101.28"/><line class="cls-1" x1="28" y1="63.69" x2="30.61" y2="32.04"/><line class="cls-1" x1="74.77" y1="1" x2="84.83" y2="31.19"/><path class="cls-2" d="M31.18,162.54a10.29,10.29,0,0,1-4.93-1.41,12,12,0,0,1-2.9.38,7.77,7.77,0,0,1-6.13-2.71,8.87,8.87,0,0,1-1.77-7c-2.8-3.77-2.23-7-1.62-8.63a7.59,7.59,0,0,1,4.78-4.65,9.24,9.24,0,0,1,7.88-4.3,7.68,7.68,0,0,1,7.45,4.85c4.32,2.16,5.67,4.9,6,6.85a8.72,8.72,0,0,1-2.13,7.18A8.44,8.44,0,0,1,36.48,160a6.51,6.51,0,0,1-5.3,2.57Z"/><path class="cls-3" d="M26.49,135.22a6.69,6.69,0,0,1,6.64,4.57c8,3.78,6.59,9.9,3.61,13,1.19,4.39-1.17,8.72-5.56,8.72a9.55,9.55,0,0,1-4.79-1.48,11.14,11.14,0,0,1-3,.45c-5.14,0-7.71-4.34-6.84-9-4.79-6-.71-11.5,2.74-12.15a8.28,8.28,0,0,1,7.24-4.17m0-2h0A10.3,10.3,0,0,0,18,137.67a8.73,8.73,0,0,0-5.08,5.15c-.66,1.77-1.29,5.24,1.52,9.25a9.79,9.79,0,0,0,2,7.37,8.76,8.76,0,0,0,6.9,3.07,12.88,12.88,0,0,0,2.77-.32,11,11,0,0,0,5.06,1.35,7.48,7.48,0,0,0,6.09-3,9.36,9.36,0,0,0,1.64-7.21A9.64,9.64,0,0,0,41,145.74c-.4-2.12-1.81-5.07-6.24-7.39a8.79,8.79,0,0,0-8.23-5.13Z"/><path class="cls-2" d="M37.31,120.8c-12.73,0-27.38-2-35.64-5A1,1,0,0,1,1,115a1,1,0,0,1,.52-1l3.11-1.7-3-2.33a1,1,0,0,1-.38-.8,1,1,0,0,1,.4-.79L5,105.91l-2.48-2.19a1,1,0,0,1-.34-.7,1,1,0,0,1,.27-.73l2.83-3L2.13,95.88a1,1,0,0,1,.06-1.42l2.92-2.68L2.45,89.06a1,1,0,0,1-.29-.76,1,1,0,0,1,.36-.71l2.64-2.18L1.88,82.58A1,1,0,0,1,1.93,81L6,77.91,3.16,74.79a1,1,0,0,1,0-1.35L5.3,71.13,3.23,67.55a1,1,0,0,1-.1-.79,1.06,1.06,0,0,1,.51-.61c6.07-3,15-4.71,25.16-4.71a85.08,85.08,0,0,1,23.7,3.2,1,1,0,0,1,.67.69,1,1,0,0,1-.22.94l-3.09,3.4,3.2,3.49a1,1,0,0,1,.11,1.2l-2.79,4.56,3.07,3.14a1,1,0,0,1,.28.76,1,1,0,0,1-.37.71L49.85,86.4l4,3.88a1,1,0,0,1-.15,1.56L50,94.23l2.88,2.61a1,1,0,0,1,.33.74,1,1,0,0,1-.34.75l-3.36,3,2.63,2.59a1,1,0,0,1,.3.79,1,1,0,0,1-.42.74l-3.83,2.73,3.71,3.48a1,1,0,0,1,.31.81,1,1,0,0,1-.43.75l-3.47,2.35,3,2.41a1,1,0,0,1-.43,1.76A73,73,0,0,1,37.31,120.8Z"/><path class="cls-3" d="M28.8,62.44a83.82,83.82,0,0,1,23.41,3.15l-3.7,4.08,3.81,4.17-3.2,5.22,3.61,3.7-4.38,3.58L53.17,91l-4.82,3.1,3.85,3.48L48,101.28l3.39,3.34-4.83,3.45,4.61,4.31-4.59,3.11,4.08,3.26a73.34,73.34,0,0,1-13.39,1c-12.46,0-27.13-2-35.31-4.89l4.45-2.43-4.2-3.27L6.62,106l-3.41-3,3.47-3.73-3.82-4,3.69-3.37L3.16,88.36l3.55-2.93L2.53,81.82l5-3.78L3.9,74.12l2.63-2.86L4.09,67.05c6.44-3.23,15.55-4.61,24.71-4.61m0-2v0h0c-10.31,0-19.4,1.71-25.6,4.82a2,2,0,0,0-1,1.21,2,2,0,0,0,.18,1.58L4.06,71,2.43,72.76a2,2,0,0,0,0,2.71l2.12,2.31L1.32,80.23a2,2,0,0,0-.79,1.53,2,2,0,0,0,.7,1.58l2.38,2L1.89,86.81a2,2,0,0,0-.16,3l1.94,2-2.16,2a2,2,0,0,0-.65,1.4,2,2,0,0,0,.55,1.45l2.53,2.68-2.2,2.36a2,2,0,0,0,.14,2.86l1.56,1.37L1.06,107.6a2,2,0,0,0-.81,1.59,2,2,0,0,0,.77,1.6l1.79,1.4-1.77,1a2,2,0,0,0-1,1.91,2,2,0,0,0,1.33,1.73c8.35,2.94,23.14,5,36,5a74.15,74.15,0,0,0,13.77-1.09,2,2,0,0,0,1.56-1.48,2,2,0,0,0-.69-2l-2-1.57L52.33,114a2,2,0,0,0,.87-1.49,2,2,0,0,0-.63-1.62l-2.82-2.64,2.84-2a2,2,0,0,0,.25-3L51,101.35l2.57-2.28a2,2,0,0,0,0-3l-1.91-1.73,2.62-1.69a2,2,0,0,0,.91-1.48,2,2,0,0,0-.6-1.64l-3.2-3.1L54,84.31a2,2,0,0,0,.74-1.44,2,2,0,0,0-.57-1.51l-2.52-2.58L54,74.88a2,2,0,0,0-.23-2.4l-2.59-2.81,2.48-2.73a2,2,0,0,0-.89-3.26,86.11,86.11,0,0,0-24-3.24Z"/><path class="cls-4" d="M103,157.75a1.71,1.71,0,0,1-1.27-.6c-1.47-1.58-1.83-6.75-1.55-11-1-4-1.41-11.42,1.21-16.28.38-4.11,1.47-6.28,3.13-6.28s2.7,1.94,3.3,5.63c1.56,1.95,2.29,8.87,1,15.35.2,4.13-.16,9.49-1.8,11.21a2,2,0,0,1-1.43.66h0a1.93,1.93,0,0,1-.62-.11A2.43,2.43,0,0,1,103,157.75Z"/><path class="cls-3" d="M104.51,124.64c.91,0,1.85,1.72,2.36,5.09,1.12.79,2.44,7.46.89,14.81.28,5.65-.56,11-2.23,11a1.44,1.44,0,0,1-1-.55c-.58,1.26-1.11,1.81-1.56,1.81-1.43,0-2.19-5.29-1.81-10.64-1-3.82-1.43-11.28,1.17-15.89.33-3.74,1.23-5.58,2.16-5.58m0-2c-2.26,0-3.64,2.35-4.11,7-2.61,5.05-2.2,12.54-1.23,16.66-.11,1.81-.41,9.16,1.81,11.54a2.74,2.74,0,0,0,2,.92,3,3,0,0,0,2.37-1.27h.17a2.92,2.92,0,0,0,2.15-1c2.27-2.39,2.19-9.34,2.09-11.82,1.24-6.15.74-13.14-1-15.8-.7-4.15-2.13-6.26-4.25-6.26Z"/><path class="cls-4" d="M6.53,71.26,4.09,67.05C21.85,59.37,42,62.67,52.21,65.59l-3.7,4.08C36.38,67.23,19.87,67.23,6.53,71.26Z"/><path class="cls-4" d="M3.9,74.12c12.79-3.26,35.36-2.5,48.42-.28l-3.2,5.22c-14.69-1.9-26.91-2.66-41.63-1Z"/><path class="cls-4" d="M2.53,81.82c11-1.32,36.42-1.57,50.2.94l-4.38,3.58a239.77,239.77,0,0,0-41.64-.91Z"/><path class="cls-4" d="M3.16,88.36c12.82-1,39.42.11,50,2.64l-4.82,3.1c-11.58-2-30.35-2.76-41.8-2.28Z"/><path class="cls-4" d="M2.86,95.19c14.81-.25,36.36.42,49.34,2.39L48,101.28c-12.68-1.17-30.62-2.15-41.36-2Z"/><path class="cls-4" d="M3.21,103c16.16,1.09,32.41,2.12,48.22,1.65l-4.83,3.45c-13.41.69-28.19.29-40-2.09Z"/><path class="cls-4" d="M2.25,109.21c13,2.56,38.19,4.43,49,3.17l-4.59,3.11c-12.11.89-29.39-.33-40.17-3Z"/><path class="cls-1" d="M48.51,69.67c-12.13-2.44-28.64-2.44-42,1.59"/><path class="cls-1" d="M49.12,79.06c-14.69-1.9-26.91-2.66-41.63-1"/><path class="cls-1" d="M48.35,86.34a239.77,239.77,0,0,0-41.64-.91"/><path class="cls-1" d="M48.35,94.1c-11.58-2-30.35-2.76-41.8-2.28"/><path class="cls-1" d="M48,101.28c-12.68-1.17-30.62-2.15-41.36-2"/><path class="cls-1" d="M46.6,108.07c-13.41.69-28.19.29-40-2.09"/><path class="cls-1" d="M46.62,115.49c-12.11.89-29.39-.33-40.17-3"/><path class="cls-4" d="M71.57,109.22c-.68,0-1.34,0-2,0a1,1,0,0,1-.89-.61,1,1,0,0,1,.19-1.06l3.92-4.3-5.66-2.65a1,1,0,0,1-.55-.67,1,1,0,0,1,.18-.85l4.57-5.87-6.2-3.09a1,1,0,0,1-.35-1.49L68,84.19,62.5,80.64a1,1,0,0,1-.24-1.47l3.65-4.53L59.9,72a1,1,0,0,1-.56-.67,1,1,0,0,1,.17-.85L64.37,64l-5.74-3.34a1,1,0,0,1-.47-.65,1,1,0,0,1,.16-.79L62,54.08l-5-5.81a1,1,0,0,1-.07-1.2l3.77-5.7-5.18-4.16a1,1,0,0,1,.18-1.68C69,29.06,88.4,24.72,104.05,24.72a59.94,59.94,0,0,1,18,2.39,1,1,0,0,1,.6.52,1,1,0,0,1,0,.79L120.51,34l3.61,2.85a1,1,0,0,1,.21,1.34l-3.43,5.18,6.58,3.54a1,1,0,0,1,.5.69,1,1,0,0,1-.21.84l-4.13,4.88,4.42,2.61a1,1,0,0,1,.31,1.44l-3.25,4.57L130,65.13a1,1,0,0,1,.28,1.4l-3.79,5.54,4.78,3.73a1,1,0,0,1,.15,1.43l-3.19,3.85L133.73,84a1,1,0,0,1,.53.71,1,1,0,0,1-.26.86l-3.95,4.21,5.12,1.83a1,1,0,0,1,.66.87,1,1,0,0,1-.52,1c-13.53,7.31-44.31,15.82-63.74,15.82Z"/><path class="cls-3" d="M104.05,25.72a59.31,59.31,0,0,1,17.67,2.34l-2.41,6.24,4.19,3.31-4,6.09L127,47.76l-4.89,5.79,5.44,3.21-3.85,5.42L129.43,66l-4.31,6.31,5.51,4.31-4,4.8,6.62,3.45-5,5.33,6.55,2.35c-14.17,7.66-44.79,15.7-63.26,15.7-.66,0-1.32,0-1.95,0l4.83-5.29-6.89-3.24,5.32-6.83-7.29-3.63,3.88-5.27L63,79.8l4.47-5.55-7.2-3.17,5.53-7.36-6.71-3.91L63.23,54l-5.46-6.41,4.28-6.46-5.9-4.73c12.51-6.1,31.49-10.71,47.9-10.71m0-2c-15.79,0-35.39,4.38-48.77,10.91a2,2,0,0,0-1.12,1.57A2,2,0,0,0,54.9,38l4.48,3.59L56.1,46.52a2,2,0,0,0,.15,2.4l4.45,5.22-3.2,4.52a2,2,0,0,0-.32,1.58,2,2,0,0,0,1,1.3l4.76,2.78-4.18,5.56a2,2,0,0,0,.79,3L64.31,75l-2.83,3.51A2,2,0,0,0,62,81.48l4.64,3L64,88a2,2,0,0,0,.72,3l5.1,2.54L66,98.42a2,2,0,0,0,.73,3l4.43,2.08-3,3.3a2,2,0,0,0,1.41,3.34c.65,0,1.33,0,2,0,17.86,0,49.06-7.75,64.21-16a2,2,0,0,0,1.05-1.91,2,2,0,0,0-1.32-1.73l-3.69-1.31,2.91-3.11a2,2,0,0,0-.54-3.14l-4.42-2.31,2.4-2.9a2,2,0,0,0,.45-1.49,2,2,0,0,0-.76-1.36l-4-3.15,3.25-4.77a2,2,0,0,0,.31-1.51,2,2,0,0,0-.86-1.28l-4-2.65,2.66-3.73a2,2,0,0,0,.32-1.58,2,2,0,0,0-.94-1.31l-3.4-2,3.36-4a2,2,0,0,0-.58-3l-5.61-3,2.83-4.27a2,2,0,0,0-.43-2.67l-3-2.39,1.87-4.87a2,2,0,0,0-.06-1.59,2,2,0,0,0-1.2-1,61.2,61.2,0,0,0-18.27-2.43Z"/><path class="cls-5" d="M119.31,34.3l2.4-6.24C96,21.46,69.34,30.27,56.15,36.43l5.9,4.73C78,35.24,100.36,31.69,119.31,34.3Z"/><path class="cls-5" d="M123.5,37.61c-18-1.67-48.49,4.2-65.73,10L63.23,54c19.51-5.74,35.92-9.39,56.23-10.33Z"/><path class="cls-5" d="M127,47.76c-15.18.56-49.73,5.69-67.87,12.05l6.71,3.91c19.69-5.41,36.27-8.06,56.27-10.17Z"/><path class="cls-5" d="M127.55,56.76C110,58.1,74.13,65.38,60.31,71.08l7.2,3.17C82.79,69.07,108.07,64,123.7,62.18Z"/><path class="cls-5" d="M129.43,66C109.29,68.8,80.21,74.34,63,79.8l6.43,4.12c17-4.31,41.07-9.49,55.65-11.64Z"/><path class="cls-5" d="M130.63,76.59c-21.68,4.94-43.5,9.84-65,12.6l7.29,3.63c18.33-1.94,38.29-5.66,53.78-11.43Z"/><path class="cls-5" d="M133.27,84.84C116.22,91.1,82.43,99.05,67.56,99.65l6.89,3.24c16.61-1.39,39.78-6.77,53.83-12.72Z"/><path class="cls-1" d="M62.05,41.16c15.92-5.92,38.31-9.47,57.26-6.86"/><path class="cls-1" d="M63.23,54c19.51-5.74,35.92-9.39,56.23-10.33"/><path class="cls-1" d="M65.84,63.72c19.69-5.41,36.27-8.06,56.27-10.17"/><path class="cls-1" d="M67.51,74.25C82.79,69.07,108.07,64,123.7,62.18"/><path class="cls-1" d="M69.47,83.92c17-4.31,41.07-9.49,55.65-11.64"/><path class="cls-1" d="M72.88,92.82c18.33-1.94,38.29-5.66,53.78-11.43"/><path class="cls-1" d="M74.45,102.89c16.61-1.39,39.78-6.77,53.83-12.72"/><polyline class="cls-1" points="26.11 143.38 26.11 148.88 19.93 146.13"/><polyline class="cls-1" points="22.05 154 26.11 148.88 29.78 154.68"/><line class="cls-1" x1="26.11" y1="148.88" x2="33.16" y2="146.66"/><polyline class="cls-1" points="101.37 140.04 104.44 140.69 104.44 133.34"/><polyline class="cls-1" points="106.95 137.57 104.44 140.69 102.9 149.5"/><line class="cls-1" x1="106.09" y1="147.87" x2="104.44" y2="140.69"/></g></g></svg>