<svg xmlns="http://www.w3.org/2000/svg" viewBox="0 0 250.31 193.53"><defs><style>.cls-1,.cls-5{fill:#0c81c3;}.cls-2{fill:#010101;}.cls-3{fill:#08ad84;}.cls-4,.cls-7{fill:#8683bf;}.cls-5,.cls-6,.cls-7{stroke:#010101;stroke-linecap:round;stroke-width:2px;}.cls-5,.cls-6{stroke-linejoin:round;}.cls-6{fill:none;}.cls-7{stroke-miterlimit:10;}</style></defs><title>Q_06</title><g id="Layer_2" data-name="Layer 2"><g id="Landmark"><rect class="cls-1" x="83.05" y="119.68" width="80.93" height="72.86" rx="1"/><path class="cls-2" d="M163,120.68v70.85H84.05V120.68H163m0-2H84.05a2,2,0,0,0-2,2v70.85a2,2,0,0,0,2,2H163a2,2,0,0,0,2-2V120.68a2,2,0,0,0-2-2Z"/><path class="cls-3" d="M93.59,19.08a1,1,0,0,1-1-1V14.93a1,1,0,0,1,.52-.88l3.94-2.16a1,1,0,0,1,.48-.12h56.65a1,1,0,0,1,.59.18l3.47,2.5a1,1,0,0,1,.42.81v3.28a1,1,0,0,1-.3.71,1,1,0,0,1-.7.29Z"/><path class="cls-2" d="M154.18,12.77l3.48,2.49v3.28l-64.07-.46V14.93l3.94-2.16h56.65m0-2H97.53a2,2,0,0,0-1,.24l-3.93,2.17a2,2,0,0,0-1,1.75v3.15a2,2,0,0,0,2,2l64.06.46h0a2,2,0,0,0,2-2V15.26a2,2,0,0,0-.84-1.63l-3.47-2.49a2,2,0,0,0-1.17-.37Z"/><path class="cls-1" d="M151.41,16.13a1,1,0,0,1-.71-.32l-2.23-2.36a1,1,0,0,1-.27-.68V10.88H136.89v.46a1,1,0,0,1-1,1l-1.92,0a1,1,0,0,1-1-1v-.42h-14.2v.29a1,1,0,0,1-1,1H116a1,1,0,0,1-1-1v-.29H103.58v1.89a1,1,0,0,1-.32.72l-2.16,2a1,1,0,0,1-.69.27H93.59a1,1,0,0,1-.46-1.89l3.41-1.76.12-6.1a1,1,0,0,1,1-1h1.62V2a1,1,0,0,1,1-1h2.62a1,1,0,0,1,1,1V6.9h44.43V2a1,1,0,0,1,1-1h2.75a1,1,0,0,1,1,1V4.74h1.1a1,1,0,0,1,1,1v6.51l3.06,2.2a1,1,0,0,1,.37,1.12,1,1,0,0,1-1,.69Z"/><path class="cls-2" d="M152.08,2V5.74h2.1v7l3.48,2.49-6.23-.13-2.23-2.36V9.88H135.89v1.46l-1.9,0V9.88h-16.2v1.29H116V9.88H102.58v2.89l-2.17,2H93.59l3.94-2,.13-6.7h2.62V2h2.62V7.9h46.43V2h2.75m0-2h-2.75a2,2,0,0,0-2,2V5.9H104.9V2a2,2,0,0,0-2-2h-2.62a2,2,0,0,0-2,2V4.07h-.62a2,2,0,0,0-2,2l-.11,5.51L92.67,13a2,2,0,0,0,.92,3.78h6.82a2,2,0,0,0,1.37-.54l2.17-2a2,2,0,0,0,.63-1.45v-.89h9.5A2,2,0,0,0,116,13.17h1.84a2,2,0,0,0,1.87-1.29h12.41a2,2,0,0,0,1.87,1.42l1.91,0h0a2,2,0,0,0,1.4-.57,2,2,0,0,0,.52-.89h9.39v.89a2,2,0,0,0,.55,1.37L150,16.5a2,2,0,0,0,1.42.63l6.23.13h0a2,2,0,0,0,1.16-3.63l-2.64-1.89v-6a2,2,0,0,0-2-2h-.1V2a2,2,0,0,0-2-2Z"/><path class="cls-4" d="M47.56,59.39a1,1,0,0,1-.93-.64,1,1,0,0,1,.26-1.1l4-3.63a1,1,0,0,1,.66-.26h2.3c0-.33,0-.8,0-1.09l0-.52a1.81,1.81,0,0,1-1.29-1.43,2.25,2.25,0,0,1,.24-2.08,2,2,0,0,1,1.63-.74,4.25,4.25,0,0,1,1.84.5c1.58.79,1.33,2.55,1.13,3.75a3.4,3.4,0,0,1,3.39-2.33,2.77,2.77,0,0,1,2.43,1.47c.36.53.52.77,1.2.77a1,1,0,0,0,.47-.07s0-.21.06-.33a2,2,0,0,1,1.72-1.82l.29,0a3.52,3.52,0,0,1,2.54,1.61,5.61,5.61,0,0,0,.6.65,2,2,0,0,0,.55-.53,3.08,3.08,0,0,1,1.93-1.3,2.49,2.49,0,0,1,.46,0,2.6,2.6,0,0,1,2,1.32c.12.16.41.55.51.55h0a.13.13,0,0,1,0-.06,1.91,1.91,0,0,1,1.66-1.74,2.32,2.32,0,0,1,.44,0,2.7,2.7,0,0,1,2.13,1.33,2.31,2.31,0,0,0,.45.5,2.47,2.47,0,0,1,2-1.29,2.15,2.15,0,0,1,.49-.05,2.63,2.63,0,0,1,2.36,2l.1.22a16.33,16.33,0,0,0,2.65-1.55,1.16,1.16,0,0,1,.51-.18h.33a4.08,4.08,0,0,1,3.27,1.25,6.47,6.47,0,0,0,3.91,1.29h.39a1,1,0,0,1,.68.26,1,1,0,0,1,.32.74v3.64a1,1,0,0,1-1,1Z"/><path class="cls-2" d="M54.35,48.9a3.2,3.2,0,0,1,1.39.39c1.68.84-.21,3.92.7,4.75a1.44,1.44,0,0,0,.91.44c.46,0,.77-.42.77-1.13a2.44,2.44,0,0,1,2.59-2.53c1.89,0,1.33,2.24,3.63,2.24s.84-2,2.38-2.23h.16c1.32,0,2.12,2.3,3.13,2.3a.74.74,0,0,0,.28-.06c1.19-.5,1-1.53,2.43-1.83l.24,0c1.11,0,1.37,1.87,2.55,1.87h.18c1.42-.22.26-1.53,1.71-1.81a1.1,1.1,0,0,1,.25,0c1.2,0,1.44,1.83,2.57,1.83h.07c1.25-.08.28-1,2.11-1.31l.31,0c1.5,0,1.34,2.32,2.19,2.32h0c.91,0,3.5-1.81,3.5-1.81h.26a3.24,3.24,0,0,1,2.46.84c.65.9,3,1.7,4.72,1.7h.39v3.64H47.56l4-3.63h2.8c.76,0,.41-1.9.41-3s-.9.13-1.32-1.31c-.29-1,.1-1.54.91-1.54m0-2h0A3,3,0,0,0,51.92,48a3.24,3.24,0,0,0-.4,3,3.16,3.16,0,0,0,1.19,1.76H51.53a2.05,2.05,0,0,0-1.33.52l-4,3.63a2,2,0,0,0,1.34,3.48H96.23a2,2,0,0,0,2-2V54.75a2,2,0,0,0-2-2h-.39a6.14,6.14,0,0,1-3.12-.91,5.06,5.06,0,0,0-4.06-1.63h-.4a2.16,2.16,0,0,0-1,.36c-.52.36-1.11.73-1.61,1a3.25,3.25,0,0,0-2.93-1.88h0a4,4,0,0,0-.68.06,4,4,0,0,0-1.8.74,3.33,3.33,0,0,0-2.58-1.29,3.36,3.36,0,0,0-.63.06,3,3,0,0,0-1.77,1,3,3,0,0,0-3-1A3.89,3.89,0,0,0,70,50.62a4.22,4.22,0,0,0-3.16-1.8,3.11,3.11,0,0,0-.43,0,2.77,2.77,0,0,0-2.4,2L64,50.73a3.74,3.74,0,0,0-3.25-1.91,4.8,4.8,0,0,0-2.43.61,3.11,3.11,0,0,0-1.64-1.93,5.21,5.21,0,0,0-2.29-.6Z"/><path class="cls-4" d="M70.52,93.53a1,1,0,0,1-.79-.39L45.59,61.86a1,1,0,0,1,.58-1.58l3.27-.72.21,0a.86.86,0,0,1,.28,0l18,5.36a1,1,0,0,1,.71.85l2.88,26.63a1,1,0,0,1-1,1.11Z"/><path class="cls-2" d="M49.65,60.54l18,5.35,2.88,26.64L46.38,61.25l3.27-.71m0-2a2.1,2.1,0,0,0-.43.05L46,59.3a2,2,0,0,0-1.45,1.27,2,2,0,0,0,.3,1.9L68.94,93.75a2,2,0,0,0,1.58.78,2,2,0,0,0,2-2.22L69.62,65.68A2,2,0,0,0,68.21,64l-18-5.36a2.24,2.24,0,0,0-.57-.08Z"/><path class="cls-1" d="M159,192.53a1,1,0,0,1-1-1l-1.62-67H93.41l-2,67a1,1,0,0,1-1,1H2a1,1,0,0,1-1-1V134.46a1,1,0,0,1,.3-.71,1,1,0,0,1,.7-.29l78.15.61v-7.42h-2a1,1,0,0,1-1-1c0-.31-.4-7.85-12.76-7.85h-.3a1,1,0,0,1-.52-.15L56,113a1,1,0,0,1-.44-1.12,1,1,0,0,1,1-.73H192.31a1,1,0,0,1,.53,1.85l-7.89,4.9a1,1,0,0,1-.26.11c-10,2.78-11.39,4.92-14.18,9.19a1,1,0,0,1-.84.45h-1.12l.25,6.84h79.51a1,1,0,0,1,1,1v56a1,1,0,0,1-1,1Z"/><path class="cls-2" d="M192.31,112.18h0m0,0-7.89,4.9c-10.15,2.82-11.8,5.1-14.75,9.6h-2.15l.31,8.84h80.48v56H159l-1.64-67.95H92.44l-2,68H2V134.46l79.15.61v-9.42h-3s-.19-8.83-13.76-8.83h-.3l-7.58-4.64H192.31m0-2H56.55a2,2,0,0,0-1,3.7l7.59,4.65a2,2,0,0,0,1,.29h.3c11.31,0,11.75,6.62,11.77,6.9a2,2,0,0,0,2,1.93h1v5.41L2,132.46H2A2,2,0,0,0,.59,133,2,2,0,0,0,0,134.46v57.07a2,2,0,0,0,2,2H90.39a2,2,0,0,0,2-1.94l2-66h61l1.59,66a2,2,0,0,0,2,1.95h89.35a2,2,0,0,0,2-2v-56a2,2,0,0,0-2-2H169.76l-.17-4.84h.08a2,2,0,0,0,1.67-.91c2.74-4.18,4-6.09,13.61-8.76a1.87,1.87,0,0,0,.52-.23l7.86-4.88a2,2,0,0,0-1-3.72Zm0,4h0Z"/><path class="cls-1" d="M95.3,56.81a1,1,0,0,1-1-.7L83.65,22a1,1,0,0,1,.15-.9,1,1,0,0,1,.81-.4l82.17.46a1,1,0,0,1,.81.41,1,1,0,0,1,.13.9L156.51,56.13a1,1,0,0,1-.95.68Z"/><path class="cls-2" d="M84.61,21.65l82.16.46-11.21,33.7H95.3L84.61,21.65m0-2a2,2,0,0,0-1.91,2.59L93.39,56.41a2,2,0,0,0,1.91,1.4h60.26a2,2,0,0,0,1.9-1.37l11.21-33.7a2,2,0,0,0-.27-1.8,2,2,0,0,0-1.62-.83l-82.16-.46Z"/><path class="cls-1" d="M94.64,62.32a1,1,0,0,1-.72-.3,1,1,0,0,1-.28-.73l1-31.68a1,1,0,0,1,1-1h60.4a1,1,0,0,1,1,1V61.32a1,1,0,0,1-1,1Z"/><path class="cls-2" d="M156.08,29.65V61.32H94.64l1-31.67h60.39m0-2H95.69a2,2,0,0,0-2,1.93l-1,31.67a2,2,0,0,0,2,2.07h61.44a2,2,0,0,0,2-2V29.65a2,2,0,0,0-2-2Z"/><polygon class="cls-4" points="98.78 52.81 99.44 32.91 109.88 32.91 109.45 52.81 98.78 52.81"/><path class="cls-2" d="M108.86,33.91l-.39,17.9H99.81l.59-17.9h8.46m2-2H98.47l-.06,1.93-.59,17.9-.07,2.07h12.67l0-2,.39-17.9,0-2Zm-2,4h0Z"/><path class="cls-4" d="M125.69,52.33c-5.35,0-9.7-4.06-9.7-9s4.35-9,9.7-9,9.7,4,9.7,9S131,52.33,125.69,52.33Z"/><path class="cls-2" d="M125.69,35.25c4.81,0,8.7,3.6,8.7,8s-3.89,8-8.7,8-8.7-3.6-8.7-8,3.9-8,8.7-8m0-2c-5.9,0-10.7,4.5-10.7,10s4.8,10,10.7,10,10.7-4.51,10.7-10-4.8-10-10.7-10Z"/><path class="cls-3" d="M84.6,22.65a1,1,0,0,1-1-1V18.76a1.05,1.05,0,0,1,.29-.71,1,1,0,0,1,.71-.29l82.17.53a1,1,0,0,1,1,1v2.82a1,1,0,0,1-.29.71,1,1,0,0,1-.71.29Z"/><path class="cls-2" d="M84.61,18.76l82.16.53v2.82l-82.16-.46V18.76m0-2a2,2,0,0,0-2,2v2.89a2,2,0,0,0,2,2l82.16.46h0a2,2,0,0,0,2-2V19.29a2,2,0,0,0-2-2l-82.17-.53Z"/><path class="cls-1" d="M66.46,110.15a1,1,0,0,1-.72-.3,1,1,0,0,1-.28-.73l1.05-27.77-1.58-1.64a1,1,0,0,1-.29-.7v-1.7a1,1,0,0,1,.36-.76l1.29-1.07c-1-2-4.52-7.73-10.8-9.35l-.14,0L43.83,61.27a1,1,0,0,1-.62-.92V57.73a1,1,0,0,1,1-1H206.76a1,1,0,0,1,1,1v2.09a1,1,0,0,1-.56.9c-.36.18-9,4.41-10.8,5.23-6.37,2.87-10.63,6.38-12.14,10l1.41,1.29A1,1,0,0,1,186,78v1.52a1,1,0,0,1-.29.7l-1.38,1.38.94,27.05a1,1,0,0,1-.28.73,1,1,0,0,1-.71.31Z"/><path class="cls-2" d="M206.76,57.73v2.09S197.82,64.21,196,65s-10.78,4.79-12.9,11.18L185,78v1.52l-1.68,1.68,1,27.49-117.81.5L67.53,81,65.64,79v-1.7l1.89-1.57s-3.62-8.48-11.79-10.57L44.21,60.35V57.73H206.76m0-2H44.21a2,2,0,0,0-2,2v2.62a2,2,0,0,0,1.23,1.84L55,67a1.31,1.31,0,0,0,.28.09C60.51,68.46,63.71,73,65,75.23l-.66.55a2,2,0,0,0-.72,1.53V79a2,2,0,0,0,.57,1.39l1.29,1.34-1,27.34a2,2,0,0,0,.56,1.46,2,2,0,0,0,1.44.61h0l117.81-.5a2,2,0,0,0,2-2.07L185.34,82l1.08-1.07a2,2,0,0,0,.58-1.41V78a2,2,0,0,0-.65-1.48l-.87-.79c1.62-3.15,5.56-6.23,11.27-8.8l.06,0c1.85-.83,10.47-5.06,10.83-5.24a2,2,0,0,0,1.12-1.8V57.73a2,2,0,0,0-2-2Z"/><polygon class="cls-4" points="73.17 76.09 73.59 64.31 90.78 64.31 90.57 76.09 73.17 76.09"/><path class="cls-2" d="M89.76,65.31h0m0,0-.17,9.78H74.2l.35-9.78H89.76m2-2H72.62l-.07,1.92L72.2,75l-.07,2.07H91.55l0-2,.18-9.79,0-2Zm-2,0Zm0,4h0Z"/><polyline class="cls-5" points="117.93 32.53 114.54 32.53 114.54 35.4"/><polyline class="cls-5" points="114.05 50.44 114.05 53.06 117.32 53.06"/><polygon class="cls-4" points="95.23 75.61 95.23 64.31 109.19 64.31 109.14 75.61 95.23 75.61"/><path class="cls-2" d="M108.18,65.31h0m0,0,0,9.3H96.23v-9.3h12m2-2h-16v13.3h15.9v-2l0-9.31v-2Zm-2,0Zm0,4h0Z"/><polyline class="cls-6" points="72.45 94.29 73.05 81.71 75.95 81.71"/><path class="cls-1" d="M125.81,48.2a5,5,0,1,1,5.22-5A5.12,5.12,0,0,1,125.81,48.2Z"/><path class="cls-2" d="M125.81,39.17a4,4,0,1,1-4.21,4,4.12,4.12,0,0,1,4.21-4m0-2a6,6,0,1,0,6.22,6,6.13,6.13,0,0,0-6.22-6Z"/><path class="cls-3" d="M46.38,60.29a1,1,0,0,1-1-1V57a1,1,0,0,1,1-1H205.2a1,1,0,0,1,1,1v2.85a1,1,0,0,1-.29.71,1,1,0,0,1-.71.29Z"/><path class="cls-2" d="M205.2,57v2.85L46.38,59.29V57H205.2m0-2H46.38a2,2,0,0,0-2,2v2.33a2,2,0,0,0,2,2l158.82.52h0a2,2,0,0,0,2-2V57a2,2,0,0,0-2-2Z"/><polygon class="cls-1" points="77.52 72.37 77.69 68.14 86.38 68.14 86.3 72.37 77.52 72.37"/><path class="cls-2" d="M85.36,69.13h0m0,0,0,2.24H78.56l.09-2.24h6.71m2-2H76.73l-.08,1.92-.09,2.24-.08,2.08h10.8l0-2,0-2.24,0-2Zm-2,0Zm0,4h0Z"/><polygon class="cls-1" points="99.33 72.37 99.32 68.14 106.05 68.14 106.11 72.37 99.33 72.37"/><path class="cls-2" d="M105.06,69.13l0,2.24h-4.78V69.13h4.74m2-2H98.32v6.24h8.8l0-2,0-2.24,0-2Z"/><path class="cls-3" d="M2,157a1,1,0,0,1-1-1V141.44a1,1,0,0,1,1-1H82.4a1,1,0,0,1,.88,1.47l-7.82,14.54a1,1,0,0,1-.88.53Z"/><path class="cls-2" d="M82.4,141.44h0m0,0L74.58,156H2V141.44H82.4m0-2H2a2,2,0,0,0-2,2V156a2,2,0,0,0,2,2H74.58a2,2,0,0,0,1.76-1.06l7.78-14.46a2,2,0,0,0-1.72-3Zm0,4Z"/><path class="cls-3" d="M62.77,113.89,2,113.18a1,1,0,0,1-1-1V94.29a1,1,0,0,1,1-1H67a1,1,0,0,1,1,1v18.6a1,1,0,0,1-1,1Z"/><path class="cls-2" d="M67,94.29v18.6H62.77L2,112.18V94.29H67m0-2H2a2,2,0,0,0-2,2v17.89a2,2,0,0,0,2,2l60.76.71H67a2,2,0,0,0,2-2V94.29a2,2,0,0,0-2-2Z"/><path class="cls-4" d="M2,97.71a1,1,0,0,1-1-1V87.09a1,1,0,0,1,1-1H46.38a1,1,0,0,1,1,1v1.83a1,1,0,0,1-.45.83l-11.66,7.8a1,1,0,0,1-.55.16Z"/><path class="cls-2" d="M46.38,87.09v1.83L34.72,96.71H2V87.09H46.38m0-2H2a2,2,0,0,0-2,2v9.62a2,2,0,0,0,2,2H34.72a2,2,0,0,0,1.11-.33l11.66-7.8a2,2,0,0,0,.89-1.66V87.09a2,2,0,0,0-2-2Z"/><path class="cls-1" d="M2,135.46a1,1,0,0,1-1-1v-20a1,1,0,0,1,1-1c.05,0,5-.13,8.51-.13a16.89,16.89,0,0,1,3.59.16c2.23.21,36.15.77,58.66,1.1a1,1,0,0,1,.41.09l9.68,4.43a1,1,0,0,1,.58.84l1.12,15.11a1,1,0,0,1-1,1.08Z"/><path class="cls-2" d="M10.48,114.37a21.67,21.67,0,0,1,3.33.13c.61.28,58.91,1.13,58.91,1.13l9.68,4.43,1.12,15.12L2,134.46v-20s5-.13,8.48-.13m0-2c-3.48,0-8.48.13-8.53.13a2,2,0,0,0-1.95,2v20a2,2,0,0,0,2,2l81.52.72h0a2,2,0,0,0,1.46-.64,2,2,0,0,0,.53-1.51l-1.12-15.12a2,2,0,0,0-1.16-1.67l-9.68-4.43a2,2,0,0,0-.8-.18c-22.17-.32-55.63-.87-58.5-1.09a20.23,20.23,0,0,0-3.77-.17Z"/><path class="cls-4" d="M2,117.82a1,1,0,0,1-1-1v-4.64a1,1,0,0,1,.3-.71,1,1,0,0,1,.7-.29l60.78.71a1,1,0,0,1,.93.67l1.37,3.93a1,1,0,0,1-.13.91,1,1,0,0,1-.82.42Z"/><path class="cls-2" d="M2,112.18l60.77.71,1.36,3.93H2v-4.64m0-2a2,2,0,0,0-1.41.58A2,2,0,0,0,0,112.18v4.64a2,2,0,0,0,2,2H64.13A2,2,0,0,0,66,116.17l-1.36-3.94a2,2,0,0,0-1.87-1.34L2,110.18Z"/><rect class="cls-1" x="42.89" y="163.22" width="30.56" height="29.32" rx="1"/><path class="cls-2" d="M72.45,164.22v27.31H43.89V164.22H72.45m0-2H43.89a2,2,0,0,0-2,2v27.31a2,2,0,0,0,2,2H72.45a2,2,0,0,0,2-2V164.22a2,2,0,0,0-2-2Z"/><rect class="cls-1" x="7.31" y="163.22" width="28.68" height="29.32" rx="1"/><path class="cls-2" d="M35,164.22v27.31H8.31V164.22H35m0-2H8.31a2,2,0,0,0-2,2v27.31a2,2,0,0,0,2,2H35a2,2,0,0,0,2-2V164.22a2,2,0,0,0-2-2Z"/><path class="cls-1" d="M81.24,170a1,1,0,0,1-1-1c0-8.44-1.87-9.4-2-9.47a1,1,0,0,1-.9-.58l-.9-2H74.58a1,1,0,0,1-1-1v-2.43a1,1,0,0,1,.12-.48L80.29,141a1,1,0,0,1,.87-.52h2.36a1,1,0,0,1,1,1V169a1,1,0,0,1-1,1Z"/><path class="cls-2" d="M83.52,141.44V169H81.24c0-10.19-2.7-10.47-3-10.47h0L77.06,156H74.58v-2.43l6.58-12.11h2.36m0-2H81.16a2,2,0,0,0-1.75,1L72.82,152.6a2,2,0,0,0-.24,1V156a2,2,0,0,0,2,2h1.19l.63,1.38a2,2,0,0,0,1.44,1.14c.29.35,1.4,2.08,1.4,8.5a2,2,0,0,0,2,2h2.28a2,2,0,0,0,2-2V141.44a2,2,0,0,0-2-2Z"/><polyline class="cls-5" points="2 130.23 18.42 130.23 18.8 128.7 22.22 128.7 22.61 130.23 40.72 130.23 41.29 128.6 44.74 128.6 45.22 130.23 65.64 130.23 65.64 126.78 68.9 124.96 72.25 126.69 72.25 130.23 83.52 130.23"/><polyline class="cls-7" points="102.78 35.9 106.4 35.9 106.4 39.22 102.61 39.22 102.44 42.52 106.4 42.52 106.4 45.97 102.44 45.97 102.27 49.47 106.4 49.47"/><path class="cls-1" d="M85,106.48a1,1,0,0,1-.88-.53L82,102.1a1,1,0,0,1-.12-.51L82.25,89,79.1,90.62a1.06,1.06,0,0,1-.45.11,1,1,0,0,1-.89-.54l-1.25-2.38A1,1,0,0,1,77,86.45l5.36-2.72v-3a1,1,0,0,1,.57-.91c.27-.12,26.42-12.33,30.88-15.07,4.75-2.92,9-6.41,9.88-7.52A2.5,2.5,0,0,1,125.51,56c.81,0,1.3.63,1.77,1.23.65.84,6.32,6.23,10.17,8.36S167.1,80.83,167.36,81a1,1,0,0,1,.54.89v2.57l4.3,2a1,1,0,0,1,.52.58,1,1,0,0,1-.05.77l-1.14,2.28a1,1,0,0,1-.9.56,1,1,0,0,1-.4-.09l-2.35-1-.18,12.59a1,1,0,0,1-.41.79l-4.66,3.4a1,1,0,0,1-.59.2Z"/><path class="cls-2" d="M125.51,57c.33,0,.6.36,1,.86.73.94,6.53,6.43,10.47,8.6S166.9,81.86,166.9,81.86v3.21l4.87,2.28-1.14,2.28L166.9,88l-.2,14.1L162,105.48H85l-2.09-3.86.44-14.27-4.67,2.38L77.4,87.35l5.91-3V80.72s26.41-12.33,31-15.13,9.13-6.42,10.16-7.77c.47-.61.79-.86,1.07-.86m0-2a3.54,3.54,0,0,0-2.66,1.65c-.79,1-5,4.46-9.62,7.28-4.41,2.7-30.51,14.89-30.77,15a2,2,0,0,0-1.15,1.82v2.4l-4.82,2.44a2,2,0,0,0-1,1.18,1.94,1.94,0,0,0,.13,1.53l1.24,2.38a2,2,0,0,0,1.78,1.08,2,2,0,0,0,.9-.22l1.65-.84-.33,10.89a2,2,0,0,0,.24,1l2.1,3.85a2,2,0,0,0,1.75,1H162a2,2,0,0,0,1.17-.39l4.67-3.4a2,2,0,0,0,.82-1.59L168.86,91l1,.42a2,2,0,0,0,.81.18,2,2,0,0,0,1.79-1.11l1.14-2.28a2,2,0,0,0,.1-1.55,2,2,0,0,0-1-1.15L168.9,83.8V81.86a2,2,0,0,0-1.09-1.79c-.26-.13-26-13.26-29.88-15.4-3.68-2-9.21-7.27-9.85-8.08A3.29,3.29,0,0,0,125.51,55Z"/><path class="cls-4" d="M97.51,98a1,1,0,0,1-1-1V88.06a1,1,0,0,1,.52-.88l27.65-15a1,1,0,0,1,.48-.12,1,1,0,0,1,.48.12l27.64,15.1a1,1,0,0,1,.52.88V97a1,1,0,0,1-1,1Z"/><path class="cls-2" d="M125.16,73.05l27.64,15.1V97H97.51V88.06l27.65-15m0-2a2,2,0,0,0-1,.24l-27.64,15a2,2,0,0,0-1,1.75V97a2,2,0,0,0,2,2H152.8a2,2,0,0,0,2-2V88.15a2,2,0,0,0-1-1.75L126.12,71.29a2,2,0,0,0-1-.24Z"/><rect class="cls-1" x="91.83" y="87" width="67.97" height="5.47" rx="1"/><path class="cls-2" d="M158.79,88v3.47h-66V88h66m0-2h-66a2,2,0,0,0-2,2v3.47a2,2,0,0,0,2,2h66a2,2,0,0,0,2-2V88a2,2,0,0,0-2-2Z"/><rect class="cls-3" x="55.55" y="106.45" width="137.79" height="6.73" rx="1"/><path class="cls-2" d="M192.33,107.45v4.73H56.55v-4.73H192.33m0-2H56.55a2,2,0,0,0-2,2v4.73a2,2,0,0,0,2,2H192.33a2,2,0,0,0,2-2v-4.73a2,2,0,0,0-2-2Z"/><path class="cls-3" d="M56.55,108.45a1,1,0,0,1-1-1v-1.32a1,1,0,0,1,.83-1l26.32-4.5.17,0h2.46a1,1,0,0,1,1,.77l.36,1.48h75.62l2.76-1.66a1.07,1.07,0,0,1,.52-.14h2.59l.16,0,24.19,4a1,1,0,0,1,.83,1v1.32a1,1,0,0,1-1,1Z"/><path class="cls-2" d="M85.33,101.62l.54,2.25h76.68l3-1.8h2.59l24.18,4.06v1.32H56.55v-1.32l26.32-4.51h2.46m0-2H82.87a2,2,0,0,0-.34,0l-26.32,4.51a2,2,0,0,0-1.66,2v1.32a2,2,0,0,0,2,2H192.33a2,2,0,0,0,2-2v-1.32a2,2,0,0,0-1.67-2l-24.18-4.05a1.84,1.84,0,0,0-.33,0h-2.59a2,2,0,0,0-1,.29L162,101.87H87.44l-.17-.72a2,2,0,0,0-1.94-1.53Z"/><path class="cls-4" d="M56.55,108.45a1,1,0,0,1-1-1v-6.63a1,1,0,0,1,1-1h5.27a1,1,0,0,1,1,1V102h2.61a1,1,0,0,1,1,1v1.15H69a1,1,0,0,1,1,1v2.28a1,1,0,0,1-1,1Z"/><path class="cls-2" d="M61.82,100.82V103h3.61v2.15H69v2.28H56.55v-6.63h5.27m0-2H56.55a2,2,0,0,0-2,2v6.63a2,2,0,0,0,2,2H69a2,2,0,0,0,2-2v-2.28a2,2,0,0,0-2-2H67.43V103a2,2,0,0,0-2-2H63.82v-.2a2,2,0,0,0-2-2Z"/></g></g></svg>