<svg xmlns="http://www.w3.org/2000/svg" viewBox="0 0 304.21 197.4"><defs><style>.cls-1,.cls-7{fill:#0c81c3;}.cls-2{fill:#010101;}.cls-3{fill:#08ad84;}.cls-4,.cls-6{fill:#8683bf;}.cls-5{fill:#231f20;}.cls-6,.cls-7{stroke:#010101;stroke-linecap:round;stroke-linejoin:round;stroke-width:2px;}</style></defs><title>Q_07</title><g id="Layer_2" data-name="Layer 2"><g id="Landmark"><path class="cls-1" d="M179.26,187.58a1,1,0,0,1-1-1l-.77-21.41a1,1,0,0,1,1-1h15.23a1,1,0,0,1,1,1v19.9a1,1,0,0,1-.9,1l-14.46,1.51Z"/><path class="cls-2" d="M193.72,165.16v19.9l-14.47,1.52-.76-21.42h15.23m0-2H178.49a2,2,0,0,0-2,2.07l.77,21.42a2,2,0,0,0,.68,1.44,2.06,2.06,0,0,0,1.31.49l.21,0,14.47-1.51a2,2,0,0,0,1.79-2v-19.9a2,2,0,0,0-2-2Z"/><path class="cls-3" d="M2,168a1,1,0,0,1-1-1V121a1,1,0,0,1,.73-1l34.07-9.67a.9.9,0,0,1,.28,0,1,1,0,0,1,.59.2,1,1,0,0,1,.41.78l.8,47.09a1,1,0,0,1-.76,1L2.24,167.92A1,1,0,0,1,2,168Z"/><path class="cls-2" d="M36.08,111.35l.8,47.08L2,167V121l34.08-9.67m0-2a2,2,0,0,0-.55.07L1.45,119.09A2,2,0,0,0,0,121V167a2,2,0,0,0,2,2,2.42,2.42,0,0,0,.47,0l34.89-8.52a2,2,0,0,0,1.52-2l-.8-47.09a2,2,0,0,0-2-2Z"/><path class="cls-4" d="M10.49,185.21a1,1,0,0,1-1-1v-4.77a1,1,0,0,1,.66-.94L22.6,174a1,1,0,0,1,.34-.06,1,1,0,0,1,1,1v9.28a1,1,0,0,1-1,1Z"/><path class="cls-2" d="M22.94,174.93v9.28H10.49v-4.77l12.45-4.51m0-2a2,2,0,0,0-.68.12L9.81,177.56a2,2,0,0,0-1.32,1.88v4.77a2,2,0,0,0,2,2H22.94a2,2,0,0,0,2-2v-9.28a2,2,0,0,0-.85-1.64,2,2,0,0,0-1.15-.36Z"/><path class="cls-4" d="M235.86,183.3a1,1,0,0,1-.8-.4l-13-17.18a1,1,0,0,1-.1-1,1,1,0,0,1,.88-.57l5.2-.1a1,1,0,0,1,.79.38l9.92,12.74,3.05-.38,11.87-13.28a1,1,0,0,1,.74-.33h5.19a1,1,0,0,1,.79,1.62l-14.27,18.15a1,1,0,0,1-.78.39Z"/><path class="cls-2" d="M259.63,164.14,245.37,182.3h-9.51l-13-17.19,5.18-.1,10.27,13.18,4-.5,12.12-13.55h5.19m0-2h-5.19a2,2,0,0,0-1.49.67l-11.62,13-2.11.26-9.57-12.28a2,2,0,0,0-1.58-.77h0l-5.18.1a2,2,0,0,0-1.56,3.21l13,17.18a2,2,0,0,0,1.6.8h9.51a2,2,0,0,0,1.57-.77l14.26-18.15a2,2,0,0,0-1.57-3.24Zm0,4h0Z"/><path class="cls-1" d="M227,185.24a1,1,0,0,1-.79-.39L212.7,167.3a1,1,0,0,1-.16-.91,1,1,0,0,1,.64-.65l4.86-1.58a1.12,1.12,0,0,1,.31,0,1,1,0,0,1,.79.39L232,181.26l12.51-17.7a1,1,0,0,1,.68-.41l7.78-1.08h.14a1,1,0,0,1,.8,1.59l-15.67,21.19a1,1,0,0,1-.8.4Z"/><path class="cls-2" d="M253.15,163.06l-15.67,21.18H227l-13.5-17.55,4.86-1.58,13.72,17.83,13.3-18.8,7.78-1.08m0-2-.28,0-7.78,1.08a2,2,0,0,0-1.36.83L232,179.58l-12.07-15.69a2,2,0,0,0-1.58-.78,1.87,1.87,0,0,0-.62.1l-4.86,1.58a2,2,0,0,0-1,3.12l13.5,17.55a2,2,0,0,0,1.58.78h10.49a2,2,0,0,0,1.6-.81l15.67-21.18a2,2,0,0,0-1.6-3.19Zm0,4Z"/><path class="cls-3" d="M188.41,164.06a1,1,0,0,1-1-.94L181.61,68a1,1,0,0,1,.74-1l83.71-22.49a1.09,1.09,0,0,1,.26,0,1,1,0,0,1,.61.21,1,1,0,0,1,.39.8l-1,115.45a1,1,0,0,1-1,1Z"/><path class="cls-2" d="M266.32,45.5l-1,115.45-76.88,2.11L182.61,68,266.32,45.5m0-2a2.24,2.24,0,0,0-.52.06L182.09,66.05a2,2,0,0,0-1.48,2.06l5.81,95.07a2,2,0,0,0,2,1.88h.06L265.35,163a2,2,0,0,0,1.94-2l1-115.46a2.05,2.05,0,0,0-.78-1.6,2,2,0,0,0-1.22-.41Zm0,4Z"/><path class="cls-3" d="M271.43,163.43l-.24,0-6.13-1.48a1,1,0,0,1-.77-1l1-115.45a1,1,0,0,1,.89-1h.11a1,1,0,0,1,1,.79l5.11,23.65a.76.76,0,0,1,0,.21v93.28a1,1,0,0,1-.39.79A1,1,0,0,1,271.43,163.43Z"/><path class="cls-2" d="M266.32,45.5l5.11,23.65v93.28L265.29,161l1-115.45m0-2h-.21a2,2,0,0,0-1.79,2l-1,115.45a2,2,0,0,0,1.53,2l6.14,1.48a1.84,1.84,0,0,0,.47.06,2,2,0,0,0,2-2V69.15a2,2,0,0,0-.05-.42l-5.11-23.66a2,2,0,0,0-1.95-1.57Z"/><path class="cls-5" d="M240.56,162.59a1,1,0,0,1-.7-.29,1,1,0,0,1-.3-.72l.7-84.2a1,1,0,0,1,.75-1l24.83-6.33a.73.73,0,0,1,.25,0,1,1,0,0,1,.62.22,1,1,0,0,1,.38.79l-.8,89.9a1,1,0,0,1-1,1Z"/><path class="cls-2" d="M266.09,71.05h0m0,0-.8,89.9-24.72.64.69-84.2,24.83-6.34m0-2H266a1.85,1.85,0,0,0-.47.08l-24.79,6.32a2,2,0,0,0-1.5,1.92l-.69,84.2a2,2,0,0,0,.59,1.45,2.05,2.05,0,0,0,1.41.57h.05l24.72-.64a2,2,0,0,0,2-2l.8-89.8v-.12a2,2,0,0,0-2-2Zm0,4Z"/><path class="cls-4" d="M177.41,168.81a1,1,0,0,1-.7-.28,1,1,0,0,1-.3-.72v-4.75a1,1,0,0,1,.63-.93.94.94,0,0,1,.37-.07h.44c7.38,0,104.76-2.58,105.74-2.6h.21l18.59,3.46a1,1,0,0,1,.82,1.06,1,1,0,0,1-1,.92Z"/><path class="cls-2" d="M283.62,160.47l18.59,3.45-124.8,3.89v-4.75h.44c7.46,0,105.77-2.6,105.77-2.6m0-2h-.05c-1,0-98.38,2.6-105.72,2.6h-.45a2.1,2.1,0,0,0-.73.14,2,2,0,0,0-1.26,1.86v4.75a2,2,0,0,0,.6,1.44,2,2,0,0,0,1.4.56h.06l124.8-3.89a2,2,0,0,0,.3-4L284,158.5a2.31,2.31,0,0,0-.37,0Z"/><path class="cls-4" d="M253,92.52c-2.73,0-4.8-.8-6.14-2.36a7.64,7.64,0,0,1-1.53-5.66,1,1,0,0,1,1-.85h.79l-.18-2a1,1,0,0,1,.24-.74,1,1,0,0,1,.7-.35l2.12-.13.17-1.58a1,1,0,0,1,.75-.86l4.48-1.16a.73.73,0,0,1,.25,0,1,1,0,0,1,.61.21,1,1,0,0,1,.39.79v.74l1.72-.6a1,1,0,0,1,.33-.06,1,1,0,0,1,1,1V81l.67-.21a1,1,0,0,1,.3-.05,1,1,0,0,1,.56.17,1,1,0,0,1,.44.76c0,.21.34,5.23-2.53,8.38a7.74,7.74,0,0,1-5.81,2.46Z"/><path class="cls-2" d="M255.67,77.79V80l3.05-1.08v3.5l2-.63s.69,9.59-7.36,9.77H253c-7.73,0-6.68-6.87-6.68-6.87h1.88l-.27-3.1,3-.18.27-2.42,4.48-1.17m0-2a2.08,2.08,0,0,0-.5.07L250.68,77a2,2,0,0,0-1.48,1.72l-.08.75-1.28.07a2,2,0,0,0-1.39.69,2,2,0,0,0-.48,1.48l.08,1a2,2,0,0,0-1.68,1.67,8.5,8.5,0,0,0,1.77,6.46c1.54,1.8,3.85,2.71,6.89,2.71h.34a8.7,8.7,0,0,0,6.53-2.78c3.16-3.47,2.8-8.9,2.79-9.13a2,2,0,0,0-.88-1.52,1.93,1.93,0,0,0-1.09-.34v-.87a2,2,0,0,0-2-2,2.24,2.24,0,0,0-.67.11l-.48.18a2.07,2.07,0,0,0-.68-1,2,2,0,0,0-1.22-.42Z"/><path class="cls-4" d="M24.06,121.07a1,1,0,0,1-1-1v-1.52a1,1,0,0,1,.27-.68L132.46,1.32a1,1,0,0,1,.73-.32h0a1,1,0,0,1,.73.33L203.25,79a1,1,0,0,1,.25.67v2.15a1,1,0,0,1-.82,1l-13.45,2.41-156.71,35-.11,0-8.24.89Z"/><path class="cls-2" d="M133.19,2,202.5,79.62v2.15l-13.44,2.41-156.76,35-8.24.88v-1.52L133.19,2m0-2a2,2,0,0,0-1.46.63L22.6,117.18a2,2,0,0,0-.54,1.37v1.52a2,2,0,0,0,2,2h.21l8.25-.89.22,0,156.71-35,13.4-2.4a2,2,0,0,0,1.65-2V79.62a2,2,0,0,0-.51-1.34L134.68.67A2,2,0,0,0,133.21,0Z"/><path class="cls-4" d="M187.9,93.37a1,1,0,0,1-.54-.16L124.47,53.07a1,1,0,0,1-.46-.85V31.55a1,1,0,0,1,.4-.8,1,1,0,0,1,.6-.2.84.84,0,0,1,.27,0l7.35,2a1.05,1.05,0,0,1,.44.24L188.48,87a1,1,0,0,1,.3.69l.12,4.62a1,1,0,0,1-.51.89A1,1,0,0,1,187.9,93.37Z"/><path class="cls-2" d="M125,31.55l7.36,2,55.41,54.18.12,4.61L125,52.22V31.55m0-2a2,2,0,0,0-2,2V52.22a2,2,0,0,0,.92,1.69l62.89,40.15a2,2,0,0,0,1.08.31,1.89,1.89,0,0,0,1-.26,2,2,0,0,0,1-1.79l-.12-4.61a2,2,0,0,0-.6-1.38L133.76,32.15a2,2,0,0,0-.86-.5l-7.36-2a1.88,1.88,0,0,0-.53-.07Z"/><path class="cls-1" d="M32.3,128.68a1.11,1.11,0,0,1-.43-.09,1,1,0,0,1-.57-.91v-8.49a1,1,0,0,1,.32-.73l92.7-87.64a1,1,0,0,1,.69-.27,1.14,1.14,0,0,1,.4.08,1,1,0,0,1,.6.92V52.22a1,1,0,0,1-.37.78L32.93,128.46A1,1,0,0,1,32.3,128.68Z"/><path class="cls-2" d="M125,31.55V52.22L32.3,127.68v-8.49L125,31.55m0-2a2,2,0,0,0-1.37.55L30.93,117.73a2,2,0,0,0-.63,1.46v8.49a2,2,0,0,0,2,2,2,2,0,0,0,1.26-.45l92.71-75.46a2,2,0,0,0,.74-1.55V31.55a2,2,0,0,0-1.21-1.84,2,2,0,0,0-.79-.16Z"/><path class="cls-4" d="M176.45,162.59a.89.89,0,0,1-.36-.07l-17.86-6.85a1,1,0,0,1-.64-1l3.25-56.3a1,1,0,0,1,.59-.86,1,1,0,0,1,.41-.08,1,1,0,0,1,.63.22l26.58,21.64a1,1,0,0,1,.36.77v41.52a1,1,0,0,1-1,1Z"/><path class="cls-2" d="M161.84,98.44l26.57,21.63v41.52h-12l-17.86-6.85,3.25-56.3m0-2a1.9,1.9,0,0,0-.81.17,2,2,0,0,0-1.19,1.71l-3.25,56.3a2,2,0,0,0,1.28,2l17.86,6.85a2.18,2.18,0,0,0,.72.13h12a2,2,0,0,0,2-2V120.07a2,2,0,0,0-.73-1.55L163.1,96.88a2,2,0,0,0-1.26-.44Z"/><path class="cls-4" d="M29.82,188.05c-2.19,0-5.58-.11-5.61-.11a1,1,0,0,1-1-1v-5.6a1,1,0,0,1,.71-1l7.43-2.26a1,1,0,0,1,.29,0,1,1,0,0,1,1,1c-.07,3.27-.1,6.93,0,7.56a1,1,0,0,1-.08.76c-.33.63-.88.63-2.71.63Z"/><path class="cls-2" d="M31.67,179.08h0m0,0s-.17,7.61,0,7.86a6.07,6.07,0,0,1-1.85.11c-2.2,0-5.58-.11-5.58-.11v-5.6l7.43-2.26m0-2H31.6a2,2,0,0,0-.55.1l-7.39,2.25a2,2,0,0,0-1.42,1.91v5.6a2,2,0,0,0,1.93,2c.14,0,3.44.11,5.65.11,1.93,0,3,0,3.62-1.15a2,2,0,0,0,.18-1.39c0-.76,0-4.21.05-7.28,0,0,0-.1,0-.15a2,2,0,0,0-2-2Zm0,4h0Z"/><path class="cls-4" d="M31.67,187.94a1,1,0,0,1-1-1v-7.86a1,1,0,0,1,.32-.73,1,1,0,0,1,.68-.27l22.89,1.76a1,1,0,0,1,.93,1v6.21a1,1,0,0,1-.3.71,1,1,0,0,1-.7.29Z"/><path class="cls-2" d="M31.67,179.08l22.82,1.76v6.21l-22.82-.11v-7.86m0-2a2,2,0,0,0-2,2v7.86a2,2,0,0,0,2,2l22.82.11h0a2,2,0,0,0,2-2v-6.21a2,2,0,0,0-1.85-2l-22.81-1.75Z"/><path class="cls-1" d="M182.93,122.89a1.06,1.06,0,0,1-.65-.24,1,1,0,0,1-.35-.79l.84-26.27a1,1,0,0,1,.33-.71l5.55-5a1,1,0,0,1,.43-.23c.08,0,.33-.09,5.88-.67h.11a.94.94,0,0,1,.67.27,1,1,0,0,1,.33.75l-.58,29.75a1,1,0,0,1-.82,1l-11.55,2.19Z"/><path class="cls-2" d="M195.07,89.94l-.58,29.75-11.56,2.2.84-26.27,5.55-5c.26-.07,5.75-.65,5.75-.65m0-2h-.21c-5.63.6-5.87.66-6,.7a1.9,1.9,0,0,0-.86.46l-5.55,5a2,2,0,0,0-.66,1.42l-.84,26.26a2.05,2.05,0,0,0,.7,1.59,2,2,0,0,0,1.3.48,1.64,1.64,0,0,0,.38,0l11.55-2.19a2,2,0,0,0,1.63-1.93L197.07,90a2,2,0,0,0-.65-1.51,2,2,0,0,0-1.35-.53Zm0,4Z"/><path class="cls-4" d="M178.93,121.07a1,1,0,0,1-1-1V99.56a1,1,0,0,1,.08-.39l5-11.94a1,1,0,0,1,.74-.59l6.84-1.3h.19a1,1,0,0,1,.63.23,1,1,0,0,1,.37.77v31.43a1,1,0,0,1-.81,1l-11.88,2.31A.58.58,0,0,1,178.93,121.07Z"/><path class="cls-2" d="M190.81,86.33v31.43l-11.88,2.31V99.56l5-11.94,6.84-1.29m0-2a2.22,2.22,0,0,0-.37,0l-6.84,1.29a2,2,0,0,0-1.48,1.19l-5,11.94a2.09,2.09,0,0,0-.16.78v20.51a2,2,0,0,0,2,2,2.34,2.34,0,0,0,.38,0l11.88-2.32a2,2,0,0,0,1.62-2V86.33a2,2,0,0,0-2-2Z"/><path class="cls-1" d="M82.49,192.24a1.06,1.06,0,0,1-.36-.09l-52.5-24.38a1,1,0,0,1-.58-.9l-.38-39.24a1,1,0,0,1,.36-.78l101.88-84.5a1,1,0,0,1,.64-.23,1,1,0,0,1,.42.1,1,1,0,0,1,.58.9V194.39a1,1,0,0,1-1,1Z"/><path class="cls-2" d="M131.55,43.12V194.39l-49-3.15-52.5-24.38-.39-39.24,101.89-84.5m0-2a2,2,0,0,0-1.28.47L28.39,126.08a2,2,0,0,0-.73,1.56l.39,39.24a2,2,0,0,0,1.16,1.8l52.5,24.38a2.18,2.18,0,0,0,.71.18l49,3.14h.13a2,2,0,0,0,2-2V43.12a2,2,0,0,0-1.15-1.81,2.1,2.1,0,0,0-.85-.19Z"/><path class="cls-1" d="M174.35,118.76a1,1,0,0,1-.63-.23,1,1,0,0,1-.37-.77v-5.1l.9-28.24a1,1,0,0,1,.84-1l11.87-2h.16a1,1,0,0,1,1,1l-.64,32.76a1,1,0,0,1-.79,1l-12.13,2.55Z"/><path class="cls-2" d="M187.12,82.45h0m0,0-.64,32.76-12.13,2.55v-5.1l.9-28.2,11.87-2m0-2h-.05a1.73,1.73,0,0,0-.32,0l-11.83,2a2,2,0,0,0-1.67,1.91l-.9,28.2v5.17a2,2,0,0,0,.74,1.55,2,2,0,0,0,1.26.45,1.92,1.92,0,0,0,.41-.05l12.13-2.54a2,2,0,0,0,1.59-1.92l.64-32.66v-.14a2,2,0,0,0-2-2Zm0,4h0Z"/><path class="cls-4" d="M172.2,115.66a1,1,0,0,1-1-1l1.89-35.11a1,1,0,0,1,.93-1l7.69-.52a1,1,0,0,1,.49.14l.91.51a1,1,0,0,1,.5.88l-.45,32.79a1,1,0,0,1-.77,1l-10,2.32A.91.91,0,0,1,172.2,115.66Z"/><path class="cls-2" d="M181.71,79l.9.52-.45,32.79-10,2.32,1.89-35.11,7.62-.52m0-2h-.14l-7.61.52a2,2,0,0,0-1.87,1.88l-1.89,35.11a2,2,0,0,0,2,2.11,2.3,2.3,0,0,0,.45,0l10-2.33a2,2,0,0,0,1.55-1.92l.45-32.78a2,2,0,0,0-1-1.77l-.9-.51a1.94,1.94,0,0,0-1-.27Z"/><path class="cls-1" d="M162.86,113.66a1,1,0,0,1-.64-.24,1,1,0,0,1-.36-.78l.84-35.5a1,1,0,0,1,.78-1L169,75l7.17-1.55.21,0a1.07,1.07,0,0,1,.52.14l1.29.77a1,1,0,0,1,.48.86v34.6a1,1,0,0,1-.81,1l-14.78,2.9Z"/><path class="cls-2" d="M176.35,74.39l1.29.77v34.59l-14.78,2.91.84-35.5,5.49-1.22,7.16-1.55m0-2a2,2,0,0,0-.42,0L168.76,74l-5.5,1.23a2,2,0,0,0-1.56,1.91l-.84,35.49a2,2,0,0,0,.71,1.58,2,2,0,0,0,1.29.47,1.72,1.72,0,0,0,.39,0l14.78-2.9a2,2,0,0,0,1.61-2V75.16a2,2,0,0,0-1-1.71l-1.29-.78a2,2,0,0,0-1-.28Z"/><path class="cls-4" d="M161.84,109.2a1,1,0,0,1-.66-.25,1,1,0,0,1-.34-.77l.64-37.47a1,1,0,0,1,.81-1l7.86-1.58.2,0a1.06,1.06,0,0,1,.65.24L172.85,70a1,1,0,0,1,.35.77v35.8a1,1,0,0,1-.84,1L162,109.19Z"/><path class="cls-2" d="M170.35,69.15l1.85,1.58v35.8l-10.36,1.67.64-37.47,7.87-1.58m0-2a2.58,2.58,0,0,0-.39,0l-7.87,1.57a2,2,0,0,0-1.61,1.93l-.64,37.47a2,2,0,0,0,.69,1.55,2,2,0,0,0,1.31.49,1.63,1.63,0,0,0,.31,0l10.37-1.66a2,2,0,0,0,1.68-2V70.73a2,2,0,0,0-.71-1.53l-1.85-1.57a2,2,0,0,0-1.29-.48Z"/><path class="cls-4" d="M173.79,187.33a1,1,0,0,1-1-1l-1.09-49.28a1,1,0,0,1,.94-1l7.48-.46a1,1,0,0,1,.69.28,1,1,0,0,1,.31.74l-.9,50a1,1,0,0,1-.32.71,1,1,0,0,1-.68.28Z"/><path class="cls-2" d="M180.16,136.6l-.91,50-5.42-.24-1.09-49.29,7.42-.45m0-2H180l-7.43.45a2,2,0,0,0-1.87,2l1.09,49.28a2,2,0,0,0,1.92,2l5.42.24h.08a2,2,0,0,0,1.37-.55,2,2,0,0,0,.63-1.42l.91-50a2,2,0,0,0-2-2Zm0,4Z"/><path class="cls-1" d="M168.35,187.34a1,1,0,0,1-1-1l-2.52-50.5a1,1,0,0,1,.9-1l9.23-.9h.1a1,1,0,0,1,.68.27,1,1,0,0,1,.32.76l-1.23,51.41a1,1,0,0,1-1,1Z"/><path class="cls-2" d="M175.06,134.92l-1.23,51.42h-5.48l-2.52-50.51,9.23-.91m0-2h-.2l-9.22.91a2,2,0,0,0-1.81,2.09l2.52,50.51a2,2,0,0,0,2,1.9h5.48a2,2,0,0,0,2-2L177.06,135a2,2,0,0,0-.64-1.51,2,2,0,0,0-1.36-.54Zm0,4Z"/><path class="cls-4" d="M157.55,187.34a1,1,0,0,1-1-1l.69-52.54a1,1,0,0,1,.85-1l11.74-1.73H170a1,1,0,0,1,.66.25,1,1,0,0,1,.34.77l-1.11,54.27a1,1,0,0,1-1,1Z"/><path class="cls-2" d="M170,132.07l-1.11,54.27H157.55l.69-52.54L170,132.07m0-2-.29,0-11.75,1.73a2,2,0,0,0-1.7,2l-.69,52.54a2.06,2.06,0,0,0,.58,1.43,2,2,0,0,0,1.42.6h11.32a2,2,0,0,0,2-2L172,132.11a2,2,0,0,0-.68-1.54,2,2,0,0,0-1.32-.5Zm0,4Z"/><path class="cls-1" d="M152.67,187.58a1,1,0,0,1-.7-.3,1,1,0,0,1-.3-.73l2.61-100.07,1.28-20a1,1,0,0,1,.68-.89l8.83-3a1.13,1.13,0,0,1,.32,0,1,1,0,0,1,.7.29l.87.87a1,1,0,0,1,.3.71l0,38.6a1,1,0,0,1-1,1h-1.3l0,26.63a1,1,0,0,1-1,1h-.38l.25,54.6a1,1,0,0,1-1,1Z"/><path class="cls-2" d="M165.39,63.63l.87.87,0,38.6h-2.3l0,27.63h-1.38l.25,55.61-10.06.24,2.61-100.07,1.27-19.92,8.84-3m0-2a2,2,0,0,0-.64.1l-8.83,3a2,2,0,0,0-1.36,1.76l-1.28,19.92v.07l-2.61,100.07a2,2,0,0,0,2,2.06h.05l10.06-.23a2,2,0,0,0,1.95-2l-.24-53.7a2,2,0,0,0,1.37-1.9l0-25.63h.31a2,2,0,0,0,2-2l0-38.61a2,2,0,0,0-.59-1.42l-.87-.86a2,2,0,0,0-1.41-.59Z"/><path class="cls-4" d="M144.79,189.51a1,1,0,0,1-.71-.31,1,1,0,0,1-.27-.73l5.52-127.74a1,1,0,0,1,.7-.92c.53-.16,6.09-2.11,8.19-2.84a.92.92,0,0,1,.33-.06,1,1,0,0,1,.8.41l.87,1.17a1,1,0,0,1,.19.6V99.68a1,1,0,0,1-1,1h-.12l.05,27.75a1,1,0,0,1-.29.71,1,1,0,0,1-.71.29h-1L157,160l-.1,28.74a1,1,0,0,1-.3.71,1,1,0,0,1-.7.29Z"/><path class="cls-2" d="M158.55,57.91l.86,1.18V99.68h-1.12l.05,28.75h-2L156,160l-.1,28.75-11.13-.23,5.51-127.74c.67-.2,8.23-2.86,8.23-2.86m0-2a2.19,2.19,0,0,0-.67.11c-2.9,1-7.69,2.7-8.14,2.84a2,2,0,0,0-1.41,1.82l-5.52,127.75a2,2,0,0,0,2,2.08l11.13.22h0a2,2,0,0,0,2-2L158,160l.29-29.56h0a2,2,0,0,0,2-2l-.05-26.95a2,2,0,0,0,1.12-1.8V59.09A2,2,0,0,0,161,57.9l-.87-1.18a2,2,0,0,0-1.6-.81Z"/><path class="cls-1" d="M135.8,192.24a1,1,0,0,1-1-1L133.55,56a1,1,0,0,1,.82-1l4.06-.74L152,49.35a1,1,0,0,1,.34-.06,1,1,0,0,1,1,1l-.26,44.78a1,1,0,0,1-.36.76,1,1,0,0,1-.64.24H152l.2,29.8a1,1,0,0,1-.29.71,1,1,0,0,1-.71.3h-.18l-.19,32.55a1,1,0,0,1-1,1l-.52,30.84a1,1,0,0,1-1,1Z"/><path class="cls-2" d="M152.36,50.29l-.26,44.78L151,94.89l.21,31h-1.17l-.21,33.55h-1l-.53,31.81H135.8L134.55,56l4.14-.75,13.67-5m0-2a2,2,0,0,0-.68.12l-13.51,4.92-4,.72a2,2,0,0,0-1.64,2l1.25,135.22a2,2,0,0,0,2,2h12.56a2,2,0,0,0,2-2l.51-30.12a2,2,0,0,0,1-1.72l.2-31.74a2.06,2.06,0,0,0,.6-.41,2,2,0,0,0,.58-1.43l-.19-29a2.54,2.54,0,0,0,.34-.23,2.05,2.05,0,0,0,.71-1.52l.26-44.78a2,2,0,0,0-2-2Zm0,4h0Z"/><line class="cls-6" x1="53.4" y1="149.14" x2="47.77" y2="151.07"/><line class="cls-7" x1="122.98" y1="94.64" x2="131.55" y2="90.1"/><polyline class="cls-7" points="92.05 111.05 115.83 98.44 115.83 71.4 122.98 64.46 122.98 84.41"/><polyline class="cls-7" points="74.71 120.25 85.77 114.38 85.77 91.1 92.05 86.23 92.05 102.36"/><polyline class="cls-7" points="59 128.58 69.07 123.24 69.07 103.59 73.47 99.79 73.47 112.15"/><polyline class="cls-7" points="48.68 134.05 54.53 130.95 54.53 114.04 56.9 112.32"/><polyline class="cls-7" points="41.22 137.74 44.43 136.04 44.43 121.86 46.75 120.28"/><polyline class="cls-7" points="33.87 141.91 36.63 140.44 36.39 127.35 38.13 126.08"/><line class="cls-7" x1="133.79" y1="121.48" x2="110.26" y2="129.78"/><polyline class="cls-7" points="73.18 135.17 73.18 125.63 69.56 127.52 69.56 144.53 60.72 147.56 60.72 155.16"/><polyline class="cls-7" points="55.92 134.3 52.73 135.98 52.73 151.3 45.58 153.75"/><polyline class="cls-7" points="38.81 156.53 38.81 142.76 41.29 141.43"/><polyline class="cls-7" points="89.9 167.31 99.95 167.31 99.95 133.55 103.75 132.06 103.75 110.5 109.5 107.52 109.5 119.98"/><line class="cls-7" x1="116.49" y1="127.68" x2="116.49" y2="193.42"/><polyline class="cls-7" points="93.28 125.21 93.28 114.31 88.15 116.81 88.15 136.56 79.97 139.53 79.97 169.01 77 169.01"/><path class="cls-4" d="M78.71,186.11l-59.9-5.67a1,1,0,0,1-.91-1v-36.7a1,1,0,0,1,.38-.78,1,1,0,0,1,.62-.22l.23,0,60.08,13.77a1,1,0,0,1,.77,1l-.17,28.61a1,1,0,0,1-1,1Z"/><path class="cls-2" d="M18.9,142.74,79,156.5l-.17,28.61L18.9,179.44v-36.7m0-2a2,2,0,0,0-2,2v36.7a2,2,0,0,0,1.81,2l59.91,5.66h.19a2,2,0,0,0,1.34-.51,2.06,2.06,0,0,0,.66-1.48l.17-28.6a2,2,0,0,0-1.55-2L19.35,140.79a2.3,2.3,0,0,0-.45,0Z"/><path class="cls-1" d="M18.82,180.44,1.92,179.1a1,1,0,0,1-.92-1V154.87a1,1,0,0,1,.42-.81l16.9-12.13a1,1,0,0,1,.58-.19,1,1,0,0,1,.46.11,1,1,0,0,1,.54.89v36.7a1,1,0,0,1-.32.74,1,1,0,0,1-.68.26Z"/><path class="cls-2" d="M18.9,142.74v36.7L2,178.11V154.87l16.9-12.13m0-2a2,2,0,0,0-1.16.37L.83,153.25A2,2,0,0,0,0,154.87v23.24a2,2,0,0,0,1.84,2l16.9,1.34h.16a2,2,0,0,0,1.36-.53,2,2,0,0,0,.64-1.47v-36.7A2,2,0,0,0,19.81,141a1.94,1.94,0,0,0-.91-.22Z"/><path class="cls-1" d="M78.89,196.4l-27.35-3.06a1,1,0,0,1-.89-1V173.76a1,1,0,0,1,.3-.71,1,1,0,0,1,.7-.29h0c.12,0,12.52.2,20.52.2,4.5,0,5.92-.06,6.36-.1a.9.9,0,0,1,.42-.1A1,1,0,0,1,80,174a1,1,0,0,1-.17.37c-.24,1.62-.09,11.88.19,21a1,1,0,0,1-.33.77,1,1,0,0,1-.67.26Z"/><path class="cls-2" d="M79,173.76h0s0,0-.07.06,0-.06.06-.06m-27.32,0s12.44.2,20.54.2c3.52,0,6.22,0,6.72-.14-.53,1.23.09,21.58.09,21.58l-27.35-3.05V173.76m27.32-2h0a2,2,0,0,0-.7.12c-.5,0-2,.08-6.08.08-8,0-20.38-.19-20.51-.2h0a2,2,0,0,0-2,2v18.59a2,2,0,0,0,1.78,2l27.34,3.06H79a2,2,0,0,0,1.35-.53,2,2,0,0,0,.64-1.53c-.26-8.77-.4-18.54-.2-20.68a2.11,2.11,0,0,0,.17-.5,2,2,0,0,0-.87-2.06,2,2,0,0,0-1.12-.34Z"/><path class="cls-4" d="M79,196.4a1,1,0,0,1-1-1l0-21.65a1,1,0,0,1,.3-.7,1,1,0,0,1,.7-.3h24.91a1,1,0,0,1,1,1v19a1,1,0,0,1-.89,1L79.1,196.4Z"/><path class="cls-2" d="M103.89,173.76v19L79,195.4l0-21.64h24.91m0-2H79a2,2,0,0,0-2,2l0,21.64a2,2,0,0,0,2,2h.21l24.89-2.62a2,2,0,0,0,1.79-2v-19a2,2,0,0,0-2-2Z"/><path class="cls-4" d="M131.55,195.39a1,1,0,0,1-1-1V43.12a1,1,0,0,1,.49-.86,1,1,0,0,1,.51-.14,1,1,0,0,1,.48.13l7.15,4a1,1,0,0,1,.51.88l-.32,44.34a1,1,0,0,1-.38.78,1,1,0,0,1-.62.21,1,1,0,0,1-.24,0l-.3-.07-.06,30.59-1,71.48a1,1,0,0,1-1,1Z"/><path class="cls-2" d="M131.55,43.12l7.14,4-.32,44.34-1.54-.38-.06,31.87-1,71.47h-4.25V43.12m0-2a2.09,2.09,0,0,0-1,.28,2,2,0,0,0-1,1.72V194.39a2,2,0,0,0,2,2h4.25a2,2,0,0,0,2-2l1-71.47.06-29.57a2,2,0,0,0,1.54-1.93l.32-44.34a2,2,0,0,0-1-1.77l-7.15-4a2,2,0,0,0-1-.26Z"/></g></g></svg>