<svg xmlns="http://www.w3.org/2000/svg" viewBox="0 0 231.22 86.11"><defs><style>.cls-1{fill:#0f81c2;}.cls-2{fill:#010101;}.cls-3,.cls-4{fill:#8683bf;}.cls-4,.cls-5{stroke:#010101;stroke-linecap:round;stroke-linejoin:round;stroke-width:2px;}.cls-5{fill:none;}.cls-6{fill:#006d52;}.cls-7{fill:#08ad84;}.cls-8{fill:#eda520;}</style></defs><title>Q_08</title><g id="Layer_2" data-name="Layer 2"><g id="Landmark"><path class="cls-1" d="M45.43,77.61l-.19,0L10.88,71.16a1.13,1.13,0,0,1-.36-.14l-6.14-4A1,1,0,0,1,4,66.49L1,55.82a1,1,0,0,1,.18-.88A1,1,0,0,1,2,54.55l40.53.72c.49-2.62,2.21-9.66,6.72-10.09.24,0,.32-.11.37-.19a3.87,3.87,0,0,0,.05-2.44,1,1,0,0,1,.13-.8,1,1,0,0,1,.68-.44c.67-.1,66.36-10.15,82.22-13.75,13.36-3,20.65-5.92,22.6-6.74l.18-3.19a1,1,0,0,1,.76-.92c1-.25,25.28-6.15,28.19-6.73a5.51,5.51,0,0,1,1.1-.12,2.83,2.83,0,0,1,2.18.84,2.33,2.33,0,0,1,.46.71l8.26-1.53.18,0a1.26,1.26,0,0,1,.33.05l30.7,10.63a1,1,0,0,1,.65.72,1,1,0,0,1-.27.93l-6.14,6.14a.86.86,0,0,1-.29.21L176.41,48.86a1,1,0,0,1-.16.06L79.46,74.36l-.16,0L45.52,77.6Z"/><path class="cls-2" d="M185.53,10.86a1.65,1.65,0,0,1,1.87,1.71l9.21-1.71,30.71,10.63-6.14,6.14L176,48,79.2,73.39,45.43,76.61,11.07,70.18l-6.15-4L2,55.55l41.38.74s1.37-9.68,6-10.12c2.25-.21,1.29-3.87,1.29-3.87s66.2-10.11,82.28-13.77,23.35-7,23.35-7l.21-3.81S181.7,11.54,184.62,11a4.66,4.66,0,0,1,.91-.1m0-2a6.87,6.87,0,0,0-1.3.14C181.3,9.58,157,15.49,156,15.74a2,2,0,0,0-1.53,1.83l-.14,2.56a145.67,145.67,0,0,1-21.86,6.45C116.65,30.18,51,40.22,50.33,40.32a2,2,0,0,0-1.63,2.49,4.44,4.44,0,0,1,.13,1.41c-4.49.71-6.41,6.87-7.11,10L2,53.55H2a2,2,0,0,0-1.58.78,2,2,0,0,0-.35,1.75L3,66.76a2,2,0,0,0,.84,1.15l6.14,4a2,2,0,0,0,.72.28l34.36,6.43a1.5,1.5,0,0,0,.37,0h.19l33.77-3.22.32,0L176.5,49.89l.32-.11L222,29.45a2,2,0,0,0,.59-.41l6.14-6.14a2,2,0,0,0-.76-3.3L197.27,9a2.08,2.08,0,0,0-1-.08l-7.58,1.41c-.07-.1-.15-.19-.23-.29a3.87,3.87,0,0,0-2.91-1.15Z"/><path class="cls-1" d="M175.36,24.08a1,1,0,0,1-.76-.35,1,1,0,0,1-.23-.81L177.15,5.5a1,1,0,0,1,1-.84h2.77a1,1,0,0,1,.76.35,1,1,0,0,1,.23.8l-2.6,17.41a1,1,0,0,1-1,.86Z"/><path class="cls-2" d="M180.91,5.66l-2.6,17.42h-2.95l2.78-17.42h2.77m0-2h-2.77a2,2,0,0,0-2,1.68l-2.78,17.42a2,2,0,0,0,2,2.32h2.95a2,2,0,0,0,2-1.71L182.89,6a2,2,0,0,0-2-2.29Zm0,4h0Z"/><path class="cls-3" d="M134.13,56.55a1,1,0,0,1-.55-.16L103.64,36.73a1,1,0,0,1,.35-1.82c1.62-.33,3.9-.7,6.77-1.18,11.38-1.91,30.43-5.08,46.65-11.33a.92.92,0,0,1,.36-.07,1,1,0,0,1,.5.14l24.88,14.32a1,1,0,0,1,.49.74,1,1,0,0,1-.3.85c-7.23,6.94-26,13.9-49,18.16Z"/><path class="cls-2" d="M157.77,23.33l24.88,14.32c-7.29,7-26.31,13.79-48.52,17.9L104.19,35.89c8-1.61,33.14-4.69,53.58-12.56m0-2a2.23,2.23,0,0,0-.72.13c-16.13,6.22-35.11,9.39-46.46,11.28-2.88.48-5.16.86-6.8,1.19a2,2,0,0,0-.7,3.64L133,57.23a2,2,0,0,0,1.1.32l.36,0c23.2-4.29,42.18-11.35,49.55-18.42a2,2,0,0,0-.39-3.18L158.77,21.6a2,2,0,0,0-1-.27Z"/><path class="cls-3" d="M189.45,40a1,1,0,0,1-.5-.13l-29.79-17a1,1,0,0,1-.49-1,1,1,0,0,1,.8-.82l35.34-6.63.18,0a.88.88,0,0,1,.33.06l29,10.24a1,1,0,0,1,0,1.87L189.81,40A1.13,1.13,0,0,1,189.45,40Z"/><path class="cls-2" d="M195,15.35l29,10.24L189.45,39l-29.8-17L195,15.35m0-2a1.61,1.61,0,0,0-.37,0L159.28,20a2,2,0,0,0-1.6,1.63,2,2,0,0,0,1,2.07l29.8,17a1.9,1.9,0,0,0,1,.26,2,2,0,0,0,.72-.13l34.52-13.43a2,2,0,0,0-.06-3.75l-29-10.24a1.93,1.93,0,0,0-.67-.12Z"/><line class="cls-4" x1="216.08" y1="28.64" x2="187.7" y2="16.72"/><line class="cls-4" x1="207.09" y1="32.14" x2="178.72" y2="18.4"/><line class="cls-5" x1="196.39" y1="36.33" x2="169.11" y2="20.21"/><path class="cls-1" d="M202.28,33.88a1,1,0,0,1-.76-.35,1,1,0,0,1-.23-.81l2.78-17.41a1,1,0,0,1,1-.85h2.77a1,1,0,0,1,.76.35,1,1,0,0,1,.23.8L206.22,33a1,1,0,0,1-1,.85Z"/><path class="cls-2" d="M207.84,15.46l-2.61,17.42h-2.95l2.78-17.42h2.78m0-2h-2.78a2,2,0,0,0-2,1.69L200.3,32.57a2,2,0,0,0,2,2.31h2.95a2,2,0,0,0,2-1.7l2.6-17.42a2,2,0,0,0-.46-1.6,2,2,0,0,0-1.51-.7Zm0,4Z"/><path class="cls-3" d="M59.16,74.1C32.74,74,5,67.27,4.69,67.2A1,1,0,0,1,4,66.49L1,55.82a1,1,0,0,1,.18-.88A1,1,0,0,1,2,54.55l41.4.74a1,1,0,0,1,.71.31L59.9,72.42a1,1,0,0,1,.19,1.08,1,1,0,0,1-.92.6Z"/><path class="cls-2" d="M2,55.55l41.38.74L59.17,73.1C32.56,73,4.92,66.23,4.92,66.23L2,55.55m0-2a2,2,0,0,0-1.58.78,2,2,0,0,0-.35,1.75L3,66.76a2,2,0,0,0,1.45,1.41c.28.07,28.17,6.78,54.71,6.93h0a2,2,0,0,0,1.46-3.37L44.84,54.92a2,2,0,0,0-1.43-.63L2,53.55Z"/><path class="cls-6" d="M120.39,57c-1.76,0-4-1-4.65-2.89-.36-1-1-1.49-2.5-1.84a3.74,3.74,0,0,1-2.58-2.38,5.26,5.26,0,0,0-.56-1,2.27,2.27,0,0,0-1.14-.33,4.78,4.78,0,0,1-3.39-1.71,2.66,2.66,0,0,1-.55-3.11,3.7,3.7,0,0,0,.34-1.62,12,12,0,0,0-.5-3.48c-.11-.42-.21-.81-.28-1.23a1,1,0,0,1,.66-1.12l11.62-3.87a1.11,1.11,0,0,1,.25,0l42.54-2.93,8.87-2.36a62.09,62.09,0,0,1,15.63-2.34,18.89,18.89,0,0,1,2.59.13l.14,0c5.44,1.59,14.61,4.69,15,7.62.38,3.32-5.68,4.7-10.55,5.8l-1.24.29c-4,1-10.62,2.71-12.83,3.48a52.42,52.42,0,0,1-11.93,2.42,12.19,12.19,0,0,0-3,.24s0,.06,0,.18c-.31,1.71-2.72,2.21-8,2.67-.69.06-1.28.1-1.75.1a2.71,2.71,0,0,1-.41.53,3.36,3.36,0,0,0-.64,1c-.36.78-.73,1.33-2.43,2-2.48,1-17.58,4.6-20.46,4.7l-1.47,0a24.71,24.71,0,0,1-3-.17c-.24,0-.46-.05-.69-.06h0a1.45,1.45,0,0,0-.77.4A3.59,3.59,0,0,1,120.39,57Z"/><path class="cls-2" d="M184.15,25.75a19.14,19.14,0,0,1,2.45.12s13.93,4.07,14.24,6.77-7.22,4.11-11,5-10.62,2.7-12.92,3.51a52,52,0,0,1-11.62,2.36c-3.21,0-3.81.14-4,1.24s-3.11,1.5-7.11,1.85c-.91.08-1.49.1-1.85.1s-.51,0-.56,0,.3.12-.4.87c-1.3,1.39-.4,1.81-2.7,2.69s-17.33,4.53-20.14,4.63l-1.42,0a32.06,32.06,0,0,1-3.59-.23h-.12c-1.12,0-1.63,1.31-3,1.31a4,4,0,0,1-3.71-2.22c-.5-1.42-1.5-2.09-3.21-2.49s-1.7-1.9-2.6-3-3.11-.2-4.51-2,0-1.69,0-4.12a19.53,19.53,0,0,0-.8-4.88l11.62-3.87,42.64-2.94-.24.07.28-.07h0l9-2.38a61.2,61.2,0,0,1,15.38-2.31m0-2v0a62.65,62.65,0,0,0-15.89,2.38c-5.69,1.5-7.95,2.1-8.77,2.33L117,31.38a2,2,0,0,0-.49.1l-11.62,3.87a2,2,0,0,0-1.34,2.25c.08.46.2.89.31,1.31a11.64,11.64,0,0,1,.46,3.22,2.76,2.76,0,0,1-.26,1.24,3.63,3.63,0,0,0,.68,4.11,5.72,5.72,0,0,0,4,2.07c.2,0,.45.07.6.11a4.77,4.77,0,0,1,.35.65A4.73,4.73,0,0,0,113,53.22c1.37.32,1.59.69,1.77,1.2.83,2.34,3.44,3.56,5.6,3.56a4.58,4.58,0,0,0,2.84-1.1l.27-.19.5.05a26.47,26.47,0,0,0,3.08.17l1.49,0c3.2-.12,18.43-3.87,20.79-4.76a4.49,4.49,0,0,0,3-2.49,2.18,2.18,0,0,1,.46-.71l.2-.22,1.32-.09c4.88-.43,8-.86,8.78-3,.59-.05,1.6-.07,2.2-.08A53.09,53.09,0,0,0,177.54,43c2.11-.73,8.76-2.51,12.73-3.44l1.24-.29c5.25-1.2,11.79-2.69,11.31-6.9-.11-1-.46-4-15.66-8.46a1.31,1.31,0,0,0-.27-.06,19.86,19.86,0,0,0-2.74-.14Z"/><path class="cls-7" d="M128.33,51.25A2.61,2.61,0,0,1,126,49.6l-.3-.56a8.31,8.31,0,0,1-3.25.53c-2.24,0-6.17-.25-7.35-1.93a1.86,1.86,0,0,1-.24-1.72v0l-.86-.24c-.55-.14-1.24-.32-2.12-.59-2.83-.86-3.33-1.6-3.85-3.2a10.94,10.94,0,0,0-.54-1.38c-.14-.29-.25-.52-.33-.7h-.08a5.92,5.92,0,0,1-1.61-.26,2.52,2.52,0,0,1-1.82-1.63,3.28,3.28,0,0,1,.77-3,7.5,7.5,0,0,1,1.09-1c-2.7-.8-2.78-2.37-2.88-4.36v-.13a4.1,4.1,0,0,1,4-4.21h.29a4.29,4.29,0,0,1,3,1.24,3,3,0,0,1,.86,2.14h0a3.7,3.7,0,0,0,.93.13,2.27,2.27,0,0,0,.85-.13,2.17,2.17,0,0,0,.1-.21c.37-.83.87-1.36,2.49-1.72l.14,0c.35-.08.7-.16.91-.23,0-.16,0-.39,0-.61v-.14a2.15,2.15,0,0,1,.61-1.61,2.55,2.55,0,0,1,1.85-.75,2.7,2.7,0,0,1,1.43.4,2,2,0,0,1-.55-2,3.27,3.27,0,0,1,3.17-2.2,3.81,3.81,0,0,1,2.69,1.16c1.53,1.48,1.8,2.28,1.76,3.24a.45.45,0,0,0,.14.43,1,1,0,0,0,.68.45c.28,0,.56-.28.77-.73a2.91,2.91,0,0,1,2.55-1.8,2.05,2.05,0,0,1,1.5.63,2.93,2.93,0,0,1,.74,2.25.58.58,0,0,0,.05.29.37.37,0,0,0,.23.05,1.13,1.13,0,0,0,.58-.17,1.88,1.88,0,0,1-.29-2,2.54,2.54,0,0,1,2.3-1.4,2.1,2.1,0,0,1,2,1.33c0,.06.07.16.3.16a1.08,1.08,0,0,0,.47-.12,3.47,3.47,0,0,1-.11-3.1,2.31,2.31,0,0,1,2-1.26h.22a9.2,9.2,0,0,0,1.8-.16,4.38,4.38,0,0,1,.16-1.78,3.13,3.13,0,0,0,.13-1h0a.47.47,0,0,0-.2-.09,1.78,1.78,0,0,1-1.37-2,3.26,3.26,0,0,1,3.05-2.33,3.57,3.57,0,0,1,.46,0,4.43,4.43,0,0,1,3,1.7l.54.53a5.55,5.55,0,0,0,1.14.89,3.89,3.89,0,0,0,0-.49,2.73,2.73,0,0,1,.7-2.12,2.9,2.9,0,0,1,2.13-.89,2.78,2.78,0,0,1,2.78,2.11,12.25,12.25,0,0,1,.27,1.61,6.07,6.07,0,0,0,.14.84h.24c.41,0,.68-.27,1.16-.72a4.6,4.6,0,0,1,3-1.51l.4,0c.55,0,1.06-.08,1.52-.08a2.83,2.83,0,0,1,3.23,2.64c.08.75,1.05,1.23,1.68,1.23h.11A1.81,1.81,0,0,1,169.21,16a3.74,3.74,0,0,1,3.24,2.22c.28.7.81,1.22,1.25,1.22a.73.73,0,0,0,.54-.28c1-1.06,2.29-2.19,3.69-2.19a2.76,2.76,0,0,1,2.3,1.36c.39.57.75.92,1,.92a3.3,3.3,0,0,0,1.23-.67,5.47,5.47,0,0,1,3.09-1,4.32,4.32,0,0,1,2.73,1A3.82,3.82,0,0,0,189,19a14.09,14.09,0,0,1,2.52,1.46A10.39,10.39,0,0,0,194.89,22a7.05,7.05,0,0,1,3,1.46,5.78,5.78,0,0,0,1.75,1.08,7.25,7.25,0,0,1,2.41,1.57,13.16,13.16,0,0,0,1.19.93c.75.52,1.45,1,1.45,1.92s-.78,1.62-2.11,2.54a6.06,6.06,0,0,1-3.8,1.28,2.8,2.8,0,0,0-2.18.86c-1.62,1.42-2.12,1.63-3.1,1.63a4.31,4.31,0,0,0-1.33.19,4.52,4.52,0,0,1-1.1.15,3,3,0,0,1-2.15-.92c-.29-.25-.36-.3-.46-.3l-.58.07c-.76.08-.76.08-1.93,1.17a3.13,3.13,0,0,1-2.41,1c-.46,0-.8,0-1.59.8a3,3,0,0,1-2,1.11h0a2.16,2.16,0,0,1-1.41-.63,2.52,2.52,0,0,0-1.61-.69l-.79,0c-1.08,0-1.48.24-2.78,1-.55.33-1.22.75-2.11,1.24a15.25,15.25,0,0,1-7.48,2.17,14,14,0,0,1-1.91-.14,13.51,13.51,0,0,1-1.83-.42,5.56,5.56,0,0,0-1.51-.31,3.17,3.17,0,0,0-2.18,1.12c-.68.63-.64.84-.63.91a1.35,1.35,0,0,1-.17,1.08c-.4.58-1,.73-3.93,1.25-1.52.27-2.76.47-3.78.63-2.9.45-3.76.61-4.48,1.27-1.61,1.49-2.78,1.56-5.91,1.57a6.31,6.31,0,0,1-2.92-.66,1.61,1.61,0,0,0-.5-.19c-.09,0-.37.06-1.09.63-.38.3-.74.6-1.08.89C130.62,50.31,129.52,51.25,128.33,51.25Zm-7.84-27.31a2.15,2.15,0,0,1,.29.32.45.45,0,0,0-.24-.29Z"/><path class="cls-2" d="M152.8,12.23a1.78,1.78,0,0,1,1.81,1.35c.47,1.93,0,3.21,1.5,3.21h.19c1.68-.11,2-2.07,4.19-2.23.67-.05,1.29-.11,1.84-.11,1.25,0,2.09.31,2.24,1.75a2.69,2.69,0,0,0,2.67,2.12c.55,0,1-.21,1.06-.66a.81.81,0,0,1,.91-.69,2.73,2.73,0,0,1,2.31,1.6,2.65,2.65,0,0,0,2.18,1.84,1.75,1.75,0,0,0,1.25-.57c.84-.85,1.93-1.9,3-1.9a1.77,1.77,0,0,1,1.47.93c.68,1,1.25,1.34,1.8,1.34a3.53,3.53,0,0,0,1.81-.84,4.48,4.48,0,0,1,2.51-.85,3.35,3.35,0,0,1,2.11.75c1.51,1.21.16,0,3.35,2.06s4.29,1.21,6.31,2.87,2.11.81,4.13,2.62,3.68,1.71.63,3.83-3.65.1-6.07,2.21-1.71,1-4,1.6a3.08,3.08,0,0,1-.84.12c-1.38,0-1.53-1.22-2.61-1.22l-.2,0c-1.48.19-1.38,0-3,1.5s-2-.21-4,1.81c-.6.6-1,.81-1.28.81-.72,0-1-1.18-2.94-1.32l-.87,0c-1.9,0-2.27.68-5.38,2.41a14.08,14.08,0,0,1-7,2,12.94,12.94,0,0,1-1.77-.13,33.59,33.59,0,0,0-3.48-.74,4.18,4.18,0,0,0-2.86,1.39c-2.61,2.41,1.61,2-4.23,3s-7.45.94-8.75,2.14-2.12,1.3-5.24,1.31h0c-2.07,0-2.59-.85-3.41-.85a2.91,2.91,0,0,0-1.71.85c-1.64,1.29-3,2.69-4,2.69-.52,0-1-.32-1.41-1.12-.51-1-.66-1.27-.89-1.27a8.15,8.15,0,0,1-3.54.71c-4.23,0-7.15-.91-6.64-2.32s-.1-1.07-3.63-2.14-2.63-1.72-3.78-4.07c-.55-1.12-.56-1.34-.71-1.34a3.05,3.05,0,0,1-.6.08,5.26,5.26,0,0,1-1.34-.22c-1.55-.44-1.47-1.91-.54-3.05s3.1-2,.82-2.56-2.29-1.58-2.4-3.65a3.1,3.1,0,0,1,3-3.15h.21c1.32,0,2.89.95,2.84,2.35,0,.84,1,1.16,1.93,1.16a2.33,2.33,0,0,0,1.6-.45c.49-.66.14-1.2,2.06-1.64s1.86-.38,1.81-2a1.33,1.33,0,0,1,1.46-1.33,1.7,1.7,0,0,1,1.69,1.33c.11.41.3.58.5.58.73,0,1.7-2.18.21-3s-.1-2.65,1.65-2.65a2.84,2.84,0,0,1,2,.88c2.45,2.37.83,2.31,1.8,3.57a1.72,1.72,0,0,0,3.15-.49,1.92,1.92,0,0,1,1.64-1.21c.68,0,1.27.55,1.24,1.86a1.2,1.2,0,0,0,1.28,1.36c1,0,2.2-.86,1.45-1.69s.18-1.85,1.14-1.85a1.13,1.13,0,0,1,1.09.71,1.25,1.25,0,0,0,1.22.78c.93,0,1.9-.73,1.44-1.43-.7-1.09-.54-3,1-3.05s3.32-.05,3-1.25,1.19-3.1-.6-3.7,0-2.37,1.36-2.37a1.24,1.24,0,0,1,.27,0c1.42.27,1.36.38,3,2a3.78,3.78,0,0,0,2.09,1.27c.53,0,.83-.48.74-1.65a1.76,1.76,0,0,1,1.84-1.95m0-2a3.91,3.91,0,0,0-2.86,1.21,3.61,3.61,0,0,0-.78,1.32l-.17-.17a5.36,5.36,0,0,0-3.47-2,3.49,3.49,0,0,0-.65-.06,4.23,4.23,0,0,0-4,3.16,2.72,2.72,0,0,0,1.48,2.86l0,.13a8.5,8.5,0,0,0-.2,1.13l-.81,0H141a3.3,3.3,0,0,0-2.88,1.8,3.93,3.93,0,0,0-.41,1.49,3.16,3.16,0,0,0-1.37-.3,3.66,3.66,0,0,0-2.81,1.33l-.08-.08a3.09,3.09,0,0,0-2.22-.93,3.87,3.87,0,0,0-3.18,1.86,5.73,5.73,0,0,0-2-3.17,4.8,4.8,0,0,0-3.39-1.44,4.27,4.27,0,0,0-4.13,2.94,3,3,0,0,0-.11.84,3.53,3.53,0,0,0-2.38,1,3.16,3.16,0,0,0-.89,2.29l-.11,0-.14,0c-1.83.42-2.59,1.12-3.06,2h-.17a4,4,0,0,0-1.06-2,5.28,5.28,0,0,0-3.7-1.55h-.37a5.09,5.09,0,0,0-4.89,5.26v.13c.09,1.65.18,3.47,2.09,4.62l-.08.09a4.31,4.31,0,0,0-1,3.94,3.49,3.49,0,0,0,2.52,2.29,8,8,0,0,0,1.3.27l.08.17a10.57,10.57,0,0,1,.49,1.25c.63,1.94,1.4,2.9,4.51,3.85.89.27,1.62.46,2.15.6a2.86,2.86,0,0,0,.53,1.6c1.1,1.56,3.85,2.35,8.17,2.35a10.87,10.87,0,0,0,2.77-.32,3.47,3.47,0,0,0,3.07,2c1.56,0,2.85-1.1,4.21-2.25l1.06-.88c.22-.17.38-.28.49-.35l.06,0a7.21,7.21,0,0,0,3.33.76c3.21,0,4.7-.08,6.6-1.84.5-.46,1.29-.6,4-1,1-.16,2.26-.35,3.79-.63,2.85-.5,3.91-.69,4.58-1.67a2.23,2.23,0,0,0,.38-1.53,2.41,2.41,0,0,1,.28-.28c.92-.85,1.34-.86,1.5-.86h0a5.5,5.5,0,0,1,1.24.27,14,14,0,0,0,2,.45,14.56,14.56,0,0,0,2,.15,16.24,16.24,0,0,0,8-2.29c.92-.51,1.6-.93,2.15-1.27,1.31-.8,1.49-.89,2.26-.89l.72,0a1.51,1.51,0,0,1,1,.46,3.14,3.14,0,0,0,2.05.86,3.9,3.9,0,0,0,2.7-1.4c.5-.5.59-.51.9-.51a4.12,4.12,0,0,0,3.08-1.26c.24-.22.77-.72,1-.86l.37,0,.25,0,0,0a4,4,0,0,0,2.81,1.17,5.18,5.18,0,0,0,1.36-.19,3.51,3.51,0,0,1,1.08-.15c1.31,0,2-.36,3.75-1.87a1.83,1.83,0,0,1,1.55-.62,7,7,0,0,0,4.34-1.46c1.33-.92,2.53-1.87,2.54-3.36a3.44,3.44,0,0,0-1.87-2.74,9,9,0,0,1-1.1-.86,8.56,8.56,0,0,0-2.7-1.75,4.67,4.67,0,0,1-1.5-.92A8.12,8.12,0,0,0,195.15,21a9.43,9.43,0,0,1-3.08-1.35,15.79,15.79,0,0,0-2.68-1.54l-.51-.4a5.35,5.35,0,0,0-3.36-1.19,6.47,6.47,0,0,0-3.66,1.21c-.14.1-.36.25-.54.36a2.63,2.63,0,0,1-.26-.35,3.76,3.76,0,0,0-3.13-1.8c-1.84,0-3.33,1.42-4.27,2.36a2,2,0,0,1-.29-.48A4.71,4.71,0,0,0,169.21,15a2.88,2.88,0,0,0-2.43,1.2.54.54,0,0,1-.22-.19c-.14-1.32-.88-3.53-4.23-3.53-.52,0-1,0-1.6.08l-.39,0a5.5,5.5,0,0,0-3.57,1.72,10.81,10.81,0,0,0-.22-1.18,3.75,3.75,0,0,0-3.75-2.87Z"/><path class="cls-8" d="M142.9,25.5a1.31,1.31,0,0,0-1.09-.27,1,1,0,0,0-.43.36,3,3,0,0,0-.57,2.56A2.66,2.66,0,0,0,142.64,30a3.92,3.92,0,0,0,1.6,0,2.69,2.69,0,0,0,1.59-.7,3.24,3.24,0,0,0,.64-1.3,4.54,4.54,0,0,0,.31-2.08,1.53,1.53,0,0,0-1.41-1.34"/><path class="cls-8" d="M161.37,34.9a3.06,3.06,0,0,0-1.67.08,2,2,0,0,0-.41,3.41,2,2,0,0,0,2,.18,3.23,3.23,0,0,0,1.4-1.64,2.1,2.1,0,0,0,.26-1.12,2.44,2.44,0,0,0-.89-1.34"/><path class="cls-8" d="M198.31,27.3a10.12,10.12,0,0,1-1,.52,1.54,1.54,0,0,0-.75.78,1.1,1.1,0,0,0,.63,1.29,1.55,1.55,0,0,0,1.49-.23,2.5,2.5,0,0,0,.82-1.32,1.36,1.36,0,0,0-.05-1,1.3,1.3,0,0,0-.37-.37,4.6,4.6,0,0,0-1.1-.57"/><path class="cls-8" d="M115.94,41.36a6.71,6.71,0,0,1,1.52-1.24,2.23,2.23,0,0,1,1.9-.15c.28.12.52.32.79.46a2.08,2.08,0,0,0,1.88,0,2.11,2.11,0,0,0,1.08-1.54,2.17,2.17,0,0,1,.1-.62,1,1,0,0,1,.39-.47,3.45,3.45,0,0,1,2.94-.18,5.25,5.25,0,0,0,3,.29c.77-.26,1.42-.93,2.23-.93s1.35.56,2.06.79a.8.8,0,0,0,.53,0,.88.88,0,0,0,.35-.29l.74-.84a3.58,3.58,0,0,0,1-1.79,2.32,2.32,0,0,0-.87-1.94,4.9,4.9,0,0,0-2-.9,6.29,6.29,0,0,0-5.2.63c.39-.36.84-.65,1.2-1a1.65,1.65,0,0,0,.51-1.43,1.43,1.43,0,0,0-1-1,3.23,3.23,0,0,0-1.42-.09,3.52,3.52,0,0,0-1.9.62c-.48.38-.78.94-1.24,1.35-1.31,1.15-3.64.74-4.68,2.15a2.77,2.77,0,0,1-.54.72,2,2,0,0,1-1.48.19,13.42,13.42,0,0,0-3.35,0,3.45,3.45,0,0,0-1.28.37,1.48,1.48,0,0,0-.77,1,1.89,1.89,0,0,0,.13.81c.6,1.74,2,3.19,2.21,5"/><path class="cls-8" d="M123.65,37.29a4.44,4.44,0,0,1,2.59,3c.21.83.3,1.88,1.08,2.21.62.26,1.58,0,1.82.65.15.38,0,1,.37,1.09a.67.67,0,0,0,.31,0L133.63,43a2.26,2.26,0,0,1,1.2-.12,2.06,2.06,0,0,1,.64.37l2.16,1.58a4.78,4.78,0,0,1-.1-2.09A1.67,1.67,0,0,1,139,41.38c.54,0,1.18.27,1.57-.1a1.19,1.19,0,0,0,.22-1,3.38,3.38,0,0,0,1.41.16A1.15,1.15,0,0,1,142.6,39a2.87,2.87,0,0,1,1.66-.34c2.38.07,4.73.81,7.11.61a18.21,18.21,0,0,0,3.7-.85,1,1,0,0,0,.51-.28c.24-.28.13-.7,0-1-.62-1.63-1.57-3.37-3.24-3.88a5.13,5.13,0,0,0-2.24-.07,13.88,13.88,0,0,0-4.3,1.34,2.94,2.94,0,0,0-1.66-1.59c-1.18-.34-2.38.53-3.09,1.53-.35.49-.71,1.07-1.3,1.16a1.68,1.68,0,0,1-.77-.08c-1.7-.47-3.44-1.63-3.65-3.37a.71.71,0,0,0-.1-.33c-.13-.15-.38-.11-.57-.06l-3.55,1A16.79,16.79,0,0,0,127.66,34a17.2,17.2,0,0,0-4.2,3.56"/><path class="cls-8" d="M150.44,23.31a2.75,2.75,0,0,1,2.23,0c.94.59,1,2.2,2.09,2.5.68.19,1.41-.31,2.11-.16.27.05.51.2.77.27a3,3,0,0,0,1.51-.09,3.4,3.4,0,0,1,1.51-.16,1.13,1.13,0,0,1,1,1c0,.28,0,.7.25.69a.31.31,0,0,0,.16-.06c1.1-.62,2.12-1.61,3.39-1.57a13,13,0,0,1,2.33.63.36.36,0,0,0,.23,0c.15-.07.15-.28.11-.44a3.41,3.41,0,0,0-1.76-2.06,10.6,10.6,0,0,0-2.64-.86,3.17,3.17,0,0,1-1.33-.54,1.12,1.12,0,0,1-.39-1.27,7.65,7.65,0,0,0-2.09.4A1.69,1.69,0,0,1,158,21c-.19-.37-.18-.87-.53-1.1a1,1,0,0,0-.5-.13,7.77,7.77,0,0,0-5.89,2.2"/><path class="cls-8" d="M166.8,33.06l-.16.57a6.58,6.58,0,0,1,2.06-1.17,2.25,2.25,0,0,1,2.22.46,3.49,3.49,0,0,0,.61.66c.66.39,1.44-.2,2.17-.44,2-.65,3.91,1.39,6,1.14.18-.28,0-.66.13-1,.18-.51.88-.55,1.42-.54a9.76,9.76,0,0,0,1.87-.15c.53-.09,1.13-.31,1.28-.83s-.17-1,0-1.45a1.33,1.33,0,0,1,1-.63,23.69,23.69,0,0,1,5.87-.64c.18,0,.4,0,.47-.19a.43.43,0,0,0-.13-.39c-1.11-1.41-2.94-2-4.56-2.76a22,22,0,0,0-3.54-1.61,4,4,0,0,0-3.7.56c-.58.51-.94,1.24-1.54,1.72s-1.53.74-1.94,1.45c-.26.45-.27,1-.58,1.44a1.77,1.77,0,0,1-1.63.58c-.6-.06-1.18-.28-1.78-.38a4.37,4.37,0,0,0-5.09,3.94"/><path class="cls-5" d="M125.82,34.54a2.46,2.46,0,0,1,1.41-1.86,1.57,1.57,0,0,1,2,.82,2,2,0,0,1,3.54-1.45c.3.36.51.85,1,1a2.45,2.45,0,0,0,.85-.07,2.29,2.29,0,0,1,2,1,10.4,10.4,0,0,1,1.08,2,.82.82,0,0,0,.34.43,1.14,1.14,0,0,0,.72-.07,1.68,1.68,0,0,1,1.89.93,2.3,2.3,0,0,0,.27.57,2,2,0,0,0,.5.3,2.17,2.17,0,0,1,1.11,2.13"/><path class="cls-5" d="M140.72,35.38a4.66,4.66,0,0,1,2.41-1.7,2,2,0,0,1,1.57.07.91.91,0,0,1,.24,1.38c.24-.88,1.17-1.35,2-1.68a3.21,3.21,0,0,1,2.51-.23,7,7,0,0,0,1,.54,7,7,0,0,0,1.45,0c1.14.06,1.9,1.17,2.48,2.16"/><path class="cls-5" d="M168.24,31.7A4.3,4.3,0,0,1,170,29.94a1.49,1.49,0,0,1,2,.83,4,4,0,0,1,6.12-.49c.42.42.93,1,1.47.74"/><path class="cls-5" d="M151.62,22.56a3.06,3.06,0,0,1,2.65-2.17c.78-.05,1.72.38,1.77,1.16a4.19,4.19,0,0,1,1.3-1.07,1.42,1.42,0,0,1,1.58.19c.16.17.26.39.43.56.77.8,2.15,0,3.2.37s1.5,1.63,2.53,1.68c.16,0,.36.25.19.24"/><path class="cls-5" d="M176.66,28.32a5.34,5.34,0,0,1,5.71-3.75,6.11,6.11,0,0,0,2.53.23,3,3,0,0,1,1-.24c.6,0,1,.67,1.5,1A7,7,0,0,0,189,26c1.25.38,2.34,1.71,3.58,1.29"/><path class="cls-1" d="M218.3,30.8a1,1,0,0,1-.76-.35,1,1,0,0,1-.23-.81l2.78-17.41a1,1,0,0,1,1-.85h2.78a1,1,0,0,1,.75.35,1,1,0,0,1,.23.8L222.24,30a1,1,0,0,1-1,.85Z"/><path class="cls-2" d="M223.85,12.38l-2.6,17.42H218.3l2.78-17.42h2.77m0-2h-2.77a2,2,0,0,0-2,1.69l-2.78,17.41a2,2,0,0,0,.46,1.62,2,2,0,0,0,1.52.7h2.95a2,2,0,0,0,2-1.71l2.6-17.41a2,2,0,0,0-.46-1.6,2,2,0,0,0-1.52-.7Zm0,4h0Z"/><path class="cls-7" d="M64.58,68.05a11.51,11.51,0,0,1-6.39-1.78c-3-1.93-4.1-2.83-4.72-4.68a4.67,4.67,0,0,0-1.7-2,1,1,0,0,1-.45-.71c0-.07-.2-.86-1.38-1.13-2.59-.58-3.09-2.69-3.49-4.39a9.84,9.84,0,0,1-.08-3.88,3.21,3.21,0,0,0,.06-1h0a.61.61,0,0,0-.24-.13c-1.29-.5-3.75-1.87-3.76-3.48a1.75,1.75,0,0,1,1.27-1.66,6.91,6.91,0,0,1,2.53-.4l1.05,0a4,4,0,0,0,.52,0,13.32,13.32,0,0,1,1.65-2.05.6.6,0,0,1,.08-.08c.32-.27,2-1.62,3.43-1.62l.28,0a5.53,5.53,0,0,1,1.86.82,8.85,8.85,0,0,0,1.22.63c.53-.87,1.69-1.35,3.32-1.35a8.29,8.29,0,0,1,2.8.47,17,17,0,0,0,4.91,1.25,1.33,1.33,0,0,0,.53-.07l.06,0a4,4,0,0,1,.44-2.38c1.06-2.3,4.1-2.48,5-2.48h.25s.27,0,.61,0a3.79,3.79,0,0,0,2.15-.38,2.06,2.06,0,0,1,1.79-1,7.84,7.84,0,0,1,3,1.06,7.62,7.62,0,0,0,2.82.89.84.84,0,0,0,.34-.05,2.8,2.8,0,0,1,2.67-2.18,5.32,5.32,0,0,1,1.73.34,17.78,17.78,0,0,0,5.37.61c.62,0,1.22,0,1.78,0h.13c1.79,0,3.89,1.1,5.74,2.06a21,21,0,0,0,2.35,1.13,6.81,6.81,0,0,1,2.2,1.34,5.84,5.84,0,0,0,2.5,1.34c2.75.82,2.79,2.32,2.6,3.79a4.46,4.46,0,0,0-.07,1,5.82,5.82,0,0,1,0,1.24c-.06.47-.08.69,1.24,2.19A4.72,4.72,0,0,1,114,53.65c-.44,1.86-2.15,3.4-5.1,4.59a78.75,78.75,0,0,1-12.06,3.2c-2.92.64-6.23,1.35-9.82,2.26a37,37,0,0,1-8.48,1.38,15.72,15.72,0,0,0-5.88,1.29A23.33,23.33,0,0,1,64.58,68.05Z"/><path class="cls-2" d="M87.05,35.29a4.25,4.25,0,0,1,1.4.29,19.09,19.09,0,0,0,5.69.66c.64,0,1.25,0,1.82,0h.1c2.33,0,5.63,2.34,7.74,3.13s1.85,1.82,4.76,2.7,1.68,2.26,1.83,3.93-.76,1.51,1.45,4,1.61,5.34-3.35,7.33-12.25,3-21.76,5.42-8,.29-14.46,2.7a22.43,22.43,0,0,1-7.69,1.62,10.63,10.63,0,0,1-5.86-1.62c-3-1.9-3.79-2.62-4.3-4.15a5.67,5.67,0,0,0-2.11-2.56,2.56,2.56,0,0,0-2.15-2c-1.93-.44-2.32-1.9-2.73-3.65-.8-3.37,1-5-.88-5.68s-4.3-2.55-2.48-3.28a5.8,5.8,0,0,1,2.16-.33l1.06,0c.63,0,1.12-.06,1.3-.4a12.25,12.25,0,0,1,1.57-2s1.69-1.39,2.8-1.39h.15c.85.11,2.45,1.5,3.39,1.5a.62.62,0,0,0,.62-.41c.32-.72,1.4-1,2.52-1a7.2,7.2,0,0,1,2.43.4,18.52,18.52,0,0,0,5.28,1.32,2,2,0,0,0,1.06-.23c1.19-.76-.08-.77.88-2.84.81-1.77,3.37-1.9,4.1-1.9h.2s.27,0,.66,0c.92,0,2.52-.11,3-.82a1.05,1.05,0,0,1,1-.56,7.63,7.63,0,0,1,2.68,1,8.19,8.19,0,0,0,3.17,1,1.2,1.2,0,0,0,1.28-.73c.31-.89.75-1.5,1.73-1.5m0-2a3.55,3.55,0,0,0-3.35,2.19,8.41,8.41,0,0,1-2-.71l-.08,0a8.33,8.33,0,0,0-3.47-1.15,3.05,3.05,0,0,0-2.47,1.22,5.08,5.08,0,0,1-1.47.16c-.29,0-.49,0-.52,0h-.34c-1.06,0-4.61.22-5.92,3.06a5.76,5.76,0,0,0-.55,1.88,19.43,19.43,0,0,1-4.12-1.15,9.09,9.09,0,0,0-3.16-.54,5.12,5.12,0,0,0-3.58,1.12L55.61,39a6.06,6.06,0,0,0-2.24-.95,2.73,2.73,0,0,0-.41,0,7.43,7.43,0,0,0-4.07,1.85l-.16.15a15.18,15.18,0,0,0-1.49,1.78h-1a7.88,7.88,0,0,0-2.9.47,2.77,2.77,0,0,0-1.9,2.6c0,2.24,2.83,3.72,4,4.23l0,.2a10.61,10.61,0,0,0,.1,4.25c.41,1.76,1,4.41,4.24,5.14.41.09.56.25.61.35a1.54,1.54,0,0,0,.9,1.35,3.6,3.6,0,0,1,1.29,1.5c.75,2.25,2.14,3.31,5.13,5.21a12.53,12.53,0,0,0,6.93,1.93A24.13,24.13,0,0,0,73,67.3a14.89,14.89,0,0,1,5.57-1.23,37.16,37.16,0,0,0,8.68-1.4c3.57-.9,6.88-1.62,9.79-2.25a80.2,80.2,0,0,0,12.23-3.25c3.26-1.32,5.17-3.1,5.69-5.29a5.71,5.71,0,0,0-1.59-5.23,7.2,7.2,0,0,1-1-1.29s0-.08,0-.12a6.76,6.76,0,0,0,0-1.44,4,4,0,0,1,.06-.8c.16-1.22.49-3.74-3.3-4.88A4.78,4.78,0,0,1,107,39a7.87,7.87,0,0,0-2.5-1.51,21.74,21.74,0,0,1-2.23-1.08c-2-1-4.17-2.18-6.21-2.18h-.17c-.54,0-1.14,0-1.75,0a17,17,0,0,1-5-.55,6.22,6.22,0,0,0-2.06-.4Z"/><path class="cls-8" d="M59.33,50.1c-.46,0-1,.12-1.2.54a1.23,1.23,0,0,0-.09.54,2.69,2.69,0,0,0,.5,1.93,2.1,2.1,0,0,0,1,.55,1.82,1.82,0,0,0,1,.05,1.58,1.58,0,0,0,.87-.74,4.19,4.19,0,0,0,.4-1.09,3,3,0,0,0,.1-1.4,1.08,1.08,0,0,0-1-.86"/><path class="cls-8" d="M78.26,45.61a1.31,1.31,0,0,0-1.09-.27,1.07,1.07,0,0,0-.43.36,2.94,2.94,0,0,0-.56,2.57A2.63,2.63,0,0,0,78,50.12a4.1,4.1,0,0,0,1.6,0,2.77,2.77,0,0,0,1.59-.71,3.11,3.11,0,0,0,.64-1.3A4.41,4.41,0,0,0,82.14,46a1.53,1.53,0,0,0-1.4-1.34"/><path class="cls-8" d="M94.27,43.58a9.75,9.75,0,0,1,1.78-1.2,3.16,3.16,0,0,1,2.09-.27,4.27,4.27,0,0,1,1.8,1.24,2.31,2.31,0,0,1,.78,1.37,2.06,2.06,0,0,1-.84,1.53,4.25,4.25,0,0,1-2,1.08,3.28,3.28,0,0,1-1.8-.24,3.06,3.06,0,0,1-1.82-1.9,2.14,2.14,0,0,1,.85-2.39"/><path class="cls-8" d="M55.79,49.14a2.07,2.07,0,0,0-2.14-.26,2.5,2.5,0,0,0-1.36,1.72,3.37,3.37,0,0,0,.26,2.21A2.65,2.65,0,0,0,53.61,54a3.82,3.82,0,0,0,3.13-.15A2.47,2.47,0,0,0,58,53.13a2,2,0,0,0,.14-1.8,2.25,2.25,0,0,0-.88-1.28"/><path class="cls-8" d="M88.23,50.94a3.06,3.06,0,0,0-1.67.08,2,2,0,1,0,1.57,3.59A3.23,3.23,0,0,0,89.53,53a2.1,2.1,0,0,0,.26-1.12,2.44,2.44,0,0,0-.89-1.34"/><path class="cls-8" d="M72.77,50.62a8.38,8.38,0,0,1-1,.53,1.5,1.5,0,0,0-.75.78,1.1,1.1,0,0,0,.63,1.29A1.5,1.5,0,0,0,73.15,53,2.4,2.4,0,0,0,74,51.67a1.36,1.36,0,0,0,0-1,1.34,1.34,0,0,0-.38-.37,4,4,0,0,0-1.09-.57"/><path class="cls-8" d="M96.73,47.89a3.2,3.2,0,0,0-1.19-.64,1.73,1.73,0,0,0-1.32.14,2,2,0,0,0-.81,1.1,2.11,2.11,0,0,0-.11,1.14,1.82,1.82,0,0,0,1.3,1.31,1.32,1.32,0,0,0,.9,0,1.56,1.56,0,0,0,.66-.77,2.63,2.63,0,0,0,.3-1.4,1.44,1.44,0,0,0-.77-1.15"/><path class="cls-8" d="M68.69,44.55a4.27,4.27,0,0,0-1.48-.35,1.38,1.38,0,0,0-1.55,1.46A2.91,2.91,0,0,0,68,48.3a2.54,2.54,0,0,0,1.52-.06,4,4,0,0,0,1.22-.9,3.31,3.31,0,0,0,.71-.88,1.09,1.09,0,0,0,0-1.08A1.56,1.56,0,0,0,71,45l-1-.68"/><path class="cls-5" d="M57.86,51.94a1.51,1.51,0,0,1,.12-2,3.07,3.07,0,0,1,2-.83c1-.09,2.3.25,2.51,1.26"/><path class="cls-5" d="M71.08,51.69a1.23,1.23,0,1,1,2.29-.88"/><path class="cls-5" d="M77.3,45.3a2.75,2.75,0,0,1,3.66.2"/><path class="cls-5" d="M88.25,47.5A3.07,3.07,0,0,1,90,46.82a1.23,1.23,0,0,0,1.15,1.52c.56,0,1.06-.41,1.62-.36a2.69,2.69,0,0,1,4.79,1.68.8.8,0,0,0,0,.34c.16.31.62.18,1,.13A1.37,1.37,0,0,1,100,51.51"/><path class="cls-5" d="M57.51,49.1c-1.17-1.16-3.09-.85-4.68-.46-1,.25-2.28.69-2.52,1.74a1.47,1.47,0,0,0,.3,1.23"/><path class="cls-5" d="M93.26,46.29a6.77,6.77,0,0,1,1.53-4c1.35-1.3,3.47-1.25,5.33-1.05a1.17,1.17,0,0,1,.58.18c.17.12.26.32.41.46.34.31.87.25,1.27.46s.64.8.89,1.26.74.91,1.23.74"/><path class="cls-1" d="M56.62,85.11c-14.63,0-29.81-6.82-31.5-7.59-5.55-2.57-19-6-19.13-6.08a1,1,0,0,1-.71-.68L4,66.52a1,1,0,0,1,.95-1.29l.23,0a295.61,295.61,0,0,0,53.11,6.82C58.58,69.3,59.86,62,64.43,62c1.08,0,1.19-1.15,1.2-1.5a1,1,0,0,1,.94-1,439.05,439.05,0,0,0,48-5.54c22.29-4.1,61.8-14.24,68.63-16.15V35.08a1,1,0,0,1,.72-.95L207.58,27a1.91,1.91,0,0,1,.47-.06,1.85,1.85,0,0,1,1.63,1l17.25-7.32a1,1,0,0,1,.39-.07,1,1,0,0,1,.78,1.62,13.39,13.39,0,0,0-2.16,4l-.3,1.13c-.4,1.49-.95,3.53-1,3.91,0,.82-.38,1-4.07,2.47-2.08.85-6,2.42-6.49,3-.9,1.33-3.76,4.49-3.88,4.62a.9.9,0,0,1-.27.21c-.21.12-22,11.75-63,24.49-41.55,12.93-75.55,18.48-88.27,19C58,85.1,57.29,85.11,56.62,85.11Z"/><path class="cls-2" d="M227.32,21.49h0m0,0A14.17,14.17,0,0,0,225,25.87c-.59,2.2-1.32,4.83-1.32,5.27s-9.5,3.65-10.38,5-3.8,4.53-3.8,4.53S188,52.19,146.61,65.06s-75.16,18.42-88,19c-.66,0-1.31,0-2,0-12.35,0-25.67-5-31.08-7.5-5.7-2.63-19.3-6.14-19.3-6.14L4.92,66.23A295.65,295.65,0,0,0,59.17,73.1S59.88,63,64.43,63c2.18,0,2.2-2.48,2.2-2.48A435.5,435.5,0,0,0,114.73,55c23.1-4.24,65.07-15.06,69.45-16.38V35.08l23.69-7.16a.72.72,0,0,1,.18,0c.3,0,.88.16,1,1.34l18.28-7.75m0-2h0a2,2,0,0,0-.82.17l-16.52,7a2.78,2.78,0,0,0-1.93-.77,2.56,2.56,0,0,0-.73.1L183.6,33.17a2,2,0,0,0-1.42,1.91v2c-8.5,2.32-46.25,12-67.81,15.92a435.14,435.14,0,0,1-47.85,5.53,2,2,0,0,0-1.89,2,1.32,1.32,0,0,1-.14.5h-.06c-2,0-4.67,1.12-6.25,6.48a26.79,26.79,0,0,0-.78,3.56,296.86,296.86,0,0,1-52-6.77,1.73,1.73,0,0,0-.45,0A2,2,0,0,0,3,66.82l1.32,4.24A2,2,0,0,0,5.74,72.4c.13,0,13.49,3.5,19,6,1.71.78,17.08,7.68,31.92,7.68.69,0,1.39,0,2.06,0,12.76-.58,46.87-6.14,88.52-19.09,41.09-12.78,63-24.45,63.23-24.57A2.15,2.15,0,0,0,211,42c.3-.33,2.89-3.19,3.89-4.64A49.33,49.33,0,0,1,221,34.57c3.7-1.51,4.65-1.89,4.69-3.33.08-.5.6-2.43,1-3.72l.3-1.13a12.07,12.07,0,0,1,1.94-3.61,2,2,0,0,0,.47-1.29,2,2,0,0,0-2-2Zm0,4Z"/><path class="cls-3" d="M144.89,50.77a1.15,1.15,0,0,1-.26,0l-60-15.6a1,1,0,0,1-.29-1.81l3.52-2.28a1,1,0,0,1,.54-.17,1,1,0,0,1,.25,0l58.9,15a1,1,0,0,1,.51,1.62l-2.45,2.84A1,1,0,0,1,144.89,50.77Z"/><path class="cls-2" d="M88.43,31.88l58.9,15.06-2.44,2.83-60-15.6,3.52-2.29m0-2a1.91,1.91,0,0,0-1.08.33l-3.53,2.28a2,2,0,0,0,.59,3.62l60,15.6a2.22,2.22,0,0,0,.51.06,2,2,0,0,0,1.51-.69l2.44-2.84a2,2,0,0,0,.4-1.9A2,2,0,0,0,147.82,45L88.93,30a1.68,1.68,0,0,0-.5-.07Z"/><path class="cls-1" d="M205.68,19.67a1,1,0,0,1-.34-.06L170.62,6.87a1,1,0,0,1,.18-1.93L195.44,1h.15a1,1,0,0,1,.35.06l33.63,12.28a1,1,0,0,1,.65,1,1,1,0,0,1-.81.91l-23.54,4.38Z"/><path class="cls-2" d="M195.59,2l33.63,12.28-23.54,4.39L171,5.93,195.59,2m0-2a1.63,1.63,0,0,0-.31,0L170.65,4a2,2,0,0,0-.38,3.85L205,20.55a2,2,0,0,0,.69.12,1.55,1.55,0,0,0,.37,0l23.54-4.38a2,2,0,0,0,.32-3.85L196.28.12a2,2,0,0,0-.69-.12Z"/><path class="cls-7" d="M151.05,62c-1.93,0-3.87-1.45-3.87-4.7,0-3.76,2.23-4.9,4.18-5.47a4.09,4.09,0,0,1,1.14-.17,3.79,3.79,0,0,1,2.75,1.15,4.4,4.4,0,0,1,1.18,3.34c-.08,2.78-1.21,4.51-3.54,5.47a4.93,4.93,0,0,1-1.84.38Zm1.48-6.14-.12,0c-.54.14-.72.18-.8,1.38a.61.61,0,0,0,.09.42s0,0,.1,0l.12,0c.54-.18.78-.33.78-1.1a1.2,1.2,0,0,0-.16-.74Z"/><path class="cls-2" d="M152.5,52.67c1.55,0,3,1.2,2.93,3.46-.08,2.68-1.19,3.86-2.92,4.57a3.84,3.84,0,0,1-1.46.31c-1.64,0-2.87-1.3-2.87-3.7,0-3.07,1.65-4,3.46-4.51a3.26,3.26,0,0,1,.86-.13m-.71,6a1.29,1.29,0,0,0,.43-.07,1.87,1.87,0,0,0,1.48-2c0-1.12-.46-1.73-1.17-1.73a1.64,1.64,0,0,0-.37.05c-.93.24-1.44.58-1.54,2.29-.06,1,.49,1.51,1.17,1.51m.71-8a4.93,4.93,0,0,0-1.42.21,6.14,6.14,0,0,0-4.9,6.43c0,2.75,1.52,5.7,4.87,5.7a5.74,5.74,0,0,0,2.22-.46c2.7-1.1,4.06-3.19,4.16-6.36A5.51,5.51,0,0,0,156,52.13a4.78,4.78,0,0,0-3.47-1.46Z"/><path class="cls-7" d="M188.46,45.66c-2.46,0-3.65-2.22-3.72-4.29-.05-1.58.86-4.2,3-5a6.5,6.5,0,0,1,2.25-.46,3.4,3.4,0,0,1,2.51,1,4,4,0,0,1,1,3c-.07,2.31-.61,5-4.25,5.72A5.08,5.08,0,0,1,188.46,45.66Z"/><path class="cls-2" d="M190,36.87c1.66,0,2.58,1.16,2.52,3-.06,2.39-.65,4.24-3.42,4.75a3.25,3.25,0,0,1-.67.07c-2.2,0-2.69-2.32-2.72-3.32s.62-3.39,2.4-4.07a5.39,5.39,0,0,1,1.89-.4m-.95,5.62a1.32,1.32,0,0,0,.31-.05c.84-.24.87-.89.94-1.68s-.32-1.59-.73-1.59l-.09,0c-.45.13-1,.47-1.06,2.36,0,.38.07.94.63.94m.95-7.62a7.41,7.41,0,0,0-2.61.53c-2.78,1.07-3.73,4.25-3.68,6,.08,2.53,1.59,5.26,4.72,5.26a5.38,5.38,0,0,0,1-.1c4.89-.91,5-5.24,5.05-6.67a5,5,0,0,0-1.29-3.73A4.4,4.4,0,0,0,190,34.87Z"/><path class="cls-7" d="M208.21,36.59A2.53,2.53,0,0,1,205.6,34c0-2.7,1-4.25,3.19-4.72a3.23,3.23,0,0,1,.61-.06c1.71,0,2.48,1.57,2.48,3.13v.15c0,.84.05,3.38-2.69,4a4.44,4.44,0,0,1-1,.12Z"/><path class="cls-2" d="M209.4,30.17c1.23,0,1.48,1.42,1.48,2.14s.17,2.7-1.92,3.18a3.1,3.1,0,0,1-.75.1A1.54,1.54,0,0,1,206.6,34c0-2.4.82-3.39,2.4-3.73a2,2,0,0,1,.4,0m-.47,3.69h.1c.54-.1.52-2,0-2h0c-.49.07-.76,2-.1,2m.47-5.69a4,4,0,0,0-.83.1c-2.66.58-4,2.49-4,5.7a3.52,3.52,0,0,0,3.61,3.62,5.18,5.18,0,0,0,1.2-.15c1.61-.37,3.52-1.53,3.47-5v-.14c0-2.44-1.43-4.14-3.48-4.14Z"/><path class="cls-5" d="M195.09,42.94c4.11-1.41,8.35-2.86,12.75-4.35"/><path class="cls-5" d="M161.85,54.36c7.22-2.45,14.86-5.1,23-7.91"/><path class="cls-5" d="M85.26,74.28c18.34-2.15,35.95-6.72,56.52-13.27"/><path class="cls-5" d="M78.25,75c1.24-.11,2.49-.22,3.72-.35"/><path class="cls-5" d="M30.58,73.83A245,245,0,0,0,74.5,75.26"/></g></g></svg>