<?xml version="1.0" encoding="utf-8"?>
<!-- Generator: Adobe Illustrator 16.0.0, SVG Export Plug-In . SVG Version: 6.00 Build 0)  -->
<!DOCTYPE svg PUBLIC "-//W3C//DTD SVG 1.1//EN" "http://www.w3.org/Graphics/SVG/1.1/DTD/svg11.dtd">
<svg version="1.1" id="Layer_1" xmlns="http://www.w3.org/2000/svg" xmlns:xlink="http://www.w3.org/1999/xlink" x="0px" y="0px"
	 width="612px" height="792px" viewBox="0 0 612 792" enable-background="new 0 0 612 792" xml:space="preserve">
<title>Q_10</title>
<g id="Layer_2_1_">
	<g id="Landmark">
		<path fill="#0C81C3" d="M295.353,202.28c-2.321,0-4.644-0.775-6.45-2.323c-1.291-1.548-2.064-3.354-2.064-5.417
			c0-0.774-0.258-3.611,0.258-17.801c0.258-9.03,0.258-20.122,0.258-30.7c0.257-40.761,0.774-45.405,5.16-45.405
			c3.354,0,5.418,0,11.868,89.521c0.257,2.064,0.257,3.612,0.257,4.386c0.258,1.806-0.515,3.612-1.807,4.902
			C301.028,201.247,298.19,202.28,295.353,202.28z"/>
		<path fill="#010101" d="M292.515,103.213c3.353,0,9.03,84.877,9.545,91.327c0.258,3.096-3.354,5.16-6.707,5.16
			c-2.838,0.515-5.417-1.548-5.934-4.385c0-0.259,0-0.517,0-1.033v0.258c0.258-0.774,0.258-1.548,0.258-2.063l0,0
			c-0.258,0.516-0.258,1.29-0.258,1.806c-0.258-0.774-0.258-4.901,0.258-17.543C290.708,148.877,289.16,103.213,292.515,103.213
			 M292.515,98.053c-6.45,0-6.966,7.998-7.224,18.059c-0.258,7.998-0.258,18.576-0.258,29.927c0,10.578,0,21.67-0.258,30.7
			c-0.517,13.673-0.258,17.027-0.258,18.059c0,2.58,1.032,5.159,2.838,6.966c2.322,2.064,5.16,3.354,8.255,3.095
			c3.611,0,6.965-1.29,9.545-3.869c1.806-1.806,2.838-4.386,2.58-6.965c0-0.775-0.258-2.065-0.258-4.386
			c-0.773-9.288-2.322-31.217-4.128-50.565c-1.031-10.835-2.063-19.607-2.837-25.799C298.964,104.245,298.19,98.053,292.515,98.053
			L292.515,98.053z"/>
		<path fill="#8683BF" d="M242.981,672.328c-0.774,0-1.29-0.257-1.805-0.775c-0.517-0.515-0.775-1.031-0.775-1.805v-26.314
			c0-1.29,1.033-2.58,2.323-2.58l175.945-12.384c1.548,0,2.58,1.032,2.58,2.581v36.117c0,1.549-1.032,2.58-2.58,2.58
			L242.981,672.328z"/>
		<path fill="#010101" d="M418.927,631.309v36.117l-175.945,2.322v-26.056L418.927,631.309 M418.927,626.148h-0.258l-175.945,12.383
			c-2.581,0.259-4.903,2.322-4.903,5.161v26.056c0,1.29,0.517,2.58,1.549,3.611c1.031,1.032,2.321,1.548,3.611,1.548l0,0
			l175.945-2.321c2.838,0,5.159-2.322,5.159-5.16v-36.117C424.086,628.47,421.765,626.148,418.927,626.148L418.927,626.148z"/>
		<path fill="#8683BF" d="M250.463,642.144h-0.516l-42.309-9.288c-1.29-0.258-2.064-1.29-2.064-2.579v-23.734
			c-5.933-0.773-20.638-3.097-27.087-10.835c-2.581-2.839-3.612-6.708-3.096-10.32c0.773-7.997,1.548-11.094,4.385-11.094
			c2.839,0,3.613,2.838,4.129,10.062c0.257,2.064,4.128,4.128,7.997,4.128c0.774,0,1.548,0,2.063-0.257
			c4.644-1.291,14.964-4.902,14.964-4.902c0.258,0,0.516-0.258,0.773-0.258l25.799-0.516l-0.516-14.706
			c-7.739-0.516-30.7-3.096-35.602-17.285c-3.354-9.545-2.838-11.352-2.064-12.383c0.517-0.773,1.548-1.289,2.322-1.289
			s2.838,0,5.675,5.416c2.322,4.646,6.966,7.482,12.126,7.741c0.515,0,1.29,0,1.805-0.259c5.16-0.774,10.319-2.322,14.963-4.644
			v-14.963c-4.902-0.774-16.511-3.097-20.381-4.387c-2.838-0.773-12.125-4.643-11.867-18.833c0-3.097,0-6.707,3.095-6.707
			c2.323,0,3.096,2.063,4.386,5.934c0.516,1.549,1.033,3.096,1.806,4.645c0.258,0.515,2.321,1.29,6.707,1.29
			c2.838,0,5.419-0.517,7.998-1.29c3.354-1.292,6.708-3.096,8.771-4.129v-9.545c-4.128-1.547-14.963-5.676-19.865-8.255
			c-5.417-2.839-11.609-9.03-10.835-21.156c0.258-3.096,0.258-5.416,3.096-5.416c2.321,0,2.579,2.063,3.095,3.869
			c0.517,2.32,1.806,8.512,4.386,9.545c1.805,0.773,3.869,1.032,5.934,1.032c4.644,0.258,9.288-1.289,13.157-4.128l3.096-2.58
			v-9.545c-4.128-1.032-13.674-3.87-18.059-4.902c-6.708-1.806-14.964-10.835-15.222-19.09c0-1.807,0-3.096,0.774-4.129
			c0.516-0.516,1.29-0.773,1.806-0.773c1.806,0,2.58,1.289,3.096,2.58c1.031,2.063,3.095,6.707,7.481,7.224c0.516,0,1.032,0,1.806,0
			c6.45,0,14.706-4.644,17.801-6.45v-8.514c-4.386-1.29-15.995-5.159-19.091-5.935c-5.676-1.547-10.578-12.899-10.578-20.638
			c0-1.031,0-4.127,2.838-4.127c1.806,0,2.58,1.29,3.354,3.096c1.29,2.838,3.87,8.77,8.513,8.77h0.517
			c7.739-0.773,14.188-6.965,16.253-9.028v-5.417l-13.673-5.16c-2.838,0-11.609-0.774-14.189-7.481
			c-1.806-4.644-3.612-14.962-0.774-17.285c0.516-0.516,1.033-0.773,1.806-0.773c1.806,0,2.58,1.548,3.869,3.611
			c1.29,2.323,3.871,6.967,6.45,6.967c3.095,0.257,5.933-0.517,8.514-2.323l1.29-0.773c3.354-2.323,6.449-4.644,9.545-7.482v-2.063
			c-4.385-1.291-15.221-4.902-18.317-5.676c-5.159-1.291-12.899-10.062-12.899-18.833c0-2.064,0-4.902,2.838-4.902
			c2.064,0,2.579,1.548,3.096,3.096c0.516,1.548,2.063,5.418,3.87,5.934c1.806,0.516,3.354,0.774,5.159,0.774
			c1.548,0,3.096-0.517,4.386-1.291c1.548-1.032,7.224-6.449,11.351-10.061l-13.673-6.45c-2.064-0.516-16.511-5.675-17.027-15.994
			c-0.258-5.934,0.516-7.74,1.548-8.772c0.516-0.516,1.548-1.031,2.321-1.031c2.581,0,4.128,3.095,5.161,5.933
			c1.289,3.096,4.385,4.902,7.48,4.644c1.806,0,3.354-0.516,4.644-1.548c4.128-3.096,7.998-6.708,11.609-10.319
			c-4.644-1.29-14.705-4.386-18.059-5.676c-5.675-2.064-11.867-11.867-10.836-20.381c0.258-1.29,0.517-4.386,3.354-4.386
			c2.064,0,2.838,2.064,4.128,4.902c0.774,2.063,1.806,4.127,3.096,5.934c1.032,0.258,2.321,0.516,3.611,0.516
			c1.548,0,3.096-0.516,4.128-1.548c1.548-1.805,5.933-6.707,8.771-9.803c-4.386-1.806-11.609-4.385-14.189-5.159
			c-5.675-1.548-11.609-13.157-10.319-19.866c0.516-2.836,2.063-3.611,3.354-3.611c2.064,0,3.096,1.806,4.386,4.644
			c0.516,1.29,2.58,5.676,3.87,5.676h1.548c1.806,0.258,3.611-0.517,4.902-1.806c0.774-1.29,6.45-8.255,9.288-12.383
			c-0.773-0.258-1.548-0.517-2.58-0.775c-8.513-2.838-19.09-6.449-20.123-21.412c0-1.548,1.031-2.581,2.321-2.838c0,0,0,0,0.258,0
			c0.775,0,1.548,0.258,2.064,0.774c1.806,2.064,7.224,7.481,11.352,7.481c1.29,0,2.58-0.774,3.354-1.806
			c2.322-3.096,5.675-7.223,9.288-11.351c5.159-6.192,10.318-12.383,14.705-19.091c0.774-1.548,0.258-9.288-0.257-14.448
			c-0.774-11.609-0.774-16.252,1.031-18.316c0.516-0.773,1.547-1.032,2.322-1.032h0.258c2.838,0.259,3.611,3.354,5.159,8.514
			c2.322,7.998,5.676,20.122,16.253,23.734c18.059,6.191,59.078,18.833,64.497,20.123c0.515,0,0.773,0,1.289,0
			c5.418,0,12.899-4.644,13.159-7.224c0-1.29,1.03-2.321,2.32-2.321h0.258c1.291,0,2.321,0.774,2.58,2.064
			c0,0.516,2.58,11.609-11.609,21.929c-5.676,3.87-10.836,8.255-15.994,12.899c4.901,2.58,10.061,4.127,15.735,4.644
			c1.033,0,2.323-0.258,3.097-0.517c6.449-2.837,8.513-11.609,8.513-11.867c0.259-1.032,1.032-1.806,1.807-2.063
			c0.259,0,0.517,0,0.773,0c0.774,0,1.548,0.258,2.065,0.773c0,0,7.739,9.288-3.872,21.155
			c-6.965,6.707-14.188,13.157-21.927,19.091c4.643,2.064,9.803,3.353,14.962,3.87c0.774,0,1.807,0,2.322-0.517
			c5.676-4.385,8.255-6.449,7.224-9.545c-0.516-1.032,0-2.322,0.773-3.096c0.518-0.258,1.033-0.516,1.549-0.516
			s1.289,0.258,1.548,0.516c2.321,2.064,3.61,5.161,3.61,8.514c-0.257,5.417-4.127,11.351-12.124,17.026
			c-10.578,7.74-15.995,12.125-18.832,14.448c3.869,2.322,8.254,3.87,12.898,4.385h0.517c3.869,0,7.479-1.29,10.318-3.87
			c1.549-1.548,2.322-3.612,2.064-5.933c0-1.291,0.773-2.323,2.063-2.581c0.26,0,0.518,0,0.518,0c1.031,0,1.805,0.517,2.321,1.548
			c0,0,6.449,13.158-9.546,23.993c-10.835,7.482-17.8,12.383-20.123,14.189v1.29c5.16,2.321,10.578,3.869,15.995,4.127
			c0.774,0,1.292,0,2.065-0.258c5.416-1.29,9.803-5.417,11.092-10.834c0.259-1.29,1.291-2.064,2.58-2.064l0,0
			c1.29,0,2.322,0.774,2.58,2.064c0.259,0.516,3.612,14.705-14.705,25.54c-10.835,6.45-15.479,9.029-17.543,10.062v3.354
			c3.612,2.064,10.577,5.417,14.963,5.417c0.26,0,0.774,0,1.033,0c6.191-0.774,10.835-5.675,11.608-11.609
			c0.257-1.033,1.033-1.806,2.063-2.064h0.517c1.031,0,1.806,0.517,2.322,1.29c2.063,3.612,2.58,7.997,1.547,11.868
			c-1.29,5.16-5.159,9.803-11.608,13.415c-11.352,6.708-17.286,9.546-19.606,10.835v5.934c4.643,3.096,10.062,4.9,15.478,5.159
			c6.967,0,10.578-3.096,11.868-9.804c0.257-1.29,1.29-2.063,2.579-2.063h0.259c1.288,0,2.321,1.29,2.321,2.58
			c0,0.775,0.773,18.833-15.221,25.283c-9.288,3.611-13.673,5.676-15.737,6.449v8.514c4.902,2.839,10.319,4.386,15.995,4.901
			c2.322,0,4.645-0.516,6.707-1.547c4.128-2.322,4.387-3.354,4.646-5.676v-0.773c0.515-3.097,2.32-4.128,3.869-4.128
			c1.031,0,1.805,0.258,2.58,1.031c1.031,1.29,1.547,2.839,1.289,4.386c-0.516,10.578-6.449,18.06-18.06,22.444
			c-5.416,1.807-10.835,4.129-15.995,6.966v6.966c2.58,2.579,8.514,7.225,13.159,7.481c1.03,0,1.805,0.259,2.836,0.259
			c4.646,0,7.999-1.289,9.805-7.74c0.773-3.096,2.32-7.224,5.417-7.224c1.033,0,2.064,0.516,2.58,1.29
			c2.064,2.579,1.031,7.997,0.516,10.062c-2.322,9.288-11.351,13.931-19.091,18.316l-1.032,0.518
			c-4.127,2.063-8.256,4.127-12.641,5.673v9.546c5.161,3.096,11.093,4.646,17.285,4.902c2.063,0,4.128-0.257,6.19-0.515
			c3.096-0.516,3.612-2.065,4.646-5.676c0.257-0.517,0.257-1.29,0.516-1.807c1.031-3.354,2.838-3.869,4.127-3.869
			c1.033,0,2.064,0.515,2.58,1.29c1.548,2.32,0.516,7.223-0.773,11.093c-3.612,10.061-6.707,11.61-14.448,14.964
			c-5.934,2.578-14.188,6.191-17.541,7.738l0.257,9.546c5.16,3.611,11.093,5.676,17.543,6.191h0.518
			c8.77-0.257,10.318-4.643,10.576-9.029c0.258-3.354,2.063-5.676,4.385-5.676c1.032,0,2.064,0.518,2.58,1.291
			c1.29,1.546,1.548,4.126,1.032,7.996c-1.548,9.03-5.935,12.899-13.931,17.544c-6.192,3.611-17.027,8.771-20.897,10.577v12.125
			h23.993c0.515,0,1.031,0.258,1.547,0.517c4.387,2.837,9.288,4.385,14.448,4.385h1.289c9.029-0.516,12.642-7.739,14.19-13.416
			c1.031-4.126,3.354-4.643,4.385-4.643c1.549,0,3.096,1.032,3.611,2.58c1.807,3.354,1.55,10.32-3.353,17.543
			c-7.225,10.577-20.123,17.284-36.634,18.833v21.153c0,1.291-1.033,2.323-2.323,2.58l-134.925,13.158H250.463z"/>
		<path fill="#010101" d="M266.716,153.262L266.716,153.262c3.612,0.516,3.354,26.057,20.896,31.99
			c17.543,5.934,59.079,18.833,65.014,20.123c0.515,0,1.03,0.257,1.804,0.257c5.935,0,15.222-4.901,15.738-9.545
			c0,0,2.322,9.803-10.577,19.09c-6.708,4.644-13.157,9.804-18.833,15.479c0,0,11.609,6.45,20.122,6.45
			c1.549,0,2.838-0.258,4.129-0.774c7.997-3.353,10.062-13.673,10.062-13.673s6.449,7.224-3.612,17.543
			c-7.997,7.74-16.252,14.964-25.282,21.414c0,0,12.641,5.933,19.865,5.933c1.289,0,2.837-0.258,3.869-1.031
			c5.417-3.613,10.062-7.224,7.998-12.126c0,0,9.803,7.998-8.514,21.413c-18.317,13.416-21.93,17.027-21.93,17.027
			s10.32,6.449,17.286,6.449h0.517c6.964,0,15.479-3.869,14.961-12.383c0,0,5.419,11.094-8.771,20.639
			c-14.189,9.546-21.154,14.963-21.154,14.963v4.386c0,0,10.834,5.16,18.574,5.16c0.773,0,1.806,0,2.58-0.258
			c6.45-1.548,11.609-6.449,13.157-12.899c0,0,3.354,12.899-13.415,22.703c-16.771,9.804-18.833,10.835-18.833,10.835v6.45
			c0,0,10.835,6.708,17.543,6.708c0.516,0,1.033,0,1.548,0c7.224-1.033,12.642-6.708,13.674-13.673c0,0,7.223,12.125-9.288,21.928
			c-6.707,4.128-13.673,7.997-20.896,11.351v8.771c5.159,3.871,11.608,6.192,18.059,6.192c10.319,0,13.415-6.192,14.448-11.866
			c0,0,0.773,17.026-13.675,22.703c-14.446,5.674-17.284,7.48-17.284,7.48v11.868c7.997,4.127,13.931,5.932,18.575,5.932
			c2.838,0,5.418-0.773,7.997-2.063c5.676-3.096,5.676-5.16,5.934-8.256c0.257-1.289,0.773-2.063,1.29-2.063s1.29,1.032,1.29,2.837
			c0,3.355-0.773,14.189-16.254,20.124c-15.479,5.934-17.801,7.997-17.801,7.997v9.545c0,0,8.256,8.256,15.479,9.029
			c1.032,0,2.064,0.259,3.096,0.259c5.677,0,10.061-1.806,12.126-9.546c1.03-3.611,2.063-5.418,3.096-5.418
			c1.031,0,1.805,3.096,0.515,8.256c-2.063,8.515-11.092,12.899-18.832,17.026c-4.644,2.323-9.288,4.387-14.189,6.192v12.898
			c5.935,3.612,12.9,5.677,19.865,5.935c2.322,0,4.386-0.258,6.707-0.774c5.676-1.032,5.935-5.16,7.225-9.287
			c0.515-1.549,1.031-2.064,1.548-2.064c1.031,0,1.289,2.838-0.773,9.03c-3.097,9.029-5.677,10.062-13.159,13.415
			c-7.481,3.354-19.089,8.513-19.089,8.513l0.257,12.385c0,0,9.547,7.223,19.865,7.223h0.773
			c10.835-0.258,12.642-6.707,13.157-11.353c0.258-2.063,1.031-3.354,1.807-3.354c0.773,0,1.805,1.807,1.031,6.192
			c-1.289,7.999-5.16,11.352-12.642,15.737c-7.48,4.387-22.187,11.094-22.187,11.094v16.253h26.572
			c4.645,3.096,10.321,4.901,15.737,4.901h1.549c9.803-0.516,14.446-7.738,16.511-15.479c0.515-2.063,1.29-2.838,2.064-2.838
			c2.063,0,3.869,7.225-2.064,15.737c-7.998,11.353-21.929,16.77-37.15,18.06v23.734l-134.926,13.675l-42.309-9.288v-26.057
			c0,0-31.991-2.322-30.185-18.317c0.775-6.708,1.29-8.771,1.806-8.771c0.517,0,1.29,4.902,1.548,7.739
			c0.258,4.129,6.191,6.45,10.578,6.45c1.031,0,1.806,0,2.838-0.258c4.644-1.29,15.221-4.902,15.221-4.902l28.379-0.517
			l-0.517-19.863c0,0-30.442-0.517-35.602-15.48c-2.58-7.74-2.838-10.318-2.064-10.318s2.322,2.063,3.354,4.128
			c2.58,5.417,8.255,9.029,14.447,9.286c0.774,0,1.548,0,2.321-0.257c5.934-1.033,11.868-2.839,17.027-5.676v-18.576
			c0,0-17.543-3.354-22.187-4.643c-4.644-1.291-10.319-5.677-10.062-16.254c0-3.095,0.258-4.128,0.516-4.128
			c0.774,0,2.581,6.967,3.871,9.288c1.031,1.806,4.901,2.58,8.771,2.58c3.096,0,6.192-0.517,9.03-1.548
			c4.902-2.064,10.319-4.903,10.319-4.903v-13.155c0,0-15.479-5.677-21.155-8.772c-5.675-3.096-10.062-8.771-9.288-18.832
			c0.258-2.064,0.258-3.096,0.517-3.096c0.258,0,1.548,11.351,6.708,13.157c2.064,0.773,4.385,1.031,6.708,1.031
			c5.417,0.258,10.578-1.549,14.963-4.902l3.87-3.096v-12.641c0,0-14.447-3.87-19.865-5.418
			c-5.675-1.548-13.157-9.287-13.157-16.769c0-1.549,0-2.064,0.257-2.064c0.517,0,2.838,8.772,10.062,10.062
			c0.774,0,1.548,0.258,2.064,0.258c8.771,0,20.38-7.481,20.38-7.481V426.21c0,0-17.027-5.417-20.897-6.708
			c-3.869-1.031-8.771-11.093-8.771-18.058c0-1.033,0-1.549,0.258-1.549c0.774,0,3.611,11.868,11.868,11.868
			c0.258,0,0.516,0,0.773,0c10.319-1.032,18.575-10.319,18.575-10.319v-8.256l-15.737-6.191l0,0c-0.774,0-10.061,0-12.383-5.675
			c-2.321-5.676-2.579-13.416-1.548-14.447l0,0c1.032,0,4.128,10.577,10.32,10.577l0,0c3.87,0,7.739-1.032,10.835-3.354
			c3.87-2.58,7.482-5.417,10.577-8.513v-5.16c0,0-16.252-5.16-20.123-6.192c-4.127-1.032-11.093-9.03-10.835-16.511
			c0-1.548,0-2.323,0.257-2.323c0.516,0,2.064,7.998,6.45,9.03c1.806,0.516,3.87,0.773,5.675,0.773c2.064,0,4.128-0.516,5.934-1.547
			c2.322-1.807,14.447-12.899,14.447-12.899L229.05,322.5c0,0-14.963-4.643-15.479-13.673c-0.258-4.902,0.257-6.965,1.289-6.965
			c0.774,0,1.807,1.547,2.581,4.127c2.322,5.418,8.772,7.998,14.189,5.676c0.773-0.258,1.548-0.775,2.063-1.291
			c4.644-3.611,8.771-7.481,12.899-11.609v-2.581c0,0-15.995-4.644-20.123-6.191c-4.386-1.548-10.062-10.062-9.029-17.801
			c0.257-1.548,0.515-2.064,0.774-2.064c1.031,0,3.095,9.803,6.45,10.578c1.29,0.516,2.837,0.516,4.385,0.516
			c2.322,0,4.386-0.774,5.934-2.321c2.58-2.58,11.352-12.899,11.352-12.899s-13.673-5.418-17.801-6.708
			c-4.128-1.031-9.803-11.093-8.513-16.769c0.258-1.032,0.516-1.548,0.773-1.548c1.29,0,3.612,9.804,7.74,10.319h1.806
			c2.581,0.258,5.16-0.773,6.965-2.837c1.032-1.548,11.351-14.964,11.351-14.964c-8.771-4.127-22.96-5.159-23.992-21.67
			c0,0,6.966,8.255,13.415,8.255c2.063,0,4.127-1.032,5.417-2.838c6.708-8.771,22.187-26.572,24.25-30.958
			C267.748,181.383,263.104,153.262,266.716,153.262 M266.458,148.102c-1.547,0-3.095,0.775-4.126,1.806
			c-2.581,2.838-2.581,7.224-1.806,20.123c0.515,4.385,0.515,9.029,0.258,13.415c-1.548,2.58-9.288,12.125-14.447,18.575
			c-3.611,4.386-6.966,8.514-9.288,11.352c-0.516,0.773-1.032,0.773-1.291,0.773c-2.579,0-7.223-3.87-9.545-6.449
			c-1.031-1.033-2.321-1.806-3.869-1.806c-2.838,0-5.16,2.322-5.16,5.159v0.258c1.032,15.995,12.642,20.639,20.897,23.734
			l-7.224,9.545c0,0-0.773,0.516-2.838,0.516h-0.516c-1.032-1.289-1.805-2.838-2.321-4.385c-1.29-2.838-2.838-5.934-6.708-5.934
			c-3.095,0-5.675,2.581-5.675,5.675c-1.548,8.255,5.159,20.897,12.125,22.961c1.806,0.516,6.45,2.063,10.578,3.87
			c-2.321,2.838-5.16,5.934-6.192,6.965c-0.516,0.517-1.548,0.774-2.321,0.774c-0.775,0-1.29,0-2.064-0.258
			c-0.773-1.548-1.547-3.096-2.063-4.644c-1.29-3.096-2.58-6.45-6.45-6.45c-2.321,0-5.159,1.032-5.675,6.708
			c-1.033,7.998,4.385,20.123,12.382,23.218c2.581,1.033,9.03,2.838,14.189,4.386c-2.58,2.581-5.16,4.902-7.998,6.965
			c-1.031,0.774-2.063,1.032-3.096,1.032c-2.063,0-4.127-1.032-5.159-3.096c-0.773-2.321-2.58-7.74-7.481-7.74
			c-1.549,0-3.096,0.775-4.128,1.806c-1.806,1.807-2.321,4.901-2.063,10.578c0.516,11.867,15.479,17.285,18.575,18.316l10.061,4.902
			c-3.611,3.354-7.223,6.708-8.255,7.481c-0.773,0.516-1.806,0.774-2.838,0.516c-1.548,0-2.837-0.258-4.385-0.516
			c-1.032-1.29-1.806-2.838-2.322-4.386c-0.516-2.579-2.837-4.644-5.417-4.644c-3.611,0-5.417,2.58-5.417,7.482
			c-0.258,9.545,7.998,19.606,14.705,21.412c2.322,0.517,10.061,3.096,15.479,4.902c-2.321,2.064-4.644,3.87-7.481,5.676
			l-1.29,0.773c-2.064,1.548-4.644,2.064-7.224,1.806c-0.516,0-1.806-1.032-4.127-5.417c-1.29-2.322-2.838-4.902-6.192-4.902
			c-1.29,0-2.58,0.516-3.612,1.29c-4.902,4.127-1.032,17.801,0,20.123c3.096,7.739,12.642,8.771,15.995,9.029l11.609,4.645v2.58
			c-2.323,2.321-7.998,6.708-13.932,7.481h-0.258c-2.838,0-5.159-5.16-6.192-7.223c-1.032-2.065-2.063-4.645-5.675-4.645
			c-1.29,0-5.418,0.516-5.418,6.708c0,7.74,4.902,20.897,12.384,22.962c2.838,0.774,12.125,3.87,17.285,5.417v5.16
			c-3.87,2.322-10.577,5.159-15.221,5.159c-0.516,0-0.773,0-1.29,0c-2.838-0.517-4.644-4.128-5.418-5.933
			c-0.773-2.322-2.838-3.871-5.159-4.129c-1.291,0-2.838,0.516-3.612,1.549c-1.29,1.547-2.064,3.869-1.548,5.934
			c0.258,9.804,9.288,19.606,17.285,21.67c3.612,1.033,11.352,3.096,15.995,4.387v6.449l-1.805,1.548l-0.258,0.258
			c-3.354,2.322-7.224,3.611-11.352,3.611c-1.806,0-3.354-0.259-4.901-0.773c-0.516-0.258-1.548-1.805-2.838-7.739
			c-0.516-1.807-1.291-5.677-5.676-5.677c-4.902,0-5.418,4.901-5.676,7.739c-0.774,10.578,3.611,19.092,12.125,23.735
			c5.933,2.839,12.125,5.418,18.317,7.739v6.192c-1.806,1.031-4.644,2.322-6.966,3.353c-2.322,0.775-4.644,1.032-6.966,1.032
			c-1.547,0-3.095-0.257-4.644-0.516c-0.258-1.031-1.032-2.58-1.29-3.611c-1.548-4.128-2.58-7.739-6.708-7.739
			c-5.676,0-5.676,6.191-5.676,9.288c-0.258,15.994,10.578,20.38,13.932,21.412c3.354,1.033,12.899,2.837,18.317,3.869v11.095
			c-3.87,1.804-8.255,3.095-12.642,3.869c-0.516,0-1.031,0-1.548,0c-4.127-0.259-7.998-2.581-9.804-6.45
			c-3.096-6.191-5.933-6.966-7.997-6.966c-1.806,0-3.354,0.774-4.386,2.322c-1.806,2.579-1.548,5.933,1.548,14.963
			c2.837,7.998,10.577,13.674,23.476,16.769c3.87,1.033,7.998,1.549,12.126,2.063l0.257,9.805L210.217,581
			c-0.516,0-1.031,0-1.548,0.259c0,0-10.319,3.613-14.706,4.902c-0.515,0-1.031,0.258-1.548,0.258c-2.063,0-4.127-0.517-5.417-1.807
			c-0.515-6.449-1.032-12.382-6.708-12.382s-6.449,6.449-7.224,13.672c-0.516,4.386,0.774,8.772,3.871,12.126
			c6.449,7.481,19.349,10.577,26.572,11.609v21.413c0,2.58,1.547,4.643,4.128,5.159l42.309,9.286c0.258,0,0.774,0,1.033,0h0.516
			l134.926-13.672c2.58-0.259,4.644-2.58,4.644-5.161v-19.089c15.996-2.322,28.896-9.03,36.118-19.866
			c5.418-7.997,5.676-15.994,3.611-20.122c-1.031-2.323-3.353-3.87-5.933-3.87c-1.29,0-5.419,0.517-6.966,6.708
			c-1.806,7.223-5.676,11.093-11.868,11.609h-1.031c-4.644,0-9.03-1.548-12.899-3.87c-0.773-0.517-1.806-1.032-3.096-1.032h-21.413
			v-7.996c4.644-2.322,13.932-6.708,19.607-10.062c8.771-4.902,13.674-9.288,15.221-19.35c0.775-4.644,0.258-7.997-1.547-10.063
			c-1.033-1.289-2.839-2.063-4.646-2.063c-3.096,0-6.449,2.58-6.966,8.255c-0.257,3.354-1.03,6.449-8.254,6.708h-0.518
			c-5.416-0.259-10.318-2.064-14.962-4.901l-0.257-6.449c4.127-1.807,11.092-4.903,15.994-6.966
			c8.513-3.612,12.125-5.676,15.995-16.511c3.354-9.288,1.289-12.384,0.516-13.415c-1.033-1.549-2.838-2.581-4.645-2.581
			c-1.29,0-4.9,0.516-6.449,5.675c-0.258,0.775-0.517,1.291-0.517,2.065c-1.03,3.61-1.288,3.61-2.58,3.869
			c-1.804,0.515-3.61,0.515-5.674,0.515c-5.161-0.257-10.063-1.547-14.706-3.869v-6.19c3.869-1.549,7.739-3.097,11.352-5.159
			l1.032-0.516c7.996-4.13,17.801-9.546,20.38-19.867c1.033-3.869,1.549-9.285-0.773-12.382c-1.031-1.549-2.838-2.322-4.643-2.322
			c-5.418,0-7.225,6.708-7.998,9.288c-1.29,4.9-3.354,5.676-7.225,5.676c-0.773,0-1.548,0-2.58,0
			c-3.096-0.26-7.479-3.355-10.576-6.191v-4.13c4.644-2.32,9.546-4.126,14.446-5.933c8.771-3.095,19.092-10.062,19.865-24.766
			c0.257-2.323-0.517-4.645-2.063-6.45c-1.032-1.291-2.581-1.807-4.388-1.807c-3.353,0.258-6.19,2.838-6.449,6.45v0.773
			c-0.257,1.807-0.257,2.322-3.354,3.871c-1.547,1.031-3.611,1.289-5.416,1.289c-4.645-0.258-9.288-1.547-13.158-3.869v-5.419
			c2.321-1.031,6.708-2.838,14.189-5.676c17.284-6.966,16.511-26.83,16.511-27.604c0-2.58-2.323-4.644-4.903-4.901h-0.257
			c-2.579,0-4.643,1.805-5.159,4.128c-1.033,5.417-3.611,7.481-9.288,7.481c-4.644-0.257-9.029-1.549-12.898-3.87v-2.838
			c3.096-1.549,8.772-4.644,18.317-10.32c6.966-4.127,11.351-9.029,12.898-15.221c1.29-4.643,0.517-9.545-1.807-13.931
			c-1.03-1.548-2.579-2.58-4.384-2.58c-0.259,0-0.516,0-1.033,0c-2.063,0.516-3.869,2.064-4.128,4.127
			c-0.773,4.902-4.643,9.03-9.545,9.545h-0.517c-4.384-0.773-8.514-2.063-12.383-4.385v-0.774c3.096-1.548,8.256-4.644,16.511-9.545
			c19.864-11.609,15.995-27.862,15.995-28.379c-0.773-2.063-2.838-3.611-4.9-3.611l0,0c-2.322,0-4.646,1.548-5.161,3.87
			c-1.031,4.385-4.643,7.997-9.029,9.029c-0.516,0-1.032,0-1.547,0c-4.128-0.257-8.257-1.29-11.868-2.837
			c3.354-2.58,9.287-6.708,17.544-12.383c14.188-9.546,12.898-22.188,10.319-27.347c-0.773-1.806-2.58-2.838-4.646-2.838
			c-0.515,0-0.773,0-1.289,0.258c-2.322,0.515-3.87,2.838-3.87,5.159c0,1.548-0.515,2.838-1.548,3.87
			c-2.321,2.064-5.417,3.095-8.512,3.095h-0.519c-2.836-0.515-5.674-1.289-8.254-2.579c3.096-2.58,8.254-6.449,15.736-11.867
			c8.514-6.192,12.9-12.642,13.157-19.091c0.259-3.87-1.548-7.74-4.387-10.578c-2.063-1.806-5.416-1.548-7.223,0.517
			c-1.289,1.547-1.548,3.354-0.773,5.16c0.515,1.29-2.58,3.353-6.191,5.933c-0.259,0-0.773,0-1.032,0
			c-3.354-0.257-6.449-1.031-9.546-2.063c6.45-5.159,12.642-10.578,18.576-16.511c10.576-10.836,7.223-20.897,3.869-24.509
			c-1.033-1.032-2.322-1.807-3.869-1.807c-0.517,0-0.775,0-1.292,0.259c-2.063,0.516-3.353,2.322-3.61,4.385
			c-0.516,2.064-2.58,7.998-6.966,9.804c-0.773,0.258-1.549,0.258-2.322,0.258c-3.869-0.258-7.481-1.29-10.835-2.838
			c3.096-2.58,7.223-5.934,12.899-10.062c15.737-11.093,12.899-23.993,12.641-24.509c-0.515-2.322-2.837-4.127-5.159-3.87h-0.517
			c-2.58,0.258-4.384,2.064-4.643,4.644c-2.838,3.096-6.449,4.902-10.579,5.16c-0.257,0-0.516,0-0.773,0
			c-5.418-1.032-46.694-13.931-64.238-19.865c-9.288-3.096-12.642-14.447-14.705-21.93c-1.548-5.417-2.838-9.803-7.224-10.318
			h-0.517L266.458,148.102z"/>
		<polygon fill="#0C81C3" points="278.842,198.409 292.515,203.053 293.546,579.97 270.328,580.743 		"/>
		<polygon fill="#0C81C3" points="327.085,213.373 334.309,215.694 352.883,579.711 337.146,579.196 		"/>
		<polygon fill="#08AD84" points="292.515,203.053 293.546,583.323 337.146,582.807 327.601,213.889 		"/>
		<path fill="none" stroke="#010101" stroke-width="2" stroke-linecap="round" stroke-linejoin="round" d="M247.109,549.527
			c7.224-1.032,12.384-4.129,11.609-8.256c-1.031-5.418,2.838,4.127,13.158,6.707c8.514,2.065,60.885,1.807,84.36,0.773"/>
		<path fill="none" stroke="#010101" stroke-width="2" stroke-linecap="round" stroke-linejoin="round" d="M245.819,513.15
			c7.224-2.063,13.416-4.643,13.416-7.481c0-4.384,0-7.997,9.029,0c9.03,7.998,27.347,5.676,33.796,5.676
			c4.645,0,34.313,0.259,51.854,0.517"/>
		<path fill="none" stroke="#010101" stroke-width="2" stroke-linecap="round" stroke-linejoin="round" d="M245.819,477.549
			c7.482-1.806,12.383-3.611,12.899-6.708c1.032-4.9-4.127-13.157,6.966-4.643c11.094,8.512,15.738,6.966,22.445,7.481
			c5.417,0.258,44.374,2.58,63.205,3.61"/>
		<path fill="none" stroke="#010101" stroke-width="2" stroke-linecap="round" stroke-linejoin="round" d="M248.657,441.688
			c6.708-3.353,11.868-7.223,11.868-11.092c0-6.708-3.613-10.837,5.159-2.838c8.771,7.997,25.799,6.707,35.602,8.254
			c6.966,1.033,32.764,4.902,48.501,6.708"/>
		<path fill="none" stroke="#010101" stroke-width="2" stroke-linecap="round" stroke-linejoin="round" d="M250.979,401.444
			c8.255-6.45,10.577-12.384,10.319-16.512c-0.258-5.675,3.096-1.032,11.351,4.901c6.966,5.161,54.693,12.126,75.074,14.964"/>
		<path fill="none" stroke="#010101" stroke-width="2" stroke-linecap="round" stroke-linejoin="round" d="M250.979,364.551
			c6.449-4.385,10.835-8.513,10.319-13.157c-1.032-7.998-2.838-9.288,5.159-2.321c7.998,6.965,25.541,10.061,42.826,13.415
			c10.32,2.063,26.573,4.386,38.182,5.934"/>
		<path fill="none" stroke="#010101" stroke-width="2" stroke-linecap="round" stroke-linejoin="round" d="M253.816,324.564
			c5.161-4.128,8.256-10.578,8.256-17.285c0-6.192,0.516,0.516,7.997,5.675c5.676,3.871,50.049,13.932,75.075,19.608"/>
		<path fill="none" stroke="#010101" stroke-width="2" stroke-linecap="round" stroke-linejoin="round" d="M254.849,288.963
			c3.87-3.355,11.094-13.416,9.03-18.833c-2.064-5.676,3.869,1.29,10.577,8.255c5.934,6.192,47.726,15.221,66.56,19.865"/>
		<path fill="none" stroke="#010101" stroke-width="2" stroke-linecap="round" stroke-linejoin="round" d="M252.527,260.326
			c5.933-6.191,11.867-13.157,11.352-20.639c-0.517-7.482-1.291-8.255,5.417,0c6.707,8.255,26.571,14.705,36.117,16.769
			c5.934,1.29,22.445,5.934,33.796,9.287"/>
		<path fill="none" stroke="#010101" stroke-width="2" stroke-linecap="round" stroke-linejoin="round" d="M254.849,227.82
			c7.482-8.256,11.867-16.253,11.094-22.444c-0.775-6.192,3.611,0.257,6.707,4.644c3.096,4.385,61.4,21.928,61.4,21.928"/>
		<path fill="none" stroke="#010101" stroke-width="2" stroke-linecap="round" stroke-linejoin="round" d="M216.409,601.897
			c12.384,1.032,15.737,1.032,21.155,1.548c5.418,0.518,11.093-1.031,8.255-6.708c-2.837-5.676,1.033-4.643,6.966,0
			c5.934,4.646,13.416,4.646,30.701,5.677c14.447,1.031,65.528,0.772,88.488-0.517"/>
		
			<line fill="none" stroke="#010101" stroke-width="2" stroke-linecap="round" stroke-linejoin="round" x1="263.879" y1="580.485" x2="354.173" y2="580.485"/>
		
			<line fill="none" stroke="#010101" stroke-width="2" stroke-linecap="round" stroke-linejoin="round" x1="292.515" y1="252.844" x2="292.515" y2="234.012"/>
		
			<line fill="none" stroke="#010101" stroke-width="2" stroke-linecap="round" stroke-linejoin="round" x1="292.773" y1="285.608" x2="292.773" y2="266.776"/>
		
			<line fill="none" stroke="#010101" stroke-width="2" stroke-linecap="round" stroke-linejoin="round" x1="292.773" y1="320.178" x2="292.773" y2="303.151"/>
		
			<line fill="none" stroke="#010101" stroke-width="2" stroke-linecap="round" stroke-linejoin="round" x1="293.031" y1="359.392" x2="293.031" y2="336.947"/>
		
			<line fill="none" stroke="#010101" stroke-width="2" stroke-linecap="round" stroke-linejoin="round" x1="293.031" y1="375.645" x2="293.289" y2="395.511"/>
		
			<line fill="none" stroke="#010101" stroke-width="2" stroke-linecap="round" stroke-linejoin="round" x1="293.031" y1="416.148" x2="293.031" y2="434.981"/>
		
			<line fill="none" stroke="#010101" stroke-width="2" stroke-linecap="round" stroke-linejoin="round" x1="293.031" y1="455.104" x2="293.289" y2="473.938"/>
		
			<line fill="none" stroke="#010101" stroke-width="2" stroke-linecap="round" stroke-linejoin="round" x1="293.289" y1="492.771" x2="293.289" y2="511.861"/>
		
			<line fill="none" stroke="#010101" stroke-width="2" stroke-linecap="round" stroke-linejoin="round" x1="293.289" y1="528.372" x2="293.289" y2="548.752"/>
		
			<line fill="none" stroke="#010101" stroke-width="2" stroke-linecap="round" stroke-linejoin="round" x1="329.149" y1="277.869" x2="329.665" y2="295.153"/>
		
			<line fill="none" stroke="#010101" stroke-width="2" stroke-linecap="round" stroke-linejoin="round" x1="330.181" y1="311.666" x2="330.438" y2="329.208"/>
		
			<line fill="none" stroke="#010101" stroke-width="2" stroke-linecap="round" stroke-linejoin="round" x1="330.954" y1="344.687" x2="331.47" y2="366.358"/>
		
			<line fill="none" stroke="#010101" stroke-width="2" stroke-linecap="round" stroke-linejoin="round" x1="331.986" y1="382.353" x2="332.245" y2="402.218"/>
		
			<line fill="none" stroke="#010101" stroke-width="2" stroke-linecap="round" stroke-linejoin="round" x1="332.761" y1="421.051" x2="333.276" y2="439.625"/>
		
			<line fill="none" stroke="#010101" stroke-width="2" stroke-linecap="round" stroke-linejoin="round" x1="333.793" y1="457.169" x2="334.309" y2="476.517"/>
		
			<line fill="none" stroke="#010101" stroke-width="2" stroke-linecap="round" stroke-linejoin="round" x1="334.823" y1="494.834" x2="335.34" y2="511.861"/>
		
			<line fill="none" stroke="#010101" stroke-width="2" stroke-linecap="round" stroke-linejoin="round" x1="335.856" y1="528.631" x2="336.114" y2="547.979"/>
		
			<line fill="none" stroke="#010101" stroke-width="2" stroke-linecap="round" stroke-linejoin="round" x1="293.289" y1="563.459" x2="293.546" y2="579.97"/>
		
			<line fill="none" stroke="#010101" stroke-width="2" stroke-linecap="round" stroke-linejoin="round" x1="336.889" y1="562.942" x2="337.146" y2="579.196"/>
		
			<line fill="none" stroke="#010101" stroke-width="2" stroke-linecap="round" stroke-linejoin="round" x1="292.515" y1="218.791" x2="292.515" y2="203.053"/>
		
			<line fill="none" stroke="#010101" stroke-width="2" stroke-linecap="round" stroke-linejoin="round" x1="328.89" y1="262.905" x2="328.374" y2="245.363"/>
		
			<line fill="none" stroke="#010101" stroke-width="2" stroke-linecap="round" stroke-linejoin="round" x1="327.601" y1="213.889" x2="327.858" y2="230.4"/>
		
			<line fill="none" stroke="#010101" stroke-width="2" stroke-linecap="round" stroke-linejoin="round" x1="293.546" y1="604.993" x2="293.546" y2="622.794"/>
		
			<line fill="none" stroke="#010101" stroke-width="2" stroke-linecap="round" stroke-linejoin="round" x1="337.662" y1="603.445" x2="338.178" y2="622.794"/>
		<path fill="#8683BF" d="M181.323,669.49c-1.548,0-2.58-1.031-2.58-2.58l-0.516-25.799c0-1.548,1.032-2.58,2.58-2.58l62.174,2.58
			c1.548,0,2.58,1.032,2.58,2.581v26.313c0,0.773-0.257,1.289-0.773,1.807c-0.517,0.516-1.032,0.773-1.806,0.773L181.323,669.49z"/>
		<path fill="#010101" d="M180.807,641.111l62.174,2.581v26.056l-61.658-2.838L180.807,641.111 M180.807,635.951
			c-2.838,0-5.159,2.322-5.159,5.16l0.515,25.799c0,2.838,2.064,5.161,4.902,5.161l61.659,2.837h0.257c2.837,0,5.16-2.322,5.16-5.16
			l0,0v-26.314c0-2.837-2.064-5.16-4.902-5.16L180.807,635.951L180.807,635.951z"/>
		<path fill="#8683BF" d="M170.23,643.176c-1.548,0-2.581-1.032-2.581-2.579v-10.32c0-1.548,1.033-2.58,2.581-2.58l72.751-1.033
			c0.774,0,1.29,0.26,1.806,0.775c0.516,0.517,0.773,1.031,0.773,1.806v14.189c0,0.773-0.257,1.289-0.773,1.806
			c-0.517,0.516-1.032,0.773-1.806,0.773L170.23,643.176z"/>
		<path fill="#010101" d="M242.981,629.502v14.19l-72.751-3.096v-10.32L242.981,629.502 M242.981,624.343L242.981,624.343
			l-72.751,1.032c-2.839,0-5.161,2.321-5.161,5.16v10.318c0,2.839,2.064,5.159,4.902,5.159l72.752,2.839h0.257
			c1.29,0,2.58-0.517,3.612-1.29c1.032-1.032,1.548-2.322,1.548-3.869v-14.19C248.142,626.663,245.819,624.343,242.981,624.343z"/>
		<path fill="#8683BF" d="M242.981,646.272c-0.774,0-1.29-0.26-1.805-0.776c-0.517-0.516-0.775-1.289-0.775-1.804v-14.19
			c0-0.773,0.258-1.29,0.775-1.806c0.515-0.516,1.031-0.773,1.805-0.773l189.619,0.516c1.547,0,2.579,1.031,2.579,2.58v11.093
			c0,1.549-1.032,2.581-2.579,2.581L242.981,646.272z"/>
		<path fill="#010101" d="M242.981,629.502l189.619,0.517v11.093l-189.619,2.581V629.502 M242.981,624.343
			c-2.838,0-5.16,2.32-5.16,5.159v14.19c0,2.837,2.322,5.159,5.16,5.159l0,0l189.619-2.579c2.839,0,5.159-2.323,5.159-5.161v-11.093
			c0-2.838-2.32-5.159-5.159-5.159C432.858,624.859,242.981,624.343,242.981,624.343z"/>
		<polygon fill="#08AD84" points="394.419,646.013 270.328,647.819 270.328,671.812 394.419,670.264 		"/>
		<path fill="#EDA520" stroke="#010101" stroke-width="2" stroke-linecap="round" stroke-linejoin="round" d="M270.328,647.819
			L270.328,647.819z"/>
		<path fill="#EDA520" stroke="#010101" stroke-width="2" stroke-linecap="round" stroke-linejoin="round" d="M394.419,670.264
			L394.419,670.264z"/>
		
			<line fill="none" stroke="#010101" stroke-width="2" stroke-linecap="round" stroke-linejoin="round" x1="394.419" y1="646.013" x2="270.328" y2="647.819"/>
		
			<line fill="none" stroke="#010101" stroke-width="2" stroke-linecap="round" stroke-linejoin="round" x1="270.328" y1="671.812" x2="394.419" y2="670.264"/>
	</g>
</g>
</svg>
