<svg xmlns="http://www.w3.org/2000/svg" viewBox="0 0 273.44 195.36"><defs><style>.cls-1{fill:#0f81c2;}.cls-2{fill:#010101;}.cls-3{fill:#05ac83;}.cls-4{fill:none;stroke:#010101;stroke-linecap:round;stroke-linejoin:round;stroke-width:2px;}</style></defs><title>Q_09</title><g id="Layer_2" data-name="Layer 2"><g id="Landmark"><path class="cls-1" d="M266.23,194.36c-1.1,0-2.21,0-3-.05l-1,0-130-.27c-43.54-.08-87.09-.17-129.72-.27a1,1,0,0,1-.71-.3,1,1,0,0,1-.29-.72,32,32,0,0,1,.39-3.34,23.3,23.3,0,0,0,.43-5c-.12-.8-.3-1.58-.49-2.41s-.38-1.67-.51-2.54a35.79,35.79,0,0,1-.1-7.31c.13-2.2.22-4.4.31-6.6s.19-4.37.31-6.57a1,1,0,0,1,.05-.24c3.33-10.81,4.13-22.4,4.91-33.6.28-4.08.57-8.31,1-12.45.5-5,1.59-10.42,5.94-13q.34-.21.69-.39a5.94,5.94,0,0,0,1.19-.76A6.5,6.5,0,0,0,17,95l.13-.55c1.8-7.33,7.07-13.1,13.43-14.69a6.45,6.45,0,0,1,1.55-.21,3.06,3.06,0,0,1,2.28.85,4.22,4.22,0,0,1,1,2.27L39,100.2l.56-9c.15-2.4.49-5.1,2.5-6.69a3.67,3.67,0,0,1,2.32-.76,4.38,4.38,0,0,1,3,1.12l5.06-9.69a14,14,0,0,1,3.81-5.12,6.29,6.29,0,0,1,3.6-1.18A4.51,4.51,0,0,1,63,70.09,7.52,7.52,0,0,1,64.82,74l.08.33a9.8,9.8,0,0,0,2.41,4.87,4.31,4.31,0,0,0,2.85,1.17A2.74,2.74,0,0,0,71.68,80c1.58-1,1.63-3.45,1.58-4.44,0-.64-.1-1.27-.17-1.91A15.13,15.13,0,0,1,73,69.36c.52-3.13,2.93-6,6.43-7.52a27.9,27.9,0,0,1,8.75-1.9A9.92,9.92,0,0,0,87.89,56a22.66,22.66,0,0,1-.4-2.49,6.6,6.6,0,0,1,1.62-4.8,3.59,3.59,0,0,1,2.66-1.28h.13l5.58-15.22c1-2.83,2.56-4.34,4.38-4.34a2.38,2.38,0,0,1,.46,0,4.48,4.48,0,0,1,3.15,2.59,13.63,13.63,0,0,1,1.68,6c0,.37,0,.75,0,1.12a7.67,7.67,0,0,0,.35,2.82,8.54,8.54,0,0,0,3.12,3.16,18.28,18.28,0,0,1,2.23,1.82c.24-2.15.5-4.26.75-6.31.39-3.11.79-6.33,1.12-9.67a3.08,3.08,0,0,1,.63-1.77,2.94,2.94,0,0,1,1.32-.77l.29-.11c1.23-.51,1.74-2.16,2.23-3.76.07-.24.15-.48.22-.71a34.13,34.13,0,0,1,4-7.64c.64-1,2-3.09,4.15-3.09a3.92,3.92,0,0,1,.76.08,4.49,4.49,0,0,1,3.27,3.5,20.46,20.46,0,0,1,.44,6c-.07,1,0,1.51.22,1.63h.06a.74.74,0,0,0,.58-.28,3.39,3.39,0,0,0,.52-1.53,26.66,26.66,0,0,0,.32-5.85,5,5,0,0,1,.13-1.8,4.93,4.93,0,0,1,1.52-2.05l.11-.09a20.77,20.77,0,0,0,5.88-9.48,1,1,0,0,1,.61-.66,1,1,0,0,1,.35-.06,1,1,0,0,1,.54.16l6.08,3.92a10.16,10.16,0,0,1,3.68,3.41,9.85,9.85,0,0,1,.95,3.5l1.28,9a3.3,3.3,0,0,0,.09.49c.7-3.08,1.3-6.2,1.78-9.31a1,1,0,0,1,.54-.73.91.91,0,0,1,.45-.11.92.92,0,0,1,.46.11,14.57,14.57,0,0,1,7.75,13.29v.17a2.82,2.82,0,0,0,0,.9,3.07,3.07,0,0,0,.52.77l.21.24c2.47,3.07,2.35,7,2.25,10.87,0,1-.06,1.89,0,2.8a5.38,5.38,0,0,0,.87,3.35l.13.18a4,4,0,0,0,1.68.39h.18a3.05,3.05,0,0,0,.54-1.2l4.6-15.62a1,1,0,0,1,1-.71h.1c4,.37,6.09,4.89,5.84,9,0,.22,0,.44,0,.66a6.5,6.5,0,0,0,.12,2.56,1.61,1.61,0,0,0,1.25,1.06.64.64,0,0,0,.23,0,3.14,3.14,0,0,0,.73-.61,3,3,0,0,1,2.1-1.15,2.19,2.19,0,0,1,.36,0,2.93,2.93,0,0,1,1.85,1.48,34.34,34.34,0,0,1,5.12,22.26c-.16,1.37-.4,2.76-.64,4.09-.64,3.62-1.24,7-.31,10.46a2.17,2.17,0,0,0,2,1.61,1.18,1.18,0,0,0,.26,0c1.17-.17,1.6-1.45,2.17-3.53s1.24-4.49,3.73-4.63h.18a5,5,0,0,1,3.16,1.5c8.53,7.51,10.87,19,12.34,31.34a15.42,15.42,0,0,0,2.88-8.31c0-.78,0-1.55,0-2.37a13.72,13.72,0,0,1,.89-6.6,5.62,5.62,0,0,1,3.54-3.1,4.89,4.89,0,0,1,1.3-.17c3,0,5,2.71,6.68,4.89l.22.29a57.08,57.08,0,0,0,6.76,7.06c1.75,1.64,3.57,3.34,5.21,5.17,2.82,3.16,7.34,9.5,5.84,16.46-.13.63-.31,1.24-.48,1.82a10,10,0,0,0-.61,3.44c.18,2.73,2.57,4.55,5.11,6.49a28.79,28.79,0,0,1,3.62,3.07c3.72,3.93,4.45,9.4,5.16,14.69.16,1.19.32,2.37.51,3.52a100.13,100.13,0,0,0,3.14,12.23c2.23,7.35,4.53,14.95,3.33,22.86a8.6,8.6,0,0,0,.41,2.65c.56,2.21,1.32,5.25-1.24,6.75C270.19,194.11,269.33,194.36,266.23,194.36Z"/><path class="cls-2" d="M142.31,2l6.08,3.92A9.26,9.26,0,0,1,151.73,9a9,9,0,0,1,.84,3.16c.43,3,.85,6,1.28,9,.14,1,.55,2.36,1.61,2.45q1.36-5.58,2.24-11.25a13.62,13.62,0,0,1,7.21,12.36,4,4,0,0,0,.09,1.43,4.49,4.49,0,0,0,.9,1.32c2.82,3.51,1.92,8.56,2,13.06a6.15,6.15,0,0,0,1.12,4c.14.5,1.61.91,2.56.91a1.27,1.27,0,0,0,.7-.14,3.24,3.24,0,0,0,1-1.78l4.6-15.61c3.46.32,5.15,4.52,5,8a9,9,0,0,0,.13,3.62,2.55,2.55,0,0,0,2.19,1.72,1.61,1.61,0,0,0,.64-.14c.91-.42,1.49-1.67,2.42-1.67l.19,0a1.94,1.94,0,0,1,1.17,1,33.45,33.45,0,0,1,5,21.6c-.58,5-2.28,9.94-.92,14.94a3.16,3.16,0,0,0,3,2.34,2.69,2.69,0,0,0,.4,0c3.79-.56,2.23-7.95,5.82-8.16h.13a4,4,0,0,1,2.49,1.25c9,8,10.94,21,12.28,33a16.43,16.43,0,0,0,4.6-10.69c.12-2.88-.53-5.82.78-8.58A4.59,4.59,0,0,1,226,83.59a3.87,3.87,0,0,1,1-.14c2.6,0,4.48,2.65,6.1,4.79,3.47,4.57,8.2,8,12,12.29s6.82,10,5.62,15.58c-.4,1.85-1.25,3.65-1.12,5.54.31,4.65,5.8,6.78,9,10.17,4.31,4.56,4.39,11.5,5.42,17.69,2,11.87,8.27,22.89,6.46,34.77-.36,2.35,2.58,7-.35,8.7a11.64,11.64,0,0,1-3.91.38c-1.72,0-3.46-.07-4.08-.08-85.34-.18-174.39-.35-259.73-.54.05-2,1.11-6.55.81-8.51-.25-1.67-.75-3.28-1-4.95a34.37,34.37,0,0,1-.09-7.1c.25-4.4.37-8.78.62-13.17,4.59-14.89,4.4-30.75,5.94-46.25.46-4.64,1.47-9.89,5.46-12.3a13.17,13.17,0,0,0,2-1.25c1.24-1.11,1.53-2.89,1.93-4.5,1.57-6.42,6.29-12.36,12.7-14a5.74,5.74,0,0,1,1.31-.18,2.15,2.15,0,0,1,1.58.56,3.29,3.29,0,0,1,.74,1.76l5.1,24.85q.53-8.23,1-16.47c.14-2.17.41-4.61,2.12-6a2.73,2.73,0,0,1,1.7-.55c1.58,0,3.21,1.11,2.78,2.61q3.06-5.85,6.11-11.72a13,13,0,0,1,3.52-4.77,5.28,5.28,0,0,1,3-1,3.57,3.57,0,0,1,2.5.92,7.36,7.36,0,0,1,1.6,3.78A10.42,10.42,0,0,0,66.63,80a5.34,5.34,0,0,0,3.53,1.43,3.72,3.72,0,0,0,2.07-.59c1.67-1.09,2.13-3.33,2-5.32s-.6-4-.27-6c.51-3.07,3-5.5,5.85-6.78a28.61,28.61,0,0,1,9.09-1.87c.93-2.34-.23-4.93-.44-7.43-.19-2.23,1.29-5,3.28-5a2.37,2.37,0,0,1,.77.14l5.88-16c.62-1.68,1.74-3.69,3.44-3.69a1.73,1.73,0,0,1,.32,0A3.62,3.62,0,0,1,104.59,31a12.64,12.64,0,0,1,1.57,5.53,12.55,12.55,0,0,0,.44,4.29c1.39,3.38,6.83,4.44,6.9,8.09.67-6.69,1.57-12.68,2.24-19.38a2,2,0,0,1,.38-1.2,3.17,3.17,0,0,1,1.24-.63c1.89-.79,2.39-3.14,3-5.09a33.72,33.72,0,0,1,3.86-7.41c.78-1.24,1.79-2.62,3.3-2.62a2.72,2.72,0,0,1,.55.06,3.47,3.47,0,0,1,2.5,2.74,19.16,19.16,0,0,1,.42,5.7c-.07.95-.1,2.13.74,2.59a1.15,1.15,0,0,0,.57.14,1.77,1.77,0,0,0,1.33-.67,4.25,4.25,0,0,0,.73-2,27.92,27.92,0,0,0,.33-6.06,4.38,4.38,0,0,1,.08-1.45,4.29,4.29,0,0,1,1.35-1.71A21.8,21.8,0,0,0,142.31,2m0-2a1.85,1.85,0,0,0-.7.13,2,2,0,0,0-1.22,1.31,19.73,19.73,0,0,1-5.6,9l-.1.09a5.76,5.76,0,0,0-1.8,2.49,5.57,5.57,0,0,0-.18,2.07v.08q0,.38,0,.75c-.06-.33-.12-.66-.2-1a5.47,5.47,0,0,0-4-4.26,4.57,4.57,0,0,0-1-.1c-2.75,0-4.26,2.4-5,3.56A34.79,34.79,0,0,0,118.48,22c-.08.24-.15.48-.23.72-.42,1.38-.86,2.8-1.66,3.14l-.23.09A3.78,3.78,0,0,0,114.63,27a3.87,3.87,0,0,0-.88,2.33c-.34,3.33-.73,6.54-1.12,9.65q-.27,2.19-.54,4.44l-.86-.63c-1.22-.9-2.38-1.74-2.78-2.74a6.91,6.91,0,0,1-.28-2.44c0-.39,0-.78,0-1.17A14.57,14.57,0,0,0,106.34,30a5.4,5.4,0,0,0-3.87-3.1,4.18,4.18,0,0,0-.61-.05c-1.59,0-3.8.87-5.31,5l-2.9,7.88-2.47,6.72a4.78,4.78,0,0,0-2.81,1.56,7.62,7.62,0,0,0-1.87,5.56,23.15,23.15,0,0,0,.41,2.6A12.79,12.79,0,0,1,87.28,59,26.87,26.87,0,0,0,79,60.93c-3.81,1.71-6.43,4.8-7,8.27a15.61,15.61,0,0,0,.07,4.54c.08.64.15,1.25.18,1.84.08,1.7-.34,3-1.14,3.55a1.67,1.67,0,0,1-1,.26A3.37,3.37,0,0,1,68,78.5a8.52,8.52,0,0,1-2.12-4.38l-.07-.32a8.41,8.41,0,0,0-2.09-4.43,5.55,5.55,0,0,0-3.88-1.48,7.35,7.35,0,0,0-4.19,1.37,14.78,14.78,0,0,0-4.11,5.46L47,83.4a5.55,5.55,0,0,0-2.59-.64,4.69,4.69,0,0,0-2.94,1c-2.34,1.85-2.71,4.79-2.88,7.41l-.09,1.51L36.41,82.48a5.23,5.23,0,0,0-1.29-2.77,4.1,4.1,0,0,0-3-1.14,7.43,7.43,0,0,0-1.79.24c-6.72,1.68-12.28,7.73-14.16,15.42l-.14.56a5.94,5.94,0,0,1-1.18,2.93,5.81,5.81,0,0,1-1,.62l-.74.41c-4.72,2.86-5.89,8.59-6.41,13.81C6.3,116.72,6,121,5.72,125,5,136.19,4.15,147.71.85,158.42a1.86,1.86,0,0,0-.09.47c-.12,2.22-.22,4.46-.31,6.63s-.18,4.36-.31,6.54a36.48,36.48,0,0,0,.11,7.52c.14.91.34,1.77.53,2.61s.36,1.58.47,2.34a23.4,23.4,0,0,1-.43,4.7c-.19,1.32-.37,2.56-.4,3.47A2.05,2.05,0,0,0,1,194.14a2,2,0,0,0,1.43.6c42.62.1,86.16.18,129.7.27l130,.27,1,0c.82,0,1.94.05,3.06.05,3.16,0,4.23-.25,4.93-.66,3.2-1.88,2.26-5.62,1.71-7.85a8.87,8.87,0,0,1-.4-2.26c1.24-8.13-1.1-15.84-3.36-23.3a95.88,95.88,0,0,1-3.11-12.1c-.19-1.14-.34-2.28-.51-3.49-.73-5.45-1.48-11.08-5.42-15.25a31.29,31.29,0,0,0-3.74-3.18c-2.46-1.87-4.58-3.48-4.73-5.75a9.4,9.4,0,0,1,.58-3.09c.17-.61.36-1.24.5-1.9,1.59-7.39-3.12-14-6.08-17.34-1.67-1.86-3.5-3.57-5.27-5.23A55.32,55.32,0,0,1,234.69,87l-.23-.3c-1.78-2.35-4-5.28-7.47-5.28a6.48,6.48,0,0,0-1.56.2,6.58,6.58,0,0,0-4.18,3.64,14.67,14.67,0,0,0-1,7.07c0,.8.05,1.55,0,2.29A14.29,14.29,0,0,1,219,99.94c-1.52-11.1-4.24-21.94-12.3-29a5.83,5.83,0,0,0-3.81-1.75h-.24c-3.22.18-4.07,3.3-4.64,5.37-.42,1.54-.79,2.72-1.36,2.8h-.11a1.15,1.15,0,0,1-1-.87c-.87-3.21-.29-6.52.33-10,.24-1.35.48-2.75.64-4.16a35.28,35.28,0,0,0-5.27-22.91,3.91,3.91,0,0,0-2.52-1.92,3.07,3.07,0,0,0-.53,0,3.93,3.93,0,0,0-2.81,1.44l-.31.3a.72.72,0,0,1-.24-.32,5.76,5.76,0,0,1-.08-2.16c0-.22,0-.45,0-.67.27-4.63-2.18-9.67-6.75-10.1h-.19a2,2,0,0,0-1.92,1.43L171.33,43c0,.1-.09.29-.15.45a5.36,5.36,0,0,1-.63-.15l0,0a4.55,4.55,0,0,1-.63-2.71c0-.89,0-1.8,0-2.76.1-3.83.23-8.17-2.47-11.52l-.22-.26a4,4,0,0,1-.35-.46c0-.06,0-.34,0-.53v-.17a15.57,15.57,0,0,0-8.29-14.22,2,2,0,0,0-.92-.22,2,2,0,0,0-.9.21,2,2,0,0,0-1.07,1.48c-.19,1.23-.4,2.45-.63,3.68l-.55-3.89A11,11,0,0,0,153.49,8a10.93,10.93,0,0,0-4-3.77l-3-2-3-2A2,2,0,0,0,142.31,0Z"/><path class="cls-3" d="M116.46,52.43c-4.52,5.44-3,13.72-6,20.14-2.09,4.53-6.29,7.87-8.11,12.51-1.06,2.68-1.24,5.63-2.18,8.36-2.27,6.56-8.61,11.09-10.79,17.68-1.22,3.7-1,7.7-.77,11.59l.68,11.54c.26,4.44,1.17,9.82,5.33,11.4,2.46.94,5.19.12,7.77-.45,8.13-1.81,16.58-1,24.87-.27l55.12,5.14c2.84.27,3.32,2.54,6,3.56,3.27,1.27,8.4,1.6,10.92,4,1.11,1.07,4.3,1.47,5.83,1.33.69-.07-.57.38,0,0,3.52-2.3,5.57-6.38,6.34-10.51s.42-8.38.07-12.57a8.23,8.23,0,0,0-1-3.92,7.1,7.1,0,0,0-3.54-2.38c-5.52-2.1-12.42-3-15.13-8.24a17.12,17.12,0,0,1-1.4-5.14l-4.16-25.76c-.72-4.44-1.5-9-4.08-12.73-1-1.46-2.3-2.73-3.25-4.24a23.85,23.85,0,0,1-2.66-7.81c-1.18-5.48-2.24-4.87-3.41-10.35-.18-.84-3.06-4.14-3.76-4.65s-5.09-4.32-5.76-4.42c-19-2.88-30.65-1.15-48.48,3.22"/><path class="cls-4" d="M127.39,61.42a9.71,9.71,0,0,0-3.82,2.66"/><path class="cls-4" d="M160.66,61a8.32,8.32,0,0,1,3.72,2.31"/><path class="cls-4" d="M137.34,73.13a11.33,11.33,0,0,1-3.5,2.19,11.5,11.5,0,0,1-2.55.41,7.31,7.31,0,0,1-3.78-.35,7.22,7.22,0,0,1-2.25-2"/><path class="cls-4" d="M152.18,73.38a14,14,0,0,0,5.28,3.23c2.8.72,5.8-.35,8.12-2.08"/><path class="cls-4" d="M138,56.26a13.16,13.16,0,0,0-16.39,4.68"/><path class="cls-4" d="M153.37,56.46a13,13,0,0,1,5.72-1.61,8.06,8.06,0,0,1,4.25.83,8.51,8.51,0,0,1,3.26,3.75"/><path class="cls-4" d="M165.84,48.09a9,9,0,0,0-4.8-1.92,78.58,78.58,0,0,0-40,3.45,4,4,0,0,0-2.51,1.77"/><path class="cls-4" d="M155.9,36.66q.4-5.73.41-11.48"/><path class="cls-4" d="M87.37,115c.43-1.83,2.67-2.5,3.92-3.9,1.73-1.94,1.34-5,2.46-7.31,1.46-3,5.21-4.46,6.7-7.49,1.73-3.53-.07-8.28,2.35-11.38"/><path class="cls-4" d="M218.17,172.61q.69-12.47.82-25"/><path class="cls-4" d="M84.16,119.14l-8.71-7.07a4.66,4.66,0,0,0-2.83-1.36c-1.38,0-2.4,1.23-3.24,2.33l-3.12,4.12A13,13,0,0,0,64.47,120a12.77,12.77,0,0,0-.66,3.94q-.6,10.69-.34,21.41"/><path class="cls-4" d="M68.73,123.26a6.78,6.78,0,0,1,3.5-1.89c2.52-.46,5,.74,7.15,2.19s4.09,3.18,6.51,4"/><path class="cls-4" d="M84.21,119.12a7.2,7.2,0,0,1,4.17,5.56,3.59,3.59,0,0,1-.15,1.84,3.6,3.6,0,0,0-.34,1,1.89,1.89,0,0,0,.18.83c.7,1.83,1.72,3.81,1,5.66a3.77,3.77,0,0,0-.5,1.78,2.67,2.67,0,0,0,.54,1.06,5.35,5.35,0,0,1,1,2.64A2.85,2.85,0,0,1,89.09,142c-.39.27-.85.41-1.25.67a2.46,2.46,0,0,0-.76,3.07"/><path class="cls-4" d="M87.22,135.3A17.44,17.44,0,0,1,81,134.13c-2.16-1-3.9-2.85-6.19-3.47a6.38,6.38,0,0,0-6.58,2.23"/><path class="cls-4" d="M85.58,143.57a5.79,5.79,0,0,1-3.75-.78c-1.16-.61-2.2-1.41-3.37-2a10.32,10.32,0,0,0-9.22.12"/><path class="cls-4" d="M177.9,61.3l4,.47"/><path class="cls-4" d="M185.28,68.44h.9"/><path class="cls-4" d="M25.15,148.28a274,274,0,0,1,37.14-.79"/><path class="cls-4" d="M72.11,148.29c8.72-.75,17.48-.9,26.23-1l31.3-.54c3.2,0,6.4-.11,9.59.15a50,50,0,0,1,17.5,4.69,9.61,9.61,0,0,0,1.83.74,8.77,8.77,0,0,0,2.66.12l19-1.05c2.94-.16,6.68.18,7.65,3"/><path class="cls-4" d="M187.68,154.62c4.24,1.71,9.54-.25,13.36,2.26a8.86,8.86,0,0,1,3.5,5.55,26.4,26.4,0,0,1,.35,6.71"/><path class="cls-4" d="M229.52,120.34l2.14,48.08"/><path class="cls-4" d="M246.94,126.32c1.85,4.83.75,10.29,1.74,15.37.33,1.68.88,3.3,1.15,5,.46,2.9.06,5.85-.16,8.78a71.59,71.59,0,0,0,.09,11.53"/><path class="cls-4" d="M228.6,93.35a73.75,73.75,0,0,0,1.25,17"/><path class="cls-4" d="M39.22,109.2l.4,6.39a13.16,13.16,0,0,0,.63,3.86c.56,1.45,1.62,2.66,2.31,4.06,2.63,5.32-.58,11.91,1.18,17.58"/><path class="cls-4" d="M32.19,84.32q-.24,8.39-.68,16.78"/><path class="cls-4" d="M23.13,92.14l-2,18.31a5.71,5.71,0,0,0,.24,3.13c.56,1.14,1.78,1.77,2.64,2.69,1.75,1.89,1.83,4.74,1.8,7.32l-.13,12.06a4.38,4.38,0,0,1-.54,2.51c-.86,1.21-2.64,1.24-3.89,2.05a4.08,4.08,0,0,0-1.18,5.18,5.57,5.57,0,0,0,4.84,2.75"/><path class="cls-4" d="M82.78,68.46c-2.06,3.55-1,8-1.45,12.09a38.51,38.51,0,0,0-.52,4.13A16.83,16.83,0,0,0,82,90.12"/><path class="cls-4" d="M218.48,123.57l0,7.3"/><path class="cls-4" d="M218.34,103.06a37.19,37.19,0,0,1,.65,16.49"/><path class="cls-4" d="M101,45.06c-1.07,3.75-4.64,6.13-8,8.19"/><path class="cls-4" d="M128.16,99.66a16.4,16.4,0,0,0,7.58,1.33,37.2,37.2,0,0,1,7.76.31,3,3,0,0,0,1,.11,4.11,4.11,0,0,0,1-.3,10.18,10.18,0,0,1,3.7-.3,38.4,38.4,0,0,0,11.19-1.3"/><path class="cls-4" d="M133.16,104.53a5,5,0,0,0,2.53,1.9,9.46,9.46,0,0,0,3.18.46,19.33,19.33,0,0,0,3.39-.3,16.27,16.27,0,0,1,2.58-.4,25.49,25.49,0,0,1,3.79.47,11.1,11.1,0,0,0,6.26-1.14,2.77,2.77,0,0,0,1.56-1.57"/><path class="cls-4" d="M142.93,94c-.05.86-.07,1.72-.05,2.59a.79.79,0,0,0,.12.5.87.87,0,0,0,.32.2,4.1,4.1,0,0,0,2.59.1.86.86,0,0,0,.34-.18.76.76,0,0,0,.15-.42,11.06,11.06,0,0,0,0-3.25"/><path class="cls-4" d="M8.78,191.56c2.62-9.48,1.83-19.87,6-28.8a9.56,9.56,0,0,1,2-3,6,6,0,0,1,7.39-.46c3.71,2.71,3.05,8.57,5.76,12.29.68.93,2,1.73,2.89,1a2.31,2.31,0,0,0,.57-.91c1.63-3.9,1.81-8.49,4.45-11.79a1.94,1.94,0,0,1,1.26-.85c.85-.07,1.42.81,1.86,1.55.85,1.46,2.37,2.95,4,2.48,1.46-.43,2-2.16,3.16-3.18,2-1.8,5.33-1,7.15.92s2.5,4.67,3.11,7.27l6,25.28"/><path class="cls-4" d="M75.8,192.55q1.64-13.55,4.12-27c.35-1.91.78-4,2.18-5.31s4.07-1.53,5.05.15a8.28,8.28,0,0,1,.63,2.33,2.14,2.14,0,0,0,1.49,1.73c1,.15,1.76-.85,2.08-1.79a6,6,0,0,1,1.2-2.68c1.37-1.27,3.61-.2,5,1.1s2.86,2.93,4.72,2.65a4.29,4.29,0,0,1,1.72-.21,2.35,2.35,0,0,1,1.23,1.12,31.57,31.57,0,0,1,4.93,17.75c-.09,3.44-.73,7,.45,10.23"/><path class="cls-4" d="M125.31,193.06c.32-3.32,2.3-6.23,3.3-9.41,2.13-6.78-.23-14.69,3.22-20.9,1.29-2.32,4.19-4.33,6.47-3a6.23,6.23,0,0,1,1.93,2.17c1.07,1.69,2.22,3.46,4,4.38s4.39.55,5.23-1.27c.39-.86.47-2.05,1.36-2.39,1.08-.41,2,1,2.16,2.1s.22,2.54,1.24,3.09,2.38-.31,3.39-1.06c2.22-1.65,5.41-2.74,7.68-1.16,1.75,1.22,2.27,3.54,2.6,5.64a116.57,116.57,0,0,1,1.34,22"/><path class="cls-4" d="M183.3,192.82a50.06,50.06,0,0,1,2.89-13.07c2-5.41,5.09-10.66,9.95-13.75a1.53,1.53,0,0,1,1.21-.33,1.49,1.49,0,0,1,.71.67,10.7,10.7,0,0,1,1.64,5.74,7.36,7.36,0,0,0,.15,2.3,1.7,1.7,0,0,0,1.71,1.28c.38-.06.72-.3,1.11-.33,1-.06,1.47,1.2,1.61,2.2a97,97,0,0,1,.89,15.52"/><path class="cls-4" d="M220.09,193.37A197.41,197.41,0,0,0,225.53,172a10.08,10.08,0,0,1,1.24-3.74,3.33,3.33,0,0,1,3.36-1.59c1.55.38,2.3,2.09,3.06,3.5s2.26,2.86,3.75,2.25c1.07-.43,1.46-1.7,2-2.73s1.7-2.06,2.71-1.49a2.59,2.59,0,0,1,1,1.35c1.24,2.79,3.77,5.64,6.77,5.08.6-.11,1.17-.36,1.78-.43a4.28,4.28,0,0,1,3.8,2,12.66,12.66,0,0,1,1.67,4.15,3,3,0,0,1,.13,1.54c-.4,1.53-2.58,1.45-4,2.19a4.27,4.27,0,0,0-1.85,4.34,12.34,12.34,0,0,0,2,4.57"/><path class="cls-4" d="M131.26,26.22a24.88,24.88,0,0,1-.38,6.38l-.57,3.92"/><path class="cls-4" d="M71,85.36a3.42,3.42,0,0,0,1.78-1.61"/><path class="cls-4" d="M70.94,90.24a6,6,0,0,0,2.86-2.41"/><path class="cls-4" d="M71.42,94.14a17.24,17.24,0,0,0,3-1.52"/><path class="cls-4" d="M48,89.15a93.79,93.79,0,0,1-.79,23.31,28.75,28.75,0,0,0-.64,8.1"/><path class="cls-4" d="M194.2,78.19c-.5,13.19,2.11,26.28,4.71,39.22.14.69.4,1.51,1.09,1.67.85.19,1.46-.79,2.24-1.19,1.19-.61,2.68.32,3.23,1.53a10.37,10.37,0,0,1,.53,3.94c.14,3.33,1.24,6.53,1.85,9.81a65.18,65.18,0,0,1,.82,7.77l1.06,16.12"/><path class="cls-4" d="M119.3,55.59c-1,3-.88,6.31-.76,9.5l.3,7.65a18.08,18.08,0,0,1-.08,3.53c-.33,2.14-1.41,4.11-1.74,6.25a9.46,9.46,0,0,0,5.74,10"/><path class="cls-4" d="M170,54.06a35.73,35.73,0,0,1,.1,14,36.18,36.18,0,0,0-.92,5.36,4.48,4.48,0,0,0,.1,1.37,7.33,7.33,0,0,0,1,1.81,10.58,10.58,0,0,1-3.36,14.44"/><path class="cls-4" d="M171.78,87a38.31,38.31,0,0,0,1.11,9.66A15.79,15.79,0,0,0,174,100c.48,1,1.12,1.82,1.68,2.73a18.3,18.3,0,0,1,2.56,11.1c-.62,6.79-5,12.94-4.88,19.76a28.07,28.07,0,0,1,.1,5.34,21.8,21.8,0,0,1-.8,2.84,22.46,22.46,0,0,0-.92,8.35"/><path class="cls-4" d="M139.25,90.48c.84.09,1.61,1,2.38.66a1,1,0,0,0,.22-1.52,1.75,1.75,0,0,0-1.62-.46,4.52,4.52,0,0,0-2.41,1.66c-.56.64-1.21,1.4-2,1.31a2,2,0,0,1-1.4-1.15,5.28,5.28,0,0,1,.28-5.47"/><path class="cls-4" d="M150.94,90.53a3.12,3.12,0,0,0-1.69.47,1.61,1.61,0,0,1-.56.27.82.82,0,0,1-.86-.71,1.42,1.42,0,0,1,.4-1.13,2.47,2.47,0,0,1,3.28-.32c.44.34.76.84,1.22,1.16a2.38,2.38,0,0,0,2.81-.2,3,3,0,0,0,1-2.74,7,7,0,0,0-2.25-3.58l-.77-.8"/><path class="cls-4" d="M133.93,92.36a30.14,30.14,0,0,1-4,2.21,7.68,7.68,0,0,1-4.47.6,4.46,4.46,0,0,1-3.39-2.77"/><path class="cls-4" d="M154.2,90.68a3.75,3.75,0,0,1,2.63.21c.84.33,1.58.89,2.43,1.18,3.23,1.14,4.63,1.75,7.3-.43"/><path class="cls-4" d="M123.58,69.61a9,9,0,0,1,11.23-4.81,3.78,3.78,0,0,1,2.09,1.52,4.69,4.69,0,0,1,.37,2.44,3,3,0,0,0-2.39-.65c-.71.13-1.35.52-2,.72a3.92,3.92,0,0,1-3.72-1"/><path class="cls-4" d="M165.84,69.39A18.54,18.54,0,0,0,163,66.57a6.61,6.61,0,0,0-1.4-1,6.45,6.45,0,0,0-3.6-.22c-2.29.3-4.8.78-6.21,2.61a1,1,0,0,0-.25,1.06c.25.45.92.35,1.4.16a4.94,4.94,0,0,1,1.52-.46c1.1-.06,2.05.72,3.11,1a3.65,3.65,0,0,0,4-1.58"/><path class="cls-4" d="M157,104.28a18.76,18.76,0,0,1,3,18.19c-1,2.59-2.58,5.11-2.44,7.89.11,2.1,1.23,4.13.92,6.22-.45,2.9-3.53,4.89-3.91,7.8"/><path class="cls-4" d="M132,105.35c-1.8,2.73-3.65,5.83-3.11,9.05.3,1.8,1.32,3.39,2,5.09a13.46,13.46,0,0,1,.91,4.25,10.65,10.65,0,0,0,.48,3.91,13.83,13.83,0,0,0,1.53,2.21c2.44,3.49,1.82,8.27,3.42,12.22"/><path class="cls-4" d="M165.27,92.75a6.38,6.38,0,0,0,.18,5.52,50.8,50.8,0,0,0,3,4.86,20.4,20.4,0,0,1,2.85,12.41"/><path class="cls-4" d="M164.37,108.24a38.4,38.4,0,0,1,2.28,7.05,12.75,12.75,0,0,1-.59,7.29c-.68,1.59-1.84,3.16-1.55,4.86a10.37,10.37,0,0,0,.85,2.18,7.35,7.35,0,0,1,.22,5c-.6,1.92-2,3.49-2.84,5.29a11.88,11.88,0,0,0-.78,8.33"/><path class="cls-4" d="M138.93,107a10.07,10.07,0,0,0-1.68,8,25.23,25.23,0,0,0,1.56,4.2,30,30,0,0,1,2.63,10.4c.14,3.31-.49,6.76.65,9.87"/><path class="cls-4" d="M152.8,111.56a9.54,9.54,0,0,1-.76,8.12,6.63,6.63,0,0,0-1.2,2.46,15.07,15.07,0,0,0,.33,2.73c.08,1.68-1,3.17-1.74,4.66-2.49,4.85-2.06,10.61-1.58,16"/><path class="cls-4" d="M144.68,106.85c-.09,2.25.58,4.45,1,6.68a26.2,26.2,0,0,1-.41,10.83"/><path class="cls-4" d="M134.92,65.62a1.85,1.85,0,0,1-.61,1.82,3.86,3.86,0,0,1-1.82.81,4.79,4.79,0,0,1-2.32,0,2.58,2.58,0,0,1-1.71-1.49c-.1-.25-.14-.52-.23-.78"/><path class="cls-4" d="M154.44,67A2.47,2.47,0,0,0,156,68.82a4.59,4.59,0,0,0,4.25.24,3.12,3.12,0,0,0,1.55-2.6"/><path class="cls-4" d="M116.55,86c-2.69,3.19-3.61,7.48-4.44,11.58-.51,2.54-1,5.22-.21,7.68.45,1.36,1.28,2.6,1.48,4,.22,1.64-.44,3.25-.94,4.83a12,12,0,0,0-.2,7.81,24.35,24.35,0,0,0,2.56,4.22,23.22,23.22,0,0,1,3.59,9.86,9.74,9.74,0,0,0,.56,2.79,16.23,16.23,0,0,0,2.43,3.08,7.9,7.9,0,0,1,1.68,4.34"/><path class="cls-4" d="M121.62,92.68a7.72,7.72,0,0,1-1,3.58,20.5,20.5,0,0,0-1.94,6.32c-.52,5,1.84,9.87,1.35,14.83-.17,1.72-.67,3.51-.06,5.13"/><path class="cls-4" d="M121.17,125.86a28.18,28.18,0,0,1,4.5,8.18"/><path class="cls-4" d="M112.4,74.49c2.19,4,1,8.94-.92,13s-4.71,7.83-5.78,12.22c-1.6,6.62.78,14-2.16,20.16-.64,1.35-1.52,2.57-2.09,4a10,10,0,0,0,.15,8"/><path class="cls-4" d="M107.37,122.42a5.6,5.6,0,0,0-.69,2.42c-.53,4.42-.39,9.3,2.43,12.75.8,1,1.8,1.82,2.61,2.8a5.08,5.08,0,0,1,1.36,3.49"/><path class="cls-4" d="M173.67,66.07a39.22,39.22,0,0,0,6.13,16.28,69.2,69.2,0,0,1,4.82,7.34,30.55,30.55,0,0,1,2.55,9.48,21.79,21.79,0,0,1,0,8c-.5,2.09-1.54,4-2.09,6.11a13.51,13.51,0,0,0,.85,9.09"/><path class="cls-4" d="M178.07,89.28A5.94,5.94,0,0,1,180,91.9c.6,1.25,1.16,2.53,1.69,3.81a7.77,7.77,0,0,1,.82,3.48,9.72,9.72,0,0,1-.59,2.3,47.48,47.48,0,0,0-1.6,8.21"/><path class="cls-4" d="M187.64,108.88c1,4.71,2,9.67.56,14.27-1.19,3.83-3.94,7-5.41,10.71a17.26,17.26,0,0,0-.8,10"/><path class="cls-4" d="M119.37,50.34c-2.39,1.32-3.41,4.23-3.73,6.95s-.16,5.52-1.09,8.1c-1.07,3-3.43,5.23-5.68,7.45-1.38,1.37-2.84,3-2.86,4.91a8.87,8.87,0,0,0,.73,3c.78,2.24,1.12,5-.54,6.71"/></g></g></svg>