<svg xmlns="http://www.w3.org/2000/svg" width="361.386" height="399.166" viewBox="0 0 361.386 399.166"><defs><style>.a,.o{isolation:isolate;}.b{fill:#92dac2;}.c,.n{fill:#fff;}.d{fill:#1a1818;}.e{fill:#4bbaa2;}.f{opacity:0.3;}.g{fill:#3b3a37;}.h{fill:#c28846;}.i{fill:#130f0f;}.j{fill:#aeb0b3;}.k{fill:#c7c9cb;}.l{fill:#2d2c2d;}.m{fill:#ffb100;}.n{stroke:#1a1818;stroke-miterlimit:10;stroke-width:0.25px;}.o{opacity:0.39;}</style></defs><g transform="translate(-598.35 -380.498)"><g transform="translate(375.272 -126.711)"><g transform="translate(-2355.519 839.709)"><g transform="translate(2603.443 -332.501)"><g class="a"><path class="b" d="M2645.62-272.153c12.77,26.784,11.342,53.269-1.643,79.949-2.529,5.2,1.852,17.731-.448,23.034-4.439,10.235-3.754,19.795-4.985,20.821a2.754,2.754,0,0,1-1.417.489,19.978,19.978,0,0,1-8.159-.22c1.86-5.737,5.552-13.052,5.488-19.724-.047-4.833-1.017-10.589-3.007-14.479-1.626-3.179-3.244-4.862-6.431-5.579-3.625-.816-5.049,2.789-4.8,6.5s.912,5.455,1.994,9.01c1.723,5.667-1.14,7.591-1.265,17.063-.016,1.177.461,5.206-.408,6a4.772,4.772,0,0,1-2.566,1,19.6,19.6,0,0,1-8.966-.746c4.521-5.381,7.8-9.075,7.765-16.1a18.48,18.48,0,0,0-2.658-8.35c-1.613-2.7-4.233-7.1-6.529-9.247-3.147-2.937-8.715-10.575-12.221-17.758-3.141-6.434-2.8-14.183-2.149-19.654s2.365-10.753,3.433-16.157c1.833-9.285,1.746-18.827,1.652-28.291l-.214-21.414c-.023-2.406-1.051-5.715-3.419-5.283a4.2,4.2,0,0,0-2.2,1.6l-6.66,7.6c-1.243,1.418-2.827,2.97-4.692,2.7-2.612-.386-7.3-5.341-7.1-7.974.58-7.6,7.393-13.31,10.46-20.285,2.331-5.3,5.221-10.944,10.5-13.329,6.1-2.757,13.2-.213,19.228,2.7,3.87,1.872,9.418,8.468,12.267,11.687C2638.29-293.249,2641.025-281.79,2645.62-272.153Z" transform="translate(-2574.011 334.799)"/><path class="b" d="M2588.49-316.885l-7.158-4.48c3.3-5.34,9.757-15.746,23.985-15.685,9.034.038,18.527,6.009,25.061,12.249s12.165,17.966,15.083,26.516c7.734,22.657,9.093,27.539,8.2,34.657" transform="translate(-2576.864 340.595)"/><path class="b" d="M2612.262-320.332c-1.947-.322-3.193-2.508-3.164-4.54a11.347,11.347,0,0,1,2.079-5.621,95.281,95.281,0,0,1,9.167-12,1.062,1.062,0,0,1,1.845.481l1.538,7.587c.349,1.727.638,3.466.814,5.22.275,2.73.3,5.895-1.25,8.255-1.267,1.924-3.85,3.079-5.878,2.057" transform="translate(-2587.685 342.858)"/><g transform="translate(66.424 116.907)"><path class="b" d="M2683.948-149.551c1.192-.222,2.232,1.788,2.784,2.581q1.038,1.491,1.986,3.041a43.481,43.481,0,0,1,3.421,6.8,28.579,28.579,0,0,1,1.808,15.467c-.8,4.315-3.607,8.721-1.944,13.185,1.452,3.9,5.913,4.264,8.349,7.2.69.829,1.74-.23,1.375-1.061a16.032,16.032,0,0,1-1.387-6.323c-.01-1.686.331-3.407-.07-5.073-.675-2.8-3.272-4.315-5.661-5.523-1-.508-1.891,1-.885,1.512a13.384,13.384,0,0,1,3.587,2.293c1.387,1.406,1.441,3.077,1.35,4.945a19.472,19.472,0,0,0,1.552,9.053l1.375-1.061c-1.332-1.6-3.178-2.415-4.94-3.445a6.242,6.242,0,0,1-3.363-6.429c.26-2.825,1.626-5.433,2.225-8.188a26.335,26.335,0,0,0,.511-7.405,35.859,35.859,0,0,0-4.3-14.2,55.033,55.033,0,0,0-4.183-6.655c-1.035-1.421-2.153-2.755-4.061-2.4-1.107.207-.638,1.9.466,1.689Z" transform="translate(-2682.85 151.298)"/><path class="b" d="M2700.2-97.357c-.567,2.058-1.226,2.948-1.61,5.047a7.842,7.842,0,0,0,1.052,6.13c1.852,2.454,5.5,2.981,7.363,5.428a16.469,16.469,0,0,1-1.5-7.4c.051-1.605.331-3.269-.217-4.778-.788-2.168-3.027-3.394-5.09-4.427" transform="translate(-2688.912 130.277)"/></g></g><g transform="translate(7.782 23.877)"><g transform="translate(10.58 0.597)"><path class="c" d="M2606.888-294.884a3.577,3.577,0,0,1-.11,1.113c-.838,3.208-3.336,3.641-5.455,3.053a4.85,4.85,0,0,1-3.4-4.776A17.548,17.548,0,0,1,2606.888-294.884Z" transform="translate(-2597.689 296.053)"/></g><path class="c" d="M2580.619-296.258a3.581,3.581,0,0,0,.015,1.117c.564,3.268,3.017,3.91,5.178,3.5a4.851,4.851,0,0,0,3.8-4.472A17.542,17.542,0,0,0,2580.619-296.258Z" transform="translate(-2580.354 297.031)"/><g transform="translate(2.726 3.489)"><circle class="d" cx="1.007" cy="1.007" r="1.007"/></g><g transform="translate(13.283 4.14)"><circle class="d" cx="1.007" cy="1.007" r="1.007"/></g></g></g><g transform="translate(2813.253 -325.531)"><g class="a" transform="translate(0)"><path class="b" d="M2956.431-333.205c12.84,26.931,11.4,53.562-1.653,80.389-2.542,5.225,1.862,17.83-.451,23.16-4.464,10.291-3.775,19.9-5.012,20.936a2.777,2.777,0,0,1-1.424.492,20.1,20.1,0,0,1-8.2-.222c1.87-5.769,5.582-13.125,5.518-19.833-.047-4.859-1.022-10.647-3.023-14.558-1.635-3.2-3.263-4.889-6.466-5.61-3.646-.821-5.077,2.8-4.823,6.532s.917,5.485,2,9.059c1.733,5.7-1.145,7.633-1.271,17.157-.017,1.183.463,5.235-.41,6.033a4.8,4.8,0,0,1-2.581,1,19.712,19.712,0,0,1-9.015-.75c4.545-5.411,7.841-9.125,7.807-16.191a18.579,18.579,0,0,0-2.672-8.4c-1.622-2.71-4.256-7.142-6.566-9.3-3.163-2.953-8.762-10.634-12.287-17.856-3.158-6.47-2.816-14.262-2.161-19.762s2.378-10.812,3.453-16.246c1.843-9.335,1.755-18.931,1.661-28.446l-.215-21.533c-.023-2.42-1.057-5.746-3.437-5.311a4.217,4.217,0,0,0-2.215,1.609l-6.7,7.638c-1.25,1.426-2.842,2.987-4.719,2.71-2.626-.387-7.34-5.371-7.138-8.018.584-7.639,7.435-13.382,10.519-20.4,2.344-5.33,5.249-11,10.554-13.4,6.134-2.772,13.276-.215,19.335,2.716,3.891,1.881,9.469,8.514,12.334,11.751C2949.06-354.418,2951.811-342.9,2956.431-333.205Z" transform="translate(-2884.427 396.196)"/><path class="b" d="M2898.947-378.1l-7.2-4.5c3.32-5.37,9.812-15.833,24.118-15.772,9.084.039,18.629,6.042,25.2,12.316S2953.3-368,2956.23-359.4c7.777,22.782,9.142,27.69,8.247,34.847" transform="translate(-2887.255 401.942)"/><path class="b" d="M2922.7-381.536c-1.957-.324-3.211-2.522-3.181-4.564a11.4,11.4,0,0,1,2.091-5.652,95.677,95.677,0,0,1,9.218-12.061,1.067,1.067,0,0,1,1.854.483l1.545,7.629a53.093,53.093,0,0,1,.819,5.249c.277,2.745.306,5.928-1.257,8.3-1.274,1.935-3.871,3.1-5.91,2.068" transform="translate(-2897.983 404.186)"/><g transform="translate(66.79 117.551)"><path class="b" d="M2994.371-210.868c1.2-.224,2.243,1.8,2.8,2.6.7,1,1.364,2.017,2,3.057a43.767,43.767,0,0,1,3.44,6.841,28.74,28.74,0,0,1,1.817,15.552c-.8,4.34-3.628,8.769-1.955,13.258,1.46,3.918,5.947,4.288,8.4,7.236.693.834,1.748-.231,1.383-1.067a16.1,16.1,0,0,1-1.395-6.358c-.01-1.695.333-3.426-.071-5.1-.678-2.818-3.289-4.338-5.692-5.554-1.008-.511-1.9,1.009-.888,1.521a13.415,13.415,0,0,1,3.606,2.306c1.4,1.413,1.449,3.093,1.358,4.971a19.582,19.582,0,0,0,1.561,9.1l1.383-1.068c-1.339-1.613-3.2-2.428-4.967-3.463a6.273,6.273,0,0,1-3.382-6.465c.262-2.841,1.635-5.463,2.237-8.233a26.493,26.493,0,0,0,.515-7.445,36.074,36.074,0,0,0-4.32-14.281,55.569,55.569,0,0,0-4.205-6.691c-1.041-1.429-2.166-2.77-4.084-2.412-1.114.207-.642,1.905.469,1.7Z" transform="translate(-2993.267 212.625)"/><path class="b" d="M3010.629-158.685c-.571,2.069-1.233,2.964-1.62,5.075a7.882,7.882,0,0,0,1.058,6.164c1.861,2.467,5.532,3,7.4,5.458a16.567,16.567,0,0,1-1.507-7.441c.052-1.615.333-3.287-.218-4.8-.792-2.18-3.042-3.412-5.116-4.451" transform="translate(-2999.277 191.785)"/></g></g><g transform="translate(7.804 25.031)"><g transform="translate(10.637 0.6)"><path class="c" d="M2917.353-356.206a3.582,3.582,0,0,1-.11,1.118c-.843,3.226-3.354,3.662-5.485,3.07a4.876,4.876,0,0,1-3.422-4.8A17.635,17.635,0,0,1,2917.353-356.206Z" transform="translate(-2908.104 357.382)"/></g><path class="c" d="M2891.035-357.583a3.621,3.621,0,0,0,.015,1.124c.569,3.286,3.033,3.932,5.206,3.523a4.877,4.877,0,0,0,3.817-4.5A17.639,17.639,0,0,0,2891.035-357.583Z" transform="translate(-2890.77 358.36)"/><g transform="translate(2.746 1.869)"><circle class="d" cx="1.013" cy="1.013" r="1.013"/></g><g transform="translate(12.693 2.498)"><circle class="d" cx="1.013" cy="1.013" r="1.013"/></g></g></g><g transform="translate(2752.26 -295.45)"><g class="a" transform="translate(0)"><path class="e" d="M2761.382-259.414c16.023,33.6,14.229,66.834-2.061,100.309-3.173,6.52,2.323,22.247-.563,28.9-5.571,12.841-4.711,24.836-6.255,26.123a3.449,3.449,0,0,1-1.778.614,25.063,25.063,0,0,1-10.237-.276c2.334-7.2,6.965-16.376,6.885-24.747-.059-6.064-1.275-13.286-3.772-18.166-2.04-3.989-4.071-6.1-8.068-7-4.549-1.024-6.333,3.5-6.017,8.15s1.144,6.845,2.5,11.3c2.163,7.11-1.428,9.524-1.588,21.408-.02,1.476.58,6.532-.51,7.528a5.985,5.985,0,0,1-3.22,1.25,24.592,24.592,0,0,1-11.249-.936c5.672-6.751,9.782-11.386,9.74-20.2-.015-3.338-1.619-7.613-3.333-10.476-2.023-3.382-5.312-8.911-8.193-11.6-3.949-3.685-10.933-13.268-15.332-22.28-3.94-8.073-3.515-17.795-2.7-24.659s2.967-13.491,4.307-20.271c2.3-11.649,2.191-23.622,2.074-35.5l-.268-26.868c-.031-3.019-1.321-7.171-4.29-6.628a5.264,5.264,0,0,0-2.763,2.008l-8.357,9.53c-1.559,1.779-3.546,3.727-5.887,3.381-3.278-.484-9.159-6.7-8.906-10,.727-9.533,9.275-16.7,13.124-25.45,2.925-6.65,6.55-13.731,13.17-16.723,7.654-3.459,16.565-.267,24.125,3.389,4.856,2.348,11.817,10.624,15.39,14.663C2752.185-285.883,2755.617-271.505,2761.382-259.414Z" transform="translate(-2671.537 338.012)"/><path class="e" d="M2687.839-311.75l-8.982-5.62c4.143-6.7,12.243-19.756,30.094-19.679,11.334.048,23.245,7.539,31.442,15.368s15.263,22.541,18.924,33.268c9.7,28.427,11.407,34.552,10.289,43.482" transform="translate(-2673.252 341.497)"/><path class="e" d="M2710.594-314.6c-2.442-.4-4.006-3.147-3.969-5.7s1.281-4.9,2.609-7.052a119.552,119.552,0,0,1,11.5-15.05,1.331,1.331,0,0,1,2.314.6l1.929,9.519c.439,2.166.8,4.349,1.022,6.549.344,3.426.381,7.4-1.569,10.358-1.589,2.414-4.83,3.863-7.374,2.58" transform="translate(-2670.758 344.858)"/><path class="e" d="M2710.594-314.6c-2.442-.4-4.006-3.147-3.969-5.7s1.281-4.9,2.609-7.052a119.552,119.552,0,0,1,11.5-15.05,1.331,1.331,0,0,1,2.314.6l1.929,9.519c.439,2.166.8,4.349,1.022,6.549.344,3.426.381,7.4-1.569,10.358-1.589,2.414-4.83,3.863-7.374,2.58" transform="translate(-2690.316 344.858)"/><g transform="translate(83.339 146.678)"><path class="e" d="M2781.754-149.106c1.5-.279,2.8,2.243,3.492,3.238q1.3,1.871,2.492,3.816a54.633,54.633,0,0,1,4.292,8.535,35.861,35.861,0,0,1,2.269,19.406c-1,5.414-4.528,10.942-2.439,16.543,1.82,4.888,7.418,5.349,10.474,9.028.864,1.041,2.183-.289,1.726-1.332a20.1,20.1,0,0,1-1.739-7.933c-.013-2.116.415-4.275-.088-6.365-.848-3.515-4.1-5.414-7.1-6.93-1.259-.637-2.373,1.258-1.109,1.9a16.8,16.8,0,0,1,4.5,2.877c1.74,1.764,1.807,3.861,1.694,6.2a24.421,24.421,0,0,0,1.948,11.358l1.726-1.332c-1.673-2.012-3.987-3.03-6.2-4.322a7.832,7.832,0,0,1-4.22-8.067c.329-3.544,2.041-6.817,2.792-10.273a33.034,33.034,0,0,0,.64-9.291,45,45,0,0,0-5.389-17.819,69.339,69.339,0,0,0-5.248-8.349c-1.3-1.783-2.7-3.457-5.1-3.011-1.388.26-.8,2.378.585,2.119Z" transform="translate(-2780.377 151.298)"/><path class="e" d="M2798.187-97.357c-.712,2.582-1.539,3.7-2.022,6.332s-.293,5.554,1.32,7.691c2.324,3.079,6.9,3.74,9.238,6.81a20.7,20.7,0,0,1-1.879-9.285c.065-2.014.416-4.1-.272-5.995-.988-2.721-3.8-4.258-6.384-5.554" transform="translate(-2784.021 138.66)"/></g></g><g transform="translate(10.746 32.976)"><g transform="translate(13.273 0.748)"><path class="c" d="M2706.7-294.646a4.515,4.515,0,0,1-.137,1.4c-1.052,4.025-4.185,4.568-6.844,3.831a6.086,6.086,0,0,1-4.271-5.992S2701.522-296.721,2706.7-294.646Z" transform="translate(-2695.158 296.112)"/></g><path class="c" d="M2678.153-296.12a4.525,4.525,0,0,0,.019,1.4c.708,4.1,3.786,4.906,6.5,4.4a6.085,6.085,0,0,0,4.762-5.61S2683.486-297.751,2678.153-296.12Z" transform="translate(-2677.822 297.091)"/><g transform="translate(1.824 3.859)"><circle class="d" cx="1.263" cy="1.263" r="1.263"/></g><g transform="translate(14.59 3.859)"><circle class="d" cx="1.263" cy="1.263" r="1.263"/></g></g></g><g transform="translate(2839.176 -238.874)"><g class="a"><path class="e" d="M2838.035-263.112c15.078,31.625,13.392,62.9-1.94,94.4-2.986,6.136,2.186,20.936-.529,27.2-5.243,12.084-4.433,23.372-5.886,24.584a3.252,3.252,0,0,1-1.673.578,23.585,23.585,0,0,1-9.634-.26c2.2-6.774,6.556-15.411,6.478-23.289-.055-5.706-1.2-12.5-3.549-17.1-1.921-3.754-3.83-5.74-7.593-6.588-4.281-.963-5.96,3.293-5.663,7.67s1.077,6.441,2.354,10.639c2.036,6.691-1.345,8.963-1.494,20.147-.019,1.389.545,6.147-.48,7.085a5.637,5.637,0,0,1-3.031,1.176,23.145,23.145,0,0,1-10.586-.881c5.337-6.353,9.207-10.715,9.168-19.013a21.836,21.836,0,0,0-3.138-9.859c-1.9-3.183-5-8.386-7.71-10.918-3.716-3.468-10.289-12.486-14.429-20.968-3.708-7.6-3.307-16.746-2.537-23.206s2.792-12.7,4.053-19.077c2.166-10.963,2.063-22.23,1.951-33.4l-.252-25.285c-.029-2.841-1.242-6.748-4.037-6.237a4.956,4.956,0,0,0-2.6,1.89l-7.864,8.968c-1.467,1.674-3.337,3.507-5.541,3.182-3.084-.455-8.619-6.307-8.382-9.415.685-8.971,8.73-15.715,12.352-23.951,2.753-6.258,6.165-12.922,12.395-15.738,7.2-3.255,15.588-.252,22.7,3.189,4.569,2.21,11.12,10,14.484,13.8C2829.379-288.021,2832.609-274.491,2838.035-263.112Z" transform="translate(-2753.483 337.079)"/><path class="e" d="M2769.256-313.241l-8.452-5.289c3.9-6.305,11.52-18.592,28.32-18.52,10.667.045,21.875,7.095,29.59,14.462s14.364,21.213,17.81,31.308c9.131,26.752,10.734,32.516,9.683,40.92" transform="translate(-2755.529 341.235)"/><path class="e" d="M2792.307-316.261c-2.3-.381-3.771-2.962-3.735-5.361s1.206-4.612,2.455-6.637a112.457,112.457,0,0,1,10.823-14.163,1.253,1.253,0,0,1,2.177.568l1.816,8.958c.414,2.039.753,4.093.961,6.163.326,3.224.36,6.96-1.474,9.747-1.5,2.272-4.546,3.635-6.94,2.428" transform="translate(-2763.287 342.858)"/><g transform="translate(78.429 138.036)"><path class="e" d="M2863.619-149.235c1.407-.262,2.635,2.111,3.287,3.047.816,1.174,1.6,2.369,2.346,3.591a51.443,51.443,0,0,1,4.039,8.032,33.753,33.753,0,0,1,2.134,18.263c-.944,5.1-4.26,10.3-2.3,15.568,1.715,4.6,6.983,5.034,9.859,8.5.814.979,2.053-.272,1.625-1.253a18.881,18.881,0,0,1-1.638-7.466c-.012-1.991.39-4.023-.085-5.99-.8-3.308-3.862-5.095-6.683-6.521-1.184-.6-2.233,1.184-1.045,1.786a15.8,15.8,0,0,1,4.235,2.708c1.638,1.66,1.7,3.633,1.595,5.838a22.984,22.984,0,0,0,1.833,10.689l1.624-1.253c-1.574-1.894-3.752-2.851-5.833-4.067a7.371,7.371,0,0,1-3.972-7.591c.309-3.336,1.921-6.415,2.628-9.668a31.054,31.054,0,0,0,.6-8.744,42.313,42.313,0,0,0-5.072-16.769,65.1,65.1,0,0,0-4.938-7.857c-1.223-1.678-2.543-3.253-4.8-2.833-1.307.244-.753,2.238.55,1.995Z" transform="translate(-2862.323 151.298)"/><path class="e" d="M2880-97.357c-.67,2.43-1.448,3.48-1.9,5.959s-.275,5.226,1.242,7.238c2.187,2.9,6.5,3.519,8.694,6.409a19.46,19.46,0,0,1-1.769-8.738c.061-1.9.391-3.859-.256-5.642-.93-2.56-3.574-4.007-6.009-5.227" transform="translate(-2866.669 136.227)"/></g></g><g transform="translate(11.467 27.915)"><g transform="translate(12.491 0.704)"><path class="c" d="M2787.981-294.715a4.222,4.222,0,0,1-.13,1.314c-.99,3.788-3.938,4.3-6.44,3.605a5.725,5.725,0,0,1-4.02-5.639S2783.112-296.668,2787.981-294.715Z" transform="translate(-2777.12 296.095)"/></g><path class="c" d="M2760.1-296.16a4.249,4.249,0,0,0,.017,1.319c.667,3.859,3.563,4.617,6.114,4.137a5.727,5.727,0,0,0,4.482-5.28S2765.115-297.695,2760.1-296.16Z" transform="translate(-2759.786 297.073)"/><g transform="translate(3.219 3.386)"><circle class="d" cx="1.189" cy="1.189" r="1.189"/></g><g transform="translate(15.683 3.386)"><circle class="d" cx="1.189" cy="1.189" r="1.189"/></g></g></g><g transform="translate(2578.596 -266.335)"><g class="a" transform="translate(0)"><path class="e" d="M2675.773-181.478c15.654,32.835,13.9,65.3-2.014,98.011-3.1,6.371,2.27,21.738-.551,28.237-5.442,12.547-4.6,24.268-6.11,25.525a3.38,3.38,0,0,1-1.737.6,24.506,24.506,0,0,1-10-.27c2.281-7.034,6.806-16,6.727-24.181-.056-5.924-1.246-12.981-3.685-17.749-1.994-3.9-3.978-5.961-7.883-6.84-4.444-1-6.189,3.418-5.879,7.963s1.118,6.687,2.443,11.045c2.113,6.948-1.4,9.306-1.551,20.918-.019,1.442.566,6.383-.5,7.356a5.844,5.844,0,0,1-3.146,1.221,24.018,24.018,0,0,1-10.991-.914c5.542-6.6,9.559-11.125,9.518-19.74-.016-3.26-1.582-7.438-3.257-10.236-1.978-3.3-5.19-8.707-8.005-11.335-3.858-3.6-10.683-12.965-14.982-21.77-3.85-7.888-3.434-17.388-2.634-24.094s2.9-13.183,4.208-19.808c2.248-11.382,2.142-23.081,2.025-34.682l-.261-26.253c-.029-2.95-1.29-7.006-4.191-6.475a5.142,5.142,0,0,0-2.7,1.962l-8.165,9.312c-1.524,1.739-3.466,3.641-5.753,3.3-3.2-.472-8.949-6.548-8.7-9.776.711-9.314,9.063-16.316,12.824-24.867,2.858-6.5,6.4-13.417,12.868-16.34,7.477-3.379,16.186-.262,23.572,3.311,4.744,2.294,11.545,10.381,15.038,14.327C2666.786-207.341,2670.14-193.292,2675.773-181.478Z" transform="translate(-2587.985 258.276)"/><path class="e" d="M2604.081-232.957l-8.776-5.491c4.048-6.547,11.962-19.3,29.405-19.229,11.075.048,22.712,7.366,30.721,15.016s14.914,22.025,18.492,32.506c9.481,27.776,11.144,33.76,10.053,42.486" transform="translate(-2589.828 262.022)"/><path class="e" d="M2626.952-235.87c-2.387-.4-3.914-3.075-3.878-5.565s1.252-4.789,2.549-6.891a116.816,116.816,0,0,1,11.238-14.7,1.3,1.3,0,0,1,2.261.589l1.885,9.3c.429,2.117.782,4.25,1,6.4.338,3.347.374,7.227-1.531,10.12-1.554,2.36-4.721,3.775-7.207,2.521" transform="translate(-2584.821 265.484)"/><path class="e" d="M2626.952-235.87c-2.387-.4-3.914-3.075-3.878-5.565s1.252-4.789,2.549-6.891a116.816,116.816,0,0,1,11.238-14.7,1.3,1.3,0,0,1,2.261.589l1.885,9.3c.429,2.117.782,4.25,1,6.4.338,3.347.374,7.227-1.531,10.12-1.554,2.36-4.721,3.775-7.207,2.521" transform="translate(-2602.821 264.031)"/><g transform="translate(81.43 143.319)"><path class="e" d="M2698.171-69.782c1.462-.273,2.736,2.191,3.413,3.164.847,1.218,1.663,2.459,2.435,3.727a53.4,53.4,0,0,1,4.194,8.341,35.056,35.056,0,0,1,2.216,18.962c-.982,5.29-4.425,10.691-2.385,16.163,1.78,4.776,7.25,5.227,10.236,8.822.844,1.017,2.132-.281,1.686-1.3a19.61,19.61,0,0,1-1.7-7.752c-.013-2.066.405-4.177-.088-6.219-.827-3.436-4.01-5.29-6.939-6.772-1.231-.622-2.319,1.23-1.083,1.855a16.367,16.367,0,0,1,4.4,2.812c1.7,1.723,1.766,3.772,1.656,6.061a23.869,23.869,0,0,0,1.9,11.1l1.687-1.3c-1.634-1.967-3.9-2.961-6.057-4.223a7.652,7.652,0,0,1-4.123-7.882c.32-3.463,1.995-6.661,2.728-10.038a32.2,32.2,0,0,0,.625-9.078,43.919,43.919,0,0,0-5.267-17.411,67.817,67.817,0,0,0-5.125-8.158c-1.27-1.742-2.641-3.377-4.98-2.941-1.356.253-.781,2.323.572,2.071Z" transform="translate(-2696.825 71.924)"/><path class="e" d="M2714.582-17.984c-.7,2.523-1.5,3.614-1.976,6.187s-.285,5.426,1.292,7.515c2.27,3.008,6.745,3.654,9.026,6.654a20.182,20.182,0,0,1-1.837-9.072c.064-1.968.407-4.007-.265-5.858-.966-2.658-3.71-4.16-6.239-5.427" transform="translate(-2700.742 58.34)"/></g></g><g transform="translate(8.637 30.175)"><g transform="translate(12.969 0.731)"><path class="c" d="M2622.889-215.3a4.415,4.415,0,0,1-.135,1.363c-1.028,3.933-4.09,4.464-6.688,3.743a5.945,5.945,0,0,1-4.174-5.855S2617.832-217.327,2622.889-215.3Z" transform="translate(-2611.612 216.732)"/></g><path class="c" d="M2594.6-216.762a4.389,4.389,0,0,0,.018,1.369c.693,4.006,3.7,4.794,6.348,4.3a5.947,5.947,0,0,0,4.654-5.482S2599.81-218.356,2594.6-216.762Z" transform="translate(-2594.277 217.71)"/><g transform="translate(3.342 4.282)"><circle class="d" cx="1.235" cy="1.235" r="1.235"/></g><g transform="translate(16.283 5.075)"><circle class="d" cx="1.235" cy="1.235" r="1.235"/></g></g></g><g transform="translate(2648.819 -316.292)"><g class="a"><path class="e" d="M2783.327-174.473c17.443,36.585,15.492,72.763-2.245,109.207-3.454,7.1,2.529,24.221-.612,31.463-6.064,13.98-5.128,27.04-6.809,28.441a3.77,3.77,0,0,1-1.936.669,27.3,27.3,0,0,1-11.145-.3c2.54-7.837,7.584-17.83,7.5-26.943-.064-6.6-1.389-14.464-4.107-19.776-2.221-4.343-4.431-6.642-8.784-7.621-4.952-1.115-6.9,3.809-6.552,8.873s1.246,7.451,2.724,12.307c2.355,7.741-1.556,10.369-1.728,23.307-.023,1.607.629,7.112-.557,8.2a6.518,6.518,0,0,1-3.506,1.36,26.763,26.763,0,0,1-12.246-1.019c6.174-7.35,10.652-12.4,10.606-22-.019-3.633-1.763-8.287-3.63-11.406-2.2-3.681-5.783-9.7-8.92-12.629-4.3-4.012-11.9-14.446-16.693-24.257-4.29-8.789-3.826-19.374-2.935-26.846s3.23-14.689,4.689-22.07c2.5-12.682,2.384-25.717,2.256-38.644l-.291-29.252c-.033-3.287-1.436-7.806-4.67-7.215a5.728,5.728,0,0,0-3.009,2.186l-9.1,10.375c-1.7,1.937-3.862,4.057-6.41,3.681-3.567-.526-9.972-7.3-9.7-10.892.792-10.378,10.1-18.18,14.289-27.707,3.185-7.241,7.131-14.949,14.338-18.207,8.332-3.766,18.035-.292,26.265,3.69,5.286,2.556,12.864,11.567,16.756,15.964C2773.313-203.29,2777.05-187.637,2783.327-174.473Z" transform="translate(-2685.511 260.044)"/><path class="e" d="M2702.611-230.133l-9.779-6.118c4.51-7.294,13.329-21.509,32.764-21.426,12.34.053,25.306,8.208,34.231,16.731s16.617,24.54,20.6,36.22c10.565,30.949,12.419,37.617,11.2,47.339" transform="translate(-2686.729 262.518)"/><path class="e" d="M2724.921-232.716c-2.661-.44-4.362-3.426-4.321-6.2s1.393-5.336,2.84-7.679a130.079,130.079,0,0,1,12.522-16.384,1.449,1.449,0,0,1,2.519.656l2.1,10.364c.477,2.358.871,4.736,1.112,7.13.376,3.73.416,8.053-1.706,11.277-1.731,2.629-5.26,4.206-8.029,2.809" transform="translate(-2680.349 266.484)"/><path class="e" d="M2724.921-232.716c-2.661-.44-4.362-3.426-4.321-6.2s1.393-5.336,2.84-7.679a130.079,130.079,0,0,1,12.522-16.384,1.449,1.449,0,0,1,2.519.656l2.1,10.364c.477,2.358.871,4.736,1.112,7.13.376,3.73.416,8.053-1.706,11.277-1.731,2.629-5.26,4.206-8.029,2.809" transform="translate(-2699.349 264.094)"/><g transform="translate(90.732 159.69)"><path class="e" d="M2795.85-69.537c1.629-.3,3.049,2.442,3.8,3.525.944,1.357,1.853,2.74,2.713,4.153a59.4,59.4,0,0,1,4.673,9.293,39.04,39.04,0,0,1,2.469,21.128c-1.093,5.895-4.928,11.912-2.656,18.01,1.984,5.322,8.077,5.825,11.406,9.829.94,1.133,2.375-.313,1.879-1.45a21.87,21.87,0,0,1-1.895-8.637c-.014-2.3.451-4.654-.1-6.929-.923-3.828-4.469-5.894-7.733-7.545-1.37-.694-2.583,1.37-1.207,2.067a18.244,18.244,0,0,1,4.9,3.133c1.894,1.92,1.968,4.2,1.845,6.753a26.59,26.59,0,0,0,2.12,12.367l1.879-1.45c-1.819-2.192-4.341-3.3-6.748-4.706a8.525,8.525,0,0,1-4.594-8.782c.356-3.859,2.221-7.422,3.039-11.185a35.942,35.942,0,0,0,.7-10.114,48.988,48.988,0,0,0-5.868-19.4,75.341,75.341,0,0,0-5.713-9.09c-1.414-1.941-2.941-3.763-5.547-3.277-1.513.282-.872,2.588.635,2.307Z" transform="translate(-2794.351 71.924)"/><path class="e" d="M2812.36-17.984c-.775,2.811-1.675,4.026-2.2,6.894s-.321,6.046,1.437,8.374c2.53,3.352,7.516,4.071,10.058,7.414a22.51,22.51,0,0,1-2.047-10.108c.072-2.193.452-4.465-.295-6.527-1.077-2.962-4.135-4.635-6.952-6.047" transform="translate(-2796.939 62.95)"/></g></g><g transform="translate(12.167 35.079)"><g transform="translate(14.451 0.815)"><path class="c" d="M2721.671-215.168a4.879,4.879,0,0,1-.149,1.519c-1.146,4.382-4.557,4.974-7.452,4.171a6.624,6.624,0,0,1-4.65-6.524S2716.037-217.428,2721.671-215.168Z" transform="translate(-2709.106 216.765)"/></g><path class="c" d="M2692.133-216.686a4.869,4.869,0,0,0,.02,1.526c.771,4.464,4.121,5.342,7.074,4.786a6.625,6.625,0,0,0,5.184-6.108S2697.937-218.462,2692.133-216.686Z" transform="translate(-2691.771 217.743)"/><g transform="translate(3.733 4.765)"><circle class="d" cx="1.376" cy="1.376" r="1.376"/></g><g transform="translate(18.143 5.077)"><circle class="d" cx="1.376" cy="1.376" r="1.376"/></g></g></g></g></g><g transform="translate(681.811 456.074)"><g class="f" transform="translate(0 300.023)"><ellipse class="g" cx="66.379" cy="11.783" rx="66.379" ry="11.783"/></g><g transform="translate(39.855 9.516)"><g class="a"><g transform="translate(0.591 0.579)"><path class="h" d="M279.3,849.567a13.643,13.643,0,0,1-4.4,8.751l-6.471.381-1.475.085c-2.043-.413-2.817-2.337-3.069-4.021a20.914,20.914,0,0,1,3.152-14.09c2.083-3.333,5.085-6.343,6.5-9.877.26.428.524.865.765,1.3a44.654,44.654,0,0,1,3.689,8.21A22.158,22.158,0,0,1,279.3,849.567Z" transform="translate(-263.683 -830.797)"/></g><path class="d" d="M278.936,849.784a13.593,13.593,0,0,1-1.863,5.492,22.1,22.1,0,0,1-1.794,2.3c-.332.412-.073.374-.64.406q-2.842.168-5.684.335a8.476,8.476,0,0,1-1.847.072c-1.907-.332-2.383-2.8-2.533-4.365a20.4,20.4,0,0,1,2.554-11.755c2.142-3.874,5.473-6.97,7.192-11.094l-1.069.141c3.277,5.417,6.276,11.993,5.684,18.475-.069.75,1.1.745,1.172,0,.61-6.676-2.468-13.484-5.845-19.067a.594.594,0,0,0-1.069.14c-1.807,4.33-5.478,7.542-7.553,11.73a21.076,21.076,0,0,0-2.1,12.549,5.5,5.5,0,0,0,2.155,3.891,4.385,4.385,0,0,0,2.98.474c2.027-.118,4.057-.219,6.084-.359,1.382-.1,2.426-1.879,3.125-2.958a14.888,14.888,0,0,0,2.222-6.4C280.2,849.037,279.024,849.043,278.936,849.784Z" transform="translate(-263.312 -830.434)"/></g><g transform="translate(0.591 0.579)"><path class="i" d="M274.3,832.095c-7.416,11.677-6.831,22.015-5.872,26.605l-1.475.085c-2.043-.413-2.817-2.337-3.069-4.021a20.914,20.914,0,0,1,3.152-14.09c2.083-3.333,5.085-6.343,6.5-9.877C273.8,831.225,274.06,831.662,274.3,832.095Z" transform="translate(-263.683 -830.797)"/></g></g><g transform="translate(115.477 125.939)"><g class="a" transform="translate(0 5.706)"><path class="c" d="M356.313,909.1c1.753,3.476-.48,7.537-3.441,9.535-2.571,1.734-6.534,2.405-7.663,5.653-1.089,3.13.268,6.52,1.657,9.307,1.641,3.294,3.558,6.4,4.541,9.979a30.816,30.816,0,0,1-1.585,20.7,28.882,28.882,0,0,1-14.475,14.43,30.452,30.452,0,0,1-22.593.978A2.665,2.665,0,0,1,311.4,976.2a2.694,2.694,0,0,1,3.478-1.358c11.269,3.974,24.693-1.314,29.86-12.146a25.361,25.361,0,0,0,1.671-17.527c-.938-3.358-2.779-6.3-4.333-9.391a19.646,19.646,0,0,1-2.447-10.233,11.012,11.012,0,0,1,6.105-9.082c1.626-.891,7.044-2.694,5.69-5.38a2.663,2.663,0,0,1,1.457-3.438,2.693,2.693,0,0,1,3.436,1.456Z" transform="translate(-310.393 -906.655)"/><path class="d" d="M323.109,982.479a31.073,31.073,0,0,1-10.322-1.751A3.088,3.088,0,0,1,311,979a3.605,3.605,0,0,1-.035-2.825,3.478,3.478,0,0,1,4.474-1.791c10.984,3.879,23.94-1.389,28.875-11.734a24.617,24.617,0,0,0,1.622-16.97,35.023,35.023,0,0,0-3.093-6.983c-.4-.752-.8-1.505-1.183-2.266a20.115,20.115,0,0,1-2.531-10.644,11.863,11.863,0,0,1,6.518-9.728c.292-.16.7-.35,1.172-.565,1.44-.661,3.848-1.77,4.263-2.954a.959.959,0,0,0-.073-.8,3.047,3.047,0,0,1-.085-2.472,3.6,3.6,0,0,1,1.952-2.064,3.489,3.489,0,0,1,4.45,1.839h0c1.968,3.9-.441,8.351-3.708,10.553a20.209,20.209,0,0,1-2.728,1.454c-2.032.958-3.954,1.859-4.626,3.8-.985,2.827.267,5.977,1.615,8.689.394.792.8,1.571,1.213,2.348a39,39,0,0,1,3.384,7.776,31.525,31.525,0,0,1-1.625,21.235,29.749,29.749,0,0,1-14.874,14.828A31.214,31.214,0,0,1,323.109,982.479Zm-9-6.726a1.75,1.75,0,0,0-1.684,1.063,2.009,2.009,0,0,0,.037,1.548,1.533,1.533,0,0,0,.856.857,29.748,29.748,0,0,0,22-.951,28.134,28.134,0,0,0,14.078-14.03,29.915,29.915,0,0,0,1.542-20.159,37.208,37.208,0,0,0-3.256-7.454c-.415-.788-.828-1.578-1.227-2.38-1.5-3.009-2.873-6.541-1.7-9.925.9-2.575,3.318-3.714,5.456-4.72a19.267,19.267,0,0,0,2.515-1.333c2.739-1.848,4.675-5.539,3.176-8.515h0a1.918,1.918,0,0,0-2.426-1.076,2.012,2.012,0,0,0-1.06,1.146,1.5,1.5,0,0,0,.018,1.192,2.572,2.572,0,0,1,.155,2.048c-.638,1.826-3.219,3.012-5.1,3.878-.429.2-.8.367-1.071.514a10.186,10.186,0,0,0-5.692,8.437,18.624,18.624,0,0,0,2.362,9.819c.38.75.774,1.492,1.168,2.233a36.939,36.939,0,0,1,3.221,7.3,26.235,26.235,0,0,1-1.719,18.085c-5.274,11.061-19.117,16.689-30.845,12.557A2.391,2.391,0,0,0,314.108,975.753Z" transform="translate(-310.691 -906.951)"/></g><g class="a" transform="translate(38.63)"><path class="g" d="M335.665,917.186c.7,2.507,3.786,3.74,6.333,3.192s4.6-2.4,6.333-4.346c1.97-2.217,3.692-4.653,5.768-6.769a15.13,15.13,0,0,1,7.5-4.544,45.5,45.5,0,0,0-14.788-.433,14.522,14.522,0,0,0-4.362,1.138c-3.768,1.805-5.689,6-7.04,9.958Z" transform="translate(-334.589 -903.077)"/><path class="d" d="M341.1,921.6c-2.517,0-5.189-1.366-5.9-3.9l-.022-.1-.286-1.994.062-.182c1.3-3.813,3.326-8.443,7.451-10.419A15.36,15.36,0,0,1,347,903.8a45.978,45.978,0,0,1,15.048.441l3.9.763-3.893.8a14.253,14.253,0,0,0-7.085,4.321c-1.2,1.223-2.308,2.592-3.381,3.915-.773.953-1.545,1.907-2.361,2.825-1.609,1.81-3.831,3.97-6.764,4.6A6.48,6.48,0,0,1,341.1,921.6Zm-4.346-4.284c.616,2.073,3.323,3.026,5.38,2.581,2.48-.53,4.46-2.467,5.906-4.1.8-.9,1.556-1.835,2.314-2.771,1.1-1.352,2.23-2.752,3.479-4.027a18.75,18.75,0,0,1,4.87-3.688,44.75,44.75,0,0,0-11.484.061,13.784,13.784,0,0,0-4.124,1.068c-3.508,1.682-5.294,5.63-6.568,9.315Z" transform="translate(-334.894 -903.376)"/></g></g><g class="a" transform="translate(25.283 195.825)"><g transform="translate(0.559 0.582)"><path class="c" d="M312.5,1004.691c-.206,1.369-1.349,2.689-2.343,3.861-.235.281-.468.554-.675.816-2.755,3.486-4.965,6.316-6.906,9.09-.666.966-1.312,1.931-1.93,2.9-1.041,1.631-2.024,3.318-3.009,5.173-.571,1.089-1.143,2.231-1.733,3.459-1.527,3.205-3.13,6.972-5.013,11.733-.273.656-.535,1.331-.806,2.024-.188.479-.31,1.022-.535,1.481a1.9,1.9,0,0,1-.581.75c-.075.056-.15.1-.225.148a.009.009,0,0,0-.01.01,4.324,4.324,0,0,1-2.278.273c-.477-.038-.964-.065-1.443-.1-3.645-.262-7.291-.535-10.936-.787.029-.085.057-.179.094-.263.244-.739.506-1.47.8-2.211.281-.7.571-1.416.891-2.118a90.788,90.788,0,0,1,6.439-11.714c.7-1.106,1.414-2.212,2.145-3.3q1.42-2.15,2.859-4.255,1.039-1.5,2.053-2.98c.056-.085.121-.168.187-.262.535-.694,1.491-1.772,2.53-3.093.694-.862,1.425-1.828,2.1-2.857a18.49,18.49,0,0,0,2.276-4.555c.75-2.437-1.443-6.241-9.68-7.684A97.253,97.253,0,0,1,276.883,998a61.31,61.31,0,0,1-7.666-2.718,31.592,31.592,0,0,1-9.211-5.837,17.5,17.5,0,0,1-4.134-5.764,16.787,16.787,0,0,1-1.255-8.4,27.857,27.857,0,0,1,1.255-5.96c.488-1.566,1.014-2.9,1.369-3.946a85.548,85.548,0,0,1,8.48-17.852l31.956,31.45c-5.36,1.387-5.1,3.974-2.614,6.954a35.549,35.549,0,0,0,4.48,4.263c1.987,1.66,4.161,3.328,6.035,4.873a28.433,28.433,0,0,1,3.88,3.7c.168.206.375.477.608.777.956,1.283,2.287,3.242,2.447,4.357A2.826,2.826,0,0,1,312.5,1004.691Z" transform="translate(-254.533 -947.526)"/></g><path class="d" d="M312.147,1004.753c-.415,2.013-2.2,3.567-3.428,5.13-1.184,1.5-2.365,3-3.523,4.525a90.743,90.743,0,0,0-6.582,9.747,100.468,100.468,0,0,0-5,10.175q-1.154,2.665-2.235,5.361-.584,1.444-1.16,2.892c-.359.9-.621,2.405-1.333,3.053-.809.739-2.273.4-3.3.33q-1.776-.127-3.55-.259-3.874-.282-7.747-.555l.565.74c3.382-9.462,9.055-17.731,14.708-25.959,2.5-3.636,5.776-6.654,7.39-10.866a4.823,4.823,0,0,0-1.132-5.345c-2.322-2.458-5.931-3.341-9.127-3.918a86.181,86.181,0,0,1-13.532-3.459c-8.324-2.956-17.434-8.464-17.821-18.318-.2-5.162,1.828-10.164,3.618-14.911a85.823,85.823,0,0,1,7.476-15.078l-.919.118L276.336,958.8l17.161,16.89,3.976,3.914.259-.98c-1.96.533-4.728,1.54-4.747,4-.019,2.519,2.525,4.79,4.195,6.324,2.983,2.742,6.306,5.076,9.355,7.74a22.744,22.744,0,0,1,3.515,3.752c.908,1.248,2.214,2.844,2.078,4.469-.062.752,1.109.747,1.172,0a5.724,5.724,0,0,0-1.176-3.494,24.368,24.368,0,0,0-2.448-3.325c-2.319-2.614-5.285-4.664-7.99-6.849-2.458-1.986-5.4-4.107-6.986-6.913a2.555,2.555,0,0,1-.255-2.65c.726-1.151,2.385-1.59,3.6-1.92a.591.591,0,0,0,.259-.978l-10.818-10.648-17.163-16.89-3.974-3.914a.6.6,0,0,0-.921.12A87.573,87.573,0,0,0,258.86,960.2a63.866,63.866,0,0,0-4.349,13.229,18.233,18.233,0,0,0,1.981,12.553,23.555,23.555,0,0,0,8.78,8.089A54.129,54.129,0,0,0,278,999.079c2.2.6,4.423,1.1,6.659,1.534a38.481,38.481,0,0,1,6.464,1.542c2.062.787,4.965,2.378,5.084,4.921.08,1.706-1.226,3.586-2.1,4.954a57.353,57.353,0,0,1-4.249,5.543c-1.579,1.915-2.9,4.07-4.289,6.127-1.548,2.3-3.082,4.621-4.538,6.985a79.012,79.012,0,0,0-7.31,14.9.592.592,0,0,0,.563.742q3.646.254,7.291.522a34.838,34.838,0,0,0,6.461.359c1.647-.2,2.18-1.267,2.689-2.713.766-2.182,1.7-4.322,2.576-6.459a99.161,99.161,0,0,1,11.992-21.828c1.475-1.976,2.994-3.917,4.528-5.848,1.286-1.622,3.015-3.187,3.451-5.293C313.429,1004.329,312.3,1004.014,312.147,1004.753Z" transform="translate(-254.182 -947.161)"/></g><g class="a" transform="translate(35.333 197.108)"><path class="j" d="M289.549,983.62c-18.255-9.053-25.771-22.329-29.07-32.2.525-.939,1.836-2.539,2.417-3.459l30.57,30.661C289.324,979.694,288.537,981.483,289.549,983.62Z" transform="translate(-260.479 -947.965)"/></g><g transform="translate(35.135 54.855)"><path class="c" d="M260.479,920.073s5.436-38.693,22.572-53.583,24.192-3.09,24.192-3.09l6.084,146.294" transform="translate(-260.281 -858.765)"/><path class="d" d="M313.2,1009.777l-6.083-146.242a10.076,10.076,0,0,0-6.691-4.159c-4.9-.769-10.675,1.692-17.172,7.34-16.884,14.67-22.451,53.072-22.505,53.46l-.4-.057c.054-.388,5.644-38.937,22.639-53.7,6.6-5.733,12.491-8.225,17.506-7.431a10.456,10.456,0,0,1,6.988,4.389l.029.094,6.084,146.294Z" transform="translate(-260.355 -858.84)"/></g><g class="a" transform="translate(27.751 110.12)"><g transform="translate(0.592 0.564)"><path class="c" d="M264.7,893.818s-6.718,21.073-8.175,39.338c-1.65,20.668,1.16,42.855,14.1,59.061a76.117,76.117,0,0,0,14.887,13.773c5.9,4.3,12.284,8.1,19.318,10.044,4.4,1.215,20.146,2.284,28.747-4.324" transform="translate(-256.099 -893.818)"/></g><path class="d" d="M264.358,893.872a209.483,209.483,0,0,0-6.032,24.149c-2.469,12.914-3.417,26.181-1.788,39.266,1.559,12.528,5.6,24.909,13.425,34.963a75.661,75.661,0,0,0,15.3,14.333c5.639,4.121,11.725,7.807,18.437,9.878a43.6,43.6,0,0,0,27.068-2,20.3,20.3,0,0,0,3.32-2.033c.594-.449.011-1.467-.592-1.012-4.211,3.176-9.57,4.464-14.742,4.94a43.689,43.689,0,0,1-12.582-.447c-6.143-1.25-11.961-4.611-17.1-8.075A83.7,83.7,0,0,1,273.4,994.545c-17.386-19.386-18.759-48.289-14.574-72.749a205.568,205.568,0,0,1,6.66-27.611c.23-.721-.9-1.03-1.13-.313Z" transform="translate(-255.729 -893.465)"/></g><g class="a" transform="translate(12.857 22.847)"><g transform="translate(0.586 0.563)"><path class="c" d="M310.032,881.257c.046,1.143-.629,11.676-1.089,12.726a8.1,8.1,0,0,1-2.136,2.559c-12.437,11.254-27.242,20.776-40.251,31.375-.168.14-.337.271-.506.412a8.341,8.341,0,0,1-3.655,2.081c-2.024.356-3.992-.806-5.614-2.081-5.716-4.459-7.7-9.436-9.407-16.493l-.591-1.116c-.31-6.11,2.932-13.355,4.807-19.174,1.077-3.336,2.511-6.887,1.433-10.223-.525-1.612-1.593-3.009-2.155-4.611-1.05-3.045-2.522-5.323-1.35-8.322,2.953-7.582,12.52-20.532,19.859-24.037,38.356-18.274,55.075,16.877,55.018,23.129-.177,22.219-7.168,26.7-2.867,59.142,2,15.105,18.133,42.132,28.751,54.569,10.608,9.361,20.13,12.229,27.121,22.706,2.784,4.18,16.185,25.068-8.191,49.115a83.087,83.087,0,0,1-6.5,5.754c-.148.112-.29.235-.439.346-1.435,1.125-2.6,3.159-1.81,4.807a14.707,14.707,0,0,0,6.495,5.727c2.016.974,6.981,3.5,9.259,5.791a4.258,4.258,0,0,1,1.068,1.518,4.153,4.153,0,0,1-.2,2.99,15.443,15.443,0,0,1-2.914,4.246c-1.172,1.3-2.428,2.5-3.345,3.467-.262.281-.535.591-.8.919a22.934,22.934,0,0,0-1.631,2.314c-.571.891-1.124,1.864-1.658,2.9-.094.179-.2.375-.291.562-.46.91-.908,1.866-1.339,2.849-2.643,6.054-4.565,13.12-4.4,17.422l-12.22-1.472-.506-.056c-.048-8.5,3-17.308,6.541-25.03.918-2.025,1.986-4.3,1.189-6.383-.618-1.612-2.191-2.624-3.692-3.5a116.391,116.391,0,0,1-10.711-7.16c-16.352-11.535-25.153-32.846-21.883-52.563" transform="translate(-246.764 -839.139)"/></g><path class="d" d="M309.665,881.467a76.411,76.411,0,0,1-.557,8.852,15.063,15.063,0,0,1-.474,3.618c-.428,1.173-1.663,2.08-2.562,2.886q-1.719,1.54-3.481,3.029c-9.486,8.036-19.741,15.093-29.606,22.644q-3.476,2.662-6.876,5.422c-1.146.934-2.381,2.035-3.926,2.167-1.676.145-3.243-.82-4.531-1.783a23.531,23.531,0,0,1-8.257-11.94c-.369-1.138-.688-2.292-.983-3.451-.195-.769-.6-1.376-.811-2.1a9.409,9.409,0,0,1,.132-3.23,33.692,33.692,0,0,1,.972-4.646c1.505-5.5,4.164-10.761,5.242-16.366a10.75,10.75,0,0,0-1.151-7.433,39.739,39.739,0,0,1-1.832-4.2,10.528,10.528,0,0,1-1.055-4.519c.163-2.166,1.61-4.432,2.658-6.287a65.179,65.179,0,0,1,3.717-5.8,54.1,54.1,0,0,1,9.653-10.668c3.655-2.967,8.268-4.673,12.747-5.974,7.613-2.211,15.763-2.487,23.252.345a35.708,35.708,0,0,1,14.633,10.748,37.179,37.179,0,0,1,6.8,11.8,12.654,12.654,0,0,1,.642,4.533,96.292,96.292,0,0,1-.959,11.62c-.932,6.479-2.391,12.865-2.953,19.4a98.638,98.638,0,0,0-.222,12.74,113.782,113.782,0,0,0,1.564,15.72c1.574,8.491,5.529,16.628,9.532,24.2A179.259,179.259,0,0,0,346.166,976.9c1.148,1.523,2.326,3.025,3.553,4.482,1.743,2.072,4.306,3.725,6.488,5.315,4.22,3.074,8.729,5.759,12.805,9.028a38.658,38.658,0,0,1,11.364,14.6,32.787,32.787,0,0,1,2.22,19.506c-2.132,10.675-9.329,19.524-17.378,26.483-1.818,1.571-4.407,3.007-5.176,5.433a4.184,4.184,0,0,0,1.052,4.065c2.768,3.5,6.941,4.943,10.657,7.157,1.869,1.114,5.411,2.914,5.355,5.449-.069,3.095-3.36,5.872-5.365,7.9-3.826,3.871-6.233,8.771-8.151,13.818-1.751,4.6-3.382,9.722-3.246,14.707l.586-.586c-4.242-.511-8.48-1.055-12.726-1.528l.586.586c.011-8.645,2.935-16.951,6.461-24.735,1.409-3.112,2.578-6.534-.42-9.115a31.268,31.268,0,0,0-4.276-2.742q-2.066-1.262-4.048-2.653c-5.717-3.992-11.106-8.1-15.415-13.644a55.257,55.257,0,0,1-9.355-18.392,52.927,52.927,0,0,1-1.524-23.195c.12-.738-1.009-1.055-1.128-.313A55.572,55.572,0,0,0,327.251,1057a53.037,53.037,0,0,0,13.659,14.52c2.693,1.938,5.377,3.909,8.188,5.676a40.051,40.051,0,0,1,4.9,3.1c1.934,1.657,1.815,3.839.954,6.049-1.737,4.455-3.824,8.684-5.186,13.292a48.536,48.536,0,0,0-2.153,13.68.6.6,0,0,0,.586.586c4.246.472,8.483,1.017,12.726,1.527a.589.589,0,0,0,.586-.586c-.155-5.649,1.939-11.569,4.128-16.692a45.147,45.147,0,0,1,4.016-7.583c1.732-2.557,4.177-4.483,6.108-6.876,1.445-1.789,3.128-4.263,2.3-6.677-.661-1.917-2.911-3.28-4.525-4.319-3.912-2.516-8.763-3.946-11.664-7.776-1.583-2.089-.4-4.04,1.467-5.526a80.608,80.608,0,0,0,7.257-6.507,53.379,53.379,0,0,0,9.957-13.584,34.706,34.706,0,0,0,3-23.033,37.158,37.158,0,0,0-5.385-12.386c-6.1-9.152-16.041-13.822-24.409-20.5a22.187,22.187,0,0,1-3.215-2.82c-.643-.765-1.27-1.54-1.89-2.324-1.35-1.714-2.648-3.47-3.909-5.25-2.863-4.035-5.546-8.2-8.076-12.448-4.972-8.349-9.629-17.136-12.595-26.422a66.719,66.719,0,0,1-2.535-14.185,119.242,119.242,0,0,1-.557-15.005c.23-7.114,1.588-14.02,2.748-21.017.584-3.534,1.039-7.087,1.271-10.662.158-2.456.5-5.071-.08-7.5a33.439,33.439,0,0,0-5.661-11.383,38.765,38.765,0,0,0-13.327-11.813,34.995,34.995,0,0,0-21.128-3.387,52.2,52.2,0,0,0-13.928,4.166,31.535,31.535,0,0,0-10.364,7.9,68.154,68.154,0,0,0-8.613,11.7,37.6,37.6,0,0,0-2.68,5.393c-1.061,2.766-.03,5.21.958,7.823,1.082,2.868,3.044,5.436,2.835,8.628-.207,3.138-1.555,6.286-2.582,9.23-1.805,5.17-4.046,10.544-4.038,16.111a3.862,3.862,0,0,0,.551,1.968,34.208,34.208,0,0,1,1.029,3.674,30.936,30.936,0,0,0,2.568,6.279,22.376,22.376,0,0,0,4.174,5.323c1.8,1.7,4.045,3.63,6.606,3.885,2.541.252,4.41-1.52,6.241-3,2.488-2.017,5.018-3.981,7.572-5.915,5.114-3.875,10.312-7.641,15.442-11.5,5.009-3.764,9.961-7.61,14.684-11.728,1.551-1.35,3.915-2.9,4.535-4.98a19.814,19.814,0,0,0,.479-3.8,76.413,76.413,0,0,0,.559-8.852.586.586,0,0,0-1.172,0Z" transform="translate(-246.397 -838.786)"/></g><g class="a" transform="translate(28.744 124.472)"><path class="k" d="M305.358,1010.512c-6.027-1.293-11.733-4.6-16.775-8a83.371,83.371,0,0,1-15.669-13.289c-17.393-19.38-18.761-48.281-14.582-72.739.235-1.369,2.171-12.654,2.444-14.023C258.618,950.23,270.472,987.067,305.358,1010.512Z" transform="translate(-256.351 -902.457)"/></g><g class="a" transform="translate(35.099 130.694)"><g transform="translate(0.56 0.574)"><path class="c" d="M302.316,906.715c-.962,1.615-2.18,3.374-4.038,3.663a7.215,7.215,0,0,1-3.8-.9,36,36,0,0,0-33.794,3.545" transform="translate(-260.683 -906.715)"/></g><path class="d" d="M302.02,906.634c-.954,1.582-2.215,3.529-4.313,3.406-1.911-.112-3.827-1.354-5.644-1.936a35.651,35.651,0,0,0-10.726-1.666,37.045,37.045,0,0,0-20.741,6.3c-.621.418-.035,1.433.592,1.01a35.969,35.969,0,0,1,22.373-6.062,35.58,35.58,0,0,1,11.336,2.733c1.556.643,3.194,1.168,4.812.4a8.582,8.582,0,0,0,3.322-3.59.586.586,0,0,0-1.01-.592Z" transform="translate(-260.332 -906.355)"/></g><g class="a" transform="translate(44.741 135.244)"><g transform="translate(0.58 0.564)"><path class="c" d="M315.05,909.559c1.58,5.017,3.36,17.434-6.669,21.354-.766.3-12.233-5.66-14.967-7.036l-7.479-3.767c-6.016-3.028-12.553-6.145-19.2-5.045" transform="translate(-266.737 -909.559)"/></g><path class="d" d="M314.7,909.926a25.229,25.229,0,0,1,1.049,10.563,14.029,14.029,0,0,1-1.989,5.791,10.631,10.631,0,0,1-2.112,2.4c-.734.616-2.4,1.835-3.125,1.869-.9.04-2.453-.948-3.314-1.349-1.875-.873-3.73-1.8-5.578-2.723-3.8-1.907-7.581-3.84-11.375-5.751-6.656-3.35-13.752-7.187-21.46-6.016-.742.113-.426,1.242.311,1.13,7.567-1.151,14.676,2.937,21.182,6.212,3.9,1.966,7.794,3.963,11.7,5.914,1.89.942,3.784,1.882,5.712,2.742.836.374,2.08,1.154,3.047.98a8.782,8.782,0,0,0,3.183-1.751,11.782,11.782,0,0,0,2.252-2.239,13.88,13.88,0,0,0,2.492-5.7,25.44,25.44,0,0,0-.849-12.38c-.223-.718-1.355-.412-1.13.311Z" transform="translate(-266.374 -909.206)"/></g><g class="a" transform="translate(71.853 131.159)"><path class="k" d="M283.36,907.991s2.879,14,8.084,13.371,8.048-6.013,7.232-11.669S283.36,907.991,283.36,907.991Z" transform="translate(-283.36 -906.646)"/></g><g class="a" transform="translate(35.116 78.993)"><path class="k" d="M301.2,873.963c-3.476,15.022-40.857,39.792-40.857,39.792l2.115-7.269,2.41-3.652c13.007-10.6,21.76-15.059,34.195-26.313A8.107,8.107,0,0,0,301.2,873.963Z" transform="translate(-260.343 -873.963)"/></g><g transform="translate(12.318 137.59)"><g class="a"><g transform="translate(0.578 0.568)"><path class="c" d="M281.592,913.2c-4.191-1.847-9.526-1.67-14.087-2.072a12.89,12.89,0,0,0-4.862.284,15.237,15.237,0,0,0-4.385,2.48L247.7,921.53a3.125,3.125,0,0,0-1.132,1.168,2.913,2.913,0,0,0,.281,2.3,18.618,18.618,0,0,0,8.1,8.728,4.612,4.612,0,0,0,2.375.707,4.746,4.746,0,0,0,3.125-2.029,22.418,22.418,0,0,0,3.848-6.739c.661-1.839,1.264-3.989,3.034-4.815" transform="translate(-246.422 -911.032)"/></g><path class="d" d="M282.1,912.908c-4.63-1.966-9.858-1.829-14.789-2.185a11.5,11.5,0,0,0-7.2,1.551c-2.5,1.545-4.833,3.422-7.214,5.144l-3.4,2.453a12.074,12.074,0,0,0-3.021,2.4c-1.218,1.77.5,4.314,1.484,5.808a19.464,19.464,0,0,0,4.729,4.986c1.681,1.24,3.977,2.816,6.124,1.842,2.3-1.044,3.954-3.958,5.052-6.1A31.35,31.35,0,0,0,265.4,925.1c.5-1.389,1.06-2.8,2.434-3.527.667-.351.075-1.363-.592-1.012a6.62,6.62,0,0,0-2.857,3.912,27.879,27.879,0,0,1-2.883,6.046,14.143,14.143,0,0,1-2.108,2.594c-1.317,1.2-2.618,1.053-4.1.236a17.981,17.981,0,0,1-4.854-3.93,17.694,17.694,0,0,1-1.853-2.547c-.642-1.069-1.9-2.875-1.025-4.078a13.139,13.139,0,0,1,2.91-2.179l3.207-2.318c2.014-1.456,4-2.95,6.048-4.362a10.566,10.566,0,0,1,6.771-2.086c2.469.1,4.957.294,7.422.49a24.218,24.218,0,0,1,7.594,1.585c.686.292,1.285-.717.592-1.012Z" transform="translate(-246.06 -910.676)"/></g><g class="a" transform="translate(0.722 4.672)"><g transform="translate(0.469 0.76)"><path class="g" d="M247.13,920.746a7.425,7.425,0,0,1,1.411-1.082c2.131-1.548,4.274-3.092,6.405-4.642.425-.308.846-.624,1.277-.943a16.469,16.469,0,0,0,4.7,6.573,35.875,35.875,0,0,0,2.825,2.326l-.1.276a22.233,22.233,0,0,1-3.752,6.785c-.833,1.021-1.93,2.2-3.389,1.957a8.4,8.4,0,0,1-2.986-1.481c-.222-.148-.447-.3-.656-.474a17.6,17.6,0,0,1-4.084-4.214,15,15,0,0,1-1.74-3.132A1.834,1.834,0,0,1,247.13,920.746Zm6.657,9.382a8.128,8.128,0,0,0,2.8,1.4c1.095.182,1.97-.578,2.948-1.792a21.589,21.589,0,0,0,3.663-6.6c-.924-.705-1.741-1.384-2.464-2.045a20.007,20.007,0,0,1-7.446,8.68C253.452,929.9,253.615,930.015,253.787,930.128Z" transform="translate(-246.806 -914.079)"/></g><path class="d" d="M246.946,920.728a5.42,5.42,0,0,1,1.13-.916c.123-.077.252-.166.367-.241l6.405-4.641c.334-.251.672-.492,1-.75l.784-.576.207.613a15.778,15.778,0,0,0,4.453,6.266,34.358,34.358,0,0,0,2.907,2.4l.279.209-.216.6a22.875,22.875,0,0,1-3.827,6.927,5.791,5.791,0,0,1-2.53,2.035,2.9,2.9,0,0,1-1.306.088,8.8,8.8,0,0,1-3.17-1.562c-.286-.2-.571-.393-.844-.611a18.252,18.252,0,0,1-4.021-4.195,15.871,15.871,0,0,1-1.791-3.234A2.284,2.284,0,0,1,246.946,920.728Zm12.761,9.3a21.589,21.589,0,0,0,3.663-6.6c-.924-.705-1.741-1.384-2.464-2.045a17.972,17.972,0,0,1-4.728-6.27c-.263.2-.519.385-.784.575l-6.405,4.642c-.126.1-.259.179-.4.27a4.77,4.77,0,0,0-.929.737,1.163,1.163,0,0,0-.107,1.181c.027.089.061.2.1.3a14.535,14.535,0,0,0,1.689,3.029,17.642,17.642,0,0,0,4.113,4.214c.168.125.33.241.5.354a8.128,8.128,0,0,0,2.8,1.4C257.854,932,258.728,931.238,259.707,930.024Z" transform="translate(-246.512 -913.603)"/></g><g transform="translate(7.67 12.447)"><path class="l" d="M250.865,927.154c.168.125.33.241.5.354a8.128,8.128,0,0,0,2.8,1.4c1.095.182,1.97-.578,2.948-1.792a21.589,21.589,0,0,0,3.663-6.6c-.924-.705-1.741-1.384-2.464-2.045A20.007,20.007,0,0,1,250.865,927.154Z" transform="translate(-250.865 -918.474)"/></g></g><g transform="translate(55.087 87.762)"><path class="g" d="M304.015,879.536s-10,12.322-17.7,15.607-16.585,6.983-12.143,8.009,18.129-3.639,29.846-11.808" transform="translate(-272.781 -879.41)"/><path class="d" d="M275.7,903.541a6.739,6.739,0,0,1-1.505-.147c-.862-.2-1.3-.512-1.341-.959-.134-1.518,4.958-3.807,12.742-7.125l.709-.3c7.567-3.227,17.527-15.426,17.626-15.549l.31.252c-.1.123-10.122,12.4-17.779,15.666l-.709.3c-5.622,2.4-12.619,5.38-12.5,6.723.022.241.389.457,1.034.6,4.535,1.06,18.192-3.765,29.686-11.776l.228.327C293.7,898.88,281.346,903.541,275.7,903.541Z" transform="translate(-272.855 -879.457)"/></g><g class="a" transform="translate(13.852 117.079)"><g transform="translate(0.613 0.543)"><path class="c" d="M287.167,924.087a70.065,70.065,0,0,1-9.84,6.906l-8.846,4.179c-4.761,1.866-21.086,7.685-21.077-4.113,0-7.262.937-7.047,20.486-32.894" transform="translate(-247.405 -898.165)"/></g><path class="d" d="M286.983,923.875a53.524,53.524,0,0,1-10.563,7.213l-7.408,3.5A37.936,37.936,0,0,1,263.3,936.6a25.6,25.6,0,0,1-8.935,1.232c-2.782-.224-5.221-1.529-5.917-4.4a14.712,14.712,0,0,1-.1-5.115c.377-2.908,2.088-5.406,3.728-7.752,5.238-7.49,11.032-14.615,16.547-21.9.455-.6-.562-1.186-1.012-.592-5.31,7.02-10.828,13.905-15.953,21.064-1.856,2.6-3.887,5.387-4.4,8.616-.683,4.265-.1,9.305,4.622,10.8,2.867.907,6.088.479,8.967-.131a47.515,47.515,0,0,0,7.789-2.391c2.541-1.017,4.989-2.33,7.463-3.5a58.257,58.257,0,0,0,11.712-7.827c.584-.476-.249-1.3-.828-.828Z" transform="translate(-247.021 -897.825)"/></g><g class="a" transform="translate(52.427 121.501)"><g transform="translate(0.608 0.511)"><path class="c" d="M271.57,908.207c3.462-3,8.611-4.4,12.852-6.129a12.884,12.884,0,0,1,4.731-1.162A15.237,15.237,0,0,1,294.072,902l12.344,4.185a3.122,3.122,0,0,1,1.425.784,2.916,2.916,0,0,1,.409,2.281,18.618,18.618,0,0,1-5.165,10.726,4.622,4.622,0,0,1-2.061,1.374,4.744,4.744,0,0,1-3.583-1.018,22.4,22.4,0,0,1-5.665-5.306c-1.172-1.563-2.381-3.44-4.317-3.708" transform="translate(-271.57 -900.916)"/></g><path class="d" d="M272.212,908.813c3.322-2.806,7.617-4.041,11.6-5.586,2.31-.9,4.549-1.842,7.082-1.4a49.723,49.723,0,0,1,7.218,2.27l7.5,2.539a7.47,7.47,0,0,1,1.66.621,1.841,1.841,0,0,1,.661,1.836,14.988,14.988,0,0,1-.739,3.513,18,18,0,0,1-3.154,5.87,8.4,8.4,0,0,1-2.417,2.3c-1.317.666-2.72-.144-3.816-.87a22.4,22.4,0,0,1-5.585-5.382c-1.149-1.548-2.365-3.2-4.373-3.582-.737-.139-1.053.99-.311,1.128,2.388.449,3.578,3.087,5.037,4.772a19.535,19.535,0,0,0,5.815,4.769c2.3,1.132,4.094.33,5.735-1.446a19.385,19.385,0,0,0,3.752-6c.723-1.816,1.776-4.705,1.058-6.657a2.775,2.775,0,0,0-1.816-1.591c-1.478-.56-3-1.021-4.5-1.529-2.919-.988-5.832-2-8.758-2.965a11.9,11.9,0,0,0-7.824-.289c-2.6.849-5.2,1.917-7.733,2.946a25.131,25.131,0,0,0-6.913,3.907c-.576.487.255,1.312.828.828Z" transform="translate(-271.189 -900.596)"/></g><g class="a" transform="translate(28.881 143.791)"><path class="k" d="M256.456,928.146A62.642,62.642,0,0,0,282.1,914.561a56.5,56.5,0,0,1-10.071,9.607,62.261,62.261,0,0,1-15.594,7.672Z" transform="translate(-256.437 -914.561)"/></g><g transform="translate(34.734 78.194)"><g class="a" transform="translate(0.249 37.393)"><path class="m" d="M267.738,914.734a42.987,42.987,0,0,0-6.935,2.942c.338-6.953.871-12.632,1.256-16.183.14-1.247.254-2.241.337-2.924.094-.731.15-1.125.15-1.125l6.186.731,0,0a91.042,91.042,0,0,0-.977,10.98C267.7,911.042,267.7,912.9,267.738,914.734Z" transform="translate(-259.936 -896.56)"/><path class="d" d="M260.26,919.39l.07-1.424c.334-6.894.87-12.631,1.259-16.231.142-1.253.254-2.249.338-2.937l.263-1.909,7.778.919-.123.819a90.568,90.568,0,0,0-.967,10.882c-.054,1.761-.059,3.572-.019,5.539l.011.584-.554.187a41.477,41.477,0,0,0-6.806,2.886Zm3.3-20.732-.046.342c-.083.677-.195,1.67-.335,2.91-.361,3.331-.848,8.509-1.181,14.743a45.571,45.571,0,0,1,5.259-2.156c-.029-1.769-.019-3.422.029-5.033a92.833,92.833,0,0,1,.867-10.263Z" transform="translate(-260.26 -896.89)"/></g><g class="a" transform="translate(0 70.991)"><path class="m" d="M270.622,953.613a1.217,1.217,0,0,1-2.094.145l-4.059-5.93a17.052,17.052,0,0,1-2.91-7.95c-.567-5.752-.854-11.49-.95-16.967.093-.037.177-.075.262-.1a65.48,65.48,0,0,0,8.584-4.077,146.354,146.354,0,0,0,3.679,17.777C275.6,944.62,270.622,953.613,270.622,953.613Z" transform="translate(-259.802 -917.467)"/><path class="d" d="M269.829,955.559a1.989,1.989,0,0,1-1.657-.878l-4.06-5.93a17.885,17.885,0,0,1-3.044-8.322c-.528-5.353-.849-11.085-.956-17.031l-.008-.551.512-.2c.155-.062.23-.094.3-.118a64.217,64.217,0,0,0,8.439-4.013l1-.573.187,1.135a146.6,146.6,0,0,0,3.653,17.677c2.514,8.25-2.266,17.156-2.57,17.706a2,2,0,0,1-1.655,1.1C269.925,955.557,269.877,955.559,269.829,955.559Zm-8.11-31.636c.113,5.708.429,11.2.937,16.352a16.294,16.294,0,0,0,2.772,7.577l4.06,5.93a.419.419,0,0,0,.373.18.411.411,0,0,0,.346-.231l.016-.03c.049-.088,4.787-8.8,2.447-16.483a139.916,139.916,0,0,1-3.516-16.757A67.114,67.114,0,0,1,261.719,923.922Zm-.725-.571.024.034Z" transform="translate(-260.104 -917.94)"/></g><g class="a" transform="translate(4.622)"><path class="m" d="M267.121,912.175s24.432-14.914,32.2-38.212l-6.07,5.585s-7.8,13.928-24.483,25.27C257.969,912.158,267.121,912.175,267.121,912.175Z" transform="translate(-262.701 -873.164)"/><path class="d" d="M267.42,913.27h0c-.619,0-3.737-.1-4.329-2.033-.523-1.706,1.232-3.861,5.526-6.78a84.186,84.186,0,0,0,24.235-25,.815.815,0,0,1,.156-.2l6.07-5.586a.8.8,0,0,1,1.3.839c-7.767,23.306-32.291,38.489-32.537,38.64A.8.8,0,0,1,267.42,913.27Zm26.757-32.918a86.344,86.344,0,0,1-24.663,25.423c-5.063,3.443-4.969,4.763-4.9,4.994.164.536,1.556.854,2.583.9,2.207-1.4,22.353-14.635,30.514-34.57Z" transform="translate(-263 -873.463)"/></g><g class="a" transform="translate(0.568 30.856)"><path class="m" d="M267.271,893.547a4.9,4.9,0,0,0-6.2,3.5c-.615,3.128,1.387,5.057,4.918,5.073S272.92,896.057,267.271,893.547Z" transform="translate(-260.162 -892.497)"/><path class="d" d="M266.3,903.211h-.018a6.036,6.036,0,0,1-4.843-1.9,4.829,4.829,0,0,1-.856-4.124,5.3,5.3,0,0,1,2.862-3.692,5.41,5.41,0,0,1,4.447-.381h0c2.627,1.168,3.886,3.3,3.371,5.7A5.525,5.525,0,0,1,266.3,903.211Zm-.057-8.822a4.6,4.6,0,0,0-2.061.524,3.763,3.763,0,0,0-2.03,2.582,3.252,3.252,0,0,0,.522,2.8,4.6,4.6,0,0,0,3.615,1.315h.011a3.924,3.924,0,0,0,3.4-3.136c.356-1.655-.519-3.044-2.46-3.906A2.491,2.491,0,0,0,266.243,894.39Z" transform="translate(-260.46 -892.795)"/></g></g><g class="a" transform="translate(28.801 116.449)"><path class="d" d="M262.138,897.848c-.543,2.208-1.239,4.38-1.784,6.589-1.572,6.364-2.82,12.807-3.957,19.26-.131.737,1,1.055,1.128.313,1.138-6.455,2.386-12.9,3.958-19.262.546-2.209,1.24-4.381,1.783-6.589.18-.731-.95-1.044-1.128-.311Z" transform="translate(-256.386 -897.43)"/></g><g class="a" transform="translate(24.68 140.092)"><path class="d" d="M254.951,919.033c.308-1.3,1.981-2.1,3.063-2.626a28.021,28.021,0,0,1,6.689-2.11,40.274,40.274,0,0,1,17.776.217.586.586,0,0,0,.311-1.128,41.7,41.7,0,0,0-19.04-.083,26.327,26.327,0,0,0-6.938,2.405c-1.2.651-2.654,1.591-2.99,3.013-.174.733.956,1.045,1.128.311Z" transform="translate(-253.805 -912.243)"/></g><g class="a" transform="translate(29.902 136.121)"><path class="d" d="M262.729,909.832a22.02,22.02,0,0,0-5.487,4.083c-.52.546.307,1.376.828.828a20.992,20.992,0,0,1,5.251-3.9c.662-.359.072-1.371-.592-1.01Z" transform="translate(-257.076 -909.755)"/></g><g class="a" transform="translate(42.2 131.706)"><path class="d" d="M265.523,909.608c1.547-.524,3.111-1,4.677-1.462a.587.587,0,0,0-.313-1.13c-1.564.463-3.128.94-4.675,1.462a.6.6,0,0,0-.41.72.593.593,0,0,0,.721.41Z" transform="translate(-264.781 -906.989)"/></g><g class="a" transform="translate(4.094 87.959)"><g transform="translate(0.576 0.573)"><path class="g" d="M258.27,882.21a10.591,10.591,0,0,1,2.22-1.472c5.3-2.306,11.827.581,14.657,6.137a17.5,17.5,0,0,1-1.883,17.9c-2.774,3.505-21.367,8.855-26.914,1.949-.075-.094-.441-.385-.956-.891a14.118,14.118,0,0,1-4.124-10.542c0-.412.019-.843.057-1.275.233-2.82.824-5.81,3.842-7.928a9.368,9.368,0,0,1,4.657-1.387,1.176,1.176,0,0,1-.038-.412" transform="translate(-241.268 -879.94)"/></g><g transform="translate(0 3.094)"><path class="d" d="M249.476,883.916l.565-.742a9.249,9.249,0,0,0-6.913,3.294A11.482,11.482,0,0,0,241,892.622a15.544,15.544,0,0,0,3.85,12.328,16.265,16.265,0,0,0,3.5,3.09,13.131,13.131,0,0,0,4.921,1.511,31.159,31.159,0,0,0,11.746-1.082,32.762,32.762,0,0,0,5.5-1.952,9.505,9.505,0,0,0,3.376-2.27c.476-.578-.35-1.411-.828-.828-1.5,1.823-4.37,2.7-6.522,3.385a34.647,34.647,0,0,1-10.453,1.744c-2.989,0-6.509-.45-8.7-2.712a25.811,25.811,0,0,1-2.943-3.235,13.627,13.627,0,0,1-2.19-5.515,15.5,15.5,0,0,1,.7-8.012c1.226-3.026,3.941-4.479,7.082-4.729a1.083,1.083,0,0,0,.846-1.01,4.325,4.325,0,0,1,.024-1.816" transform="translate(-240.907 -881.519)"/></g><g transform="translate(17.164)"><path class="d" d="M252.488,882.837c5.214-4.148,12.5-1.489,15.635,3.954,3.163,5.5,2.247,12.967-1.561,17.9-.46.6.557,1.18,1.012.591,4.233-5.489,5.026-14.1,1.023-19.938a13.324,13.324,0,0,0-7.815-5.47,10.358,10.358,0,0,0-9.122,2.132c.332.139.495.691.827.828" transform="translate(-251.661 -879.581)"/></g></g><g class="a" transform="translate(72.699 123.816)"><g transform="translate(0.581 0.656)"><path class="g" d="M299.482,906.15a7.464,7.464,0,0,0-1.67-.619c-2.492-.852-4.994-1.7-7.487-2.549-.5-.169-.993-.346-1.5-.525a16.476,16.476,0,0,1-2.559,7.666,35.2,35.2,0,0,1-2.014,3.055c.056.075.121.16.177.235a22.238,22.238,0,0,0,5.586,5.379c1.095.731,2.492,1.537,3.813.872a8.426,8.426,0,0,0,2.418-2.3c.169-.206.337-.422.487-.646a17.573,17.573,0,0,0,2.662-5.23,14.975,14.975,0,0,0,.741-3.505A1.836,1.836,0,0,0,299.482,906.15Zm-3.6,10.927a8.147,8.147,0,0,1-2.258,2.164c-.993.5-2.053.029-3.345-.843a21.6,21.6,0,0,1-5.444-5.23c.674-.947,1.255-1.836,1.753-2.68a20,20,0,0,0,9.671,6.1C296.135,916.758,296.014,916.918,295.883,917.077Z" transform="translate(-284.254 -902.457)"/></g><path class="d" d="M299.952,906a5.356,5.356,0,0,0-1.349-.543c-.141-.038-.291-.085-.423-.123l-7.487-2.549c-.393-.141-.787-.271-1.181-.421l-.918-.319-.019.646a15.757,15.757,0,0,1-2.409,7.3,34.426,34.426,0,0,1-2.07,3.149l-.206.281.383.516a22.891,22.891,0,0,0,5.7,5.492,5.794,5.794,0,0,0,3.018,1.2,2.892,2.892,0,0,0,1.274-.3,8.827,8.827,0,0,0,2.568-2.426c.216-.273.431-.544.627-.835a18.254,18.254,0,0,0,2.606-5.192,15.832,15.832,0,0,0,.758-3.617A2.283,2.283,0,0,0,299.952,906ZM290.5,918.644a21.6,21.6,0,0,1-5.444-5.23c.674-.947,1.255-1.836,1.753-2.68a17.965,17.965,0,0,0,2.67-7.385c.31.113.608.217.918.319l7.489,2.549c.148.056.3.094.458.141a4.836,4.836,0,0,1,1.106.431,1.162,1.162,0,0,1,.45,1.1c0,.094,0,.206-.01.319a14.484,14.484,0,0,1-.721,3.392,17.6,17.6,0,0,1-2.689,5.238c-.123.169-.244.329-.375.489a8.147,8.147,0,0,1-2.259,2.164C292.849,919.983,291.789,919.515,290.5,918.644Z" transform="translate(-283.89 -902.046)"/></g><g transform="translate(73.861 132.504)"><path class="l" d="M296.041,913.589c-.123.169-.244.329-.375.489a8.147,8.147,0,0,1-2.259,2.164c-.993.5-2.053.029-3.345-.843a21.6,21.6,0,0,1-5.444-5.23c.674-.947,1.255-1.836,1.753-2.68A20,20,0,0,0,296.041,913.589Z" transform="translate(-284.618 -907.489)"/></g><g transform="translate(43.736 138.528)"><path class="n" d="M265.744,911.263" transform="translate(-265.744 -911.263)"/></g><g transform="translate(27.001 24.179)"><path class="g" d="M275.953,839.871c-1.668.835-15.015,8.15-20.46,20.17a1.2,1.2,0,0,0-.107.439,1.06,1.06,0,0,0,1.9.621c2.088-2.627,10.521-12.874,19.857-19.137a1.205,1.205,0,0,0-.856-2.2h0A1.219,1.219,0,0,0,275.953,839.871Z" transform="translate(-255.185 -839.546)"/><path class="d" d="M256.51,861.78a1.356,1.356,0,0,1-.472-.086,1.144,1.144,0,0,1-.777-1.148,1.446,1.446,0,0,1,.124-.511c5.775-12.746,20.406-20.192,20.553-20.266l0,0a1.34,1.34,0,0,1,.388-.123,1.367,1.367,0,0,1,1.531.86,1.391,1.391,0,0,1-.533,1.7c-9.218,6.183-17.493,16.18-19.811,19.1A1.274,1.274,0,0,1,256.51,861.78Zm19.6-21.653c-.22.11-14.665,7.487-20.366,20.074a1.009,1.009,0,0,0-.089.364.749.749,0,0,0,.517.755.9.9,0,0,0,1.025-.268c2.327-2.927,10.635-12.962,19.9-19.177a1.006,1.006,0,0,0-.71-1.837A.944.944,0,0,0,276.115,840.127Z" transform="translate(-255.259 -839.621)"/></g><g class="a" transform="translate(1.96 9.885)"><path class="g" d="M240.192,860.786c4.954-11.173,8.795-18.216,22.095-29.324.8,1.687,2.6,4.851,3.4,6.538-3.215,3.928-6.282,7.765-6.874,16.7,2.945-5.7,4.708-6.684,10-10.445.849,1.826,2.774,4.756,3.623,6.582-6.953,5.641-13.511,14.167-16.654,21.889-1.446-.951-3.122-2.247-4.57-3.2a36.861,36.861,0,0,1,1.8-17.733c-4.93,5.713-5.511,10.164-5.357,14.868C246.192,865.617,241.654,861.826,240.192,860.786Z" transform="translate(-239.199 -830.19)"/><path class="d" d="M256.527,874.4l-.811-.533c-.736-.48-1.529-1.054-2.324-1.623-.766-.554-1.534-1.1-2.246-1.572l-.3-.195-.054-.348a35.584,35.584,0,0,1,.6-13.827,17.855,17.855,0,0,0-2.579,10.81l.054,1.612-1.314-.935c-.752-.535-2.22-1.718-3.775-2.969-1.464-1.179-2.977-2.4-3.689-2.9l-.53-.377.263-.6c4.811-10.847,8.712-18.255,22.312-29.613l.788-.659.444.929c.4.836,1.044,2.04,1.689,3.243.654,1.223,1.309,2.444,1.714,3.293l.217.458-.319.391c-2.651,3.24-5.178,6.332-6.255,12.477,1.95-2.891,3.851-4.234,7.266-6.651l1.816-1.286.4.87c.409.88,1.1,2.073,1.776,3.226.691,1.184,1.4,2.412,1.845,3.358l.262.563-.484.393c-6.927,5.62-13.371,14.086-16.416,21.568Zm-4.207-4.865c.643.433,1.325.923,2,1.413.5.356.993.713,1.473,1.049a61.2,61.2,0,0,1,16.014-20.9c-.409-.795-.964-1.748-1.505-2.675-.5-.854-1.007-1.729-1.419-2.5l-.276.195c-4.41,3.12-6.06,4.286-8.716,9.428l-1.76,3.406.254-3.826c.6-8.962,3.669-13,6.729-16.753-.393-.785-.926-1.78-1.457-2.774-.448-.835-.9-1.673-1.266-2.391-12.057,10.2-15.921,16.772-20.842,27.8.808.616,2,1.571,3.237,2.571.846.68,1.706,1.374,2.421,1.936.065-4.633,1.216-8.723,5.567-13.763l2.654-3.079-1.294,3.853A36.058,36.058,0,0,0,252.32,869.53Z" transform="translate(-239.57 -830.665)"/></g><g class="a" transform="translate(24.574)"><path class="g" d="M254.511,834.328a46.826,46.826,0,0,1,9.291-5.1,109.724,109.724,0,0,1,6.525,11.832,97.03,97.03,0,0,1,2.11-14.7,42.956,42.956,0,0,1,9.944-1.374,90.35,90.35,0,0,1,4.72,13.734,122.757,122.757,0,0,1,4.193-13.31,43.431,43.431,0,0,1,9.827,2.322,99.888,99.888,0,0,0-10.365,22.278,29.238,29.238,0,0,0-7.045-.574,85.634,85.634,0,0,0-5.487-15,92.206,92.206,0,0,0-2.621,16.116,30.488,30.488,0,0,0-6.8,2.512A85.4,85.4,0,0,0,254.511,834.328Z" transform="translate(-253.277 -824.166)"/><path class="d" d="M268.949,854.412l-.375-.629A84.974,84.974,0,0,0,254.4,835.19l-.661-.683.787-.533a47.53,47.53,0,0,1,9.422-5.168l.632-.271.362.583c2.294,3.693,3.614,6,5.3,9.336a95.54,95.54,0,0,1,1.88-11.95l.1-.495.493-.118a44.088,44.088,0,0,1,10.1-1.4l.552-.021.215.511a89.167,89.167,0,0,1,3.97,11.024c1.033-3.72,1.9-6.332,3.457-10.566l.222-.6.634.086a44.4,44.4,0,0,1,9.979,2.356l.932.321-.506.846a99.4,99.4,0,0,0-10.295,22.13l-.225.646-.675-.123a28.12,28.12,0,0,0-6.884-.56l-.618.011-.166-.6a82.089,82.089,0,0,0-4.48-12.734,87.877,87.877,0,0,0-2.065,13.707l-.049.562-.546.142a29.646,29.646,0,0,0-6.654,2.456Zm-12.742-19.645A84.36,84.36,0,0,1,269.57,852.34a29.683,29.683,0,0,1,5.746-2.107,92.635,92.635,0,0,1,2.59-15.672l.539-2.252.962,2.105a85.761,85.761,0,0,1,5.365,14.523,27.517,27.517,0,0,1,5.914.476,98.676,98.676,0,0,1,9.7-20.933,40.214,40.214,0,0,0-8.107-1.883,119.092,119.092,0,0,0-3.949,12.635l-.763,2.887-.779-2.883a88.3,88.3,0,0,0-4.471-13.123,40.5,40.5,0,0,0-8.745,1.213,94.706,94.706,0,0,0-1.992,14.106l-.23,2.924-1.283-2.638a107.281,107.281,0,0,0-6.124-11.174A43.421,43.421,0,0,0,256.207,834.767Z" transform="translate(-253.738 -824.472)"/></g><g transform="translate(20.682 91.82)"><ellipse class="d" cx="6.489" cy="8.848" rx="6.489" ry="8.848" transform="translate(0 3.058) rotate(-13.63)"/></g><g transform="translate(4.67 101.211)"><path class="d" d="M247.314,901.146a3.712,3.712,0,0,1-1.92-.048,14.118,14.118,0,0,1-4.124-10.542,4.282,4.282,0,0,1,2.849-2.568c2.662-.646,5.538,1.772,6.42,5.408S249.976,900.5,247.314,901.146Z" transform="translate(-241.268 -887.883)"/></g><g class="a" transform="translate(86.321 202.426)"><path class="k" d="M322.161,1045.984l-.506-.056c-.046-8.5,3-17.31,6.541-25.032.919-2.024,1.987-4.3,1.191-6.381-.618-1.612-2.193-2.624-3.692-3.5a116.494,116.494,0,0,1-10.711-7.16C298.63,992.323,289.83,971.014,293.1,951.3c-.677,10.116,5.917,38.438,31.009,51.007C342.013,1011.272,325.747,1017.264,322.161,1045.984Z" transform="translate(-292.424 -951.297)"/></g><g transform="translate(104.198 292.971)"><g class="a"><g transform="translate(0.704 0.726)"><path class="g" d="M304.143,1026.048c-.592,1.936,2.389,2.686,4.412,2.822,7.368.493,16.478-2.073,17.583-3.471,3.668-4.63.222-10.555.875-15.276,0,0-1.261-.417-12.386-1.641a38.515,38.515,0,0,0-5.478,6.364A55.921,55.921,0,0,0,304.143,1026.048Z" transform="translate(-304.066 -1008.481)"/></g><path class="d" d="M306.354,1029.427a4.308,4.308,0,0,1-2.356-1.443,2.105,2.105,0,0,1-.267-1.871h0a56.362,56.362,0,0,1,5.068-11.347,37.265,37.265,0,0,1,5.717-6.613l.206-.128.244.026c11.056,1.218,12.844,1.759,12.93,1.783a65.3,65.3,0,0,0,.279,7.4c.429,2.892.913,6.171-1.226,8.87-1.362,1.729-10.862,4.228-18.181,3.737A11.868,11.868,0,0,1,306.354,1029.427Zm-1.275-2.9a.7.7,0,0,0,.08.659c.434.632,1.928,1.135,3.7,1.253,7.554.508,16.188-2.193,16.984-3.2,1.76-2.223,1.342-5.053.937-7.789-.327-2.209-.662-4.484.192-6.392-1.377-.254-4.653-.769-11.867-1.567a39.631,39.631,0,0,0-5.087,5.984,55.007,55.007,0,0,0-4.941,11.056Z" transform="translate(-303.625 -1008.026)"/></g><g transform="translate(12.143 2.602)"><path class="l" d="M311.233,1027.178c5.151-.682,9.522-2.21,10.083-2.913,1.759-2.227,1.331-5.055.934-7.786-.332-2.212-.659-4.483.187-6.407-.543-.1-1.385-.233-2.653-.417A23.825,23.825,0,0,1,311.233,1027.178Z" transform="translate(-311.233 -1009.656)"/></g></g><g transform="translate(37.251 289.569)"><g class="a"><g transform="translate(0.745 0.753)"><path class="g" d="M262.242,1025.066a2.537,2.537,0,0,0,2.721,3.255c8.37-.241,17.72,1.1,18.872-.584,3.524-5.147-.632-16.1,2.04-20.428,0,0-2.2-.466-14.014-.942a40.694,40.694,0,0,0-5.305,7.106A59.972,59.972,0,0,0,262.242,1025.066Z" transform="translate(-262.148 -1006.366)"/></g><path class="d" d="M279.452,1029.626c-1.411,0-3.125-.061-5.175-.139-2.812-.107-6-.23-9.013-.142a3.5,3.5,0,0,1-2.889-1.227,3.323,3.323,0,0,1-.578-2.948h0a60.606,60.606,0,0,1,4.369-11.741,39.311,39.311,0,0,1,5.539-7.384l.209-.152.257.011c11.738.473,14.044.937,14.138.956l1.034.219-.555.9c-1.122,1.82-.891,5.154-.646,8.686.3,4.332.611,8.814-1.414,11.771C284.1,1029.358,282.454,1029.626,279.452,1029.626Zm-12.008-1.8c2.361,0,4.734.091,6.889.174,3.655.14,8.659.332,9.166-.4,1.733-2.533,1.441-6.75,1.159-10.83-.227-3.259-.442-6.362.386-8.582-1.47-.166-4.957-.469-12.622-.782a42.03,42.03,0,0,0-4.919,6.678,59.011,59.011,0,0,0-4.262,11.444,1.871,1.871,0,0,0,.292,1.658,1.968,1.968,0,0,0,1.685.674C265.955,1027.837,266.7,1027.828,267.445,1027.828Z" transform="translate(-261.681 -1005.894)"/></g><g transform="translate(12.593 1.949)"><path class="l" d="M269.571,1027.084l.056.187c3.646.148,8.664.327,9.17-.4,1.74-2.528,1.443-6.753,1.16-10.828-.223-3.258-.447-6.367.386-8.582-.714-.075-1.947-.193-3.912-.343C275.577,1011.643,276.87,1020.411,269.571,1027.084Z" transform="translate(-269.571 -1007.115)"/></g></g><g transform="translate(36.683 24.146)"><path class="g" d="M280.948,839.826c-1.259.53-11.473,4.94-19.329,18.67a1.281,1.281,0,0,0-.16.464,1.1,1.1,0,0,0,1.97.745c2.093-2.576,9.861-11.77,18.711-17.653a1.268,1.268,0,0,0-.913-2.308h0A1.218,1.218,0,0,0,280.948,839.826Z" transform="translate(-261.25 -839.526)"/><path class="d" d="M262.637,860.389a1.426,1.426,0,0,1-.563-.115,1.188,1.188,0,0,1-.737-1.266,1.5,1.5,0,0,1,.184-.538c7.589-13.262,17.512-17.948,19.425-18.754a1.367,1.367,0,0,1,.327-.094,1.468,1.468,0,0,1,1.053,2.672c-8.791,5.843-16.512,14.957-18.666,17.611A1.291,1.291,0,0,1,262.637,860.389Zm18.9-20.39a1.345,1.345,0,0,0-.206.016,1.046,1.046,0,0,0-.235.069h0c-1.891.8-11.707,5.436-19.233,18.587a1.066,1.066,0,0,0-.134.391.79.79,0,0,0,.5.846.932.932,0,0,0,1.114-.254c2.166-2.665,9.918-11.816,18.757-17.693a1.07,1.07,0,0,0-.563-1.962Z" transform="translate(-261.325 -839.6)"/></g><g class="o" transform="translate(49.238 29.32)"><path class="d" d="M286.89,846.7c-.2,1.157-4.317,1.425-9.2.6a21.3,21.3,0,0,1-8.494-3.6,21.289,21.289,0,0,1,9.2-.6C283.283,843.927,287.087,845.538,286.89,846.7Z" transform="translate(-269.191 -842.842)"/></g><g class="a" transform="translate(38.592 141.198)"><path class="k" d="M278.16,914.259s-9.179-2.292-15.639-.843c0,0,9.272.219,11.468,4.217A38.017,38.017,0,0,0,278.16,914.259Z" transform="translate(-262.521 -912.936)"/></g><g transform="translate(29.073 157.716)"><path class="n" d="M256.557,923.285" transform="translate(-256.557 -923.285)"/></g><g transform="translate(47.316 82.274)"><path class="g" d="M271.506,892.177s.093-8.44-2.844-13.284,6.836-4.2,7.893,9.4" transform="translate(-267.911 -875.945)"/><path class="d" d="M271.781,892.25l-.4,0c0-.085.057-8.44-2.816-13.181-.872-1.437-.57-2.209-.313-2.541a1.855,1.855,0,0,1,2.056-.377c2.12.632,5.875,3.914,6.52,12.2l-.4.032c-.276-3.535-1.933-10.56-6.236-11.846a1.5,1.5,0,0,0-1.626.238c-.33.429-.208,1.191.337,2.092C271.84,883.7,271.783,892.167,271.781,892.25Z" transform="translate(-267.987 -876.019)"/></g><g transform="translate(52.397 71.659)"><path class="g" d="M279.509,888.709s-.125-10.37-4.618-15.118c-1.044-1.1-3.59-2.613-3.6-3.722-.006-1.291,10.167.08,12.7,15.224" transform="translate(-271.096 -869.292)"/><path class="d" d="M279.384,888.786c0-.1-.176-10.348-4.563-14.984a14.752,14.752,0,0,0-1.347-1.167c-1.13-.908-2.3-1.85-2.3-2.691,0-.148.078-.5.819-.563,1.357-.132,3.888.757,6.228,2.956,2.115,1.987,4.883,5.821,6.049,12.8l-.394.065c-2.069-12.367-9.419-15.637-11.849-15.422-.321.027-.453.12-.453.164,0,.651,1.146,1.571,2.155,2.381a14.732,14.732,0,0,1,1.387,1.205c4.495,4.748,4.665,14.826,4.672,15.251Z" transform="translate(-271.17 -869.368)"/></g><g transform="translate(59.462 66.743)"><path class="g" d="M286.745,881.941s-1.523-9.283-6.909-11.508-5.036-4.333-1.523-3.982,12.193,3.369,12.654,12.4" transform="translate(-275.522 -866.214)"/><path class="d" d="M286.623,882.048c-.014-.093-1.567-9.2-6.79-11.356-2.887-1.192-4.461-2.5-4.211-3.5.176-.7,1.219-1.026,2.784-.867,3.409.338,12.357,3.262,12.834,12.587l-.4.022c-.461-9.044-9.162-11.881-12.474-12.214-1.317-.132-2.239.091-2.359.568-.156.627,1.012,1.807,3.977,3.031,5.427,2.241,6.967,11.276,7.031,11.66Z" transform="translate(-275.597 -866.288)"/></g><g transform="translate(66.046 108.088)"><path class="g" d="M301.479,892.3S292.2,898.521,285,900.32s-7.119,4.263,1.879,3.441a51.781,51.781,0,0,0,15.9-4.115" transform="translate(-279.647 -892.13)"/><path class="d" d="M283.775,904.187c-2.482,0-3.918-.389-4.045-1.133-.156-.926,1.824-2,5.3-2.865,7.08-1.769,16.32-7.934,16.413-8l.223.33c-.094.062-9.392,6.266-16.54,8.052-3.808.953-5.077,1.965-5,2.413.073.429,1.59,1.113,6.812.637a51.874,51.874,0,0,0,15.83-4.1l.171.362a52.522,52.522,0,0,1-15.964,4.132C285.771,904.132,284.7,904.187,283.775,904.187Z" transform="translate(-279.722 -892.192)"/></g><g transform="translate(56.334 157.001)"><path class="g" d="M327.815,922.945s-17.806,10.437-34.615,9.4-24.92-1.033-15.358,3.1,34.291,5.679,56.346-4.217" transform="translate(-273.561 -922.773)"/><path class="d" d="M298.49,938.934c-8.866,0-16.283-1.352-20.652-3.237-3.906-1.689-4.306-2.444-4.183-2.959.306-1.288,5.077-1.414,19.634-.524,16.54,1.018,34.324-9.275,34.5-9.377l.2.343c-.177.1-18.052,10.443-34.73,9.433-6.6-.407-18.893-1.164-19.22.219-.051.214.231.889,3.955,2.5,9.613,4.155,34.118,5.687,56.185-4.215l.163.366A89.053,89.053,0,0,1,298.49,938.934Z" transform="translate(-273.637 -922.837)"/></g><g transform="translate(25.71 217.986)"><path class="g" d="M267.8,966.618a45.444,45.444,0,0,1-13.213.525,27.857,27.857,0,0,1,1.255-5.96C270.826,962.982,277.461,964.378,267.8,966.618Z" transform="translate(-254.369 -960.964)"/><path class="d" d="M259.937,967.648c-1.671,0-3.446-.075-5.288-.224l-.2-.018.018-.2a27.839,27.839,0,0,1,1.264-6l.051-.158.164.021c12.234,1.468,16.595,2.426,16.662,3.661.027.528-.506,1.2-4.683,2.166h0A36.545,36.545,0,0,1,259.937,967.648Zm-5.055-.6a45.344,45.344,0,0,0,12.952-.538h0c3.985-.923,4.386-1.535,4.375-1.756-.072-1.323-11.2-2.674-16.146-3.267A27.6,27.6,0,0,0,254.883,967.043Z" transform="translate(-254.45 -961.046)"/></g><g transform="translate(26.88 231.774)"><path class="g" d="M270.92,973.48a42.591,42.591,0,0,1-11.414,2.682,17.5,17.5,0,0,1-4.134-5.764h.019C272.391,969.347,280.59,969.338,270.92,973.48Z" transform="translate(-255.07 -969.61)"/><path class="d" d="M259.548,976.443l-.069-.064a17.745,17.745,0,0,1-4.177-5.827l-.12-.279h.3c14.724-.907,19.551-.785,19.857.5.123.516-.286,1.271-4.233,2.962a42.6,42.6,0,0,1-11.47,2.693Zm-3.764-5.789a17.411,17.411,0,0,0,3.9,5.371,41.981,41.981,0,0,0,11.265-2.654h0c3.765-1.612,4.054-2.284,4-2.5C274.635,969.508,262.522,970.239,255.785,970.654Z" transform="translate(-255.183 -969.684)"/></g><g transform="translate(40.037 237.912)"><path class="g" d="M277.434,977.909a35.974,35.974,0,0,1-6.035,4.517,61.308,61.308,0,0,1-7.666-2.718C277.94,973.3,284.66,970.89,277.434,977.909Z" transform="translate(-263.243 -973.457)"/><path class="d" d="M271.612,982.716l-.086-.024a62.207,62.207,0,0,1-7.69-2.728l-.41-.18.409-.185c11.854-5.349,16.1-6.8,16.81-5.751.3.439.188,1.288-2.889,4.278h0a36.006,36.006,0,0,1-6.068,4.544Zm-7.2-2.938a62.481,62.481,0,0,0,7.144,2.506,35.357,35.357,0,0,0,5.925-4.445h0c2.934-2.849,2.961-3.583,2.836-3.765C279.572,972.976,269.595,977.439,264.409,979.777Z" transform="translate(-263.426 -973.53)"/></g><g transform="translate(62.974 261.124)"><path class="g" d="M281.006,991.016c-.881.056-1.864.085-2.953.056.694-.862,1.425-1.828,2.1-2.857C286.441,989.648,287.595,990.566,281.006,991.016Z" transform="translate(-277.644 -987.988)"/><path class="d" d="M279.064,991.367c-.286,0-.575,0-.864-.011l-.4-.011.254-.313c.82-1.022,1.5-1.95,2.088-2.843l.077-.116.134.032c5.079,1.157,5.47,1.69,5.438,2.1-.029.38-.413.809-4.616,1.1h0C280.461,991.345,279.765,991.367,279.064,991.367Zm-.45-.4c.84.006,1.677-.01,2.531-.064,3.888-.265,4.219-.654,4.246-.731-.022-.118-.45-.6-5-1.646C279.883,989.3,279.3,990.1,278.614,990.965Z" transform="translate(-277.797 -988.073)"/></g><g transform="translate(58.25 267.078)"><path class="g" d="M280.463,995.233a40.7,40.7,0,0,1-5.4-.048q1.039-1.5,2.053-2.98c.056-.085.121-.168.187-.262C285.542,993.648,287.791,994.736,280.463,995.233Z" transform="translate(-274.701 -991.72)"/><path class="d" d="M278.427,995.586c-1,0-2.088-.04-3.238-.116l-.351-.024.2-.291q1.039-1.506,2.053-2.978.046-.067.1-.144l.163-.23.129.027c7.21,1.494,7.781,2.1,7.747,2.586-.026.383-.407.812-4.618,1.1Q279.594,995.585,278.427,995.586Zm-2.862-.493a38.688,38.688,0,0,0,5.02.024h0c3.89-.263,4.22-.655,4.247-.731-.035-.188-.819-.788-7.305-2.139l-.014.024c-.034.043-.064.086-.093.129Q276.5,993.736,275.565,995.093Z" transform="translate(-274.837 -991.803)"/></g><g transform="translate(53.26 274.575)"><path class="g" d="M277.543,999.995a42.416,42.416,0,0,1-5.613-.056c.7-1.106,1.414-2.212,2.145-3.3C282.557,998.392,284.956,999.489,277.543,999.995Z" transform="translate(-271.58 -996.417)"/><path class="d" d="M275.463,1000.347c-1.061,0-2.2-.042-3.417-.125l-.335-.024.18-.282c.578-.91,1.344-2.107,2.148-3.3l.075-.112.131.029c7.492,1.547,8.086,2.158,8.052,2.653-.026.38-.405.809-4.611,1.1h0Q276.645,1000.347,275.463,1000.347Zm-3.055-.5a40.367,40.367,0,0,0,5.251.034h0c3.882-.265,4.214-.654,4.241-.729-.045-.239-1.1-.854-7.6-2.2C273.6,997.981,272.94,999.011,272.409,999.845Z" transform="translate(-271.711 -996.5)"/></g><g transform="translate(59.414 169.666)"><path class="g" d="M338.495,930.886s-29.571,14.047-54.1,11.232c-13.262-1.521-10.333,4.75,1.772,6.667,12.785,2.022,24.642,4.583,62.3-10.991" transform="translate(-275.492 -930.704)"/><path class="d" d="M300.786,950.556a80.208,80.208,0,0,1-13.431-1.325l-1.141-.182c-6.97-1.1-10.882-3.622-10.636-5.419.223-1.644,3.559-2.258,8.919-1.642,24.192,2.779,53.693-11.075,53.987-11.216l.172.362c-.3.14-29.9,14.03-54.205,11.249-6.032-.7-8.338.268-8.479,1.3-.187,1.371,3.29,3.861,10.3,4.972l1.143.18c12.076,1.934,24.566,3.926,61.048-11.158l.153.367C324.459,948.037,310.782,950.556,300.786,950.556Z" transform="translate(-275.566 -930.772)"/></g><g transform="translate(87.233 183.242)"><path class="g" d="M345.991,939.385s-22.869,13.5-37.272,13.695-20.025-.7-11.762,3.29c7.369,3.556,24.743,6.322,54.55-9.391" transform="translate(-292.921 -939.214)"/><path class="d" d="M311.158,959.4c-7.063,0-11.691-1.575-14.213-2.792-3.444-1.662-4.051-2.281-3.936-2.785.184-.8,2.361-.848,8.611-.848.208,0,.42,0,.634,0,1.931,0,4.1,0,6.538-.035,14.186-.2,36.947-13.532,37.175-13.666l.2.343c-.23.136-23.08,13.524-37.371,13.722-2.653.037-4.975.035-7.029.035h-.394c-4.255,0-7.858.016-7.976.536-.051.223.552.809,3.721,2.338,5.738,2.768,22.526,7.4,54.37-9.388l.187.353C333.6,956.749,320.326,959.4,311.158,959.4Z" transform="translate(-292.996 -939.278)"/></g><g transform="translate(100.31 198.348)"><path class="g" d="M349.762,948.861c-1.441.458-24.647,14.1-37.2,13.867-15.868-.289-12.975,1.73-3.459,3.46s22.023,3.192,41.936-7.055" transform="translate(-301.114 -948.671)"/><path class="d" d="M321.075,967.677a65.3,65.3,0,0,1-11.931-1.221c-5.358-.975-8.033-1.884-7.953-2.7.038-.372.133-1.358,11.452-1.152.1,0,.208,0,.313,0,10.365,0,27.688-9.112,34.252-12.565,1.435-.755,2.3-1.211,2.568-1.3l.121.38c-.231.073-1.186.576-2.5,1.269C340.806,953.856,323.418,963,312.954,963c-.109,0-.212,0-.318,0-10.665-.195-11.037.691-11.048.795-.022.239,1.3,1.119,7.628,2.27,10.057,1.826,22.414,2.945,41.81-7.036l.184.354C338.661,965.838,329.039,967.677,321.075,967.677Z" transform="translate(-301.189 -948.742)"/></g><g transform="translate(111.689 236.969)"><path class="g" d="M332.443,973.137a83.087,83.087,0,0,1-6.5,5.754,70,70,0,0,1-9.708-1.181c-9.513-1.733-12.408-3.748,3.467-3.467A64.046,64.046,0,0,0,332.443,973.137Z" transform="translate(-308.243 -972.821)"/><path class="d" d="M326.081,979.212l-.075,0a70.383,70.383,0,0,1-9.736-1.184c-5.357-.975-8.03-1.887-7.95-2.7.04-.372.15-1.358,11.457-1.159a64.725,64.725,0,0,0,12.707-1.1l.637-.12-.461.458a84.589,84.589,0,0,1-6.52,5.768Zm-9.1-4.678c-7.929,0-8.253.734-8.263.825-.022.241,1.3,1.12,7.625,2.273a69.825,69.825,0,0,0,9.605,1.175c2.2-1.772,4.209-3.532,5.969-5.24a64.688,64.688,0,0,1-12.146.994Q318.24,974.532,316.98,974.534Z" transform="translate(-308.318 -972.939)"/></g><g transform="translate(128.492 259.509)"><path class="g" d="M334.04,991.694c-2.634-.225-5.042-.618-7.281-1.022-9.511-1.733-12.408-3.748,3.468-3.457.954.018,1.939.01,2.942-.029a4.258,4.258,0,0,1,1.068,1.518A4.153,4.153,0,0,1,334.04,991.694Z" transform="translate(-318.771 -986.986)"/><path class="d" d="M334.245,991.982l-.148-.013c-2.713-.233-5.211-.65-7.3-1.025-5.355-.975-8.03-1.885-7.949-2.7.037-.372.145-1.35,11.455-1.151.95.017,1.936.008,2.932-.027l.088,0,.061.061a3.851,3.851,0,0,1,.916,4.723Zm-6.815-4.519c-7.854,0-8.175.728-8.185.817-.024.243,1.3,1.119,7.623,2.271,2.04.369,4.475.773,7.114,1.006a3.827,3.827,0,0,0,.14-2.71,3.96,3.96,0,0,0-.959-1.382c-.975.037-1.935.045-2.867.026C329.243,987.471,328.292,987.463,327.43,987.463Z" transform="translate(-318.846 -987.061)"/></g><g transform="translate(125.193 268.174)"><path class="g" d="M328.16,993.017a24.035,24.035,0,0,0,4.2-.346c-1.172,1.3-2.428,2.5-3.345,3.467-.262.281-.535.591-.8.919-1.218-.179-2.389-.375-3.524-.581C315.18,994.741,312.285,992.727,328.16,993.017Z" transform="translate(-316.704 -992.382)"/><path class="d" d="M328.375,997.379l-.112-.016c-1.095-.161-2.25-.351-3.532-.583-5.356-.977-8.032-1.887-7.95-2.7.038-.372.137-1.352,11.457-1.151h0a24.038,24.038,0,0,0,4.161-.343l.56-.093-.378.423c-.749.832-1.539,1.63-2.236,2.333-.4.407-.781.787-1.113,1.138-.282.3-.546.6-.785.905Zm-3-4.083c-7.866,0-8.188.728-8.2.82-.022.241,1.3,1.119,7.625,2.271,1.234.223,2.348.409,3.4.563.227-.281.474-.562.736-.841.335-.353.717-.736,1.12-1.144.576-.581,1.216-1.229,1.842-1.9a23.292,23.292,0,0,1-3.673.262h0C327.184,993.306,326.234,993.3,325.376,993.3Z" transform="translate(-316.779 -992.49)"/></g><g transform="translate(124.143 277.867)"><path class="g" d="M325.318,998.69c-.094.179-.2.375-.291.562-.46.91-.908,1.866-1.339,2.849C314.907,1000.471,312.1,998.615,325.318,998.69Z" transform="translate(-316.046 -998.489)"/><path class="d" d="M323.88,1002.4l-.153-.029c-5.122-.95-7.68-1.837-7.6-2.634.035-.356.112-1.175,8.48-1.175.255,0,.519,0,.792,0l.327,0-.153.292c-.093.176-.195.37-.289.557-.463.921-.911,1.875-1.336,2.839Zm.742-3.438c-7.794,0-8.094.729-8.1.812-.022.233,1.221,1.069,7.123,2.177.407-.922.836-1.835,1.282-2.716l.139-.273Z" transform="translate(-316.121 -998.563)"/></g><g transform="translate(88.311 142.817)"><path class="g" d="M297.216,924.657a11.185,11.185,0,0,1-2.906,2.539c0-.056-.008-.1-.008-.16-1.229-16.654-.123-15.725,2.258-5.839C296.821,922.314,297.046,923.466,297.216,924.657Z" transform="translate(-293.598 -913.874)"/><path class="d" d="M294.185,927.629v-.356c0-.022,0-.042,0-.061s0-.064,0-.1c-.959-12.994-.322-13.095.056-13.154.327-.051.814-.133,2.6,7.269.284,1.2.5,2.341.659,3.476l.013.086-.054.067a11.325,11.325,0,0,1-2.956,2.584Zm.11-13.251c-.233.353-.468,2.538.267,12.549a11,11,0,0,0,2.517-2.251c-.156-1.1-.367-2.195-.64-3.357C295.075,915.659,294.5,914.561,294.295,914.378Z" transform="translate(-293.671 -913.95)"/></g><g transform="translate(80.005 145.216)"><path class="g" d="M291.995,926.046c-.956-.431-2.043-.956-3.168-1.508-.749-12.418.356-10.852,2.531-1.837A33.822,33.822,0,0,1,291.995,926.046Z" transform="translate(-288.392 -915.377)"/><path class="d" d="M292.315,926.455l-.329-.149c-1.029-.466-2.182-1.026-3.173-1.511l-.1-.053-.008-.115c-.544-9.034-.018-9.114.33-9.165.33-.053.814-.112,2.594,7.269a34.1,34.1,0,0,1,.642,3.366Zm-3.221-1.968c.857.422,1.826.891,2.725,1.3-.147-.993-.342-1.989-.581-2.967-1.363-5.653-1.936-6.756-2.144-6.943C288.933,916.141,288.679,917.55,289.094,924.487Z" transform="translate(-288.467 -915.453)"/></g><g transform="translate(70.511 139.969)"><path class="g" d="M286.131,923.358c-.937-.477-1.714-.872-2.2-1.116-.366-.187-.7-.356-1.022-.516-.806-12.932.3-11.442,2.5-2.314A38.962,38.962,0,0,1,286.131,923.358Z" transform="translate(-282.444 -912.089)"/><path class="d" d="M286.454,923.783l-.338-.171c-.935-.477-1.714-.871-2.2-1.112-.367-.19-.7-.359-1.023-.517l-.1-.051-.006-.115c-.594-9.506-.056-9.588.3-9.641.322-.054.809-.131,2.6,7.267a39.244,39.244,0,0,1,.725,3.965Zm-3.28-2.107.921.466c.426.212,1.077.543,1.863.942-.168-1.2-.391-2.389-.667-3.548-1.363-5.653-1.936-6.756-2.144-6.942C282.98,912.86,282.72,914.332,283.174,921.676Z" transform="translate(-282.519 -912.166)"/></g><g transform="translate(62.048 135.868)"><path class="g" d="M280.81,920.627c-.366-.2-.768-.394-1.2-.61-.666-.337-1.341-.675-2.016-1-.787-12.783.319-11.265,2.512-2.175C280.4,918.059,280.633,919.315,280.81,920.627Z" transform="translate(-277.142 -909.521)"/><path class="d" d="M281.136,921.064l-.343-.185c-.306-.164-.64-.33-.994-.506l-.2-.1c-.664-.337-1.339-.675-2.013-1l-.105-.05-.008-.116c-.576-9.366-.042-9.447.313-9.5.318-.043.809-.128,2.594,7.266.292,1.229.53,2.511.707,3.807Zm-3.272-2.1c.64.311,1.282.632,1.914.953l.2.1c.228.113.448.223.658.33-.169-1.154-.385-2.289-.645-3.382-1.363-5.652-1.936-6.756-2.144-6.942C277.68,910.287,277.421,911.739,277.864,918.963Z" transform="translate(-277.217 -909.596)"/></g><g transform="translate(54.645 134.802)"><path class="g" d="M275.712,917.313c-.946-.383-1.9-.731-2.867-1.021-.554-10.523.562-8.7,2.614-.112C275.554,916.555,275.637,916.93,275.712,917.313Z" transform="translate(-272.504 -908.854)"/><path class="d" d="M276.054,917.714l-.342-.139c-1.006-.41-1.938-.742-2.851-1.015l-.134-.04-.008-.14c-.383-7.328.1-7.4.426-7.444s.816-.116,2.583,7.272c.094.378.18.755.255,1.144Zm-2.942-1.5c.776.238,1.567.516,2.405.848-.054-.257-.113-.509-.176-.763-1.353-5.658-1.926-6.763-2.136-6.949C273.061,909.586,272.83,910.753,273.112,916.218Z" transform="translate(-272.579 -908.929)"/></g><g transform="translate(47.272 135.745)"><path class="g" d="M270.379,914.862a18.251,18.251,0,0,0-2.249-.065C267.868,907.346,268.759,908.518,270.379,914.862Z" transform="translate(-267.885 -909.444)"/><path class="d" d="M270.717,915.161l-.279-.024a17.521,17.521,0,0,0-2.225-.066l-.2.008-.008-.2c-.171-4.847.164-5.3.522-5.355s.83.319,2.121,5.363Zm-1.922-.5c.447,0,.91.019,1.4.054-.983-3.8-1.43-4.614-1.6-4.771-.1.177-.313,1-.19,4.721Q268.594,914.661,268.8,914.661Z" transform="translate(-267.959 -909.52)"/></g><g transform="translate(20.277 134.256)"><path class="g" d="M251.262,910.718c.45-.619.946-1.275,1.481-1.978C258.957,911.335,260.138,912.451,251.262,910.718Z" transform="translate(-250.917 -908.496)"/><path class="d" d="M257.1,911.841a36.044,36.044,0,0,1-5.743-.836l-.306-.062.184-.252c.452-.619.948-1.278,1.483-1.981l.094-.123.142.059c4.836,2.022,5.138,2.514,5.028,2.876C257.933,911.664,257.879,911.841,257.1,911.841Zm-5.358-1.168c4.519.87,5.586.827,5.831.726-.142-.2-.918-.768-4.63-2.325C252.511,909.634,252.111,910.166,251.737,910.673Z" transform="translate(-251.046 -908.587)"/></g><g transform="translate(15.608 141.177)"><path class="g" d="M248.321,915.139c.327-.629.731-1.312,1.218-2.072C255.668,914.725,256.82,915.625,248.321,915.139Z" transform="translate(-248.002 -912.837)"/><path class="d" d="M252.154,915.553c-.892,0-2.1-.037-3.727-.131l-.306-.018.142-.273c.327-.627.729-1.31,1.227-2.086l.078-.123.142.037c4.739,1.283,5.079,1.716,5.02,2.081C254.7,915.257,254.646,915.553,252.154,915.553Zm-3.392-.512c4.313.238,5.32.054,5.545-.069-.163-.171-.966-.61-4.56-1.588C249.361,913.989,249.037,914.537,248.763,915.041Z" transform="translate(-248.121 -912.923)"/></g><g transform="translate(14.266 149.269)"><path class="g" d="M247.545,920.918a10.1,10.1,0,0,1-.14-1.753c0-.281,0-.562.01-.825C255.679,917.768,258.041,918.19,247.545,920.918Z" transform="translate(-247.205 -917.918)"/><path class="d" d="M247.462,921.24l-.038-.212a10.186,10.186,0,0,1-.144-1.789c0-.283,0-.565.01-.832l.006-.179.179-.013c6.662-.458,7.275-.129,7.341.281.053.318.131.8-7.146,2.689Zm.22-2.638c0,.208,0,.423,0,.637a10.061,10.061,0,0,0,.1,1.507c5.342-1.4,6.423-1.973,6.613-2.18C254.127,918.41,252.85,918.249,247.682,918.6Z" transform="translate(-247.28 -917.993)"/></g><g transform="translate(20.087 151.03)"><path class="g" d="M253.705,925.694a13.042,13.042,0,0,1-2.6-.131C254.53,918.141,256.077,916.088,253.705,925.694Z" transform="translate(-250.818 -919.02)"/><path class="d" d="M253.171,925.983a12.57,12.57,0,0,1-1.984-.148l-.26-.04.11-.239c2.854-6.19,3.448-6.573,3.835-6.44.29.1.726.257-.863,6.7l-.037.144-.148.006C253.6,925.979,253.385,925.983,253.171,925.983Zm-1.66-.5a13.5,13.5,0,0,0,2.147.1c1.152-4.7,1.159-5.8,1.074-6.057C254.467,919.685,253.7,920.743,251.511,925.481Z" transform="translate(-250.927 -919.096)"/></g><g transform="translate(27.166 147.605)"><path class="g" d="M258.388,925.691c-.918.262-1.893.506-2.886.712.056-.627.131-1.247.2-1.847C256.729,915.607,257.628,913.2,258.388,925.691Z" transform="translate(-255.279 -916.875)"/><path class="d" d="M255.362,926.726l.024-.267c.042-.474.1-.94.147-1.4l.051-.452c.808-7.026,1.258-7.66,1.681-7.66l.013,0c.342.008.86.022,1.393,8.8l.01.16-.153.045c-.961.276-1.938.516-2.9.715Zm1.9-9.348c-.209.249-.629,1.585-1.285,7.276l-.051.453c-.042.367-.083.739-.12,1.119.817-.177,1.641-.381,2.453-.61C257.854,918.979,257.451,917.625,257.265,917.378Z" transform="translate(-255.362 -916.95)"/></g><g transform="translate(34.814 146.046)"><path class="g" d="M263.524,923.356c-.8.346-1.612.683-2.455,1.022a.939.939,0,0,1-.094.037c-.037-.233-.065-.468-.093-.693C259.748,915,259.992,912.364,263.524,923.356Z" transform="translate(-260.079 -915.896)"/><path class="d" d="M260.887,924.739l-.034-.215c-.034-.211-.059-.421-.085-.624l-.01-.075c-.919-7.076-.624-7.744-.209-7.839.322-.062.809-.171,3.24,7.385l.054.172-.166.072c-.734.321-1.516.646-2.461,1.025a.7.7,0,0,1-.118.046Zm-.244-8.336c-.142.291-.227,1.685.512,7.371l.01.077c.014.118.03.241.046.364.8-.322,1.494-.611,2.144-.892C261.536,917.689,260.871,916.584,260.643,916.4Z" transform="translate(-260.154 -915.973)"/></g><g transform="translate(41.275 143.58)"><path class="g" d="M267.822,920.882c-.768.46-1.537.881-2.314,1.294,0-.019-.01-.029-.01-.048C263.67,913.7,263.651,911,267.822,920.882Z" transform="translate(-264.129 -914.35)"/><path class="d" d="M265.381,922.587v-.332c-1.518-6.98-1.28-7.674-.875-7.8.3-.1.761-.233,3.572,6.431l.067.16-.148.089c-.852.509-1.69.961-2.322,1.3Zm-.747-7.727c-.117.3-.085,1.665,1.085,7.095.555-.3,1.231-.666,1.923-1.076C265.568,915.973,264.864,915.017,264.634,914.86Z" transform="translate(-264.202 -914.428)"/></g><g transform="translate(105.965 218.102)"><path class="g" d="M347.176,961.244c-.967-.129-20.845,7.513-31.523,5.494s-13.562-.721-8.083,2.306,21.061,5.811,35.472.816" transform="translate(-304.657 -961.045)"/><path class="d" d="M325.971,972.86c-7.882,0-14.817-1.575-18.424-3.569-2.121-1.172-3.028-2.084-2.774-2.792.576-1.6,7.136-.615,10.992.115,8.268,1.571,22.318-2.772,28.318-4.624a19.035,19.035,0,0,1,3.194-.871l-.054.4.027-.2-.026.2a30.229,30.229,0,0,0-3.023.857c-6.027,1.859-20.141,6.215-28.511,4.635-7.377-1.4-10.29-1.071-10.542-.372-.062.172-.057.844,2.592,2.308,6.081,3.36,21.733,5.51,35.311.8l.131.378A53.151,53.151,0,0,1,325.971,972.86Z" transform="translate(-304.732 -961.118)"/></g><g class="a" transform="translate(71.542 3.598)"><path class="g" d="M321.542,867.423a69.677,69.677,0,0,0-5.487-11.939,69.4,69.4,0,0,0-10.986,4.873,92.58,92.58,0,0,0,4.981-13.94,53.739,53.739,0,0,0-7.768-8.365,63.907,63.907,0,0,0-10.316,8.167,130.03,130.03,0,0,0,2.65-14,45.534,45.534,0,0,0-9.286-4.748,113.758,113.758,0,0,1-1.617,25.648,32.793,32.793,0,0,1,6.171,4.4,59.2,59.2,0,0,1,11.548-8.594,88.586,88.586,0,0,1-5.214,15.42c13.65,14.858-14.264,38.718,10.794,91.688,4.827,10.2-5.136-24.925,3.95-43.578C327.363,878.779,321.542,867.423,321.542,867.423Z" transform="translate(-282.838 -826.283)"/><path class="d" d="M308.489,959.1c-.731,0-1.229-.924-1.872-2.284-14.959-31.619-11.213-52.742-8.48-68.167,1.807-10.194,3.114-17.56-2.18-23.324l-.35-.378.2-.476a84.129,84.129,0,0,0,4.681-13.406,56.867,56.867,0,0,0-9.743,7.483l-.523.479-.538-.464a31.879,31.879,0,0,0-6.044-4.308l-.477-.274.086-.544a113.5,113.5,0,0,0,1.607-25.5l-.037-1.211,1.127.445a46.551,46.551,0,0,1,9.423,4.814l.434.276-.072.511c-.68,4.753-1.173,7.556-2.075,11.542a62.475,62.475,0,0,1,8.509-6.485l.516-.34.458.412a54.511,54.511,0,0,1,7.864,8.469l.251.319-.113.389a92.034,92.034,0,0,1-4.128,11.974,68.024,68.024,0,0,1,9.1-3.877l.635-.228.329.587a70.908,70.908,0,0,1,5.527,12.017c.46.959,5.422,12.8-10.6,45.692-5.615,11.529-3.834,29.363-2.878,38.945.544,5.451.658,6.586-.373,6.873A1.042,1.042,0,0,1,308.489,959.1Zm-11.013-94.465c5.428,6.268,4.081,13.864,2.233,24.293-2.685,15.142-6.356,35.849,8.143,66.765-.077-.961-.195-2.136-.314-3.344-.972-9.738-2.782-27.865,3.033-39.8,15.944-32.731,10.641-44.207,10.587-44.319l-.037-.081a67.863,67.863,0,0,0-5.106-11.237,67.2,67.2,0,0,0-10.244,4.6l-2.022,1.076.916-2.1a90.376,90.376,0,0,0,4.833-13.45,50.992,50.992,0,0,0-6.965-7.53,62.182,62.182,0,0,0-9.692,7.743l-1.938,1.824.615-2.589a127.162,127.162,0,0,0,2.562-13.422,42.327,42.327,0,0,0-7.591-3.949,112.323,112.323,0,0,1-1.574,24.036,32,32,0,0,1,5.282,3.749,59.315,59.315,0,0,1,11.154-8.215l1.662-.988-.48,1.872A88.825,88.825,0,0,1,297.476,864.632Z" transform="translate(-283.165 -826.726)"/></g><g transform="translate(55.9 5.608)"><g class="a"><g transform="translate(0.576 0.57)"><path class="h" d="M289.975,847.948a13.641,13.641,0,0,1-6.372,7.441l-6.373-1.181-1.452-.271c-1.883-.891-2.174-2.943-2.014-4.638a20.9,20.9,0,0,1,6.439-12.924c2.82-2.736,6.456-4.938,8.676-8.032.15.479.3.966.431,1.443a44.418,44.418,0,0,1,1.612,8.857A22.132,22.132,0,0,1,289.975,847.948Z" transform="translate(-273.725 -828.343)"/></g><path class="d" d="M289.625,848.006a13.563,13.563,0,0,1-3.09,4.86c-.715.715-1.615,1.181-2.346,1.848-.369.337-.131.3-.627.246-1.909-.227-3.82-.707-5.711-1.058a4.969,4.969,0,0,1-2.059-.56c-1.591-1.151-1.346-3.441-1.05-5.133A20.472,20.472,0,0,1,280,837.848c3-3.223,6.956-5.422,9.6-9l-1.069-.139c1.882,6.041,3.223,13.146,1.095,19.294-.246.714.884,1.02,1.13.311,2.193-6.336.844-13.688-1.1-19.916a.593.593,0,0,0-1.069-.14c-2.768,3.741-7.058,5.969-10.07,9.49a21.4,21.4,0,0,0-5.064,11.211,6.075,6.075,0,0,0,.9,4.622,4.194,4.194,0,0,0,2.946,1.4c2,.374,4,.757,6.009,1.114,1.419.252,2.974-1.355,3.926-2.279a14.876,14.876,0,0,0,3.519-5.5C291.021,847.61,289.888,847.305,289.625,848.006Z" transform="translate(-273.365 -827.986)"/></g><g transform="translate(0.576 0.57)"><path class="i" d="M289.309,829.786c-10,9.559-11.91,19.736-12.079,24.422l-1.452-.271c-1.883-.891-2.174-2.943-2.014-4.638a20.9,20.9,0,0,1,6.439-12.924c2.82-2.736,6.456-4.938,8.676-8.032C289.028,828.822,289.178,829.309,289.309,829.786Z" transform="translate(-273.725 -828.343)"/></g></g><g transform="translate(5.361 49.51)"><g transform="translate(0 6.972)"><g transform="translate(25.944 9.888)"><g transform="translate(0.559 0.572)"><path class="c" d="M280.28,868.7a8.759,8.759,0,0,1-.268,2.724c-2.054,7.859-8.172,8.919-13.364,7.479a11.881,11.881,0,0,1-8.338-11.7S270.176,864.651,280.28,868.7Z" transform="translate(-258.306 -866.412)"/></g><path class="d" d="M270.648,880.221a14.8,14.8,0,0,1-3.941-.562,12.408,12.408,0,0,1-8.748-12.252l.011-.441.429-.093c.493-.1,12.15-2.546,22.3,1.526l.327.131.021.351a9.265,9.265,0,0,1-.284,2.9c-.881,3.368-2.541,5.773-4.937,7.152A10.3,10.3,0,0,1,270.648,880.221Zm-11.575-12.338a11.261,11.261,0,0,0,7.933,10.7,10.766,10.766,0,0,0,8.26-.618c2.128-1.224,3.612-3.4,4.413-6.466a8.229,8.229,0,0,0,.265-2.2C271.274,865.966,261.266,867.486,259.073,867.883Z" transform="translate(-257.956 -866.054)"/></g><g transform="translate(25.934 1.452)"><path class="d" d="M281.107,872.914l-.817-.327c-9.821-3.939-21.528-1.494-21.643-1.468l-.7.149.021-.712a14.2,14.2,0,0,1,.255-2.289,8.81,8.81,0,0,1,4.214-5.7,12.3,12.3,0,0,1,9.422-1.406c4.279,1.189,8.889,5.583,9.2,10.876ZM267.235,869.2a37.369,37.369,0,0,1,12.609,2.017c-.7-4.4-4.622-7.969-8.282-8.988a11.151,11.151,0,0,0-8.539,1.283,7.71,7.71,0,0,0-3.7,4.965,13.311,13.311,0,0,0-.195,1.4A47.988,47.988,0,0,1,267.235,869.2Z" transform="translate(-257.949 -860.769)"/></g><g transform="translate(26.267 2.007)"><path class="d" d="M280.128,871.861c-10.1-4.053-21.97-1.5-21.97-1.5a13.644,13.644,0,0,1,.246-2.2c1.061-5.28,7.747-8.116,12.94-6.677C275.718,862.707,279.849,867.037,280.128,871.861Z" transform="translate(-258.158 -861.116)"/></g><g transform="translate(0.031 8.427)"><g transform="translate(0.558 0.569)"><path class="c" d="M242.16,866.821a8.755,8.755,0,0,0,.037,2.736c1.382,8.006,7.388,9.58,12.683,8.582a11.88,11.88,0,0,0,9.3-10.952S252.569,863.637,242.16,866.821Z" transform="translate(-242.07 -865.495)"/></g><path class="d" d="M252.345,879.175a10.73,10.73,0,0,1-6.177-1.768c-2.27-1.577-3.722-4.113-4.314-7.542a9.4,9.4,0,0,1-.038-2.913l.051-.349.337-.1c10.453-3.2,21.863.219,22.345.365l.421.128-.029.44a12.4,12.4,0,0,1-9.751,11.468A15.526,15.526,0,0,1,252.345,879.175Zm-9.468-11.711a8.284,8.284,0,0,0,.078,2.214c.538,3.119,1.834,5.411,3.85,6.812a10.772,10.772,0,0,0,8.18,1.313,11.263,11.263,0,0,0,8.807-9.993C261.641,867.233,251.8,864.871,242.877,867.465Z" transform="translate(-241.72 -865.138)"/></g><path class="d" d="M264.916,871.289l-.683-.209c-.113-.035-11.57-3.462-21.691-.365l-.841.257.125-.87c.753-5.248,5.717-9.237,10.081-10.06a12.291,12.291,0,0,1,9.27,2.2,8.806,8.806,0,0,1,3.716,6.032,14.1,14.1,0,0,1,.061,2.306Zm-12.86-3a47.948,47.948,0,0,1,11.8,1.529,13.3,13.3,0,0,0-.077-1.421,7.707,7.707,0,0,0-3.269-5.256,11.143,11.143,0,0,0-8.4-2c-3.733.705-7.944,3.933-9.013,8.255A34.549,34.549,0,0,1,252.057,868.285Z" transform="translate(-241.701 -859.859)"/><g transform="translate(0.678 0.556)"><path class="d" d="M242.126,869.973c10.41-3.184,22.018.365,22.018.365a13.758,13.758,0,0,0-.059-2.212c-.611-5.352-7.034-8.742-12.328-7.746C247.293,861.224,242.811,865.191,242.126,869.973Z" transform="translate(-242.126 -860.207)"/></g><g transform="translate(5.913 9.293)"><circle class="d" cx="1.131" cy="1.131" r="1.131"/></g><g transform="translate(33.161 10.46)"><circle class="d" cx="1.131" cy="1.131" r="1.131"/></g></g><g transform="translate(0.007)"><g transform="translate(20.974)"><path class="d" d="M256.392,855.694a5.767,5.767,0,0,0-1.052,6.159,3.844,3.844,0,0,0,5.384,1.713c.755-.482.056-1.69-.7-1.205a2.47,2.47,0,0,1-3.518-1.3,4.367,4.367,0,0,1,.878-4.377.719.719,0,0,0,0-.986.7.7,0,0,0-.988,0Z" transform="translate(-254.847 -855.491)"/></g><g transform="translate(26.165 0.989)"><path class="d" d="M259.608,856.45c-.865,1.508-2.219,3.9-1.061,5.558,1.037,1.491,3.05,1.836,4.734,1.9,5.053.2,10.15.011,15.206.008a.7.7,0,0,0,0-1.4l-12.379.006c-1.658,0-3.564.215-5.143-.41-1.052-.417-1.647-1.085-1.346-2.238a11.465,11.465,0,0,1,1.194-2.728.7.7,0,0,0-1.205-.7Z" transform="translate(-258.099 -856.111)"/></g><g transform="translate(0 6.005)"><path class="d" d="M264.57,859.863a144.722,144.722,0,0,0-22.194-.318c-.891.064-.9,1.459,0,1.4a144.722,144.722,0,0,1,22.194.319c.9.073.891-1.322,0-1.4Z" transform="translate(-241.706 -859.253)"/></g></g></g></g></g></svg>