<svg xmlns="http://www.w3.org/2000/svg" width="191.732" height="216.384" viewBox="0 0 191.732 216.384"><defs><style>.a,.k,.m,.q,.r,.s,.t{isolation:isolate;}.b{fill:#88cab1;}.c,.i,.l{fill:#fff;}.d,.t{fill:#1a1818;}.e{fill:#4bbaa2;}.f,.j,.n,.p,.s{fill:#3b3a37;}.f{opacity:0.1;}.g{fill:#c28846;}.h{fill:#130f0f;}.i,.j,.l,.p,.q,.r,.s{stroke:#1a1818;}.i,.j,.l,.p,.q,.s{stroke-miterlimit:10;}.k{fill:#aeb0b3;}.l,.p{stroke-width:0.25px;}.m{fill:#c7c9cb;}.o{fill:#2d2c2d;}.q,.r{fill:#ffb100;}.r{stroke-linecap:round;stroke-linejoin:round;}.t{opacity:0.39;}</style></defs><g transform="translate(-22.952 -74.527)"><g transform="translate(-9 46)"><g transform="translate(96.213 28.527)"><g class="a"><path class="b" d="M2617.087-292.085c7.682,16.112,6.823,32.044-.988,48.094-1.521,3.126,1.114,10.666-.27,13.856-2.671,6.157-2.259,11.908-3,12.525a1.657,1.657,0,0,1-.853.294,12.018,12.018,0,0,1-4.908-.133c1.119-3.451,3.34-7.852,3.3-11.865a21.16,21.16,0,0,0-1.809-8.71c-.978-1.912-1.951-2.925-3.868-3.356-2.18-.491-3.037,1.678-2.885,3.908a20.316,20.316,0,0,0,1.2,5.42c1.036,3.409-.686,4.566-.761,10.264-.01.708.277,3.132-.245,3.61a2.87,2.87,0,0,1-1.544.6,11.792,11.792,0,0,1-5.393-.449c2.719-3.237,4.691-5.459,4.67-9.687a11.116,11.116,0,0,0-1.6-5.023,29.387,29.387,0,0,0-3.927-5.562,43.653,43.653,0,0,1-7.352-10.682c-1.889-3.871-1.684-8.532-1.292-11.823s1.422-6.468,2.065-9.719c1.1-5.585,1.051-11.326.993-17.019l-.128-12.882c-.014-1.448-.632-3.438-2.056-3.178a2.526,2.526,0,0,0-1.325.963l-4.006,4.569c-.748.853-1.7,1.787-2.822,1.621-1.571-.232-4.392-3.213-4.271-4.8.349-4.571,4.447-8.007,6.292-12.2,1.4-3.188,3.14-6.583,6.315-8.018,3.669-1.658,7.941-.128,11.567,1.625,2.328,1.126,5.665,5.094,7.379,7.03C2612.677-304.776,2614.323-297.882,2617.087-292.085Z" transform="translate(-2574.01 329.77)"/><path class="b" d="M2585.637-324.92l-4.306-2.695c1.986-3.212,5.869-9.472,14.428-9.435,5.435.023,11.145,3.615,15.075,7.368s7.318,10.807,9.073,15.951c4.653,13.629,5.47,16.566,4.934,20.848" transform="translate(-2578.643 339.182)"/><path class="b" d="M2611-329.307a2.654,2.654,0,0,1-1.9-2.731,6.823,6.823,0,0,1,1.251-3.381,57.34,57.34,0,0,1,5.514-7.216.638.638,0,0,1,1.11.289l.925,4.564c.21,1.039.384,2.085.49,3.14a7.7,7.7,0,0,1-.752,4.966,2.9,2.9,0,0,1-3.535,1.237" transform="translate(-2596.217 342.858)"/><g transform="translate(39.957 70.325)"><path class="b" d="M2683.51-150.247c.717-.134,1.343,1.076,1.675,1.553q.624.9,1.195,1.829a26.173,26.173,0,0,1,2.058,4.092,17.19,17.19,0,0,1,1.087,9.3c-.481,2.6-2.17,5.246-1.17,7.932.873,2.344,3.557,2.565,5.022,4.329.415.5,1.046-.138.827-.638a9.645,9.645,0,0,1-.834-3.8,13.2,13.2,0,0,0-.042-3.052c-.406-1.685-1.968-2.6-3.405-3.322-.6-.305-1.137.6-.532.91a8.049,8.049,0,0,1,2.158,1.38,3.58,3.58,0,0,1,.813,2.974,11.713,11.713,0,0,0,.933,5.446l.828-.638a10.216,10.216,0,0,0-2.971-2.072,3.754,3.754,0,0,1-2.023-3.868c.157-1.7.978-3.268,1.338-4.926a15.822,15.822,0,0,0,.307-4.455,21.567,21.567,0,0,0-2.584-8.543,33.087,33.087,0,0,0-2.516-4c-.622-.855-1.295-1.658-2.443-1.443-.666.124-.384,1.14.28,1.016Z" transform="translate(-2682.849 151.298)"/><path class="b" d="M2699.485-97.357a30.118,30.118,0,0,0-.969,3.036,4.719,4.719,0,0,0,.633,3.688c1.114,1.476,3.31,1.793,4.429,3.265a9.907,9.907,0,0,1-.9-4.452,7.687,7.687,0,0,0-.131-2.874c-.474-1.3-1.821-2.042-3.062-2.663" transform="translate(-2692.694 117.16)"/></g></g><g transform="translate(4.818 14.503)"><g transform="translate(6.364 0.36)"><path class="c" d="M2603.313-295.257a2.154,2.154,0,0,1-.066.669,2.424,2.424,0,0,1-3.282,1.837,2.918,2.918,0,0,1-2.048-2.873A10.556,10.556,0,0,1,2603.313-295.257Z" transform="translate(-2597.916 295.819)"/></g><g transform="translate(0 0)"><path class="c" d="M2580.6-296.473a2.159,2.159,0,0,0,.008.672,2.425,2.425,0,0,0,3.115,2.108,2.918,2.918,0,0,0,2.283-2.69A10.551,10.551,0,0,0,2580.6-296.473Z" transform="translate(-2580.582 296.799)"/></g><g transform="translate(1.503 1.959)"><circle class="d" cx="0.606" cy="0.606" r="0.606"/></g><g transform="translate(7.853 2.35)"><circle class="d" cx="0.606" cy="0.606" r="0.606"/></g></g></g><g transform="translate(172.044 45.282)"><g class="a" transform="translate(0)"><path class="b" d="M2927.741-353.247c7.724,16.2,6.859,32.22-.994,48.358-1.529,3.143,1.12,10.725-.271,13.932-2.686,6.19-2.271,11.973-3.015,12.594a1.67,1.67,0,0,1-.856.3,12.093,12.093,0,0,1-4.936-.133c1.125-3.47,3.358-7.9,3.319-11.931a21.273,21.273,0,0,0-1.819-8.757c-.983-1.923-1.962-2.941-3.889-3.375-2.193-.494-3.054,1.687-2.9,3.929a20.478,20.478,0,0,0,1.207,5.45c1.042,3.428-.689,4.591-.765,10.321-.01.712.279,3.149-.246,3.629a2.885,2.885,0,0,1-1.553.6,11.856,11.856,0,0,1-5.423-.451c2.734-3.255,4.716-5.489,4.7-9.74a11.178,11.178,0,0,0-1.607-5.051,29.564,29.564,0,0,0-3.95-5.592,43.9,43.9,0,0,1-7.391-10.741c-1.9-3.892-1.694-8.579-1.3-11.888s1.43-6.5,2.077-9.773c1.108-5.616,1.055-11.388,1-17.112l-.129-12.953c-.014-1.456-.636-3.457-2.068-3.195a2.54,2.54,0,0,0-1.333.968l-4.028,4.594c-.752.858-1.71,1.8-2.838,1.63-1.58-.233-4.416-3.231-4.294-4.823.352-4.6,4.473-8.05,6.328-12.269,1.41-3.206,3.158-6.62,6.349-8.062,3.689-1.667,7.986-.129,11.63,1.634,2.341,1.132,5.7,5.122,7.42,7.069C2923.307-366.008,2924.961-359.076,2927.741-353.247Z" transform="translate(-2884.427 391.139)"/><path class="b" d="M2896.079-386.181l-4.331-2.709c2-3.23,5.9-9.525,14.508-9.488,5.465.024,11.207,3.634,15.158,7.409s7.358,10.867,9.123,16.038c4.678,13.7,5.5,16.657,4.961,20.962" transform="translate(-2889.045 400.522)"/><path class="b" d="M2921.428-390.561a2.667,2.667,0,0,1-1.913-2.746,6.861,6.861,0,0,1,1.258-3.4,57.515,57.515,0,0,1,5.545-7.255.642.642,0,0,1,1.115.29l.929,4.589c.212,1.044.386,2.1.493,3.157a7.751,7.751,0,0,1-.756,4.993,2.92,2.92,0,0,1-3.555,1.244" transform="translate(-2906.563 404.186)"/><g transform="translate(40.177 70.712)"><path class="b" d="M2993.931-211.568c.721-.135,1.349,1.081,1.684,1.561.418.6.82,1.213,1.2,1.839a26.4,26.4,0,0,1,2.069,4.115,17.3,17.3,0,0,1,1.093,9.355c-.483,2.611-2.182,5.275-1.176,7.975.879,2.357,3.577,2.579,5.051,4.353.417.5,1.052-.139.832-.642a9.684,9.684,0,0,1-.839-3.825,13.29,13.29,0,0,0-.043-3.068c-.408-1.7-1.979-2.61-3.424-3.341-.606-.307-1.144.607-.534.915a8.069,8.069,0,0,1,2.169,1.387,3.6,3.6,0,0,1,.817,2.99,11.782,11.782,0,0,0,.939,5.476l.832-.642a10.275,10.275,0,0,0-2.987-2.083,3.774,3.774,0,0,1-2.035-3.889c.158-1.709.984-3.286,1.346-4.953a15.939,15.939,0,0,0,.31-4.479,21.709,21.709,0,0,0-2.6-8.591,33.483,33.483,0,0,0-2.53-4.025c-.626-.859-1.3-1.666-2.458-1.451-.67.125-.386,1.146.282,1.022Z" transform="translate(-2993.266 212.625)"/><path class="b" d="M3009.909-158.685a30.32,30.32,0,0,0-.975,3.053,4.742,4.742,0,0,0,.636,3.708c1.12,1.484,3.328,1.8,4.454,3.283a9.96,9.96,0,0,1-.906-4.476,7.7,7.7,0,0,0-.131-2.89c-.476-1.312-1.83-2.052-3.077-2.678" transform="translate(-3003.08 178.597)"/></g></g><g transform="translate(4.832 15.197)"><g transform="translate(6.399 0.362)"><path class="c" d="M2913.759-356.581a2.154,2.154,0,0,1-.067.673,2.437,2.437,0,0,1-3.3,1.847,2.933,2.933,0,0,1-2.058-2.889A10.609,10.609,0,0,1,2913.759-356.581Z" transform="translate(-2908.334 357.147)"/></g><g transform="translate(0 0)"><path class="c" d="M2891.02-357.8a2.184,2.184,0,0,0,.01.676,2.438,2.438,0,0,0,3.132,2.119,2.934,2.934,0,0,0,2.3-2.7A10.612,10.612,0,0,0,2891.02-357.8Z" transform="translate(-2890.998 358.127)"/></g><g transform="translate(1.514 0.984)"><circle class="d" cx="0.609" cy="0.609" r="0.609"/></g><g transform="translate(7.498 1.363)"><circle class="d" cx="0.609" cy="0.609" r="0.609"/></g></g></g><g transform="translate(96.213 84.849)"><g class="a" transform="translate(0 0)"><path class="e" d="M2725.583-284.422c9.639,20.215,8.56,40.2-1.24,60.341-1.908,3.922,1.4,13.382-.339,17.384-3.351,7.724-2.833,14.94-3.762,15.714a2.075,2.075,0,0,1-1.069.369,15.076,15.076,0,0,1-6.158-.166c1.4-4.33,4.19-9.851,4.141-14.886a26.54,26.54,0,0,0-2.269-10.927c-1.227-2.4-2.448-3.669-4.854-4.211-2.736-.616-3.809,2.105-3.619,4.9a25.539,25.539,0,0,0,1.5,6.8c1.3,4.277-.859,5.729-.955,12.878-.012.888.348,3.929-.307,4.529a3.6,3.6,0,0,1-1.937.752,14.792,14.792,0,0,1-6.766-.563c3.412-4.061,5.885-6.849,5.859-12.153a13.956,13.956,0,0,0-2-6.3c-1.217-2.035-3.2-5.361-4.929-6.979-2.375-2.217-6.577-7.981-9.223-13.4-2.37-4.856-2.114-10.7-1.622-14.833s1.785-8.115,2.591-12.194c1.384-7.008,1.318-14.21,1.247-21.352l-.161-16.162c-.019-1.816-.794-4.314-2.581-3.987a3.166,3.166,0,0,0-1.662,1.208l-5.028,5.733c-.937,1.07-2.133,2.242-3.541,2.034-1.971-.291-5.509-4.031-5.357-6.018.437-5.735,5.579-10.045,7.895-15.31,1.76-4,3.94-8.26,7.923-10.06,4.6-2.081,9.964-.161,14.512,2.039,2.921,1.413,7.108,6.391,9.258,8.821C2720.051-300.345,2722.115-291.7,2725.583-284.422Z" transform="translate(-2671.538 330.5)"/><path class="e" d="M2684.26-321.831l-5.4-3.381c2.492-4.03,7.365-11.884,18.1-11.838,6.818.029,13.983,4.535,18.914,9.244s9.181,13.559,11.383,20.013c5.838,17.1,6.862,20.784,6.189,26.156" transform="translate(-2675.485 338.522)"/><path class="e" d="M2709.012-325.857c-1.469-.243-2.409-1.893-2.387-3.427a8.568,8.568,0,0,1,1.57-4.242,71.884,71.884,0,0,1,6.919-9.053.8.8,0,0,1,1.392.363l1.161,5.726c.264,1.3.481,2.616.615,3.94.207,2.061.229,4.449-.944,6.231-.956,1.452-2.905,2.324-4.436,1.552" transform="translate(-2685.049 342.858)"/><path class="e" d="M2709.012-325.857c-1.469-.243-2.409-1.893-2.387-3.427a8.568,8.568,0,0,1,1.57-4.242,71.884,71.884,0,0,1,6.919-9.053.8.8,0,0,1,1.392.363l1.161,5.726c.264,1.3.481,2.616.615,3.94.207,2.061.229,4.449-.944,6.231-.956,1.452-2.905,2.324-4.436,1.552" transform="translate(-2696.814 342.858)"/><g transform="translate(50.133 87.031)"><path class="e" d="M2781.205-149.979c.9-.168,1.684,1.35,2.1,1.948q.784,1.125,1.5,2.3a32.9,32.9,0,0,1,2.583,5.134,21.573,21.573,0,0,1,1.365,11.674c-.6,3.257-2.723,6.582-1.467,9.951,1.094,2.941,4.462,3.218,6.3,5.431.52.626,1.313-.174,1.038-.8a12.077,12.077,0,0,1-1.046-4.772,16.646,16.646,0,0,0-.053-3.829c-.511-2.115-2.47-3.257-4.273-4.169-.758-.383-1.428.757-.667,1.141a10.106,10.106,0,0,1,2.708,1.731c1.047,1.061,1.086,2.322,1.019,3.732a14.69,14.69,0,0,0,1.172,6.833l1.038-.8a12.834,12.834,0,0,0-3.729-2.6,4.711,4.711,0,0,1-2.538-4.853c.2-2.132,1.228-4.1,1.68-6.18a19.872,19.872,0,0,0,.385-5.589,27.078,27.078,0,0,0-3.241-10.719,41.8,41.8,0,0,0-3.157-5.022c-.781-1.072-1.625-2.08-3.065-1.811-.835.156-.481,1.431.352,1.275Z" transform="translate(-2780.376 151.298)"/><path class="e" d="M2797.287-97.357a37.91,37.91,0,0,0-1.217,3.809,5.92,5.92,0,0,0,.794,4.627c1.4,1.852,4.153,2.25,5.557,4.1a12.451,12.451,0,0,1-1.131-5.585,9.606,9.606,0,0,0-.164-3.606c-.594-1.637-2.285-2.561-3.84-3.341" transform="translate(-2788.766 122.203)"/></g></g><g transform="translate(6.636 18.809)"><g transform="translate(7.985 0.451)"><path class="c" d="M2702.213-295.113a2.727,2.727,0,0,1-.083.84,3.042,3.042,0,0,1-4.117,2.3,3.662,3.662,0,0,1-2.569-3.6A13.243,13.243,0,0,1,2702.213-295.113Z" transform="translate(-2695.443 295.819)"/></g><g transform="translate(0 0)"><path class="c" d="M2678.135-296.39a2.766,2.766,0,0,0,.011.843,3.043,3.043,0,0,0,3.909,2.644,3.662,3.662,0,0,0,2.865-3.375A13.244,13.244,0,0,0,2678.135-296.39Z" transform="translate(-2678.108 296.799)"/></g><g transform="translate(0.925 2.146)"><circle class="d" cx="0.76" cy="0.76" r="0.76"/></g><g transform="translate(8.605 2.146)"><circle class="d" cx="0.76" cy="0.76" r="0.76"/></g></g></g><g transform="translate(141.724 88.411)"><g class="a"><path class="e" d="M2804.345-286.647c9.07,19.024,8.055,37.835-1.167,56.786-1.8,3.691,1.315,12.594-.319,16.36-3.153,7.269-2.667,14.06-3.541,14.788a1.957,1.957,0,0,1-1.007.348,14.187,14.187,0,0,1-5.795-.157c1.321-4.075,3.943-9.271,3.9-14.009a24.988,24.988,0,0,0-2.135-10.284c-1.156-2.258-2.3-3.453-4.568-3.963-2.575-.58-3.586,1.981-3.407,4.614a24.018,24.018,0,0,0,1.417,6.4c1.224,4.025-.809,5.392-.9,12.119-.011.836.328,3.7-.289,4.262a3.391,3.391,0,0,1-1.823.707,13.921,13.921,0,0,1-6.367-.53c3.21-3.822,5.538-6.446,5.515-11.437a13.138,13.138,0,0,0-1.888-5.931c-1.146-1.915-3.007-5.045-4.638-6.568-2.236-2.086-6.189-7.511-8.68-12.613-2.231-4.57-1.99-10.074-1.527-13.959s1.68-7.637,2.438-11.476c1.3-6.595,1.24-13.373,1.173-20.094l-.151-15.21c-.017-1.709-.747-4.059-2.428-3.752a2.983,2.983,0,0,0-1.564,1.137l-4.73,5.395c-.882,1.007-2.007,2.11-3.333,1.914-1.855-.274-5.185-3.794-5.042-5.664.412-5.4,5.251-9.454,7.43-14.408,1.656-3.765,3.709-7.773,7.456-9.467,4.333-1.958,9.377-.151,13.657,1.919,2.749,1.329,6.69,6.014,8.713,8.3C2799.138-301.631,2801.081-293.492,2804.345-286.647Z" transform="translate(-2753.482 331.142)"/><path class="e" d="M2765.888-322.728l-5.084-3.182c2.345-3.793,6.93-11.184,17.036-11.141,6.417.027,13.159,4.268,17.8,8.7s8.64,12.761,10.713,18.834c5.493,16.092,6.457,19.56,5.825,24.615" transform="translate(-2757.631 339.568)"/><path class="e" d="M2790.818-326.858a3.132,3.132,0,0,1-2.246-3.225,8.055,8.055,0,0,1,1.477-3.992,67.655,67.655,0,0,1,6.511-8.52.753.753,0,0,1,1.31.342l1.093,5.389c.249,1.226.453,2.462.578,3.707.2,1.939.217,4.187-.887,5.864a3.43,3.43,0,0,1-4.175,1.461" transform="translate(-2773.361 342.858)"/><g transform="translate(47.179 83.035)"><path class="e" d="M2863.1-150.057c.847-.158,1.585,1.27,1.977,1.833q.736,1.059,1.411,2.16a30.99,30.99,0,0,1,2.429,4.832,20.3,20.3,0,0,1,1.283,10.986c-.568,3.065-2.562,6.194-1.381,9.365,1.032,2.767,4.2,3.028,5.931,5.111.49.589,1.235-.163.978-.754a11.35,11.35,0,0,1-.985-4.491,15.611,15.611,0,0,0-.052-3.6c-.48-1.99-2.323-3.065-4.02-3.923-.712-.361-1.343.712-.629,1.074a9.5,9.5,0,0,1,2.548,1.629,4.231,4.231,0,0,1,.96,3.512,13.823,13.823,0,0,0,1.1,6.43l.977-.754a12.074,12.074,0,0,0-3.509-2.447,4.434,4.434,0,0,1-2.389-4.567c.186-2.007,1.155-3.859,1.581-5.816a18.679,18.679,0,0,0,.362-5.26,25.459,25.459,0,0,0-3.051-10.087,39.16,39.16,0,0,0-2.97-4.727c-.736-1.009-1.53-1.957-2.885-1.7-.786.147-.453,1.346.331,1.2Z" transform="translate(-2862.323 151.298)"/><path class="e" d="M2879.153-97.357a35.847,35.847,0,0,0-1.144,3.585,5.574,5.574,0,0,0,.747,4.354c1.317,1.743,3.908,2.117,5.23,3.855a11.716,11.716,0,0,1-1.064-5.256,9.053,9.053,0,0,0-.154-3.394c-.56-1.54-2.151-2.411-3.615-3.144" transform="translate(-2871.134 120.739)"/></g></g><g transform="translate(7.059 16.957)"><g transform="translate(7.515 0.425)"><path class="c" d="M2783.76-295.155a2.527,2.527,0,0,1-.078.79,2.862,2.862,0,0,1-3.874,2.169,3.444,3.444,0,0,1-2.418-3.392A12.46,12.46,0,0,1,2783.76-295.155Z" transform="translate(-2777.39 295.819)"/></g><g transform="translate(0 0)"><path class="c" d="M2760.081-296.415a2.566,2.566,0,0,0,.01.794,2.863,2.863,0,0,0,3.678,2.489,3.445,3.445,0,0,0,2.7-3.176A12.459,12.459,0,0,0,2760.081-296.415Z" transform="translate(-2760.055 296.799)"/></g><g transform="translate(1.775 1.872)"><circle class="d" cx="0.715" cy="0.715" r="0.715"/></g><g transform="translate(9.273 1.872)"><circle class="d" cx="0.715" cy="0.715" r="0.715"/></g></g></g></g><g transform="translate(22.952 96.154)"><ellipse class="f" cx="39.91" cy="7.085" rx="39.91" ry="7.085" transform="matrix(1, 0.017, -0.017, 1, 0.247, 179.198)"/><g transform="translate(24.08 5.228)"><g class="a"><path class="g" d="M265.642,560.3a8.2,8.2,0,0,1-2.648,5.262l-3.889.229-.887.051a2.584,2.584,0,0,1-1.845-2.417,12.564,12.564,0,0,1,1.9-8.472c1.252-2,3.057-3.814,3.908-5.938.156.257.315.52.46.78a26.846,26.846,0,0,1,2.218,4.937A13.323,13.323,0,0,1,265.642,560.3Z" transform="translate(-255.896 -548.663)"/><path class="d" d="M265.275,560.282a8.175,8.175,0,0,1-1.12,3.3,13.3,13.3,0,0,1-1.079,1.38c-.2.248-.044.225-.385.245l-3.417.2a5.1,5.1,0,0,1-1.111.042c-1.146-.2-1.432-1.683-1.522-2.625a12.264,12.264,0,0,1,1.535-7.068c1.288-2.329,3.29-4.191,4.324-6.67l-.644.084c1.971,3.257,3.773,7.211,3.418,11.108-.041.451.663.448.7,0,.366-4.013-1.484-8.107-3.514-11.463a.357.357,0,0,0-.644.084c-1.085,2.6-3.293,4.534-4.541,7.052a12.686,12.686,0,0,0-1.262,7.545,3.31,3.31,0,0,0,1.3,2.34,2.635,2.635,0,0,0,1.792.285c1.219-.071,2.439-.13,3.658-.216.831-.058,1.459-1.13,1.878-1.778a8.965,8.965,0,0,0,1.337-3.848C266.032,559.832,265.328,559.836,265.275,560.282Z" transform="translate(-255.881 -548.648)"/></g><path class="h" d="M262.635,549.791c-4.458,7.021-4.107,13.236-3.53,16l-.887.051a2.584,2.584,0,0,1-1.845-2.417,12.564,12.564,0,0,1,1.9-8.472c1.252-2,3.057-3.814,3.908-5.938C262.332,549.268,262.491,549.531,262.635,549.791Z" transform="translate(-255.896 -548.663)"/></g><g transform="translate(70.026 75.708)"><g class="a" transform="translate(0 3.427)"><path class="i" d="M330.889,626.655c1.054,2.09-.289,4.531-2.069,5.733-1.546,1.042-3.929,1.446-4.607,3.4-.654,1.881.161,3.919,1,5.595a33.619,33.619,0,0,1,2.73,6,18.525,18.525,0,0,1-.952,12.444,17.366,17.366,0,0,1-8.7,8.675,18.3,18.3,0,0,1-13.584.588,1.6,1.6,0,0,1-.817-2.091,1.619,1.619,0,0,1,2.091-.816,14.81,14.81,0,0,0,17.953-7.3,15.253,15.253,0,0,0,1-10.538,31.962,31.962,0,0,0-2.605-5.647,11.81,11.81,0,0,1-1.471-6.152,6.621,6.621,0,0,1,3.671-5.46c.978-.535,4.235-1.62,3.421-3.235a1.6,1.6,0,0,1,.875-2.067,1.62,1.62,0,0,1,2.067.875Z" transform="translate(-303.759 -625.663)"/></g><g class="a" transform="translate(23.237)"><path class="j" d="M328.13,630.093a3.232,3.232,0,0,0,3.807,1.919,7.491,7.491,0,0,0,3.809-2.613c1.184-1.333,2.22-2.8,3.467-4.07a9.1,9.1,0,0,1,4.507-2.732,27.352,27.352,0,0,0-8.891-.26,8.723,8.723,0,0,0-2.623.684c-2.266,1.086-3.42,3.609-4.233,5.987Z" transform="translate(-327.974 -622.092)"/></g></g><g class="a" transform="translate(15.319 117.245)"><path class="c" d="M281.956,700.11a5.351,5.351,0,0,1-1.409,2.321c-.141.169-.282.333-.406.49-1.656,2.1-2.986,3.8-4.152,5.465-.4.581-.789,1.161-1.16,1.747-.626.981-1.218,1.995-1.809,3.11-.344.654-.687,1.342-1.042,2.08-.918,1.927-1.882,4.192-3.015,7.054-.163.394-.321.8-.484,1.217-.113.288-.186.614-.321.891a1.145,1.145,0,0,1-.349.451c-.045.034-.09.062-.135.09a.005.005,0,0,0-.006,0,2.6,2.6,0,0,1-1.369.164c-.287-.023-.58-.039-.868-.062-2.192-.157-4.384-.321-6.575-.473.017-.051.034-.108.057-.158.147-.444.3-.884.479-1.329.169-.423.344-.851.535-1.273a54.708,54.708,0,0,1,3.87-7.043c.423-.665.851-1.33,1.291-1.983q.854-1.293,1.719-2.558.625-.9,1.234-1.792c.034-.051.073-.1.112-.158.322-.417.9-1.065,1.521-1.86.417-.518.857-1.1,1.262-1.718a11.119,11.119,0,0,0,1.369-2.739c.451-1.465-.867-3.752-5.82-4.62a58.473,58.473,0,0,1-5.944-1.342,36.994,36.994,0,0,1-4.609-1.633,19.019,19.019,0,0,1-5.539-3.51,10.519,10.519,0,0,1-2.485-3.465,10.1,10.1,0,0,1-.755-5.049,16.811,16.811,0,0,1,.755-3.583c.293-.941.608-1.746.823-2.372a51.482,51.482,0,0,1,5.1-10.734l19.213,18.909c-3.222.834-3.065,2.39-1.572,4.181a21.388,21.388,0,0,0,2.694,2.563c1.194,1,2.5,2,3.628,2.93a17.085,17.085,0,0,1,2.333,2.226c.1.124.226.287.366.467a8.192,8.192,0,0,1,1.471,2.62A1.7,1.7,0,0,1,281.956,700.11Z" transform="translate(-246.766 -665.39)"/><path class="d" d="M281.6,700c-.25,1.21-1.32,2.145-2.062,3.084-.711.9-1.421,1.806-2.117,2.72a54.56,54.56,0,0,0-3.958,5.861,60.6,60.6,0,0,0-3.008,6.118c-.464,1.068-.909,2.144-1.344,3.224q-.35.868-.7,1.739a5.3,5.3,0,0,1-.8,1.836c-.487.444-1.367.242-1.982.2q-1.068-.076-2.134-.156-2.329-.17-4.658-.334l.34.445c2.033-5.689,5.444-10.661,8.843-15.608,1.5-2.186,3.473-4,4.443-6.533a2.9,2.9,0,0,0-.68-3.214c-1.4-1.478-3.566-2.009-5.487-2.356a51.839,51.839,0,0,1-8.137-2.08c-5-1.777-10.481-5.089-10.714-11.014-.122-3.1,1.1-6.111,2.175-8.965a51.61,51.61,0,0,1,4.5-9.066l-.554.071,6.505,6.4,10.318,10.154,2.391,2.353.155-.589c-1.178.321-2.842.926-2.854,2.4-.011,1.514,1.518,2.88,2.521,3.8,1.794,1.649,3.793,3.052,5.625,4.653a13.759,13.759,0,0,1,2.113,2.256c.546.751,1.331,1.71,1.249,2.687-.037.452.667.449.7,0a3.442,3.442,0,0,0-.707-2.1,14.651,14.651,0,0,0-1.472-2,38.515,38.515,0,0,0-4.8-4.118c-1.479-1.194-3.247-2.469-4.2-4.156a1.538,1.538,0,0,1-.153-1.593,3.605,3.605,0,0,1,2.165-1.155.355.355,0,0,0,.156-.588l-6.505-6.4-10.318-10.155-2.39-2.352a.356.356,0,0,0-.553.071,52.66,52.66,0,0,0-3.947,7.669,38.4,38.4,0,0,0-2.615,7.953,10.967,10.967,0,0,0,1.19,7.548,14.174,14.174,0,0,0,5.28,4.864,32.532,32.532,0,0,0,7.654,3.009c1.321.358,2.659.659,4,.922a23.137,23.137,0,0,1,3.887.927c1.24.474,2.985,1.43,3.056,2.959a5.871,5.871,0,0,1-1.262,2.979,34.329,34.329,0,0,1-2.554,3.333c-.949,1.152-1.746,2.447-2.579,3.684-.932,1.386-1.853,2.778-2.729,4.2a47.623,47.623,0,0,0-4.4,8.957.357.357,0,0,0,.34.446q2.192.153,4.384.314a20.947,20.947,0,0,0,3.885.216c.99-.119,1.311-.762,1.616-1.631.462-1.312,1.02-2.6,1.55-3.884a59.625,59.625,0,0,1,7.209-13.124c.887-1.188,1.8-2.355,2.722-3.516.775-.975,1.814-1.916,2.076-3.182C282.373,699.746,281.694,699.557,281.6,700Z" transform="translate(-246.751 -665.375)"/></g><path class="k" d="M270.526,687.616c-10.975-5.443-15.494-13.425-17.478-19.358.316-.564,1.1-1.527,1.453-2.08l18.38,18.435C270.391,685.256,269.918,686.331,270.526,687.616Z" transform="translate(-231.687 -548.163)"/><path class="l" d="M253.048,613.92s3.268-23.264,13.571-32.216,14.544-1.858,14.544-1.858l3.659,87.958" transform="translate(-231.687 -544.571)"/><g class="a" transform="translate(16.802 65.716)"><path class="c" d="M253.84,612.032s-4.039,12.67-4.915,23.651c-.992,12.427.7,25.766,8.475,35.51a45.764,45.764,0,0,0,8.951,8.281,36.687,36.687,0,0,0,11.615,6.039c2.643.73,12.112,1.373,17.284-2.6" transform="translate(-248.312 -611.693)"/><path class="d" d="M253.486,611.925a125.88,125.88,0,0,0-3.627,14.518,75.89,75.89,0,0,0-1.075,23.609c.938,7.531,3.368,14.975,8.072,21.02a45.489,45.489,0,0,0,9.2,8.618,38.157,38.157,0,0,0,11.085,5.939,26.216,26.216,0,0,0,16.275-1.2,12.206,12.206,0,0,0,2-1.223c.358-.27.007-.882-.355-.608a17.229,17.229,0,0,1-8.863,2.97,26.275,26.275,0,0,1-7.565-.269c-3.694-.751-7.192-2.771-10.283-4.855a50.321,50.321,0,0,1-9.423-7.989c-10.453-11.656-11.279-29.033-8.762-43.74a123.6,123.6,0,0,1,4-16.6c.137-.434-.542-.619-.679-.187Z" transform="translate(-248.297 -611.679)"/></g><g class="a" transform="translate(7.848 13.243)"><path class="c" d="M277.371,582.676a63.715,63.715,0,0,1-.654,7.651,4.873,4.873,0,0,1-1.284,1.538c-7.478,6.766-16.379,12.492-24.2,18.864-.1.084-.2.163-.3.248a5.015,5.015,0,0,1-2.2,1.251,4.489,4.489,0,0,1-3.375-1.251c-3.436-2.681-4.631-5.673-5.657-9.916l-.355-.671c-.185-3.674,1.764-8.029,2.89-11.528.649-2.006,1.51-4.141.863-6.147-.316-.969-.958-1.809-1.3-2.772-.63-1.831-1.515-3.2-.811-5,1.774-4.558,7.527-12.345,11.939-14.452,23.062-10.987,33.113,10.147,33.08,13.906-.107,13.359-4.31,16.052-1.724,35.559,1.206,9.082,10.9,25.332,17.287,32.809,6.378,5.628,12.1,7.353,16.306,13.652,1.673,2.513,9.73,15.072-4.925,29.53a50.062,50.062,0,0,1-3.911,3.46c-.09.067-.175.141-.265.208-.862.677-1.56,1.9-1.087,2.891a8.845,8.845,0,0,0,3.9,3.443,24.377,24.377,0,0,1,5.567,3.482,2.559,2.559,0,0,1,.642.913,2.5,2.5,0,0,1-.118,1.8,9.288,9.288,0,0,1-1.752,2.553c-.7.783-1.46,1.5-2.011,2.084-.158.169-.322.355-.479.553a13.812,13.812,0,0,0-.981,1.392c-.344.535-.676,1.121-1,1.746-.057.108-.118.226-.175.338-.276.547-.547,1.122-.806,1.713-1.588,3.64-2.744,7.888-2.642,10.474l-7.348-.885-.3-.034c-.028-5.11,1.8-10.406,3.934-15.049.552-1.218,1.194-2.586.715-3.838a4.658,4.658,0,0,0-2.22-2.1,70.169,70.169,0,0,1-6.44-4.3,32.956,32.956,0,0,1-13.157-31.6" transform="translate(-238.981 -557.014)"/><path class="d" d="M277,582.662a45.743,45.743,0,0,1-.335,5.322,9,9,0,0,1-.284,2.175,5.078,5.078,0,0,1-1.54,1.735q-1.034.926-2.093,1.821c-5.7,4.833-11.869,9.074-17.8,13.614q-2.09,1.6-4.134,3.26a4.614,4.614,0,0,1-2.361,1.3,4.189,4.189,0,0,1-2.725-1.072,14.151,14.151,0,0,1-4.963-7.179c-.222-.684-.414-1.378-.591-2.075-.117-.462-.363-.827-.487-1.265a5.633,5.633,0,0,1,.08-1.942,20.125,20.125,0,0,1,.584-2.793c.9-3.305,2.5-6.47,3.151-9.84a6.458,6.458,0,0,0-.691-4.469,23.937,23.937,0,0,1-1.1-2.526,6.334,6.334,0,0,1-.634-2.718,10.07,10.07,0,0,1,1.6-3.78,39.374,39.374,0,0,1,2.235-3.485,32.525,32.525,0,0,1,5.8-6.414,21.551,21.551,0,0,1,7.664-3.591,22.051,22.051,0,0,1,13.98.206,21.468,21.468,0,0,1,8.8,6.462,22.337,22.337,0,0,1,4.088,7.093,7.591,7.591,0,0,1,.387,2.725,57.9,57.9,0,0,1-.577,6.986c-.56,3.9-1.438,7.735-1.775,11.662a59.135,59.135,0,0,0-.133,7.66,68.464,68.464,0,0,0,.94,9.452c.946,5.1,3.324,10,5.731,14.552a107.841,107.841,0,0,0,9.136,14.5c.69.916,1.4,1.819,2.136,2.7a21.73,21.73,0,0,0,3.9,3.195c2.537,1.848,5.248,3.462,7.7,5.428a23.25,23.25,0,0,1,6.833,8.777,19.72,19.72,0,0,1,1.335,11.728c-1.282,6.418-5.609,11.738-10.45,15.922-1.092.944-2.65,1.808-3.112,3.267a2.518,2.518,0,0,0,.633,2.444c1.664,2.1,4.174,2.972,6.407,4.3,1.125.67,3.254,1.753,3.221,3.276-.041,1.861-2.02,3.531-3.225,4.749a23.274,23.274,0,0,0-4.9,8.308,23.821,23.821,0,0,0-1.952,8.842l.352-.352c-2.551-.307-5.1-.634-7.652-.918l.352.352c.007-5.2,1.765-10.191,3.885-14.872.847-1.871,1.55-3.929-.251-5.481a18.882,18.882,0,0,0-2.571-1.649q-1.242-.759-2.434-1.595a40.735,40.735,0,0,1-9.269-8.2,33.222,33.222,0,0,1-5.624-11.058,31.806,31.806,0,0,1-.916-13.945c.072-.443-.607-.635-.679-.187a33.415,33.415,0,0,0,4.909,23.131,31.9,31.9,0,0,0,8.213,8.73c1.62,1.165,3.234,2.35,4.923,3.412a24.017,24.017,0,0,1,2.95,1.862c1.163,1,1.091,2.308.573,3.637-1.043,2.678-2.3,5.221-3.117,7.992a29.22,29.22,0,0,0-1.3,8.225.362.362,0,0,0,.352.352c2.554.284,5.1.611,7.652.918a.356.356,0,0,0,.352-.352c-.093-3.4,1.165-6.955,2.482-10.036a27.143,27.143,0,0,1,2.414-4.559c1.041-1.537,2.511-2.7,3.673-4.134.868-1.075,1.881-2.563,1.38-4.014-.4-1.152-1.75-1.972-2.721-2.6-2.352-1.512-5.268-2.372-7.013-4.675-.952-1.256-.241-2.429.882-3.322a48.311,48.311,0,0,0,4.363-3.912,32.048,32.048,0,0,0,5.986-8.167,20.861,20.861,0,0,0,1.806-13.849,22.324,22.324,0,0,0-3.239-7.447c-3.668-5.5-9.644-8.311-14.675-12.328a13.29,13.29,0,0,1-1.933-1.7q-.58-.69-1.136-1.4c-.812-1.031-1.592-2.086-2.351-3.156-1.721-2.426-3.334-4.929-4.855-7.484a77.7,77.7,0,0,1-7.572-15.886,40.113,40.113,0,0,1-1.524-8.528,71.7,71.7,0,0,1-.335-9.022,96.106,96.106,0,0,1,1.651-12.636,64.513,64.513,0,0,0,.764-6.411,15.359,15.359,0,0,0-.047-4.508,20.1,20.1,0,0,0-3.4-6.844,23.316,23.316,0,0,0-8.013-7.1,21.04,21.04,0,0,0-12.7-2.036,31.374,31.374,0,0,0-8.374,2.5,18.96,18.96,0,0,0-6.231,4.747,41.071,41.071,0,0,0-5.179,7.034,22.614,22.614,0,0,0-1.61,3.243c-.638,1.663-.018,3.132.575,4.7.652,1.724,1.831,3.269,1.7,5.188a21.916,21.916,0,0,1-1.552,5.549c-1.085,3.108-2.433,6.339-2.428,9.687a2.311,2.311,0,0,0,.331,1.183,20.579,20.579,0,0,1,.619,2.209,18.652,18.652,0,0,0,1.543,3.775,13.481,13.481,0,0,0,2.51,3.2c1.082,1.021,2.431,2.182,3.972,2.336s2.651-.914,3.752-1.806c1.5-1.213,3.017-2.393,4.552-3.556,3.076-2.33,6.2-4.594,9.286-6.911,3.011-2.263,5.989-4.576,8.829-7.052.932-.812,2.353-1.744,2.726-2.993a11.927,11.927,0,0,0,.288-2.284,45.73,45.73,0,0,0,.335-5.322.352.352,0,0,0-.7,0Z" transform="translate(-238.966 -557)"/></g><path class="m" d="M278.385,685.638a30.018,30.018,0,0,1-10.086-4.812,50.133,50.133,0,0,1-9.421-7.99c-10.457-11.652-11.281-29.028-8.767-43.734.141-.823,1.305-7.608,1.468-8.431C250.283,649.394,257.41,671.542,278.385,685.638Z" transform="translate(-231.52 -546.326)"/><g class="a" transform="translate(21.22 78.086)"><path class="c" d="M278.283,624.93c-.579.97-1.311,2.028-2.428,2.2a4.336,4.336,0,0,1-2.285-.538,21.647,21.647,0,0,0-20.319,2.131" transform="translate(-252.915 -624.584)"/><path class="d" d="M277.965,624.737c-.574.951-1.331,2.122-2.592,2.048a15.048,15.048,0,0,1-3.393-1.164,21.431,21.431,0,0,0-6.449-1,22.273,22.273,0,0,0-12.471,3.787c-.373.251-.022.863.355.607a21.637,21.637,0,0,1,13.452-3.645,21.4,21.4,0,0,1,6.815,1.643,3.464,3.464,0,0,0,2.892.24,5.156,5.156,0,0,0,2-2.158.353.353,0,0,0-.608-.356Z" transform="translate(-252.901 -624.569)"/></g><g class="a" transform="translate(27.018 80.821)"><path class="c" d="M288.353,627.773c.949,3.016,2.02,10.482-4.009,12.839-.461.179-7.356-3.4-9-4.23l-4.5-2.265c-3.617-1.82-7.548-3.695-11.543-3.033" transform="translate(-258.957 -627.434)"/><path class="d" d="M288,627.853a15.152,15.152,0,0,1,.629,6.351,8.418,8.418,0,0,1-1.195,3.482,6.4,6.4,0,0,1-1.271,1.443,5.392,5.392,0,0,1-1.878,1.124,6.126,6.126,0,0,1-1.992-.811c-1.128-.525-2.243-1.079-3.354-1.637-2.283-1.147-4.558-2.309-6.839-3.458-4-2.014-8.268-4.321-12.9-3.617-.446.068-.257.747.187.68,4.549-.692,8.824,1.766,12.735,3.735,2.347,1.182,4.686,2.383,7.037,3.555,1.136.566,2.275,1.132,3.435,1.649a3.72,3.72,0,0,0,1.832.589,5.282,5.282,0,0,0,1.914-1.053,7.111,7.111,0,0,0,1.354-1.346,8.358,8.358,0,0,0,1.5-3.43,15.307,15.307,0,0,0-.51-7.443c-.134-.432-.815-.247-.679.187Z" transform="translate(-258.942 -627.42)"/></g><path class="m" d="M275.929,625.669s1.731,8.42,4.861,8.039,4.839-3.615,4.348-7.016S275.929,625.669,275.929,625.669Z" transform="translate(-232.61 -546.495)"/><path class="m" d="M277.477,592.177c-2.09,9.032-24.565,23.925-24.565,23.925l1.272-4.37,1.449-2.2c7.82-6.373,13.083-9.054,20.559-15.82A4.876,4.876,0,0,0,277.477,592.177Z" transform="translate(-231.681 -545.177)"/><g transform="translate(7.524 82.232)"><g class="a"><path class="c" d="M260.136,630.55c-2.519-1.11-5.726-1-8.469-1.245a7.754,7.754,0,0,0-2.924.171,9.171,9.171,0,0,0-2.635,1.491l-6.352,4.591a1.883,1.883,0,0,0-.679.7,1.752,1.752,0,0,0,.169,1.383,11.194,11.194,0,0,0,4.867,5.247,2.762,2.762,0,0,0,1.428.425,2.849,2.849,0,0,0,1.878-1.22,13.463,13.463,0,0,0,2.315-4.052c.4-1.106.76-2.4,1.823-2.9" transform="translate(-238.643 -628.904)"/><path class="d" d="M260.3,630.231c-2.784-1.182-5.927-1.1-8.893-1.314a6.922,6.922,0,0,0-4.33.933c-1.5.929-2.9,2.057-4.338,3.093l-2.041,1.475a7.258,7.258,0,0,0-1.817,1.443c-.732,1.064.3,2.594.893,3.492a11.7,11.7,0,0,0,2.843,3c1.01.746,2.391,1.693,3.681,1.108,1.385-.629,2.378-2.381,3.037-3.669a18.7,18.7,0,0,0,.921-2.232,3.472,3.472,0,0,1,1.463-2.121c.4-.211.045-.82-.356-.608a3.979,3.979,0,0,0-1.718,2.352,16.764,16.764,0,0,1-1.733,3.635,8.531,8.531,0,0,1-1.268,1.559,1.9,1.9,0,0,1-2.466.142,10.777,10.777,0,0,1-2.918-2.362,10.647,10.647,0,0,1-1.114-1.532c-.386-.643-1.145-1.728-.617-2.452a7.927,7.927,0,0,1,1.75-1.31l1.928-1.394c1.21-.875,2.408-1.773,3.636-2.623a6.352,6.352,0,0,1,4.07-1.254c1.486.061,2.982.177,4.463.295a14.56,14.56,0,0,1,4.566.953c.413.176.772-.431.356-.609Z" transform="translate(-238.629 -628.89)"/></g><g class="a" transform="translate(0.434 2.809)"><path class="n" d="M239.569,636.3a4.47,4.47,0,0,1,.849-.651c1.281-.931,2.569-1.859,3.85-2.791.256-.185.51-.375.769-.567a9.9,9.9,0,0,0,2.828,3.952,21.567,21.567,0,0,0,1.7,1.4l-.06.166a13.369,13.369,0,0,1-2.257,4.08c-.5.615-1.159,1.325-2.036,1.176a5.061,5.061,0,0,1-1.8-.891c-.133-.088-.268-.182-.394-.285a10.571,10.571,0,0,1-2.455-2.533,8.973,8.973,0,0,1-1.046-1.883A1.1,1.1,0,0,1,239.569,636.3Zm4,5.641a4.893,4.893,0,0,0,1.68.844c.659.109,1.184-.347,1.773-1.078a12.956,12.956,0,0,0,2.2-3.969c-.555-.424-1.046-.832-1.481-1.229a12.035,12.035,0,0,1-4.477,5.219C243.37,641.8,243.469,641.874,243.572,641.942Z" transform="translate(-239.093 -631.836)"/><path class="d" d="M239.342,636.1a3.236,3.236,0,0,1,.679-.551c.074-.046.152-.1.221-.145l3.85-2.791c.2-.151.4-.3.6-.451l.472-.346.125.368a9.485,9.485,0,0,0,2.677,3.768,20.5,20.5,0,0,0,1.748,1.442l.168.126-.13.364a13.751,13.751,0,0,1-2.3,4.165,3.486,3.486,0,0,1-1.521,1.224,1.759,1.759,0,0,1-.785.054,5.312,5.312,0,0,1-1.906-.94c-.172-.118-.344-.236-.509-.367a10.987,10.987,0,0,1-2.416-2.522,9.513,9.513,0,0,1-1.077-1.943A1.375,1.375,0,0,1,239.342,636.1Zm7.672,5.589a12.954,12.954,0,0,0,2.2-3.969c-.555-.424-1.046-.832-1.481-1.229a10.785,10.785,0,0,1-2.842-3.769c-.158.119-.312.231-.471.345l-3.851,2.791c-.076.06-.155.107-.239.162a2.914,2.914,0,0,0-.559.443.7.7,0,0,0-.064.71c.017.054.037.118.062.181a8.746,8.746,0,0,0,1.015,1.821,10.591,10.591,0,0,0,2.473,2.533c.1.075.2.145.3.213a4.892,4.892,0,0,0,1.68.845C245.9,642.877,246.425,642.42,247.014,641.69Z" transform="translate(-239.081 -631.817)"/></g><path class="o" d="M243.434,641.906c.1.075.2.145.3.213a4.894,4.894,0,0,0,1.68.845c.659.109,1.184-.347,1.773-1.078a12.954,12.954,0,0,0,2.2-3.969c-.555-.424-1.046-.832-1.481-1.229A12.035,12.035,0,0,1,243.434,641.906Z" transform="translate(-238.823 -629.205)"/></g><path class="p" d="M284.208,597.75s-6.014,7.409-10.643,9.383-9.973,4.2-7.3,4.815,10.9-2.188,17.944-7.1" transform="translate(-232.191 -545.401)"/><g class="a" transform="translate(8.446 69.899)"><path class="c" d="M263.881,631.965a42.117,42.117,0,0,1-5.916,4.152l-5.319,2.512c-2.862,1.122-12.677,4.621-12.671-2.473,0-4.366.563-4.237,12.317-19.777" transform="translate(-239.605 -616.052)"/><path class="d" d="M263.616,631.7a32.138,32.138,0,0,1-6.35,4.337l-4.454,2.1a22.836,22.836,0,0,1-3.433,1.209,15.4,15.4,0,0,1-5.373.741,3.613,3.613,0,0,1-3.557-2.644,8.846,8.846,0,0,1-.06-3.076,10.88,10.88,0,0,1,2.242-4.661c3.15-4.5,6.633-8.787,9.948-13.168.274-.362-.338-.713-.607-.356-3.194,4.221-6.511,8.361-9.592,12.665a12.825,12.825,0,0,0-2.648,5.18c-.411,2.564-.059,5.595,2.779,6.493a10.8,10.8,0,0,0,5.391-.079,28.576,28.576,0,0,0,4.683-1.438c1.527-.611,3-1.4,4.486-2.1a34.986,34.986,0,0,0,7.042-4.706c.352-.286-.149-.782-.5-.5Z" transform="translate(-239.59 -616.039)"/></g><g class="a" transform="translate(31.639 72.558)"><path class="c" d="M264.139,623.514c2.081-1.8,5.177-2.646,7.727-3.685a7.748,7.748,0,0,1,2.843-.7,9.169,9.169,0,0,1,2.959.649l7.422,2.516a1.881,1.881,0,0,1,.857.471,1.753,1.753,0,0,1,.246,1.371,11.194,11.194,0,0,1-3.105,6.449,2.78,2.78,0,0,1-1.239.826,2.855,2.855,0,0,1-2.155-.612,13.461,13.461,0,0,1-3.4-3.19c-.7-.94-1.433-2.068-2.6-2.229" transform="translate(-263.773 -618.823)"/><path class="d" d="M264.373,623.75c2-1.687,4.579-2.43,6.974-3.359a7.859,7.859,0,0,1,4.258-.842,29.891,29.891,0,0,1,4.34,1.365l4.506,1.527a4.5,4.5,0,0,1,1,.373,1.107,1.107,0,0,1,.4,1.1,9.016,9.016,0,0,1-.444,2.112,10.805,10.805,0,0,1-1.9,3.53,5.025,5.025,0,0,1-1.452,1.381,2.343,2.343,0,0,1-2.294-.522,13.489,13.489,0,0,1-3.359-3.237,4.574,4.574,0,0,0-2.629-2.153c-.443-.083-.633.6-.187.679,1.436.269,2.152,1.855,3.029,2.868a11.732,11.732,0,0,0,3.5,2.868c1.383.68,2.462.2,3.447-.87a11.64,11.64,0,0,0,2.257-3.607c.434-1.092,1.068-2.829.636-4a1.669,1.669,0,0,0-1.092-.957c-.89-.337-1.806-.613-2.707-.919-1.754-.594-3.506-1.2-5.265-1.783a7.159,7.159,0,0,0-4.705-.173c-1.564.51-3.124,1.152-4.649,1.771a15.119,15.119,0,0,0-4.155,2.349c-.347.293.154.789.5.5Z" transform="translate(-263.758 -618.81)"/></g><path class="m" d="M249.017,640.943a37.669,37.669,0,0,0,15.42-8.168,33.967,33.967,0,0,1-6.055,5.776,37.43,37.43,0,0,1-9.376,4.613Z" transform="translate(-231.523 -546.815)"/><g transform="translate(21.486 47.001)"><path class="q" d="M257.542,626.053a25.842,25.842,0,0,0-4.17,1.77c.2-4.181.524-7.6.755-9.731.084-.749.152-1.347.2-1.758.057-.44.09-.677.09-.677l3.719.439,0,0a54.754,54.754,0,0,0-.587,6.6C257.519,623.833,257.519,624.948,257.542,626.053Z" transform="translate(-253.186 -593.125)"/><path class="q" d="M259.2,657.918a.732.732,0,0,1-1.259.087l-2.44-3.565a10.252,10.252,0,0,1-1.749-4.78c-.341-3.459-.513-6.909-.572-10.2.057-.022.108-.044.158-.061a39.455,39.455,0,0,0,5.161-2.451,88.23,88.23,0,0,0,2.211,10.688C262.194,652.511,259.2,657.918,259.2,657.918Z" transform="translate(-253.178 -593.984)"/><path class="r" d="M258.246,615.152s14.689-8.967,19.358-22.975l-3.65,3.359a50.591,50.591,0,0,1-14.72,15.192C252.743,615.141,258.246,615.152,258.246,615.152Z" transform="translate(-253.295 -592.177)"/><path class="q" d="M257.323,611.66a2.949,2.949,0,0,0-3.728,2.1c-.369,1.881.834,3.04,2.957,3.05S260.72,613.169,257.323,611.66Z" transform="translate(-253.192 -592.957)"/></g><g class="a" transform="translate(17.433 69.521)"><path class="d" d="M252.413,615.9c-.326,1.327-.744,2.633-1.072,3.961-.945,3.826-1.7,7.7-2.38,11.58-.078.443.6.634.679.188.684-3.881,1.434-7.755,2.38-11.581.328-1.328.746-2.634,1.072-3.961.108-.44-.571-.628-.679-.187Z" transform="translate(-248.955 -615.644)"/></g><g class="a" transform="translate(14.956 83.736)"><path class="d" d="M247.063,634.539c.185-.782,1.191-1.262,1.842-1.579a16.856,16.856,0,0,1,4.021-1.269,24.233,24.233,0,0,1,10.688.131.352.352,0,0,0,.187-.679,25.071,25.071,0,0,0-11.448-.05,15.832,15.832,0,0,0-4.172,1.446c-.72.392-1.6.957-1.8,1.812-.1.44.575.629.678.187Z" transform="translate(-246.374 -630.457)"/></g><g class="a" transform="translate(18.096 81.348)"><path class="d" d="M253.044,628.015a13.238,13.238,0,0,0-3.3,2.455c-.312.328.185.827.5.5a12.654,12.654,0,0,1,3.157-2.345c.4-.216.044-.824-.355-.607Z" transform="translate(-249.645 -627.969)"/></g><g class="a" transform="translate(25.49 78.694)"><path class="d" d="M257.8,626.778c.93-.315,1.869-.6,2.811-.879a.353.353,0,0,0-.187-.679c-.941.278-1.881.565-2.812.879a.361.361,0,0,0-.246.434.355.355,0,0,0,.434.246Z" transform="translate(-257.35 -625.203)"/></g><g class="a" transform="translate(2.579 52.391)"><path class="n" d="M244.059,599.518a6.336,6.336,0,0,1,1.335-.885c3.184-1.387,7.111.349,8.812,3.691a10.522,10.522,0,0,1-1.132,10.762c-1.668,2.107-12.847,5.324-16.182,1.172-.045-.057-.265-.231-.574-.535a8.488,8.488,0,0,1-2.48-6.338c0-.248.012-.507.034-.766a5.84,5.84,0,0,1,2.311-4.768,5.629,5.629,0,0,1,2.8-.834.686.686,0,0,1-.023-.248" transform="translate(-233.49 -597.809)"/><path class="d" d="M238.628,601.174l.34-.446a5.559,5.559,0,0,0-4.156,1.981,6.9,6.9,0,0,0-1.282,3.7,9.349,9.349,0,0,0,2.316,7.412,9.754,9.754,0,0,0,2.106,1.858,7.89,7.89,0,0,0,2.958.909,18.739,18.739,0,0,0,7.063-.651,19.7,19.7,0,0,0,3.307-1.174,5.7,5.7,0,0,0,2.029-1.365c.286-.347-.209-.848-.5-.5-.9,1.1-2.627,1.622-3.92,2.035a20.833,20.833,0,0,1-6.285,1.049c-1.8,0-3.913-.271-5.229-1.629a15.582,15.582,0,0,1-1.77-1.946,8.194,8.194,0,0,1-1.317-3.316,9.318,9.318,0,0,1,.42-4.817,4.689,4.689,0,0,1,4.258-2.843.652.652,0,0,0,.509-.607,2.6,2.6,0,0,1,.014-1.092" transform="translate(-233.475 -597.873)"/><path class="d" d="M244.727,599.753c3.134-2.494,7.518-.9,9.4,2.377a10.045,10.045,0,0,1-.939,10.764c-.276.358.335.709.608.355,2.545-3.3,3.022-8.477.615-11.988a8.01,8.01,0,0,0-4.7-3.289,6.229,6.229,0,0,0-5.484,1.282c.2.084.3.416.5.5" transform="translate(-233.909 -597.795)"/></g><g class="a" transform="translate(43.827 73.95)"><path class="n" d="M285.978,622.891a4.465,4.465,0,0,0-1-.372c-1.5-.512-3-1.019-4.5-1.532-.3-.1-.6-.208-.9-.316a9.9,9.9,0,0,1-1.538,4.609,21.443,21.443,0,0,1-1.212,1.837l.107.141a13.382,13.382,0,0,0,3.358,3.234,2.333,2.333,0,0,0,2.294.524,5.066,5.066,0,0,0,1.454-1.38c.1-.124.2-.253.293-.389a10.589,10.589,0,0,0,1.6-3.145,9.008,9.008,0,0,0,.444-2.106A1.1,1.1,0,0,0,285.978,622.891Zm-2.163,6.57a4.9,4.9,0,0,1-1.358,1.3c-.6.3-1.234.017-2.011-.507a13,13,0,0,1-3.274-3.145c.406-.569.755-1.1,1.054-1.611a12.03,12.03,0,0,0,5.815,3.668C283.966,629.269,283.894,629.365,283.815,629.461Z" transform="translate(-276.473 -620.276)"/><path class="d" d="M286.116,622.638a3.229,3.229,0,0,0-.812-.326c-.084-.023-.175-.051-.253-.074l-4.5-1.533c-.237-.084-.473-.163-.71-.253l-.552-.192-.012.39a9.482,9.482,0,0,1-1.448,4.388,20.7,20.7,0,0,1-1.245,1.893l-.125.169.231.31a13.749,13.749,0,0,0,3.426,3.3,3.483,3.483,0,0,0,1.814.721,1.739,1.739,0,0,0,.767-.18,5.306,5.306,0,0,0,1.544-1.459c.13-.164.259-.327.377-.5a10.981,10.981,0,0,0,1.566-3.121A9.538,9.538,0,0,0,286.64,624,1.373,1.373,0,0,0,286.116,622.638Zm-5.685,7.6a13,13,0,0,1-3.274-3.145c.406-.569.755-1.1,1.054-1.611a10.8,10.8,0,0,0,1.606-4.439c.185.067.366.13.552.191l4.5,1.532c.09.034.18.057.276.085a2.917,2.917,0,0,1,.665.259.7.7,0,0,1,.271.659c0,.057,0,.124-.006.192a8.708,8.708,0,0,1-.434,2.039,10.582,10.582,0,0,1-1.617,3.15c-.074.1-.147.2-.226.294a4.9,4.9,0,0,1-1.358,1.3C281.844,631.044,281.208,630.763,280.431,630.239Z" transform="translate(-276.458 -620.26)"/></g><path class="o" d="M284.055,629.371c-.074.1-.147.2-.225.294a4.9,4.9,0,0,1-1.358,1.3c-.6.3-1.234.017-2.011-.507a13.005,13.005,0,0,1-3.274-3.145c.406-.569.755-1.1,1.054-1.611A12.03,12.03,0,0,0,284.055,629.371Z" transform="translate(-232.661 -546.529)"/><path class="l" d="M258.313,629.477" transform="translate(-231.899 -546.682)"/><path class="p" d="M260.32,558.037c-1,.5-9.027,4.9-12.3,12.127a.717.717,0,0,0-.064.263.637.637,0,0,0,1.141.373c1.255-1.58,6.326-7.741,11.938-11.505a.725.725,0,0,0-.513-1.322h0A.688.688,0,0,0,260.32,558.037Z" transform="translate(-231.481 -543.796)"/><path class="s" d="M232.761,567.307c2.979-6.718,5.288-10.952,13.283-17.63.485,1.014,1.562,2.916,2.046,3.931a15.267,15.267,0,0,0-4.133,10.038c1.772-3.429,2.832-4.019,6.012-6.28.51,1.1,1.668,2.86,2.177,3.958a35.8,35.8,0,0,0-10.012,13.161c-.87-.572-1.877-1.351-2.747-1.922a22.152,22.152,0,0,1,1.081-10.662,11.6,11.6,0,0,0-3.221,8.939C236.368,570.212,233.64,567.932,232.761,567.307Z" transform="translate(-230.868 -543.461)"/><path class="s" d="M247.08,548.817a28.131,28.131,0,0,1,5.586-3.064,66.219,66.219,0,0,1,3.923,7.114,58.337,58.337,0,0,1,1.269-8.84,25.813,25.813,0,0,1,5.979-.826,54.326,54.326,0,0,1,2.838,8.258,73.845,73.845,0,0,1,2.521-8,26.127,26.127,0,0,1,5.909,1.4,59.973,59.973,0,0,0-6.232,13.395,17.573,17.573,0,0,0-4.236-.346,51.57,51.57,0,0,0-3.3-9.017,55.434,55.434,0,0,0-1.576,9.691,18.3,18.3,0,0,0-4.091,1.509A51.344,51.344,0,0,0,247.08,548.817Z" transform="translate(-231.446 -543.2)"/><ellipse class="d" cx="3.901" cy="5.32" rx="3.901" ry="5.32" transform="translate(12.553 56.551) rotate(-13.63)"/><path class="d" d="M237.472,614.071a2.23,2.23,0,0,1-1.154-.029,8.488,8.488,0,0,1-2.48-6.339,2.575,2.575,0,0,1,1.713-1.544c1.6-.389,3.33,1.065,3.86,3.251S239.073,613.683,237.472,614.071Z" transform="translate(-230.911 -545.738)"/><path class="m" d="M302.872,726.441l-.3-.034c-.028-5.111,1.8-10.407,3.933-15.05.553-1.217,1.195-2.586.716-3.837a4.661,4.661,0,0,0-2.22-2.1,69.713,69.713,0,0,1-6.44-4.305,32.955,32.955,0,0,1-13.157-31.6c-.407,6.082,3.557,23.111,18.644,30.667C314.808,705.57,305.028,709.174,302.872,726.441Z" transform="translate(-232.976 -548.297)"/><g transform="translate(62.766 175.653)"><g class="a"><path class="n" d="M296.681,737.257c-.356,1.164,1.437,1.615,2.651,1.7,4.431.3,9.908-1.246,10.572-2.087,2.205-2.784.133-6.346.526-9.185a69.472,69.472,0,0,0-7.447-.987,23.1,23.1,0,0,0-3.293,3.826A33.613,33.613,0,0,0,296.681,737.257Z" transform="translate(-296.212 -726.258)"/><path class="d" d="M297.834,739.107a2.591,2.591,0,0,1-1.415-.868,1.266,1.266,0,0,1-.16-1.125h0a33.893,33.893,0,0,1,3.047-6.822,22.405,22.405,0,0,1,3.437-3.976l.124-.077.146.015a64.8,64.8,0,0,1,7.775,1.072,39.039,39.039,0,0,0,.168,4.452c.257,1.738.548,3.709-.737,5.332-.819,1.039-6.53,2.542-10.931,2.247A7.08,7.08,0,0,1,297.834,739.107Zm-.766-1.745a.425.425,0,0,0,.047.4,3.308,3.308,0,0,0,2.227.753c4.541.305,9.732-1.319,10.212-1.926,1.058-1.337.807-3.038.563-4.683a7.018,7.018,0,0,1,.115-3.843c-.828-.153-2.8-.463-7.135-.942a23.774,23.774,0,0,0-3.058,3.6,33.021,33.021,0,0,0-2.971,6.647Z" transform="translate(-296.194 -726.24)"/></g><g transform="translate(7.301 1.564)"><path class="o" d="M303.8,738.4c3.1-.41,5.725-1.329,6.062-1.751,1.058-1.339.8-3.039.56-4.681a7.071,7.071,0,0,1,.113-3.852c-.326-.061-.833-.14-1.595-.25A14.324,14.324,0,0,1,303.8,738.4Z" transform="translate(-303.802 -727.87)"/></g></g><g transform="translate(22.515 173.607)"><g class="a"><path class="n" d="M254.774,735.823a1.525,1.525,0,0,0,1.636,1.957c5.031-.145,10.654.663,11.346-.351,2.12-3.095-.379-9.677,1.227-12.282a75.51,75.51,0,0,0-8.426-.566,24.47,24.47,0,0,0-3.19,4.272A36,36,0,0,0,254.774,735.823Z" transform="translate(-254.269 -724.127)"/><path class="d" d="M264.935,738.377c-.849,0-1.879-.036-3.112-.083-1.69-.064-3.607-.138-5.419-.085a2.105,2.105,0,0,1-1.736-.738,2,2,0,0,1-.347-1.773h0a36.438,36.438,0,0,1,2.627-7.059,23.636,23.636,0,0,1,3.33-4.439l.126-.091.155.007a74.3,74.3,0,0,1,8.5.576l.621.131-.333.54c-.676,1.094-.535,3.1-.389,5.222.18,2.6.368,5.3-.851,7.077C267.728,738.216,266.74,738.377,264.935,738.377Zm-7.22-1.081c1.419,0,2.846.055,4.143.1,2.2.084,5.206.2,5.51-.243,1.043-1.522.867-4.058.7-6.511a13.456,13.456,0,0,1,.232-5.159c-.884-.1-2.981-.283-7.589-.471a25.275,25.275,0,0,0-2.958,4.015,35.414,35.414,0,0,0-2.562,6.881,1.122,1.122,0,0,0,.176,1,1.184,1.184,0,0,0,1.013.405C256.82,737.3,257.267,737.3,257.714,737.3Z" transform="translate(-254.25 -724.108)"/></g><g transform="translate(7.572 1.173)"><path class="o" d="M262.14,737.335l.034.112c2.192.089,5.209.2,5.513-.242,1.046-1.52.868-4.06.7-6.51a13.442,13.442,0,0,1,.232-5.16c-.429-.045-1.172-.116-2.352-.205C265.75,728.051,266.528,733.323,262.14,737.335Z" transform="translate(-262.14 -725.33)"/></g></g><path class="p" d="M265.741,558c-.756.319-6.9,2.97-11.62,11.225a.751.751,0,0,0-.1.279.664.664,0,0,0,1.183.448,57.128,57.128,0,0,1,11.251-10.614.763.763,0,0,0-.549-1.388h0A.811.811,0,0,0,265.741,558Z" transform="translate(-231.726 -543.795)"/><path class="t" d="M272.4,563.372c-.118.7-2.6.857-5.534.36a12.8,12.8,0,0,1-5.107-2.162,12.8,12.8,0,0,1,5.534-.359C270.233,561.708,272.519,562.677,272.4,563.372Z" transform="translate(-232.038 -543.92)"/><path class="m" d="M264.492,631.945s-5.518-1.378-9.4-.507c0,0,5.574.131,6.9,2.535A22.772,22.772,0,0,0,264.492,631.945Z" transform="translate(-231.769 -546.749)"/><path class="l" d="M249.126,641.5" transform="translate(-231.528 -547.167)"/><path class="p" d="M262.722,604s.056-5.075-1.711-7.987,4.111-2.526,4.746,5.649" transform="translate(-231.995 -545.264)"/><path class="p" d="M268.8,599.261s-.075-6.235-2.776-9.09c-.628-.663-2.158-1.571-2.162-2.238,0-.776,6.113.048,7.635,9.153" transform="translate(-232.123 -544.996)"/><path class="p" d="M274.918,593.963s-.915-5.582-4.154-6.92-3.028-2.605-.915-2.394,7.331,2.026,7.608,7.456" transform="translate(-232.302 -544.872)"/><path class="p" d="M285.422,610.51s-5.578,3.743-9.906,4.824-4.28,2.563,1.129,2.069a31.148,31.148,0,0,0,9.558-2.473" transform="translate(-232.468 -545.916)"/><path class="p" d="M298.83,641.159s-10.706,6.275-20.812,5.654-14.984-.62-9.234,1.863,20.617,3.414,33.877-2.535" transform="translate(-232.223 -547.153)"/><path class="p" d="M255.1,682.664a27.328,27.328,0,0,1-7.945.316,16.8,16.8,0,0,1,.755-3.583C256.918,680.478,260.908,681.318,255.1,682.664Z" transform="translate(-231.449 -548.696)"/><path class="p" d="M257.289,690.23a25.609,25.609,0,0,1-6.863,1.612,10.517,10.517,0,0,1-2.485-3.465h.012C258.174,687.746,263.1,687.74,257.289,690.23Z" transform="translate(-231.481 -549.044)"/><path class="p" d="M264.54,694.425a21.571,21.571,0,0,1-3.628,2.716,36.989,36.989,0,0,1-4.609-1.633C264.844,691.653,268.884,690.206,264.54,694.425Z" transform="translate(-231.818 -549.199)"/><path class="p" d="M272.4,708.113c-.53.034-1.122.051-1.775.034.417-.518.857-1.1,1.262-1.718C275.665,707.291,276.358,707.843,272.4,708.113Z" transform="translate(-232.396 -549.787)"/><path class="p" d="M270.879,712.135a24.463,24.463,0,0,1-3.246-.029q.625-.9,1.234-1.792c.034-.051.073-.1.112-.157C273.933,711.182,275.285,711.836,270.879,712.135Z" transform="translate(-232.275 -549.937)"/><path class="p" d="M267.873,716.871a25.365,25.365,0,0,1-3.375-.034c.423-.665.851-1.33,1.291-1.984C270.888,715.908,272.331,716.567,267.873,716.871Z" transform="translate(-232.149 -550.127)"/><path class="p" d="M306.02,649.1s-17.779,8.446-32.525,6.753c-7.974-.915-6.214,2.856,1.065,4.008,7.686,1.216,14.816,2.755,37.457-6.608" transform="translate(-232.3 -547.474)"/><path class="p" d="M317.478,657.6s-13.75,8.114-22.41,8.234-12.04-.419-7.073,1.978c4.431,2.138,14.877,3.8,32.8-5.647" transform="translate(-233.004 -547.817)"/><path class="p" d="M323.012,667.075c-.866.276-14.82,8.475-22.364,8.337-9.541-.174-7.8,1.04-2.081,2.081s13.242,1.919,25.215-4.242" transform="translate(-233.335 -548.199)"/><path class="p" d="M315.442,691.351a50.073,50.073,0,0,1-3.911,3.459,42.132,42.132,0,0,1-5.838-.71c-5.719-1.042-7.459-2.253,2.085-2.084A38.506,38.506,0,0,0,315.442,691.351Z" transform="translate(-233.622 -549.179)"/><path class="p" d="M320.6,708.111c-1.583-.135-3.032-.371-4.378-.614-5.719-1.042-7.46-2.253,2.084-2.079.575.011,1.167.006,1.77-.017a2.562,2.562,0,0,1,.642.913A2.5,2.5,0,0,1,320.6,708.111Z" transform="translate(-234.047 -549.746)"/><path class="p" d="M316.24,711.093a14.449,14.449,0,0,0,2.524-.208c-.7.783-1.46,1.5-2.011,2.084-.158.169-.322.355-.479.553-.732-.108-1.437-.226-2.119-.349C308.437,712.13,306.695,710.918,316.24,711.093Z" transform="translate(-233.964 -549.967)"/><path class="p" d="M314.27,716.9c-.057.107-.118.225-.175.338-.276.547-.547,1.122-.806,1.713C308.01,717.974,306.319,716.858,314.27,716.9Z" transform="translate(-233.937 -550.21)"/><path class="p" d="M288.419,638.653a6.688,6.688,0,0,1-1.747,1.527c0-.034-.006-.062-.006-.1-.738-10.012-.073-9.454,1.358-3.51C288.183,637.244,288.319,637.937,288.419,638.653Z" transform="translate(-233.031 -546.795)"/><path class="p" d="M283.207,640.087c-.575-.259-1.228-.575-1.9-.907-.451-7.466.214-6.525,1.521-1.1A20.067,20.067,0,0,1,283.207,640.087Z" transform="translate(-232.821 -546.856)"/><path class="p" d="M277.31,637.16c-.563-.287-1.032-.524-1.324-.671-.22-.112-.422-.214-.614-.31-.485-7.775.18-6.88,1.5-1.392A23.417,23.417,0,0,1,277.31,637.16Z" transform="translate(-232.581 -546.723)"/><path class="p" d="M272,634.493c-.22-.119-.462-.237-.721-.367-.4-.2-.806-.406-1.212-.6-.473-7.686.192-6.773,1.51-1.307A23.135,23.135,0,0,1,272,634.493Z" transform="translate(-232.367 -546.62)"/><path class="p" d="M267.082,632.234c-.569-.23-1.144-.438-1.724-.613-.332-6.328.339-5.229,1.573-.068C266.986,631.778,267.037,632,267.082,632.234Z" transform="translate(-232.18 -546.593)"/><path class="p" d="M262.033,631a11,11,0,0,0-1.352-.039C260.523,626.478,261.058,627.182,262.033,631Z" transform="translate(-231.994 -546.617)"/><path class="p" d="M243.831,628.143c.271-.372.569-.767.891-1.189C248.457,628.514,249.167,629.185,243.831,628.143Z" transform="translate(-231.315 -546.58)"/><path class="p" d="M240.89,632.526c.2-.378.44-.789.732-1.246C245.307,632.278,246,632.819,240.89,632.526Z" transform="translate(-231.196 -546.754)"/><path class="p" d="M240.058,638.015a6.069,6.069,0,0,1-.084-1.054c0-.169,0-.338.006-.5C244.949,636.122,246.369,636.375,240.058,638.015Z" transform="translate(-231.159 -546.958)"/><path class="p" d="M245.239,641.327a7.835,7.835,0,0,1-1.56-.079C245.735,636.786,246.664,635.552,245.239,641.327Z" transform="translate(-231.309 -547.003)"/><path class="p" d="M249.806,640.469c-.553.157-1.138.3-1.736.428.035-.377.08-.75.119-1.11C248.808,634.406,249.349,632.958,249.806,640.469Z" transform="translate(-231.486 -546.916)"/><path class="p" d="M254.8,638.678c-.479.208-.969.412-1.476.614a.385.385,0,0,1-.057.022c-.022-.14-.039-.281-.057-.416C252.528,633.652,252.675,632.068,254.8,638.678Z" transform="translate(-231.678 -546.877)"/><path class="p" d="M259,636.575c-.462.276-.924.53-1.391.778,0-.012-.006-.017-.006-.029C256.5,632.259,256.489,630.631,259,636.575Z" transform="translate(-231.842 -546.815)"/><path class="p" d="M322.87,679.457c-.582-.078-12.533,4.517-18.953,3.3s-8.154-.434-4.86,1.387,12.662,3.494,21.327.49" transform="translate(-233.478 -548.699)"/><path class="s" d="M299.026,569.7a41.969,41.969,0,0,0-3.3-7.178,41.755,41.755,0,0,0-6.6,2.93,55.671,55.671,0,0,0,3-8.381,32.263,32.263,0,0,0-4.671-5.03,38.451,38.451,0,0,0-6.2,4.91,78.208,78.208,0,0,0,1.593-8.418,27.414,27.414,0,0,0-5.583-2.855,68.4,68.4,0,0,1-.972,15.42,19.778,19.778,0,0,1,3.71,2.644,35.587,35.587,0,0,1,6.943-5.167,53.157,53.157,0,0,1-3.136,9.271c8.207,8.933-8.576,23.279,6.491,55.128,2.9,6.132-3.088-14.987,2.374-26.2C302.526,576.533,299.026,569.7,299.026,569.7Z" transform="translate(-232.624 -543.3)"/><g transform="translate(33.727 2.879)"><g class="a"><path class="g" d="M276.064,558.344a8.2,8.2,0,0,1-3.831,4.474l-3.832-.71-.873-.163a2.583,2.583,0,0,1-1.211-2.789,12.563,12.563,0,0,1,3.87-7.77c1.7-1.645,3.883-2.969,5.218-4.829.09.288.18.581.259.867a26.773,26.773,0,0,1,.969,5.325A13.323,13.323,0,0,1,276.064,558.344Z" transform="translate(-265.948 -546.214)"/><path class="d" d="M275.71,558.237a8.155,8.155,0,0,1-1.858,2.922c-.431.43-.971.71-1.411,1.111-.222.2-.079.183-.377.148-1.148-.136-2.3-.425-3.434-.636a2.988,2.988,0,0,1-1.238-.337c-.957-.692-.809-2.069-.631-3.086a12.314,12.314,0,0,1,3.161-6.229c1.806-1.938,4.183-3.26,5.772-5.41l-.644-.083c1.132,3.632,1.939,7.9.659,11.6-.148.429.532.613.679.187,1.318-3.81.508-8.23-.659-11.974a.357.357,0,0,0-.644-.085c-1.663,2.249-4.243,3.589-6.053,5.706a12.878,12.878,0,0,0-3.046,6.741,3.657,3.657,0,0,0,.541,2.779,2.518,2.518,0,0,0,1.771.843c1.2.224,2.407.455,3.613.67.853.152,1.787-.815,2.361-1.37a8.957,8.957,0,0,0,2.116-3.31C276.549,558,275.868,557.815,275.71,558.237Z" transform="translate(-265.933 -546.2)"/></g><path class="h" d="M275.664,547.424c-6.011,5.747-7.161,11.867-7.263,14.684l-.873-.163a2.583,2.583,0,0,1-1.211-2.789,12.563,12.563,0,0,1,3.87-7.77c1.7-1.645,3.883-2.969,5.218-4.829C275.5,546.845,275.585,547.138,275.664,547.424Z" transform="translate(-265.948 -546.214)"/></g><g transform="translate(3.341 29.274)"><g transform="translate(0 4.192)"><g transform="translate(15.599 5.945)"><path class="c" d="M264.085,586a5.294,5.294,0,0,1-.16,1.638c-1.235,4.725-4.913,5.362-8.035,4.5a7.145,7.145,0,0,1-5.014-7.034S258.011,583.568,264.085,586Z" transform="translate(-250.539 -584.282)"/><path class="d" d="M258.156,592.786a8.9,8.9,0,0,1-2.369-.338,7.461,7.461,0,0,1-5.26-7.366l.007-.265.258-.056c.3-.062,7.3-1.531,13.405.917l.2.079.012.211a5.565,5.565,0,0,1-.171,1.743,6.611,6.611,0,0,1-2.968,4.3A6.2,6.2,0,0,1,258.156,592.786Zm-6.959-7.418a6.77,6.77,0,0,0,4.769,6.433,6.472,6.472,0,0,0,4.966-.371,5.967,5.967,0,0,0,2.653-3.888,4.95,4.95,0,0,0,.159-1.32C258.532,584.215,252.514,585.129,251.2,585.368Z" transform="translate(-250.525 -584.268)"/></g><g transform="translate(15.592 0.873)"><path class="d" d="M264.441,586.285l-.491-.2c-5.9-2.368-12.944-.9-13.014-.883l-.418.089.013-.428a8.52,8.52,0,0,1,.154-1.375,5.3,5.3,0,0,1,2.534-3.428,7.392,7.392,0,0,1,5.665-.845,7.787,7.787,0,0,1,5.528,6.539Zm-8.34-2.23a22.47,22.47,0,0,1,7.581,1.213,7.2,7.2,0,0,0-4.98-5.4,6.7,6.7,0,0,0-5.134.772,4.636,4.636,0,0,0-2.226,2.985,7.993,7.993,0,0,0-.117.844A28.843,28.843,0,0,1,256.1,584.055Z" transform="translate(-250.518 -578.983)"/></g><g transform="translate(15.793 1.207)"><path class="d" d="M263.936,585.79c-6.075-2.436-13.21-.9-13.21-.9a8.207,8.207,0,0,1,.148-1.322c.637-3.174,4.658-4.88,7.779-4.014A7.4,7.4,0,0,1,263.936,585.79Z" transform="translate(-250.727 -579.33)"/></g><g transform="translate(0.018 5.066)"><path class="c" d="M234.693,584.506a5.237,5.237,0,0,0,.022,1.645c.831,4.814,4.442,5.76,7.625,5.16a7.144,7.144,0,0,0,5.591-6.585S240.951,582.592,234.693,584.506Z" transform="translate(-234.303 -583.367)"/><path class="d" d="M240.677,591.792a6.451,6.451,0,0,1-3.714-1.063,6.607,6.607,0,0,1-2.594-4.534,5.623,5.623,0,0,1-.023-1.751l.031-.21.2-.062c6.285-1.921,13.145.131,13.435.22l.252.078-.016.264a7.458,7.458,0,0,1-5.862,6.9A9.255,9.255,0,0,1,240.677,591.792Zm-5.694-7.041a5.024,5.024,0,0,0,.048,1.331,5.966,5.966,0,0,0,2.315,4.1,6.476,6.476,0,0,0,4.917.79,6.771,6.771,0,0,0,5.3-6.007C246.266,584.612,240.346,583.192,234.984,584.751Z" transform="translate(-234.289 -583.352)"/></g><path class="d" d="M248.227,584.945l-.41-.126c-.068-.021-6.956-2.081-13.042-.219l-.506.154.075-.523a7.788,7.788,0,0,1,6.061-6.049,7.39,7.39,0,0,1,5.574,1.321,5.294,5.294,0,0,1,2.234,3.626,8.471,8.471,0,0,1,.036,1.387Zm-7.731-1.806a28.847,28.847,0,0,1,7.1.919,8.009,8.009,0,0,0-.046-.854,4.634,4.634,0,0,0-1.965-3.16,6.7,6.7,0,0,0-5.052-1.2,7.2,7.2,0,0,0-5.418,4.963A20.76,20.76,0,0,1,240.5,583.139Z" transform="translate(-234.27 -578.073)"/><g transform="translate(0.408 0.334)"><path class="d" d="M234.695,584.293c6.258-1.915,13.238.22,13.238.22a8.274,8.274,0,0,0-.036-1.33c-.368-3.218-4.23-5.256-7.413-4.657A7.4,7.4,0,0,0,234.695,584.293Z" transform="translate(-234.695 -578.421)"/></g><g transform="translate(3.555 5.588)"><circle class="d" cx="0.68" cy="0.68" r="0.68"/></g><g transform="translate(19.938 6.289)"><circle class="d" cx="0.68" cy="0.68" r="0.68"/></g></g><g transform="translate(0.004)"><g transform="translate(12.611)"><path class="d" d="M248.345,573.827a3.467,3.467,0,0,0-.632,3.7,2.311,2.311,0,0,0,3.237,1.03c.454-.29.034-1.016-.424-.724a1.484,1.484,0,0,1-2.114-.784,2.625,2.625,0,0,1,.527-2.631.432.432,0,0,0,0-.593.422.422,0,0,0-.593,0Z" transform="translate(-247.416 -573.705)"/></g><g transform="translate(15.731 0.595)"><path class="d" d="M251.575,574.528c-.52.907-1.335,2.343-.639,3.341a3.518,3.518,0,0,0,2.847,1.144c3.038.119,6.1.007,9.143,0a.42.42,0,0,0,0-.839l-7.444,0a8.508,8.508,0,0,1-3.091-.247c-.632-.25-.991-.653-.809-1.345a6.862,6.862,0,0,1,.718-1.64.42.42,0,0,0-.724-.423Z" transform="translate(-250.667 -574.325)"/></g><g transform="translate(0 3.61)"><path class="d" d="M248.022,577.834a87,87,0,0,0-13.344-.191c-.535.038-.54.877,0,.839a87.138,87.138,0,0,1,13.344.192c.538.044.535-.794,0-.84Z" transform="translate(-234.275 -577.467)"/></g></g></g></g></g></svg>