<svg xmlns="http://www.w3.org/2000/svg" width="34.525" height="42.046" viewBox="0 0 34.525 42.046"><defs><style>.a{fill:#4bbaa2;}</style></defs><g transform="translate(-1094.569 -1233.579)"><path class="a" d="M1103.542,1273.541c4.962,1.166,12.672,1.8,18.645-.277,7.886-2.747,5.722-19.058,5.382-28.1-4.632,4.431-4.785,11.482-9.417,15.913.333-6.025,1.588-12.513-1.228-17.849-.6,5.856-3.794,12.092-4.4,17.947-6.435-4.781-1.528-21.517-7.733-26.592.933,6.864-1.612,18.827.516,25.419-2.924-5.245-5.3-10.927-9.742-14.967C1095.569,1245.03,1096.672,1271.926,1103.542,1273.541Z"/><path d="M1113.011,1275.625a43.558,43.558,0,0,1-9.7-1.111c-7.4-1.738-8.627-26.613-8.743-29.443a1,1,0,0,1,1.672-.781c3.135,2.852,5.276,6.487,7.229,10.139-.116-2.921.075-6.135.261-9.288a59.622,59.622,0,0,0,.072-10.428,1,1,0,0,1,1.623-.909c3.408,2.786,3.778,8.46,4.135,13.947.278,4.258.563,8.635,2.28,11.233a63.767,63.767,0,0,1,1.929-7.087,46.594,46.594,0,0,0,2.158-8.776,1,1,0,0,1,1.879-.365c2.441,4.624,2.005,9.937,1.584,15.074-.005.056-.009.111-.014.167a33.324,33.324,0,0,0,2.56-5.266c1.215-2.918,2.473-5.934,4.939-8.295a1,1,0,0,1,1.691.685c.045,1.184.12,2.493.2,3.88.552,9.526,1.309,22.573-6.252,25.207A29.325,29.325,0,0,1,1113.011,1275.625Zm-16.3-27.986c.674,10.09,2.966,23.967,7.059,24.928,5.016,1.179,12.4,1.732,18.087-.248,6.136-2.136,5.43-14.312,4.914-23.2q-.04-.715-.08-1.4a29.765,29.765,0,0,0-2.909,5.785c-1.216,2.918-2.473,5.934-4.94,8.3a1,1,0,0,1-1.69-.778c.061-1.1.153-2.225.245-3.35.3-3.591.6-7.272-.146-10.608-.438,1.821-1.011,3.647-1.572,5.437a46.588,46.588,0,0,0-2.158,8.776,1,1,0,0,1-1.59.7c-3.622-2.691-4-8.487-4.366-14.092-.233-3.577-.472-7.241-1.558-9.871.018,2.226-.128,4.693-.279,7.249-.314,5.309-.639,10.8.533,14.432a1,1,0,0,1-1.825.793c-.617-1.107-1.21-2.233-1.8-3.36A49.373,49.373,0,0,0,1096.712,1247.639Z"/></g></svg>