<svg xmlns="http://www.w3.org/2000/svg" width="138.946" height="70.56" viewBox="0 0 138.946 70.56"><defs><style>.a{opacity:0.393;mix-blend-mode:multiply;isolation:isolate;}.b{fill:#eec45b;}.c{fill:#eaa200;}</style></defs><g class="a" transform="translate(-158.881 -351.195)"><g transform="translate(160.597 362.663)"><path class="b" d="M174.266,412.863H161.691l-1.312-50.178a15.634,15.634,0,0,1,4.911-1.217,63.335,63.335,0,0,1,7.733-.228Z" transform="translate(-160.379 -361.208)"/></g><g transform="translate(173.24 362.695)"><path class="c" d="M204.909,412.859H172.663l-1.244-51.623,33.49,1.445Z" transform="translate(-171.419 -361.236)"/></g><g transform="translate(185.639 351.195)"><path class="b" d="M191.636,414.318h-9.391V352.056a26.032,26.032,0,0,1,4.507-.76,54.619,54.619,0,0,1,6.464,0Z" transform="translate(-182.245 -351.195)"/></g><g transform="translate(195.03 351.296)"><path class="c" d="M214.527,414.3H190.445l1.579-63.021,22.5.76Z" transform="translate(-190.445 -351.283)"/></g><g transform="translate(200.664 367.041)"><path class="b" d="M212.25,412.307h-7.07l-9.816-46.865a16.131,16.131,0,0,1,3-.4,15.79,15.79,0,0,1,4.068.4Z" transform="translate(-195.364 -365.031)"/></g><g transform="translate(207.733 367.452)"><path class="c" d="M229.48,412.256H211.353l-9.817-46.866,17.974,2.591Z" transform="translate(-201.536 -365.39)"/></g><g transform="translate(160.721 369.083)"><path class="c" d="M160.575,368.463l-.087-.329a20.311,20.311,0,0,1,5.643-.531,28.333,28.333,0,0,0,6.835-.789l.082.331a28.812,28.812,0,0,1-6.938.8A19.912,19.912,0,0,0,160.575,368.463Z" transform="translate(-160.488 -366.814)"/></g><g transform="translate(185.614 356.219)"><path class="c" d="M182.273,356.349l-.05-.337c.065-.009,6.6-.967,10.894,0l-.074.332C188.807,355.392,182.339,356.34,182.273,356.349Z" transform="translate(-182.223 -355.582)"/></g><g transform="translate(185.628 358.863)"><path class="c" d="M192.921,359.372c-3.521-1.594-10.588-1.043-10.66-1.038l-.026-.339c.293-.024,7.227-.565,10.826,1.067Z" transform="translate(-182.235 -357.891)"/></g><g transform="translate(185.613 405.724)"><path class="c" d="M182.276,399.6l-.054-.336c.262-.042,6.482-1.02,9.669.007l-.1.324C188.677,398.6,182.339,399.595,182.276,399.6Z" transform="translate(-182.222 -398.807)"/></g><g transform="translate(185.616 407.541)"><path class="c" d="M182.271,401.085l-.046-.337c.061-.009,6.053-.793,9.608,0l-.074.332C188.262,400.3,182.33,401.077,182.271,401.085Z" transform="translate(-182.225 -400.394)"/></g><g transform="translate(201.722 372.066)"><path class="c" d="M196.358,370.409l-.07-.428c.184-.052,4.575-1.243,7.163.008l-.118.412C200.836,369.193,196.4,370.4,196.358,370.409Z" transform="translate(-196.288 -369.419)"/></g><g transform="translate(202.027 373.6)"><path class="c" d="M196.612,371.427l-.058-.338a20.455,20.455,0,0,1,7.121,0l-.082.331A20.5,20.5,0,0,0,196.612,371.427Z" transform="translate(-196.554 -370.758)"/></g><g transform="translate(208.689 405.408)"><path class="c" d="M202.427,399.189l-.056-.337a21.319,21.319,0,0,1,7.138,0l-.082.332A21.413,21.413,0,0,0,202.427,399.189Z" transform="translate(-202.371 -398.531)"/></g><g transform="translate(209.07 407.192)"><path class="c" d="M209.763,400.773a18.26,18.26,0,0,0-6.986,0l-.073-.333a18.626,18.626,0,0,1,7.13,0Z" transform="translate(-202.704 -400.09)"/></g><g transform="translate(158.881 413.531)"><path class="c" d="M297.827,412.467l-138.946,1.38v-8.223H296.595Z" transform="translate(-158.881 -405.625)"/></g></g></svg>