<svg xmlns="http://www.w3.org/2000/svg" width="170.921" height="76.364" viewBox="0 0 170.921 76.364"><defs><style>.a{fill:#44ae91;}.a,.b,.c,.d{stroke:#000;stroke-width:2px;}.a,.b{isolation:isolate;}.b{fill:#318a6e;}.c{fill:#357e68;}.d{fill:#4bb494;}</style></defs><g transform="translate(-36.937 -822.01)"><path class="a" d="M164.542,891.1s-29.548-39.249-48.142-45.268-1.069,17.888-1.069,17.888-32.1-43.8-44.207-40.547c-11.1,2.98-6.577,25.1-6.577,25.1s-6.8-4.412-21.959-4.412S54.3,890.223,54.3,890.223Z"/><path class="b" d="M121.338,890.884S106.843,852.12,88.892,856.6c-14.548,3.633-4.205,23.137-5.092,22.25s-8.689-14.125-21.313-14.125,3.875,17.867,3.875,17.867-26.9-8.4-29,.421c-1.748,7.321,8.027,7.868,8.027,7.868Z" transform="translate(0.805 6.49)"/><g transform="translate(-3 8.243)"><path class="c" d="M157.391,878.944a14.349,14.349,0,0,0,.2-2.4c0-9.1-8.527-16.472-19.044-16.472S119.5,867.445,119.5,876.542a14.348,14.348,0,0,0,.2,2.4Z"/><path class="d" d="M178.944,874.9a28.55,28.55,0,0,0,.2-3.386c0-12.83-8.527-23.231-19.045-23.231s-19.044,10.4-19.044,23.231a28.342,28.342,0,0,0,.2,3.386Z"/><path class="d" d="M171.971,889.131a14.456,14.456,0,0,1-.2-2.4c0-9.1,8.526-16.472,19.044-16.472s19.044,7.375,19.044,16.472a14.454,14.454,0,0,1-.2,2.4Z"/><path class="c" d="M141.493,889.131a22.542,22.542,0,0,1-.256-3.387c0-12.83,10.809-23.231,24.143-23.231s24.142,10.4,24.142,23.231a22.673,22.673,0,0,1-.255,3.387Z"/><path class="d" d="M160.029,862.513a20.78,20.78,0,0,0-16.546,8.475,27.36,27.36,0,0,0-6.33-.731c-11.831,0-21.422,7.375-21.422,16.472a12.848,12.848,0,0,0,.227,2.4h65.267a25.365,25.365,0,0,0,.226-3.387C181.451,872.914,171.86,862.513,160.029,862.513Z"/></g></g></svg>