<svg xmlns="http://www.w3.org/2000/svg" width="127.235" height="69.565" viewBox="0 0 127.235 69.565"><defs><style>.a{fill:#4cb494;}.a,.b,.c{stroke:#000;stroke-width:2px;}.b{fill:#357e68;}.c{fill:#4bb494;}</style></defs><g transform="translate(-530.319 -785.64)"><g transform="translate(1060.967 -64.53) rotate(62)"><path class="a" d="M566.52,852.751s-16.945.908-21.879-2.2-1.039-5.524-1.039-5.524-15.67-.341-15.631-4.054,3.838-3.5,3.838-3.5-7.909-5.375-6.434-8.726c2.267-5.148,15.149,3.816,15.149,3.816s-4.223-5.015-.811-6.187C549.08,823.163,566.52,852.751,566.52,852.751Z"/><path class="b" d="M525.375,828.751c-1.475,3.351,6.434,8.726,6.434,8.726s-5.709-.076-4.782,3.535c.923,3.6,15.275,4.811,15.275,4.811s-5.011.98-.077,4.086,24.3,2.842,24.3,2.842Z"/></g><path class="c" d="M638.664,852.689s-20.854-27.7-33.978-31.95-.755,12.625-.755,12.625S580.65,807.907,572.106,810.2c-7.831,2.1,0,17.884,0,17.884s-8.82-8.738-19.517-8.738,8.268,32.718,8.268,32.718Z" transform="translate(-18 1.5)"/><path class="b" d="M553.4,852.495s17.757-47.489,39.749-42c17.822,4.45,5.151,28.345,6.238,27.258s10.644-17.3,26.11-17.3-4.747,21.888-4.747,21.888,32.951-10.29,35.532.516c2.141,8.968-9.835,9.639-9.835,9.639Z" transform="translate(0 1.5)"/></g></svg>