<svg xmlns="http://www.w3.org/2000/svg" xmlns:xlink="http://www.w3.org/1999/xlink" width="278.227" height="427.557" viewBox="0 0 278.227 427.557"><defs><style>.a{fill:none;}.b{fill:#fff;}.c{fill:#030504;}.d{fill:#1c1a1b;}.e{fill:#ea4551;}.f{opacity:0.22;}.g{clip-path:url(#a);}.h{fill:#b63640;}.i{fill:#7a232a;}.j{fill:#1daa8c;}.k{isolation:isolate;}.l{fill:#002f56;}.m{fill:#004470;}.n{fill:#178c73;}.o{fill:#90cfc2;}.p{fill:#e6e7e8;}.q{fill:#0f7560;}.r{fill:#001c39;}.s{fill:#002c51;}</style><clipPath id="a"><path class="a" d="M-2372.232,155.516c2.934-4.373,13.132-19.017,26.91-13.763,13.636,5.2,23.183,97.709,27.11,139.877,18.946-13.76,68.373-27.247,76.116-20.589,6.088,5.235.6,26.858-1.538,34.576-5.875,21.2-15.272,38.51-18.137,59.364a11.569,11.569,0,0,1-10.167,9.974l-100.294,11.052-65.855-82.729-22.026-143.363Z" transform="translate(2460.112 -140.63)"/></clipPath></defs><g transform="translate(2034.728 -13178.155)"><g transform="translate(702 65.596)"><g transform="translate(-2492.501 13312.606)"><g transform="translate(10.262 2.235)"><g transform="translate(2.556 0.578)"><path class="b" d="M-2047.565,305.928a4.918,4.918,0,0,0,3.183-.692c1.706-1.337.668-2.857,2.136-3.394,1.038-.38,2.315.465,3.361-.38s.149-1.569-.222-2.179a1.175,1.175,0,0,1,1.231-1.71c1.286.023,3.4,2.358,5.466-1.335,0,0,4.745.413,5.428-4.08.622-4.091-7.785-9.129-11.845-1.635-2.461,4.544-.818,6.2-.818,6.2l-.713.782a1.263,1.263,0,0,0-1.75.528c-.715,1.142.019,2.209-.124,2.437s-.983-.608-1.809.045a1.356,1.356,0,0,0-.38,1.495C-2044.3,302.629-2044.067,304.778-2047.565,305.928Z" transform="translate(2047.565 -286.668)"/></g><path class="c" d="M-2048.924,306.082a5.7,5.7,0,0,1-.671-.035l-2.484-.317,2.379-.782c2.057-.677,3.04-1.841,2.766-3.279a1.922,1.922,0,0,1,.586-2.045,1.693,1.693,0,0,1,1.457-.333,2.7,2.7,0,0,1,.347-2,1.824,1.824,0,0,1,2.073-.9l.15-.165c-.436-.819-.927-2.782,1.039-6.412,1.893-3.5,5.03-4.911,8.39-3.784,2.876.964,4.857,3.5,4.513,5.772a5.358,5.358,0,0,1-5.673,4.578c-1.754,2.851-3.71,2.068-4.895,1.594a3.205,3.205,0,0,0-.9-.276.776.776,0,0,0-.725.313.56.56,0,0,0-.013.537c.058.1.131.193.207.294a1.681,1.681,0,0,1-.113,2.619,2.947,2.947,0,0,1-2.388.455,2.639,2.639,0,0,0-1.135.016c-.415.152-.479.354-.616.969a3.639,3.639,0,0,1-1.365,2.339A4.88,4.88,0,0,1-2048.924,306.082Zm3.638-5.7a.559.559,0,0,0-.361.133c-.209.165-.289.349-.175.944a3.41,3.41,0,0,1-.527,2.579,2.7,2.7,0,0,0,.619-1.383,2.074,2.074,0,0,1,1.332-1.785,3.525,3.525,0,0,1,1.655-.078c.7.08,1.142.114,1.545-.212s.385-.427-.087-1.066c-.1-.13-.188-.256-.263-.378a1.681,1.681,0,0,1,0-1.689,1.852,1.852,0,0,1,1.727-.882,3.831,3.831,0,0,1,1.3.357c1.21.484,2.353.942,3.665-1.4l.179-.319.365.032c.169.014,4.226.3,4.819-3.6.261-1.716-1.423-3.748-3.753-4.529-1.342-.45-4.714-1.034-7.034,3.249-2.185,4.033-.918,5.522-.9,5.537l.341.38-.334.39-1.024,1.123-.4-.236c-.166-.092-.609-.251-.981.342a1.823,1.823,0,0,0-.106,1.563,1.044,1.044,0,0,1-.018.874c-.3.472-.829.272-1.057.187A1.552,1.552,0,0,0-2045.286,300.379Z" transform="translate(2052.079 -285.648)"/></g><g transform="translate(20.402 19.849)"><g transform="translate(0.566 0.565)"><path class="b" d="M-2033.166,319.008c-.1.852,1.9,2.321,3.263,2.105a1.52,1.52,0,0,0,.671-2.81C-2030.592,317.5-2032.982,317.46-2033.166,319.008Z" transform="translate(2033.17 -317.755)"/></g><path class="c" d="M-2030.622,321.268a4.445,4.445,0,0,1-2.814-1.255,1.881,1.881,0,0,1-.725-1.5h0a1.837,1.837,0,0,1,1.051-1.462,4.331,4.331,0,0,1,3.733.337,1.937,1.937,0,0,1,.988,2.082,2.24,2.24,0,0,1-1.859,1.774A2.341,2.341,0,0,1-2030.622,321.268Zm-2.415-2.628c0,.05.087.3.505.666a3.006,3.006,0,0,0,2.107.814,1.12,1.12,0,0,0,.923-.869.819.819,0,0,0-.453-.9,3.184,3.184,0,0,0-2.654-.3A.7.7,0,0,0-2033.037,318.641Zm0,0Z" transform="translate(2034.17 -316.758)"/></g><g transform="translate(13.955 0)"><g transform="translate(0.566 0.568)"><path class="b" d="M-2044.552,285.138c.162,2.588,1.8,5.22,3.72,4.874s1.778-4.612,1.153-5.668c-1.107-1.868-2.036-1.691-2.957-1.573A2.34,2.34,0,0,0-2044.552,285.138Z" transform="translate(2044.556 -282.704)"/></g><path class="c" d="M-2041.607,290.173a2.811,2.811,0,0,1-1.739-.647,6.894,6.894,0,0,1-2.2-4.788,2.909,2.909,0,0,1,2.41-2.965l.075-.01c.969-.126,2.174-.282,3.441,1.855a7.063,7.063,0,0,1,.027,5.156,2.142,2.142,0,0,1-1.566,1.358A2.435,2.435,0,0,1-2041.607,290.173Zm-.734-7.337a4.549,4.549,0,0,0-.579.052l-.077.01a1.781,1.781,0,0,0-1.423,1.77h0a5.8,5.8,0,0,0,1.772,3.967,1.593,1.593,0,0,0,1.283.385,1.093,1.093,0,0,0,.738-.715,6.1,6.1,0,0,0,.028-4.108C-2041.268,283.069-2041.776,282.836-2042.341,282.836Z" transform="translate(2045.556 -281.7)"/></g><g transform="translate(0 5.779)"><g transform="translate(0.567 0.569)"><path class="b" d="M-2062.133,303.248s-4.108,2.438-6.27-.229.233-5.767,5.123-8.927,10.4.82,10.754,2.775-2.241,3.552-3.625,3.4c0,0,1.616,1.369,1.092,2.595a4.55,4.55,0,0,1-3.844,2.617c-2.208.352.149,2.109.349,3.036a3.3,3.3,0,0,1-2.791,4.163s2.249-1.463,1.731-2.972-2.015-1.891-2.274-2.646a1.358,1.358,0,0,1-.011-1.135s-1.458.008-.7-.983S-2061.215,302.539-2062.133,303.248Z" transform="translate(2069.203 -292.914)"/></g><path class="c" d="M-2064.48,313.335l2.39-1.565c.487-.319,1.809-1.428,1.505-2.315a3.313,3.313,0,0,0-1.284-1.53,2.6,2.6,0,0,1-.99-1.116,2.533,2.533,0,0,1-.149-.848,1.135,1.135,0,0,1-.716-.553,1.13,1.13,0,0,1,.246-1.246c.108-.14.206-.281.3-.417-1.448.617-4.3,1.413-6.1-.806a3.743,3.743,0,0,1-.879-3.035c.33-2.069,2.336-4.268,6.134-6.724a8.065,8.065,0,0,1,7.748-.517c2.02.878,3.648,2.421,3.871,3.668a3,3,0,0,1-.879,2.582,5.031,5.031,0,0,1-2.161,1.345,2.464,2.464,0,0,1,.471,2.393,5.131,5.131,0,0,1-4.275,2.953c-.388.062-.475.153-.476.155a4.134,4.134,0,0,0,.6.973,3.642,3.642,0,0,1,.689,1.229,4.344,4.344,0,0,1-.524,3.192,3.984,3.984,0,0,1-2.714,1.646Zm2.622-7.537a1.1,1.1,0,0,0,.071.644c.052.153.338.374.614.589a4.4,4.4,0,0,1,1.66,2.057c.012.037.024.074.034.111a3.684,3.684,0,0,0-.064-1,3.609,3.609,0,0,0-.5-.8c-.473-.652-1.009-1.389-.719-2.09a1.647,1.647,0,0,1,1.333-.822,4.024,4.024,0,0,0,3.412-2.281c.292-.681-.6-1.654-.938-1.941l-1.393-1.191,1.821.2a3.424,3.424,0,0,0,2.414-1.13,1.918,1.918,0,0,0,.594-1.61c-.117-.652-1.3-2-3.208-2.829a6.963,6.963,0,0,0-6.681.43c-3.464,2.239-5.358,4.241-5.631,5.951a2.619,2.619,0,0,0,.64,2.143c1.748,2.155,5.19.3,5.517.113.584-.436.943-.295,1.142-.1.6.6-.39,2.024-.842,2.611l-.03.04a1.4,1.4,0,0,0,.275.031l1.039,0-.564.871Z" transform="translate(2070.204 -291.908)"/></g></g><g transform="translate(-2696.49 13448.958)"><g transform="translate(0 0)"><path class="d" d="M-2417.1,525.184c-1.857,7.863-11.1,49.637-13.352,59.847a1.854,1.854,0,0,0,1.813,2.253h3.717a1.855,1.855,0,0,0,1.757-1.26l20.687-61.043a1.856,1.856,0,0,0-1.962-2.44l-11.06,1.23A1.85,1.85,0,0,0-2417.1,525.184Z" transform="translate(2430.494 -522.53)"/></g></g><g transform="translate(-2635.672 13454.04)"><g transform="translate(0 0)"><path class="d" d="M-2318,536.525l-5.076,79.084a1.855,1.855,0,0,0,1.851,1.974h3.479a1.856,1.856,0,0,0,1.84-1.617l10.689-82.364a1.855,1.855,0,0,0-2.469-1.984l-9.092,3.28A1.854,1.854,0,0,0-2318,536.525Z" transform="translate(2323.077 -531.507)"/></g></g><g transform="translate(-2596.643 13449.849)"><g transform="translate(0 0)"><path class="d" d="M-2254.081,529.309l8.9,33.651a1.855,1.855,0,0,0,1.794,1.38h0a1.855,1.855,0,0,0,1.844-2.053l-3.923-36.527a1.855,1.855,0,0,0-2.772-1.409l-4.981,2.876A1.855,1.855,0,0,0-2254.081,529.309Z" transform="translate(2254.143 -524.102)"/></g></g><g transform="translate(-2536.673 13441.725)"><g transform="translate(0 0)"><path class="d" d="M-2148.222,517.5l23.61,64.245h4.288l-19.734-71.987Z" transform="translate(2148.222 -509.755)"/></g></g><g transform="translate(-2714.643 13231.338)"><g transform="translate(1.385 1.397)"><path class="e" d="M-2372.232,155.516c2.934-4.373,13.132-19.017,26.91-13.763,13.636,5.2,23.183,97.709,27.11,139.877,18.946-13.76,68.373-27.247,76.116-20.589,6.088,5.235.6,26.858-1.538,34.576-6.254,22.576-16.5,40.733-18.609,63.458a5.967,5.967,0,0,1-5.281,5.393l-104.708,11.539-65.855-82.729-22.026-143.363Z" transform="translate(2460.112 -140.63)"/></g><g transform="translate(0 0)"><path class="d" d="M-2372.071,155.16c2.854-4.249,6.224-8.351,10.553-11.168a17.109,17.109,0,0,1,9-3.015,15.686,15.686,0,0,1,5.441.952c.13.045.261.092.388.146-.012-.005-.334-.156-.134-.054.091.046.184.087.271.139.209.123.41.253.607.4-.334-.243.258.232.381.35.208.2.406.413.6.631.089.1.176.209.262.315.107.131-.092-.133.106.136s.4.556.583.842a29.464,29.464,0,0,1,2.215,4.215,88.337,88.337,0,0,1,4.106,12.35,343.991,343.991,0,0,1,7.191,36.03c2.192,13.93,3.977,27.923,5.583,41.932q2.146,18.725,3.888,37.493.175,1.855.348,3.709c.089.955,1.176,1.912,2.13,1.222a82.861,82.861,0,0,1,14.114-7.911,170.548,170.548,0,0,1,17.832-6.9,185.406,185.406,0,0,1,18.367-5.054,89.978,89.978,0,0,1,15.383-2.241c1.006-.041,2.014-.054,3.021-.018.755.027,1.865.116,2.365.194a12.25,12.25,0,0,1,2.086.493,3.9,3.9,0,0,1,1.3.675c-.322-.237.1.094.183.183s.28.288.339.362a5.961,5.961,0,0,1,.775,1.346,12.357,12.357,0,0,1,.8,3.14,35.938,35.938,0,0,1-.047,8.387c-1.357,13.895-6.125,27.448-10.891,40.462-3,8.205-6.109,16.391-8.4,24.833a111.027,111.027,0,0,0-2.726,12.859c-.506,3.432-.018,8.521-4.418,9.37-2.994.577-6.763.758-9.973,1.111l-24.11,2.657-29.583,3.26-26.286,2.9-14.2,1.564-.662.073,1,.414-8.958-11.253-20.333-25.544-21.834-27.428-13.667-17.17a12.085,12.085,0,0,0-1.006-1.263c-.26-.246.255.635.3.514.032-.084-.049-.282-.056-.37-.14-1.62-.5-3.251-.747-4.857l-3.516-22.885-5.127-33.375-5.482-35.687-4.586-29.852-2.4-15.6-.108-.7-1.365,1.791,8.725.557,20.958,1.336,25.368,1.617,21.953,1.4c3.547.226,7.171.7,10.728.684.049,0,.1.006.149.009,1.819.116,1.812-2.715,0-2.831l-8.725-.556-20.958-1.336-25.368-1.617-21.954-1.4c-3.547-.226-7.171-.7-10.727-.684-.049,0-.1-.006-.149-.01a1.436,1.436,0,0,0-1.365,1.792l1.442,9.387,3.626,23.6,4.861,31.641,5.039,32.8,4.288,27.91,2.488,16.191a5.358,5.358,0,0,0,.676,2.493c.8,1.111,1.714,2.153,2.565,3.222l14.349,18.025,20.487,25.737,18.728,23.527,6.421,8.066c1.034,1.3,2.012,2.687,3.123,3.922.771.858,1.777.537,2.791.425l7.387-.814,27.163-2.993,33-3.636,26.906-2.965,7.164-.79c.456-.05.914-.1,1.37-.151a7.508,7.508,0,0,0,6.254-4.593c.859-2.105.752-4.656,1.081-6.888.362-2.455.82-4.9,1.358-7.32a146.194,146.194,0,0,1,4.01-14.253c3.131-9.459,6.881-18.7,9.993-28.163a167.521,167.521,0,0,0,5.511-20.769,82.535,82.535,0,0,0,1.417-10.543,27.191,27.191,0,0,0-.656-9.059,7.994,7.994,0,0,0-3.562-5.037,13.29,13.29,0,0,0-5.146-1.286c-5.21-.466-10.583.373-15.7,1.295a177.348,177.348,0,0,0-40.344,12.578,85.955,85.955,0,0,0-15.538,8.554l2.13,1.222q-1.735-18.63-3.786-37.227c-1.619-14.46-3.42-28.905-5.612-43.291a377.337,377.337,0,0,0-7.289-37.794,100.281,100.281,0,0,0-4.24-13.281c-1.182-2.855-2.551-5.97-4.846-8.126a9.889,9.889,0,0,0-4.9-2.278,17.73,17.73,0,0,0-10.423.91c-5.783,2.336-10.288,6.967-13.921,11.91-.566.77-1.109,1.556-1.642,2.349C-2375.534,155.248-2373.082,156.666-2372.071,155.16Z" transform="translate(2462.558 -138.162)"/></g></g><g class="f" transform="translate(-2713.258 13232.735)"><g class="g" transform="translate(0 0)"><g transform="translate(-129.656 172.645)"><path class="d" d="M-2555.921,668.229l5.292-26.979c-2.515-14.691-23.773-19.762-44.676-34.288-11.193-7.778-22.724-22.01-22.447-24.534,4.281-39.1-25.032-129.718-36.127-136.241-7-4.114-29.571,13.1-32.56,20.648-3.78,9.545-2.784,20.228-1.635,30.43,5.753,51.125,14.379,103.486,41.017,147.5,4.289,7.086,9.059,13.989,11.834,21.793,2.262,6.36,3.272,13.44,7.6,18.62,3.371,4.035,8.329,6.362,13.229,8.27a133.361,133.361,0,0,0,37.273,8.621c5.567.464,11.316.554,16.573-1.336s9.972-6.123,11.042-11.606Z" transform="translate(2689.114 -445.56)"/></g></g></g><g transform="translate(-2683.079 13269.913)"><g transform="translate(0 0)"><path class="d" d="M-2401.548,214.846l4.01-.1a1.441,1.441,0,0,0,1.415-1.415,1.442,1.442,0,0,0-1.415-1.415q-2.024-.13-4.051-.078l1.365,1.039-1.3-5.549a1.434,1.434,0,0,0-1.741-.989,1.454,1.454,0,0,0-.989,1.741,56.517,56.517,0,0,0,1.058,5.56l1.365-1.792c-1.189.041-2.375.122-3.558.255a1.458,1.458,0,0,0-1.416,1.415,1.431,1.431,0,0,0,1.416,1.415l3.6-.087-1.365-1.039c.375,1.515.8,3.015,1.3,4.495a1.449,1.449,0,0,0,1.741.989,1.44,1.44,0,0,0,.989-1.742l-1.058-4.5a1.434,1.434,0,0,0-1.741-.989,1.439,1.439,0,0,0-.989,1.741l1.058,4.5,2.73-.753c-.5-1.479-.925-2.98-1.3-4.494a1.433,1.433,0,0,0-1.364-1.04l-3.6.087v2.831c1.183-.133,2.368-.215,3.558-.255a1.435,1.435,0,0,0,1.365-1.792,56.262,56.262,0,0,1-1.059-5.56l-2.73.752,1.3,5.549a1.431,1.431,0,0,0,1.365,1.039q2.026-.05,4.051.078v-2.831l-4.01.1a1.441,1.441,0,0,0-1.416,1.415A1.432,1.432,0,0,0-2401.548,214.846Z" transform="translate(2406.808 -206.295)"/></g></g><g transform="translate(-2655.719 13271.118)"><g transform="translate(0 0)"><path class="d" d="M-2358.45,210.219l1.65,8.277a1.425,1.425,0,0,0,1.741.989,1.451,1.451,0,0,0,.989-1.742l-1.65-8.276a1.424,1.424,0,0,0-1.742-.989,1.451,1.451,0,0,0-.989,1.741Z" transform="translate(2358.485 -208.423)"/></g></g><g transform="translate(-2658.219 13275.29)"><g transform="translate(0 0)"><path class="d" d="M-2362.588,216.653l-.021.035,1.222-.7-.048-.005,1,.414-.043-.034.415,1-.006-.051-.415,1,.049-.055-.625.364c-.261.018-.291.024-.091.02h2.929l3.184,0a1.431,1.431,0,0,0,1.416-1.415,1.441,1.441,0,0,0-1.416-1.415l-4.267,0c-.679,0-1.379-.05-2.057,0a1.578,1.578,0,0,0-1.54,1.5,1.474,1.474,0,0,0,.442,1.068,1.691,1.691,0,0,0,1.071.437,1.394,1.394,0,0,0,1.222-.7l.022-.036a1.431,1.431,0,0,0-.508-1.936,1.444,1.444,0,0,0-1.937.508Z" transform="translate(2362.901 -215.793)"/></g></g><g transform="translate(-2635.86 13272.154)"><g transform="translate(0 0)"><path class="d" d="M-2316.586,216.774l3.516-.113a1.436,1.436,0,0,0,1.415-1.415,1.444,1.444,0,0,0-1.415-1.415c-1.183-.039-2.365-.04-3.549-.02l1.365,1.04-.867-3.55a1.429,1.429,0,0,0-1.741-.989,1.461,1.461,0,0,0-.989,1.741,34.981,34.981,0,0,0,.678,3.553l1.365-1.791c-1.732.039-3.461.135-5.185.3a1.448,1.448,0,0,0-1.416,1.415,1.437,1.437,0,0,0,1.416,1.415l5.221-.169-1.365-1.039c.272,1.07.588,2.125.959,3.164a1.444,1.444,0,0,0,1.741.989,1.444,1.444,0,0,0,.988-1.741l-.774-3.17a1.429,1.429,0,0,0-1.741-.989,1.445,1.445,0,0,0-.989,1.742l.774,3.17,2.729-.752c-.371-1.04-.687-2.095-.958-3.164a1.433,1.433,0,0,0-1.365-1.039l-5.221.169v2.831c1.724-.169,3.453-.266,5.185-.3a1.433,1.433,0,0,0,1.365-1.792,34.911,34.911,0,0,1-.677-3.553l-2.73.752.867,3.55a1.433,1.433,0,0,0,1.365,1.039c1.183-.02,2.365-.019,3.549.02V213.83l-3.516.113a1.436,1.436,0,0,0-1.415,1.415A1.436,1.436,0,0,0-2316.586,216.774Z" transform="translate(2323.409 -210.254)"/></g></g><g transform="translate(-2677.678 13293.465)"><g transform="translate(0 0)"><path class="d" d="M-2392.009,256.441l4.01-.1a1.442,1.442,0,0,0,1.416-1.415,1.441,1.441,0,0,0-1.416-1.415q-2.024-.13-4.051-.078l1.365,1.04-1.3-5.549a1.434,1.434,0,0,0-1.741-.989,1.453,1.453,0,0,0-.989,1.741,56.573,56.573,0,0,0,1.058,5.56l1.365-1.792c-1.189.041-2.375.123-3.558.256a1.458,1.458,0,0,0-1.415,1.415,1.431,1.431,0,0,0,1.415,1.415l3.6-.087-1.365-1.039c.375,1.515.8,3.015,1.3,4.495a1.448,1.448,0,0,0,1.741.989,1.439,1.439,0,0,0,.989-1.741l-1.058-4.5a1.433,1.433,0,0,0-1.741-.989,1.439,1.439,0,0,0-.989,1.741l1.057,4.5,2.73-.752c-.5-1.48-.925-2.98-1.3-4.495a1.433,1.433,0,0,0-1.365-1.039l-3.6.087v2.831c1.183-.133,2.369-.215,3.558-.256a1.434,1.434,0,0,0,1.365-1.791,56.437,56.437,0,0,1-1.059-5.56l-2.729.752,1.3,5.549a1.431,1.431,0,0,0,1.365,1.039q2.027-.05,4.051.078v-2.831l-4.01.1a1.442,1.442,0,0,0-1.415,1.415A1.431,1.431,0,0,0-2392.009,256.441Z" transform="translate(2397.269 -247.891)"/></g></g><g transform="translate(-2650.319 13294.667)"><g transform="translate(0 0)"><path class="d" d="M-2348.911,251.814l1.65,8.276a1.424,1.424,0,0,0,1.741.989,1.451,1.451,0,0,0,.989-1.741l-1.65-8.276a1.425,1.425,0,0,0-1.742-.989,1.452,1.452,0,0,0-.989,1.742Z" transform="translate(2348.946 -250.018)"/></g></g><g transform="translate(-2652.819 13298.841)"><g transform="translate(0 0)"><path class="d" d="M-2353.049,258.248l-.022.036,1.223-.7-.048-.006,1,.415-.043-.035.414,1-.006-.051-.415,1,.049-.055-.624.364c-.261.017-.291.024-.091.02h1.337l1.593,0,3.184,0a1.432,1.432,0,0,0,1.416-1.415,1.44,1.44,0,0,0-1.416-1.415l-4.267,0c-.68,0-1.38-.05-2.057,0a1.578,1.578,0,0,0-1.54,1.5,1.473,1.473,0,0,0,.442,1.069,1.692,1.692,0,0,0,1.071.437,1.394,1.394,0,0,0,1.223-.7l.021-.035a1.43,1.43,0,0,0-.508-1.936,1.443,1.443,0,0,0-1.937.507Z" transform="translate(2353.362 -257.388)"/></g></g><g transform="translate(-2630.459 13295.705)"><g transform="translate(0 0)"><path class="d" d="M-2307.047,258.37l3.516-.114a1.436,1.436,0,0,0,1.416-1.415,1.444,1.444,0,0,0-1.416-1.415c-1.183-.039-2.366-.04-3.548-.019l1.365,1.039-.867-3.55a1.429,1.429,0,0,0-1.741-.989,1.462,1.462,0,0,0-.989,1.742,34.98,34.98,0,0,0,.678,3.553l1.365-1.792c-1.732.039-3.461.136-5.185.3a1.448,1.448,0,0,0-1.416,1.415,1.437,1.437,0,0,0,1.416,1.415l5.222-.169-1.365-1.039c.271,1.069.588,2.125.959,3.164a1.444,1.444,0,0,0,1.741.989,1.444,1.444,0,0,0,.989-1.741l-.774-3.17a1.429,1.429,0,0,0-1.741-.989,1.444,1.444,0,0,0-.989,1.741l.774,3.17,2.729-.752c-.371-1.039-.687-2.095-.958-3.164a1.433,1.433,0,0,0-1.365-1.04l-5.222.169v2.831c1.724-.169,3.453-.266,5.185-.3a1.433,1.433,0,0,0,1.364-1.792,35.082,35.082,0,0,1-.677-3.553l-2.73.753.867,3.55a1.434,1.434,0,0,0,1.365,1.039c1.183-.021,2.365-.02,3.548.019v-2.831l-3.516.114a1.436,1.436,0,0,0-1.415,1.415A1.437,1.437,0,0,0-2307.047,258.37Z" transform="translate(2313.87 -251.85)"/></g></g><g transform="translate(-2673.751 13314.961)"><g transform="translate(0 0)"><path class="d" d="M-2385.073,294.41l4.01-.1a1.441,1.441,0,0,0,1.415-1.415,1.442,1.442,0,0,0-1.415-1.415q-2.024-.13-4.051-.078l1.365,1.039-1.3-5.548a1.434,1.434,0,0,0-1.741-.989,1.454,1.454,0,0,0-.989,1.742,56.506,56.506,0,0,0,1.058,5.56l1.365-1.792c-1.19.041-2.375.122-3.558.256a1.458,1.458,0,0,0-1.416,1.415,1.432,1.432,0,0,0,1.416,1.415l3.6-.087-1.365-1.039c.375,1.515.8,3.015,1.3,4.495a1.448,1.448,0,0,0,1.741.989,1.439,1.439,0,0,0,.989-1.741l-1.058-4.5a1.434,1.434,0,0,0-1.741-.989,1.44,1.44,0,0,0-.989,1.742l1.058,4.5,2.73-.752c-.5-1.48-.925-2.98-1.3-4.495a1.434,1.434,0,0,0-1.365-1.04l-3.6.087V294.5c1.183-.134,2.368-.215,3.558-.256a1.434,1.434,0,0,0,1.365-1.791,56.539,56.539,0,0,1-1.058-5.56l-2.729.752,1.3,5.549a1.431,1.431,0,0,0,1.365,1.039q2.027-.05,4.051.078v-2.831l-4.01.1a1.442,1.442,0,0,0-1.415,1.415A1.431,1.431,0,0,0-2385.073,294.41Z" transform="translate(2390.333 -285.86)"/></g></g><g transform="translate(-2646.392 13316.166)"><g transform="translate(0 0)"><path class="d" d="M-2341.975,289.784l1.65,8.276a1.424,1.424,0,0,0,1.741.989,1.451,1.451,0,0,0,.989-1.741l-1.65-8.277a1.425,1.425,0,0,0-1.741-.989,1.451,1.451,0,0,0-.989,1.742Z" transform="translate(2342.01 -287.988)"/></g></g><g transform="translate(-2648.892 13320.339)"><g transform="translate(0 0)"><path class="d" d="M-2346.113,296.218l-.021.036,1.222-.7-.048-.006,1,.414-.043-.034.414,1-.006-.051-.415,1,.05-.055-.625.364q-.391.025-.091.02h2.93l3.184,0a1.432,1.432,0,0,0,1.416-1.415,1.44,1.44,0,0,0-1.416-1.415l-4.267,0c-.68,0-1.38-.05-2.057,0a1.578,1.578,0,0,0-1.54,1.5,1.475,1.475,0,0,0,.442,1.069,1.7,1.7,0,0,0,1.071.437,1.394,1.394,0,0,0,1.222-.7l.022-.035a1.431,1.431,0,0,0-.508-1.937,1.444,1.444,0,0,0-1.937.508Z" transform="translate(2346.426 -295.358)"/></g></g><g transform="translate(-2626.532 13317.204)"><g transform="translate(0 0)"><path class="d" d="M-2300.111,296.339l3.516-.113a1.436,1.436,0,0,0,1.416-1.415,1.445,1.445,0,0,0-1.416-1.415c-1.183-.039-2.365-.04-3.548-.019l1.365,1.039-.866-3.55a1.43,1.43,0,0,0-1.741-.988,1.462,1.462,0,0,0-.989,1.741,35.02,35.02,0,0,0,.677,3.553l1.365-1.791c-1.731.039-3.46.136-5.184.3a1.448,1.448,0,0,0-1.416,1.415,1.437,1.437,0,0,0,1.416,1.415l5.222-.169-1.365-1.039c.271,1.069.588,2.125.958,3.164a1.445,1.445,0,0,0,1.742.989,1.444,1.444,0,0,0,.989-1.741l-.774-3.17a1.429,1.429,0,0,0-1.741-.989,1.444,1.444,0,0,0-.989,1.741l.774,3.17,2.73-.752c-.371-1.039-.687-2.095-.959-3.164a1.434,1.434,0,0,0-1.365-1.039l-5.222.169v2.831c1.724-.169,3.453-.266,5.184-.3a1.433,1.433,0,0,0,1.365-1.792,34.812,34.812,0,0,1-.677-3.553l-2.73.753.867,3.55a1.434,1.434,0,0,0,1.365,1.039c1.183-.021,2.365-.02,3.548.019V293.4l-3.516.113a1.436,1.436,0,0,0-1.415,1.415A1.436,1.436,0,0,0-2300.111,296.339Z" transform="translate(2306.934 -289.82)"/></g></g><g transform="translate(-2670.513 13336.46)"><g transform="translate(0 0)"><path class="d" d="M-2379.355,332.38l4.009-.1a1.441,1.441,0,0,0,1.416-1.415,1.442,1.442,0,0,0-1.416-1.415q-2.023-.13-4.051-.078l1.365,1.039-1.3-5.549a1.434,1.434,0,0,0-1.741-.989,1.454,1.454,0,0,0-.989,1.742,56.368,56.368,0,0,0,1.058,5.56l1.365-1.792c-1.189.041-2.375.122-3.558.255a1.458,1.458,0,0,0-1.416,1.415,1.431,1.431,0,0,0,1.416,1.415l3.6-.087-1.365-1.039c.375,1.515.8,3.015,1.3,4.495a1.449,1.449,0,0,0,1.742.989,1.44,1.44,0,0,0,.989-1.741l-1.058-4.5a1.434,1.434,0,0,0-1.741-.989,1.44,1.44,0,0,0-.989,1.742l1.058,4.5,2.73-.752c-.5-1.48-.925-2.98-1.3-4.495a1.433,1.433,0,0,0-1.365-1.04l-3.6.087v2.831c1.182-.133,2.368-.214,3.558-.255a1.435,1.435,0,0,0,1.365-1.792,56.474,56.474,0,0,1-1.058-5.56l-2.73.753,1.3,5.548a1.43,1.43,0,0,0,1.364,1.04q2.028-.05,4.051.078v-2.831l-4.009.1a1.441,1.441,0,0,0-1.416,1.415A1.431,1.431,0,0,0-2379.355,332.38Z" transform="translate(2384.615 -323.83)"/></g></g><g transform="translate(-2643.154 13337.663)"><g transform="translate(0 0)"><path class="d" d="M-2336.258,327.754l1.651,8.277a1.423,1.423,0,0,0,1.74.989,1.451,1.451,0,0,0,.989-1.742l-1.65-8.276a1.424,1.424,0,0,0-1.741-.989,1.45,1.45,0,0,0-.989,1.741Z" transform="translate(2336.292 -325.958)"/></g></g><g transform="translate(-2645.655 13341.836)"><g transform="translate(0 0)"><path class="d" d="M-2340.4,334.188l-.021.036,1.222-.7-.048-.005,1,.414-.043-.034.415,1-.007-.051-.414,1,.049-.055-.625.364q-.39.026-.091.02h2.93l3.184,0a1.431,1.431,0,0,0,1.416-1.415,1.44,1.44,0,0,0-1.416-1.415l-4.267,0c-.679,0-1.38-.05-2.057,0a1.578,1.578,0,0,0-1.541,1.5,1.476,1.476,0,0,0,.442,1.069,1.69,1.69,0,0,0,1.071.436,1.393,1.393,0,0,0,1.222-.7l.021-.035a1.43,1.43,0,0,0-.507-1.937,1.444,1.444,0,0,0-1.937.508Z" transform="translate(2340.708 -333.328)"/></g></g><g transform="translate(-2623.295 13338.701)"><g transform="translate(0 0)"><path class="d" d="M-2294.393,334.309l3.516-.113a1.437,1.437,0,0,0,1.416-1.415,1.445,1.445,0,0,0-1.416-1.415c-1.183-.039-2.365-.04-3.548-.019l1.365,1.039-.867-3.55a1.429,1.429,0,0,0-1.741-.989,1.461,1.461,0,0,0-.989,1.741,35.084,35.084,0,0,0,.678,3.553l1.365-1.791c-1.732.039-3.46.135-5.185.3a1.447,1.447,0,0,0-1.416,1.415,1.437,1.437,0,0,0,1.416,1.415l5.222-.169-1.365-1.04c.271,1.07.588,2.125.959,3.164a1.444,1.444,0,0,0,1.741.989,1.445,1.445,0,0,0,.989-1.741l-.774-3.17a1.43,1.43,0,0,0-1.742-.989,1.445,1.445,0,0,0-.989,1.741l.774,3.17,2.73-.752c-.371-1.039-.688-2.095-.959-3.164a1.432,1.432,0,0,0-1.364-1.039l-5.222.169v2.831c1.724-.169,3.453-.266,5.185-.3a1.434,1.434,0,0,0,1.365-1.792,34.98,34.98,0,0,1-.677-3.553l-2.73.752.867,3.55a1.435,1.435,0,0,0,1.365,1.039c1.183-.021,2.365-.02,3.548.019v-2.831l-3.516.113a1.436,1.436,0,0,0-1.415,1.415A1.436,1.436,0,0,0-2294.393,334.309Z" transform="translate(2301.217 -327.79)"/></g></g><g transform="translate(-2531.36 13357.284)"><g transform="translate(0 0)"><path class="d" d="M-2114.285,360.784c-9.1,4.694-15.082,13.465-18.558,22.869-4.137,11.194-4.489,23.208-4.7,35.007a184.3,184.3,0,0,1-1.27,22.452,1.463,1.463,0,0,0,.989,1.742,1.425,1.425,0,0,0,1.741-.989c1.85-13.084.871-26.326,2.087-39.455.931-10.052,3.531-20.218,9.339-28.615a32.692,32.692,0,0,1,11.8-10.567c1.62-.836.19-3.279-1.428-2.445Z" transform="translate(2138.837 -360.613)"/></g></g><g transform="translate(-2540.395 13357.451)"><g transform="translate(0 0)"><path class="h" d="M-2121.208,360.912c.53-.247-35.529,11.476-33.506,34.362l10.126,21.293S-2146.165,372.585-2121.208,360.912Z" transform="translate(2154.796 -360.908)"/></g></g><g transform="translate(-2630.757 13443.503)"><g transform="translate(0 0)"><path class="h" d="M-2314.395,518.065c-.1.077,8.545,12.972,22.958,15.981l33.666-3.771-2.139-17.381Z" transform="translate(2314.396 -512.894)"/></g></g><g transform="translate(-2619.984 13434.884)"><g transform="translate(0 0)"><path class="i" d="M-2295.369,517.622l39.272-3.99-39.272-15.961Z" transform="translate(2295.369 -497.671)"/></g></g><g transform="translate(-2550.122 13355.5)"><g transform="translate(0 0)"><path class="h" d="M-2171.977,366.127l1.063,8.665s8.354-1.109,27.255-17.332C-2143.659,357.46-2151.795,357.448-2171.977,366.127Z" transform="translate(2171.977 -357.46)"/></g></g><g transform="translate(-2576.143 13330.687)"><g transform="translate(1.051 1.07)"><path class="j" d="M-2214.617,317.287a36.006,36.006,0,0,0,19,2.684c5.3-.7,10.378-2.574,15.635-3.558a63.235,63.235,0,0,1,16.987-.587c5.122.438,10.561,1.459,14.237,5.053a6.326,6.326,0,0,1,2.222,4.82c-.155,1.823-1.985,3.523-3.736,3,1.028-.439,1.935,1.224,1.277,2.128a2.861,2.861,0,0,1-3.076.683c.078,2.232-2.952,2.892-5.178,3.074-8.26.675-15.685,5.071-23.559,7.658-11.293,3.709-23.545,3.659-35.272,1.718" transform="translate(2216.08 -315.523)"/></g><g transform="translate(0 0)"><path class="c" d="M-2215.958,317.384a37.561,37.561,0,0,0,15.077,3.131c5.341-.026,10.425-1.473,15.554-2.795a59.285,59.285,0,0,1,7.936-1.577,61.162,61.162,0,0,1,8.371-.362c4.683.1,9.64.377,14.051,2.1a11.978,11.978,0,0,1,5.809,4.323,3.672,3.672,0,0,1,.612,3.219,2.069,2.069,0,0,1-2.245,1.431V328.9c.369-.123.021,0,0-.035.03.052.1.117.11.177.026.241.1.223-.045.42-.364.5-1.374.325-1.864.2a1.074,1.074,0,0,0-1.344,1.024c0,1.3-1.824,1.654-2.819,1.843-1.939.368-3.911.438-5.847.875a77.689,77.689,0,0,0-12.293,4.324,75.794,75.794,0,0,1-12.677,4.207,66.45,66.45,0,0,1-13.613,1.444,90.9,90.9,0,0,1-15.418-1.267c-1.336-.22-1.911,1.826-.564,2.047,9.546,1.568,19.346,1.945,28.881.086a71.3,71.3,0,0,0,13.377-4.233,82.069,82.069,0,0,1,12.872-4.561,29.259,29.259,0,0,1,3.737-.607,17.041,17.041,0,0,0,2.908-.45c1.817-.493,3.581-1.629,3.579-3.708l-1.344,1.024c1.651.412,3.981.142,4.551-1.776.48-1.615-.975-3.677-2.751-3.083a1.071,1.071,0,0,0,0,2.047,4.259,4.259,0,0,0,5-3.446c.482-2.523-1.055-4.9-2.855-6.519-3.632-3.261-8.544-4.357-13.264-4.862a65.571,65.571,0,0,0-17.509.309c-5.633.921-11.019,3.028-16.689,3.742a35.1,35.1,0,0,1-18.212-2.571,1.1,1.1,0,0,0-1.452.381,1.068,1.068,0,0,0,.381,1.452Z" transform="translate(2217.936 -313.633)"/></g></g><g class="k" transform="translate(-2572.171 13334.132)"><g transform="translate(1.062 1.054)"><path class="b" d="M-2209.045,322.051c6.167.759,11.513.949,17.564-.468-1.91,8.112,1.627,17.7-.07,26.242-.1.481-10.152.989-16.492,1.588" transform="translate(2209.045 -321.583)"/></g><g transform="translate(0 0)"><path class="c" d="M-2209.858,322.3a51.12,51.12,0,0,0,17.846-.506l-1.306-1.306c-1.513,6.61.175,13.368.352,20.023a31.044,31.044,0,0,1-.208,4.94,9.093,9.093,0,0,0-.169,1.043c-.006.573.162-.134.39-.345-.071.065.144-.072.163-.067a2.815,2.815,0,0,0-.686.151c-.642.105-1.6.193-2.458.271-1.191.108-2.384.2-3.576.292-3.116.238-6.236.45-9.347.743-1.348.126-1.362,2.251,0,2.123,5.178-.486,10.419-.6,15.571-1.325a2.836,2.836,0,0,0,1.656-.546c.459-.462.44-1.31.523-1.915.122-.891.206-1.785.247-2.684a76.722,76.722,0,0,0-.594-10.569c-.359-3.834-.684-7.779.184-11.57a1.075,1.075,0,0,0-1.306-1.306,49.537,49.537,0,0,1-17.281.43,1.067,1.067,0,0,0-1.062,1.062,1.088,1.088,0,0,0,1.062,1.062Z" transform="translate(2210.92 -319.721)"/></g></g><g transform="translate(-2623.542 13432.401)"><g transform="translate(0 0)"><path class="d" d="M-2299.867,504.751q15.814-2.156,31.674-3.941,15.909-1.791,31.856-3.212,8.952-.8,17.914-1.478a1.451,1.451,0,0,0,1.416-1.415,1.427,1.427,0,0,0-1.416-1.415q-16.033,1.22-32.035,2.81-16.07,1.6-32.1,3.575-9.039,1.114-18.063,2.347a1.424,1.424,0,0,0-.988,1.741,1.454,1.454,0,0,0,1.741.989Z" transform="translate(2301.652 -493.285)"/></g></g><g transform="translate(-2587.335 13402.472)"><g transform="translate(0 0)"><path class="d" d="M-2236.685,443.188q21.617,4.619,43.361,8.618,6.192,1.139,12.394,2.226a1.456,1.456,0,0,0,1.741-.989,1.428,1.428,0,0,0-.989-1.741q-21.772-3.82-43.43-8.262-6.168-1.265-12.324-2.581c-1.777-.38-2.536,2.349-.752,2.73Z" transform="translate(2237.702 -440.422)"/></g></g><g class="k" transform="translate(-2579.77 13473.061)"><g transform="translate(0.566 1.088)"><path class="l" d="M-2211.475,567.02s-9.893,9.742-11.734,14.049,16.279,3.128,16.279,3.128Z" transform="translate(2223.341 -567.02)"/></g><g transform="translate(0 0)"><path class="c" d="M-2212.5,584.076c-.72,0-1.475-.01-2.239-.033-5.3-.162-8.338-.885-9.275-2.21a1.785,1.785,0,0,1-.152-1.82c1.864-4.359,11.451-13.829,11.858-14.23l.7-.684,4.969,18.785-.687.045C-2207.357,583.929-2209.65,584.076-2212.5,584.076Zm.294-16.793c-2.27,2.292-9.422,9.673-10.918,13.174a.661.661,0,0,0,.036.721c1.247,1.761,9.576,1.953,15,1.66Z" transform="translate(2224.342 -565.098)"/></g></g><g class="k" transform="translate(-2568.248 13489.642)"><g transform="translate(0.566 1.127)"><path class="l" d="M-2196.1,596.375s-6.446,12.3-6.884,16.962,16.456-1.994,16.456-1.994Z" transform="translate(2202.99 -596.375)"/></g><g transform="translate(0 0)"><path class="c" d="M-2200.833,614.694a4.081,4.081,0,0,1-2.446-.587,1.787,1.787,0,0,1-.7-1.687c.443-4.72,6.68-16.665,6.946-17.171l.453-.864,10.469,16.369-.64.252c-.033.014-3.381,1.328-7.019,2.373A27.673,27.673,0,0,1-2200.833,614.694Zm4.354-18.047c-1.462,2.876-6.017,12.089-6.374,15.88a.662.662,0,0,0,.254.676c1.726,1.3,9.716-1.063,14.788-3Z" transform="translate(2203.99 -594.385)"/></g></g><g class="k" transform="translate(-2550.197 13502.117)"><g transform="translate(0.569 0.999)"><path class="m" d="M-2170.99,618.186s-.6,13.871.985,18.278,14.046-8.8,14.046-8.8Z" transform="translate(2171.102 -618.186)"/></g><g transform="translate(0 0)"><path class="c" d="M-2169.175,637.162a2.177,2.177,0,0,1-.447-.044,1.785,1.785,0,0,1-1.353-1.229c-1.605-4.46-1.042-17.923-1.017-18.495l.042-.974,16.438,10.362-.472.5c-.024.026-2.5,2.64-5.343,5.133C-2164.967,635.6-2167.544,637.162-2169.175,637.162Zm-1.72-18.738c-.1,3.224-.3,13.5.986,17.082a.662.662,0,0,0,.518.5c2.125.443,8.341-5.1,12.108-9.006Z" transform="translate(2172.107 -616.421)"/></g></g><g class="k" transform="translate(-2533.62 13507.727)"><g transform="translate(0.658 0.916)"><path class="l" d="M-2141.667,627.945s1.345,13.819,3.533,17.96,12.675-10.683,12.675-10.683Z" transform="translate(2141.667 -627.945)"/></g><g transform="translate(0 0)"><path class="c" d="M-2137.5,646.5c-.043,0-.086,0-.128,0a1.785,1.785,0,0,1-1.511-1.028c-2.215-4.191-3.542-17.6-3.6-18.17l-.095-.971,17.726,7.959-.4.562c-.021.029-2.1,2.963-4.573,5.83C-2133.446,644.593-2135.878,646.5-2137.5,646.5Zm-4.006-18.337c.352,3.207,1.588,13.409,3.367,16.776a.661.661,0,0,0,.583.426c2.144.122,7.544-6.213,10.728-10.612Z" transform="translate(2142.829 -626.327)"/></g></g><g class="k" transform="translate(-2515.446 13512.033)"><g transform="translate(0.658 0.916)"><path class="l" d="M-2109.568,635.552s1.345,13.82,3.534,17.961,12.675-10.683,12.675-10.683Z" transform="translate(2109.568 -635.552)"/></g><g transform="translate(0 0)"><path class="c" d="M-2105.4,654.107c-.044,0-.086,0-.129,0a1.784,1.784,0,0,1-1.511-1.027c-2.215-4.192-3.541-17.6-3.6-18.17l-.094-.971,17.727,7.959-.4.562c-.021.029-2.1,2.962-4.573,5.83C-2101.347,652.2-2103.779,654.107-2105.4,654.107Zm-4.006-18.337c.353,3.207,1.588,13.409,3.368,16.776a.661.661,0,0,0,.583.427c2.169.132,7.545-6.213,10.728-10.612Z" transform="translate(2110.731 -633.934)"/></g></g><g transform="translate(-2569.308 13383.523)"><g transform="translate(1.061 1.062)"><path class="j" d="M-2203.977,421.837c-.468-7.992,12.6-19.352,29.5-8.625,7.749,4.92,11.61,17.983,8.159,26.489,8.792-1.573,15.554.292,23.021,5.191,1.986,1.3,4.781,4.592,4.751,7.739-.023,2.375-2.02,2.532-4.291,1.839,1.7.465,3.908,4.214,2.7,6.054-.969,1.473-4.866-.447-6.6-.154,2.18.7,3.888,5.047,1.771,5.921s-6.651-1.674-8.8-2.474c-10.6-3.949-20.013-3.666-31.243-2.278-2.168.268-4.4.633-6.51.075a7.8,7.8,0,0,1-5.291-4.913c-.974-2.823-.236-5.9.166-8.863s.311-6.348-1.831-8.428" transform="translate(2203.99 -408.831)"/></g><g transform="translate(0 0)"><path class="c" d="M-2203.728,421.024c-.145-2.847,1.46-5.6,3.584-7.626a16.166,16.166,0,0,1,10.335-4.3,23.861,23.861,0,0,1,14.691,4.695c3.455,2.491,5.735,6.513,7,10.508,1.449,4.593,1.777,9.759-.036,14.3-.331.828.6,1.429,1.306,1.306a27.982,27.982,0,0,1,14.85,1.214,37.162,37.162,0,0,1,6.935,3.6,10.739,10.739,0,0,1,4.229,5.023c.27.707.834,2.379.122,2.991-.624.536-1.961.1-2.655-.1a1.063,1.063,0,0,0-.565,2.047,4.1,4.1,0,0,1,1.844,2.1,4.056,4.056,0,0,1,.416,1.467,1.728,1.728,0,0,1-.049.6c-.031.11-.25.391-.076.249a1.694,1.694,0,0,1-.964.095,11.929,11.929,0,0,1-1.6-.284,9.963,9.963,0,0,0-3.48-.378c-1.137.157-.868,1.738,0,2.047a3.58,3.58,0,0,1,1.892,3.662.43.43,0,0,1-.356.292,2.93,2.93,0,0,1-1.129.023,13.209,13.209,0,0,1-2.9-.885c-2.119-.841-4.146-1.812-6.325-2.508a50.16,50.16,0,0,0-8.476-1.911,72.491,72.491,0,0,0-17.295.023c-1.482.153-2.961.337-4.439.52a15.106,15.106,0,0,1-4.674.1,6.747,6.747,0,0,1-5.138-4.531c-.972-3.129.178-6.445.419-9.6.214-2.814-.208-5.835-2.278-7.919a1.062,1.062,0,0,0-1.5,1.5c1.869,1.884,1.865,4.8,1.573,7.262-.374,3.154-1.266,6.443-.181,9.562a8.955,8.955,0,0,0,5.632,5.536c3.093,1.011,6.546.134,9.683-.211a71.319,71.319,0,0,1,18.473-.075,50.1,50.1,0,0,1,9.249,2.334c2.166.77,4.19,1.9,6.4,2.558,2.122.628,5.139.691,5.436-2.157a5.751,5.751,0,0,0-3.495-5.623v2.047a6.79,6.79,0,0,1,1.594.213c.722.152,1.44.328,2.171.434,1.357.2,2.9.165,3.61-1.226a5.015,5.015,0,0,0-.433-4.447,5.636,5.636,0,0,0-3.035-2.921l-.565,2.047a6.151,6.151,0,0,0,3.62.208,2.935,2.935,0,0,0,1.973-2.544c.349-2.833-1.46-5.7-3.365-7.628a24.828,24.828,0,0,0-7.227-4.582,29.384,29.384,0,0,0-8.23-2.542,32.327,32.327,0,0,0-10.251.272l1.306,1.306a22.892,22.892,0,0,0,.458-13.948,24.029,24.029,0,0,0-7.09-12.229,26.075,26.075,0,0,0-7.524-4.323,23.851,23.851,0,0,0-8.012-1.7,18.829,18.829,0,0,0-12.356,4.048c-2.951,2.368-5.415,6.09-5.217,10.011.069,1.36,2.192,1.368,2.123,0Z" transform="translate(2205.863 -406.956)"/></g></g><g transform="translate(-2663.761 13254.469)"><g transform="translate(1.081 1.062)"><path class="j" d="M-2280.248,221.2a60.965,60.965,0,0,0-2.344-9.929c-4.8-14.2-17.845-26.63-32.778-29.461a36.424,36.424,0,0,0-12.959-.6c-18.625,2.054-37.321,11.368-41.292,31.319a60.917,60.917,0,0,0-.948,9.139,204.612,204.612,0,0,0,8.906,69.6c5.736,18.549,13.056,37.227,29.677,48.721,14.068,9.728,30.151,13.411,40.716,26.861,13.7,17.435,7.913,44.82,21.9,62.02,7.878,9.686,20.407,14.038,32.266,17.942l33.774,11.119c2.211.728,4.524,1.465,6.824,1.109a7.736,7.736,0,0,0,5.87-9.717c-1.3-3.788-5.27-5.812-8.557-8.1-11.177-7.78-21.616-21.011-23.9-34.437s-5.358-28.425-8.373-41.7c-2.946-12.978-7.514-24.719-16.964-34.325a92.062,92.062,0,0,1-14.367-18.207,67.892,67.892,0,0,1-6.276-14.435c-6.9-20.753-6.936-43.51-9.673-65.212C-2279.231,229.01-2279.626,225.079-2280.248,221.2Z" transform="translate(2370.779 -180.893)"/></g><g transform="translate(0 0)"><path class="c" d="M-2280.053,220.105a52.466,52.466,0,0,0-5.577-17.216,48.213,48.213,0,0,0-10.25-12.728c-8.126-7.166-18.946-11.616-29.888-11.1-10.1.473-20.6,3.288-29.146,8.768a36.633,36.633,0,0,0-16.519,23.41c-1.374,6.72-1.291,13.84-1.229,20.671a204.71,204.71,0,0,0,1.272,21,210.461,210.461,0,0,0,8.583,40.1c3.416,10.78,7.453,21.566,13.8,31a61.539,61.539,0,0,0,11.219,12.693,82,82,0,0,0,14.666,9.5c9.906,5.26,20.559,9.765,28.26,18.218,7.467,8.2,10,18.982,11.956,29.59,1.886,10.217,3.339,20.936,8.664,30.058,5.834,10,15.951,15.645,26.469,19.636,6.095,2.313,12.338,4.238,18.528,6.276l20.845,6.863c5.164,1.7,11.706,4.682,16.032-.283,3.426-3.932,2.721-9.173-.974-12.625a59.127,59.127,0,0,0-6.5-4.685,60.9,60.9,0,0,1-6.987-5.8,61.286,61.286,0,0,1-11.268-14.505,45.279,45.279,0,0,1-3.629-8.388,70.625,70.625,0,0,1-1.857-8.78q-1.805-10.184-3.909-20.312c-2.523-12.25-4.652-24.954-10.025-36.349a58.18,58.18,0,0,0-9.566-14.406c-3.917-4.3-7.983-8.336-11.385-13.082a70.18,70.18,0,0,1-9.251-17.227,125.975,125.975,0,0,1-5.268-19.641c-2.491-13.39-3.248-27.013-4.615-40.543-.678-6.707-1.408-13.446-2.459-20.106-.212-1.346-2.258-.775-2.047.564,4.132,26.211,3.072,53.519,11.834,78.848a71.718,71.718,0,0,0,8.256,16.7,94.867,94.867,0,0,0,10.332,12.759,65.6,65.6,0,0,1,10.651,13.89,75.377,75.377,0,0,1,6.274,15.961c1.707,6.127,2.949,12.4,4.265,18.617q2.046,9.673,3.866,19.392c1.119,6.012,1.8,12.137,4.14,17.832a57.553,57.553,0,0,0,8.984,14.705,65.268,65.268,0,0,0,12.594,11.713c3.828,2.709,10.363,5.888,8.362,11.673a6.546,6.546,0,0,1-5.279,4.473c-3.248.337-6.725-1.354-9.743-2.347l-20.581-6.775c-11.248-3.7-23.316-6.794-33.238-13.5a35.971,35.971,0,0,1-11.213-11.944,54.3,54.3,0,0,1-5.269-14.079c-2.479-10.125-3.311-20.657-6.736-30.546a43.475,43.475,0,0,0-7.023-13.095,50.952,50.952,0,0,0-12.416-10.822c-9.354-5.991-19.91-9.882-28.97-16.369-9.144-6.547-15.677-15.9-20.426-25.972a177.676,177.676,0,0,1-11.445-34.03,203.531,203.531,0,0,1-5.53-40.316,171.976,171.976,0,0,1,.308-20.354,36.219,36.219,0,0,1,4.87-15.989c5.029-8.289,13.563-13.7,22.61-16.709,10.091-3.355,21.053-4.5,31.258-.994s18.843,11.35,24,20.756a50.93,50.93,0,0,1,5.264,16.53C-2281.881,222.015-2279.834,221.444-2280.053,220.105Z" transform="translate(2372.689 -179.017)"/></g></g><g transform="translate(-2662.045 13254.51)"><g transform="translate(0 0)"><path class="n" d="M-2192.244,454.712c-1.07,1.161-1.565,2.286-3.139,2.53-2.3.357-4.614-.379-6.822-1.11q-16.892-5.554-33.778-11.12c-11.856-3.9-24.385-8.255-32.261-17.942-14-17.2-8.209-44.581-21.905-62.019-10.565-13.447-26.65-17.133-40.719-26.86-16.617-11.493-23.938-30.172-29.674-48.72a204.585,204.585,0,0,1-8.906-69.6,60.964,60.964,0,0,1,.946-9.138c3.969-19.952,22.669-29.266,41.291-31.321a34.86,34.86,0,0,1,11.584.345c-17.7,2.638-34.814,11.992-38.591,30.976a61,61,0,0,0-.951,9.138,204.736,204.736,0,0,0,8.906,69.6c5.735,18.548,13.056,37.226,29.679,48.72,14.064,9.727,30.149,13.413,40.714,26.86,13.7,17.438,7.915,44.819,21.906,62.019,7.881,9.687,20.4,14.041,32.266,17.942C-2211.581,448.347-2202.362,451.383-2192.244,454.712Z" transform="translate(2369.659 -179.09)"/></g></g><g transform="translate(-2622.223 13310.712)"><g transform="translate(0 0)"><path class="o" d="M-2274.045,278.724c-5.708-1.084-12.853.2-17.172,4.092-8.017,7.213-8.724,24.247-7.787,27.753a281.567,281.567,0,0,0,12.656,36.879,40.54,40.54,0,0,0,4.635,8.744c2.14,2.845,4.943,5.128,7.161,7.912,3.97,4.986,5.028,8.527,8.208,14.05,4.424,7.685,10.916,13.067,19.664,14.525s20.336.872,23.885-7.254a10.374,10.374,0,0,0,.953-5.719c-.477-2.991-2.7-5.351-4.745-7.585-4.941-5.4-9.47-11.286-12.45-17.972-4.915-11.029-13.474-59.812-23.4-66.686C-2262.44,287.464-2268.337,279.809-2274.045,278.724Z" transform="translate(2299.324 -278.356)"/></g></g><g transform="translate(-2629.205 13393.976)"><g transform="translate(1.066 1.061)"><path class="j" d="M-2309.772,440.042c.569-7.985,14.58-12.92,20.859-12.745a19.2,19.2,0,0,1,15.611,9.1c4.74,7.861,3.083,18.233-1.437,26.221a35.753,35.753,0,0,1,24.733,8.51c1.8,1.549,3.548,3.505,3.656,5.878s-2.363,4.835-4.525,3.854c1.626.681,1.5,3.263.165,4.417s-3.243,1.276-5.005,1.342c2.071.98.919,4.531-1.293,5.123s-4.459-.615-6.484-1.685a71.13,71.13,0,0,0-32.608-8.2c-2.185-.014-4.443.059-6.465-.767a7.8,7.8,0,0,1-4.611-5.555c-.6-2.925.529-5.885,1.309-8.768s1.129-6.254-.727-8.594" transform="translate(2309.772 -427.292)"/></g><g transform="translate(0 0)"><path class="c" d="M-2309.527,439.229c.283-3.484,3.461-6.047,6.267-7.7a30.146,30.146,0,0,1,10.911-3.821,17.527,17.527,0,0,1,12.292,3.095,18.131,18.131,0,0,1,7.573,12.892,29.482,29.482,0,0,1-3.989,17.577,1.071,1.071,0,0,0,.917,1.6,34.836,34.836,0,0,1,15.049,2.694,35.03,35.03,0,0,1,6.843,3.854c1.909,1.376,4.137,3.051,5.079,5.285a3.357,3.357,0,0,1-.215,3.338,2.147,2.147,0,0,1-2.611.985c-1.1-.452-1.9,1.431-.818,1.94.957.448.779,1.8.2,2.507-1,1.226-3.07,1.218-4.5,1.274a1.07,1.07,0,0,0-.535,1.978c1.189.617.3,2.429-.6,2.991a3.958,3.958,0,0,1-3.19-.027,25.767,25.767,0,0,1-3.6-1.713,72.147,72.147,0,0,0-15.387-5.807A72.234,72.234,0,0,0-2296.025,480c-2.536-.049-5.372.258-7.667-1.044a6.747,6.747,0,0,1-3.394-5.391c-.19-3.09,1.24-5.964,1.8-8.944.492-2.632.487-5.566-1.208-7.79a1.1,1.1,0,0,0-1.452-.381,1.068,1.068,0,0,0-.381,1.453c1.573,2.063,1.358,4.744.784,7.136-.7,2.93-1.944,5.841-1.632,8.915a8.967,8.967,0,0,0,3.714,6.386c2.372,1.716,5.358,1.76,8.167,1.771a70.4,70.4,0,0,1,17.51,2.267,71.309,71.309,0,0,1,8.479,2.791c2.721,1.088,5.274,2.463,7.9,3.741,2.431,1.182,5.859,2.148,7.879-.284,1.377-1.659,1.747-4.58-.472-5.73l-.536,1.978c2.3-.089,5.168-.345,6.484-2.549.994-1.665.829-4.28-1.108-5.188l-.818,1.94c2.565,1.05,5.262-1.273,5.761-3.732.591-2.916-1.4-5.56-3.438-7.4a36.279,36.279,0,0,0-15.833-8.224,36.583,36.583,0,0,0-10.072-.968l.917,1.6a32.349,32.349,0,0,0,4.41-16.972,20.708,20.708,0,0,0-7.012-15.065,19.777,19.777,0,0,0-14.173-4.827,31.631,31.631,0,0,0-11.876,3.635c-3.92,2.077-7.973,5.376-8.358,10.113-.11,1.362,2.013,1.354,2.123,0Z" transform="translate(2311.654 -425.419)"/></g></g><g transform="translate(-2626.779 13424.864)"><g transform="translate(0 0)"><path class="n" d="M-2255.277,515.473c-1.948.788-4.4.006-6.267-.9-2.633-1.28-5.187-2.655-7.9-3.742a71.762,71.762,0,0,0-8.481-2.791,70.486,70.486,0,0,0-17.511-2.265c-2.8-.011-5.792-.057-8.165-1.773a8.964,8.964,0,0,1-3.714-6.386c-.312-3.074.928-5.984,1.63-8.911.578-2.4.793-5.073-.781-7.139a1.069,1.069,0,0,1,.379-1.449,1.1,1.1,0,0,1,1.455.379c.062.085.124.169.187.26.006.005.006.011.012.016.317.635.634,1.308.94,2,1.031,2.372,3.522.935,3.482,3.154-.1,5.673-3.533,10.276,7.916,10.9,11.227.617,19.411,4.011,35.368,16.861a5.89,5.89,0,0,1,.764.905C-2255.718,514.9-2255.486,515.19-2255.277,515.473Z" transform="translate(2307.369 -479.973)"/></g></g><g transform="translate(-2629.202 13393.975)"><g transform="translate(0 0)"><path class="c" d="M-2246.212,477.34a5.247,5.247,0,0,1-3.352,3.815,4.35,4.35,0,0,1-.481,3.165c-.951,1.591-2.706,2.168-4.478,2.394a4.607,4.607,0,0,1-1,3.907,3.982,3.982,0,0,1-1.608,1.183c-1.948.788-4.405.006-6.267-.9-2.633-1.28-5.186-2.655-7.9-3.742a71.792,71.792,0,0,0-8.481-2.791,70.492,70.492,0,0,0-17.512-2.265c-2.8-.011-5.792-.057-8.164-1.773a8.964,8.964,0,0,1-3.714-6.387c-.311-3.074.928-5.984,1.631-8.911.577-2.4.792-5.074-.782-7.14a1.069,1.069,0,0,1,.379-1.449,1.1,1.1,0,0,1,1.455.379c.063.085.125.169.187.26.006.005.006.011.011.016a7.041,7.041,0,0,1,.94,2,12.065,12.065,0,0,1,.068,5.509c-.555,2.978-1.988,5.855-1.794,8.946a6.741,6.741,0,0,0,3.391,5.39c2.293,1.3,5.13,1,7.666,1.042a72.325,72.325,0,0,1,16.187,2.174,72.239,72.239,0,0,1,15.383,5.8,25.21,25.21,0,0,0,3.6,1.715,5.51,5.51,0,0,0,2.265.34,2.208,2.208,0,0,0,.923-.311c.9-.561,1.789-2.372.6-2.989a1.072,1.072,0,0,1,.532-1.982c1.433-.057,3.5-.045,4.5-1.274.583-.708.765-2.055-.192-2.508-1.087-.51-.289-2.389.815-1.936a2.146,2.146,0,0,0,2.61-.986,3.353,3.353,0,0,0,.216-3.34c-.94-2.231-3.171-3.907-5.079-5.283a34.773,34.773,0,0,0-6.845-3.855,34.789,34.789,0,0,0-15.049-2.7,1.069,1.069,0,0,1-.911-1.6,29.5,29.5,0,0,0,3.986-17.574,18.122,18.122,0,0,0-7.576-12.892,17.5,17.5,0,0,0-12.286-3.1,30.236,30.236,0,0,0-10.916,3.822c-2.8,1.653-5.978,4.212-6.261,7.7-.114,1.353-2.237,1.359-2.123,0,.385-4.739,4.433-8.04,8.357-10.118a31.665,31.665,0,0,1,11.872-3.634,19.806,19.806,0,0,1,14.177,4.829,20.708,20.708,0,0,1,7.009,15.065,31.591,31.591,0,0,1-3.55,15.344,36.571,36.571,0,0,1,8.295,1,36.325,36.325,0,0,1,15.836,8.227C-2247.616,471.78-2245.624,474.424-2246.212,477.34Z" transform="translate(2311.65 -425.417)"/></g></g><g transform="translate(-2601.469 13404.85)"><g transform="translate(0 0)"><path class="c" d="M-2261.321,446.986a2.784,2.784,0,0,1,2.915.532,5,5,0,0,1,1.721,2.211,3.537,3.537,0,0,1-1.7,4.24c-1.207.643-.135,2.477,1.071,1.833a5.663,5.663,0,0,0,2.629-6.771c-1-2.688-4.233-5.332-7.2-4.092a1.1,1.1,0,0,0-.741,1.306,1.068,1.068,0,0,0,1.306.741Z" transform="translate(2262.666 -444.625)"/></g></g><g transform="translate(-2541.848 13346.858)"><g transform="translate(0 0)"><path class="c" d="M-2156.024,348.569a12.418,12.418,0,0,0,7.787-4.773,1.067,1.067,0,0,0-.381-1.452,1.089,1.089,0,0,0-1.453.381c.079-.1-.052.064-.077.095-.047.058-.1.116-.145.173q-.164.192-.336.377-.346.369-.724.706a9.193,9.193,0,0,1-1.552,1.125q-.435.257-.892.476l-.2.1c-.039.018-.232.1-.108.05-.155.065-.313.125-.472.182a11.232,11.232,0,0,1-2.01.519,1.069,1.069,0,0,0-.741,1.306,1.086,1.086,0,0,0,1.305.742Z" transform="translate(2157.363 -342.198)"/></g></g><g transform="translate(-2677.576 13318.512)"><g transform="translate(1.056 1.055)"><path class="j" d="M-2378.635,293.994a59.708,59.708,0,0,0-15.483,25.188c-1.5,4.855-2,11,1.954,14.189,2.277,1.832,5.46,2.1,8.349,1.667s5.653-1.485,8.526-2.014c8.33-1.534,17.9,2.236,21.355,9.968a33.284,33.284,0,0,0,1.963,4.421,4.712,4.712,0,0,0,3.927,2.44,3.4,3.4,0,0,0,2.592-4.914,2.093,2.093,0,0,0,2.564,2.025,3.4,3.4,0,0,0,2.344-2.76,10.011,10.011,0,0,0-.242-3.8c.244.816,1.483.919,2.117.349a3.34,3.34,0,0,0,.846-2.343,19.255,19.255,0,0,0-5.465-14.028,30.683,30.683,0,0,0-13.146-7.855" transform="translate(2395.225 -293.994)"/></g><g transform="translate(0 0)"><path class="c" d="M-2380.194,292.435a60.761,60.761,0,0,0-13.261,19.016,41.577,41.577,0,0,0-3.394,10.559c-.461,3.15-.393,6.682,1.438,9.424,2.139,3.2,5.978,4.289,9.665,3.989,4.019-.327,7.754-2.111,11.77-2.419,6.142-.473,12.922,1.832,16.679,6.91a22.266,22.266,0,0,1,2.526,5.031c.8,1.966,1.924,3.9,3.969,4.774a4.114,4.114,0,0,0,4.956-1.2,4.4,4.4,0,0,0,.5-4.919,1.071,1.071,0,0,0-1.979.536c-.174,2.564,3,3.865,4.977,2.592,2.548-1.644,2.274-4.818,1.774-7.408l-2.048.564a2.3,2.3,0,0,0,2.78,1.409,3.122,3.122,0,0,0,2.147-2.651,16.313,16.313,0,0,0-.844-7.876,23.916,23.916,0,0,0-10.077-12.242,36.633,36.633,0,0,0-8.347-3.822c-1.3-.422-1.861,1.627-.564,2.047,8.213,2.662,16.183,8.426,17.674,17.475a14.747,14.747,0,0,1,.149,3.49c-.032.427-.087,1.119-.452,1.41-.147.118-.463.076-.417.194a1.063,1.063,0,0,0-2.048.564c.289,1.5.69,3.386-.412,4.661a1.4,1.4,0,0,1-1.375.56.928.928,0,0,1-.792-.969l-1.979.536a2.37,2.37,0,0,1-.776,2.972c-1.208.876-2.681-.055-3.5-1.016-1.193-1.4-1.633-3.33-2.37-4.974a16.346,16.346,0,0,0-2.39-3.768c-3.863-4.631-10.064-7.023-16.006-7.061-3.672-.023-7.069,1.153-10.6,1.98-3.215.752-7.225,1.09-9.836-1.367-2.15-2.023-2.486-5.136-2.246-7.929a33.486,33.486,0,0,1,2.657-9.5,58.727,58.727,0,0,1,13.554-20.066c.982-.953-.519-2.454-1.5-1.5Z" transform="translate(2397.09 -292.13)"/></g></g><g class="k" transform="translate(-2677.26 13306.507)"><g transform="translate(1.06 1.038)"><path class="b" d="M-2352.9,361.209c-2.178-14.586-8.054-26.529-13.737-40.138-1.168-2.8-9.009-15.29-9.009-15.29-6.654-1.923-15.283,4.142-18.957,10.015a45.879,45.879,0,0,1,15.9-36.72c8.048,1.469,30.332,11.133,66.016,5.707,21-3.193,23.591-12.021,23.591-12.021,3.718,10.907,3.273,12.548,3.872,24.055.316,6.076,22.478,17.5,15.17,60.361-.32,1.875-20.833-10.252-42.632-2.407-11.266,4.054-32.59,2.265-35.421,13.9Z" transform="translate(2394.659 -272.762)"/></g><g transform="translate(0 0)"><path class="c" d="M-2352.69,360.131a102.421,102.421,0,0,0-5.865-21.253c-1.31-3.423-2.73-6.8-4.166-10.174-1.321-3.1-2.542-6.276-3.976-9.326a107.62,107.62,0,0,0-5.92-10.2q-1.261-2.059-2.539-4.107a4.548,4.548,0,0,0-.552-.832,3.684,3.684,0,0,0-2.02-.58,10.975,10.975,0,0,0-2.063-.073,18.9,18.9,0,0,0-9.43,3.611,25.755,25.755,0,0,0-7.112,7.271l1.978.536a45.014,45.014,0,0,1,9.378-29.487,43.864,43.864,0,0,1,6.209-6.482l-1.033.273c4.06.749,8.017,2.135,12.015,3.15a137.388,137.388,0,0,0,20.621,3.639,135,135,0,0,0,28.832-.39c8.039-.955,16.664-2.338,23.547-6.924a18.481,18.481,0,0,0,4.369-3.9,7.821,7.821,0,0,0,1.494-2.527c.01-.036.025-.07.036-.105h-2.048A66.992,66.992,0,0,1-2288,282.93a82.148,82.148,0,0,1,.725,9.559c.086,1.9-.078,3.854.764,5.6a16.638,16.638,0,0,0,1.733,2.672c.436.583.882,1.158,1.328,1.734l.329.425.05.065.2.254q.355.461.707.925c1.085,1.434,2.133,2.9,3.109,4.409a51.3,51.3,0,0,1,5.875,12.435,63,63,0,0,1,2.726,18.88,91.906,91.906,0,0,1-.871,12.522c-.157,1.147-.388,2.288-.526,3.436-.045.377-.1.2.041.064.047-.045.3-.3.3-.3.077-.055.276-.058.3-.09-.024.033-.239-.013-.275-.014.35.006,0-.005-.156-.039-.323-.069-.641-.161-.958-.254-2.222-.655-4.405-1.436-6.63-2.085a73.876,73.876,0,0,0-10.064-2.238,55.529,55.529,0,0,0-12.6-.476,48.546,48.546,0,0,0-6.74,1.031c-2.1.478-4.106,1.2-6.157,1.845-6,1.892-12.385,2.3-18.535,3.5-5.363,1.045-11.705,2.587-15.049,7.317a10.464,10.464,0,0,0-1.57,3.488l1.94-.254-4.791-7.462c-.735-1.146-2.574-.083-1.833,1.072l4.791,7.462a1.075,1.075,0,0,0,1.94-.254c1.344-5.365,7.136-7.442,12.016-8.642,6.228-1.531,12.664-1.967,18.9-3.432a42.723,42.723,0,0,0,4.253-1.259,44.536,44.536,0,0,1,6.953-1.793,49.685,49.685,0,0,1,12.977-.438c6.331.574,12.373,2.341,18.4,4.28,1.058.34,2.9,1.215,3.984.558.6-.363.615-1.015.717-1.641q.282-1.723.509-3.454c.289-2.174.515-4.356.662-6.544a72.478,72.478,0,0,0-1.462-21.157,53.88,53.88,0,0,0-5.516-14.294,75.426,75.426,0,0,0-6.226-9.073l-.325-.42-.037-.048-.177-.23q-.3-.385-.587-.772c-.352-.469-.7-.943-1.023-1.431a11.606,11.606,0,0,1-.749-1.265c-.047-.1-.09-.192-.136-.288-.072-.151.1.247.038.092-.019-.053-.043-.1-.061-.159-.063-.183-.117-.366-.163-.554s-.016-.269-.009.007c-.007-.279-.035-.559-.049-.837q-.087-1.71-.161-3.421c-.078-1.725-.147-3.451-.272-5.174a46.62,46.62,0,0,0-1.557-9.1c-.559-2.017-1.212-4.007-1.886-5.988a1.071,1.071,0,0,0-2.048,0c-.018.059-.043.115-.062.173-.075.231.148-.295.008-.022-.048.095-.091.191-.139.286a8.771,8.771,0,0,1-.448.761c-.1.157-.212.311-.321.464-.046.063-.267.344-.062.086-.07.088-.139.176-.211.263a19.556,19.556,0,0,1-6.7,4.985,51.957,51.957,0,0,1-15.593,4.387,139.012,139.012,0,0,1-20.123,1.5,129.887,129.887,0,0,1-29.633-3.426c-3.238-.755-6.443-1.635-9.645-2.526-1.166-.324-2.331-.651-3.505-.943-.471-.117-.944-.229-1.42-.326a1.793,1.793,0,0,0-1.263.02,9.361,9.361,0,0,0-1.713,1.5,47.161,47.161,0,0,0-14.7,31.687,44.232,44.232,0,0,0-.007,4.451,1.071,1.071,0,0,0,1.978.536,23.441,23.441,0,0,1,7.888-7.5c2.92-1.72,6.484-2.972,9.871-2.031l-.635-.488c2.62,4.176,5.233,8.37,7.648,12.669a104.781,104.781,0,0,1,4.621,10.29c2.077,4.857,4.13,9.729,5.885,14.713a95.9,95.9,0,0,1,4.484,17.5,1.069,1.069,0,0,0,1.306.742A1.089,1.089,0,0,0-2352.69,360.131Z" transform="translate(2396.531 -270.928)"/></g></g><g transform="translate(-2647.91 13347.709)"><g transform="translate(0 0)"><path class="p" d="M-2312.323,388.627a28.431,28.431,0,0,0-6.605,2.017s-20.022-24.032-25.706-37.637c-1.166-2.8,15.626-11.391,16.793-8.838,1.946,4.259,4.257,15.423,11.97,18.224,2.385.867,2.619,2.927,2.33,4.848-.456,3.038-7.815,11.056,5.444,10.4C-2304.155,377.442-2308.941,384.151-2312.323,388.627Z" transform="translate(2344.693 -343.701)"/></g></g><g transform="translate(-2675.161 13314.889)"><g transform="translate(0 0)"><path class="p" d="M-2386.761,313.075c-3.195,1.657-1.774,1.04-6.063,5.1.442-11.527,4.665-23.4,15.208-32.334,1.585.289-1.494-.534,1.185.207C-2390,299.52-2386.761,313.075-2386.761,313.075Z" transform="translate(2392.824 -285.734)"/></g></g><g class="k" transform="translate(-2622.1 13302.388)"><g transform="translate(0 0)"><path class="c" d="M-2298.791,265.754c1.494,1.481,3.6,2.02,5.563,2.582a50.429,50.429,0,0,0,6.944,1.516,28.189,28.189,0,0,0,13.106-.959,20.365,20.365,0,0,0,6.21-3.437,1.069,1.069,0,0,0,0-1.5,1.085,1.085,0,0,0-1.5,0c-3.849,3.122-8.935,4.256-13.8,4.126a38.462,38.462,0,0,1-8.184-1.2q-1.932-.478-3.833-1.075a7.076,7.076,0,0,1-3-1.551,1.062,1.062,0,0,0-1.5,1.5Z" transform="translate(2299.105 -263.653)"/></g></g><g class="k" transform="translate(-2552.248 13446.184)"><g transform="translate(0 0)"><path class="c" d="M-2173.949,528.328a25.412,25.412,0,0,1,10.549-7.206,26.223,26.223,0,0,1,12.1-1.154,14.685,14.685,0,0,1,6.41,2.5c1.114.8,2.175-1.045,1.072-1.833-3.658-2.613-8.327-3.237-12.716-2.933a27.162,27.162,0,0,0-12.927,4.036,28.5,28.5,0,0,0-5.99,5.092c-.9,1.018.592,2.525,1.5,1.5Z" transform="translate(2175.731 -517.628)"/></g></g><g class="k" transform="translate(-2538.372 13483.223)"><g transform="translate(0 0)"><path class="c" d="M-2149.414,591.344a27.625,27.625,0,0,1,21.3-5.927,1.1,1.1,0,0,0,1.306-.741,1.069,1.069,0,0,0-.741-1.306,29.951,29.951,0,0,0-23.37,6.473,1.071,1.071,0,0,0,0,1.5,1.084,1.084,0,0,0,1.5,0Z" transform="translate(2151.224 -583.047)"/></g></g><g class="k" transform="translate(-2526.214 13495.807)"><g transform="translate(0 0)"><path class="c" d="M-2127.958,613.941a20.219,20.219,0,0,1,15.111-6.542,1.062,1.062,0,0,0,0-2.123,22.321,22.321,0,0,0-16.613,7.164c-.921,1.006.576,2.512,1.5,1.5Z" transform="translate(2129.749 -605.273)"/></g></g><g class="k" transform="translate(-2509.935 13505.372)"><g transform="translate(0 0)"><path class="c" d="M-2099.031,629.417a19.145,19.145,0,0,1,1.159-1.964q.158-.234.328-.461c.048-.065.126-.164.032-.045.057-.073.115-.145.174-.217a10.251,10.251,0,0,1,.737-.806q.191-.188.394-.363c.055-.048.112-.1.169-.142l.1-.083c-.087.067-.1.078-.04.032a8.739,8.739,0,0,1,.847-.542c.154-.083.313-.157.471-.23-.225.1.041-.014.073-.025.083-.031.167-.06.251-.088a6.549,6.549,0,0,1,1.062-.245,1.064,1.064,0,0,0,.741-1.306,1.1,1.1,0,0,0-1.306-.742c-3.348.5-5.56,3.338-7.028,6.157a1.08,1.08,0,0,0,.38,1.452,1.078,1.078,0,0,0,1.453-.381Z" transform="translate(2100.997 -622.171)"/></g></g><g class="k" transform="translate(-2545.913 13464.581)"><g transform="translate(0 0)"><path class="c" d="M-2162.523,559.7c2.565-3.769,6.812-5.931,11.185-6.84a31.72,31.72,0,0,1,7.424-.567,15.457,15.457,0,0,1,7.018,1.6c1.2.655,2.273-1.178,1.072-1.833-3.7-2.021-8.219-2.133-12.33-1.786a23.954,23.954,0,0,0-11.615,3.781,17.4,17.4,0,0,0-4.586,4.568c-.771,1.132,1.068,2.2,1.833,1.072Z" transform="translate(2164.542 -550.124)"/></g></g><g transform="translate(-2677.391 13340.2)"><g transform="translate(1.062 1.061)"><path class="j" d="M-2394.7,341.63c-.054,1.792-2.367,10.655,11.035,10.329,2.921-.071,5.653-1.485,8.526-2.014,8.33-1.534,17.9,2.236,21.355,9.968a33.313,33.313,0,0,0,1.964,4.421,4.712,4.712,0,0,0,3.927,2.44,3.4,3.4,0,0,0,2.592-4.914,2.094,2.094,0,0,0,2.564,2.025,3.4,3.4,0,0,0,2.344-2.76,10.006,10.006,0,0,0-.242-3.8c.245.816,1.482.919,2.117.349a3.34,3.34,0,0,0,.846-2.343,19.255,19.255,0,0,0-5.465-14.028,30.68,30.68,0,0,0-13.146-7.855c-6.379-2.048-13.9-1.373-19.437,2.394" transform="translate(2394.888 -332.313)"/></g><g transform="translate(0 0)"><path class="c" d="M-2396.579,340.817c-.029.8-.171,1.593-.183,2.4a9.412,9.412,0,0,0,.637,3.718c1.615,3.928,5.977,5.1,9.863,5.263a17.08,17.08,0,0,0,5.013-.482c1.708-.438,3.358-1.084,5.083-1.458a19.708,19.708,0,0,1,8.174.037c5.22,1.1,10.1,4.22,12.393,9.168.794,1.714,1.254,3.59,2.412,5.118a5.663,5.663,0,0,0,4.266,2.448c3.195.065,5.261-3.827,3.718-6.514a1.071,1.071,0,0,0-1.978.536c-.174,2.564,3,3.866,4.977,2.592,2.548-1.644,2.274-4.818,1.774-7.408l-2.047.564a2.433,2.433,0,0,0,4.254.4c1.138-1.536.91-3.984.683-5.772a21.077,21.077,0,0,0-5.123-11.079,28.511,28.511,0,0,0-9.948-7.116,29.015,29.015,0,0,0-11.7-2.786,22.761,22.761,0,0,0-12.763,3.675c-1.129.758-.067,2.6,1.072,1.834,5.747-3.857,13.082-4.219,19.509-1.991,6.548,2.27,12.746,6.487,15.572,13.031a16.8,16.8,0,0,1,1.361,5.46,9.539,9.539,0,0,1-.1,2.859c-.067.272-.184.7-.473.82-.155.066-.358-.059-.294.1a1.063,1.063,0,0,0-2.047.564c.289,1.5.69,3.386-.413,4.661a1.4,1.4,0,0,1-1.375.56.928.928,0,0,1-.792-.969l-1.979.536a2.291,2.291,0,0,1-.385,2.607,2.132,2.132,0,0,1-2.909.231,6.914,6.914,0,0,1-2.387-3.463,27.271,27.271,0,0,0-1.763-3.93,19.579,19.579,0,0,0-12.278-8.631,22.453,22.453,0,0,0-7.852-.527,24.46,24.46,0,0,0-4.426.968,24.781,24.781,0,0,1-4.7,1.2,15.325,15.325,0,0,1-7.269-.881,5.7,5.7,0,0,1-2.893-2.458q-.137-.245-.251-.5c.091.2-.071-.187-.094-.255a7.3,7.3,0,0,1-.257-.938q-.052-.252-.087-.507c.036.26-.01-.126-.018-.216-.025-.292-.036-.584-.036-.877,0-.869.153-1.722.184-2.587.05-1.366-2.073-1.365-2.123,0Z" transform="translate(2396.763 -330.438)"/></g></g><g transform="translate(-2675.342 13348.452)"><g transform="translate(0 0)"><path class="n" d="M-2350.373,369.088a33.981,33.981,0,0,1-1.965-4.422c-3.454-7.734-12.8-11.44-21.165-10.461-2.905.34-6.344,1.764-9.013,2.154-12.713,1.853-10.5-7.586-10.446-9.375l2-1.972c.476,3.318,2.7,7.81,11.606,7.583,3.074-.079,5.945-1.625,8.962-2.2,8.759-1.676,14.39.72,18.026,9.185C-2351.683,361.191-2349.507,370.447-2350.373,369.088Z" transform="translate(2393.144 -345.012)"/></g></g><g transform="translate(-2613.728 13336.417)"><g transform="translate(8.153 0)"><path class="q" d="M-2247.726,331.826c1.865.775,4.01,1.036,5.969,1.719-2.47.251-5.007.379-7.556.388a2.055,2.055,0,0,0-.679.076,1.786,1.786,0,0,0-.355.2,11.1,11.1,0,0,1-7.136,1.5l-.146.092c.8.384,2.06.066,2.727.6a.29.29,0,0,1,.139.233c-.014.123-.182.211-.341.219a1.244,1.244,0,0,1-.454-.09c.125.157.214.412-.007.49a.51.51,0,0,1-.212.012,4.16,4.16,0,0,1-.7-.122.81.81,0,0,1-.087.488c-.061.115-.214.244-.353.19a.283.283,0,0,1-.124-.12,1.742,1.742,0,0,0-1.053-.668,10.758,10.758,0,0,1-1.151-.2c-.355-.125-.624-.474-.4-.749a11.892,11.892,0,0,1-4.248,1.415,4.213,4.213,0,0,0,.486.2c.157.075.29.213.237.366-.071.206-.4.275-.654.3a.165.165,0,0,1,.165.277.8.8,0,0,1-.513.152.477.477,0,0,1,.243.3q-1.109.265-2.209.571a.6.6,0,0,1-.28.032.334.334,0,0,1-.174-.121,1.125,1.125,0,0,1-.24-.99l-.18-.036a3.247,3.247,0,0,1-2.748-2.119,4.6,4.6,0,0,1,.495-3.478,6.347,6.347,0,0,1,1.4-1.853,10.347,10.347,0,0,1,2.741-1.631c1.966-.867,4.068-1.507,6-2.343s3.762-1.932,4.561-3.375a6.965,6.965,0,0,1-2.511,3.886,14.353,14.353,0,0,1-2.2,1.12,47.8,47.8,0,0,0-4.557,2.352,4.616,4.616,0,0,0-1.437,1.127.4.4,0,0,0-.1.227c.01.3.6.238.977.1a26.5,26.5,0,0,1,6.467-1.672c1.621-.156,3.253-.054,4.872-.124a2.471,2.471,0,0,0,.717-.106c.465-.167.7-.594,1.206-.69.272-.052.571.005.843-.039.555-.092.96-.588,1.521-.452a2.534,2.534,0,0,0,.593.181c.331,0,.49-.327.823-.323.269,0,.448.215.676.331a2.082,2.082,0,0,0,1.1.1q2.077-.2,4.176-.264c.129.183-.121.336-.342.419a52.043,52.043,0,0,1-6.229,1.857" transform="translate(2269.918 -323.757)"/></g><g transform="translate(0 14.304)"><g transform="translate(0 9.081)"><path class="c" d="M-2284.277,366.192c.736,1.62,1.552,3.191,2.434,4.712.394.679.908,1.378,1.874,1.045a7.46,7.46,0,0,0,1.2-.716,6.611,6.611,0,0,1,1.256-.55.877.877,0,0,0,.554-.966.663.663,0,0,0-.915-.4,10.792,10.792,0,0,0-2.253,1.164c-.022.014-.146.106-.155.082,0,.014.113-.046.125-.025,0,0-.075-.093-.11-.146-.2-.292-.353-.613-.521-.923q-1.057-1.945-1.942-4a.7.7,0,0,0-.995-.318c-.4.184-.712.7-.554,1.043Z" transform="translate(2284.319 -365.06)"/></g><g transform="translate(13.439 2.332)"><path class="c" d="M-2255.52,354.671c.375-.179.666-.451.634-.822a.873.873,0,0,0-.888-.695,5.651,5.651,0,0,0-2.066.266,3.915,3.915,0,0,0-2.535,2.168,4.192,4.192,0,0,0,.283,3.244,3.675,3.675,0,0,0,2.227,1.726,5.1,5.1,0,0,0,3.885-.558.672.672,0,0,0,.21-.981.864.864,0,0,0-1.11-.113,2.629,2.629,0,0,1-3.886-1.163,2.439,2.439,0,0,1,.255-2.3,3.11,3.11,0,0,1,2.517-.879l-.389-.126.083.039c-.083-.091-.165-.184-.249-.275l.021.052c-.013-.123-.026-.245-.039-.369l-.02.053q.27-.284.545-.566l-.054.026c-.414.2-.678.564-.506.935a.865.865,0,0,0,1.082.341Z" transform="translate(2260.582 -353.14)"/></g><g transform="translate(19.971 1.053)"><path class="c" d="M-2243.648,351.054a4.464,4.464,0,0,0-4.592,1.395,3.559,3.559,0,0,0-.281,4.106c.853,1.31,2.84,1.707,4.472,1.316a3.872,3.872,0,0,0,2.99-2.938c.273-1.548-.928-3.03-2.741-3.571a.906.906,0,0,0-1.05.506c-.124.4.185.705.616.831-.1-.029.075.026.1.035.071.027.14.055.207.086.05.024.259.132.212.1a2.73,2.73,0,0,1,.564.463,1.788,1.788,0,0,1,.47,1.106,2.151,2.151,0,0,1-1.461,1.961,2.73,2.73,0,0,1-2.793-.431,2.23,2.23,0,0,1-.062-2.632,2.4,2.4,0,0,1,1.215-.958,2.545,2.545,0,0,1,1.7-.043.916.916,0,0,0,1.048-.493c.134-.392-.17-.707-.609-.841Z" transform="translate(2249.045 -350.881)"/></g><g transform="translate(28.94)"><path class="c" d="M-2227.545,349.508a5.425,5.425,0,0,0-4.447-.018,1.862,1.862,0,0,0-.874,2.77,2.674,2.674,0,0,0,1.8.992c.668.11,1.348.048,2.017.172a1.931,1.931,0,0,1,1.208.634.523.523,0,0,1,.1.225c.01.054.009.13.011.125a.759.759,0,0,1-.305.418,2.127,2.127,0,0,1-1.675.193,5.132,5.132,0,0,1-.927-.3.852.852,0,0,1-.47-.365.947.947,0,0,0-1.121-.318.625.625,0,0,0-.334.916,2.764,2.764,0,0,0,1.5,1.077,6.127,6.127,0,0,0,2.187.423c1.337-.011,2.765-.726,2.792-1.943.027-1.3-1.45-2.2-2.921-2.444a18.56,18.56,0,0,1-1.993-.18.577.577,0,0,1-.486-.692c-.009.049.071-.174.083-.192a.992.992,0,0,1,.251-.256,1.742,1.742,0,0,1,.655-.29,4.019,4.019,0,0,1,2.371.29.907.907,0,0,0,1.107-.324c.173-.358-.1-.721-.526-.912Z" transform="translate(2233.203 -349.022)"/></g><g transform="translate(36.09 0.112)"><path class="c" d="M-2212.611,350.3q-3.5-.538-7.005-1.063c-.476-.071-.914.136-.957.51a.865.865,0,0,0,.787.82c.825.119,1.646.25,2.471.373.1,1.589.286,3.181.539,4.772a.961.961,0,0,0,.915.7c.438.014.769-.28.718-.651q-.324-2.283-.443-4.562c1.056.161,2.116.313,3.169.479a.606.606,0,0,0,.77-.6A1.077,1.077,0,0,0-2212.611,350.3Z" transform="translate(2220.577 -349.22)"/></g><g transform="translate(5.777 6.72)"><path class="c" d="M-2274.012,361.954a6.024,6.024,0,0,1,.666,1.289l.616,1.422,1.277,2.944a.712.712,0,0,0,.968.254.726.726,0,0,0,.254-.968l-1.277-2.945-.616-1.422a6,6,0,0,0-.665-1.289.73.73,0,0,0-.968-.254.713.713,0,0,0-.254.968Z" transform="translate(2274.116 -360.891)"/></g><g transform="translate(5.782 4.938)"><path class="c" d="M-2273.038,360.842a14.414,14.414,0,0,1,1.73-1.015c.127-.061.256-.117.385-.174.083-.037-.167.068-.021.009l.108-.044.2-.08c.353-.138.71-.267,1.067-.4a.723.723,0,0,0,.494-.871.716.716,0,0,0-.871-.494c-.687.249-1.377.5-2.04.809a14.2,14.2,0,0,0-1.77,1.034.72.72,0,0,0-.254.968.718.718,0,0,0,.969.254Z" transform="translate(2274.106 -357.743)"/></g><g transform="translate(7.605 7.77)"><path class="c" d="M-2269.679,365.649c.017-.022.108-.084.109-.1,0,.01-.179.132-.078.062l.046-.033c.039-.028.079-.054.119-.081.213-.142.434-.273.657-.4.66-.378,1.343-.72,2.032-1.041a.71.71,0,0,0,.255-.968.728.728,0,0,0-.969-.254c-.7.326-1.4.675-2.069,1.062-.222.127-.443.258-.655.4a1.9,1.9,0,0,0-.448.354.772.772,0,0,0-.207.5.72.72,0,0,0,.207.5.716.716,0,0,0,1,0Z" transform="translate(2270.887 -362.745)"/></g><g transform="translate(8.342 10.368)"><path class="c" d="M-2268.519,370.658c.979-.553,1.962-1.1,2.956-1.628.253-.134.507-.27.768-.389a.71.71,0,0,0,.254-.968.728.728,0,0,0-.968-.254c-.544.248-1.067.547-1.591.833q-.879.48-1.752.971l-.38.213a.715.715,0,0,0-.254.968.721.721,0,0,0,.968.254Z" transform="translate(2269.584 -367.333)"/></g><g transform="translate(44.533 0.954)"><path class="c" d="M-2204.265,356.693a18.865,18.865,0,0,0,.6-2.339c.039-.167.08-.333.13-.5.026-.087.053-.174.084-.26.012-.033.1-.255.055-.153a3.857,3.857,0,0,1,.248-.479,3.169,3.169,0,0,1,.333-.465,2.037,2.037,0,0,1,.382-.378c.032-.021.118.011.217.048.157.06-.047-.005-.022-.029a1.121,1.121,0,0,1,.115.1c.042.041.08.087.119.131.016.018.031.037.046.055.052.063-.076-.112,0,0a9.058,9.058,0,0,1,.938,1.845,12.114,12.114,0,0,1,.423,1.375,7.258,7.258,0,0,1,.213,1.31.724.724,0,0,0,.708.708.714.714,0,0,0,.708-.708,10.873,10.873,0,0,0-.645-2.948,9.283,9.283,0,0,0-1.139-2.318,2.6,2.6,0,0,0-.708-.724,1.7,1.7,0,0,0-1.685-.071,3.762,3.762,0,0,0-1.163,1.255,5.205,5.205,0,0,0-.559,1.228c-.306.967-.408,1.98-.763,2.936a.714.714,0,0,0,.494.871.723.723,0,0,0,.871-.495Z" transform="translate(2205.664 -350.707)"/></g><g transform="translate(45.111 4.375)"><path class="c" d="M-2203.935,358.333c.536-.066,1.076-.111,1.616-.14.433-.024.868-.037,1.3-.021.1,0,.2.009.294.017l.157.014c.117.011.046.046-.04-.006a.992.992,0,0,0,.235.044,1.647,1.647,0,0,1,.22.067.71.71,0,0,0,.871-.494.728.728,0,0,0-.494-.87,3.691,3.691,0,0,0-1.157-.183,13.412,13.412,0,0,0-1.342.015c-.554.029-1.11.075-1.661.143a.726.726,0,0,0-.708.708c.015.344.314.756.708.708Z" transform="translate(2204.643 -356.749)"/></g></g></g><g transform="translate(-2582.245 13332.982)"><g transform="translate(0 0)"><path class="p" d="M-2228.713,321.952s7.33-6.361,14.955-3.539c0,0,3.647,4.948,5.581,7.515C-2208.177,325.929-2213.586,319.584-2228.713,321.952Z" transform="translate(2228.713 -317.691)"/></g></g><g transform="translate(-2582.678 13331.849)"><g transform="translate(0 0)"><path class="c" d="M-2213.919,315.881a34.1,34.1,0,0,0-7.461.023,15.62,15.62,0,0,0-7.791,3.353,1.07,1.07,0,0,0,0,1.5,1.085,1.085,0,0,0,1.5,0c3.93-3.193,8.97-3.135,13.75-2.754,1.363.108,1.356-2.016,0-2.123Z" transform="translate(2229.478 -315.686)"/></g></g><g transform="translate(-2670.343 13200.117)"><g transform="translate(0 0)"><g transform="translate(1.132 1.13)"><path class="j" d="M-2373.069,165.647s-8.576,2.26-9.216-11.908,9.633-14.641,11.949-26.385-1.346-33.167,20.9-31.376c0,0,7.647-13.584,20.476-10.509s12.833,17.418,16.468,17.917,4.38-4.221,9.517-3.87,21.037,6.405,16.508,32.105c0,0-2.685,6.931,5.381,6,10.148-1.169,98.539,12.938,97.651,21.827-2.884,28.836-9.967,27.593-18.026,26s-12.424,5.124-17.769,6.092c-1.9.344-46.233-30.274-79.318-10.817-13.929,8.192-39.863,2.184-50.16-5.173" transform="translate(2382.314 -85.015)"/></g><path class="c" d="M-2220.135,191.809c-.622,0-1.483-.446-4.461-2.027-11.628-6.175-47.013-24.965-74.244-8.951-14.024,8.247-40.433,2.6-51.393-5.228a1.132,1.132,0,0,1-.263-1.58,1.132,1.132,0,0,1,1.579-.263c5.145,3.675,14.261,6.9,23.225,8.219,10.542,1.549,19.67.447,25.7-3.1,28.322-16.656,64.55,2.581,76.454,8.9,1.5.8,2.922,1.552,3.429,1.739a17.536,17.536,0,0,0,5.248-2.577c3.408-2.137,7.27-4.559,12.751-3.474,3.381.669,6.575,1.3,9.159-.613,3.692-2.737,6.153-10.714,7.519-24.387.014-.134-.112-.415-.5-.8-3.649-3.595-21.454-8.635-47.628-13.484-23.621-4.375-44.025-6.791-48.262-6.3-2.923.337-4.99-.248-6.141-1.738-1.6-2.068-.689-5.047-.468-5.68,1.794-10.277.476-18.336-3.921-23.953a17.384,17.384,0,0,0-11.565-6.731c-2.288-.151-3.493.865-4.773,1.945-1.231,1.04-2.628,2.217-4.821,1.918-1.913-.263-2.83-2.362-4.1-5.267-1.995-4.563-4.726-10.813-12.479-12.672-11.856-2.841-19.153,9.835-19.225,9.964l-.355.631-.723-.058c-16.758-1.347-17.783,10.811-18.77,22.571a74.566,74.566,0,0,1-.93,7.9c-1.07,5.428-3.716,8.539-6.276,11.547-3.082,3.622-5.993,7.044-5.653,14.568.221,4.884,1.47,8.311,3.614,9.911a5.3,5.3,0,0,0,4.19.951,1.136,1.136,0,0,1,1.374.818,1.129,1.129,0,0,1-.8,1.375,7.607,7.607,0,0,1-6.07-1.3c-2.772-2.038-4.308-5.96-4.566-11.656-.38-8.416,2.96-12.342,6.19-16.138,2.48-2.916,4.823-5.67,5.779-10.517a73.111,73.111,0,0,0,.9-7.647c.966-11.516,2.166-25.813,20.517-24.689,1.764-2.718,9.485-13.275,21.342-10.432,8.849,2.121,11.964,9.25,14.026,13.967.748,1.711,1.678,3.84,2.332,3.93,1.141.157,1.831-.374,3.051-1.4a8.224,8.224,0,0,1,6.388-2.474,19.782,19.782,0,0,1,13.195,7.595c4.823,6.162,6.286,14.855,4.35,25.837l-.059.212c-.244.644-.7,2.552.109,3.6.79,1.016,2.659,1.034,4.087.869,8.956-1.027,88.081,10.911,97.739,20.424a3.256,3.256,0,0,1,1.168,2.64c-1.473,14.742-4.072,22.755-8.424,25.981-3.388,2.512-7.231,1.751-10.948,1.016-4.6-.911-7.908,1.165-11.108,3.172a18.263,18.263,0,0,1-6.24,2.924A1.344,1.344,0,0,1-2220.135,191.809Z" transform="translate(2384.314 -83.02)"/><g transform="translate(160.642 55.897)"><g transform="translate(1.119 1.133)"><path class="j" d="M-2097.24,197.511c-.239-.066-5.367-12.762,5.93-13.764,0,0,13.308.251,8.744,10.648l4.813,1.361s-2.443-6.317,2.4-6.856,7.663,6.811,7.158,10.05" transform="translate(2098.607 -183.747)"/></g><path class="c" d="M-2069.052,199.214a1.157,1.157,0,0,1-.176-.014,1.132,1.132,0,0,1-.945-1.293,10.5,10.5,0,0,0-2.648-7.355,3.867,3.867,0,0,0-3.265-1.395,2.039,2.039,0,0,0-1.65.879c-.766,1.262-.108,3.692.182,4.444l.818,2.115-8.246-2.332.523-1.191c1.061-2.418,1.134-4.371.217-5.8-1.631-2.55-6.186-3.21-7.885-3.255-2.7.252-4.538,1.261-5.457,3-1.724,3.258.014,8.186.393,8.952a1.128,1.128,0,0,1,.186.981,1.132,1.132,0,0,1-1.393.79c-1.378-.38-2.389-5.718-2.149-8.373.406-4.469,3.346-7.172,8.281-7.611l.061-.005h.061c.291.006,7.175.182,9.81,4.3,1.175,1.837,1.315,4.1.419,6.729l1.7.481a6.482,6.482,0,0,1,.544-4.4,4.216,4.216,0,0,1,3.336-1.955,6.086,6.086,0,0,1,5.151,2.08c2.416,2.525,3.631,6.832,3.25,9.271A1.132,1.132,0,0,1-2069.052,199.214Zm-28.114-3.2Zm-.615-.457h0Zm0,0h0Zm0,0h0Zm0,0h0Zm0,0h0Zm0,0h0Zm0,0h0Zm0,0h0Zm0,0h0Z" transform="translate(2100.583 -181.746)"/></g><g transform="translate(23.399 71.058)"><g transform="translate(1.133 1.117)"><path class="j" d="M-2340.986,219.392c3.851-10.621,17.92-8.772,17.92-8.772,25.835,4.955,122.308,25.486,125.357,22.78,6.327-5.618,16.7-3.348,21.48-1.323a40.69,40.69,0,0,1,5.954,2.978" transform="translate(2340.986 -210.497)"/></g><path class="c" d="M-2171.145,235.332a1.125,1.125,0,0,1-.622-.187,40.535,40.535,0,0,0-5.771-2.88c-10.186-4.313-17.724-1.149-20.288,1.127-.782.694-1.962,1.742-36.95-4.78-19.656-3.664-43.638-8.526-62.907-12.433-11.046-2.239-20.587-4.174-26.428-5.294-.865-.107-13.236-1.455-16.677,8.039a1.133,1.133,0,0,1-1.451.679,1.133,1.133,0,0,1-.678-1.451c4.113-11.345,18.982-9.528,19.131-9.508l.066.01c5.85,1.122,15.414,3.061,26.488,5.306,32.648,6.62,93.267,18.917,98.012,17.644,6.7-5.824,17.323-3.645,22.567-1.424a41.587,41.587,0,0,1,6.135,3.075,1.133,1.133,0,0,1,.322,1.569A1.13,1.13,0,0,1-2171.145,235.332Zm-28-3.751Z" transform="translate(2342.986 -208.524)"/></g><g transform="translate(164.588 59.397)"><g transform="translate(5.662 5.666)"><path class="j" d="M-2083.455,197.972l-.16-.036" transform="translate(2083.615 -197.936)"/></g><path class="c" d="M-2086.288,188.172l-.16-.036a4.286,4.286,0,0,0-2.258-.1,4.213,4.213,0,0,0-2.105.672,4.288,4.288,0,0,0-1.589,1.458,4.271,4.271,0,0,0-1.013,1.926l-.2,1.5a5.639,5.639,0,0,0,.773,2.858l.885,1.145a5.655,5.655,0,0,0,2.5,1.456l.159.036a4.287,4.287,0,0,0,2.258.1,4.213,4.213,0,0,0,2.105-.672,4.28,4.28,0,0,0,1.588-1.458,4.26,4.26,0,0,0,1.013-1.926l.2-1.505a5.636,5.636,0,0,0-.773-2.857l-.885-1.146a5.657,5.657,0,0,0-2.5-1.456Z" transform="translate(2093.615 -187.929)"/></g><g transform="translate(184.287 65.562)"><g transform="translate(2.833 2.831)"><path class="j" d="M-2053.819,203.9l.018-.08" transform="translate(2053.819 -203.817)"/></g><path class="c" d="M-2053.259,202.48l.018-.08a2.141,2.141,0,0,0,.05-1.129,2.108,2.108,0,0,0-.336-1.053,2.141,2.141,0,0,0-.729-.794,2.135,2.135,0,0,0-.962-.507l-.753-.1a2.822,2.822,0,0,0-1.429.386l-.573.443a2.83,2.83,0,0,0-.728,1.25l-.018.08a2.149,2.149,0,0,0-.051,1.128,2.108,2.108,0,0,0,.336,1.053,2.13,2.13,0,0,0,.729.794,2.128,2.128,0,0,0,.962.507l.752.1a2.814,2.814,0,0,0,1.429-.387l.573-.443a2.825,2.825,0,0,0,.728-1.249Z" transform="translate(2058.822 -198.817)"/></g></g><g class="k" transform="translate(46.481 69.701)"><g transform="translate(1.054 1.031)"><path class="b" d="M-2299.967,210.07l2.725,10.278c.111.417.329.925.761.93.346,0,.587-.33.762-.629a44.658,44.658,0,0,0,3.914-8.713,2.9,2.9,0,0,0,.1-2.2,3.007,3.007,0,0,0-2.06-1.221,12.062,12.062,0,0,0-3.475-.562,4.078,4.078,0,0,0-3.115,1.412Z" transform="translate(2300.358 -207.949)"/></g><path class="c" d="M-2301.8,209.562l2.249,8.48c.276,1.042.413,2.653,1.44,3.274,1.3.786,2.241-.455,2.807-1.453a46.163,46.163,0,0,0,3.319-7.273c.429-1.2,1.005-2.575.527-3.848a3.605,3.605,0,0,0-2.652-1.991c-2.561-.723-5.877-1.273-7.808,1.073a1.108,1.108,0,0,0-.166,1.286l.391.7c.663,1.2,2.5.126,1.833-1.071l-.391-.705-.166,1.286c.978-1.189,2.545-1.238,3.957-.962a13.111,13.111,0,0,1,2.343.61c.726.292.8.723.612,1.451a30.705,30.705,0,0,1-1.8,4.759q-.557,1.23-1.187,2.424-.286.543-.587,1.077c-.118.208-.23.442-.367.639l-.093.151c-.065.087-.076.084-.035-.01h.565c.167.027.009.141.027-.029a1.875,1.875,0,0,0-.149-.545l-.375-1.413-.75-2.826-1.5-5.653A1.062,1.062,0,0,0-2301.8,209.562Z" transform="translate(2302.219 -206.128)"/></g><g class="k" transform="translate(76.766 74.77)"><g transform="translate(1.043 1.097)"><path class="b" d="M-2246.886,217.21c.556,3.055,1.505,13.392,3.223,13.2.984-.11,7.21-11.154,7.113-11.391a20.271,20.271,0,0,0-5.767-1.983A43.55,43.55,0,0,0-2246.886,217.21Z" transform="translate(2246.886 -217.019)"/></g><path class="c" d="M-2248.709,216.651c.566,3.148.825,6.343,1.5,9.475a8.884,8.884,0,0,0,1.418,3.847,1.6,1.6,0,0,0,2.551-.024,20.8,20.8,0,0,0,2.089-2.934c.84-1.319,1.641-2.662,2.424-4.016.646-1.119,1.287-2.243,1.883-3.389.452-.869.96-1.826-.154-2.472a15.619,15.619,0,0,0-2.286-.979,18.2,18.2,0,0,0-2.862-.891,19.855,19.855,0,0,0-5.538.039c-1.351.119-1.363,2.243,0,2.123a33.457,33.457,0,0,1,4.416-.18,8.422,8.422,0,0,1,1.982.45c.789.251,1.568.54,2.331.861.183.077.436.189.644.289a1.5,1.5,0,0,0,.268.135c.021.005.049.04.07.04.094,0-.408-1.034-.4-1.085-.013.166.139-.271,0,0-.074.146-.143.294-.217.439-.489.955-1.018,1.889-1.548,2.821a69.511,69.511,0,0,1-4.222,6.786c-.049.067-.2.258-.063.087-.061.077-.123.155-.186.23-.1.118-.223.222-.319.342-.142.178.154-.093.058-.041a1.188,1.188,0,0,1,.371-.092.751.751,0,0,1,.281.069c-.109-.057.229.066.012-.01-.045-.016.06.131-.029-.055-.045-.094-.1-.185-.15-.279-.026-.052-.05-.105-.073-.158.018.04.075.19,0-.007-.049-.128-.1-.256-.14-.387a18.549,18.549,0,0,1-.513-1.918c-.708-3.2-.965-6.462-1.542-9.68C-2246.9,214.744-2248.949,215.313-2248.709,216.651Z" transform="translate(2248.729 -215.081)"/></g><g class="k" transform="translate(158.384 87.688)"><g transform="translate(1.06 1.071)"><path class="b" d="M-2102.7,241.852a31.071,31.071,0,0,0,4.738,10.452l2.815-6.316c.606-1.361,1.211-2.951.539-4.28-.738-1.458-2.625-1.84-4.258-1.917A5.627,5.627,0,0,0-2102.7,241.852Z" transform="translate(2102.699 -239.789)"/></g><path class="c" d="M-2104.534,241.313a32.4,32.4,0,0,0,4.845,10.706c.406.581,1.48.792,1.833,0,1.062-2.383,2.2-4.747,3.178-7.166.859-2.124.927-4.563-1.182-5.953a6.562,6.562,0,0,0-5.4-.7,8.491,8.491,0,0,0-2.3,1.332,2.1,2.1,0,0,0-1.012,1.5,1.062,1.062,0,0,0,2.123,0c0,.186-.053.443-.163.5.081-.041.165-.168.234-.231a4.321,4.321,0,0,1,.558-.43,5.314,5.314,0,0,1,1.57-.769,4.471,4.471,0,0,1,3.488.763c1.31,1.119.129,3.227-.413,4.445l-2.513,5.639h1.833a30.726,30.726,0,0,1-4.631-10.2A1.063,1.063,0,0,0-2104.534,241.313Z" transform="translate(2104.572 -237.897)"/></g><g class="k" transform="translate(43.705 65.136)"><path class="c" d="M-2305.135,202.534c.021-.029.144-.2.044-.061s.038-.044.049-.057q.1-.121.206-.239.211-.234.442-.45.128-.12.262-.233.053-.046.108-.09c.122-.1.04-.064-.022.014a2.33,2.33,0,0,1,.547-.38q.266-.169.547-.315c.094-.049.187-.1.283-.14.052-.025.106-.048.159-.072.12-.057-.21.083-.027.011a7.89,7.89,0,0,1,1.275-.382,1.07,1.07,0,0,0,.741-1.306,1.088,1.088,0,0,0-1.306-.742,8.631,8.631,0,0,0-5.142,3.37,1.065,1.065,0,0,0,.381,1.453,1.092,1.092,0,0,0,1.452-.381Z" transform="translate(2307.121 -198.065)"/></g><g class="k" transform="translate(155.086 84.934)"><path class="c" d="M-2108.272,237.078c0-.085.013-.169.024-.254l-.038.283a3.228,3.228,0,0,1,.216-.772l-.107.254a3.506,3.506,0,0,1,.427-.73l-.166.215a3.59,3.59,0,0,1,.628-.629l-.214.166a3.388,3.388,0,0,1,.729-.425l-.253.107a3.122,3.122,0,0,1,.65-.187,1.065,1.065,0,0,0,.634-.488,1.084,1.084,0,0,0,.107-.818,1.075,1.075,0,0,0-.487-.634,1.2,1.2,0,0,0-.818-.107,4.16,4.16,0,0,0-2.328,1.333,4.407,4.407,0,0,0-1.125,2.686,1.068,1.068,0,0,0,1.062,1.062,1.086,1.086,0,0,0,1.061-1.062Z" transform="translate(2110.396 -233.032)"/></g><g transform="translate(1.968 2.315)"><path class="n" d="M-2346.012,99.77c-27.8,11.261-10.356,26.178-12.675,37.925s-13.723,7.84-13.084,22.006c.2,4.347,6.019,8.485,7.231,10.281l-7.051-3.023s-8.624.374-9.216-11.91c-.682-14.164,9.634-14.639,11.951-26.38s-1.349-33.167,20.9-31.38c0,0,6.976-12.165,18.788-9.9,0,0-6.909-2.046-11.774,7.084C-2341.649,95.8-2346.012,99.77-2346.012,99.77Z" transform="translate(2380.839 -87.108)"/></g><g transform="translate(36.383 21.917)"><path class="n" d="M-2317.091,121.73s-5.772,9.461-1.2,9.028,2.338.156,2.338.156-3.966,13.059-1.094,15.039,12.276,1.072,12.276,1.072l7.15-23.009Z" transform="translate(2320.054 -121.73)"/></g><g transform="translate(82.466 29.03)"><path class="n" d="M-2235.694,134.294s-4.321,15.959-2.531,19.8,11.022,3.917,11.022,3.917l5.373-21.426Z" transform="translate(2238.66 -134.294)"/></g><g transform="translate(92.986 55.225)"><path class="n" d="M-2218.826,180.56s-1.588,3.352-1.189,5.238,5.358-4.292,5.358-4.292Z" transform="translate(2220.079 -180.56)"/></g><g transform="translate(14.746 16.365)"><g transform="translate(1.385 1.425)"><path class="b" d="M-2327.206,118.011l-28.617-3.569c9.259,1.389,19.285,2.811,28.617,3.569-.358,1.207-.98,3.069-1.412,4.343a1.174,1.174,0,0,0,.971,1.535,17.962,17.962,0,0,1,2.955.662,66.239,66.239,0,0,0-2.376,12.9c-.274,3.3-.126,7.046,2.306,9.286,1.27,1.17,27.766,3.658,28.833,2.827,3.722-2.894,4.7-15.54,4.944-19.619.031-.521.115-1.146.59-1.363a1.436,1.436,0,0,1,.739-.057c1.117.111,4.994.848,6.11.959l.405.757c-1.9,5.836-3.739,18.917,2.263,21.1,3.565,1.3,7.071-.037,11.321-1.115,2.1-.532,4.9-.951,10.25-.116,4.689.73,5.086-10.41,5.738-17.2,4.561.516,4.023-1.605,4.258-4.109C-2250.421,128.647-2303.357,121.246-2327.206,118.011Z" transform="translate(2355.823 -114.442)"/></g><path d="M-2328.267,115.5l-9.684-1.208-15.37-1.917-3.563-.444c-1.569-.2-1.954,2.544-.377,2.78,9.63,1.444,19.284,2.824,28.994,3.619l-1.365-1.791c-.26.867-.54,1.729-.824,2.589a7.464,7.464,0,0,0-.683,2.7c.177,2.542,3.179,2.431,5.01,2.993l-.989-1.742a61.366,61.366,0,0,0-2.514,14.746,14.371,14.371,0,0,0,.852,5.9c.544,1.324,1.415,2.883,2.824,3.421a20.239,20.239,0,0,0,4.229.855c2.558.378,5.126.68,7.7.951,4.855.513,9.752,1.011,14.637,1.1a16.2,16.2,0,0,0,1.883-.038,2.884,2.884,0,0,0,2.061-1.041c1.941-2.143,2.723-5.273,3.313-8.026a75.209,75.209,0,0,0,1.32-9.466q.075-.893.135-1.789c.015-.218.028-.436.042-.654a2.274,2.274,0,0,0,.022-.348c.014.068.017-.172.034-.156.14.127-.628.115-.259.31a1.63,1.63,0,0,0,.406.042c-.309-.037.061.011.176.029.391.059.78.124,1.17.189.814.136,1.628.277,2.442.412.679.112,1.359.224,2.043.3l-1.222-.7.405.757-.143-1.091a38.808,38.808,0,0,0-1.879,12.463c.071,3.812.9,8.684,4.9,10.286,2.9,1.162,6.077.6,9-.149,1.327-.341,2.642-.742,3.981-1.035a13.025,13.025,0,0,1,2.52-.344,26.247,26.247,0,0,1,3.667.071,17.274,17.274,0,0,0,4.115.333,5.108,5.108,0,0,0,3.547-3.293,26.946,26.946,0,0,0,1.746-7.467c.333-2.6.51-5.217.758-7.826l-1.415,1.415c1.747.183,3.871.109,4.922-1.541.746-1.171.635-2.658.752-3.984a1.411,1.411,0,0,0-1.039-1.365c-1.987-.272-3.971-.554-5.956-.831l-14.25-1.986q-9.4-1.31-18.808-2.615-9.91-1.375-19.822-2.744-8.62-1.189-17.241-2.365l-1.819-.247a1.465,1.465,0,0,0-1.742.989,1.426,1.426,0,0,0,.989,1.741q8.33,1.13,16.658,2.282,9.892,1.363,19.784,2.736,9.563,1.327,19.125,2.658,7.478,1.04,14.957,2.084l4.81.671c.788.11,1.592.279,2.386.332.058,0,.118.016.177.024l-1.04-1.365c-.047.531-.062,1.063-.107,1.594-.007.078-.065.51-.007.141-.017.108-.034.216-.059.322s-.054.2-.082.3c-.072.259-.011-.242-.011.029,0,.076-.26.325,0,.035a2.267,2.267,0,0,1-.212.209c.271-.229,0-.008-.071.01.318-.08-.05.014-.118.03a6.917,6.917,0,0,1-2.181.022c-.812-.085-1.349.721-1.416,1.415-.259,2.718-.435,5.513-.805,8.178a32.78,32.78,0,0,1-.788,4.065,8.269,8.269,0,0,1-1.119,2.749c-.064.1-.129.194-.2.286.208-.271-.021.014-.061.054-.074.072-.485.418-.175.195-.107.078-.631.322-.259.189-.149.053-.679.112-.288.1a19.326,19.326,0,0,1-2.209-.247c-.9-.109-1.811-.19-2.72-.229a25.74,25.74,0,0,0-7.885,1.026,29.223,29.223,0,0,1-5.356,1.155,8.863,8.863,0,0,1-2.316-.082,5.013,5.013,0,0,1-1.772-.592c-.1-.062-.2-.128-.3-.2-.322-.221.2.187-.092-.075-.181-.164-.349-.335-.513-.515-.054-.061-.107-.126-.156-.19.191.247-.053-.088-.071-.118-.159-.257-.315-.512-.449-.784a6.408,6.408,0,0,1-.448-1.2,13.9,13.9,0,0,1-.387-1.747c-.063-.394-.119-.957-.154-1.523-.042-.694-.054-1.389-.042-2.084a35.97,35.97,0,0,1,.3-4.005c.131-1.015.37-2.351.62-3.484.239-1.083.616-2.133.859-3.211a2.434,2.434,0,0,0-.506-1.769,1.489,1.489,0,0,0-1.077-.754c-.12-.023-.244-.03-.366-.045l.047.006-.256-.037c-1.283-.2-2.561-.429-3.843-.638-1.517-.247-3.408-.727-4.273.975a8.927,8.927,0,0,0-.466,3.3c-.184,2.439-.435,4.8-.821,7.132-.218,1.315-.474,2.625-.8,3.918-.161.637-.339,1.269-.542,1.894-.163.5-.437,1.236-.552,1.493a11.169,11.169,0,0,1-.682,1.307c-.065.105-.135.207-.2.31-.026.04-.268.356-.059.093a4.965,4.965,0,0,1-.444.491,1.553,1.553,0,0,0-.233.208c.114-.183.274-.186.165-.132.462-.225.349-.148.2-.1-.327.111.147-.022.138-.01-.029.037-.273.026-.322.029a32.383,32.383,0,0,1-3.844-.057c-4.305-.211-8.606-.6-12.892-1.064q-1.6-.172-3.2-.365-.779-.1-1.558-.2c-.106-.014-.686-.091-.364-.048l-.825-.114a38.6,38.6,0,0,1-4.113-.728c-.186-.048-.367-.116-.553-.162-.3-.075.233.112.138.062-.262-.137-.041.105.119.119-.186-.015-.53-.546-.646-.7a5.848,5.848,0,0,1-.558-.944,8.127,8.127,0,0,1-.637-2.18,19.835,19.835,0,0,1,0-4.993q.276-3.017.845-6,.578-3.031,1.435-6a1.442,1.442,0,0,0-.989-1.742,18.944,18.944,0,0,0-2.331-.564,4.705,4.705,0,0,0-.624-.1c-.236-.007-.161-.111-.053.036.167.228.082.14.2-.208.444-1.316.885-2.634,1.284-3.964a1.435,1.435,0,0,0-1.365-1.792c-9.458-.774-18.86-2.111-28.241-3.518l-.376,2.78,9.684,1.208,15.369,1.917,3.563.444a1.422,1.422,0,0,0,1.416-1.415A1.451,1.451,0,0,0-2328.267,115.5Z" transform="translate(2358.269 -111.924)"/><g transform="translate(33.417 26.311)"><g transform="translate(1.415 1.421)"><path class="b" d="M-2296.747,160.9l23.007,2.393" transform="translate(2296.747 -160.905)"/></g><path d="M-2297.832,161.232l23.007,2.393a1.425,1.425,0,0,0,1.416-1.415,1.447,1.447,0,0,0-1.416-1.415l-23.007-2.393a1.425,1.425,0,0,0-1.415,1.415,1.447,1.447,0,0,0,1.415,1.415Z" transform="translate(2299.247 -158.395)"/></g><g transform="translate(33.469 21.777)"><g transform="translate(1.415 1.421)"><path class="b" d="M-2296.656,152.9l23.664,2.461" transform="translate(2296.656 -152.898)"/></g><path d="M-2297.74,153.225l23.664,2.461a1.425,1.425,0,0,0,1.416-1.415,1.448,1.448,0,0,0-1.416-1.415l-23.664-2.461a1.425,1.425,0,0,0-1.416,1.415,1.448,1.448,0,0,0,1.416,1.415Z" transform="translate(2299.156 -150.388)"/></g><g transform="translate(34.949 17.454)"><g transform="translate(1.415 1.421)"><path class="b" d="M-2294.041,145.262l23.664,2.461" transform="translate(2294.041 -145.262)"/></g><path d="M-2295.125,145.589l23.664,2.461a1.424,1.424,0,0,0,1.415-1.415,1.447,1.447,0,0,0-1.415-1.415l-23.664-2.461a1.425,1.425,0,0,0-1.415,1.415,1.448,1.448,0,0,0,1.415,1.415Z" transform="translate(2296.541 -142.752)"/></g><g transform="translate(35.777 12.982)"><g transform="translate(1.415 1.421)"><path class="b" d="M-2292.579,137.363l23.664,2.461" transform="translate(2292.579 -137.363)"/></g><path d="M-2293.664,137.69-2270,140.15a1.424,1.424,0,0,0,1.415-1.415,1.448,1.448,0,0,0-1.415-1.415l-23.664-2.461a1.425,1.425,0,0,0-1.415,1.415,1.447,1.447,0,0,0,1.415,1.415Z" transform="translate(2295.079 -134.853)"/></g><g transform="translate(75.231 30.848)"><g transform="translate(1.415 1.423)"><path class="b" d="M-2222.895,168.923l10.238,1.3" transform="translate(2222.895 -168.923)"/></g><path d="M-2223.98,169.248l10.238,1.3a1.423,1.423,0,0,0,1.415-1.415,1.452,1.452,0,0,0-1.415-1.415l-10.238-1.3a1.423,1.423,0,0,0-1.415,1.415,1.452,1.452,0,0,0,1.415,1.415Z" transform="translate(2225.395 -166.409)"/></g><g transform="translate(75.585 26.353)"><g transform="translate(1.415 1.423)"><path class="b" d="M-2222.268,160.983l20.574,2.613" transform="translate(2222.268 -160.983)"/></g><path d="M-2223.352,161.308l20.574,2.613a1.423,1.423,0,0,0,1.416-1.415,1.451,1.451,0,0,0-1.416-1.415l-20.574-2.613a1.423,1.423,0,0,0-1.416,1.415,1.45,1.45,0,0,0,1.416,1.415Z" transform="translate(2224.768 -158.469)"/></g><g transform="translate(76.229 21.861)"><g transform="translate(1.415 1.423)"><path class="b" d="M-2221.131,153.049l20.574,2.613" transform="translate(2221.131 -153.049)"/></g><path d="M-2222.215,153.374l20.574,2.613a1.423,1.423,0,0,0,1.416-1.415,1.451,1.451,0,0,0-1.416-1.415l-20.574-2.613a1.423,1.423,0,0,0-1.416,1.415,1.451,1.451,0,0,0,1.416,1.415Z" transform="translate(2223.631 -150.535)"/></g><g transform="translate(77.734 17.54)"><g transform="translate(1.415 1.423)"><path class="b" d="M-2218.473,145.417l20.574,2.613" transform="translate(2218.473 -145.417)"/></g><path d="M-2219.557,145.742l20.574,2.613a1.423,1.423,0,0,0,1.416-1.415,1.451,1.451,0,0,0-1.416-1.415l-20.574-2.613a1.423,1.423,0,0,0-1.416,1.415,1.451,1.451,0,0,0,1.416,1.415Z" transform="translate(2220.973 -142.903)"/></g></g><g transform="translate(93.417 51.744)"><path d="M-2208.85,174.454a15.733,15.733,0,0,0-10.3,8.361,1.453,1.453,0,0,0,.508,1.936,1.427,1.427,0,0,0,1.936-.508,12.539,12.539,0,0,1,3.587-4.582c.024-.019.294-.236.189-.154s.171-.127.2-.145q.315-.23.641-.442a14.167,14.167,0,0,1,1.286-.746c.231-.118.466-.229.7-.336.13-.059-.105.038.118-.05q.2-.079.4-.153a14,14,0,0,1,1.49-.452,1.436,1.436,0,0,0,.989-1.742,1.438,1.438,0,0,0-1.741-.989Z" transform="translate(2219.318 -174.411)"/></g></g><g transform="translate(-2736.728 13212.382)"><g transform="translate(0 0)"><path class="h" d="M-2501.366,104.681l-.2.176C-2501.519,104.743-2501.457,104.681-2501.366,104.681Z" transform="translate(2501.565 -104.681)"/></g></g><g transform="translate(-2734.059 13225.378)"><g transform="translate(1.392 1.409)"><path class="e" d="M-2387.652,372.542a4.634,4.634,0,0,0,4.122-4.356c.744-13.559,2.637-61.117-5.486-88.316-3.891-13.025-15.565-17.617-21.628-18.5-12.393-1.812-23.848,9.788-29.908,16.36-.77-32.824-8.739-145.1-31.051-147.553-6.217-.683-14.342,5.562-19.455,11.176a12.773,12.773,0,0,0-3.131,10.868l36.924,204.9a5.1,5.1,0,0,0,4.028,4.1c12.765,2.536,57.183,11.317,60.961,11.489A30.329,30.329,0,0,0-2387.652,372.542Z" transform="translate(2494.391 -130.123)"/></g><g transform="translate(0 0)"><path class="d" d="M-2388.343,372.828a6.154,6.154,0,0,0,5.172-5.928c.1-1.515.156-3.034.224-4.55q.285-6.471.406-12.949c.221-11.619.086-23.257-.661-34.857-.751-11.646-1.965-23.477-5.117-34.749a28.061,28.061,0,0,0-8.952-14.438,29.987,29.987,0,0,0-12.07-6.049c-12.051-2.871-22.771,5.481-30.682,13.593-.88.9-1.741,1.82-2.6,2.745l2.416,1c-.175-7.391-.558-14.778-1.018-22.157q-.94-15.091-2.416-30.141c-1.087-11.065-2.395-22.111-4.042-33.107-1.527-10.187-3.326-20.355-5.8-30.358-1.919-7.763-4.167-15.655-7.86-22.786-2.17-4.189-5.477-9.4-10.529-10.308a14.316,14.316,0,0,0-8.4,1.527,37.612,37.612,0,0,0-9.262,6.387c-2.795,2.513-5.5,5.227-6.677,8.888a14.663,14.663,0,0,0-.4,6.97c.327,1.934.7,3.862,1.043,5.792l2.527,14.024,3.671,20.369,4.473,24.823,4.936,27.387,5.056,28.06,4.857,26.95,4.274,23.716,3.371,18.709,2.129,11.811.491,2.728a6.711,6.711,0,0,0,4.943,5.541c3.816.932,7.743,1.54,11.6,2.3q8.017,1.579,16.037,3.137c9.6,1.863,19.2,3.763,28.843,5.406a34.117,34.117,0,0,0,9.645.564c1.794-.187,1.813-3.02,0-2.831a26.7,26.7,0,0,1-4.783.16c-.144-.011-.287-.029-.431-.044-.089-.009-.178-.022-.267-.033-.205-.025.3.044-.067-.01-1.281-.186-2.557-.4-3.832-.619-4.254-.733-8.5-1.529-12.74-2.329q-15.9-3-31.774-6.154c-3.767-.742-7.569-1.389-11.314-2.238-2-.453-2.832-1.966-3.16-3.786l-1.437-7.979-2.8-15.545-3.819-21.192-4.542-25.208-4.924-27.324-4.957-27.5-4.7-26.109-4.088-22.686-3.18-17.646-1.925-10.68c-.13-.718-.262-1.436-.388-2.155a12.2,12.2,0,0,1-.184-2.372c.089-4.014,2.344-6.9,5.1-9.573a38.746,38.746,0,0,1,9.118-6.782,16.371,16.371,0,0,1,4.649-1.648,9.045,9.045,0,0,1,2.062-.115c.114.006.806.1.347.022.125.02.252.037.375.067.218.053.435.1.65.168.165.051.651.235.562.2-.13-.055.387.188.508.252q.341.182.667.392a5.754,5.754,0,0,1,1.062.8,15.263,15.263,0,0,1,1.225,1.206,29.956,29.956,0,0,1,4.413,6.9,76.792,76.792,0,0,1,3.98,10.125,212.246,212.246,0,0,1,6.541,27.124c1.952,10.564,3.456,21.208,4.72,31.875q1.869,15.782,3.079,31.634c.678,8.7,1.236,17.408,1.623,26.124.137,3.092.251,6.185.325,9.28a1.431,1.431,0,0,0,2.416,1,72.926,72.926,0,0,1,12-10.9c4.823-3.316,10.629-5.931,16.617-5.081a25.42,25.42,0,0,1,20.155,16.274,90.36,90.36,0,0,1,3.531,15.353c.93,5.712,1.546,11.471,2,17.239.881,11.273,1.124,22.6,1.017,33.9q-.064,6.815-.307,13.627-.095,2.671-.218,5.342a17.167,17.167,0,0,1-.347,4.475,3.387,3.387,0,0,1-2.923,2.223C-2390.891,370.361-2390.128,373.089-2388.343,372.828Z" transform="translate(2496.85 -127.635)"/></g></g><g transform="translate(-2731.25 13225.378)"><g transform="translate(0 1.408)"><path class="e" d="M-2382.445,368.188a4.614,4.614,0,0,1-1.347,3.018l-.792-1.246a3.609,3.609,0,0,1-2.2,1.189,25.625,25.625,0,0,1-4.563.136c-.142-.011-.289-.028-.431-.045-.084-.006-.17-.017-.249-.028h-.04l-.028-.006a.02.02,0,0,0-.017-.006c-1.28-.187-2.56-.4-3.833-.623-4.252-.73-8.5-1.529-12.739-2.327q-15.9-3-31.774-6.154c-.521-.1-1.042-.2-1.562-.3-3.25-.623-6.522-1.206-9.75-1.936-2-.453-2.837-1.965-3.165-3.788q-.543-3.032-1.087-6.058c-.119-.64-.232-1.28-.346-1.919q-1.4-7.771-2.8-15.547-1.911-10.59-3.822-21.192-2.268-12.6-4.541-25.206l-4.926-27.324q-2.48-13.75-4.954-27.5-2.351-13.053-4.7-26.106-2.047-11.346-4.087-22.687-1.588-8.824-3.182-17.648-.959-5.342-1.925-10.678c-.13-.719-.261-1.438-.385-2.157a11.967,11.967,0,0,1-.187-2.372,11.683,11.683,0,0,1,3.058-7.394c-.171-.561-.329-1.1-.482-1.636,5.129-5.418,12.835-11.12,18.792-10.469,22.313,2.452,30.285,114.73,31.055,147.557,6.059-6.573,17.512-18.174,29.906-16.363,6.063.883,17.738,5.475,21.627,18.5C-2379.806,307.069-2381.7,354.628-2382.445,368.188Z" transform="translate(2491.889 -130.121)"/></g><g transform="translate(2.109 0)"><path class="d" d="M-2379.435,314.545c-.747-11.646-1.964-23.479-5.118-34.746a28.044,28.044,0,0,0-8.951-14.443,30.029,30.029,0,0,0-12.065-6.047c-12.055-2.87-22.772,5.481-30.687,13.594-.091.091-.182.187-.272.283-.2-6.239-.538-12.473-.923-18.7q-.943-15.091-2.418-30.138c-1.088-11.069-2.395-22.115-4.043-33.11-1.528-10.186-3.324-20.354-5.8-30.358-1.919-7.762-4.167-15.655-7.864-22.783-2.168-4.19-5.475-9.4-10.525-10.31a14.267,14.267,0,0,0-8.4,1.529,37.426,37.426,0,0,0-9.262,6.387c-.822.736-1.631,1.489-2.4,2.282.152.51.305,1.03.469,1.574s.311,1.076.482,1.636a27.227,27.227,0,0,1,2.043-2.18,38.715,38.715,0,0,1,9.116-6.783,16.631,16.631,0,0,1,4.648-1.648,9.366,9.366,0,0,1,2.067-.113c.079.006.453.051.5.051.074.011.147.023.221.04.221.051.436.1.651.17.125.04.437.153.538.187.006,0,.006,0,.011.006.068.04.419.2.521.255.227.119.447.255.663.391a5.678,5.678,0,0,1,1.064.8,14.473,14.473,0,0,1,1.223,1.206,30,30,0,0,1,4.417,6.9,77.081,77.081,0,0,1,3.98,10.129,212.025,212.025,0,0,1,6.539,27.12c1.953,10.565,3.459,21.209,4.722,31.876q1.868,15.779,3.08,31.632c.673,8.7,1.233,17.41,1.619,26.123.135,3.1.255,6.188.328,9.285a1.428,1.428,0,0,0,2.412,1,72.824,72.824,0,0,1,12-10.9c4.818-3.318,10.627-5.934,16.611-5.084a25.417,25.417,0,0,1,20.156,16.278,90.081,90.081,0,0,1,3.533,15.349c.928,5.713,1.546,11.471,2,17.24.877,11.273,1.121,22.6,1.019,33.9q-.068,6.82-.311,13.628c-.062,1.783-.135,3.561-.215,5.345a17.323,17.323,0,0,1-.345,4.473,3.187,3.187,0,0,1-.566,1.008l.792,1.246.759,1.195a6.6,6.6,0,0,0,2.016-4.422c.1-1.512.153-3.035.221-4.552q.288-6.471.407-12.949C-2378.552,337.781-2378.688,326.146-2379.435,314.545Z" transform="translate(2488.164 -127.635)"/></g></g><g transform="translate(-2731.266 13228.33)"><g transform="translate(0 0)"><path class="h" d="M-2441.018,355.7c-11.758-5.007-8.092-161.238-32.016-222.851-2.222.594-17.962,6.48-18.865,18a9.3,9.3,0,0,0,.187,2.372c.125.719.255,1.438.385,2.157q.97,5.333,1.925,10.678,1.589,8.824,3.183,17.648,2.038,11.338,4.087,22.687,2.353,13.053,4.7,26.106,2.48,13.75,4.954,27.5,2.464,13.665,4.926,27.324,2.268,12.6,4.542,25.206,1.911,10.6,3.821,21.192,1.4,7.771,2.8,15.547.713,3.992,1.432,7.977c.328,1.823,1.167,3.335,3.165,3.788,3.227.73,6.5,1.314,9.75,1.936.521.1,1.042.2,1.563.3q15.874,3.125,31.773,6.154c4.241.8,8.487,1.6,12.739,2.327,1.274.221,2.554.436,3.833.623a.021.021,0,0,1,.017.006l.028.006h.04c.079.011.165.023.249.028.142.017.289.034.431.045a25.623,25.623,0,0,0,4.563-.136,3.606,3.606,0,0,0,2.2-1.189S-2423.6,363.118-2441.018,355.7Z" transform="translate(2491.917 -132.851)"/></g></g><g transform="translate(-2525.417 13340.137)"><g transform="translate(0.283 0.283)"><path class="r" d="M-2088.615,331.161l.106,2.679a.34.34,0,0,1-.182.3l-8.984,5.376a.531.531,0,0,1-.251.073l-29.349,1.158a.411.411,0,0,1-.46-.329c-.041-.635-.12-2-.1-2.875h0c.213-.693,6.875-4.437,7.934-5.028a.719.719,0,0,1,.314-.088l30.508-1.6A.41.41,0,0,1-2088.615,331.161Z" transform="translate(2127.841 -330.825)"/></g><g transform="translate(0 0)"><path class="c" d="M-2127.514,340.814a.681.681,0,0,1-.72-.595c-.046-.711-.12-2.033-.1-2.9l.012-.078c.211-.686,4.5-3.2,8.067-5.192a1.01,1.01,0,0,1,.436-.123l30.508-1.6a.809.809,0,0,1,.567.192.591.591,0,0,1,.2.416l.106,2.679a.618.618,0,0,1-.319.553l-8.983,5.376a.822.822,0,0,1-.385.113l-29.35,1.158Zm-.26-3.418c-.011.845.06,2.1.1,2.787,0,.014.056.065.167.065l29.348-1.158a.254.254,0,0,0,.117-.033l8.983-5.376a.1.1,0,0,0,.044-.045l-.106-2.68a.047.047,0,0,0-.014-.019.213.213,0,0,0-.155-.045l-30.509,1.6a.453.453,0,0,0-.19.052C-2124.269,334.938-2127.44,336.914-2127.774,337.4Z" transform="translate(2128.341 -330.325)"/></g></g><g transform="translate(-2525.316 13340.135)"><g transform="translate(0.283 0.283)"><path class="s" d="M-2089.022,330.822l-30.58,1.611a.348.348,0,0,0-.152.042c-.716.4-6.866,3.832-7.879,4.875-.074.076-.007.183.113.179l29.374-1.16a.128.128,0,0,1,.144.105l.123,3.117.17-.007-.132-3.169a.107.107,0,0,1,.057-.093l8.853-5.3C-2088.821,330.953-2088.884,330.814-2089.022,330.822Z" transform="translate(2127.665 -330.822)"/></g><g transform="translate(0 0)"><path class="c" d="M-2098.368,339.669l-.127-3.228-29.231,1.154a.419.419,0,0,1-.405-.24.379.379,0,0,1,.078-.42c1.02-1.05,6.8-4.287,7.945-4.926a.625.625,0,0,1,.276-.077l30.58-1.611a.424.424,0,0,1,.428.283.381.381,0,0,1-.178.441l-8.768,5.251.14,3.341Zm8.469-8.746-29.9,1.576a86.622,86.622,0,0,0-7.469,4.511l28.9-1.14a.441.441,0,0,1,.176.028.455.455,0,0,1,.051-.036Zm-8.6,5.346v0Z" transform="translate(2128.164 -330.322)"/></g></g><g transform="translate(-2490.894 13343.395)"><g transform="translate(0.253 0.257)"><g transform="translate(0 0)"><ellipse class="l" cx="0.682" cy="0.775" rx="0.682" ry="0.775" transform="matrix(0.999, -0.039, 0.039, 0.999, 0, 0.054)"/></g></g><g transform="translate(0 0)"><path class="c" d="M-2066.4,338.2a.922.922,0,0,1-.671-.3,1.11,1.11,0,0,1-.3-.724,1.017,1.017,0,0,1,.923-1.1,1.01,1.01,0,0,1,1.006,1.019h0a1.1,1.1,0,0,1-.241.746.919.919,0,0,1-.682.35Zm-.011-1.55h-.013a.454.454,0,0,0-.38.508.545.545,0,0,0,.144.356.36.36,0,0,0,.274.12.361.361,0,0,0,.265-.142.543.543,0,0,0,.115-.366h0A.457.457,0,0,0-2066.407,336.647Z" transform="translate(2067.366 -336.08)"/></g></g><g transform="translate(-2491.171 13342.979)"><g transform="translate(0 0)"><path class="c" d="M-2067.291,335.493s2.019-.565,2.452.537c.525,1.337-1.008,2.013-1.5,2.149S-2068.81,337.317-2067.291,335.493Z" transform="translate(2067.855 -335.348)"/></g></g><g transform="translate(-2522.076 13339.24)"><g transform="translate(1.094 1.023)"><path class="j" d="M-2120.509,330.549a7.969,7.969,0,0,0,2.2,2.225,14.06,14.06,0,0,0,8.444,2.308,6.262,6.262,0,0,0,3.65-1,2.759,2.759,0,0,0,.956-3.387" transform="translate(2120.509 -330.549)"/></g><g transform="translate(0 0)"><path class="c" d="M-2122.263,330.3c2.2,3.363,6.405,4.852,10.266,5.044,1.892.094,4.021-.016,5.585-1.209a3.834,3.834,0,0,0,1.229-4.757c-.619-1.218-2.451-.145-1.833,1.072.543,1.07-.6,2.12-1.508,2.446a10.15,10.15,0,0,1-4.41.251c-2.767-.3-5.911-1.5-7.5-3.919-.746-1.139-2.585-.076-1.833,1.071Z" transform="translate(2122.441 -328.742)"/></g></g></g><g transform="translate(639.924 94.478)"><g transform="translate(-2550.314 13083.678)"><g transform="translate(0 0)"><path class="b" d="M-2295.865,24.66a9.979,9.979,0,0,1,2.491-5.536,5.351,5.351,0,0,1,4.911-2.042,8.441,8.441,0,0,1,4.828,2.063,5.322,5.322,0,0,1,1.553,4.771,9.367,9.367,0,0,1-2.976,5.542c-1.819,1.66-3.575,2.373-5.406,2.12C-2294.6,31.009-2296.423,28.7-2295.865,24.66Zm23.79-55.578-15.583-.923-5.941,43.584,12.574,1.516Z" transform="translate(2297.01 32.944)"/><path class="c" d="M-2290.191,32.2a6.364,6.364,0,0,1-.867-.06,7.548,7.548,0,0,1-5.143-2.551,7.123,7.123,0,0,1-1.154-5.549h0a11.021,11.021,0,0,1,2.759-6.1,6.394,6.394,0,0,1,5.825-2.369,9.47,9.47,0,0,1,5.412,2.346,6.4,6.4,0,0,1,1.864,5.669,10.421,10.421,0,0,1-3.288,6.155A8.025,8.025,0,0,1-2290.191,32.2Zm-5.088-7.874a5.157,5.157,0,0,0,.729,3.971,5.577,5.577,0,0,0,3.779,1.767c1.495.207,2.943-.383,4.557-1.856a8.354,8.354,0,0,0,2.644-4.911,4.285,4.285,0,0,0-1.257-3.888,7.454,7.454,0,0,0-4.229-1.765,4.325,4.325,0,0,0-3.989,1.7,8.978,8.978,0,0,0-2.234,4.978Zm14.638-10.389-14.591-1.758,6.216-45.6,17.755,1.052Zm-12.227-3.584,10.557,1.273,8.519-42.046-13.41-.794Z" transform="translate(2297.462 33.42)"/></g></g><g transform="translate(-2522.083 13095.384)"><g transform="translate(0 0)"><path class="b" d="M-2254.636,35.477a10.3,10.3,0,0,1,3.975-4.436,4.91,4.91,0,0,1,4.986-.487,7.475,7.475,0,0,1,3.594,3.309,5.368,5.368,0,0,1-.164,4.888,9.6,9.6,0,0,1-4.4,4.3c-2.136,1.022-3.915,1.18-5.447.418C-2255.559,41.751-2256.425,39.076-2254.636,35.477Zm38.825-44.89-13.443-5.342-19.235,38.86,10.6,5.027Z" transform="translate(2256.589 16.085)"/><path class="c" d="M-2250.49,44.424a5.575,5.575,0,0,1-2.523-.588,6.833,6.833,0,0,1-3.772-3.913,7.271,7.271,0,0,1,.759-5.486h0a11.342,11.342,0,0,1,4.382-4.874,5.941,5.941,0,0,1,5.983-.522,8.5,8.5,0,0,1,4.072,3.791,6.453,6.453,0,0,1-.168,5.81,10.652,10.652,0,0,1-4.867,4.77A9.023,9.023,0,0,1-2250.49,44.424Zm-3.66-9.054a5.3,5.3,0,0,0-.639,3.917,4.865,4.865,0,0,0,2.708,2.674c1.218.6,2.657.469,4.529-.425a8.585,8.585,0,0,0,3.918-3.825,4.33,4.33,0,0,0,.149-3.985,6.487,6.487,0,0,0-3.109-2.808,3.892,3.892,0,0,0-3.978.446,9.291,9.291,0,0,0-3.578,4.006Zm16.236-5.448-12.438-5.9,20.136-40.681,15.463,6.144Zm-9.615-6.88,8.761,4.156,21-36.657L-2229.2-14Z" transform="translate(2257.041 16.659)"/></g></g><g transform="translate(-2591.282 13090.301)"><g transform="translate(0 0)"><path class="b" d="M-2342.134,36.743a9.256,9.256,0,0,1,.429-5.894,5.588,5.588,0,0,1,4-3.618,9.113,9.113,0,0,1,5.385.115,5.052,5.052,0,0,1,3.194,3.742,8.756,8.756,0,0,1-.894,6.076,6.9,6.9,0,0,1-4.453,3.867C-2338.655,42.011-2341.234,40.587-2342.134,36.743ZM-2339-21.99l-15.341,4.8,9.791,41.459,12.653-3.181Z" transform="translate(2355.582 23.35)"/><path class="c" d="M-2337.359,41.788a6.517,6.517,0,0,1-3.221-.765,6.727,6.727,0,0,1-3.111-4.629,10.3,10.3,0,0,1,.487-6.547,6.64,6.64,0,0,1,4.729-4.223,10.129,10.129,0,0,1,6,.158,6.125,6.125,0,0,1,3.835,4.479,9.8,9.8,0,0,1-.98,6.787c-1.335,2.479-3.015,3.915-5.149,4.415A11.415,11.415,0,0,1-2337.359,41.788Zm1.867-14.441a11.047,11.047,0,0,0-2.5.317,4.548,4.548,0,0,0-3.277,3,8.253,8.253,0,0,0-.377,5.254h0a4.687,4.687,0,0,0,2.091,3.277,6.055,6.055,0,0,0,4.317.229c1.536-.36,2.734-1.423,3.769-3.344a7.748,7.748,0,0,0,.8-5.34,4.023,4.023,0,0,0-2.573-3.012A6.194,6.194,0,0,0-2335.492,27.347Zm-10.367-2.387-10.259-43.442,17.422-5.455,7.455,45.223Zm-7.772-42.025,9.322,39.475,10.687-2.687-6.75-40.94Z" transform="translate(2356.119 23.937)"/></g></g></g></g></svg>