<svg xmlns="http://www.w3.org/2000/svg" xmlns:xlink="http://www.w3.org/1999/xlink" width="266.122" height="340" viewBox="0 0 266.122 340"><defs><style>.a{fill:none;}.b{fill:#1c1a1b;}.c{fill:#ea4551;}.d{opacity:0.22;}.e{clip-path:url(#a);}.f{fill:#b63640;}.g{fill:#7a232a;}.h,.v{fill:#1daa8c;}.i{fill:#030504;}.j,.l,.m,.u{isolation:isolate;}.k{fill:#fff;}.l,.t{fill:#002f56;}.l,.m,.r,.s,.t,.v{stroke:#030504;stroke-miterlimit:10;}.l,.m{stroke-width:2px;}.m{fill:#004470;}.n{fill:#178c73;}.o{fill:#90cfc2;}.p{fill:#e6e7e8;}.q{fill:#0f7560;}.r{fill:#001c39;}.s{fill:#002c51;}.u{fill:#9c1b35;}.v{stroke-linecap:round;stroke-width:0.75px;}</style><clipPath id="a"><path class="a" d="M-3520.933,155.5c2.93-4.368,13.116-18.994,26.878-13.747,13.62,5.193,23.156,97.593,27.078,139.711,18.924-13.744,68.292-27.215,76.027-20.565,6.081,5.229.6,26.826-1.536,34.535-5.868,21.179-15.254,38.464-18.116,59.293a11.555,11.555,0,0,1-10.155,9.962l-100.175,11.039L-3586.71,293.1l-22-143.193Z" transform="translate(3608.709 -140.63)"/></clipPath></defs><g transform="translate(3885.325 -13199.404)"><g transform="translate(-3885.325 13199.404)"><g transform="translate(40.191 248.949)"><path class="b" d="M-3565.712,525.181c-1.855,7.854-11.082,49.578-13.335,59.776a1.851,1.851,0,0,0,1.81,2.25h3.713a1.853,1.853,0,0,0,1.755-1.258l20.662-60.971a1.854,1.854,0,0,0-1.96-2.437l-11.047,1.228A1.849,1.849,0,0,0-3565.712,525.181Z" transform="translate(3579.091 -522.53)"/><path class="b" d="M-3466.6,536.52l-5.07,78.99a1.852,1.852,0,0,0,1.849,1.971h3.475a1.853,1.853,0,0,0,1.838-1.615l10.676-82.266a1.853,1.853,0,0,0-2.467-1.982l-9.081,3.276A1.852,1.852,0,0,0-3466.6,536.52Z" transform="translate(3532.419 -526.43)"/><path class="b" d="M-3402.679,529.3l8.893,33.611a1.853,1.853,0,0,0,1.792,1.379h0a1.853,1.853,0,0,0,1.842-2.051l-3.917-36.484a1.853,1.853,0,0,0-2.769-1.407l-4.975,2.872A1.854,1.854,0,0,0-3402.679,529.3Z" transform="translate(3502.468 -523.213)"/></g><path class="b" d="M-3296.819,517.488l23.582,64.169h4.283l-19.71-71.9Z" transform="translate(3496.637 -268.03)"/><g transform="translate(22.059 31.586)"><path class="c" d="M-3520.933,155.5c2.93-4.368,13.116-18.994,26.878-13.747,13.62,5.193,23.156,97.593,27.078,139.711,18.924-13.744,68.292-27.215,76.027-20.565,6.081,5.229.6,26.826-1.536,34.535-6.247,22.55-16.484,40.684-18.587,63.383a5.961,5.961,0,0,1-5.275,5.387l-104.584,11.525L-3586.71,293.1l-22-143.193Z" transform="translate(3610.092 -139.234)"/><path class="b" d="M-3520.775,155.14c2.85-4.244,6.217-8.341,10.54-11.155a17.092,17.092,0,0,1,8.988-3.012,15.667,15.667,0,0,1,5.435.951c.129.045.26.092.387.145-.012-.005-.334-.156-.133-.054.09.046.183.087.271.139.209.123.41.253.606.4-.333-.243.258.232.381.35.208.2.4.412.594.631.09.1.176.209.262.314.107.131-.091-.132.106.136s.4.555.583.841a29.478,29.478,0,0,1,2.212,4.21,88.21,88.21,0,0,1,4.1,12.335,343.508,343.508,0,0,1,7.183,35.987c2.189,13.914,3.972,27.89,5.576,41.883q2.144,18.7,3.883,37.448.175,1.853.347,3.7c.089.953,1.174,1.91,2.127,1.22a82.739,82.739,0,0,1,14.1-7.9,170.326,170.326,0,0,1,17.81-6.9,185.167,185.167,0,0,1,18.344-5.048,89.879,89.879,0,0,1,15.365-2.238c1-.041,2.012-.054,3.017-.018.754.027,1.863.116,2.362.194a12.247,12.247,0,0,1,2.084.492,3.9,3.9,0,0,1,1.3.675c-.322-.237.1.094.183.183s.279.287.338.362a5.927,5.927,0,0,1,.773,1.345,12.342,12.342,0,0,1,.8,3.136,35.879,35.879,0,0,1-.048,8.377c-1.355,13.878-6.117,27.415-10.878,40.414-3,8.2-6.1,16.372-8.39,24.8a110.821,110.821,0,0,0-2.723,12.844c-.505,3.428-.018,8.511-4.413,9.359-2.99.576-6.755.757-9.961,1.11l-24.082,2.654-29.548,3.256-26.255,2.894-14.18,1.563-.662.073,1,.414-8.948-11.24-20.309-25.513-21.808-27.4-13.651-17.15a12.032,12.032,0,0,0-1-1.262c-.26-.246.255.635.3.513.031-.084-.049-.282-.056-.369-.14-1.618-.5-3.247-.746-4.851l-3.511-22.858-5.121-33.335-5.477-35.644-4.581-29.816-2.393-15.579-.108-.7-1.363,1.789,8.714.556,20.934,1.334,25.337,1.615,21.928,1.4c3.542.226,7.162.694,10.714.683.049,0,.1.006.148.009,1.817.116,1.81-2.712,0-2.828l-8.714-.555-20.933-1.334-25.338-1.615-21.927-1.4c-3.543-.226-7.163-.694-10.715-.683-.049,0-.1-.006-.149-.01a1.434,1.434,0,0,0-1.363,1.79l1.44,9.376,3.622,23.575,4.855,31.6,5.033,32.761,4.283,27.877,2.484,16.172a5.359,5.359,0,0,0,.675,2.491c.794,1.11,1.712,2.151,2.561,3.218l14.332,18,20.463,25.707,18.706,23.5,6.414,8.056c1.032,1.3,2.01,2.684,3.119,3.918.77.857,1.774.537,2.788.425l7.378-.813,27.131-2.99,32.959-3.632,26.875-2.962,7.155-.789c.456-.05.913-.1,1.368-.15a7.5,7.5,0,0,0,6.247-4.588c.858-2.1.751-4.65,1.08-6.88q.543-3.679,1.356-7.311a145.932,145.932,0,0,1,4.006-14.236c3.126-9.447,6.873-18.676,9.981-28.13a167.481,167.481,0,0,0,5.5-20.745,82.339,82.339,0,0,0,1.415-10.53,27.166,27.166,0,0,0-.655-9.049,7.986,7.986,0,0,0-3.558-5.031,13.278,13.278,0,0,0-5.141-1.285c-5.2-.465-10.571.372-15.68,1.293a177.136,177.136,0,0,0-40.295,12.563,85.845,85.845,0,0,0-15.52,8.544l2.127,1.221q-1.734-18.607-3.781-37.183c-1.617-14.443-3.416-28.871-5.605-43.239a376.873,376.873,0,0,0-7.28-37.749,100.162,100.162,0,0,0-4.235-13.265c-1.181-2.851-2.548-5.963-4.841-8.117a9.877,9.877,0,0,0-4.892-2.276,17.711,17.711,0,0,0-10.411.909c-5.776,2.333-10.276,6.959-13.9,11.9-.565.769-1.108,1.554-1.64,2.346C-3524.233,155.227-3521.785,156.644-3520.775,155.14Z" transform="translate(3611.155 -138.162)"/></g><g class="d" transform="translate(23.442 32.982)"><g class="e"><path class="b" d="M-3704.676,667.965l5.285-26.948c-2.512-14.674-23.744-19.739-44.623-34.248-11.18-7.769-22.7-21.984-22.421-24.505,4.277-39.055-25-129.564-36.084-136.08-6.99-4.109-29.536,13.085-32.521,20.623-3.775,9.534-2.78,20.2-1.633,30.394,5.746,51.065,14.361,103.363,40.969,147.325,4.284,7.078,9.049,13.972,11.82,21.767,2.259,6.353,3.268,13.424,7.591,18.6,3.366,4.03,8.319,6.354,13.213,8.26a133.208,133.208,0,0,0,37.229,8.611c5.56.464,11.3.553,16.553-1.334s9.96-6.116,11.028-11.592Z" transform="translate(3708.208 -273.12)"/></g></g><g transform="translate(53.586 70.116)"><path class="b" d="M-3550.152,214.835l4.005-.1a1.44,1.44,0,0,0,1.414-1.414,1.44,1.44,0,0,0-1.414-1.414q-2.021-.13-4.046-.077l1.363,1.038-1.3-5.542a1.432,1.432,0,0,0-1.739-.987,1.451,1.451,0,0,0-.987,1.739,56.457,56.457,0,0,0,1.057,5.554l1.364-1.79c-1.187.041-2.372.122-3.553.255a1.456,1.456,0,0,0-1.414,1.414,1.429,1.429,0,0,0,1.414,1.414l3.6-.087-1.364-1.038c.375,1.513.8,3.011,1.3,4.49a1.447,1.447,0,0,0,1.739.987,1.438,1.438,0,0,0,.988-1.739l-1.056-4.5a1.432,1.432,0,0,0-1.739-.987,1.439,1.439,0,0,0-.988,1.739l1.057,4.5,2.727-.752c-.5-1.478-.923-2.976-1.3-4.489a1.431,1.431,0,0,0-1.363-1.038l-3.6.087v2.828c1.181-.133,2.366-.214,3.553-.255a1.433,1.433,0,0,0,1.364-1.79,56.347,56.347,0,0,1-1.058-5.553l-2.726.752,1.3,5.542a1.43,1.43,0,0,0,1.364,1.038q2.024-.05,4.046.077v-2.828l-4.005.1a1.439,1.439,0,0,0-1.414,1.414A1.43,1.43,0,0,0-3550.152,214.835Z" transform="translate(3555.405 -206.295)"/></g><g transform="translate(80.913 71.319)"><path class="b" d="M-3507.047,210.217l1.648,8.267a1.423,1.423,0,0,0,1.74.987,1.45,1.45,0,0,0,.988-1.739l-1.648-8.267a1.423,1.423,0,0,0-1.74-.987,1.449,1.449,0,0,0-.987,1.739Z" transform="translate(3507.082 -208.423)"/></g><g transform="translate(78.416 75.487)"><path class="b" d="M-3511.185,216.652l-.021.035,1.221-.7-.048-.005,1,.414-.043-.034.414,1-.006-.051-.415,1,.05-.055-.625.364q-.39.026-.091.02h2.926l3.181,0a1.429,1.429,0,0,0,1.414-1.414,1.439,1.439,0,0,0-1.414-1.414l-4.261,0c-.679,0-1.378-.05-2.055,0a1.577,1.577,0,0,0-1.538,1.494,1.471,1.471,0,0,0,.442,1.067,1.686,1.686,0,0,0,1.069.437,1.392,1.392,0,0,0,1.221-.7l.022-.036a1.428,1.428,0,0,0-.507-1.934,1.443,1.443,0,0,0-1.935.507Z" transform="translate(3511.498 -215.793)"/></g><g transform="translate(100.748 72.355)"><path class="b" d="M-3465.191,216.767l3.511-.113a1.435,1.435,0,0,0,1.414-1.414,1.442,1.442,0,0,0-1.414-1.414c-1.181-.039-2.363-.04-3.544-.02l1.363,1.038-.866-3.546a1.428,1.428,0,0,0-1.74-.987,1.46,1.46,0,0,0-.987,1.739,35.034,35.034,0,0,0,.677,3.549l1.363-1.789c-1.729.038-3.457.135-5.179.3a1.445,1.445,0,0,0-1.414,1.414,1.435,1.435,0,0,0,1.414,1.414l5.215-.169-1.363-1.038c.271,1.068.588,2.122.958,3.161a1.443,1.443,0,0,0,1.739.987,1.443,1.443,0,0,0,.988-1.739l-.773-3.166a1.427,1.427,0,0,0-1.739-.988,1.444,1.444,0,0,0-.987,1.74l.773,3.166,2.727-.752c-.371-1.038-.687-2.092-.957-3.161a1.432,1.432,0,0,0-1.364-1.038l-5.215.169v2.828c1.722-.169,3.449-.266,5.179-.3a1.431,1.431,0,0,0,1.363-1.79,34.964,34.964,0,0,1-.676-3.549l-2.727.752.866,3.546a1.432,1.432,0,0,0,1.364,1.038c1.181-.02,2.362-.019,3.544.02v-2.828l-3.511.113a1.435,1.435,0,0,0-1.414,1.414A1.435,1.435,0,0,0-3465.191,216.767Z" transform="translate(3472.006 -210.254)"/></g><g transform="translate(58.98 93.639)"><path class="b" d="M-3540.612,256.431l4-.1a1.44,1.44,0,0,0,1.414-1.414,1.439,1.439,0,0,0-1.414-1.414q-2.021-.13-4.045-.078l1.363,1.038-1.3-5.542a1.432,1.432,0,0,0-1.739-.987,1.451,1.451,0,0,0-.988,1.739c.257,1.868.615,3.72,1.057,5.553l1.363-1.79c-1.187.041-2.372.123-3.553.256a1.456,1.456,0,0,0-1.414,1.414,1.43,1.43,0,0,0,1.414,1.414l3.6-.086-1.364-1.038c.375,1.513.8,3.012,1.3,4.49a1.446,1.446,0,0,0,1.739.987,1.437,1.437,0,0,0,.987-1.739l-1.056-4.5a1.432,1.432,0,0,0-1.739-.987,1.438,1.438,0,0,0-.988,1.739l1.057,4.5,2.726-.752c-.5-1.478-.923-2.976-1.3-4.49a1.431,1.431,0,0,0-1.363-1.038l-3.6.087v2.827c1.181-.133,2.366-.214,3.553-.256a1.433,1.433,0,0,0,1.364-1.789,56.164,56.164,0,0,1-1.058-5.553l-2.727.752,1.3,5.542a1.43,1.43,0,0,0,1.364,1.038q2.024-.05,4.045.078v-2.828l-4,.1a1.44,1.44,0,0,0-1.414,1.414A1.429,1.429,0,0,0-3540.612,256.431Z" transform="translate(3545.866 -247.891)"/></g><g transform="translate(86.307 94.842)"><path class="b" d="M-3497.508,251.812l1.648,8.267a1.423,1.423,0,0,0,1.74.987,1.45,1.45,0,0,0,.987-1.739l-1.648-8.267a1.424,1.424,0,0,0-1.74-.988,1.449,1.449,0,0,0-.987,1.739Z" transform="translate(3497.543 -250.018)"/></g><g transform="translate(83.81 99.009)"><path class="b" d="M-3501.646,258.247l-.022.036,1.221-.7-.048-.006,1,.415-.043-.034.414,1-.006-.051-.415,1,.05-.055-.624.364c-.26.017-.291.024-.091.02h1.336l1.59,0,3.181,0a1.43,1.43,0,0,0,1.414-1.414,1.438,1.438,0,0,0-1.414-1.414l-4.262,0c-.679,0-1.378-.05-2.054,0a1.577,1.577,0,0,0-1.539,1.494,1.473,1.473,0,0,0,.442,1.068,1.69,1.69,0,0,0,1.069.437,1.394,1.394,0,0,0,1.221-.7l.021-.035a1.428,1.428,0,0,0-.508-1.934,1.441,1.441,0,0,0-1.934.507Z" transform="translate(3501.959 -257.388)"/></g><g transform="translate(106.143 95.878)"><path class="b" d="M-3455.652,258.362l3.511-.114a1.434,1.434,0,0,0,1.414-1.414,1.442,1.442,0,0,0-1.414-1.414c-1.181-.039-2.363-.04-3.544-.019l1.364,1.038-.866-3.546a1.428,1.428,0,0,0-1.74-.987,1.461,1.461,0,0,0-.988,1.739,34.967,34.967,0,0,0,.677,3.549l1.363-1.79c-1.73.039-3.457.136-5.179.3a1.447,1.447,0,0,0-1.414,1.414,1.435,1.435,0,0,0,1.414,1.414l5.216-.169-1.363-1.038q.406,1.6.957,3.16a1.443,1.443,0,0,0,1.74.987,1.443,1.443,0,0,0,.987-1.739l-.773-3.166a1.428,1.428,0,0,0-1.739-.987,1.443,1.443,0,0,0-.988,1.739l.773,3.166,2.727-.752c-.37-1.038-.686-2.092-.957-3.16a1.432,1.432,0,0,0-1.364-1.038l-5.216.169v2.828c1.722-.169,3.449-.265,5.179-.3a1.432,1.432,0,0,0,1.363-1.79,34.736,34.736,0,0,1-.676-3.549l-2.727.752.866,3.546a1.433,1.433,0,0,0,1.364,1.038c1.181-.021,2.363-.02,3.544.019v-2.828l-3.511.114a1.434,1.434,0,0,0-1.414,1.414A1.435,1.435,0,0,0-3455.652,258.362Z" transform="translate(3462.468 -251.85)"/></g><g transform="translate(62.903 115.111)"><path class="b" d="M-3533.676,294.4l4-.1a1.439,1.439,0,0,0,1.414-1.414,1.44,1.44,0,0,0-1.414-1.414q-2.021-.13-4.045-.077l1.363,1.038-1.3-5.541a1.433,1.433,0,0,0-1.739-.988,1.452,1.452,0,0,0-.988,1.74,56.306,56.306,0,0,0,1.057,5.553l1.363-1.79c-1.188.041-2.373.122-3.553.256a1.456,1.456,0,0,0-1.414,1.414,1.43,1.43,0,0,0,1.414,1.414l3.6-.087-1.363-1.038c.375,1.513.8,3.012,1.3,4.49a1.446,1.446,0,0,0,1.739.987,1.438,1.438,0,0,0,.987-1.739l-1.056-4.5a1.433,1.433,0,0,0-1.74-.987,1.438,1.438,0,0,0-.988,1.74l1.057,4.5,2.726-.752c-.5-1.478-.924-2.977-1.3-4.49a1.432,1.432,0,0,0-1.363-1.038l-3.6.087v2.828c1.18-.133,2.365-.214,3.553-.256a1.432,1.432,0,0,0,1.363-1.789,56.475,56.475,0,0,1-1.057-5.553l-2.727.752,1.3,5.542a1.43,1.43,0,0,0,1.364,1.038q2.024-.05,4.045.077v-2.828l-4,.1a1.44,1.44,0,0,0-1.414,1.414A1.429,1.429,0,0,0-3533.676,294.4Z" transform="translate(3538.93 -285.86)"/></g><g transform="translate(90.229 116.314)"><path class="b" d="M-3490.573,289.782l1.649,8.267a1.422,1.422,0,0,0,1.739.987,1.45,1.45,0,0,0,.988-1.739l-1.649-8.267a1.422,1.422,0,0,0-1.739-.987,1.45,1.45,0,0,0-.988,1.74Z" transform="translate(3490.607 -287.988)"/></g><g transform="translate(87.732 120.482)"><path class="b" d="M-3494.71,296.217l-.022.036,1.221-.7-.048-.006,1,.414-.043-.034.414,1-.007-.051-.414,1,.049-.055-.624.364q-.39.025-.091.02h2.926l3.18,0a1.43,1.43,0,0,0,1.414-1.414,1.438,1.438,0,0,0-1.414-1.414l-4.261,0c-.679,0-1.378-.05-2.055,0a1.577,1.577,0,0,0-1.539,1.493,1.474,1.474,0,0,0,.442,1.068,1.693,1.693,0,0,0,1.069.437,1.392,1.392,0,0,0,1.22-.7l.021-.035a1.428,1.428,0,0,0-.507-1.935,1.442,1.442,0,0,0-1.935.507Z" transform="translate(3495.024 -295.358)"/></g><g transform="translate(110.065 117.35)"><path class="b" d="M-3448.716,296.332l3.511-.113a1.435,1.435,0,0,0,1.414-1.414,1.443,1.443,0,0,0-1.414-1.414c-1.181-.039-2.362-.04-3.544-.019l1.363,1.038-.865-3.546a1.429,1.429,0,0,0-1.74-.987,1.46,1.46,0,0,0-.988,1.739,34.937,34.937,0,0,0,.677,3.549l1.363-1.789c-1.729.039-3.457.136-5.179.3a1.445,1.445,0,0,0-1.413,1.414,1.435,1.435,0,0,0,1.413,1.414l5.216-.169-1.363-1.038c.271,1.068.587,2.122.957,3.16a1.443,1.443,0,0,0,1.74.987,1.443,1.443,0,0,0,.987-1.739l-.772-3.166a1.428,1.428,0,0,0-1.74-.987,1.443,1.443,0,0,0-.988,1.739l.773,3.166,2.727-.752c-.37-1.038-.686-2.092-.958-3.161a1.431,1.431,0,0,0-1.363-1.038l-5.216.168v2.828c1.722-.169,3.449-.265,5.179-.3a1.431,1.431,0,0,0,1.363-1.79,34.667,34.667,0,0,1-.676-3.549l-2.728.752.866,3.546a1.433,1.433,0,0,0,1.364,1.038c1.181-.021,2.363-.02,3.544.019v-2.828l-3.511.113a1.435,1.435,0,0,0-1.414,1.414A1.435,1.435,0,0,0-3448.716,296.332Z" transform="translate(3455.531 -289.82)"/></g><g transform="translate(66.136 136.583)"><path class="b" d="M-3527.958,332.37l4-.1a1.439,1.439,0,0,0,1.414-1.414,1.44,1.44,0,0,0-1.414-1.414q-2.02-.13-4.045-.077l1.363,1.038-1.3-5.542a1.432,1.432,0,0,0-1.739-.987,1.452,1.452,0,0,0-.988,1.74,56.236,56.236,0,0,0,1.058,5.553l1.363-1.79c-1.188.041-2.372.122-3.553.255a1.457,1.457,0,0,0-1.413,1.414,1.429,1.429,0,0,0,1.413,1.414l3.6-.087-1.363-1.038c.375,1.513.8,3.011,1.3,4.49a1.447,1.447,0,0,0,1.739.987,1.438,1.438,0,0,0,.988-1.739l-1.057-4.5a1.432,1.432,0,0,0-1.739-.987,1.438,1.438,0,0,0-.987,1.739l1.056,4.5,2.727-.752c-.5-1.478-.924-2.977-1.3-4.49a1.432,1.432,0,0,0-1.364-1.038l-3.6.087v2.828c1.181-.133,2.365-.214,3.553-.255a1.433,1.433,0,0,0,1.364-1.79,56.416,56.416,0,0,1-1.057-5.553l-2.727.752,1.3,5.541A1.428,1.428,0,0,0-3528,332.2q2.024-.05,4.045.077v-2.827l-4,.1a1.439,1.439,0,0,0-1.414,1.414A1.429,1.429,0,0,0-3527.958,332.37Z" transform="translate(3533.212 -323.83)"/></g><g transform="translate(93.463 137.786)"><path class="b" d="M-3484.855,327.752l1.648,8.267a1.423,1.423,0,0,0,1.739.987,1.449,1.449,0,0,0,.987-1.74l-1.648-8.267a1.422,1.422,0,0,0-1.739-.987,1.449,1.449,0,0,0-.988,1.739Z" transform="translate(3484.89 -325.958)"/></g><g transform="translate(90.965 141.954)"><path class="b" d="M-3488.992,334.187l-.022.036,1.22-.7-.047-.005,1,.414-.043-.034.415,1-.007-.051-.414,1,.049-.055-.624.364q-.39.026-.09.02h2.926l3.18,0a1.429,1.429,0,0,0,1.414-1.414,1.438,1.438,0,0,0-1.414-1.414l-4.261,0c-.678,0-1.378-.05-2.054,0a1.577,1.577,0,0,0-1.539,1.493,1.471,1.471,0,0,0,.442,1.068,1.686,1.686,0,0,0,1.068.436,1.392,1.392,0,0,0,1.221-.7l.021-.035a1.429,1.429,0,0,0-.507-1.935,1.442,1.442,0,0,0-1.934.507Z" transform="translate(3489.305 -333.328)"/></g><g transform="translate(113.299 138.822)"><path class="b" d="M-3443,334.3l3.512-.113a1.435,1.435,0,0,0,1.414-1.414,1.443,1.443,0,0,0-1.414-1.414c-1.182-.039-2.363-.04-3.545-.019l1.363,1.038-.865-3.546a1.427,1.427,0,0,0-1.739-.987,1.459,1.459,0,0,0-.988,1.739,34.933,34.933,0,0,0,.676,3.549l1.363-1.789c-1.729.039-3.456.135-5.178.3a1.445,1.445,0,0,0-1.414,1.414,1.435,1.435,0,0,0,1.414,1.414l5.215-.169-1.363-1.038c.271,1.068.587,2.123.958,3.161a1.442,1.442,0,0,0,1.739.987,1.442,1.442,0,0,0,.987-1.739l-.773-3.166a1.426,1.426,0,0,0-1.739-.987,1.443,1.443,0,0,0-.987,1.739l.773,3.166,2.726-.752q-.554-1.557-.957-3.161a1.432,1.432,0,0,0-1.364-1.038l-5.215.169v2.828c1.722-.169,3.449-.265,5.178-.3a1.432,1.432,0,0,0,1.364-1.79,34.965,34.965,0,0,1-.677-3.549l-2.726.752.866,3.546a1.431,1.431,0,0,0,1.363,1.038c1.182-.021,2.363-.02,3.545.019v-2.828l-3.512.113a1.435,1.435,0,0,0-1.414,1.414A1.434,1.434,0,0,0-3443,334.3Z" transform="translate(3449.813 -327.79)"/></g><g transform="translate(205.125 157.384)"><path class="b" d="M-3262.911,360.784c-9.085,4.689-15.064,13.449-18.535,22.842-4.133,11.181-4.484,23.18-4.7,34.966a183.964,183.964,0,0,1-1.269,22.425,1.462,1.462,0,0,0,.988,1.74,1.424,1.424,0,0,0,1.739-.987c1.847-13.068.87-26.295,2.085-39.408.93-10.04,3.526-20.194,9.328-28.581a32.651,32.651,0,0,1,11.79-10.555c1.618-.835.189-3.275-1.427-2.442Z" transform="translate(3287.435 -360.613)"/></g><path class="f" d="M-3269.844,360.912c.529-.247-35.488,11.463-33.467,34.322L-3293.2,416.5S-3294.772,372.572-3269.844,360.912Z" transform="translate(3499.494 -203.357)"/><path class="f" d="M-3462.991,518.059c-.1.077,8.535,12.957,22.931,15.962l33.626-3.767-2.137-17.36Z" transform="translate(3568.838 -269.394)"/><path class="g" d="M-3443.966,517.6l39.226-3.985-39.226-15.942Z" transform="translate(3560.571 -262.78)"/><path class="f" d="M-3320.574,366.117l1.062,8.655s8.344-1.107,27.222-17.311C-3292.29,357.46-3300.416,357.448-3320.574,366.117Z" transform="translate(3506.958 -201.859)"/><g transform="translate(0 0)"><g transform="translate(160.394 130.817)"><path class="h" d="M-3363.216,317.285a35.965,35.965,0,0,0,18.979,2.681c5.3-.7,10.366-2.571,15.616-3.554a63.154,63.154,0,0,1,16.966-.586c5.116.437,10.549,1.457,14.22,5.047a6.318,6.318,0,0,1,2.219,4.814c-.155,1.82-1.982,3.519-3.731,2.993,1.027-.439,1.933,1.223,1.275,2.126a2.858,2.858,0,0,1-3.073.682c.077,2.23-2.949,2.889-5.172,3.071-8.25.675-15.666,5.065-23.531,7.648-11.281,3.7-23.518,3.654-35.231,1.716" transform="translate(3365.726 -314.454)"/><path class="i" d="M-3364.558,317.38a37.523,37.523,0,0,0,15.06,3.127c5.334-.026,10.413-1.471,15.535-2.791a59.215,59.215,0,0,1,7.927-1.575,61.074,61.074,0,0,1,8.361-.361c4.677.1,9.629.376,14.035,2.094a11.969,11.969,0,0,1,5.8,4.318,3.666,3.666,0,0,1,.611,3.216,2.067,2.067,0,0,1-2.243,1.429v2.045c.368-.123.021,0,0-.035.03.051.1.117.109.176.025.24.1.223-.045.419-.363.5-1.373.325-1.862.2a1.072,1.072,0,0,0-1.342,1.022c0,1.3-1.822,1.652-2.815,1.841-1.937.368-3.906.437-5.84.874a77.607,77.607,0,0,0-12.278,4.319,75.686,75.686,0,0,1-12.662,4.2,66.372,66.372,0,0,1-13.6,1.442,90.79,90.79,0,0,1-15.4-1.265c-1.335-.219-1.909,1.824-.564,2.045,9.535,1.566,19.323,1.943,28.847.086a71.189,71.189,0,0,0,13.361-4.228,81.945,81.945,0,0,1,12.857-4.556,29.2,29.2,0,0,1,3.732-.607,17.01,17.01,0,0,0,2.9-.449c1.814-.493,3.577-1.627,3.575-3.7l-1.342,1.023c1.648.411,3.976.142,4.545-1.774.479-1.613-.973-3.672-2.748-3.079a1.069,1.069,0,0,0,0,2.045,4.253,4.253,0,0,0,5-3.442c.482-2.52-1.053-4.9-2.851-6.511-3.627-3.257-8.534-4.352-13.249-4.856a65.492,65.492,0,0,0-17.488.308c-5.626.92-11.006,3.024-16.669,3.737a35.054,35.054,0,0,1-18.19-2.568,1.1,1.1,0,0,0-1.451.381,1.067,1.067,0,0,0,.38,1.451Z" transform="translate(3366.533 -313.633)"/></g><g class="j" transform="translate(164.362 134.259)"><path class="k" d="M-3357.642,322.05c6.16.758,11.5.948,17.543-.467-1.908,8.1,1.625,17.68-.07,26.211-.1.48-10.14.987-16.473,1.586" transform="translate(3358.702 -320.53)"/><path class="i" d="M-3358.456,322.3a51.055,51.055,0,0,0,17.824-.505l-1.3-1.3c-1.512,6.6.174,13.352.351,20a31.085,31.085,0,0,1-.208,4.935,9.019,9.019,0,0,0-.168,1.042c-.006.572.162-.134.39-.344-.07.065.144-.072.163-.067a2.821,2.821,0,0,0-.686.15c-.64.105-1.6.193-2.454.27-1.19.108-2.382.2-3.573.291-3.113.238-6.228.45-9.336.742-1.347.126-1.36,2.248,0,2.121,5.172-.486,10.406-.6,15.553-1.324a2.832,2.832,0,0,0,1.654-.546c.459-.461.44-1.309.523-1.913q.184-1.334.246-2.681a76.77,76.77,0,0,0-.593-10.557c-.359-3.83-.684-7.77.183-11.556a1.074,1.074,0,0,0-1.3-1.3,49.48,49.48,0,0,1-17.261.429,1.066,1.066,0,0,0-1.061,1.06,1.087,1.087,0,0,0,1.061,1.06Z" transform="translate(3359.517 -319.721)"/></g><g transform="translate(113.052 232.411)"><path class="b" d="M-3448.467,504.737q15.795-2.154,31.637-3.936,15.889-1.789,31.818-3.209,8.941-.8,17.893-1.477a1.45,1.45,0,0,0,1.414-1.414,1.425,1.425,0,0,0-1.414-1.414q-16.014,1.218-32,2.807-16.051,1.6-32.062,3.571-9.029,1.113-18.041,2.345a1.422,1.422,0,0,0-.988,1.739,1.452,1.452,0,0,0,1.739.987Z" transform="translate(3450.249 -493.285)"/></g><g transform="translate(149.216 202.517)"><path class="b" d="M-3385.284,443.184q21.592,4.614,43.31,8.608,6.184,1.137,12.379,2.224a1.455,1.455,0,0,0,1.739-.987,1.427,1.427,0,0,0-.988-1.74q-21.747-3.815-43.379-8.252-6.16-1.264-12.31-2.578c-1.774-.379-2.533,2.346-.751,2.726Z" transform="translate(3386.3 -440.422)"/></g><path class="l" d="M-3360.086,567.02s-9.882,9.731-11.721,14.032,16.26,3.124,16.26,3.124Z" transform="translate(3529.276 -292.911)"/><path class="l" d="M-3344.7,596.375s-6.437,12.284-6.875,16.941,16.436-1.991,16.436-1.991Z" transform="translate(3520.433 -305.666)"/><path class="m" d="M-3319.587,618.186s-.6,13.855.984,18.256,14.029-8.793,14.029-8.793Z" transform="translate(3506.578 -315.143)"/><path class="l" d="M-3290.264,627.945s1.343,13.8,3.529,17.939,12.659-10.671,12.659-10.671Z" transform="translate(3493.789 -319.383)"/><path class="l" d="M-3258.165,635.552s1.344,13.8,3.529,17.94,12.66-10.671,12.66-10.671Z" transform="translate(3479.842 -322.688)"/><g transform="translate(167.222 183.591)"><path class="h" d="M-3352.574,421.822c-.467-7.983,12.586-19.329,29.462-8.615,7.74,4.914,11.6,17.962,8.149,26.457,8.781-1.572,15.535.291,22.993,5.185,1.983,1.3,4.775,4.587,4.745,7.729-.022,2.372-2.017,2.529-4.286,1.837,1.7.464,3.9,4.209,2.694,6.046-.968,1.471-4.86-.446-6.6-.154,2.176.7,3.884,5.041,1.769,5.914s-6.644-1.672-8.788-2.471c-10.592-3.944-19.989-3.662-31.206-2.275-2.166.267-4.393.632-6.5.075a7.8,7.8,0,0,1-5.284-4.907c-.973-2.82-.236-5.9.166-8.853s.311-6.34-1.83-8.418" transform="translate(3353.646 -407.771)"/><path class="i" d="M-3352.328,421.007c-.145-2.844,1.458-5.594,3.58-7.617a16.147,16.147,0,0,1,10.323-4.29,23.831,23.831,0,0,1,14.674,4.689c3.45,2.488,5.728,6.505,6.987,10.5,1.448,4.588,1.775,9.748-.036,14.284-.33.827.6,1.427,1.3,1.3a27.947,27.947,0,0,1,14.832,1.212,37.1,37.1,0,0,1,6.927,3.594,10.723,10.723,0,0,1,4.224,5.017c.27.706.833,2.376.122,2.987-.623.535-1.959.1-2.652-.1a1.061,1.061,0,0,0-.564,2.045,4.1,4.1,0,0,1,1.842,2.1,4.066,4.066,0,0,1,.416,1.465,1.741,1.741,0,0,1-.049.6c-.032.11-.25.39-.076.248a1.692,1.692,0,0,1-.962.094,11.9,11.9,0,0,1-1.6-.284,9.953,9.953,0,0,0-3.476-.377c-1.136.157-.867,1.736,0,2.045a3.576,3.576,0,0,1,1.889,3.658.429.429,0,0,1-.355.292,2.931,2.931,0,0,1-1.128.023,13.2,13.2,0,0,1-2.9-.884c-2.116-.84-4.141-1.81-6.317-2.5a50.079,50.079,0,0,0-8.465-1.909,72.4,72.4,0,0,0-17.274.023c-1.481.153-2.957.337-4.434.52a15.091,15.091,0,0,1-4.668.1,6.739,6.739,0,0,1-5.132-4.526c-.971-3.125.178-6.438.418-9.586.214-2.811-.208-5.828-2.275-7.91a1.061,1.061,0,0,0-1.5,1.5c1.868,1.881,1.864,4.789,1.571,7.253-.374,3.15-1.265,6.435-.181,9.55a8.943,8.943,0,0,0,5.625,5.53c3.09,1.009,6.539.133,9.672-.21a71.233,71.233,0,0,1,18.45-.075,50.052,50.052,0,0,1,9.238,2.332c2.162.769,4.185,1.9,6.391,2.555,2.119.627,5.133.69,5.429-2.155a5.744,5.744,0,0,0-3.49-5.617v2.045a6.789,6.789,0,0,1,1.593.213c.721.152,1.438.328,2.168.434,1.356.2,2.9.165,3.605-1.225a5.008,5.008,0,0,0-.432-4.442,5.628,5.628,0,0,0-3.031-2.917l-.564,2.045a6.144,6.144,0,0,0,3.616.208,2.931,2.931,0,0,0,1.97-2.541c.349-2.83-1.458-5.69-3.36-7.619a24.8,24.8,0,0,0-7.219-4.577,29.344,29.344,0,0,0-8.22-2.539,32.287,32.287,0,0,0-10.239.272l1.3,1.3a22.865,22.865,0,0,0,.457-13.932,24,24,0,0,0-7.081-12.214,26.044,26.044,0,0,0-7.514-4.318,23.821,23.821,0,0,0-8-1.7,18.8,18.8,0,0,0-12.341,4.043c-2.948,2.365-5.409,6.083-5.211,10,.068,1.358,2.189,1.366,2.121,0Z" transform="translate(3354.46 -406.956)"/></g><g transform="translate(72.88 54.69)"><path class="h" d="M-3428.953,221.154a60.874,60.874,0,0,0-2.342-9.917c-4.8-14.18-17.824-26.6-32.739-29.426a36.381,36.381,0,0,0-12.943-.6c-18.6,2.051-37.278,11.355-41.243,31.282a61,61,0,0,0-.947,9.128,204.382,204.382,0,0,0,8.9,69.517c5.729,18.527,13.04,37.183,29.641,48.664,14.051,9.717,30.116,13.395,40.668,26.829,13.68,17.415,7.9,44.767,21.878,61.946,7.869,9.675,20.383,14.021,32.228,17.921l33.734,11.105c2.208.727,4.519,1.464,6.816,1.108a7.726,7.726,0,0,0,5.863-9.705c-1.3-3.784-5.264-5.805-8.547-8.09-11.164-7.771-21.59-20.987-23.87-34.4s-5.352-28.391-8.364-41.655c-2.943-12.963-7.5-24.689-16.944-34.284a91.968,91.968,0,0,1-14.349-18.186,67.773,67.773,0,0,1-6.269-14.418c-6.889-20.729-6.927-43.458-9.661-65.135C-3427.937,228.953-3428.332,225.027-3428.953,221.154Z" transform="translate(3520.457 -179.832)"/><path class="i" d="M-3428.76,220.057a52.418,52.418,0,0,0-5.571-17.2,48.166,48.166,0,0,0-10.238-12.713c-8.116-7.158-18.924-11.6-29.853-11.09-10.083.472-20.572,3.284-29.112,8.757a36.589,36.589,0,0,0-16.5,23.383c-1.373,6.712-1.289,13.823-1.228,20.646a204.5,204.5,0,0,0,1.271,20.977,210.181,210.181,0,0,0,8.573,40.053c3.412,10.767,7.444,21.54,13.787,30.963a61.454,61.454,0,0,0,11.206,12.678,81.868,81.868,0,0,0,14.648,9.49c9.894,5.254,20.535,9.753,28.227,18.2,7.458,8.187,9.987,18.959,11.942,29.555,1.884,10.2,3.335,20.911,8.654,30.022,5.827,9.985,15.932,15.627,26.437,19.613,6.088,2.31,12.324,4.233,18.507,6.268l20.821,6.854c5.158,1.7,11.692,4.676,16.013-.283,3.422-3.927,2.718-9.162-.974-12.61a59,59,0,0,0-6.49-4.68,60.826,60.826,0,0,1-6.979-5.8,61.208,61.208,0,0,1-11.255-14.488,45.263,45.263,0,0,1-3.624-8.379,70.415,70.415,0,0,1-1.854-8.77q-1.8-10.171-3.9-20.288c-2.521-12.235-4.647-24.925-10.014-36.306a58.112,58.112,0,0,0-9.555-14.389c-3.913-4.293-7.974-8.327-11.371-13.067a70.114,70.114,0,0,1-9.24-17.207,125.879,125.879,0,0,1-5.262-19.618c-2.487-13.374-3.244-26.981-4.61-40.495-.677-6.7-1.407-13.43-2.456-20.082-.212-1.344-2.256-.774-2.045.564,4.127,26.18,3.068,53.455,11.82,78.754a71.6,71.6,0,0,0,8.246,16.676,94.738,94.738,0,0,0,10.32,12.744,65.527,65.527,0,0,1,10.638,13.874,75.33,75.33,0,0,1,6.267,15.942c1.7,6.119,2.946,12.382,4.26,18.594q2.043,9.662,3.861,19.369c1.117,6,1.8,12.122,4.135,17.811a57.482,57.482,0,0,0,8.973,14.688,65.193,65.193,0,0,0,12.578,11.7c3.824,2.706,10.352,5.881,8.352,11.66a6.54,6.54,0,0,1-5.273,4.467c-3.244.337-6.717-1.352-9.731-2.345l-20.556-6.767c-11.235-3.7-23.29-6.786-33.2-13.488a35.918,35.918,0,0,1-11.2-11.929,54.229,54.229,0,0,1-5.263-14.062c-2.476-10.113-3.307-20.633-6.728-30.51a43.385,43.385,0,0,0-7.015-13.079,50.879,50.879,0,0,0-12.4-10.809c-9.343-5.984-19.887-9.87-28.935-16.349-9.133-6.54-15.659-15.878-20.4-25.941a177.446,177.446,0,0,1-11.432-33.989,203.251,203.251,0,0,1-5.524-40.268,171.777,171.777,0,0,1,.308-20.329,36.179,36.179,0,0,1,4.864-15.97c5.022-8.279,13.547-13.686,22.583-16.689,10.079-3.351,21.028-4.5,31.221-.993s18.82,11.337,23.975,20.731a50.857,50.857,0,0,1,5.258,16.51C-3430.586,221.964-3428.542,221.394-3428.76,220.057Z" transform="translate(3521.286 -179.017)"/></g><path class="n" d="M-3341.051,454.385c-1.069,1.159-1.563,2.284-3.135,2.527-2.3.356-4.609-.379-6.815-1.108q-16.872-5.548-33.738-11.107c-11.842-3.9-24.356-8.245-32.223-17.921-13.979-17.18-8.2-44.528-21.879-61.946-10.552-13.431-26.619-17.112-40.671-26.828-16.6-11.48-23.91-30.136-29.638-48.662a204.337,204.337,0,0,1-8.9-69.518,60.948,60.948,0,0,1,.944-9.127c3.964-19.928,22.643-29.231,41.243-31.284a34.819,34.819,0,0,1,11.57.345c-17.683,2.635-34.773,11.977-38.545,30.939a60.955,60.955,0,0,0-.95,9.127,204.482,204.482,0,0,0,8.9,69.518c5.729,18.526,13.04,37.182,29.644,48.662,14.047,9.715,30.113,13.4,40.666,26.828,13.679,17.418,7.906,44.766,21.879,61.946,7.872,9.676,20.381,14.025,32.229,17.921C-3360.365,448.028-3351.157,451.06-3341.051,454.385Z" transform="translate(3592.85 -124.358)"/><path class="o" d="M-3422.671,278.724c-5.7-1.083-12.837.2-17.152,4.087-8.008,7.2-8.714,24.218-7.778,27.72a281.185,281.185,0,0,0,12.641,36.835,40.487,40.487,0,0,0,4.629,8.734c2.137,2.842,4.937,5.122,7.152,7.9,3.965,4.98,5.022,8.517,8.2,14.033,4.419,7.676,10.9,13.052,19.64,14.508s20.312.871,23.858-7.245a10.37,10.37,0,0,0,.951-5.712c-.477-2.988-2.7-5.345-4.74-7.576-4.935-5.394-9.458-11.273-12.435-17.95-4.909-11.016-13.459-59.741-23.375-66.607C-3411.081,287.453-3416.97,279.807-3422.671,278.724Z" transform="translate(3562.29 -167.489)"/><g transform="translate(107.396 194.032)"><path class="h" d="M-3458.369,440.027c.568-7.976,14.563-12.9,20.834-12.73a19.172,19.172,0,0,1,15.592,9.092c4.735,7.851,3.08,18.212-1.436,26.19a35.713,35.713,0,0,1,24.7,8.5c1.8,1.547,3.543,3.5,3.652,5.871s-2.36,4.829-4.521,3.849c1.624.68,1.5,3.259.165,4.412s-3.239,1.275-5,1.34c2.068.979.918,4.525-1.292,5.117s-4.453-.615-6.476-1.684a71.046,71.046,0,0,0-32.569-8.19c-2.182-.014-4.437.059-6.458-.766a7.8,7.8,0,0,1-4.606-5.549c-.6-2.921.529-5.878,1.309-8.757s1.127-6.247-.726-8.584" transform="translate(3459.433 -426.233)"/><path class="i" d="M-3458.126,439.213c.283-3.48,3.457-6.04,6.259-7.69a30.109,30.109,0,0,1,10.9-3.817,17.506,17.506,0,0,1,12.277,3.091,18.114,18.114,0,0,1,7.564,12.877,29.446,29.446,0,0,1-3.984,17.556,1.07,1.07,0,0,0,.916,1.6,34.792,34.792,0,0,1,15.031,2.691,34.989,34.989,0,0,1,6.834,3.849c1.906,1.375,4.133,3.047,5.073,5.278a3.352,3.352,0,0,1-.214,3.334,2.145,2.145,0,0,1-2.607.984c-1.1-.452-1.9,1.429-.817,1.938.956.448.778,1.793.2,2.5-1,1.225-3.066,1.217-4.5,1.272a1.069,1.069,0,0,0-.535,1.976c1.188.616.3,2.427-.6,2.987a3.954,3.954,0,0,1-3.186-.027,25.728,25.728,0,0,1-3.593-1.711,72.084,72.084,0,0,0-15.369-5.8,72.148,72.148,0,0,0-16.166-2.169c-2.531-.049-5.365.258-7.656-1.043a6.738,6.738,0,0,1-3.39-5.385c-.19-3.086,1.239-5.956,1.8-8.934.491-2.629.487-5.559-1.207-7.781a1.1,1.1,0,0,0-1.451-.381,1.067,1.067,0,0,0-.38,1.451c1.571,2.061,1.356,4.738.782,7.127-.7,2.927-1.941,5.834-1.629,8.9a8.956,8.956,0,0,0,3.709,6.378c2.369,1.714,5.352,1.758,8.157,1.769a70.3,70.3,0,0,1,17.489,2.265,71.157,71.157,0,0,1,8.47,2.787c2.718,1.087,5.268,2.46,7.894,3.737,2.428,1.181,5.851,2.146,7.87-.283,1.376-1.657,1.745-4.574-.472-5.723l-.535,1.976c2.3-.089,5.162-.345,6.476-2.546.993-1.663.828-4.275-1.106-5.182l-.817,1.938c2.561,1.048,5.255-1.271,5.754-3.728.591-2.912-1.4-5.554-3.433-7.395a36.242,36.242,0,0,0-15.814-8.214,36.542,36.542,0,0,0-10.06-.966l.915,1.6a32.313,32.313,0,0,0,4.405-16.952,20.684,20.684,0,0,0-7-15.047,19.753,19.753,0,0,0-14.156-4.821,31.6,31.6,0,0,0-11.863,3.631c-3.915,2.075-7.964,5.369-8.348,10.1-.111,1.36,2.01,1.353,2.12,0Z" transform="translate(3460.251 -425.419)"/></g><path class="n" d="M-3403.935,515.431c-1.945.787-4.4.006-6.26-.9-2.63-1.278-5.18-2.652-7.895-3.738a71.682,71.682,0,0,0-8.471-2.788,70.4,70.4,0,0,0-17.491-2.262c-2.8-.011-5.785-.057-8.155-1.771a8.952,8.952,0,0,1-3.709-6.379c-.311-3.07.927-5.977,1.629-8.9.577-2.393.792-5.067-.78-7.131a1.067,1.067,0,0,1,.379-1.448,1.1,1.1,0,0,1,1.453.379c.062.085.124.169.187.26.006.005.006.011.011.016.317.634.633,1.306.939,2,1.029,2.37,3.518.934,3.478,3.15-.1,5.666-3.529,10.264,7.906,10.892,11.214.616,19.388,4.007,35.327,16.841a5.953,5.953,0,0,1,.763.9C-3404.376,514.86-3404.145,515.148-3403.935,515.431Z" transform="translate(3565.785 -255.09)"/><g transform="translate(107.398 194.031)"><path class="i" d="M-3394.886,477.279a5.239,5.239,0,0,1-3.348,3.811,4.341,4.341,0,0,1-.48,3.162c-.95,1.589-2.7,2.166-4.473,2.392a4.6,4.6,0,0,1-1,3.9,3.973,3.973,0,0,1-1.606,1.181c-1.945.787-4.4.006-6.26-.9-2.63-1.278-5.18-2.652-7.895-3.738a71.675,71.675,0,0,0-8.471-2.788,70.4,70.4,0,0,0-17.491-2.262c-2.8-.011-5.785-.057-8.155-1.771a8.953,8.953,0,0,1-3.709-6.379c-.311-3.07.927-5.977,1.629-8.9.576-2.393.792-5.068-.78-7.131a1.067,1.067,0,0,1,.379-1.448,1.1,1.1,0,0,1,1.453.379c.062.085.124.169.187.26.006.005.006.011.011.016a7.038,7.038,0,0,1,.939,2,12.051,12.051,0,0,1,.068,5.5c-.554,2.975-1.985,5.848-1.793,8.936a6.734,6.734,0,0,0,3.387,5.384c2.29,1.3,5.124,1,7.657,1.041a72.241,72.241,0,0,1,16.168,2.171,72.166,72.166,0,0,1,15.365,5.8,25.143,25.143,0,0,0,3.6,1.713,5.507,5.507,0,0,0,2.262.34,2.2,2.2,0,0,0,.922-.311c.9-.56,1.787-2.369.6-2.986a1.071,1.071,0,0,1,.532-1.979c1.431-.057,3.495-.045,4.5-1.272.583-.707.764-2.053-.192-2.505-1.086-.509-.288-2.386.814-1.934a2.144,2.144,0,0,0,2.607-.985,3.351,3.351,0,0,0,.215-3.336c-.939-2.228-3.167-3.9-5.073-5.277a34.743,34.743,0,0,0-6.837-3.851,34.75,34.75,0,0,0-15.031-2.692,1.068,1.068,0,0,1-.911-1.595,29.459,29.459,0,0,0,3.981-17.553,18.1,18.1,0,0,0-7.567-12.877,17.478,17.478,0,0,0-12.271-3.093,30.2,30.2,0,0,0-10.9,3.817c-2.8,1.651-5.971,4.207-6.254,7.691-.113,1.352-2.234,1.357-2.121,0,.385-4.734,4.428-8.031,8.347-10.106a31.627,31.627,0,0,1,11.858-3.63,19.781,19.781,0,0,1,14.16,4.824,20.683,20.683,0,0,1,7,15.048,31.558,31.558,0,0,1-3.546,15.326,36.528,36.528,0,0,1,8.285,1,36.283,36.283,0,0,1,15.817,8.217C-3396.289,471.725-3394.3,474.366-3394.886,477.279Z" transform="translate(3460.247 -425.417)"/></g><g transform="translate(135.099 204.893)"><path class="i" d="M-3409.919,446.983a2.78,2.78,0,0,1,2.911.531,4.994,4.994,0,0,1,1.719,2.209,3.532,3.532,0,0,1-1.7,4.235c-1.205.642-.135,2.474,1.07,1.831a5.657,5.657,0,0,0,2.626-6.763c-1-2.685-4.229-5.325-7.191-4.088a1.1,1.1,0,0,0-.74,1.3,1.067,1.067,0,0,0,1.3.74Z" transform="translate(3411.263 -444.624)"/></g><g transform="translate(194.649 146.97)"><path class="i" d="M-3304.622,348.562a12.4,12.4,0,0,0,7.778-4.768,1.066,1.066,0,0,0-.38-1.451,1.087,1.087,0,0,0-1.451.38c.079-.1-.052.064-.077.094-.048.058-.1.115-.144.172q-.164.192-.336.377-.345.369-.723.705a9.181,9.181,0,0,1-1.551,1.124q-.434.257-.891.476l-.2.095c-.039.018-.231.1-.107.05-.155.065-.312.125-.471.182a11.226,11.226,0,0,1-2.007.519,1.068,1.068,0,0,0-.74,1.3,1.085,1.085,0,0,0,1.3.741Z" transform="translate(3305.959 -342.198)"/></g><g transform="translate(59.082 118.657)"><path class="h" d="M-3527.252,293.994a59.643,59.643,0,0,0-15.465,25.158c-1.5,4.849-2,10.991,1.952,14.172,2.273,1.829,5.453,2.1,8.339,1.665s5.646-1.483,8.516-2.012c8.32-1.532,17.876,2.233,21.33,9.956a33.21,33.21,0,0,0,1.961,4.416,4.707,4.707,0,0,0,3.922,2.437,3.391,3.391,0,0,0,2.589-4.909,2.091,2.091,0,0,0,2.561,2.022,3.4,3.4,0,0,0,2.341-2.757,10,10,0,0,0-.242-3.794c.244.815,1.481.918,2.114.348a3.332,3.332,0,0,0,.844-2.34,19.231,19.231,0,0,0-5.458-14.011,30.646,30.646,0,0,0-13.13-7.845" transform="translate(3544.876 -292.94)"/><path class="i" d="M-3528.811,292.434a60.689,60.689,0,0,0-13.245,18.993,41.513,41.513,0,0,0-3.39,10.546c-.461,3.146-.393,6.674,1.436,9.413,2.136,3.2,5.97,4.284,9.654,3.984,4.014-.326,7.745-2.108,11.756-2.416,6.135-.472,12.907,1.829,16.66,6.9a22.29,22.29,0,0,1,2.523,5.025c.8,1.963,1.922,3.9,3.963,4.768a4.109,4.109,0,0,0,4.951-1.2,4.4,4.4,0,0,0,.5-4.913,1.069,1.069,0,0,0-1.976.535c-.174,2.561,3,3.861,4.97,2.589,2.546-1.642,2.273-4.812,1.772-7.4l-2.045.564a2.3,2.3,0,0,0,2.776,1.408,3.117,3.117,0,0,0,2.144-2.648,16.292,16.292,0,0,0-.843-7.867,23.885,23.885,0,0,0-10.065-12.227,36.607,36.607,0,0,0-8.337-3.817c-1.3-.421-1.859,1.625-.564,2.045,8.2,2.659,16.164,8.416,17.653,17.454a14.751,14.751,0,0,1,.149,3.486c-.032.426-.086,1.118-.452,1.409-.147.118-.464.076-.417.194a1.061,1.061,0,0,0-2.045.564c.289,1.5.689,3.382-.412,4.656a1.4,1.4,0,0,1-1.374.559.927.927,0,0,1-.791-.968l-1.976.536a2.367,2.367,0,0,1-.775,2.968c-1.206.875-2.677-.055-3.5-1.015-1.192-1.394-1.631-3.326-2.368-4.969a16.325,16.325,0,0,0-2.388-3.764c-3.858-4.625-10.051-7.015-15.987-7.053-3.667-.023-7.061,1.152-10.589,1.978-3.21.751-7.216,1.089-9.823-1.365-2.148-2.021-2.483-5.13-2.243-7.92a33.45,33.45,0,0,1,2.654-9.488,58.655,58.655,0,0,1,13.538-20.042c.982-.952-.519-2.451-1.5-1.5Z" transform="translate(3545.686 -292.13)"/></g><g class="j" transform="translate(59.398 106.667)"><path class="k" d="M-3501.549,361.1c-2.176-14.569-8.044-26.5-13.72-40.09-1.167-2.794-9-15.272-9-15.272-6.646-1.921-15.265,4.137-18.935,10a45.824,45.824,0,0,1,15.878-36.676c8.039,1.467,30.3,11.12,65.938,5.7,20.977-3.189,23.563-12.007,23.563-12.007,3.713,10.894,3.27,12.533,3.867,24.027.315,6.069,22.45,17.48,15.151,60.29-.32,1.873-20.808-10.24-42.581-2.4-11.253,4.05-32.552,2.262-35.38,13.883Z" transform="translate(3544.314 -271.725)"/><path class="i" d="M-3501.339,360.025A102.292,102.292,0,0,0-3507.2,338.8c-1.309-3.419-2.727-6.795-4.161-10.162-1.32-3.1-2.539-6.269-3.971-9.315a107.548,107.548,0,0,0-5.913-10.191q-1.26-2.056-2.536-4.1a4.578,4.578,0,0,0-.552-.831,3.681,3.681,0,0,0-2.017-.58,10.967,10.967,0,0,0-2.061-.073,18.882,18.882,0,0,0-9.418,3.607,25.738,25.738,0,0,0-7.1,7.263l1.976.535a44.962,44.962,0,0,1,9.367-29.452,43.833,43.833,0,0,1,6.2-6.474l-1.032.273c4.055.748,8.008,2.133,12,3.146a137.27,137.27,0,0,0,20.6,3.635,134.836,134.836,0,0,0,28.8-.389c8.03-.953,16.645-2.336,23.519-6.916a18.467,18.467,0,0,0,4.364-3.894,7.806,7.806,0,0,0,1.491-2.524c.01-.036.026-.07.036-.105h-2.045a66.916,66.916,0,0,1,2.936,10.669,81.9,81.9,0,0,1,.724,9.547c.086,1.9-.078,3.849.764,5.6a16.6,16.6,0,0,0,1.731,2.669c.435.582.881,1.157,1.326,1.732l.329.425.05.065.2.253q.354.461.7.924c1.085,1.432,2.132,2.894,3.106,4.4a51.265,51.265,0,0,1,5.868,12.42,62.947,62.947,0,0,1,2.722,18.857,91.651,91.651,0,0,1-.871,12.507c-.156,1.145-.387,2.285-.524,3.432-.045.377-.1.2.041.064.046-.045.3-.3.3-.3.076-.055.275-.058.3-.09-.025.033-.239-.013-.275-.014.35.006,0-.005-.156-.039-.322-.069-.64-.161-.957-.253-2.22-.654-4.4-1.434-6.623-2.083a73.8,73.8,0,0,0-10.052-2.235,55.462,55.462,0,0,0-12.589-.475,48.48,48.48,0,0,0-6.732,1.03c-2.1.478-4.1,1.2-6.149,1.843-5.991,1.89-12.37,2.295-18.513,3.493-5.356,1.044-11.691,2.584-15.031,7.309a10.457,10.457,0,0,0-1.569,3.483l1.938-.253-4.785-7.453c-.735-1.145-2.571-.083-1.831,1.071l4.785,7.453a1.074,1.074,0,0,0,1.938-.253c1.342-5.358,7.127-7.433,12-8.631,6.22-1.529,12.648-1.965,18.882-3.428a42.681,42.681,0,0,0,4.248-1.258,44.484,44.484,0,0,1,6.945-1.79,49.626,49.626,0,0,1,12.961-.437c6.324.573,12.358,2.338,18.373,4.275,1.056.34,2.9,1.214,3.979.557.6-.362.615-1.013.717-1.639q.28-1.721.508-3.45c.289-2.171.514-4.35.662-6.536a72.391,72.391,0,0,0-1.461-21.132,53.8,53.8,0,0,0-5.509-14.277,75.392,75.392,0,0,0-6.219-9.062l-.325-.42-.037-.048-.177-.23q-.3-.384-.586-.771c-.352-.468-.7-.942-1.022-1.429a11.593,11.593,0,0,1-.748-1.263c-.047-.1-.09-.192-.135-.288-.072-.15.1.247.038.092-.019-.053-.043-.1-.061-.158-.063-.183-.117-.366-.163-.554s-.015-.269-.008.007c-.007-.278-.035-.559-.049-.836q-.086-1.708-.16-3.417c-.078-1.723-.147-3.447-.272-5.168a46.567,46.567,0,0,0-1.555-9.085c-.558-2.015-1.21-4-1.883-5.981a1.07,1.07,0,0,0-2.045,0c-.018.059-.043.115-.061.173-.075.231.148-.295.008-.022-.048.094-.091.191-.139.286a8.5,8.5,0,0,1-.446.76c-.1.157-.211.31-.321.463-.046.063-.267.344-.062.086-.069.088-.14.176-.211.262a19.534,19.534,0,0,1-6.7,4.979,51.888,51.888,0,0,1-15.575,4.382,138.83,138.83,0,0,1-20.1,1.5,129.734,129.734,0,0,1-29.6-3.422c-3.234-.754-6.435-1.633-9.634-2.523-1.164-.324-2.328-.65-3.5-.942-.471-.117-.943-.228-1.418-.326a1.791,1.791,0,0,0-1.262.02,9.359,9.359,0,0,0-1.711,1.5,47.1,47.1,0,0,0-14.686,31.649,44.127,44.127,0,0,0-.007,4.446,1.069,1.069,0,0,0,1.976.536A23.4,23.4,0,0,1-3535.22,308c2.917-1.718,6.476-2.968,9.859-2.028l-.634-.487c2.617,4.171,5.227,8.36,7.639,12.654a104.727,104.727,0,0,1,4.616,10.278c2.074,4.851,4.125,9.717,5.878,14.7a95.7,95.7,0,0,1,4.479,17.481,1.068,1.068,0,0,0,1.3.741A1.087,1.087,0,0,0-3501.339,360.025Z" transform="translate(3545.128 -270.928)"/></g><path class="p" d="M-3460.958,388.574a28.415,28.415,0,0,0-6.6,2.015s-20-24-25.675-37.593c-1.165-2.794,15.608-11.378,16.773-8.828,1.944,4.254,4.252,15.4,11.955,18.2,2.383.866,2.615,2.923,2.327,4.842-.455,3.034-7.805,11.043,5.437,10.384C-3452.8,377.4-3457.581,384.1-3460.958,388.574Z" transform="translate(3582.002 -195.881)"/><path class="p" d="M-3535.365,313.043c-3.191,1.655-1.772,1.039-6.056,5.1.441-11.513,4.66-23.372,15.189-32.3,1.583.288-1.492-.534,1.183.207C-3538.6,299.5-3535.365,313.043-3535.365,313.043Z" transform="translate(3602.915 -170.695)"/><g class="j" transform="translate(114.398 101.253)"><path class="i" d="M-3447.513,266.042c1.709,1.422,3.908,1.788,6.032,2.193a51.7,51.7,0,0,0,7.056.9,28.159,28.159,0,0,0,12.792-2.121,19.749,19.749,0,0,0,5.77-3.854c.984-.949-.516-2.448-1.5-1.5a20.7,20.7,0,0,1-12.979,5.323,37.565,37.565,0,0,1-8.282-.4c-1.353-.2-2.7-.459-4.034-.748a7.625,7.625,0,0,1-3.354-1.293c-1.042-.867-2.55.625-1.5,1.5Z" transform="translate(3447.869 -261.355)"/></g><g class="j" transform="translate(184.261 246.177)"><path class="i" d="M-3322.548,528.315a25.38,25.38,0,0,1,10.536-7.2,26.2,26.2,0,0,1,12.086-1.153,14.67,14.67,0,0,1,6.4,2.494c1.112.795,2.173-1.044,1.071-1.831-3.654-2.61-8.317-3.234-12.7-2.929a27.131,27.131,0,0,0-12.912,4.031,28.473,28.473,0,0,0-5.982,5.086c-.9,1.017.591,2.522,1.5,1.5Z" transform="translate(3324.328 -517.628)"/></g><g class="j" transform="translate(198.12 283.172)"><path class="i" d="M-3298.013,591.334a27.592,27.592,0,0,1,21.279-5.92,1.1,1.1,0,0,0,1.3-.74,1.068,1.068,0,0,0-.74-1.3,29.917,29.917,0,0,0-23.343,6.465,1.069,1.069,0,0,0,0,1.5,1.083,1.083,0,0,0,1.5,0Z" transform="translate(3299.821 -583.047)"/></g><g class="j" transform="translate(210.264 295.741)"><path class="i" d="M-3276.558,613.93a20.2,20.2,0,0,1,15.093-6.534,1.061,1.061,0,0,0,0-2.121,22.293,22.293,0,0,0-16.592,7.155c-.921,1,.575,2.509,1.5,1.5Z" transform="translate(3278.346 -605.273)"/></g><g class="j" transform="translate(226.524 305.297)"><path class="i" d="M-3247.631,629.409a19.242,19.242,0,0,1,1.157-1.961c.106-.156.215-.309.327-.461.049-.065.126-.164.032-.045.057-.073.115-.145.174-.217a10.235,10.235,0,0,1,.736-.805q.191-.188.393-.363c.055-.048.112-.1.169-.142l.1-.083c-.087.067-.1.077-.04.032a8.691,8.691,0,0,1,.846-.542c.154-.083.312-.157.47-.23-.224.1.041-.014.073-.026.083-.031.167-.06.25-.088a6.55,6.55,0,0,1,1.061-.245,1.063,1.063,0,0,0,.74-1.3,1.093,1.093,0,0,0-1.3-.741c-3.344.5-5.554,3.334-7.02,6.149a1.079,1.079,0,0,0,.38,1.451,1.077,1.077,0,0,0,1.451-.38Z" transform="translate(3249.594 -622.171)"/></g><g class="j" transform="translate(190.589 264.554)"><path class="i" d="M-3311.123,559.687c2.562-3.765,6.8-5.924,11.171-6.832a31.7,31.7,0,0,1,7.416-.566,15.439,15.439,0,0,1,7.009,1.6c1.2.654,2.27-1.177,1.071-1.831-3.7-2.019-8.209-2.131-12.316-1.784a23.93,23.93,0,0,0-11.6,3.777,17.385,17.385,0,0,0-4.58,4.563c-.77,1.131,1.067,2.193,1.831,1.07Z" transform="translate(3313.138 -550.124)"/></g><g transform="translate(59.266 140.32)"><path class="h" d="M-3543.3,341.619c-.055,1.79-2.364,10.643,11.022,10.317,2.918-.071,5.646-1.483,8.516-2.012,8.32-1.532,17.876,2.233,21.33,9.956a33.279,33.279,0,0,0,1.961,4.416,4.708,4.708,0,0,0,3.922,2.437,3.391,3.391,0,0,0,2.589-4.909,2.091,2.091,0,0,0,2.561,2.022,3.4,3.4,0,0,0,2.341-2.757,9.988,9.988,0,0,0-.242-3.794c.244.815,1.481.918,2.115.348a3.331,3.331,0,0,0,.844-2.34,19.227,19.227,0,0,0-5.458-14.011,30.647,30.647,0,0,0-13.13-7.845c-6.372-2.045-13.879-1.371-19.414,2.392" transform="translate(3544.546 -331.253)"/><path class="i" d="M-3545.176,340.8c-.029.8-.17,1.591-.183,2.394a9.407,9.407,0,0,0,.636,3.713c1.613,3.923,5.97,5.093,9.852,5.257a17.054,17.054,0,0,0,5.007-.481c1.707-.438,3.354-1.082,5.078-1.457a19.684,19.684,0,0,1,8.164.037c5.214,1.1,10.09,4.215,12.378,9.157.793,1.712,1.252,3.586,2.409,5.112a5.656,5.656,0,0,0,4.261,2.445c3.191.065,5.255-3.823,3.713-6.507a1.069,1.069,0,0,0-1.976.535c-.174,2.561,3,3.861,4.97,2.589,2.545-1.642,2.272-4.812,1.772-7.4l-2.045.564a2.43,2.43,0,0,0,4.249.4c1.137-1.534.91-3.979.682-5.765a21.051,21.051,0,0,0-5.117-11.066,28.473,28.473,0,0,0-9.937-7.108,28.978,28.978,0,0,0-11.685-2.783,22.737,22.737,0,0,0-12.748,3.671c-1.128.757-.067,2.595,1.07,1.832,5.741-3.853,13.067-4.214,19.487-1.988,6.539,2.267,12.731,6.48,15.553,13.016a16.767,16.767,0,0,1,1.359,5.453,9.549,9.549,0,0,1-.1,2.855c-.068.271-.184.7-.473.819-.155.066-.358-.059-.294.1a1.061,1.061,0,0,0-2.045.564c.289,1.5.689,3.382-.412,4.656a1.4,1.4,0,0,1-1.374.559.927.927,0,0,1-.791-.968l-1.976.536a2.289,2.289,0,0,1-.385,2.6,2.13,2.13,0,0,1-2.906.231,6.907,6.907,0,0,1-2.385-3.459,27.214,27.214,0,0,0-1.761-3.926,19.556,19.556,0,0,0-12.263-8.621,22.43,22.43,0,0,0-7.843-.526,24.443,24.443,0,0,0-4.42.966,24.773,24.773,0,0,1-4.693,1.2,15.307,15.307,0,0,1-7.26-.88,5.694,5.694,0,0,1-2.89-2.455q-.137-.244-.25-.5c.091.2-.071-.187-.094-.255a7.245,7.245,0,0,1-.257-.937c-.035-.168-.063-.337-.087-.507.037.26-.01-.126-.017-.216-.025-.291-.036-.584-.036-.876,0-.868.152-1.72.184-2.584.05-1.365-2.07-1.363-2.121,0Z" transform="translate(3545.36 -330.438)"/></g><path class="n" d="M-3499.021,369.06a33.971,33.971,0,0,1-1.962-4.417c-3.45-7.725-12.785-11.426-21.141-10.449-2.9.34-6.336,1.762-9,2.151-12.7,1.851-10.49-7.577-10.433-9.364l1.993-1.97c.475,3.314,2.7,7.8,11.592,7.574,3.071-.079,5.938-1.623,8.952-2.2,8.749-1.674,14.374.719,18,9.174C-3500.329,361.171-3498.156,370.417-3499.021,369.06Z" transform="translate(3603.054 -196.45)"/><g transform="translate(122.854 136.542)"><g transform="translate(8.143)"><path class="q" d="M-3396.349,331.817c1.863.774,4,1.034,5.962,1.717-2.467.251-5,.379-7.547.387a2.057,2.057,0,0,0-.678.076,1.807,1.807,0,0,0-.354.2,11.082,11.082,0,0,1-7.127,1.5l-.147.092c.8.383,2.057.066,2.725.6a.287.287,0,0,1,.138.232c-.014.123-.181.21-.34.218a1.242,1.242,0,0,1-.454-.09c.126.157.214.412-.006.49a.51.51,0,0,1-.211.012,4.143,4.143,0,0,1-.7-.122.812.812,0,0,1-.087.487c-.061.115-.214.244-.353.189a.285.285,0,0,1-.124-.12,1.739,1.739,0,0,0-1.052-.667,10.752,10.752,0,0,1-1.149-.2c-.355-.125-.623-.474-.4-.748a11.878,11.878,0,0,1-4.243,1.413,4.248,4.248,0,0,0,.486.2c.157.075.289.213.237.366-.071.205-.4.275-.653.3a.164.164,0,0,1,.165.276.8.8,0,0,1-.513.152.479.479,0,0,1,.243.3q-1.108.265-2.207.57a.6.6,0,0,1-.279.032.329.329,0,0,1-.174-.121,1.123,1.123,0,0,1-.24-.989l-.18-.036a3.244,3.244,0,0,1-2.745-2.117,4.593,4.593,0,0,1,.495-3.474,6.327,6.327,0,0,1,1.4-1.851,10.323,10.323,0,0,1,2.737-1.629c1.964-.866,4.063-1.505,6-2.34s3.758-1.93,4.556-3.371a6.96,6.96,0,0,1-2.508,3.881,14.373,14.373,0,0,1-2.2,1.119,47.748,47.748,0,0,0-4.552,2.35,4.607,4.607,0,0,0-1.436,1.126.4.4,0,0,0-.1.227c.011.3.6.238.976.1a26.462,26.462,0,0,1,6.46-1.671c1.618-.156,3.248-.054,4.865-.124a2.466,2.466,0,0,0,.716-.106c.465-.167.7-.593,1.205-.689.271-.051.569.005.842-.039.554-.092.958-.587,1.517-.451a2.555,2.555,0,0,0,.593.181c.331,0,.49-.327.822-.323.269,0,.448.214.676.33a2.08,2.08,0,0,0,1.1.1q2.075-.2,4.171-.264c.128.183-.121.336-.342.418a51.962,51.962,0,0,1-6.222,1.855" transform="translate(3418.515 -323.757)"/></g><g transform="translate(0 14.287)"><g transform="translate(0 9.07)"><path class="i" d="M-3432.874,366.191c.735,1.618,1.551,3.187,2.431,4.706.394.678.907,1.376,1.872,1.043a7.422,7.422,0,0,0,1.2-.715,6.611,6.611,0,0,1,1.255-.549.875.875,0,0,0,.552-.965.662.662,0,0,0-.914-.4,10.784,10.784,0,0,0-2.25,1.162c-.022.014-.147.106-.154.081,0,.014.113-.046.124-.025,0,0-.076-.093-.11-.145-.2-.291-.353-.612-.521-.922q-1.055-1.943-1.94-4a.7.7,0,0,0-.993-.317c-.4.184-.712.7-.554,1.042Z" transform="translate(3432.916 -365.06)"/></g><g transform="translate(13.423 2.329)"><path class="i" d="M-3404.123,354.669c.375-.179.665-.45.634-.821a.872.872,0,0,0-.887-.694,5.644,5.644,0,0,0-2.064.265,3.91,3.91,0,0,0-2.532,2.165,4.189,4.189,0,0,0,.282,3.24,3.673,3.673,0,0,0,2.225,1.724,5.1,5.1,0,0,0,3.881-.557.672.672,0,0,0,.21-.98.863.863,0,0,0-1.109-.113,2.626,2.626,0,0,1-3.882-1.162,2.438,2.438,0,0,1,.255-2.3,3.107,3.107,0,0,1,2.514-.878c-.129-.042-.259-.085-.389-.126l.082.039c-.082-.09-.165-.184-.248-.275l.021.051c-.013-.123-.026-.245-.039-.368-.007.018-.013.035-.02.053q.27-.283.544-.565l-.054.026c-.412.2-.677.564-.5.934a.864.864,0,0,0,1.081.341Z" transform="translate(3409.179 -353.14)"/></g><g transform="translate(19.948 1.051)"><path class="i" d="M-3392.252,351.054a4.46,4.46,0,0,0-4.587,1.393,3.556,3.556,0,0,0-.28,4.1c.852,1.308,2.836,1.7,4.466,1.314a3.868,3.868,0,0,0,2.987-2.934c.272-1.547-.927-3.026-2.738-3.567a.9.9,0,0,0-1.049.505c-.123.4.184.7.615.83-.1-.029.075.026.1.035.07.027.138.055.206.086.05.024.259.132.212.1a2.717,2.717,0,0,1,.563.463,1.786,1.786,0,0,1,.47,1.1,2.149,2.149,0,0,1-1.46,1.959,2.726,2.726,0,0,1-2.79-.431,2.227,2.227,0,0,1-.062-2.628,2.4,2.4,0,0,1,1.214-.957,2.543,2.543,0,0,1,1.7-.043.915.915,0,0,0,1.047-.493c.133-.392-.17-.706-.608-.84Z" transform="translate(3397.641 -350.881)"/></g><g transform="translate(28.906)"><path class="i" d="M-3376.148,349.507a5.418,5.418,0,0,0-4.442-.018,1.86,1.86,0,0,0-.873,2.766,2.672,2.672,0,0,0,1.794.991c.668.11,1.347.047,2.016.172a1.93,1.93,0,0,1,1.207.633.535.535,0,0,1,.1.225c.009.054.008.13.011.124a.759.759,0,0,1-.3.418,2.125,2.125,0,0,1-1.673.192,5.135,5.135,0,0,1-.926-.3.852.852,0,0,1-.469-.365.947.947,0,0,0-1.12-.318.624.624,0,0,0-.333.915,2.76,2.76,0,0,0,1.5,1.076,6.118,6.118,0,0,0,2.184.422c1.336-.011,2.762-.725,2.789-1.94.027-1.3-1.448-2.2-2.918-2.441a18.558,18.558,0,0,1-1.991-.18.577.577,0,0,1-.485-.691c-.009.049.071-.174.083-.192a.994.994,0,0,1,.251-.256,1.741,1.741,0,0,1,.654-.29,4.015,4.015,0,0,1,2.368.29.906.906,0,0,0,1.106-.323c.172-.358-.1-.72-.526-.911Z" transform="translate(3381.8 -349.022)"/></g><path class="i" d="M-3361.218,350.3q-3.491-.537-7-1.061c-.476-.071-.913.136-.956.509a.864.864,0,0,0,.785.819c.825.119,1.645.25,2.468.373.1,1.587.285,3.177.538,4.766a.96.96,0,0,0,.914.7c.437.014.768-.28.716-.65-.215-1.52-.365-3.041-.442-4.556,1.054.161,2.113.313,3.165.478a.606.606,0,0,0,.77-.6A1.078,1.078,0,0,0-3361.218,350.3Z" transform="translate(3405.22 -349.108)"/><g transform="translate(5.77 6.712)"><path class="i" d="M-3422.609,361.953a5.954,5.954,0,0,1,.665,1.287l.616,1.42,1.275,2.941a.711.711,0,0,0,.967.254.725.725,0,0,0,.254-.967l-1.275-2.941-.616-1.42a5.976,5.976,0,0,0-.665-1.287.729.729,0,0,0-.967-.253.712.712,0,0,0-.254.967Z" transform="translate(3422.713 -360.891)"/></g><g transform="translate(5.775 4.932)"><path class="i" d="M-3421.637,360.839a14.453,14.453,0,0,1,1.729-1.014c.127-.061.257-.117.385-.174.083-.037-.168.068-.021.009l.108-.044.2-.08c.353-.138.709-.266,1.066-.395a.722.722,0,0,0,.493-.87.716.716,0,0,0-.87-.494c-.686.248-1.375.5-2.036.808a14.2,14.2,0,0,0-1.769,1.033.72.72,0,0,0-.254.967.716.716,0,0,0,.967.253Z" transform="translate(3422.703 -357.743)"/></g><g transform="translate(7.596 7.761)"><path class="i" d="M-3418.277,365.646c.017-.022.108-.084.109-.1,0,.01-.179.132-.079.062l.046-.033.118-.081c.213-.142.434-.273.656-.4.66-.377,1.342-.719,2.031-1.039a.71.71,0,0,0,.253-.967.726.726,0,0,0-.967-.253c-.7.326-1.4.675-2.067,1.06-.222.127-.442.258-.654.4a1.907,1.907,0,0,0-.447.353.773.773,0,0,0-.207.5.719.719,0,0,0,.207.5.715.715,0,0,0,1,0Z" transform="translate(3419.484 -362.745)"/></g><g transform="translate(8.332 10.355)"><path class="i" d="M-3417.117,370.654c.979-.552,1.96-1.1,2.952-1.626.253-.134.507-.27.768-.389a.71.71,0,0,0,.253-.967.726.726,0,0,0-.967-.253c-.544.248-1.066.546-1.59.832q-.878.479-1.751.97l-.379.213a.714.714,0,0,0-.253.967.72.72,0,0,0,.967.254Z" transform="translate(3418.181 -367.333)"/></g><g transform="translate(44.48 0.953)"><path class="i" d="M-3352.864,356.686a18.82,18.82,0,0,0,.6-2.337c.039-.167.08-.333.13-.5.026-.087.054-.174.084-.26.012-.033.1-.255.055-.153a3.923,3.923,0,0,1,.248-.478,3.145,3.145,0,0,1,.333-.464,2.009,2.009,0,0,1,.381-.377c.031-.021.117.011.217.048.156.06-.047-.005-.022-.029a1.14,1.14,0,0,1,.114.1c.042.041.08.087.119.131.016.018.03.037.045.055.052.063-.076-.111,0,0a9.049,9.049,0,0,1,.937,1.843,12.136,12.136,0,0,1,.423,1.374,7.194,7.194,0,0,1,.212,1.308.724.724,0,0,0,.707.707.713.713,0,0,0,.707-.707,10.821,10.821,0,0,0-.644-2.944,9.254,9.254,0,0,0-1.137-2.316,2.6,2.6,0,0,0-.707-.723,1.694,1.694,0,0,0-1.683-.071,3.758,3.758,0,0,0-1.162,1.253,5.156,5.156,0,0,0-.558,1.227c-.307.966-.408,1.978-.762,2.932a.713.713,0,0,0,.494.87.722.722,0,0,0,.869-.494Z" transform="translate(3354.26 -350.707)"/></g><g transform="translate(45.057 4.37)"><path class="i" d="M-3352.533,358.331c.536-.066,1.075-.111,1.615-.14.432-.024.866-.037,1.3-.021.1,0,.2.009.294.017l.157.014c.117.011.047.046-.039-.006a.993.993,0,0,0,.234.044,1.67,1.67,0,0,1,.22.067.709.709,0,0,0,.87-.494.728.728,0,0,0-.494-.869,3.681,3.681,0,0,0-1.156-.183,13.4,13.4,0,0,0-1.34.015c-.554.029-1.109.075-1.66.143a.726.726,0,0,0-.707.707c.016.344.314.756.707.707Z" transform="translate(3353.241 -356.749)"/></g></g></g><path class="p" d="M-3377.311,321.947s7.322-6.353,14.938-3.534c0,0,3.643,4.942,5.574,7.506C-3356.8,325.919-3362.2,319.582-3377.311,321.947Z" transform="translate(3531.61 -184.58)"/><g transform="translate(153.867 131.978)"><path class="i" d="M-3362.534,315.881a34.057,34.057,0,0,0-7.452.023,15.6,15.6,0,0,0-7.781,3.349,1.069,1.069,0,0,0,0,1.5,1.084,1.084,0,0,0,1.5,0c3.926-3.189,8.959-3.132,13.734-2.751,1.361.108,1.354-2.013,0-2.121Z" transform="translate(3378.075 -315.686)"/></g><g transform="translate(67.108)"><path class="h" d="M-3517.033,172.158s-7.854,4.1-11.61-9.561,6.147-16.391,5.805-28.342-8.644-32.008,13.422-35.183c0,0,4.445-14.923,17.621-14.764s16.351,14.129,20,13.811,3.334-5.08,8.414-5.874,21.907,1.587,23.177,27.622c0,0-1.082,7.344,6.57,4.655,9.625-3.382,98.841-9.186,99.941-.331,3.568,28.725-3.608,29.081-11.809,29.309s-10.969,7.738-15.961,9.862c-1.774.754-51.727-19.266-79.65,7-11.757,11.059-38.345,10.941-50,6.051" transform="translate(3530.624 -83.176)"/><path class="i" d="M-3472.712,179.838c-7.622,0-14.8-1.19-19.707-3.248a1.131,1.131,0,0,1-.606-1.48,1.13,1.13,0,0,1,1.48-.606c5.823,2.443,15.415,3.57,24.438,2.87,10.611-.822,19.259-3.913,24.351-8.7,23.9-22.486,63.445-11.757,76.437-8.233,1.637.444,3.19.865,3.724.935a17.517,17.517,0,0,0,4.543-3.67c2.847-2.835,6.073-6.049,11.651-6.2,3.442-.1,6.694-.186,8.786-2.622,2.991-3.482,3.623-11.8,1.932-25.416-.016-.133-.2-.379-.668-.669-4.349-2.694-22.8-3.667-49.372-2.6-23.975.96-44.383,3.118-48.4,4.53-2.773.976-4.916.862-6.367-.335-2.014-1.661-1.787-4.763-1.712-5.429-.525-10.407-3.591-17.965-9.115-22.464a17.365,17.365,0,0,0-12.754-4c-2.26.353-3.211,1.615-4.218,2.95-.97,1.285-2.069,2.742-4.272,2.934-1.913.164-3.277-1.675-5.156-4.224-2.951-4-6.993-9.488-14.957-9.584h-.195c-12,0-16.157,13.385-16.329,13.958l-.207.692-.715.1c-16.627,2.393-14.932,14.463-13.293,26.135a74.344,74.344,0,0,1,.84,7.9c.158,5.523-1.732,9.138-3.56,12.635-2.2,4.21-4.279,8.186-2.284,15.44,1.3,4.732,3.288,7.8,5.746,8.869a5.382,5.382,0,0,0,4.25-.011,1.131,1.131,0,0,1,1.526.479,1.131,1.131,0,0,1-.48,1.526,7.6,7.6,0,0,1-6.2.08c-3.151-1.372-5.514-4.853-7.024-10.344-2.231-8.113.154-12.675,2.461-17.088,1.771-3.388,3.445-6.588,3.3-11.522a73.094,73.094,0,0,0-.819-7.646c-1.6-11.431-3.6-25.623,14.525-28.584,1.111-3.019,6.244-14.881,18.26-14.881h.221c9.088.11,13.7,6.365,16.75,10.5,1.09,1.478,2.442,3.313,3.11,3.313l.03,0c1.146-.1,1.7-.769,2.662-2.043a8.2,8.2,0,0,1,5.675-3.822,19.761,19.761,0,0,1,14.531,4.479c6.06,4.936,9.408,13.08,9.951,24.2l.005.111-.017.109c-.1.681-.122,2.642.9,3.481,1,.815,2.818.418,4.173-.057,8.488-2.983,88.205-8.848,99.716-1.716a3.253,3.253,0,0,1,1.721,2.313c1.825,14.685,1.065,23.065-2.46,27.169-2.745,3.2-6.657,3.3-10.439,3.409-4.681.13-7.445,2.884-10.118,5.545a18.221,18.221,0,0,1-5.432,4.228c-.625.266-1.338.087-5.023-.913-12.692-3.443-51.313-13.922-74.295,7.7C-3448.363,177.052-3461.054,179.838-3472.712,179.838Z" transform="translate(3531.493 -82.307)"/><g transform="translate(155.863 28.39)"><path class="h" d="M-3250.92,149.515c-.248-.011-8.049-11.243,2.733-14.718,0,0,13.018-2.7,10.871,8.438l4.989.262s-3.776-5.613.821-7.209,8.969,4.94,9.194,8.206" transform="translate(3255.009 -133.379)"/><path class="i" d="M-3251.787,149.777h-.054c-1.428-.067-3.592-5.045-3.943-7.685-.591-4.441,1.676-7.723,6.384-9.239l.117-.031c.286-.059,7.03-1.409,10.507,2.019,1.551,1.529,2.186,3.7,1.9,6.461l1.761.093a6.478,6.478,0,0,1-.442-4.4,4.209,4.209,0,0,1,2.816-2.641,6.08,6.08,0,0,1,5.478.886c2.911,1.925,5.046,5.851,5.215,8.311a1.132,1.132,0,0,1-1.051,1.206,1.125,1.125,0,0,1-1.206-1.051,10.49,10.49,0,0,0-4.206-6.579,3.853,3.853,0,0,0-3.488-.636,2.039,2.039,0,0,0-1.412,1.218c-.469,1.395.679,3.572,1.16,4.293l1.252,1.876-8.537-.446.246-1.276c.5-2.589.138-4.507-1.072-5.7-2.152-2.123-6.734-1.759-8.4-1.427-2.575.843-4.14,2.231-4.653,4.126-.958,3.554,1.824,7.971,2.363,8.633a1.132,1.132,0,0,1,.4.916A1.131,1.131,0,0,1-3251.787,149.777Zm.06-2.26h0Zm0,0h0Zm0,0h0Z" transform="translate(3255.877 -132.51)"/></g><g transform="translate(18.722 61.087)"><path class="h" d="M-3496.387,201.511s.638-7.874,7.448-4.894a29.26,29.26,0,0,1,5.5,3.094,15.972,15.972,0,0,0,9.937,3.072c26.26-.887,123.276-4.241,127.138-5.528,4.469-1.49,16.75-5.336,21.919-4.895l5.169.441" transform="translate(3497.518 -191.196)"/><path class="i" d="M-3474.888,203.055a17.226,17.226,0,0,1-10.082-3.3,28.246,28.246,0,0,0-5.292-2.972c-1.584-.693-2.858-.762-3.788-.206-1.781,1.064-2.076,4.124-2.08,4.155a1.135,1.135,0,0,1-1.218,1.036,1.13,1.13,0,0,1-1.036-1.219c.013-.172.374-4.241,3.172-5.913,1.6-.953,3.565-.927,5.856.074a30.547,30.547,0,0,1,5.715,3.216,14.919,14.919,0,0,0,9.233,2.856c59.222-2,123.637-4.487,126.821-5.471,3.84-1.28,16.812-5.419,22.37-4.948l5.169.441a1.131,1.131,0,0,1,1.031,1.223,1.131,1.131,0,0,1-1.223,1.031l-5.168-.441c-4.087-.348-13.762,2.273-21.465,4.841-3.863,1.288-90.422,4.335-127.458,5.586Q-3474.609,203.055-3474.888,203.055Z" transform="translate(3498.386 -190.328)"/></g><g transform="translate(159.963 31.712)"><g transform="translate(5.658 5.658)"><path class="h" d="M-3238.457,148.389h-.163" transform="translate(3238.62 -148.389)"/></g><path class="i" d="M-3242.8,138.387h-.164a4.266,4.266,0,0,0-2.179.487,4.233,4.233,0,0,0-1.82,1.169,4.235,4.235,0,0,0-1.169,1.82,4.259,4.259,0,0,0-.487,2.178l.2,1.5a5.65,5.65,0,0,0,1.455,2.5l1.144.884a5.626,5.626,0,0,0,2.855.772h.164a4.26,4.26,0,0,0,2.179-.487,4.235,4.235,0,0,0,1.82-1.169,4.247,4.247,0,0,0,1.17-1.82,4.259,4.259,0,0,0,.486-2.179l-.2-1.5a5.655,5.655,0,0,0-1.455-2.5l-1.145-.884a5.629,5.629,0,0,0-2.854-.772Z" transform="translate(3248.626 -138.383)"/></g><g transform="translate(179.978 34.05)"><g transform="translate(2.829 2.829)"><path class="h" d="M-3208.231,147.6v-.082" transform="translate(3208.231 -147.521)"/></g><path class="i" d="M-3207.577,145.429v-.082a2.13,2.13,0,0,0-.243-1.089,2.12,2.12,0,0,0-.585-.91,2.113,2.113,0,0,0-.91-.585,2.131,2.131,0,0,0-1.09-.244l-.751.1a2.821,2.821,0,0,0-1.248.727l-.442.572a2.821,2.821,0,0,0-.386,1.427v.082a2.13,2.13,0,0,0,.244,1.089,2.112,2.112,0,0,0,.584.91,2.114,2.114,0,0,0,.91.585,2.129,2.129,0,0,0,1.089.244l.752-.1a2.82,2.82,0,0,0,1.247-.727l.442-.572a2.814,2.814,0,0,0,.386-1.427Z" transform="translate(3213.234 -142.518)"/></g><g class="j" transform="translate(46.61 68.035)"><g transform="translate(1.049 1.055)"><path class="k" d="M-3446.68,207.394l4.928,9.409c.2.382.525.828.947.737.338-.073.5-.452.6-.781a44.572,44.572,0,0,0,1.886-9.352,2.9,2.9,0,0,0-.393-2.164,3,3,0,0,0-2.277-.734,12.049,12.049,0,0,0-3.509.221,4.072,4.072,0,0,0-2.722,2.064Z" transform="translate(3447.217 -204.481)"/></g><path class="i" d="M-3448.4,207.119l4.026,7.688c.524,1,1.029,2.613,2.257,2.939,1.47.39,2.023-1.123,2.35-2.218a46.224,46.224,0,0,0,1.621-8.078,5.192,5.192,0,0,0-.339-3.4,3.639,3.639,0,0,0-3.113-1.4c-2.671-.135-5.973.084-7.338,2.8a1.1,1.1,0,0,0,.167,1.285l.536.6c.911,1.02,2.407-.484,1.5-1.5l-.537-.6.166,1.285c.691-1.376,2.238-1.739,3.665-1.781a13.47,13.47,0,0,1,2.335.066c.715.106.963.407.961,1.123a26.584,26.584,0,0,1-.69,5.115q-.267,1.322-.613,2.625-.173.651-.365,1.3c-.092.309-.132.751-.392.956l.468-.273c.339-.132.379.373.177-.045-.1-.2-.216-.4-.321-.6l-.6-1.147-1.382-2.639-2.7-5.163C-3447.2,204.838-3449.035,205.91-3448.4,207.119Z" transform="translate(3449.072 -202.615)"/></g><g class="j" transform="translate(76.974 66.217)"><g transform="translate(1.039 1.062)"><path class="k" d="M-3393.542,202.517c1.217,2.852,4.427,12.711,6.058,12.145.934-.324,4.557-12.459,4.41-12.667a20.252,20.252,0,0,0-6.055-.657A43.567,43.567,0,0,0-3393.542,202.517Z" transform="translate(3393.542 -201.277)"/></g><path class="i" d="M-3395.255,202.236c-.1-.245.053.133.078.194.05.126.1.252.149.377.136.348.269.7.4,1.045.284.749.564,1.5.85,2.246.657,1.721,1.329,3.442,2.111,5.112a8.728,8.728,0,0,0,2.145,3.295,1.61,1.61,0,0,0,2.545-.616,21.736,21.736,0,0,0,1.385-3.359c.533-1.492,1.023-3,1.491-4.514.372-1.2.738-2.41,1.056-3.628.247-.947.47-1.95-.755-2.311a16.039,16.039,0,0,0-2.327-.422,19.258,19.258,0,0,0-3.111-.252,19.935,19.935,0,0,0-5.384,1.275c-1.294.416-.741,2.464.564,2.045q1.088-.35,2.192-.653c.553-.152,1.108-.3,1.668-.418a3.966,3.966,0,0,1,1.161-.131,18.857,18.857,0,0,1,2.882.255c.432.066.864.139,1.292.228.133.028.266.064.4.089.318.06.33.254-.157-.167l-.272-.468c-.079-.191.046-.656-.059-.182-.063.286-.141.569-.218.852-.223.825-.464,1.645-.711,2.463-.61,2.018-1.252,4.03-1.984,6.008q-.23.622-.479,1.237a.54.54,0,0,1-.042.1c-.035.081-.07.163-.107.244-.074.165-.151.33-.234.49-.048.092-.1.181-.151.273-.12.229-.087.108-.02.048-.109.1-.036-.012.124-.085-.055.024.333-.1.366-.1-.183.028.292.031.1.008.407.047.029.094.015-.023,0,.033.163.178.013-.006-.046-.058-.1-.112-.156-.166-.186-.2.009.045-.157-.206a14.534,14.534,0,0,1-.739-1.255c-.514-.983-.957-2-1.377-3.028-.945-2.307-1.742-4.672-2.715-6.966a1.067,1.067,0,0,0-1.451-.381A1.088,1.088,0,0,0-3395.255,202.236Z" transform="translate(3395.378 -199.4)"/></g><g class="j" transform="translate(159.736 60.727)"><g transform="translate(1.051 1.101)"><path class="k" d="M-3247.163,194.66a31.036,31.036,0,0,0,6.927,9.133l1.345-6.774c.29-1.459.528-3.143-.421-4.288-1.042-1.258-2.964-1.211-4.572-.926A5.62,5.62,0,0,0-3247.163,194.66Z" transform="translate(3247.169 -191.639)"/></g><path class="i" d="M-3248.887,194.349a32.338,32.338,0,0,0,7.093,9.348,1.071,1.071,0,0,0,1.772-.468l1.206-6.074c.328-1.652.751-3.447.047-5.061-1.306-2.994-5.847-2.95-8.117-1.189a8.53,8.53,0,0,0-1.587,1.617,1.9,1.9,0,0,0-.521,1.572c.315,1.327,2.361.765,2.045-.564a.762.762,0,0,1-.057.614c.022-.045.046-.089.072-.132.055-.076.1-.161.157-.239a5.722,5.722,0,0,1,.445-.52,4.62,4.62,0,0,1,1.517-1.164,5.06,5.06,0,0,1,1.849-.239,2.979,2.979,0,0,1,1.745.432c1.205.89.646,2.865.406,4.074l-1.253,6.307,1.772-.468a30.672,30.672,0,0,1-6.761-8.919C-3247.668,192.06-3249.5,193.132-3248.887,194.349Z" transform="translate(3249.028 -189.692)"/></g><g class="j" transform="translate(43.232 64.168)"><path class="i" d="M-3453.071,201.158a7.438,7.438,0,0,1,.65-1.182q.09-.134.187-.264c.1-.135,0-.01-.041.051.033-.048.073-.092.111-.137q.215-.26.452-.5t.473-.44c.082-.07.17-.133.25-.2-.231.2-.09.07-.027.024l.144-.1a7.454,7.454,0,0,1,1.174-.666,1.063,1.063,0,0,0,.488-.633,1.084,1.084,0,0,0-.107-.817,1.091,1.091,0,0,0-1.45-.381,8.393,8.393,0,0,0-4.134,4.184,1.159,1.159,0,0,0-.107.817,1.079,1.079,0,0,0,.487.633,1.072,1.072,0,0,0,1.451-.38Z" transform="translate(3455.044 -195.776)"/></g><g class="j" transform="translate(156.083 59.204)"><path class="i" d="M-3253.373,191.3c-.006-.033-.01-.065-.014-.1l.038.282a3.193,3.193,0,0,1,0-.83l-.038.282a3.51,3.51,0,0,1,.238-.848l-.106.253a3.559,3.559,0,0,1,.278-.52c.057-.088.278-.339.035-.064.065-.074.127-.15.195-.221s.139-.139.213-.2a.619.619,0,0,1,.113-.094l-.137.107.079-.057a3.122,3.122,0,0,1,.514-.284l-.253.107.045-.019a1.175,1.175,0,0,0,.634-.487,1.086,1.086,0,0,0,.107-.817,1.072,1.072,0,0,0-.487-.633,1.018,1.018,0,0,0-.817-.107,4.536,4.536,0,0,0-1.353.835,4.244,4.244,0,0,0-.847,1.078,4.28,4.28,0,0,0-.473,1.265,4.562,4.562,0,0,0-.011,1.635,1.065,1.065,0,0,0,.488.634,1.082,1.082,0,0,0,.817.107,1.07,1.07,0,0,0,.634-.487,1.209,1.209,0,0,0,.107-.817Z" transform="translate(3255.486 -186.999)"/></g><g transform="translate(2.023 2.303)"><path class="n" d="M-3505.381,102.167c-24.583,17.114-4.3,27.788-3.96,39.743s-11.633,10.671-7.879,24.328c1.154,4.19,7.739,6.934,9.317,8.415l-7.536-1.385s-8.318,2.271-11.61-9.563c-3.8-13.646,6.147-16.388,5.807-28.338s-8.646-32.008,13.42-35.186c0,0,4.105-13.392,16.11-13.8,0,0-7.181-.465-9.9,9.5C-3502.009,97.333-3505.381,102.167-3505.381,102.167Z" transform="translate(3527.915 -86.38)"/></g><g transform="translate(27.226 22.21)"><path class="n" d="M-3482,123.658s-3.53,10.491.824,9.059,2.311-.364,2.311-.364-.975,13.6,2.259,14.891,12.2-1.67,12.2-1.67l1.876-23.993Z" transform="translate(3483.348 -121.581)"/></g><g transform="translate(74.959 20.191)"><path class="n" d="M-3398.861,118.846s-.68,16.5,1.913,19.846,11.6,1.379,11.6,1.379l.5-22.059Z" transform="translate(3398.941 -118.012)"/></g><g transform="translate(89.052 44.593)"><path class="n" d="M-3373.663,161.162s-.8,3.616,0,5.365,4.27-5.365,4.27-5.365Z" transform="translate(3374.02 -161.162)"/></g><g transform="translate(3.638 14.417)"><g transform="translate(1.414 1.417)"><path class="k" d="M-3493.895,117.022l-28.664,2.851c9.326-.694,19.406-1.527,28.664-2.851-.083,1.254-.276,3.206-.415,4.542a1.172,1.172,0,0,0,1.285,1.28,18.006,18.006,0,0,1,3.024-.008,66.187,66.187,0,0,0,.539,13.095c.462,3.271,1.434,6.891,4.3,8.535,1.5.859,27.854-2.576,28.71-3.621,2.985-3.641,1.145-16.176.478-20.2-.085-.514-.141-1.141.273-1.458a1.422,1.422,0,0,1,.707-.219c1.112-.139,5.051-.278,6.163-.417l.562.648c-.56,6.1.54,19.253,6.869,20.051,3.76.474,6.879-1.6,10.781-3.589,1.925-.982,4.558-2.009,9.959-2.38,4.729-.325,2.652-11.264,1.785-18.027,4.557-.506,3.565-2.453,3.239-4.944C-3416.753,110.4-3469.95,114.9-3493.895,117.022Z" transform="translate(3522.559 -110.307)"/></g><path d="M-3494.981,114.519l-9.7.965-15.395,1.531-3.57.355a1.453,1.453,0,0,0-1.413,1.414,1.425,1.425,0,0,0,1.413,1.414c9.7-.723,19.405-1.529,29.04-2.9l-1.79-1.363c-.062.9-.144,1.8-.23,2.7a7.056,7.056,0,0,0-.07,2.735c.785,2.434,3.678,1.646,5.609,1.789l-1.414-1.414a60.828,60.828,0,0,0,.842,14.989,13.936,13.936,0,0,0,2.108,5.436,6.291,6.291,0,0,0,3.193,2.647,15.619,15.619,0,0,0,4.574-.042c2.438-.184,4.869-.447,7.3-.733,4.96-.585,9.953-1.2,14.848-2.2,1.37-.28,2.752-.465,3.571-1.714a9.416,9.416,0,0,0,1.248-3.633,29.4,29.4,0,0,0,.347-4.914,73.076,73.076,0,0,0-.808-9.668q-.127-.92-.271-1.837c-.035-.223-.075-.446-.107-.67a1.526,1.526,0,0,0-.039-.253c-.008-.024.007-.194-.012-.21q-.067-.12-.185.177-.373.277,0,.145c-.136-.047-.047.006.091-.005l.419-.035c.382-.029.764-.052,1.146-.074.825-.049,1.649-.09,2.473-.139.615-.036,1.233-.067,1.845-.139l-1-.414.562.648-.414-1a38.994,38.994,0,0,0,.883,12.311c.833,3.516,2.586,8.091,6.545,9.018,3.05.714,6.116-.456,8.807-1.8,1.359-.679,2.677-1.44,4.048-2.1.143-.068.288-.133.432-.2.032-.015.407-.174.123-.055.08-.033.16-.067.241-.1.444-.172.891-.332,1.346-.473a24.783,24.783,0,0,1,3.569-.8,35.532,35.532,0,0,0,3.932-.452,4.842,4.842,0,0,0,3.153-3.9,24.127,24.127,0,0,0,.146-7.481c-.248-2.635-.683-5.429-1-7.918l-1.414,1.414c1.843-.219,4.049-.655,4.763-2.629.478-1.324.021-2.767-.16-4.1a1.408,1.408,0,0,0-1.364-1.038c-1.994.174-3.99.339-5.985.508l-14.319,1.216q-9.449.8-18.9,1.611-9.958.852-19.914,1.71-8.659.747-17.317,1.508l-1.826.162a1.451,1.451,0,0,0-1.414,1.414,1.424,1.424,0,0,0,1.414,1.414q8.365-.741,16.731-1.461,9.937-.859,19.876-1.708,9.608-.823,19.215-1.639l15.03-1.277,4.832-.41c.793-.067,1.611-.083,2.4-.2.058-.009.118-.01.176-.015l-1.363-1.038c.069.508.167,1.011.241,1.518-.049-.336,0,.011.007.088.007.11.019.221.021.331s0,.211,0,.317c0,.269.113-.251-.014.07-.018.044-.141.352-.04.152.125-.249-.21.208-.021.026.155-.15-.109.1-.143.126-.074.064-.055.049.055-.045-.052.035-.106.068-.161.1a3.422,3.422,0,0,1-.647.247,7.846,7.846,0,0,1-1.17.228c-.681.081-1.521.586-1.414,1.414.367,2.841.811,5.617,1.053,8.475a33.977,33.977,0,0,1,.141,4.037,8.475,8.475,0,0,1-.522,3.108c-.136.364.134-.243-.043.089-.035.066-.067.132-.1.2-.053.094-.112.184-.17.274-.187.289.2-.2-.034.038-.071.071-.14.141-.213.21-.235.223.256-.137-.028.014-.057.031-.114.065-.17.1-.19.109.247-.059-.13.037-.072.019-.418.077-.041.027-.214.029-.434.032-.65.049q-.635.051-1.269.119c-.969.1-1.936.236-2.894.413a25,25,0,0,0-7.19,2.636c-2.762,1.455-6.205,3.607-9.409,2.592-.369-.117.247.131-.1-.036-.071-.035-.142-.069-.212-.106a5.187,5.187,0,0,1-.606-.38c.257.185-.063-.053-.094-.082-.093-.083-.185-.165-.273-.252a7.364,7.364,0,0,1-.516-.563c-.272-.327.151.221-.1-.131-.078-.11-.156-.22-.23-.333q-.19-.289-.361-.592a12.684,12.684,0,0,1-.7-1.457c-1.771-4.62-1.891-9.388-1.717-14.3a2.224,2.224,0,0,0-.757-1.659,1.8,1.8,0,0,0-1.706-.592c-1.323.11-2.652.158-3.978.238s-3.111-.023-3.835,1.337c-.6,1.13-.132,2.545.049,3.741.347,2.3.63,4.705.785,7.223a31.31,31.31,0,0,1-.249,7.689,10.706,10.706,0,0,1-.39,1.444c-.042.118-.085.235-.134.35.107-.253.021-.058,0-.008-.119.236-.25.457-.39.681-.154.246.056-.045.022-.023-.127.082.363-.267.227-.175a1.125,1.125,0,0,1-.115.062c.463-.244.07-.035-.166.037a32.922,32.922,0,0,1-3.867.814c-4.309.754-8.193,1.266-12.449,1.76a72.175,72.175,0,0,1-10.387.829c-.088,0-.5.029-.545-.035-.014-.018.467.116.147.013-.28-.09.162.092.168.083-.093.139-1.385-1.164-1.5-1.308a7.932,7.932,0,0,1-1.02-1.786,19.049,19.049,0,0,1-1.169-4.867c-.274-2.043-.441-4.1-.516-6.161-.078-2.1-.052-4.194.066-6.288a1.44,1.44,0,0,0-1.414-1.414,18.914,18.914,0,0,0-2.613-.022c-.113.007-.367,0-.394.06,0,.009.036.039.033.046s-.012.381.075.149a2.491,2.491,0,0,0,.043-.488c.141-1.38.279-2.761.374-4.145a1.434,1.434,0,0,0-1.789-1.363c-9.383,1.337-18.841,2.1-28.289,2.8V120.2l9.7-.965,15.395-1.531,3.569-.355a1.454,1.454,0,0,0,1.414-1.414A1.423,1.423,0,0,0-3494.981,114.519Z" transform="translate(3525.059 -107.802)"/><g transform="translate(38.396 25.033)"><g transform="translate(1.414 1.421)"><path class="k" d="M-3454.663,157.338l22.939-2.757" transform="translate(3454.663 -154.581)"/></g><path d="M-3455.749,157.66l22.939-2.757a1.458,1.458,0,0,0,1.414-1.414,1.423,1.423,0,0,0-1.414-1.414l-22.939,2.757a1.458,1.458,0,0,0-1.414,1.414,1.423,1.423,0,0,0,1.414,1.414Z" transform="translate(3457.163 -152.068)"/></g><g transform="translate(37.444 20.528)"><g transform="translate(1.414 1.421)"><path class="k" d="M-3456.346,149.449l23.593-2.835" transform="translate(3456.346 -146.614)"/></g><path d="M-3457.432,149.771l23.593-2.835a1.458,1.458,0,0,0,1.414-1.414,1.422,1.422,0,0,0-1.414-1.414l-23.593,2.835a1.458,1.458,0,0,0-1.414,1.414,1.422,1.422,0,0,0,1.414,1.414Z" transform="translate(3458.846 -144.101)"/></g><g transform="translate(37.93 15.989)"><g transform="translate(1.414 1.421)"><path class="k" d="M-3455.486,141.423l23.593-2.835" transform="translate(3455.486 -138.588)"/></g><path d="M-3456.572,141.745l23.593-2.835a1.458,1.458,0,0,0,1.414-1.414,1.422,1.422,0,0,0-1.414-1.414l-23.593,2.835a1.458,1.458,0,0,0-1.414,1.414,1.423,1.423,0,0,0,1.414,1.414Z" transform="translate(3457.986 -136.075)"/></g><g transform="translate(37.748 11.45)"><g transform="translate(1.414 1.421)"><path class="k" d="M-3455.809,133.4l23.593-2.835" transform="translate(3455.809 -130.562)"/></g><path d="M-3456.9,133.719l23.593-2.835a1.458,1.458,0,0,0,1.414-1.414,1.423,1.423,0,0,0-1.414-1.414l-23.593,2.835a1.458,1.458,0,0,0-1.414,1.414,1.422,1.422,0,0,0,1.414,1.414Z" transform="translate(3458.309 -128.049)"/></g><g transform="translate(80.127 21.972)"><g transform="translate(1.414 1.419)"><path class="k" d="M-3380.868,150.161l10.259-1" transform="translate(3380.868 -149.164)"/></g><path d="M-3381.954,150.485l10.259-1a1.453,1.453,0,0,0,1.414-1.414,1.423,1.423,0,0,0-1.414-1.414l-10.259,1a1.453,1.453,0,0,0-1.414,1.414,1.424,1.424,0,0,0,1.414,1.414Z" transform="translate(3383.368 -146.655)"/></g><g transform="translate(79.479 16.508)"><g transform="translate(1.414 1.419)"><path class="k" d="M-3382.014,141.506l20.618-2" transform="translate(3382.014 -139.502)"/></g><path d="M-3383.1,141.83l20.618-2a1.454,1.454,0,0,0,1.414-1.414,1.424,1.424,0,0,0-1.414-1.414l-20.618,2a1.452,1.452,0,0,0-1.414,1.414,1.424,1.424,0,0,0,1.414,1.414Z" transform="translate(3384.514 -136.993)"/></g><g transform="translate(79.113 11.99)"><g transform="translate(1.414 1.419)"><path class="k" d="M-3382.662,133.517l20.618-2" transform="translate(3382.662 -131.513)"/></g><path d="M-3383.748,133.84l20.618-2a1.454,1.454,0,0,0,1.414-1.414,1.424,1.424,0,0,0-1.414-1.414l-20.618,2a1.453,1.453,0,0,0-1.414,1.414,1.423,1.423,0,0,0,1.414,1.414Z" transform="translate(3385.162 -129.004)"/></g><g transform="translate(79.623 7.449)"><g transform="translate(1.414 1.419)"><path class="k" d="M-3381.759,125.486l20.618-2" transform="translate(3381.759 -123.482)"/></g><path d="M-3382.845,125.809l20.617-2a1.453,1.453,0,0,0,1.414-1.414,1.423,1.423,0,0,0-1.414-1.414l-20.617,2a1.453,1.453,0,0,0-1.414,1.414,1.424,1.424,0,0,0,1.414,1.414Z" transform="translate(3384.259 -120.973)"/></g></g><g transform="translate(89.81 38.961)"><path d="M-3364.49,151.379a15.723,15.723,0,0,0-8.152,10.445,1.446,1.446,0,0,0,.988,1.74,1.429,1.429,0,0,0,1.739-.987,12.884,12.884,0,0,1,6.853-8.756,1.428,1.428,0,0,0,.507-1.934,1.441,1.441,0,0,0-1.934-.507Z" transform="translate(3372.68 -151.203)"/></g></g><path class="f" d="M-3649.964,104.681l-.2.175C-3650.116,104.743-3650.054,104.681-3649.964,104.681Z" transform="translate(3650.162 -92.028)"/></g><g transform="translate(2.666 25.633)"><g transform="translate(0 0)"><path class="c" d="M-3536.375,372.255a4.627,4.627,0,0,0,4.116-4.35c.744-13.543,2.635-61.044-5.479-88.212-3.886-13.009-15.546-17.6-21.6-18.481-12.379-1.81-23.82,9.776-29.873,16.341-.769-32.785-8.728-144.929-31.014-147.378-6.209-.682-14.325,5.556-19.432,11.163a12.758,12.758,0,0,0-3.127,10.855l36.88,204.658a5.1,5.1,0,0,0,4.023,4.1c12.75,2.533,57.115,11.3,60.888,11.476A30.3,30.3,0,0,0-3536.375,372.255Z" transform="translate(3644.378 -128.716)"/><path class="b" d="M-3537.068,372.537a6.146,6.146,0,0,0,5.166-5.921c.1-1.513.156-3.03.223-4.544q.285-6.464.406-12.933c.221-11.605.086-23.23-.661-34.815-.75-11.632-1.962-23.449-5.111-34.707a28.03,28.03,0,0,0-8.941-14.421,29.952,29.952,0,0,0-12.055-6.042c-12.036-2.867-22.744,5.475-30.647,13.577-.878.9-1.739,1.818-2.592,2.742l2.414,1c-.176-7.383-.558-14.761-1.017-22.131q-.94-15.073-2.414-30.105c-1.086-11.052-2.392-22.085-4.038-33.067-1.524-10.175-3.322-20.331-5.793-30.322-1.918-7.754-4.162-15.636-7.851-22.759-2.167-4.184-5.47-9.387-10.516-10.3a14.3,14.3,0,0,0-8.392,1.525,37.55,37.55,0,0,0-9.251,6.379c-2.792,2.51-5.494,5.221-6.67,8.878a14.638,14.638,0,0,0-.4,6.962c.326,1.932.695,3.857,1.042,5.785l2.524,14.007,3.666,20.345,4.468,24.794,4.93,27.354,5.05,28.027,4.851,26.918,4.268,23.688,3.368,18.687,2.126,11.8.491,2.725a6.7,6.7,0,0,0,4.938,5.534c3.811.931,7.734,1.538,11.583,2.3q8.007,1.577,16.018,3.133c9.589,1.861,19.178,3.758,28.808,5.4a34.085,34.085,0,0,0,9.634.563c1.791-.187,1.811-3.016,0-2.828a26.676,26.676,0,0,1-4.778.16c-.144-.011-.287-.029-.43-.044-.09-.009-.178-.022-.268-.033-.2-.025.3.044-.067-.01-1.279-.186-2.553-.4-3.827-.619-4.249-.732-8.488-1.527-12.724-2.326q-15.883-3-31.736-6.147c-3.762-.741-7.561-1.387-11.3-2.235-2-.452-2.83-1.963-3.157-3.782l-1.436-7.969-2.8-15.527-3.814-21.167-4.537-25.178-4.918-27.292-4.951-27.472-4.7-26.078-4.083-22.659-3.176-17.625-1.922-10.668c-.129-.718-.262-1.435-.388-2.153a12.156,12.156,0,0,1-.184-2.369c.088-4.009,2.34-6.892,5.094-9.562a38.7,38.7,0,0,1,9.107-6.774,16.347,16.347,0,0,1,4.643-1.646,9.034,9.034,0,0,1,2.059-.115c.115.006.805.1.347.022.125.02.252.037.374.067.217.053.434.1.648.168.165.051.65.235.562.2-.13-.055.387.188.507.252q.341.182.666.392a5.764,5.764,0,0,1,1.06.8,15.2,15.2,0,0,1,1.224,1.2,29.926,29.926,0,0,1,4.408,6.9,76.929,76.929,0,0,1,3.975,10.113,212,212,0,0,1,6.533,27.092c1.949,10.551,3.452,21.183,4.714,31.837q1.868,15.763,3.076,31.6c.677,8.688,1.234,17.387,1.621,26.093.137,3.088.252,6.178.325,9.269a1.429,1.429,0,0,0,2.413,1,72.874,72.874,0,0,1,11.984-10.889c4.818-3.312,10.617-5.924,16.6-5.075a25.391,25.391,0,0,1,20.132,16.254,90.36,90.36,0,0,1,3.526,15.334c.928,5.7,1.545,11.458,2,17.219.88,11.26,1.121,22.568,1.016,33.859q-.064,6.807-.307,13.611-.095,2.668-.218,5.336a17.169,17.169,0,0,1-.347,4.47,3.383,3.383,0,0,1-2.919,2.221C-3539.614,370.073-3538.851,372.8-3537.068,372.537Z" transform="translate(3645.447 -127.635)"/></g><g transform="translate(2.805)"><path class="c" d="M-3531.171,367.905a4.61,4.61,0,0,1-1.346,3.014l-.792-1.244a3.6,3.6,0,0,1-2.2,1.188,25.594,25.594,0,0,1-4.558.136c-.141-.011-.289-.028-.43-.045-.085-.006-.169-.017-.249-.028h-.039l-.029-.006a.02.02,0,0,0-.017-.006c-1.278-.187-2.556-.4-3.829-.622-4.247-.729-8.488-1.527-12.724-2.324q-15.879-2.994-31.736-6.147c-.52-.1-1.04-.2-1.561-.3-3.246-.622-6.515-1.2-9.738-1.934-2-.452-2.833-1.962-3.161-3.783q-.543-3.028-1.086-6.051c-.119-.639-.232-1.278-.345-1.917q-1.4-7.762-2.8-15.529-1.909-10.578-3.817-21.167-2.265-12.588-4.535-25.176-2.46-13.648-4.92-27.291-2.477-13.733-4.948-27.472-2.35-13.038-4.7-26.076-2.044-11.333-4.083-22.66-1.586-8.813-3.178-17.627-.958-5.336-1.922-10.665-.2-1.077-.385-2.155a11.9,11.9,0,0,1-.186-2.369,11.67,11.67,0,0,1,3.054-7.386c-.17-.56-.328-1.1-.481-1.634,5.123-5.412,12.82-11.107,18.769-10.456,22.287,2.449,30.249,114.594,31.018,147.382,6.051-6.566,17.491-18.153,29.87-16.343,6.057.882,17.718,5.469,21.6,18.481C-3528.536,306.859-3530.431,354.361-3531.171,367.905Z" transform="translate(3640.487 -128.715)"/><g transform="translate(2.106)"><path class="b" d="M-3528.162,314.323c-.746-11.632-1.962-23.452-5.112-34.705a28.005,28.005,0,0,0-8.941-14.426,29.989,29.989,0,0,0-12.051-6.04c-12.04-2.867-22.745,5.474-30.65,13.578-.09.09-.181.187-.271.283-.2-6.232-.537-12.458-.922-18.673q-.942-15.074-2.415-30.1c-1.086-11.056-2.392-22.089-4.038-33.071-1.527-10.173-3.32-20.33-5.791-30.322-1.917-7.753-4.162-15.636-7.855-22.756-2.166-4.185-5.469-9.387-10.513-10.3a14.249,14.249,0,0,0-8.392,1.527,37.388,37.388,0,0,0-9.252,6.379c-.82.735-1.629,1.487-2.4,2.279.153.509.305,1.029.469,1.572s.311,1.074.481,1.634A27.141,27.141,0,0,1-3633.77,139a38.657,38.657,0,0,1,9.1-6.775,16.594,16.594,0,0,1,4.642-1.646,9.358,9.358,0,0,1,2.065-.113c.079.006.452.051.5.051.073.011.147.023.22.04.221.051.436.1.65.17.124.04.435.153.537.187.006,0,.006,0,.011.006.068.04.418.2.52.255.226.119.447.254.662.39a5.657,5.657,0,0,1,1.063.8,14.452,14.452,0,0,1,1.221,1.2,29.971,29.971,0,0,1,4.411,6.894,76.908,76.908,0,0,1,3.975,10.117,211.661,211.661,0,0,1,6.532,27.088c1.951,10.552,3.456,21.184,4.717,31.838q1.865,15.761,3.076,31.595c.673,8.692,1.233,17.389,1.617,26.092.135,3.093.254,6.181.328,9.274a1.426,1.426,0,0,0,2.409,1,72.738,72.738,0,0,1,11.989-10.886c4.813-3.314,10.615-5.927,16.592-5.078a25.387,25.387,0,0,1,20.132,16.258,89.94,89.94,0,0,1,3.529,15.331c.927,5.706,1.544,11.457,2,17.22.876,11.259,1.12,22.569,1.018,33.857q-.068,6.812-.311,13.612c-.062,1.781-.135,3.557-.215,5.338a17.3,17.3,0,0,1-.345,4.467,3.167,3.167,0,0,1-.565,1.007l.792,1.244.758,1.193a6.6,6.6,0,0,0,2.013-4.417c.1-1.51.152-3.031.22-4.547q.289-6.464.407-12.933C-3527.28,337.532-3527.416,325.911-3528.162,314.323Z" transform="translate(3636.762 -127.635)"/></g></g><path class="f" d="M-3589.675,355.438c-11.744-5-8.082-161.047-31.978-222.587-2.219.593-17.941,6.473-18.843,17.983a9.282,9.282,0,0,0,.186,2.369c.125.718.255,1.436.385,2.155q.966,5.327,1.922,10.665,1.587,8.813,3.178,17.627,2.036,11.324,4.083,22.66,2.35,13.038,4.7,26.076,2.477,13.733,4.948,27.472,2.46,13.648,4.92,27.291,2.264,12.588,4.535,25.176,1.909,10.586,3.818,21.167,1.4,7.762,2.8,15.529.713,3.987,1.431,7.968c.328,1.821,1.165,3.331,3.161,3.783,3.223.73,6.492,1.312,9.738,1.934.521.1,1.041.2,1.561.3q15.854,3.122,31.736,6.147c4.235.8,8.477,1.595,12.724,2.324,1.273.221,2.551.435,3.829.622a.02.02,0,0,1,.017.006l.028.006h.039c.079.011.164.023.249.028.141.017.289.034.43.045a25.6,25.6,0,0,0,4.558-.136,3.6,3.6,0,0,0,2.2-1.188S-3572.278,362.845-3589.675,355.438Z" transform="translate(3643.303 -129.901)"/></g><g transform="translate(211.378 140.616)"><path class="r" d="M-3237.2,331.3l.106,2.677a.341.341,0,0,1-.181.3l-8.972,5.37a.539.539,0,0,1-.251.072l-29.314,1.157a.411.411,0,0,1-.46-.329c-.041-.635-.12-2-.1-2.872h0c.213-.692,6.867-4.432,7.925-5.023a.721.721,0,0,1,.313-.088l30.472-1.6A.41.41,0,0,1-3237.2,331.3Z" transform="translate(3276.377 -330.964)"/><path class="s" d="M-3237.6,330.963l-30.544,1.609a.357.357,0,0,0-.153.042c-.715.4-6.857,3.828-7.87,4.87-.074.076-.007.183.113.179l29.339-1.158a.128.128,0,0,1,.144.105l.123,3.113.17-.007-.133-3.165a.107.107,0,0,1,.057-.094l8.843-5.3C-3237.4,331.095-3237.466,330.955-3237.6,330.963Z" transform="translate(3276.301 -330.962)"/><ellipse class="t" cx="0.681" cy="0.774" rx="0.681" ry="0.774" transform="matrix(0.999, -0.039, 0.039, 0.999, 34.451, 3.285)"/><path class="u" d="M-3215.827,335.634s2.017-.564,2.449.537c.524,1.335-1.006,2.01-1.5,2.146S-3217.345,337.456-3215.827,335.634Z" transform="translate(3250.313 -332.93)"/></g><path class="v" d="M-3269.046,330.69a7.955,7.955,0,0,0,2.2,2.223,14.047,14.047,0,0,0,8.434,2.3,6.262,6.262,0,0,0,3.646-1,2.756,2.756,0,0,0,.955-3.383" transform="translate(3484.57 -190.228)"/></g></g></svg>