<svg xmlns="http://www.w3.org/2000/svg" xmlns:xlink="http://www.w3.org/1999/xlink" width="267.537" height="400.612" viewBox="0 0 267.537 400.612"><defs><style>.a{fill:none;}.b{fill:#1c1a1b;}.c{fill:#ea4551;}.d{opacity:0.22;}.e{clip-path:url(#a);}.f{fill:#b63640;}.g{fill:#7a232a;}.h{fill:#1daa8c;}.i{fill:#030504;}.j{isolation:isolate;}.k{fill:#fff;}.l{fill:#002f56;}.m{fill:#004470;}.n{fill:#178c73;}.o{fill:#90cfc2;}.p{fill:#e6e7e8;}.q{fill:#0f7560;}.r{fill:#001c39;}.s{fill:#002c51;}</style><clipPath id="a"><path class="a" d="M-2977.417,155.516c2.934-4.373,13.131-19.017,26.91-13.763,13.635,5.2,23.183,97.709,27.11,139.877,18.946-13.76,68.373-27.247,76.116-20.589,6.088,5.235.6,26.858-1.538,34.576-5.875,21.2-15.272,38.51-18.138,59.364a11.568,11.568,0,0,1-10.166,9.974l-100.295,11.052-65.855-82.729L-3065.3,149.915Z" transform="translate(3065.297 -140.63)"/></clipPath></defs><g transform="translate(-527.675 -379.838)"><g transform="translate(3869.588 -12759.666)"><g transform="translate(-3301.675 13448.958)"><g transform="translate(0 0)"><path class="b" d="M-3022.284,525.184c-1.857,7.863-11.095,49.637-13.351,59.847a1.853,1.853,0,0,0,1.812,2.253h3.717a1.856,1.856,0,0,0,1.757-1.26l20.687-61.043a1.856,1.856,0,0,0-1.962-2.44l-11.06,1.23A1.85,1.85,0,0,0-3022.284,525.184Z" transform="translate(3035.679 -522.53)"/></g></g><g transform="translate(-3240.858 13454.04)"><g transform="translate(0 0)"><path class="b" d="M-2923.182,536.525l-5.076,79.084a1.855,1.855,0,0,0,1.851,1.974h3.48a1.855,1.855,0,0,0,1.84-1.617L-2910.4,533.6a1.856,1.856,0,0,0-2.469-1.984l-9.093,3.28A1.855,1.855,0,0,0-2923.182,536.525Z" transform="translate(2928.263 -531.507)"/></g></g><g transform="translate(-3201.828 13449.849)"><g transform="translate(0 0)"><path class="b" d="M-2859.266,529.309l8.9,33.651a1.854,1.854,0,0,0,1.793,1.38h0a1.855,1.855,0,0,0,1.845-2.053l-3.923-36.527a1.856,1.856,0,0,0-2.773-1.409l-4.98,2.876A1.855,1.855,0,0,0-2859.266,529.309Z" transform="translate(2859.328 -524.102)"/></g></g><g transform="translate(-3141.858 13441.725)"><g transform="translate(0 0)"><path class="b" d="M-2753.407,517.5l23.611,64.245h4.288l-19.734-71.987Z" transform="translate(2753.407 -509.755)"/></g></g><g transform="translate(-3319.829 13231.338)"><g transform="translate(1.385 1.397)"><path class="c" d="M-2977.417,155.516c2.934-4.373,13.131-19.017,26.91-13.763,13.635,5.2,23.183,97.709,27.11,139.877,18.946-13.76,68.373-27.247,76.116-20.589,6.088,5.235.6,26.858-1.538,34.576-6.255,22.576-16.5,40.733-18.609,63.458a5.969,5.969,0,0,1-5.281,5.393l-104.708,11.539-65.855-82.729L-3065.3,149.915Z" transform="translate(3065.297 -140.63)"/></g><g transform="translate(0 0)"><path class="b" d="M-2977.256,155.16c2.853-4.249,6.224-8.351,10.552-11.168a17.114,17.114,0,0,1,9-3.015,15.681,15.681,0,0,1,5.441.952c.13.045.261.092.388.146-.012-.005-.335-.156-.135-.054.091.046.184.087.272.139.209.123.41.253.607.4-.334-.243.258.232.381.35.209.2.406.413.6.631.09.1.176.209.262.315.108.131-.092-.133.106.136s.4.556.584.842a29.467,29.467,0,0,1,2.215,4.215,88.433,88.433,0,0,1,4.106,12.35,344.242,344.242,0,0,1,7.191,36.03c2.191,13.93,3.976,27.923,5.583,41.932q2.146,18.725,3.888,37.493.175,1.855.348,3.709c.089.955,1.176,1.912,2.13,1.222a82.847,82.847,0,0,1,14.114-7.911,170.59,170.59,0,0,1,17.832-6.9,185.429,185.429,0,0,1,18.367-5.054,89.974,89.974,0,0,1,15.383-2.241c1.006-.041,2.014-.054,3.021-.018.755.027,1.866.116,2.365.194a12.269,12.269,0,0,1,2.087.493,3.9,3.9,0,0,1,1.3.675c-.322-.237.1.094.183.183s.28.288.339.362a5.948,5.948,0,0,1,.774,1.346,12.349,12.349,0,0,1,.8,3.14,35.911,35.911,0,0,1-.048,8.387c-1.357,13.895-6.124,27.448-10.891,40.462-3.005,8.205-6.109,16.391-8.4,24.833a111.078,111.078,0,0,0-2.726,12.859c-.506,3.432-.019,8.521-4.418,9.37-2.993.577-6.762.758-9.972,1.111l-24.11,2.657-29.583,3.26-26.286,2.9-14.2,1.564-.663.073,1,.414-8.958-11.253-20.334-25.544L-3028.6,309.71l-13.667-17.17a11.892,11.892,0,0,0-1.005-1.263c-.26-.246.256.635.3.514.032-.084-.049-.282-.056-.37-.141-1.62-.5-3.251-.747-4.857l-3.516-22.885-5.127-33.375-5.483-35.687-4.586-29.852-2.4-15.6-.107-.7-1.365,1.791,8.725.557,20.958,1.336,25.368,1.617,21.953,1.4c3.547.226,7.171.7,10.727.684.05,0,.1.006.149.009,1.82.116,1.812-2.715,0-2.831l-8.724-.556-20.958-1.336-25.368-1.617-21.954-1.4c-3.547-.226-7.171-.7-10.727-.684-.049,0-.1-.006-.149-.01a1.436,1.436,0,0,0-1.365,1.792l1.443,9.387,3.626,23.6,4.861,31.641,5.039,32.8,4.288,27.91,2.487,16.191a5.35,5.35,0,0,0,.676,2.493c.795,1.111,1.714,2.153,2.564,3.222l14.349,18.025,20.488,25.737,18.728,23.527,6.421,8.066c1.034,1.3,2.012,2.687,3.122,3.922.771.858,1.776.537,2.791.425l7.387-.814,27.163-2.993,33-3.636,26.906-2.965,7.164-.79c.457-.05.913-.1,1.37-.151a7.507,7.507,0,0,0,6.254-4.593c.858-2.105.751-4.656,1.081-6.888.362-2.455.82-4.9,1.357-7.32a146.405,146.405,0,0,1,4.011-14.253c3.13-9.459,6.88-18.7,9.992-28.163a167.652,167.652,0,0,0,5.511-20.769,82.4,82.4,0,0,0,1.417-10.543,27.2,27.2,0,0,0-.656-9.059,7.994,7.994,0,0,0-3.562-5.037,13.288,13.288,0,0,0-5.146-1.286c-5.21-.466-10.583.373-15.7,1.295a177.353,177.353,0,0,0-40.344,12.578,85.977,85.977,0,0,0-15.537,8.554l2.13,1.222q-1.736-18.63-3.786-37.227c-1.619-14.46-3.42-28.905-5.612-43.291a377.268,377.268,0,0,0-7.289-37.794,100.318,100.318,0,0,0-4.24-13.281c-1.182-2.855-2.551-5.97-4.846-8.126a9.889,9.889,0,0,0-4.9-2.278,17.729,17.729,0,0,0-10.423.91c-5.783,2.336-10.288,6.967-13.922,11.91-.565.77-1.109,1.556-1.642,2.349C-2980.719,155.248-2978.268,156.666-2977.256,155.16Z" transform="translate(3067.744 -138.162)"/></g></g><g class="d" transform="translate(-3318.443 13232.735)"><g class="e" transform="translate(0 0)"><g transform="translate(-129.656 172.645)"><path class="b" d="M-3161.106,668.229l5.292-26.979c-2.515-14.691-23.772-19.762-44.677-34.288-11.194-7.778-22.724-22.01-22.447-24.534,4.282-39.1-25.032-129.718-36.128-136.241-7-4.114-29.571,13.1-32.56,20.648-3.779,9.545-2.783,20.228-1.635,30.43,5.753,51.125,14.379,103.486,41.018,147.5,4.289,7.086,9.059,13.989,11.834,21.793,2.261,6.36,3.272,13.44,7.6,18.62,3.371,4.035,8.33,6.362,13.229,8.27a133.352,133.352,0,0,0,37.273,8.621c5.568.464,11.316.554,16.574-1.336s9.972-6.123,11.042-11.606Z" transform="translate(3294.298 -445.56)"/></g></g></g><g transform="translate(-3288.264 13269.913)"><g transform="translate(0 0)"><path class="b" d="M-3006.733,214.846l4.009-.1a1.441,1.441,0,0,0,1.415-1.415,1.442,1.442,0,0,0-1.415-1.415q-2.023-.13-4.05-.078l1.365,1.039-1.3-5.549a1.434,1.434,0,0,0-1.741-.989,1.453,1.453,0,0,0-.989,1.741,56.3,56.3,0,0,0,1.058,5.56l1.365-1.792c-1.19.041-2.376.122-3.558.255a1.458,1.458,0,0,0-1.416,1.415,1.431,1.431,0,0,0,1.416,1.415l3.6-.087-1.365-1.039c.376,1.515.8,3.015,1.3,4.495a1.448,1.448,0,0,0,1.741.989,1.439,1.439,0,0,0,.988-1.742l-1.058-4.5a1.434,1.434,0,0,0-1.741-.989,1.44,1.44,0,0,0-.989,1.741l1.058,4.5,2.729-.753c-.5-1.479-.924-2.98-1.3-4.494a1.433,1.433,0,0,0-1.365-1.04l-3.6.087v2.831c1.182-.133,2.368-.215,3.558-.255a1.434,1.434,0,0,0,1.364-1.792,56.545,56.545,0,0,1-1.058-5.56l-2.729.752,1.3,5.549a1.431,1.431,0,0,0,1.365,1.039q2.026-.05,4.05.078v-2.831l-4.009.1a1.441,1.441,0,0,0-1.416,1.415A1.432,1.432,0,0,0-3006.733,214.846Z" transform="translate(3011.993 -206.295)"/></g></g><g transform="translate(-3260.904 13271.118)"><g transform="translate(0 0)"><path class="b" d="M-2963.635,210.219l1.651,8.277a1.424,1.424,0,0,0,1.741.989,1.452,1.452,0,0,0,.989-1.742l-1.651-8.276a1.424,1.424,0,0,0-1.741-.989,1.452,1.452,0,0,0-.989,1.741Z" transform="translate(2963.67 -208.423)"/></g></g><g transform="translate(-3263.404 13275.29)"><g transform="translate(0 0)"><path class="b" d="M-2967.773,216.653l-.021.035,1.222-.7-.048-.005,1,.414-.043-.034.415,1-.006-.051-.415,1,.049-.055-.625.364q-.391.026-.091.02h2.929l3.184,0a1.432,1.432,0,0,0,1.416-1.415,1.441,1.441,0,0,0-1.416-1.415l-4.267,0c-.679,0-1.38-.05-2.057,0a1.578,1.578,0,0,0-1.54,1.5,1.474,1.474,0,0,0,.442,1.068,1.69,1.69,0,0,0,1.071.437,1.393,1.393,0,0,0,1.222-.7l.022-.036a1.43,1.43,0,0,0-.508-1.936,1.444,1.444,0,0,0-1.937.508Z" transform="translate(2968.086 -215.793)"/></g></g><g transform="translate(-3241.045 13272.154)"><g transform="translate(0 0)"><path class="b" d="M-2921.771,216.774l3.516-.113a1.437,1.437,0,0,0,1.415-1.415,1.444,1.444,0,0,0-1.415-1.415c-1.183-.039-2.365-.04-3.549-.02l1.365,1.04-.866-3.55a1.429,1.429,0,0,0-1.742-.989,1.461,1.461,0,0,0-.989,1.741,35.048,35.048,0,0,0,.677,3.553l1.365-1.791c-1.731.039-3.46.135-5.184.3a1.447,1.447,0,0,0-1.416,1.415,1.437,1.437,0,0,0,1.416,1.415l5.222-.169-1.365-1.039c.271,1.07.588,2.125.959,3.164a1.445,1.445,0,0,0,1.742.989,1.445,1.445,0,0,0,.988-1.741l-.774-3.17a1.429,1.429,0,0,0-1.741-.989,1.446,1.446,0,0,0-.989,1.742l.774,3.17,2.73-.752c-.371-1.04-.687-2.095-.959-3.164a1.433,1.433,0,0,0-1.365-1.039l-5.222.169v2.831c1.724-.169,3.453-.266,5.184-.3a1.434,1.434,0,0,0,1.365-1.792,34.778,34.778,0,0,1-.677-3.553l-2.73.752.867,3.55a1.433,1.433,0,0,0,1.365,1.039c1.183-.02,2.365-.019,3.549.02V213.83l-3.516.113a1.436,1.436,0,0,0-1.416,1.415A1.436,1.436,0,0,0-2921.771,216.774Z" transform="translate(2928.594 -210.254)"/></g></g><g transform="translate(-3282.863 13293.465)"><g transform="translate(0 0)"><path class="b" d="M-2997.194,256.441l4.009-.1a1.442,1.442,0,0,0,1.416-1.415,1.441,1.441,0,0,0-1.416-1.415q-2.022-.13-4.05-.078l1.365,1.04-1.3-5.549a1.433,1.433,0,0,0-1.741-.989,1.452,1.452,0,0,0-.989,1.741,56.217,56.217,0,0,0,1.058,5.56l1.365-1.792c-1.19.041-2.376.123-3.559.256a1.458,1.458,0,0,0-1.415,1.415,1.432,1.432,0,0,0,1.415,1.415l3.6-.087-1.365-1.039c.376,1.515.8,3.015,1.3,4.495a1.448,1.448,0,0,0,1.741.989,1.439,1.439,0,0,0,.989-1.741l-1.058-4.5a1.434,1.434,0,0,0-1.741-.989,1.438,1.438,0,0,0-.989,1.741l1.058,4.5,2.73-.752c-.5-1.48-.925-2.98-1.3-4.495a1.432,1.432,0,0,0-1.365-1.039l-3.6.087v2.831c1.183-.133,2.368-.215,3.559-.256a1.434,1.434,0,0,0,1.364-1.791c-.442-1.836-.8-3.689-1.058-5.56l-2.729.752,1.3,5.549a1.431,1.431,0,0,0,1.365,1.039q2.026-.05,4.05.078v-2.831l-4.009.1a1.441,1.441,0,0,0-1.415,1.415A1.431,1.431,0,0,0-2997.194,256.441Z" transform="translate(3002.454 -247.891)"/></g></g><g transform="translate(-3255.504 13294.667)"><g transform="translate(0 0)"><path class="b" d="M-2954.1,251.814l1.65,8.276a1.424,1.424,0,0,0,1.741.989,1.452,1.452,0,0,0,.989-1.741l-1.651-8.276a1.424,1.424,0,0,0-1.741-.989,1.452,1.452,0,0,0-.989,1.742Z" transform="translate(2954.131 -250.018)"/></g></g><g transform="translate(-3258.004 13298.841)"><g transform="translate(0 0)"><path class="b" d="M-2958.234,258.248l-.021.036,1.222-.7-.048-.006,1,.415-.043-.035.415,1-.007-.051-.415,1,.049-.055-.625.364c-.26.017-.291.024-.09.02h1.337l1.592,0,3.184,0a1.432,1.432,0,0,0,1.416-1.415,1.441,1.441,0,0,0-1.416-1.415l-4.267,0c-.679,0-1.38-.05-2.057,0a1.579,1.579,0,0,0-1.541,1.5,1.476,1.476,0,0,0,.443,1.069,1.692,1.692,0,0,0,1.071.437,1.394,1.394,0,0,0,1.222-.7l.022-.035a1.43,1.43,0,0,0-.508-1.936,1.443,1.443,0,0,0-1.937.507Z" transform="translate(2958.548 -257.388)"/></g></g><g transform="translate(-3235.645 13295.705)"><g transform="translate(0 0)"><path class="b" d="M-2912.232,258.37l3.516-.114a1.436,1.436,0,0,0,1.416-1.415,1.445,1.445,0,0,0-1.416-1.415c-1.183-.039-2.365-.04-3.548-.019l1.365,1.039-.866-3.55a1.43,1.43,0,0,0-1.742-.989,1.462,1.462,0,0,0-.989,1.742,34.912,34.912,0,0,0,.677,3.553l1.365-1.792c-1.731.039-3.461.136-5.185.3a1.447,1.447,0,0,0-1.415,1.415,1.437,1.437,0,0,0,1.415,1.415l5.222-.169-1.365-1.039c.271,1.069.587,2.125.958,3.164a1.444,1.444,0,0,0,1.741.989,1.444,1.444,0,0,0,.989-1.741l-.774-3.17a1.43,1.43,0,0,0-1.741-.989,1.444,1.444,0,0,0-.989,1.741l.774,3.17,2.73-.752c-.371-1.039-.687-2.095-.959-3.164a1.434,1.434,0,0,0-1.365-1.04l-5.222.169v2.831c1.724-.169,3.453-.266,5.185-.3a1.433,1.433,0,0,0,1.365-1.792,34.813,34.813,0,0,1-.677-3.553l-2.73.753.867,3.55a1.433,1.433,0,0,0,1.365,1.039c1.183-.021,2.365-.02,3.548.019v-2.831l-3.516.114a1.436,1.436,0,0,0-1.416,1.415A1.437,1.437,0,0,0-2912.232,258.37Z" transform="translate(2919.055 -251.85)"/></g></g><g transform="translate(-3278.936 13314.961)"><g transform="translate(0 0)"><path class="b" d="M-2990.258,294.41l4.009-.1a1.44,1.44,0,0,0,1.415-1.415,1.442,1.442,0,0,0-1.415-1.415q-2.023-.13-4.051-.078l1.365,1.039-1.3-5.548a1.434,1.434,0,0,0-1.741-.989,1.454,1.454,0,0,0-.989,1.742,56.436,56.436,0,0,0,1.059,5.56l1.365-1.792c-1.189.041-2.375.122-3.557.256a1.458,1.458,0,0,0-1.416,1.415,1.432,1.432,0,0,0,1.416,1.415l3.6-.087-1.365-1.039c.376,1.515.8,3.015,1.3,4.495a1.449,1.449,0,0,0,1.742.989,1.44,1.44,0,0,0,.989-1.741l-1.058-4.5a1.434,1.434,0,0,0-1.741-.989,1.44,1.44,0,0,0-.989,1.742l1.058,4.5,2.73-.752c-.5-1.48-.925-2.98-1.3-4.495a1.434,1.434,0,0,0-1.365-1.04l-3.6.087V294.5c1.182-.134,2.368-.215,3.557-.256a1.434,1.434,0,0,0,1.365-1.791c-.443-1.836-.8-3.689-1.058-5.56l-2.73.752,1.3,5.549a1.43,1.43,0,0,0,1.364,1.039q2.028-.05,4.051.078v-2.831l-4.009.1a1.441,1.441,0,0,0-1.415,1.415A1.431,1.431,0,0,0-2990.258,294.41Z" transform="translate(2995.518 -285.86)"/></g></g><g transform="translate(-3251.577 13316.166)"><g transform="translate(0 0)"><path class="b" d="M-2947.161,289.784l1.65,8.276a1.424,1.424,0,0,0,1.741.989,1.451,1.451,0,0,0,.989-1.741l-1.65-8.277a1.424,1.424,0,0,0-1.741-.989,1.451,1.451,0,0,0-.989,1.742Z" transform="translate(2947.196 -287.988)"/></g></g><g transform="translate(-3254.077 13320.339)"><g transform="translate(0 0)"><path class="b" d="M-2951.3,296.218l-.021.036,1.222-.7-.048-.006,1,.414-.043-.034.415,1-.007-.051-.415,1,.049-.055-.625.364c-.26.017-.291.024-.091.02h2.929l3.183,0a1.431,1.431,0,0,0,1.416-1.415,1.44,1.44,0,0,0-1.416-1.415l-4.267,0c-.679,0-1.38-.05-2.056,0a1.578,1.578,0,0,0-1.54,1.5,1.475,1.475,0,0,0,.442,1.069,1.693,1.693,0,0,0,1.07.437,1.394,1.394,0,0,0,1.222-.7l.022-.035a1.431,1.431,0,0,0-.508-1.937,1.443,1.443,0,0,0-1.936.508Z" transform="translate(2951.612 -295.358)"/></g></g><g transform="translate(-3231.717 13317.204)"><g transform="translate(0 0)"><path class="b" d="M-2905.3,296.339l3.516-.113a1.436,1.436,0,0,0,1.416-1.415,1.444,1.444,0,0,0-1.416-1.415c-1.182-.039-2.365-.04-3.548-.019l1.365,1.039-.867-3.55a1.428,1.428,0,0,0-1.74-.988,1.461,1.461,0,0,0-.989,1.741,35.017,35.017,0,0,0,.677,3.553l1.365-1.791c-1.732.039-3.46.136-5.184.3a1.447,1.447,0,0,0-1.416,1.415,1.437,1.437,0,0,0,1.416,1.415l5.221-.169-1.364-1.039c.271,1.069.587,2.125.958,3.164a1.444,1.444,0,0,0,1.741.989,1.444,1.444,0,0,0,.989-1.741l-.774-3.17a1.428,1.428,0,0,0-1.741-.989,1.444,1.444,0,0,0-.988,1.741l.774,3.17,2.73-.752c-.37-1.039-.687-2.095-.958-3.164a1.434,1.434,0,0,0-1.365-1.039l-5.221.169v2.831c1.724-.169,3.453-.266,5.184-.3a1.434,1.434,0,0,0,1.365-1.792,35.083,35.083,0,0,1-.678-3.553l-2.729.753.866,3.55a1.433,1.433,0,0,0,1.365,1.039c1.183-.021,2.366-.02,3.548.019V293.4l-3.516.113a1.437,1.437,0,0,0-1.415,1.415A1.436,1.436,0,0,0-2905.3,296.339Z" transform="translate(2912.119 -289.82)"/></g></g><g transform="translate(-3275.699 13336.46)"><g transform="translate(0 0)"><path class="b" d="M-2984.541,332.38l4.009-.1a1.441,1.441,0,0,0,1.416-1.415,1.442,1.442,0,0,0-1.416-1.415q-2.023-.13-4.051-.078l1.365,1.039-1.3-5.549a1.434,1.434,0,0,0-1.741-.989,1.454,1.454,0,0,0-.989,1.742,56.441,56.441,0,0,0,1.059,5.56l1.364-1.792c-1.189.041-2.375.122-3.558.255a1.459,1.459,0,0,0-1.416,1.415,1.431,1.431,0,0,0,1.416,1.415l3.6-.087-1.365-1.039c.376,1.515.8,3.015,1.3,4.495a1.448,1.448,0,0,0,1.741.989,1.44,1.44,0,0,0,.989-1.741l-1.058-4.5a1.434,1.434,0,0,0-1.741-.989,1.439,1.439,0,0,0-.988,1.742l1.058,4.5,2.73-.752c-.5-1.48-.925-2.98-1.3-4.495a1.433,1.433,0,0,0-1.365-1.04l-3.6.087v2.831c1.183-.133,2.369-.214,3.558-.255a1.435,1.435,0,0,0,1.365-1.792,56.332,56.332,0,0,1-1.059-5.56l-2.73.753,1.3,5.548a1.431,1.431,0,0,0,1.365,1.04q2.027-.05,4.051.078v-2.831l-4.009.1a1.441,1.441,0,0,0-1.416,1.415A1.431,1.431,0,0,0-2984.541,332.38Z" transform="translate(2989.801 -323.83)"/></g></g><g transform="translate(-3248.339 13337.663)"><g transform="translate(0 0)"><path class="b" d="M-2941.442,327.754l1.65,8.277a1.424,1.424,0,0,0,1.741.989,1.451,1.451,0,0,0,.989-1.742l-1.651-8.276a1.424,1.424,0,0,0-1.741-.989,1.451,1.451,0,0,0-.989,1.741Z" transform="translate(2941.477 -325.958)"/></g></g><g transform="translate(-3250.84 13341.836)"><g transform="translate(0 0)"><path class="b" d="M-2945.58,334.188l-.021.036,1.222-.7-.048-.005,1,.414-.043-.034.415,1-.006-.051-.415,1,.049-.055-.624.364c-.261.018-.291.024-.091.02h2.929l3.184,0a1.431,1.431,0,0,0,1.416-1.415,1.44,1.44,0,0,0-1.416-1.415l-4.267,0c-.679,0-1.38-.05-2.056,0a1.578,1.578,0,0,0-1.541,1.5,1.475,1.475,0,0,0,.443,1.069,1.689,1.689,0,0,0,1.07.436,1.393,1.393,0,0,0,1.222-.7l.021-.035a1.431,1.431,0,0,0-.507-1.937,1.444,1.444,0,0,0-1.937.508Z" transform="translate(2945.894 -333.328)"/></g></g><g transform="translate(-3228.48 13338.701)"><g transform="translate(0 0)"><path class="b" d="M-2899.578,334.309l3.515-.113a1.436,1.436,0,0,0,1.415-1.415,1.443,1.443,0,0,0-1.415-1.415c-1.182-.039-2.365-.04-3.548-.019l1.365,1.039-.867-3.55a1.429,1.429,0,0,0-1.741-.989,1.461,1.461,0,0,0-.989,1.741,34.947,34.947,0,0,0,.677,3.553l1.365-1.791c-1.732.039-3.461.135-5.185.3a1.447,1.447,0,0,0-1.415,1.415,1.436,1.436,0,0,0,1.415,1.415l5.221-.169-1.364-1.04c.271,1.07.588,2.125.958,3.164a1.444,1.444,0,0,0,1.741.989,1.444,1.444,0,0,0,.989-1.741l-.774-3.17a1.428,1.428,0,0,0-1.741-.989,1.444,1.444,0,0,0-.989,1.741l.774,3.17,2.73-.752c-.371-1.039-.688-2.095-.959-3.164a1.432,1.432,0,0,0-1.365-1.039l-5.221.169v2.831c1.724-.169,3.453-.266,5.185-.3a1.434,1.434,0,0,0,1.365-1.792,35.115,35.115,0,0,1-.677-3.553l-2.73.752.867,3.55a1.434,1.434,0,0,0,1.365,1.039c1.183-.021,2.366-.02,3.548.019v-2.831l-3.515.113a1.437,1.437,0,0,0-1.416,1.415A1.436,1.436,0,0,0-2899.578,334.309Z" transform="translate(2906.401 -327.79)"/></g></g><g transform="translate(-3136.545 13357.284)"><g transform="translate(0 0)"><path class="b" d="M-2719.471,360.784c-9.1,4.694-15.082,13.465-18.557,22.869-4.137,11.194-4.489,23.208-4.7,35.007a184.155,184.155,0,0,1-1.27,22.452,1.463,1.463,0,0,0,.988,1.742,1.426,1.426,0,0,0,1.741-.989c1.85-13.084.871-26.326,2.087-39.455.931-10.052,3.531-20.218,9.339-28.615a32.69,32.69,0,0,1,11.8-10.567c1.619-.836.189-3.279-1.429-2.445Z" transform="translate(2744.023 -360.613)"/></g></g><g transform="translate(-3145.58 13357.451)"><g transform="translate(0 0)"><path class="f" d="M-2726.394,360.912c.53-.247-35.529,11.476-33.505,34.362l10.126,21.293S-2751.35,372.585-2726.394,360.912Z" transform="translate(2759.981 -360.908)"/></g></g><g transform="translate(-3235.942 13443.503)"><g transform="translate(0 0)"><path class="f" d="M-2919.579,518.065c-.1.077,8.545,12.972,22.958,15.981l33.665-3.771-2.139-17.381Z" transform="translate(2919.58 -512.894)"/></g></g><g transform="translate(-3225.169 13434.884)"><g transform="translate(0 0)"><path class="g" d="M-2900.554,517.622l39.272-3.99-39.272-15.961Z" transform="translate(2900.554 -497.671)"/></g></g><g transform="translate(-3155.307 13355.5)"><g transform="translate(0 0)"><path class="f" d="M-2777.162,366.127l1.063,8.665s8.354-1.109,27.255-17.332C-2748.844,357.46-2756.98,357.448-2777.162,366.127Z" transform="translate(2777.162 -357.46)"/></g></g><g transform="translate(-3181.329 13330.687)"><g transform="translate(1.051 1.07)"><path class="h" d="M-2819.8,317.287a36,36,0,0,0,19,2.684c5.3-.7,10.378-2.574,15.635-3.558a63.232,63.232,0,0,1,16.987-.587c5.122.438,10.561,1.459,14.237,5.053a6.328,6.328,0,0,1,2.222,4.82c-.154,1.823-1.984,3.523-3.736,3,1.028-.439,1.935,1.224,1.277,2.128a2.86,2.86,0,0,1-3.076.683c.077,2.232-2.952,2.892-5.178,3.074-8.26.675-15.686,5.071-23.559,7.658-11.294,3.709-23.546,3.659-35.272,1.718" transform="translate(2821.265 -315.523)"/></g><g transform="translate(0 0)"><path class="i" d="M-2821.143,317.384a37.561,37.561,0,0,0,15.078,3.131c5.34-.026,10.425-1.473,15.553-2.795a59.269,59.269,0,0,1,7.936-1.577,61.164,61.164,0,0,1,8.371-.362c4.683.1,9.64.377,14.051,2.1a11.979,11.979,0,0,1,5.808,4.323,3.669,3.669,0,0,1,.612,3.219,2.068,2.068,0,0,1-2.245,1.431V328.9c.368-.123.021,0,0-.035.03.052.1.117.11.177.026.241.1.223-.046.42-.363.5-1.374.325-1.863.2a1.074,1.074,0,0,0-1.344,1.024c0,1.3-1.823,1.654-2.819,1.843-1.939.368-3.911.438-5.847.875a77.692,77.692,0,0,0-12.292,4.324,75.809,75.809,0,0,1-12.677,4.207,66.454,66.454,0,0,1-13.613,1.444,90.9,90.9,0,0,1-15.418-1.267c-1.336-.22-1.911,1.826-.564,2.047,9.546,1.568,19.346,1.945,28.881.086a71.291,71.291,0,0,0,13.377-4.233,82.054,82.054,0,0,1,12.872-4.561,29.3,29.3,0,0,1,3.738-.607,17.052,17.052,0,0,0,2.908-.45c1.816-.493,3.58-1.629,3.58-3.708l-1.344,1.024c1.651.412,3.981.142,4.551-1.776.479-1.615-.975-3.677-2.751-3.083a1.071,1.071,0,0,0,0,2.047,4.258,4.258,0,0,0,5-3.446c.482-2.523-1.054-4.9-2.855-6.519-3.631-3.261-8.543-4.357-13.264-4.862a65.576,65.576,0,0,0-17.509.309c-5.632.921-11.018,3.028-16.689,3.742a35.1,35.1,0,0,1-18.212-2.571,1.1,1.1,0,0,0-1.452.381,1.068,1.068,0,0,0,.381,1.452Z" transform="translate(2823.121 -313.633)"/></g></g><g class="j" transform="translate(-3177.357 13334.132)"><g transform="translate(1.062 1.054)"><path class="k" d="M-2814.231,322.051c6.168.759,11.514.949,17.564-.468-1.91,8.112,1.626,17.7-.071,26.242-.1.481-10.151.989-16.491,1.588" transform="translate(2814.231 -321.583)"/></g><g transform="translate(0 0)"><path class="i" d="M-2815.044,322.3a51.123,51.123,0,0,0,17.847-.506l-1.306-1.306c-1.513,6.61.175,13.368.352,20.023a31.13,31.13,0,0,1-.208,4.94,8.987,8.987,0,0,0-.168,1.043c-.006.573.162-.134.39-.345-.07.065.144-.072.163-.067a2.819,2.819,0,0,0-.686.151c-.642.105-1.6.193-2.457.271-1.192.108-2.384.2-3.577.292-3.116.238-6.235.45-9.347.743-1.349.126-1.362,2.251,0,2.123,5.177-.486,10.419-.6,15.571-1.325a2.835,2.835,0,0,0,1.656-.546c.459-.462.44-1.31.523-1.915.122-.891.206-1.785.246-2.684a76.76,76.76,0,0,0-.594-10.569c-.36-3.834-.685-7.779.184-11.57a1.075,1.075,0,0,0-1.306-1.306,49.54,49.54,0,0,1-17.282.43,1.067,1.067,0,0,0-1.061,1.062,1.088,1.088,0,0,0,1.061,1.062Z" transform="translate(2816.106 -319.721)"/></g></g><g transform="translate(-3228.727 13432.401)"><g transform="translate(0 0)"><path class="b" d="M-2905.053,504.751q15.813-2.156,31.675-3.941,15.908-1.791,31.855-3.212,8.952-.8,17.914-1.478a1.451,1.451,0,0,0,1.416-1.415,1.427,1.427,0,0,0-1.416-1.415q-16.033,1.22-32.035,2.81-16.07,1.6-32.1,3.575-9.039,1.114-18.062,2.347a1.423,1.423,0,0,0-.989,1.741,1.453,1.453,0,0,0,1.741.989Z" transform="translate(2906.837 -493.285)"/></g></g><g transform="translate(-3192.52 13402.472)"><g transform="translate(0 0)"><path class="b" d="M-2841.87,443.188q21.617,4.619,43.361,8.618,6.192,1.139,12.393,2.226a1.457,1.457,0,0,0,1.741-.989,1.428,1.428,0,0,0-.989-1.741q-21.773-3.82-43.431-8.262-6.167-1.265-12.324-2.581c-1.777-.38-2.536,2.349-.753,2.73Z" transform="translate(2842.888 -440.422)"/></g></g><g class="j" transform="translate(-3184.956 13473.061)"><g transform="translate(0.567 1.088)"><path class="l" d="M-2816.66,567.02s-9.893,9.742-11.734,14.049,16.278,3.128,16.278,3.128Z" transform="translate(2828.526 -567.02)"/></g><g transform="translate(0 0)"><path class="i" d="M-2817.684,584.076c-.721,0-1.475-.01-2.239-.033-5.3-.162-8.337-.885-9.275-2.21a1.785,1.785,0,0,1-.152-1.82c1.864-4.359,11.451-13.829,11.858-14.23l.7-.684,4.969,18.785-.687.045C-2812.542,583.929-2814.835,584.076-2817.684,584.076Zm.293-16.793c-2.27,2.292-9.422,9.673-10.918,13.174a.661.661,0,0,0,.035.721c1.247,1.761,9.576,1.953,15,1.66Z" transform="translate(2829.527 -565.098)"/></g></g><g class="j" transform="translate(-3173.433 13489.642)"><g transform="translate(0.566 1.127)"><path class="l" d="M-2801.283,596.375s-6.445,12.3-6.883,16.962,16.456-1.994,16.456-1.994Z" transform="translate(2808.175 -596.375)"/></g><g transform="translate(0 0)"><path class="i" d="M-2806.017,614.694a4.081,4.081,0,0,1-2.446-.587,1.784,1.784,0,0,1-.7-1.687c.444-4.72,6.681-16.665,6.945-17.171l.453-.864,10.469,16.369-.64.252c-.033.014-3.381,1.328-7.02,2.373A27.672,27.672,0,0,1-2806.017,614.694Zm4.354-18.047c-1.461,2.876-6.017,12.089-6.374,15.88a.662.662,0,0,0,.254.676c1.727,1.3,9.717-1.063,14.789-3Z" transform="translate(2809.176 -594.385)"/></g></g><g class="j" transform="translate(-3155.382 13502.117)"><g transform="translate(0.569 0.999)"><path class="m" d="M-2776.176,618.186s-.6,13.871.985,18.278,14.045-8.8,14.045-8.8Z" transform="translate(2776.288 -618.186)"/></g><g transform="translate(0 0)"><path class="i" d="M-2774.361,637.162a2.181,2.181,0,0,1-.447-.044,1.785,1.785,0,0,1-1.352-1.229c-1.606-4.46-1.043-17.923-1.018-18.495l.043-.974,16.437,10.362-.471.5c-.025.026-2.5,2.64-5.344,5.133C-2770.153,635.6-2772.73,637.162-2774.361,637.162Zm-1.72-18.738c-.1,3.224-.3,13.5.987,17.082a.662.662,0,0,0,.517.5c2.125.443,8.341-5.1,12.108-9.006Z" transform="translate(2777.293 -616.421)"/></g></g><g class="j" transform="translate(-3138.805 13507.727)"><g transform="translate(0.658 0.916)"><path class="l" d="M-2746.853,627.945s1.346,13.819,3.534,17.96,12.674-10.683,12.674-10.683Z" transform="translate(2746.853 -627.945)"/></g><g transform="translate(0 0)"><path class="i" d="M-2742.684,646.5q-.065,0-.128,0a1.783,1.783,0,0,1-1.511-1.028c-2.215-4.191-3.542-17.6-3.6-18.17l-.094-.971,17.726,7.959-.4.562c-.021.029-2.1,2.963-4.572,5.83C-2738.631,644.593-2741.064,646.5-2742.684,646.5Zm-4.005-18.337c.352,3.207,1.589,13.409,3.367,16.776a.661.661,0,0,0,.583.426c2.144.122,7.545-6.213,10.728-10.612Z" transform="translate(2748.015 -626.327)"/></g></g><g class="j" transform="translate(-3120.631 13512.033)"><g transform="translate(0.658 0.916)"><path class="l" d="M-2714.754,635.552s1.346,13.82,3.534,17.961,12.675-10.683,12.675-10.683Z" transform="translate(2714.754 -635.552)"/></g><g transform="translate(0 0)"><path class="i" d="M-2710.585,654.107c-.044,0-.087,0-.129,0a1.784,1.784,0,0,1-1.511-1.027c-2.214-4.192-3.541-17.6-3.6-18.17l-.094-.971,17.726,7.959-.4.562c-.021.029-2.1,2.962-4.572,5.83C-2706.533,652.2-2708.965,654.107-2710.585,654.107Zm-4.007-18.337c.353,3.207,1.589,13.409,3.368,16.776a.661.661,0,0,0,.582.427c2.169.132,7.546-6.213,10.729-10.612Z" transform="translate(2715.916 -633.934)"/></g></g><g transform="translate(-3174.493 13383.523)"><g transform="translate(1.061 1.062)"><path class="h" d="M-2809.163,421.837c-.468-7.992,12.6-19.352,29.5-8.625,7.749,4.92,11.61,17.983,8.159,26.489,8.791-1.573,15.554.292,23.021,5.191,1.985,1.3,4.78,4.592,4.75,7.739-.022,2.375-2.019,2.532-4.291,1.839,1.7.465,3.908,4.214,2.7,6.054-.969,1.473-4.866-.447-6.6-.154,2.179.7,3.888,5.047,1.771,5.921s-6.651-1.674-8.8-2.474c-10.6-3.949-20.013-3.666-31.244-2.278-2.168.268-4.4.633-6.51.075a7.806,7.806,0,0,1-5.291-4.913c-.974-2.823-.236-5.9.166-8.863s.311-6.348-1.831-8.428" transform="translate(2809.176 -408.831)"/></g><g transform="translate(0 0)"><path class="i" d="M-2808.914,421.024c-.144-2.847,1.461-5.6,3.584-7.626A16.167,16.167,0,0,1-2795,409.1,23.858,23.858,0,0,1-2780.3,413.8c3.455,2.491,5.735,6.513,7,10.508,1.449,4.593,1.776,9.759-.035,14.3-.331.828.6,1.429,1.305,1.306a27.983,27.983,0,0,1,14.85,1.214,37.138,37.138,0,0,1,6.935,3.6,10.739,10.739,0,0,1,4.229,5.023c.27.707.834,2.379.122,2.991-.624.536-1.962.1-2.655-.1a1.062,1.062,0,0,0-.564,2.047,4.1,4.1,0,0,1,1.844,2.1,4.071,4.071,0,0,1,.416,1.467,1.74,1.74,0,0,1-.048.6c-.032.11-.251.391-.077.249a1.693,1.693,0,0,1-.963.095,11.908,11.908,0,0,1-1.6-.284,9.963,9.963,0,0,0-3.48-.378c-1.138.157-.868,1.738,0,2.047a3.58,3.58,0,0,1,1.892,3.662.429.429,0,0,1-.356.292,2.93,2.93,0,0,1-1.129.023,13.225,13.225,0,0,1-2.905-.885c-2.119-.841-4.145-1.812-6.325-2.508a50.165,50.165,0,0,0-8.476-1.911,72.489,72.489,0,0,0-17.295.023c-1.482.153-2.96.337-4.439.52a15.106,15.106,0,0,1-4.674.1,6.747,6.747,0,0,1-5.138-4.531c-.973-3.129.178-6.445.418-9.6.214-2.814-.208-5.835-2.277-7.919a1.062,1.062,0,0,0-1.5,1.5c1.87,1.884,1.866,4.8,1.573,7.262-.374,3.154-1.266,6.443-.181,9.562a8.955,8.955,0,0,0,5.633,5.536c3.093,1.011,6.546.134,9.683-.211a71.313,71.313,0,0,1,18.472-.075,50.1,50.1,0,0,1,9.249,2.334c2.166.77,4.19,1.9,6.4,2.558,2.122.628,5.139.691,5.436-2.157a5.75,5.75,0,0,0-3.494-5.623v2.047a6.788,6.788,0,0,1,1.594.213c.723.152,1.44.328,2.172.434,1.357.2,2.9.165,3.609-1.226a5.011,5.011,0,0,0-.433-4.447,5.634,5.634,0,0,0-3.034-2.921l-.564,2.047a6.149,6.149,0,0,0,3.619.208,2.935,2.935,0,0,0,1.973-2.544c.35-2.833-1.459-5.7-3.365-7.628a24.817,24.817,0,0,0-7.227-4.582,29.375,29.375,0,0,0-8.23-2.542,32.324,32.324,0,0,0-10.251.272l1.306,1.306a22.9,22.9,0,0,0,.458-13.948,24.03,24.03,0,0,0-7.09-12.229,26.075,26.075,0,0,0-7.524-4.323,23.85,23.85,0,0,0-8.012-1.7,18.827,18.827,0,0,0-12.356,4.048c-2.951,2.368-5.416,6.09-5.217,10.011.069,1.36,2.193,1.368,2.123,0Z" transform="translate(2811.049 -406.956)"/></g></g><g transform="translate(-3268.947 13254.469)"><g transform="translate(1.081 1.062)"><path class="h" d="M-2885.433,221.2a60.916,60.916,0,0,0-2.345-9.929c-4.8-14.2-17.845-26.63-32.777-29.461a36.423,36.423,0,0,0-12.958-.6c-18.625,2.054-37.322,11.368-41.292,31.319a60.981,60.981,0,0,0-.948,9.139,204.624,204.624,0,0,0,8.906,69.6c5.736,18.549,13.056,37.227,29.677,48.721,14.067,9.728,30.15,13.411,40.717,26.861,13.7,17.435,7.912,44.82,21.9,62.02,7.878,9.686,20.406,14.038,32.266,17.942l33.775,11.119c2.211.728,4.524,1.465,6.824,1.109a7.735,7.735,0,0,0,5.869-9.717c-1.3-3.788-5.271-5.812-8.557-8.1-11.177-7.78-21.615-21.011-23.9-34.437s-5.358-28.425-8.373-41.7c-2.947-12.978-7.514-24.719-16.964-34.325a92.054,92.054,0,0,1-14.367-18.207,67.906,67.906,0,0,1-6.277-14.435c-6.9-20.753-6.936-43.51-9.672-65.212C-2884.417,229.01-2884.812,225.079-2885.433,221.2Z" transform="translate(2975.965 -180.893)"/></g><g transform="translate(0 0)"><path class="i" d="M-2885.239,220.105a52.5,52.5,0,0,0-5.577-17.216,48.224,48.224,0,0,0-10.25-12.728c-8.126-7.166-18.946-11.616-29.888-11.1-10.095.473-20.6,3.288-29.146,8.768a36.63,36.63,0,0,0-16.518,23.41c-1.374,6.72-1.291,13.84-1.23,20.671a204.642,204.642,0,0,0,1.273,21,210.424,210.424,0,0,0,8.583,40.1c3.416,10.78,7.453,21.566,13.8,31a61.533,61.533,0,0,0,11.219,12.693,81.991,81.991,0,0,0,14.666,9.5c9.905,5.26,20.559,9.765,28.26,18.218,7.467,8.2,10,18.982,11.956,29.59,1.886,10.217,3.339,20.936,8.664,30.058,5.835,10,15.951,15.645,26.469,19.636,6.1,2.313,12.339,4.238,18.529,6.276l20.845,6.863c5.164,1.7,11.706,4.682,16.032-.283,3.426-3.932,2.721-9.173-.975-12.625a59.141,59.141,0,0,0-6.5-4.685,60.882,60.882,0,0,1-6.987-5.8,61.282,61.282,0,0,1-11.269-14.505,45.343,45.343,0,0,1-3.628-8.388,70.582,70.582,0,0,1-1.857-8.78q-1.8-10.184-3.909-20.312c-2.523-12.25-4.652-24.954-10.025-36.349a58.194,58.194,0,0,0-9.566-14.406c-3.917-4.3-7.984-8.336-11.385-13.082A70.188,70.188,0,0,1-2872.9,300.4a125.975,125.975,0,0,1-5.268-19.641c-2.491-13.39-3.248-27.013-4.615-40.543-.678-6.707-1.409-13.446-2.458-20.106-.212-1.346-2.258-.775-2.047.564,4.132,26.211,3.072,53.519,11.834,78.848a71.719,71.719,0,0,0,8.256,16.7,94.865,94.865,0,0,0,10.332,12.759,65.618,65.618,0,0,1,10.651,13.89,75.4,75.4,0,0,1,6.275,15.961c1.707,6.127,2.949,12.4,4.265,18.617q2.046,9.673,3.866,19.392c1.119,6.012,1.8,12.137,4.14,17.832a57.539,57.539,0,0,0,8.983,14.705,65.286,65.286,0,0,0,12.593,11.713c3.829,2.709,10.364,5.888,8.363,11.673a6.547,6.547,0,0,1-5.28,4.473c-3.248.337-6.724-1.354-9.742-2.347l-20.582-6.775c-11.247-3.7-23.316-6.794-33.238-13.5a35.967,35.967,0,0,1-11.213-11.944,54.287,54.287,0,0,1-5.27-14.079c-2.479-10.125-3.311-20.657-6.737-30.546a43.437,43.437,0,0,0-7.023-13.095,50.957,50.957,0,0,0-12.415-10.822c-9.354-5.991-19.911-9.882-28.97-16.369-9.144-6.547-15.678-15.9-20.426-25.972a177.693,177.693,0,0,1-11.445-34.03,203.441,203.441,0,0,1-5.531-40.316,172.028,172.028,0,0,1,.308-20.354,36.216,36.216,0,0,1,4.87-15.989c5.028-8.289,13.563-13.7,22.609-16.709,10.091-3.355,21.053-4.5,31.259-.994s18.842,11.35,24,20.756a50.912,50.912,0,0,1,5.264,16.53C-2887.067,222.015-2885.021,221.444-2885.239,220.105Z" transform="translate(2977.875 -179.017)"/></g></g><g transform="translate(-3267.23 13254.51)"><g transform="translate(0 0)"><path class="n" d="M-2797.43,454.712c-1.07,1.161-1.564,2.286-3.138,2.53-2.3.357-4.614-.379-6.822-1.11q-16.892-5.554-33.778-11.12c-11.856-3.9-24.385-8.255-32.261-17.942-14-17.2-8.21-44.581-21.906-62.019-10.565-13.447-26.65-17.133-40.719-26.86-16.617-11.493-23.938-30.172-29.674-48.72a204.59,204.59,0,0,1-8.906-69.6,61,61,0,0,1,.946-9.138c3.969-19.952,22.67-29.266,41.291-31.321a34.863,34.863,0,0,1,11.584.345c-17.7,2.638-34.814,11.992-38.591,30.976a60.97,60.97,0,0,0-.951,9.138,204.729,204.729,0,0,0,8.906,69.6c5.735,18.548,13.056,37.226,29.679,48.72,14.064,9.727,30.149,13.413,40.714,26.86,13.7,17.438,7.915,44.819,21.906,62.019,7.881,9.687,20.405,14.041,32.266,17.942C-2816.766,448.347-2807.547,451.383-2797.43,454.712Z" transform="translate(2974.844 -179.09)"/></g></g><g transform="translate(-3227.409 13310.712)"><g transform="translate(0 0)"><path class="o" d="M-2879.23,278.724c-5.708-1.084-12.853.2-17.172,4.092-8.017,7.213-8.724,24.247-7.787,27.753a281.636,281.636,0,0,0,12.655,36.879,40.584,40.584,0,0,0,4.635,8.744c2.139,2.845,4.943,5.128,7.161,7.912,3.97,4.986,5.028,8.527,8.207,14.05,4.424,7.685,10.917,13.067,19.664,14.525s20.336.872,23.886-7.254a10.383,10.383,0,0,0,.953-5.719c-.478-2.991-2.7-5.351-4.746-7.585-4.942-5.4-9.47-11.286-12.45-17.972-4.915-11.029-13.475-59.812-23.4-66.686C-2867.625,287.464-2873.522,279.809-2879.23,278.724Z" transform="translate(2904.51 -278.356)"/></g></g><g transform="translate(-3234.39 13393.976)"><g transform="translate(1.066 1.061)"><path class="h" d="M-2914.957,440.042c.569-7.985,14.58-12.92,20.859-12.745a19.193,19.193,0,0,1,15.61,9.1c4.741,7.861,3.084,18.233-1.437,26.221a35.755,35.755,0,0,1,24.733,8.51c1.8,1.549,3.548,3.505,3.656,5.878s-2.363,4.835-4.526,3.854c1.626.681,1.5,3.263.166,4.417s-3.244,1.276-5.005,1.342c2.07.98.919,4.531-1.294,5.123s-4.459-.615-6.484-1.685a71.13,71.13,0,0,0-32.607-8.2c-2.185-.014-4.443.059-6.466-.767a7.806,7.806,0,0,1-4.611-5.555c-.6-2.925.529-5.885,1.31-8.768s1.129-6.254-.727-8.594" transform="translate(2914.957 -427.292)"/></g><g transform="translate(0 0)"><path class="i" d="M-2914.712,439.229c.283-3.484,3.46-6.047,6.267-7.7a30.138,30.138,0,0,1,10.911-3.821,17.526,17.526,0,0,1,12.292,3.095,18.132,18.132,0,0,1,7.572,12.892,29.482,29.482,0,0,1-3.988,17.577,1.071,1.071,0,0,0,.917,1.6,34.836,34.836,0,0,1,15.049,2.694,35.035,35.035,0,0,1,6.842,3.854c1.909,1.376,4.137,3.051,5.079,5.285a3.356,3.356,0,0,1-.214,3.338,2.148,2.148,0,0,1-2.611.985c-1.1-.452-1.905,1.431-.818,1.94.957.448.779,1.8.2,2.507-1,1.226-3.07,1.218-4.5,1.274a1.07,1.07,0,0,0-.535,1.978c1.189.617.3,2.429-.6,2.991a3.958,3.958,0,0,1-3.19-.027,25.783,25.783,0,0,1-3.6-1.713,72.133,72.133,0,0,0-15.387-5.807A72.231,72.231,0,0,0-2901.211,480c-2.535-.049-5.37.258-7.666-1.044a6.749,6.749,0,0,1-3.394-5.391c-.19-3.09,1.24-5.964,1.8-8.944.492-2.632.488-5.566-1.208-7.79a1.1,1.1,0,0,0-1.452-.381,1.068,1.068,0,0,0-.381,1.453c1.573,2.063,1.358,4.744.783,7.136-.7,2.93-1.944,5.841-1.632,8.915a8.965,8.965,0,0,0,3.714,6.386c2.372,1.716,5.358,1.76,8.166,1.771a70.394,70.394,0,0,1,17.51,2.267,71.321,71.321,0,0,1,8.48,2.791c2.721,1.088,5.274,2.463,7.9,3.741,2.431,1.182,5.858,2.148,7.879-.284,1.377-1.659,1.747-4.58-.473-5.73l-.536,1.978c2.3-.089,5.168-.345,6.484-2.549.994-1.665.828-4.28-1.108-5.188l-.818,1.94c2.564,1.05,5.262-1.273,5.76-3.732.592-2.916-1.4-5.56-3.437-7.4a36.284,36.284,0,0,0-15.833-8.224,36.581,36.581,0,0,0-10.072-.968l.917,1.6a32.34,32.34,0,0,0,4.409-16.972,20.7,20.7,0,0,0-7.013-15.065,19.774,19.774,0,0,0-14.172-4.827,31.632,31.632,0,0,0-11.877,3.635c-3.919,2.077-7.973,5.376-8.358,10.113-.11,1.362,2.013,1.354,2.123,0Z" transform="translate(2916.84 -425.419)"/></g></g><g transform="translate(-3231.964 13424.864)"><g transform="translate(0 0)"><path class="n" d="M-2860.461,515.473c-1.948.788-4.405.006-6.268-.9-2.632-1.28-5.186-2.655-7.9-3.742a71.8,71.8,0,0,0-8.482-2.791,70.484,70.484,0,0,0-17.512-2.265c-2.8-.011-5.792-.057-8.164-1.773a8.964,8.964,0,0,1-3.715-6.386c-.311-3.074.929-5.984,1.631-8.911.577-2.4.792-5.073-.782-7.139a1.069,1.069,0,0,1,.379-1.449,1.1,1.1,0,0,1,1.455.379c.062.085.124.169.186.26.006.005.006.011.011.016.317.635.634,1.308.94,2,1.03,2.372,3.522.935,3.482,3.154-.1,5.673-3.533,10.276,7.915,10.9,11.227.617,19.411,4.011,35.368,16.861a5.948,5.948,0,0,1,.765.905C-2860.9,514.9-2860.671,515.19-2860.461,515.473Z" transform="translate(2912.554 -479.973)"/></g></g><g transform="translate(-3234.387 13393.975)"><g transform="translate(0 0)"><path class="i" d="M-2851.4,477.34a5.245,5.245,0,0,1-3.352,3.815,4.348,4.348,0,0,1-.481,3.165c-.951,1.591-2.706,2.168-4.478,2.394a4.608,4.608,0,0,1-1,3.907,3.982,3.982,0,0,1-1.608,1.183c-1.948.788-4.4.006-6.268-.9-2.633-1.28-5.186-2.655-7.9-3.742a71.781,71.781,0,0,0-8.481-2.791,70.491,70.491,0,0,0-17.512-2.265c-2.8-.011-5.792-.057-8.164-1.773a8.965,8.965,0,0,1-3.714-6.387c-.311-3.074.929-5.984,1.631-8.911.577-2.4.792-5.074-.781-7.14a1.069,1.069,0,0,1,.379-1.449,1.1,1.1,0,0,1,1.455.379c.062.085.125.169.187.26.006.005.006.011.011.016a7.047,7.047,0,0,1,.94,2,12.069,12.069,0,0,1,.068,5.509c-.555,2.978-1.987,5.855-1.795,8.946a6.741,6.741,0,0,0,3.391,5.39c2.293,1.3,5.13,1,7.666,1.042a72.325,72.325,0,0,1,16.187,2.174,72.236,72.236,0,0,1,15.383,5.8,25.2,25.2,0,0,0,3.6,1.715,5.511,5.511,0,0,0,2.265.34,2.207,2.207,0,0,0,.923-.311c.9-.561,1.789-2.372.6-2.989a1.072,1.072,0,0,1,.532-1.982c1.433-.057,3.5-.045,4.5-1.274.583-.708.764-2.055-.193-2.508-1.087-.51-.289-2.389.815-1.936a2.146,2.146,0,0,0,2.61-.986,3.354,3.354,0,0,0,.215-3.34c-.94-2.231-3.171-3.907-5.079-5.283a34.787,34.787,0,0,0-6.845-3.855,34.789,34.789,0,0,0-15.049-2.7,1.069,1.069,0,0,1-.912-1.6,29.5,29.5,0,0,0,3.986-17.574,18.119,18.119,0,0,0-7.575-12.892,17.5,17.5,0,0,0-12.286-3.1,30.231,30.231,0,0,0-10.916,3.822c-2.8,1.653-5.979,4.212-6.262,7.7-.114,1.353-2.237,1.359-2.124,0,.385-4.739,4.433-8.04,8.357-10.118a31.662,31.662,0,0,1,11.873-3.634,19.805,19.805,0,0,1,14.177,4.829,20.707,20.707,0,0,1,7.009,15.065,31.583,31.583,0,0,1-3.55,15.344,36.564,36.564,0,0,1,8.294,1,36.324,36.324,0,0,1,15.836,8.227C-2852.8,471.78-2850.808,474.424-2851.4,477.34Z" transform="translate(2916.835 -425.417)"/></g></g><g transform="translate(-3206.654 13404.85)"><g transform="translate(0 0)"><path class="i" d="M-2866.506,446.986a2.783,2.783,0,0,1,2.914.532,4.99,4.99,0,0,1,1.72,2.211,3.535,3.535,0,0,1-1.7,4.24c-1.206.643-.135,2.477,1.072,1.833a5.662,5.662,0,0,0,2.629-6.771c-1-2.688-4.233-5.332-7.2-4.092a1.1,1.1,0,0,0-.742,1.306,1.068,1.068,0,0,0,1.306.741Z" transform="translate(2867.852 -444.625)"/></g></g><g transform="translate(-3147.034 13346.858)"><g transform="translate(0 0)"><path class="i" d="M-2761.209,348.569a12.418,12.418,0,0,0,7.787-4.773,1.067,1.067,0,0,0-.381-1.452,1.089,1.089,0,0,0-1.453.381c.079-.1-.053.064-.077.095-.047.058-.1.116-.144.173q-.164.192-.336.377-.346.369-.724.706a9.215,9.215,0,0,1-1.552,1.125q-.435.257-.892.476l-.2.1c-.039.018-.231.1-.107.05-.156.065-.313.125-.472.182a11.245,11.245,0,0,1-2.01.519,1.07,1.07,0,0,0-.742,1.306,1.087,1.087,0,0,0,1.306.742Z" transform="translate(2762.548 -342.198)"/></g></g><g transform="translate(-3282.761 13318.512)"><g transform="translate(1.056 1.055)"><path class="h" d="M-2983.821,293.994a59.708,59.708,0,0,0-15.483,25.188c-1.5,4.855-2,11,1.955,14.189,2.276,1.832,5.46,2.1,8.349,1.667s5.653-1.485,8.526-2.014c8.33-1.534,17.9,2.236,21.355,9.968a33.317,33.317,0,0,0,1.964,4.421,4.712,4.712,0,0,0,3.927,2.44,3.4,3.4,0,0,0,2.592-4.914,2.094,2.094,0,0,0,2.564,2.025,3.4,3.4,0,0,0,2.344-2.76,10.006,10.006,0,0,0-.243-3.8c.245.816,1.483.919,2.117.349a3.333,3.333,0,0,0,.845-2.343,19.256,19.256,0,0,0-5.465-14.028,30.684,30.684,0,0,0-13.146-7.855" transform="translate(3000.41 -293.994)"/></g><g transform="translate(0 0)"><path class="i" d="M-2985.38,292.435a60.764,60.764,0,0,0-13.261,19.016,41.567,41.567,0,0,0-3.394,10.559c-.461,3.15-.393,6.682,1.438,9.424,2.138,3.2,5.977,4.289,9.665,3.989,4.018-.327,7.754-2.111,11.77-2.419,6.142-.473,12.922,1.832,16.679,6.91a22.288,22.288,0,0,1,2.527,5.031c.8,1.966,1.924,3.9,3.968,4.774a4.115,4.115,0,0,0,4.957-1.2,4.405,4.405,0,0,0,.5-4.919,1.071,1.071,0,0,0-1.978.536c-.174,2.564,3,3.865,4.976,2.592,2.548-1.644,2.274-4.818,1.774-7.408l-2.047.564a2.3,2.3,0,0,0,2.779,1.409,3.121,3.121,0,0,0,2.147-2.651,16.316,16.316,0,0,0-.845-7.876,23.911,23.911,0,0,0-10.076-12.242,36.635,36.635,0,0,0-8.347-3.822c-1.3-.422-1.861,1.627-.564,2.047,8.212,2.662,16.183,8.426,17.674,17.475a14.76,14.76,0,0,1,.149,3.49c-.032.427-.087,1.119-.452,1.41-.147.118-.464.076-.417.194a1.062,1.062,0,0,0-2.047.564c.289,1.5.69,3.386-.413,4.661a1.4,1.4,0,0,1-1.375.56.928.928,0,0,1-.792-.969l-1.978.536a2.371,2.371,0,0,1-.776,2.972c-1.208.876-2.681-.055-3.5-1.016-1.194-1.4-1.634-3.33-2.371-4.974a16.348,16.348,0,0,0-2.39-3.768c-3.863-4.631-10.064-7.023-16.006-7.061-3.671-.023-7.069,1.153-10.6,1.98-3.214.752-7.225,1.09-9.835-1.367-2.151-2.023-2.486-5.136-2.246-7.929a33.517,33.517,0,0,1,2.657-9.5,58.724,58.724,0,0,1,13.554-20.066c.983-.953-.52-2.454-1.5-1.5Z" transform="translate(3002.274 -292.13)"/></g></g><g class="j" transform="translate(-3282.445 13306.507)"><g transform="translate(1.06 1.038)"><path class="k" d="M-2958.087,361.209c-2.178-14.586-8.054-26.529-13.737-40.138-1.168-2.8-9.008-15.29-9.008-15.29-6.654-1.923-15.284,4.142-18.958,10.015a45.879,45.879,0,0,1,15.9-36.72c8.049,1.469,30.331,11.133,66.016,5.707,21-3.193,23.591-12.021,23.591-12.021,3.717,10.907,3.273,12.548,3.871,24.055.316,6.076,22.477,17.5,15.17,60.361-.32,1.875-20.834-10.252-42.632-2.407-11.267,4.054-32.591,2.265-35.422,13.9Z" transform="translate(2999.844 -272.762)"/></g><g transform="translate(0 0)"><path class="i" d="M-2957.876,360.131a102.362,102.362,0,0,0-5.865-21.253c-1.31-3.423-2.729-6.8-4.165-10.174-1.322-3.1-2.542-6.276-3.976-9.326a107.727,107.727,0,0,0-5.921-10.2q-1.261-2.059-2.539-4.107a4.511,4.511,0,0,0-.552-.832,3.684,3.684,0,0,0-2.02-.58,10.972,10.972,0,0,0-2.063-.073,18.9,18.9,0,0,0-9.43,3.611,25.756,25.756,0,0,0-7.112,7.271l1.978.536a45.014,45.014,0,0,1,9.378-29.487,43.9,43.9,0,0,1,6.208-6.482l-1.033.273c4.06.749,8.017,2.135,12.015,3.15a137.417,137.417,0,0,0,20.622,3.639,134.993,134.993,0,0,0,28.831-.39c8.04-.955,16.665-2.338,23.548-6.924a18.49,18.49,0,0,0,4.369-3.9,7.819,7.819,0,0,0,1.493-2.527c.01-.036.026-.07.036-.105h-2.047a67.1,67.1,0,0,1,2.939,10.682,82.094,82.094,0,0,1,.724,9.559c.086,1.9-.078,3.854.765,5.6a16.636,16.636,0,0,0,1.733,2.672c.435.583.882,1.158,1.328,1.734l.329.425c.114.147-.1-.129.051.065l.2.254q.355.461.707.925c1.085,1.434,2.134,2.9,3.109,4.409a51.34,51.34,0,0,1,5.875,12.435,63,63,0,0,1,2.726,18.88,91.75,91.75,0,0,1-.872,12.522c-.156,1.147-.387,2.288-.525,3.436-.045.377-.1.2.041.064.047-.045.3-.3.3-.3.076-.055.276-.058.3-.09-.024.033-.238-.013-.274-.014.351.006,0-.005-.156-.039-.323-.069-.642-.161-.958-.254-2.222-.655-4.405-1.436-6.63-2.085a73.917,73.917,0,0,0-10.064-2.238,55.528,55.528,0,0,0-12.6-.476,48.54,48.54,0,0,0-6.74,1.031c-2.1.478-4.105,1.2-6.156,1.845-6,1.892-12.385,2.3-18.536,3.5-5.362,1.045-11.705,2.587-15.049,7.317a10.459,10.459,0,0,0-1.57,3.488l1.94-.254-4.79-7.462c-.736-1.146-2.575-.083-1.833,1.072l4.79,7.462a1.075,1.075,0,0,0,1.94-.254c1.344-5.365,7.135-7.442,12.016-8.642,6.228-1.531,12.664-1.967,18.9-3.432a42.777,42.777,0,0,0,4.252-1.259,44.557,44.557,0,0,1,6.953-1.793,49.68,49.68,0,0,1,12.976-.438c6.332.574,12.373,2.341,18.4,4.28,1.058.34,2.9,1.215,3.984.558.6-.363.615-1.015.717-1.641q.28-1.723.508-3.454c.29-2.174.516-4.356.663-6.544a72.461,72.461,0,0,0-1.462-21.157,53.87,53.87,0,0,0-5.515-14.294,75.6,75.6,0,0,0-6.226-9.073l-.325-.42c-.019-.024.106.138-.037-.048l-.177-.23q-.3-.385-.587-.772c-.352-.469-.7-.943-1.024-1.431a11.681,11.681,0,0,1-.749-1.265c-.048-.1-.09-.192-.136-.288-.072-.151.1.247.039.092-.019-.053-.043-.1-.062-.159-.062-.183-.116-.366-.163-.554s-.015-.269-.008.007c-.007-.279-.035-.559-.049-.837q-.086-1.71-.161-3.421c-.078-1.725-.147-3.451-.272-5.174a46.567,46.567,0,0,0-1.558-9.1c-.558-2.017-1.212-4.007-1.885-5.988a1.071,1.071,0,0,0-2.047,0c-.018.059-.043.115-.062.173-.075.231.149-.295.009-.022-.048.095-.091.191-.139.286a8.581,8.581,0,0,1-.447.761c-.1.157-.212.311-.322.464-.045.063-.266.344-.062.086-.069.088-.14.176-.211.263a19.551,19.551,0,0,1-6.7,4.985,51.949,51.949,0,0,1-15.593,4.387,139.016,139.016,0,0,1-20.123,1.5,129.883,129.883,0,0,1-29.632-3.426c-3.238-.755-6.443-1.635-9.646-2.526-1.165-.324-2.33-.651-3.5-.943-.472-.117-.945-.229-1.421-.326a1.792,1.792,0,0,0-1.263.02,9.379,9.379,0,0,0-1.713,1.5,47.163,47.163,0,0,0-14.7,31.687,44.232,44.232,0,0,0-.007,4.451,1.071,1.071,0,0,0,1.979.536,23.433,23.433,0,0,1,7.888-7.5c2.92-1.72,6.483-2.972,9.87-2.031l-.634-.488c2.62,4.176,5.232,8.37,7.647,12.669a104.845,104.845,0,0,1,4.622,10.29c2.076,4.857,4.13,9.729,5.885,14.713a95.883,95.883,0,0,1,4.484,17.5,1.068,1.068,0,0,0,1.305.742A1.089,1.089,0,0,0-2957.876,360.131Z" transform="translate(3001.716 -270.928)"/></g></g><g transform="translate(-3253.095 13347.709)"><g transform="translate(0 0)"><path class="p" d="M-2917.508,388.627a28.438,28.438,0,0,0-6.605,2.017s-20.022-24.032-25.706-37.637c-1.166-2.8,15.626-11.391,16.792-8.838,1.946,4.259,4.258,15.423,11.97,18.224,2.385.867,2.618,2.927,2.33,4.848-.456,3.038-7.814,11.056,5.444,10.4C-2909.34,377.442-2914.126,384.151-2917.508,388.627Z" transform="translate(2949.877 -343.701)"/></g></g><g transform="translate(-3280.346 13314.889)"><g transform="translate(0 0)"><path class="p" d="M-2991.947,313.075c-3.194,1.657-1.773,1.04-6.062,5.1.441-11.527,4.666-23.4,15.208-32.334,1.585.289-1.494-.534,1.184.207C-2995.184,299.52-2991.947,313.075-2991.947,313.075Z" transform="translate(2998.009 -285.734)"/></g></g><g class="j" transform="translate(-3227.285 13302.388)"><g transform="translate(0 0)"><path class="i" d="M-2903.976,265.754c1.495,1.481,3.6,2.02,5.563,2.582a50.445,50.445,0,0,0,6.944,1.516,28.188,28.188,0,0,0,13.106-.959,20.359,20.359,0,0,0,6.211-3.437,1.07,1.07,0,0,0,0-1.5,1.085,1.085,0,0,0-1.5,0c-3.849,3.122-8.935,4.256-13.8,4.126a38.471,38.471,0,0,1-8.185-1.2q-1.931-.478-3.832-1.075a7.075,7.075,0,0,1-3-1.551,1.062,1.062,0,0,0-1.5,1.5Z" transform="translate(2904.291 -263.653)"/></g></g><g class="j" transform="translate(-3157.433 13446.184)"><g transform="translate(0 0)"><path class="i" d="M-2779.134,528.328a25.412,25.412,0,0,1,10.548-7.206,26.227,26.227,0,0,1,12.1-1.154,14.685,14.685,0,0,1,6.41,2.5c1.114.8,2.175-1.045,1.072-1.833-3.658-2.613-8.328-3.237-12.716-2.933a27.163,27.163,0,0,0-12.928,4.036,28.487,28.487,0,0,0-5.989,5.092c-.9,1.018.592,2.525,1.5,1.5Z" transform="translate(2780.916 -517.628)"/></g></g><g class="j" transform="translate(-3143.558 13483.223)"><g transform="translate(0 0)"><path class="i" d="M-2754.6,591.344a27.624,27.624,0,0,1,21.3-5.927,1.1,1.1,0,0,0,1.306-.741,1.069,1.069,0,0,0-.742-1.306,29.951,29.951,0,0,0-23.37,6.473,1.071,1.071,0,0,0,0,1.5,1.085,1.085,0,0,0,1.5,0Z" transform="translate(2756.409 -583.047)"/></g></g><g class="j" transform="translate(-3131.399 13495.807)"><g transform="translate(0 0)"><path class="i" d="M-2733.144,613.941a20.221,20.221,0,0,1,15.111-6.542,1.062,1.062,0,0,0,0-2.123,22.321,22.321,0,0,0-16.612,7.164c-.922,1.006.576,2.512,1.5,1.5Z" transform="translate(2734.934 -605.273)"/></g></g><g class="j" transform="translate(-3115.12 13505.372)"><g transform="translate(0 0)"><path class="i" d="M-2704.218,629.417a19.459,19.459,0,0,1,1.158-1.964q.16-.234.329-.461c.049-.065.125-.164.032-.045.057-.073.115-.145.174-.217a10.154,10.154,0,0,1,.737-.806q.192-.188.394-.363.084-.072.17-.142l.1-.083c-.087.067-.1.078-.04.032a8.735,8.735,0,0,1,.847-.542c.154-.083.312-.157.471-.23-.225.1.041-.014.073-.025.083-.031.166-.06.251-.088a6.552,6.552,0,0,1,1.061-.245,1.065,1.065,0,0,0,.742-1.306,1.1,1.1,0,0,0-1.306-.742c-3.348.5-5.56,3.338-7.029,6.157a1.081,1.081,0,0,0,.381,1.452,1.077,1.077,0,0,0,1.452-.381Z" transform="translate(2706.182 -622.171)"/></g></g><g class="j" transform="translate(-3151.098 13464.581)"><g transform="translate(0 0)"><path class="i" d="M-2767.708,559.7c2.565-3.769,6.813-5.931,11.184-6.84a31.724,31.724,0,0,1,7.424-.567,15.461,15.461,0,0,1,7.018,1.6c1.2.655,2.272-1.178,1.072-1.833-3.7-2.021-8.219-2.133-12.33-1.786a23.961,23.961,0,0,0-11.616,3.781,17.4,17.4,0,0,0-4.585,4.568c-.771,1.132,1.068,2.2,1.833,1.072Z" transform="translate(2769.726 -550.124)"/></g></g><g transform="translate(-3282.576 13340.2)"><g transform="translate(1.061 1.061)"><path class="h" d="M-2999.889,341.63c-.054,1.792-2.367,10.655,11.035,10.329,2.92-.071,5.653-1.485,8.526-2.014,8.33-1.534,17.9,2.236,21.355,9.968a33.28,33.28,0,0,0,1.963,4.421,4.712,4.712,0,0,0,3.927,2.44,3.4,3.4,0,0,0,2.592-4.914,2.093,2.093,0,0,0,2.563,2.025,3.4,3.4,0,0,0,2.344-2.76,10.006,10.006,0,0,0-.242-3.8c.245.816,1.483.919,2.117.349a3.334,3.334,0,0,0,.845-2.343,19.254,19.254,0,0,0-5.465-14.028,30.682,30.682,0,0,0-13.146-7.855c-6.379-2.048-13.9-1.373-19.437,2.394" transform="translate(3000.073 -332.313)"/></g><g transform="translate(0 0)"><path class="i" d="M-3001.764,340.817c-.03.8-.171,1.593-.183,2.4a9.411,9.411,0,0,0,.636,3.718c1.615,3.928,5.978,5.1,9.864,5.263a17.076,17.076,0,0,0,5.013-.482c1.708-.438,3.358-1.084,5.084-1.458a19.7,19.7,0,0,1,8.174.037c5.221,1.1,10.1,4.22,12.393,9.168.793,1.714,1.253,3.59,2.411,5.118a5.666,5.666,0,0,0,4.266,2.448c3.195.065,5.261-3.827,3.718-6.514a1.071,1.071,0,0,0-1.979.536c-.174,2.564,3,3.866,4.976,2.592,2.548-1.644,2.274-4.818,1.774-7.408l-2.047.564a2.433,2.433,0,0,0,4.253.4c1.139-1.536.911-3.984.683-5.772a21.075,21.075,0,0,0-5.123-11.079,28.509,28.509,0,0,0-9.949-7.116,29.014,29.014,0,0,0-11.7-2.786,22.761,22.761,0,0,0-12.762,3.675c-1.129.758-.068,2.6,1.071,1.834,5.748-3.857,13.082-4.219,19.51-1.991,6.547,2.27,12.746,6.487,15.571,13.031a16.806,16.806,0,0,1,1.361,5.46,9.563,9.563,0,0,1-.1,2.859c-.067.272-.184.7-.473.82-.155.066-.358-.059-.294.1a1.063,1.063,0,0,0-2.047.564c.289,1.5.69,3.386-.413,4.661a1.4,1.4,0,0,1-1.375.56.928.928,0,0,1-.792-.969l-1.979.536a2.291,2.291,0,0,1-.386,2.607,2.131,2.131,0,0,1-2.908.231,6.914,6.914,0,0,1-2.388-3.463,27.194,27.194,0,0,0-1.764-3.93,19.578,19.578,0,0,0-12.278-8.631,22.457,22.457,0,0,0-7.852-.527,24.448,24.448,0,0,0-4.425.968,24.79,24.79,0,0,1-4.7,1.2,15.324,15.324,0,0,1-7.269-.881,5.7,5.7,0,0,1-2.893-2.458q-.137-.245-.251-.5c.092.2-.071-.187-.094-.255a7.22,7.22,0,0,1-.257-.938q-.052-.252-.087-.507c.037.26-.01-.126-.017-.216-.025-.292-.036-.584-.036-.877,0-.869.153-1.722.185-2.587.051-1.366-2.073-1.365-2.123,0Z" transform="translate(3001.948 -330.438)"/></g></g><g transform="translate(-3280.527 13348.452)"><g transform="translate(0 0)"><path class="n" d="M-2955.558,369.088a34.014,34.014,0,0,1-1.965-4.422c-3.454-7.734-12.8-11.44-21.165-10.461-2.905.34-6.344,1.764-9.014,2.154-12.712,1.853-10.5-7.586-10.446-9.375l2-1.972c.475,3.318,2.7,7.81,11.605,7.583,3.074-.079,5.945-1.625,8.962-2.2,8.759-1.676,14.391.72,18.026,9.185C-2956.868,361.191-2954.692,370.447-2955.558,369.088Z" transform="translate(2998.329 -345.012)"/></g></g><g transform="translate(-3218.913 13336.417)"><g transform="translate(8.153 0)"><path class="q" d="M-2852.912,331.826c1.866.775,4.01,1.036,5.969,1.719-2.47.251-5.006.379-7.556.388a2.057,2.057,0,0,0-.679.076,1.781,1.781,0,0,0-.355.2,11.1,11.1,0,0,1-7.136,1.5l-.147.092c.806.384,2.06.066,2.728.6a.288.288,0,0,1,.138.233c-.014.123-.181.211-.34.219a1.249,1.249,0,0,1-.454-.09c.126.157.215.412-.006.49a.512.512,0,0,1-.212.012,4.179,4.179,0,0,1-.7-.122.809.809,0,0,1-.087.488c-.06.115-.213.244-.352.19a.28.28,0,0,1-.124-.12,1.744,1.744,0,0,0-1.054-.668,10.8,10.8,0,0,1-1.151-.2c-.355-.125-.623-.474-.4-.749a11.894,11.894,0,0,1-4.248,1.415,4.227,4.227,0,0,0,.486.2c.157.075.29.213.237.366-.071.206-.4.275-.654.3a.164.164,0,0,1,.164.277.8.8,0,0,1-.513.152.476.476,0,0,1,.243.3q-1.109.265-2.209.571a.6.6,0,0,1-.279.032.336.336,0,0,1-.174-.121,1.128,1.128,0,0,1-.241-.99l-.179-.036a3.248,3.248,0,0,1-2.748-2.119,4.6,4.6,0,0,1,.5-3.478,6.336,6.336,0,0,1,1.4-1.853,10.337,10.337,0,0,1,2.74-1.631c1.967-.867,4.068-1.507,6-2.343s3.762-1.932,4.561-3.375a6.971,6.971,0,0,1-2.512,3.886,14.35,14.35,0,0,1-2.2,1.12,47.817,47.817,0,0,0-4.556,2.352,4.606,4.606,0,0,0-1.438,1.127.4.4,0,0,0-.1.227c.011.3.6.238.977.1a26.5,26.5,0,0,1,6.467-1.672c1.621-.156,3.253-.054,4.872-.124a2.468,2.468,0,0,0,.717-.106c.465-.167.7-.594,1.206-.69.271-.052.57.005.843-.039.555-.092.96-.588,1.52-.452a2.553,2.553,0,0,0,.594.181c.331,0,.49-.327.823-.323.27,0,.449.215.677.331a2.081,2.081,0,0,0,1.1.1q2.078-.2,4.177-.264c.129.183-.122.336-.343.419a52.051,52.051,0,0,1-6.229,1.857" transform="translate(2875.104 -323.757)"/></g><g transform="translate(0 14.304)"><g transform="translate(0 9.081)"><path class="i" d="M-2889.463,366.192c.736,1.62,1.553,3.191,2.435,4.712.394.679.907,1.378,1.874,1.045a7.435,7.435,0,0,0,1.2-.716,6.613,6.613,0,0,1,1.256-.55.877.877,0,0,0,.554-.966.663.663,0,0,0-.915-.4,10.787,10.787,0,0,0-2.254,1.164c-.022.014-.147.106-.154.082,0,.014.112-.046.124-.025,0,0-.075-.093-.111-.146-.2-.292-.353-.613-.521-.923q-1.056-1.945-1.942-4a.7.7,0,0,0-1-.318c-.4.184-.712.7-.554,1.043Z" transform="translate(2889.504 -365.06)"/></g><g transform="translate(13.439 2.332)"><path class="i" d="M-2860.7,354.671c.375-.179.666-.451.634-.822a.873.873,0,0,0-.888-.695,5.654,5.654,0,0,0-2.066.266,3.917,3.917,0,0,0-2.535,2.168,4.192,4.192,0,0,0,.283,3.244,3.676,3.676,0,0,0,2.227,1.726,5.1,5.1,0,0,0,3.885-.558.673.673,0,0,0,.21-.981.864.864,0,0,0-1.11-.113,2.629,2.629,0,0,1-3.887-1.163,2.442,2.442,0,0,1,.255-2.3,3.113,3.113,0,0,1,2.518-.879l-.389-.126.082.039-.248-.275.02.052c-.012-.123-.025-.245-.038-.369-.007.018-.013.035-.02.053q.271-.284.545-.566l-.054.026c-.413.2-.678.564-.5.935a.865.865,0,0,0,1.083.341Z" transform="translate(2865.767 -353.14)"/></g><g transform="translate(19.972 1.053)"><path class="i" d="M-2848.833,351.054a4.465,4.465,0,0,0-4.593,1.395,3.559,3.559,0,0,0-.28,4.106c.853,1.31,2.84,1.707,4.471,1.316a3.872,3.872,0,0,0,2.99-2.938c.273-1.548-.927-3.03-2.74-3.571a.906.906,0,0,0-1.05.506c-.123.4.184.705.615.831-.1-.029.076.026.1.035.071.027.139.055.206.086.05.024.259.132.212.1a2.735,2.735,0,0,1,.565.463,1.791,1.791,0,0,1,.47,1.106,2.151,2.151,0,0,1-1.461,1.961,2.729,2.729,0,0,1-2.793-.431,2.231,2.231,0,0,1-.062-2.632,2.4,2.4,0,0,1,1.215-.958,2.544,2.544,0,0,1,1.7-.043.917.917,0,0,0,1.048-.493c.133-.392-.171-.707-.609-.841Z" transform="translate(2854.23 -350.881)"/></g><g transform="translate(28.94)"><path class="i" d="M-2832.73,349.508a5.423,5.423,0,0,0-4.447-.018,1.862,1.862,0,0,0-.874,2.77,2.678,2.678,0,0,0,1.8.992c.669.11,1.349.048,2.018.172a1.935,1.935,0,0,1,1.208.634.534.534,0,0,1,.1.225c.01.054.009.13.011.125a.759.759,0,0,1-.306.418,2.125,2.125,0,0,1-1.675.193,5.117,5.117,0,0,1-.927-.3.855.855,0,0,1-.471-.365.947.947,0,0,0-1.121-.318.625.625,0,0,0-.334.916,2.763,2.763,0,0,0,1.5,1.077,6.124,6.124,0,0,0,2.187.423c1.337-.011,2.765-.726,2.792-1.943.027-1.3-1.45-2.2-2.921-2.444a18.561,18.561,0,0,1-1.993-.18.577.577,0,0,1-.486-.692c-.008.049.071-.174.084-.192a.992.992,0,0,1,.251-.256,1.74,1.74,0,0,1,.655-.29,4.02,4.02,0,0,1,2.371.29.906.906,0,0,0,1.106-.324c.173-.358-.1-.721-.527-.912Z" transform="translate(2838.389 -349.022)"/></g><g transform="translate(36.09 0.112)"><path class="i" d="M-2817.8,350.3q-3.495-.538-7-1.063c-.476-.071-.914.136-.957.51a.866.866,0,0,0,.787.82c.825.119,1.646.25,2.47.373.1,1.589.286,3.181.539,4.772a.962.962,0,0,0,.916.7c.438.014.769-.28.717-.651-.215-1.522-.366-3.044-.443-4.562,1.056.161,2.116.313,3.169.479a.607.607,0,0,0,.771-.6A1.078,1.078,0,0,0-2817.8,350.3Z" transform="translate(2825.761 -349.22)"/></g><g transform="translate(5.777 6.72)"><path class="i" d="M-2879.2,361.954a5.979,5.979,0,0,1,.666,1.289l.616,1.422,1.277,2.944a.712.712,0,0,0,.968.254.726.726,0,0,0,.254-.968l-1.277-2.945-.616-1.422a6.031,6.031,0,0,0-.665-1.289.731.731,0,0,0-.969-.254.712.712,0,0,0-.254.968Z" transform="translate(2879.302 -360.891)"/></g><g transform="translate(5.783 4.938)"><path class="i" d="M-2878.224,360.842a14.535,14.535,0,0,1,1.731-1.015c.128-.061.257-.117.385-.174.084-.037-.167.068-.021.009l.108-.044.2-.08c.353-.138.71-.267,1.066-.4a.722.722,0,0,0,.494-.871.716.716,0,0,0-.87-.494c-.688.249-1.378.5-2.039.809a14.245,14.245,0,0,0-1.771,1.034.721.721,0,0,0-.254.968.717.717,0,0,0,.968.254Z" transform="translate(2879.291 -357.743)"/></g><g transform="translate(7.605 7.77)"><path class="i" d="M-2874.864,365.649c.017-.022.108-.084.109-.1,0,.01-.179.132-.079.062l.047-.033c.039-.028.078-.054.118-.081.214-.142.434-.273.657-.4.661-.378,1.342-.72,2.033-1.041a.71.71,0,0,0,.254-.968.727.727,0,0,0-.968-.254c-.7.326-1.4.675-2.07,1.062-.222.127-.442.258-.655.4a1.91,1.91,0,0,0-.447.354.77.77,0,0,0-.207.5.719.719,0,0,0,.207.5.716.716,0,0,0,1,0Z" transform="translate(2876.072 -362.745)"/></g><g transform="translate(8.343 10.368)"><path class="i" d="M-2873.7,370.658c.979-.553,1.961-1.1,2.955-1.628.254-.134.507-.27.768-.389a.711.711,0,0,0,.254-.968.728.728,0,0,0-.968-.254c-.544.248-1.067.547-1.592.833q-.879.48-1.753.971l-.379.213a.716.716,0,0,0-.254.968.721.721,0,0,0,.969.254Z" transform="translate(2874.769 -367.333)"/></g><g transform="translate(44.533 0.954)"><path class="i" d="M-2809.45,356.693a18.865,18.865,0,0,0,.6-2.339c.039-.167.081-.333.129-.5.026-.087.054-.174.084-.26.011-.033.1-.255.055-.153a3.862,3.862,0,0,1,.248-.479,3.1,3.1,0,0,1,.333-.465,2.015,2.015,0,0,1,.382-.378c.031-.021.118.011.216.048.157.06-.046-.005-.021-.029a1.146,1.146,0,0,1,.114.1c.042.041.08.087.119.131.016.018.03.037.046.055.052.063-.077-.112,0,0a9.01,9.01,0,0,1,.938,1.845,12.063,12.063,0,0,1,.423,1.375,7.173,7.173,0,0,1,.213,1.31.724.724,0,0,0,.708.708.714.714,0,0,0,.708-.708,10.846,10.846,0,0,0-.645-2.948,9.255,9.255,0,0,0-1.138-2.318,2.606,2.606,0,0,0-.708-.724,1.7,1.7,0,0,0-1.685-.071,3.763,3.763,0,0,0-1.163,1.255,5.157,5.157,0,0,0-.559,1.228c-.307.967-.409,1.98-.763,2.936a.714.714,0,0,0,.495.871.723.723,0,0,0,.87-.495Z" transform="translate(2810.848 -350.707)"/></g><g transform="translate(45.11 4.375)"><path class="i" d="M-2809.12,358.333c.537-.066,1.077-.111,1.616-.14.433-.024.868-.037,1.3-.021.1,0,.2.009.294.017l.158.014c.117.011.047.046-.039-.006a.987.987,0,0,0,.234.044,1.677,1.677,0,0,1,.22.067.709.709,0,0,0,.87-.494.728.728,0,0,0-.494-.87,3.688,3.688,0,0,0-1.157-.183,13.405,13.405,0,0,0-1.342.015c-.555.029-1.111.075-1.662.143a.726.726,0,0,0-.708.708c.015.344.314.756.708.708Z" transform="translate(2809.829 -356.749)"/></g></g></g><g transform="translate(-3187.431 13332.982)"><g transform="translate(0 0)"><path class="p" d="M-2833.9,321.952s7.33-6.361,14.955-3.539c0,0,3.647,4.948,5.581,7.515C-2813.362,325.929-2818.772,319.584-2833.9,321.952Z" transform="translate(2833.899 -317.691)"/></g></g><g transform="translate(-3187.864 13331.849)"><g transform="translate(0 0)"><path class="i" d="M-2819.1,315.881a34.1,34.1,0,0,0-7.461.023,15.62,15.62,0,0,0-7.791,3.353,1.07,1.07,0,0,0,0,1.5,1.085,1.085,0,0,0,1.5,0c3.93-3.193,8.97-3.135,13.751-2.754,1.362.108,1.354-2.016,0-2.123Z" transform="translate(2834.664 -315.686)"/></g></g><g transform="translate(-3275.528 13200.117)"><g transform="translate(0 0)"><g transform="translate(1.132 1.13)"><path class="h" d="M-2978.255,165.647s-8.576,2.26-9.216-11.908,9.634-14.641,11.949-26.385-1.345-33.167,20.9-31.376c0,0,7.647-13.584,20.476-10.509s12.833,17.418,16.469,17.917,4.381-4.221,9.516-3.87,21.037,6.405,16.507,32.105c0,0-2.684,6.931,5.382,6,10.148-1.169,98.539,12.938,97.651,21.827-2.883,28.836-9.967,27.593-18.025,26s-12.424,5.124-17.769,6.092c-1.9.344-46.234-30.274-79.318-10.817-13.929,8.192-39.863,2.184-50.16-5.173" transform="translate(2987.5 -85.015)"/></g><path class="i" d="M-2825.32,191.809c-.622,0-1.483-.446-4.461-2.027-11.628-6.175-47.013-24.965-74.244-8.951-14.025,8.247-40.434,2.6-51.392-5.228a1.132,1.132,0,0,1-.264-1.58,1.133,1.133,0,0,1,1.58-.263c5.145,3.675,14.26,6.9,23.225,8.219,10.542,1.549,19.669.447,25.7-3.1,28.322-16.656,64.549,2.581,76.454,8.9,1.5.8,2.922,1.552,3.428,1.739a17.52,17.52,0,0,0,5.248-2.577c3.409-2.137,7.271-4.559,12.751-3.474,3.382.669,6.576,1.3,9.16-.613,3.693-2.737,6.152-10.714,7.519-24.387.013-.134-.112-.415-.5-.8-3.649-3.595-21.454-8.635-47.628-13.484-23.62-4.375-44.025-6.791-48.262-6.3-2.923.337-4.99-.248-6.142-1.738-1.6-2.068-.689-5.047-.468-5.68,1.795-10.277.476-18.336-3.921-23.953a17.384,17.384,0,0,0-11.565-6.731c-2.288-.151-3.494.865-4.772,1.945-1.232,1.04-2.629,2.217-4.821,1.918-1.912-.263-2.829-2.362-4.1-5.267-1.995-4.563-4.726-10.813-12.479-12.672-11.857-2.841-19.153,9.835-19.226,9.964l-.355.631-.722-.058c-16.758-1.347-17.783,10.811-18.77,22.571a74.694,74.694,0,0,1-.93,7.9c-1.07,5.428-3.717,8.539-6.277,11.547-3.081,3.622-5.992,7.044-5.652,14.568.221,4.884,1.471,8.311,3.614,9.911a5.3,5.3,0,0,0,4.191.951,1.136,1.136,0,0,1,1.374.818,1.129,1.129,0,0,1-.8,1.375,7.608,7.608,0,0,1-6.071-1.3c-2.772-2.038-4.309-5.96-4.566-11.656-.38-8.416,2.96-12.342,6.19-16.138,2.48-2.916,4.823-5.67,5.779-10.517a73.176,73.176,0,0,0,.9-7.647c.966-11.516,2.165-25.813,20.517-24.689,1.765-2.718,9.486-13.275,21.342-10.432,8.849,2.121,11.965,9.25,14.027,13.967.747,1.711,1.678,3.84,2.331,3.93,1.141.157,1.832-.374,3.052-1.4a8.225,8.225,0,0,1,6.388-2.474,19.781,19.781,0,0,1,13.195,7.595c4.823,6.162,6.287,14.855,4.351,25.837l-.059.212c-.244.644-.7,2.552.109,3.6.791,1.016,2.659,1.034,4.087.869,8.956-1.027,88.081,10.911,97.739,20.424a3.257,3.257,0,0,1,1.168,2.64c-1.474,14.742-4.072,22.755-8.424,25.981-3.389,2.512-7.231,1.751-10.948,1.016-4.6-.911-7.908,1.165-11.108,3.172a18.257,18.257,0,0,1-6.241,2.924A1.34,1.34,0,0,1-2825.32,191.809Z" transform="translate(2989.499 -83.02)"/><g transform="translate(160.642 55.897)"><g transform="translate(1.119 1.133)"><path class="h" d="M-2702.426,197.511c-.24-.066-5.367-12.762,5.931-13.764,0,0,13.308.251,8.744,10.648l4.813,1.361s-2.443-6.317,2.4-6.856,7.663,6.811,7.157,10.05" transform="translate(2703.792 -183.747)"/></g><path class="i" d="M-2674.237,199.214a1.174,1.174,0,0,1-.177-.014,1.132,1.132,0,0,1-.944-1.293,10.5,10.5,0,0,0-2.649-7.355,3.865,3.865,0,0,0-3.265-1.395,2.038,2.038,0,0,0-1.65.879c-.766,1.262-.108,3.692.182,4.444l.818,2.115-8.246-2.332.522-1.191c1.061-2.418,1.134-4.371.217-5.8-1.631-2.55-6.185-3.21-7.885-3.255-2.7.252-4.538,1.261-5.457,3-1.724,3.258.013,8.186.393,8.952a1.132,1.132,0,0,1,.186.981,1.132,1.132,0,0,1-1.393.79c-1.378-.38-2.389-5.718-2.148-8.373.405-4.469,3.346-7.172,8.281-7.611l.06-.005h.061c.292.006,7.176.182,9.811,4.3,1.175,1.837,1.314,4.1.419,6.729l1.7.481a6.486,6.486,0,0,1,.543-4.4,4.219,4.219,0,0,1,3.336-1.955,6.086,6.086,0,0,1,5.152,2.08c2.416,2.525,3.631,6.832,3.25,9.271A1.132,1.132,0,0,1-2674.237,199.214Zm-28.114-3.2Zm-.615-.457Zm0,0h0Zm0,0h0Zm0,0h0Zm0,0h0Zm0,0h0Zm0,0h0Zm0,0h0Zm0,0h0Z" transform="translate(2705.768 -181.746)"/></g><g transform="translate(24.532 69.735)"><g transform="translate(0 2.44)"><path class="h" d="M-2946.171,219.392c3.851-10.621,17.919-8.772,17.919-8.772,25.836,4.955,122.309,25.486,125.357,22.78,6.327-5.618,16.7-3.348,21.481-1.323a40.659,40.659,0,0,1,5.953,2.978" transform="translate(2946.171 -210.497)"/></g><g transform="translate(9.024 0)"><path class="i" d="M-2929.968,206.58a1.153,1.153,0,0,1,1.112-.37l7.732,1.43c5.85,1.122,15.414,3.061,26.487,5.306,32.648,6.62,93.267,18.917,98.012,17.644,6.7-5.824,17.323-3.645,22.567-1.425a41.6,41.6,0,0,1,6.135,3.076,1.133,1.133,0,0,1,.322,1.569,1.131,1.131,0,0,1-.946.509,1.127,1.127,0,0,1-.623-.187,40.518,40.518,0,0,0-5.771-2.88c-10.187-4.313-17.725-1.149-20.287,1.127-.782.694-1.962,1.742-36.951-4.78-19.656-3.664-43.638-8.526-62.907-12.433-8.219-1.666-23.615-4.634-34.167-6.659a1.182,1.182,0,0,1-.978-1.183A1.233,1.233,0,0,1-2929.968,206.58Zm133.416,23.987Z" transform="translate(2930.232 -206.187)"/></g></g><g transform="translate(164.588 59.397)"><g transform="translate(5.662 5.666)"><path class="h" d="M-2688.64,197.972l-.16-.036" transform="translate(2688.8 -197.936)"/></g><path class="i" d="M-2691.473,188.172l-.16-.036a4.284,4.284,0,0,0-2.257-.1,4.209,4.209,0,0,0-2.1.672,4.273,4.273,0,0,0-1.589,1.458,4.27,4.27,0,0,0-1.014,1.926l-.2,1.5a5.64,5.64,0,0,0,.773,2.858l.886,1.145a5.652,5.652,0,0,0,2.5,1.456l.16.036a4.284,4.284,0,0,0,2.257.1,4.209,4.209,0,0,0,2.1-.672,4.275,4.275,0,0,0,1.589-1.458,4.265,4.265,0,0,0,1.013-1.926l.2-1.505a5.623,5.623,0,0,0-.773-2.857l-.885-1.146a5.655,5.655,0,0,0-2.5-1.456Z" transform="translate(2698.8 -187.929)"/></g><g transform="translate(184.286 65.562)"><g transform="translate(2.833 2.831)"><path class="h" d="M-2659,203.9l.018-.08" transform="translate(2659.004 -203.817)"/></g><path class="i" d="M-2658.445,202.48l.019-.08a2.153,2.153,0,0,0,.05-1.129,2.1,2.1,0,0,0-.336-1.053,2.146,2.146,0,0,0-.729-.794,2.136,2.136,0,0,0-.963-.507l-.752-.1a2.817,2.817,0,0,0-1.428.386l-.573.443a2.828,2.828,0,0,0-.728,1.25l-.018.08a2.144,2.144,0,0,0-.051,1.128,2.105,2.105,0,0,0,.336,1.053,2.128,2.128,0,0,0,.729.794,2.122,2.122,0,0,0,.962.507l.752.1a2.816,2.816,0,0,0,1.429-.387l.573-.443a2.824,2.824,0,0,0,.728-1.249Z" transform="translate(2664.007 -198.817)"/></g></g><g class="j" transform="translate(46.481 69.701)"><g transform="translate(1.054 1.031)"><path class="k" d="M-2905.152,210.07l2.726,10.278c.111.417.329.925.762.93.346,0,.587-.33.762-.629a44.659,44.659,0,0,0,3.914-8.713,2.906,2.906,0,0,0,.1-2.2,3.009,3.009,0,0,0-2.061-1.221,12.059,12.059,0,0,0-3.475-.562,4.078,4.078,0,0,0-3.115,1.412Z" transform="translate(2905.543 -207.949)"/></g><path class="i" d="M-2906.983,209.562l2.249,8.48c.276,1.042.413,2.653,1.44,3.274,1.3.786,2.24-.455,2.807-1.453a46.276,46.276,0,0,0,3.319-7.273c.428-1.2,1-2.575.526-3.848a3.6,3.6,0,0,0-2.651-1.991c-2.561-.723-5.877-1.273-7.808,1.073a1.106,1.106,0,0,0-.166,1.286l.391.7c.662,1.2,2.5.126,1.833-1.071l-.391-.705-.166,1.286c.978-1.189,2.546-1.238,3.958-.962a13.125,13.125,0,0,1,2.343.61c.726.292.8.723.612,1.451a30.682,30.682,0,0,1-1.8,4.759q-.556,1.23-1.186,2.424-.286.543-.588,1.077c-.117.208-.23.442-.366.639l-.094.151c-.064.087-.076.084-.034-.01h.564c.167.027.009.141.027-.029a1.883,1.883,0,0,0-.149-.545l-.375-1.413-.75-2.826-1.5-5.653A1.062,1.062,0,0,0-2906.983,209.562Z" transform="translate(2907.404 -206.128)"/></g><g class="j" transform="translate(76.766 74.77)"><g transform="translate(1.043 1.097)"><path class="k" d="M-2852.071,217.21c.556,3.055,1.505,13.392,3.223,13.2.984-.11,7.211-11.154,7.114-11.391a20.276,20.276,0,0,0-5.767-1.983A43.539,43.539,0,0,0-2852.071,217.21Z" transform="translate(2852.071 -217.019)"/></g><path class="i" d="M-2853.894,216.651c.565,3.148.825,6.343,1.5,9.475a8.887,8.887,0,0,0,1.419,3.847,1.6,1.6,0,0,0,2.55-.024,20.743,20.743,0,0,0,2.09-2.934c.84-1.319,1.641-2.662,2.423-4.016.646-1.119,1.287-2.243,1.884-3.389.452-.869.96-1.826-.154-2.472a15.619,15.619,0,0,0-2.286-.979,18.182,18.182,0,0,0-2.862-.891,19.855,19.855,0,0,0-5.538.039c-1.351.119-1.364,2.243,0,2.123a33.452,33.452,0,0,1,4.416-.18,8.427,8.427,0,0,1,1.982.45c.788.251,1.568.54,2.331.861.182.077.436.189.643.289a1.527,1.527,0,0,0,.268.135c.021.005.05.04.07.04.095,0-.408-1.034-.4-1.085-.013.166.139-.271,0,0-.074.146-.143.294-.217.439-.489.955-1.018,1.889-1.548,2.821a69.7,69.7,0,0,1-4.222,6.786c-.05.067-.2.258-.064.087-.062.077-.123.155-.187.23-.1.118-.223.222-.318.342-.142.178.154-.093.057-.041a1.2,1.2,0,0,1,.371-.092.755.755,0,0,1,.281.069c-.109-.057.229.066.011-.01-.045-.016.059.131-.029-.055-.045-.094-.1-.185-.151-.279-.027-.052-.05-.105-.074-.158.018.04.075.19,0-.007-.049-.128-.1-.256-.14-.387a18.248,18.248,0,0,1-.514-1.918c-.708-3.2-.965-6.462-1.542-9.68C-2852.088,214.744-2854.134,215.313-2853.894,216.651Z" transform="translate(2853.913 -215.081)"/></g><g class="j" transform="translate(158.384 87.688)"><g transform="translate(1.06 1.071)"><path class="k" d="M-2707.884,241.852a31.073,31.073,0,0,0,4.739,10.452l2.814-6.316c.606-1.361,1.212-2.951.54-4.28-.738-1.458-2.626-1.84-4.259-1.917A5.63,5.63,0,0,0-2707.884,241.852Z" transform="translate(2707.885 -239.789)"/></g><path class="i" d="M-2709.72,241.313a32.4,32.4,0,0,0,4.846,10.706c.406.581,1.48.792,1.833,0,1.062-2.383,2.2-4.747,3.178-7.166.859-2.124.926-4.563-1.182-5.953a6.562,6.562,0,0,0-5.4-.7,8.481,8.481,0,0,0-2.3,1.332,2.1,2.1,0,0,0-1.013,1.5,1.062,1.062,0,0,0,2.123,0c0,.186-.053.443-.163.5.081-.041.165-.168.234-.231a4.335,4.335,0,0,1,.558-.43,5.314,5.314,0,0,1,1.57-.769,4.472,4.472,0,0,1,3.488.763c1.309,1.119.129,3.227-.414,4.445l-2.513,5.639h1.833a30.737,30.737,0,0,1-4.632-10.2A1.063,1.063,0,0,0-2709.72,241.313Z" transform="translate(2709.758 -237.897)"/></g><g class="j" transform="translate(43.705 65.136)"><path class="i" d="M-2910.32,202.534c.021-.029.144-.2.044-.061s.037-.044.048-.057q.1-.121.207-.239.212-.234.443-.45c.086-.08.173-.157.262-.233.036-.031.071-.061.107-.09.123-.1.04-.064-.022.014a2.325,2.325,0,0,1,.547-.38q.266-.169.547-.315c.093-.049.187-.1.282-.14l.16-.072c.121-.057-.21.083-.027.011a7.882,7.882,0,0,1,1.274-.382,1.069,1.069,0,0,0,.742-1.306,1.088,1.088,0,0,0-1.306-.742,8.63,8.63,0,0,0-5.141,3.37,1.065,1.065,0,0,0,.381,1.453,1.093,1.093,0,0,0,1.453-.381Z" transform="translate(2912.307 -198.065)"/></g><g class="j" transform="translate(155.086 84.934)"><path class="i" d="M-2713.458,237.078c0-.085.013-.169.024-.254l-.038.283a3.239,3.239,0,0,1,.216-.772l-.107.254a3.486,3.486,0,0,1,.427-.73l-.166.215a3.574,3.574,0,0,1,.628-.629l-.215.166a3.405,3.405,0,0,1,.73-.425l-.253.107a3.12,3.12,0,0,1,.649-.187,1.064,1.064,0,0,0,.634-.488,1.084,1.084,0,0,0,.107-.818,1.076,1.076,0,0,0-.488-.634,1.2,1.2,0,0,0-.818-.107,4.163,4.163,0,0,0-2.328,1.333,4.4,4.4,0,0,0-1.126,2.686,1.068,1.068,0,0,0,1.062,1.062,1.086,1.086,0,0,0,1.062-1.062Z" transform="translate(2715.582 -233.032)"/></g><g transform="translate(1.968 2.315)"><path class="n" d="M-2951.2,99.77c-27.8,11.261-10.356,26.178-12.675,37.925s-13.723,7.84-13.083,22.006c.2,4.347,6.019,8.485,7.231,10.281l-7.051-3.023s-8.624.374-9.216-11.91c-.683-14.164,9.634-14.639,11.95-26.38s-1.348-33.167,20.9-31.38c0,0,6.976-12.165,18.787-9.9,0,0-6.909-2.046-11.775,7.084C-2946.833,95.8-2951.2,99.77-2951.2,99.77Z" transform="translate(2986.024 -87.108)"/></g><g transform="translate(36.383 21.917)"><path class="n" d="M-2922.276,121.73s-5.772,9.461-1.2,9.028,2.338.156,2.338.156-3.966,13.059-1.094,15.039,12.277,1.072,12.277,1.072l7.149-23.009Z" transform="translate(2925.239 -121.73)"/></g><g transform="translate(82.466 29.03)"><path class="n" d="M-2840.879,134.294s-4.321,15.959-2.531,19.8,11.022,3.917,11.022,3.917l5.373-21.426Z" transform="translate(2843.845 -134.294)"/></g><g transform="translate(92.986 55.225)"><path class="n" d="M-2824.011,180.56s-1.588,3.352-1.189,5.238,5.358-4.292,5.358-4.292Z" transform="translate(2825.264 -180.56)"/></g><g transform="translate(14.746 16.365)"><g transform="translate(1.385 1.425)"><path class="k" d="M-2932.391,118.011l-28.618-3.569c9.26,1.389,19.285,2.811,28.618,3.569-.359,1.207-.98,3.069-1.412,4.343a1.173,1.173,0,0,0,.971,1.535,17.97,17.97,0,0,1,2.955.662,66.222,66.222,0,0,0-2.376,12.9c-.274,3.3-.126,7.046,2.306,9.286,1.27,1.17,27.765,3.658,28.833,2.827,3.722-2.894,4.7-15.54,4.944-19.619.031-.521.115-1.146.59-1.363a1.434,1.434,0,0,1,.739-.057c1.117.111,4.993.848,6.11.959l.406.757c-1.9,5.836-3.74,18.917,2.263,21.1,3.566,1.3,7.071-.037,11.321-1.115,2.1-.532,4.9-.951,10.251-.116,4.689.73,5.084-10.41,5.737-17.2,4.561.516,4.024-1.605,4.259-4.109C-2855.607,128.647-2908.542,121.246-2932.391,118.011Z" transform="translate(2961.009 -114.442)"/></g><path d="M-2933.452,115.5l-9.685-1.208-15.37-1.917-3.563-.444c-1.568-.2-1.954,2.544-.376,2.78,9.631,1.444,19.284,2.824,28.994,3.619l-1.365-1.791c-.26.867-.54,1.729-.824,2.589a7.471,7.471,0,0,0-.684,2.7c.177,2.542,3.18,2.431,5.011,2.993l-.989-1.742a61.378,61.378,0,0,0-2.514,14.746,14.347,14.347,0,0,0,.852,5.9c.544,1.324,1.414,2.883,2.823,3.421a20.234,20.234,0,0,0,4.228.855c2.557.378,5.127.68,7.7.951,4.855.513,9.752,1.011,14.636,1.1a16.2,16.2,0,0,0,1.883-.038,2.883,2.883,0,0,0,2.06-1.041c1.941-2.143,2.723-5.273,3.313-8.026a75.164,75.164,0,0,0,1.319-9.466q.076-.893.135-1.789c.015-.218.028-.436.042-.654a2.159,2.159,0,0,0,.022-.348c.014.068.016-.172.034-.156.14.127-.627.115-.258.31a1.628,1.628,0,0,0,.4.042c-.309-.037.061.011.176.029.39.059.78.124,1.17.189.814.136,1.627.277,2.442.412.679.112,1.359.224,2.043.3l-1.222-.7.4.757-.142-1.091a38.822,38.822,0,0,0-1.88,12.463c.071,3.812.9,8.684,4.9,10.286,2.9,1.162,6.076.6,9-.149,1.327-.341,2.642-.742,3.981-1.035a13.027,13.027,0,0,1,2.521-.344,26.252,26.252,0,0,1,3.667.071,17.27,17.27,0,0,0,4.115.333,5.108,5.108,0,0,0,3.546-3.293,26.911,26.911,0,0,0,1.746-7.467c.332-2.6.51-5.217.758-7.826l-1.416,1.415c1.748.183,3.872.109,4.923-1.541.745-1.171.634-2.658.752-3.984a1.412,1.412,0,0,0-1.04-1.365c-1.986-.272-3.97-.554-5.956-.831l-14.25-1.986q-9.4-1.31-18.808-2.615-9.91-1.375-19.821-2.744-8.62-1.189-17.243-2.365l-1.819-.247a1.464,1.464,0,0,0-1.741.989,1.425,1.425,0,0,0,.989,1.741q8.331,1.13,16.658,2.282,9.893,1.363,19.784,2.736,9.563,1.327,19.125,2.658,7.478,1.04,14.957,2.084l4.809.671c.788.11,1.592.279,2.387.332.058,0,.117.016.176.024l-1.039-1.365c-.047.531-.062,1.063-.107,1.594-.007.078-.066.51-.007.141-.017.108-.034.216-.059.322s-.054.2-.082.3c-.072.259-.011-.242-.011.029,0,.076-.26.325,0,.035a2.261,2.261,0,0,1-.211.209c.271-.229,0-.008-.072.01.318-.08-.05.014-.118.03a6.915,6.915,0,0,1-2.18.022c-.811-.085-1.349.721-1.415,1.415-.259,2.718-.436,5.513-.8,8.178a32.824,32.824,0,0,1-.788,4.065,8.285,8.285,0,0,1-1.119,2.749c-.063.1-.129.194-.2.286.207-.271-.021.014-.062.054-.073.072-.484.418-.174.195-.108.078-.631.322-.259.189-.149.053-.68.112-.288.1a19.314,19.314,0,0,1-2.208-.247c-.9-.109-1.811-.19-2.72-.229a25.735,25.735,0,0,0-7.885,1.026,29.212,29.212,0,0,1-5.356,1.155,8.864,8.864,0,0,1-2.316-.082,5.014,5.014,0,0,1-1.773-.592c-.1-.062-.2-.128-.3-.2-.322-.221.2.187-.092-.075-.181-.164-.349-.335-.512-.515-.055-.061-.107-.126-.157-.19.191.247-.054-.088-.072-.118-.158-.257-.314-.512-.448-.784a6.423,6.423,0,0,1-.449-1.2,14.026,14.026,0,0,1-.387-1.747c-.063-.394-.119-.957-.153-1.523-.043-.694-.054-1.389-.043-2.084a35.855,35.855,0,0,1,.3-4.005c.131-1.015.369-2.351.619-3.484.239-1.083.617-2.133.859-3.211a2.426,2.426,0,0,0-.506-1.769,1.487,1.487,0,0,0-1.075-.754c-.121-.023-.245-.03-.366-.045l.047.006-.255-.037c-1.284-.2-2.562-.429-3.844-.638-1.517-.247-3.408-.727-4.272.975a8.932,8.932,0,0,0-.467,3.3c-.183,2.439-.434,4.8-.82,7.132-.218,1.315-.475,2.625-.8,3.918-.161.637-.339,1.269-.542,1.894-.163.5-.437,1.236-.552,1.493a11.09,11.09,0,0,1-.681,1.307c-.065.105-.135.207-.2.31-.026.04-.268.356-.059.093a5.029,5.029,0,0,1-.444.491,1.565,1.565,0,0,0-.233.208c.114-.183.274-.186.165-.132.462-.225.35-.148.2-.1-.327.111.147-.022.138-.01-.028.037-.273.026-.321.029a32.394,32.394,0,0,1-3.845-.057c-4.305-.211-8.606-.6-12.891-1.064q-1.6-.172-3.2-.365-.78-.1-1.558-.2c-.1-.014-.686-.091-.364-.048l-.825-.114a38.569,38.569,0,0,1-4.113-.728c-.187-.048-.368-.116-.554-.162-.3-.075.233.112.138.062-.263-.137-.041.105.119.119-.185-.015-.53-.546-.645-.7a5.925,5.925,0,0,1-.559-.944,8.116,8.116,0,0,1-.636-2.18,19.835,19.835,0,0,1,0-4.993q.276-3.017.845-6,.578-3.031,1.434-6a1.44,1.44,0,0,0-.989-1.742,18.925,18.925,0,0,0-2.33-.564,4.725,4.725,0,0,0-.624-.1c-.236-.007-.16-.111-.053.036.167.228.081.14.2-.208.444-1.316.885-2.634,1.284-3.964a1.434,1.434,0,0,0-1.365-1.792c-9.458-.774-18.86-2.111-28.241-3.518l-.377,2.78,9.685,1.208,15.37,1.917,3.563.444a1.423,1.423,0,0,0,1.416-1.415A1.451,1.451,0,0,0-2933.452,115.5Z" transform="translate(2963.455 -111.924)"/><g transform="translate(33.418 26.311)"><g transform="translate(1.415 1.421)"><path class="k" d="M-2901.932,160.9l23.007,2.393" transform="translate(2901.932 -160.905)"/></g><path d="M-2903.016,161.232l23.007,2.393a1.425,1.425,0,0,0,1.415-1.415,1.447,1.447,0,0,0-1.415-1.415l-23.007-2.393a1.425,1.425,0,0,0-1.416,1.415,1.447,1.447,0,0,0,1.416,1.415Z" transform="translate(2904.432 -158.395)"/></g><g transform="translate(33.469 21.777)"><g transform="translate(1.415 1.421)"><path class="k" d="M-2901.841,152.9l23.664,2.461" transform="translate(2901.841 -152.898)"/></g><path d="M-2902.926,153.225l23.664,2.461a1.425,1.425,0,0,0,1.415-1.415,1.447,1.447,0,0,0-1.415-1.415l-23.664-2.461a1.425,1.425,0,0,0-1.415,1.415,1.447,1.447,0,0,0,1.415,1.415Z" transform="translate(2904.341 -150.388)"/></g><g transform="translate(34.949 17.454)"><g transform="translate(1.415 1.421)"><path class="k" d="M-2899.226,145.262l23.663,2.461" transform="translate(2899.226 -145.262)"/></g><path d="M-2900.311,145.589l23.664,2.461a1.425,1.425,0,0,0,1.415-1.415,1.447,1.447,0,0,0-1.415-1.415l-23.664-2.461a1.425,1.425,0,0,0-1.415,1.415,1.448,1.448,0,0,0,1.415,1.415Z" transform="translate(2901.726 -142.752)"/></g><g transform="translate(35.777 12.982)"><g transform="translate(1.415 1.421)"><path class="k" d="M-2897.764,137.363l23.663,2.461" transform="translate(2897.764 -137.363)"/></g><path d="M-2898.848,137.69l23.663,2.461a1.425,1.425,0,0,0,1.416-1.415,1.448,1.448,0,0,0-1.416-1.415l-23.663-2.461a1.425,1.425,0,0,0-1.416,1.415,1.447,1.447,0,0,0,1.416,1.415Z" transform="translate(2900.264 -134.853)"/></g><g transform="translate(75.231 30.848)"><g transform="translate(1.415 1.423)"><path class="k" d="M-2828.08,168.923l10.237,1.3" transform="translate(2828.08 -168.923)"/></g><path d="M-2829.165,169.248l10.237,1.3a1.423,1.423,0,0,0,1.415-1.415,1.451,1.451,0,0,0-1.415-1.415l-10.237-1.3a1.423,1.423,0,0,0-1.415,1.415,1.451,1.451,0,0,0,1.415,1.415Z" transform="translate(2830.58 -166.409)"/></g><g transform="translate(75.586 26.353)"><g transform="translate(1.415 1.423)"><path class="k" d="M-2827.453,160.983l20.573,2.613" transform="translate(2827.453 -160.983)"/></g><path d="M-2828.537,161.308l20.574,2.613a1.422,1.422,0,0,0,1.415-1.415,1.451,1.451,0,0,0-1.415-1.415l-20.574-2.613a1.423,1.423,0,0,0-1.416,1.415,1.451,1.451,0,0,0,1.416,1.415Z" transform="translate(2829.953 -158.469)"/></g><g transform="translate(76.229 21.861)"><g transform="translate(1.415 1.423)"><path class="k" d="M-2826.317,153.049l20.574,2.613" transform="translate(2826.317 -153.049)"/></g><path d="M-2827.4,153.374l20.574,2.613a1.423,1.423,0,0,0,1.416-1.415,1.451,1.451,0,0,0-1.416-1.415l-20.574-2.613a1.423,1.423,0,0,0-1.416,1.415,1.452,1.452,0,0,0,1.416,1.415Z" transform="translate(2828.817 -150.535)"/></g><g transform="translate(77.735 17.54)"><g transform="translate(1.415 1.423)"><path class="k" d="M-2823.658,145.417l20.573,2.613" transform="translate(2823.658 -145.417)"/></g><path d="M-2824.742,145.742l20.573,2.613a1.423,1.423,0,0,0,1.416-1.415,1.451,1.451,0,0,0-1.416-1.415l-20.573-2.613a1.423,1.423,0,0,0-1.416,1.415,1.451,1.451,0,0,0,1.416,1.415Z" transform="translate(2826.158 -142.903)"/></g></g><g transform="translate(93.417 51.744)"><path d="M-2814.036,174.454a15.735,15.735,0,0,0-10.3,8.361,1.454,1.454,0,0,0,.508,1.936,1.428,1.428,0,0,0,1.937-.508,12.531,12.531,0,0,1,3.587-4.582c.024-.019.293-.236.189-.154s.171-.127.2-.145q.315-.23.642-.442a14.031,14.031,0,0,1,1.286-.746c.231-.118.466-.229.7-.336.13-.059-.105.038.118-.05.132-.053.263-.1.4-.153a13.931,13.931,0,0,1,1.49-.452,1.436,1.436,0,0,0,.989-1.742,1.438,1.438,0,0,0-1.742-.989Z" transform="translate(2824.503 -174.411)"/></g></g><g transform="translate(-3341.913 13212.382)"><g transform="translate(0 0)"><path class="f" d="M-3106.552,104.681l-.2.176C-3106.7,104.743-3106.643,104.681-3106.552,104.681Z" transform="translate(3106.75 -104.681)"/></g></g><g transform="translate(-3339.244 13225.378)"><g transform="translate(1.393 1.409)"><path class="c" d="M-2992.838,372.542a4.633,4.633,0,0,0,4.122-4.356c.745-13.559,2.638-61.117-5.486-88.316-3.89-13.025-15.564-17.617-21.627-18.5-12.394-1.812-23.848,9.788-29.908,16.36-.77-32.824-8.739-145.1-31.051-147.553-6.216-.683-14.342,5.562-19.455,11.176a12.772,12.772,0,0,0-3.131,10.868l36.923,204.9a5.1,5.1,0,0,0,4.029,4.1c12.765,2.536,57.183,11.317,60.961,11.489A30.318,30.318,0,0,0-2992.838,372.542Z" transform="translate(3099.576 -130.123)"/></g><g transform="translate(0 0)"><path class="b" d="M-2993.528,372.828a6.155,6.155,0,0,0,5.172-5.928c.1-1.515.156-3.034.223-4.55q.285-6.471.407-12.949c.22-11.619.086-23.257-.662-34.857-.751-11.646-1.965-23.477-5.117-34.749a28.058,28.058,0,0,0-8.952-14.438,29.986,29.986,0,0,0-12.07-6.049c-12.05-2.871-22.77,5.481-30.682,13.593-.879.9-1.742,1.82-2.6,2.745l2.416,1c-.175-7.391-.557-14.778-1.017-22.157q-.941-15.091-2.417-30.141c-1.087-11.065-2.395-22.111-4.043-33.107-1.527-10.187-3.326-20.355-5.8-30.358-1.92-7.763-4.167-15.655-7.861-22.786-2.169-4.189-5.477-9.4-10.528-10.308a14.317,14.317,0,0,0-8.4,1.527,37.607,37.607,0,0,0-9.262,6.387c-2.794,2.513-5.5,5.227-6.677,8.888a14.66,14.66,0,0,0-.4,6.97c.327,1.934.7,3.862,1.044,5.792l2.527,14.024,3.67,20.369,4.473,24.823,4.935,27.387,5.057,28.06,4.856,26.95,4.274,23.716,3.372,18.709,2.128,11.811.491,2.728a6.711,6.711,0,0,0,4.944,5.541c3.816.932,7.742,1.54,11.6,2.3q8.016,1.579,16.037,3.137c9.6,1.863,19.2,3.763,28.843,5.406a34.116,34.116,0,0,0,9.644.564c1.794-.187,1.813-3.02,0-2.831a26.69,26.69,0,0,1-4.783.16c-.144-.011-.287-.029-.43-.044-.089-.009-.179-.022-.268-.033-.2-.025.3.044-.067-.01-1.281-.186-2.557-.4-3.832-.619-4.254-.733-8.5-1.529-12.74-2.329q-15.9-3-31.773-6.154c-3.767-.742-7.57-1.389-11.314-2.238-2-.453-2.833-1.966-3.161-3.786l-1.438-7.979-2.8-15.545-3.819-21.192-4.543-25.208-4.924-27.324-4.956-27.5-4.7-26.109-4.089-22.686-3.179-17.646-1.924-10.68c-.13-.718-.264-1.436-.389-2.155a12.166,12.166,0,0,1-.184-2.372c.089-4.014,2.344-6.9,5.1-9.573a38.746,38.746,0,0,1,9.118-6.782,16.367,16.367,0,0,1,4.648-1.648,9.051,9.051,0,0,1,2.062-.115c.114.006.806.1.347.022.125.02.252.037.375.067.217.053.435.1.649.168.165.051.65.235.563.2-.13-.055.387.188.507.252q.341.182.667.392a5.771,5.771,0,0,1,1.062.8,15.382,15.382,0,0,1,1.225,1.206,29.94,29.94,0,0,1,4.413,6.9,76.928,76.928,0,0,1,3.98,10.125,212.246,212.246,0,0,1,6.541,27.124c1.951,10.564,3.456,21.208,4.719,31.875q1.871,15.782,3.079,31.634c.678,8.7,1.236,17.408,1.623,26.124.137,3.092.252,6.185.325,9.28a1.432,1.432,0,0,0,2.417,1,72.961,72.961,0,0,1,12-10.9c4.823-3.316,10.63-5.931,16.617-5.081a25.421,25.421,0,0,1,20.156,16.274,90.5,90.5,0,0,1,3.531,15.353c.93,5.712,1.547,11.471,2,17.239.881,11.273,1.123,22.6,1.017,33.9q-.064,6.815-.307,13.627-.1,2.671-.218,5.342a17.209,17.209,0,0,1-.347,4.475,3.388,3.388,0,0,1-2.923,2.223C-2996.076,370.361-2995.313,373.089-2993.528,372.828Z" transform="translate(3102.036 -127.635)"/></g></g><g transform="translate(-3336.435 13225.378)"><g transform="translate(0 1.408)"><path class="c" d="M-2987.63,368.188a4.612,4.612,0,0,1-1.347,3.018l-.793-1.246a3.6,3.6,0,0,1-2.2,1.189,25.629,25.629,0,0,1-4.563.136c-.142-.011-.289-.028-.43-.045-.085-.006-.17-.017-.249-.028h-.04l-.028-.006a.021.021,0,0,0-.017-.006c-1.28-.187-2.559-.4-3.833-.623-4.252-.73-8.5-1.529-12.739-2.327q-15.9-3-31.774-6.154c-.521-.1-1.042-.2-1.563-.3-3.25-.623-6.522-1.206-9.75-1.936-2-.453-2.837-1.965-3.165-3.788q-.544-3.032-1.087-6.058c-.119-.64-.232-1.28-.346-1.919q-1.4-7.771-2.8-15.547-1.911-10.59-3.822-21.192-2.267-12.6-4.541-25.206-2.463-13.665-4.926-27.324-2.48-13.75-4.954-27.5l-4.705-26.106q-2.046-11.346-4.088-22.687-1.588-8.824-3.182-17.648-.96-5.342-1.925-10.678c-.13-.719-.26-1.438-.385-2.157a11.894,11.894,0,0,1-.187-2.372,11.684,11.684,0,0,1,3.058-7.394c-.17-.561-.329-1.1-.481-1.636,5.129-5.418,12.835-11.12,18.791-10.469,22.313,2.452,30.285,114.73,31.055,147.557,6.058-6.573,17.512-18.174,29.906-16.363,6.063.883,17.738,5.475,21.628,18.5C-2984.991,307.069-2986.888,354.628-2987.63,368.188Z" transform="translate(3097.075 -130.121)"/></g><g transform="translate(2.109 0)"><path class="b" d="M-2984.621,314.545c-.747-11.646-1.965-23.479-5.118-34.746a28.035,28.035,0,0,0-8.951-14.443,30.024,30.024,0,0,0-12.065-6.047c-12.054-2.87-22.772,5.481-30.687,13.594-.091.091-.181.187-.272.283-.2-6.239-.538-12.473-.923-18.7q-.943-15.091-2.418-30.138c-1.087-11.069-2.395-22.115-4.042-33.11-1.529-10.186-3.324-20.354-5.8-30.358-1.919-7.762-4.167-15.655-7.864-22.783-2.168-4.19-5.475-9.4-10.525-10.31a14.267,14.267,0,0,0-8.4,1.529,37.433,37.433,0,0,0-9.263,6.387c-.821.736-1.63,1.489-2.4,2.282.153.51.306,1.03.47,1.574s.311,1.076.481,1.636a27.238,27.238,0,0,1,2.044-2.18,38.719,38.719,0,0,1,9.115-6.783,16.62,16.62,0,0,1,4.648-1.648,9.361,9.361,0,0,1,2.066-.113c.079.006.453.051.5.051.073.011.147.023.221.04.221.051.436.1.651.17.125.04.436.153.538.187.006,0,.006,0,.011.006.068.04.419.2.521.255.227.119.448.255.663.391a5.677,5.677,0,0,1,1.064.8,14.4,14.4,0,0,1,1.223,1.206,29.994,29.994,0,0,1,4.417,6.9,77.048,77.048,0,0,1,3.98,10.129,211.984,211.984,0,0,1,6.539,27.12c1.953,10.565,3.459,21.209,4.722,31.876q1.869,15.779,3.08,31.632c.674,8.7,1.234,17.41,1.619,26.123.136,3.1.255,6.188.328,9.285a1.428,1.428,0,0,0,2.412,1,72.815,72.815,0,0,1,12-10.9c4.818-3.318,10.627-5.934,16.612-5.084a25.417,25.417,0,0,1,20.156,16.278,90.057,90.057,0,0,1,3.533,15.349c.929,5.713,1.545,11.471,2,17.24.877,11.273,1.121,22.6,1.019,33.9q-.068,6.82-.312,13.628c-.062,1.783-.136,3.561-.215,5.345a17.3,17.3,0,0,1-.346,4.473,3.163,3.163,0,0,1-.566,1.008l.793,1.246.759,1.195a6.605,6.605,0,0,0,2.016-4.422c.1-1.512.153-3.035.221-4.552q.289-6.471.408-12.949C-2983.738,337.781-2983.874,326.146-2984.621,314.545Z" transform="translate(3093.35 -127.635)"/></g></g><g transform="translate(-3336.45 13228.33)"><g transform="translate(0 0)"><path class="f" d="M-3046.2,355.7c-11.758-5.007-8.091-161.238-32.016-222.851-2.222.594-17.963,6.48-18.865,18a9.294,9.294,0,0,0,.187,2.372c.124.719.254,1.438.385,2.157q.968,5.333,1.925,10.678,1.588,8.824,3.182,17.648,2.039,11.338,4.088,22.687l4.7,26.106q2.48,13.75,4.954,27.5,2.462,13.665,4.926,27.324,2.267,12.6,4.541,25.206,1.911,10.6,3.822,21.192,1.4,7.771,2.8,15.547.714,3.992,1.433,7.977c.328,1.823,1.166,3.335,3.165,3.788,3.227.73,6.5,1.314,9.75,1.936.521.1,1.042.2,1.563.3q15.872,3.125,31.774,6.154c4.241.8,8.487,1.6,12.739,2.327,1.274.221,2.554.436,3.833.623a.021.021,0,0,1,.017.006l.028.006h.04c.08.011.165.023.249.028.142.017.289.034.431.045a25.629,25.629,0,0,0,4.563-.136,3.6,3.6,0,0,0,2.2-1.189S-3028.785,363.118-3046.2,355.7Z" transform="translate(3097.102 -132.851)"/></g></g><g transform="translate(-3130.602 13340.137)"><g transform="translate(0.283 0.283)"><path class="r" d="M-2693.8,331.161l.106,2.679a.341.341,0,0,1-.182.3l-8.983,5.376a.533.533,0,0,1-.251.073l-29.349,1.158a.411.411,0,0,1-.46-.329c-.041-.635-.12-2-.1-2.875h0c.213-.693,6.875-4.437,7.934-5.028a.713.713,0,0,1,.313-.088l30.509-1.6A.41.41,0,0,1-2693.8,331.161Z" transform="translate(2733.026 -330.825)"/></g><g transform="translate(0 0)"><path class="i" d="M-2732.7,340.814a.681.681,0,0,1-.72-.595c-.046-.711-.121-2.033-.1-2.9l.013-.078c.21-.686,4.5-3.2,8.066-5.192a1.014,1.014,0,0,1,.437-.123l30.507-1.6a.811.811,0,0,1,.568.192.6.6,0,0,1,.2.416l.105,2.679a.617.617,0,0,1-.319.553l-8.984,5.376a.817.817,0,0,1-.385.113l-29.349,1.158Zm-.26-3.418c-.011.845.06,2.1.1,2.787,0,.014.056.065.167.065l29.349-1.158a.253.253,0,0,0,.117-.033l8.983-5.376c.035-.02.044-.041.045-.045l-.105-2.68a.051.051,0,0,0-.015-.019.212.212,0,0,0-.155-.045l-30.508,1.6a.446.446,0,0,0-.19.052C-2729.455,334.938-2732.625,336.914-2732.959,337.4Z" transform="translate(2733.526 -330.325)"/></g></g><g transform="translate(-3130.502 13340.135)"><g transform="translate(0.283 0.283)"><path class="s" d="M-2694.207,330.822l-30.581,1.611a.343.343,0,0,0-.152.042c-.716.4-6.865,3.832-7.879,4.875-.074.076-.007.183.113.179l29.374-1.16a.128.128,0,0,1,.144.105l.123,3.117.17-.007-.133-3.169a.105.105,0,0,1,.056-.093l8.853-5.3C-2694.007,330.953-2694.069,330.814-2694.207,330.822Z" transform="translate(2732.85 -330.822)"/></g><g transform="translate(0 0)"><path class="i" d="M-2703.553,339.669l-.127-3.228-29.23,1.154a.419.419,0,0,1-.406-.24.379.379,0,0,1,.078-.42c1.021-1.05,6.8-4.287,7.945-4.926a.626.626,0,0,1,.276-.077l30.58-1.611a.424.424,0,0,1,.428.283.382.382,0,0,1-.178.441l-8.768,5.251.139,3.341Zm8.468-8.746-29.9,1.576a86.767,86.767,0,0,0-7.47,4.511l28.9-1.14a.437.437,0,0,1,.176.028.464.464,0,0,1,.051-.036Zm-8.6,5.346v0Z" transform="translate(2733.349 -330.322)"/></g></g><g transform="translate(-3096.08 13343.395)"><g transform="translate(0.253 0.257)"><ellipse class="l" cx="0.682" cy="0.775" rx="0.682" ry="0.775" transform="matrix(0.999, -0.039, 0.039, 0.999, 0, 0.054)"/></g><g transform="translate(0 0)"><path class="i" d="M-2671.581,338.2a.923.923,0,0,1-.671-.3,1.107,1.107,0,0,1-.3-.724,1.016,1.016,0,0,1,.922-1.1,1.01,1.01,0,0,1,1.006,1.019h0a1.105,1.105,0,0,1-.241.746.919.919,0,0,1-.681.35Zm-.012-1.55h-.013a.454.454,0,0,0-.379.508.548.548,0,0,0,.143.356.362.362,0,0,0,.275.12.361.361,0,0,0,.265-.142.544.544,0,0,0,.115-.366h0A.457.457,0,0,0-2671.593,336.647Z" transform="translate(2672.552 -336.08)"/></g></g><g transform="translate(-3096.356 13342.979)"><g transform="translate(0 0)"><path class="i" d="M-2672.475,335.493s2.019-.565,2.451.537c.525,1.337-1.007,2.013-1.5,2.149S-2673.994,337.317-2672.475,335.493Z" transform="translate(2673.04 -335.348)"/></g></g><g transform="translate(-3127.261 13339.24)"><g transform="translate(1.094 1.023)"><path class="h" d="M-2725.694,330.549a7.966,7.966,0,0,0,2.2,2.225,14.06,14.06,0,0,0,8.444,2.308,6.262,6.262,0,0,0,3.65-1,2.759,2.759,0,0,0,.956-3.387" transform="translate(2725.694 -330.549)"/></g><g transform="translate(0 0)"><path class="i" d="M-2727.448,330.3c2.2,3.363,6.4,4.852,10.267,5.044,1.891.094,4.021-.016,5.584-1.209a3.833,3.833,0,0,0,1.229-4.757c-.618-1.218-2.451-.145-1.833,1.072.543,1.07-.6,2.12-1.509,2.446a10.15,10.15,0,0,1-4.41.251c-2.767-.3-5.912-1.5-7.495-3.919-.746-1.139-2.585-.076-1.833,1.071Z" transform="translate(2727.625 -328.742)"/></g></g></g><g transform="translate(3808 -12696.889)"><g transform="translate(-3203.526 13089.246)"><g transform="translate(0 0)"><path class="k" d="M-2958.753,10.025a10.49,10.49,0,0,1,2.234-8.643q2.893-3.93,2.51-4.913c-.345-2.434-2.181-2.976-5.572-1.612a13.182,13.182,0,0,0-3.184,1.773c-.83.674-1.068,1.106-.722,1.231l-3.078-12.55a39.24,39.24,0,0,1,5.983-1.226c4.436-.605,8.065-.412,10.764.6a11.212,11.212,0,0,1,7.027,6.461c.767,1.968.98,3.4.6,4.436a36.832,36.832,0,0,1-4.649,7.765c-1.27,1.721-1.562,3.189-.938,4.415Zm8,14.1a6.165,6.165,0,0,0,4.105-3.3,7.822,7.822,0,0,0,1.006-5.39,4.513,4.513,0,0,0-2.722-3.448,8.127,8.127,0,0,0-4.8-.286,4.988,4.988,0,0,0-3.7,3.09,8.268,8.268,0,0,0-.585,5.245C-2956.779,23.495-2954.527,24.853-2950.757,24.122Z" transform="translate(2967.561 17.088)"/><path class="i" d="M-2953.391,24.474a5.881,5.881,0,0,1-3.109-.783,5.91,5.91,0,0,1-2.568-4.168,9.093,9.093,0,0,1,.65-5.76,5.828,5.828,0,0,1,4.289-3.549,8.946,8.946,0,0,1,5.289.339,5.367,5.367,0,0,1,3.208,4.052,8.653,8.653,0,0,1-1.095,5.952,6.973,6.973,0,0,1-4.673,3.711A10.517,10.517,0,0,1-2953.391,24.474Zm1.548-12.834a10.369,10.369,0,0,0-1.969.2,4.159,4.159,0,0,0-3.1,2.624,7.475,7.475,0,0,0-.523,4.738,4.284,4.284,0,0,0,1.8,3.065,5.5,5.5,0,0,0,3.919.365h0a5.337,5.337,0,0,0,3.548-2.9,7.024,7.024,0,0,0,.906-4.811,3.688,3.688,0,0,0-2.252-2.851A5.838,5.838,0,0,0-2951.843,11.64Zm-8.368-1.3-.16-.824a11.262,11.262,0,0,1,2.386-9.3c2.4-3.265,2.4-4.074,2.387-4.156l-.036-.142a1.8,1.8,0,0,0-.747-1.421c-.476-.275-1.5-.419-3.694.463a12.312,12.312,0,0,0-2.987,1.661,4.975,4.975,0,0,0-.422.378l.37,1.505-1.461-.53a1.033,1.033,0,0,1-.686-.8,1.081,1.081,0,0,1,.009-.411l-3.113-12.693.759-.225a40.106,40.106,0,0,1,6.109-1.253c4.6-.627,8.355-.409,11.167.65a12.02,12.02,0,0,1,7.508,6.938c.86,2.205,1.054,3.8.611,5.02a37.57,37.57,0,0,1-4.764,7.979c-1.06,1.437-1.343,2.6-.863,3.542l.493.97ZM-2954-4.4c.233.744,0,2-2.65,5.6a9.837,9.837,0,0,0-2.214,7.161l9.2-1.9a5.566,5.566,0,0,1,1.355-4.283,36.02,36.02,0,0,0,4.549-7.588c.282-.776.086-2.036-.609-3.82a10.436,10.436,0,0,0-6.542-5.984c-2.555-.961-6.041-1.148-10.363-.56a40.469,40.469,0,0,0-5.1.984l2.445,9.969a14.137,14.137,0,0,1,3.234-1.774c2.285-.92,3.968-1.038,5.142-.359A3.337,3.337,0,0,1-2954-4.4Z" transform="translate(2968.363 17.757)"/></g></g><g transform="translate(-3168.234 13076.727)"><g transform="translate(0 0)"><path class="k" d="M-2900.091-12.97a10.489,10.489,0,0,1,3.841-8.059q3.589-3.306,3.4-4.345c.126-2.455-1.574-3.337-5.163-2.644a13.167,13.167,0,0,0-3.463,1.133c-.944.5-1.259.881-.944,1.07l-.63-12.907a39.337,39.337,0,0,1,6.107-.063c4.471.252,8,1.133,10.452,2.645a11.212,11.212,0,0,1,5.667,7.681c.377,2.078.315,3.526-.252,4.47a36.832,36.832,0,0,1-6.044,6.737c-1.574,1.448-2.141,2.833-1.763,4.156Zm5.164,15.363a6.167,6.167,0,0,0,4.658-2.456,7.818,7.818,0,0,0,2.015-5.1,4.512,4.512,0,0,0-2.015-3.9,8.128,8.128,0,0,0-4.658-1.2,4.989,4.989,0,0,0-4.219,2.33A8.267,8.267,0,0,0-2900.72-2.9C-2900.72.629-2898.768,2.393-2894.927,2.393Z" transform="translate(2903.918 39.702)"/><path class="i" d="M-2895.627,2.554c-5.474,0-6.623-3.328-6.623-6.119a9.093,9.093,0,0,1,1.736-5.531,5.831,5.831,0,0,1,4.887-2.666,8.948,8.948,0,0,1,5.128,1.341,5.368,5.368,0,0,1,2.376,4.589A8.65,8.65,0,0,1-2890.333-.2,6.972,6.972,0,0,1-2895.627,2.554Zm0-12.656a4.157,4.157,0,0,0-3.545,1.984,7.478,7.478,0,0,0-1.417,4.552c0,3.042,1.577,4.458,4.962,4.458a5.339,5.339,0,0,0,4.036-2.175,7.019,7.019,0,0,0,1.807-4.55,3.688,3.688,0,0,0-1.667-3.228A7.35,7.35,0,0,0-2895.627-10.1Zm-5.994-2.7v-.84a11.263,11.263,0,0,1,4.115-8.675c2.982-2.747,3.129-3.543,3.136-3.625l-.017-.094.009-.051a1.8,1.8,0,0,0-.463-1.537c-.415-.36-1.4-.7-3.714-.249a12.352,12.352,0,0,0-3.249,1.061,4.99,4.99,0,0,0-.486.29l.076,1.549-1.333-.8a1.033,1.033,0,0,1-.521-.913,1.068,1.068,0,0,1,.088-.4l-.637-13.058.789-.076a40.2,40.2,0,0,1,6.236-.065c4.633.261,8.28,1.192,10.838,2.766a12.021,12.021,0,0,1,6.049,8.242c.424,2.329.31,3.932-.357,5.044a37.6,37.6,0,0,1-6.2,6.925c-1.314,1.209-1.814,2.294-1.523,3.312l.3,1.046Zm8.9-13.283c.086.775-.378,1.963-3.67,5a9.84,9.84,0,0,0-3.538,6.608l9.4-.106a5.567,5.567,0,0,1,2.146-3.947,36.045,36.045,0,0,0,5.913-6.581c.423-.708.472-1.982.129-3.866a10.436,10.436,0,0,0-5.281-7.121c-2.324-1.431-5.711-2.279-10.067-2.525a40.377,40.377,0,0,0-5.192,0l.5,10.252a14.114,14.114,0,0,1,3.512-1.126c2.42-.467,4.093-.261,5.117.627A3.339,3.339,0,0,1-2892.717-26.083Z" transform="translate(2904.618 40.371)"/></g></g><g transform="translate(-3136.129 13090.569)"><g transform="translate(0 0)"><path class="k" d="M-2842.621,12.113a10.488,10.488,0,0,1,5.189-7.264q4.111-2.628,4.106-3.684c.553-2.4-.967-3.56-4.622-3.506a13.161,13.161,0,0,0-3.607.511c-1.018.332-1.394.648-1.117.889l1.634-12.819a39.334,39.334,0,0,1,6.025,1c4.357,1.029,7.675,2.512,9.829,4.429a11.21,11.21,0,0,1,4.238,8.553c.009,2.112-.306,3.526-1.029,4.357a36.778,36.778,0,0,1-7.127,5.578c-1.8,1.151-2.6,2.416-2.462,3.784Zm2.4,16.028a6.168,6.168,0,0,0,5.016-1.6,7.821,7.821,0,0,0,2.874-4.669,4.514,4.514,0,0,0-1.3-4.2,8.134,8.134,0,0,0-4.378-1.991,4.988,4.988,0,0,0-4.561,1.557,8.267,8.267,0,0,0-2.43,4.685C-2845.617,25.393-2844,27.47-2840.221,28.141Z" transform="translate(2845.958 14.65)"/><path class="i" d="M-2840,28.333a5.92,5.92,0,0,1-1.036-.092,7.063,7.063,0,0,1-4.552-2.37,5.91,5.91,0,0,1-.9-4.812,9.1,9.1,0,0,1,2.676-5.142,5.83,5.83,0,0,1,5.278-1.772,8.948,8.948,0,0,1,4.814,2.216,5.369,5.369,0,0,1,1.538,4.933,8.653,8.653,0,0,1-3.159,5.162A7.476,7.476,0,0,1-2840,28.333Zm.4-12.623a4.306,4.306,0,0,0-3.068,1.4,7.481,7.481,0,0,0-2.191,4.235,4.284,4.284,0,0,0,.581,3.508,5.5,5.5,0,0,0,3.526,1.748h0a5.335,5.335,0,0,0,4.355-1.437A7.025,7.025,0,0,0-2833.817,21a3.689,3.689,0,0,0-1.078-3.47,7.353,7.353,0,0,0-3.929-1.754A4.417,4.417,0,0,0-2839.594,15.71Zm8.3-1.484-12.96-2.149.147-.827a11.262,11.262,0,0,1,5.567-7.824c3.415-2.184,3.7-2.942,3.72-3.021v-.1l.017-.049a1.8,1.8,0,0,0-.187-1.594c-.345-.428-1.243-.933-3.614-.895a12.326,12.326,0,0,0-3.384.477,4.935,4.935,0,0,0-.529.2l-.2,1.538-1.172-1.019a1.033,1.033,0,0,1-.354-.991,1.059,1.059,0,0,1,.156-.376l1.653-12.969.789.063a40.123,40.123,0,0,1,6.152,1.025c4.515,1.066,7.944,2.619,10.188,4.616a12.022,12.022,0,0,1,4.517,9.172c.01,2.367-.381,3.926-1.233,4.9a37.6,37.6,0,0,1-7.312,5.736c-1.505.961-2.186,1.942-2.077,3Zm-11-3.507,9.27,1.537a5.565,5.565,0,0,1,2.8-3.511,36.042,36.042,0,0,0,6.971-5.448c.541-.623.811-1.869.8-3.784A10.435,10.435,0,0,0-2826.4-8.42c-2.039-1.815-5.225-3.242-9.471-4.244a40.438,40.438,0,0,0-5.111-.912l-1.3,10.181a14.137,14.137,0,0,1,3.655-.494c2.466-.041,4.076.457,4.928,1.511a3.336,3.336,0,0,1,.531,2.93c-.05.777-.715,1.867-4.486,4.277A9.839,9.839,0,0,0-2842.292,10.719Z" transform="translate(2846.628 15.368)"/></g></g></g></g></svg>