<svg xmlns="http://www.w3.org/2000/svg" width="434.609" height="295.51" viewBox="0 0 434.609 295.51"><defs><style>.a{fill:#9082de;}</style></defs><g transform="translate(-18.81 -48.165)"><g transform="translate(84.954 263.28)"><path class="a" d="M77.8,197.532c-2.829-10.019-15.85-9.046-15.85-9.046l.359,6.967c7.525-1.3,12.2,7.522,12.2,7.522Z" transform="translate(-61.948 -188.46)"/></g><g transform="translate(287.725 138.611)"><g transform="translate(0)"><path class="a" d="M198.459,125.232c15.1,4.575,24.5-12.843,24.5-12.843l-9.189-5.236c-4.493,10.67-19.577,9.436-19.577,9.436Z" transform="translate(-194.193 -107.153)"/></g></g><g transform="translate(403.474 243.269)"><path class="a" d="M283.572,182.335c-2.921-8.329-13.889-6.819-13.889-6.819l.67,5.877c6.3-1.5,10.725,5.722,10.725,5.722Z" transform="translate(-269.683 -175.409)"/></g><g transform="translate(230.243 48.165)"><path class="a" d="M170.593,55.092c-2.922-8.329-13.889-6.82-13.889-6.82l.67,5.879c6.3-1.5,10.724,5.721,10.724,5.721Z" transform="translate(-156.704 -48.165)"/></g><g transform="translate(99.39 154.743)"><path class="a" d="M85.252,124.6c-2.922-8.33-13.889-6.82-13.889-6.82l.67,5.877c6.3-1.495,10.725,5.722,10.725,5.722Z" transform="translate(-71.363 -117.674)"/></g><g transform="translate(76.654 83.805)"><path class="a" d="M65.666,71.409C56.955,72.838,56.535,83.9,56.535,83.9l5.9.362c-.377-6.464,7.5-9.566,7.5-9.566Z" transform="translate(-56.535 -71.409)"/></g><g transform="translate(18.81 324.831)"><g transform="translate(0 0)"><path class="a" d="M23.076,246.682c15.1,4.575,24.5-12.844,24.5-12.844L38.386,228.6c-4.491,10.67-19.576,9.436-19.576,9.436Z" transform="translate(-18.81 -228.603)"/></g></g><g transform="translate(444.306 147.656)"><path class="a" d="M305.34,123.049c1.021-6.993-7.32-10-7.32-10l-1.707,4.419c5.025,1.279,5.482,8.042,5.482,8.042Z" transform="translate(-296.313 -113.052)"/></g><g transform="translate(399.626 80.839)"><path class="a" d="M270.669,69.475c-5.889,3.908-2.556,12.124-2.556,12.124l4.43-1.679c-2.4-4.6,2.328-9.451,2.328-9.451Z" transform="translate(-267.173 -69.475)"/></g></g></svg>