<svg xmlns="http://www.w3.org/2000/svg" width="573.01" height="358.626" viewBox="0 0 573.01 358.626"><defs><style>.a{fill:#fdc10f;}</style></defs><g transform="translate(-27.551 -64.546)"><g transform="translate(514.839 399.718)"><path class="a" d="M249.857,214.5c-4.568-16.187-25.606-14.616-25.606-14.616l.577,11.257c12.161-2.1,19.719,12.156,19.719,12.156Z" transform="translate(-224.251 -199.842)"/></g><g transform="translate(320.749 226.065)"><path class="a" d="M158.618,129.745c-11.356,1.2-12.714,15.463-12.714,15.463l7.6.9c-.012-8.378,10.39-11.8,10.39-11.8Z" transform="translate(-145.904 -129.745)"/></g><g transform="translate(439.204 64.546)"><path class="a" d="M193.72,75.005c6.927,17.651,30.352,13.546,30.352,13.546l-1.9-12.565c-13.41,3.709-23.475-11.44-23.475-11.44Z" transform="translate(-193.72 -64.546)"/></g><g transform="translate(162.322 373.183)"><g transform="translate(0)"><path class="a" d="M94.667,189.131c-11.356,1.206-12.714,15.463-12.714,15.463l7.6.9c-.012-8.378,10.392-11.8,10.392-11.8Z" transform="translate(-81.953 -189.131)"/></g></g><g transform="translate(207.24 115.254)"><path class="a" d="M114.669,101.167c1.65-11.3-11.824-16.152-11.824-16.152l-2.76,7.137c8.118,2.069,8.856,13,8.856,13Z" transform="translate(-100.085 -85.015)"/></g><g transform="translate(27.551 297.399)"><path class="a" d="M27.677,165.984c-2.039,17.72,21.431,22.008,21.431,22.008L53.344,176.4c-14.084-1.271-16.115-17.859-16.115-17.859Z" transform="translate(-27.551 -158.54)"/></g><g transform="translate(581.043 204.021)"><path class="a" d="M255.444,136.169c11.4.649,15.05-13.2,15.05-13.2l-7.353-2.123c-1.345,8.272-12.166,9.966-12.166,9.966Z" transform="translate(-250.975 -120.847)"/></g></g></svg>