<svg xmlns="http://www.w3.org/2000/svg" width="471.997" height="98.091" viewBox="0 0 471.997 98.091"><defs><style>.a{fill:#080909;opacity:0.03;}.a,.c{isolation:isolate;}.b{fill:#a86601;}.d{fill:#ffd248;}</style></defs><g transform="translate(-124.963 -729.716)"><ellipse class="a" cx="235.998" cy="30.304" rx="235.998" ry="30.304" transform="translate(124.963 744.453)"/><g transform="translate(171.574 729.716)"><g transform="translate(348.65 34.993)"><path class="b" d="M473.886,769.718l-.307-.462c.031-.02,3.153-2.126,3.589-4.582a3.055,3.055,0,0,0-.59-2.41,1.638,1.638,0,0,0-1.416-.765c-2.71.038-6.642,5.693-6.681,5.751l-.719,1.042.217-1.247c.008-.05.861-5.07-.879-6.552a2.223,2.223,0,0,0-2.266-.188,3.34,3.34,0,0,0-2.109,1.908c-1.145,2.748.932,7.111.953,7.154l-.5.242c-.09-.188-2.207-4.629-.967-7.608a3.878,3.878,0,0,1,2.442-2.22,2.729,2.729,0,0,1,2.8.291c1.449,1.234,1.368,4.332,1.206,5.989,1.271-1.659,4.171-5.083,6.489-5.116h.035a2.2,2.2,0,0,1,1.836.993,3.581,3.581,0,0,1,.688,2.836C477.235,767.462,474.022,769.628,473.886,769.718Z" transform="translate(-461.824 -759.538)"/></g><g transform="translate(101.189 90.445)"><path class="b" d="M250.937,814.444a1.644,1.644,0,0,1,.481-1.392c.806-.811,2.492-1.044,3.862-1.089-1.65-.586-3.8-1.566-4.255-2.81a1.507,1.507,0,0,1,.253-1.465c1.992-2.721,8.682,1.651,8.967,1.837l-.306.462c-1.811-1.195-6.815-3.88-8.212-1.972a.971.971,0,0,0-.181.949c.528,1.455,4.391,2.7,5.835,3.064l-.094.544c-.042,0-4.214-.4-5.476.871a1.1,1.1,0,0,0-.324.942Z" transform="translate(-250.925 -806.798)"/></g><g transform="translate(11.703 3.726)"><path class="b" d="M198.547,744.608a4.2,4.2,0,0,0-1.753-3.424c-2.231-1.415-5.832-.107-5.868-.093l-1.259.466.9-1c.026-.028,2.6-2.935,2.067-5.038a2.7,2.7,0,0,0-1.931-1.774c-4.555-1.616-8.292,7.769-8.474,8.234l-.009.021-.617-.241.006-.015a4.273,4.273,0,0,0-.1-3.386,3.482,3.482,0,0,0-2.953-1.3,3.054,3.054,0,0,0-2.789.947c-.968,1.352-.048,3.728-.039,3.751l-.617.244c-.045-.111-1.06-2.739.116-4.381a3.644,3.644,0,0,1,3.361-1.224A4.089,4.089,0,0,1,182.068,738a3.409,3.409,0,0,1,.509,1.578c1.5-2.98,4.573-7.794,8.344-6.459a3.316,3.316,0,0,1,2.355,2.236c.433,1.7-.754,3.706-1.556,4.811,1.333-.321,3.689-.648,5.429.457a4.826,4.826,0,0,1,2.059,3.928Z" transform="translate(-174.661 -732.891)"/></g><g transform="translate(192.676 55.589)"><path class="b" d="M334.564,786.4c-.231-.141-5.67-3.476-5.669-6.4a2.634,2.634,0,0,1,1.484-2.261,3.991,3.991,0,0,1,3.341-.474c2.76.832,4.754,4.368,5.285,5.4,2.795-1.677,4.876-2.086,6.193-1.221,1.9,1.246,1.427,4.616,1.407,4.759l-.549-.08c0-.032.439-3.165-1.163-4.217-1.162-.761-3.132-.295-5.855,1.388l-.264.164-.133-.283c-.021-.045-2.148-4.5-5.082-5.379a3.463,3.463,0,0,0-2.891.418A2.1,2.1,0,0,0,329.449,780c0,2.614,5.349,5.891,5.4,5.924Z" transform="translate(-328.895 -777.091)"/></g><g transform="translate(391.952)"><path class="b" d="M509.224,767.149a57.658,57.658,0,0,1-6.559-8.439c-4-6.4-4.96-11.476-2.836-15.093.792-1.351,1.741-1.97,2.83-1.849,3.678.418,7.709,10.089,9.792,15.84-.219-2.306-.449-5.336-.534-8.523-.239-9.054.757-15.009,2.962-17.7a4.206,4.206,0,0,1,3.058-1.663,3.206,3.206,0,0,1,2.823,1.231c3.534,4.36.358,19.892-1.389,27.16,1.3-2.125,3.143-4.489,5.028-4.762a1.833,1.833,0,0,1,2,.934c1.153,2.1-.411,7.478-5.022,12.841l-.7-.6c4.535-5.274,5.768-10.239,4.913-11.8a.92.92,0,0,0-1.057-.465c-2.427.35-5.257,5.663-6.143,7.681l-.867-.307c.018-.063,1.735-6.314,2.885-13.152,1.5-8.942,1.379-14.8-.361-16.953a2.313,2.313,0,0,0-2.051-.889,3.273,3.273,0,0,0-2.4,1.326c-4.957,6.049-1.79,29.491-1.758,29.727l-.9.2c-1.637-5.2-6.694-18.8-10.384-19.215-.7-.079-1.331.379-1.929,1.4-4.662,7.944,9.121,22.279,9.26,22.423Z" transform="translate(-498.729 -729.716)"/></g><g transform="translate(0 28.218)"><g class="c" transform="translate(0.673 6.838)"><path class="d" d="M178.27,805.649s-17.87-18.4-11.722-28.874,16.526,22.509,16.526,22.509-5.38-39.005,5.765-39.682,0,39.682,0,39.682,4.131-9.412,8.167-9.994,2.883,7.98-4.323,16.359Z" transform="translate(-165.261 -759.593)"/></g><path class="b" d="M179.645,807.118A82.1,82.1,0,0,1,170.3,795.09c-5.708-9.118-7.067-16.357-4.041-21.514,1.129-1.923,2.486-2.809,4.033-2.634,5.244.595,10.987,14.38,13.956,22.576-.311-3.284-.639-7.6-.759-12.147-.341-12.9,1.078-21.393,4.222-25.227a5.982,5.982,0,0,1,4.358-2.368,4.566,4.566,0,0,1,4.023,1.752c5.037,6.216.509,28.353-1.981,38.713,1.854-3.028,4.481-6.4,7.166-6.786a2.608,2.608,0,0,1,2.848,1.329c1.644,2.994-.586,10.66-7.159,18.3l-1-.857c6.465-7.519,8.222-14.6,7-16.815a1.312,1.312,0,0,0-1.508-.662c-3.456.5-7.492,8.072-8.756,10.947l-1.234-.439c.025-.089,2.472-9,4.111-18.746,2.144-12.746,1.967-21.1-.515-24.162a3.278,3.278,0,0,0-2.923-1.27,4.665,4.665,0,0,0-3.422,1.89c-7.065,8.621-2.553,42.036-2.506,42.372l-1.278.286c-2.333-7.416-9.539-26.791-14.8-27.389-1-.114-1.9.54-2.752,1.995-6.645,11.322,13,31.756,13.2,31.96Z" transform="translate(-164.687 -753.765)"/></g><g transform="translate(118.1 13.241)"><path class="b" d="M271.651,763.516a34.571,34.571,0,0,1-3.945-5.075c-2.41-3.849-2.984-6.9-1.706-9.08.476-.812,1.05-1.186,1.7-1.111,1.32.15,2.807,2.166,4.544,6.163.52,1.2.981,2.394,1.342,3.384-.415-4.318-.9-12.911,1.464-15.791a2.525,2.525,0,0,1,1.839-1,1.923,1.923,0,0,1,1.7.739c2.126,2.624.215,11.966-.835,16.337.781-1.278,1.891-2.7,3.024-2.864a1.1,1.1,0,0,1,1.2.562c.693,1.263-.248,4.5-3.021,7.724l-.42-.361c2.728-3.173,3.47-6.159,2.956-7.1a.554.554,0,0,0-.636-.279c-1.458.21-3.162,3.407-3.7,4.621l-.52-.185c.04-.149,4.084-14.939,1.517-18.107a1.385,1.385,0,0,0-1.233-.536,1.975,1.975,0,0,0-1.444.8c-2.982,3.639-1.077,17.739-1.057,17.882l-.54.12c-.984-3.128-4.026-11.305-6.245-11.556-.422-.05-.8.226-1.162.841-2.8,4.776,5.487,13.4,5.571,13.487Z" transform="translate(-265.338 -741.001)"/></g></g></g></svg>