<svg xmlns="http://www.w3.org/2000/svg" width="50.429" height="57.358" viewBox="0 0 50.429 57.358"><defs><style>.a{fill:none;stroke:#1a1818;stroke-miterlimit:10;}.b{fill:#313133;}.c{fill:#fff;}.d{fill:#1a1818;}</style></defs><g transform="matrix(0.848, -0.53, 0.53, 0.848, -495.425, -339.917)"><path class="a" d="M261.4,598.623c-.008-.266-.022-.528-.038-.789q-.041-.63-.1-1.235a33.938,33.938,0,0,0-1.11-5.2c-.317-1.138-.663-2.276-.988-3.295-.612-1.926-1.148-3.43-1.265-3.734-1.332-3.422-.745-5.435-.049-6.665.539-.954,1.82-1.723,1.822-4.416,0-3.021-3.778-4.863-6.962-2.7.848-1.8,0-4.652-2.686-4.647a3.7,3.7,0,0,0-3.574,3.866,3.478,3.478,0,1,0-6.263,2.62c-2.7-.846-4.211-.2-5.178,1.192a5.052,5.052,0,0,0-.376,2.742c.23,1.623,2.128,2.541,2.854,3.934A12.427,12.427,0,0,1,238.7,586.5c-.022,1-.111,2.016-.225,3.035-.211,1.878-.5,3.769-.6,5.614-.035.674-.046,1.352-.024,2.027a25.327,25.327,0,0,0,.349,3.617,26.04,26.04,0,0,0,.98,3.948,16.585,16.585,0,0,0,1.034,2.441,15.426,15.426,0,0,0,2.375,3.392,14.209,14.209,0,0,0,2.424,2.089,9.164,9.164,0,0,0,8.1,1.531,10.982,10.982,0,0,0,4.138-2.566c.338-.317.674-.661,1.013-1.038a9.64,9.64,0,0,0,1.256-1.775,16.038,16.038,0,0,0,1.768-6.2A28.082,28.082,0,0,0,261.4,598.623Zm-1.411,7.3a11.1,11.1,0,0,1-1.831,3.753,12.421,12.421,0,0,1-3.87,3.289,8.207,8.207,0,0,1-1.747.694,7.346,7.346,0,0,1-1.925.252,8.6,8.6,0,0,1-3.19-.686,13.564,13.564,0,0,1-6.2-5.622,20.715,20.715,0,0,1-2.581-8.521c-.062-.631-.1-1.263-.116-1.886-.1-3.68.812-7.283.856-10.954,0-.3,0-.61-.011-.916a12.926,12.926,0,0,0-.764-4.156,6.9,6.9,0,0,0-1.183-2.116c-.452-.526-.983-.978-1.441-1.5a3.446,3.446,0,0,1-.5-.713,1.8,1.8,0,0,1-.2-.742,4.72,4.72,0,0,1,.2-1.9.9.9,0,0,1,.114-.219,1.756,1.756,0,0,1,.211-.268c.079-.089.162-.176.249-.258a1.7,1.7,0,0,1,.309-.246,2.763,2.763,0,0,1,1.468-.461,6.475,6.475,0,0,1,2.177.352.684.684,0,0,0,.764-1,2.979,2.979,0,0,1,.263-3.576,2.653,2.653,0,0,1,3.531-.328,2.752,2.752,0,0,1,1.229,1.81.682.682,0,0,0,1.332-.182,3.042,3.042,0,0,1,2.608-3.178,2.549,2.549,0,0,1,.964.07,1.579,1.579,0,0,1,.382.138c.068.033.133.07.2.108.041.027.081.052.122.081l.016.011a.009.009,0,0,0,.005,0s0,0,.005,0,0,0,.005,0l.005.005a2.335,2.335,0,0,1,.845,1.425c.019.081.035.165.046.247a.093.093,0,0,1,0,.024c.005.051.008.1.011.154a3.867,3.867,0,0,1-.005.5,2.041,2.041,0,0,1-.07.415c-.022.089-.049.181-.079.268a1.308,1.308,0,0,1-.062.16.7.7,0,0,0,.106.821.684.684,0,0,0,.82.106,4.351,4.351,0,0,1,4-.591,2.966,2.966,0,0,1,1.933,2.536,4.389,4.389,0,0,1-.7,2.826c-.068.106-.141.211-.214.314-.024.035-.051.068-.076.1a.394.394,0,0,1-.027.035.046.046,0,0,0-.008.011l-.038.046a6.447,6.447,0,0,0-1.346,2.7,9.544,9.544,0,0,0,.65,5.354c.005.016.011.033.016.046.636,1.65,1.162,3.357,1.673,5.048.39,1.276.753,2.56,1.07,3.856.144.6.279,1.192.393,1.8a14.708,14.708,0,0,1,.219,1.534c.027.3.054.61.073.916A23.623,23.623,0,0,1,259.986,605.919Z" transform="translate(-1.806 -1.781)"/><g transform="translate(232.091 563.484)"><path class="b" d="M259.975,593.558c-.217-1.285-.534-2.551-.878-3.809-.621-2.275-1.339-4.528-2.126-6.751-.07-.2-.138-.393-.214-.588a8.7,8.7,0,0,1-.662-4.718,6.01,6.01,0,0,1,.241-.808c0-.014.024-.06.038-.095l0,0v-.005h0a0,0,0,0,1,0-.005l0,0c.014-.03.041-.089.046-.1.049-.108.1-.214.16-.317a3.8,3.8,0,0,1,.336-.512l0,0s0-.005.005-.008l.008-.014.016-.019a.4.4,0,0,1,.027-.035l.106-.136c.108-.138.217-.277.323-.417a5.964,5.964,0,0,0,1.1-4.292,4.3,4.3,0,0,0-2.578-3.3,5.431,5.431,0,0,0-4.048-.068,3.937,3.937,0,0,0-1.158-3.123,4.006,4.006,0,0,0-5.5.336,4.5,4.5,0,0,0-.873,1.239,4.544,4.544,0,0,0-3.24-1.491,4.027,4.027,0,0,0-3.915,3.413,4.544,4.544,0,0,0,.024,1.754,4.807,4.807,0,0,0-3.188.445,4.386,4.386,0,0,0-1.4,1.309,4.052,4.052,0,0,0-.542,2.1,4.25,4.25,0,0,0,.35,2.123,6.457,6.457,0,0,0,1.315,1.654,6.976,6.976,0,0,1,1.318,1.548,9.258,9.258,0,0,1,.868,2.5,13.429,13.429,0,0,1,.255,2.161,25.176,25.176,0,0,1-.13,3.262c-.171,1.849-.461,3.684-.621,5.536a27.883,27.883,0,0,0,0,4.875,24.191,24.191,0,0,0,1.627,6.957,15.949,15.949,0,0,0,6.26,7.637,10,10,0,0,0,7.28,1.521,10.472,10.472,0,0,0,4.27-2.079,12.983,12.983,0,0,0,3.476-3.934,19.365,19.365,0,0,0,1.944-9.424A27.03,27.03,0,0,0,259.975,593.558Zm-14.358,17.9a13.579,13.579,0,0,1-6.209-5.626,20.722,20.722,0,0,1-2.584-8.527c-.062-.632-.1-1.263-.117-1.887-.1-3.682.813-7.288.857-10.961,0-.3,0-.61-.011-.916a12.928,12.928,0,0,0-.765-4.159,6.9,6.9,0,0,0-1.185-2.117c-.453-.526-.984-.979-1.442-1.5a3.45,3.45,0,0,1-.5-.713,1.8,1.8,0,0,1-.2-.743,4.722,4.722,0,0,1,.2-1.906.9.9,0,0,1,.114-.22,1.758,1.758,0,0,1,.211-.268c.079-.089.163-.176.249-.258a1.7,1.7,0,0,1,.309-.247,2.768,2.768,0,0,1,1.469-.461,6.49,6.49,0,0,1,2.18.352.685.685,0,0,0,.765-1,2.98,2.98,0,0,1,.263-3.579,2.658,2.658,0,0,1,3.535-.328,2.754,2.754,0,0,1,1.231,1.811.682.682,0,0,0,1.334-.182,3.045,3.045,0,0,1,2.611-3.18,2.555,2.555,0,0,1,.965.07,1.58,1.58,0,0,1,.382.138c.068.032.133.07.2.108.041.027.081.051.122.081l.016.011a.009.009,0,0,0,.005,0s0,0,.005,0,0,0,.005,0l.005.005a2.337,2.337,0,0,1,.846,1.426c.019.081.035.165.046.247a.094.094,0,0,1,0,.024c.005.052.008.1.011.155a3.858,3.858,0,0,1-.005.5,2.039,2.039,0,0,1-.07.415c-.022.089-.049.182-.079.268a1.305,1.305,0,0,1-.062.16.705.705,0,0,0,.106.822.685.685,0,0,0,.821.106,4.358,4.358,0,0,1,4.01-.591,2.968,2.968,0,0,1,1.936,2.538,4.389,4.389,0,0,1-.7,2.828c-.068.106-.141.212-.214.315-.024.035-.051.068-.076.1a.4.4,0,0,1-.027.035.046.046,0,0,0-.008.011l-.038.046a6.449,6.449,0,0,0-1.347,2.7,9.545,9.545,0,0,0,.651,5.357c.005.016.011.032.016.046.637,1.651,1.163,3.359,1.676,5.051.39,1.277.754,2.562,1.071,3.858.144.6.279,1.193.393,1.8a14.71,14.71,0,0,1,.22,1.535c.027.3.054.61.073.916a23.626,23.626,0,0,1-.689,8.22,11.108,11.108,0,0,1-1.833,3.755,12.434,12.434,0,0,1-3.874,3.291,8.221,8.221,0,0,1-1.749.694,7.346,7.346,0,0,1-1.928.252A8.612,8.612,0,0,1,245.617,611.455Z" transform="translate(-232.091 -563.484)"/><path class="c" d="M261.764,607.7a11.1,11.1,0,0,1-1.828,3.75,12.407,12.407,0,0,1-3.865,3.287,8.193,8.193,0,0,1-1.744.693,7.327,7.327,0,0,1-1.923.252,8.581,8.581,0,0,1-3.186-.685,13.549,13.549,0,0,1-6.193-5.618,20.711,20.711,0,0,1-2.577-8.515c-.062-.631-.1-1.262-.116-1.884-.1-3.677.811-7.278.855-10.946,0-.3,0-.609-.011-.915a12.926,12.926,0,0,0-.763-4.153,6.9,6.9,0,0,0-1.182-2.115c-.452-.525-.982-.977-1.439-1.5a3.445,3.445,0,0,1-.5-.712,1.8,1.8,0,0,1-.2-.742,4.721,4.721,0,0,1,.2-1.9.894.894,0,0,1,.114-.219,1.739,1.739,0,0,1,.211-.268c.078-.089.162-.176.249-.257a1.7,1.7,0,0,1,.308-.246,2.758,2.758,0,0,1,1.466-.46,6.467,6.467,0,0,1,2.174.352.684.684,0,0,0,.763-1,2.978,2.978,0,0,1,.262-3.574,2.649,2.649,0,0,1,3.526-.328,2.751,2.751,0,0,1,1.228,1.809.681.681,0,0,0,1.331-.181,3.04,3.04,0,0,1,2.6-3.176,2.546,2.546,0,0,1,.963.07,1.579,1.579,0,0,1,.381.138c.068.033.133.07.2.108.041.027.081.051.122.081l.016.011a.009.009,0,0,0,.005,0s0,0,.005,0,0,0,.005,0l.005.005a2.334,2.334,0,0,1,.844,1.424c.019.081.035.165.046.246a.094.094,0,0,1,0,.024c.005.052.008.1.011.154a3.867,3.867,0,0,1-.005.5,2.037,2.037,0,0,1-.07.414c-.022.089-.049.181-.078.268a1.314,1.314,0,0,1-.062.16.7.7,0,0,0,.105.82.683.683,0,0,0,.819.106,4.343,4.343,0,0,1,4-.59,2.963,2.963,0,0,1,1.931,2.534,4.387,4.387,0,0,1-.7,2.824c-.068.106-.141.211-.214.314-.024.035-.051.068-.076.1a.4.4,0,0,1-.027.035.048.048,0,0,0-.008.011l-.038.046a6.445,6.445,0,0,0-1.344,2.694,9.543,9.543,0,0,0,.649,5.35c.005.016.011.032.016.046.636,1.649,1.16,3.355,1.671,5.044.389,1.275.752,2.559,1.068,3.853.143.6.279,1.191.392,1.8a14.687,14.687,0,0,1,.219,1.532c.027.3.054.609.073.915A23.621,23.621,0,0,1,261.764,607.7Z" transform="translate(-235.691 -567.054)"/></g><path class="b" d="M256.229,643.732a39.973,39.973,0,0,1-7.219,1.5.233.233,0,0,1-.256-.256c.092-.861.164-1.718.192-2.565a.229.229,0,0,1,.261-.221c2.337.327,4.675.669,7,1.093A.233.233,0,0,1,256.229,643.732Z" transform="translate(-12.184 -57.396)"/><path class="b" d="M306.631,651.182q-4.036-.168-8.069-.365a.182.182,0,0,1-.034-.359c2.445-.632,4.718-2.006,7.176-2.6a.18.18,0,0,1,.215.12c.3.93.605,1.949.895,2.976A.182.182,0,0,1,306.631,651.182Z" transform="translate(-48.568 -61.531)"/><path class="b" d="M255.647,681.794c-.031.144-.183.225-.316.286a27.529,27.529,0,0,1-6.3,2.248,18.036,18.036,0,0,0-1.926.375c-.133.042-.267.086-.4.136a25.924,25.924,0,0,1-.358-3.706,12,12,0,0,0,2.732.119c.644-.053,1.28-.169,1.921-.219a17.878,17.878,0,0,1,4.119.325C255.369,681.4,255.7,681.541,255.647,681.794Z" transform="translate(-10.297 -85.721)"/><path class="b" d="M308.917,689.688c-.5-.036-1-.069-1.493-.1a11.406,11.406,0,0,1-1.682-.2,41.133,41.133,0,0,1-6.1-1.42c-1.1-.535.841-.9,4.818-1.292a21.253,21.253,0,0,0,3.917-.855c.219-.064.436-.136.65-.211A28.76,28.76,0,0,1,308.917,689.688Z" transform="translate(-49.25 -89.082)"/><path class="b" d="M263.686,718.378q-2.731,1.595-5.607,2.94c-.189.089-.378.175-.569.261a15.805,15.805,0,0,1-2.434-3.475A40.613,40.613,0,0,1,263.686,718.378Z" transform="translate(-16.816 -112.81)"/><path class="b" d="M309.32,724.453l.179.24a9.734,9.734,0,0,1-1.1,1.492c-.322.358-.641.687-.963.992a.161.161,0,0,1-.172.032,37.979,37.979,0,0,0-3.983-1.372.161.161,0,0,1,.025-.316A52.819,52.819,0,0,0,309.32,724.453Z" transform="translate(-52.016 -117.479)"/><path class="d" d="M333.515,723.35l-.006.094a.048.048,0,0,0-.019,0Z" transform="translate(-73.925 -116.682)"/></g></svg>