<svg xmlns="http://www.w3.org/2000/svg" width="53.164" height="62.39" viewBox="0 0 53.164 62.39"><defs><style>.a{fill:#fff;}.b{fill:#313133;}</style></defs><g transform="translate(-1291.752 -556)"><g transform="matrix(0.875, -0.485, 0.485, 0.875, 459.771, 382.249)"><g transform="translate(636.223 568.322)"><path class="a" d="M664.484,619.324a13.05,13.05,0,0,1-5.6,3.918,9.975,9.975,0,0,1-8.818-1.665,16.717,16.717,0,0,1-6.346-8.615,28.286,28.286,0,0,1-1.42-10.43c.295-5.456,2.107-11.293-.424-16.136-.79-1.514-2.855-2.513-3.105-4.278a5.49,5.49,0,0,1,.41-2.982c1.052-1.517,2.7-2.216,5.633-1.3a3.784,3.784,0,1,1,6.815-2.849,4.019,4.019,0,0,1,3.889-4.2c2.923-.006,3.845,3.094,2.923,5.053,3.465-2.357,7.575-.354,7.575,2.932,0,2.928-1.4,3.765-1.983,4.8-.757,1.338-1.4,3.527.053,7.248.306.793,3.261,9.177,3.659,13.293q.062.658.106,1.344C668.147,610.258,667.587,615.877,664.484,619.324Z" transform="translate(-637.987 -570.062)"/><g transform="translate(0 0)"><path class="b" d="M666.524,601c-.236-1.4-.58-2.772-.955-4.139-.675-2.472-1.455-4.92-2.31-7.336-.077-.212-.15-.427-.233-.639a9.457,9.457,0,0,1-.719-5.126,6.528,6.528,0,0,1,.262-.878c0-.015.026-.065.041-.1l0,0v-.006h0a0,0,0,0,1,0-.006l0,0c.015-.032.044-.1.05-.112.053-.118.112-.233.174-.345a4.123,4.123,0,0,1,.365-.557l0,0a.182.182,0,0,1,.012-.021c0,.006-.006.009-.006.012s.006-.009.009-.015l.018-.021a.435.435,0,0,1,.029-.038l.115-.147c.118-.15.236-.3.351-.454a6.481,6.481,0,0,0,1.193-4.664,4.676,4.676,0,0,0-2.8-3.586,5.9,5.9,0,0,0-4.4-.074,4.279,4.279,0,0,0-1.258-3.394,4.353,4.353,0,0,0-5.972.365,4.887,4.887,0,0,0-.949,1.346,4.939,4.939,0,0,0-3.521-1.62,4.377,4.377,0,0,0-4.254,3.709,4.938,4.938,0,0,0,.027,1.906,5.224,5.224,0,0,0-3.465.483,4.764,4.764,0,0,0-1.517,1.423,4.4,4.4,0,0,0-.589,2.283,4.619,4.619,0,0,0,.38,2.307,7.015,7.015,0,0,0,1.429,1.8,7.582,7.582,0,0,1,1.432,1.682,10.063,10.063,0,0,1,.943,2.719,14.6,14.6,0,0,1,.277,2.348,27.364,27.364,0,0,1-.141,3.544c-.186,2.009-.5,4-.675,6.016a30.291,30.291,0,0,0,0,5.3,26.287,26.287,0,0,0,1.768,7.56,17.332,17.332,0,0,0,6.8,8.3,10.867,10.867,0,0,0,7.911,1.653,11.379,11.379,0,0,0,4.64-2.26,14.109,14.109,0,0,0,3.777-4.275,21.043,21.043,0,0,0,2.112-10.241A29.379,29.379,0,0,0,666.524,601Zm-8.137,19.165a8.931,8.931,0,0,1-1.9.754,7.986,7.986,0,0,1-2.095.274,9.359,9.359,0,0,1-3.471-.745,14.755,14.755,0,0,1-6.747-6.113,22.517,22.517,0,0,1-2.808-9.266c-.068-.686-.109-1.373-.127-2.051-.106-4,.884-7.919.931-11.911,0-.33,0-.663-.012-1a14.048,14.048,0,0,0-.831-4.519,7.5,7.5,0,0,0-1.287-2.3c-.492-.572-1.069-1.064-1.567-1.632a3.746,3.746,0,0,1-.545-.775,1.951,1.951,0,0,1-.218-.807,5.13,5.13,0,0,1,.215-2.071.974.974,0,0,1,.124-.239,1.9,1.9,0,0,1,.23-.292c.085-.1.177-.191.271-.28a1.847,1.847,0,0,1,.336-.268,3.007,3.007,0,0,1,1.6-.5,7.053,7.053,0,0,1,2.369.383.744.744,0,0,0,.831-1.084,3.238,3.238,0,0,1,.286-3.889,2.888,2.888,0,0,1,3.842-.357,2.993,2.993,0,0,1,1.338,1.968.742.742,0,0,0,1.45-.2,3.309,3.309,0,0,1,2.837-3.456,2.777,2.777,0,0,1,1.049.077,1.722,1.722,0,0,1,.415.15c.074.035.144.077.215.118.044.029.088.056.133.088.006,0,.012.009.018.012a.01.01,0,0,0,.006,0s0,0,.006,0,0,0,.006,0l.006.006a2.539,2.539,0,0,1,.919,1.55c.021.088.038.18.05.268a.1.1,0,0,1,0,.027c.006.056.009.112.012.168a4.208,4.208,0,0,1-.006.545,2.221,2.221,0,0,1-.077.451c-.024.1-.053.2-.085.292a1.425,1.425,0,0,1-.068.174.766.766,0,0,0,.115.893.745.745,0,0,0,.893.115,4.735,4.735,0,0,1,4.357-.642,3.225,3.225,0,0,1,2.1,2.758,4.771,4.771,0,0,1-.763,3.073c-.074.115-.153.23-.233.342-.026.038-.056.074-.083.109a.427.427,0,0,1-.029.038.051.051,0,0,0-.009.012l-.041.05a7.009,7.009,0,0,0-1.464,2.931,10.373,10.373,0,0,0,.707,5.822c.006.018.012.035.018.05.692,1.794,1.264,3.65,1.821,5.489.424,1.388.819,2.784,1.164,4.192.156.648.3,1.3.427,1.953a15.976,15.976,0,0,1,.239,1.668c.029.33.059.663.08,1a25.676,25.676,0,0,1-.748,8.933,12.071,12.071,0,0,1-1.992,4.081A13.512,13.512,0,0,1,658.387,620.168Z" transform="translate(-636.223 -568.322)"/></g><path class="b" d="M704.1,701.7a13.049,13.049,0,0,1-5.6,3.918,10.249,10.249,0,0,1,8.965-17.783C707.767,692.633,707.207,698.251,704.1,701.7Z" transform="translate(-677.607 -652.436)"/></g><path class="b" d="M657.9,649.646c0,4.122-3.6,7.466-8.055,7.5h-.068c-.224,0-.448-.009-.666-.026a7.038,7.038,0,0,1-.754-.091,30.3,30.3,0,0,1,0-5.3c.174-2.012.489-4.007.675-6.016a27.364,27.364,0,0,0,.141-3.544c.2-.018.4-.024.6-.024.041,0,.082,0,.124,0,.247,0,.495.015.737.038A7.752,7.752,0,0,1,657.9,649.646Z" transform="translate(-8.475 -52.075)"/></g></g></svg>