<svg xmlns="http://www.w3.org/2000/svg" width="75.936" height="50.51" viewBox="0 0 75.936 50.51"><defs><style>.a{fill:#9f7f74;stroke-miterlimit:10;}.a,.b{stroke:#000;stroke-width:2px;}.b{fill:#4bbaa2;stroke-linecap:round;stroke-linejoin:round;}</style></defs><g transform="translate(-1162.023 -1940.207)"><path class="a" d="M1164.689,1972.172c-5.115-8.2,2.979-17.544,7.61-21.131s11.142-8.248,19.421-9.423,17.688-.631,30.63,6.885,14.822,12.355,14.595,15.559-3.541,10.77-15.171,13.147S1169.8,1980.369,1164.689,1972.172Z"/><path class="a" d="M1205.173,1986.945c-2.279-3.772.809-8.225,2.616-9.95s4.548-6.073,9.8-7.652c3.263-.981,6.784-.353,12.243,3.017s4.677,8.518,4.658,10.017-1.2,5.067-5.888,6.3S1207.452,1990.718,1205.173,1986.945Z"/><path class="b" d="M1181.251,1984.99c2.255-3.216,8.909-16.221,5.325-17.779-2.206-.958-6.329,6.477-6.48,7.78.182-5.463,4.848-16.083,1.493-18.548-2.9-2.134-7.429,16.5-7.385,18.41-.1-1.241.3-10.871-2.143-11.381-2.94-.615-4.569,16.822-1.962,21.257"/></g></svg>