<svg xmlns="http://www.w3.org/2000/svg" width="111.487" height="72.789" viewBox="0 0 111.487 72.789"><defs><style>.a{fill:#fff;}.b{fill:#030504;}</style></defs><g transform="translate(2591.282 -13083.678)"><g transform="translate(-2550.314 13083.678)"><g transform="translate(0 0)"><path class="a" d="M-2295.865,24.66a9.979,9.979,0,0,1,2.491-5.536,5.351,5.351,0,0,1,4.911-2.042,8.441,8.441,0,0,1,4.828,2.063,5.322,5.322,0,0,1,1.553,4.771,9.367,9.367,0,0,1-2.976,5.542c-1.819,1.66-3.575,2.373-5.406,2.12C-2294.6,31.009-2296.423,28.7-2295.865,24.66Zm23.79-55.578-15.583-.923-5.941,43.584,12.574,1.516Z" transform="translate(2297.01 32.944)"/><path class="b" d="M-2290.191,32.2a6.364,6.364,0,0,1-.867-.06,7.548,7.548,0,0,1-5.143-2.551,7.123,7.123,0,0,1-1.154-5.549h0a11.021,11.021,0,0,1,2.759-6.1,6.394,6.394,0,0,1,5.825-2.369,9.47,9.47,0,0,1,5.412,2.346,6.4,6.4,0,0,1,1.864,5.669,10.421,10.421,0,0,1-3.288,6.155A8.025,8.025,0,0,1-2290.191,32.2Zm-5.088-7.874a5.157,5.157,0,0,0,.729,3.971,5.577,5.577,0,0,0,3.779,1.767c1.495.207,2.943-.383,4.557-1.856a8.354,8.354,0,0,0,2.644-4.911,4.285,4.285,0,0,0-1.257-3.888,7.454,7.454,0,0,0-4.229-1.765,4.325,4.325,0,0,0-3.989,1.7,8.978,8.978,0,0,0-2.234,4.978Zm14.638-10.389-14.591-1.758,6.216-45.6,17.755,1.052Zm-12.227-3.584,10.557,1.273,8.519-42.046-13.41-.794Z" transform="translate(2297.462 33.42)"/></g></g><g transform="translate(-2522.083 13095.384)"><g transform="translate(0 0)"><path class="a" d="M-2254.636,35.477a10.3,10.3,0,0,1,3.975-4.436,4.91,4.91,0,0,1,4.986-.487,7.475,7.475,0,0,1,3.594,3.309,5.368,5.368,0,0,1-.164,4.888,9.6,9.6,0,0,1-4.4,4.3c-2.136,1.022-3.915,1.18-5.447.418C-2255.559,41.751-2256.425,39.076-2254.636,35.477Zm38.825-44.89-13.443-5.342-19.235,38.86,10.6,5.027Z" transform="translate(2256.589 16.085)"/><path class="b" d="M-2250.49,44.424a5.575,5.575,0,0,1-2.523-.588,6.833,6.833,0,0,1-3.772-3.913,7.271,7.271,0,0,1,.759-5.486h0a11.342,11.342,0,0,1,4.382-4.874,5.941,5.941,0,0,1,5.983-.522,8.5,8.5,0,0,1,4.072,3.791,6.453,6.453,0,0,1-.168,5.81,10.652,10.652,0,0,1-4.867,4.77A9.023,9.023,0,0,1-2250.49,44.424Zm-3.66-9.054a5.3,5.3,0,0,0-.639,3.917,4.865,4.865,0,0,0,2.708,2.674c1.218.6,2.657.469,4.529-.425a8.585,8.585,0,0,0,3.918-3.825,4.33,4.33,0,0,0,.149-3.985,6.487,6.487,0,0,0-3.109-2.808,3.892,3.892,0,0,0-3.978.446,9.291,9.291,0,0,0-3.578,4.006Zm16.236-5.448-12.438-5.9,20.136-40.681,15.463,6.144Zm-9.615-6.88,8.761,4.156,21-36.657L-2229.2-14Z" transform="translate(2257.041 16.659)"/></g></g><g transform="translate(-2591.282 13090.301)"><g transform="translate(0 0)"><path class="a" d="M-2342.134,36.743a9.256,9.256,0,0,1,.429-5.894,5.588,5.588,0,0,1,4-3.618,9.113,9.113,0,0,1,5.385.115,5.052,5.052,0,0,1,3.194,3.742,8.756,8.756,0,0,1-.894,6.076,6.9,6.9,0,0,1-4.453,3.867C-2338.655,42.011-2341.234,40.587-2342.134,36.743ZM-2339-21.99l-15.341,4.8,9.791,41.459,12.653-3.181Z" transform="translate(2355.582 23.35)"/><path class="b" d="M-2337.359,41.788a6.517,6.517,0,0,1-3.221-.765,6.727,6.727,0,0,1-3.111-4.629,10.3,10.3,0,0,1,.487-6.547,6.64,6.64,0,0,1,4.729-4.223,10.129,10.129,0,0,1,6,.158,6.125,6.125,0,0,1,3.835,4.479,9.8,9.8,0,0,1-.98,6.787c-1.335,2.479-3.015,3.915-5.149,4.415A11.415,11.415,0,0,1-2337.359,41.788Zm1.867-14.441a11.047,11.047,0,0,0-2.5.317,4.548,4.548,0,0,0-3.277,3,8.253,8.253,0,0,0-.377,5.254h0a4.687,4.687,0,0,0,2.091,3.277,6.055,6.055,0,0,0,4.317.229c1.536-.36,2.734-1.423,3.769-3.344a7.748,7.748,0,0,0,.8-5.34,4.023,4.023,0,0,0-2.573-3.012A6.194,6.194,0,0,0-2335.492,27.347Zm-10.367-2.387-10.259-43.442,17.422-5.455,7.455,45.223Zm-7.772-42.025,9.322,39.475,10.687-2.687-6.75-40.94Z" transform="translate(2356.119 23.937)"/></g></g></g></svg>