<svg xmlns="http://www.w3.org/2000/svg" width="361.386" height="314.724" viewBox="0 0 361.386 314.724"><defs><style>.a{isolation:isolate;}.b{fill:#92dac2;}.c{fill:#fff;}.d{fill:#1a1818;}.e{fill:#4bbaa2;}</style></defs><g transform="translate(-2578.596 332.501)"><g transform="translate(2603.443 -332.501)"><g class="a"><path class="b" d="M2645.62-272.153c12.77,26.784,11.342,53.269-1.643,79.949-2.529,5.2,1.852,17.731-.448,23.034-4.439,10.235-3.754,19.795-4.985,20.821a2.754,2.754,0,0,1-1.417.489,19.978,19.978,0,0,1-8.159-.22c1.86-5.737,5.552-13.052,5.488-19.724-.047-4.833-1.017-10.589-3.007-14.479-1.626-3.179-3.244-4.862-6.431-5.579-3.625-.816-5.049,2.789-4.8,6.5s.912,5.455,1.994,9.01c1.723,5.667-1.14,7.591-1.265,17.063-.016,1.177.461,5.206-.408,6a4.772,4.772,0,0,1-2.566,1,19.6,19.6,0,0,1-8.966-.746c4.521-5.381,7.8-9.075,7.765-16.1a18.48,18.48,0,0,0-2.658-8.35c-1.613-2.7-4.233-7.1-6.529-9.247-3.147-2.937-8.715-10.575-12.221-17.758-3.141-6.434-2.8-14.183-2.149-19.654s2.365-10.753,3.433-16.157c1.833-9.285,1.746-18.827,1.652-28.291l-.214-21.414c-.023-2.406-1.051-5.715-3.419-5.283a4.2,4.2,0,0,0-2.2,1.6l-6.66,7.6c-1.243,1.418-2.827,2.97-4.692,2.7-2.612-.386-7.3-5.341-7.1-7.974.58-7.6,7.393-13.31,10.46-20.285,2.331-5.3,5.221-10.944,10.5-13.329,6.1-2.757,13.2-.213,19.228,2.7,3.87,1.872,9.418,8.468,12.267,11.687C2638.29-293.249,2641.025-281.79,2645.62-272.153Z" transform="translate(-2574.011 334.799)"/><path class="b" d="M2588.49-316.885l-7.158-4.48c3.3-5.34,9.757-15.746,23.985-15.685,9.034.038,18.527,6.009,25.061,12.249s12.165,17.966,15.083,26.516c7.734,22.657,9.093,27.539,8.2,34.657" transform="translate(-2576.864 340.595)"/><path class="b" d="M2612.262-320.332c-1.947-.322-3.193-2.508-3.164-4.54a11.347,11.347,0,0,1,2.079-5.621,95.281,95.281,0,0,1,9.167-12,1.062,1.062,0,0,1,1.845.481l1.538,7.587c.349,1.727.638,3.466.814,5.22.275,2.73.3,5.895-1.25,8.255-1.267,1.924-3.85,3.079-5.878,2.057" transform="translate(-2587.685 342.858)"/><g transform="translate(66.424 116.907)"><path class="b" d="M2683.948-149.551c1.192-.222,2.232,1.788,2.784,2.581q1.038,1.491,1.986,3.041a43.481,43.481,0,0,1,3.421,6.8,28.579,28.579,0,0,1,1.808,15.467c-.8,4.315-3.607,8.721-1.944,13.185,1.452,3.9,5.913,4.264,8.349,7.2.69.829,1.74-.23,1.375-1.061a16.032,16.032,0,0,1-1.387-6.323c-.01-1.686.331-3.407-.07-5.073-.675-2.8-3.272-4.315-5.661-5.523-1-.508-1.891,1-.885,1.512a13.384,13.384,0,0,1,3.587,2.293c1.387,1.406,1.441,3.077,1.35,4.945a19.472,19.472,0,0,0,1.552,9.053l1.375-1.061c-1.332-1.6-3.178-2.415-4.94-3.445a6.242,6.242,0,0,1-3.363-6.429c.26-2.825,1.626-5.433,2.225-8.188a26.335,26.335,0,0,0,.511-7.405,35.859,35.859,0,0,0-4.3-14.2,55.033,55.033,0,0,0-4.183-6.655c-1.035-1.421-2.153-2.755-4.061-2.4-1.107.207-.638,1.9.466,1.689Z" transform="translate(-2682.85 151.298)"/><path class="b" d="M2700.2-97.357c-.567,2.058-1.226,2.948-1.61,5.047a7.842,7.842,0,0,0,1.052,6.13c1.852,2.454,5.5,2.981,7.363,5.428a16.469,16.469,0,0,1-1.5-7.4c.051-1.605.331-3.269-.217-4.778-.788-2.168-3.027-3.394-5.09-4.427" transform="translate(-2688.912 130.277)"/></g></g><g transform="translate(7.782 23.877)"><g transform="translate(10.58 0.597)"><path class="c" d="M2606.888-294.884a3.577,3.577,0,0,1-.11,1.113c-.838,3.208-3.336,3.641-5.455,3.053a4.85,4.85,0,0,1-3.4-4.776A17.548,17.548,0,0,1,2606.888-294.884Z" transform="translate(-2597.689 296.053)"/></g><path class="c" d="M2580.619-296.258a3.581,3.581,0,0,0,.015,1.117c.564,3.268,3.017,3.91,5.178,3.5a4.851,4.851,0,0,0,3.8-4.472A17.542,17.542,0,0,0,2580.619-296.258Z" transform="translate(-2580.354 297.031)"/><g transform="translate(2.726 3.489)"><circle class="d" cx="1.007" cy="1.007" r="1.007"/></g><g transform="translate(13.283 4.14)"><circle class="d" cx="1.007" cy="1.007" r="1.007"/></g></g></g><g transform="translate(2813.253 -325.531)"><g class="a" transform="translate(0)"><path class="b" d="M2956.431-333.205c12.84,26.931,11.4,53.562-1.653,80.389-2.542,5.225,1.862,17.83-.451,23.16-4.464,10.291-3.775,19.9-5.012,20.936a2.777,2.777,0,0,1-1.424.492,20.1,20.1,0,0,1-8.2-.222c1.87-5.769,5.582-13.125,5.518-19.833-.047-4.859-1.022-10.647-3.023-14.558-1.635-3.2-3.263-4.889-6.466-5.61-3.646-.821-5.077,2.8-4.823,6.532s.917,5.485,2,9.059c1.733,5.7-1.145,7.633-1.271,17.157-.017,1.183.463,5.235-.41,6.033a4.8,4.8,0,0,1-2.581,1,19.712,19.712,0,0,1-9.015-.75c4.545-5.411,7.841-9.125,7.807-16.191a18.579,18.579,0,0,0-2.672-8.4c-1.622-2.71-4.256-7.142-6.566-9.3-3.163-2.953-8.762-10.634-12.287-17.856-3.158-6.47-2.816-14.262-2.161-19.762s2.378-10.812,3.453-16.246c1.843-9.335,1.755-18.931,1.661-28.446l-.215-21.533c-.023-2.42-1.057-5.746-3.437-5.311a4.217,4.217,0,0,0-2.215,1.609l-6.7,7.638c-1.25,1.426-2.842,2.987-4.719,2.71-2.626-.387-7.34-5.371-7.138-8.018.584-7.639,7.435-13.382,10.519-20.4,2.344-5.33,5.249-11,10.554-13.4,6.134-2.772,13.276-.215,19.335,2.716,3.891,1.881,9.469,8.514,12.334,11.751C2949.06-354.418,2951.811-342.9,2956.431-333.205Z" transform="translate(-2884.427 396.196)"/><path class="b" d="M2898.947-378.1l-7.2-4.5c3.32-5.37,9.812-15.833,24.118-15.772,9.084.039,18.629,6.042,25.2,12.316S2953.3-368,2956.23-359.4c7.777,22.782,9.142,27.69,8.247,34.847" transform="translate(-2887.255 401.942)"/><path class="b" d="M2922.7-381.536c-1.957-.324-3.211-2.522-3.181-4.564a11.4,11.4,0,0,1,2.091-5.652,95.677,95.677,0,0,1,9.218-12.061,1.067,1.067,0,0,1,1.854.483l1.545,7.629a53.093,53.093,0,0,1,.819,5.249c.277,2.745.306,5.928-1.257,8.3-1.274,1.935-3.871,3.1-5.91,2.068" transform="translate(-2897.983 404.186)"/><g transform="translate(66.79 117.551)"><path class="b" d="M2994.371-210.868c1.2-.224,2.243,1.8,2.8,2.6.7,1,1.364,2.017,2,3.057a43.767,43.767,0,0,1,3.44,6.841,28.74,28.74,0,0,1,1.817,15.552c-.8,4.34-3.628,8.769-1.955,13.258,1.46,3.918,5.947,4.288,8.4,7.236.693.834,1.748-.231,1.383-1.067a16.1,16.1,0,0,1-1.395-6.358c-.01-1.695.333-3.426-.071-5.1-.678-2.818-3.289-4.338-5.692-5.554-1.008-.511-1.9,1.009-.888,1.521a13.415,13.415,0,0,1,3.606,2.306c1.4,1.413,1.449,3.093,1.358,4.971a19.582,19.582,0,0,0,1.561,9.1l1.383-1.068c-1.339-1.613-3.2-2.428-4.967-3.463a6.273,6.273,0,0,1-3.382-6.465c.262-2.841,1.635-5.463,2.237-8.233a26.493,26.493,0,0,0,.515-7.445,36.074,36.074,0,0,0-4.32-14.281,55.569,55.569,0,0,0-4.205-6.691c-1.041-1.429-2.166-2.77-4.084-2.412-1.114.207-.642,1.905.469,1.7Z" transform="translate(-2993.267 212.625)"/><path class="b" d="M3010.629-158.685c-.571,2.069-1.233,2.964-1.62,5.075a7.882,7.882,0,0,0,1.058,6.164c1.861,2.467,5.532,3,7.4,5.458a16.567,16.567,0,0,1-1.507-7.441c.052-1.615.333-3.287-.218-4.8-.792-2.18-3.042-3.412-5.116-4.451" transform="translate(-2999.277 191.785)"/></g></g><g transform="translate(7.804 25.031)"><g transform="translate(10.637 0.6)"><path class="c" d="M2917.353-356.206a3.582,3.582,0,0,1-.11,1.118c-.843,3.226-3.354,3.662-5.485,3.07a4.876,4.876,0,0,1-3.422-4.8A17.635,17.635,0,0,1,2917.353-356.206Z" transform="translate(-2908.104 357.382)"/></g><path class="c" d="M2891.035-357.583a3.621,3.621,0,0,0,.015,1.124c.569,3.286,3.033,3.932,5.206,3.523a4.877,4.877,0,0,0,3.817-4.5A17.639,17.639,0,0,0,2891.035-357.583Z" transform="translate(-2890.77 358.36)"/><g transform="translate(2.746 1.869)"><circle class="d" cx="1.013" cy="1.013" r="1.013"/></g><g transform="translate(12.693 2.498)"><circle class="d" cx="1.013" cy="1.013" r="1.013"/></g></g></g><g transform="translate(2752.26 -295.45)"><g class="a" transform="translate(0)"><path class="e" d="M2761.382-259.414c16.023,33.6,14.229,66.834-2.061,100.309-3.173,6.52,2.323,22.247-.563,28.9-5.571,12.841-4.711,24.836-6.255,26.123a3.449,3.449,0,0,1-1.778.614,25.063,25.063,0,0,1-10.237-.276c2.334-7.2,6.965-16.376,6.885-24.747-.059-6.064-1.275-13.286-3.772-18.166-2.04-3.989-4.071-6.1-8.068-7-4.549-1.024-6.333,3.5-6.017,8.15s1.144,6.845,2.5,11.3c2.163,7.11-1.428,9.524-1.588,21.408-.02,1.476.58,6.532-.51,7.528a5.985,5.985,0,0,1-3.22,1.25,24.592,24.592,0,0,1-11.249-.936c5.672-6.751,9.782-11.386,9.74-20.2-.015-3.338-1.619-7.613-3.333-10.476-2.023-3.382-5.312-8.911-8.193-11.6-3.949-3.685-10.933-13.268-15.332-22.28-3.94-8.073-3.515-17.795-2.7-24.659s2.967-13.491,4.307-20.271c2.3-11.649,2.191-23.622,2.074-35.5l-.268-26.868c-.031-3.019-1.321-7.171-4.29-6.628a5.264,5.264,0,0,0-2.763,2.008l-8.357,9.53c-1.559,1.779-3.546,3.727-5.887,3.381-3.278-.484-9.159-6.7-8.906-10,.727-9.533,9.275-16.7,13.124-25.45,2.925-6.65,6.55-13.731,13.17-16.723,7.654-3.459,16.565-.267,24.125,3.389,4.856,2.348,11.817,10.624,15.39,14.663C2752.185-285.883,2755.617-271.505,2761.382-259.414Z" transform="translate(-2671.537 338.012)"/><path class="e" d="M2687.839-311.75l-8.982-5.62c4.143-6.7,12.243-19.756,30.094-19.679,11.334.048,23.245,7.539,31.442,15.368s15.263,22.541,18.924,33.268c9.7,28.427,11.407,34.552,10.289,43.482" transform="translate(-2673.252 341.497)"/><path class="e" d="M2710.594-314.6c-2.442-.4-4.006-3.147-3.969-5.7s1.281-4.9,2.609-7.052a119.552,119.552,0,0,1,11.5-15.05,1.331,1.331,0,0,1,2.314.6l1.929,9.519c.439,2.166.8,4.349,1.022,6.549.344,3.426.381,7.4-1.569,10.358-1.589,2.414-4.83,3.863-7.374,2.58" transform="translate(-2670.758 344.858)"/><path class="e" d="M2710.594-314.6c-2.442-.4-4.006-3.147-3.969-5.7s1.281-4.9,2.609-7.052a119.552,119.552,0,0,1,11.5-15.05,1.331,1.331,0,0,1,2.314.6l1.929,9.519c.439,2.166.8,4.349,1.022,6.549.344,3.426.381,7.4-1.569,10.358-1.589,2.414-4.83,3.863-7.374,2.58" transform="translate(-2690.316 344.858)"/><g transform="translate(83.339 146.678)"><path class="e" d="M2781.754-149.106c1.5-.279,2.8,2.243,3.492,3.238q1.3,1.871,2.492,3.816a54.633,54.633,0,0,1,4.292,8.535,35.861,35.861,0,0,1,2.269,19.406c-1,5.414-4.528,10.942-2.439,16.543,1.82,4.888,7.418,5.349,10.474,9.028.864,1.041,2.183-.289,1.726-1.332a20.1,20.1,0,0,1-1.739-7.933c-.013-2.116.415-4.275-.088-6.365-.848-3.515-4.1-5.414-7.1-6.93-1.259-.637-2.373,1.258-1.109,1.9a16.8,16.8,0,0,1,4.5,2.877c1.74,1.764,1.807,3.861,1.694,6.2a24.421,24.421,0,0,0,1.948,11.358l1.726-1.332c-1.673-2.012-3.987-3.03-6.2-4.322a7.832,7.832,0,0,1-4.22-8.067c.329-3.544,2.041-6.817,2.792-10.273a33.034,33.034,0,0,0,.64-9.291,45,45,0,0,0-5.389-17.819,69.339,69.339,0,0,0-5.248-8.349c-1.3-1.783-2.7-3.457-5.1-3.011-1.388.26-.8,2.378.585,2.119Z" transform="translate(-2780.377 151.298)"/><path class="e" d="M2798.187-97.357c-.712,2.582-1.539,3.7-2.022,6.332s-.293,5.554,1.32,7.691c2.324,3.079,6.9,3.74,9.238,6.81a20.7,20.7,0,0,1-1.879-9.285c.065-2.014.416-4.1-.272-5.995-.988-2.721-3.8-4.258-6.384-5.554" transform="translate(-2784.021 138.66)"/></g></g><g transform="translate(10.746 32.976)"><g transform="translate(13.273 0.748)"><path class="c" d="M2706.7-294.646a4.515,4.515,0,0,1-.137,1.4c-1.052,4.025-4.185,4.568-6.844,3.831a6.086,6.086,0,0,1-4.271-5.992S2701.522-296.721,2706.7-294.646Z" transform="translate(-2695.158 296.112)"/></g><path class="c" d="M2678.153-296.12a4.525,4.525,0,0,0,.019,1.4c.708,4.1,3.786,4.906,6.5,4.4a6.085,6.085,0,0,0,4.762-5.61S2683.486-297.751,2678.153-296.12Z" transform="translate(-2677.822 297.091)"/><g transform="translate(1.824 3.859)"><circle class="d" cx="1.263" cy="1.263" r="1.263"/></g><g transform="translate(14.59 3.859)"><circle class="d" cx="1.263" cy="1.263" r="1.263"/></g></g></g><g transform="translate(2839.176 -238.874)"><g class="a"><path class="e" d="M2838.035-263.112c15.078,31.625,13.392,62.9-1.94,94.4-2.986,6.136,2.186,20.936-.529,27.2-5.243,12.084-4.433,23.372-5.886,24.584a3.252,3.252,0,0,1-1.673.578,23.585,23.585,0,0,1-9.634-.26c2.2-6.774,6.556-15.411,6.478-23.289-.055-5.706-1.2-12.5-3.549-17.1-1.921-3.754-3.83-5.74-7.593-6.588-4.281-.963-5.96,3.293-5.663,7.67s1.077,6.441,2.354,10.639c2.036,6.691-1.345,8.963-1.494,20.147-.019,1.389.545,6.147-.48,7.085a5.637,5.637,0,0,1-3.031,1.176,23.145,23.145,0,0,1-10.586-.881c5.337-6.353,9.207-10.715,9.168-19.013a21.836,21.836,0,0,0-3.138-9.859c-1.9-3.183-5-8.386-7.71-10.918-3.716-3.468-10.289-12.486-14.429-20.968-3.708-7.6-3.307-16.746-2.537-23.206s2.792-12.7,4.053-19.077c2.166-10.963,2.063-22.23,1.951-33.4l-.252-25.285c-.029-2.841-1.242-6.748-4.037-6.237a4.956,4.956,0,0,0-2.6,1.89l-7.864,8.968c-1.467,1.674-3.337,3.507-5.541,3.182-3.084-.455-8.619-6.307-8.382-9.415.685-8.971,8.73-15.715,12.352-23.951,2.753-6.258,6.165-12.922,12.395-15.738,7.2-3.255,15.588-.252,22.7,3.189,4.569,2.21,11.12,10,14.484,13.8C2829.379-288.021,2832.609-274.491,2838.035-263.112Z" transform="translate(-2753.483 337.079)"/><path class="e" d="M2769.256-313.241l-8.452-5.289c3.9-6.305,11.52-18.592,28.32-18.52,10.667.045,21.875,7.095,29.59,14.462s14.364,21.213,17.81,31.308c9.131,26.752,10.734,32.516,9.683,40.92" transform="translate(-2755.529 341.235)"/><path class="e" d="M2792.307-316.261c-2.3-.381-3.771-2.962-3.735-5.361s1.206-4.612,2.455-6.637a112.457,112.457,0,0,1,10.823-14.163,1.253,1.253,0,0,1,2.177.568l1.816,8.958c.414,2.039.753,4.093.961,6.163.326,3.224.36,6.96-1.474,9.747-1.5,2.272-4.546,3.635-6.94,2.428" transform="translate(-2763.287 342.858)"/><g transform="translate(78.429 138.036)"><path class="e" d="M2863.619-149.235c1.407-.262,2.635,2.111,3.287,3.047.816,1.174,1.6,2.369,2.346,3.591a51.443,51.443,0,0,1,4.039,8.032,33.753,33.753,0,0,1,2.134,18.263c-.944,5.1-4.26,10.3-2.3,15.568,1.715,4.6,6.983,5.034,9.859,8.5.814.979,2.053-.272,1.625-1.253a18.881,18.881,0,0,1-1.638-7.466c-.012-1.991.39-4.023-.085-5.99-.8-3.308-3.862-5.095-6.683-6.521-1.184-.6-2.233,1.184-1.045,1.786a15.8,15.8,0,0,1,4.235,2.708c1.638,1.66,1.7,3.633,1.595,5.838a22.984,22.984,0,0,0,1.833,10.689l1.624-1.253c-1.574-1.894-3.752-2.851-5.833-4.067a7.371,7.371,0,0,1-3.972-7.591c.309-3.336,1.921-6.415,2.628-9.668a31.054,31.054,0,0,0,.6-8.744,42.313,42.313,0,0,0-5.072-16.769,65.1,65.1,0,0,0-4.938-7.857c-1.223-1.678-2.543-3.253-4.8-2.833-1.307.244-.753,2.238.55,1.995Z" transform="translate(-2862.323 151.298)"/><path class="e" d="M2880-97.357c-.67,2.43-1.448,3.48-1.9,5.959s-.275,5.226,1.242,7.238c2.187,2.9,6.5,3.519,8.694,6.409a19.46,19.46,0,0,1-1.769-8.738c.061-1.9.391-3.859-.256-5.642-.93-2.56-3.574-4.007-6.009-5.227" transform="translate(-2866.669 136.227)"/></g></g><g transform="translate(11.467 27.915)"><g transform="translate(12.491 0.704)"><path class="c" d="M2787.981-294.715a4.222,4.222,0,0,1-.13,1.314c-.99,3.788-3.938,4.3-6.44,3.605a5.725,5.725,0,0,1-4.02-5.639S2783.112-296.668,2787.981-294.715Z" transform="translate(-2777.12 296.095)"/></g><path class="c" d="M2760.1-296.16a4.249,4.249,0,0,0,.017,1.319c.667,3.859,3.563,4.617,6.114,4.137a5.727,5.727,0,0,0,4.482-5.28S2765.115-297.695,2760.1-296.16Z" transform="translate(-2759.786 297.073)"/><g transform="translate(3.219 3.386)"><circle class="d" cx="1.189" cy="1.189" r="1.189"/></g><g transform="translate(15.683 3.386)"><circle class="d" cx="1.189" cy="1.189" r="1.189"/></g></g></g><g transform="translate(2578.596 -266.335)"><g class="a" transform="translate(0)"><path class="e" d="M2675.773-181.478c15.654,32.835,13.9,65.3-2.014,98.011-3.1,6.371,2.27,21.738-.551,28.237-5.442,12.547-4.6,24.268-6.11,25.525a3.38,3.38,0,0,1-1.737.6,24.506,24.506,0,0,1-10-.27c2.281-7.034,6.806-16,6.727-24.181-.056-5.924-1.246-12.981-3.685-17.749-1.994-3.9-3.978-5.961-7.883-6.84-4.444-1-6.189,3.418-5.879,7.963s1.118,6.687,2.443,11.045c2.113,6.948-1.4,9.306-1.551,20.918-.019,1.442.566,6.383-.5,7.356a5.844,5.844,0,0,1-3.146,1.221,24.018,24.018,0,0,1-10.991-.914c5.542-6.6,9.559-11.125,9.518-19.74-.016-3.26-1.582-7.438-3.257-10.236-1.978-3.3-5.19-8.707-8.005-11.335-3.858-3.6-10.683-12.965-14.982-21.77-3.85-7.888-3.434-17.388-2.634-24.094s2.9-13.183,4.208-19.808c2.248-11.382,2.142-23.081,2.025-34.682l-.261-26.253c-.029-2.95-1.29-7.006-4.191-6.475a5.142,5.142,0,0,0-2.7,1.962l-8.165,9.312c-1.524,1.739-3.466,3.641-5.753,3.3-3.2-.472-8.949-6.548-8.7-9.776.711-9.314,9.063-16.316,12.824-24.867,2.858-6.5,6.4-13.417,12.868-16.34,7.477-3.379,16.186-.262,23.572,3.311,4.744,2.294,11.545,10.381,15.038,14.327C2666.786-207.341,2670.14-193.292,2675.773-181.478Z" transform="translate(-2587.985 258.276)"/><path class="e" d="M2604.081-232.957l-8.776-5.491c4.048-6.547,11.962-19.3,29.405-19.229,11.075.048,22.712,7.366,30.721,15.016s14.914,22.025,18.492,32.506c9.481,27.776,11.144,33.76,10.053,42.486" transform="translate(-2589.828 262.022)"/><path class="e" d="M2626.952-235.87c-2.387-.4-3.914-3.075-3.878-5.565s1.252-4.789,2.549-6.891a116.816,116.816,0,0,1,11.238-14.7,1.3,1.3,0,0,1,2.261.589l1.885,9.3c.429,2.117.782,4.25,1,6.4.338,3.347.374,7.227-1.531,10.12-1.554,2.36-4.721,3.775-7.207,2.521" transform="translate(-2584.821 265.484)"/><path class="e" d="M2626.952-235.87c-2.387-.4-3.914-3.075-3.878-5.565s1.252-4.789,2.549-6.891a116.816,116.816,0,0,1,11.238-14.7,1.3,1.3,0,0,1,2.261.589l1.885,9.3c.429,2.117.782,4.25,1,6.4.338,3.347.374,7.227-1.531,10.12-1.554,2.36-4.721,3.775-7.207,2.521" transform="translate(-2602.821 264.031)"/><g transform="translate(81.43 143.319)"><path class="e" d="M2698.171-69.782c1.462-.273,2.736,2.191,3.413,3.164.847,1.218,1.663,2.459,2.435,3.727a53.4,53.4,0,0,1,4.194,8.341,35.056,35.056,0,0,1,2.216,18.962c-.982,5.29-4.425,10.691-2.385,16.163,1.78,4.776,7.25,5.227,10.236,8.822.844,1.017,2.132-.281,1.686-1.3a19.61,19.61,0,0,1-1.7-7.752c-.013-2.066.405-4.177-.088-6.219-.827-3.436-4.01-5.29-6.939-6.772-1.231-.622-2.319,1.23-1.083,1.855a16.367,16.367,0,0,1,4.4,2.812c1.7,1.723,1.766,3.772,1.656,6.061a23.869,23.869,0,0,0,1.9,11.1l1.687-1.3c-1.634-1.967-3.9-2.961-6.057-4.223a7.652,7.652,0,0,1-4.123-7.882c.32-3.463,1.995-6.661,2.728-10.038a32.2,32.2,0,0,0,.625-9.078,43.919,43.919,0,0,0-5.267-17.411,67.817,67.817,0,0,0-5.125-8.158c-1.27-1.742-2.641-3.377-4.98-2.941-1.356.253-.781,2.323.572,2.071Z" transform="translate(-2696.825 71.924)"/><path class="e" d="M2714.582-17.984c-.7,2.523-1.5,3.614-1.976,6.187s-.285,5.426,1.292,7.515c2.27,3.008,6.745,3.654,9.026,6.654a20.182,20.182,0,0,1-1.837-9.072c.064-1.968.407-4.007-.265-5.858-.966-2.658-3.71-4.16-6.239-5.427" transform="translate(-2700.742 58.34)"/></g></g><g transform="translate(8.637 30.175)"><g transform="translate(12.969 0.731)"><path class="c" d="M2622.889-215.3a4.415,4.415,0,0,1-.135,1.363c-1.028,3.933-4.09,4.464-6.688,3.743a5.945,5.945,0,0,1-4.174-5.855S2617.832-217.327,2622.889-215.3Z" transform="translate(-2611.612 216.732)"/></g><path class="c" d="M2594.6-216.762a4.389,4.389,0,0,0,.018,1.369c.693,4.006,3.7,4.794,6.348,4.3a5.947,5.947,0,0,0,4.654-5.482S2599.81-218.356,2594.6-216.762Z" transform="translate(-2594.277 217.71)"/><g transform="translate(3.342 4.282)"><circle class="d" cx="1.235" cy="1.235" r="1.235"/></g><g transform="translate(16.283 5.075)"><circle class="d" cx="1.235" cy="1.235" r="1.235"/></g></g></g><g transform="translate(2648.819 -316.292)"><g class="a"><path class="e" d="M2783.327-174.473c17.443,36.585,15.492,72.763-2.245,109.207-3.454,7.1,2.529,24.221-.612,31.463-6.064,13.98-5.128,27.04-6.809,28.441a3.77,3.77,0,0,1-1.936.669,27.3,27.3,0,0,1-11.145-.3c2.54-7.837,7.584-17.83,7.5-26.943-.064-6.6-1.389-14.464-4.107-19.776-2.221-4.343-4.431-6.642-8.784-7.621-4.952-1.115-6.9,3.809-6.552,8.873s1.246,7.451,2.724,12.307c2.355,7.741-1.556,10.369-1.728,23.307-.023,1.607.629,7.112-.557,8.2a6.518,6.518,0,0,1-3.506,1.36,26.763,26.763,0,0,1-12.246-1.019c6.174-7.35,10.652-12.4,10.606-22-.019-3.633-1.763-8.287-3.63-11.406-2.2-3.681-5.783-9.7-8.92-12.629-4.3-4.012-11.9-14.446-16.693-24.257-4.29-8.789-3.826-19.374-2.935-26.846s3.23-14.689,4.689-22.07c2.5-12.682,2.384-25.717,2.256-38.644l-.291-29.252c-.033-3.287-1.436-7.806-4.67-7.215a5.728,5.728,0,0,0-3.009,2.186l-9.1,10.375c-1.7,1.937-3.862,4.057-6.41,3.681-3.567-.526-9.972-7.3-9.7-10.892.792-10.378,10.1-18.18,14.289-27.707,3.185-7.241,7.131-14.949,14.338-18.207,8.332-3.766,18.035-.292,26.265,3.69,5.286,2.556,12.864,11.567,16.756,15.964C2773.313-203.29,2777.05-187.637,2783.327-174.473Z" transform="translate(-2685.511 260.044)"/><path class="e" d="M2702.611-230.133l-9.779-6.118c4.51-7.294,13.329-21.509,32.764-21.426,12.34.053,25.306,8.208,34.231,16.731s16.617,24.54,20.6,36.22c10.565,30.949,12.419,37.617,11.2,47.339" transform="translate(-2686.729 262.518)"/><path class="e" d="M2724.921-232.716c-2.661-.44-4.362-3.426-4.321-6.2s1.393-5.336,2.84-7.679a130.079,130.079,0,0,1,12.522-16.384,1.449,1.449,0,0,1,2.519.656l2.1,10.364c.477,2.358.871,4.736,1.112,7.13.376,3.73.416,8.053-1.706,11.277-1.731,2.629-5.26,4.206-8.029,2.809" transform="translate(-2680.349 266.484)"/><path class="e" d="M2724.921-232.716c-2.661-.44-4.362-3.426-4.321-6.2s1.393-5.336,2.84-7.679a130.079,130.079,0,0,1,12.522-16.384,1.449,1.449,0,0,1,2.519.656l2.1,10.364c.477,2.358.871,4.736,1.112,7.13.376,3.73.416,8.053-1.706,11.277-1.731,2.629-5.26,4.206-8.029,2.809" transform="translate(-2699.349 264.094)"/><g transform="translate(90.732 159.69)"><path class="e" d="M2795.85-69.537c1.629-.3,3.049,2.442,3.8,3.525.944,1.357,1.853,2.74,2.713,4.153a59.4,59.4,0,0,1,4.673,9.293,39.04,39.04,0,0,1,2.469,21.128c-1.093,5.895-4.928,11.912-2.656,18.01,1.984,5.322,8.077,5.825,11.406,9.829.94,1.133,2.375-.313,1.879-1.45a21.87,21.87,0,0,1-1.895-8.637c-.014-2.3.451-4.654-.1-6.929-.923-3.828-4.469-5.894-7.733-7.545-1.37-.694-2.583,1.37-1.207,2.067a18.244,18.244,0,0,1,4.9,3.133c1.894,1.92,1.968,4.2,1.845,6.753a26.59,26.59,0,0,0,2.12,12.367l1.879-1.45c-1.819-2.192-4.341-3.3-6.748-4.706a8.525,8.525,0,0,1-4.594-8.782c.356-3.859,2.221-7.422,3.039-11.185a35.942,35.942,0,0,0,.7-10.114,48.988,48.988,0,0,0-5.868-19.4,75.341,75.341,0,0,0-5.713-9.09c-1.414-1.941-2.941-3.763-5.547-3.277-1.513.282-.872,2.588.635,2.307Z" transform="translate(-2794.351 71.924)"/><path class="e" d="M2812.36-17.984c-.775,2.811-1.675,4.026-2.2,6.894s-.321,6.046,1.437,8.374c2.53,3.352,7.516,4.071,10.058,7.414a22.51,22.51,0,0,1-2.047-10.108c.072-2.193.452-4.465-.295-6.527-1.077-2.962-4.135-4.635-6.952-6.047" transform="translate(-2796.939 62.95)"/></g></g><g transform="translate(12.167 35.079)"><g transform="translate(14.451 0.815)"><path class="c" d="M2721.671-215.168a4.879,4.879,0,0,1-.149,1.519c-1.146,4.382-4.557,4.974-7.452,4.171a6.624,6.624,0,0,1-4.65-6.524S2716.037-217.428,2721.671-215.168Z" transform="translate(-2709.106 216.765)"/></g><path class="c" d="M2692.133-216.686a4.869,4.869,0,0,0,.02,1.526c.771,4.464,4.121,5.342,7.074,4.786a6.625,6.625,0,0,0,5.184-6.108S2697.937-218.462,2692.133-216.686Z" transform="translate(-2691.771 217.743)"/><g transform="translate(3.733 4.765)"><circle class="d" cx="1.376" cy="1.376" r="1.376"/></g><g transform="translate(18.143 5.077)"><circle class="d" cx="1.376" cy="1.376" r="1.376"/></g></g></g></g></svg>