<svg xmlns="http://www.w3.org/2000/svg" xmlns:xlink="http://www.w3.org/1999/xlink" width="522.75" height="578" viewBox="0 0 522.75 578"><defs><style>.a{fill:none;}.b{clip-path:url(#a);}.c{fill:#dff2f6;}.d{fill:#88cab0;}.e{fill:#44ae91;}.f,.j{fill:#318a6e;}.g{fill:#357e68;}.h{fill:#88cab1;}.h,.i,.j{isolation:isolate;}.i{fill:#4bbaa2;}</style><clipPath id="a"><path class="a" d="M227.653,182.151H723.4v578H227.653a27,27,0,0,1-27-27h0v-524A27,27,0,0,1,227.653,182.151Z"/></clipPath></defs><g class="b" transform="translate(-200.653 -182.151)"><path class="c" d="M27,0H522.75a0,0,0,0,1,0,0V578a0,0,0,0,1,0,0H27A27,27,0,0,1,0,551V27A27,27,0,0,1,27,0Z" transform="translate(200.653 182.166)"/><path class="d" d="M-283.3,739.155V649.732c-39.483,42.174-56.221,72.988-54.191,72.149L-449.5,1184.093l132.312,6.181C-319.075,1047.993-283.441,740.386-283.3,739.155Z"/><path class="d" d="M1719.174,778.779l46.372,411.26c67.335-151.463,150.546-433.666-52.923-449.061h0v37.4C1714.8,778.511,1716.984,778.65,1719.174,778.779Z"/><path class="e" d="M1712.623,1284.335c-16.3-.076-1562.472-72.235-2029.808-94.061.531,39.981,4.024,66.907,12.1,70.31,36.878,15.534,2081.293,24.034,2081.293,24.034l-10.664-94.579C1740.59,1246.173,1717.814,1284.359,1712.623,1284.335Z"/><path class="e" d="M1765.546,1190.039l-46.372-411.26c-2.19-.129-4.37-.268-6.552-.4V880.262c12.128,119.56,33.762,343.95,25.071,341.676-11.842-3.1-2042.78-56.389-2042.78-56.389L-285.1,807.355c-.241,0,.372-.148,1.8-.43v-67.77c-.142,1.231-35.776,308.838-33.886,451.119,467.336,21.826,2013.511,93.985,2029.808,94.061C1717.814,1284.359,1740.59,1246.173,1765.546,1190.039Z"/><path class="f" d="M-283.3,1023.169V806.925c-1.433.282-2.046.43-1.8.43l-19.983,358.194s2030.938,53.29,2042.78,56.389c8.691,2.274-12.943-222.116-25.071-341.676v142.907Z"/><rect class="g" width="578.782" height="22.669" transform="translate(171.799 -129.166)"/><path class="h" d="M750.581,581.665V496.831q-10.453-3.183-21.108-6.424C503.635,421.717,319.53,410.73,171.8,430.2V670.994C321.391,655.459,374.465,569.46,559.9,569.625A1553.239,1553.239,0,0,1,750.581,581.665Z"/><path class="i" d="M750.581,722.005V581.665A1553.239,1553.239,0,0,0,559.9,569.625c-185.439-.165-238.513,85.834-388.1,101.369v79.364C337.221,735.567,536.488,723.35,750.581,722.005Z"/><path class="j" d="M171.8,897.373H750.581V722.005c-214.093,1.345-413.36,13.562-578.782,28.353Z"/></g></svg>