<svg xmlns="http://www.w3.org/2000/svg" width="44" height="44" viewBox="0 0 44 44"><defs><style>.a{fill:#329b82;}.b{fill:#fff;}</style></defs><g transform="translate(-1679 -116)"><circle class="a" cx="22" cy="22" r="22" transform="translate(1679 116)"/><path class="b" d="M528.5,991.5a20.719,20.719,0,0,1,9.9,0,18.229,18.229,0,0,1,4.95,2.1,4,4,0,0,1,2.25,3.3v4.5h-24v-4.5c0-1.2.75-2.25,2.25-3.3A13.07,13.07,0,0,1,528.5,991.5Zm10.95,3.45a17.255,17.255,0,0,0-6.15-1.2,17.912,17.912,0,0,0-6.15,1.2c-2.1.75-3,1.5-3,1.95v1.65h18.3V996.9C542.45,996.45,541.55,995.7,539.45,994.95ZM529.1,979.2a5.8,5.8,0,1,1-1.8,4.2A5.676,5.676,0,0,1,529.1,979.2Zm6.45,1.95a3.263,3.263,0,1,0,.9,2.25A3.052,3.052,0,0,0,535.55,981.15Z" transform="translate(1167.4 -851.4)"/></g></svg>