<svg id="icn_rate" xmlns="http://www.w3.org/2000/svg" width="45.001" height="60" viewBox="0 0 45.001 60">
  <path id="Path_3" data-name="Path 3" d="M67.869,52.351V57.5a2.5,2.5,0,0,0,5,0V52.351A22.525,22.525,0,0,0,92.87,30C92.87,18.116,74.1,2.328,71.958.568a2.5,2.5,0,0,0-3.176,0C66.641,2.328,47.869,18.116,47.869,30A22.526,22.526,0,0,0,67.869,52.351Zm2.5-46.571c6.046,5.3,17.5,16.849,17.5,24.217a17.512,17.512,0,0,1-15,17.3V33.406c1.025-1.061,3.405-3.378,5.474-5.346A2.5,2.5,0,1,0,74.9,24.437l-2.026,1.931V17.5a2.5,2.5,0,0,0-5,0V31.9a2.117,2.117,0,0,0,0,.8v1.263l-1.983-1.982a2.5,2.5,0,0,0-3.535,3.535l5.518,5.518V47.3a17.512,17.512,0,0,1-15-17.3C52.869,22.63,64.323,11.077,70.369,5.781Z" transform="translate(-47.869 0.001)"/>
</svg>
