<svg xmlns="http://www.w3.org/2000/svg" width="20" height="18.3" viewBox="0 0 20 18.3"><defs><style>.a{fill:#ea5b5b;}</style></defs><path class="a" d="M788.2,1064.3l-1.5-1.3q-2.55-2.25-3.6-3.3a35.883,35.883,0,0,1-2.5-2.7,10.172,10.172,0,0,1-1.9-2.9,7.983,7.983,0,0,1-.5-2.6,5.463,5.463,0,0,1,5.5-5.5,5.685,5.685,0,0,1,4.5,2.1,5.685,5.685,0,0,1,4.5-2.1,4.987,4.987,0,0,1,3.9,1.6,5.7,5.7,0,0,1,1.6,3.9,7.334,7.334,0,0,1-1.2,3.8,18.963,18.963,0,0,1-2.6,3.4c-.9.9-2.5,2.4-4.7,4.4Z" transform="translate(-778.2 -1046)"/></svg>