<svg xmlns="http://www.w3.org/2000/svg" width="48" height="48" viewBox="0 0 48 48"><defs><style>.a{fill:#fff;stroke:#707070;opacity:0;}.b{fill-rule:evenodd;}.c{stroke:none;}.d{fill:none;}</style></defs><g transform="translate(-1715 -50)"><g class="a" transform="translate(1715 50)"><rect class="c" width="48" height="48"/><rect class="d" x="0.5" y="0.5" width="47" height="47"/></g><path class="b" d="M40.42,4.211,23.259,20.44l16.7,16.7a1.615,1.615,0,0,1-2.285,2.284L20.912,22.661,3.651,38.983A1.616,1.616,0,0,1,1.43,36.636l17.2-16.261L1.892,3.641A1.615,1.615,0,0,1,4.174,1.356l16.8,16.8L38.2,1.864A1.615,1.615,0,1,1,40.42,4.211Z" transform="translate(1718.075 53.117)"/></g></svg>