<svg xmlns="http://www.w3.org/2000/svg" width="21.328" height="28" viewBox="0 0 21.328 28"><path d="M144.746-3522.242c-3.615-3.634-10.082-11.563-10.082-17.04A10.7,10.7,0,0,1,145.328-3550a10.7,10.7,0,0,1,10.664,10.718c0,5.451-6.417,13.354-10.083,17.04a.821.821,0,0,1-.581.242A.823.823,0,0,1,144.746-3522.242Zm-8.441-17.04c0,5.258,6.942,13.055,9.023,15.275,2.08-2.219,9.023-10.021,9.023-15.275a9.061,9.061,0,0,0-9.023-9.077A9.061,9.061,0,0,0,136.305-3539.281Zm5.648,4.646a.818.818,0,0,1-.337-.7l.112-2.779L140-3540.294a.819.819,0,0,1-.137-.761.819.819,0,0,1,.558-.536l2.678-.752,1.543-2.314a.82.82,0,0,1,.683-.365.82.82,0,0,1,.682.365l1.543,2.314,2.677.752a.817.817,0,0,1,.558.536.816.816,0,0,1-.136.761l-1.724,2.183.113,2.779a.823.823,0,0,1-.338.7.823.823,0,0,1-.767.106l-2.608-.966-2.608.966a.823.823,0,0,1-.284.051A.819.819,0,0,1,141.953-3534.636Zm3.659-2.5,1.739.644-.075-1.853a.819.819,0,0,1,.176-.541l1.149-1.455-1.786-.5a.82.82,0,0,1-.46-.335l-1.029-1.543-1.029,1.543a.822.822,0,0,1-.461.335l-1.786.5,1.15,1.455a.819.819,0,0,1,.175.542l-.075,1.852,1.739-.644a.827.827,0,0,1,.285-.051A.827.827,0,0,1,145.613-3537.14Z" transform="translate(-134.664 3550)"/></svg>