<svg xmlns="http://www.w3.org/2000/svg" width="20" height="20" viewBox="0 0 20 20"><defs><style>.a{fill:#fff;opacity:0;}</style></defs><g transform="translate(-767 -2323.5)"><rect class="a" width="20" height="20" transform="translate(767 2323.5)"/><path d="M263.7,815.892h11.256V817.5H263.7Zm10.452-9.648a8.713,8.713,0,0,1-1.206,3.859,20.117,20.117,0,0,1-2.412,3.618l-1.206,1.367c-.322-.4-.8-.884-1.367-1.528a23.165,23.165,0,0,1-2.171-3.3,8.534,8.534,0,0,1-1.367-3.94,4.38,4.38,0,0,1,1.447-3.377,4.964,4.964,0,0,1,3.377-1.447,4.5,4.5,0,0,1,3.377,1.447A4.867,4.867,0,0,1,274.152,806.244Zm-5.95-1.126a1.608,1.608,0,0,0,1.126,2.734,1.46,1.46,0,0,0,1.126-.482,1.592,1.592,0,1,0-2.251-2.251Z" transform="translate(507.3 1524)"/></g></svg>