<svg xmlns="http://www.w3.org/2000/svg" width="40" height="40" viewBox="0 0 40 40"><defs><style>.a{fill:#fff;opacity:0;}</style></defs><g transform="translate(-1639 -162)"><rect class="a" width="40" height="40" transform="translate(1639 162)"/><path d="M-129.625-7056a3.755,3.755,0,0,1-3.75-3.75v-.63a.421.421,0,0,0-.265-.382l-.025-.009a.417.417,0,0,0-.459.082l-.445.445a3.729,3.729,0,0,1-2.652,1.1,3.725,3.725,0,0,1-2.65-1.1l-.884-.884a3.726,3.726,0,0,1-1.1-2.651,3.725,3.725,0,0,1,1.1-2.652l.445-.445a.42.42,0,0,0,.082-.461l-.011-.026a.418.418,0,0,0-.381-.262h-.63a3.755,3.755,0,0,1-3.75-3.75v-1.25a3.755,3.755,0,0,1,3.75-3.75h.63a.42.42,0,0,0,.382-.265l.007-.02a.421.421,0,0,0-.08-.464l-.445-.445a3.753,3.753,0,0,1,0-5.3l.884-.884a3.723,3.723,0,0,1,2.65-1.1,3.727,3.727,0,0,1,2.652,1.1l.445.444a.42.42,0,0,0,.461.082l.023-.009a.421.421,0,0,0,.265-.383v-.629a3.755,3.755,0,0,1,3.75-3.75h1.251a3.755,3.755,0,0,1,3.75,3.75v.629a.418.418,0,0,0,.265.383l.023.009a.42.42,0,0,0,.461-.082l.445-.444a3.723,3.723,0,0,1,2.65-1.1,3.724,3.724,0,0,1,2.652,1.1l.884.884a3.753,3.753,0,0,1,0,5.3l-.445.445a.42.42,0,0,0-.082.461l.011.026a.416.416,0,0,0,.381.262h.63a3.755,3.755,0,0,1,3.75,3.75v1.25a3.755,3.755,0,0,1-3.75,3.75h-.63a.418.418,0,0,0-.382.265l-.009.023a.42.42,0,0,0,.082.461l.445.445a3.724,3.724,0,0,1,1.1,2.652,3.724,3.724,0,0,1-1.1,2.651l-.884.884a3.726,3.726,0,0,1-2.652,1.1,3.725,3.725,0,0,1-2.65-1.1l-.445-.445a.42.42,0,0,0-.461-.082l-.025.011a.414.414,0,0,0-.263.38v.63a3.755,3.755,0,0,1-3.75,3.75Zm-3.079-7.08.016.007a2.908,2.908,0,0,1,1.813,2.693v.63a1.252,1.252,0,0,0,1.251,1.25h1.251a1.251,1.251,0,0,0,1.249-1.25v-.63a2.91,2.91,0,0,1,1.813-2.693l.018-.007a2.912,2.912,0,0,1,3.186.623l.446.445a1.235,1.235,0,0,0,.882.366,1.236,1.236,0,0,0,.884-.366l.884-.884a1.235,1.235,0,0,0,.366-.882,1.238,1.238,0,0,0-.366-.884l-.445-.447a2.912,2.912,0,0,1-.624-3.184l.009-.02a2.907,2.907,0,0,1,2.693-1.811h.63a1.254,1.254,0,0,0,1.251-1.251v-1.25a1.253,1.253,0,0,0-1.251-1.25h-.63a2.907,2.907,0,0,1-2.693-1.811l-.009-.023a2.905,2.905,0,0,1,.624-3.181l.445-.446a1.25,1.25,0,0,0,0-1.767l-.884-.884a1.237,1.237,0,0,0-.884-.367,1.236,1.236,0,0,0-.882.367l-.446.445a2.909,2.909,0,0,1-3.186.623l-.016-.007a2.911,2.911,0,0,1-1.814-2.693v-.629a1.251,1.251,0,0,0-1.249-1.25h-1.251a1.252,1.252,0,0,0-1.251,1.25v.629a2.91,2.91,0,0,1-1.811,2.693l-.018.007a2.912,2.912,0,0,1-3.188-.623l-.445-.445a1.237,1.237,0,0,0-.884-.367,1.243,1.243,0,0,0-.884.367l-.882.884a1.25,1.25,0,0,0,0,1.767l.445.446a2.912,2.912,0,0,1,.623,3.186l-.005.014a2.911,2.911,0,0,1-2.695,1.814h-.63a1.252,1.252,0,0,0-1.251,1.25v1.25a1.253,1.253,0,0,0,1.251,1.251h.63a2.909,2.909,0,0,1,2.693,1.811l.007.02a2.908,2.908,0,0,1-.623,3.184l-.445.447a1.238,1.238,0,0,0-.366.884,1.235,1.235,0,0,0,.366.882l.882.884a1.242,1.242,0,0,0,.884.366,1.239,1.239,0,0,0,.884-.366l.445-.445a2.906,2.906,0,0,1,2.055-.85A2.958,2.958,0,0,1-132.7-7063.08Zm-3.545-8.919A7.258,7.258,0,0,1-129-7079.25,7.258,7.258,0,0,1-121.75-7072a7.307,7.307,0,0,1-.29,2.039,1.251,1.251,0,0,1-1.551.848,1.25,1.25,0,0,1-.849-1.551,4.766,4.766,0,0,0,.19-1.336A4.756,4.756,0,0,0-129-7076.75a4.756,4.756,0,0,0-4.75,4.751,4.756,4.756,0,0,0,4.75,4.75,4.75,4.75,0,0,0,1.436-.221,1.25,1.25,0,0,1,1.569.815,1.25,1.25,0,0,1-.815,1.569,7.226,7.226,0,0,1-2.19.336A7.257,7.257,0,0,1-136.249-7072Z" transform="translate(1788 7254)"/></g></svg>