<svg xmlns="http://www.w3.org/2000/svg" width="28" height="28" viewBox="0 0 28 28"><defs><style>.a{fill:#fff;opacity:0.004;}</style></defs><g transform="translate(-1078 -566)"><rect class="a" width="28" height="28" transform="translate(1078 566)"/><g transform="translate(1080 521.377)"><g transform="translate(0 49.023)"><g transform="translate(0 0)"><path d="M21.337,49.282a.882.882,0,0,0-1.249,0l-3.134,3.134c-3.884-1.763-8.027-1.332-11.98,1.249A20.019,20.019,0,0,0,.17,58.1.889.889,0,0,0,.194,59.18a21.654,21.654,0,0,0,5.221,4.775L2.658,66.713A.881.881,0,1,0,3.9,67.962L21.337,50.531A.887.887,0,0,0,21.337,49.282ZM9.818,59.553a2.293,2.293,0,0,1-.191-.931,2.374,2.374,0,0,1,3.306-2.184Zm4.418-4.413a4.132,4.132,0,0,0-5.711,5.711L6.708,62.668a18.549,18.549,0,0,1-4.682-4.06A18.864,18.864,0,0,1,5.939,55.14c3.262-2.126,6.509-2.586,9.673-1.376Z" transform="translate(0 -49.023)"/></g></g><g transform="translate(8.848 54.141)"><path d="M195.62,157.435a23.611,23.611,0,0,0-3.737-3.737.884.884,0,1,0-1.092,1.391,21.059,21.059,0,0,1,3,2.914,19.325,19.325,0,0,1-3.232,3c-2.943,2.14-5.916,2.914-8.83,2.3a.881.881,0,1,0-.362,1.724,10.975,10.975,0,0,0,2.292.24,11.652,11.652,0,0,0,3.482-.544,15.548,15.548,0,0,0,4.5-2.326,20.231,20.231,0,0,0,4.006-3.884A.889.889,0,0,0,195.62,157.435Z" transform="translate(-180.663 -153.512)"/></g></g></g></svg>