<svg xmlns="http://www.w3.org/2000/svg" xmlns:xlink="http://www.w3.org/1999/xlink" width="78" height="78" viewBox="0 0 78 78"><defs><style>.a{fill:#fd5d63;stroke:#000;stroke-width:2px;}.b,.c{fill:#fff;}.b{stroke:#707070;opacity:0.001;}.d,.f{stroke:none;}.e{fill:none;}.f{fill:#000;}.g{filter:url(#a);}</style><filter id="a" x="0" y="0" width="78" height="78" filterUnits="userSpaceOnUse"><feOffset dx="6" dy="6" input="SourceAlpha"/><feGaussianBlur result="b"/><feFlood flood-opacity="0.161"/><feComposite operator="in" in2="b"/><feComposite in="SourceGraphic"/></filter></defs><g transform="translate(-1218 -302)"><g class="g" transform="matrix(1, 0, 0, 1, 1218, 302)"><g class="a"><circle class="d" cx="36" cy="36" r="36"/><circle class="e" cx="36" cy="36" r="35"/></g></g><g transform="translate(252 -536)"><g class="b" transform="translate(986 858)"><rect class="d" width="32" height="32"/><rect class="e" x="0.5" y="0.5" width="31" height="31"/></g><g class="c" transform="translate(988 828.921)"><path class="d" d="M 13.999924659729 56.19689178466797 L 3.302489995956421 45.49901962280273 L 3.278409957885742 45.47492980957031 L 3.252739906311035 45.45253753662109 C 1.82108998298645 44.20364761352539 1 42.40334701538086 1 40.51323699951172 C 1 36.89535903930664 3.943010091781616 33.95199966430664 7.560450077056885 33.95199966430664 C 9.852230072021484 33.95199966430664 11.94102001190186 35.12437057495117 13.14797019958496 37.08810043334961 L 13.99987030029297 38.47412872314453 L 14.85184001922607 37.08815002441406 C 16.0589599609375 35.1243896484375 18.14747047424316 33.95199966430664 20.43858909606934 33.95199966430664 C 24.05656051635742 33.95199966430664 27 36.89535903930664 27 40.51323699951172 C 27 42.40329742431641 26.1788501739502 44.20359802246094 24.74710083007812 45.45252990722656 L 24.7214298248291 45.47492980957031 L 24.69734001159668 45.49901962280273 L 13.999924659729 56.19689178466797 Z"/><path class="f" d="M 7.560449600219727 34.95199966430664 C 4.494409561157227 34.95199966430664 2 37.44675827026367 2 40.51323699951172 C 2 42.11438751220703 2.696210861206055 43.64002990722656 3.910110473632812 44.69897842407227 L 3.961450576782227 44.74375915527344 L 4.009609222412109 44.79192733764648 L 13.99991989135742 54.78265762329102 L 23.99021911621094 44.79192733764648 L 24.03840065002441 44.74374008178711 L 24.08975028991699 44.69894790649414 C 25.30373954772949 43.63996887207031 26 42.11433792114258 26 40.51323699951172 C 26 37.44675827026367 23.50515937805176 34.95199966430664 20.43859100341797 34.95199966430664 C 18.4975700378418 34.95199966430664 16.7275390625 35.94632720947266 15.70374965667725 37.61182022094727 L 13.99981021881104 40.3838005065918 L 12.29603004455566 37.61172866821289 C 11.27240943908691 35.9462890625 9.502099990844727 34.95199966430664 7.560449600219727 34.95199966430664 M 7.560449600219727 32.95199966430664 C 10.28726005554199 32.95199966430664 12.66969966888428 34.40018844604492 13.99991989135742 36.56446838378906 C 15.33030986785889 34.40018844604492 17.71171951293945 32.95199966430664 20.43859100341797 32.95199966430664 C 24.61462020874023 32.95199966430664 28 36.33721923828125 28 40.51323699951172 C 28 42.78685760498047 26.99238967895508 44.82093811035156 25.40446090698242 46.20610809326172 L 14.68992042541504 56.92110824584961 C 14.50693035125732 57.10409927368164 14.25876045227051 57.2068977355957 13.99991989135742 57.2068977355957 C 13.74106979370117 57.2068977355957 13.49289989471436 57.10409927368164 13.30992031097412 56.92110824584961 L 2.595369338989258 46.20610809326172 C 1.007499694824219 44.82093811035156 0 42.78685760498047 0 40.51323699951172 C 0 36.33721923828125 3.384420394897461 32.95199966430664 7.560449600219727 32.95199966430664 Z"/></g></g></g></svg>