<svg xmlns="http://www.w3.org/2000/svg" width="28" height="28" viewBox="0 0 28 28"><defs><style>.a{fill:#fff;stroke:#707070;opacity:0.004;}.b{stroke:none;}.c{fill:none;}</style></defs><g transform="translate(-1124 -566)"><g class="a" transform="translate(1124 566)"><rect class="b" width="28" height="28"/><rect class="c" x="0.5" y="0.5" width="27" height="27"/></g><g transform="translate(1126 479.516)"><g transform="translate(0 92.835)"><g transform="translate(0 0)"><path d="M23.847,100.017c-.214-.293-5.323-7.182-11.848-7.182S.366,99.723.152,100.016a.792.792,0,0,0,0,.934c.214.293,5.323,7.182,11.848,7.182s11.633-6.888,11.848-7.181A.791.791,0,0,0,23.847,100.017ZM12,106.549c-4.806,0-8.969-4.572-10.2-6.066,1.231-1.5,5.384-6.065,10.2-6.065s8.968,4.571,10.2,6.066C20.97,101.98,16.816,106.549,12,106.549Z" transform="translate(0 -92.835)"/></g></g><g transform="translate(7.253 95.736)"><g transform="translate(0 0)"><path d="M159.469,154.725a4.747,4.747,0,1,0,4.747,4.747A4.753,4.753,0,0,0,159.469,154.725Zm0,7.912a3.165,3.165,0,1,1,3.165-3.165A3.168,3.168,0,0,1,159.469,162.637Z" transform="translate(-154.722 -154.725)"/></g></g></g></g></svg>