<svg xmlns="http://www.w3.org/2000/svg" width="28" height="28" viewBox="0 0 28 28"><defs><style>.a{fill:#fff;opacity:0.004;}</style></defs><g transform="translate(-1124 -523)"><rect class="a" width="28" height="28" transform="translate(1124 523)"/><g transform="translate(1126 525.66)"><path d="M175.2,403.834H160.8a.8.8,0,1,1,0-1.6h14.4a.8.8,0,1,1,0,1.6Zm0,0" transform="translate(-151.996 -381.651)"/><path d="M.8,22.184A.8.8,0,0,1,.022,21.2l1.163-4.933a.792.792,0,0,1,.213-.382L16.106,1.177a2.458,2.458,0,0,1,3.394,0l1.508,1.508a2.4,2.4,0,0,1,0,3.394L6.3,20.786A.8.8,0,0,1,5.918,21L.985,22.162A.777.777,0,0,1,.8,22.184Zm1.889-5.329-.814,3.454,3.454-.814L19.877,4.947a.8.8,0,0,0,0-1.131L18.368,2.307a.819.819,0,0,0-1.131,0Zm3.044,3.366h0Zm0,0" transform="translate(0 0)"/><path d="M257.435,79.272a.794.794,0,0,1-.565-.235L253.1,75.266a.8.8,0,1,1,1.132-1.132L258,77.906a.8.8,0,0,1-.566,1.366Zm0,0" transform="translate(-240.22 -69.733)"/></g></g></svg>