<svg xmlns="http://www.w3.org/2000/svg" width="32" height="32" viewBox="0 0 32 32"><defs><style>.a{fill:#fff;stroke:#707070;opacity:0.001;}.b{stroke:none;}.c{fill:none;}</style></defs><g transform="translate(-986 -858)"><g class="a" transform="translate(986 858)"><rect class="b" width="32" height="32"/><rect class="c" x="0.5" y="0.5" width="31" height="31"/></g><path d="M14,52.911a1.642,1.642,0,0,1-1.082-.407c-1.131-.989-2.222-1.919-3.184-2.738l0,0a59.212,59.212,0,0,1-6.952-6.525A10.422,10.422,0,0,1,0,36.415a8.752,8.752,0,0,1,2.221-5.977A7.529,7.529,0,0,1,7.822,28a7.043,7.043,0,0,1,4.4,1.519A9,9,0,0,1,14,31.376a9,9,0,0,1,1.779-1.857A7.043,7.043,0,0,1,20.178,28a7.53,7.53,0,0,1,5.6,2.438A8.751,8.751,0,0,1,28,36.415a10.421,10.421,0,0,1-2.777,6.822,59.2,59.2,0,0,1-6.951,6.525c-.964.821-2.056,1.752-3.19,2.744A1.643,1.643,0,0,1,14,52.911ZM7.822,29.64a5.907,5.907,0,0,0-4.4,1.909A7.119,7.119,0,0,0,1.64,36.415a8.769,8.769,0,0,0,2.4,5.775,58.272,58.272,0,0,0,6.753,6.323l.005,0c.966.823,2.061,1.756,3.2,2.753,1.146-1,2.243-1.933,3.211-2.757A58.283,58.283,0,0,0,23.96,42.19a8.77,8.77,0,0,0,2.4-5.775,7.119,7.119,0,0,0-1.787-4.865,5.907,5.907,0,0,0-4.395-1.909,5.44,5.44,0,0,0-3.4,1.176,7.96,7.96,0,0,0-1.893,2.19,1.035,1.035,0,0,1-1.779,0,7.952,7.952,0,0,0-1.893-2.19A5.44,5.44,0,0,0,7.822,29.64Z" transform="translate(988 834)"/></g></svg>