<svg xmlns="http://www.w3.org/2000/svg" width="32" height="32" viewBox="0 0 32 32"><defs><style>.a{opacity:0.999;}.b{fill:#fff;opacity:0;}.c{fill:#fd5d63;}.d,.e{stroke:none;}.e{fill:#000;}</style></defs><g class="a" transform="translate(-1238 -322)"><g transform="translate(252 -536)"><rect class="b" width="32" height="32" transform="translate(986 858)"/><g class="c" transform="translate(988 828.921)"><path class="d" d="M 13.99991989135742 56.4568977355957 C 13.93959045410156 56.4568977355957 13.88288974761963 56.43341827392578 13.84025955200195 56.39078903198242 L 3.125710010528564 45.67578887939453 L 3.1076500415802 45.65773010253906 L 3.088399887084961 45.64093017578125 C 1.602309942245483 44.34455871582031 0.75 42.47557830810547 0.75 40.51323699951172 C 0.75 36.75750732421875 3.805160045623779 33.70199966430664 7.560450077056885 33.70199966430664 C 9.939760208129883 33.70199966430664 12.10816955566406 34.91888809204102 13.36096000671387 36.95718765258789 L 13.99987983703613 37.99671936035156 L 14.63885974884033 36.95722961425781 C 15.89181995391846 34.91890716552734 18.05994033813477 33.70199966430664 20.43858909606934 33.70199966430664 C 24.19441032409668 33.70199966430664 27.25 36.75750732421875 27.25 40.51323699951172 C 27.25 42.47554016113281 26.39763069152832 44.34450912475586 24.91143989562988 45.64093017578125 L 24.89219093322754 45.65771865844727 L 24.87412071228027 45.67578887939453 L 14.15958023071289 56.39078903198242 C 14.11695003509521 56.43341827392578 14.0602502822876 56.4568977355957 13.99991989135742 56.4568977355957 Z"/><path class="e" d="M 7.560449600219727 34.45199966430664 C 4.218709945678711 34.45199966430664 1.5 37.17105865478516 1.5 40.51323699951172 C 1.5 42.25886917114258 2.258649826049805 43.92183685302734 3.581430435180664 45.07575988769531 L 3.619930267333984 45.10933685302734 L 3.656049728393555 45.14546966552734 L 13.99991989135742 55.48977279663086 L 24.34378051757812 45.14546966552734 L 24.37990951538086 45.10932922363281 L 24.41843032836914 45.07573699951172 C 25.74130058288574 43.92178726196289 26.5 42.25881958007812 26.5 40.51323699951172 C 26.5 37.17105865478516 23.78086090087891 34.45199966430664 20.43859100341797 34.45199966430664 C 18.3225212097168 34.45199966430664 16.39324951171875 35.53535842895508 15.27779960632324 37.34997940063477 L 13.99983978271484 39.42897033691406 L 12.72200012207031 37.34990692138672 C 11.60671043395996 35.53532791137695 9.677160263061523 34.45199966430664 7.560449600219727 34.45199966430664 M 7.560449600219727 32.95199966430664 C 10.28726005554199 32.95199966430664 12.66969966888428 34.40018844604492 13.99991989135742 36.56446838378906 C 15.33030986785889 34.40018844604492 17.71171951293945 32.95199966430664 20.43859100341797 32.95199966430664 C 24.61462020874023 32.95199966430664 28 36.33721923828125 28 40.51323699951172 C 28 42.78685760498047 26.99238967895508 44.82093811035156 25.40446090698242 46.20610809326172 L 14.68992042541504 56.92110824584961 C 14.50693035125732 57.10409927368164 14.25876045227051 57.2068977355957 13.99991989135742 57.2068977355957 C 13.74106979370117 57.2068977355957 13.49289989471436 57.10409927368164 13.30992031097412 56.92110824584961 L 2.595369338989258 46.20610809326172 C 1.007499694824219 44.82093811035156 0 42.78685760498047 0 40.51323699951172 C 0 36.33721923828125 3.384420394897461 32.95199966430664 7.560449600219727 32.95199966430664 Z"/></g></g></g></svg>