<svg xmlns="http://www.w3.org/2000/svg" width="32" height="32" viewBox="0 0 32 32"><defs><style>.a{opacity:0.999;}.b{fill:#fff;opacity:0;}.c{fill:none;}.d,.e{stroke:none;}.e{fill:#000;}</style></defs><g class="a" transform="translate(-1238 -322)"><g transform="translate(252 -536)"><rect class="b" width="32" height="32" transform="translate(986 858)"/><g class="c" transform="translate(988 828.921)"><path class="d" d="M28,40.513a7.555,7.555,0,0,0-14-3.949A7.555,7.555,0,1,0,2.6,46.206L13.31,56.921a.976.976,0,0,0,1.38,0L25.4,46.206A7.533,7.533,0,0,0,28,40.513Z"/><path class="e" d="M 7.560449600219727 34.45199966430664 C 4.218709945678711 34.45199966430664 1.5 37.17105865478516 1.5 40.51323699951172 C 1.5 42.25886917114258 2.258649826049805 43.92183685302734 3.581430435180664 45.07575988769531 L 3.619930267333984 45.10933685302734 L 3.656049728393555 45.14546966552734 L 13.99991989135742 55.48977279663086 L 24.34378051757812 45.14546966552734 L 24.37990951538086 45.10932922363281 L 24.41843032836914 45.07573699951172 C 25.74130058288574 43.92178726196289 26.5 42.25881958007812 26.5 40.51323699951172 C 26.5 37.17105865478516 23.78086090087891 34.45199966430664 20.43859100341797 34.45199966430664 C 18.3225212097168 34.45199966430664 16.39324951171875 35.53535842895508 15.27779960632324 37.34997940063477 L 13.99983978271484 39.42897033691406 L 12.72200012207031 37.34990692138672 C 11.60671043395996 35.53532791137695 9.677160263061523 34.45199966430664 7.560449600219727 34.45199966430664 M 7.560449600219727 32.95199966430664 C 10.28726005554199 32.95199966430664 12.66969966888428 34.40018844604492 13.99991989135742 36.56446838378906 C 15.33030986785889 34.40018844604492 17.71171951293945 32.95199966430664 20.43859100341797 32.95199966430664 C 24.61462020874023 32.95199966430664 28 36.33721923828125 28 40.51323699951172 C 28 42.78685760498047 26.99238967895508 44.82093811035156 25.40446090698242 46.20610809326172 L 14.68992042541504 56.92110824584961 C 14.50693035125732 57.10409927368164 14.25876045227051 57.2068977355957 13.99991989135742 57.2068977355957 C 13.74106979370117 57.2068977355957 13.49289989471436 57.10409927368164 13.30992031097412 56.92110824584961 L 2.595369338989258 46.20610809326172 C 1.007499694824219 44.82093811035156 0 42.78685760498047 0 40.51323699951172 C 0 36.33721923828125 3.384420394897461 32.95199966430664 7.560449600219727 32.95199966430664 Z"/></g></g></g></svg>