<?xml version="1.0" encoding="utf-8"?>
<!-- Generator: Adobe Illustrator 24.0.3, SVG Export Plug-In . SVG Version: 6.00 Build 0)  -->
<svg version="1.1" id="Layer_1" xmlns="http://www.w3.org/2000/svg" xmlns:xlink="http://www.w3.org/1999/xlink" x="0px" y="0px"
	 viewBox="0 0 250 250" style="enable-background:new 0 0 250 250;" xml:space="preserve">
<style type="text/css">
	.st0{fill-rule:evenodd;clip-rule:evenodd;fill:#05AC83;}
	.st1{fill:#010101;}
	.st2{fill-rule:evenodd;clip-rule:evenodd;fill:#8583BF;}
	.st3{fill-rule:evenodd;clip-rule:evenodd;fill:#0F81C2;}
	.st4{fill:none;stroke:#010101;stroke-width:2;stroke-linecap:round;stroke-linejoin:round;}
</style>
<title>Q_01</title>
<g id="Layer_2_1_">
	<g id="Landmark">
		<path class="st0" d="M142,88.5c-0.1,0-0.3,0-0.4-0.1l-20.9-8.2c-0.4-0.1-0.6-0.5-0.6-0.9s0.2-0.8,0.6-0.9
			c11.5-5.3,19.7-6.5,24.6-6.5c7.9,0,12.9,2.9,12.9,7.4c0,3.2-2.8,5.7-8.3,7.5C147.4,87.7,144.8,88.2,142,88.5L142,88.5z"/>
		<path class="st1" d="M145.3,73c7.6,0,11.9,2.8,11.9,6.4c0,6.5-15.2,8.2-15.2,8.2l-20.9-8.2C130.9,74.8,139.2,73,145.3,73
			 M145.3,71L145.3,71c-5,0-13.4,1.1-25,6.6c-1,0.5-1.4,1.7-1,2.7c0.2,0.5,0.6,0.8,1.1,1l21,8.2c0.2,0.1,0.5,0.1,0.7,0.1h0.2
			c2.7-0.3,5.4-0.9,8-1.7c5.9-1.9,9-4.8,9-8.4C159.3,75.6,155.6,71.1,145.3,71L145.3,71z"/>
		<path class="st2" d="M113,242.4c-0.6,0-1-0.4-1-1v-71.5l8.1-90.6c0-0.3,0.2-0.5,0.4-0.7c0.2-0.1,0.4-0.2,0.6-0.2h0.1
			c3.6,0.5,7.2,1.3,10.7,2.2c7.7,2,11.3,4.3,11.1,7c0,0.7-0.2,1.9-0.3,3.5c-0.9,9.9-3.6,40.2-0.7,86.3c3.4,52.9-2.8,64.1-3.1,64.6
			c-0.2,0.3-0.5,0.5-0.9,0.5L113,242.4z"/>
		<path class="st1" d="M121.1,79.4c0,0,21.2,3,21,8.2s-4.4,36.6-1,89.9c3.4,53.2-3,64-3,64h-25v-71.5L121.1,79.4 M121.2,77.4
			c-0.5,0-0.9,0.1-1.3,0.4s-0.7,0.8-0.8,1.4l-8.1,90.5c0,0.1,0,0.1,0,0.2v71.5c0,1.1,0.9,2,2,2h25c0.7,0,1.4-0.4,1.7-1
			c0.2-0.3,1.8-3.3,3-12.8c1.6-12.5,1.6-30.1,0.2-52.3c-2.9-46-0.2-76.2,0.7-86.1c0.2-1.6,0.2-2.8,0.3-3.5c0.2-3.4-3.5-5.8-11.9-8.1
			C128.4,78.7,124.8,77.9,121.2,77.4h-0.3H121.2z"/>
		<path class="st3" d="M93.5,242.4c-0.5,0-1-0.4-1-0.9c-2.3-43.6,1.9-123.1,4.2-165.8c0.7-13.9,1.3-24,1.4-28.6
			c0.1-2.9,0.1-5.7,0.1-8.4c0.2-15.8,0.3-27.1,5.9-30.4c0.7-0.5,1.6-0.7,2.5-0.8c3.2,0,4.5,3.9,5,6.9c0.2-0.1,0.4-0.1,0.6-0.1
			c1.2,0,3.1,0,7,20.5c5.4,28.9,9.3,41.6,9.3,41.7c0.2,0.5-0.1,1-0.6,1.2l-5.7,2.3c0.8,7.1,7.4,61.8,10.5,85c3.4,24.8,0,60.2,0,60.6
			c0,0.3-0.2,0.5-0.4,0.7l-18.7,16c-0.2,0.2-0.4,0.2-0.6,0.2L93.5,242.4z"/>
		<path class="st1" d="M106.5,8.6c4.1,0,4.4,9.2,4.4,9.2s0.3-2.5,1.2-2.5c1.1,0,3,3.6,6,19.7c5.5,29.3,9.3,41.8,9.3,41.8l-6.3,2.7
			c0,0,7.2,60.8,10.6,85.8s0,60.3,0,60.3l-18.7,16H93.5c-3-57.3,5.1-175,5.5-194.4s-0.4-34.5,5.5-37.9
			C105.1,8.8,105.8,8.6,106.5,8.6 M106.5,6.6c-1.1,0-2.1,0.3-3,0.9c-6,3.5-6.2,15.1-6.4,31.2c0,2.7-0.1,5.5-0.1,8.4
			c-0.1,4.6-0.6,14.7-1.4,28.6c-2.2,42.7-6.4,122.2-4.2,165.9c0.1,1.1,0.9,1.9,2,1.9h19.5c0.5,0,0.9-0.2,1.3-0.5l18.7-15.9
			c0.4-0.3,0.6-0.8,0.7-1.3c0-0.4,3.4-35.9,0-60.8c-3-22.5-9.3-74.7-10.4-84.2l5-2c1-0.4,1.5-1.4,1.2-2.4c0-0.1-3.9-12.8-9.3-41.6
			c-3.7-19.1-5.6-21.2-7.8-21.3C111.7,10.2,110.1,6.6,106.5,6.6L106.5,6.6z"/>
		<path class="st4" d="M106.3,76.3c3.8-1.2,7.8-2,11.9-2.2"/>
		<path class="st4" d="M105.4,66c4.2-0.8,8.5-1.2,12.7-1.3"/>
		<path class="st4" d="M105.4,56h11"/>
		<path class="st4" d="M115.2,45.4L105,46.6"/>
		<path class="st4" d="M128.6,90.3l7.1,0.6c0.9,0,1.7,0.2,2.5,0.7"/>
		<path class="st4" d="M127.9,97.8c3,0.4,6,1.1,8.9,2.1"/>
		<path class="st4" d="M128.2,106.3c2.7,0.2,5.4,0.6,8.1,1.3"/>
	</g>
</g>
</svg>
