<?xml version="1.0" encoding="utf-8"?>
<!-- Generator: Adobe Illustrator 24.0.3, SVG Export Plug-In . SVG Version: 6.00 Build 0)  -->
<svg version="1.1" id="Layer_1" xmlns="http://www.w3.org/2000/svg" xmlns:xlink="http://www.w3.org/1999/xlink" x="0px" y="0px"
	 viewBox="0 0 360 360" style="enable-background:new 0 0 360 360;" xml:space="preserve">
<style type="text/css">
	.st0{fill:#08AD84;}
	.st1{fill:#010101;}
	.st2{fill:#8683BF;}
	.st3{fill:#0C81C3;}
	.st4{fill:none;stroke:#010101;stroke-width:2;stroke-linecap:round;stroke-linejoin:round;}
	.st5{fill:#8683BF;stroke:#010101;stroke-width:2;stroke-linecap:round;stroke-linejoin:round;}
	.st6{fill:#08AD84;stroke:#010101;stroke-width:2;stroke-linecap:round;stroke-linejoin:round;}
	.st7{fill:#0C81C3;stroke:#010101;stroke-width:2;stroke-linecap:round;stroke-linejoin:round;}
</style>
<title>Q_11</title>
<g id="Layer_2_1_">
	<g id="Landmark">
		<path class="st0" d="M147.3,151c-0.9,0-1.6-0.5-2-1.3c-0.2-0.4-0.3-0.8-0.3-1.3c0-0.1,0-0.2,0-0.3l0,0l-0.2-0.1
			c-1.4-0.6-2.9-0.9-4.4-1.1c-2.2-0.2-3-3.7-3.5-7.4c-0.3-2.4,2.2-6.1,2.5-6.6c0.2-0.3,0.5-0.4,0.8-0.4l0,0c0.3,0,0.6,0.2,0.8,0.4
			l1.9,2.6c0.1,0.2,0.2,0.4,0.2,0.6c0,0.8-0.1,1.7-0.2,2.5c-0.1,0.7-0.1,1.4-0.2,2.1c0.1,1.5,1.2,2.8,2.6,3.2
			c0.5,0.2,1.1,0.3,1.6,0.3l0,0c0.3,0,0.5,0,0.8-0.1c0.2,0,0.4-0.1,0.6-0.1c0.6,0,1.1,0.4,1.3,1c0.5,1,0.7,3.5-0.4,4.8
			C148.9,150.6,148.1,151,147.3,151z"/>
		<path class="st1" d="M140.2,133.6l1.9,2.6c0,2-0.3,2.6-0.3,4.6c0.1,2,1.4,3.6,3.3,4.1c0.6,0.2,1.3,0.3,1.9,0.3
			c0.7,0,1.1-0.1,1.5-0.1l0,0c0.6,0,1.1,3,0.2,4.1c-0.3,0.4-0.8,0.7-1.3,0.7c-0.5,0-0.9-0.3-1.1-0.7c-0.5-0.9,0.1-1.6-1-2.1
			c-1.5-0.6-3.1-1-4.6-1.2c-1.7-0.2-2.3-4.5-2.6-6.5c-0.3-2.1,2.3-5.9,2.3-5.9 M140.3,131.6L140.3,131.6c-0.7,0-1.3,0.3-1.6,0.9
			c-0.7,1-3,4.7-2.7,7.3c0.4,2.8,1.1,7.9,4.4,8.2c1.3,0.1,2.5,0.4,3.7,0.9c0.1,0.5,0.2,0.9,0.4,1.3c0.5,1.1,1.6,1.8,2.9,1.8
			c1.1-0.1,2.1-0.6,2.7-1.4c1.5-1.7,1.1-4.6,0.6-5.8c-0.3-0.9-1.2-1.6-2.2-1.6c-0.3,0-0.5,0-0.8,0.1c-0.2,0-0.5,0.1-0.7,0.1
			c-0.4,0-0.9-0.1-1.3-0.2c-1-0.3-1.8-1.1-1.9-2.2c0-0.7,0.1-1.3,0.2-2c0.1-0.9,0.2-1.8,0.2-2.7c0-0.4-0.1-0.8-0.4-1.2l-1.9-2.6
			C141.5,131.9,140.9,131.5,140.3,131.6L140.3,131.6z"/>
		<path class="st2" d="M141.1,164.4c-0.1,0-0.2,0-0.2,0l-8.8-2.1c-0.3-0.1-0.5-0.3-0.7-0.5l-3.6-6.9c-0.1-0.2-0.1-0.4-0.1-0.5
			l0.5-6.7c0-0.1,0-0.2,0.1-0.3l1-2.8c0.1-0.4,0.5-0.6,0.9-0.7h0.1l3.6,0.6c0.1,0,0.2,0,0.3,0.1l0.7,0.3c3.5,1.8,7.4,3.8,8.4,7.3
			c0.8,2.4,1.1,5,0.8,7.6c-0.3,4-2.8,4.6-2.9,4.6H141.1z"/>
		<path class="st1" d="M130.3,144.9l3.7,0.5c3.6,1.8,7.7,3.8,8.5,7c0.8,2.3,1,4.8,0.7,7.2c-0.2,3.3-2.1,3.7-2.1,3.7l-8.8-2.1
			l-3.6-6.9l0.6-6.7L130.3,144.9 M130.2,142.9c-0.8,0-1.6,0.5-1.9,1.3l-1,2.9c-0.1,0.2-0.1,0.3-0.1,0.5l-0.5,6.7
			c0,0.4,0,0.7,0.2,1.1l3.6,6.9c0.3,0.5,0.7,0.9,1.3,1l8.8,2.1c0.2,0,0.3,0,0.5,0c0.1,0,0.3,0,0.4,0c0.3-0.1,3.3-0.9,3.7-5.5
			c0.4-2.7,0.1-5.4-0.8-7.9c-1.1-3.9-5.2-6-8.9-7.9l-0.7-0.3c-0.2-0.1-0.4-0.2-0.6-0.2l-3.6-0.5
			C130.5,142.9,130.4,142.9,130.2,142.9L130.2,142.9z"/>
		<path class="st3" d="M131.3,212.3c-0.4,0-0.9-0.2-1.2-0.4c-0.7-0.5-1.4-1.1-2-1.8c-0.6-0.7-1.3-1.3-2.1-1.8
			c-1.7-1-3.5-1.8-5.4-2.4l-2-0.8c-1.1-0.4-2.1-0.9-3.2-1.5c-1.5-1-3.2-1.7-5-2.1c-4.3-0.8-4.2-5.3-3.7-9.6c0.6-5.3,0.3-6.2-1-9.1
			c-0.4-0.7-0.4-1.6,0-2.4c1.2-2.2,5.9-3,6.8-3.1l0.6-0.1l5.9,7.8l-0.1,0.5c-0.6,2-1.3,4-2.1,6c-0.5,1-0.8,2.1-1,3.3
			c-0.3,2,2,5.4,4.8,6.1c3.4,1,6.7,2.1,10,3.4c0.4,0.1,0.8,0.2,1.2,0.2c1.1,0.1,2.3,0.2,2.8,1.2c0.3,0.8,0.1,1.6-0.4,2.2
			c-0.4,0.7-0.8,1.4-1,2.2C132.9,211.2,132.5,212.3,131.3,212.3z"/>
		<path class="st1" d="M112.7,178.4l5.3,7c-1.7,5.8-2.7,6.8-3.1,9.4s2.3,6.4,5.6,7.2c3.2,0.8,8.6,2.9,9.8,3.4s4.7-0.1,3.1,2.2
			c-1.3,1.9-1.2,3.8-2.1,3.8c-0.2,0-0.5-0.1-0.7-0.3c-1.7-1.1-2.1-2.2-4.1-3.5c-2-1.4-5-2.2-7.6-3.3c-2.6-1.1-5.3-3.2-8.3-3.7
			s-3.5-3.2-2.9-8.5s0.3-6.5-1.1-9.6S112.7,178.4,112.7,178.4 M113.6,176.3l-1.2,0.1c-1.4,0.2-6.1,1-7.6,3.6c-0.6,1-0.6,2.2-0.1,3.3
			c1.2,2.7,1.5,3.5,1,8.6c-0.4,3.4-1.1,9.7,4.5,10.7c1.7,0.4,3.2,1.1,4.7,2c1,0.6,2.1,1.1,3.1,1.5c0.7,0.3,1.4,0.5,2.1,0.8
			c1.8,0.6,3.5,1.4,5.2,2.3c0.7,0.5,1.4,1,2,1.7c0.7,0.7,1.4,1.3,2.2,1.9c0.5,0.4,1.1,0.6,1.8,0.6c1.8,0,2.4-1.8,2.8-2.7
			c0.2-0.7,0.5-1.4,0.9-2c0.8-0.9,1-2.2,0.5-3.2c-0.7-1.5-2.4-1.7-3.6-1.8c-0.3,0-0.6-0.1-0.9-0.1c-3.3-1.3-6.7-2.5-10.1-3.5
			c-2.3-0.6-4.3-3.6-4.1-5c0.2-1,0.5-2,0.9-3c0.8-2,1.5-4,2.1-6.1l0.3-1l-0.6-0.8l-5.3-7L113.6,176.3L113.6,176.3z"/>
		<path class="st3" d="M132.3,214.5c-1.6-0.1-3.1-0.4-4.6-0.9c-1-0.4-2.1-0.6-3.2-0.7h-0.1c-1.7,0-3.4,0.4-5,1
			c-0.6,0.2-1.2,0.4-1.9,0.4c-0.7,0.1-1.4-0.3-1.9-0.9c-0.4-0.9-0.4-2,0.2-2.9c0.4-1,0.9-2,1.5-2.9c0.1-0.2,0.2-0.3,0.3-0.5
			c0.1-0.6,0.7-1.1,1.3-1.1c1.2,0,3.4,1.4,3.6,1.6c1.9,0.8,4,1.3,6.2,1.3c0.3,0,0.6,0,0.9-0.1c0.2-0.1,0.4-0.1,0.7-0.2
			c1.1-0.3,1.6-0.5,1.1-3c-0.4-2-0.2-4,0.3-5.9c0.4-1.5,0.6-3,0.6-4.6c0.1-4.6,0.7-6,0.9-6.3l0.5-0.8l11.1,5.5l-0.2,0.8
			c-0.9,2.9-2.1,5.6-3.7,8.2c-0.5,0.9-0.9,1.7-1.3,2.5c-0.5,1-0.9,2.1-1.2,3.3c-0.6,2-1.2,3.9-3.3,5.2
			C134.3,214.2,133.3,214.5,132.3,214.5z"/>
		<path class="st1" d="M134.2,189.5l9.5,4.7c-0.8,3.3-3.2,7.1-4.9,10.5c-1.7,3.4-1.5,6.3-4.2,8.1c-0.7,0.4-1.4,0.6-2.2,0.6
			c-2.6,0-5.7-1.6-7.7-1.6h-0.2c-1.8,0-3.6,0.3-5.3,1c-0.5,0.2-1,0.3-1.5,0.3c-1,0-1.6-0.6-0.8-2.4c1.2-2.6,1.9-3.1,2-3.7
			c0-0.1,0.1-0.2,0.3-0.2c1.1,0.3,2.2,0.7,3.1,1.4c1.1,0.7,4.6,1.5,6.7,1.5c0.4,0,0.8,0,1.2-0.2c1.5-0.5,3.2-0.4,2.4-4.3
			c-0.8-3.9,0.9-5.6,1-10.2C133.6,190.7,134.2,189.5,134.2,189.5 M133.4,186.8l-0.9,1.7c-0.3,0.5-0.9,2.1-1,6.7
			c-0.1,1.5-0.3,3-0.7,4.4c-0.6,2-0.7,4.2-0.3,6.3c0.1,0.5,0.2,1.1,0.1,1.6l-0.5,0.2c-0.2,0.1-0.5,0.1-0.7,0.2l0,0
			c-0.2,0-0.4,0-0.6,0c-1.9,0-3.8-0.4-5.6-1.1c-0.6-0.4-2.7-1.7-4.2-1.7c-1.1,0-2,0.7-2.3,1.7c0,0.1-0.1,0.2-0.2,0.3
			c-0.6,1-1.2,2-1.6,3c-0.7,1.2-0.7,2.6-0.1,3.8c0.6,0.9,1.6,1.4,2.7,1.4c0.8,0,1.5-0.2,2.2-0.5c1.5-0.6,3.1-0.9,4.7-0.9h0.1
			c1,0.1,1.9,0.3,2.9,0.6c1.6,0.5,3.2,0.8,4.9,0.9c1.2,0,2.3-0.3,3.3-0.9c2.3-1.6,3-3.7,3.7-5.8c0.3-1.1,0.7-2.1,1.2-3.1
			c0.4-0.8,0.9-1.6,1.3-2.5c1.6-2.7,2.9-5.5,3.8-8.5l0.4-1.6l-1.4-0.7l-9.5-4.7L133.4,186.8L133.4,186.8z"/>
		<path class="st3" d="M66.5,184.8c-1.4,0-1.8-0.7-2-1.1s-0.1-1.2,0.9-2l0.3-0.2c-0.7,0.2-1.4,0.5-2.3,0.8c-1.6,0.7-3.2,1.1-4.9,1.2
			c-1.8,0-2.1-0.9-2.1-1.3s-0.2-2,5.3-3.3c1.9-0.4,3.6-1.2,5.2-2.3c-3.2,1-6.5,1.7-9.9,2.2c-0.8,0.1-1.7,0.2-2.6,0.2
			c-1.5,0.1-3-0.5-4.1-1.4c-0.9-0.7-1.9-1.2-3-1.4c-0.2,0-0.4,0-0.5,0c-2.1,0-5.3,1.7-7.2,2.8c-1.4,0.8-1.9,1-2.3,1
			c-0.4,0-0.8-0.3-1-0.6c-0.3-0.8,0.2-1.4,1.5-2.8c4.1-4.5,7.5-5.1,14.9-6.6c1.6-0.3,3.3-0.7,5.3-1.1c2.5-0.5,4.9-1.2,7.2-2.3
			c1.9-0.9,3-1.2,10.4-1.2c7.1,0,8-0.9,8.9-1.9c0.9-1,1.8-1.9,5.2-2.6h0.2c0.6,0,1,0.4,1,1c0,0.1,0,0.2,0,0.3c0,0-1,3.4-2,6.8
			c-1,3.1-6.6,7.7-7.9,7.7l0,0c-0.3,0-0.6-0.1-0.8-0.4c-1.2,1.2-2.2,2.5-2.8,4.1c-1,2.3-2.1,3.4-3.1,3.4c-0.6,0-1.1-0.3-1.3-0.9
			c-0.2-0.5-0.2-1-0.2-1.4l-0.1,0.2C71.2,183.6,68.9,184.7,66.5,184.8z"/>
		<path class="st1" d="M89.8,161.8L89.8,161.8 M89.8,161.8c0,0-1,3.4-2,6.8c-0.9,2.9-6.3,7-6.9,7c-0.1,0-0.1-0.1,0.2-0.4
			c0.2-0.2,0.3-0.3,0.3-0.5c0-0.2,0-0.2-0.2-0.2c-0.7,0-3.2,1.7-4.9,5.5c-0.9,2-1.7,2.8-2.2,2.8c-0.8,0-0.7-2,1.2-4.2
			c1-1.2,1.2-1.6,0.9-1.6c-0.5,0-2.9,2-4.5,4.2c-1.3,1.7-3.2,2.7-5.3,2.8c-1,0-1.5-0.5-0.4-1.3c1.2-0.9,2.6-2.2,3.6-3.1
			c0.5-0.1,1-0.4,1.2-0.9c0.2-0.2,0.2-0.3,0.1-0.3c-0.5,0.4-0.9,0.7-1.4,1.2c-2.2,0.5-4.4,1.2-6.6,2.1c-1.4,0.6-3,1-4.6,1.1
			c-2.1,0-1.5-1.4,3.4-2.7c6.7-1.7,7.2-4.7,6.1-4.7c-0.1,0-0.2,0-0.3,0c-3.6,1.2-7.2,2-10.9,2.6c-0.8,0.1-1.6,0.2-2.4,0.2
			c-3.5,0-3.2-2.1-6.9-2.8c-0.2,0-0.5-0.1-0.7-0.1c-3.4,0-8.8,3.8-9.5,3.8c-0.3,0,0.1-0.5,1.2-1.7c4.7-5.1,8.3-5,19.7-7.4
			s4.5-3.5,17.4-3.5S82.3,163.2,89.8,161.8 M89.9,159.8L89.9,159.8h-0.4c-3.5,0.7-4.7,1.7-5.7,2.9c-0.7,0.8-1.5,1.6-8.1,1.6
			c-7.7,0-8.8,0.3-10.8,1.3c-2.2,1-4.6,1.8-7,2.2c-2,0.4-3.7,0.8-5.2,1.1c-7.4,1.6-11.1,2.3-15.5,7c-1.3,1.4-2.3,2.4-1.7,3.9
			c0.3,0.8,1.1,1.2,1.9,1.2c0.7,0,1.4-0.3,2.8-1.1c1.7-0.9,4.9-2.6,6.7-2.6c0.1,0,0.2,0,0.3,0c0.9,0.2,1.8,0.6,2.6,1.2
			c1.3,1.1,3,1.7,4.7,1.7c0.7,0,1.4-0.1,2.1-0.2c-0.8,0.5-1.3,1.5-1.2,2.4c0.1,0.5,0.5,2.2,3.1,2.2c1.7-0.1,3.4-0.5,4.9-1.1
			c0,0.2,0,0.5,0.1,0.7c0.2,0.5,0.8,1.7,2.9,1.7c2.1-0.1,4.1-0.8,5.7-2.1c0.4,0.7,1.2,1.1,2,1.1c1.5,0,2.8-1.3,4-4
			c0.5-1.2,1.2-2.3,2.1-3.2c0.2,0.1,0.4,0.1,0.6,0.1c2,0,7.8-5.2,8.8-8.4s1.8-6.2,2-6.8c0.1-0.2,0.1-0.4,0.1-0.7
			C91.8,160.7,90.9,159.8,89.9,159.8L89.9,159.8z"/>
		<path class="st3" d="M99.1,217.5c-0.5,0-1.1-0.3-1.4-0.7c-0.7-1.2,0.2-3.2,1.7-6l0.3-0.6c0.2-0.4,0.8-1.5,1.9-1.5
			c0.5,0,0.9,0.2,1.3,0.4l0.3,0.2c0.9-0.9,4.4-7.1,5.3-9.3c-0.9-0.4-3.7-0.5-5.4-0.5c-1.1,0-2.3-0.1-3.4-0.1c-0.3,0-0.7,0-1,0
			c-0.9,0-1.8,0.1-2.7,0.1c-0.9,0.1-1.7,0.1-2.5,0.1c-1.4,0-2.9-0.1-3.7-1.2c-0.5-0.7-0.7-1.6-0.4-2.4c0.7-2.6,1.6-5.2,2.8-7.6
			c0.7-1.6,1.5-3.6,1.8-4.6h-0.4c-2.8-0.2-9.3-0.8-11-9c-2.2-10.1,4.7-15.8,11.8-20c2.7-1.6,5.8-2.4,9-2.3c4.5,0,8.9,1.3,12.4,2.3
			l0.6,0.2c2.8,0.8,7.5,1.2,14.2,1.2c2.6,0,4.9-0.1,6.6-0.1h1.1c2.9-0.1,4-1,7.1-3.9c0.9-0.8,1.8-1.7,3.1-2.8
			c5.8-5.1,8.8-10.2,8-11.9c-0.6-1-0.7-2.3-0.1-3.4c0.4-0.6,1.1-1,1.8-1.1c0.6,0,1.1,0.3,1.5,0.7c0.6,0.4,1.3,0.7,2.1,1
			c1.7,0.6,3.4,1.4,4.8,2.5c0.6,0.5,1.4,0.8,2.2,0.8c1.6,0,3,1,3.8,2.4c1.2,1.9,3.9,3.9,6.7,6c1.4,1.1,2.9,2.1,4.2,3.3
			c0.2,0,0.4,0,0.6,0c0.9-0.1,1.9,0.2,2.5,0.8c0.4,0.6,0.6,1.3,0.4,2c-0.1,0.7-0.2,1.4-0.3,2c-0.2,1.9-0.4,3.5-1.8,3.5l0,0
			c-0.2,0-0.4,0-0.6-0.1l0,0c-0.2,0-0.7,0.4-1.1,1.4c-0.6,1.2-1.9,2-3.3,2c-1.1,0.1-2.1-0.7-2.3-1.8l0,0c-0.2-0.1-0.4-0.1-0.6-0.1
			c-0.3,0-0.5,0-0.8,0c-0.3,0.1-0.6,0-0.8,0c-0.5,0-1-0.1-1.4-0.5c-1.8-0.8-3.7-1.2-5.6-1.2c-1-0.1-2.1,0.2-2.9,0.8
			c-1.7,1.7-1.9,2.8-2.4,5.6c-0.1,0.7-0.2,1.4-0.4,2.2c-0.6,3.5-3.4,7.3-5.4,10.1c-0.7,0.9-1.2,1.7-1.5,2.2
			c-1.1,1.9-2.1,5.7-2.9,8.8l-0.1,0.4c-0.4,1.5-1.3,2.9-2.6,3.8c1.6,1.2,4.7,3.5,6.2,4.6c1.8,1.4,2.8,3.7,2.6,6c-0.2,1.3-1,3-3.9,4
			s-5.3,3.5-7.2,5.3c-1.5,1.5-2.3,2.3-3.2,2.3c-0.4,0-0.7-0.1-0.9-0.4c-0.5-0.4-3.2-0.5-5.4-0.6c-1.4-0.1-3.1-0.1-4.8-0.3
			c-0.8-0.1-2.8-0.2-3-1.6c-0.1-0.6-0.3-2.1,6.9-4.8c0.5-0.2,1-0.3,1.5-0.3c0.5,0,0.9,0.2,1.2,0.5c0.4,0.5,0.5,1.2,0.4,1.9
			c0,0.1,0,0.3,0,0.4h0.2c1.5,0,3-1,7.4-4c2.1-1.4,2.4-2.2,2.4-2.6c0-0.4-0.6-1-1.2-1.5l-0.2-0.2c-1.1-1-8.3-4.6-12-5.8
			c-1.4-0.5-3.4-0.9-5.5-1.4c-3.2-0.7-6.4-1.6-9.5-2.7l-1.7-0.7c-3.8-1.7-11.7-5.3-15.2-5.3c-0.7,0-1,0.1-1,0.3
			c-0.8,1.8-1.6,3.5-2.6,5.1c-0.6,1.1-1.2,2.1-1.7,3.3c2.7,0.7,5.6,1.1,8.4,1.1c0.4,0,0.7,0,1,0h0.5c2.2,0,6.6,1.1,7.2,3.2
			c0.2,0.9-0.2,1.9-1.1,2.3c-1.3,0.9-2.7,3.7-3.8,6c-1,2.1-1.8,3.9-2.8,4.7l-0.8,0.7c-2,1.8-5.1,4.6-8.3,6
			C100.1,217.3,99.6,217.4,99.1,217.5z"/>
		<path class="st1" d="M158.1,134c0.3,0,0.5,0.1,0.7,0.3c0.8,0.9,4.6,1.7,7.1,3.6c2.5,1.9,3.8-0.1,5.8,3c1.9,3.1,7.2,6.2,11.2,9.6
			c0.7,0.6,3.6-0.6,3.1,1.9c-0.5,2.4-0.4,4.7-1.1,4.7c-0.1,0-0.1,0-0.2,0c-0.1-0.1-0.3-0.1-0.4-0.1c-0.8,0-1.6,0.9-2,2
			c-0.5,0.8-1.4,1.4-2.3,1.4c-0.6,0.1-1.2-0.4-1.4-1c-0.1-0.7-0.8-0.9-1.5-0.9c-0.6,0-1.1,0.1-1.6,0.1s-0.5,0-0.6-0.2
			c-0.3-0.4-3.5-1.5-6.4-1.5c-1.3-0.1-2.6,0.3-3.6,1.1c-2.4,2.4-2.2,3.8-3,8.3c-0.8,4.5-5.6,9.9-6.8,12c-1.2,2.1-2.3,6.2-3.1,9.4
			c-0.8,3.2-3.5,3.8-3.2,4.1c0.3,0.2,5.2,3.9,7.2,5.4s4.4,6.5-1,8.3c-5,1.7-8.8,7.6-10.1,7.6c-0.1,0-0.2,0-0.2-0.1
			c-1-1-5.5-0.8-10.7-1.2c-5.3-0.4,0.8-3.2,4.2-4.5c0.4-0.2,0.7-0.3,1.1-0.3c1.5,0-0.4,2.6,1.3,2.8h0.4c1.9,0,3.5-1.1,8-4.1
			c4.7-3.2,2.5-4.7,1.1-5.9s-8.8-4.8-12.3-6s-10.8-2.3-15-4.1c-3.3-1.4-13-6.1-17.3-6.1c-1,0-1.7,0.3-2,0.9
			c-1.2,3.3-4.8,8.4-4.4,9.3c0.4,1,6.2,1.6,9.5,1.6c0.4,0,0.7,0,1,0h0.4c3,0,8.2,2,5.6,3.7c-2.6,1.7-4.8,9.1-6.7,10.7
			c-1.8,1.6-5.3,5-8.8,6.5c-0.3,0.2-0.7,0.3-1.1,0.3c-1.7,0,0.5-4,1.5-5.9c0.4-0.7,0.7-1,1-1c0.5,0,1,0.6,1.6,0.6
			c0.1,0,0.3,0,0.4-0.1c1.1-0.7,5.2-8.2,5.9-10.1s-5.5-1.4-9.8-1.7c-0.4,0-0.7,0-1.1,0c-1.7,0-3.6,0.2-5.1,0.2
			c-2.1,0-3.5-0.4-3.1-2.4c0.8-3.7,5.3-12.4,4.6-13.2c-0.6-0.8-9.5,1-11.5-8.5s4.5-14.9,11.4-19c2.6-1.5,5.5-2.2,8.5-2.1
			c4.6,0,9.2,1.4,12.7,2.4s9.4,1.2,14.5,1.2c3.2,0,6.1-0.1,7.8-0.1c4.2-0.1,5.1-2,10.8-6.9c5.7-4.9,9.5-10.6,8.3-13.1
			C156.4,135.1,157.3,134,158.1,134 M158.1,132c-1.1,0-2.1,0.6-2.6,1.5c-0.8,1.3-0.8,3,0,4.3c0.3,0.8-1.5,5.2-7.8,10.7
			c-1.2,1.1-2.2,2-3.1,2.8c-3.2,2.9-4,3.6-6.4,3.6H137c-1.7,0-4,0.1-6.6,0.1c-6.6,0-11.2-0.4-13.9-1.2l-0.6-0.2
			c-3.6-1-8-2.3-12.7-2.3c-3.3-0.1-6.6,0.8-9.5,2.4c-6.9,4.2-14.6,10.3-12.2,21.1c1.7,8.1,7.9,9.4,11,9.7c-0.4,1-0.9,2.3-1.4,3.4
			c-1.1,2.5-2.1,5.1-2.8,7.7c-0.3,1.1-0.1,2.3,0.7,3.2c1.1,1.3,2.9,1.5,4.4,1.5c0.8,0,1.6-0.1,2.5-0.1s1.8-0.1,2.6-0.1
			c0.3,0,0.7,0,1,0c1.1,0.1,2.3,0.1,3.4,0.1s2.9,0.1,4.1,0.2c-1.2,2.5-2.6,4.9-4.1,7.3c-1.4-0.7-3.2-0.2-4,1.3
			c-0.1,0.2-0.2,0.4-0.2,0.6c-0.1,0.2-0.2,0.4-0.3,0.6c-1.6,3.2-2.6,5.4-1.6,7c0.5,0.8,1.3,1.2,2.2,1.2c0.7,0,1.3-0.2,1.9-0.5
			c3.3-1.5,6.4-4.3,8.5-6.2l0.8-0.7c1-0.9,1.8-2.5,3-5c1-2.1,2.4-4.9,3.5-5.6c1.2-0.7,1.9-2.1,1.5-3.4c-0.8-2.7-5.8-3.9-8.2-3.9
			c-0.2,0-0.4,0-0.6,0h-0.9c-2.4,0-4.7-0.3-7-0.7c0.3-0.7,0.8-1.5,1.2-2.1c0.9-1.6,1.8-3.2,2.5-4.8h0.3c3.3,0,11.1,3.5,14.8,5.2
			l1.7,0.7c3.1,1.2,6.4,2.1,9.7,2.8c2.1,0.5,4.1,1,5.4,1.4c3.7,1.3,10.7,4.8,11.6,5.6l0.3,0.2c0.3,0.2,0.5,0.5,0.8,0.8
			c-0.5,0.7-1.2,1.4-2,1.8c-3.2,2.2-4.8,3.3-5.9,3.6c0-0.7-0.2-1.3-0.7-1.8c-0.5-0.6-1.2-0.9-2-0.8c-0.6,0-1.3,0.2-1.8,0.4
			c-3.8,1.4-7.9,3.2-7.5,5.9c0.3,2.2,3,2.4,3.9,2.5c1.7,0.2,3.3,0.2,4.8,0.3c1.6,0,3.2,0.2,4.8,0.5c0.4,0.4,1,0.6,1.5,0.6
			c1.3,0,2.3-1,3.9-2.6c1.6-1.6,4.1-4.2,6.8-5.1c3.5-1.2,4.4-3.5,4.6-4.8c0.3-2.7-0.9-5.3-3-7l-5.2-3.9c1-1,1.7-2.2,2-3.5l0.1-0.4
			c0.7-2.8,1.8-6.7,2.8-8.5c0.3-0.5,0.8-1.2,1.5-2.1c2.1-2.9,4.9-6.8,5.6-10.5c0.2-0.8,0.3-1.6,0.4-2.2c0.4-2.7,0.6-3.5,2.1-5
			c0.1-0.1,0.6-0.5,2.2-0.5c1.7,0,3.4,0.4,5,1c0.5,0.5,1.2,0.7,1.9,0.6c0.3,0,0.6,0,0.9-0.1h0.5c0.6,1.2,1.8,1.9,3.1,1.9
			c1.9,0.1,3.6-1,4.3-2.7c0.1-0.2,0.2-0.5,0.4-0.7c0.1,0,0.2,0,0.4,0c2.3,0,2.6-2.4,2.8-4.4c0.1-0.6,0.2-1.3,0.3-1.9
			c0.2-1,0-2-0.6-2.9c-0.9-0.9-2.1-1.3-3.3-1.2h-0.2c-1.3-1.1-2.7-2.1-4-3.1c-2.6-2-5.4-4-6.5-5.8c-0.9-1.7-2.6-2.8-4.5-2.9
			c-0.6,0-1.2-0.2-1.7-0.6c-1.6-1.1-3.3-2-5.1-2.6c-0.6-0.2-1.2-0.5-1.7-0.8C159.8,132.3,159,131.9,158.1,132L158.1,132z"/>
		<path class="st0" d="M128.2,193.8c-0.4,0-0.7-0.2-1-0.5c-0.4-0.2-0.8-0.4-1.2-0.6c-0.7-0.2-1.4-0.6-1.9-1.2l-0.2-0.2
			c-1-1.2-1.6-2.6-1.7-4.1c-0.5-3.2-0.1-13.7,0-15.8c0-0.3,0.2-0.6,0.4-0.8c0.2-0.1,0.4-0.2,0.6-0.2c0.1,0,0.2,0,0.3,0l5.6,1.6
			c0.5,0.1,0.8,0.6,0.7,1.1l-0.4,3.3c-0.4,3.1,0,7.4,0.3,11.1v0.4c0.4,4.2-0.3,5-0.5,5.2C128.9,193.7,128.5,193.8,128.2,193.8
			L128.2,193.8z"/>
		<path class="st1" d="M123.2,171.6l5.6,1.6l-0.4,3.3c-0.4,3.3,0,7.7,0.4,11.7c0.3,3.3,0,4.6-0.5,4.6c-0.1,0-0.2-0.1-0.3-0.2
			c-0.6-0.6-2.6-1-3-1.5c-1-1.1-1.6-2.5-1.7-4C122.8,184.4,123,176,123.2,171.6 M123.2,169.5c-0.4,0-0.8,0.1-1.2,0.4
			c-0.5,0.4-0.8,1-0.8,1.6c-0.1,2.9-0.5,12.8,0,16c0.2,1.7,0.8,3.3,1.9,4.6l0.1,0.2c0.6,0.7,1.4,1.3,2.4,1.5
			c0.3,0.1,0.7,0.3,0.9,0.4c0.4,0.5,1,0.7,1.7,0.7c0.7,0,1.3-0.3,1.7-0.8c0.6-0.7,1.2-1.9,0.8-6v-0.4c-0.4-3.7-0.8-7.9-0.4-10.8
			l0.4-3.3c0.1-1-0.5-1.9-1.4-2.2l-5.6-1.7C123.6,169.6,123.4,169.6,123.2,169.5L123.2,169.5z"/>
		<path class="st0" d="M126.7,175.6c-1.1,0-2.2-0.3-3.2-1c-0.7-0.5-1.9-0.7-3.8-1c-1.5-0.2-3.4-0.5-5.8-1c-1-0.2-2-0.5-2.9-0.7
			c-5.2-1.2-7.6-1.7-7.9-3.1c-0.1-0.5,0-1.1,0.5-1.5c0.6-0.6,1.3-2.4,1.9-4.2c0.6-1.9,1.4-3.7,2.3-5.4c1.9-3.5,4-3.6,8.2-3.7
			c0.8,0,1.7-0.1,2.6-0.1h0.1c0,0,3.3,0.3,7.7,0.8c0.7,0.1,1.5,0.1,2.2,0.1c1.8,0,3.8-0.1,5.8-0.3c1.7-0.1,3.3-0.2,4.5-0.2
			c1.4,0,2.5,0.1,2.9,1s-0.1,1.8-0.7,2.8c-0.7,1.3-1.4,2.6-1.9,4c-0.8,2-1.9,3.8-3.4,5.3c-1.1,1.2-2.1,2.6-2.9,4
			C131.8,173.9,129.4,175.5,126.7,175.6z"/>
		<path class="st1" d="M118.8,154.9c0,0,3.3,0.3,7.7,0.8c0.8,0.1,1.5,0.1,2.3,0.1c3.3,0,7.8-0.5,10.3-0.5c1.1,0,1.8,0.1,1.9,0.4
			c0.4,1-1,2-2.6,6.2s-3.8,4.9-6.2,9.1c-1.6,2.7-3.7,3.6-5.5,3.6c-0.9,0-1.8-0.3-2.5-0.8c-1.6-1.2-4.5-0.9-10-2.2s-11.3-2.2-9.9-3.5
			c1.4-1.3,2.5-6.3,4.4-9.8C110.6,154.7,112.4,155.3,118.8,154.9 M118.7,152.9h-0.1l-2.6,0.1c-4.3,0.2-6.9,0.3-9.1,4.2
			c-0.9,1.8-1.7,3.7-2.4,5.6c-0.4,1.3-0.9,2.6-1.6,3.8c-0.7,0.6-1,1.6-0.8,2.5c0.6,2,3.1,2.6,8.7,3.8l2.9,0.7c1.9,0.4,3.9,0.8,5.9,1
			c1.1,0,2.3,0.3,3.3,0.8c1.1,0.8,2.4,1.2,3.8,1.2c3.1-0.1,5.8-1.9,7.2-4.6c0.8-1.4,1.7-2.7,2.8-3.8c1.5-1.6,2.7-3.5,3.5-5.6
			c0.5-1.3,1.1-2.6,1.8-3.9c0.7-1.2,1.3-2.3,0.8-3.7c-0.6-1.7-2.6-1.7-3.8-1.7c-1.2,0-2.9,0.1-4.6,0.2c-2,0.1-4,0.3-5.7,0.3
			c-0.7,0-1.4,0-2.1-0.1c-4.4-0.5-7.7-0.8-7.7-0.8L118.7,152.9z"/>
		<path class="st2" d="M127.4,172.6c-1.3,0-4.8-2.4-5.7-3.6c-0.6-0.5-1.2-1-1.9-1.3c-0.9-0.4-1.7-0.9-2.4-1.6
			c-0.4-0.4-0.7-1-0.6-1.5c0.1-0.8,0.8-1.2,1.5-1.6c0.5-0.3,0.9-0.6,1.3-0.9c1.2-0.9,1.7-1.3,2.3-1.8l1.4-1.1
			c1.4-1.1,2.6-2.4,3.8-3.7l0.8-0.9c0.2-0.2,0.5-0.3,0.7-0.3c0.1,0,0.2,0,0.3,0.1c4.6,1.5,5,2.4,5.1,2.7c0.1,0.3,0.1,0.7,0,1
			c-0.5,0.7-1.1,1.4-1.8,2c-1.3,1.3-3.3,3.2-3.9,4.4c-0.1,0.2-0.2,0.5-0.3,0.7c0.4,0.4,0.8,0.8,1.1,1.3c0.7,1.1,0.8,2.5,0.3,3.8
			c-0.3,1-1,1.8-1.9,2.3C127.6,172.6,127.5,172.6,127.4,172.6z"/>
		<path class="st1" d="M128.8,155.2c0,0,4.9,1.6,4.5,2.3s-4.7,4.3-5.7,6.4c-1,2.1-0.4,1.1,0.9,3c1.2,1.9-0.4,4.4-1,4.6h-0.1
			c-0.8,0-4.1-2.1-4.8-3.2c-0.7-1.1-3.4-1.9-4.4-3s0.2-1.1,2.1-2.6c1.9-1.4,2-1.6,3.8-2.9C125.8,158.6,127.4,157,128.8,155.2
			 M128.8,153.2c-0.6,0-1.1,0.2-1.5,0.7c-0.3,0.3-0.6,0.6-0.8,0.9c-1.1,1.3-2.3,2.5-3.7,3.6l-1.4,1.1c-0.6,0.5-1.1,0.9-2.3,1.8
			c-0.4,0.3-0.8,0.6-1.3,0.8c-1,0.4-1.8,1.3-2,2.3c-0.1,0.9,0.2,1.7,0.9,2.3c0.8,0.7,1.7,1.4,2.7,1.8c0.6,0.3,1.1,0.6,1.6,1
			c0.9,1.3,4.8,4.1,6.5,4.1c0.2,0,0.4,0,0.6-0.1c1.6-0.4,2.4-2.5,2.5-2.9c0.7-1.5,0.5-3.3-0.4-4.7c-0.2-0.4-0.5-0.7-0.8-1v-0.1
			c0.5-1,2.4-3,3.6-4.1c0.8-0.7,1.4-1.4,2-2.3c0.3-0.6,0.3-1.2,0.1-1.8c-0.2-0.6-0.7-1.6-5.8-3.3C129.2,153.3,129,153.3,128.8,153.2
			L128.8,153.2z"/>
		<path class="st2" d="M132.1,159.6h-0.4c-2-0.2-3.6-2.4-3.9-3.6c-0.1-0.3-0.1-0.7,0-1h-0.8c-1.6,0-3.1-0.2-4.6-0.6
			c-5.1-1.4-6.4-4.4-6.7-6.5c-0.3-3.4,1-6.7,3.6-9c0.3-0.2,0.7-0.3,1-0.1l3.3,1.5l0.1,0.1c0.3,0.2,6.5,3.9,7.8,4.8
			c0.7,0.4,1.3,0.7,2.1,1c1.8,0.7,3.5,1.6,5,2.8c1,0.8,1.7,2,1.7,3.3c0,1.4-0.9,2.8-2.5,4.2l-1,0.8
			C135,158.6,133.8,159.6,132.1,159.6z"/>
		<path class="st1" d="M119.9,139.6l3.3,1.5c0,0,6.5,3.9,7.7,4.8s4.9,1.9,7,3.8c2.1,1.9,1.5,4-0.9,5.9c-2.4,1.9-3.2,3-4.9,3h-0.3
			c-1.9-0.2-3.5-3-3-3.4c0.5-0.4,1.6-1.2,0.8-1.3h-0.2c-0.5,0-1.3,0.1-2.3,0.1c-1.5,0-2.9-0.2-4.4-0.6c-3.2-0.9-5.6-2.7-6-5.7
			C116.3,144.7,117.5,141.7,119.9,139.6 M119.9,137.6c-0.5,0-0.9,0.2-1.3,0.5c-2.8,2.5-4.3,6.1-3.9,9.8c0.3,2.5,1.8,5.8,7.4,7.4
			c1.5,0.4,3.1,0.6,4.7,0.7c0,0.1,0,0.2,0,0.2c0.5,1.4,2.2,4.2,4.8,4.4h0.5c2.1,0,3.5-1.1,5.2-2.6l1-0.8c1.9-1.6,2.9-3.2,2.9-5
			c0-1.6-0.8-3-2-4c-1.6-1.3-3.4-2.3-5.3-3c-0.6-0.3-1.3-0.6-1.9-0.9c-1.3-0.9-7.2-4.5-7.9-4.9l-0.2-0.1l-3.3-1.5
			C120.4,137.7,120.1,137.7,119.9,137.6L119.9,137.6z"/>
		<path class="st0" d="M125.8,146.2c-0.2,0-0.4,0-0.5-0.1c-2-1.1-3.8-2.5-5.4-4.1l-0.5-0.5c-0.8-0.8-1.4-1.4-1.3-2.3
			c0-0.5,0.3-0.9,0.7-1.1c0.1-0.1,0.5-0.6,0.8-1.1c1.8-2.8,4.1-5.3,6.8-7.2c1.9-1.3,4.2-2.1,6.6-2.1c1.7,0,3.4,0.4,5,1.1h0.2
			c1.9,0,2.3,0.9,2.4,1.4v0.1c0.5,0.6,0.9,1.3,1.1,2.1c0.6,1.1,0.8,2.3,0.6,3.4c0,0.3-0.1,0.7-0.1,1.3c-0.1,1.3-0.6,1.9-1.5,1.9
			h-0.3h-0.2c-0.1,0-0.4,0-0.9,0.7c-0.8,1.3-2.1,2.2-3.5,2.6c-0.7,0.3-1.5,0.6-2.2,1C131.9,144,127.4,146.2,125.8,146.2z"/>
		<path class="st1" d="M132.9,128.6c1.6,0,3.3,0.4,4.8,1.1c0.1,0,0.3,0,0.4,0c0.5,0,1.3,0.1,1.4,0.6c0.1,0.8,0.4,0.2,1.3,2.4
			s0.5,2.1,0.3,4.3c0,0.8-0.2,1-0.5,1s-0.3,0-0.5,0c-0.4,0-1,0.2-1.7,1.1c-1.7,2.3-2.6,1.8-5.4,3.3c-2.6,1.4-6.1,2.9-7.1,2.9
			c-0.1,0-0.1,0-0.2,0c-1.8-1.1-3.5-2.4-5-3.8c-1.1-1.2-2.1-1.9-1.3-2.5c0.8-0.6,3.2-5.4,7.6-8.2
			C128.6,129.4,130.7,128.7,132.9,128.6 M132.9,126.7L132.9,126.7c-2.5,0-5,0.8-7.1,2.3c-2.8,2-5.2,4.5-7.1,7.5
			c-0.2,0.4-0.6,0.8-0.7,1c-0.6,0.4-0.9,1.1-0.9,1.8c-0.1,1.3,0.8,2.2,1.6,3.1l0.5,0.4c1.7,1.7,3.7,3.2,5.8,4.4
			c0.3,0.1,0.6,0.1,0.9,0.1c2.2,0,7.8-3,8.1-3.2c0.6-0.3,1.3-0.6,2-0.9c1.6-0.5,3.1-1.6,4-3c0.1-0.1,0.2-0.2,0.2-0.3
			c0.1,0,0.2,0,0.4,0c0.7,0,2.4-0.3,2.5-2.9c0-0.5,0.1-0.9,0.1-1.2c0.2-1.3,0-2.7-0.6-3.9c-0.3-0.8-0.7-1.5-1.2-2.2
			c-0.2-0.7-0.9-2-3.4-2l0,0C136.4,127,134.7,126.6,132.9,126.7L132.9,126.7z"/>
		<path class="st2" d="M143.5,139.4c-1.7,0-3.2-2.1-3.9-4.2l-0.3-0.7c-0.7-1.8-1.4-3.7-0.5-5.4c1-1.7,5.2-2.2,6.5-2.3h0.1
			c0.3,0,0.7,0.2,0.8,0.5l3.1,5c0.2,0.4,0.2,0.8-0.1,1.1c-0.3,0.4-0.7,0.8-1.1,1.2c-0.5,0.4-0.8,1-1,1.6c-0.3,0.8-0.7,1.6-1.6,1.8
			c-0.4,0.8-1.1,1.4-2,1.4L143.5,139.4z"/>
		<path class="st1" d="M145.4,127.8l3,5c-1.2,1.5-1.6,1.5-2.2,3c-0.4,1.1-0.6,1.1-0.9,1.1h-0.1c-0.1,0-0.2,0-0.2,0.1
			c-0.4,0.2-0.4,1.3-1.5,1.4h-0.1c-1.1,0-2.3-1.7-3-3.5s-1.6-3.7-0.8-5.2C140.5,128.1,145.3,127.8,145.4,127.8 M145.3,125.8h-0.1
			c-2.2,0.1-6.1,0.7-7.3,2.8c-1.2,2.1-0.3,4.4,0.4,6.2c0.1,0.2,0.2,0.4,0.3,0.7c0.4,1.1,2,4.8,4.9,4.8h0.2c1.1-0.1,2-0.6,2.5-1.6
			c0.9-0.5,1.6-1.3,1.9-2.3c0.1-0.5,0.4-0.9,0.8-1.2c0.4-0.4,0.8-0.8,1.1-1.2c0.5-0.7,0.6-1.6,0.2-2.3l-3.1-5
			C146.7,126.2,146,125.8,145.3,125.8L145.3,125.8z"/>
		<path class="st3" d="M149.4,133.5c-2.4,0-4.7-0.4-7-1.1l-1.5-0.6c-2.7-1-3.7-1.4-4.2-2c-0.8-1.1,0.2-2.2,1.1-3.1
			c0.2-0.2,0.4-0.5,0.6-0.7l0.2-0.3c1.1-1.9,3.1-3.1,5.3-3.1h0.5c2.4,0.2,6.8,0.4,6.7,5.2c0,0.9,0.1,1.9,0.2,2.8
			c0.2,1,0.3,1.8-0.2,2.4c-0.3,0.4-0.8,0.6-1.3,0.5L149.4,133.5z"/>
		<path class="st1" d="M144,123.7h0.4c3.4,0.2,5.8,0.8,5.8,4.2c0,3.3,1,4.7-0.4,4.7h-0.1c-2.4,0-4.7-0.3-6.9-1
			c-2.3-0.9-4.8-1.7-5.2-2.3c-0.4-0.5,1.2-1.8,1.8-2.6C139.9,125.8,140.9,123.7,144,123.7 M144,121.7L144,121.7
			c-2.5,0-4.9,1.3-6.1,3.5l-0.2,0.2c-0.2,0.2-0.4,0.4-0.6,0.6c-0.9,0.9-2.5,2.6-1.2,4.4c0.6,0.8,1.9,1.3,4.6,2.4l1.5,0.5
			c2.3,0.8,4.8,1.2,7.3,1.2h0.3h0.2c0.8,0,1.6-0.3,2.1-0.9c0.8-0.9,0.6-2.1,0.5-3.2c-0.1-0.9-0.2-1.7-0.2-2.6c0.1-5.7-5.3-6-7.7-6.2
			L144,121.7L144,121.7z"/>
		<path class="st4" d="M143.2,159.7c1.8,4.5,4.3,8.7,7.5,12.4c1.5,1.8,3.2,3.6,5,5.2"/>
		<path class="st5" d="M150.3,148.9c3.3,2,13.8,5.4,17.9,6"/>
		<path class="st4" d="M160.7,141.2c0.8,4,3.7,10.4,9.9,12.4"/>
		<path class="st5" d="M180.1,148.3c-3.4,1.5-5.1,3.6-6.4,4.6s-3,0.1-3.8,1.2s-1.6,0.8-2.4,2.4"/>
		<path class="st5" d="M161.6,144.1c1.2-1.8,2.9-3.2,4.9-3.9"/>
		<path class="st2" d="M170.1,147.8c-0.9,0.1-1.8-0.3-2.4-1c-0.6-0.9-0.8-1.9-0.4-2.9c0.1-0.7,0.7-1.2,1.4-1.1
			c0.9,0,1.8,0.6,3.2,1.6c0.3,0.2,0.7,0.5,1,0.7c0.5,0.1,0.8,0.6,0.8,1.1C173.5,147.5,170.6,147.8,170.1,147.8z"/>
		<path class="st1" d="M168.6,143.7c1,0,3.4,2.1,4,2.3c0.4,0.1-1.1,0.8-2.5,0.8c-1.2,0-2.3-0.6-1.9-2.7
			C168.2,143.8,168.4,143.7,168.6,143.7 M168.6,141.7L168.6,141.7c-1.2,0-2.2,0.8-2.4,1.9c-0.4,1.3-0.1,2.7,0.6,3.8
			c0.8,0.9,2,1.4,3.2,1.4c0,0,4.3-0.1,4.6-2.6c0.1-1-0.5-1.8-1.4-2.2c-0.2-0.1-0.6-0.4-0.8-0.6C170.9,142.4,169.8,141.7,168.6,141.7
			L168.6,141.7z"/>
		<path class="st2" d="M181,157.2c-0.3,0-0.6-0.1-0.9-0.2c-2.1-0.6-2.1-3.1-1.9-4.3c0.1-0.3,0.3-0.6,0.6-0.7
			c0.4-0.1,0.8-0.2,1.2-0.2c1.2,0.1,2.2,0.8,2.5,1.9c0.4,0.9,0.4,1.9,0,2.7C182.1,156.9,181.6,157.2,181,157.2z"/>
		<path class="st1" d="M180,152.7c0.9,0,1.3,0.7,1.6,1.3s0.5,2.1-0.6,2.1c-0.2,0-0.4,0-0.6-0.1c-1.8-0.5-1.2-3.1-1.2-3.1
			C179.4,152.8,179.7,152.7,180,152.7 M180,150.7L180,150.7c-0.5,0-1,0.1-1.5,0.3c-0.7,0.2-1.2,0.8-1.3,1.5
			c-0.4,2.1,0.2,4.7,2.6,5.5c0.4,0.1,0.8,0.2,1.2,0.2c1,0,1.8-0.4,2.4-1.2c0.6-1.1,0.6-2.5,0.1-3.7
			C182.9,151.8,181.5,150.8,180,150.7L180,150.7z"/>
		<path class="st6" d="M130.7,133.6c-2.1,2.4-3.9,5.2-5.3,8.1c-1.4,2.8-2.4,4.8,0,5.7c2.2,0.7,4.5,1,6.8,1c1.3,0,4.4-0.6,5-0.5
			c0.6,0.1,2.8-1.2,3.6-0.8c0.8,0.4,1.7,1.3,1.3-0.7s-0.4-2.3-2.3-2.4c-1.4-0.1-2.9-0.1-4.3,0.2c-1.9,0.2-1.5,0.8-3.1,0
			s-1.9-0.8-0.6-1.9s2.2-2.8,3.8-3.8"/>
		<path class="st2" d="M289.4,164.3h-0.2c-1-0.2-1.9-0.3-2.9-0.3c-0.3,0-0.7,0-1,0.1c-0.4,0.2-0.8,0.2-1.3,0.2
			c-1.7-0.1-3.3-0.5-4.7-1.3l-0.7-0.5c-2.5-1.6-4.9-3.4-7.3-5.3c-0.1-0.2-0.3-0.3-0.5-0.3c-0.2,0-0.4,0.2-0.5,0.3
			c-0.2,0.2-0.4,0.3-0.7,0.3c-0.2,0-0.4-0.1-0.5-0.2l-5.4-3.7c-0.5-0.3-0.6-0.9-0.3-1.4c0.1-0.2,0.3-0.3,0.6-0.4
			c2.4-0.7,5-1.1,7.5-1.3c0.5,0,1.1,0.1,1.6,0.3c1.4,0.8,2.6,1.8,3.8,2.8c1.6,1.4,5.9,4.6,7.3,4.9c1.8,0.3,6.1,0.7,6.2,0.7
			c0.5,0.1,0.9,0.5,0.9,1.1c0,0.1,0,0.2-0.1,0.2l-0.9,2.9C290.2,164,289.8,164.3,289.4,164.3z"/>
		<path class="st1" d="M271.4,151.6c0.4,0,0.7,0,1,0.2c1.3,0.8,2.5,1.7,3.7,2.7c1,0.9,5.9,4.8,7.8,5.1c1.8,0.3,6.3,0.8,6.3,0.8
			l-0.9,2.9c-1-0.2-2-0.3-3.1-0.3c-0.5,0-0.9,0-1.4,0.2c-0.3,0.1-0.6,0.1-0.9,0.1c-1.5-0.1-2.9-0.5-4.2-1.2
			c-0.9-0.6-6.9-4.6-7.8-5.6c-0.3-0.4-0.7-0.6-1.2-0.6c-0.5,0-0.9,0.3-1.2,0.6l-5.5-3.7C266.5,152.2,269,151.8,271.4,151.6
			 M271.4,149.6c-2.6,0.2-5.2,0.7-7.7,1.3c-1.1,0.3-1.7,1.4-1.4,2.4c0.1,0.5,0.4,0.9,0.8,1.1l5.5,3.7c0.3,0.2,0.7,0.3,1.1,0.3
			c0.4,0,0.9-0.1,1.2-0.4c2.3,1.9,4.7,3.6,7.2,5.2l0.7,0.4c1.6,0.9,3.4,1.5,5.3,1.5c0.6,0,1.1-0.1,1.6-0.3l0,0c0.2,0,0.4,0,0.6,0
			c0.9,0,1.8,0.1,2.7,0.3c0.1,0,0.2,0,0.4,0c0.9,0,1.7-0.6,1.9-1.4l0.9-2.9c0.3-1.1-0.3-2.2-1.3-2.5c-0.1,0-0.3-0.1-0.4-0.1
			c0,0-4.4-0.4-6.1-0.7c-1.1-0.2-5.2-3.2-6.8-4.6c-1.3-1.1-2.6-2.1-4-2.9C272.8,149.7,272.1,149.5,271.4,149.6L271.4,149.6z"/>
		<path class="st3" d="M261,178.6c-0.6,0-1-0.5-1-1c0-0.1,0-0.1,0-0.2l0.7-2.6v-0.1l3.9-10.2c0.1-0.3,0.3-0.5,0.6-0.6
			c0.1,0,0.2,0,0.3,0c0.2,0,0.4,0.1,0.5,0.2c2.8,1.8,4.3,3.6,4.3,5.1c0,0.5,0,0.8,0,1c0,0.5,0,0.9,0,2c0,1.7-0.2,4.4-0.2,4.4
			c0,0.4-0.3,0.7-0.6,0.9l-3.3,1.4c-0.1,0.1-0.3,0.1-0.4,0.1L261,178.6z"/>
		<path class="st1" d="M265.6,164.8c2.3,1.5,3.8,3,3.8,4.3s0,1.3,0,3s-0.2,4.4-0.2,4.4l-3.3,1.4l-5-0.2l0.7-2.6L265.6,164.8
			 M265.6,162.8c-0.2,0-0.4,0-0.6,0.1c-0.6,0.2-1,0.6-1.2,1.2l-3.9,10.2c0,0.1-0.1,0.1-0.1,0.2l-0.7,2.6c-0.2,0.6,0,1.2,0.3,1.7
			c0.4,0.5,0.9,0.8,1.5,0.8l5,0.2h0.1c0.3,0,0.5-0.1,0.8-0.2l3.3-1.4c0.7-0.3,1.2-1,1.2-1.8c0-0.1,0.1-2.7,0.2-4.4c0-1.1,0-1.5,0-2
			c0-0.3,0-0.5,0-1c0-2-1.5-3.9-4.7-6C266.4,162.9,266,162.8,265.6,162.8L265.6,162.8z"/>
		<path class="st0" d="M199.6,218.5c-1.5-0.2-2.9-0.5-4.4-1c-1.8-0.6-3.7-1.1-5.6-1.3h-0.2h-0.3l0,0c-0.6,0.1-1.2-0.3-1.4-0.8
			c-0.4-1.1,0.6-2.1,3.1-4.2l0.8-0.7c0.5-0.5,1.3-0.7,2-0.7c1.6,0.2,3.1,0.7,4.4,1.6l0.2,0.1c0.9-0.3,4-3,5.3-5.6
			c1.5-3.2,7.3-5.7,7.9-6c4.5-1.5,16.4-6.2,18-9.7c0.8-1.8,3-2.7,6.4-2.7c5.3,0,12,2.1,12.3,2.1c0.5,0.2,0.8,0.7,0.7,1.3
			c-0.1,0.2-0.1,0.3-0.3,0.4c-5,4.5-8.7,9.4-9.4,11s-2.7,1.7-4.8,1.7c-1.4,0-3.1-0.1-4.8-0.2c-1.6-0.1-3.2-0.2-4.9-0.3h-0.2
			c-5.9,0-16.1,6.3-17.9,8.3c-0.5,0.6-1,1.2-1.6,2C203.1,216.2,201.3,218.5,199.6,218.5z"/>
		<path class="st1" d="M235.8,188.4c5.2,0,12,2.1,12,2.1c-4.9,4.4-8.9,9.5-9.6,11.4c-0.3,0.8-1.8,1.1-3.9,1.1
			c-2.6,0-6.2-0.4-9.6-0.5h-0.2c-6.2,0-16.7,6.4-18.6,8.6c-2,2.3-4.6,6.3-6.3,6.3s-7.5-2.4-9.9-2.4h-0.3h-0.2c-1.7,0,1.7-2.7,3.1-4
			c0.4-0.3,0.9-0.5,1.3-0.4c1.6,0,3.6,1.3,4.3,1.7c0.1,0,0.1,0.1,0.2,0.1c1.3,0,4.9-3.4,6.3-6.2c1.4-3,7.4-5.5,7.4-5.5
			s16.4-5.5,18.6-10.2C231.1,188.9,233.2,188.4,235.8,188.4 M235.8,186.4L235.8,186.4c-3.9,0-6.3,1.1-7.3,3.3
			c-1.2,2.7-11.1,7-17.4,9.2H211c-0.7,0.3-6.7,2.9-8.4,6.5c-1.1,1.9-2.5,3.6-4.3,4.9c-1.4-0.9-3-1.4-4.7-1.5c-1,0-1.9,0.3-2.7,1
			l-0.8,0.7c-2.4,2.1-4.1,3.5-3.4,5.3c0.4,1,1.3,1.6,2.3,1.5h0.4h0.1c1.8,0.3,3.6,0.7,5.3,1.3c1.5,0.6,3.1,0.9,4.6,1.1
			c2.2,0,4.1-2.4,6.2-5.1c0.6-0.7,1.1-1.4,1.5-1.9c1.6-1.9,11.6-7.9,17.1-7.9h0.2c1.6,0,3.2,0.2,4.8,0.2c1.8,0.1,3.4,0.2,4.9,0.2
			s4.8,0,5.7-2.3c0.5-1.3,4-6,9.1-10.6c0.5-0.5,0.8-1.2,0.6-1.9c-0.2-0.7-0.7-1.3-1.4-1.5C248.1,188.5,241.3,186.4,235.8,186.4
			L235.8,186.4z"/>
		<path class="st0" d="M201.9,190.8c-0.5,0-0.9-0.3-1-0.8c0-0.2,0-0.3,0-0.5l-0.2,0.1c-1.9,0.6-3.8,1-5.8,1c-3.2,0-6.4-0.9-9.2-2.4
			c-5.8-3-7.8-7.2-7.3-9.3c0.2-0.9,1-1.6,1.9-1.5c0.6,0,1.2,0.2,1.7,0.5c2.7,1.6,11.9,3.7,17.6,3.7c1.1,0,2.1-0.1,3.1-0.4
			c0.9-0.3,1.9-0.7,2.9-1c4.3-1.5,9.7-3.4,14.6-3.8h0.1c0.5,0,0.9,0.3,1,0.8c0.1,0.3,1.5,7.9-3.7,9.8c-2.6,1-3.3,1.8-3.5,2
			c-0.2,0.3-0.6,0.5-1,0.5l0,0c-0.4,0-0.8-0.2-1-0.5c-0.1-0.2-0.2-0.3-0.3-0.5l-0.2,0.1l-0.5,0.3c-0.9,0.6-1.9,1.1-2.9,1.3
			c-0.4,0-0.8-0.2-1-0.6c-0.1-0.2-0.2-0.4-0.2-0.7l-0.7,0.4C204.9,189.9,203.4,190.4,201.9,190.8z"/>
		<path class="st1" d="M220.4,177.4c0,0,1.4,7-3.1,8.7c-3.7,1.4-3.9,2.5-4.1,2.5c0,0-0.1,0-0.1-0.1c-0.3-0.4-0.3-1-0.9-1
			c-0.3,0-0.7,0.2-0.9,0.4c-0.9,0.6-1.9,1.1-2.9,1.4c-0.3,0-0.4-0.2-0.2-0.8s0.2-0.9-0.1-0.9c-0.7,0.2-1.5,0.5-2.1,0.9
			c-1.3,0.6-2.6,1-4,1.4c-0.1,0,0-0.1,0.4-0.2c1.4-0.6,0.9-1.3-0.2-1.3c-0.3,0-0.6,0-0.9,0.1c-2,0.7-4.2,1.1-6.3,1.1
			c-3-0.1-6-0.8-8.7-2.3c-6.9-3.5-8-8.9-5.8-8.9c0.4,0,0.9,0.2,1.2,0.4c2.9,1.7,12.2,3.9,18.1,3.9c1.2,0,2.3-0.1,3.5-0.4
			C207.6,180.7,214.4,177.9,220.4,177.4 M220.4,175.4h-0.2c-5.1,0.4-10.5,2.3-14.9,3.9c-1,0.4-2,0.7-2.9,1c-0.9,0.2-1.9,0.4-2.8,0.3
			c-5.4,0-14.5-2.1-17.1-3.6c-0.7-0.4-1.4-0.7-2.2-0.7c-1.4,0-2.7,1-2.9,2.3c-0.7,2.8,1.8,7.3,7.8,10.4c3,1.6,6.3,2.5,9.7,2.5
			c1.8,0,3.6-0.3,5.3-0.8c0.4,0.6,1,1,1.8,1c1.6-0.3,3.1-0.8,4.6-1.5c0.4,0.6,1.1,0.9,1.8,0.9c1.2-0.2,2.3-0.6,3.3-1.3
			c0.4,0.4,1,0.7,1.6,0.7c0.7,0,1.3-0.4,1.7-0.9c0.9-0.8,1.9-1.4,3.1-1.7c2.6-0.9,4.2-3.3,4.5-6.6c0.1-1.4,0.1-2.9-0.1-4.3
			C222.2,176,221.3,175.4,220.4,175.4L220.4,175.4z"/>
		<path class="st0" d="M308.6,237.4c-2-0.2-3.9-0.7-5.8-1.4c-0.6-0.2-1.2-0.4-1.8-0.5l0,0c-1,0-1.3-1-1.7-2.6
			c-0.4-1.6-0.9-3.2-1.6-4.7c-1.5-3.3-3.5-6.4-5.8-9.1c-0.6-0.5-1-1.6-1.7-3.7c-0.7-2.1-1.6-4.6-2.6-5.4l-1.2-1
			c-2.2-1.6-4-3.6-5.5-5.9c-0.3-0.6-0.4-1.2-0.1-1.9c1.1-3.1,9.8-6.2,11.5-6.8c0.1,0,0.2-0.1,0.3-0.1c0.4,0,0.7,0.2,0.9,0.5
			c2.5,4.6,4,9.6,4.5,14.8c0.2,3.2,0.9,6.3,2.1,9.3c0.1,0.2,0.4,0.8,0.7,1.4c1.1,2.4,3.3,7.5,6,10.7c1,1.2,1.8,2.1,2.4,2.7
			c1.3,1.4,1.8,2,1.4,2.8S309.3,237.4,308.6,237.4z"/>
		<path class="st1" d="M292.7,195.3c2.4,4.4,3.9,9.3,4.3,14.3c0.2,3.3,1,6.6,2.2,9.7c0.6,1.2,3.3,8.1,6.8,12.3
			c3.5,4.2,4.7,4.6,2.7,4.6s-6.9-1.9-7.5-1.9s-0.7-2.8-2.4-6.7c-1.6-3.4-3.6-6.6-6-9.5c-1-0.9-2.4-7.4-4.3-9.2
			c-1.9-1.7-4.9-3.8-6.5-6.7S292.7,195.3,292.7,195.3 M292.7,193.3c-0.2,0-0.4,0-0.7,0.1c-9.7,3.4-11.7,6.3-12.1,7.4
			c-0.3,0.9-0.3,1.9,0.2,2.7c1.5,2.4,3.5,4.5,5.8,6.2l1.2,1c0.8,0.7,1.7,3.4,2.3,5c0.8,2.3,1.2,3.4,2,4.1c2.2,2.7,4.1,5.6,5.6,8.8
			c0.6,1.5,1.1,3,1.5,4.6c0.4,1.5,0.9,3.2,2.6,3.3c0.3,0.1,1,0.3,1.6,0.5c2,0.7,4,1.2,6.1,1.4c1.1,0.2,2.2-0.4,2.8-1.4
			c0.6-1.4-0.3-2.4-1.6-3.9c-0.6-0.6-1.4-1.5-2.4-2.7c-2.6-3.1-4.8-8.1-5.8-10.5c-0.3-0.7-0.5-1.2-0.7-1.5c-1.1-2.9-1.7-5.9-1.9-8.9
			c-0.5-5.3-2.1-10.5-4.6-15.2C294,193.6,293.4,193.2,292.7,193.3L292.7,193.3z"/>
		<path class="st0" d="M248.1,236.8c-1.4,0-2.4-1.7-3.5-3.5c-0.4-0.6-0.8-1.3-1.2-1.9c-0.4-0.4-0.5-0.9-0.4-1.4
			c0.3-1.4,2.5-2.3,5.9-3.6c1.3-0.4,2.5-1,3.7-1.7l0.8-0.8c1.1-1.1,2.4-2.4,2.7-3.5c0-0.1,3.7-12.8,5.9-15.6
			c-0.4-0.1-1.1-0.2-1.6-0.3c-2-0.3-4-0.8-6-1.5c-2.4-0.9-4.6-2.2-6.6-3.7c-2.5-1.7-4.8-3.2-6.9-3.2c-0.5,0-0.9,0.1-1.3,0.2
			c-1.2,0.4-2.1,1.4-2.6,2.5c-1,1.9-2.3,4.3-8.4,6c-4.4,1.2-8.9,1.8-13.4,1.7c-1.5,0-2.8-0.1-3.7-0.1c-0.5,0-1,0-1.3,0h-0.1
			c-0.7,1-1.8,5.9-1.4,9.5c0.4,4-4.4,6-8.2,7.6c-1,0.4-1.9,0.8-2.6,1.2c-0.6,0.3-1.2,0.5-1.8,0.6c-0.5,0-1-0.2-1.3-0.6
			c-0.6-0.9-0.2-2.1,0.4-3.6c0.2-0.5,0.3-1,0.4-1.4c0.4-2.1,1.5-3.4,3.1-3.4c0.5,0,0.9,0.1,1.3,0.3c0,0,0.1,0,0.1,0
			c0.9,0,2.7-1.9,3.2-2.7c0.4-0.8,2.4-9.5,1.1-12.7c-0.7-1.8-0.7-3.2-0.1-4.1c0.6-0.7,1.5-1.2,2.4-1.1c0.7,0,1.4,0.1,2.1,0.4
			c1.2,0.4,2.4,0.5,3.6,0.5l0,0c1,0.1,2-0.2,2.7-0.8c0.3-0.5,0.4-1.1,0.2-1.7c-3.6-17.8,3.2-23,9.5-24.3c3.6-0.8,7.2-1.2,10.8-1.2
			c3.3,0.1,6.6,0.4,9.9,1.1c1.9,0.3,3.9,0.7,6.2,0.9c3.6,0.5,7.3,0.8,11,0.8c4.5,0.1,9-0.7,13.2-2.3c4.5-1.9,10.8-6.8,15.3-10.3
			c4.5-3.6,6.1-4.7,7.1-4.9c-0.1-0.2-0.2-0.5-0.3-0.7c-0.3-0.5-0.5-1.1-0.6-1.7c-0.1-0.4,0.1-0.8,0.3-1.1c0.2-0.2,0.6-0.4,0.9-0.4
			c0.7,0.1,1.3,0.4,1.8,0.8c0.4,0.3,0.9,0.5,1.3,0.7c0.1-0.5,0.4-1,0.7-1.3c0.2-0.2,0.6-0.3,0.9-0.3c0.8,0,1.2,0.7,1.5,1.2
			c0.2,0.4,0.5,0.9,0.8,0.9c0.8,0.3,1.5,0.9,2,1.7c0.5,0.6,0.7,0.9,1,0.9c2.5,0,7.9,7.9,9.2,10.9c1,2,2.4,3.8,4.2,5.2
			c0.4,0.3,0.7,0.6,1,0.9c0.8,0.9,0.7,2.5,0.3,3.7c-0.6,2-2.2,3.6-4.2,4.2c-0.5,0.1-1,0.2-1.5,0.2c-1.5-0.1-2.9-0.5-4.2-1.2
			c-0.5-0.3-1.1-0.6-1.7-0.7h-0.3c-1.2,0-2.2-1.1-3.3-2.3c-1.1-1.2-2.1-2.4-3.2-2.4h-1c-1.9,0.1-2.4,0.1-4.3,4.2
			c-0.7,1.6-1.3,2.8-1.7,3.8c-0.7,1.4-1.3,2.8-1.8,4.3c-0.1,0.5,0,1.1,0.1,1.6c0.5,2.1,0.6,4.3,0.2,6.5c-0.7,5.5-6.6,10.4-14.9,12.6
			l-0.8,0.2c-6.5,1.7-8.9,2.3-11.7,5.5c-1.7,2-3.5,4.4-5,6.6c-1.3,1.8-2.5,3.4-3.5,4.6c-0.8,0.9-2,2.2-3.5,3.6
			c-2.8,2.8-6.2,6.2-7.3,8.2C249.8,236,249,236.6,248.1,236.8L248.1,236.8z"/>
		<path class="st1" d="M303.5,151.2c0.6,0,0.8,1.8,2.1,2.1c1.2,0.3,1.7,2.7,3.3,2.7s6.7,6.7,8.3,10.3c1.6,3.6,4.4,5.4,5.3,6.4
			c0.9,1,0.1,5.4-3.4,6.2c-0.4,0.1-0.9,0.2-1.3,0.2c-2.6,0-4.3-1.9-5.9-1.9h-0.3c-1.8,0-3.7-4.7-6.5-4.7H305
			c-2.9,0.2-3.7-0.5-6.1,4.8c-2.4,5.2-3.1,6.4-3.6,8.3c-0.5,1.8,1.1,2.7,0.4,8.2c-0.7,5.5-7.1,10-14.1,11.8s-9.9,2.5-13,6
			c-3.1,3.6-6.3,8.6-8.5,11.2c-2.2,2.6-9.2,8.9-10.9,12.1c-0.4,0.7-0.8,1-1.1,1c-1.3,0-2.7-3.6-3.9-5c-1.5-1.8,7.8-4,9.2-5.4
			c1.4-1.4,3.3-3.1,3.7-4.7s4-13.5,5.9-15.4s-2.4-1.2-8.2-3.2c-5.1-1.8-9.6-6.9-13.8-6.9c-0.6,0-1.1,0.1-1.7,0.3
			c-4.7,1.8-1.3,5.8-10.9,8.5c-4.3,1.2-8.7,1.8-13.1,1.8c-2.4,0-4.1-0.1-4.9-0.1c-0.1,0-0.3,0-0.4,0c-1.1,0.2-2.5,6.5-2.1,10.6
			s-6.7,6-10.3,7.8c-0.4,0.3-0.9,0.4-1.4,0.5c-1.4,0,0.3-3.1,0.5-4.5s0.9-2.6,2.1-2.6c0.3,0,0.6,0.1,0.9,0.2
			c0.2,0.1,0.4,0.1,0.6,0.1c1.6,0,3.7-2.6,4-3.2s2.6-9.9,1.2-13.6c-1-2.8-0.2-3.8,1.4-3.8c0.6,0,1.2,0.1,1.8,0.3
			c1.3,0.4,2.6,0.6,3.9,0.6c2.4,0,4.5-0.8,3.9-3.7c-0.9-4.5-4-20.5,8.7-23.1c3.5-0.8,7.1-1.2,10.6-1.2c5.6,0,9.5,1.2,15.9,2
			c3.7,0.5,7.4,0.8,11.1,0.8c4.6,0.1,9.2-0.7,13.5-2.4c7.9-3.3,20.2-15,22.2-15.1c2-0.2,0.1-2.2,0-3.5c0-0.3,0.1-0.4,0.2-0.4
			c0.6,0,2.2,1.4,3.2,1.6h0.2c1,0,0.4-1,1.1-1.6C303.3,151.2,303.4,151.1,303.5,151.2 M303.5,149.1c-0.6,0-1.1,0.2-1.5,0.6
			c-0.2,0.2-0.4,0.4-0.6,0.7l-0.3-0.2c-0.7-0.6-1.5-0.9-2.4-1c-0.6,0-1.2,0.2-1.6,0.7c-0.5,0.5-0.7,1.2-0.6,1.8
			c0.1,0.6,0.2,1.2,0.5,1.8c-2.3,1.4-4.4,2.9-6.4,4.6c-4.5,3.5-10.7,8.4-15.1,10.2c-4.1,1.6-8.4,2.4-12.8,2.2
			c-3.6-0.1-7.3-0.3-10.9-0.8c-2.3-0.3-4.2-0.6-6.1-0.9c-3.3-0.7-6.6-1-10-1.1c-3.7,0-7.4,0.5-11,1.3c-6.8,1.4-14,6.9-10.3,25.5
			c0.1,0.5,0,0.7,0,0.8c0,0.1-0.7,0.4-1.9,0.4c-1.1,0-2.2-0.2-3.3-0.5c-0.8-0.3-1.6-0.4-2.4-0.4c-1.3-0.1-2.5,0.5-3.2,1.5
			c-0.9,1.2-0.9,2.9,0,5c1,2.7-0.6,10.5-1.1,11.9c-0.6,0.8-1.3,1.6-2.2,2.1c-0.5-0.2-1-0.3-1.5-0.3c-2,0-3.6,1.6-4,4.2
			c-0.1,0.4-0.3,0.9-0.4,1.3c-0.6,1.6-1.1,3.2-0.2,4.5c0.5,0.7,1.3,1,2.1,1c0.8,0,1.6-0.3,2.3-0.7c0.7-0.4,1.6-0.8,2.6-1.2
			c3.9-1.7,9.3-3.9,8.8-8.7c-0.2-2.8,0.2-5.7,1.1-8.4h0.7c0.9,0,2.2,0.1,3.7,0.1c4.6,0,9.2-0.6,13.6-1.8c6.6-1.8,8-4.5,9.1-6.5
			c0.6-1.1,0.9-1.6,2-2.1c0.3-0.1,0.7-0.2,1-0.2c1.8,0,4,1.5,6.3,3.1c2.1,1.5,4.4,2.8,6.8,3.8c2,0.7,4.1,1.2,6.2,1.5h0.2
			c-2.5,4.5-5.3,14.4-5.4,14.8c-0.6,1.2-1.4,2.2-2.4,3.1c-0.3,0.3-0.6,0.6-0.8,0.8c-1.1,0.6-2.2,1.1-3.3,1.5
			c-3.9,1.5-6.1,2.5-6.5,4.3c-0.2,0.8,0,1.7,0.6,2.3c0.4,0.5,0.8,1.1,1.1,1.7c1.1,1.9,2.3,4,4.3,4c1.3-0.1,2.4-0.9,2.9-2.1
			c1-1.9,4.5-5.4,7.1-8c1.5-1.5,2.8-2.8,3.5-3.7c1-1.2,2.2-2.9,3.5-4.7c1.5-2.2,3.3-4.6,5-6.5c2.6-3,4.9-3.6,11.2-5.2l0.8-0.2
			c8.7-2.3,14.8-7.5,15.6-13.4c0.4-2.3,0.3-4.6-0.3-6.8c-0.2-0.7-0.2-0.9-0.2-1.1c0.4-1.4,1-2.8,1.7-4.2c0.5-1,1-2.2,1.8-3.8
			c1.6-3.5,1.8-3.5,3.4-3.6h1l0,0c0.6,0,1.8,1.3,2.4,2c1.2,1.3,2.3,2.6,4,2.6h0.3c0.4,0.1,0.8,0.3,1.2,0.6c1.4,0.8,3,1.3,4.6,1.4
			c0.6,0,1.2-0.1,1.8-0.2c2.4-0.6,4.3-2.5,5-4.8c0.6-1.9,0.4-3.7-0.5-4.7c-0.3-0.4-0.7-0.7-1.1-1c-1.7-1.3-3-2.9-3.9-4.8
			c-1.2-2.7-6.6-11.1-9.9-11.5c-0.1-0.2-0.3-0.4-0.4-0.5c-0.6-0.9-1.4-1.6-2.4-2c-0.1-0.1-0.2-0.4-0.3-0.5c-0.4-1-1.3-1.7-2.4-1.7
			L303.5,149.1z"/>
		<path class="st3" d="M272.4,155.5c-0.7,0-1.4-0.4-2.7-1.4c-1.9-1.5-2.5-3.4-2.2-6.8c0.1-1.1,0.8-2.9,4.3-2.9c1,0,1.9,0.1,2.8,0.3
			c0.3,0.1,0.5,0.3,0.7,0.6l2.1,4.6c0.1,0.2,0.1,0.5,0,0.8c-0.4,1-0.8,2-1.2,3l-0.2,0.4c-0.3,0.6-1,1-1.6,0.9h-0.7
			C273.4,155.3,272.9,155.5,272.4,155.5z"/>
		<path class="st1" d="M271.8,145.4c0.9,0,1.7,0.1,2.6,0.3l2.1,4.6c-0.4,1.1-0.8,2.2-1.4,3.3c-0.1,0.2-0.4,0.3-0.7,0.3h-0.6
			c-0.3,0-0.6,0.1-0.8,0.3c-0.1,0.2-0.4,0.3-0.6,0.3c-0.4,0-1.1-0.4-2.1-1.2c-1.6-1.3-2.1-2.9-1.8-5.9
			C268.6,145.8,270.3,145.4,271.8,145.4 M271.8,143.4L271.8,143.4c-4.6,0-5.2,2.9-5.3,3.8c-0.2,2.7-0.1,5.5,2.6,7.7
			c0.9,0.9,2.1,1.5,3.3,1.6c0.6,0,1.3-0.2,1.8-0.6h0.3c1.1,0.1,2.1-0.5,2.5-1.5l0.2-0.4c0.5-1,0.9-2,1.3-3.1c0.2-0.5,0.1-1-0.1-1.5
			l-2.1-4.6c-0.3-0.6-0.8-1-1.3-1.1C273.9,143.5,272.9,143.4,271.8,143.4L271.8,143.4z"/>
		<path class="st2" d="M281.1,167.4c0,0-4.4-0.4-6.8-0.4c-0.4,0-0.7,0-1.1,0.1h-0.3l0,0c-1.5,0-3.1-1.6-5.1-3.6
			c-0.5-0.5-1-1-1.2-1.2c-0.7-0.5-1.4-1.1-1.8-1.5c-1,0.5-1.9,1-2.9,1.6c-1.2,0.7-2.6,1.1-3.9,0.9h-0.7c-1.3,0-2.7-0.1-4-0.3
			c-0.8-0.1-1.3-0.8-1.8-1.4c-0.6-0.7-1.1-1.3-1.7-1.5l-0.4-0.1c-1.3-0.3-2.3-0.5-2.5-1.4c-0.2-0.6,0.1-1.2,0.5-1.6
			c4.1-4.4,12.8-8.7,15.2-9.3c1.3-0.4,2.7-0.6,4.1-0.7c0.7,0,1.5,0.2,2.1,0.6c0.9,0.7,0.9,2,1,3.8c-0.1,1.3,0.1,2.6,0.5,3.8
			c0.7,1.5,2.6,5.4,3.9,6.2c1,0.6,5.6,1.3,7.3,1.3h0.2h0.2c0.4,0,0.8,0.2,1,0.5c0.2,0.3,0.6,0.9-0.6,3.8c-0.2,0.4-0.5,0.6-0.9,0.6
			L281.1,167.4z"/>
		<path class="st1" d="M266.4,147.9c0.5,0,1.1,0.1,1.5,0.4c1,0.8,0.1,4.9,1.2,7.2s2.8,5.6,4.2,6.6c1.4,1,6.4,1.4,7.9,1.4h0.4h0.1
			c0.7,0-0.5,2.9-0.5,2.9s-4.4-0.4-6.9-0.4c-0.4,0-0.9,0-1.3,0.1h-0.2c-1.6,0-4.7-3.8-5.7-4.6s-2.3-1.9-2.3-1.9
			c-1.2,0.6-2.4,1.2-3.6,1.9c-1,0.6-2.2,0.9-3.4,0.8h-0.7c-1.3,0-2.6-0.1-3.9-0.3c-0.9-0.1-1.8-2.5-3.5-2.9s-2.8-0.5-1.9-1.5
			c4-4.2,12.4-8.5,14.7-9C263.9,148.3,265.2,148.1,266.4,147.9 M266.5,146L266.5,146c-1.5,0.1-2.9,0.3-4.3,0.7
			c-2.6,0.6-11.4,5-15.7,9.6c-0.7,0.7-1,1.7-0.8,2.6c0.5,1.5,1.9,1.8,3.3,2.1l0.4,0.1c0.3,0.1,0.8,0.8,1.1,1.1
			c0.6,0.9,1.4,1.5,2.4,1.8c1.4,0.2,2.8,0.3,4.2,0.3h0.8c1.6,0.1,3.2-0.2,4.5-1.1c0.7-0.4,1.4-0.8,2.2-1.2c0.4,0.3,0.9,0.8,1.4,1.1
			c0.2,0.1,0.7,0.7,1.1,1.1c2.2,2.3,3.9,3.9,5.8,3.9c0.2,0,0.3,0,0.5,0c0.3,0,0.6,0,0.9,0c2.4,0,6.6,0.4,6.7,0.4h0.1
			c0.8,0,1.5-0.5,1.8-1.2c1.4-3.4,0.8-4.3,0.5-4.7c-0.4-0.6-1.1-1-1.8-1h-0.3h-0.1c-1.6,0-5.9-0.6-6.8-1.1c-0.5-0.3-1.5-1.6-3.5-5.8
			c-0.3-1.1-0.5-2.2-0.4-3.4c-0.1-1.9-0.1-3.6-1.4-4.5C268.3,146.2,267.4,145.9,266.5,146L266.5,146z"/>
		<path class="st5" d="M256.7,187.3c-0.1,6,4.3,16.3,4.3,16.3s1.9,0.8,2.8-1.8c0.9-2.6-2.9-10.3-1.7-13.4L256.7,187.3z"/>
		<path class="st3" d="M284.9,167.8c-0.4,0-0.8-0.1-1.1-0.2c-0.2-0.1-0.5-0.1-0.8-0.2l-2.4-0.3c-0.4,0-0.7-0.3-0.8-0.6l-0.4-1
			c-0.2-0.4,0-0.9,0.3-1.1l1.7-1.3c0.2-0.1,0.4-0.2,0.6-0.2l0,0c0.7,0,1.4-0.1,2.1-0.2l0.7-0.1h0.4c0.8,0,1.6,0.4,2.2,0.9
			c0.2,0.2,0.5,0.3,0.8,0.5c0.3,0.2,1.5,0.9,1.2,2c-0.2,0.7-0.9,1.1-2,1.1h-1.3C286,167.6,285.4,167.9,284.9,167.8z"/>
		<path class="st1" d="M285.3,163.5c0.8,0,1.3,0.6,2.4,1.3c1.2,0.7,0.9,1.2-0.3,1.2h-1.1c-0.6,0-1,0.1-1.1,0.5
			c0,0.2-0.2,0.3-0.5,0.3c-0.4,0-1.1-0.3-1.8-0.3l-2.4-0.3l-0.4-1l1.7-1.3h0.1c1-0.1,1.9-0.2,2.9-0.3
			C285.1,163.5,285.2,163.5,285.3,163.5 M285.3,161.5c-0.2,0-0.4,0-0.6,0l-0.7,0.1c-0.6,0.1-1.2,0.2-1.9,0.2h-0.1
			c-0.4,0-0.9,0.1-1.2,0.4l-1.7,1.3c-0.7,0.5-1,1.5-0.7,2.3l0.4,1c0.3,0.7,0.9,1.2,1.6,1.3l2.4,0.3c0.2,0,0.4,0.1,0.6,0.1
			c0.4,0.1,0.9,0.2,1.4,0.2c0.7,0,1.4-0.3,1.9-0.9h0.7c2.2,0,2.8-1.1,3-1.8s0.1-2-1.6-3.1c-0.3-0.2-0.5-0.3-0.7-0.5
			c-0.8-0.7-1.8-1-2.8-1.1L285.3,161.5z"/>
		<path class="st3" d="M255.1,171.4c-2.2,0-5.4-0.3-7.5-1.8c-1.3-0.9-2.2-2.2-2.4-3.8c-0.3-2.9,0.4-5.8,2.2-8.1
			c0.2-0.3,0.5-0.4,0.8-0.4h0.2l6.8,1.4c0.1,0,0.3,0.1,0.4,0.2c1.3,0.9,2.5,1.9,3.6,3.1c0.4,0.5,2.1,0.7,3.3,0.8
			c0.5,0,1,0.1,1.5,0.2c1.3,0.2,2.5,1,3.2,2.2c0.6,0.8,0.9,1.8,0.7,2.8c-0.5,1.8-0.9,2.8-1.9,2.8l0,0c-0.1,0-0.2,0-0.3,0
			c-0.3-0.1-0.6-0.3-0.9-0.5c-0.4-0.4-0.9-0.7-1.5-0.9l0,0c-0.9,0.2-1.7,0.6-2.4,1.2c-0.1,0.1-0.2,0.2-0.4,0.2
			c-0.8,0.2-1.5,0.4-2.3,0.5C257.2,171.3,256.1,171.4,255.1,171.4z"/>
		<path class="st1" d="M248.2,158.2l6.9,1.4c1.2,0.9,2.3,1.8,3.3,2.9c0.8,1.1,3.4,1.1,5.5,1.4c2.1,0.3,3.4,2.6,3.1,3.7
			c-0.3,1.1-0.6,2-0.9,2l0,0c-0.7-0.6-1.5-1-2.4-1.4c-0.1,0-0.2,0-0.3,0c-1.2,0-3,1.5-3,1.5c-0.7,0.2-1.5,0.3-2.2,0.4
			c-1,0.1-1.9,0.2-2.9,0.2c-2.2,0-5.1-0.3-7-1.6C245.1,166.7,245.7,161.7,248.2,158.2 M248.2,156.2c-0.7,0-1.3,0.3-1.6,0.9
			c-1.9,2.6-2.7,5.8-2.3,8.9c0.3,1.8,1.3,3.4,2.8,4.4c2.4,1.6,5.7,1.9,8.1,1.9c1.1,0,2.2-0.1,3.2-0.2c0.8-0.1,1.6-0.3,2.4-0.5
			c0.3-0.1,0.5-0.2,0.7-0.4c0.5-0.4,1.1-0.8,1.7-1c0.4,0.2,0.7,0.4,1,0.6c0.4,0.3,0.8,0.6,1.3,0.7c0.2,0,0.3,0.1,0.5,0.1
			c1.9,0,2.5-2.2,2.9-3.5c0.3-1.3,0-2.6-0.8-3.6c-0.9-1.4-2.3-2.3-3.9-2.6c-0.5-0.1-1-0.1-1.5-0.2c-0.9,0-1.8-0.2-2.7-0.5
			c-1.1-1.2-2.4-2.3-3.7-3.3c-0.2-0.2-0.5-0.3-0.8-0.3l-6.9-1.4C248.4,156.3,248.3,156.3,248.2,156.2L248.2,156.2z"/>
		<path class="st5" d="M250.8,171.3c-3.1-0.1-5.3,1-7.5,7.2c-2.2,6.2-2.2,7-3,8c-0.8,1,0.8,0.6,2.4,0.7c1.6,0,10.3,0.7,12,1.1
			c3.4,0.3,6.7,0.3,10.1,0c1.2-0.2,4.8-8.4,6.6-12.1s2-5,2-5s0.6-0.9-2-0.2c-3.8,0.9-7.7,1.2-11.5,1
			C254.9,171.6,252.1,171.3,250.8,171.3z"/>
		<path class="st0" d="M263.2,186.8c-0.3,0-0.6,0-1,0l-1.8-0.1c-3.5-0.1-4.9-0.2-5.6-1.2c-0.4-0.7-0.4-1.5,0-2.2
			c0.6-1.5,1.2-3.2,1.1-3.9c-0.1-0.7,0.1-1.5,0.6-2.1c0.4-0.5,0.6-1.1,0.8-1.7c0.1-0.4,0.2-0.8,0.3-1.3c0.5-2.4,1-4.3,1.9-5.3
			c0.9-1.1,2.2-1.8,3.6-1.9c1.4,0.1,2.7,0.7,3.6,1.8c0.2,0.2,0.3,0.4,0.3,0.7c0,1.4-0.3,2.7-1,3.9c-0.3,0.6-0.6,1.2-0.7,1.9
			c-0.3,0.9-0.7,1.8-1.1,2.7c-0.5,1-1.3,2.6-1.1,3.2c0.3,0.8,1.2,1.1,2.4,1.4l0.5,0.2c1,0.3,1.7,1.2,1.6,2.2
			C267.2,186.8,264.3,186.8,263.2,186.8z"/>
		<path class="st1" d="M263,168.2c1.1,0.1,2.2,0.6,2.9,1.5c0.1,2-1.2,3.6-1.7,5.5c-0.5,1.9-2.8,4.9-2.2,6.5c0.6,1.6,2.5,1.9,3.5,2.2
			c1,0.3,2.3,2-2.3,2c-0.3,0-0.6,0-0.9,0c-5.7-0.2-7.3,0-6.5-2.2c0.8-2.2,1.3-3.5,1.1-4.5c-0.2-0.9,0.9-1.5,1.4-3.3
			c0.5-1.8,1-5.1,1.9-6.2C260.9,168.8,261.9,168.3,263,168.2 M263,166.2L263,166.2c-1.7,0.1-3.3,0.9-4.3,2.2c-1,1.1-1.5,3.1-2.1,5.7
			c-0.1,0.5-0.2,0.9-0.3,1.2c-0.1,0.5-0.4,1-0.6,1.4c-0.6,0.8-0.9,1.8-0.8,2.8c-0.2,1.2-0.5,2.3-1,3.4c-0.5,1-0.4,2.2,0.1,3.1
			c1,1.5,2.7,1.6,6.4,1.7l1.7,0.1c0.4,0,0.7,0,1,0c1.2,0,4.8,0,5.2-2.6c0.1-1.5-0.8-2.9-2.3-3.3l-0.6-0.2c-0.6-0.2-1.4-0.4-1.7-0.8
			c0.2-0.9,0.6-1.7,1-2.4c0.5-0.9,1-1.9,1.3-2.8c0.2-0.6,0.4-1.2,0.7-1.8c0.7-1.3,1.1-2.8,1.1-4.3c0-0.5-0.2-1-0.6-1.3
			C266.3,167,264.7,166.3,263,166.2L263,166.2z"/>
		<path class="st6" d="M295.4,185.5c-7.5,1.6-13.6-10.4-13.7-14.3"/>
		<path class="st7" d="M304.9,173c-1.7-1.2-6.9-13.1-7.6-17.2"/>
		<path class="st7" d="M288.1,167.1c5,3.4,10.8,5.4,16.8,5.8"/>
		<path class="st7" d="M317.2,166.3c-4,0.6-8.8,5.9-10.5,5.6"/>
		<path class="st7" d="M308.6,157.2c-3.5,0.7-6.7,2.2-9.5,4.5"/>
		<path class="st3" d="M317.6,176c-1,0-1.8-0.7-1.9-1.7c-0.1-0.8,0.3-1.6,1-1.9l0.1-0.1c0.6-0.2,1.2-0.3,1.8-0.4
			c0.7-0.1,1.4,0.3,1.7,1c0.2,0.6,0.1,1.3-0.3,1.9c-0.5,0.7-1.3,1.1-2.2,1.1L317.6,176z"/>
		<path class="st1" d="M318.6,173c0.4,0,0.6,0.1,0.8,0.4c0.1,0.8-0.5,1.5-1.3,1.6c-0.1,0-0.2,0-0.3,0h-0.1c-0.5,0-1-0.4-1-0.9
			c0-0.3,0.1-0.5,0.3-0.7C317.5,173.2,318,173,318.6,173 M318.6,171c-0.7,0-1.4,0.2-2.1,0.4h-0.1c-1.2,0.5-1.9,1.7-1.7,2.9
			c0.2,1.5,1.4,2.6,2.8,2.6h0.3c1.2,0,2.3-0.6,3-1.6c0.6-0.8,0.7-1.8,0.4-2.7C320.7,171.6,319.7,170.9,318.6,171L318.6,171z"/>
		<path class="st0" d="M308.9,164.6c-0.3,0-0.6-0.1-0.9-0.2c-0.1-0.1-0.3-0.1-0.4-0.1c-1.4-0.3-2.4-1.4-2.5-2.8c0-0.5,0.2-1,0.5-1.3
			c0.3-0.3,0.8-0.5,1.2-0.5c1.5,0.1,2.7,1.1,3.1,2.5c0.3,0.6,0.3,1.4,0,2C309.6,164.5,309.3,164.7,308.9,164.6z"/>
		<path class="st1" d="M306.8,160.6c1,0.1,1.9,0.9,2.1,1.8c0.3,0.9,0.2,1.2,0,1.2c-0.4-0.1-0.7-0.2-1.1-0.3
			c-0.9-0.2-1.6-0.9-1.8-1.8c-0.1-0.4,0.2-0.8,0.6-0.8C306.7,160.6,306.7,160.6,306.8,160.6 M306.8,158.6L306.8,158.6
			c-0.7,0-1.5,0.3-2,0.8c-0.5,0.6-0.8,1.3-0.8,2.1c0.2,1.8,1.5,3.4,3.3,3.8c0.1,0,0.2,0.1,0.3,0.1c0.4,0.2,0.8,0.3,1.3,0.3
			c0.7,0,1.4-0.3,1.8-0.9c0.5-0.9,0.6-2,0.2-2.9C310.3,160,308.6,158.7,306.8,158.6L306.8,158.6z"/>
		<path class="st0" d="M276.2,151.3c-1.7-0.1-3.4-0.6-4.8-1.6c-1.1-0.6-2.4-0.9-3.6-0.9c-0.6,0-1.3-0.1-1.6-0.8
			c-0.1-0.5,0.1-1,0.5-1.3c0-0.3,0.1-0.5,0.1-0.8c0-0.7,0.1-1.3,0.3-1.9c0.9-2.5,3.2-4.1,5.9-4h0.2c1.6,0,3.2,0.6,4.4,1.7
			c1,1.1,1.6,2.6,1.5,4.1c-0.1,0.6,0.1,1.2,0.5,1.6c0.7,0.9,0.6,1.6-0.2,2.6C278.4,150.9,277.3,151.4,276.2,151.3z"/>
		<path class="st1" d="M272.9,141h0.1c3.2,0.1,5,2,4.9,4.8c-0.1,2.8,1.8,2.1,0.5,3.6c-0.6,0.6-1.4,0.9-2.3,0.9
			c-1.5-0.1-3-0.6-4.2-1.4c-2.4-1.6-5.4-0.7-4.6-1.3s0.3-1.8,0.8-3.2C268.8,142.3,270.7,140.9,272.9,141 M272.9,139
			c-3-0.1-5.8,1.8-6.8,4.7c-0.2,0.7-0.3,1.5-0.3,2.2c0,0.1,0,0.2,0,0.3c-0.5,0.5-0.8,1.3-0.6,2.1c0.4,1,1.4,1.7,2.5,1.5
			c1.1,0,2.2,0.2,3.1,0.8c1.6,1.1,3.4,1.7,5.3,1.7c1.4,0.1,2.8-0.5,3.8-1.5c1.2-1.3,1.3-2.6,0.3-3.9c-0.2-0.2-0.3-0.3-0.2-1
			c0.1-1.8-0.5-3.5-1.8-4.8c-1.4-1.3-3.2-2.1-5.1-2L272.9,139z"/>
	</g>
</g>
</svg>
