<svg id="Landmark" xmlns="http://www.w3.org/2000/svg" viewBox="0 0 360 360"><defs><style>.cls-1{fill:#0f81c2;}.cls-1,.cls-2,.cls-3,.cls-5{stroke:#010101;stroke-linecap:round;stroke-linejoin:round;stroke-width:2px;}.cls-2{fill:#0d77a8;}.cls-3{fill:#8683bf;}.cls-4{fill:#eda520;}.cls-5{fill:#08ad84;}</style></defs><polygon class="cls-1" points="215.63 182.45 215.63 267.57 303.63 267.57 303.72 241.64 215.63 182.45"/><polygon class="cls-1" points="57.77 174.29 57.77 267.57 215.63 267.57 215.63 182.45 221 161.71 57.77 174.29"/><polygon class="cls-1" points="229.93 122.06 315.71 217.46 315.71 229.4 229.93 151.84 229.93 122.06"/><polygon class="cls-1" points="222.78 151.84 310.19 229.4 310.19 241.64 222.78 181.9 222.78 151.84"/><polygon class="cls-1" points="129.12 104.05 134.35 103.42 228.05 126.74 222.78 151.84 222.78 181.9 50.07 194.88 50.07 150.12 129.12 104.05"/><polygon class="cls-2" points="74.03 150.32 74.03 173.08 200.91 163.12 200.91 140.1 132.56 139.97 74.03 150.32"/><line class="cls-2" x1="74.03" y1="148.23" x2="74.03" y2="177.35"/><line class="cls-2" x1="95.18" y1="145.42" x2="95.18" y2="174.53"/><line class="cls-2" x1="116.32" y1="140.91" x2="116.32" y2="170.02"/><line class="cls-2" x1="137.47" y1="138.66" x2="137.47" y2="167.77"/><line class="cls-2" x1="158.62" y1="138.66" x2="158.62" y2="167.77"/><line class="cls-2" x1="179.76" y1="137.28" x2="179.76" y2="166.39"/><line class="cls-2" x1="200.91" y1="137.28" x2="200.91" y2="166.39"/><polygon class="cls-3" points="74.03 170.32 74.03 193.08 200.91 183.12 200.91 160.1 132.56 159.97 74.03 170.32"/><polygon class="cls-3" points="222.78 181.92 215.63 182.45 303.46 241.64 310.19 241.64 222.78 181.92"/><polygon class="cls-3" points="229.93 151.84 222.78 151.84 310.36 229.4 315.71 229.4 229.93 151.84"/><polygon class="cls-3" points="50.07 194.88 57.77 194.3 57.77 199.16 50.07 194.88"/><polygon class="cls-3" points="44.29 166.88 50.07 165.97 50.07 171.28 44.29 166.88"/><line class="cls-3" x1="128.16" y1="75.43" x2="128.16" y2="104.32"/><path class="cls-1" d="M99.25,78.53s7.13-4.39,15.24-2.58c9.89,2.22,13.71-.52,13.71-.52V91.66a21.68,21.68,0,0,1-13.08-.15c-6.31-2-14,1.22-15.87,1.22Z"/><polygon class="cls-4" points="113.72 78.82 115.13 81.67 118.28 82.13 116 84.35 116.54 87.49 113.72 86.01 110.91 87.49 111.44 84.35 109.17 82.13 112.32 81.67 113.72 78.82"/><polygon class="cls-5" points="74.03 208.71 74.03 267.57 106.42 267.57 106.42 206.12 74.03 208.71"/><polygon class="cls-5" points="119.78 206.15 119.78 267.57 152.16 267.57 152.16 203.61 119.78 206.15"/><polygon class="cls-5" points="165.52 202.95 165.52 267.57 197.91 267.57 197.91 200.1 165.52 202.95"/><polygon class="cls-3" points="128.19 100.65 128.19 152.48 44.29 166.96 44.29 139.33 128.19 100.65"/><polygon class="cls-3" points="135.27 100.65 135.27 151.95 229.93 151.84 229.93 122.06 135.27 100.65"/><line class="cls-1" x1="233.25" y1="194.88" x2="233.25" y2="267.57"/><line class="cls-1" x1="250.87" y1="206.2" x2="250.87" y2="267.57"/><line class="cls-1" x1="268.48" y1="218.07" x2="268.48" y2="267.57"/><line class="cls-1" x1="286.1" y1="229.94" x2="286.1" y2="267.57"/><line class="cls-1" x1="240.37" y1="167.77" x2="240.37" y2="193.92"/><line class="cls-1" x1="257.96" y1="183.06" x2="257.96" y2="205.76"/><line class="cls-1" x1="275.55" y1="198.82" x2="275.55" y2="218.07"/><line class="cls-1" x1="293.14" y1="214.15" x2="293.14" y2="229.94"/><line class="cls-1" x1="245.83" y1="140.05" x2="245.83" y2="165.89"/><line class="cls-1" x1="263.42" y1="159.79" x2="263.42" y2="181.49"/><line class="cls-1" x1="281.01" y1="179.07" x2="281.01" y2="197.32"/><line class="cls-1" x1="298.6" y1="198.82" x2="298.6" y2="213.66"/></svg>