<?xml version="1.0" encoding="utf-8"?>
<!-- Generator: Adobe Illustrator 24.0.3, SVG Export Plug-In . SVG Version: 6.00 Build 0)  -->
<svg version="1.1" id="Layer_1" xmlns="http://www.w3.org/2000/svg" xmlns:xlink="http://www.w3.org/1999/xlink" x="0px" y="0px"
	 viewBox="0 0 360 360" style="enable-background:new 0 0 360 360;" xml:space="preserve">
<style type="text/css">
	.st0{fill:none;stroke:#010101;stroke-width:2;stroke-linecap:round;stroke-linejoin:round;}
	.st1{fill:#08AD84;}
	.st2{fill:#010101;}
	.st3{fill:#0C81C3;}
	.st4{fill:#8683BF;stroke:#010101;stroke-width:2;stroke-linecap:round;stroke-linejoin:round;}
	.st5{fill:#8683BF;}
	.st6{fill:#231F20;}
	.st7{fill:#0C81C3;stroke:#010101;stroke-width:2;stroke-linecap:round;stroke-linejoin:round;}
</style>
<title>Q_tan-binh</title>
<g id="Layer_2_1_">
	<g id="Landmark">
		<line class="st0" x1="134.4" y1="205.4" x2="114.6" y2="224.1"/>
		<path class="st1" d="M113.4,230.7c-0.6,0-1-0.4-1-1v-9.5c-0.4-0.1-0.7-0.4-0.8-0.9c-0.2-1.1-0.2-2.3-0.2-3.4
			c0.1-1.8,14-14.4,14.1-14.5c0.2-0.1,0.4-0.2,0.6-0.2c0.3,0,0.5,0.1,0.7,0.3l3.2,3.4c0.2,0.2,0.3,0.5,0.3,0.7
			c0,0.3-0.1,0.5-0.3,0.7l-12.8,11.5l-0.7,12c0,0.5-0.5,0.9-1,0.9L113.4,230.7z"/>
		<path class="st2" d="M126,202.3l3.2,3.4l-13.1,11.7l-0.8,12.4h-1.9v-10.5h-0.8c-0.1-1.1-0.2-2.1-0.2-3.2
			C112.4,215.1,124.3,203.5,126,202.3 M126,200.3c-0.4,0-0.8,0.1-1.1,0.4c-1.3,0.9-5.6,5.1-7.7,7.2c-6.7,6.6-6.7,7.2-6.8,8
			c0,1.2,0.1,2.4,0.3,3.6c0.1,0.5,0.4,1,0.8,1.3v8.9c0,1.1,0.9,2,2,2h1.9c1.1,0,1.9-0.8,2-1.9l0.7-11.6l12.5-11.1
			c0.4-0.4,0.6-0.9,0.7-1.4c0-0.5-0.2-1.1-0.5-1.5l-3.2-3.4C127.1,200.5,126.6,200.3,126,200.3L126,200.3z"/>
		<path class="st3" d="M118.4,225.3h1.7c1.1,0,2,0.9,2,2v5.9c0,1.1-0.9,2-2,2h-1.7c-1.1,0-2-0.9-2-2v-5.9
			C116.4,226.2,117.3,225.3,118.4,225.3z"/>
		<path class="st2" d="M120.2,226.3c0.6,0,1,0.4,1,1v5.9c0,0.6-0.4,1-1,1h-1.7c-0.6,0-1-0.4-1-1v-5.9c0-0.6,0.4-1,1-1H120.2
			 M120.2,224.3h-1.7c-1.7,0-3,1.3-3,3v5.9c0,1.7,1.3,3,3,3h1.7c1.7,0,3-1.3,3-3v-5.9C123.2,225.7,121.8,224.3,120.2,224.3z"/>
		<path class="st3" d="M108.7,225.3h1.7c1.1,0,2,0.9,2,2v5.9c0,1.1-0.9,2-2,2h-1.7c-1.1,0-2-0.9-2-2v-5.9
			C106.7,226.2,107.6,225.3,108.7,225.3z"/>
		<path class="st2" d="M110.4,226.3c0.6,0,1,0.4,1,1v5.9c0,0.6-0.4,1-1,1h-1.7c-0.6,0-1-0.4-1-1v-5.9c0-0.6,0.4-1,1-1H110.4
			 M110.4,224.3h-1.7c-1.7,0-3,1.3-3,3v5.9c0,1.7,1.3,3,3,3h1.7c1.7,0,3-1.3,3-3v-5.9C113.4,225.7,112.1,224.3,110.4,224.3z"/>
		<line class="st0" x1="150.1" y1="205.4" x2="169.9" y2="224.1"/>
		<path class="st1" d="M169.1,230.7c-0.5,0-1-0.4-1-0.9l-0.7-12l-12.8-11.4c-0.2-0.2-0.3-0.4-0.3-0.7c0-0.3,0.1-0.5,0.3-0.7l3.2-3.4
			c0.2-0.2,0.5-0.3,0.7-0.3c0.2,0,0.4,0.1,0.6,0.2c0.1,0.1,14,12.7,14.1,14.5c0,1.1-0.1,2.3-0.2,3.4c-0.1,0.4-0.4,0.8-0.8,0.9v9.5
			c0,0.6-0.4,1-1,1H169.1z"/>
		<path class="st2" d="M158.5,202.3c1.8,1.2,13.6,12.9,13.6,13.7c0,1.1-0.1,2.2-0.2,3.2h-0.8v10.5h-1.9l-0.8-12.4l-13.1-11.7
			L158.5,202.3 M158.5,200.2c-0.6,0-1.1,0.2-1.5,0.6l-3.2,3.4c-0.8,0.8-0.7,2.1,0.1,2.8c0,0,0,0,0,0l12.5,11.2l0.7,11.6
			c0.1,1.1,0.9,1.9,2,1.9h1.9c1.1,0,2-0.9,2-2v-8.9c0.4-0.3,0.7-0.8,0.8-1.4c0.2-1.2,0.2-2.4,0.2-3.6c-0.1-0.8-0.1-1.4-6.8-8
			c-2.1-2.1-6.5-6.3-7.7-7.2C159.3,200.4,158.9,200.3,158.5,200.2L158.5,200.2z"/>
		<path class="st3" d="M164.4,225.3h1.7c1.1,0,2,0.9,2,2v5.9c0,1.1-0.9,2-2,2h-1.7c-1.1,0-2-0.9-2-2v-5.9
			C162.3,226.2,163.2,225.3,164.4,225.3z"/>
		<path class="st2" d="M166.1,226.3c0.6,0,1,0.4,1,1v5.9c0,0.6-0.4,1-1,1h-1.7c-0.6,0-1-0.4-1-1v-5.9c0-0.6,0.4-1,1-1H166.1
			 M166.1,224.3h-1.7c-1.7,0-3,1.3-3,3v5.9c0,1.7,1.3,3,3,3h1.7c1.7,0,3-1.3,3-3v-5.9C169.1,225.7,167.7,224.3,166.1,224.3z"/>
		<path class="st3" d="M174.1,225.3h1.7c1.1,0,2,0.9,2,2v5.9c0,1.1-0.9,2-2,2h-1.7c-1.1,0-2-0.9-2-2v-5.9
			C172.1,226.2,173,225.3,174.1,225.3z"/>
		<path class="st2" d="M175.8,226.3c0.6,0,1,0.4,1,1v5.9c0,0.6-0.4,1-1,1h-1.7c-0.6,0-1-0.4-1-1v-5.9c0-0.6,0.4-1,1-1H175.8
			 M175.8,224.3h-1.7c-1.7,0-3,1.3-3,3v5.9c0,1.7,1.3,3,3,3h1.7c1.7,0,3-1.3,3-3v-5.9C178.8,225.7,177.5,224.3,175.8,224.3z"/>
		<path class="st1" d="M153.6,202.7c-0.5,0-1,0-1.4-0.1c-1.8-0.2-2.3-1-2.5-1.6c-0.8-3.2,8.8-9.8,12.9-12.5c0.2-0.1,0.3-0.1,0.5-0.2
			c3.6-0.1,89.5-3.5,92.2-3.5c2,0,2.4,0.8,2.4,1.4c0,0.6,0.1,2.2-10,3s-53.2,6.3-59.9,7.4c-2,0.3-5.1,1-8.8,1.8
			C170.3,200.3,159.4,202.7,153.6,202.7z"/>
		<path class="st2" d="M255.3,185.8c2.7,0,2.4,1.6-7.6,2.4c-10,0.8-53.1,6.2-60,7.4c-6.5,1.1-26,6.1-34.1,6.1c-0.4,0-0.9,0-1.3-0.1
			c-7-0.7,10.9-12.3,10.9-12.3S252.6,185.8,255.3,185.8 M255.3,183.8c-2.7,0-88.6,3.4-92.2,3.5c-0.4,0-0.7,0.1-1,0.3
			c-0.1,0.1-3.4,2.2-6.6,4.8c-6.2,4.8-7.1,7-6.7,8.8c0.2,0.8,0.9,2.2,3.4,2.4c0.4,0,0.9,0.1,1.5,0.1c5.8,0,16.8-2.4,25.7-4.3
			c3.7-0.8,6.8-1.5,8.8-1.8c6.6-1.1,49.7-6.5,59.8-7.3c7.2-0.6,11-1.4,10.9-4.1C258.8,185.4,258.3,183.8,255.3,183.8L255.3,183.8z"
			/>
		<path class="st1" d="M215.3,218.1c-4.2-0.1-8.3-1.2-11.9-3.4c-5.4-3-8.1-9.1-6.7-15.1c1-5.9,5.8-10.4,11.7-11.2
			c1.2-0.1,2.4-0.2,3.6-0.2c7.5,0,13.9,2.6,16.9,6.9c2.6,3.7,2.9,8.6,0.8,14.3C227.9,214.6,222.1,218.1,215.3,218.1z"/>
		<path class="st2" d="M212.1,189.3c10.8,0,22,5.5,16.8,19.9c-1.7,4.6-7,8-13.6,8c-4-0.1-7.9-1.2-11.4-3.2
			c-11.1-6.4-7-23.1,4.6-24.4C209.7,189.4,210.9,189.3,212.1,189.3 M212.1,187.3L212.1,187.3c-1.3,0-2.5,0.1-3.8,0.2
			c-6.3,0.7-11.2,5.4-12.6,11.9c-1.4,6.4,1.5,13,7.2,16.2c3.7,2.2,8,3.4,12.3,3.5c7.2,0,13.4-3.7,15.4-9.3c2.7-7.6,1-12.4-1-15.2
			C226.5,190,220,187.3,212.1,187.3L212.1,187.3z"/>
		<circle class="st3" cx="217.6" cy="203" r="10.3"/>
		<path class="st2" d="M217.6,193.7c5.1,0,9.3,4.2,9.3,9.3s-4.2,9.3-9.3,9.3s-9.3-4.2-9.3-9.3c0,0,0,0,0,0
			C208.3,197.9,212.5,193.7,217.6,193.7 M217.6,191.7c-6.2,0-11.3,5-11.3,11.3s5,11.3,11.3,11.3s11.3-5,11.3-11.3c0,0,0,0,0,0
			C228.9,196.8,223.9,191.7,217.6,191.7z"/>
		<path class="st3" d="M278,224.5c-0.2,0-0.4-0.1-0.6-0.2l-6.5-4.8c-0.3-0.3-0.5-0.7-0.4-1.1c0.1-0.4,0.5-0.7,0.9-0.7h26
			c0.2,0,0.3,0,0.5,0.1l5.2,2.8c0.5,0.3,0.7,0.9,0.4,1.4c-0.2,0.3-0.5,0.5-0.8,0.5L278,224.5z"/>
		<path class="st2" d="M297.4,218.7l5.2,2.8l-24.7,2l-6.5-4.8H297.4 M297.4,216.7h-26c-1.1,0-2,0.9-2,2c0,0.6,0.3,1.2,0.8,1.6
			l6.5,4.8c0.3,0.3,0.8,0.4,1.2,0.4h0.2l24.7-2.1c1.1-0.1,1.9-1.1,1.8-2.2c-0.1-0.7-0.5-1.3-1.1-1.6l-5.2-2.8
			C298,216.7,297.7,216.7,297.4,216.7L297.4,216.7z"/>
		<line class="st0" x1="257.2" y1="197.6" x2="254.4" y2="204.7"/>
		<line class="st0" x1="253.1" y1="197.6" x2="250.3" y2="204.7"/>
		<polygon class="st4" points="244.7,215.5 250.5,202.4 252.2,202.4 251.7,203.2 253.7,203.2 254.2,202.4 256.5,202.4 249.3,221.4 
			245.2,221.9 		"/>
		<polygon class="st4" points="286.6,208.8 318.9,228.6 331.4,228.6 331.4,221.5 300.7,202.4 		"/>
		<polyline class="st4" points="259.1,197.1 277.3,208.8 286.6,208.8 287.5,201.7 234.9,166.4 190.7,172.9 190.2,176.9 203.7,176.9 
			227.7,176.9 253.3,193.3 249.5,197.3 259.1,197.1 		"/>
		<path class="st5" d="M317.9,198.6c-0.2,0-0.4-0.1-0.5-0.1l-84.8-52.7l-33.9,0.9c-0.6,0-1-0.4-1-1v-11.6c0-0.6,0.4-1,1-1h39.7
			c0.2,0,0.4,0.1,0.6,0.2l88.4,59.4c0.5,0.3,0.6,0.9,0.3,1.4c-0.2,0.3-0.5,0.4-0.8,0.4c-0.1,0-0.2,0-0.2,0c-0.8-0.2-1.7-0.3-2.6-0.4
			c-2.4-0.2-4.6,1.5-5.1,3.9c-0.1,0.3-0.3,0.5-0.6,0.6C318.1,198.6,318,198.6,317.9,198.6z"/>
		<path class="st2" d="M238.4,134.1l88.4,59.4c-0.9-0.3-1.9-0.4-2.8-0.4c-2.9-0.2-5.5,1.8-6.1,4.6l-85.1-52.9l-34.1,0.9v-11.6H238.4
			 M238.4,132.1h-39.7c-1.1,0-2,0.9-2,2v11.6c0,1.1,0.9,2,2,2l0,0l33.5-0.9l84.6,52.6c0.3,0.2,0.7,0.3,1,0.3c0.2,0,0.5,0,0.7-0.1
			c0.6-0.2,1-0.7,1.2-1.3c0.4-2,2.2-3.3,4.2-3.1c0.8,0,1.6,0.1,2.3,0.3c0.2,0,0.3,0.1,0.5,0.1c1.1,0.1,2-0.8,2.1-1.9
			c0-0.7-0.3-1.4-0.9-1.8l-88.3-59.3C239.2,132.2,238.8,132.1,238.4,132.1L238.4,132.1z"/>
		<line class="st0" x1="329.4" y1="196.1" x2="329.4" y2="213.8"/>
		<line class="st0" x1="295.5" y1="172.9" x2="295.5" y2="194"/>
		<line class="st0" x1="254.3" y1="147.3" x2="254.3" y2="168.8"/>
		<line class="st0" x1="236.4" y1="136.9" x2="236.4" y2="158"/>
		<line class="st0" x1="208.7" y1="139" x2="217.9" y2="159.9"/>
		<path class="st3" d="M286.6,209.8c-0.2,0-0.4-0.1-0.5-0.2l-19.2-12.6h-11c-0.6,0-1-0.4-1-1c0-0.2,0.1-0.4,0.2-0.6l3.1-4l-31-20.2
			c-0.4-0.3-0.6-0.8-0.4-1.3l7.2-14.2c0.1-0.3,0.4-0.4,0.6-0.5c0.1,0,0.2,0,0.3,0c0.2,0,0.4,0.1,0.5,0.2l68.7,44.3
			c0.3,0.2,0.5,0.5,0.5,0.8v8.8c0,0.6-0.4,1-1,1L286.6,209.8z"/>
		<path class="st2" d="M234.9,156.2l68.7,44.3v8.8l-17-0.5l-19.5-12.7h-11.3l3.8-4.9l-31.9-20.8L234.9,156.2 M234.9,154.2
			c-0.2,0-0.4,0-0.5,0.1c-0.5,0.1-1,0.5-1.3,1l-7.2,14.3c-0.5,0.9-0.2,2,0.7,2.6l30.1,19.7l-2.5,3.2c-0.7,0.9-0.5,2.1,0.3,2.8
			c0.4,0.3,0.8,0.4,1.2,0.4h10.7l19,12.4c0.3,0.2,0.6,0.3,1,0.3l17,0.5h0c0.5,0,1-0.2,1.4-0.6c0.4-0.4,0.6-0.9,0.6-1.4v-8.8
			c0-0.7-0.3-1.3-0.9-1.7L236,154.5C235.7,154.3,235.3,154.2,234.9,154.2z"/>
		<path class="st3" d="M203,173.9c-0.6,0-1-0.4-1-1c0-8.2,1.6-12.3,1.7-12.5c0.2-0.4,0.5-0.6,0.9-0.6h0.9l2.2-5.6
			c0.2-0.4,0.5-0.6,0.9-0.6h26.3c0.6,0,1,0.4,1,1v18.4c0,0.6-0.4,1-1,1H203z"/>
		<path class="st2" d="M234.9,154.6v18.4h-32c0-8.1,1.6-12.1,1.6-12.1h1.6l2.5-6.3H234.9 M234.9,152.6h-26.2c-0.8,0-1.6,0.5-1.9,1.3
			l-2,5h-0.2c-0.8,0-1.6,0.5-1.9,1.2c-0.1,0.2-1.7,4.4-1.7,12.9c0,1.1,0.9,2,2,2h32c1.1,0,2-0.9,2-2v-18.4
			C237,153.5,236.1,152.6,234.9,152.6L234.9,152.6z"/>
		<path class="st3" d="M332.5,228.6c-0.2,0-0.4-0.1-0.5-0.2l-62.6-40.3c-0.1,0-0.2-0.1-0.2-0.2l-11.7-13.5c-0.4-0.4-0.3-1,0.1-1.4
			c0.2-0.2,0.4-0.2,0.7-0.2h11.4c0.2,0,0.4,0,0.5,0.2l62.8,39.3c0.3,0.2,0.5,0.5,0.5,0.8v14.5c0,0.4-0.2,0.7-0.5,0.9
			C332.8,228.6,332.7,228.6,332.5,228.6z"/>
		<path class="st2" d="M269.7,173.9l62.8,39.3v14.5l-62.6-40.3l-11.7-13.5H269.7 M269.7,171.9h-11.4c-1.1,0-2,0.9-2,2
			c0,0.5,0.2,0.9,0.5,1.3l11.7,13.5c0.1,0.1,0.3,0.3,0.4,0.4l62.6,40.3c0.6,0.4,1.4,0.4,2,0.1c0.6-0.3,1-1,1-1.8v-14.5
			c0-0.7-0.4-1.3-0.9-1.7l-62.8-39.3C270.4,172,270,171.9,269.7,171.9z"/>
		<polygon class="st4" points="217.9,219.9 231.3,204 245.6,204 246.5,221.4 249.3,221.4 252.3,215.1 271.5,215.1 273.8,217.3 
			277.2,217.3 279.7,221.4 303.6,221.4 303.6,231.2 298.9,231.2 298.9,223 288,223 288,229.9 251.5,229.9 251.5,223.9 241.1,223.9 
			241.1,229.9 217.9,229.6 		"/>
		<path class="st3" d="M224.6,226.7c-0.6,0-1-0.4-1-1v-5.5c0-0.2,0.1-0.5,0.2-0.7l9.4-10.7c0.2-0.2,0.5-0.3,0.8-0.3h6.2
			c0.6,0,1,0.4,1,1l0.4,8.9c0,0.3-0.1,0.5-0.3,0.7c-0.2,0.2-0.4,0.3-0.7,0.3h-6.1v6.2c0,0.6-0.4,1-1,1H224.6z"/>
		<path class="st2" d="M240.3,209.6l0.4,8.9h-7.1v7.3h-8.9v-5.5l9.4-10.7H240.3 M240.3,207.6H234c-0.6,0-1.1,0.2-1.5,0.7l-9.4,10.7
			c-0.3,0.4-0.5,0.8-0.5,1.3v5.5c0,1.1,0.9,2,2,2h8.9c1.1,0,2-0.9,2-2v-5.3h5.1c0.5,0,1.1-0.2,1.4-0.6c0.4-0.4,0.6-0.9,0.6-1.5
			l-0.4-8.9C242.2,208.4,241.3,207.6,240.3,207.6L240.3,207.6z"/>
		<path class="st6" d="M292.9,234.7c-4.1,0-7.4-3.3-7.4-7.4s3.3-7.4,7.4-7.4s7.4,3.3,7.4,7.4c0,0,0,0,0,0
			C300.3,231.4,297,234.7,292.9,234.7z"/>
		<path class="st2" d="M292.9,221c3.5,0,6.4,2.9,6.4,6.4s-2.9,6.4-6.4,6.3c-3.5,0-6.4-2.9-6.4-6.4C286.6,223.8,289.4,221,292.9,221
			 M292.9,219c-4.6,0-8.4,3.7-8.4,8.4c0,4.6,3.7,8.4,8.4,8.4c4.6,0,8.4-3.7,8.4-8.4c0,0,0,0,0,0C301.3,222.7,297.5,219,292.9,219z"
			/>
		<path class="st3" d="M292.9,230.9c-1.9,0-3.5-1.6-3.5-3.5c0-1.9,1.6-3.5,3.5-3.5c1.9,0,3.5,1.6,3.5,3.5c0,0,0,0,0,0
			C296.5,229.3,294.9,230.8,292.9,230.9z"/>
		<path class="st2" d="M292.9,224.8c1.4,0,2.5,1.1,2.5,2.5c0,1.4-1.1,2.5-2.5,2.5s-2.5-1.1-2.5-2.5c0,0,0,0,0,0
			C290.4,225.9,291.5,224.8,292.9,224.8C292.9,224.8,292.9,224.8,292.9,224.8 M292.9,222.8c-2.5,0-4.5,2-4.5,4.5
			c0,2.5,2,4.5,4.5,4.5c2.5,0,4.5-2,4.5-4.5c0,0,0,0,0,0C297.5,224.8,295.4,222.8,292.9,222.8z"/>
		<path class="st6" d="M245.9,234.7c-4.1,0-7.4-3.3-7.4-7.3c0-4.1,3.3-7.4,7.3-7.4c4.1,0,7.4,3.3,7.4,7.4c0,0,0,0,0,0
			C253.2,231.4,249.9,234.7,245.9,234.7z"/>
		<path class="st2" d="M245.9,221c3.5,0,6.4,2.8,6.4,6.3s-2.8,6.4-6.3,6.4s-6.4-2.8-6.4-6.3c0,0,0,0,0,0
			C239.6,223.8,242.4,221,245.9,221C245.9,221,245.9,221,245.9,221 M245.9,219c-4.6,0-8.4,3.7-8.4,8.3c0,4.6,3.7,8.4,8.3,8.4
			c4.6,0,8.4-3.7,8.4-8.3c0,0,0,0,0,0C254.3,222.7,250.5,219,245.9,219z"/>
		<path class="st3" d="M245.9,230.9c-1.9,0-3.5-1.6-3.5-3.5c0-1.9,1.6-3.5,3.5-3.5c1.9,0,3.5,1.6,3.5,3.5c0,0,0,0,0,0
			C249.4,229.3,247.8,230.8,245.9,230.9z"/>
		<path class="st2" d="M245.9,224.8c1.4,0,2.5,1.1,2.5,2.5s-1.1,2.5-2.5,2.5s-2.5-1.1-2.5-2.5l0,0
			C243.3,225.9,244.5,224.8,245.9,224.8C245.9,224.8,245.9,224.8,245.9,224.8 M245.9,222.8c-2.5,0-4.5,2-4.5,4.5
			c0,2.5,2,4.5,4.5,4.5c2.5,0,4.5-2,4.5-4.5c0,0,0,0,0,0C250.4,224.8,248.4,222.8,245.9,222.8z"/>
		<path class="st3" d="M329.4,197.1c-0.2,0-0.4-0.1-0.5-0.2l-91.4-59.3l-37.1,2.1c-0.3,0-0.5-0.1-0.7-0.3c-0.2-0.2-0.3-0.5-0.3-0.7
			v-5c0-0.5,0.4-1,0.9-1l38.3-2.2c0.2,0,0.4,0.1,0.5,0.2l58.3,36.5c0.3,0.2,0.5,0.5,0.5,0.8v1.1l33.9,21.8c0.2,0.1,0.4,0.3,0.4,0.6
			c0.4,2.1-0.5,4.2-2.2,5.3C329.9,197,329.7,197.1,329.4,197.1z"/>
		<path class="st2" d="M238.7,131.5L297,168v1.7l34.3,22.1c0.3,1.7-0.4,3.4-1.9,4.3l-91.7-59.5l-37.3,2.1v-5L238.7,131.5
			 M238.7,129.5h-0.1l-38.3,2.2c-1.1,0.1-1.9,0.9-1.9,2v5c0,0.6,0.2,1.1,0.6,1.5c0.4,0.3,0.9,0.5,1.4,0.5h0.1l36.7-2.1l91.2,59.1
			c0.3,0.2,0.7,0.3,1.1,0.3c0.4,0,0.8-0.1,1.2-0.4c2.1-1.4,3.1-3.9,2.6-6.4c-0.1-0.5-0.4-0.9-0.9-1.2L299,168.6V168
			c0-0.7-0.4-1.3-0.9-1.7l-58.3-36.5C239.4,129.6,239,129.5,238.7,129.5z"/>
		<path class="st3" d="M196.1,140c-0.3,0-0.5-0.1-0.7-0.3c-0.2-0.2-0.3-0.4-0.3-0.7l-0.2-7.3c0-0.5,0.4-1,0.9-1l39-2.5
			c0.5,0,0.9,0.3,1,0.8l1.5,7.7c0.1,0.5-0.2,1.1-0.8,1.2c0,0-0.1,0-0.1,0L196.1,140z"/>
		<path class="st2" d="M234.9,129.1l1.5,7.7l-40.2,2.1l-0.1-7.3L234.9,129.1 M234.9,127.1h-0.1l-38.9,2.5c-1.1,0.1-1.9,0.9-1.9,2
			l0.1,7.3c0,1.1,0.9,2,2,2h0.1l40.2-2.1c0.6,0,1.1-0.3,1.5-0.8c0.4-0.5,0.5-1,0.4-1.6l-1.5-7.8
			C236.7,127.8,235.9,127.1,234.9,127.1L234.9,127.1z"/>
		<path class="st1" d="M185.2,168.2c-0.6,0-1-0.4-1-1l-0.3-11.7l-6.5,1h-0.2c-0.3,0-0.6-0.2-0.8-0.4l-2.2-3.2
			c-0.2-0.3-0.2-0.8,0-1.1l1.4-2.4c0.2-0.3,0.5-0.5,0.9-0.5h1.1c3.5,0,5.7,0,6.8-0.1c0-0.1-0.1-0.2-0.1-0.3l-1.7-0.9
			c-0.3-0.2-0.6-0.5-0.6-0.9c0.1-3.5,0.2-7.5,0.1-8.1c-0.2-0.7-0.1-1.4,0.2-2c-0.2-0.3-0.4-0.6-0.7-0.9c-0.5-0.5-0.6-1.2-0.3-1.8
			c0.3-0.7,0.9-1.1,1.6-1.1c0.8,0,1.6,0.6,2.3,1.7c0.2,0.4,0.5,0.8,0.9,1.3c2,2.9,5.8,8.3,7.6,18.9c1.9,11.3,0.9,12.5,0.5,13
			c-0.2,0.3-0.5,0.4-0.9,0.4L185.2,168.2z"/>
		<path class="st2" d="M182.9,133.8c0.4,0,0.9,0.3,1.4,1.2c1.5,2.5,6.2,7.6,8.3,19.9c2.1,12.3,0.6,12.3,0.6,12.3h-8l-0.4-12.8
			l-7.6,1.2l-2.2-3.2l1.5-2.4h1.2c2.4,0,7.9,0,8-0.2c0.1-0.2-0.6-1.9-0.6-1.9l-2-1c0,0,0.2-7.8,0-8.4s0.4-1.7,0.4-1.7
			c-0.3-0.6-0.7-1.1-1.1-1.6c-0.2-0.4-0.1-0.9,0.2-1.1C182.6,133.9,182.8,133.8,182.9,133.8 M182.9,131.8c-1.1,0-2.1,0.7-2.5,1.7
			c-0.4,1-0.2,2.1,0.5,2.9c0.1,0.1,0.2,0.2,0.2,0.3c-0.2,0.7-0.3,1.4-0.1,2.1c0.1,0.8,0,4.7-0.1,7.8c0,0.4,0.1,0.9,0.4,1.2h-3.8
			h-1.1c-0.7,0-1.4,0.4-1.7,1l-1.4,2.4c-0.4,0.7-0.4,1.5,0.1,2.2l2.2,3.2c0.4,0.5,1,0.9,1.6,0.9c0.1,0,0.2,0,0.3,0l5.4-0.8l0.3,10.6
			c0,1.1,0.9,2,2,2h8c0.6,0,1.2-0.3,1.7-0.8c0.6-0.7,1.7-2.1-0.2-13.8c-1.8-10.8-5.7-16.4-7.7-19.3c-0.3-0.5-0.6-0.9-0.8-1.2
			C185.2,132.6,184.1,131.9,182.9,131.8L182.9,131.8z"/>
		<path class="st7" d="M184.6,139.3c1.4,2.9,4.8,9.5,4.9,10.5s-0.8,0.6-0.8,2.5c0,1.9,1.8,10.7,1.8,11.8c0,1.1,2.6,0.7,2.6,0.7"/>
		<path class="st3" d="M191.4,164c-0.2,0-0.4-0.1-0.6-0.2c-0.8-0.2-1.6-0.3-2.5-0.3c-0.6,0-1.3,0-1.9,0.2c-0.2,0.1-0.5,0.2-0.8,0.2
			c-0.5,0-1-0.3-1.3-0.7c-0.9-1.2-1.2-4.1-0.6-6.7c0.9-3.9,4-3.9,5.4-3.9h0.8c0.5,0,0.9,0.3,1,0.8c1.8,9.5,1.6,9.7,1.3,10.1
			C192,163.9,191.7,164,191.4,164L191.4,164z"/>
		<path class="st2" d="M189.1,153.7h0.8c0,0,1.7,9.3,1.5,9.3l0,0c-1-0.4-2-0.5-3.1-0.5c-0.8,0-1.6,0.1-2.4,0.4
			c-0.1,0-0.2,0.1-0.3,0.1c-1,0-1.6-3.1-1-6.2S187.3,153.7,189.1,153.7 M189.1,151.7c-1.5,0-5.4,0-6.4,4.7c-0.5,2.5-0.5,5.9,0.8,7.6
			c0.5,0.6,1.3,1,2.1,1c0.4,0,0.9-0.1,1.3-0.3c0.5-0.1,0.9-0.1,1.4-0.1c0.7,0,1.4,0.1,2.1,0.2c0.9,0.5,1.9,0.3,2.6-0.4
			c0.7-0.8,0.8-1-1.1-10.9c-0.2-1-1-1.6-2-1.6L189.1,151.7L189.1,151.7z"/>
		<path class="st1" d="M183.5,172.4c-0.3,0-0.6-0.1-0.8-0.3c-0.2-0.2-0.3-0.5-0.2-0.8l0.9-6.5c0.1-0.5,0.5-0.9,1-0.9
			c0.1,0,6.1-0.1,10.3-0.1c3.9,0,4.1,0.1,4.4,0.2c0.3,0.1,0.5,0.5,0.6,0.8l0.5,6.5c0,0.3-0.1,0.6-0.3,0.8c-0.2,0.2-0.5,0.3-0.7,0.3
			L183.5,172.4z"/>
		<path class="st2" d="M194.6,164.7c1.3,0,2.6,0,3.9,0.1l0.5,6.5h-15.6l0.9-6.5C184.4,164.8,190.4,164.7,194.6,164.7 M194.6,162.7
			c-4.2,0-10.2,0.1-10.3,0.1c-1,0-1.8,0.8-1.9,1.7l-0.9,6.5c-0.1,0.6,0.1,1.1,0.5,1.6c0.4,0.4,0.9,0.7,1.5,0.7h15.6c1.1,0,2-0.9,2-2
			c0-0.1,0-0.1,0-0.2l-0.5-6.5c-0.1-0.7-0.5-1.3-1.1-1.6C199,162.8,198.8,162.7,194.6,162.7L194.6,162.7z"/>
		<path class="st1" d="M130.7,202.7c-5.7,0-16.7-2.4-25.5-4.3c-3.7-0.8-6.8-1.5-8.8-1.8c-6.6-1.1-49.8-6.5-59.9-7.4s-10-2.2-10-3
			s0.5-1.4,2.4-1.4c2.7,0,88.5,3.4,92.2,3.5c0.2,0,0.4,0.1,0.5,0.2c4.1,2.7,13.7,9.3,12.9,12.5c-0.2,0.7-0.7,1.5-2.5,1.6
			C131.7,202.6,131.2,202.7,130.7,202.7L130.7,202.7z"/>
		<path class="st2" d="M29,185.8c2.7,0,92.1,3.5,92.1,3.5S139,201,132,201.6c-0.4,0-0.9,0.1-1.3,0.1c-8.1,0-27.6-5-34.1-6.1
			c-6.9-1.1-50-6.6-60-7.4S26.3,185.8,29,185.8 M29,183.8c-3,0-3.4,1.6-3.4,2.3c-0.1,2.6,3.8,3.5,10.9,4.1
			c10.1,0.8,53.2,6.2,59.8,7.3c1.9,0.3,5.1,1,8.8,1.8c8.8,1.9,19.8,4.3,25.7,4.3c0.5,0,1,0,1.5-0.1c2.5-0.2,3.2-1.6,3.4-2.4
			c0.4-1.8-0.5-4-6.7-8.8c-3.2-2.5-6.5-4.7-6.7-4.8c-0.3-0.2-0.6-0.3-1-0.3C117.6,187.1,31.7,183.8,29,183.8L29,183.8z"/>
		<path class="st1" d="M69,218.1c-6.8,0-12.6-3.5-14.5-8.6c-2.1-5.7-1.8-10.5,0.8-14.3c3-4.3,9.4-6.9,16.9-6.9
			c1.2,0,2.4,0.1,3.6,0.2c5.9,0.7,10.7,5.3,11.7,11.2c1.4,6-1.4,12.1-6.7,15.1C77.3,216.9,73.2,218,69,218.1L69,218.1z"/>
		<path class="st2" d="M72.3,189.3c1.2,0,2.4,0.1,3.5,0.2c11.6,1.3,15.7,18,4.6,24.4c-3.4,2-7.3,3.1-11.3,3.2
			c-6.6,0-11.9-3.3-13.6-8C50.3,194.8,61.5,189.2,72.3,189.3 M72.3,187.2c-8,0-14.4,2.7-17.7,7.3c-1.9,2.8-3.7,7.6-1,15.2
			c2,5.5,8.2,9.3,15.4,9.3c4.3-0.1,8.6-1.3,12.3-3.5c5.7-3.2,8.6-9.8,7.2-16.1c-1.4-6.6-6.3-11.2-12.6-11.9
			C74.7,187.4,73.5,187.3,72.3,187.2L72.3,187.2z"/>
		<path class="st3" d="M66.7,213.3c-5.7,0-10.3-4.6-10.3-10.3c0-5.7,4.6-10.3,10.3-10.3c5.7,0,10.3,4.6,10.3,10.3c0,0,0,0,0,0
			C77,208.7,72.4,213.3,66.7,213.3z"/>
		<path class="st2" d="M66.7,193.7c5.1,0,9.3,4.1,9.3,9.3c0,5.1-4.1,9.3-9.3,9.3c-5.1,0-9.3-4.1-9.3-9.3c0,0,0,0,0,0
			C57.4,197.9,61.6,193.7,66.7,193.7 M66.7,191.7c-6.2,0-11.3,5-11.3,11.3c0,6.2,5,11.3,11.3,11.3c6.2,0,11.3-5,11.3-11.3
			c0,0,0,0,0,0C78,196.8,72.9,191.7,66.7,191.7z"/>
		<path class="st1" d="M142.3,208.2c-24.9,0-33.6-19-35.6-24.8c-4.3-11.5-3.7-24.2,1.7-35.2c6.7-14.3,20-23.5,33.9-23.5
			s27.2,9.2,33.9,23.5c5.3,11,5.9,23.7,1.7,35.2C175.8,189.3,167.2,208.2,142.3,208.2z"/>
		<path class="st2" d="M142.3,125.7c14.3,0,27,10,33,23c5.2,10.8,5.8,23.2,1.6,34.4c-3.3,9.6-13.1,24.1-34.6,24.1
			s-31.3-14.5-34.7-24.1c-4.1-11.2-3.5-23.6,1.7-34.4C115.3,135.7,127.9,125.7,142.3,125.7 M142.3,123.7c-14.3,0-28,9.5-34.8,24.1
			c-5.4,11.3-6.1,24.3-1.7,36c2.1,6,11,25.4,36.5,25.4s34.4-19.5,36.5-25.5c4.3-11.7,3.7-24.7-1.7-36
			C170.2,133.2,156.6,123.7,142.3,123.7z"/>
		<path class="st3" d="M110,157c-0.1,0-0.3,0-0.4-0.1c-0.5-0.2-0.7-0.8-0.5-1.3c5.3-12.2,10.5-20.9,18.5-23c3.7-1,7.4-1.9,11.1-2.5
			h0.1c0.6,0,1,0.4,1,1l0.1,8.8c0,0.6-0.4,1-1,1c-0.1,0-12,0.5-17.5,4.6c-5.8,4.3-7.8,5.9-10.5,11C110.7,156.8,110.3,157,110,157z"
			/>
		<path class="st2" d="M138.8,131.1l0.1,8.8c0,0-12.2,0.4-18.1,4.8s-8,6-10.8,11.3c5.8-13.3,10.8-20.5,17.9-22.4
			C131.4,132.5,135.1,131.7,138.8,131.1 M138.8,129.1c-0.1,0-0.2,0-0.3,0c-3.8,0.6-7.6,1.4-11.3,2.5c-8.4,2.3-13.7,11.1-19.2,23.6
			c-0.4,1,0,2.1,1,2.6c0.3,0.1,0.6,0.2,0.9,0.2c0.7,0,1.4-0.4,1.8-1.1c2.6-4.9,4.4-6.4,10.2-10.7c5.3-3.9,16.9-4.4,17-4.4
			c1.1,0,1.9-0.9,1.9-2l-0.1-8.8c0-0.6-0.3-1.1-0.7-1.5C139.8,129.3,139.3,129.1,138.8,129.1L138.8,129.1z"/>
		<path class="st3" d="M174.6,157c-0.4,0-0.7-0.2-0.9-0.5c-2.7-5.1-4.7-6.7-10.6-11c-5.6-4.1-18.7-4.6-18.8-4.6c-0.6,0-1-0.4-1-1
			l0.1-8.8c0-0.3,0.1-0.6,0.3-0.7c0.2-0.2,0.4-0.3,0.7-0.2h0.1c4.2,0.5,8.4,1.4,12.4,2.5c8,2.2,13.2,10.8,18.5,23
			c0.2,0.5,0,1.1-0.5,1.3C174.8,157,174.7,157,174.6,157z"/>
		<path class="st2" d="M144.4,131.1c4.2,0.5,8.3,1.3,12.3,2.4c7.1,1.9,12.1,9.2,17.9,22.4c-2.8-5.3-4.9-7-10.9-11.3
			c-5.9-4.4-19.4-4.8-19.4-4.8L144.4,131.1 M144.4,129.1c-1.1,0-2,0.9-2,2l-0.1,8.8c0,1.1,0.9,2,1.9,2c0.1,0,12.9,0.4,18.3,4.4
			c5.8,4.3,7.6,5.7,10.3,10.7c0.3,0.7,1,1.1,1.8,1.1c0.3,0,0.6-0.1,0.9-0.2c1-0.5,1.4-1.6,1-2.6c-5.5-12.5-10.9-21.3-19.2-23.6
			c-4.1-1.2-8.4-2-12.6-2.5L144.4,129.1z"/>
		<path class="st1" d="M141.6,205.7c-3.1,0.1-6.2-0.4-9.1-1.3c-0.2-0.1-0.4-0.2-0.5-0.4l-1.4-2.3c-0.2-0.4-0.2-0.9,0.1-1.2
			c0.3-0.3,0.8-0.4,1.2-0.2c3.1,1.6,7,1.7,11,1.7c3.3-0.1,6.6-0.7,9.8-1.8c0.1-0.1,0.3-0.1,0.4-0.1c0.3,0,0.6,0.1,0.7,0.3
			c0.3,0.3,0.3,0.8,0.1,1.2l-1.3,2.3c-0.1,0.2-0.3,0.4-0.6,0.5C148.6,205.3,145.1,205.8,141.6,205.7z"/>
		<path class="st2" d="M153.1,201.2L153.1,201.2 M153.1,201.2l-1.3,2.3c-3.3,0.9-6.8,1.3-10.2,1.2c-3,0.1-5.9-0.3-8.8-1.2l-1.4-2.3
			c3.4,1.7,7.6,1.8,11.5,1.8C146.4,202.9,149.8,202.3,153.1,201.2 M153.1,199.1h-0.2c-0.2,0-0.4,0.1-0.6,0.2c-3,1.1-6.2,1.6-9.4,1.7
			c-3.9,0-7.7-0.1-10.6-1.6c-1-0.5-2.2-0.1-2.7,0.9c-0.3,0.6-0.3,1.3,0.1,1.9l1.4,2.3c0.2,0.4,0.6,0.7,1,0.8c3.1,1,6.2,1.4,9.4,1.3
			c3.6,0,7.3-0.4,10.8-1.3c0.5-0.1,0.9-0.5,1.2-0.9l1.3-2.2c0.6-0.9,0.3-2.2-0.6-2.8C153.8,199.3,153.5,199.1,153.1,199.1
			L153.1,199.1z"/>
		<path class="st1" d="M142.3,192.5c-11.1,0-22.9-7.8-22.9-22.3c0-13.8,10.9-26.3,22.9-26.3s22.9,12.5,22.9,26.3
			C165.1,184.7,153.3,192.5,142.3,192.5z"/>
		<path class="st2" d="M142.3,144.9c11.1,0,21.9,11.5,21.9,25.3c0,13.8-11.2,21.3-21.9,21.3s-21.9-7.5-21.9-21.3
			C120.4,156.4,131.2,144.9,142.3,144.9 M142.3,142.9c-6,0-12,3-16.6,8.1c-4.7,5.3-7.3,12.1-7.3,19.2c-0.2,6.6,2.6,13,7.6,17.3
			c9.4,8,23.1,8,32.5,0c5-4.4,7.8-10.7,7.6-17.3c0-7.1-2.6-13.9-7.3-19.2C154.2,145.9,148.2,142.9,142.3,142.9z"/>
		<path class="st1" d="M141.8,229.6c-0.6,0-1.2-0.2-1.7-0.6c-0.2-0.2-0.4-0.5-0.4-0.8v-10.8c0-0.6,0.4-1,1-1h2.2c0.6,0,1,0.4,1,1
			v10.8c0,0.4-0.2,0.7-0.5,0.9C142.9,229.4,142.4,229.5,141.8,229.6z"/>
		<path class="st2" d="M142.9,217.4v10.8c-0.3,0.2-0.7,0.3-1.1,0.3c-0.4,0-0.8-0.1-1.1-0.3v-10.8H142.9 M142.9,215.4h-2.2
			c-1.1,0-2,0.9-2,2v10.8c0,0.6,0.3,1.2,0.7,1.6c0.7,0.5,1.5,0.8,2.3,0.8c0.8,0,1.5-0.2,2.2-0.6c0.6-0.4,1-1,1-1.7v-10.8
			C145,216.3,144.1,215.4,142.9,215.4L142.9,215.4z"/>
		<path class="st1" d="M139.8,202.1h4.1c0.6,0,1,0.4,1,1v15.2c0,0.6-0.4,1-1,1h-4.1c-0.6,0-1-0.4-1-1v-15.2
			C138.8,202.6,139.2,202.1,139.8,202.1z"/>
		<path class="st2" d="M143.9,203.1v15.2h-4.1v-15.2H143.9 M143.9,201.1h-4.1c-1.1,0-2,0.9-2,2v15.2c0,1.1,0.9,2,2,2h4.1
			c1.1,0,2-0.9,2-2v-15.2C145.9,202,145,201.1,143.9,201.1z"/>
		<path class="st1" d="M134.7,215.1c-0.3,0-0.7-0.2-0.9-0.4c-2.6-4-3.9-8.7-3.8-13.5c0-0.3,0.2-0.6,0.5-0.8c0.2-0.1,0.3-0.1,0.5-0.1
			c0.2,0,0.3,0,0.4,0.1l2.6,1.3c0.4,0.2,0.6,0.6,0.6,1c-0.2,2.5-0.1,5.1,0.5,7.5c1,3.5,0.9,4.1,0.5,4.6
			C135.4,215,135.1,215.2,134.7,215.1L134.7,215.1z"/>
		<path class="st2" d="M131,201.3l2.6,1.3c-0.2,2.6-0.1,5.3,0.5,7.9c0.8,2.6,0.9,3.7,0.6,3.7c-0.1,0-0.2-0.1-0.2-0.1
			C132.1,210.2,130.8,205.8,131,201.3 M131,199.3c-1.1,0-1.9,0.8-2,1.9c-0.4,6.7,3,13.2,4.1,14.3c0.4,0.4,1,0.7,1.6,0.7
			c0.7,0,1.3-0.3,1.7-0.8c0.7-0.9,0.6-2.1-0.4-5.5c-0.5-2.3-0.6-4.7-0.4-7.1c0.1-0.8-0.4-1.6-1.1-2l-2.6-1.3
			C131.6,199.3,131.3,199.3,131,199.3L131,199.3z"/>
		<path class="st1" d="M148.9,215.1c-0.3,0-0.7-0.2-0.9-0.4c-0.3-0.4-0.5-1.1,0.5-4.6c0.5-2.5,0.7-5,0.5-7.5c0-0.4,0.2-0.8,0.6-1
			l2.6-1.3c0.1-0.1,0.3-0.1,0.4-0.1c0.2,0,0.4,0.1,0.5,0.1c0.3,0.2,0.5,0.5,0.5,0.8c0.1,4.8-1.2,9.5-3.8,13.5
			C149.6,214.9,149.3,215.1,148.9,215.1z"/>
		<path class="st2" d="M152.7,201.2c0.1,4.5-1.1,9-3.5,12.8c-0.1,0.1-0.1,0.1-0.2,0.1c-0.3,0-0.2-1.1,0.6-3.7
			c0.6-2.6,0.7-5.3,0.5-7.9L152.7,201.2 M152.7,199.2c-0.3,0-0.6,0.1-0.9,0.2l-2.6,1.3c-0.8,0.4-1.2,1.2-1.1,2
			c0.2,2.4,0.1,4.8-0.4,7.1c-1,3.4-1.1,4.5-0.4,5.5c0.4,0.5,1,0.8,1.7,0.8c0.6,0,1.2-0.3,1.6-0.7c1.1-1.1,4.5-7.6,4.1-14.3
			c0-0.7-0.4-1.3-1-1.6C153.4,199.3,153,199.2,152.7,199.2L152.7,199.2z"/>
		<path class="st3" d="M135,218.1h2.2c1.5,0,2.7,1.2,2.7,2.7v11.6c0,1.5-1.2,2.7-2.7,2.7H135c-1.5,0-2.7-1.2-2.7-2.7v-11.6
			C132.3,219.4,133.5,218.1,135,218.1z"/>
		<path class="st2" d="M137.3,219.1c1,0,1.7,0.8,1.7,1.7v11.6c0,1-0.8,1.7-1.7,1.7H135c-1,0-1.7-0.8-1.7-1.7v-11.6
			c0-1,0.8-1.7,1.7-1.7L137.3,219.1 M137.3,217.1H135c-2.1,0-3.7,1.7-3.7,3.7c0,0,0,0,0,0v11.6c0,2.1,1.7,3.7,3.7,3.7c0,0,0,0,0,0
			h2.2c2.1,0,3.7-1.7,3.7-3.7v-11.6C141,218.8,139.3,217.1,137.3,217.1z"/>
		<path class="st3" d="M146.4,218.1h2.2c1.5,0,2.7,1.2,2.7,2.7v11.6c0,1.5-1.2,2.7-2.7,2.7h-2.2c-1.5,0-2.7-1.2-2.7-2.7v-11.6
			C143.6,219.4,144.9,218.1,146.4,218.1z"/>
		<path class="st2" d="M148.6,219.1c1,0,1.7,0.8,1.7,1.7v11.6c0,1-0.8,1.7-1.7,1.7h-2.2c-1,0-1.7-0.8-1.7-1.7v-11.6
			c0-1,0.8-1.7,1.7-1.7L148.6,219.1 M148.6,217.1h-2.2c-2.1,0-3.7,1.7-3.7,3.7l0,0v11.6c0,2.1,1.7,3.7,3.7,3.7l0,0h2.2
			c2.1,0,3.7-1.7,3.7-3.7v-11.6C152.4,218.8,150.7,217.1,148.6,217.1z"/>
	</g>
</g>
</svg>
