<?xml version="1.0" encoding="utf-8"?>
<!-- Generator: Adobe Illustrator 24.0.3, SVG Export Plug-In . SVG Version: 6.00 Build 0)  -->
<svg version="1.1" id="Layer_1" xmlns="http://www.w3.org/2000/svg" xmlns:xlink="http://www.w3.org/1999/xlink" x="0px" y="0px"
	 viewBox="0 0 360 360" style="enable-background:new 0 0 360 360;" xml:space="preserve">
<style type="text/css">
	.st0{fill:#0F81C2;stroke:#010101;stroke-width:2;stroke-linecap:round;stroke-linejoin:round;}
	.st1{fill:#08AD84;}
	.st2{fill:#010101;}
	.st3{fill:#0F81C2;}
	.st4{fill:none;stroke:#010101;stroke-width:2;stroke-linecap:round;stroke-linejoin:round;}
</style>
<title>Q_binh-thanh</title>
<g id="Layer_2_1_">
	<g id="Landmark">
		<polyline class="st0" points="174.6,44.6 170.1,48.5 170.1,90.3 173.5,87.9 		"/>
		<path class="st1" d="M174.6,84.6c-0.6,0-1-0.4-1-1v-38c0-0.3,0.1-0.6,0.4-0.8c0.2-0.1,0.4-0.2,0.6-0.2c0.1,0,0.2,0,0.2,0l4,1
			c0.5,0.1,0.8,0.5,0.8,1v37c0,0.6-0.4,1-1,1H174.6z"/>
		<path class="st2" d="M174.6,45.6l4,1v36.9h-4V45.6 M174.6,43.6c-1.1,0-2,0.9-2,2v38c0,1.1,0.9,2,2,2h4c1.1,0,2-0.9,2-2v-37
			c0-0.9-0.6-1.6-1.5-1.9l-4-1C174.9,43.7,174.8,43.6,174.6,43.6L174.6,43.6z"/>
		<path class="st1" d="M162.1,315.4c-0.6,0-1-0.4-1-1V146.1c0-0.3,0.1-0.6,0.3-0.8l3-2.6c0.2-0.2,0.4-0.2,0.7-0.2h1V97.7
			c0-0.3,0.1-0.5,0.3-0.7l1-1.1v-3.2c0-0.3,0.2-0.6,0.4-0.8l1.9-1.4c0.2-0.1,0.4-0.2,0.6-0.2h0.5v-3.3c0-0.3,0.2-0.7,0.5-0.8
			l1.6-1.1v-2.4c0-0.3,0.2-0.7,0.5-0.8l1.6-1c0.2-0.1,0.3-0.1,0.5-0.1h0.1l2.9,0.4v-0.7c0-0.3,0.1-0.6,0.4-0.8
			c0.2-0.2,0.4-0.2,0.6-0.2h0.2l4.5,0.8c0.5,0.1,0.8,0.5,0.8,1v5.2l1.1,0.1c0.5,0.1,0.9,0.5,0.9,1c0,12.3-0.1,43.1,0,48.5l2,0.1
			c0.5,0,0.9,0.5,0.9,1v64.9l4.2-0.1c0.3,0,0.5,0.1,0.7,0.3c0.2,0.2,0.3,0.4,0.3,0.7V268h1.1c0.6,0,1,0.4,1,1v14h1
			c0.3,0,0.5,0.1,0.7,0.3c0.2,0.2,0.3,0.4,0.3,0.7v17.6c0,0.6-0.4,1-1,1h-0.3l-0.2,11.9c0,0.6-0.4,1-1,1L162.1,315.4z"/>
		<path class="st2" d="M179.3,80.5l4.5,0.8v6.1l2,0.2c0,0-0.2,49.5,0,49.5s2.9,0.2,2.9,0.2v66l5.2-0.1V269l2.1,0.1v15h2v17.5h-1.4
			l-0.2,12.9h-34.2V146.1l3-2.6h2V97.7l1.2-1.4v-3.6l1.8-1.4h1.5v-4.3l2.1-1.4v-3l1.6-1l4,0.5L179.3,80.5 M179.3,78.5
			c-0.5,0-0.9,0.2-1.3,0.5c-0.3,0.3-0.6,0.7-0.7,1.1l-1.8-0.2h-0.3c-0.4,0-0.7,0.1-1,0.3l-1.6,1c-0.6,0.4-0.9,1-0.9,1.7v1.8
			l-1.2,0.8c-0.6,0.4-0.9,1-0.9,1.7v2.4c-0.2,0.1-0.5,0.2-0.7,0.3l-1.9,1.3c-0.5,0.4-0.8,1-0.8,1.6v2.8l-0.7,0.8
			c-0.3,0.4-0.5,0.9-0.5,1.3v43.9c-0.5,0-0.9,0.2-1.3,0.5l-3,2.6c-0.4,0.4-0.7,0.9-0.7,1.5v168.3c0,1.1,0.9,2,2,2h34.3
			c1.1,0,2-0.9,2-2l0.2-11c0.8-0.3,1.3-1,1.4-1.9V284c0-1.1-0.9-2-2-2V269c0-1.1-0.9-2-1.9-2h-0.1v-63.9c0-1.1-0.9-2-2-2l0,0h-3.2
			v-63.9c0-1.1-0.8-1.9-1.9-2l-1-0.1c-0.1-6.6,0-30.9,0-47.6c0-1-0.8-1.9-1.8-2h-0.2v-4.3c0-1-0.7-1.8-1.7-2l-4.5-0.7
			C179.5,78.5,179.4,78.5,179.3,78.5L179.3,78.5z"/>
		<path class="st3" d="M177.1,208.8c-0.6,0-1-0.4-1-1l-0.4-21.8l-1.1-0.7c-0.3-0.2-0.4-0.5-0.4-0.8V91.2l-2.2-0.7
			c-0.4-0.1-0.7-0.5-0.7-1v-2.7c0-0.3,0.1-0.5,0.3-0.7l1-1.1v-2.3c0-0.3,0.1-0.6,0.3-0.8l1.6-1.4c0.2-0.2,0.4-0.2,0.6-0.2
			c0.1,0,0.3,0,0.4,0.1c0.4,0.2,0.6,0.5,0.6,0.9v0.3l0.1-0.1c0.2-0.2,0.4-0.3,0.7-0.3c0.1,0,0.3,0,0.4,0.1c0.4,0.2,0.6,0.5,0.6,0.9
			v64.8l0.2-0.2c0.2-0.1,0.4-0.2,0.6-0.2c0.2,0,0.3,0,0.5,0.1c0.3,0.2,0.5,0.5,0.5,0.9v60.1c0,0.6-0.4,1-1,1L177.1,208.8z"/>
		<path class="st2" d="M175.3,81.4v2.8l1.8-1.9v66.7l1.9-1.4v60.1h-1.9l-0.4-22.3l-1.5-1v-94l-2.9-0.9v-2.7l1.3-1.3v-2.8L175.3,81.4
			 M175.3,79.4c-0.5,0-0.9,0.2-1.3,0.5l-1.6,1.4c-0.4,0.4-0.7,0.9-0.7,1.5v1.9l-0.8,0.8c-0.4,0.4-0.6,0.9-0.6,1.4v2.7
			c0,0.9,0.6,1.6,1.4,1.9l1.5,0.5v92.5c0,0.7,0.3,1.3,0.9,1.6l0.6,0.4l0.3,21.2c0,1.1,0.9,2,2,2h1.9c1.1,0,2-0.9,2-2v-60.1
			c0-0.8-0.4-1.4-1.1-1.8c-0.2-0.1-0.5-0.2-0.8-0.2V82.3c0-0.8-0.5-1.6-1.2-1.9c-0.2-0.1-0.5-0.1-0.8-0.1h-0.2
			C176.6,79.8,175.9,79.4,175.3,79.4L175.3,79.4z"/>
		<path class="st3" d="M167,143c-0.1,0-0.3,0-0.4-0.1c-0.3-0.2-0.6-0.5-0.6-0.9V97.7c0-0.3,0.1-0.5,0.3-0.7l1-1.1v-3.2
			c0-0.3,0.2-0.6,0.4-0.8l1.8-1.4c0.2-0.1,0.4-0.2,0.6-0.2c0.6,0,1,0.4,1,1v48.1c0,0.3-0.1,0.6-0.4,0.8l-3.1,2.5
			C167.5,143,167.3,143,167,143z"/>
		<path class="st2" d="M170.1,91.4v48.1L167,142V97.7l1.2-1.4v-3.6L170.1,91.4 M170.1,89.4c-0.4,0-0.8,0.1-1.2,0.4l-1.8,1.3
			c-0.5,0.4-0.8,1-0.8,1.6v2.8l-0.7,0.8c-0.3,0.4-0.5,0.9-0.5,1.3V142c0,0.8,0.4,1.5,1.1,1.8c0.3,0.1,0.6,0.2,0.9,0.2
			c0.5,0,0.9-0.2,1.2-0.5l3.1-2.5c0.4-0.4,0.7-0.9,0.7-1.5V91.4c0-0.8-0.4-1.4-1.1-1.8C170.7,89.5,170.4,89.4,170.1,89.4z"/>
		<path class="st3" d="M173,276.1c-0.6,0-1-0.4-1-1l-0.1-60.3l-1.9-0.8c-0.4-0.2-0.6-0.5-0.6-0.9v-28.3c0-0.4,0.2-0.7,0.5-0.9
			l1.2-0.6c0.1-0.1,0.3-0.1,0.5-0.1c0.2,0,0.4,0,0.5,0.1c0.3,0.2,0.5,0.5,0.5,0.9v22.5l1.1-0.5c0.1-0.1,0.3-0.1,0.4-0.1
			c0.2,0,0.4,0.1,0.5,0.2c0.3,0.2,0.5,0.5,0.5,0.8v68c0,0.6-0.4,1-1,1L173,276.1z"/>
		<path class="st2" d="M171.6,184.2v24l2.5-1.1v68H173l-0.1-60.9l-2.5-1v-28.3L171.6,184.2 M171.6,182.2c-0.3,0-0.6,0.1-0.9,0.2
			l-1.2,0.6c-0.7,0.3-1.1,1-1.1,1.8v28.3c0,0.8,0.5,1.5,1.2,1.9l1.2,0.5l0.1,59.6c0,1.1,0.9,2,2,2h1.1c1.1,0,2-0.9,2-2v-68
			c0-0.7-0.3-1.3-0.9-1.7c-0.3-0.2-0.7-0.3-1.1-0.3c-0.2,0-0.3,0-0.5,0.1v-21c0-0.7-0.4-1.4-1-1.7
			C172.3,182.3,172,182.2,171.6,182.2L171.6,182.2z"/>
		<polyline class="st4" points="197.9,302.6 188.5,302.6 188.5,306.4 183.4,306.4 183.4,310 178,310 178,315.4 		"/>
		<line class="st4" x1="182.1" y1="89.6" x2="182.1" y2="135.9"/>
		<polyline class="st4" points="188.4,205.7 188.4,259.1 191.7,259.1 		"/>
		<path class="st3" d="M162.1,315.4c-0.6,0-1-0.4-1-1V146.1c0-0.3,0.1-0.6,0.3-0.8l3-2.6c0.2-0.2,0.4-0.2,0.7-0.2
			c0.1,0,0.3,0,0.4,0.1c0.4,0.2,0.6,0.5,0.6,0.9v69.9l0.6-0.3c0.1-0.1,0.3-0.1,0.5-0.1c0.6,0,1,0.4,1,1v61.5h1c0.6,0,1,0.4,1,1v37.8
			c0,0.6-0.4,1-1,1L162.1,315.4z"/>
		<path class="st2" d="M165.1,143.6v71.6l2.1-1.1v62.5l2,0.1v37.8h-7.1V146.1L165.1,143.6 M165.1,141.6c-0.5,0-1,0.2-1.3,0.5l-3,2.6
			c-0.4,0.4-0.7,0.9-0.7,1.5v168.3c0,1.1,0.9,2,2,2h7c1.1,0,2-0.9,2-2v-37.8c0-1.1-0.9-2-1.9-2l0,0v-60.6c0-1.1-0.9-2-2-2h-0.1
			v-68.5c0-0.8-0.5-1.5-1.2-1.8C165.7,141.6,165.4,141.6,165.1,141.6z"/>
	</g>
</g>
</svg>
