<svg id="Landmark" xmlns="http://www.w3.org/2000/svg" viewBox="0 0 360 360"><defs><style>.cls-1{fill:#0f81c2;}.cls-2{fill:#010101;}.cls-3,.cls-7{fill:#08ad84;}.cls-4,.cls-5{fill:#8683bf;}.cls-5{stroke:#a9d7ad;stroke-width:1.5px;}.cls-5,.cls-7,.cls-9{stroke-linecap:round;stroke-linejoin:round;}.cls-6{fill:#a56b44;}.cls-6,.cls-7,.cls-8,.cls-9{stroke:#010101;stroke-width:2px;}.cls-6,.cls-8{stroke-miterlimit:10;}.cls-8{fill:#82ca9c;}.cls-9{fill:#008a62;}</style></defs><path class="cls-1" d="M240.37,171.45,243.56,114l22.37.25A14,14,0,0,1,279.3,124.6l13.52,50.62Z"/><path class="cls-2" d="M244.51,115l21.41.24a13,13,0,0,1,12.41,9.64l13.16,49.27-50.07-3.6L244.51,115m-1.89-2-3.3,59.42,54.83,3.94-13.89-52a15,15,0,0,0-14.32-11.13L242.62,113Z"/><polygon class="cls-1" points="52.77 227.19 70.74 164.19 139.29 169.12 116.15 230.34 52.77 227.19"/><path class="cls-2" d="M71.48,165.25l66.4,4.77L115.47,229.3l-61.39-3,17.4-61M70,163.14l-18.53,65,65.36,3.24,23.87-63.15L70,163.14Z"/><path class="cls-3" d="M72,159.35l9.26-34.68a14,14,0,0,1,13.45-10.38l57.12-.32L129,163.45Z"/><path class="cls-2" d="M150.27,115,128.41,162.4l-55.12-4,8.95-33.51a13,13,0,0,1,12.48-9.64l55.55-.31m3.13-2h0Zm0,0-58.69.33a15,15,0,0,0-14.4,11.12l-9.58,35.85,58.92,4.24L153.4,113Z"/><polygon class="cls-4" points="134.61 163.85 157.55 113.96 238.1 113.96 234.93 171.06 134.61 163.85"/><path class="cls-2" d="M237,115l-3,55-97.86-7,22.06-48H237m2.12-2Zm0,0H156.91L133.1,164.74l102.77,7.39L239.16,113Z"/><path class="cls-3" d="M59.19,271.19a14,14,0,0,1-13.47-17.76l5.85-21L96,234.41l9.37,36.78Z"/><path class="cls-2" d="M52.32,233.52l42.86,1.85L104,270.19H59.19A13,13,0,0,1,46.68,253.7l5.64-20.18m-1.5-2.07-6.07,21.71a15,15,0,0,0,14.44,19h47.42l-9.86-38.75-45.93-2Z"/><polygon class="cls-3" points="121.65 230.61 144.57 169.5 215.43 174.59 230.97 236.03 121.65 230.61"/><path class="cls-2" d="M145.24,170.55l69.4,5,15,59.42-106.6-5.28,22.17-59.13m-1.34-2.1-23.67,63.09,112,5.56-16-63.45-72.33-5.2Z"/><polygon class="cls-4" points="110.91 271.19 101.86 234.51 231.06 240.97 229.38 271.19 110.91 271.19"/><path class="cls-2" d="M103.15,235.57,230,241.91l-1.57,28.28H111.69l-8.54-34.62m-2.59-2.13,9.56,38.75h120.2L232.11,240l-131.55-6.58Z"/><polygon class="cls-4" points="220.68 174.97 294.12 180.25 308.46 233.91 236.5 235.97 220.68 174.97"/><path class="cls-2" d="M222,176.07l71.34,5.13L307.16,233l-69.89,2L222,176.07m-2.64-2.2L235.73,237l74-2.12L294.9,179.3l-75.54-5.43Z"/><path class="cls-1" d="M234.84,271.19l1.69-30.3,73.22-2.1,4.42,14.26a14,14,0,0,1-13.36,18.14Z"/><path class="cls-2" d="M309,239.82l4.2,13.53a13,13,0,0,1-12.41,16.84H235.9l1.58-28.33,71.54-2m1.46-2-74.9,2.15-1.79,32.27h67a15,15,0,0,0,14.32-19.43l-4.65-15Z"/><path class="cls-5" d="M80.36,205a4.64,4.64,0,0,1,1.76,2.74"/><path class="cls-5" d="M82.27,202.47a7.25,7.25,0,0,1,2.8,5.92"/><path class="cls-5" d="M86.79,203.08a9.78,9.78,0,0,1,.74,4.5"/><path class="cls-5" d="M212.16,150.06a4.61,4.61,0,0,1,1.77,2.73"/><path class="cls-5" d="M214.08,147.5a7.23,7.23,0,0,1,2.79,5.92"/><path class="cls-5" d="M218.6,148.11a9.89,9.89,0,0,1,.74,4.5"/><path class="cls-5" d="M116.63,138.33a4.6,4.6,0,0,1,1.77,2.74"/><path class="cls-5" d="M118.55,135.77a7.25,7.25,0,0,1,2.79,5.92"/><path class="cls-5" d="M123.07,136.38a9.89,9.89,0,0,1,.74,4.5"/><path class="cls-5" d="M242.44,216.47a4.64,4.64,0,0,1,1.76,2.74"/><path class="cls-5" d="M244.36,213.91a7.27,7.27,0,0,1,2.79,5.92"/><path class="cls-5" d="M248.87,214.52a9.78,9.78,0,0,1,.74,4.5"/><path class="cls-5" d="M287,256.59a4.61,4.61,0,0,1,1.76,2.73"/><path class="cls-5" d="M288.86,254a7.26,7.26,0,0,1,2.8,5.92"/><path class="cls-5" d="M293.38,254.64a9.76,9.76,0,0,1,.74,4.5"/><path class="cls-5" d="M166.34,188.69a4.6,4.6,0,0,0-1.77,2.74"/><path class="cls-5" d="M164.42,186.13a7.28,7.28,0,0,0-2.8,5.92"/><path class="cls-5" d="M159.9,186.74a9.89,9.89,0,0,0-.74,4.5"/><path class="cls-5" d="M255,127.37a4.58,4.58,0,0,0-1.77,2.73"/><path class="cls-5" d="M253.09,124.81a7.25,7.25,0,0,0-2.8,5.92"/><path class="cls-5" d="M248.57,125.41a9.78,9.78,0,0,0-.74,4.5"/><path class="cls-5" d="M196,255.09a4.61,4.61,0,0,0-1.38,3"/><path class="cls-5" d="M193.7,252.82a7.28,7.28,0,0,0-2,6.24"/><path class="cls-5" d="M189.31,254a9.9,9.9,0,0,0-.13,4.56"/><path class="cls-5" d="M65.46,255.14a4.64,4.64,0,0,0-1.38,2.95"/><path class="cls-5" d="M63.21,252.87a7.26,7.26,0,0,0-2,6.24"/><path class="cls-5" d="M58.82,254.08a9.77,9.77,0,0,0-.13,4.56"/><path id="Shape" class="cls-6" d="M102.4,188.34a15.08,15.08,0,0,1-2.15-9h-6.1a15.08,15.08,0,0,1-2.15,9Z"/><path id="Shape-2" data-name="Shape" class="cls-7" d="M109.33,165.81c0,9.09-5.43,13.86-12.13,13.86s-12.13-4.77-12.13-13.86c0-6.08,5.44-22.05,9-29.26a3.46,3.46,0,0,1,6.2,0C103.9,143.76,109.33,159.73,109.33,165.81Z"/><path id="Shape-3" data-name="Shape" class="cls-8" d="M98.2,173.48c-4.4,0-6.93-3.16-6.93-8.67a1.74,1.74,0,0,1,3.47,0c0,5.2,2.51,5.2,3.46,5.2a1.74,1.74,0,0,1,0,3.47Z"/><path id="Shape-4" data-name="Shape" class="cls-6" d="M274.89,221.39a15.08,15.08,0,0,1-2.15-9h-6.1a15.08,15.08,0,0,1-2.15,9Z"/><path id="Shape-5" data-name="Shape" class="cls-7" d="M281.82,198.86c0,9.1-5.43,13.87-12.13,13.87s-12.13-4.77-12.13-13.87c0-6.08,5.43-22.05,9-29.26a3.46,3.46,0,0,1,6.2,0C276.38,176.81,281.82,192.78,281.82,198.86Z"/><path id="Shape-6" data-name="Shape" class="cls-8" d="M270.69,206.53c-4.41,0-6.93-3.16-6.93-8.67a1.73,1.73,0,0,1,3.46,0c0,5.2,2.52,5.2,3.47,5.2a1.74,1.74,0,0,1,0,3.47Z"/><path id="Shape-7" data-name="Shape" class="cls-6" d="M162.91,152.74a15.91,15.91,0,0,1-2.37-8.92h-5.65a15.91,15.91,0,0,1-2.37,8.92Z"/><path id="Shape-8" data-name="Shape" class="cls-9" d="M171.3,123.77h0c3.78-2,6.33-6.24,6.33-12.48,0-6.08-5.44-22.05-9-29.26a3.46,3.46,0,0,0-6.2,0,114.09,114.09,0,0,0-5.53,14.07Z"/><path id="Shape-9" data-name="Shape" class="cls-7" d="M171.57,128.09c0,10.49-6.2,16-13.86,16s-13.86-5.5-13.86-16c0-7,6.21-25.45,10.32-33.77a3.94,3.94,0,0,1,7.09,0c4.1,8.32,10.31,26.75,10.31,33.77Z"/><path id="Shape-10" data-name="Shape" class="cls-8" d="M159.18,136.3c-5.43,0-8.66-4-8.66-10.8a1.73,1.73,0,1,1,3.46,0c0,4.86,1.75,7.33,5.2,7.33a1.74,1.74,0,0,1,0,3.47Z"/><path id="Shape-11" data-name="Shape" class="cls-6" d="M129.06,256.9a15.93,15.93,0,0,1-2.37-8.92H121a15.93,15.93,0,0,1-2.37,8.92Z"/><path id="Shape-12" data-name="Shape" class="cls-9" d="M137.14,231.37h0c3.77-2,6.32-6.24,6.32-12.47s-5.44-22.06-9-29.27a3.46,3.46,0,0,0-6.2,0,114.09,114.09,0,0,0-5.53,14.07Z"/><path id="Shape-13" data-name="Shape" class="cls-7" d="M137.72,232.24c0,10.49-6.2,16-13.86,16s-13.86-5.51-13.86-16c0-7,6.21-25.44,10.32-33.76a3.94,3.94,0,0,1,7.09,0c4.1,8.32,10.31,26.74,10.31,33.76Z"/><path id="Shape-14" data-name="Shape" class="cls-8" d="M125.33,240.45c-5.43,0-8.66-4-8.66-10.8a1.73,1.73,0,1,1,3.46,0c0,4.87,1.75,7.34,5.2,7.34a1.73,1.73,0,1,1,0,3.46Z"/></svg>