<?xml version="1.0" encoding="utf-8"?>
<!-- Generator: Adobe Illustrator 24.0.3, SVG Export Plug-In . SVG Version: 6.00 Build 0)  -->
<svg version="1.1" id="Layer_1" xmlns="http://www.w3.org/2000/svg" xmlns:xlink="http://www.w3.org/1999/xlink" x="0px" y="0px"
	 viewBox="0 0 360 360" style="enable-background:new 0 0 360 360;" xml:space="preserve">
<style type="text/css">
	.st0{fill:#2F5D9D;}
	.st1{fill:#010101;}
	.st2{fill:#01916F;}
	.st3{fill:none;stroke:#010101;stroke-width:2;stroke-linecap:round;stroke-linejoin:round;}
	.st4{fill:#8683BF;}
	.st5{fill:#08AD84;stroke:#010101;stroke-width:2;stroke-linecap:round;stroke-linejoin:round;}
	.st6{fill:#08AD84;}
	.st7{fill:#0C81C3;}
</style>
<title>Q_02</title>
<g id="Layer_2_1_">
	<g id="Landmark">
		<path class="st0" d="M60.7,257c-0.3,0-1.2,0-12.2-6s-11.2-6.3-11.3-6.9c0-0.2,0-0.5,0.1-0.7c0.1-0.2,0.2-0.9,0.2-1.4
			c0.6-3.9,1.7-11.1,5.8-11.1s6.4-0.9,7.5-3c1.1-2,10.6-26.1,15.5-38.6c0.1-0.3,0.4-0.6,0.8-0.6c6.7-0.9,20.7-1.5,35-1.5
			c3.2,0,6.5,0,9.6,0.1c0.5,0,0.9,0.3,1,0.8l1.5,7.7c0,0.1,0,0.3,0,0.4L100,250.6c-0.1,0.4-0.4,0.7-0.8,0.7
			c-14.7,2.1-37,5.4-38.1,5.7C60.9,257,60.8,257,60.7,257z"/>
		<path class="st1" d="M102.2,188.2c3.2,0,6.4,0,9.6,0.1l1.5,7.7L99,250.3c0,0-37.4,5.4-38.2,5.7l0,0c-1.4,0-22.9-11.9-22.5-12.1
			c0.4-0.1,0.9-12.1,5.1-12.1s7.1-1,8.4-3.5s15.5-38.6,15.5-38.6C73.6,188.9,87.2,188.2,102.2,188.2 M102.2,186.2
			c-14.3,0-28.4,0.6-35.1,1.5c-0.7,0.1-1.3,0.6-1.6,1.2C59.8,203.5,51,225.7,50,227.5c-0.6,1.1-1.9,2.5-6.6,2.5c-5,0-6.1,7.8-6.8,12
			c-0.1,0.4-0.1,1-0.2,1.2c-0.2,0.4-0.2,0.8-0.2,1.2c0.2,1.1,0.2,1.3,11.8,7.6c11.2,6.1,12.1,6.1,12.7,6.1c0.2,0,0.4,0,0.6-0.1
			c1.5-0.3,23.5-3.6,38-5.7c0.8-0.1,1.4-0.7,1.7-1.5l14.3-54.2c0.1-0.3,0.1-0.6,0-0.9l-1.5-7.7c-0.2-0.9-1-1.6-1.9-1.6
			C108.7,186.3,105.4,186.3,102.2,186.2L102.2,186.2z"/>
		<path class="st2" d="M342,240.1l-21.3-2c-0.5,0-0.9-0.5-0.9-1.1l0.9-13.6c0-0.5,0.5-0.9,1-0.9h7.4c0.1,0,0.3,0,0.4,0.1l10.7,4.9
			c0.5,0.2,0.7,0.7,0.5,1.2l-1.1,3.5l2.1,0.9c0.3,0.1,0.6,0.4,0.6,0.8c0.2,1.4,0.8,4.7,0.8,5.3c0,0.3-0.1,0.6-0.3,0.7
			c-0.2,0.2-0.4,0.3-0.7,0.3L342,240.1z"/>
		<path class="st1" d="M329.1,223.5l10.7,4.9l-1.3,4.4l2.9,1.2c0,0,0.8,4.6,0.8,5.1l-21.3-2l0.9-13.6L329.1,223.5 M329.2,221.6h-7.5
			c-1.1,0-1.9,0.8-2,1.9l-0.9,13.6c-0.1,1.1,0.7,2,1.8,2.1l21.3,1.9h0.2c0.5,0,1-0.2,1.4-0.5c0.4-0.4,0.7-0.9,0.6-1.5
			c0-0.5-0.3-2.3-0.8-5.4c-0.1-0.7-0.6-1.3-1.2-1.5l-1.2-0.5l0.8-2.6c0.3-1-0.2-2-1.1-2.4l-10.7-4.9
			C329.7,221.6,329.4,221.6,329.2,221.6L329.2,221.6z"/>
		<path class="st2" d="M351.8,244.9c-1,0-1.8,0-1.8,0h-0.2l-22.5-4.5c-0.4-0.1-0.6-0.3-0.8-0.7c-0.1-0.4,0-0.7,0.2-1l5.9-6
			c0.2-0.2,0.4-0.3,0.7-0.3c0.1,0,0.3,0,0.4,0.1c23.5,9.2,23.6,9.9,23.7,10.6c0.1,0.4,0,0.7-0.3,1
			C356.9,244.3,356.5,244.9,351.8,244.9z"/>
		<path class="st1" d="M333.4,233.3c0,0,23,9,23.1,9.9c0.1,0.5-2.8,0.6-4.7,0.6c-1,0-1.8,0-1.8,0l-22.4-4.5L333.4,233.3
			 M333.4,231.3c-0.5,0-1.1,0.2-1.4,0.6l-5.9,6c-0.8,0.8-0.8,2.1,0,2.8c0.3,0.3,0.6,0.4,1,0.5l22.4,4.5c0.1,0,0.2,0,0.3,0
			c0,0,0.8,0,1.9,0c4.4,0,5.5-0.4,6.2-1.2c0.4-0.5,0.6-1.1,0.5-1.7c-0.2-1.3-0.3-1.6-12.8-6.7c-5.7-2.4-11.5-4.6-11.5-4.6
			C333.9,231.4,333.7,231.3,333.4,231.3L333.4,231.3z"/>
		<path class="st3" d="M246.7,160c4-5.9,6.4-33.6,5.6-43.1"/>
		<path class="st4" d="M262.2,124.4c-0.1,0-0.2,0-0.3,0c-2.7-0.3-5.5-0.4-8.3-0.4c-0.3,0-0.6-0.1-0.7-0.3c-0.2-0.2-0.3-0.5-0.2-0.8
			c0.2-1.9,0.2-3.8,0-5.7c0-0.3,0.1-0.6,0.3-0.8c0.2-0.2,0.4-0.3,0.7-0.3h0.1c1.4,0.2,8.3,2.2,9.1,2.4c0.4,0.1,0.6,0.4,0.7,0.8
			c0.2,1.5,0,3-0.5,4.5C263,124.1,262.6,124.4,262.2,124.4z"/>
		<path class="st1" d="M253.7,117c1.4,0.2,9,2.4,9,2.4c0.2,1.4,0,2.7-0.5,4c-1.1-0.3-8.5-0.4-8.5-0.4
			C253.9,121,253.9,119.1,253.7,117 M253.7,115.1c-1.1,0-2,0.9-2,2c0,0.1,0,0.1,0,0.2c0.2,1.8,0.2,3.7,0,5.5
			c-0.1,0.6,0.1,1.1,0.5,1.6c0.4,0.4,0.9,0.7,1.5,0.7c3.3,0,7.3,0.2,8,0.3c0.2,0.1,0.4,0.1,0.5,0.1c0.8,0,1.6-0.5,1.9-1.3
			c0.6-1.6,0.8-3.3,0.5-5c-0.1-0.8-0.7-1.4-1.4-1.6c-1.3-0.4-7.8-2.2-9.2-2.4L253.7,115.1L253.7,115.1z"/>
		<polyline class="st3" points="297.1,184.6 297.1,174.8 269.6,174.8 		"/>
		<line class="st3" x1="290.1" y1="174.8" x2="290.1" y2="184.5"/>
		<line class="st3" x1="297.1" y1="177.7" x2="290.1" y2="177.7"/>
		<line class="st3" x1="297.1" y1="181.1" x2="290.1" y2="181.1"/>
		<line class="st3" x1="277.1" y1="174.8" x2="277.1" y2="184.5"/>
		<line class="st3" x1="277.1" y1="178.3" x2="267.7" y2="178.3"/>
		<line class="st3" x1="277.1" y1="181.6" x2="268.2" y2="181.6"/>
		<polyline class="st5" points="277.4,165.1 265,169.8 225.6,170.3 217.2,168.6 218.1,167.3 		"/>
		<path class="st2" d="M255,188.1c-0.6,0-1-0.4-1-1v-22.7c0-0.6,0.4-1,1-1l15.8,0.7c0.6,0,1,0.5,0.9,1.1c0,0.1,0,0.1,0,0.2
			l-3.9,13.4l3,8c0.1,0.3,0.1,0.6-0.1,0.9c-0.2,0.3-0.5,0.4-0.8,0.4L255,188.1z"/>
		<path class="st1" d="M255,164.4l15.8,0.7l-4,13.7l3.1,8.3h-15L255,164.4 M254.9,162.4c-1.1,0-2,0.9-2,2v22.7c0,1.1,0.9,2,2,2h15
			c1.1,0,2-0.9,2-2c0-0.2,0-0.5-0.1-0.7l-2.9-7.6l3.8-13.1c0.2-0.6,0.1-1.2-0.3-1.7c-0.4-0.5-0.9-0.8-1.5-0.8l-15.8-0.7H254.9z"/>
		<path class="st6" d="M227,188.6c-0.3,0-0.6-0.1-0.7-0.3c-0.2-0.2-0.3-0.5-0.3-0.8l1-8.4l-3.9-12.2c-0.1-0.3-0.1-0.6,0.1-0.9
			c0.2-0.3,0.4-0.4,0.7-0.4l21.9-2.5h0.1l9.2,0.3c0.6,0,1,0.4,1,1v22.7c0,0.6-0.4,1-1,1L227,188.6z"/>
		<path class="st1" d="M245.8,164.1l9.2,0.3v22.7l-28,0.5l1-8.6l-4-12.4L245.8,164.1 M245.9,162.1h-0.2l-21.9,2.5
			c-1.1,0.1-1.9,1.1-1.8,2.2c0,0.1,0,0.3,0.1,0.4l3.9,12l-0.9,8.2c-0.1,1.1,0.7,2.1,1.8,2.2c0.1,0,0.2,0,0.2,0l0,0l28-0.5
			c1.1,0,2-0.9,2-2v-22.7c0-1.1-0.9-2-1.9-2L245.9,162.1L245.9,162.1z"/>
		<path class="st7" d="M231.1,178.7c-0.4,0-0.8-0.3-0.9-0.7l-2.2-6.3c-0.1-0.3-0.1-0.6,0.1-0.9c0.2-0.3,0.4-0.4,0.7-0.5l11.8-1.5
			h0.1c0.5,0,0.9,0.3,1,0.7l1.8,6.6c0.1,0.3,0,0.6-0.1,0.8c-0.2,0.2-0.4,0.4-0.7,0.4l-11.5,1.2L231.1,178.7z"/>
		<path class="st1" d="M240.8,170l1.8,6.6l-11.5,1.2l-2.2-6.3L240.8,170 M240.8,168c-0.1,0-0.2,0-0.2,0l-11.8,1.5
			c-0.6,0.1-1.1,0.4-1.4,0.9c-0.3,0.5-0.4,1.1-0.2,1.7l2.2,6.3c0.3,0.8,1,1.3,1.9,1.3h0.2l11.5-1.2c0.6-0.1,1.1-0.4,1.4-0.9
			c0.3-0.5,0.4-1.1,0.3-1.7l-1.8-6.6C242.5,168.6,241.7,168,240.8,168L240.8,168z"/>
		<path class="st7" d="M247.9,177.4c-0.5,0-0.9-0.3-1-0.8l-1.8-6.9c-0.1-0.5,0.2-1.1,0.7-1.2c0.1,0,0.2,0,0.3,0l5.7,0.1
			c0.6,0,1,0.4,1,1v6.8c0,0.6-0.4,1-1,1H247.9z"/>
		<path class="st1" d="M246.1,169.5l5.6,0.1v6.8h-3.8L246.1,169.5 M246.1,167.5c-1.1,0-2,0.9-2,2c0,0.2,0,0.3,0.1,0.5l1.8,6.9
			c0.2,0.9,1,1.5,1.9,1.5h3.8c1.1,0,2-0.9,2-2v-6.8c0-1.1-0.9-2-1.9-2L246.1,167.5L246.1,167.5z"/>
		<path class="st7" d="M264,177.9l-3.7-0.4c-0.5-0.1-0.9-0.5-0.9-1v-6.8c0-0.3,0.1-0.5,0.3-0.7c0.2-0.2,0.4-0.3,0.7-0.3l5.6,0.2
			c0.3,0,0.6,0.2,0.8,0.4c0.2,0.2,0.2,0.6,0.2,0.9l-1.9,6.9C264.9,177.6,264.5,177.9,264,177.9L264,177.9z"/>
		<path class="st1" d="M260.4,169.8l5.6,0.2l-1.9,6.9l-3.7-0.4L260.4,169.8 M260.4,167.8c-1.1,0-2,0.9-2,2v6.8c0,1,0.8,1.9,1.8,2
			l3.7,0.4h0.2c0.9,0,1.7-0.6,1.9-1.5l1.9-6.9c0.3-1.1-0.3-2.2-1.4-2.5c-0.2,0-0.3-0.1-0.5-0.1l-5.6-0.2H260.4z"/>
		<path class="st6" d="M244.8,163c-0.3,0-0.5-0.1-0.7-0.3c-0.2-0.2-0.3-0.5-0.3-0.7l0.4-14.4h-0.4c-0.3,0-0.5-0.1-0.7-0.3
			c-0.2-0.2-0.3-0.5-0.3-0.8l0.1-1.4c0-0.5,0.3-0.8,0.8-0.9l0.7-0.1l0.6-22.1l-0.3-0.3c-0.2-0.2-0.3-0.5-0.3-0.8l0.1-1.1l-2.2,0.5
			h-0.2c-0.6,0-1-0.4-1-1v-1c0-0.5,0.3-0.9,0.7-1l3.1-0.9l0.2-2.8c0-0.5,0.4-0.9,0.9-0.9l1.6-0.2h0.1c0.6,0,1,0.4,1,1v2.2l3.5-0.8
			c0.1,0,0.1,0,0.2,0c0.2,0,0.4,0.1,0.6,0.2c0.2,0.2,0.4,0.5,0.4,0.8v1.2c0,0.5-0.3,0.9-0.8,1l-3.9,0.9l0,8.3h0.2l1.3-0.2h0.1
			c0.6,0,1,0.4,1,1l-0.1,3.5c0,0.5-0.3,0.9-0.8,1l-1.7,0.3l0.2,11.1h2.7c0.3,0,0.5,0.1,0.7,0.3c0.2,0.2,0.3,0.4,0.3,0.7v1
			c0,0.4-0.3,0.8-0.7,0.9l-2.1,0.7c-0.1,0-0.2,0.1-0.3,0.1h-0.5l0.2,14.5c0,0.3-0.1,0.5-0.3,0.7c-0.2,0.2-0.4,0.3-0.7,0.3L244.8,163
			z"/>
		<path class="st1" d="M247.5,113.3v3.5l4.7-1.1v1.1l-4.7,1.1l-0.1,12.2l1.3-0.1v-2l1.3-0.2l-0.1,3.5l-2.5,0.5l0.3,13l3.7,0v1
			l-2.1,0.7l-1.5,0.1l0.2,15.5h-3.2l0.4-15.5l-1.4,0.1l0.1-1.4l1.4-0.3l0.6-23.3l-0.6-0.6l0.2-2.4l-3.5,0.7v-1l3.8-1.1l0.2-3.6
			L247.5,113.3 M250.1,127.9L250.1,127.9 M247.5,111.3h-0.3l-1.6,0.2c-0.9,0.1-1.6,0.9-1.7,1.8l-0.1,2.2l-2.4,0.7
			c-0.9,0.2-1.4,1-1.4,1.9v1c0,0.6,0.3,1.2,0.7,1.6c0.4,0.3,0.8,0.4,1.3,0.4c0.1,0,0.3,0,0.4,0l0.9-0.2c0,0.5,0.2,1,0.6,1.3l0,0
			l-0.6,20.9c-0.9,0.2-1.5,1-1.5,1.9l-0.1,1.4c0,0.6,0.2,1.1,0.6,1.5c0.2,0.2,0.5,0.4,0.8,0.5l-0.4,13.5c0,1.1,0.9,2,2,2h3.2
			c1.1,0,2-0.9,2-2l-0.2-13.6h0.1l2.1-0.7c0.8-0.3,1.3-1,1.4-1.9v-1c0-1.1-0.9-2-2-2l0,0h-1.7l-0.2-9.3l0.9-0.2
			c0.9-0.2,1.6-1,1.6-1.9l0.1-3.4c0,0,0-0.1,0-0.2c0-1.1-0.9-2-2-2H250h-0.3h-0.3l0.1-6.4l3.2-0.8c0.9-0.2,1.5-0.9,1.6-1.8v-1.1
			c0-0.6-0.3-1.2-0.8-1.6c-0.4-0.3-0.8-0.4-1.2-0.4c-0.1,0-0.3,0-0.4,0l-2.3,0.5v-1C249.5,112.2,248.6,111.3,247.5,111.3
			L247.5,111.3z"/>
		<line class="st3" x1="250.2" y1="147.9" x2="264.2" y2="160"/>
		<path class="st6" d="M218.1,168.3c-0.5,0-0.9-0.3-1-0.7l-0.9-3.1c-0.2-0.5,0.1-1.1,0.7-1.2c0,0,0.1,0,0.1,0l28.6-4.1h0.1
			c0.6,0,1,0.4,1,1v4.1c0,0.5-0.4,0.9-0.9,1L218.1,168.3L218.1,168.3z"/>
		<path class="st1" d="M245.8,160v4.1l-27.7,3.2l-0.9-3.2L245.8,160 M245.8,158c-0.1,0-0.2,0-0.3,0l-28.6,4.2
			c-0.6,0.1-1.1,0.4-1.4,0.9c-0.3,0.5-0.4,1.1-0.2,1.6l0.9,3.1c0.2,0.9,1,1.4,1.9,1.4h0.2l27.7-3.1c1-0.1,1.8-1,1.8-2V160
			C247.8,158.9,246.9,158,245.8,158z"/>
		<path class="st2" d="M245.8,165.1c-0.6,0-1-0.4-1-1V160c0-0.6,0.4-1,1-1l26.7-1.1c0.3,0,0.6,0.1,0.8,0.4l5,6.2
			c0.3,0.4,0.3,1.1-0.2,1.4c-0.2,0.1-0.4,0.2-0.6,0.2L245.8,165.1z"/>
		<path class="st1" d="M272.4,158.9l5,6.2l-31.6-1V160L272.4,158.9 M272.5,156.9L272.5,156.9l-26.7,1.1c-1.1,0-1.9,0.9-1.9,2v4.1
			c0,1.1,0.9,2,1.9,2l31.6,1h0.1c0.8,0,1.5-0.4,1.8-1.1c0.3-0.7,0.3-1.5-0.2-2.1l-5-6.2C273.6,157.2,273.1,156.9,272.5,156.9
			L272.5,156.9z"/>
		<path class="st4" d="M120.9,112.8c-0.3,0-0.5-0.1-0.8-0.2c-1.3-0.2-2.6-0.3-3.9-0.3c-2.3,0-2.9-0.1-3.3-0.6
			c-0.2-0.2-0.3-0.5-0.2-0.8c0-0.3-0.3-3.4-0.6-6.1c0-0.3,0.1-0.6,0.3-0.8c0.2-0.2,0.4-0.3,0.7-0.3h0.1c0.1,0,5.7,0.6,8.5,0.7
			c2.4,0.1,3.8,0.7,4.2,1.9c0.1,0.5,0.2,1.4-1.1,2.2c-0.6,0.6-1.1,1.3-1.5,2.1C122.6,111.7,122,112.8,120.9,112.8L120.9,112.8z"/>
		<path class="st1" d="M113.2,104.6c0,0,5.7,0.6,8.6,0.7s4.2,1.2,2.6,2.3c-1.6,1.1-2.3,4.1-3.3,4.1c-0.1,0-0.2,0-0.3-0.1
			c-1.1-0.6-7-0.3-6.9-0.7C113.8,110.6,113.2,104.6,113.2,104.6 M113.2,102.6c-0.5,0-1,0.2-1.4,0.6c-0.4,0.4-0.6,1-0.6,1.6
			c0.3,2.5,0.6,5.5,0.6,6c0,0.5,0.1,1,0.5,1.4c0.7,0.9,1.5,0.9,4,0.9c1.2,0,2.4,0.1,3.5,0.2c0.4,0.2,0.8,0.3,1.2,0.3
			c1.7,0,2.5-1.5,3.2-2.7c0.3-0.6,0.7-1.2,1.2-1.7c1.2-0.7,1.8-2,1.5-3.4c-0.5-1.6-2.3-2.5-5.1-2.6s-8.3-0.7-8.4-0.7L113.2,102.6z"
			/>
		<path class="st3" d="M111.6,100.9c1.6,7,4,37.7-1.6,50.1"/>
		<path class="st6" d="M109.9,151.9c-0.1,0-0.3,0-0.4-0.1l-1.9-0.8c-0.4-0.2-0.7-0.6-0.6-1c0-0.6,0-7.1,0-11.9l-4.8-1.8
			c-0.4-0.1-0.6-0.5-0.7-0.9v-1.1c0-0.6,0.4-1,1-1h4.7l-0.2-13.2l-2.7-1.8c-0.3-0.2-0.4-0.5-0.4-0.8v-3.6c0-0.6,0.4-1,1-1h1.8
			l-0.1-8.7l-1.6,0.9c-0.3,0.2-0.7,0.2-1,0c-0.3-0.2-0.5-0.4-0.5-0.8l-0.1-1.1c0-0.4,0.2-0.8,0.5-1l2.6-1.3v-3.7
			c0-0.4,0.2-0.7,0.5-0.9l2.3-1.2c0.1-0.1,0.3-0.1,0.5-0.1c0.6,0,1,0.4,1,1v1.9c0,0.4-0.2,0.7-0.5,0.9l-1,0.5v0.3l1.8-1
			c0.1-0.1,0.3-0.1,0.5-0.1c0.6,0,1,0.4,1,1v1.5c0,0.4-0.2,0.8-0.6,0.9l-2.5,1l1.1,30.4h0.6c0.3,0,0.5,0.1,0.7,0.3
			c0.2,0.2,0.3,0.4,0.3,0.7v1.8c0,0.5-0.4,1-0.9,1h-0.6l0.3,13.9c0,0.3-0.2,0.7-0.4,0.8C110.3,151.8,110.1,151.9,109.9,151.9z"/>
		<path class="st1" d="M109.8,95.9v1.9l-1.5,0.8l-0.1,2.7l3.3-1.9v1.5l-3.1,1.3l1.2,32.1h1.5v1.8l-1.5,0.1l0.3,14.9l-1.9-0.8
			c0-0.2,0-12.7,0-12.7l-5.4-2v-1.2h5.7l-0.2-14.8l-3.1-2.1v-3.6h1.9l-0.1,3.3l1.1-0.2l-0.2-14.4l-3.1,1.6l-0.1-1.1l3-1.6v-4.3
			L109.8,95.9 M109.8,93.9c-0.3,0-0.6,0.1-0.9,0.2l-2.3,1.2c-0.6,0.3-1,1-1.1,1.8v3.1l-2,1c-0.7,0.4-1.2,1.2-1.1,2l0.1,1.1
			c0.1,0.7,0.5,1.3,1.1,1.6c0.3,0.2,0.6,0.2,0.9,0.2c0.3,0,0.7-0.1,1-0.2l0.2-0.1l0.1,6H105c-1.1,0-2,0.9-2,2v3.6
			c0,0.7,0.3,1.3,0.9,1.7l2.3,1.5l0.2,11.7h-3.7c-1.1,0-2,0.9-2,2v1.2c0,0.8,0.5,1.6,1.3,1.9l4.1,1.5c0,4.5,0,10.5,0,11.1
			c-0.1,0.9,0.4,1.7,1.2,2l1.9,0.8c0.2,0.1,0.5,0.2,0.8,0.2c0.4,0,0.8-0.1,1.1-0.4c0.6-0.4,0.9-1,0.9-1.7l-0.3-13
			c0.9-0.2,1.5-1,1.5-1.9v-1.8c0-0.5-0.2-1.1-0.6-1.4c-0.3-0.3-0.6-0.5-1-0.5l-1.1-28.8l1.9-0.8c0.7-0.3,1.2-1,1.2-1.8v-1.5
			c0-0.7-0.4-1.4-1-1.7c-0.2-0.1-0.5-0.2-0.8-0.3v-1.5C111.8,94.8,110.9,93.9,109.8,93.9L109.8,93.9z"/>
		<path class="st0" d="M120.4,185.6c-0.6,0-1-0.4-1-1l-0.4-24.5c0-0.3,0.1-0.5,0.3-0.7c0.2-0.2,0.4-0.3,0.7-0.3h25c0.6,0,1,0.4,1,1
			c0,0.1,0,0.2,0,0.3l-4.4,13.9l-1.6,10.8c-0.1,0.5-0.5,0.9-1,0.9L120.4,185.6z"/>
		<path class="st1" d="M145.1,160.1l-4.5,14L139,185l-18.6-0.4l-0.4-24.5L145.1,160.1 M145,158.1h-25c-0.5,0-1.1,0.2-1.4,0.6
			c-0.4,0.4-0.6,0.9-0.6,1.4l0.4,24.5c0,1.1,0.9,2,1.9,2L139,187l0,0c1,0,1.9-0.7,2-1.7l1.6-10.8l4.4-13.8c0.3-1.1-0.3-2.2-1.3-2.5
			C145.5,158.1,145.3,158.1,145,158.1L145,158.1z M145,162.1L145,162.1z"/>
		<path class="st6" d="M90.7,166.2h-0.2l-16.6-3.3c-0.4-0.1-0.7-0.4-0.8-0.9c0-0.4,0.2-0.8,0.6-1l15.2-7c0.1-0.1,0.3-0.1,0.4-0.1
			h35.2l28,3.8c0.6,0,1,0.4,1,1s-0.4,1-1,1l-30.7,6h-0.2L90.7,166.2z"/>
		<path class="st1" d="M124.3,154.9l28,3.8l-30.7,6l-30.9,0.6l-16.6-3.3l15.2-7.1H124.3 M124.3,152.9h-35c-0.3,0-0.6,0.1-0.8,0.2
			l-15.2,7.1c-1,0.5-1.4,1.7-1,2.7c0.3,0.6,0.8,1,1.4,1.1l16.7,3.3c0.1,0,0.3,0,0.4,0l0,0l30.9-0.6c0.1,0,0.2,0,0.3,0l30.7-6
			c1.1-0.2,1.8-1.3,1.6-2.4c-0.2-0.8-0.8-1.5-1.7-1.6l-28-3.8L124.3,152.9L124.3,152.9z"/>
		<path class="st6" d="M121.5,188.5l-36.1-3.1c-0.6,0-1-0.5-0.9-1.1c0-0.1,0-0.2,0.1-0.2l2.6-7.5L79.7,159c-0.1-0.3-0.1-0.6,0-0.9
			c0.1-0.3,0.4-0.5,0.7-0.5l8.7-1.9h0.2l20.5-1.3l12.9,1c0.5,0,0.9,0.5,0.9,1l0.8,27.7c0,0.2,0,0.3-0.1,0.5l-1.7,3.3
			c-0.2,0.3-0.5,0.5-0.9,0.6L121.5,188.5z"/>
		<path class="st1" d="M109.8,155.4l12.8,1l0.8,27.7l-1.7,3.4l-36.1-3.1l2.7-7.9l-7.6-17.9l8.7-1.9L109.8,155.4 M109.8,153.4h-0.1
			l-20.4,1.3c-0.1,0-0.2,0-0.3,0l-8.7,1.9c-1.1,0.2-1.8,1.3-1.5,2.4c0,0.1,0.1,0.2,0.1,0.4l7.3,17.2l-2.5,7.2
			c-0.4,1,0.2,2.2,1.2,2.5c0.2,0.1,0.3,0.1,0.5,0.1l36.1,3.1h0.2c0.8,0,1.4-0.4,1.8-1.1l1.7-3.4c0.2-0.3,0.2-0.7,0.2-1l-0.8-27.7
			c0-1-0.8-1.9-1.8-1.9l-12.8-1L109.8,153.4z"/>
		<path class="st2" d="M141.4,188c-0.1,0-0.2,0-0.3,0c-0.4-0.1-6.1-0.8-9.6-1.3c-0.5-0.1-0.9-0.5-0.9-1l0.9-29.2
			c0-0.3,0.1-0.5,0.3-0.7c0.2-0.2,0.4-0.3,0.7-0.3l12.9,0.6c0.3,0,0.6,0.2,0.7,0.4c0.2,0.2,0.2,0.5,0.2,0.8l-3.6,17.6
			C142.6,188,142.6,188,141.4,188z"/>
		<path class="st1" d="M132.4,156.5l12.8,0.6l-3.6,17.8c0,0,0,12.1-0.3,12.1l0,0c-0.2-0.1-9.9-1.3-9.9-1.3L132.4,156.5 M132.4,154.5
			c-0.5,0-1,0.2-1.4,0.5c-0.4,0.4-0.6,0.9-0.6,1.4l-0.9,29.2c0,1,0.7,1.9,1.7,2c3.4,0.4,9,1.2,9.6,1.3c0.1,0,0.3,0,0.4,0
			c2,0,2.1-1.9,2.1-3.8c0-1,0.1-2.4,0.1-4.2c0-2.6,0-5.2,0-5.9l3.6-17.5c0.1-0.6,0-1.2-0.4-1.6c-0.4-0.5-0.9-0.7-1.5-0.8
			L132.4,154.5L132.4,154.5z"/>
		<path class="st7" d="M99.1,175c-0.4,0-0.8-0.3-0.9-0.6l-4.3-11c-0.1-0.3-0.1-0.6,0.1-0.9c0.2-0.3,0.5-0.4,0.8-0.4l13.5-0.4
			c0.4,0,0.8,0.3,0.9,0.7l4,11.2c0.1,0.3,0.1,0.6-0.1,0.9c-0.2,0.3-0.5,0.4-0.8,0.4L99.1,175z"/>
		<path class="st1" d="M108.2,162.6l4,11.2L99,174l-4.3-11L108.2,162.6 M108.2,160.6L108.2,160.6L94.7,161c-0.7,0-1.3,0.4-1.6,0.9
			c-0.4,0.5-0.4,1.2-0.2,1.8l4.3,11c0.3,0.8,1,1.3,1.9,1.3l0,0l13.2-0.2c0.6,0,1.2-0.3,1.6-0.9c0.4-0.5,0.5-1.2,0.2-1.8l-4-11.2
			C109.8,161.2,109.1,160.7,108.2,160.6L108.2,160.6z"/>
		<path class="st7" d="M90.8,175.6c-0.4,0-0.8-0.2-0.9-0.6l-4.4-10.3c-0.1-0.3-0.1-0.6,0-0.9c0.1-0.3,0.4-0.4,0.7-0.5l3.7-0.7h0.2
			c0.4,0,0.8,0.2,0.9,0.6l4.3,10.6c0.2,0.5,0,1.1-0.6,1.3c-0.1,0-0.2,0.1-0.4,0.1c-0.2,0-2,0.2-3.5,0.4L90.8,175.6z"/>
		<path class="st1" d="M90.1,163.6l4.3,10.7c-0.4,0-3.6,0.4-3.6,0.4l-4.3-10.3L90.1,163.6 M90.2,161.6c-0.1,0-0.3,0-0.4,0l-3.7,0.7
			c-0.6,0.1-1.1,0.5-1.4,1c-0.3,0.5-0.3,1.2-0.1,1.7l4.3,10.3c0.3,0.7,1,1.2,1.8,1.2h0.2c1.4-0.2,3.1-0.4,3.4-0.4
			c0.7,0,1.3-0.3,1.6-0.9c0.4-0.6,0.4-1.3,0.2-1.9L92,162.9C91.7,162.1,91,161.6,90.2,161.6L90.2,161.6z"/>
		<path class="st7" d="M117.1,175.1c-0.4,0-0.8-0.3-0.9-0.7l-4.2-11.8c-0.1-0.3-0.1-0.7,0.1-0.9c0.2-0.3,0.5-0.4,0.8-0.4l7.3,0.3
			c0.6,0,1,0.4,1,1l0.4,11.6c0,0.3-0.1,0.5-0.3,0.7c-0.2,0.2-0.4,0.3-0.7,0.3L117.1,175.1z"/>
		<path class="st1" d="M112.9,162.3l7.3,0.3l0.4,11.6l-3.6-0.1L112.9,162.3 M112.9,160.3c-1.1,0-2,0.9-2,2c0,0.2,0,0.5,0.1,0.7
			l4.2,11.8c0.3,0.8,1,1.3,1.8,1.3l3.6,0.1h0.1c1.1,0,2-0.9,2-2c0,0,0-0.1,0-0.1l-0.4-11.6c0-1-0.9-1.9-1.9-1.9L112.9,160.3
			L112.9,160.3z"/>
		<path class="st7" d="M135,175.2c-0.3,0-0.5-0.1-0.7-0.3c-0.2-0.2-0.3-0.5-0.3-0.7l0.5-11.1c0-0.6,0.4-1,1-1l5.2,0.1
			c0.3,0,0.6,0.1,0.8,0.4c0.2,0.2,0.3,0.5,0.2,0.8l-2.1,11.1c-0.1,0.5-0.5,0.8-1,0.8H135z"/>
		<path class="st1" d="M135.5,163.1l5.2,0.1l-2.1,11.1h-3.5L135.5,163.1 M135.5,161.1c-1.1,0-2,0.8-2,1.9l-0.4,11.1
			c0,1.1,0.8,2,1.9,2.1c0,0,0.1,0,0.1,0h3.5c1,0,1.8-0.7,2-1.6l2.1-11.1c0.2-1.1-0.5-2.1-1.6-2.3c-0.1,0-0.3,0-0.4,0L135.5,161.1z"
			/>
		<path class="st0" d="M159.9,186.3c-0.3,0-0.5-0.1-0.7-0.4c-0.2-0.2-0.3-0.5-0.2-0.8l3.1-22.1l-1.1-3.4c-0.2-0.5,0.1-1.1,0.7-1.3
			c0.1,0,0.2-0.1,0.3,0l18.7,1c0.3,0,0.6,0.2,0.8,0.4c0.2,0.2,0.2,0.6,0.2,0.8l-0.8,3l4.4,22.3c0.1,0.3,0,0.6-0.2,0.8
			c-0.2,0.2-0.5,0.4-0.8,0.4L159.9,186.3z"/>
		<path class="st1" d="M162,159.3l18.6,1l-0.9,3.2l4.4,22.5l-24.2-0.7l3.1-22.3L162,159.3 M162,157.3c-1.1,0-2,0.9-2,2
			c0,0.2,0,0.4,0.1,0.6l1,3.2L158,185c-0.1,0.6,0.1,1.1,0.4,1.6c0.4,0.4,0.9,0.7,1.5,0.7l24.2,0.7h0.1c1.1,0,2-0.9,2-2
			c0-0.1,0-0.3,0-0.4l-4.4-22l0.7-2.8c0.2-0.6,0-1.2-0.3-1.7c-0.4-0.5-0.9-0.8-1.5-0.8L162,157.3L162,157.3z"/>
		<path class="st7" d="M156.4,187c-0.3,0-0.5-0.1-0.7-0.3c-0.3-0.2-0.4-0.6-0.3-0.9l4.3-22.5l-1.2-2.6c-0.1-0.3-0.1-0.5,0-0.8
			c0.1-0.2,0.3-0.4,0.6-0.5l2.5-1c0.1,0,0.2-0.1,0.4-0.1c0.3,0,0.5,0.1,0.7,0.3l2.4,2.4c0.2,0.2,0.3,0.5,0.3,0.8l-1.4,22.6
			c0,0.4-0.3,0.8-0.8,0.9l-6.6,1.7C156.5,187,156.5,187,156.4,187z"/>
		<path class="st1" d="M162,159.3l2.4,2.4l-1.4,22.6l-6.6,1.7l4.3-22.9l-1.2-2.9L162,159.3 M162,157.3c-0.3,0-0.5,0-0.7,0.1l-2.5,1
			c-0.5,0.2-0.9,0.6-1.1,1.1c-0.2,0.5-0.2,1.1,0,1.6l1,2.3l-4.2,22.2c-0.2,1.1,0.5,2.1,1.6,2.3c0.1,0,0.3,0,0.4,0
			c0.2,0,0.3,0,0.5-0.1l6.6-1.7c0.8-0.2,1.4-0.9,1.5-1.8l1.4-22.6c0-0.6-0.2-1.1-0.6-1.5l-2.4-2.4C163,157.5,162.5,157.3,162,157.3
			L162,157.3z"/>
		<path class="st1" d="M28.6,203.9l3.6,4.3l-21.3,31.2l-1.4-2.8L28.6,203.9 M28.6,201.9h-0.1c-0.7,0.1-1.2,0.4-1.6,1L7.8,235.6
			c-0.3,0.6-0.3,1.3,0,1.9l1.4,2.8c0.3,0.6,1,1,1.6,1.1H11c0.7,0,1.3-0.3,1.6-0.9l21.3-31.2c0.5-0.7,0.4-1.7-0.1-2.4l-3.6-4.3
			C29.8,202.1,29.3,201.9,28.6,201.9L28.6,201.9z"/>
		<path class="st2" d="M36.9,249.5c-0.6,0-1-0.4-1-1l0.2-32.8h-5.3c-0.6,0-1-0.4-1-1v-14.6c0-0.6,0.4-1,1-1h10.5
			c0.3,0,0.5,0.1,0.7,0.3l4.1,3.9c0.2,0.2,0.3,0.4,0.3,0.7l1,44.5c0,0.3-0.1,0.5-0.3,0.7c-0.2,0.2-0.4,0.3-0.7,0.3L36.9,249.5z"/>
		<path class="st1" d="M41.3,200.1l4.1,3.9l1,44.5h-9.5l0.2-33.8h-6.3v-14.6H41.3 M41.3,198.1H30.8c-1.1,0-2,0.9-2,2v14.6
			c0,1.1,0.9,2,2,2h4.3l-0.2,31.8c0,0.5,0.2,1,0.6,1.4c0.4,0.4,0.9,0.6,1.4,0.6h9.5c0.5,0,1.1-0.2,1.4-0.6c0.4-0.4,0.6-0.9,0.6-1.4
			l-1-44.5c0-0.5-0.2-1-0.6-1.4l-4.1-3.9C42.3,198.3,41.8,198.1,41.3,198.1L41.3,198.1z"/>
		<path class="st6" d="M34.7,249.7c-0.5,0-1.6,0-1.8-0.9c0-0.2-0.1-0.5,0.5-32.1c0-0.6,0.4-1,1-1h2.7c0.3,0,0.5,0.1,0.7,0.3
			c0.2,0.2,0.3,0.4,0.3,0.7l-0.2,31.9c0,0.5-0.4,0.9-0.9,1C36.2,249.6,35.5,249.7,34.7,249.7L34.7,249.7z"/>
		<path class="st1" d="M37.1,216.7L37.1,216.7 M37.1,216.7l-0.2,31.8c-0.7,0.1-1.5,0.2-2.2,0.2c-0.4,0-0.8,0-0.8-0.2
			c-0.1-0.4,0.5-31.8,0.5-31.8H37.1 M37.1,214.7h-2.7c-1.1,0-2,0.9-2,2c-0.6,31.7-0.5,32-0.4,32.4c0.2,0.8,0.8,1.7,2.8,1.7
			c0.8,0,1.6-0.1,2.5-0.2c1-0.1,1.7-1,1.7-2l0.2-31.8v-0.1C39.1,215.6,38.2,214.7,37.1,214.7L37.1,214.7z"/>
		<path class="st7" d="M30.5,210c-2.2-0.3-3.8-2.4-3.5-4.7c0.3-1.8,1.7-3.2,3.5-3.5c0.9,0,1.8,0.4,2.4,1.1c0.2,0.2,0.3,0.4,0.3,0.7
			v4.6c0,0.3-0.1,0.5-0.3,0.7C32.3,209.6,31.4,210,30.5,210z"/>
		<path class="st1" d="M30.5,202.9c0.6,0,1.2,0.3,1.7,0.8v4.6c-0.4,0.5-1,0.8-1.7,0.8c-1.7-0.3-2.8-2-2.5-3.7
			C28.3,204.1,29.2,203.1,30.5,202.9 M30.5,200.9c-2.8,0.3-4.8,2.9-4.5,5.7c0.3,2.3,2.1,4.2,4.5,4.5c1.2,0,2.3-0.5,3.1-1.4
			c0.3-0.4,0.5-0.9,0.5-1.4v-4.6c0-0.5-0.2-1-0.5-1.4C32.8,201.4,31.7,200.9,30.5,200.9z"/>
		<path class="st7" d="M7.5,243.1c-0.2,0-0.5-0.1-0.6-0.2L6,242.1c-0.4-0.3-0.5-0.9-0.2-1.3l1.1-1.7l-0.1-0.9c0-0.2,0-0.5,0.2-0.7
			c0,0,0.5-0.7,1-1.4c0.5-0.7,1.4-1,2.2-1c0.8,0,1.6,0.4,2.1,1c1.3,1.4,0.4,3.8-0.1,4.4c-1.5,2-2.1,2-2.4,2H9.7
			c-0.3,0-0.5-0.1-0.8-0.3l-0.9,0.7C7.9,243,7.7,243.1,7.5,243.1z"/>
		<path class="st1" d="M10.2,236.1c0.5,0,1,0.2,1.4,0.6c0.9,1,0,2.9-0.2,3.1s-1.3,1.6-1.6,1.6l0,0c-0.3,0-0.8-0.6-0.8-0.6l-1.5,1.2
			l-0.8-0.7c0,0,1.2-1.8,1.3-1.9l-0.1-1.3c0,0,0.5-0.7,1-1.4C9.2,236.3,9.7,236.1,10.2,236.1 M10.3,234.1c-1.2,0-2.3,0.5-3,1.4
			c-0.5,0.7-1,1.5-1,1.5c-0.3,0.4-0.4,0.9-0.3,1.3l0.1,0.6l-0.9,1.4c-0.6,0.8-0.5,1.9,0.3,2.6l0.8,0.7c0.4,0.3,0.8,0.5,1.3,0.5
			c0.4,0,0.9-0.1,1.2-0.4l0.4-0.3c0.2,0.1,0.3,0.1,0.5,0.1h0.2c0.9,0,1.7-0.4,3.2-2.4c0.7-1,1.8-3.8,0.1-5.6
			C12.4,234.5,11.3,234.1,10.3,234.1L10.3,234.1z"/>
		<polyline class="st5" points="67.4,189.7 112.7,193.3 129,192.7 111.8,188.3 		"/>
		<path class="st0" d="M194.2,188.6c-0.6,0-1-0.4-1-1c0,0,0-0.1,0-0.1l3.4-32.1l-1.4-4.2c-0.1-0.3-0.1-0.7,0.1-0.9
			c0.2-0.3,0.5-0.4,0.8-0.4l20.4,0.9c0.3,0,0.6,0.1,0.7,0.4c0.2,0.2,0.3,0.5,0.2,0.8l-0.8,4.8l7.4,30.6c0.1,0.3,0,0.6-0.2,0.9
			c-0.2,0.2-0.5,0.4-0.8,0.4L194.2,188.6z"/>
		<path class="st1" d="M196.1,150.9l20.3,0.9l-0.8,5l7.4,30.8h-28.9l3.5-32.3L196.1,150.9 M196.1,148.9c-0.6,0-1.2,0.3-1.6,0.8
			c-0.4,0.5-0.5,1.2-0.3,1.8l1.3,4l-3.4,31.9c-0.1,1.1,0.7,2.1,1.8,2.2c0.1,0,0.1,0,0.2,0H223c0.6,0,1.2-0.3,1.6-0.8
			c0.4-0.5,0.5-1.1,0.4-1.7l-7.3-30.4l0.8-4.7c0.1-0.6-0.1-1.1-0.4-1.6c-0.4-0.4-0.9-0.7-1.5-0.7l-20.3-0.9L196.1,148.9z"/>
		<path class="st7" d="M189.9,187.4c-0.3,0-0.5-0.1-0.7-0.3c-0.2-0.2-0.3-0.5-0.2-0.8l4.6-30.6l-1.4-3.6c-0.1-0.3-0.1-0.6,0-0.8
			c0.1-0.3,0.4-0.4,0.6-0.5l3.1-0.8h0.3c0.3,0,0.6,0.1,0.8,0.4l3.3,4c0.2,0.2,0.2,0.5,0.2,0.7l-2.1,31c0,0.5-0.4,0.9-0.9,0.9
			L189.9,187.4z"/>
		<path class="st1" d="M196.1,150.9l3.4,3.9l-2.2,31l-7.4,0.5l4.7-30.8l-1.5-3.8L196.1,150.9 M196.1,148.9c-0.2,0-0.4,0-0.5,0.1
			l-3.1,0.8c-0.5,0.1-1,0.5-1.3,1c-0.3,0.5-0.3,1.1-0.1,1.6l1.3,3.3L188,186c-0.1,0.6,0.1,1.2,0.5,1.7c0.4,0.4,0.9,0.6,1.5,0.7h0.1
			l7.4-0.5c1-0.1,1.8-0.9,1.9-1.9l2.2-31c0-0.5-0.1-1-0.5-1.4l-3.3-4C197.3,149.1,196.7,148.8,196.1,148.9L196.1,148.9z"/>
		<path class="st6" d="M67.4,190.7c-0.3,0-0.6-0.1-0.8-0.4c-0.2-0.3-0.3-0.6-0.2-0.9l1.3-4c0.1-0.3,0.3-0.5,0.5-0.6
			c0.4-0.2,4.3-1.7,32.3-1.7c4.2,0,8.8,0,13.8,0.1c0.4,0,0.7,0.2,0.9,0.5c0.2,0.3,0.2,0.7,0,1l-2.4,4c-0.2,0.3-0.5,0.5-0.8,0.5
			C111.6,189.3,91.7,189.4,67.4,190.7L67.4,190.7z"/>
		<path class="st1" d="M100.5,184.2c4,0,8.6,0,13.7,0.1l-2.4,4c0,0-19.9,0.1-44.4,1.4l1.2-4C68.6,185.7,71.9,184.1,100.5,184.2
			 M100.5,182.1L100.5,182.1c-21.4,0-30.9,0.9-32.7,1.8c-0.5,0.2-0.8,0.7-1,1.2l-1.3,4c-0.3,1.1,0.2,2.2,1.3,2.5
			c0.2,0.1,0.4,0.1,0.6,0.1h0.1c24.2-1.3,44.1-1.4,44.3-1.4c0.7,0,1.3-0.4,1.7-1l2.4-4c0.6-1,0.2-2.2-0.7-2.7
			c-0.3-0.2-0.6-0.3-0.9-0.3C109.4,182.2,104.7,182.2,100.5,182.1L100.5,182.1z"/>
		<path class="st6" d="M57.2,265.1c-23.9,0-36-5.3-36.5-5.5c-0.4-0.2-0.6-0.5-0.6-0.9v-6.5c0-0.6,0.4-1,1-1h0.8v-3.9
			c0-0.6,0.4-1,1-1c0.1,0,0.2,0,0.3,0c1.2,0.3,9.1,0.5,19.6,0.5c9.3,0,15.8-0.2,16.7-0.3c1-0.2,2-0.3,3-0.2c1.3,0,3.1,0,5.1,0.1
			c2.6,0,5.5,0.1,8.4,0.1h2.9c3.2-0.5,28.3-4.1,30.1-4.1h0.1c2.9,0,103-4.8,162.7-7.7c28.6-1.4,49.3-2.4,50.7-2.4
			c1.3-0.1,2.8-0.1,4.7-0.1c3.2,0,6.1,0.1,6.1,0.1c0.6,0,1,0.4,1,1v5.2c0,0.4-0.2,0.7-0.5,0.9c-2.3,1.2-4.7,2.2-7.2,3
			c-0.8,0.2-0.8,0.4-0.6,1.4c0.1,0.7,0.4,2.2-1,2.6c-1.4,0.5-8.7,1.9-45,4.9c-34.4,2.9-183.5,12-214.5,13.5
			C62.8,265.1,59.9,265.1,57.2,265.1z"/>
		<path class="st1" d="M327.3,233.2c3.2,0,6.1,0.1,6.1,0.1v5.2c-2.3,1.2-4.6,2.1-7,2.9c-2.9,0.8-0.2,3.6-1.6,4.1
			c-1.5,0.5-9.6,2-44.8,4.9c-35.2,2.9-185,12-214.5,13.5c-2.9,0.1-5.7,0.2-8.3,0.2c-24,0-36.1-5.4-36.1-5.4v-6.5h1.8v-4.9
			c1.5,0.4,10.9,0.6,19.9,0.6c8.5,0,16.6-0.1,17.1-0.4c0.9-0.2,1.8-0.2,2.7-0.2c3.1,0,8.3,0.2,13.5,0.2c1,0,2,0,3,0
			c0,0,28.2-4.1,30-4.1h0.1c4.1,0,209.2-9.9,213.4-10.1C324,233.3,325.7,233.3,327.3,233.2 M327.3,231.3c-1.9,0-3.5,0-4.7,0.1
			c-1.3,0.1-21.8,1-50.1,2.4c-59.7,2.9-159.4,7.6-163.2,7.7H109c-1.9,0-25.2,3.4-30.2,4.1H76c-2.9,0-5.8-0.1-8.4-0.1
			c-2,0-3.8-0.1-5.1-0.1c-1.1-0.1-2.2,0-3.3,0.3c-1.2,0.1-7.7,0.3-16.5,0.3c-11.4,0-18.4-0.2-19.4-0.5c-1.1-0.3-2.2,0.4-2.4,1.4
			c0,0.2-0.1,0.3-0.1,0.5v2.9c-1,0.1-1.8,1-1.8,2v6.5c0,0.8,0.5,1.5,1.2,1.8c0.5,0.2,12.8,5.6,37,5.6c2.8,0,5.6-0.1,8.4-0.2
			c31-1.5,180.2-10.7,214.5-13.5c36.5-3,43.8-4.5,45.2-5c1-0.4,2.2-1.3,1.7-3.8c0-0.1,0-0.2-0.1-0.3c2.5-0.8,5-1.8,7.3-3.1
			c0.7-0.3,1.1-1,1.1-1.8v-5.2c0-1.1-0.9-2-2-2C333.4,231.3,330.4,231.2,327.3,231.3L327.3,231.3z"/>
		<path class="st2" d="M82.2,248.4c-0.3,0-0.5-0.1-0.7-0.3c-0.2-0.2-0.3-0.4-0.3-0.7l-0.3-35.8h-2.5c-0.1,0-0.1,0-0.2,0l-3-0.7
			c-0.5-0.1-0.8-0.5-0.8-1l0.2-15c0-0.6,0.4-1,1-1h14.9c0.6,0,1,0.4,1,1c0,0,0.7,12.9,1.4,25.8c1.4,26.3,1.4,26.3,1,26.7
			c-0.2,0.2-0.4,0.3-0.7,0.3L82.2,248.4z"/>
		<path class="st1" d="M90.5,195.1c0,0,2.8,51.8,2.7,51.8l-11,0.6l-0.3-36.7h-3.4l-3-0.6l0.2-15L90.5,195.1 M90.5,193H75.6
			c-1.1,0-2,0.9-2,2l-0.2,15c0,1,0.6,1.8,1.6,2l3,0.7c0.1,0,0.3,0,0.4,0h1.5l0.3,34.8c0,1.1,0.9,2,2,2h0.1l11-0.6
			c0.5,0,1-0.2,1.4-0.6c0.6-0.6,0.6-0.6,0.5-3.7c-0.1-1.4-0.2-3.5-0.3-5.9c-0.2-4.9-0.6-11.3-0.9-17.8c-0.7-12.9-1.4-25.8-1.4-25.8
			C92.5,193.9,91.6,193.1,90.5,193L90.5,193z"/>
		<path class="st6" d="M78.8,248.4c-0.6,0-1-0.4-1-1l-0.3-34.9c0-0.6,0.4-1,1-1H82c0.6,0,1,0.4,1,1l0.9,34.9c0,0.3-0.1,0.5-0.3,0.7
			c-0.2,0.2-0.4,0.3-0.7,0.3L78.8,248.4z"/>
		<path class="st1" d="M82,212.6l0.9,34.9h-4.2l-0.3-34.9H82 M82,210.6h-3.6c-1.1,0-2,0.9-2,2l0.3,34.9c0,1.1,0.9,2,2,2h4.2
			c1.1,0,2-0.9,2-2c0,0,0,0,0-0.1L84,212.5C84,211.4,83.1,210.5,82,210.6L82,210.6z"/>
		<path class="st1" d="M74.4,198.6l2.2,6l-19.5,36.5l-2.2-2.2L74.4,198.6 M74.4,196.6c-0.8,0-1.5,0.4-1.8,1.1L53.2,238
			c-0.4,0.8-0.2,1.7,0.4,2.3l2.2,2.2c0.4,0.4,0.9,0.6,1.4,0.6h0.3c0.6-0.1,1.2-0.5,1.5-1l19.5-36.5c0.3-0.5,0.3-1.1,0.1-1.6l-2.2-6
			C76,197.2,75.3,196.7,74.4,196.6L74.4,196.6z"/>
		<path class="st7" d="M76,205.7c-1,0-2-0.5-2.7-1.2c-0.9-1.1-1.3-2.6-1-4c0.4-3.1,2.4-3.4,3.2-3.4c0.6,0,1.1,0.1,1.6,0.3
			c0.4,0.2,0.6,0.5,0.6,0.9v6.3c0,0.4-0.2,0.8-0.6,0.9C76.7,205.6,76.4,205.7,76,205.7L76,205.7z"/>
		<path class="st1" d="M75.5,198.1c0.4,0,0.8,0.1,1.2,0.2v6.3c-0.2,0.1-0.4,0.1-0.7,0.1c-1.3,0-3.1-1-2.7-4.1
			C73.6,198.5,74.6,198.1,75.5,198.1 M75.5,196.1c-0.8,0-3.7,0.3-4.2,4.3c-0.3,1.7,0.1,3.4,1.2,4.8c0.9,1,2.2,1.6,3.5,1.6
			c0.5,0,1-0.1,1.4-0.3c0.8-0.3,1.3-1,1.2-1.9v-6.3c0-0.8-0.4-1.5-1.2-1.8C76.9,196.3,76.2,196.1,75.5,196.1z"/>
		<path class="st7" d="M54.5,245.1c-0.2,0-0.5-0.1-0.7-0.2l-1.6-1.3c-0.4-0.3-0.5-1-0.1-1.4l1.6-2c-0.1-1.3,0.3-2.6,1.1-3.6
			c0.6-0.7,1.5-1,2.4-1c0.3,0,0.5,0,0.8,0.1c0.7,0.1,1.4,0.6,1.7,1.2c0.5,1.3,0.4,2.7-0.1,3.9c-0.4,0.9-2.3,1.8-3.2,1.9
			c-0.4,0.5-0.7,1.1-1,1.8c-0.1,0.3-0.4,0.5-0.7,0.6C54.6,245.1,54.6,245.1,54.5,245.1z"/>
		<path class="st1" d="M57.3,236.6c0.2,0,0.4,0,0.6,0c1.9,0.3,1.1,3.3,0.9,3.7c-0.7,0.7-1.6,1.2-2.6,1.4c-0.7,0-1.6,2.4-1.6,2.4
			l-1.6-1.3l1.8-2.2C54.6,239.5,54.9,236.7,57.3,236.6 M57.3,234.7L57.3,234.7c-1.2,0-2.3,0.5-3.2,1.4c-0.9,1.1-1.4,2.4-1.4,3.8
			l-1.3,1.7c-0.7,0.8-0.6,2.1,0.3,2.8l1.6,1.3c0.8,0.7,2.1,0.6,2.8-0.2c0.1-0.2,0.2-0.3,0.3-0.5c0.2-0.4,0.4-0.9,0.6-1.3
			c1.2-0.4,3-1.3,3.5-2.4c0.7-1.5,0.7-3.2,0.1-4.8c-0.5-0.9-1.4-1.6-2.4-1.7C57.9,234.6,57.6,234.6,57.3,234.7L57.3,234.7z"/>
		<path class="st6" d="M79,248.5c-0.3,0-0.6-0.1-0.7-0.3c-0.2-0.2-0.3-0.6-0.2-0.9c0.2-0.9,2-9,3-10.9c0.6-1.1,2.2-1.3,4.2-1.5
			c2.7-0.2,6.1-0.6,7.3-3.2c2.2-5,20.5-47.4,20.7-47.9c0.1-0.4,0.5-0.6,0.9-0.6c3.2-0.2,9.2-0.2,18-0.2c45.5,0,154.6,2.3,170,2.9
			c0.4,0,0.8,0.3,0.9,0.7c0.4,1.2,8.9,28.2,10.8,35.9c0.9,0,2.4-0.1,3.7-0.1c0.9,0,1.7,0,2.6,0.2c0.3,0.1,0.5,0.3,0.7,0.6l4.9,10.9
			c0.1,0.3,0.1,0.6-0.1,0.9c-0.2,0.3-0.5,0.5-0.8,0.5C322.4,235.6,87.3,247.5,79,248.5L79,248.5z"/>
		<path class="st1" d="M132.2,184c46.2,0,155.5,2.3,169.9,2.9c0,0,9.6,30.3,10.9,36.6c0,0,2.5-0.1,4.5-0.1c0.8,0,1.6,0,2.4,0.1
			l4.9,10.9c0,0-237.4,12.1-245.7,13c0,0,2-8.8,2.9-10.6s9.3,0.3,11.6-4.7c2.3-5.1,20.7-47.9,20.7-47.9
			C117.5,184.1,123.8,184,132.2,184 M132.2,182L132.2,182c-8.8,0-14.9,0.1-18.1,0.2c-0.8,0-1.4,0.5-1.7,1.2
			c-0.2,0.4-18.4,42.9-20.7,47.8c-0.9,2-3.3,2.3-6.5,2.6c-2.2,0.2-4.1,0.4-5,2c-1.1,1.9-2.8,9.6-3.1,11.1c-0.1,0.6,0,1.3,0.5,1.8
			c0.4,0.4,0.9,0.7,1.5,0.7h0.2c8.1-1,243.2-12.9,245.6-13c1.1-0.1,2-1,1.9-2.1c0-0.2-0.1-0.5-0.2-0.7l-4.9-10.9
			c-0.3-0.6-0.7-1-1.3-1.1c-0.9-0.2-1.9-0.3-2.8-0.2c-1,0-2,0-2.9,0.1c-2.2-8.7-10.2-34-10.6-35.2c-0.3-0.8-1-1.4-1.8-1.4
			C286.8,184.3,177.8,182.1,132.2,182L132.2,182z"/>
		<path class="st7" d="M133.1,235.2c-2.2,0-3.9-1.8-3.9-3.9v-4.8c0-2.2,1.8-3.9,3.9-3.9l9.9-0.2c2.2,0,4,1.8,4,3.9v4.8
			c0,2.2-1.8,3.9-4,3.9L133.1,235.2z"/>
		<path class="st1" d="M143,223.2c1.6,0,3,1.3,3,2.9v4.8c0,1.6-1.4,2.9-3,2.9l-9.9,0.2c-1.6,0-2.9-1.3-2.9-3v-4.8
			c0-1.6,1.3-2.9,2.9-2.9l0,0L143,223.2 M143,221.2L143,221.2l-9.9,0.2l0,0c-2.7,0-4.9,2.2-4.9,4.9v4.8c0,2.7,2.2,4.9,4.9,4.9
			l9.9-0.2l0,0c2.7,0,4.9-2.2,4.9-4.9v-4.8C148,223.4,145.7,221.2,143,221.2L143,221.2z"/>
		<path class="st7" d="M174.2,234.1c-2.4,0-3.9-1.3-3.9-3.3v-5.2c0-2.2,1.8-4,3.9-4l8.8-0.2c2.2,0,4,1.8,4,4l0,0v4.4
			c0,2.2-1.8,3.9-3.9,4L174.2,234.1z"/>
		<path class="st1" d="M183,222.4c1.6,0,2.9,1.3,2.9,2.9v4.4c0,1.6-1.3,2.9-2.9,3l-8.8,0.4c-1.6,0-2.9-0.7-2.9-2.3v-5.2
			c0-1.6,1.3-3,2.9-3L183,222.4 M183,220.3L183,220.3l-8.8,0.2l0,0c-2.7,0-4.9,2.3-4.9,5c0,0,0,0,0,0v5.2c0,2.6,2,4.3,4.9,4.3h0.1
			l8.7-0.4c2.7-0.1,4.9-2.3,4.9-5v-4.4C188,222.6,185.8,220.4,183,220.3L183,220.3z"/>
		<path class="st7" d="M173.2,200.5c-2.2,0-3.9-1.8-3.9-3.9v-4.4c0-2.2,1.8-3.9,3.9-3.9l9.2,0.3c2.2,0,3.9,1.8,3.9,3.9v4
			c0,2.2-1.8,3.9-3.9,3.9L173.2,200.5z"/>
		<path class="st1" d="M173.2,189.3l9.2,0.3c1.6,0,2.9,1.3,2.9,2.9v4c0,1.6-1.3,2.9-2.9,2.9h-9.2c-1.6,0-2.9-1.3-2.9-2.9v-4.3
			C170.3,190.6,171.6,189.3,173.2,189.3 M173.2,187.3c-2.7,0-4.9,2.2-4.9,4.9v4.4c0,2.7,2.2,4.9,4.9,4.9h9.2c2.7,0,4.9-2.2,4.9-4.9
			v-4c0-2.7-2.2-4.9-4.9-4.9L173.2,187.3L173.2,187.3z"/>
		<path class="st7" d="M133.8,201.2c-2.3-0.1-4-2-3.9-4.2v-4.5c-0.1-2.3,1.7-4.1,3.9-4.2l10,0.1c2.2,0.1,4,2,3.9,4.2v4.5
			c0.1,2.3-1.7,4.1-3.9,4.2L133.8,201.2z"/>
		<path class="st1" d="M133.8,189.2l10,0.1c1.7,0.1,3,1.5,2.9,3.2v4.5c0.1,1.7-1.2,3.1-2.9,3.2l-10-0.1c-1.7-0.1-3-1.5-2.9-3.2v-4.5
			C130.8,190.7,132.1,189.3,133.8,189.2 M133.8,187.2c-2.8,0.1-5,2.4-4.9,5.2v4.5c-0.1,2.8,2.1,5.1,4.9,5.2l9.9,0.1
			c2.8-0.1,5.1-2.4,5-5.2c0,0,0,0,0,0v-4.5c0.1-2.8-2.1-5.1-4.9-5.2L133.8,187.2L133.8,187.2z"/>
		<path class="st7" d="M251.4,200.5c-1.8,0-3.2-1.4-3.2-3.2V193c0-1.7,1.4-3.2,3.2-3.2l7.9,0.1c1.8,0,3.2,1.4,3.2,3.1c0,0,0,0,0,0
			v4.2c0,1.8-1.4,3.2-3.2,3.2L251.4,200.5z"/>
		<path class="st1" d="M251.4,190.9l7.9,0.1c1.2,0,2.2,0.9,2.2,2.1c0,0,0,0,0,0v4.2c0,1.2-1,2.2-2.2,2.2l-7.9,0.1
			c-1.2,0-2.2-1-2.2-2.2V193C249.3,191.8,250.2,190.9,251.4,190.9 M251.4,188.9c-2.3,0-4.2,1.9-4.2,4.2v4.4c0,2.3,1.9,4.2,4.2,4.2
			l7.9-0.1c2.3,0,4.2-1.9,4.2-4.2v-4.2c0-2.3-1.9-4.2-4.2-4.2L251.4,188.9L251.4,188.9z"/>
		<path class="st7" d="M289,200.2c-1.6,0-2.8-1.3-2.8-2.8v-3.6c0-1.6,1.3-2.8,2.8-2.9l5,0.2c1.5,0,2.8,1.3,2.8,2.8l0.2,3.4
			c0,1.6-1.2,2.9-2.8,2.9c0,0,0,0,0,0L289,200.2z"/>
		<path class="st1" d="M289,191.8l5,0.2c1,0,1.8,0.8,1.8,1.8l0.2,3.4c0,1-0.8,1.8-1.8,1.8l-5.3,0.1c-1,0-1.8-0.8-1.8-1.8v-3.6
			C287.1,192.7,287.9,191.8,289,191.8 M289,189.8c-2.1,0-3.8,1.8-3.8,3.9v3.6c0,2.1,1.7,3.8,3.8,3.8l5.3-0.1l0,0
			c2.1,0,3.8-1.7,3.8-3.8c0-0.1,0-0.1,0-0.1l-0.2-3.4c0-2.1-1.7-3.7-3.8-3.8L289,189.8L289,189.8z"/>
		<path class="st7" d="M251.5,230.1c-1.8,0-3.2-1.4-3.2-3.2v-4.6c0-1.8,1.4-3.2,3.2-3.2c0,0,0,0,0,0l7.5-0.1c1.8,0,3.2,1.4,3.2,3.2
			c0,0,0,0,0,0v4.5c0,1.8-1.4,3.2-3.2,3.2L251.5,230.1z"/>
		<path class="st1" d="M259,220.1c1.2,0,2.2,1,2.2,2.2v4.5c0,1.2-1,2.2-2.2,2.2l-7.5,0.2c-1.2,0-2.2-1-2.2-2.2v-4.6
			c0-1.2,1-2.2,2.2-2.2L259,220.1 M259,218.1L259,218.1l-7.5,0.1c-2.3,0-4.1,1.9-4.1,4.2v4.6c0,2.3,1.9,4.2,4.2,4.2l7.6-0.2l0,0
			c2.3,0,4.1-1.9,4.1-4.2v-4.5C263.2,219.9,261.4,218.1,259,218.1L259,218.1L259,218.1z"/>
		<path class="st7" d="M290,228.5c-1.6,0-2.8-1.3-2.8-2.8v-3.6c0-1.6,1.3-2.8,2.8-2.8l5.2-0.2c1.6,0,2.8,1.2,2.9,2.8c0,0,0,0,0,0
			v3.6c0,1.6-1.3,2.8-2.8,2.8L290,228.5z"/>
		<path class="st1" d="M295.3,220c1,0,1.8,0.8,1.8,1.8v3.6c0,1-0.8,1.8-1.8,1.8l-5.3,0.2c-1,0-1.8-0.8-1.8-1.8v-3.6
			c0-1,0.8-1.8,1.8-1.8L295.3,220 M295.3,218L295.3,218l-5.3,0.2c-2.1,0-3.8,1.7-3.8,3.8v3.6c0,2.1,1.7,3.8,3.8,3.8h0.1l5.2-0.2
			c2.1,0,3.8-1.7,3.8-3.8v-3.7C299.1,219.7,297.4,218,295.3,218L295.3,218z"/>
		<path class="st7" d="M211.9,200.9c-2.2,0-3.9-1.8-3.9-3.9c0,0,0,0,0,0v-3.8c0-2.2,1.8-3.9,3.9-3.9c0,0,0,0,0,0l7.4,0.2
			c2.2,0,3.9,1.8,3.9,3.9v3.5c0,2.2-1.8,3.9-3.9,3.9L211.9,200.9z"/>
		<path class="st1" d="M211.9,190.1l7.4,0.2c1.6,0,2.9,1.3,2.9,2.9v3.5c0,1.6-1.3,2.9-2.9,2.9l0,0l-7.4,0.1c-1.6,0-2.9-1.3-2.9-2.9
			v-3.8C208.9,191.5,210.2,190.1,211.9,190.1 M211.9,188.1c-2.7,0-4.9,2.2-4.9,4.9v3.8c0,2.7,2.2,4.9,4.9,4.9l0,0l7.4-0.1
			c2.7,0,4.9-2.2,4.9-4.9v-3.4c0-2.7-2.2-4.9-4.9-4.9L211.9,188.1L211.9,188.1z"/>
		<path class="st4" d="M101.2,215.6c-0.3,0-0.6-0.2-0.8-0.4c-0.2-0.3-0.2-0.7-0.1-1l3.5-8.2c0.2-0.4,0.5-0.6,0.9-0.6l203.1-1.4
			c0.5,0,0.9,0.3,1,0.8l1.7,6.7c0.1,0.5-0.2,1.1-0.7,1.2c-0.1,0-0.2,0-0.3,0L101.2,215.6z"/>
		<path class="st1" d="M307.8,205.1l1.7,6.7l-208.3,2.8l3.5-8.1L307.8,205.1 M307.8,203.1L307.8,203.1l-203.1,1.4
			c-0.8,0-1.5,0.5-1.8,1.2l-3.5,8.2c-0.3,0.6-0.2,1.3,0.2,1.9c0.4,0.6,1,0.9,1.7,0.9l0,0l208.3-2.8c1.1,0,2-0.9,2-2
			c0-0.2,0-0.3-0.1-0.5l-1.7-6.7C309.4,203.7,308.6,203.1,307.8,203.1L307.8,203.1z"/>
		<path class="st5" d="M89.2,252.4c-17.7,1.1-28.9,1.8-29.4,1.8c-6.2,0.9-21,0.6-37-2"/>
		<path class="st5" d="M150,248.9l-31.7,1.9"/>
		<path class="st5" d="M211.1,245.3l-34.6,2"/>
		<path class="st5" d="M258.4,242.5l-26.4,1.5"/>
		<path class="st5" d="M299.8,240.2c-6,0.3-12.5,0.7-19.5,1.1"/>
		<path class="st5" d="M333.4,238.5c-2.4,0.1-7.4,0.3-14.4,0.7"/>
		<path class="st6" d="M19.1,249.2l-7.5-1h-0.1l-8-2.2c-0.3-0.1-0.5-0.3-0.7-0.5c-0.1-0.3-0.1-0.6,0-0.9c0.8-1.7,1.8-2.4,3.2-2.4
			c0.4,0,0.8,0.1,1.2,0.1c0.5,0.1,1.8,0.3,3.4,0.5c3.2,0.4,7.3,1,8.5,1.3c0.7,0.1,1.2,0.6,1.5,1.2c0.6,1.3-0.3,3.1-0.5,3.4
			c-0.2,0.3-0.5,0.5-0.9,0.5L19.1,249.2z"/>
		<path class="st1" d="M6,243.2c0.3,0,0.7,0.1,1,0.1c1.4,0.2,10.1,1.3,11.9,1.8s0.4,3.1,0.4,3.1l-7.5-1l-8-2.1
			C4.4,243.6,5.1,243.2,6,243.2 M6,241.2c-1.8,0.1-3.5,1.3-4.1,3c-0.3,0.5-0.3,1.2,0,1.7c0.3,0.5,0.7,0.9,1.3,1.1l8.1,2.1l0.2,0
			l7.5,1h0.3c0.7,0,1.4-0.4,1.8-1.1c0.3-0.6,1.2-2.6,0.5-4.3c-0.4-0.9-1.2-1.5-2.1-1.7c-1.2-0.3-4.6-0.8-8.6-1.3l-3.4-0.5
			C6.9,241.3,6.5,241.2,6,241.2L6,241.2z"/>
		<path class="st6" d="M47.9,254.9c-8.5-0.1-16.9-0.7-25.3-1.7c-7.7-1.6-20.3-4.7-20-7.3c0.1-0.6,0.7-1.1,1.3-1
			c0.4,0,2.1,0.1,5.6,0.4c8.2,0.6,23.4,1.6,30.7,1.6l1.4,0l0,0c0.1,0,0.2,0,0.3,0.1l16.1,5.4c0.4,0.1,0.7,0.6,0.7,1
			c0,0.5-0.4,0.8-0.8,0.9C54.4,254.7,51.2,254.9,47.9,254.9L47.9,254.9z"/>
		<path class="st1" d="M3.8,245.9c1.4,0,26.3,2,36.3,2h1.4l16.1,5.5c-3.2,0.4-6.5,0.6-9.7,0.6c-8.4-0.1-16.9-0.7-25.3-1.7
			C5.4,248.6,2.4,245.9,3.8,245.9 M3.8,243.9c-1.2-0.1-2.2,0.8-2.3,2c-0.1,1.3-0.4,3.9,20.6,8.4h0.2c8.5,1,17,1.5,25.5,1.6
			c3.3,0,6.7-0.2,10-0.6c1.1-0.2,1.9-1.2,1.7-2.3c-0.1-0.8-0.6-1.4-1.4-1.6l-16.1-5.4c-0.2-0.1-0.4-0.1-0.6-0.1h0h-1.3
			c-7.2,0-22.5-1.1-30.6-1.6C5.9,244,4.3,243.9,3.8,243.9L3.8,243.9z"/>
		<path class="st6" d="M57.6,254.3c-0.1,0-0.2,0-0.3,0L42,249.2c-0.4-0.1-0.7-0.5-0.7-0.9c0-0.7-0.1-2.9,0.9-4
			c0.3-0.4,0.8-0.6,1.3-0.6c0.1,0,0.2,0,0.3,0c1.2,0.2,10.1,0.8,14.7,1.1c0.3,0,0.5,0.1,0.7,0.4c0.2,0.2,0.3,0.5,0.2,0.7
			c-0.2,2.5-0.5,5.1-0.9,7.6c-0.1,0.3-0.2,0.5-0.5,0.6C57.9,254.2,57.7,254.3,57.6,254.3z"/>
		<path class="st1" d="M43.5,244.7h0.2c1.6,0.2,14.8,1.1,14.8,1.1c-0.2,2.5-0.5,5-0.9,7.4l-15.3-5.1
			C42.3,248.2,42.1,244.7,43.5,244.7 M43.5,242.7c-0.8,0-1.5,0.3-2,0.9c-1.2,1.3-1.3,3.7-1.2,4.7c0,0.8,0.6,1.5,1.4,1.8l15.2,5.1
			c0.2,0.1,0.4,0.1,0.6,0.1c0.3,0,0.7-0.1,1-0.2c0.5-0.3,0.9-0.7,1-1.3c0.5-2.6,0.8-5.1,1-7.7c0-0.5-0.1-1-0.5-1.4
			c-0.4-0.4-0.9-0.7-1.5-0.7c-5.3-0.4-13.5-1-14.6-1.1L43.5,242.7L43.5,242.7z"/>
		<path class="st6" d="M74.1,162.9c-0.6,0-1-0.5-1-1c0-0.2,0.1-0.4,0.2-0.5l4.9-7.8c0.1-0.2,0.3-0.3,0.5-0.4l12.6-4.1
			c0.1,0,0.2,0,0.3,0h21.6c0.6,0,1,0.4,1,1c0,0.2-0.1,0.4-0.2,0.6l-5,7.6c-0.2,0.3-0.5,0.4-0.8,0.5L88,159.7l-13.7,3.2
			C74.3,162.9,74.2,162.9,74.1,162.9z"/>
		<path class="st1" d="M113.2,150.1L113.2,150.1 M113.2,150.1l-4.9,7.7l-20.4,0.9l-13.8,3.3l5-7.8l12.6-4L113.2,150.1 M113.3,148.1
			H91.7c-0.2,0-0.4,0-0.6,0.1l-12.6,4c-0.4,0.1-0.8,0.4-1.1,0.8l-5,7.8c-0.4,0.7-0.4,1.6,0.1,2.2c0.4,0.5,1,0.8,1.6,0.8
			c0.2,0,0.3,0,0.5,0l13.6-3.3l20.2-0.9c0.6,0,1.2-0.4,1.6-0.9l4.9-7.6c0.2-0.3,0.4-0.7,0.4-1.2C115.3,149,114.4,148.1,113.3,148.1
			L113.3,148.1z"/>
		<path class="st2" d="M108.3,158.7c-0.4,0-0.7-0.2-0.9-0.5c-0.2-0.3-0.2-0.7,0-1l5-7.7c0.2-0.3,0.5-0.5,0.8-0.5h0.1l37.9,4.8
			c0.4,0,0.7,0.3,0.8,0.7l1.2,3.8c0.1,0.3,0,0.6-0.1,0.9c-0.2,0.3-0.5,0.4-0.8,0.4L108.3,158.7z"/>
		<path class="st1" d="M113.2,150.1l37.9,4.8l1.2,3.8l-44.1-0.9L113.2,150.1 M113.2,148.1c-0.7,0-1.3,0.3-1.7,0.9l-5,7.7
			c-0.6,0.9-0.3,2.2,0.6,2.8c0.3,0.2,0.7,0.3,1,0.3l44.1,0.9l0,0c1.1,0,2-0.9,2-2c0-0.2,0-0.4-0.1-0.6l-1.2-3.8
			c-0.2-0.7-0.9-1.3-1.6-1.4l-37.8-4.8L113.2,148.1L113.2,148.1z"/>
		<path class="st4" d="M104.2,259.4c-0.7,0-1.3-0.1-2-0.1c-3.5-0.5-6-2.3-7.2-5.1c-1.1-2.8-0.6-6,1.2-8.4c1.6-2.3,4.3-3.7,7.1-3.7
			c4.3,0.2,8,3,9.3,7c0.7,2.5,0.3,5.1-1.2,7.2C109.7,258.3,107,259.5,104.2,259.4L104.2,259.4z M104,249.5c-0.3,0-1.1,0.1-1.4,0.6
			c-0.3,0.5-0.5,1.1-0.3,1.7c0.2,0.4,0.8,0.7,1.7,0.8c0.3,0.1,0.7,0.1,1,0.1c0.5,0,1-0.1,1.4-0.5c0.3-0.4,0.4-1,0.2-1.4
			C106.5,250.2,105.2,249.5,104,249.5z"/>
		<path class="st1" d="M103.4,242.9c3.8,0.1,7.2,2.7,8.4,6.3c1.2,4.6-1.5,9.1-7.6,9.1c-0.6,0-1.2,0-1.8-0.1c-7.3-1-8.3-8.1-5.3-12
			C98.5,244.2,100.9,242.9,103.4,242.9 M105,253.7c2.1,0,3-1.4,2.6-3.1c-0.3-1.3-2-2.1-3.5-2.1c-0.9-0.1-1.8,0.4-2.3,1.1
			c-0.8,1.6-1,3.4,2,4C104.1,253.7,104.5,253.7,105,253.7 M103.4,240.9c-3.1,0.1-6,1.6-7.9,4.1c-3.3,4-2.6,9.9,1.4,13.1
			c1.5,1.2,3.3,1.9,5.2,2.1c0.7,0.1,1.4,0.1,2.1,0.1c3.1,0.1,6.1-1.2,8.1-3.6c1.7-2.3,2.2-5.3,1.4-8
			C112.3,244.2,108.1,241.1,103.4,240.9L103.4,240.9z M103.5,250.6c0.2-0.1,0.4-0.1,0.6-0.1c0.6,0,1.1,0.2,1.6,0.6
			c0.1,0.2,0.1,0.4,0,0.6c-0.2,0.1-0.4,0.1-0.7,0.1c-0.3,0-0.6,0-0.8-0.1c-0.3,0-0.6-0.1-0.9-0.3
			C103.2,251.1,103.3,250.8,103.5,250.6L103.5,250.6z"/>
		<path class="st4" d="M269.8,247.5c-1.4,0-2.8-0.4-4-1c-2.3-0.9-3.8-3-4-5.5c-0.1-2.3,1-4.5,3-5.8c1.2-0.8,2.6-1.3,4.1-1.3
			c1.9,0,3.6,0.8,4.9,2.2c1.4,1.5,2.2,3.4,2.2,5.5C275.9,244.9,273.1,247.6,269.8,247.5L269.8,247.5z M268.9,240.1
			c-0.1,0-0.3,0-0.4,0.1c-0.4,0.4-0.6,0.7-0.6,0.9c0,0.2,0.2,0.5,0.8,0.8c0.4,0.2,0.8,0.4,1.2,0.4c0.2,0,0.6,0,0.7-0.9
			c0-0.2-0.1-0.4-0.2-0.5C270.1,240.4,269.5,240.1,268.9,240.1z"/>
		<path class="st1" d="M268.9,234.9c3.6,0,6.2,3.7,6,6.6c0,2.8-2.3,5-5.1,5c0,0,0,0,0,0c-1.2,0-2.4-0.3-3.5-0.9
			c-4.9-2.4-3.9-7.6-0.9-9.6C266.4,235.3,267.6,234.9,268.9,234.9 M270,243.2c1,0,1.6-0.7,1.7-1.7c0.1-1-1.5-2.4-2.8-2.4
			c-0.4,0-0.8,0.1-1.1,0.4c-1,0.9-1.5,2.1,0.5,3.2C268.8,243,269.4,243.2,270,243.2 M268.9,232.9c-1.7,0-3.3,0.5-4.6,1.5
			c-3.4,2.2-4.4,6.8-2.2,10.2c0.8,1.2,1.9,2.2,3.3,2.8c1.4,0.7,2.9,1.1,4.4,1.1c3.9,0,7-3,7.1-6.9c0.1-2.3-0.8-4.6-2.4-6.2
			C273.1,233.7,271.1,232.8,268.9,232.9L268.9,232.9z"/>
		<path class="st4" d="M163.9,254.9c-0.5,0-0.9,0-1.4-0.1c-2-0.3-3.8-1.5-4.8-3.3c-1.1-2-1.2-4.3-0.4-6.4c1.4-3.8,3.9-5.7,7.2-5.7
			c0.7,0,1.3,0.1,2,0.2c1.9,0.4,3.6,1.6,4.5,3.3c1.1,1.9,1.3,4.2,0.7,6.3C170.5,252.5,167.4,254.8,163.9,254.9L163.9,254.9z
			 M165.3,246.1c-0.8,0.1-1.4,0.5-1.8,1.2c-0.2,0.3-0.2,0.7,0,1c0.2,0.4,0.6,0.6,1,0.6h0.2c0.4,0,0.9-0.1,1.2-0.5
			c0.3-0.5,0.4-1,0.3-1.6C166.1,246.4,165.7,246.1,165.3,246.1L165.3,246.1z"/>
		<path class="st1" d="M164.5,240.4c0.6,0,1.2,0.1,1.8,0.2c4.1,0.8,5.4,5.5,4.4,8.3c-1,2.9-3.8,4.9-6.9,5c-0.4,0-0.8,0-1.2-0.1
			c-3.9-0.7-5.9-4.5-4.4-8.3C159.5,242.3,161.5,240.4,164.5,240.4 M164.7,249.9c1.8,0,2.8-1.5,2.4-3.2c-0.1-0.9-0.9-1.6-1.9-1.6
			c-1.1,0.1-2,0.7-2.6,1.6c-0.6,1-0.3,2.3,0.7,2.9c0.3,0.2,0.7,0.3,1.1,0.3L164.7,249.9 M164.5,238.4c-2.6,0-6.1,1.1-8.1,6.4
			c-0.9,2.3-0.8,5,0.4,7.2c1.2,2,3.2,3.4,5.5,3.8c0.5,0.1,1,0.1,1.6,0.1c3.9-0.1,7.4-2.6,8.7-6.3c0.8-2.4,0.5-5-0.7-7.2
			c-1.1-2-3-3.4-5.2-3.8C166,238.5,165.2,238.4,164.5,238.4z M164.3,247.8c0.2-0.3,0.5-0.5,0.9-0.6c0.1,0.2,0,0.5-0.1,0.7
			c-0.1,0.1-0.3,0.1-0.4,0.1h-0.1C164.5,247.9,164.4,247.9,164.3,247.8C164.4,247.8,164.4,247.8,164.3,247.8L164.3,247.8z"/>
		<path class="st4" d="M221.4,250.5c-2.5-0.1-4.8-1.6-5.8-3.9c-1.9-3.9-1.2-7,2.1-9.3c1-0.7,2.2-1.1,3.4-1.1
			c2.5,0.1,4.9,1.5,6.1,3.7c1.6,3.2,0.7,7.1-2.1,9.3C224,250,222.7,250.5,221.4,250.5L221.4,250.5z M221.7,241.9
			c-0.2,0-0.4,0.1-0.5,0.3c-0.3,0.5-0.4,1.1-0.3,1.7c0.1,0.3,0.4,0.6,0.8,0.6c0.3,0,0.5-0.1,0.7-0.3c0.3-0.2,0.5-0.6,0.5-1
			c-0.1-0.5-0.4-0.9-0.8-1.1C222,242,221.9,241.9,221.7,241.9z"/>
		<path class="st1" d="M221.1,237.2c2.2,0,4.1,1.2,5.2,3.1c1.4,2.8,0.7,6.2-1.8,8.1c-0.9,0.7-2,1-3.1,1.1c-2.1-0.1-4-1.4-4.9-3.3
			c-1.6-3.3-1.2-6,1.8-8.1C219.1,237.5,220.1,237.2,221.1,237.2 M221.7,245.5c0.5,0,1-0.2,1.3-0.6c1-0.8,1.1-2.1,0.4-3.1
			c-0.2-0.3-0.5-0.5-0.7-0.6c-0.3-0.2-0.6-0.3-0.9-0.3c-1.1,0-2.1,1.2-1.8,3.1C220.1,244.9,220.9,245.5,221.7,245.5 M221.1,235.2
			c-1.4,0-2.8,0.4-4,1.2c-2.6,1.8-5.1,5.1-2.4,10.6c1.2,2.7,3.8,4.4,6.7,4.4c1.5,0,3.1-0.5,4.3-1.5c3.2-2.5,4.2-6.9,2.4-10.6
			C226.7,236.8,224,235.2,221.1,235.2L221.1,235.2z M221.9,243.3L221.9,243.3L221.9,243.3L221.9,243.3L221.9,243.3L221.9,243.3z"/>
		<path class="st4" d="M309.5,244.1c-2.2-0.1-4.2-1.4-5.1-3.4c-2-4.3-0.1-6.8,1.9-8.2c0.9-0.6,1.9-1,3-1c2.2,0,4.3,1.3,5.4,3.2
			c1.4,2.8,0.6,6.3-1.9,8.2C311.8,243.7,310.7,244.1,309.5,244.1L309.5,244.1z M309.8,236.8c-0.1,0-0.3,0.1-0.3,0.2
			c-0.3,0.4-0.3,0.9-0.2,1.4c0.1,0.2,0.3,0.4,0.5,0.4c0.2,0,0.4-0.1,0.5-0.2c0.2-0.2,0.4-0.5,0.4-0.8c-0.1-0.4-0.3-0.7-0.6-0.9
			C310,236.8,309.9,236.8,309.8,236.8L309.8,236.8z"/>
		<path class="st1" d="M309.2,232.6c1.9,0,3.6,1.1,4.5,2.7c1.2,2.4,0.6,5.3-1.5,7c-0.8,0.6-1.7,0.9-2.7,0.9
			c-1.8-0.1-3.5-1.2-4.2-2.8c-1.3-2.8-1-5.1,1.5-7C307.5,232.9,308.4,232.6,309.2,232.6 M309.8,239.7c0.4,0,0.8-0.2,1.1-0.5
			c0.8-0.6,1-1.8,0.3-2.7c-0.2-0.2-0.4-0.4-0.6-0.5c-0.2-0.2-0.5-0.2-0.8-0.2c-1,0-1.8,1-1.5,2.7C308.4,239.2,309,239.7,309.8,239.7
			 M309.2,230.6c-1.3,0-2.5,0.4-3.5,1.1c-3.2,2.3-4,5.6-2.2,9.5c1.1,2.4,3.4,3.9,6,4c1.4,0,2.7-0.5,3.9-1.3c2.9-2.2,3.8-6.2,2.1-9.5
			C314.3,232.1,311.9,230.6,309.2,230.6L309.2,230.6z"/>
	</g>
</g>
</svg>
