<?xml version="1.0" encoding="utf-8"?>
<!-- Generator: Adobe Illustrator 24.0.3, SVG Export Plug-In . SVG Version: 6.00 Build 0)  -->
<svg version="1.1" id="Layer_1" xmlns="http://www.w3.org/2000/svg" xmlns:xlink="http://www.w3.org/1999/xlink" x="0px" y="0px"
	 viewBox="0 0 360 360" style="enable-background:new 0 0 360 360;" xml:space="preserve">
<style type="text/css">
	.st0{fill:#8683BF;}
	.st1{fill:#010101;}
	.st2{fill:#0C81C3;}
	.st3{fill:#2F5D9D;}
	.st4{fill:#08AD84;}
	.st5{fill:#08AD84;stroke:#010101;stroke-width:2;stroke-linecap:round;stroke-linejoin:round;}
</style>
<title>Q_04</title>
<g id="Layer_2_1_">
	<g id="Landmark">
		<path class="st0" d="M182.8,131.9c-0.9,0-1.7-0.2-2.5-0.7c-0.3-0.2-0.5-0.5-0.5-0.9l0.2-7.9c0-0.6,0.4-1,1-1h0.1l0.8-28
			c0-0.6,0.4-1,1-1l0,0c0.6,0,1,0.4,1,1l0.5,28.1h0.3c0.6,0,1,0.4,1,1v7.7c0,0.3-0.1,0.6-0.3,0.8
			C184.7,131.6,183.8,131.9,182.8,131.9z"/>
		<path class="st1" d="M183,93.5l0.5,29.1h1.3v7.7c-0.5,0.5-1.2,0.7-1.9,0.7c-0.7,0-1.4-0.2-2-0.5l0.2-7.9h1.1L183,93.5 M183,91.5
			c-1.1,0-2,0.9-2,1.9l-0.8,27.3c-0.7,0.3-1.1,1-1.1,1.7l-0.2,7.9c0,0.7,0.4,1.4,1,1.8c0.9,0.5,2,0.8,3,0.8c1.2,0,2.3-0.4,3.2-1.2
			c0.4-0.4,0.7-0.9,0.7-1.5v-7.7c0-0.8-0.5-1.6-1.3-1.9L185,93.5C185,92.4,184.1,91.5,183,91.5z"/>
		<path class="st2" d="M77.5,259.1c-0.6,0-1-0.4-1-1v-92.8c0-0.6,0.4-1,1-1l159.3-4.7h0.1l50.8,4.7c0.5,0,0.9,0.5,0.9,1v90.6
			c0,0.5-0.4,0.9-0.9,1l-49.8,5h-0.1L77.5,259.1z"/>
		<path class="st1" d="M236.8,160.5l50.8,4.7v90.6l-49.8,5l-160.3-2.7v-92.9L236.8,160.5 M236.8,158.5L236.8,158.5l-159.3,4.7
			c-1.1,0-1.9,0.9-1.9,2v92.8c0,1.1,0.9,2,2,2l160.3,2.7h0.2l49.8-5c1-0.1,1.8-1,1.8-2v-90.6c0-1-0.8-1.9-1.8-2l-50.8-4.7
			L236.8,158.5z"/>
		<polygon class="st3" points="287.6,255.8 287.6,212.5 287.6,165.2 236.8,160.5 236.8,260.8 237.8,260.8 		"/>
		<path class="st2" d="M249.5,178.5c-0.6,0-1-0.4-1-1v-3.6c0-0.6,0.4-1,1-1s1,0.4,1,1v3.6C250.5,178,250.1,178.5,249.5,178.5z"/>
		<path class="st1" d="M249.5,173.9L249.5,173.9 M249.5,171.9c-1.1,0-2,0.9-2,2v3.6c0,1.1,0.9,2,2,2s2-0.9,2-2v-3.6
			C251.5,172.8,250.6,171.9,249.5,171.9z"/>
		<path class="st2" d="M249.5,218.2c-0.6,0-1-0.4-1-1v-39.8c0-0.6,0.4-1,1-1s1,0.4,1,1v39.8C250.5,217.8,250.1,218.2,249.5,218.2
			C249.5,218.2,249.5,218.2,249.5,218.2z"/>
		<path class="st1" d="M249.5,177.5L249.5,177.5 M249.5,175.5c-1.1,0-2,0.9-2,2v39.8c0,1.1,0.9,2,2,2s2-0.9,2-2v-39.8
			C251.5,176.4,250.6,175.5,249.5,175.5z"/>
		<path class="st2" d="M249.5,217.2c-0.6,0-1-0.4-1-1v-7.4c0-0.3,0.1-0.5,0.3-0.7c0.2-0.2,0.4-0.3,0.7-0.3l80.7,1.4c0.6,0,1,0.4,1,1
			v6c0,0.6-0.4,1-1,1L249.5,217.2z"/>
		<path class="st1" d="M249.5,208.8l80.7,1.4v6h-80.7V208.8 M249.5,206.9c-1.1,0-2,0.9-2,2v7.4c0,1.1,0.9,2,2,2h80.7
			c1.1,0,2-0.9,2-2v-6c0-1.1-0.9-2-2-2L249.5,206.9L249.5,206.9z"/>
		<path class="st4" d="M29.8,217.2c-0.6,0-1-0.4-1-1v-6c0-0.6,0.4-1,1-1l219.8-1.4c0.6,0,1,0.4,1,1v7.4c0,0.6-0.4,1-1,1L29.8,217.2z
			"/>
		<path class="st1" d="M249.5,208.8v7.4H29.8v-6L249.5,208.8 M249.5,206.9L249.5,206.9l-219.7,1.3c-1.1,0-2,0.9-2,2v6
			c0,1.1,0.9,2,2,2h219.7c1.1,0,2-0.9,2-2v-7.4C251.5,207.7,250.6,206.8,249.5,206.9L249.5,206.9z"/>
		<path class="st2" d="M249.5,189.1c-0.6,0-1-0.4-1-1v-5.5c0-0.3,0.1-0.5,0.3-0.7c0.2-0.2,0.4-0.3,0.7-0.3l80.7,1.1c0.6,0,1,0.4,1,1
			v4.5c0,0.6-0.4,1-1,1H249.5z"/>
		<path class="st1" d="M249.5,182.5l80.7,1.1v4.5h-80.7V182.5 M249.5,180.5c-0.5,0-1,0.2-1.4,0.6c-0.4,0.4-0.6,0.9-0.6,1.4v5.5
			c0,1.1,0.9,2,2,2h80.7c1.1,0,2-0.9,2-2v-4.5c0-1.1-0.9-2-2-2L249.5,180.5L249.5,180.5z"/>
		<path class="st4" d="M29.8,189.1c-0.6,0-1-0.4-1-1v-4.5c0-0.6,0.4-1,1-1l219.7-1c0.6,0,1,0.4,1,1v5.5c0,0.6-0.4,1-1,1L29.8,189.1z
			"/>
		<path class="st1" d="M249.5,182.5v5.5H29.8v-4.5L249.5,182.5 M249.5,180.6L249.5,180.6l-219.7,1c-1.1,0-2,0.9-2,2v4.5
			c0,1.1,0.9,2,2,2h219.7c1.1,0,2-0.9,2-2v-5.5C251.5,181.4,250.6,180.5,249.5,180.6L249.5,180.6z"/>
		<path class="st2" d="M249.5,178.5c-0.5,0-1-0.5-0.9-1v-3.6c0-0.3,0.1-0.5,0.3-0.7c0.2-0.2,0.4-0.3,0.7-0.3l7.4,0.4
			c0.6,0,1,0.4,1,1v3.5c0,0.3-0.1,0.5-0.3,0.7c-0.2,0.2-0.4,0.3-0.7,0.3L249.5,178.5z"/>
		<path class="st1" d="M249.5,173.9l7.3,0.4v3.5l-7.3-0.3V173.9 M249.5,171.9c-1.1,0-2,0.9-2,2v3.6c0,1.1,0.8,2,1.9,2l7.3,0.3h0.1
			c0.5,0,1-0.2,1.4-0.5c0.4-0.4,0.6-0.9,0.6-1.5v-3.5c0-1.1-0.8-1.9-1.9-2L249.5,171.9L249.5,171.9z"/>
		<path class="st2" d="M278.3,179.2c-0.6,0-1-0.4-1-1v-3.5c0-0.3,0.1-0.5,0.3-0.7c0.2-0.2,0.4-0.3,0.7-0.3l9.1,0.4c0.6,0,1,0.4,1,1
			v3.4c0,0.3-0.1,0.5-0.3,0.7c-0.2,0.2-0.4,0.3-0.7,0.3L278.3,179.2z"/>
		<path class="st1" d="M278.4,174.7l9,0.4v3.4l-9-0.3V174.7 M278.4,172.7c-1.1,0-2,0.9-2,2v3.5c0,1.1,0.9,2,1.9,2l9,0.3h0.1
			c1.1,0,2-0.9,2-2v-3.4c0-1.1-0.8-2-1.9-2L278.4,172.7L278.4,172.7z"/>
		<path class="st2" d="M304.6,180.9c-0.6,0-1-0.4-1-1v-3.4c0-0.3,0.1-0.5,0.3-0.7c0.2-0.2,0.4-0.3,0.7-0.3l7.5,0.4c0.5,0,1,0.5,1,1
			v3.4c0,0.3-0.1,0.5-0.3,0.7c-0.2,0.2-0.4,0.3-0.7,0.3L304.6,180.9z"/>
		<path class="st1" d="M304.6,176.5l7.5,0.4v3.4l-7.5-0.4V176.5 M304.6,174.5c-1.1,0-2,0.9-2,2v3.4c0,1.1,0.8,1.9,1.9,2l7.5,0.4h0.1
			c0.5,0,1-0.2,1.4-0.6c0.4-0.4,0.6-0.9,0.6-1.4v-3.4c0-1.1-0.8-1.9-1.9-2l-7.5-0.4H304.6z"/>
		<path class="st2" d="M249.5,218.2c-0.6,0-1-0.4-1-1v-39.8c0-0.6,0.4-1,1-1l7.4,0.3c0.6,0,1,0.4,1,1v39.4c0,0.6-0.4,1-1,1
			L249.5,218.2z"/>
		<path class="st1" d="M249.5,177.5l7.3,0.3v39.4h-7.3V177.5 M249.5,175.5c-0.5,0-1,0.2-1.4,0.6c-0.4,0.4-0.6,0.9-0.6,1.4v39.8
			c0,1.1,0.9,2,2,2h7.3c1.1,0,2-0.9,2-2v-39.4c0-1.1-0.8-1.9-1.9-2L249.5,175.5L249.5,175.5z"/>
		<path class="st2" d="M278.4,218.2c-0.6,0-1-0.4-1-1v-39c0-0.3,0.1-0.5,0.3-0.7c0.2-0.2,0.4-0.3,0.7-0.3l9.1,0.4c0.6,0,1,0.4,1,1
			v38.6c0,0.6-0.4,1-1,1H278.4z"/>
		<path class="st1" d="M278.4,178.3l9,0.3v38.6h-9V178.3 M278.4,176.2c-0.5,0-1,0.2-1.4,0.6c-0.4,0.4-0.6,0.9-0.6,1.4v39
			c0,1.1,0.9,2,2,2h9c1.1,0,2-0.9,2-2v-38.6c0-1.1-0.9-2-1.9-2L278.4,176.2L278.4,176.2z"/>
		<path class="st0" d="M274.7,179.5c-0.2,0-0.5-0.1-0.7-0.3c-0.2-0.2-0.3-0.5-0.3-0.7v-3.4c0-0.5,0.4-0.9,0.9-1l3.7-0.4h0.1
			c0.2,0,0.5,0.1,0.7,0.3c0.2,0.2,0.3,0.5,0.3,0.7v3.5c0,0.5-0.4,0.9-0.9,1L274.7,179.5L274.7,179.5z"/>
		<path class="st1" d="M278.4,174.7v3.5l-3.7,0.4v-3.4L278.4,174.7 M278.4,172.7h-0.2l-3.7,0.4c-1,0.1-1.8,1-1.8,2v3.4
			c0,0.6,0.2,1.1,0.7,1.5c0.4,0.3,0.9,0.5,1.3,0.5h0.2l3.7-0.3c1-0.1,1.8-1,1.8-2v-3.5C280.4,173.6,279.5,172.7,278.4,172.7z"/>
		<path class="st4" d="M274.7,218.2c-0.6,0-1-0.4-1-1v-38.6c0-0.5,0.4-1,0.9-1l3.7-0.4h0.1c0.3,0,0.5,0.1,0.7,0.3
			c0.2,0.2,0.3,0.5,0.3,0.7v39c0,0.6-0.4,1-1,1H274.7z"/>
		<path class="st1" d="M278.4,178.2v39h-3.7v-38.6L278.4,178.2 M278.4,176.2h-0.2l-3.7,0.4c-1,0.1-1.8,1-1.8,2v38.6c0,1.1,0.9,2,2,2
			h3.7c1.1,0,2-0.9,2-2v-39c0-0.6-0.2-1.1-0.6-1.5C279.4,176.4,278.9,176.3,278.4,176.2z"/>
		<path class="st2" d="M304.6,219.2c-0.6,0-1-0.4-1-1V180c0-0.3,0.1-0.5,0.3-0.7c0.2-0.2,0.4-0.3,0.7-0.3l7.5,0.4c0.5,0,1,0.5,1,1
			v37.9c0,0.6-0.4,1-1,1H304.6z"/>
		<path class="st1" d="M304.6,180l7.5,0.4v37.9h-7.5V180 M304.6,178c-1.1,0-2,0.9-2,2v38.2c0,1.1,0.9,2,2,2h7.5c1.1,0,2-0.9,2-2
			v-37.9c0-1.1-0.8-2-1.9-2L304.6,178L304.6,178z"/>
		<path class="st0" d="M300.9,181.3c-0.2,0-0.5-0.1-0.7-0.3c-0.2-0.2-0.3-0.5-0.3-0.7v-3.4c0-0.5,0.4-0.9,0.9-1l3.7-0.4h0.1
			c0.2,0,0.5,0.1,0.7,0.3c0.2,0.2,0.3,0.5,0.3,0.7v3.4c0,0.5-0.4,1-0.9,1L300.9,181.3L300.9,181.3z"/>
		<path class="st1" d="M304.6,176.5v3.4l-3.7,0.4v-3.4L304.6,176.5 M304.6,174.5h-0.2l-3.7,0.4c-1,0.1-1.8,1-1.8,2v3.4
			c0,0.6,0.2,1.1,0.7,1.5c0.4,0.3,0.9,0.5,1.3,0.5h0.2l3.7-0.4c1-0.1,1.8-1,1.8-2v-3.4c0-0.6-0.2-1.1-0.7-1.5
			C305.6,174.7,305.1,174.5,304.6,174.5L304.6,174.5z"/>
		<path class="st4" d="M300.9,219.2c-0.6,0-1-0.4-1-1v-37.9c0-0.5,0.4-1,0.9-1l3.7-0.4h0.1c0.2,0,0.5,0.1,0.7,0.3
			c0.2,0.2,0.3,0.5,0.3,0.7v38.2c0,0.6-0.4,1-1,1H300.9z"/>
		<path class="st1" d="M304.6,180v38.2h-3.7v-37.9L304.6,180 M304.6,178h-0.2l-3.7,0.4c-1,0.1-1.8,1-1.8,2v37.9c0,1.1,0.9,2,2,2h3.7
			c1.1,0,2-0.9,2-2V180c0-0.6-0.2-1.1-0.7-1.5C305.6,178.2,305.1,178,304.6,178z"/>
		<path class="st0" d="M238.5,178.6c-0.3,0-0.5-0.1-0.7-0.3c-0.2-0.2-0.3-0.4-0.3-0.7v-3.5c0-0.6,0.4-1,1-1l11.1-0.2
			c0.6,0,1,0.4,1,1v3.6c0,0.6-0.4,1-1,1L238.5,178.6z"/>
		<path class="st1" d="M249.5,173.9v3.6l-11,0.2v-3.6L249.5,173.9 M249.5,171.9L249.5,171.9l-11,0.2c-1.1,0-2,0.9-2,2v3.5
			c0,0.5,0.2,1.1,0.6,1.4c0.4,0.4,0.9,0.6,1.4,0.6l0,0l11-0.2c1.1,0,2-0.9,2-2v-3.5c0-0.5-0.2-1.1-0.6-1.4
			C250.5,172.1,250,171.9,249.5,171.9z"/>
		<path class="st0" d="M29.8,182.2c-0.6,0-1-0.4-1-1V178c0-0.6,0.4-1,1-1l11-0.2c0.6,0,1,0.4,1,1v3.2c0,0.6-0.4,1-1,1L29.8,182.2z"
			/>
		<path class="st1" d="M40.8,177.8v3.2l-11,0.2V178L40.8,177.8 M40.8,175.8L40.8,175.8l-11,0.2c-1.1,0-2,0.9-2,2v3.2
			c0,1.1,0.9,2,2,2l0,0l11-0.2c1.1,0,2-0.9,2-2v-3.2C42.8,176.7,41.9,175.8,40.8,175.8z"/>
		<path class="st0" d="M60.8,181.5c-0.6,0-1-0.4-1-1v-3.2c0-0.6,0.4-1,1-1l7.5-0.1c0.6,0,1,0.4,1,1v3.3c0,0.6-0.4,1-1,1L60.8,181.5z
			"/>
		<path class="st1" d="M68.3,177.1v3.3l-7.5,0.1v-3.2L68.3,177.1 M68.3,175.1L68.3,175.1l-7.5,0.1c-1.1,0-2,0.9-2,2v3.2
			c0,0.5,0.2,1.1,0.6,1.4c0.4,0.4,0.9,0.6,1.4,0.6l0,0l7.5-0.1c1.1,0,2-0.9,2-2v-3.2c0-0.5-0.2-1.1-0.6-1.4
			C69.3,175.3,68.8,175.1,68.3,175.1L68.3,175.1z"/>
		<path class="st0" d="M88.2,180.8c-0.6,0-1-0.4-1-1v-3.3c0-0.6,0.4-1,1-1l7.5-0.1c0.6,0,1,0.4,1,1v3.3c0,0.6-0.4,1-1,1L88.2,180.8z
			"/>
		<path class="st1" d="M95.6,176.3v3.3l-7.5,0.1v-3.3L95.6,176.3 M95.6,174.3L95.6,174.3l-7.5,0.1c-1.1,0-2,0.9-2,2v3.3
			c0,0.5,0.2,1.1,0.6,1.4c0.4,0.4,0.9,0.6,1.4,0.6l0,0l7.5-0.1c1.1,0,2-0.9,2-2v-3.3c0-0.5-0.2-1.1-0.6-1.4
			C96.6,174.5,96.1,174.3,95.6,174.3L95.6,174.3z"/>
		<path class="st0" d="M118.5,180.5c-0.3,0-0.5-0.1-0.7-0.3c-0.2-0.2-0.3-0.4-0.3-0.7v-3.4c0-0.6,0.4-1,1-1l7.5-0.1
			c0.3,0,0.5,0.1,0.7,0.3c0.2,0.2,0.3,0.4,0.3,0.7v3.4c0,0.6-0.4,1-1,1L118.5,180.5z"/>
		<path class="st1" d="M126,175.9v3.4l-7.5,0.1v-3.4L126,175.9 M126,173.9L126,173.9l-7.5,0.1c-1.1,0-2,0.9-2,2v3.4c0,1.1,0.9,2,2,2
			l0,0l7.5-0.1c1.1,0,2-0.9,2-2v-3.4C128,174.8,127.1,173.9,126,173.9z"/>
		<path class="st0" d="M148.3,179.8c-0.3,0-0.5-0.1-0.7-0.3c-0.2-0.2-0.3-0.4-0.3-0.7v-3.4c0-0.6,0.4-1,1-1l7.5-0.1c0.6,0,1,0.4,1,1
			v3.4c0,0.6-0.4,1-1,1L148.3,179.8z"/>
		<path class="st1" d="M155.8,175.2v3.4l-7.5,0.1v-3.4L155.8,175.2 M155.8,173.2L155.8,173.2l-7.5,0.1c-1.1,0-2,0.9-2,2v3.4
			c0,0.5,0.2,1,0.6,1.4c0.4,0.4,0.9,0.6,1.4,0.6l0,0l7.5-0.1c1.1,0,2-0.9,2-2v-3.4C157.8,174.1,156.9,173.2,155.8,173.2z"/>
		<path class="st0" d="M177.4,179.4c-0.6,0-1-0.4-1-1v-3.5c0-0.6,0.4-1,1-1l7.5-0.1c0.3,0,0.5,0.1,0.7,0.3c0.2,0.2,0.3,0.4,0.3,0.7
			v3.5c0,0.6-0.4,1-1,1L177.4,179.4z"/>
		<path class="st1" d="M184.9,174.8v3.5l-7.5,0.1v-3.5L184.9,174.8 M184.9,172.8L184.9,172.8l-7.5,0.1c-1.1,0-2,0.9-2,2v3.5
			c0,1.1,0.9,2,2,2l0,0l7.5-0.1c1.1,0,2-0.9,2-2v-3.5c0-0.5-0.2-1.1-0.6-1.4C185.9,173,185.4,172.8,184.9,172.8L184.9,172.8z"/>
		<path class="st0" d="M209,179.1c-0.3,0-0.5-0.1-0.7-0.3c-0.2-0.2-0.3-0.4-0.3-0.7v-3.5c0-0.6,0.4-1,1-1l7.5-0.1
			c0.3,0,0.5,0.1,0.7,0.3c0.2,0.2,0.3,0.4,0.3,0.7v3.5c0,0.6-0.4,1-1,1L209,179.1z"/>
		<path class="st1" d="M216.4,174.5v3.5l-7.5,0.1v-3.5L216.4,174.5 M216.4,172.4L216.4,172.4l-7.5,0.1c-1.1,0-2,0.9-2,2v3.5
			c0,0.5,0.2,1.1,0.6,1.4c0.4,0.4,0.9,0.6,1.4,0.6l0,0l7.5-0.1c1.1,0,2-0.9,2-2v-3.5C218.4,173.4,217.5,172.5,216.4,172.4
			L216.4,172.4z"/>
		<path class="st4" d="M238.5,218.2c-0.6,0-1-0.4-1-1v-39.6c0-0.6,0.4-1,1-1l11-0.2c0.3,0,0.5,0.1,0.7,0.3c0.2,0.2,0.3,0.4,0.3,0.7
			v39.8c0,0.6-0.4,1-1,1L238.5,218.2z"/>
		<path class="st1" d="M249.5,177.5v39.8h-11v-39.5L249.5,177.5 M249.5,175.5L249.5,175.5l-11.1,0.2c-1.1,0-2,0.9-2,2v39.6
			c0,1.1,0.9,2,2,2h11c1.1,0,2-0.9,2-2v-39.8c0-0.5-0.2-1.1-0.6-1.4C250.5,175.7,250,175.5,249.5,175.5L249.5,175.5z"/>
		<path class="st4" d="M29.8,218.2c-0.6,0-1-0.4-1-1v-36c0-0.6,0.4-1,1-1l11-0.2c0.3,0,0.5,0.1,0.7,0.3c0.2,0.2,0.3,0.4,0.3,0.7
			v36.2c0,0.6-0.4,1-1,1L29.8,218.2z"/>
		<path class="st1" d="M40.8,181.1v36.2h-11v-36L40.8,181.1 M40.8,179.1L40.8,179.1l-11,0.2c-1.1,0-2,0.9-2,2v36c0,1.1,0.9,2,2,2h11
			c1.1,0,2-0.9,2-2v-36.2C42.8,180,41.9,179.1,40.8,179.1L40.8,179.1z"/>
		<path class="st2" d="M40.7,182c-0.5,0-0.9-0.5-0.9-1v-3.2c0-0.3,0.1-0.5,0.3-0.7c0.2-0.2,0.4-0.3,0.7-0.3l2.9,0.2
			c0.5,0,0.9,0.5,0.9,1v3.2c0,0.6-0.4,1-1,1L40.7,182z"/>
		<path class="st1" d="M40.8,177.8l2.9,0.2v3.2l-2.9-0.2V177.8 M40.8,175.8c-0.5,0-1,0.2-1.4,0.5c-0.4,0.4-0.6,0.9-0.6,1.5v3.2
			c0,1.1,0.8,1.9,1.9,2l2.9,0.2h0.1c1.1,0,2-0.9,2-2l0,0V178c0-1.1-0.8-1.9-1.9-2l-2.9-0.2L40.8,175.8z"/>
		<path class="st2" d="M40.8,218.2c-0.6,0-1-0.4-1-1v-36.2c0-0.6,0.4-1,1-1l2.9,0.2c0.5,0,0.9,0.5,0.9,1v36c0,0.6-0.4,1-1,1
			L40.8,218.2z"/>
		<path class="st1" d="M40.8,181.1l2.9,0.2v36h-2.9V181.1 M40.8,179.1c-1.1,0-2,0.9-2,2v36.2c0,1.1,0.9,2,2,2h2.9c1.1,0,2-0.9,2-2
			l0,0v-36c0-1.1-0.8-1.9-1.9-2l-2.9-0.2H40.8z"/>
		<path class="st4" d="M60.8,218.2c-0.6,0-1-0.4-1-1v-36.7c0-0.6,0.4-1,1-1l7.5-0.1c0.3,0,0.5,0.1,0.7,0.3c0.2,0.2,0.3,0.4,0.3,0.7
			v36.8c0,0.6-0.4,1-1,1L60.8,218.2z"/>
		<path class="st1" d="M68.3,180.5v36.8h-7.5v-36.7L68.3,180.5 M68.3,178.5L68.3,178.5l-7.5,0.1c-1.1,0-2,0.9-2,2v36.7
			c0,1.1,0.9,2,2,2h7.5c1.1,0,2-0.9,2-2v-36.8C70.2,179.4,69.3,178.5,68.3,178.5L68.3,178.5z"/>
		<path class="st2" d="M68.2,181.4c-0.5,0-1-0.5-0.9-1v-3.3c0-0.3,0.1-0.5,0.3-0.7c0.2-0.2,0.4-0.3,0.7-0.3l2.7,0.1
			c0.5,0,1,0.5,0.9,1v3.2c0,0.3-0.1,0.5-0.3,0.7c-0.2,0.2-0.4,0.3-0.7,0.3L68.2,181.4z"/>
		<path class="st1" d="M68.3,177.1l2.7,0.1v3.2l-2.7-0.1V177.1 M68.3,175.1c-1.1,0-2,0.9-2,2v3.3c0,1.1,0.8,1.9,1.9,2l2.7,0.1H71
			c1.1,0,2-0.9,2-2v-3.3c0-1.1-0.8-1.9-1.9-2L68.3,175.1L68.3,175.1z"/>
		<path class="st2" d="M68.3,218.2c-0.6,0-1-0.4-1-1v-36.8c0-0.3,0.1-0.5,0.3-0.7c0.2-0.2,0.4-0.3,0.7-0.3l2.7,0.1c0.6,0,1,0.4,1,1
			v36.7c0,0.6-0.4,1-1,1L68.3,218.2z"/>
		<path class="st1" d="M68.3,180.5l2.7,0.1v36.7h-2.7V180.5 M68.3,178.5c-0.5,0-1,0.2-1.4,0.6c-0.4,0.4-0.6,0.9-0.6,1.4v36.8
			c0,1.1,0.9,2,2,2H71c1.1,0,2-0.9,2-2v-36.7c0-1.1-0.8-2-1.9-2L68.3,178.5L68.3,178.5z"/>
		<path class="st4" d="M88.2,218.2c-0.6,0-1-0.4-1-1v-37.4c0-0.6,0.4-1,1-1l7.5-0.1c0.3,0,0.5,0.1,0.7,0.3c0.2,0.2,0.3,0.4,0.3,0.7
			v37.5c0,0.6-0.4,1-1,1H88.2z"/>
		<path class="st1" d="M95.6,179.7v37.5h-7.5v-37.4L95.6,179.7 M95.6,177.7L95.6,177.7l-7.5,0.1c-1.1,0-2,0.9-2,2v37.4
			c0,1.1,0.9,2,2,2h7.5c1.1,0,2-0.9,2-2v-37.5C97.7,178.6,96.8,177.7,95.6,177.7L95.6,177.7z"/>
		<path class="st2" d="M95.6,180.7c-0.6,0-1-0.4-1-1v-3.3c0-0.6,0.4-1,1-1l3.2,0.1c0.6,0,1,0.4,1,1v3.3c0,0.3-0.1,0.5-0.3,0.7
			c-0.2,0.2-0.4,0.3-0.7,0.3L95.6,180.7z"/>
		<path class="st1" d="M95.6,176.3l3,0.1v3.3l-3-0.1V176.3 M95.6,174.3c-1.1,0-2,0.9-2,2v3.3c0,1.1,0.8,2,1.9,2l3,0.1h0.1
			c0.5,0,1-0.2,1.4-0.6c0.4-0.4,0.6-0.9,0.6-1.4v-3.3c0-1.1-0.8-1.9-1.9-2l-3-0.1L95.6,174.3z"/>
		<path class="st2" d="M95.6,218.2c-0.6,0-1-0.4-1-1v-37.5c0-0.6,0.4-1,1-1l3.1,0.1c0.6,0,1,0.4,1,1v37.4c0,0.6-0.4,1-1,1H95.6z"/>
		<path class="st1" d="M95.6,179.7l3,0.1v37.4h-3V179.7 M95.6,177.7c-1.1,0-2,0.9-2,2v37.5c0,1.1,0.9,2,2,2h3c1.1,0,2-0.9,2-2v-37.4
			c0-1.1-0.8-2-1.9-2L95.6,177.7L95.6,177.7z"/>
		<path class="st4" d="M118.5,218.2c-0.6,0-1-0.4-1-1v-37.7c0-0.6,0.4-1,1-1l7.5-0.1c0.3,0,0.5,0.1,0.7,0.3c0.2,0.2,0.3,0.4,0.3,0.7
			v37.9c0,0.6-0.4,1-1,1H118.5z"/>
		<path class="st1" d="M126,179.4v37.9h-7.5v-37.7L126,179.4 M126,177.4L126,177.4l-7.5,0.1c-1.1,0-2,0.9-2,2v37.7c0,1.1,0.9,2,2,2
			h7.5c1.1,0,2-0.9,2-2v-37.9C128,178.3,127.1,177.4,126,177.4L126,177.4z"/>
		<path class="st2" d="M126,180.3c-0.6,0-1-0.4-1-1v-3.4c0-0.3,0.1-0.5,0.3-0.7c0.2-0.2,0.4-0.3,0.7-0.3l2.9,0.1c0.6,0,1,0.4,1,1
			v3.4c0,0.3-0.1,0.5-0.3,0.7c-0.2,0.2-0.4,0.3-0.7,0.3L126,180.3z"/>
		<path class="st1" d="M126,175.9l2.9,0.1v3.4l-2.9-0.1V175.9 M126,173.9c-1.1,0-2,0.9-2,2v3.4c0,1.1,0.8,2,1.9,2l2.8,0.1h0.1
			c1.1,0,2-0.9,2-2v-3.4c0-1.1-0.8-1.9-1.9-2L126,173.9L126,173.9z"/>
		<path class="st2" d="M126,218.2c-0.6,0-1-0.4-1-1v-37.9c0-0.3,0.1-0.5,0.3-0.7c0.2-0.2,0.4-0.3,0.7-0.3l2.9,0.1c0.6,0,1,0.4,1,1
			v37.7c0,0.6-0.4,1-1,1L126,218.2z"/>
		<path class="st1" d="M126,179.4l2.9,0.1v37.7H126V179.4 M126,177.4c-0.5,0-1,0.2-1.4,0.6c-0.4,0.4-0.6,0.9-0.6,1.4v37.9
			c0,1.1,0.9,2,2,2h2.9c1.1,0,2-0.9,2-2v-37.7c0-1.1-0.8-2-1.9-2L126,177.4L126,177.4z"/>
		<path class="st4" d="M148.3,218.2c-0.6,0-1-0.4-1-1v-38.4c0-0.6,0.4-1,1-1l7.5-0.1c0.6,0,1,0.4,1,1v38.6c0,0.6-0.4,1-1,1H148.3z"
			/>
		<path class="st1" d="M155.8,178.7v38.6h-7.5v-38.4L155.8,178.7 M155.8,176.7L155.8,176.7l-7.5,0.1c-1.1,0-2,0.9-2,2v38.4
			c0,1.1,0.9,2,2,2h7.5c1.1,0,2-0.9,2-2v-38.6c0-0.5-0.2-1.1-0.6-1.4C156.8,176.9,156.3,176.7,155.8,176.7z"/>
		<path class="st2" d="M155.7,179.6c-0.5,0-0.9-0.5-0.9-1v-3.4c0-0.3,0.1-0.5,0.3-0.7c0.2-0.2,0.4-0.3,0.7-0.3l2.3,0.1
			c0.5,0,0.9,0.5,0.9,1v3.4c0,0.3-0.1,0.5-0.3,0.7c-0.2,0.2-0.4,0.3-0.7,0.3L155.7,179.6z"/>
		<path class="st1" d="M155.8,175.2l2.2,0.1v3.4l-2.2-0.1V175.2 M155.8,173.2c-0.5,0-1,0.2-1.4,0.5c-0.4,0.4-0.6,0.9-0.6,1.5v3.4
			c0,1.1,0.8,1.9,1.9,2l2.2,0.1h0.1c1.1,0,2-0.9,2-2v-3.4c0-1.1-0.8-1.9-1.9-2l-2.2-0.1H155.8z"/>
		<path class="st2" d="M155.8,218.2c-0.6,0-1-0.4-1-1v-38.6c0-0.3,0.1-0.5,0.3-0.7c0.2-0.2,0.4-0.3,0.7-0.3l2.3,0.1
			c0.5,0,0.9,0.5,0.9,1v38.4c0,0.6-0.4,1-1,1L155.8,218.2z"/>
		<path class="st1" d="M155.8,178.7l2.2,0.1v38.4h-2.2V178.7 M155.8,176.7c-0.5,0-1,0.2-1.4,0.5c-0.4,0.4-0.6,0.9-0.6,1.5v38.6
			c0,1.1,0.9,2,2,2h2.2c1.1,0,2-0.9,2-2v-38.4c0-1.1-0.8-1.9-1.9-2l-2.2-0.1L155.8,176.7z"/>
		<path class="st4" d="M177.4,218.2c-0.6,0-1-0.4-1-1v-38.8c0-0.6,0.4-1,1-1l7.5-0.1c0.3,0,0.5,0.1,0.7,0.3c0.2,0.2,0.3,0.4,0.3,0.7
			v38.9c0,0.6-0.4,1-1,1H177.4z"/>
		<path class="st1" d="M184.9,178.3v38.9h-7.5v-38.8L184.9,178.3 M184.9,176.3L184.9,176.3l-7.5,0.1c-1.1,0-2,0.9-2,2v38.8
			c0,1.1,0.9,2,2,2h7.5c1.1,0,2-0.9,2-2v-38.9C186.8,177.2,185.9,176.3,184.9,176.3L184.9,176.3z"/>
		<path class="st2" d="M184.8,179.3c-0.5,0-1-0.5-0.9-1v-3.5c0-0.3,0.1-0.5,0.3-0.7c0.2-0.2,0.4-0.3,0.7-0.3l2.4,0.1
			c0.5,0,0.9,0.5,0.9,1v3.5c0,0.3-0.1,0.5-0.3,0.7c-0.2,0.2-0.4,0.3-0.7,0.3L184.8,179.3z"/>
		<path class="st1" d="M184.9,174.8l2.3,0.1v3.5l-2.3-0.1V174.8 M184.9,172.8c-0.5,0-1,0.2-1.4,0.5c-0.4,0.4-0.6,0.9-0.6,1.5v3.5
			c0,1.1,0.8,1.9,1.9,2l2.3,0.1h0.1c0.5,0,1-0.2,1.4-0.6c0.4-0.4,0.6-0.9,0.6-1.4v-3.5c0-1.1-0.8-1.9-1.9-2l-2.3-0.1L184.9,172.8z"
			/>
		<path class="st2" d="M184.9,218.2c-0.6,0-1-0.4-1-1v-38.9c0-0.3,0.1-0.5,0.3-0.7c0.2-0.2,0.4-0.3,0.7-0.3l2.4,0.1
			c0.5,0,0.9,0.5,0.9,1v38.8c0,0.6-0.4,1-1,1H184.9z"/>
		<path class="st1" d="M184.9,178.3l2.3,0.1v38.8h-2.3V178.3 M184.9,176.3c-0.5,0-1,0.2-1.4,0.6c-0.4,0.4-0.6,0.9-0.6,1.4v38.9
			c0,1.1,0.9,2,2,2h2.3c1.1,0,2-0.9,2-2v-38.8c0-1.1-0.8-1.9-1.9-2l-2.3-0.1H184.9z"/>
		<path class="st4" d="M209,218.2c-0.6,0-1-0.4-1-1v-39.1c0-0.6,0.4-1,1-1l7.5-0.1c0.6,0,1,0.4,1,1v39.3c0,0.6-0.4,1-1,1H209z"/>
		<path class="st1" d="M216.4,178v39.3H209v-39.1L216.4,178 M216.4,176L216.4,176l-7.5,0.1c-1.1,0-2,0.9-2,2v39.1c0,1.1,0.9,2,2,2
			h7.5c1.1,0,2-0.9,2-2V178c0-0.5-0.2-1-0.6-1.4C217.5,176.2,217,176,216.4,176z"/>
		<path class="st2" d="M216.4,178.9c-0.6,0-1-0.4-1-1v-3.5c0-0.3,0.1-0.5,0.3-0.7c0.2-0.2,0.4-0.3,0.7-0.3l2.3,0.1
			c0.5,0,0.9,0.5,0.9,1v3.5c0,0.3-0.1,0.5-0.3,0.7c-0.2,0.2-0.4,0.3-0.7,0.3L216.4,178.9z"/>
		<path class="st1" d="M216.4,174.5l2.3,0.1v3.5l-2.3-0.1V174.5 M216.4,172.5c-1.1,0-2,0.9-2,2v3.5c0,1.1,0.8,1.9,1.9,2l2.3,0.1h0.1
			c0.5,0,1-0.2,1.4-0.6c0.4-0.4,0.6-0.9,0.6-1.4v-3.5c0-1.1-0.8-1.9-1.9-2l-2.3-0.1H216.4z"/>
		<path class="st2" d="M216.4,218.2c-0.6,0-1-0.4-1-1V178c0-0.3,0.1-0.5,0.3-0.7c0.2-0.2,0.4-0.3,0.7-0.3l2.3,0.1
			c0.5,0,0.9,0.5,0.9,1v39.1c0,0.6-0.4,1-1,1H216.4z"/>
		<path class="st1" d="M216.4,178l2.3,0.1v39.1h-2.3V178 M216.4,176c-1.1,0-2,0.9-2,2v39.3c0,1.1,0.9,2,2,2h2.3c1.1,0,2-0.9,2-2
			v-39.1c0-1.1-0.8-1.9-1.9-2l-2.3-0.1L216.4,176z"/>
		<path class="st4" d="M323.2,258c-0.6,0-1-0.4-1-1v-23.4c0-3.5-1-6-2.7-6.4c-0.4-0.1-0.7-0.5-0.8-0.9c0-0.5,0.3-0.9,0.7-1
			c0.4-0.1,0.7-0.2,1.1-0.2h0.1c3.3,0,5.8,3.7,5.8,8.4V257c0,0.3-0.1,0.5-0.3,0.7c-0.2,0.2-0.4,0.3-0.7,0.3L323.2,258z"/>
		<path class="st1" d="M320.7,226.1c2.7,0,4.8,3.3,4.8,7.4V257h-2.3v-23.4c0-3.7-1.1-6.8-3.5-7.4C320,226.2,320.3,226.1,320.7,226.1
			L320.7,226.1 M320.7,224.1h-0.2c-0.5,0-0.9,0.1-1.4,0.2c-1.1,0.3-1.7,1.4-1.3,2.5c0.2,0.7,0.8,1.2,1.4,1.4
			c1.1,0.3,1.9,2.5,1.9,5.4v23.4c0,1.1,0.9,2,2,2h2.3c1.1,0,2-0.9,2-2v-23.4C327.5,228.2,324.5,224.1,320.7,224.1L320.7,224.1z"/>
		<path class="st4" d="M308.3,259.9c-0.3,0-0.5-0.1-0.7-0.3c-0.2-0.2-0.3-0.4-0.3-0.7v-24.5c0-3.7-1.1-6.3-2.7-6.7
			c-0.5-0.1-0.9-0.7-0.7-1.2c0.1-0.3,0.3-0.6,0.7-0.7c0.4-0.1,0.7-0.2,1.1-0.2h0.1c3.3,0,5.8,3.9,5.8,8.8v24.6c0,0.6-0.4,1-1,1
			L308.3,259.9z"/>
		<path class="st1" d="M305.8,226.5c2.7,0,4.8,3.4,4.8,7.8v24.5l-2.3,0.1v-24.5c0-3.9-1.1-7.1-3.5-7.7
			C305.2,226.6,305.5,226.5,305.8,226.5L305.8,226.5 M305.8,224.5h-0.1c-0.5,0-0.9,0.1-1.4,0.2c-1.1,0.3-1.6,1.4-1.3,2.5
			c0.2,0.7,0.7,1.2,1.4,1.3c1,0.2,2,2.3,2,5.8v24.5c0,1.1,0.9,2,2,2h0.1l2.3-0.1c1.1,0,2-0.9,2-2v-24.6
			C312.7,228.8,309.7,224.5,305.8,224.5z"/>
		<path class="st4" d="M293.2,261.7c-0.6,0-1-0.4-1-1v-25.6c0-4.1-0.9-6.7-2.4-7.1c-0.4-0.1-0.7-0.5-0.7-0.9c0-0.5,0.3-0.9,0.7-1
			c0.4-0.1,0.7-0.2,1.1-0.2h0.1c3.3,0,5.8,4,5.8,9.1v25.7c0,0.3-0.1,0.5-0.3,0.7c-0.2,0.2-0.4,0.3-0.7,0.3H293.2z"/>
		<path class="st1" d="M291,226.9c2.7,0,4.8,3.6,4.8,8.1v25.7h-2.6v-25.6c0-4.1-0.8-7.4-3.1-8C290.3,227,290.6,227,291,226.9
			L291,226.9 M291,225h-0.1c-0.5,0-1,0.1-1.4,0.2c-1.1,0.3-1.6,1.5-1.3,2.5c0.2,0.7,0.7,1.2,1.4,1.3c0.8,0.2,1.7,2.2,1.7,6.1v25.6
			c0,1.1,0.9,2,2,2h2.6l0,0c1.1,0,2-0.9,2-2V235C297.8,229.3,294.9,224.9,291,225L291,225z"/>
		<path class="st4" d="M278,263.6c-0.6,0-1-0.4-1-1v-26.7c0-4.6-0.7-7-2.1-7.4c-0.4-0.1-0.7-0.5-0.7-0.9c0-0.4,0.2-0.9,0.7-1
			c0.4-0.1,0.8-0.2,1.1-0.2h0.1c3.3,0,5.8,4.2,5.8,9.5v26.8c0,0.6-0.4,1-1,1L278,263.6z"/>
		<path class="st1" d="M276.1,227.3c2.7,0,4.8,3.8,4.8,8.5v26.8H278v-26.7c0-4.3-0.5-7.8-2.8-8.4
			C275.5,227.4,275.7,227.4,276.1,227.3L276.1,227.3 M276.1,225.3H276c-0.5,0-1,0.1-1.4,0.3c-1,0.4-1.6,1.5-1.2,2.5
			c0.2,0.6,0.7,1.1,1.4,1.3c0.3,0.1,1.4,0.8,1.4,6.5v26.7c0,1.1,0.9,2,2,2h2.9c1.1,0,2-0.9,2-2v-26.8
			C282.9,229.8,280,225.3,276.1,225.3z"/>
		<path class="st4" d="M262.6,265.3c-0.6,0-1-0.4-1-1v-27.6c0-3.8,0-7.3-1.6-7.8c-0.4-0.1-0.7-0.5-0.7-0.9c0-0.4,0.2-0.8,0.7-1
			c0.4-0.1,0.8-0.2,1.2-0.2h0.1c3.3,0,5.8,4.3,5.8,9.8v27.9c0,0.3-0.1,0.5-0.3,0.7c-0.2,0.2-0.4,0.3-0.7,0.3L262.6,265.3z"/>
		<path class="st1" d="M261.2,227.8c2.7,0,4.8,3.9,4.8,8.8v27.9l-3.4-0.2v-27.6c0-4.4,0-8.1-2.3-8.8
			C260.6,227.8,260.9,227.8,261.2,227.8L261.2,227.8 M261.2,225.8h-0.1c-0.5,0-1,0.1-1.5,0.3c-1,0.4-1.6,1.5-1.2,2.5
			c0.2,0.6,0.7,1.1,1.3,1.3c0.9,0.3,0.9,4.5,0.9,6.8v27.6c0,1.1,0.8,2,1.9,2l3.4,0.2h0.1c0.5,0,1-0.2,1.4-0.6
			c0.4-0.4,0.6-0.9,0.6-1.4v-27.9C268.1,230.4,265.1,225.8,261.2,225.8L261.2,225.8z"/>
		<path class="st2" d="M249.5,267.5c-0.2,0-0.5-0.1-0.7-0.2c-0.2-0.2-0.3-0.5-0.3-0.8v-49.3c0-0.6,0.4-1,1-1h80.7c0.6,0,1,0.4,1,1
			v39.1c0,0.5-0.4,0.9-0.9,1l-4.7,0.6h-0.1c-0.6,0-1-0.4-1-1v-23.4c0-3.5-1.8-6.4-3.8-6.4c-0.2,0-0.4,0-0.6,0.1c-0.1,0-0.2,0-0.3,0
			c-0.1,0-0.2,0-0.2,0c-0.2,0-0.4-0.1-0.5-0.1c-2.2,0.1-4,3.2-4,7v24.3c0,0.5-0.4,0.9-0.9,1l-3.4,0.4h-0.1c-0.2,0-0.5-0.1-0.7-0.2
			c-0.2-0.2-0.3-0.5-0.3-0.8v-24.6c0-3.7-1.8-6.8-3.8-6.8c-0.2,0-0.4,0-0.6,0.1c-0.1,0-0.2,0-0.3,0c-0.1,0-0.2,0-0.2,0
			c-0.2,0-0.4-0.1-0.5-0.1c-2.2,0.1-4,3.4-4,7.3v25.4c0,0.5-0.4,0.9-0.9,1l-3.3,0.4h-0.1c-0.6,0-1-0.4-1-1V235
			c0-3.9-1.8-7.1-3.8-7.1c-0.2,0-0.4,0-0.6,0.1c-0.1,0-0.2,0-0.3,0c-0.1,0-0.2,0-0.3,0c-0.2,0-0.3-0.1-0.5-0.1c-1.9,0.1-4,3.2-4,7.7
			v26.5c0,0.5-0.4,0.9-0.9,1l-3.3,0.4h-0.1c-0.6,0-1-0.4-1-1v-26.8c0-4.5-2-7.5-3.8-7.5c-0.2,0-0.4,0-0.6,0.1c-0.1,0-0.2,0-0.3,0
			c-0.1,0-0.2,0-0.3,0c-0.2,0-0.3-0.1-0.5-0.1c-1.9,0-4,3.4-4,8V264c0,0.5-0.4,0.9-0.9,1l-3.3,0.4H266c-0.2,0-0.5-0.1-0.7-0.2
			c-0.2-0.2-0.3-0.5-0.3-0.8v-27.9c0-4.7-2-7.8-3.8-7.8c-0.2,0-0.4,0-0.6,0.1c-0.1,0-0.2,0.1-0.3,0.1c-0.1,0-0.2,0-0.3,0
			c-0.2-0.1-0.3-0.1-0.5-0.1c-1.9,0-4,3.5-4,8.4v28.7c0,0.5-0.4,0.9-0.9,1L249.5,267.5L249.5,267.5z"/>
		<path class="st1" d="M330.2,217.2v39.1l-4.7,0.6v-23.4c0-4.1-2.2-7.4-4.8-7.4h-0.1c-0.3,0-0.6,0.1-0.8,0.1
			c-0.3-0.1-0.5-0.1-0.8-0.1h-0.1c-2.7,0.1-4.9,3.6-4.9,8v24.3l-3.3,0.4v-24.6c0-4.3-2.2-7.8-4.8-7.8h-0.1c-0.3,0-0.6,0.1-0.9,0.1
			c-0.3-0.1-0.5-0.1-0.8-0.1h-0.1c-2.7,0.1-4.9,3.8-4.9,8.3v25.4l-3.3,0.4V235c0-4.5-2.2-8.1-4.8-8.1h-0.1c-0.3,0-0.6,0.1-0.8,0.2
			c-0.3-0.1-0.5-0.1-0.8-0.1h-0.1c-2.7,0.1-4.9,4-4.9,8.7v26.5l-3.4,0.4v-26.8c0-4.7-2.1-8.5-4.8-8.5H276c-0.3,0-0.6,0.1-0.9,0.2
			c-0.3-0.1-0.5-0.1-0.8-0.1h-0.1c-2.7,0.1-4.9,4.1-4.9,9V264l-3.3,0.4v-27.9c0-4.9-2.2-8.8-4.8-8.8h-0.1c-0.5,0.2-1.1,0.2-1.6,0
			h-0.1c-2.7,0.1-4.9,4.3-4.9,9.4v28.7l-5,0.6v-49.3H330.2 M330.3,215.2h-80.8c-1.1,0-2,0.9-2,2v49.3c0,1.1,0.9,2,2,2h0.2l5-0.6
			c1-0.1,1.8-1,1.8-2v-28.7c0-4.4,1.8-7.3,3-7.4l0,0c0.1,0,0.2,0,0.2,0c0.2,0.1,0.4,0.1,0.6,0.1c0.2,0,0.4,0,0.7-0.1
			c0.1,0,0.2-0.1,0.2-0.1c1.1,0,2.9,2.7,2.9,6.8v27.9c0,1.1,0.9,2,2,2h0.2l3.4-0.4c1-0.1,1.8-1,1.8-2v-27.6c0-4.2,1.8-7,3-7l0,0
			c0.1,0,0.2,0,0.2,0c0.4,0.1,0.8,0.1,1.2,0c0.1,0,0.2-0.1,0.3-0.1l0,0c1.2,0,2.8,2.5,2.8,6.5v26.8c0,1.1,0.9,2,2,2h0.2l3.4-0.4
			c1-0.1,1.8-1,1.8-2v-26.6c0-4,1.8-6.6,3-6.7l0,0c0.1,0,0.2,0,0.3,0c0.2,0,0.4,0.1,0.5,0.1c0.2,0,0.4,0,0.6-0.1
			c0.1,0,0.2-0.1,0.3-0.1l0,0c1.2,0,2.8,2.4,2.8,6.1v25.7c0,1.1,0.9,2,2,2h0.2l3.4-0.4c1-0.1,1.8-1,1.8-2v-25.4c0-3.8,1.8-6.3,3-6.3
			l0,0c0.1,0,0.2,0,0.3,0.1c0.4,0.1,0.7,0.1,1.1,0c0.1,0,0.2-0.1,0.3-0.1l0,0c1.2,0,2.9,2.2,2.9,5.8v24.6c0,1.1,0.9,2,2,2h0.2
			l3.3-0.4c1-0.1,1.8-1,1.8-2v-24.3c0-3.3,1.6-5.9,3-6l0,0c0.1,0,0.2,0,0.3,0c0.2,0,0.3,0.1,0.5,0.1c0.2,0,0.4,0,0.6-0.1
			c0.1,0,0.2-0.1,0.3-0.1l0,0c1.4,0,2.9,2.3,2.9,5.4V257c0,0.6,0.2,1.1,0.7,1.5c0.4,0.3,0.8,0.5,1.3,0.5h0.1l4.7-0.6
			c1-0.1,1.8-1,1.8-2v-39.1C332.2,216.1,331.3,215.2,330.3,215.2L330.3,215.2z"/>
		<path class="st2" d="M220.3,266.6c-0.3,0-0.5-0.1-0.7-0.3c-0.2-0.2-0.3-0.4-0.3-0.7V237c0-5.6,4.3-10.1,9.5-10.1
			c0.6,0,1.2,0.1,1.7,0.2c0.5,0.1,0.8,0.5,0.8,1c0,0.5-0.3,0.9-0.8,1c-3.7,0.8-6.4,4.2-6.3,8v28.4c0,0.6-0.4,1-1,1L220.3,266.6z"/>
		<path class="st1" d="M228.9,227.9L228.9,227.9c0.6,0,1.1,0.1,1.5,0.2c-4.2,0.9-7.2,4.7-7.1,9v28.4h-3V237
			C220.3,232,224.1,227.9,228.9,227.9 M228.8,225.9c-5.8,0-10.5,5-10.5,11.1v28.5c0,1.1,0.9,2,2,2l0,0h3c1.1,0,2-0.9,2-2v-28.5
			c-0.1-3.3,2.2-6.3,5.4-7c1.1-0.2,1.8-1.3,1.6-2.3c-0.2-0.8-0.8-1.4-1.6-1.6C230.1,226,229.5,225.9,228.8,225.9L228.8,225.9z"/>
		<path class="st2" d="M194.3,265.7c-0.6,0-1-0.4-1-1v-28c-0.1-5.4,4.1-9.8,9.5-9.9c0.6,0,1.2,0.1,1.7,0.2c0.6,0,1,0.4,1,1
			c0,0.6-0.4,1-1,1c-3.7,0.7-6.4,4.1-6.3,7.9v28.1c0,0.6-0.4,1-1,1L194.3,265.7z"/>
		<path class="st1" d="M202.9,227.7L202.9,227.7c0.6,0,1.1,0.1,1.6,0.1c-4.2,0.8-7.2,4.6-7.1,8.8v28.1l-3-0.1v-28
			C194.2,231.9,198,227.9,202.9,227.7C202.8,227.7,202.8,227.7,202.9,227.7 M202.8,225.7c-5.9,0.1-10.6,5-10.5,11v28
			c0,1.1,0.9,2,1.9,2l3,0.1h0.1c1.1,0,2-0.9,2-2v-28.1c-0.1-3.3,2.2-6.2,5.4-6.9c1.1-0.2,1.8-1.3,1.6-2.3c-0.2-0.8-0.8-1.4-1.6-1.6
			C204.2,225.8,203.5,225.7,202.8,225.7L202.8,225.7z"/>
		<path class="st2" d="M168.4,264.8c-0.6,0-1-0.4-1-1v-27.5c-0.1-5.3,4.2-9.7,9.5-9.8c0.6,0,1.2,0.1,1.7,0.2c0.5,0.1,0.8,0.5,0.8,1
			c0,0.5-0.3,0.9-0.8,1c-3.7,0.7-6.3,3.9-6.3,7.7v27.4c0,0.6-0.4,1-1,1L168.4,264.8z"/>
		<path class="st1" d="M176.9,227.5L176.9,227.5c0.6,0,1.1,0.1,1.5,0.1c-4.2,0.8-7.1,4.4-7.1,8.7v27.4h-3v-27.4
			C168.3,231.6,172.1,227.6,176.9,227.5C176.9,227.5,176.9,227.5,176.9,227.5 M176.9,225.5c-5.9,0.1-10.6,4.9-10.5,10.8v27.5
			c0,0.5,0.2,1.1,0.6,1.4c0.4,0.4,0.9,0.6,1.4,0.6l0,0h3c1.1,0,2-0.9,2-2v-27.5c-0.1-3.3,2.2-6.1,5.4-6.7c1.1-0.2,1.8-1.2,1.6-2.3
			c-0.1-0.8-0.8-1.5-1.6-1.6C178.2,225.6,177.6,225.5,176.9,225.5L176.9,225.5z"/>
		<path class="st2" d="M142.4,263.9c-0.3,0-0.5-0.1-0.7-0.3c-0.2-0.2-0.3-0.4-0.3-0.7v-27c0-5.3,4.2-9.6,9.5-9.6
			c0.6,0,1.2,0.1,1.7,0.2c0.5,0.1,0.8,0.5,0.8,1c0,0.5-0.3,0.9-0.8,1c-3.6,0.6-6.3,3.8-6.3,7.5v26.9c0,0.6-0.4,1-1,1L142.4,263.9z"
			/>
		<path class="st1" d="M151,227.3L151,227.3c0.6,0,1.1,0.1,1.5,0.1c-4.1,0.7-7.1,4.3-7.1,8.5v26.9l-3,0.1v-27
			C142.4,231.2,146.2,227.3,151,227.3C150.9,227.3,150.9,227.3,151,227.3 M150.9,225.3c-5.8,0-10.5,4.8-10.5,10.6v27
			c0,1.1,0.9,2,2,2l0,0l3,0c1.1,0,2-0.9,2-2V236c0-3.2,2.3-6,5.4-6.5c1.1-0.2,1.8-1.2,1.6-2.3c-0.1-0.8-0.8-1.5-1.6-1.6
			C152.2,225.4,151.6,225.4,150.9,225.3L150.9,225.3z"/>
		<path class="st2" d="M116.5,263.1c-0.6,0-1-0.4-1-1v-26.5c0-5.2,4.3-9.5,9.5-9.5c0.6,0,1.2,0.1,1.7,0.2c0.5,0.1,0.8,0.5,0.8,1
			c0,0.5-0.4,0.9-0.8,1c-3.6,0.6-6.3,3.7-6.3,7.4v26.2c0,0.5-0.4,1-0.9,1L116.5,263.1z"/>
		<path class="st1" d="M125,227.1L125,227.1c0.6,0,1.1,0.1,1.5,0.1c-4.1,0.7-7.1,4.2-7.1,8.3v26.2l-3,0.2v-26.5
			C116.5,230.9,120.3,227.1,125,227.1C124.9,227.1,124.9,227.1,125,227.1 M125,225.1c-5.8,0-10.5,4.7-10.5,10.5v26.5
			c0,1.1,0.9,2,2,2h0.1l3-0.2c1-0.1,1.9-0.9,1.9-2v-26.2c0-3.2,2.3-5.9,5.4-6.4c1.1-0.2,1.8-1.2,1.6-2.3c-0.1-0.8-0.8-1.5-1.6-1.6
			C126.3,225.2,125.7,225.2,125,225.1L125,225.1z"/>
		<path class="st2" d="M90.5,262.2c-0.3,0-0.5-0.1-0.7-0.3c-0.2-0.2-0.3-0.5-0.3-0.7v-26c0.1-5.2,4.3-9.3,9.5-9.3
			c0.6,0,1.2,0.1,1.7,0.2c0.6,0,1,0.4,1,1c0,0.6-0.4,1-1,1c-3.6,0.5-6.2,3.6-6.2,7.2v25.6c0,0.5-0.4,0.9-0.9,1L90.5,262.2
			L90.5,262.2z"/>
		<path class="st1" d="M99,227L99,227c0.6,0,1.1,0.1,1.6,0.1c-4,0.6-7.1,4.1-7.1,8.2v25.6l-3,0.3v-26C90.5,230.6,94.3,226.9,99,227
			C99,227,99,227,99,227 M99,225c-5.7-0.1-10.4,4.5-10.5,10.3v26c0,0.6,0.2,1.1,0.7,1.5c0.4,0.3,0.9,0.5,1.3,0.5h0.2l3-0.3
			c1-0.1,1.8-1,1.8-2v-25.6c0-3.1,2.3-5.8,5.4-6.2c1.1-0.2,1.8-1.2,1.6-2.3c-0.1-0.8-0.8-1.5-1.6-1.6C100.3,225,99.7,225,99,225
			L99,225z"/>
		<path class="st2" d="M64.6,261.3c-0.2,0-0.5-0.1-0.7-0.3c-0.2-0.2-0.3-0.5-0.3-0.7v-25.4c0.1-5.1,4.4-9.2,9.5-9.1
			c0.6,0,1.2,0.1,1.7,0.2c0.6,0,1,0.4,1,1c0,0.6-0.4,1-1,1c-3.5,0.5-6.2,3.4-6.2,7V260c0,0.5-0.4,1-0.9,1L64.6,261.3L64.6,261.3z"/>
		<path class="st1" d="M73.1,226.8L73.1,226.8c0.6,0,1.1,0.1,1.5,0.1c-4,0.6-7,4-7.1,8V260l-3,0.3v-25.4
			C64.6,230.3,68.4,226.7,73.1,226.8C73,226.8,73,226.8,73.1,226.8 M73,224.8c-5.7-0.1-10.4,4.4-10.5,10.1v25.4c0,1.1,0.9,2,2,2h0.2
			l3-0.3c1-0.1,1.8-1,1.8-2v-25.1c0.1-3.1,2.4-5.6,5.4-6c1.1,0,2-0.9,2-2c0-1.1-0.9-2-2-2c-0.6-0.1-1.2-0.2-1.8-0.2H73z"/>
		<path class="st2" d="M38.6,260.5c-0.2,0-0.5-0.1-0.7-0.3c-0.2-0.2-0.3-0.5-0.3-0.7v-24.9c0.2-5.1,4.4-9.1,9.5-8.9
			c0.6,0,1.2,0,1.7,0.1c0.6,0,1,0.4,1,1c0,0.6-0.4,1-1,1c-3.5,0.4-6.1,3.3-6.2,6.9v24.6c0,0.5-0.4,1-0.9,1L38.6,260.5L38.6,260.5z"
			/>
		<path class="st1" d="M47.1,226.6L47.1,226.6c0.6,0,1.1,0,1.6,0.1c-4,0.5-7,3.8-7.1,7.9v24.6l-3,0.3v-24.9
			C38.7,230,42.5,226.4,47.1,226.6C47,226.6,47.1,226.6,47.1,226.6 M47.1,224.6c-5.6-0.1-10.3,4.3-10.5,9.9v24.9c0,1.1,0.9,2,2,2
			h0.2l3-0.3c1-0.1,1.8-1,1.8-2v-24.6c0.1-3,2.4-5.5,5.4-5.9c1.1-0.2,1.8-1.2,1.6-2.3c-0.1-0.8-0.8-1.5-1.6-1.6
			c-0.6-0.1-1.2-0.2-1.8-0.2L47.1,224.6z"/>
		<path class="st4" d="M240.4,267.2c-0.6,0-1-0.4-1-1v-28.9c0-4.6-3.4-8.3-7.6-8.4l0,0c-0.4,0-0.9,0-1.3,0.1h-0.2h-0.2
			c-0.4-0.1-0.9-0.1-1.3-0.1c-4.3,0.2-7.7,3.8-7.6,8.1v28.5c0,0.6-0.4,1-1,1l-5.9-0.2c-0.6,0-1-0.4-1-1V237c0-4.5-3.4-8.2-7.6-8.2
			l0,0c-0.4,0-0.9,0-1.3,0.1h-0.4c-0.4-0.1-0.9-0.1-1.3-0.1c-4.3,0.1-7.7,3.6-7.6,7.9c0,0,0,0,0,0v28c0,0.3-0.1,0.5-0.3,0.7
			c-0.2,0.2-0.4,0.3-0.7,0.3l-5.9-0.2c-0.6,0-1-0.4-1-1v-27.9c0.1-4.3-3.3-7.8-7.6-8l0,0c-0.4,0-0.9,0-1.3,0.1h-0.2h-0.2
			c-0.4-0.1-0.9-0.1-1.3-0.1c-4.2,0.1-7.6,3.5-7.6,7.8c0,0,0,0,0,0v27.5c0,0.3-0.1,0.5-0.3,0.7c-0.2,0.2-0.4,0.3-0.7,0.3l-5.9-0.2
			c-0.6,0-1-0.4-1-1v-27.4c0.1-4.3-3.3-7.8-7.6-7.9l0,0c-0.4,0-0.9,0-1.3,0.1h-0.2h-0.2c-0.4-0.1-0.9-0.1-1.3-0.1
			c-4.2,0-7.6,3.4-7.6,7.6c0,0,0,0,0,0v27c0,0.3-0.1,0.5-0.3,0.7c-0.2,0.2-0.4,0.3-0.7,0.3l-5.9-0.2c-0.6,0-1-0.4-1-1v-26.9
			c0-4.2-3.4-7.6-7.6-7.7l0,0c-0.4,0-0.9,0-1.3,0.1h-0.2h-0.2c-0.4-0.1-0.9-0.1-1.3-0.1c-4.1,0-7.5,3.3-7.6,7.4c0,0,0,0,0,0v26.5
			c0,0.3-0.1,0.5-0.3,0.7c-0.2,0.2-0.4,0.3-0.7,0.3l-5.9-0.2c-0.6,0-1-0.4-1-1v-26.3c0-4.2-3.4-7.5-7.6-7.5l0,0
			c-0.4,0-0.9,0-1.3,0.1h-0.2h-0.2c-0.4-0.1-0.9-0.1-1.3-0.1c-4.1-0.1-7.5,3.2-7.6,7.3c0,0,0,0,0,0v26c0,0.3-0.1,0.5-0.3,0.7
			c-0.2,0.2-0.4,0.3-0.7,0.3l-5.9-0.2c-0.6,0-1-0.4-1-1v-25.8c-0.1-4.1-3.5-7.4-7.6-7.4l0,0c-0.4,0-0.9,0-1.3,0.1h-0.3
			c-0.4-0.1-0.9-0.1-1.3-0.1c-4.1-0.1-7.4,3.1-7.6,7.1c0,0,0,0,0,0v25.4c0,0.6-0.4,1-1,1l-5.9-0.2c-0.6,0-1-0.4-1-1v-25.3
			c-0.1-4.1-3.5-7.3-7.6-7.2l0,0c-0.4,0-0.9,0-1.3,0.1h-0.1h-0.2c-0.4-0.1-0.9-0.1-1.3-0.1c-4.2,0-7.6,3.1-7.6,6.9v24.9
			c0,0.3-0.1,0.5-0.3,0.7c-0.2,0.2-0.4,0.3-0.7,0.3l-8.6-0.3c-0.6,0-1-0.4-1-1v-41.9c0-0.6,0.4-1,1-1h219.7c0.6,0,1,0.4,1,1v49.3
			c0,0.6-0.4,1-1,1L240.4,267.2z"/>
		<path class="st1" d="M249.5,217.2v49.3l-9.1-0.3v-28.9c0-5.1-3.8-9.3-8.6-9.4l0,0c-0.5,0-1,0-1.4,0.1c-0.5-0.1-1-0.2-1.5-0.2h-0.1
			c-4.7,0-8.5,4.1-8.5,9.1v28.5l-5.9-0.2V237c0.1-4.9-3.7-9-8.6-9.2l0,0c-0.5,0-1,0-1.4,0.1c-0.5-0.1-1-0.1-1.5-0.1H203
			c-4.8,0.1-8.6,4.1-8.5,8.9c0,0,0,0,0,0v28l-5.9-0.2v-27.9c0.1-4.8-3.7-8.8-8.6-9H180c-0.5,0-1,0-1.4,0.1c-0.5-0.1-1-0.1-1.5-0.1
			H177c-4.8,0.1-8.6,4-8.5,8.7c0,0,0,0,0,0v27.5l-5.9-0.2v-27.4c0.1-4.8-3.8-8.8-8.6-8.9l0,0c-0.5,0-1,0-1.4,0.1
			c-0.5-0.1-1-0.1-1.5-0.1h-0.1c-4.7,0-8.5,3.9-8.5,8.6c0,0,0,0,0,0v27l-5.8-0.2v-26.9c0-4.8-3.8-8.6-8.6-8.7h-0.1
			c-0.5,0-1,0-1.4,0.1c-0.5-0.1-1-0.1-1.5-0.1h-0.1c-4.7,0-8.5,3.8-8.5,8.4c0,0,0,0,0,0v26.4l-5.8-0.2v-26.3c0-4.7-3.9-8.5-8.6-8.5
			h-0.1c-0.5,0-1,0-1.4,0.1c-0.5-0.1-1-0.1-1.5-0.1h-0.1c-4.6-0.1-8.4,3.6-8.5,8.3c0,0,0,0,0,0v25.9l-5.8-0.2v-25.8
			c-0.1-4.7-3.9-8.4-8.6-8.4l0,0c-0.5,0-1,0-1.4,0.1c-0.5-0.1-1-0.1-1.5-0.1h-0.1c-4.6-0.1-8.4,3.5-8.5,8.1c0,0,0,0,0,0v25.4
			l-5.8-0.2v-25.3c-0.1-4.6-3.9-8.3-8.6-8.2h-0.3c-0.5,0-1,0-1.4,0.1c-0.5-0.1-1-0.1-1.5-0.1h-0.1c-4.5-0.2-8.3,3.4-8.5,7.9
			c0,0,0,0,0,0v24.9l-8.8-0.3v-41.9H249.5 M249.5,215.2H29.8c-1.1,0-2,0.9-2,2v41.9c0,1.1,0.9,2,1.9,2l8.8,0.3h0.1
			c0.5,0,1-0.2,1.4-0.6c0.4-0.4,0.6-0.9,0.6-1.4v-24.9c0.2-3.4,3.1-6.1,6.5-5.9h0.1c0.4,0,0.8,0,1.2,0.1c0.1,0,0.2,0,0.3,0H49
			c0.4-0.1,0.7-0.1,1.1-0.1c3.5-0.1,6.5,2.7,6.6,6.2v25.3c0,1.1,0.9,2,1.9,2l5.8,0.2h0.1c0.5,0,1-0.2,1.4-0.6
			c0.4-0.4,0.6-0.9,0.6-1.4v-25.4c0.1-3.5,3-6.2,6.5-6.1h0c0.4,0,0.8,0,1.2,0.1c0.1,0,0.2,0,0.3,0h0.3c0.4-0.1,0.7-0.1,1.1-0.1
			c3.6-0.1,6.5,2.8,6.6,6.4V261c0,1.1,0.9,2,1.9,2l5.8,0.2h0.1c0.5,0,1-0.2,1.4-0.6c0.4-0.4,0.6-0.9,0.6-1.4v-25.9
			c0.1-3.5,3-6.3,6.5-6.3h0.1c0.4,0,0.8,0,1.1,0.1h0.3h0.3c0.4-0.1,0.7-0.1,1.1-0.1c3.6,0,6.6,2.9,6.6,6.5v26.3c0,1.1,0.9,2,1.9,2
			l5.8,0.2h0.1c0.5,0,1-0.2,1.4-0.6c0.4-0.4,0.6-0.9,0.6-1.4v-26.4c0-3.6,2.9-6.5,6.5-6.5l0,0c0.4,0,0.8,0,1.1,0.1
			c0.1,0,0.2,0,0.4,0c0.1,0,0.2,0,0.3,0c0.4-0.1,0.7-0.1,1.1-0.1c3.7,0,6.6,3,6.6,6.7v26.9c0,1.1,0.9,2,1.9,2l5.8,0.2h0.1
			c0.5,0,1-0.2,1.4-0.6c0.4-0.4,0.6-0.9,0.6-1.4v-27c0-3.6,2.9-6.6,6.5-6.6c0.4,0,0.8,0,1.2,0.1c0.1,0,0.2,0,0.4,0
			c0.1,0,0.2,0,0.3,0c0.4-0.1,0.7-0.1,1.1-0.1c3.7,0.1,6.7,3.1,6.6,6.9v27.4c0,1.1,0.9,2,1.9,2l5.9,0.2h0.1c1.1,0,2-0.9,2-2v-27.4
			c-0.1-3.7,2.8-6.7,6.5-6.8c0.4,0,0.8,0,1.2,0.1c0.1,0,0.2,0,0.4,0c0.1,0,0.2,0,0.4,0c0.4-0.1,0.7-0.1,1.1-0.1
			c3.8,0.1,6.7,3.2,6.6,7v27.9c0,1.1,0.9,2,1.9,2l5.9,0.2h0.1c1.1,0,2-0.9,2-2v-28c-0.1-3.7,2.8-6.8,6.5-6.9c0.4,0,0.8,0,1.2,0.1
			c0.1,0,0.3,0,0.4,0h0.4c0.4-0.1,0.7-0.1,1.1-0.1c3.8,0.2,6.7,3.4,6.6,7.2v28.4c0,1.1,0.9,2,1.9,2l5.8,0.2h0.1c0.5,0,1-0.2,1.4-0.6
			c0.4-0.4,0.6-0.9,0.6-1.4V237c0-3.9,2.9-7.1,6.5-7.1c0.4,0,0.8,0,1.2,0.1c0.1,0,0.3,0,0.4,0c0.1,0,0.2,0,0.4,0
			c0.4-0.1,0.7-0.1,1.1-0.1c3.7,0,6.6,3.3,6.6,7.4v28.9c0,1.1,0.9,2,1.9,2l9.1,0.3h0.1c0.5,0,1-0.2,1.4-0.6c0.4-0.4,0.6-0.9,0.6-1.4
			v-49.3C251.5,216.1,250.6,215.2,249.5,215.2L249.5,215.2z"/>
		<path class="st2" d="M249.5,243.8c-0.6,0-1-0.4-1-1v-4.3c0-0.5,0.4-1,0.9-1l5.1-0.3c0.6,0,1,0.4,1,1v4.3c0,0.5-0.4,1-0.9,1
			L249.5,243.8z"/>
		<path class="st1" d="M254.6,238.2v4.3l-5,0.3v-4.3L254.6,238.2 M254.6,236.2h-0.1l-5.1,0.3c-1.1,0.1-1.9,0.9-1.9,2v4.4
			c0,1.1,0.9,2,2,2h0.1l5-0.3c1.1-0.1,1.9-0.9,1.9-2v-4.3c0-0.5-0.2-1.1-0.6-1.5C255.5,236.4,255,236.2,254.6,236.2L254.6,236.2z"/>
		<path class="st2" d="M310.7,239.8c-0.3,0-0.5-0.1-0.7-0.3c-0.2-0.2-0.3-0.5-0.3-0.7v-3.7c0-0.5,0.4-1,0.9-1l3.4-0.2
			c0.3,0,0.5,0.1,0.7,0.3c0.2,0.2,0.3,0.4,0.3,0.7v3.6c0,0.5-0.4,1-0.9,1L310.7,239.8z"/>
		<path class="st1" d="M314,235v3.6l-3.3,0.2v-3.7L314,235 M314,233h-0.1l-3.3,0.2c-1.1,0.1-1.9,0.9-1.9,2v3.7
			c0,0.6,0.2,1.1,0.6,1.5c0.4,0.3,0.9,0.5,1.4,0.5h0.1l3.3-0.2c1.1-0.1,1.9-0.9,1.9-2V235c0-0.5-0.2-1.1-0.6-1.5
			C315,233.1,314.5,232.9,314,233L314,233z"/>
		<path class="st0" d="M308.3,239.8c-0.6,0-1-0.4-1-1v-3.7c0-0.6,0.4-1,1-1h0.7c0.6,0,1,0.4,1,1v3.7c0,0.6-0.4,1-1,1L308.3,239.8z"
			/>
		<path class="st1" d="M308.3,235.1h0.6v3.7h-0.6V235.1 M308.3,233.1c-1.1,0-2,0.9-2,2v3.7c0,1.1,0.9,2,2,2h0.6c1.1,0,2-0.9,2-2
			v-3.7c0-1.1-0.8-2-1.9-2L308.3,233.1L308.3,233.1z"/>
		<path class="st2" d="M295.8,240.8c-0.6,0-1-0.4-1-1v-3.8c0-0.6,0.4-1,1-1l3.4-0.2c0.6,0,1,0.4,1,1v3.8c0,0.5-0.4,1-0.9,1
			L295.8,240.8z"/>
		<path class="st1" d="M299.1,235.8v3.8l-3.4,0.2v-3.8L299.1,235.8 M299.1,233.8H299l-3.3,0.2c-1.1,0.1-1.9,0.9-1.9,2v3.8
			c0,0.6,0.2,1.1,0.6,1.5c0.4,0.3,0.9,0.5,1.4,0.5h0.1l3.3-0.2c1.1-0.1,1.9-0.9,1.9-2v-3.8c0-0.5-0.2-1.1-0.6-1.4
			C300.1,233.9,299.7,233.7,299.1,233.8L299.1,233.8z"/>
		<path class="st0" d="M293.1,240.7c-0.5,0-0.9-0.5-0.9-1v-3.9c0-0.3,0.1-0.6,0.3-0.8c0.2-0.2,0.4-0.3,0.7-0.2h0.1l0.8,0.1
			c0.5,0.1,0.9,0.5,0.9,1v3.8c0,0.3-0.1,0.5-0.3,0.7c-0.2,0.2-0.4,0.3-0.7,0.3L293.1,240.7z"/>
		<path class="st1" d="M293.2,235.9l0.8,0.1v3.8l-0.8-0.1V235.9 M293.2,233.9c-1.1,0-2,0.9-2,2v3.9c0,1,0.8,1.9,1.9,2l0.8,0.1h0.2
			c0.5,0,1-0.2,1.4-0.5c0.4-0.4,0.6-0.9,0.6-1.5v-3.8c0-1-0.8-1.9-1.8-2l-0.8-0.1H293.2z"/>
		<path class="st2" d="M280.9,241.7c-0.3,0-0.5-0.1-0.7-0.3c-0.2-0.2-0.3-0.5-0.3-0.7v-4c0-0.6,0.4-1,1-1l3.4-0.2c0.6,0,1,0.4,1,1v4
			c0,0.5-0.4,1-0.9,1L280.9,241.7z"/>
		<path class="st1" d="M284.3,236.5v4l-3.4,0.2v-4L284.3,236.5 M284.3,234.6h-0.1l-3.3,0.2c-1.1,0.1-1.9,0.9-1.9,2v4
			c0,1.1,0.9,2,2,2h0.1l3.3-0.2c1.1-0.1,1.9-0.9,1.9-2v-4C286.3,235.4,285.4,234.5,284.3,234.6L284.3,234.6z"/>
		<path class="st0" d="M278,241.7c-0.6,0-1-0.4-1-1v-4c0-0.3,0.1-0.5,0.3-0.7c0.2-0.2,0.4-0.3,0.7-0.3l1,0.1c0.5,0,0.9,0.5,0.9,1v4
			c0,0.3-0.1,0.5-0.3,0.7c-0.2,0.2-0.4,0.3-0.7,0.3L278,241.7z"/>
		<path class="st1" d="M278,236.7l0.9,0.1v4H278V236.7 M278,234.7c-0.5,0-1,0.2-1.4,0.5c-0.4,0.4-0.6,0.9-0.6,1.5v4
			c0,1.1,0.8,2,1.9,2h0.9h0.1c0.5,0,1-0.2,1.4-0.6c0.4-0.4,0.6-0.9,0.6-1.4v-4c0-1-0.8-1.9-1.9-2l-0.9-0.1L278,234.7z"/>
		<path class="st2" d="M266.1,242.7c-0.3,0-0.5-0.1-0.7-0.3c-0.2-0.2-0.3-0.5-0.3-0.7v-4.2c0-0.5,0.4-1,1-1l3.4-0.2c0.6,0,1,0.4,1,1
			v4.1c0,0.5-0.4,1-0.9,1L266.1,242.7z"/>
		<path class="st1" d="M269.4,237.4v4.1l-3.3,0.2v-4.2L269.4,237.4 M269.4,235.3h-0.1l-3.4,0.2c-1.1,0.1-1.9,0.9-1.9,2v4.2
			c0,1.1,0.9,2,2,2h0.1l3.3-0.2c1.1-0.1,1.9-0.9,1.9-2v-4.1C271.4,236.3,270.5,235.4,269.4,235.3L269.4,235.3z"/>
		<path class="st0" d="M262.6,242.5c-0.6,0-1-0.4-1-1v-4.1c0-0.6,0.4-1,1-1h1.2c0.6,0,1,0.4,1,1v4.2c0,0.3-0.1,0.5-0.3,0.7
			c-0.2,0.2-0.4,0.3-0.7,0.3L262.6,242.5z"/>
		<path class="st1" d="M262.6,237.5h1.2v4.2l-1.2,0V237.5 M262.6,235.5c-0.5,0-1,0.2-1.4,0.6c-0.4,0.4-0.6,0.9-0.6,1.4v4.1
			c0,1.1,0.8,2,1.9,2l1.2,0.1h0.1c0.5,0,1-0.2,1.4-0.5c0.4-0.4,0.6-0.9,0.6-1.5v-4.2c0-1.1-0.9-2-2-2H262.6L262.6,235.5z"/>
		<path class="st0" d="M214.5,243.4c-0.6,0-1-0.4-1-1v-4.3c0-0.3,0.1-0.5,0.3-0.7c0.2-0.2,0.4-0.3,0.7-0.3l8.8,0.1c0.6,0,1,0.4,1,1
			v4.3c0,0.3-0.1,0.5-0.3,0.7c-0.2,0.2-0.4,0.3-0.7,0.3L214.5,243.4z"/>
		<path class="st1" d="M214.5,238.1l8.8,0.1v4.3l-8.8-0.1L214.5,238.1 M214.5,236.1c-1.1,0-2,0.9-2,2v4.3c0,1.1,0.9,2,2,2l8.8,0.1
			l0,0c1.1,0,2-0.9,2-2v-4.3c0-1.1-0.9-2-2-2L214.5,236.1z"/>
		<path class="st2" d="M222.3,243.5c-0.6,0-1-0.4-1-1v-4.3c0-0.6,0.4-1,1-1h1c0.6,0,1,0.4,1,1v4.3c0,0.3-0.1,0.5-0.3,0.7
			c-0.2,0.2-0.4,0.3-0.7,0.3H222.3z"/>
		<path class="st1" d="M222.4,238.1h0.9v4.3h-0.9V238.1 M222.4,236.2c-1.1,0-2,0.9-2,2v4.3c0,1.1,0.8,2,1.9,2h0.9h0.1
			c1.1,0,2-0.9,2-2v-4.3c0-1.1-0.9-2-1.9-2L222.4,236.2L222.4,236.2z"/>
		<path class="st0" d="M188.5,243.1c-0.6,0-1-0.4-1-1v-4.2c0-0.6,0.4-1,1-1l8.8,0.1c0.6,0,1,0.4,1,1v4.3c0,0.6-0.4,1-1,1
			L188.5,243.1z"/>
		<path class="st1" d="M188.5,237.8h8.8v4.3l-8.8-0.1V237.8 M188.5,235.8c-1.1,0-2,0.9-2,2v4.2c0,1.1,0.9,2,2,2l8.8,0.1l0,0
			c1.1,0,2-0.9,2-2v-4.3c0-1.1-0.9-2-2-2L188.5,235.8L188.5,235.8z"/>
		<path class="st2" d="M196.4,243.1c-0.6,0-1-0.4-1-1v-4.3c0-0.6,0.4-1,1-1h1c0.6,0,1,0.4,1,1v4.3c0,0.6-0.4,1-1,1L196.4,243.1z"/>
		<path class="st1" d="M196.4,237.9h0.9v4.3h-0.9V237.9 M196.4,235.9c-0.5,0-1,0.2-1.4,0.6c-0.4,0.4-0.6,0.9-0.6,1.4v4.3
			c0,1.1,0.8,2,1.9,2h0.9h0.1c0.5,0,1-0.2,1.4-0.6c0.4-0.4,0.6-0.9,0.6-1.4v-4.3c0-1.1-0.9-2-1.9-2L196.4,235.9L196.4,235.9z"/>
		<path class="st0" d="M162.6,242.8c-0.6,0-1-0.4-1-1v-4.2c0-0.6,0.4-1,1-1l8.8,0.1c0.6,0,1,0.4,1,1v4.2c0,0.3-0.1,0.5-0.3,0.7
			c-0.2,0.2-0.4,0.3-0.7,0.3L162.6,242.8z"/>
		<path class="st1" d="M162.6,237.6l8.8,0.1v4.2l-8.8-0.1V237.6 M162.6,235.6c-1.1,0-2,0.9-2,2v4.2c0,1.1,0.9,2,2,2l8.8,0.1l0,0
			c1.1,0,2-0.9,2-2v-4.2c0-1.1-0.9-2-2-2L162.6,235.6L162.6,235.6z"/>
		<path class="st2" d="M170.4,242.8c-0.6,0-1-0.4-1-1v-4.2c0-0.3,0.1-0.5,0.3-0.7c0.2-0.2,0.4-0.3,0.7-0.3h0.9c0.6,0,1,0.4,1,1v4.2
			c0,0.6-0.4,1-1,1H170.4z"/>
		<path class="st1" d="M170.5,237.6h0.9v4.2h-0.9V237.6 M170.5,235.6c-1.1,0-2,0.9-2,2v4.2c0,1.1,0.9,2,1.9,2h0.9h0.1
			c0.5,0,1-0.2,1.4-0.6c0.4-0.4,0.6-0.9,0.6-1.4v-4.2c0-1.1-0.9-2-1.9-2L170.5,235.6L170.5,235.6z"/>
		<path class="st0" d="M136.6,242.5c-0.6,0-1-0.4-1-1v-4.2c0-0.3,0.1-0.5,0.3-0.7c0.2-0.2,0.4-0.3,0.7-0.3l8.8,0.1c0.6,0,1,0.4,1,1
			v4.2c0,0.3-0.1,0.5-0.3,0.7c-0.2,0.2-0.4,0.3-0.7,0.3L136.6,242.5z"/>
		<path class="st1" d="M136.6,237.3l8.8,0.1v4.2l-8.8-0.1V237.3 M136.6,235.3c-1.1,0-2,0.9-2,2v4.1c0,1.1,0.9,2,2,2l8.8,0.1l0,0
			c1.1,0,2-0.9,2-2v-4.2c0-1.1-0.9-2-2-2L136.6,235.3L136.6,235.3z"/>
		<path class="st2" d="M144.4,242.5c-0.6,0-1-0.4-1-1v-4.2c0-0.6,0.4-1,1-1h1c0.6,0,1,0.4,1,1v4.2c0,0.3-0.1,0.5-0.3,0.7
			c-0.2,0.2-0.4,0.3-0.7,0.3H144.4z"/>
		<path class="st1" d="M144.5,237.4h1v4.2h-1V237.4 M144.5,235.4c-1.1,0-2,0.9-2,2v4.2c0,1.1,0.9,2,1.9,2h1h0.1c1.1,0,2-0.9,2-2
			v-4.2c0-1.1-0.9-2-1.9-2H144.5L144.5,235.4z"/>
		<path class="st0" d="M110.6,242.2c-0.6,0-1-0.4-1-1v-4.1c0-0.6,0.4-1,1-1l8.8,0.1c0.6,0,1,0.4,1,1v4.1c0,0.3-0.1,0.5-0.3,0.7
			c-0.2,0.2-0.4,0.3-0.7,0.3L110.6,242.2z"/>
		<path class="st1" d="M110.6,237l8.8,0.1v4.1l-8.8-0.1V237 M110.6,235c-1.1,0-2,0.9-2,2v4.1c0,1.1,0.9,2,2,2l8.8,0.1l0,0
			c1.1,0,2-0.9,2-2v-4.1c0-1.1-0.9-2-2-2L110.6,235L110.6,235z"/>
		<path class="st2" d="M118.5,242.2c-0.6,0-1-0.4-1-1v-4.1c0-0.6,0.4-1,1-1h1c0.6,0,1,0.4,1,1v4.1c0,0.6-0.4,1-1,1H118.5z"/>
		<path class="st1" d="M118.5,237.1h1v4.1h-1V237.1 M118.5,235.1c-1.1,0-2,0.9-2,2v4.1c0,1.1,0.9,2,1.9,2h0.9h0.1
			c0.5,0,1-0.2,1.4-0.6c0.4-0.4,0.6-0.9,0.6-1.4v-4.1c0-1.1-0.9-2-1.9-2H118.5L118.5,235.1z"/>
		<path class="st0" d="M84.7,241.9c-0.6,0-1-0.4-1-1v-4.1c0-0.6,0.4-1,1-1h8.8c0.6,0,1,0.4,1,1v4.1c0,0.3-0.1,0.5-0.3,0.7
			c-0.2,0.2-0.4,0.3-0.7,0.3L84.7,241.9z"/>
		<path class="st1" d="M84.7,236.8h8.8v4.1l-8.8-0.1L84.7,236.8 M84.7,234.8c-0.5,0-1,0.2-1.4,0.6c-0.4,0.4-0.6,0.9-0.6,1.4v4.1
			c0,1.1,0.9,2,2,2l8.8,0.1l0,0c0.5,0,1-0.2,1.4-0.6c0.4-0.4,0.6-0.9,0.6-1.4v-4.1c0-1.1-0.9-2-2-2L84.7,234.8L84.7,234.8z"/>
		<path class="st2" d="M92.5,241.9c-0.6,0-1-0.4-1-1v-4.1c0-0.6,0.4-1,1-1h1c0.6,0,1,0.4,1,1v4.1c0,0.6-0.4,1-1,1L92.5,241.9z"/>
		<path class="st1" d="M92.5,236.9h0.9v4.1h-0.9V236.9 M92.5,234.9c-1.1,0-2,0.9-2,2v4.1c0,1.1,0.9,2,1.9,2h1h0.1
			c0.5,0,1-0.2,1.3-0.5c0.4-0.4,0.6-0.9,0.6-1.4v-4.1c0-1.1-0.9-2-1.9-2L92.5,234.9L92.5,234.9z"/>
		<path class="st0" d="M58.7,241.6c-0.6,0-1-0.4-1-1v-4c0-0.3,0.1-0.5,0.3-0.7c0.2-0.2,0.4-0.3,0.7-0.3l8.8,0.1c0.6,0,1,0.4,1,1v4
			c0,0.3-0.1,0.5-0.3,0.7c-0.2,0.2-0.4,0.3-0.7,0.3L58.7,241.6z"/>
		<path class="st1" d="M58.7,236.5l8.8,0.1v4l-8.8-0.1V236.5 M58.7,234.5c-0.5,0-1,0.2-1.4,0.6c-0.4,0.4-0.6,0.9-0.6,1.4v4
			c0,1.1,0.9,2,2,2l8.8,0.1l0,0c0.5,0,1-0.2,1.4-0.6c0.4-0.4,0.6-0.9,0.6-1.4v-4c0-1.1-0.9-2-2-2L58.7,234.5L58.7,234.5z"/>
		<path class="st2" d="M66.5,241.6c-0.6,0-1-0.4-1-1v-4c0-0.3,0.1-0.5,0.3-0.7c0.2-0.2,0.4-0.3,0.7-0.3h1c0.6,0,1,0.4,1,1v4
			c0,0.3-0.1,0.5-0.3,0.7c-0.2,0.2-0.4,0.3-0.7,0.3H66.5z"/>
		<path class="st1" d="M66.5,236.6h1v4h-1V236.6 M66.5,234.6c-1.1,0-2,0.9-2,2v4c0,1.1,0.9,2,1.9,2h1h0.1c1.1,0,2-0.9,2-2v-4
			c0-1.1-0.9-2-1.9-2H66.5L66.5,234.6z"/>
		<path class="st0" d="M29.8,241.2c-0.6,0-1-0.4-1-1v-4c0-0.6,0.4-1,1-1l8.8,0.1c0.6,0,1,0.4,1,1v4c0,0.3-0.1,0.5-0.3,0.7
			c-0.2,0.2-0.4,0.3-0.7,0.3L29.8,241.2z"/>
		<path class="st1" d="M29.8,236.2l8.8,0.1v4l-8.8-0.1V236.2 M29.8,234.2c-1.1,0-2,0.9-2,2v4c0,1.1,0.9,2,2,2l8.8,0.1l0,0
			c1.1,0,2-0.9,2-2v-4c0-1.1-0.9-2-2-2L29.8,234.2L29.8,234.2z"/>
		<path class="st2" d="M40.3,241.3c-0.6,0-1-0.4-1-1v-4c0-0.6,0.4-1,1-1h1.2c0.6,0,1,0.4,1,1v4c0,0.3-0.1,0.5-0.3,0.7
			c-0.2,0.2-0.4,0.3-0.7,0.3H40.3z"/>
		<path class="st1" d="M40.4,236.3h1.2v4h-1.2V236.3 M40.4,234.3c-1.1,0-2,0.9-2,2v4c0,1.1,0.9,2,1.9,2h1.2l0,0c0.5,0,1-0.2,1.4-0.6
			c0.4-0.4,0.6-0.9,0.6-1.4v-4c0-1.1-0.9-2-2-2H40.4z"/>
		<path class="st0" d="M240.4,243.7c-0.6,0-1-0.4-1-1v-4.3c0-0.6,0.4-1,1-1l9.1,0.1c0.6,0,1,0.4,1,1v4.4c0,0.3-0.1,0.5-0.3,0.7
			c-0.2,0.2-0.4,0.3-0.7,0.3L240.4,243.7z"/>
		<path class="st1" d="M240.4,238.3l9.1,0.1v4.4l-9.1-0.1V238.3 M240.4,236.3c-0.5,0-1,0.2-1.4,0.6c-0.4,0.4-0.6,0.9-0.6,1.4v4.3
			c0,1.1,0.9,2,2,2l9.1,0.1l0,0c0.5,0,1-0.2,1.4-0.6c0.4-0.4,0.6-0.9,0.6-1.4v-4.3c0-1.1-0.9-2-2-2L240.4,236.3L240.4,236.3z"/>
		<path class="st0" d="M238.5,165.5l-168,3.5c-0.5,0-0.9-0.3-1-0.8l-0.6-2.7c-0.1-0.5,0.2-1,0.7-1.2l5.1-1.5
			c-0.5-0.9-0.9-1.8-1.2-2.8c-0.3-1-0.1-2.1,0.6-3c0.8-1.1,2-1.7,3.3-1.7c1.1,0,2.2,0.6,2.8,1.5c0.9,1,1,2.4,0.4,3.6
			c0.5,0,1.1-0.1,1.6-0.2l31.8-11.4l16.1-14.3c-1.1-1.2-1.8-2.7-2.2-4.3c-0.4-1.4,0-2.9,0.9-4c1-1.4,2.6-2.2,4.3-2.3
			c1.5,0,2.8,0.8,3.6,2c1,1.1,1.3,2.6,0.9,4c-0.1,0.2-0.1,0.3-0.2,0.5c4.1,0,8.1-0.6,8.7-1c0.5-0.5,1.3-0.8,2-0.8
			c0.8,0,1.6,0.3,2.1,0.9c0.2,0.3,0.4,0.6,0.5,1l70.1-2.4c0-0.2,0-0.4,0.1-0.6c0.5-1.2,1.6-2,2.9-2c0.4,0,0.9,0.1,1.2,0.4
			c0.9,0.6,3.4,1.9,7.9,2h0.5c1.9,0,3.8-0.2,5.7-0.6c-0.2-0.5-0.4-1-0.4-1.6c-0.2-1.8,1.1-3.4,2.9-3.7c0.5-0.1,1-0.1,1.6-0.1
			c3,0,4.9,1.7,5.3,4.9c0.4,3-2.8,4.7-4.7,5.4l14.8,17.5l27.9,11.3c-0.3-0.6-0.5-1.3-0.5-2c0-0.8,0.3-1.5,0.9-2.1
			c0.7-0.7,1.6-1.1,2.6-1.1c1,0,2,0.5,2.6,1.3c1.1,1.1,1.6,2.6,1.4,4.2c-0.3,1.3-1,2.4-2,3.3l1.3,0.4c0.4,0.1,0.7,0.5,0.7,1v2.8
			c0,0.3-0.1,0.5-0.3,0.7c-0.2,0.2-0.4,0.3-0.7,0.3L238.5,165.5z"/>
		<path class="st1" d="M243,122.9c2.3,0,3.9,1.2,4.3,4c0.4,3.4-5.4,4.8-5.4,4.8l15.9,18.8l29.1,11.9c0,0,2.9-1.3,2.2-1.3h-0.3
			c-0.2,0-0.3,0-0.5,0.1c-1.2,0-1.5-0.9-1.6-2.2c0.2-1.3,1.3-2.2,2.5-2.2c0.7,0,1.4,0.4,1.9,0.9c3.7,4.1-2.2,7.2-2.2,7.2l3.3,0.9
			v2.8l-53.7-4.1L70.5,168l-0.6-2.8l6.4-1.9c-0.8-1.1-1.5-2.4-1.9-3.7c-0.5-1.7,1.2-3.5,2.9-3.5c0.8,0,1.6,0.4,2,1.1
			c1.9,2.6-1.3,3.5-0.3,3.9c0.3,0.1,0.7,0.2,1,0.1c0.8,0,1.6-0.1,2.3-0.3l32-11.4l17.1-15.2c0,0-1.8-1.1-2.8-4.6
			c-0.7-2.4,1.8-5,4.2-5c1.1,0,2.2,0.6,2.8,1.5c2.6,3.7-1.2,4.8-1.2,4.8c0.7,0.1,1.5,0.1,2.4,0.1c3.8,0,8.9-0.5,9.7-1.3
			c0.4-0.3,0.8-0.5,1.4-0.5c0.8-0.1,1.5,0.5,1.6,1.4c0,0.2,0,0.4-0.1,0.6L222,129c-1.2-1,0.3-2.5,1.5-2.5c0.2,0,0.5,0.1,0.7,0.2
			c1.2,0.8,3.9,2.1,8.4,2.2h0.6c2.6,0,5.3-0.4,7.8-1.1c-1.7-0.1-2.5-4.3,0.6-4.8C242.1,123,242.5,122.9,243,122.9 M243,120.9
			L243,120.9c-0.6,0-1.2,0.1-1.7,0.2c-2.3,0.3-4,2.4-3.8,4.7c0,0.3,0,0.5,0.1,0.8c-1.5,0.3-2.9,0.4-4.4,0.4h-0.5
			c-4.3-0.1-6.6-1.3-7.4-1.8c-0.5-0.4-1.1-0.5-1.8-0.5c-1.6,0-3.1,1-3.8,2.5l-68.6,2.3c-0.6-1.2-1.9-2-3.3-1.9c-1,0-1.9,0.4-2.6,1
			c-2.2,0.5-4.5,0.8-6.8,0.8c0.1-1.4-0.3-2.9-1.2-4c-1-1.5-2.6-2.4-4.4-2.4c-2,0.1-3.9,1-5.1,2.6c-1.1,1.4-1.5,3.2-1,4.9
			c0.4,1.4,1,2.7,1.8,3.9l-15.3,13.5l-31.4,11.2c0-1.1-0.3-2.1-1-2.9c-0.8-1.2-2.2-2-3.7-2c-1.6,0-3.1,0.8-4.1,2.1
			c-0.9,1.1-1.1,2.6-0.7,3.9c0.2,0.6,0.5,1.3,0.7,1.9l-3.9,1.1c-1,0.3-1.6,1.3-1.4,2.3l0.6,2.8c0.2,0.9,1,1.6,2,1.6l0,0l168-3.5
			l53.6,4.1h0.2c1.1,0,2-0.9,2-2v-2.8c0-0.8-0.5-1.5-1.2-1.8c0.6-0.7,1-1.6,1.2-2.6c0.3-1.8-0.3-3.7-1.6-5c-0.8-1-2.1-1.6-3.4-1.6
			c-1.3,0-2.5,0.5-3.4,1.4c-0.7,0.7-1.2,1.7-1.2,2.8c0,0.1,0,0.2,0,0.3l-25.8-10.5l-13.7-16.3c2.1-1,4.4-2.9,4-5.9
			C248.8,123,246.5,120.9,243,120.9L243,120.9z"/>
		<polygon class="st5" points="77.8,165.1 115.1,153 133.6,136.8 236.6,133.1 220.1,148 234.2,161.4 		"/>
		<polygon class="st5" points="240.7,135.5 225.7,148.5 254,150.6 		"/>
		<polygon class="st5" points="230.1,152.3 240,161.5 285.5,165.4 257.8,154.4 		"/>
	</g>
</g>
</svg>
