<?xml version="1.0" encoding="utf-8"?>
<!-- Generator: Adobe Illustrator 24.0.3, SVG Export Plug-In . SVG Version: 6.00 Build 0)  -->
<svg version="1.1" id="Layer_1" xmlns="http://www.w3.org/2000/svg" xmlns:xlink="http://www.w3.org/1999/xlink" x="0px" y="0px"
	 viewBox="0 0 360 360" style="enable-background:new 0 0 360 360;" xml:space="preserve">
<style type="text/css">
	.st0{opacity:0.3;}
	.st1{fill:#FFFFFF;}
	.st2{fill:none;stroke:#000000;stroke-width:2;stroke-linecap:round;stroke-linejoin:round;stroke-miterlimit:10;}
	.st3{fill:#01AC83;}
	.st4{fill:#0780C2;}
	.st5{fill:#8582BE;}
</style>
<title>Q_05</title>
<g class="st0">
	<circle class="st1" cx="180" cy="170.1" r="86.5"/>
</g>
<g>
	<g>
		<g>
			<line class="st2" x1="140.4" y1="252" x2="141" y2="226.9"/>
		</g>
		<line class="st2" x1="218.3" y1="239.6" x2="217.1" y2="214.1"/>
		<line class="st2" x1="141.9" y1="176.5" x2="144.5" y2="144.8"/>
		<line class="st2" x1="188.6" y1="113.8" x2="198.7" y2="144"/>
		<g>
			<path class="st3" d="M145.1,275.3c-1.6,0-3.2-0.5-4.9-1.4c-1,0.3-2,0.4-2.9,0.4c-2.5,0-4.7-1-6.1-2.7c-1.5-1.8-2.1-4.4-1.8-7
				c-2.8-3.8-2.2-7-1.6-8.6c0.8-2.3,2.7-4.1,4.8-4.7c1.7-2.7,4.6-4.3,7.9-4.3c3.5,0,6.3,1.8,7.5,4.9c4.3,2.2,5.7,4.9,6,6.8
				c0.5,2.4-0.3,5.1-2.1,7.2c0.5,2.5,0,5-1.4,6.9C149.1,274.4,147.2,275.3,145.1,275.3z"/>
			<g>
				<path d="M140.4,248c2.9,0,5.6,1.5,6.6,4.6c8,3.8,6.6,9.9,3.6,13c1.2,4.4-1.2,8.7-5.6,8.7c-1.4,0-3-0.4-4.8-1.5
					c-1.1,0.3-2.1,0.4-3,0.4c-5.1,0-7.7-4.3-6.8-9c-4.8-6-0.7-11.5,2.7-12.1C134.7,249.4,137.6,248,140.4,248 M140.4,246
					C140.4,246,140.4,246,140.4,246c-3.5,0-6.6,1.7-8.5,4.5c-2.2,0.8-4.2,2.7-5.1,5.1c-0.7,1.8-1.3,5.2,1.5,9.2
					c-0.3,2.8,0.4,5.4,2,7.4c1.6,2,4.1,3.1,6.9,3.1c0.9,0,1.8-0.1,2.8-0.3c1.7,0.9,3.4,1.4,5.1,1.4c2.5,0,4.6-1.1,6.1-3
					c1.5-1.9,2.1-4.6,1.6-7.2c1.8-2.3,2.5-5.1,2-7.6c-0.4-2.1-1.8-5.1-6.2-7.4C147.2,248,144.1,246,140.4,246L140.4,246z"/>
			</g>
		</g>
		<g>
			<path class="st3" d="M151.2,233.6c-12.7,0-27.4-2-35.6-4.9c-0.4-0.1-0.6-0.5-0.7-0.9c0-0.4,0.2-0.8,0.5-1l3.1-1.7l-3-2.3
				c-0.2-0.2-0.4-0.5-0.4-0.8c0-0.3,0.2-0.6,0.4-0.8l3.4-2.5l-2.5-2.2c-0.2-0.2-0.3-0.4-0.3-0.7c0-0.3,0.1-0.5,0.3-0.7l2.8-3
				l-3.2-3.4c-0.2-0.2-0.3-0.5-0.3-0.7s0.1-0.5,0.3-0.7l2.9-2.7l-2.7-2.7c-0.2-0.2-0.3-0.5-0.3-0.8c0-0.3,0.1-0.5,0.4-0.7l2.6-2.2
				l-3.3-2.8c-0.2-0.2-0.4-0.5-0.3-0.8c0-0.3,0.2-0.6,0.4-0.8l4.1-3.1l-2.9-3.1c-0.4-0.4-0.4-1,0-1.4l2.1-2.3l-2.1-3.6
				c-0.1-0.2-0.2-0.5-0.1-0.8s0.3-0.5,0.5-0.6c6.1-3,15-4.7,25.2-4.7c8.4,0,17.1,1.2,23.7,3.2c0.3,0.1,0.6,0.4,0.7,0.7
				c0.1,0.3,0,0.7-0.2,0.9l-3.1,3.4l3.2,3.5c0.3,0.3,0.3,0.8,0.1,1.2l-2.8,4.6l3.1,3.1c0.2,0.2,0.3,0.5,0.3,0.8
				c0,0.3-0.1,0.5-0.4,0.7l-3.5,2.9l4,3.9c0.2,0.2,0.3,0.5,0.3,0.8c0,0.3-0.2,0.6-0.5,0.7l-3.7,2.4l2.9,2.6c0.2,0.2,0.3,0.5,0.3,0.7
				c0,0.3-0.1,0.6-0.3,0.7l-3.4,3l2.6,2.6c0.2,0.2,0.3,0.5,0.3,0.8c0,0.3-0.2,0.6-0.4,0.7L162,221l3.7,3.5c0.2,0.2,0.3,0.5,0.3,0.8
				c0,0.3-0.2,0.6-0.4,0.8l-3.5,2.3l3,2.4c0.3,0.2,0.4,0.6,0.3,1c-0.1,0.4-0.4,0.7-0.8,0.7C161.1,233.2,156.5,233.6,151.2,233.6z"/>
			<g>
				<path d="M142.7,175.2c8.4,0,16.9,1.2,23.4,3.2l-3.7,4.1l3.8,4.2l-3.2,5.2l3.6,3.7l-4.4,3.6l4.8,4.7l-4.8,3.1l3.8,3.5l-4.2,3.7
					l3.4,3.3l-4.8,3.4l4.6,4.3l-4.6,3.1l4.1,3.3c-3.7,0.7-8.4,1-13.4,1c-12.5,0-27.1-2-35.3-4.9l4.4-2.4l-4.2-3.3l4.4-3.2l-3.4-3
					l3.5-3.7l-3.8-4l3.7-3.4l-3.4-3.5l3.6-2.9l-4.2-3.6l5-3.8l-3.6-3.9l2.6-2.9l-2.4-4.2C124.4,176.6,133.5,175.2,142.7,175.2
					 M142.7,173.2v2V173.2C142.7,173.2,142.7,173.2,142.7,173.2c-10.3,0-19.4,1.7-25.6,4.8c-0.5,0.2-0.9,0.7-1,1.2
					c-0.2,0.5-0.1,1.1,0.2,1.6l1.7,2.9l-1.6,1.8c-0.7,0.8-0.7,1.9,0,2.7l2.1,2.3l-3.2,2.5c-0.5,0.4-0.8,0.9-0.8,1.5s0.2,1.2,0.7,1.6
					l2.4,2.1l-1.7,1.4c-0.4,0.4-0.7,0.9-0.7,1.4c0,0.6,0.2,1.1,0.6,1.5l1.9,2l-2.2,2c-0.4,0.4-0.6,0.9-0.6,1.4
					c0,0.5,0.2,1.1,0.5,1.4l2.5,2.7l-2.2,2.4c-0.4,0.4-0.6,0.9-0.5,1.5c0,0.5,0.3,1,0.7,1.4l1.6,1.4l-2.4,1.8
					c-0.5,0.4-0.8,1-0.8,1.6c0,0.6,0.3,1.2,0.8,1.6l1.8,1.4l-1.8,1c-0.7,0.4-1.1,1.1-1,1.9c0.1,0.8,0.6,1.5,1.3,1.7
					c8.4,2.9,23.1,5,36,5c5.4,0,10.1-0.4,13.8-1.1c0.8-0.1,1.4-0.7,1.6-1.5s-0.1-1.6-0.7-2l-2-1.6l2.3-1.6c0.5-0.3,0.8-0.9,0.9-1.5
					c0-0.6-0.2-1.2-0.6-1.6l-2.8-2.6l2.8-2c0.5-0.3,0.8-0.9,0.8-1.5c0-0.6-0.2-1.2-0.6-1.6l-1.9-1.8l2.6-2.3
					c0.4-0.4,0.7-0.9,0.7-1.5c0-0.6-0.2-1.1-0.7-1.5l-1.9-1.7l2.6-1.7c0.5-0.3,0.8-0.9,0.9-1.5s-0.2-1.2-0.6-1.6l-3.2-3.1l2.6-2.2
					c0.4-0.4,0.7-0.9,0.7-1.4s-0.2-1.1-0.6-1.5l-2.5-2.6l2.4-3.9c0.5-0.8,0.4-1.7-0.2-2.4l-2.6-2.8l2.5-2.7c0.5-0.5,0.6-1.2,0.4-1.9
					c-0.2-0.7-0.7-1.2-1.3-1.4C159.9,174.4,151.2,173.2,142.7,173.2L142.7,173.2z"/>
			</g>
		</g>
		<g>
			<path class="st4" d="M216.9,270.5c-0.3,0-0.8-0.1-1.3-0.6c-1.5-1.6-1.8-6.8-1.5-11c-1-4-1.4-11.4,1.2-16.3
				c0.4-4.1,1.5-6.3,3.1-6.3c1.6,0,2.7,1.9,3.3,5.6c1.6,2,2.3,8.9,1,15.4c0.2,4.1-0.2,9.5-1.8,11.2c-0.5,0.5-1.1,0.7-1.4,0.7
				c0,0,0,0,0,0c-0.2,0-0.4,0-0.6-0.1C218.3,269.9,217.7,270.5,216.9,270.5z"/>
			<g>
				<path d="M218.4,237.4c0.9,0,1.9,1.7,2.4,5.1c1.1,0.8,2.4,7.5,0.9,14.8c0.3,5.6-0.6,10.9-2.2,10.9c-0.3,0-0.6-0.2-1-0.5
					c-0.6,1.3-1.1,1.8-1.6,1.8c-1.4,0-2.2-5.3-1.8-10.6c-1-3.8-1.4-11.3,1.2-15.9C216.5,239.3,217.4,237.4,218.4,237.4 M218.4,235.4
					c-2.3,0-3.6,2.4-4.1,7c-2.6,5.1-2.2,12.5-1.2,16.7c-0.1,1.8-0.4,9.2,1.8,11.5c0.5,0.6,1.3,0.9,2,0.9c1.1,0,1.8-0.6,2.4-1.3
					c0.1,0,0.1,0,0.2,0c0.6,0,1.4-0.2,2.1-1c2.3-2.4,2.2-9.3,2.1-11.8c1.2-6.2,0.7-13.1-1-15.8C221.9,237.5,220.5,235.4,218.4,235.4
					L218.4,235.4z"/>
			</g>
		</g>
		<g>
			<path class="st4" d="M120.4,184.1l-2.4-4.2c17.8-7.7,37.9-4.4,48.1-1.5l-3.7,4.1C150.2,180,133.7,180,120.4,184.1z"/>
			<path class="st4" d="M117.8,186.9c12.8-3.3,35.4-2.5,48.4-0.3l-3.2,5.2c-14.7-1.9-26.9-2.7-41.6-1L117.8,186.9z"/>
			<path class="st4" d="M116.4,194.6c11-1.3,36.4-1.6,50.2,0.9l-4.4,3.6c-14.8-1.7-27-1.7-41.6-0.9L116.4,194.6z"/>
			<path class="st4" d="M117,201.2c12.8-1,39.4,0.1,50,2.6l-4.8,3.1c-11.6-2-30.4-2.8-41.8-2.3L117,201.2z"/>
			<path class="st4" d="M116.7,208c14.8-0.3,36.4,0.4,49.3,2.4l-4.2,3.7c-12.7-1.2-30.6-2.1-41.4-2L116.7,208z"/>
			<path class="st4" d="M117.1,215.8c16.2,1.1,32.4,2.1,48.2,1.7l-4.8,3.4c-13.4,0.7-28.2,0.3-40-2.1L117.1,215.8z"/>
			<path class="st4" d="M116.1,222c13,2.6,38.2,4.4,49,3.2l-4.6,3.1c-12.1,0.9-29.4-0.3-40.2-3L116.1,222z"/>
		</g>
		<g>
			<path class="st2" d="M162.4,182.5c-12.1-2.4-28.6-2.4-42,1.6"/>
			<path class="st2" d="M163,191.9c-14.7-1.9-26.9-2.7-41.6-1"/>
			<path class="st2" d="M162.2,199.1c-14.8-1.7-27-1.7-41.6-0.9"/>
			<path class="st2" d="M162.2,206.9c-11.6-2-30.4-2.8-41.8-2.3"/>
			<path class="st2" d="M161.9,214.1c-12.7-1.2-30.6-2.1-41.4-2"/>
			<path class="st2" d="M160.5,220.9c-13.4,0.7-28.2,0.3-40-2.1"/>
			<path class="st2" d="M160.5,228.3c-12.1,0.9-29.4-0.3-40.2-3"/>
		</g>
		<g>
			<path class="st4" d="M185.4,222c-0.7,0-1.3,0-2,0c-0.4,0-0.7-0.3-0.9-0.6s-0.1-0.8,0.2-1.1l3.9-4.3l-5.7-2.7
				c-0.3-0.1-0.5-0.4-0.5-0.7c-0.1-0.3,0-0.6,0.2-0.8l4.6-5.9l-6.2-3.1c-0.3-0.1-0.5-0.4-0.5-0.7s0-0.6,0.2-0.8l3.2-4.4l-5.5-3.5
				c-0.2-0.2-0.4-0.4-0.4-0.7c0-0.3,0-0.6,0.2-0.8l3.6-4.5l-6-2.6c-0.3-0.1-0.5-0.4-0.6-0.7c-0.1-0.3,0-0.6,0.2-0.9l4.9-6.5
				l-5.7-3.3c-0.2-0.1-0.4-0.4-0.5-0.7c-0.1-0.3,0-0.6,0.2-0.8l3.6-5.2l-5-5.8c-0.3-0.3-0.3-0.8-0.1-1.2l3.8-5.7l-5.2-4.2
				c-0.3-0.2-0.4-0.6-0.4-0.9c0-0.3,0.2-0.6,0.6-0.8c13.3-6.5,32.7-10.8,48.3-10.8c6.9,0,13,0.8,18,2.4c0.3,0.1,0.5,0.3,0.6,0.5
				s0.1,0.5,0,0.8l-2.1,5.6l3.6,2.8c0.4,0.3,0.5,0.9,0.2,1.3l-3.4,5.2l6.6,3.5c0.3,0.1,0.5,0.4,0.5,0.7c0.1,0.3,0,0.6-0.2,0.8
				l-4.1,4.9l4.4,2.6c0.2,0.1,0.4,0.4,0.5,0.7c0.1,0.3,0,0.6-0.2,0.8l-3.3,4.6l4.9,3.2c0.2,0.1,0.4,0.4,0.4,0.6s0,0.5-0.2,0.8
				l-3.8,5.5l4.8,3.7c0.2,0.2,0.3,0.4,0.4,0.7s-0.1,0.5-0.2,0.7l-3.2,3.9l5.5,2.9c0.3,0.1,0.5,0.4,0.5,0.7c0.1,0.3,0,0.6-0.3,0.9
				l-3.9,4.2l5.1,1.8c0.4,0.1,0.6,0.5,0.7,0.9s-0.2,0.8-0.5,1C235.6,213.5,204.9,222,185.4,222C185.4,222,185.4,222,185.4,222z"/>
			<g>
				<path d="M217.9,138.5c6.5,0,12.5,0.7,17.7,2.3l-2.4,6.2l4.2,3.3l-4,6.1l7.5,4.1l-4.9,5.8l5.4,3.2l-3.9,5.4l5.7,3.8l-4.3,6.3
					l5.5,4.3l-4,4.8l6.6,3.4l-5,5.3l6.6,2.3c-14.2,7.7-44.8,15.7-63.3,15.7c-0.7,0-1.3,0-2,0l4.8-5.3l-6.9-3.2l5.3-6.8l-7.3-3.6
					l3.9-5.3l-6.4-4.1l4.5-5.5l-7.2-3.2l5.5-7.4l-6.7-3.9l4.1-5.8l-5.5-6.4l4.3-6.5l-5.9-4.7C182.5,143.1,201.5,138.5,217.9,138.5
					 M217.9,136.5c-15.8,0-35.4,4.4-48.8,10.9c-0.6,0.3-1,0.9-1.1,1.6s0.2,1.4,0.7,1.8l4.5,3.6l-3.3,4.9c-0.5,0.7-0.4,1.7,0.1,2.4
					l4.4,5.2l-3.2,4.5c-0.3,0.5-0.4,1-0.3,1.6c0.1,0.5,0.5,1,0.9,1.3l4.8,2.8l-4.2,5.6c-0.4,0.5-0.5,1.1-0.3,1.7
					c0.2,0.6,0.6,1.1,1.1,1.3l4.8,2.1l-2.8,3.5c-0.4,0.4-0.5,1-0.4,1.6s0.4,1.1,0.9,1.4l4.6,3l-2.6,3.5c-0.4,0.5-0.5,1.1-0.3,1.7
					c0.1,0.6,0.5,1.1,1.1,1.3l5.1,2.5l-3.8,4.9c-0.4,0.5-0.5,1.1-0.4,1.7c0.1,0.6,0.5,1.1,1.1,1.3l4.4,2.1l-3,3.3
					c-0.5,0.6-0.7,1.4-0.4,2.1c0.3,0.7,1,1.2,1.8,1.2c0.7,0,1.3,0,2,0c17.9,0,49.1-7.7,64.2-15.9c0.7-0.4,1.1-1.1,1-1.9
					c-0.1-0.8-0.6-1.5-1.3-1.7l-3.7-1.3l2.9-3.1c0.4-0.5,0.6-1.1,0.5-1.7c-0.1-0.6-0.5-1.1-1-1.4l-4.4-2.3l2.4-2.9
					c0.3-0.4,0.5-1,0.4-1.5c-0.1-0.5-0.3-1-0.8-1.4l-4-3.2l3.3-4.8c0.3-0.4,0.4-1,0.3-1.5c-0.1-0.5-0.4-1-0.9-1.3l-4-2.6l2.7-3.7
					c0.3-0.5,0.4-1,0.3-1.6c-0.1-0.5-0.5-1-0.9-1.3l-3.4-2l3.4-4c0.4-0.5,0.5-1.1,0.4-1.7s-0.5-1.1-1-1.4l-5.6-3l2.8-4.3
					c0.6-0.9,0.4-2-0.4-2.7l-3-2.4l1.9-4.9c0.2-0.5,0.2-1.1-0.1-1.6s-0.7-0.9-1.2-1C231.1,137.3,224.9,136.5,217.9,136.5
					L217.9,136.5z"/>
			</g>
		</g>
		<g>
			<path class="st5" d="M233.2,147.1l2.4-6.2c-25.7-6.6-52.4,2.2-65.6,8.4l5.9,4.7C191.8,148,214.2,144.5,233.2,147.1z"/>
			<path class="st5" d="M237.4,150.4c-18-1.7-48.5,4.2-65.7,10l5.5,6.4c19.5-5.7,35.9-9.4,56.2-10.3L237.4,150.4z"/>
			<path class="st5" d="M240.9,160.6c-15.2,0.6-49.7,5.7-67.9,12.1l6.7,3.9c19.7-5.4,36.3-8.1,56.3-10.2L240.9,160.6z"/>
			<path class="st5" d="M241.4,169.6c-17.6,1.3-53.4,8.6-67.2,14.3l7.2,3.2c15.3-5.2,40.6-10.3,56.2-12.1L241.4,169.6z"/>
			<path class="st5" d="M243.3,178.8c-20.1,2.8-49.2,8.4-66.4,13.8l6.4,4.1c16.9-4.3,41.1-9.5,55.6-11.6L243.3,178.8z"/>
			<path class="st5" d="M244.5,189.4c-21.7,4.9-43.5,9.8-65,12.6l7.3,3.6c18.3-1.9,38.3-5.7,53.8-11.4L244.5,189.4z"/>
			<path class="st5" d="M247.1,197.6c-17,6.3-50.8,14.2-65.7,14.8l6.9,3.2c16.6-1.4,39.8-6.8,53.8-12.7L247.1,197.6z"/>
		</g>
		<g>
			<path class="st2" d="M175.9,154c15.9-5.9,38.3-9.5,57.3-6.9"/>
			<path class="st2" d="M177.1,166.8c19.5-5.7,35.9-9.4,56.2-10.3"/>
			<path class="st2" d="M179.7,176.5c19.7-5.4,36.3-8.1,56.3-10.2"/>
			<path class="st2" d="M181.4,187c15.3-5.2,40.6-10.3,56.2-12.1"/>
			<path class="st2" d="M183.3,196.7c16.9-4.3,41.1-9.5,55.6-11.6"/>
			<path class="st2" d="M186.7,205.6c18.3-1.9,38.3-5.7,53.8-11.4"/>
			<path class="st2" d="M188.3,215.7c16.6-1.4,39.8-6.8,53.8-12.7"/>
		</g>
	</g>
	<polyline class="st2" points="140,256.2 140,261.7 133.8,258.9 	"/>
	<polyline class="st2" points="135.9,266.8 140,261.7 143.6,267.5 	"/>
	<line class="st2" x1="140" y1="261.7" x2="147" y2="259.5"/>
	<polyline class="st2" points="215.2,252.8 218.3,253.5 218.3,246.1 	"/>
	<polyline class="st2" points="220.8,250.4 218.3,253.5 216.8,262.3 	"/>
	<line class="st2" x1="220" y1="260.7" x2="218.3" y2="253.5"/>
</g>
</svg>
