<?xml version="1.0" encoding="utf-8"?>
<!-- Generator: Adobe Illustrator 24.0.3, SVG Export Plug-In . SVG Version: 6.00 Build 0)  -->
<svg version="1.1" id="Layer_1" xmlns="http://www.w3.org/2000/svg" xmlns:xlink="http://www.w3.org/1999/xlink" x="0px" y="0px"
	 viewBox="0 0 360 360" style="enable-background:new 0 0 360 360;" xml:space="preserve">
<style type="text/css">
	.st0{fill:#0780C2;}
	.st1{fill:#8582BE;}
	.st2{fill:#01AC83;}
	.st3{fill:#0780C2;stroke:#000000;stroke-width:2;stroke-linecap:round;stroke-linejoin:round;stroke-miterlimit:10;}
	.st4{fill:none;stroke:#000000;stroke-width:2;stroke-linecap:round;stroke-linejoin:round;stroke-miterlimit:10;}
	.st5{fill:#8582BE;stroke:#000000;stroke-width:2;stroke-linecap:round;stroke-miterlimit:10;}
</style>
<g>
	<title>Q_06</title>
	<g>
		<path class="st0" d="M138.8,283c-0.6,0-1-0.4-1-1v-70.9c0-0.6,0.4-1,1-1h79c0.6,0,1,0.4,1,1V282c0,0.6-0.4,1-1,1H138.8z"/>
		<g>
			<path d="M217.8,211.1V282h-79v-70.9H217.8 M217.8,209.1h-79c-1.1,0-2,0.9-2,2V282c0,1.1,0.9,2,2,2h79c1.1,0,2-0.9,2-2v-70.9
				C219.8,209.9,218.9,209.1,217.8,209.1L217.8,209.1z"/>
		</g>
	</g>
	<g>
		<path class="st1" d="M157.7,100c-0.6,0-1-0.4-1-1v-6.5c0-0.3,0.1-0.6,0.3-0.8c0.2-0.2,0.4-0.2,0.7-0.2h0.1c1.1,0.2,1.9,1,2.6,1.7
			c0.2,0.2,0.5,0.5,0.7,0.6c0.2-0.1,0.5-0.3,0.8-0.6c0.5-0.4,1.1-0.9,1.9-1c0.1,0,0.3,0,0.4,0c0.5,0,1.1,0.2,1.6,0.3
			c0.4,0.1,0.9,0.3,1.2,0.3c0.8-1.1,1.9-2.4,3.2-2.4c0.4,0,0.7,0.1,1,0.3l0,0c0.2,0,0.6-0.2,0.9-0.4c0.5-0.3,1.1-0.7,1.8-0.7h0.1
			c1,0.1,1.7,0.5,2.1,1.2c0.2,0.4,0.4,1.1,0,1.9c0.2,0,0.5,0,0.7,0c0.3,0,0.6,0,0.8,0c0.4,0,1-0.2,1.1-0.8c0-0.1,0-0.5-0.1-0.7
			c-0.1-0.7-0.2-1.5,0.3-2.2c0.4-0.4,0.9-0.6,1.6-0.6c0.7,0,1.2,0.2,1.6,0.6c0.6,0.7,0.4,1.5,0.3,2.2c0,0.2-0.1,0.6-0.1,0.7
			c0.1,0.6,0.7,0.8,1.1,0.8c0.2,0,0.5,0,0.8,0c0.2,0,0.4,0,0.7,0c-0.4-0.9-0.2-1.5,0-1.9c0.4-0.7,1.1-1.1,2.1-1.2h0.1
			c0.7,0,1.3,0.3,1.8,0.7c0.3,0.2,0.7,0.4,0.9,0.4c0.4-0.2,0.7-0.3,1.1-0.3c1.4,0,2.4,1.3,3.2,2.4c0.3,0,0.8-0.2,1.2-0.3
			c0.5-0.2,1.1-0.3,1.6-0.3c0.1,0,0.3,0,0.4,0c0.7,0.1,1.3,0.5,2,0.9c0.3,0.2,0.9,0.5,1.2,0.6c0.2-0.1,0.5-0.4,0.8-0.6
			c0.8-0.6,1.8-1.4,2.8-1.6h0.1c0.2,0,0.5,0.1,0.7,0.2c0.2,0.2,0.3,0.5,0.3,0.8v6.5c0,0.6-0.4,1-1,1
			C204.2,100.1,157.7,100.1,157.7,100z"/>
		<g>
			<path d="M180.5,89.4c1.7,0,0.7,1.7,0.9,2.7c0.2,1,1.1,1.6,2.1,1.6c0.4,0,1.1,0.1,1.7,0.1c0.8,0,1.4-0.2,0.9-1c-0.9-1.4,0-2,1-2.1
				c0,0,0,0,0.1,0c0.8,0,1.8,1.1,2.6,1.1c0.2,0,0.3,0,0.5-0.1c0.2-0.1,0.4-0.1,0.6-0.1c0.9,0,1.7,1.1,2.4,2c0.2,0.3,0.5,0.4,0.9,0.4
				c0.9,0,2-0.6,2.8-0.6c0.1,0,0.1,0,0.2,0c1.1,0.2,2.5,1.5,3.4,1.5l0,0c0.7,0,2.3-2,3.6-2.2v6.5h-46.4v-6.5
				c1.4,0.2,2.5,2.4,3.3,2.4c0,0,0,0,0.1,0c1-0.1,1.7-1.4,2.8-1.6c0.1,0,0.1,0,0.2,0c0.8,0,2,0.6,2.8,0.6c0.4,0,0.7-0.1,0.9-0.4
				c0.6-0.9,1.5-2,2.4-2c0.2,0,0.4,0,0.6,0.1s0.3,0.1,0.5,0.1c0.9,0,1.8-1.1,2.6-1.1c0,0,0,0,0.1,0c1,0.1,1.9,0.7,1,2.1
				c-0.5,0.8,0.1,1,0.9,1c0.6,0,1.3-0.1,1.7-0.1c1,0,1.9-0.6,2.1-1.6C179.8,91.1,178.8,89.4,180.5,89.4 M180.5,87.4
				c-1.2,0-1.9,0.5-2.3,1c-0.9,1-0.7,2.2-0.6,3c0,0.1,0,0.2,0,0.3h-0.1c-0.1,0-0.2,0-0.2,0c0-0.6-0.2-1-0.3-1.3
				c-0.5-1-1.6-1.6-2.9-1.7c-0.1,0-0.1,0-0.2,0c-1,0-1.7,0.5-2.3,0.8c-0.1,0.1-0.2,0.1-0.3,0.2c-0.4-0.1-0.7-0.2-1.1-0.2
				c-1.6,0-2.8,1.1-3.6,2.3c-0.2,0-0.3-0.1-0.5-0.1c-0.6-0.2-1.3-0.4-1.9-0.4c-0.2,0-0.4,0-0.6,0.1c-1.1,0.2-1.8,0.8-2.3,1.3l0,0
				l0,0c-0.7-0.7-1.7-1.8-3.1-2c-0.1,0-0.2,0-0.3,0c-0.5,0-0.9,0.2-1.3,0.5c-0.4,0.4-0.7,0.9-0.7,1.5v6.5c0,1.1,0.9,2,2,2h46.4
				c1.1,0,2-0.9,2-2v-6.5c0-0.6-0.3-1.1-0.7-1.5c-0.4-0.3-0.8-0.5-1.3-0.5c-0.1,0-0.2,0-0.3,0c-1.3,0.2-2.4,1.1-3.3,1.8
				c-0.1,0.1-0.2,0.2-0.3,0.2c-0.2-0.1-0.4-0.2-0.5-0.3c-0.7-0.4-1.5-0.8-2.3-1c-0.2,0-0.4-0.1-0.6-0.1c-0.7,0-1.4,0.2-1.9,0.4
				c-0.1,0-0.3,0.1-0.5,0.1c-0.9-1.2-2-2.3-3.6-2.3c-0.4,0-0.7,0.1-1.1,0.2c-0.1-0.1-0.2-0.1-0.3-0.2c-0.6-0.3-1.3-0.8-2.3-0.8
				c-0.1,0-0.1,0-0.2,0c-1.3,0.1-2.4,0.7-2.9,1.7c-0.1,0.3-0.3,0.7-0.3,1.3c-0.1,0-0.2,0-0.2,0h-0.1c0-0.1,0-0.2,0-0.3
				c0.1-0.7,0.3-2-0.6-3C182.4,87.9,181.7,87.4,180.5,87.4L180.5,87.4z"/>
		</g>
	</g>
	<g>
		<path class="st2" d="M148.4,109.4c-0.5,0-1-0.5-1-1v-3.1c0-0.4,0.2-0.7,0.5-0.9l3.9-2.2c0.1-0.1,0.3-0.1,0.5-0.1H209
			c0.2,0,0.4,0.1,0.6,0.2l3.5,2.5c0.3,0.2,0.4,0.5,0.4,0.8v3.3c0,0.3-0.1,0.5-0.3,0.7c-0.2,0.2-0.4,0.3-0.7,0.3L148.4,109.4z"/>
		<g>
			<path d="M209,103.1l3.5,2.5v3.3l-64.1-0.5v-3.1l3.9-2.2L209,103.1 M209,101.1h-56.7c-0.3,0-0.7,0.1-1,0.2l-3.9,2.2
				c-0.6,0.4-1,1-1,1.8v3.1c0,1.1,0.9,2,2,2l64.1,0.5l0,0c0.5,0,1-0.2,1.4-0.6s0.6-0.9,0.6-1.4v-3.3c0-0.6-0.3-1.2-0.8-1.6l-3.5-2.5
				C209.8,101.3,209.4,101.1,209,101.1L209,101.1z"/>
		</g>
	</g>
	<g>
		<path class="st0" d="M206.2,106.5c-0.3,0-0.5-0.1-0.7-0.3l-2.2-2.4c-0.2-0.2-0.3-0.4-0.3-0.7v-1.9h-11.3v0.5
			c0,0.3-0.1,0.5-0.3,0.7c-0.2,0.2-0.4,0.3-0.7,0.3h-1.9c-0.5,0-1-0.5-1-1v-0.4h-14.2v0.3c0,0.6-0.4,1-1,1h-1.8c-0.6,0-1-0.4-1-1
			v-0.3h-11.4v1.9c0,0.3-0.1,0.5-0.3,0.7l-2.2,2c-0.2,0.2-0.4,0.3-0.7,0.3h-6.8c-0.5,0-0.9-0.3-1-0.8s0.1-0.9,0.5-1.1l3.4-1.8
			l0.1-6.1c0-0.5,0.5-1,1-1h1.6v-3.1c0-0.6,0.4-1,1-1h2.6c0.6,0,1,0.4,1,1v4.9H203v-4.9c0-0.6,0.4-1,1-1h2.8c0.6,0,1,0.4,1,1V95h1.1
			c0.6,0,1,0.4,1,1v6.5l3.1,2.2c0.4,0.3,0.5,0.7,0.4,1.1s-0.5,0.7-0.9,0.7C212.4,106.6,206.2,106.5,206.2,106.5z"/>
		<g>
			<path d="M206.9,92.4v3.7h2.1v7l3.5,2.5l-6.2-0.1l-2.2-2.4v-2.9h-13.3v1.5h-1.9v-1.4h-16.2v1.3h-1.9v-1.3h-13.4v2.9l-2.2,2h-6.8
				l3.9-2l0.1-6.7h2.6v-4.1h2.6v5.9H204v-5.9L206.9,92.4 M206.9,90.4h-2.8c-1.1,0-2,0.9-2,2v3.9h-42.4v-3.9c0-1.1-0.9-2-2-2h-2.6
				c-1.1,0-2,0.9-2,2v2.1h-0.6c-1.1,0-2,0.9-2,2l-0.2,5.4l-2.9,1.5c-0.8,0.4-1.2,1.4-1,2.2c0.2,0.9,1,1.5,1.9,1.5h6.8
				c0.5,0,1-0.2,1.4-0.5l2.2-2c0.4-0.4,0.6-0.9,0.6-1.5v-0.9h9.5c0.3,0.8,1,1.3,1.9,1.3h1.8c0.9,0,1.6-0.5,1.9-1.3h12.4
				c0.2,0.8,1,1.4,1.9,1.4h1.9l0,0c0.5,0,1-0.2,1.4-0.6c0.3-0.2,0.4-0.6,0.5-0.9h9.4v0.9c0,0.5,0.2,1,0.5,1.4l2.4,2.5
				c0.4,0.4,0.9,0.6,1.4,0.6l6.2,0.1l0,0c0.9,0,1.6-0.5,1.9-1.4c0.3-0.8,0-1.7-0.7-2.3L211,102v-6c0-1.1-0.9-2-2-2h-0.1v-1.7
				C208.9,91.3,208,90.4,206.9,90.4L206.9,90.4z"/>
		</g>
	</g>
	<g>
		<path class="st1" d="M102.4,149.9c-0.4,0-0.8-0.3-0.9-0.6s0-0.8,0.3-1.1l4-3.6c0.2-0.2,0.4-0.3,0.7-0.3c0,0,2.1,0,2.3,0
			c0-0.3,0-0.8,0-1.1c0-0.2,0-0.4,0-0.5c-0.5-0.1-1-0.5-1.3-1.4c-0.3-1,0-1.7,0.2-2.1c0.4-0.5,0.9-0.7,1.6-0.7
			c0.6,0,1.2,0.2,1.8,0.5c1.6,0.8,1.3,2.5,1.1,3.8c0.4-1.3,1.6-2.3,3.4-2.3c1.4,0,2,0.9,2.4,1.5c0.4,0.5,0.5,0.8,1.2,0.8
			c0.4,0,0.5-0.1,0.5-0.1s0-0.2,0.1-0.3c0.1-0.5,0.3-1.6,1.7-1.8c0.1,0,0.2,0,0.3,0c1.2,0,1.9,0.9,2.5,1.6c0.2,0.2,0.4,0.5,0.6,0.6
			c0.2-0.1,0.4-0.3,0.5-0.5c0.4-0.4,0.8-1.1,1.9-1.3c0.2,0,0.3-0.1,0.5-0.1c1,0,1.6,0.8,2,1.3c0.1,0.2,0.4,0.6,0.5,0.6l0,0
			c0,0,0,0,0-0.1c0.1-0.4,0.3-1.5,1.7-1.7c0.2,0,0.3,0,0.4,0c1.1,0,1.7,0.8,2.1,1.3c0.1,0.2,0.4,0.5,0.5,0.5c0.3-0.6,0.8-1.1,2-1.3
			c0.2,0,0.3,0,0.5,0c1.5,0,2.1,1.3,2.4,2c0,0.1,0.1,0.1,0.1,0.2c0.6-0.2,1.7-0.9,2.7-1.6c0.1-0.1,0.3-0.2,0.5-0.2c0,0,0.1,0,0.3,0
			c0.9,0,2.5,0.2,3.3,1.2c0.4,0.5,2.3,1.3,3.9,1.3c0.1,0,0.2,0,0.3,0h0.1c0.3,0,0.5,0.1,0.7,0.3s0.3,0.5,0.3,0.7v3.6
			c0,0.6-0.4,1-1,1h-48.7V149.9z"/>
		<g>
			<path d="M109.1,139.4c0.4,0,0.9,0.1,1.4,0.4c1.7,0.8-0.2,3.9,0.7,4.7c0.3,0.3,0.6,0.4,0.9,0.4c0.5,0,0.8-0.4,0.8-1.1
				c0-1.1,0.7-2.5,2.6-2.5c1.9,0,1.3,2.2,3.6,2.2s0.8-2,2.4-2.2c0.1,0,0.1,0,0.2,0c1.3,0,2.1,2.3,3.1,2.3c0.1,0,0.2,0,0.3-0.1
				c1.2-0.5,1-1.5,2.4-1.8c0.1,0,0.2,0,0.2,0c1.1,0,1.4,1.9,2.5,1.9c0.1,0,0.1,0,0.2,0c1.4-0.2,0.3-1.5,1.7-1.8c0.1,0,0.2,0,0.3,0
				c1.2,0,1.4,1.8,2.6,1.8c0,0,0,0,0.1,0c1.3-0.1,0.3-1,2.1-1.3c0.1,0,0.2,0,0.3,0c1.5,0,1.3,2.3,2.2,2.3l0,0c0.9,0,3.5-1.8,3.5-1.8
				s0.1,0,0.3,0c0.6,0,1.9,0.1,2.5,0.8c0.6,0.9,3,1.7,4.7,1.7c0.1,0,0.3,0,0.4,0v3.6h-48.7l4-3.6c0,0,0.9,0,1.7,0c0.4,0,0.8,0,1.1,0
				l0,0c0.8,0,0.4-1.9,0.4-3s-0.9,0.1-1.3-1.3C107.9,139.9,108.3,139.4,109.1,139.4 M109.1,137.4L109.1,137.4c-1,0-1.9,0.4-2.4,1.1
				c-0.3,0.5-0.8,1.4-0.4,3c0.2,0.5,0.5,1.3,1.2,1.8c-0.6,0-1.2,0-1.2,0c-0.5,0-1,0.2-1.3,0.5l-4,3.6c-0.6,0.6-0.8,1.4-0.5,2.2
				c0.3,0.8,1,1.3,1.9,1.3h48.7c1.1,0,2-0.9,2-2v-3.6c0-0.6-0.2-1.1-0.6-1.5c-0.4-0.3-0.9-0.5-1.4-0.5c-0.1,0-0.1,0-0.2,0
				c-0.1,0-0.2,0-0.2,0c-1.3,0-2.8-0.6-3.1-0.9c-1.1-1.4-3-1.6-4.1-1.6c-0.3,0-0.4,0-0.4,0c-0.4,0-0.7,0.2-1,0.4
				c-0.5,0.4-1.1,0.7-1.6,1c-0.5-0.8-1.3-1.9-2.9-1.9c-0.2,0-0.4,0-0.7,0.1c-0.8,0.2-1.4,0.4-1.8,0.7c-0.5-0.6-1.3-1.3-2.6-1.3
				c-0.2,0-0.4,0-0.6,0.1c-0.8,0.1-1.3,0.5-1.8,1c-0.5-0.5-1.2-1.1-2.3-1.1c-0.2,0-0.4,0-0.7,0.1c-1.2,0.3-1.8,0.9-2.3,1.3
				c-0.7-0.8-1.6-1.8-3.2-1.8l0,0c-0.1,0-0.3,0-0.4,0c-1.2,0.2-2,0.8-2.4,2l-0.1-0.1c-0.4-0.6-1.3-1.9-3.3-1.9c-1,0-1.8,0.2-2.4,0.6
				c-0.2-0.8-0.7-1.5-1.6-1.9C110.6,137.5,109.9,137.4,109.1,137.4L109.1,137.4L109.1,137.4z"/>
		</g>
	</g>
	<g>
		<path class="st1" d="M208.9,149.9c-0.6,0-1-0.4-1-1v-3.6c0-0.3,0.1-0.5,0.3-0.7c0.2-0.2,0.4-0.3,0.7-0.3h0.1c0.1,0,0.2,0,0.3,0
			c1.6,0,3.5-0.8,3.9-1.3c0.8-1.1,2.4-1.2,3.3-1.2c0.2,0,0.3,0,0.3,0c0.2,0,0.4,0.1,0.5,0.2c1,0.7,2.1,1.3,2.7,1.5
			c0-0.1,0.1-0.2,0.1-0.2c0.3-0.7,0.8-2,2.4-2c0.2,0,0.3,0,0.5,0c1.3,0.2,1.7,0.8,2,1.3l0,0c0.1,0,0.3-0.3,0.4-0.5
			c0.4-0.5,1-1.3,2.1-1.3c0.1,0,0.3,0,0.4,0c1.4,0.3,1.6,1.3,1.7,1.7v0.1c0.1,0,0.4-0.4,0.5-0.6c0.4-0.5,1-1.3,2-1.3
			c0.1,0,0.3,0,0.5,0.1c1.1,0.2,1.6,0.9,1.9,1.3c0.2,0.3,0.3,0.4,0.6,0.5c0.1-0.1,0.4-0.4,0.6-0.7c0.6-0.7,1.4-1.6,2.5-1.6
			c0.1,0,0.2,0,0.3,0c1.4,0.2,1.6,1.3,1.7,1.8c0,0.1,0.1,0.3,0.1,0.4l0,0c0,0,0.1,0,0.4,0c0.7,0,0.8-0.2,1.2-0.8
			c0.4-0.6,1-1.5,2.4-1.5c1.8,0,3,1,3.4,2.3c-0.2-1.2-0.5-3,1.1-3.8c0.7-0.3,1.3-0.5,1.8-0.5c0.7,0,1.3,0.3,1.6,0.7
			c0.3,0.4,0.5,1,0.2,2.1c-0.3,1-0.9,1.3-1.3,1.4c0,0.2,0,0.3,0,0.5c0,0.3,0,0.8,0,1.1c0.2,0,2.3,0,2.3,0c0.2,0,0.5,0.1,0.7,0.3
			l4,3.6c0.3,0.3,0.4,0.7,0.3,1.1c-0.1,0.4-0.5,0.6-0.9,0.6h-48.6V149.9z"/>
		<g>
			<path d="M250.8,139.4c0.8,0,1.2,0.6,0.9,1.5c-0.4,1.4-1.3,0.2-1.3,1.3s-0.3,3,0.4,3l0,0c0.3,0,0.7,0,1.1,0c0.8,0,1.7,0,1.7,0
				l4,3.6h-48.7v-3.6c0.1,0,0.3,0,0.4,0c1.7,0,4.1-0.8,4.7-1.7c0.5-0.8,1.9-0.8,2.5-0.8c0.2,0,0.3,0,0.3,0s2.6,1.8,3.5,1.8l0,0
				c0.8,0,0.7-2.3,2.2-2.3c0.1,0,0.2,0,0.3,0c1.8,0.3,0.9,1.2,2.1,1.3c0,0,0,0,0.1,0c1.1,0,1.4-1.8,2.6-1.8c0.1,0,0.2,0,0.3,0
				c1.5,0.3,0.3,1.6,1.7,1.8c0.1,0,0.1,0,0.2,0c1.2,0,1.4-1.9,2.5-1.9c0.1,0,0.2,0,0.2,0c1.4,0.3,1.2,1.3,2.4,1.8
				c0.1,0,0.2,0.1,0.3,0.1c1,0,1.8-2.3,3.1-2.3c0.1,0,0.1,0,0.2,0c1.5,0.2,0.1,2.2,2.4,2.2s1.7-2.2,3.6-2.2c1.9,0,2.6,1.4,2.6,2.5
				c0,0.7,0.3,1.1,0.8,1.1c0.3,0,0.6-0.1,0.9-0.4c0.9-0.8-1-3.9,0.7-4.7C249.9,139.4,250.4,139.4,250.8,139.4 M250.8,137.4
				c-0.7,0-1.5,0.2-2.3,0.6c-0.9,0.5-1.4,1.2-1.6,1.9c-0.7-0.4-1.5-0.6-2.4-0.6c-2,0-2.8,1.3-3.3,1.9l-0.1,0.1
				c-0.4-1.2-1.2-1.8-2.4-2c-0.1,0-0.3,0-0.4,0c-1.5,0-2.5,1-3.2,1.8c-0.4-0.5-1.1-1.1-2.3-1.3c-0.2,0-0.4-0.1-0.7-0.1
				c-1.1,0-1.8,0.5-2.3,1.1c-0.4-0.5-1-0.8-1.8-1c-0.2,0-0.4-0.1-0.6-0.1c-1.3,0-2.1,0.7-2.6,1.3c-0.4-0.3-1-0.6-1.8-0.7
				c-0.2,0-0.5-0.1-0.7-0.1c-1.6,0-2.5,1-2.9,1.9c-0.5-0.3-1.1-0.6-1.6-1c-0.3-0.2-0.7-0.3-1-0.4c0,0-0.2,0-0.4,0
				c-1.1,0-3,0.2-4.1,1.6c-0.3,0.3-1.9,0.9-3.1,0.9c-0.1,0-0.2,0-0.2,0c-0.1,0-0.1,0-0.2,0c-0.5,0-1,0.2-1.4,0.5
				c-0.4,0.4-0.6,0.9-0.6,1.5v3.6c0,1.1,0.9,2,2,2h48.7c0.8,0,1.6-0.5,1.9-1.3c0.3-0.8,0.1-1.6-0.5-2.2l-4-3.6
				c-0.4-0.3-0.8-0.5-1.3-0.5c0,0-0.5,0-1.2,0c0.7-0.5,1.1-1.2,1.2-1.8c0.4-1.5-0.1-2.5-0.4-3C252.6,137.8,251.8,137.4,250.8,137.4
				L250.8,137.4z"/>
		</g>
	</g>
	<g>
		<path class="st0" d="M236.3,183.1h-0.1c-0.4-0.1-0.7-0.3-0.8-0.6l-2.3-5.7c0-0.1-0.1-0.2-0.1-0.4v-23.9c0-0.5,0.4-1,0.9-1
			l27.7-2.2c0.4,0,0.7,0.2,0.9,0.5c0.2,0.4,0.1,0.8-0.1,1.1l-25.3,31.8C236.9,182.9,236.6,183.1,236.3,183.1z"/>
		<g>
			<path d="M261.6,150.2L261.6,150.2 M261.6,150.2l-25.3,31.8l-2.3-5.7v-23.9L261.6,150.2 M261.6,148.2
				C261.5,148.2,261.5,148.2,261.6,148.2c-0.1,0-0.1,0-0.2,0l-27.6,2.2c-1,0.1-1.8,1-1.8,2v23.9c0,0.3,0.1,0.5,0.1,0.8l2.3,5.7
				c0.3,0.7,0.9,1.1,1.6,1.2c0.1,0,0.2,0,0.3,0c0.6,0,1.2-0.3,1.6-0.8l25.3-31.8c0.3-0.3,0.5-0.8,0.5-1.3
				C263.6,149.1,262.7,148.2,261.6,148.2L261.6,148.2L261.6,148.2z M261.6,152.2L261.6,152.2L261.6,152.2L261.6,152.2z"/>
		</g>
	</g>
	<g>
		<path class="st1" d="M125.3,183.9c-0.3,0-0.6-0.1-0.8-0.4l-24.1-31.3c-0.2-0.3-0.3-0.6-0.1-1c0.1-0.3,0.4-0.6,0.7-0.6l3.3-0.7
			c0.1,0,0.1,0,0.2,0c0.1,0,0.2,0,0.3,0l18,5.4c0.4,0.1,0.7,0.5,0.7,0.9l2.9,26.6c0,0.4-0.2,0.9-0.6,1
			C125.6,183.9,125.4,183.9,125.3,183.9z"/>
		<g>
			<path d="M104.4,150.9l18,5.4l2.9,26.6l-24.1-31.3L104.4,150.9 M104.4,148.9c-0.1,0-0.3,0-0.4,0l-3.3,0.7
				c-0.7,0.1-1.2,0.6-1.5,1.3c-0.2,0.6-0.1,1.4,0.3,1.9l24.1,31.3c0.4,0.5,1,0.8,1.6,0.8c0.3,0,0.5,0,0.7-0.1
				c0.8-0.3,1.3-1.2,1.2-2.1l-2.9-26.6c-0.1-0.8-0.6-1.5-1.4-1.7l-18-5.4C104.8,148.9,104.6,148.9,104.4,148.9L104.4,148.9z"/>
		</g>
	</g>
	<g>
		<path class="st0" d="M213.8,283c-0.5,0-1-0.4-1-1l-1.6-67h-63l-2,67c0,0.5-0.5,1-1,1H56.8c-0.6,0-1-0.4-1-1v-57.1
			c0-0.3,0.1-0.5,0.3-0.7s0.4-0.3,0.7-0.3l78.2,0.6v-7.4h-2c-0.5,0-1-0.4-1-1c0-0.3-0.4-7.9-12.8-7.9h-0.3c-0.2,0-0.4-0.1-0.5-0.1
			l-7.6-4.6c-0.4-0.2-0.6-0.7-0.4-1.1c0.1-0.4,0.5-0.7,1-0.7h135.8c0.4,0,0.8,0.3,1,0.7c0.1,0.4-0.1,0.9-0.4,1.1l-7.9,4.9
			c-0.1,0-0.2,0.1-0.3,0.1c-10,2.8-11.4,4.9-14.2,9.2c-0.2,0.3-0.5,0.5-0.8,0.5h-1.1l0.2,6.8h79.5c0.6,0,1,0.4,1,1v56
			c0,0.6-0.4,1-1,1H213.8z"/>
		<g>
			<path d="M247.1,202.6L247.1,202.6 M247.1,202.6l-7.9,4.9c-10.2,2.8-11.8,5.1-14.7,9.6h-2.2l0.3,8.8h80.5v56h-89.3l-1.6-68h-65
				l-2.1,68H56.8v-57.1l79.2,0.6V216h-3c0,0-0.2-8.8-13.8-8.8c-0.1,0-0.2,0-0.3,0l-7.6-4.6L247.1,202.6 M247.1,200.6L247.1,200.6
				H111.3c-0.9,0-1.7,0.6-1.9,1.5s0.1,1.8,0.9,2.2l7.6,4.6c0.3,0.2,0.7,0.3,1,0.3l0,0h0.3c11.3,0,11.8,6.6,11.8,6.9
				c0,1.1,0.9,1.9,2,1.9h1v5.4l-77.2-0.5l0,0c-0.5,0-1,0.2-1.4,0.6c-0.4,0.4-0.6,0.9-0.6,1.4V282c0,1.1,0.9,2,2,2h88.4
				c1.1,0,2-0.9,2-1.9l2-66h61l1.6,66c0,1.1,0.9,2,2,2h89.4c1.1,0,2-0.9,2-2v-56c0-1.1-0.9-2-2-2h-78.6l-0.2-4.8h0.1
				c0.7,0,1.3-0.3,1.7-0.9c2.7-4.2,4-6.1,13.6-8.8c0.2-0.1,0.4-0.1,0.5-0.2l7.9-4.9c0.6-0.3,1-1,1-1.7
				C249.1,201.4,248.2,200.6,247.1,200.6L247.1,200.6z M247.1,204.6L247.1,204.6L247.1,204.6L247.1,204.6z"/>
		</g>
	</g>
	<polyline class="st3" points="226.6,173.8 232,173.8 232,191.2 	"/>
	<g>
		<path class="st0" d="M150.1,147.2c-0.4,0-0.8-0.3-1-0.7l-10.6-34.2c-0.1-0.3,0-0.6,0.2-0.9c0.2-0.3,0.5-0.4,0.8-0.4l82.2,0.5
			c0.3,0,0.6,0.2,0.8,0.4c0.2,0.3,0.2,0.6,0.1,0.9l-11.2,33.7c-0.1,0.4-0.5,0.7-0.9,0.7H150.1z"/>
		<g>
			<path d="M139.4,112l82.2,0.5l-11.2,33.7h-60.3L139.4,112 M139.4,110c-0.6,0-1.2,0.3-1.6,0.8c-0.4,0.5-0.5,1.2-0.3,1.8l10.7,34.2
				c0.3,0.8,1,1.4,1.9,1.4h60.3c0.9,0,1.6-0.6,1.9-1.4l11.2-33.7c0.2-0.6,0.1-1.3-0.3-1.8s-1-0.8-1.6-0.8L139.4,110L139.4,110
				L139.4,110z"/>
		</g>
	</g>
	<g>
		<path class="st0" d="M149.4,152.8c-0.3,0-0.5-0.1-0.7-0.3s-0.3-0.5-0.3-0.7l1-31.7c0-0.5,0.5-1,1-1h60.4c0.6,0,1,0.4,1,1v31.7
			c0,0.6-0.4,1-1,1H149.4z"/>
		<g>
			<path d="M210.9,120v31.7h-61.5l1-31.7L210.9,120 M210.9,118h-60.4c-1.1,0-2,0.9-2,1.9l-1,31.7c0,0.5,0.2,1.1,0.6,1.5
				s0.9,0.6,1.4,0.6h61.4c1.1,0,2-0.9,2-2V120C212.9,118.9,212,118,210.9,118L210.9,118z"/>
		</g>
	</g>
	<g>
		<polygon class="st1" points="153.6,143.2 154.2,123.3 164.7,123.3 164.2,143.2 		"/>
		<path d="M163.7,124.3l-0.4,17.9h-8.7l0.6-17.9H163.7 M165.7,122.3h-2h-8.5h-1.9l-0.1,1.9l-0.6,17.9l-0.1,2.1h2.1h8.7h2v-2
			l0.4-17.9V122.3L165.7,122.3z M163.7,126.3L163.7,126.3L163.7,126.3L163.7,126.3z"/>
	</g>
	<g>
		<rect x="196.9" y="123.3" class="st1" width="10.4" height="19.9"/>
		<path d="M206.3,124.3v17.9h-8.4v-17.9H206.3 M208.3,122.3h-2h-8.4h-2v2v17.9v2h2h8.4h2v-2v-17.9V122.3L208.3,122.3z"/>
	</g>
	<g>
		<path class="st1" d="M180.5,142.8c-5.3,0-9.7-4.1-9.7-9c0-5,4.4-9,9.7-9c5.3,0,9.7,4.1,9.7,9S185.8,142.8,180.5,142.8z"/>
		<g>
			<path d="M180.5,125.6c4.8,0,8.7,3.6,8.7,8s-3.9,8-8.7,8c-4.8,0-8.7-3.6-8.7-8S175.7,125.6,180.5,125.6 M180.5,123.6
				c-5.9,0-10.7,4.5-10.7,10s4.8,10,10.7,10s10.7-4.5,10.7-10S186.4,123.6,180.5,123.6L180.5,123.6z"/>
		</g>
	</g>
	<g>
		<path class="st2" d="M139.4,113c-0.6,0-1-0.4-1-1v-2.9c0-0.3,0.1-0.5,0.3-0.7s0.4-0.3,0.7-0.3l82.2,0.5c0.5,0,1,0.5,1,1v2.8
			c0,0.3-0.1,0.5-0.3,0.7c-0.2,0.2-0.4,0.3-0.7,0.3C221.6,113.5,139.4,113,139.4,113z"/>
		<g>
			<path d="M139.4,109.1l82.2,0.5v2.8l-82.2-0.5V109.1 M139.4,107.1c-0.5,0-1,0.2-1.4,0.6c-0.4,0.4-0.6,0.9-0.6,1.4v2.9
				c0,1.1,0.9,2,2,2l82.2,0.5l0,0c0.5,0,1-0.2,1.4-0.6s0.6-0.9,0.6-1.4v-2.8c0-1.1-0.9-2-2-2L139.4,107.1L139.4,107.1L139.4,107.1z"
				/>
		</g>
	</g>
	<g>
		<path class="st0" d="M121.3,200.6c-0.3,0-0.5-0.1-0.7-0.3s-0.3-0.5-0.3-0.7l1.1-27.8l-1.6-1.6c-0.2-0.2-0.3-0.4-0.3-0.7v-1.7
			c0-0.3,0.1-0.6,0.4-0.8l1.3-1.1c-1-2-4.5-7.7-10.8-9.3h-0.1l-11.5-4.8c-0.4-0.2-0.6-0.5-0.6-0.9v-2.6c0-0.6,0.4-1,1-1h162.5
			c0.6,0,1,0.4,1,1v2.1c0,0.4-0.2,0.7-0.6,0.9s-9,4.4-10.8,5.2c-6.4,2.9-10.6,6.4-12.1,10l1.4,1.3c0.2,0.2,0.3,0.5,0.3,0.7v1.5
			c0,0.3-0.1,0.5-0.3,0.7l-1.4,1.4l0.9,27.1c0,0.3-0.1,0.5-0.3,0.7c-0.2,0.2-0.4,0.3-0.7,0.3C239.1,200.1,121.3,200.6,121.3,200.6z"
			/>
		<g>
			<path d="M261.6,148.1v2.1c0,0-8.9,4.4-10.8,5.2c-1.8,0.8-10.8,4.8-12.9,11.2l1.9,1.7v1.5l-1.7,1.7l1,27.5l-117.8,0.5l1.1-28.2
				l-1.9-2v-1.7l1.9-1.6c0,0-3.6-8.5-11.8-10.6l-11.5-4.8V148h162.5 M261.6,146.1H99c-1.1,0-2,0.9-2,2v2.6c0,0.8,0.5,1.5,1.2,1.8
				l11.5,4.8c0.1,0,0.2,0.1,0.3,0.1c5.3,1.4,8.5,5.9,9.8,8.1l-0.7,0.5c-0.5,0.4-0.7,0.9-0.7,1.5v1.7c0,0.5,0.2,1,0.6,1.4l1.3,1.3
				l-1,27.3c0,0.5,0.2,1.1,0.6,1.5s0.9,0.6,1.4,0.6l0,0l117.8-0.5c0.5,0,1.1-0.2,1.4-0.6c0.4-0.4,0.6-0.9,0.6-1.5l-0.9-26.6l1.1-1.1
				c0.4-0.4,0.6-0.9,0.6-1.4v-1.5c0-0.6-0.2-1.1-0.7-1.5l-0.9-0.8c1.6-3.1,5.6-6.2,11.3-8.8h0.1c1.8-0.8,10.5-5.1,10.8-5.2
				c0.7-0.3,1.1-1,1.1-1.8v-2.1C263.6,147,262.7,146.1,261.6,146.1L261.6,146.1z"/>
		</g>
	</g>
	<g>
		<polygon class="st1" points="128,166.6 128.4,154.8 145.6,154.8 145.4,166.6 		"/>
		<path d="M144.6,155.8L144.6,155.8 M144.6,155.8l-0.2,9.8H129l0.3-9.8H144.6 M146.6,153.8h-2h-15.2h-1.9l-0.1,1.9l-0.3,9.8
			l-0.1,2.1h2.1h15.4h2v-2l0.2-9.8L146.6,153.8L146.6,153.8z M144.6,153.8L144.6,153.8L144.6,153.8L144.6,153.8z M144.6,157.8
			L144.6,157.8L144.6,157.8L144.6,157.8z"/>
	</g>
	<polyline class="st3" points="172.7,122.9 169.3,122.9 169.3,125.8 	"/>
	<polyline class="st3" points="168.8,140.9 168.8,143.4 172.1,143.4 	"/>
	<polyline class="st3" points="188.6,122.9 192,122.9 192,125.8 	"/>
	<polyline class="st3" points="192.5,140.9 192.5,143.4 189.2,143.4 	"/>
	<g>
		<path class="st1" d="M215.8,166.8c-0.6,0-1-0.4-1-1v-10c0-0.6,0.4-1,1-1h15.9c0.5,0,1,0.4,1,1l0.3,10c0,0.3-0.1,0.5-0.3,0.7
			c-0.2,0.2-0.4,0.3-0.7,0.3H215.8z"/>
		<path d="M231.7,155.8l0.3,10h-16.2v-10H231.7 M231.7,153.8h-15.9c-1.1,0-2,0.9-2,2v10c0,1.1,0.9,2,2,2h16.1c0.5,0,1.1-0.2,1.4-0.6
			s0.6-0.9,0.6-1.4l-0.3-10C233.7,154.5,232.8,153.8,231.7,153.8L231.7,153.8z"/>
	</g>
	<g>
		<path class="st1" d="M197.9,167.2c-0.5,0-1-0.5-1-1v-10.6c0-0.6,0.4-1,1-1h11.3c0.6,0,1,0.4,1,1v11c0,0.3-0.1,0.5-0.3,0.7
			c-0.2,0.2-0.4,0.3-0.7,0.3C209.2,167.8,197.9,167.2,197.9,167.2z"/>
		<path d="M209.2,155.8v11l-11.3-0.5v-10.6h11.3 M209.2,153.8h-11.3c-1.1,0-2,0.9-2,2v10.6c0,1.1,0.8,2,1.9,2l11.3,0.5h0.1
			c0.5,0,1-0.2,1.4-0.6c0.4-0.4,0.6-0.9,0.6-1.4v-11C211.2,154.6,210.3,153.8,209.2,153.8L209.2,153.8z"/>
	</g>
	<g>
		<polygon class="st1" points="150,166.1 150,154.8 164,154.8 163.9,166.1 		"/>
		<path d="M163,155.8L163,155.8 M163,155.8v9.3h-12v-9.3H163 M165,153.8h-2h-12h-2v2v9.3v2h2h11.9h2v-2v-9.3L165,153.8L165,153.8z
			 M163,153.8L163,153.8L163,153.8L163,153.8z M163,157.8L163,157.8L163,157.8L163,157.8z"/>
	</g>
	<g>
		<path class="st2" d="M146.9,226.6c-0.3,0-0.5-0.1-0.7-0.3s-0.3-0.5-0.3-0.7l0.4-11.6c0-0.5,0.5-1,1-1h64.9c0.5,0,1,0.4,1,1
			l0.3,11.6c0,0.3-0.1,0.5-0.3,0.7c-0.2,0.2-0.4,0.3-0.7,0.3H146.9z"/>
		<g>
			<path d="M212.1,213.9l0.3,11.6h-65.5l0.4-11.6H212.1 M212.1,211.9h-64.9c-1.1,0-2,0.9-2,1.9l-0.4,11.6c0,0.5,0.2,1.1,0.6,1.5
				s0.9,0.6,1.4,0.6h65.5c0.5,0,1.1-0.2,1.4-0.6c0.4-0.4,0.6-0.9,0.6-1.4l-0.3-11.6C214.1,212.8,213.2,211.9,212.1,211.9
				L212.1,211.9z"/>
		</g>
	</g>
	<g>
		<path class="st1" d="M146.5,238.9c-0.3,0-0.5-0.1-0.7-0.3c-0.2-0.2-0.3-0.5-0.3-0.7l0.2-5.3c0-0.5,0.5-1,1-1h65.7
			c0.5,0,1,0.4,1,0.9l0.3,5.7c0,0.3-0.1,0.5-0.3,0.7c-0.2,0.2-0.5,0.3-0.7,0.3C212.7,239.3,146.5,238.9,146.5,238.9z"/>
		<g>
			<path d="M212.4,232.6l0.3,5.7l-66.2-0.4l0.2-5.3H212.4 M212.4,230.6h-65.7c-1.1,0-2,0.9-2,1.9l-0.2,5.3c0,0.5,0.2,1.1,0.6,1.5
				c0.4,0.4,0.9,0.6,1.4,0.6l66.2,0.4l0,0c0.5,0,1.1-0.2,1.4-0.6c0.4-0.4,0.6-0.9,0.5-1.5l-0.3-5.7
				C214.3,231.4,213.5,230.6,212.4,230.6L212.4,230.6z"/>
		</g>
	</g>
	<path class="st3" d="M140.8,230.4"/>
	<polyline class="st4" points="232.7,184.8 232.1,172.1 229.2,172.1 	"/>
	<polyline class="st4" points="127.3,184.8 127.8,172.1 130.7,172.1 	"/>
	<g>
		<path class="st0" d="M180.6,138.6c-2.9,0-5.2-2.2-5.2-5s2.3-5,5.2-5s5.2,2.2,5.2,5C185.8,136.4,183.5,138.6,180.6,138.6z"/>
		<g>
			<path d="M180.6,129.5c2.3,0,4.2,1.8,4.2,4c0,2.2-1.9,4-4.2,4c-2.3,0-4.2-1.8-4.2-4C176.4,131.4,178.3,129.5,180.6,129.5
				 M180.6,127.5c-3.4,0-6.2,2.7-6.2,6c0,3.3,2.8,6,6.2,6s6.2-2.7,6.2-6C186.8,130.2,184,127.5,180.6,127.5L180.6,127.5z"/>
		</g>
	</g>
	<g>
		<path class="st2" d="M101.2,150.8c-0.6,0-1-0.4-1-1v-2.3c0-0.6,0.4-1,1-1H260c0.6,0,1,0.4,1,1v2.9c0,0.3-0.1,0.5-0.3,0.7
			c-0.2,0.2-0.4,0.3-0.7,0.3C260,151.2,101.2,150.8,101.2,150.8z"/>
		<g>
			<path d="M260,147.4v2.9l-158.8-0.5v-2.3L260,147.4 M260,145.4H101.2c-1.1,0-2,0.9-2,2v2.3c0,1.1,0.9,2,2,2l158.8,0.5l0,0
				c0.5,0,1-0.2,1.4-0.6s0.6-0.9,0.6-1.4v-2.9C262,146.2,261.1,145.4,260,145.4L260,145.4z"/>
		</g>
	</g>
	<g>
		<polygon class="st0" points="132.3,162.8 132.5,158.5 141.2,158.5 141.1,162.8 		"/>
		<path d="M140.2,159.5L140.2,159.5 M140.2,159.5v2.2h-6.8l0.1-2.2H140.2 M142.2,157.5h-2h-6.7h-1.9l-0.1,1.9l-0.1,2.2l-0.1,2.1h2.1
			h6.8h2v-2v-2.2L142.2,157.5L142.2,157.5z M140.2,157.5L140.2,157.5L140.2,157.5L140.2,157.5z M140.2,161.5L140.2,161.5
			L140.2,161.5L140.2,161.5z"/>
	</g>
	<g>
		<polygon class="st0" points="219.4,162.8 219.3,158.5 228,158.5 228.1,162.8 		"/>
		<path d="M227,159.5l0.1,2.2h-6.8v-2.2H227 M228.9,157.5H227h-6.7h-2v2v2.2v2h2h6.8h2.1l-0.1-2.1l-0.1-2.2L228.9,157.5L228.9,157.5
			z"/>
	</g>
	<g>
		<polygon class="st0" points="154.1,162.8 154.1,158.5 160.8,158.5 160.9,162.8 		"/>
		<path d="M159.9,159.5v2.2h-4.8v-2.2H159.9 M161.8,157.5h-2h-4.7h-2v2v2.2v2h2h4.8h2v-2v-2.2L161.8,157.5L161.8,157.5z"/>
	</g>
	<g>
		<polygon class="st0" points="201.3,162.8 201.3,158.5 205.9,158.5 205.9,162.8 		"/>
		<path d="M204.9,159.5v2.2h-2.6v-2.2H204.9 M206.9,157.5h-2h-2.6h-2v2v2.2v2h2h2.6h2v-2v-2.2V157.5L206.9,157.5z M204.9,161.5
			L204.9,161.5L204.9,161.5L204.9,161.5z"/>
	</g>
	<g>
		<g>
			<path class="st2" d="M56.8,247.3c-0.6,0-1-0.4-1-1v-14.5c0-0.6,0.4-1,1-1h80.4c0.4,0,0.7,0.2,0.9,0.5c0.2,0.3,0.2,0.7,0,1
				l-7.8,14.5c-0.2,0.3-0.5,0.5-0.9,0.5H56.8z"/>
			<g>
				<path d="M137.2,231.8L137.2,231.8 M137.2,231.8l-7.8,14.5H56.8v-14.5H137.2 M137.2,229.8L137.2,229.8H56.8c-1.1,0-2,0.9-2,2
					v14.5c0,1.1,0.9,2,2,2h72.6c0.7,0,1.4-0.4,1.8-1.1l7.8-14.5c0.2-0.3,0.3-0.6,0.3-1C139.2,230.8,138.3,229.8,137.2,229.8
					L137.2,229.8z M137.2,233.8L137.2,233.8L137.2,233.8L137.2,233.8z"/>
			</g>
		</g>
		<g>
			<path class="st2" d="M117.6,204.3l-60.8-0.8c-0.5,0-1-0.5-1-1v-17.9c0-0.6,0.4-1,1-1h65c0.6,0,1,0.4,1,1v18.6c0,0.6-0.4,1-1,1
				L117.6,204.3L117.6,204.3z"/>
			<g>
				<path d="M121.8,184.8v18.6h-4.3l-60.7-0.8v-17.9L121.8,184.8 M121.8,182.8h-65c-1.1,0-2,0.9-2,2v17.9c0,1.1,0.9,2,2,2l60.8,0.7
					h4.3c1.1,0,2-0.9,2-2v-18.6C123.8,183.6,122.9,182.8,121.8,182.8L121.8,182.8z"/>
			</g>
		</g>
		<g>
			<path class="st1" d="M56.8,188.1c-0.6,0-1-0.4-1-1v-9.6c0-0.6,0.4-1,1-1h44.4c0.6,0,1,0.4,1,1v1.8c0,0.3-0.2,0.6-0.4,0.8
				l-11.7,7.8c-0.2,0.1-0.4,0.2-0.6,0.2H56.8z"/>
			<g>
				<path d="M101.2,177.6v1.8l-11.7,7.8H56.8v-9.6H101.2 M101.2,175.6H56.8c-1.1,0-2,0.9-2,2v9.6c0,1.1,0.9,2,2,2h32.7
					c0.4,0,0.8-0.1,1.1-0.3l11.7-7.8c0.6-0.4,0.9-1,0.9-1.7v-1.8C103.2,176.4,102.3,175.6,101.2,175.6L101.2,175.6z"/>
			</g>
		</g>
		<g>
			<path class="st0" d="M56.8,225.8c-0.5,0-1-0.5-1-1v-20c0-0.5,0.4-1,1-1c0,0,5-0.1,8.5-0.1c2.6,0,3.3,0.1,3.6,0.2
				c2.2,0.2,36.1,0.8,58.7,1.1c0.1,0,0.3,0,0.4,0.1l9.7,4.4c0.3,0.2,0.6,0.5,0.6,0.8l1.1,15.1c0,0.3-0.1,0.6-0.3,0.8
				s-0.5,0.3-0.7,0.3C138.3,226.6,56.8,225.8,56.8,225.8z"/>
			<g>
				<path d="M65.3,204.8c1.8,0,3.1,0,3.3,0.1c0.6,0.3,58.9,1.1,58.9,1.1l9.7,4.4l1.1,15.1l-81.5-0.6v-20
					C56.8,204.9,61.8,204.8,65.3,204.8 M65.3,202.8c-3.5,0-8.5,0.2-8.6,0.2c-1.1,0-1.9,0.9-1.9,2v20c0,1.1,0.9,2,2,2l81.5,0.7l0,0
					c0.6,0,1.1-0.2,1.5-0.6c0.4-0.4,0.6-1,0.5-1.5l-1.1-15.1c-0.1-0.7-0.5-1.4-1.2-1.7l-9.7-4.4c-0.3-0.1-0.5-0.2-0.8-0.2
					c-22.2-0.3-55.6-0.9-58.5-1.1C68.6,202.8,67.7,202.8,65.3,202.8L65.3,202.8z"/>
			</g>
		</g>
		<g>
			<path class="st1" d="M56.8,208.2c-0.6,0-1-0.4-1-1v-4.6c0-0.3,0.1-0.5,0.3-0.7s0.4-0.3,0.7-0.3l60.8,0.7c0.4,0,0.8,0.3,0.9,0.7
				l1.4,3.9c0.1,0.3,0.1,0.6-0.1,0.9s-0.5,0.4-0.8,0.4L56.8,208.2L56.8,208.2z"/>
			<g>
				<path d="M56.8,202.6l60.8,0.7l1.4,3.9H56.8V202.6 M56.8,200.6c-0.5,0-1,0.2-1.4,0.6c-0.4,0.4-0.6,0.9-0.6,1.4v4.6
					c0,1.1,0.9,2,2,2h62.1c0.6,0,1.3-0.3,1.6-0.8c0.4-0.5,0.5-1.2,0.3-1.8l-1.4-3.9c-0.3-0.8-1-1.3-1.9-1.3L56.8,200.6L56.8,200.6
					L56.8,200.6z"/>
			</g>
		</g>
		<g>
			<path class="st0" d="M98.7,283c-0.6,0-1-0.4-1-1v-27.3c0-0.6,0.4-1,1-1h28.6c0.6,0,1,0.4,1,1V282c0,0.6-0.4,1-1,1H98.7z"/>
			<path d="M127.3,254.6V282H98.7v-27.3H127.3 M127.3,252.6H98.7c-1.1,0-2,0.9-2,2V282c0,1.1,0.9,2,2,2h28.6c1.1,0,2-0.9,2-2v-27.3
				C129.3,253.6,128.4,252.6,127.3,252.6L127.3,252.6z"/>
		</g>
		<g>
			<path class="st0" d="M63.1,283c-0.6,0-1-0.4-1-1v-27.3c0-0.6,0.4-1,1-1h26.7c0.6,0,1,0.4,1,1V282c0,0.6-0.4,1-1,1H63.1z"/>
			<path d="M89.8,254.6V282H63.1v-27.3H89.8 M89.8,252.6H63.1c-1.1,0-2,0.9-2,2V282c0,1.1,0.9,2,2,2h26.7c1.1,0,2-0.9,2-2v-27.3
				C91.8,253.6,90.9,252.6,89.8,252.6L89.8,252.6z"/>
		</g>
		<g>
			<path class="st0" d="M136,260.5c-0.6,0-1-0.4-1-1c0-8.4-1.9-9.4-2-9.5c-0.4,0-0.7-0.2-0.9-0.6l-0.9-2h-1.8c-0.6,0-1-0.4-1-1v-2.4
				c0-0.2,0-0.3,0.1-0.5l6.6-12.1c0.2-0.3,0.5-0.5,0.9-0.5h2.4c0.6,0,1,0.4,1,1v27.6c0,0.6-0.4,1-1,1H136z"/>
			<g>
				<path d="M138.3,231.8v27.6H136c0-10.2-2.7-10.5-3-10.5l0,0l-1.2-2.6h-2.5v-2.4l6.6-12.1H138.3 M138.3,229.8h-2.4
					c-0.7,0-1.4,0.4-1.8,1l-6.6,12.1c-0.2,0.3-0.2,0.6-0.2,1v2.4c0,1.1,0.9,2,2,2h1.2l0.6,1.4c0.3,0.6,0.8,1,1.4,1.1
					c0.3,0.3,1.4,2.1,1.4,8.5c0,1.1,0.9,2,2,2h2.3c1.1,0,2-0.9,2-2v-27.6C140.3,230.8,139.4,229.8,138.3,229.8L138.3,229.8z"/>
			</g>
		</g>
		<polyline class="st3" points="56.8,220.6 73.2,220.6 73.6,219.1 77,219.1 77.4,220.6 95.5,220.6 96.1,219.1 99.5,219.1 100,220.6 
			120.4,220.6 120.4,217.1 123.7,215.3 127,217.1 127,220.6 138.3,220.6 		"/>
	</g>
	<g>
		<g>
			<path class="st2" d="M230.5,247.3c-0.4,0-0.7-0.2-0.9-0.5l-7.8-14.5c-0.2-0.3-0.2-0.7,0-1c0.2-0.3,0.5-0.5,0.9-0.5h80.4
				c0.6,0,1,0.4,1,1v14.5c0,0.6-0.4,1-1,1H230.5z"/>
			<g>
				<path d="M303.1,231.8v14.5h-72.6l-7.8-14.5H303.1 M303.1,229.8h-80.4c-0.7,0-1.4,0.4-1.7,1c-0.4,0.6-0.4,1.4,0,2l7.8,14.5
					c0.3,0.6,1,1.1,1.8,1.1h72.6c1.1,0,2-0.9,2-2v-14.5C305.1,230.8,304.2,229.8,303.1,229.8L303.1,229.8z"/>
			</g>
		</g>
		<g>
			<path class="st2" d="M238.1,204.3c-0.6,0-1-0.4-1-1v-18.6c0-0.6,0.4-1,1-1h65c0.6,0,1,0.4,1,1v17.9c0,0.5-0.4,1-1,1l-60.8,0.7
				L238.1,204.3L238.1,204.3z"/>
			<g>
				<path d="M303.1,184.8v17.9l-60.8,0.7H238v-18.6L303.1,184.8 M303.1,182.8h-65c-1.1,0-2,0.9-2,2v18.6c0,1.1,0.9,2,2,2h4.3
					l60.8-0.7c1.1,0,2-0.9,2-2v-17.9C305.1,183.6,304.2,182.8,303.1,182.8L303.1,182.8z"/>
			</g>
		</g>
		<g>
			<path class="st1" d="M270.4,188.1c-0.2,0-0.4-0.1-0.6-0.2l-11.7-7.8c-0.3-0.2-0.4-0.5-0.4-0.8v-1.8c0-0.6,0.4-1,1-1h44.4
				c0.6,0,1,0.4,1,1v9.6c0,0.6-0.4,1-1,1H270.4z"/>
			<g>
				<path d="M303.1,177.6v9.6h-32.7l-11.7-7.8v-1.8H303.1 M303.1,175.6h-44.4c-1.1,0-2,0.9-2,2v1.8c0,0.7,0.3,1.3,0.9,1.7l11.7,7.8
					c0.3,0.2,0.7,0.3,1.1,0.3h32.7c1.1,0,2-0.9,2-2v-9.6C305.1,176.4,304.2,175.6,303.1,175.6L303.1,175.6z"/>
			</g>
		</g>
		<g>
			<path class="st0" d="M221.6,226.6c-0.3,0-0.5-0.1-0.7-0.3c-0.2-0.2-0.3-0.5-0.3-0.8l1.1-15.1c0-0.4,0.2-0.7,0.6-0.8l9.7-4.4
				c0.1-0.1,0.3-0.1,0.4-0.1c22.5-0.3,56.4-0.9,58.7-1.1c0.3-0.1,1-0.2,3.6-0.2c3.5,0,8.5,0.1,8.5,0.1c0.5,0,1,0.5,1,1v20
				c0,0.5-0.4,1-1,1C303.1,225.8,221.6,226.6,221.6,226.6z"/>
			<g>
				<path d="M294.6,204.8c3.5,0,8.5,0.1,8.5,0.1v20l-81.5,0.7l1.1-15.1l9.7-4.4c0,0,58.3-0.8,58.9-1.1
					C291.5,204.8,292.9,204.8,294.6,204.8 M294.6,202.8c-2.4,0-3.3,0.1-3.8,0.2c-2.9,0.2-36.3,0.8-58.5,1.1c-0.3,0-0.6,0.1-0.8,0.2
					l-9.7,4.4c-0.7,0.3-1.1,0.9-1.2,1.7l-1.1,15.1c0,0.6,0.2,1.1,0.5,1.5c0.4,0.4,0.9,0.6,1.5,0.6l0,0l81.5-0.7c1.1,0,2-0.9,2-2v-20
					c0-1.1-0.9-2-1.9-2C303.1,202.9,298.1,202.8,294.6,202.8L294.6,202.8z"/>
			</g>
		</g>
		<g>
			<path class="st1" d="M241,208.2c-0.3,0-0.6-0.2-0.8-0.4c-0.2-0.2-0.2-0.6-0.1-0.9l1.4-3.9c0.1-0.4,0.5-0.7,0.9-0.7l60.8-0.7
				c0.3,0,0.5,0.1,0.7,0.3c0.2,0.2,0.3,0.4,0.3,0.7v4.6c0,0.6-0.4,1-1,1L241,208.2L241,208.2z"/>
			<g>
				<path d="M303.1,202.6v4.6H241l1.4-3.9L303.1,202.6 M303.1,200.6L303.1,200.6l-60.8,0.7c-0.8,0-1.6,0.5-1.9,1.3l-1.4,3.9
					c-0.2,0.6-0.1,1.3,0.3,1.8c0.4,0.5,1,0.8,1.6,0.8H303c1.1,0,2-0.9,2-2v-4.6c0-0.5-0.2-1-0.6-1.4
					C304.1,200.8,303.6,200.6,303.1,200.6L303.1,200.6z"/>
			</g>
		</g>
		<g>
			<path class="st0" d="M232.7,283c-0.6,0-1-0.4-1-1v-27.3c0-0.6,0.4-1,1-1h28.6c0.6,0,1,0.4,1,1V282c0,0.6-0.4,1-1,1H232.7z"/>
			<path d="M261.2,254.6V282h-28.6v-27.3H261.2 M261.2,252.6h-28.6c-1.1,0-2,0.9-2,2V282c0,1.1,0.9,2,2,2h28.6c1.1,0,2-0.9,2-2
				v-27.3C263.2,253.6,262.3,252.6,261.2,252.6L261.2,252.6z"/>
		</g>
		<g>
			<path class="st0" d="M270.1,283c-0.6,0-1-0.4-1-1v-27.3c0-0.6,0.4-1,1-1h26.7c0.6,0,1,0.4,1,1V282c0,0.6-0.4,1-1,1H270.1z"/>
			<path d="M296.8,254.6V282h-26.7v-27.3H296.8 M296.8,252.6h-26.7c-1.1,0-2,0.9-2,2V282c0,1.1,0.9,2,2,2h26.7c1.1,0,2-0.9,2-2
				v-27.3C298.8,253.6,297.9,252.6,296.8,252.6L296.8,252.6z"/>
		</g>
		<g>
			<path class="st0" d="M221.6,260.5c-0.6,0-1-0.4-1-1v-27.6c0-0.6,0.4-1,1-1h2.4c0.4,0,0.7,0.2,0.9,0.5l6.6,12.1
				c0.1,0.1,0.1,0.3,0.1,0.5v2.4c0,0.6-0.4,1-1,1h-1.8l-0.9,2c-0.2,0.4-0.5,0.6-0.9,0.6c-0.2,0.1-2,1-2,9.5c0,0.6-0.4,1-1,1H221.6z"
				/>
			<g>
				<path d="M223.9,231.8l6.6,12.1v2.4H228l-1.2,2.6l0,0c-0.3,0-3,0.3-3,10.5h-2.3v-27.6H223.9 M223.9,229.8h-2.4c-1.1,0-2,0.9-2,2
					v27.6c0,1.1,0.9,2,2,2h2.3c1.1,0,2-0.9,2-2c0-6.4,1.1-8.2,1.4-8.5c0.6-0.1,1.2-0.5,1.4-1.1l0.6-1.4h1.2c1.1,0,2-0.9,2-2v-2.5
					c0-0.3-0.1-0.7-0.2-1l-6.6-12.1C225.4,230.2,224.7,229.8,223.9,229.8L223.9,229.8z"/>
			</g>
		</g>
		<polyline class="st3" points="303.1,220.6 286.7,220.6 286.3,219.1 282.9,219.1 282.5,220.6 264.4,220.6 263.8,219.1 260.4,219.1 
			259.9,220.6 239.5,220.6 239.5,217.1 236.2,215.3 232.9,217.1 232.9,220.6 221.6,220.6 		"/>
	</g>
	<polyline class="st5" points="157.6,126.3 161.2,126.3 161.2,129.6 157.4,129.6 157.2,132.9 161.2,132.9 161.2,136.4 157.2,136.4 
		157.1,139.9 161.2,139.9 	"/>
	<polyline class="st5" points="204.1,126.3 200.1,126.3 200.1,129.6 204.1,129.6 204.1,132.9 200.1,132.9 200.1,136.4 204.1,136.4 
		204.1,139.9 200.1,139.9 	"/>
	<g>
		<path class="st0" d="M139.8,196.8c-0.4,0-0.7-0.2-0.9-0.5l-2.1-3.9c-0.1-0.2-0.1-0.3-0.1-0.5l0.4-12.6l-3.2,1.6
			c-0.1,0.1-0.3,0.1-0.5,0.1c-0.4,0-0.7-0.2-0.9-0.5l-1.2-2.4c-0.1-0.2-0.1-0.5-0.1-0.8c0.1-0.3,0.3-0.5,0.5-0.6l5.4-2.7v-3
			c0-0.4,0.2-0.7,0.6-0.9c0.3-0.1,26.4-12.3,30.9-15.1c4.8-2.9,9-6.4,9.9-7.5c0.5-0.7,1.1-1.3,1.9-1.3s1.3,0.6,1.8,1.2
			c0.7,0.8,6.3,6.2,10.2,8.4c3.9,2.1,29.6,15.3,29.9,15.4c0.3,0.2,0.5,0.5,0.5,0.9v2.6l4.3,2c0.2,0.1,0.4,0.3,0.5,0.6s0.1,0.5,0,0.8
			l-1.1,2.3c-0.2,0.3-0.5,0.6-0.9,0.6c-0.1,0-0.3,0-0.4-0.1l-2.3-1l-0.2,12.6c0,0.3-0.2,0.6-0.4,0.8l-4.7,3.4
			c-0.2,0.1-0.4,0.2-0.6,0.2h-77.2V196.8z"/>
		<g>
			<path d="M180.3,147.4c0.3,0,0.6,0.4,1,0.9c0.7,0.9,6.5,6.4,10.5,8.6c3.9,2.2,29.9,15.4,29.9,15.4v3.2l4.9,2.3l-1.1,2.3l-3.7-1.7
				l-0.2,14.1l-4.7,3.4h-77.1l-2.1-3.9l0.4-14.3l-4.7,2.4l-1.2-2.4l5.9-3v-3.6c0,0,26.4-12.3,31-15.1c4.6-2.8,9.1-6.4,10.2-7.8
				C179.7,147.6,180,147.4,180.3,147.4 M180.3,145.4c-1.4,0-2.3,1.2-2.7,1.6c-0.8,1-5,4.5-9.6,7.3c-4.4,2.7-30.5,14.9-30.8,15
				c-0.7,0.3-1.2,1-1.2,1.8v2.4l-4.8,2.4c-0.5,0.2-0.8,0.7-1,1.2c-0.2,0.5-0.1,1.1,0.1,1.5l1.2,2.4c0.4,0.7,1.1,1.1,1.8,1.1
				c0.3,0,0.6-0.1,0.9-0.2l1.6-0.8l-0.1,10.9c0,0.4,0.1,0.7,0.2,1l2.1,3.9c0.4,0.6,1,1,1.8,1h77c0.4,0,0.8-0.1,1.2-0.4l4.7-3.4
				c0.5-0.4,0.8-1,0.8-1.6l0.2-11.1l1,0.4c0.3,0.1,0.5,0.2,0.8,0.2c0.7,0,1.4-0.4,1.8-1.1l1.1-2.3c0.2-0.5,0.3-1,0.1-1.6
				c-0.2-0.5-0.6-0.9-1-1.2l-3.7-1.7v-1.9c0-0.8-0.4-1.4-1.1-1.8c-0.3-0.1-26-13.3-29.9-15.4c-3.7-2-9.2-7.3-9.9-8.1
				C182.3,146.4,181.6,145.4,180.3,145.4L180.3,145.4z"/>
		</g>
	</g>
	<g>
		<path class="st1" d="M152.3,188.4c-0.6,0-1-0.4-1-1v-8.9c0-0.4,0.2-0.7,0.5-0.9l27.6-15c0.1-0.1,0.3-0.1,0.5-0.1s0.3,0,0.5,0.1
			l27.6,15.1c0.3,0.2,0.5,0.5,0.5,0.9v8.8c0,0.6-0.4,1-1,1L152.3,188.4L152.3,188.4z"/>
		<g>
			<path d="M180,163.4l27.6,15.1v8.8h-55.3v-8.9L180,163.4 M180,161.4c-0.3,0-0.7,0.1-1,0.2l-27.6,15c-0.6,0.3-1,1-1,1.8v8.9
				c0,1.1,0.9,2,2,2h55.3c1.1,0,2-0.9,2-2v-8.8c0-0.7-0.4-1.4-1-1.8l-27.6-15.1C180.6,161.5,180.3,161.4,180,161.4L180,161.4z"/>
		</g>
	</g>
	<g>
		<path class="st0" d="M147.6,182.8c-0.6,0-1-0.4-1-1v-3.5c0-0.6,0.4-1,1-1h66c0.6,0,1,0.4,1,1v3.5c0,0.6-0.4,1-1,1H147.6z"/>
		<g>
			<path d="M213.6,178.4v3.5h-66v-3.5H213.6 M213.6,176.4h-66c-1.1,0-2,0.9-2,2v3.5c0,1.1,0.9,2,2,2h66c1.1,0,2-0.9,2-2v-3.5
				C215.6,177.3,214.7,176.4,213.6,176.4L213.6,176.4z"/>
		</g>
	</g>
	<g>
		<path class="st2" d="M111.3,203.6c-0.6,0-1-0.4-1-1v-4.7c0-0.6,0.4-1,1-1h135.8c0.6,0,1,0.4,1,1v4.7c0,0.6-0.4,1-1,1H111.3z"/>
		<g>
			<path d="M247.1,197.8v4.7H111.3v-4.7H247.1 M247.1,195.8H111.3c-1.1,0-2,0.9-2,2v4.7c0,1.1,0.9,2,2,2h135.8c1.1,0,2-0.9,2-2v-4.7
				C249.1,196.8,248.2,195.8,247.1,195.8L247.1,195.8z"/>
		</g>
	</g>
	<g>
		<path class="st2" d="M111.3,198.8c-0.6,0-1-0.4-1-1v-1.3c0-0.5,0.4-0.9,0.8-1l26.3-4.5c0.1,0,0.1,0,0.2,0h2.5c0.5,0,0.9,0.3,1,0.8
			l0.4,1.5h75.6l2.8-1.7c0.2-0.1,0.3-0.1,0.5-0.1h2.6c0.1,0,0.1,0,0.2,0l24.2,4.1c0.5,0.1,0.8,0.5,0.8,1v1.3c0,0.6-0.4,1-1,1H111.3
			V198.8z"/>
		<g>
			<path d="M140.1,192.1l0.5,2.3h76.7l3-1.8h2.6l24.2,4.1v1.3H111.3v-1.3l26.3-4.5h2.5 M140.1,190.1h-2.5c-0.1,0-0.2,0-0.3,0
				l-26.3,4.5c-1,0.2-1.7,1-1.7,2v1.3c0,1.1,0.9,2,2,2h135.8c1.1,0,2-0.9,2-2v-1.3c0-1-0.7-1.8-1.7-2l-24.2-4.1c-0.1,0-0.2,0-0.3,0
				h-2.6c-0.4,0-0.7,0.1-1,0.3l-2.5,1.5h-74.6l-0.2-0.7C141.8,190.6,141,190.1,140.1,190.1L140.1,190.1z"/>
		</g>
	</g>
	<g>
		<path class="st1" d="M111.3,198.8c-0.6,0-1-0.4-1-1v-6.6c0-0.6,0.4-1,1-1h5.3c0.6,0,1,0.4,1,1v1.2h2.6c0.6,0,1,0.4,1,1v1.1h2.6
			c0.6,0,1,0.4,1,1v2.3c0,0.6-0.4,1-1,1H111.3z"/>
		<g>
			<path d="M116.6,191.2v2.2h3.6v2.1h3.6v2.3h-12.5v-6.6H116.6 M116.6,189.2h-5.3c-1.1,0-2,0.9-2,2v6.6c0,1.1,0.9,2,2,2h12.5
				c1.1,0,2-0.9,2-2v-2.3c0-1.1-0.9-2-2-2h-1.6v-0.1c0-1.1-0.9-2-2-2h-1.6v-0.2C118.6,190.1,117.7,189.2,116.6,189.2L116.6,189.2z"
				/>
		</g>
	</g>
	<g>
		<path class="st1" d="M236.1,198.8c-0.6,0-1-0.4-1-1v-2.3c0-0.6,0.4-1,1-1h2.6v-1.1c0-0.6,0.4-1,1-1h2.6v-1.2c0-0.6,0.4-1,1-1h5.3
			c0.6,0,1,0.4,1,1v6.6c0,0.6-0.4,1-1,1H236.1z"/>
		<g>
			<path d="M248.6,191.2v6.6h-12.4v-2.3h3.6v-2.1h3.6v-2.2H248.6 M248.6,189.2h-5.3c-1.1,0-2,0.9-2,2v0.2h-1.6c-1.1,0-2,0.9-2,2v0.1
				h-1.6c-1.1,0-2,0.9-2,2v2.3c0,1.1,0.9,2,2,2h12.4c1.1,0,2-0.9,2-2v-6.6C250.6,190.1,249.7,189.2,248.6,189.2L248.6,189.2z"/>
		</g>
	</g>
	<g>
		<line class="st4" x1="180.5" y1="87.6" x2="180.5" y2="76.9"/>
	</g>
</g>
</svg>
