<?xml version="1.0" encoding="utf-8"?>
<!-- Generator: Adobe Illustrator 24.0.3, SVG Export Plug-In . SVG Version: 6.00 Build 0)  -->
<svg version="1.1" id="Layer_1" xmlns="http://www.w3.org/2000/svg" xmlns:xlink="http://www.w3.org/1999/xlink" x="0px" y="0px"
	 viewBox="0 0 360 360" style="enable-background:new 0 0 360 360;" xml:space="preserve">
<style type="text/css">
	.st0{fill:#0780C2;}
	.st1{fill:#01AC83;}
	.st2{fill:#8582BE;}
	.st3{fill:#231F20;}
	.st4{fill:#8582BE;stroke:#000000;stroke-width:2;stroke-linecap:round;stroke-linejoin:round;stroke-miterlimit:10;}
	.st5{fill:#0780C2;stroke:#000000;stroke-width:2;stroke-linecap:round;stroke-linejoin:round;stroke-miterlimit:10;}
</style>
<g>
	<title>Q_07</title>
	<g>
		<g>
			<path class="st0" d="M207.2,268.9c-0.2,0-0.5-0.1-0.7-0.2c-0.2-0.2-0.3-0.4-0.3-0.7l-0.8-21.4c0-0.3,0.1-0.5,0.3-0.7
				s0.4-0.3,0.7-0.3h15.2c0.6,0,1,0.4,1,1v19.9c0,0.5-0.4,0.9-0.9,1l-14.5,1.5C207.2,268.9,207.2,268.9,207.2,268.9z"/>
			<g>
				<path d="M221.6,246.5v19.9l-14.5,1.5l-0.8-21.4H221.6 M221.6,244.5h-15.2c-0.5,0-1.1,0.2-1.4,0.6c-0.4,0.4-0.6,0.9-0.6,1.5
					l0.8,21.4c0,0.6,0.3,1.1,0.7,1.4c0.4,0.3,0.8,0.5,1.3,0.5c0.1,0,0.1,0,0.2,0l14.5-1.5c1-0.1,1.8-1,1.8-2v-19.9
					C223.6,245.4,222.7,244.5,221.6,244.5L221.6,244.5z"/>
			</g>
		</g>
		<g>
			<path class="st1" d="M29.9,249.3c-0.2,0-0.4-0.1-0.6-0.2c-0.2-0.2-0.4-0.5-0.4-0.8v-45.9c0-0.4,0.3-0.8,0.7-1l34.1-9.7
				c0.1,0,0.2,0,0.3,0c0.2,0,0.4,0.1,0.6,0.2c0.2,0.2,0.4,0.5,0.4,0.8l0.8,47.1c0,0.5-0.3,0.9-0.8,1l-34.9,8.5
				C30.1,249.2,30,249.3,29.9,249.3z"/>
			<g>
				<path d="M64,192.6l0.8,47.1l-34.9,8.5v-45.9L64,192.6 M64,190.6c-0.2,0-0.4,0-0.5,0.1l-34.1,9.7c-0.9,0.2-1.5,1-1.5,1.9v45.9
					c0,0.6,0.3,1.2,0.8,1.6c0.4,0.3,0.8,0.4,1.2,0.4c0.2,0,0.3,0,0.5-0.1l34.9-8.5c0.9-0.2,1.5-1,1.5-2L66,192.6
					c0-0.6-0.3-1.2-0.8-1.6C64.8,190.8,64.4,190.6,64,190.6L64,190.6z"/>
			</g>
		</g>
		<g>
			<path class="st2" d="M38.4,266.5c-0.6,0-1-0.4-1-1v-4.8c0-0.4,0.3-0.8,0.7-0.9l12.5-4.5c0.1,0,0.2-0.1,0.3-0.1
				c0.2,0,0.4,0.1,0.6,0.2c0.3,0.2,0.4,0.5,0.4,0.8v9.3c0,0.6-0.4,1-1,1H38.4z"/>
			<path d="M50.8,256.2v9.3H38.4v-4.8L50.8,256.2 M50.8,254.2c-0.2,0-0.5,0-0.7,0.1l-12.5,4.5c-0.8,0.3-1.3,1-1.3,1.9v4.8
				c0,1.1,0.9,2,2,2h12.5c1.1,0,2-0.9,2-2v-9.3c0-0.7-0.3-1.3-0.9-1.6C51.6,254.4,51.2,254.2,50.8,254.2L50.8,254.2z"/>
		</g>
		<g>
			<path class="st2" d="M263.8,264.6c-0.3,0-0.6-0.1-0.8-0.4L250,247c-0.2-0.3-0.3-0.7-0.1-1s0.5-0.6,0.9-0.6c0,0,5.2-0.1,5.2-0.1
				c0.3,0,0.6,0.1,0.8,0.4l9.9,12.7l3-0.4l11.9-13.3c0.2-0.2,0.5-0.3,0.7-0.3h5.2c0.4,0,0.7,0.2,0.9,0.6c0.2,0.3,0.1,0.8-0.1,1.1
				L274,264.2c-0.2,0.2-0.5,0.4-0.8,0.4H263.8z"/>
			<path d="M287.5,245.4l-14.3,18.2h-9.5l-13-17.2l5.2-0.1l10.3,13.2l4-0.5l12.1-13.6H287.5 M287.5,243.4h-5.2
				c-0.6,0-1.1,0.2-1.5,0.7l-11.6,13l-2.1,0.3l-9.6-12.3c-0.4-0.5-1-0.8-1.6-0.8c0,0,0,0,0,0l-5.2,0.1c-0.8,0-1.4,0.5-1.8,1.1
				c-0.3,0.7-0.2,1.5,0.2,2.1l13,17.2c0.4,0.5,1,0.8,1.6,0.8h9.5c0.6,0,1.2-0.3,1.6-0.8l14.3-18.2c0.5-0.6,0.6-1.4,0.2-2.1
				C289,243.9,288.3,243.4,287.5,243.4L287.5,243.4z M287.5,247.4L287.5,247.4L287.5,247.4L287.5,247.4z"/>
		</g>
		<g>
			<path class="st0" d="M254.9,266.5c-0.3,0-0.6-0.1-0.8-0.4l-13.5-17.6c-0.2-0.3-0.3-0.6-0.2-0.9c0.1-0.3,0.3-0.6,0.6-0.7l4.9-1.6
				c0.1,0,0.2,0,0.3,0c0.3,0,0.6,0.1,0.8,0.4l12.9,16.8l12.5-17.7c0.2-0.2,0.4-0.4,0.7-0.4l7.8-1.1c0,0,0.1,0,0.1,0
				c0.3,0,0.7,0.2,0.9,0.5c0.2,0.3,0.2,0.8-0.1,1.1l-15.7,21.2c-0.2,0.3-0.5,0.4-0.8,0.4H254.9z"/>
			<g>
				<path d="M281,244.4l-15.7,21.2h-10.5L241.4,248l4.9-1.6l13.7,17.8l13.3-18.8L281,244.4 M281,242.4c-0.1,0-0.2,0-0.3,0l-7.8,1.1
					c-0.5,0.1-1,0.4-1.4,0.8l-11.7,16.6l-12.1-15.7c-0.4-0.5-1-0.8-1.6-0.8c-0.2,0-0.4,0-0.6,0.1l-4.9,1.6c-0.6,0.2-1.1,0.7-1.3,1.3
					c-0.2,0.6-0.1,1.3,0.3,1.8l13.5,17.6c0.4,0.5,1,0.8,1.6,0.8h10.5c0.6,0,1.2-0.3,1.6-0.8l15.7-21.2c0.5-0.6,0.5-1.5,0.1-2.2
					C282.4,242.7,281.7,242.4,281,242.4L281,242.4z M281,246.4L281,246.4L281,246.4L281,246.4z"/>
			</g>
		</g>
		<g>
			<path class="st1" d="M216.3,245.4c-0.5,0-1-0.4-1-0.9l-5.8-95.1c0-0.5,0.3-0.9,0.7-1l83.7-22.5c0.1,0,0.2,0,0.3,0
				c0.2,0,0.4,0.1,0.6,0.2c0.2,0.2,0.4,0.5,0.4,0.8l-1,115.5c0,0.5-0.4,1-1,1C293.2,243.2,216.3,245.4,216.3,245.4z"/>
			<g>
				<path d="M294.2,126.8l-1,115.5l-76.9,2.1l-5.8-95.1L294.2,126.8 M294.2,124.8c-0.2,0-0.3,0-0.5,0.1L210,147.3
					c-0.9,0.2-1.5,1.1-1.5,2.1l5.8,95.1c0.1,1.1,0.9,1.9,2,1.9c0,0,0,0,0.1,0l76.9-2.1c1.1,0,1.9-0.9,1.9-2l1-115.5
					c0-0.6-0.3-1.2-0.8-1.6C295.1,124.9,294.6,124.8,294.2,124.8L294.2,124.8z M294.2,128.8L294.2,128.8L294.2,128.8L294.2,128.8z"
					/>
			</g>
		</g>
		<g>
			<path class="st1" d="M299.3,244.7c-0.1,0-0.2,0-0.2,0l-6.1-1.5c-0.5-0.1-0.8-0.5-0.8-1l1-115.5c0-0.5,0.4-0.9,0.9-1
				c0,0,0.1,0,0.1,0c0.5,0,0.9,0.3,1,0.8l5.1,23.7c0,0.1,0,0.1,0,0.2v93.3c0,0.3-0.1,0.6-0.4,0.8
				C299.8,244.7,299.5,244.7,299.3,244.7z"/>
			<g>
				<path d="M294.2,126.8l5.1,23.7v93.3l-6.1-1.5L294.2,126.8 M294.2,124.8c-0.1,0-0.1,0-0.2,0c-1,0.1-1.8,1-1.8,2l-1,115.5
					c0,0.9,0.6,1.7,1.5,2l6.1,1.5c0.2,0,0.3,0.1,0.5,0.1c0.4,0,0.9-0.1,1.2-0.4c0.5-0.4,0.8-1,0.8-1.6v-93.3c0-0.1,0-0.3,0-0.4
					l-5.1-23.7C296,125.4,295.1,124.8,294.2,124.8L294.2,124.8z"/>
			</g>
		</g>
		<g>
			<path class="st3" d="M268.5,243.9c-0.3,0-0.5-0.1-0.7-0.3c-0.2-0.2-0.3-0.5-0.3-0.7l0.7-84.2c0-0.5,0.3-0.8,0.8-1l24.8-6.3
				c0.1,0,0.2,0,0.2,0c0.2,0,0.4,0.1,0.6,0.2c0.2,0.2,0.4,0.5,0.4,0.8l-0.8,89.9c0,0.5-0.4,1-1,1
				C293.2,243.2,268.5,243.9,268.5,243.9z"/>
			<g>
				<path d="M294,152.4L294,152.4 M294,152.4l-0.8,89.9l-24.7,0.6l0.7-84.2L294,152.4 M294,150.4C294,150.4,293.9,150.4,294,150.4
					c-0.2,0-0.4,0-0.5,0.1l-24.8,6.3c-0.9,0.2-1.5,1-1.5,1.9l-0.7,84.2c0,0.5,0.2,1.1,0.6,1.4c0.4,0.4,0.9,0.6,1.4,0.6
					c0,0,0,0,0.1,0l24.7-0.6c1.1,0,1.9-0.9,1.9-2l0.8-89.8c0,0,0-0.1,0-0.1C296,151.2,295.1,150.4,294,150.4
					C294,150.4,294,150.4,294,150.4L294,150.4z M294,154.4L294,154.4L294,154.4L294,154.4z"/>
			</g>
		</g>
		<g>
			<path class="st2" d="M205.3,250.1c-0.3,0-0.5-0.1-0.7-0.3c-0.2-0.2-0.3-0.4-0.3-0.7v-4.8c0-0.4,0.3-0.8,0.6-0.9
				c0.1,0,0.2-0.1,0.4-0.1c0,0,0.1,0,0.1,0c0.1,0,0.2,0,0.3,0c7.4,0,104.8-2.6,105.7-2.6c0,0,0,0,0,0c0.1,0,0.1,0,0.2,0l18.6,3.5
				c0.5,0.1,0.9,0.6,0.8,1.1c0,0.5-0.5,0.9-1,0.9C330.1,246.2,205.3,250.1,205.3,250.1z"/>
			<path d="M311.5,241.8l18.6,3.5l-124.8,3.9v-4.8c0,0,0.2,0,0.4,0C213.2,244.4,311.5,241.8,311.5,241.8 M311.5,239.8
				C311.5,239.8,311.5,239.8,311.5,239.8c-1,0-98.4,2.6-105.8,2.6c-0.1,0-0.2,0-0.2,0c-0.1,0-0.1,0-0.2,0c-0.2,0-0.5,0-0.7,0.1
				c-0.8,0.3-1.3,1-1.3,1.9v4.8c0,0.5,0.2,1.1,0.6,1.4c0.4,0.4,0.9,0.6,1.4,0.6c0,0,0,0,0.1,0l124.8-3.9c1,0,1.9-0.8,1.9-1.8
				s-0.6-1.9-1.6-2.1l-18.6-3.5C311.8,239.8,311.6,239.8,311.5,239.8L311.5,239.8z"/>
		</g>
		<g>
			<path class="st2" d="M280.9,173.8c-2.7,0-4.8-0.8-6.1-2.4c-2-2.3-1.6-5.5-1.5-5.7c0.1-0.5,0.5-0.8,1-0.8l0.8,0l-0.2-2
				c0-0.3,0.1-0.5,0.2-0.7c0.2-0.2,0.4-0.3,0.7-0.3l2.1-0.1l0.2-1.6c0-0.4,0.3-0.8,0.7-0.9l4.5-1.2c0.1,0,0.2,0,0.3,0
				c0.2,0,0.4,0.1,0.6,0.2c0.2,0.2,0.4,0.5,0.4,0.8v0.7l1.7-0.6c0.1,0,0.2-0.1,0.3-0.1c0.2,0,0.4,0.1,0.6,0.2
				c0.3,0.2,0.4,0.5,0.4,0.8v2.1l0.7-0.2c0.1,0,0.2,0,0.3,0c0.2,0,0.4,0.1,0.6,0.2c0.3,0.2,0.4,0.5,0.4,0.8c0,0.2,0.3,5.2-2.5,8.4
				c-1.4,1.6-3.4,2.4-5.8,2.5L280.9,173.8z"/>
			<path d="M283.6,159.1v2.2l3-1.1v3.5l2-0.6c0,0,0.7,9.6-7.4,9.8c-0.1,0-0.2,0-0.3,0c-7.7,0-6.7-6.9-6.7-6.9l1.9,0l-0.3-3.1l3-0.2
				l0.3-2.4L283.6,159.1 M283.6,157.1c-0.2,0-0.3,0-0.5,0.1l-4.5,1.2c-0.8,0.2-1.4,0.9-1.5,1.7l-0.1,0.7l-1.3,0.1
				c-0.5,0-1,0.3-1.4,0.7c-0.4,0.4-0.5,0.9-0.5,1.5l0.1,0.9c-0.9,0.1-1.5,0.8-1.7,1.7c-0.1,0.4-0.5,3.8,1.8,6.5
				c1.5,1.8,3.9,2.7,6.9,2.7c0.1,0,0.2,0,0.3,0c2.7-0.1,4.9-1,6.5-2.8c3.2-3.5,2.8-8.9,2.8-9.1c0-0.6-0.4-1.2-0.9-1.5
				c-0.3-0.2-0.7-0.3-1.1-0.3v-0.9c0-0.6-0.3-1.3-0.8-1.6c-0.3-0.2-0.7-0.4-1.2-0.4c-0.2,0-0.4,0-0.7,0.1l-0.5,0.2
				c-0.1-0.4-0.4-0.7-0.7-0.9C284.4,157.2,284,157.1,283.6,157.1L283.6,157.1z"/>
		</g>
		<g>
			<path class="st2" d="M52,202.4c-0.2,0-0.5-0.1-0.7-0.3c-0.2-0.2-0.3-0.5-0.3-0.7v-1.5c0-0.3,0.1-0.5,0.3-0.7L160.4,82.6
				c0.2-0.2,0.5-0.3,0.7-0.3c0,0,0,0,0,0c0.3,0,0.5,0.1,0.7,0.3l69.3,77.6c0.2,0.2,0.3,0.4,0.3,0.7v2.2c0,0.5-0.3,0.9-0.8,1
				l-13.4,2.4l-156.7,35c0,0-0.1,0-0.1,0l-8.2,0.9C52,202.4,52,202.4,52,202.4z"/>
			<g>
				<path d="M161.1,83.3l69.3,77.6v2.2l-13.4,2.4l-156.8,35l-8.2,0.9v-1.5L161.1,83.3 M161.1,81.3c-0.6,0-1.1,0.2-1.5,0.6
					L50.5,198.5c-0.3,0.4-0.5,0.9-0.5,1.4v1.5c0,0.6,0.2,1.1,0.7,1.5c0.4,0.3,0.8,0.5,1.3,0.5c0.1,0,0.1,0,0.2,0l8.2-0.9
					c0.1,0,0.1,0,0.2,0l156.7-35l13.4-2.4c1-0.2,1.6-1,1.6-2v-2.2c0-0.5-0.2-1-0.5-1.3L162.6,82C162.2,81.5,161.7,81.3,161.1,81.3
					C161.1,81.3,161.1,81.3,161.1,81.3L161.1,81.3z"/>
			</g>
		</g>
		<g>
			<path class="st2" d="M215.8,174.7c-0.2,0-0.4-0.1-0.5-0.2l-62.9-40.1c-0.3-0.2-0.5-0.5-0.5-0.8v-20.7c0-0.3,0.1-0.6,0.4-0.8
				c0.2-0.1,0.4-0.2,0.6-0.2c0.1,0,0.2,0,0.3,0l7.4,2c0.2,0,0.3,0.1,0.4,0.2l55.4,54.2c0.2,0.2,0.3,0.4,0.3,0.7l0.1,4.6
				c0,0.4-0.2,0.7-0.5,0.9C216.1,174.6,216,174.7,215.8,174.7z"/>
			<path d="M152.9,112.8l7.4,2l55.4,54.2l0.1,4.6l-62.9-40.1V112.8 M152.9,110.8c-0.4,0-0.9,0.1-1.2,0.4c-0.5,0.4-0.8,1-0.8,1.6
				v20.7c0,0.7,0.3,1.3,0.9,1.7l62.9,40.1c0.3,0.2,0.7,0.3,1.1,0.3c0.3,0,0.7-0.1,1-0.3c0.6-0.4,1-1.1,1-1.8l-0.1-4.6
				c0-0.5-0.2-1-0.6-1.4l-55.4-54.2c-0.2-0.2-0.5-0.4-0.9-0.5l-7.4-2C153.3,110.9,153.1,110.8,152.9,110.8L152.9,110.8z"/>
		</g>
		<g>
			<path class="st0" d="M60.2,210c-0.1,0-0.3,0-0.4-0.1c-0.3-0.2-0.6-0.5-0.6-0.9v-8.5c0-0.3,0.1-0.5,0.3-0.7l92.7-87.6
				c0.2-0.2,0.4-0.3,0.7-0.3c0.1,0,0.3,0,0.4,0.1c0.4,0.2,0.6,0.5,0.6,0.9v20.7c0,0.3-0.1,0.6-0.4,0.8l-92.7,75.5
				C60.6,209.9,60.4,210,60.2,210z"/>
			<g>
				<path d="M152.9,112.8v20.7L60.2,209v-8.5L152.9,112.8 M152.9,110.8c-0.5,0-1,0.2-1.4,0.5L58.8,199c-0.4,0.4-0.6,0.9-0.6,1.5v8.5
					c0,0.8,0.4,1.5,1.1,1.8c0.3,0.1,0.6,0.2,0.9,0.2c0.5,0,0.9-0.2,1.3-0.4l92.7-75.5c0.5-0.4,0.7-0.9,0.7-1.6v-20.7
					c0-0.8-0.5-1.5-1.2-1.8C153.4,110.9,153.2,110.8,152.9,110.8L152.9,110.8z"/>
			</g>
		</g>
		<g>
			<path class="st2" d="M204.3,243.9c-0.1,0-0.2,0-0.4-0.1l-17.9-6.8c-0.4-0.2-0.7-0.6-0.6-1l3.2-56.3c0-0.4,0.3-0.7,0.6-0.9
				c0.1-0.1,0.3-0.1,0.4-0.1c0.2,0,0.4,0.1,0.6,0.2l26.6,21.6c0.2,0.2,0.4,0.5,0.4,0.8v41.5c0,0.6-0.4,1-1,1H204.3z"/>
			<path d="M189.7,179.7l26.6,21.6v41.5h-12l-17.9-6.9L189.7,179.7 M189.7,177.7c-0.3,0-0.5,0.1-0.8,0.2c-0.7,0.3-1.1,1-1.2,1.7
				l-3.2,56.3c-0.1,0.9,0.5,1.7,1.3,2l17.9,6.9c0.2,0.1,0.5,0.1,0.7,0.1h12c1.1,0,2-0.9,2-2v-41.5c0-0.6-0.3-1.2-0.7-1.6L191,178.2
				C190.6,177.9,190.2,177.7,189.7,177.7L189.7,177.7z"/>
		</g>
		<g>
			<path class="st2" d="M57.7,269.3c-2.2,0-5.6-0.1-5.6-0.1c-0.5,0-1-0.5-1-1v-5.6c0-0.4,0.3-0.8,0.7-1l7.4-2.3c0.1,0,0.2,0,0.3,0
				c0.2,0,0.4,0.1,0.6,0.2c0.3,0.2,0.4,0.5,0.4,0.8c-0.1,3.3-0.1,6.9,0,7.6c0.1,0.3,0,0.5-0.1,0.8C60.1,269.3,59.6,269.3,57.7,269.3
				C57.7,269.3,57.7,269.3,57.7,269.3z"/>
			<path d="M59.6,260.4L59.6,260.4 M59.6,260.4c0,0-0.2,7.6,0,7.9c0.1,0.1-0.8,0.1-1.9,0.1c-2.2,0-5.6-0.1-5.6-0.1v-5.6L59.6,260.4
				 M59.6,258.4C59.5,258.4,59.5,258.4,59.6,258.4c-0.3,0-0.5,0-0.6,0.1l-7.4,2.2c-0.8,0.3-1.4,1-1.4,1.9v5.6c0,1.1,0.9,2,1.9,2
				c0.1,0,3.4,0.1,5.6,0.1c1.9,0,3,0,3.6-1.2c0.2-0.4,0.3-0.9,0.2-1.4c-0.1-0.8,0-4.2,0-7.3c0,0,0-0.1,0-0.1
				C61.6,259.3,60.7,258.4,59.6,258.4C59.6,258.4,59.6,258.4,59.6,258.4L59.6,258.4z M59.6,262.4L59.6,262.4L59.6,262.4L59.6,262.4z
				"/>
		</g>
		<g>
			<path class="st2" d="M59.6,269.2c-0.6,0-1-0.5-1-1l0-7.9c0-0.3,0.1-0.5,0.3-0.7c0.2-0.2,0.4-0.3,0.7-0.3c0,0,22.9,1.8,22.9,1.8
				c0.5,0,0.9,0.5,0.9,1v6.2c0,0.3-0.1,0.5-0.3,0.7c-0.2,0.2-0.4,0.3-0.7,0.3C82.4,269.3,59.6,269.2,59.6,269.2z"/>
			<path d="M59.6,260.4l22.8,1.8v6.2l-22.8-0.1L59.6,260.4 M59.6,258.4c-0.5,0-1,0.2-1.4,0.5c-0.4,0.4-0.6,0.9-0.6,1.5l0,7.9
				c0,1.1,0.9,2,2,2l22.8,0.1c0,0,0,0,0,0c0.5,0,1-0.2,1.4-0.6c0.4-0.4,0.6-0.9,0.6-1.4v-6.2c0-1-0.8-1.9-1.8-2l-22.8-1.8
				C59.7,258.4,59.6,258.4,59.6,258.4L59.6,258.4z"/>
		</g>
		<g>
			<path class="st0" d="M210.8,204.2c-0.2,0-0.5-0.1-0.7-0.2c-0.2-0.2-0.4-0.5-0.3-0.8l0.8-26.3c0-0.3,0.1-0.5,0.3-0.7l5.6-5
				c0.1-0.1,0.3-0.2,0.4-0.2c0.1,0,0.3-0.1,5.9-0.7c0,0,0.1,0,0.1,0c0.2,0,0.5,0.1,0.7,0.3c0.2,0.2,0.3,0.5,0.3,0.8l-0.6,29.8
				c0,0.5-0.3,0.9-0.8,1l-11.6,2.2C211,204.2,210.9,204.2,210.8,204.2z"/>
			<g>
				<path d="M223,171.2l-0.6,29.8l-11.6,2.2l0.8-26.3l5.6-5C217.5,171.8,223,171.2,223,171.2 M223,169.2c-0.1,0-0.1,0-0.2,0
					c-5.6,0.6-5.9,0.7-6,0.7c-0.3,0.1-0.6,0.2-0.9,0.5l-5.6,5c-0.4,0.4-0.6,0.9-0.7,1.4l-0.8,26.3c0,0.6,0.2,1.2,0.7,1.6
					c0.4,0.3,0.8,0.5,1.3,0.5c0.1,0,0.2,0,0.4,0l11.6-2.2c0.9-0.2,1.6-1,1.6-1.9l0.6-29.8c0-0.6-0.2-1.1-0.6-1.5
					C223.9,169.4,223.5,169.2,223,169.2L223,169.2z M223,173.2L223,173.2L223,173.2L223,173.2z"/>
			</g>
		</g>
		<g>
			<path class="st2" d="M206.8,202.4c-0.2,0-0.5-0.1-0.6-0.2c-0.2-0.2-0.4-0.5-0.4-0.8v-20.5c0-0.1,0-0.3,0.1-0.4l5-11.9
				c0.1-0.3,0.4-0.5,0.7-0.6l6.8-1.3c0.1,0,0.1,0,0.2,0c0.2,0,0.5,0.1,0.6,0.2c0.2,0.2,0.4,0.5,0.4,0.8v31.4c0,0.5-0.3,0.9-0.8,1
				l-11.9,2.3C207,202.4,206.9,202.4,206.8,202.4z"/>
			<path d="M218.7,167.6v31.4l-11.9,2.3v-20.5l5-11.9L218.7,167.6 M218.7,165.6c-0.1,0-0.2,0-0.4,0l-6.8,1.3
				c-0.7,0.1-1.2,0.6-1.5,1.2l-5,11.9c-0.1,0.2-0.2,0.5-0.2,0.8v20.5c0,0.6,0.3,1.2,0.7,1.5c0.4,0.3,0.8,0.5,1.3,0.5
				c0.1,0,0.3,0,0.4,0l11.9-2.3c0.9-0.2,1.6-1,1.6-2v-31.4c0-0.6-0.3-1.2-0.7-1.5C219.6,165.8,219.2,165.6,218.7,165.6L218.7,165.6z
				"/>
		</g>
		<g>
			<path class="st0" d="M110.4,273.5c-0.1,0-0.2,0-0.4-0.1l-52.5-24.4c-0.3-0.2-0.6-0.5-0.6-0.9l-0.4-39.2c0-0.3,0.1-0.6,0.4-0.8
				l101.9-84.5c0.2-0.2,0.4-0.2,0.6-0.2c0.1,0,0.3,0,0.4,0.1c0.4,0.2,0.6,0.5,0.6,0.9v151.3c0,0.3-0.1,0.5-0.3,0.7
				c-0.2,0.2-0.4,0.3-0.7,0.3C159.4,276.7,110.4,273.5,110.4,273.5z"/>
			<g>
				<path d="M159.4,124.4v151.3l-49-3.1L58,248.2l-0.4-39.2L159.4,124.4 M159.4,122.4c-0.5,0-0.9,0.2-1.3,0.5L56.3,207.4
					c-0.5,0.4-0.7,1-0.7,1.6l0.4,39.2c0,0.8,0.5,1.5,1.2,1.8l52.5,24.4c0.2,0.1,0.5,0.2,0.7,0.2l49,3.1c0,0,0.1,0,0.1,0
					c0.5,0,1-0.2,1.4-0.5c0.4-0.4,0.6-0.9,0.6-1.5V124.4c0-0.8-0.4-1.5-1.1-1.8C160,122.5,159.7,122.4,159.4,122.4L159.4,122.4z"/>
			</g>
		</g>
		<g>
			<path class="st0" d="M202.2,200.1c-0.2,0-0.5-0.1-0.6-0.2c-0.2-0.2-0.4-0.5-0.4-0.8V194l0.9-28.2c0-0.5,0.4-0.9,0.8-1l11.9-2
				c0.1,0,0.1,0,0.2,0c0.2,0,0.5,0.1,0.7,0.2c0.2,0.2,0.4,0.5,0.3,0.8l-0.6,32.8c0,0.5-0.3,0.9-0.8,1l-12.1,2.5
				C202.4,200,202.3,200.1,202.2,200.1z"/>
			<g>
				<path d="M215,163.8L215,163.8 M215,163.8l-0.6,32.8l-12.1,2.5V194l0.9-28.2L215,163.8 M215,161.8C215,161.8,215,161.8,215,161.8
					c-0.2,0-0.3,0-0.4,0l-11.8,2c-0.9,0.2-1.6,1-1.7,1.9l-0.9,28.2c0,0,0,0,0,0.1v5.1c0,0.6,0.3,1.2,0.7,1.6
					c0.4,0.3,0.8,0.4,1.3,0.4c0.1,0,0.3,0,0.4,0l12.1-2.5c0.9-0.2,1.6-1,1.6-1.9l0.6-32.7c0,0,0-0.1,0-0.1
					C217,162.6,216.1,161.8,215,161.8C215,161.8,215,161.8,215,161.8L215,161.8z M215,165.8L215,165.8L215,165.8L215,165.8z"/>
			</g>
		</g>
		<g>
			<path class="st2" d="M200.1,197c-0.2,0-0.5-0.1-0.6-0.2c-0.2-0.2-0.4-0.5-0.4-0.8l1.9-35.1c0-0.5,0.4-0.9,0.9-0.9
				c0,0,7.7-0.5,7.7-0.5c0.2,0,0.3,0,0.5,0.1l0.9,0.5c0.3,0.2,0.5,0.5,0.5,0.9l-0.5,32.8c0,0.5-0.3,0.9-0.8,1l-10,2.3
				C200.2,196.9,200.2,197,200.1,197z"/>
			<path d="M209.6,160.3l0.9,0.5l-0.5,32.8l-10,2.3l1.9-35.1L209.6,160.3 M209.6,158.3c0,0-0.1,0-0.1,0l-7.6,0.5
				c-1,0.1-1.8,0.9-1.9,1.9l-1.9,35.1c0,0.6,0.2,1.2,0.7,1.6c0.4,0.3,0.8,0.5,1.3,0.5c0.2,0,0.3,0,0.5-0.1l10-2.3
				c0.9-0.2,1.5-1,1.5-1.9l0.5-32.8c0-0.7-0.4-1.4-1-1.8l-0.9-0.5C210.3,158.4,210,158.3,209.6,158.3L209.6,158.3z"/>
		</g>
		<g>
			<path class="st0" d="M190.8,195c-0.2,0-0.5-0.1-0.6-0.2c-0.2-0.2-0.4-0.5-0.4-0.8l0.8-35.5c0-0.5,0.3-0.9,0.8-1l5.5-1.2l7.2-1.6
				c0.1,0,0.1,0,0.2,0c0.2,0,0.4,0,0.5,0.1l1.3,0.8c0.3,0.2,0.5,0.5,0.5,0.9v34.6c0,0.5-0.3,0.9-0.8,1l-14.8,2.9
				C190.9,195,190.8,195,190.8,195z"/>
			<g>
				<path d="M204.2,155.7l1.3,0.8v34.6l-14.8,2.9l0.8-35.5l5.5-1.2L204.2,155.7 M204.2,153.7c-0.1,0-0.3,0-0.4,0l-7.2,1.5l-5.5,1.2
					c-0.9,0.2-1.5,1-1.6,1.9l-0.8,35.5c0,0.6,0.2,1.2,0.7,1.6c0.4,0.3,0.8,0.5,1.3,0.5c0.1,0,0.3,0,0.4,0l14.8-2.9
					c0.9-0.2,1.6-1,1.6-2v-34.6c0-0.7-0.4-1.4-1-1.7l-1.3-0.8C205,153.8,204.6,153.7,204.2,153.7L204.2,153.7z"/>
			</g>
		</g>
		<g>
			<path class="st2" d="M189.7,190.5c-0.2,0-0.5-0.1-0.7-0.2c-0.2-0.2-0.3-0.5-0.3-0.8l0.6-37.5c0-0.5,0.3-0.9,0.8-1l7.9-1.6
				c0.1,0,0.1,0,0.2,0c0.2,0,0.5,0.1,0.6,0.2l1.9,1.6c0.2,0.2,0.4,0.5,0.4,0.8v35.8c0,0.5-0.4,0.9-0.8,1l-10.4,1.7
				C189.8,190.5,189.8,190.5,189.7,190.5z"/>
			<path d="M198.2,150.5l1.9,1.6v35.8l-10.4,1.7l0.6-37.5L198.2,150.5 M198.2,148.5c-0.1,0-0.3,0-0.4,0l-7.9,1.6
				c-0.9,0.2-1.6,1-1.6,1.9l-0.6,37.5c0,0.6,0.2,1.2,0.7,1.5c0.4,0.3,0.8,0.5,1.3,0.5c0.1,0,0.2,0,0.3,0l10.4-1.7c1-0.2,1.7-1,1.7-2
				V152c0-0.6-0.3-1.1-0.7-1.5l-1.9-1.6C199.2,148.6,198.7,148.5,198.2,148.5L198.2,148.5z"/>
		</g>
		<g>
			<path class="st2" d="M201.7,268.6c-0.5,0-0.9-0.5-1-1l-1.1-49.3c0-0.5,0.4-1,0.9-1c0,0,7.5-0.5,7.5-0.5c0.3,0,0.5,0.1,0.7,0.3
				c0.2,0.2,0.3,0.5,0.3,0.7l-0.9,50c0,0.3-0.1,0.5-0.3,0.7c-0.2,0.2-0.4,0.3-0.7,0.3C207.1,268.9,201.7,268.6,201.7,268.6z"/>
			<path d="M208.1,217.9l-0.9,50l-5.4-0.2l-1.1-49.3L208.1,217.9 M208.1,215.9c0,0-0.1,0-0.1,0l-7.4,0.5c-1.1,0.1-1.9,1-1.9,2
				l1.1,49.3c0,1.1,0.9,1.9,1.9,2l5.4,0.2c0,0,0.1,0,0.1,0c0.5,0,1-0.2,1.4-0.5c0.4-0.4,0.6-0.9,0.6-1.4l0.9-50
				c0-0.6-0.2-1.1-0.6-1.5C209.1,216.1,208.6,215.9,208.1,215.9L208.1,215.9z M208.1,219.9L208.1,219.9L208.1,219.9L208.1,219.9z"/>
		</g>
		<g>
			<path class="st0" d="M196.2,268.6c-0.5,0-1-0.4-1-1l-2.5-50.5c0-0.5,0.4-1,0.9-1l9.2-0.9c0,0,0.1,0,0.1,0c0.3,0,0.5,0.1,0.7,0.3
				c0.2,0.2,0.3,0.5,0.3,0.8l-1.2,51.4c0,0.5-0.5,1-1,1H196.2z"/>
			<g>
				<path d="M203,216.2l-1.2,51.4h-5.5l-2.5-50.5L203,216.2 M203,214.2c-0.1,0-0.1,0-0.2,0l-9.2,0.9c-1.1,0.1-1.9,1-1.8,2.1
					l2.5,50.5c0.1,1.1,0.9,1.9,2,1.9h5.5c1.1,0,2-0.9,2-2l1.2-51.4c0-0.6-0.2-1.1-0.6-1.5C203.9,214.4,203.5,214.2,203,214.2
					L203,214.2z M203,218.2L203,218.2L203,218.2L203,218.2z"/>
			</g>
		</g>
		<g>
			<path class="st2" d="M185.5,268.6c-0.3,0-0.5-0.1-0.7-0.3c-0.2-0.2-0.3-0.4-0.3-0.7l0.7-52.5c0-0.5,0.4-0.9,0.9-1l11.7-1.7
				c0,0,0.1,0,0.1,0c0.2,0,0.5,0.1,0.7,0.2c0.2,0.2,0.3,0.5,0.3,0.8l-1.1,54.3c0,0.5-0.5,1-1,1H185.5z"/>
			<path d="M197.9,213.4l-1.1,54.3h-11.3l0.7-52.5L197.9,213.4 M197.9,211.4c-0.1,0-0.2,0-0.3,0l-11.7,1.7c-1,0.1-1.7,1-1.7,2
				l-0.7,52.5c0,0.5,0.2,1.1,0.6,1.4c0.4,0.4,0.9,0.6,1.4,0.6h11.3c1.1,0,2-0.9,2-2l1.1-54.3c0-0.6-0.2-1.2-0.7-1.5
				C198.8,211.5,198.4,211.4,197.9,211.4L197.9,211.4z M197.9,215.4L197.9,215.4L197.9,215.4L197.9,215.4z"/>
		</g>
		<g>
			<path class="st0" d="M180.6,268.9c-0.3,0-0.5-0.1-0.7-0.3c-0.2-0.2-0.3-0.5-0.3-0.7l2.6-100.1l1.3-20c0-0.4,0.3-0.8,0.7-0.9
				l8.8-3c0.1,0,0.2-0.1,0.3-0.1c0.3,0,0.5,0.1,0.7,0.3l0.9,0.9c0.2,0.2,0.3,0.4,0.3,0.7l-0.1,38.6c0,0.6-0.4,1-1,1h-1.3l0,26.6
				c0,0.6-0.4,1-1,1h-0.4l0.3,54.6c0,0.5-0.4,1-1,1C190.7,268.6,180.6,268.9,180.6,268.9z"/>
			<g>
				<path d="M193.3,144.9l0.9,0.9l-0.1,38.6h-2.3l-0.1,27.6h-1.4l0.3,55.6l-10.1,0.2l2.6-100.1l1.3-19.9L193.3,144.9 M193.3,142.9
					c-0.2,0-0.4,0-0.6,0.1l-8.8,3c-0.8,0.3-1.3,1-1.4,1.8l-1.3,19.9c0,0,0,0.1,0,0.1l-2.6,100.1c0,0.5,0.2,1.1,0.6,1.5
					c0.4,0.4,0.9,0.6,1.4,0.6c0,0,0,0,0,0l10.1-0.2c1.1,0,2-0.9,2-2l-0.2-53.7c0.8-0.3,1.4-1,1.4-1.9l0-25.6h0.3c1.1,0,2-0.9,2-2
					l0.1-38.6c0-0.5-0.2-1-0.6-1.4l-0.9-0.9C194.3,143.1,193.8,142.9,193.3,142.9L193.3,142.9z"/>
			</g>
		</g>
		<g>
			<path class="st2" d="M172.7,270.8c-0.3,0-0.5-0.1-0.7-0.3c-0.2-0.2-0.3-0.5-0.3-0.7l5.5-127.7c0-0.4,0.3-0.8,0.7-0.9
				c0.5-0.2,6.1-2.1,8.2-2.8c0.1,0,0.2-0.1,0.3-0.1c0.3,0,0.6,0.1,0.8,0.4l0.9,1.2c0.1,0.2,0.2,0.4,0.2,0.6V181c0,0.6-0.4,1-1,1
				h-0.1l0,27.7c0,0.3-0.1,0.5-0.3,0.7c-0.2,0.2-0.4,0.3-0.7,0.3h-1l-0.3,30.6l-0.1,28.7c0,0.3-0.1,0.5-0.3,0.7
				c-0.2,0.2-0.4,0.3-0.7,0.3C183.8,271,172.7,270.8,172.7,270.8z"/>
			<path d="M186.4,139.2l0.9,1.2V181h-1.1l0.1,28.7h-2l-0.3,31.6l-0.1,28.7l-11.1-0.2l5.5-127.7
				C178.9,141.9,186.4,139.2,186.4,139.2 M186.4,137.2c-0.2,0-0.4,0-0.7,0.1c-2.9,1-7.7,2.7-8.1,2.8c-0.8,0.2-1.4,1-1.4,1.8
				l-5.5,127.7c0,0.5,0.2,1.1,0.5,1.5c0.4,0.4,0.9,0.6,1.4,0.6l11.1,0.2c0,0,0,0,0,0c0.5,0,1-0.2,1.4-0.6c0.4-0.4,0.6-0.9,0.6-1.4
				l0.1-28.7l0.3-29.6h0c0.5,0,1-0.2,1.4-0.6c0.4-0.4,0.6-0.9,0.6-1.4l0-26.9c0.7-0.3,1.1-1,1.1-1.8v-40.6c0-0.4-0.1-0.8-0.4-1.2
				l-0.9-1.2C187.7,137.5,187.1,137.2,186.4,137.2L186.4,137.2z"/>
		</g>
		<g>
			<path class="st0" d="M163.7,273.5c-0.5,0-1-0.4-1-1l-1.3-135.2c0-0.5,0.3-0.9,0.8-1l4.1-0.7l13.6-4.9c0.1,0,0.2-0.1,0.3-0.1
				c0.2,0,0.4,0.1,0.6,0.2c0.3,0.2,0.4,0.5,0.4,0.8l-0.3,44.8c0,0.3-0.1,0.6-0.4,0.8c-0.2,0.2-0.4,0.2-0.6,0.2c0,0,0,0-0.1,0
				l0.2,29.8c0,0.3-0.1,0.5-0.3,0.7c-0.2,0.2-0.4,0.3-0.7,0.3H179l-0.2,32.6c0,0.5-0.4,1-1,1l-0.5,30.8c0,0.5-0.5,1-1,1L163.7,273.5
				z"/>
			<g>
				<path d="M180.3,131.6l-0.3,44.8l-1.1-0.2l0.2,31H178l-0.2,33.5h-1l-0.5,31.8l-12.6,0l-1.3-135.2l4.1-0.8L180.3,131.6
					 M180.3,129.6c-0.2,0-0.5,0-0.7,0.1l-13.5,4.9l-4,0.7c-1,0.2-1.7,1-1.6,2l1.3,135.2c0,1.1,0.9,2,2,2l12.6,0c1.1,0,2-0.9,2-2
					l0.5-30.1c0.6-0.3,1-1,1-1.7L180,209c0.2-0.1,0.4-0.2,0.6-0.4c0.4-0.4,0.6-0.9,0.6-1.4l-0.2-29c0.1-0.1,0.2-0.1,0.3-0.2
					c0.4-0.4,0.7-0.9,0.7-1.5l0.3-44.8c0-0.7-0.3-1.3-0.8-1.6C181.1,129.7,180.7,129.6,180.3,129.6L180.3,129.6z M180.3,133.6
					L180.3,133.6L180.3,133.6L180.3,133.6z"/>
			</g>
		</g>
		<line class="st4" x1="81.3" y1="230.4" x2="75.7" y2="232.4"/>
		<g>
			<line class="st5" x1="150.9" y1="175.9" x2="159.4" y2="171.4"/>
			<polyline class="st5" points="119.9,192.4 143.7,179.7 143.7,152.7 150.9,145.8 150.9,165.7 			"/>
			<polyline class="st5" points="102.6,201.5 113.7,195.7 113.7,172.4 119.9,167.5 119.9,183.7 			"/>
			<polyline class="st5" points="86.9,209.9 97,204.5 97,184.9 101.4,181.1 101.4,193.5 			"/>
			<polyline class="st5" points="76.6,215.3 82.4,212.2 82.4,195.3 84.8,193.6 			"/>
			<polyline class="st5" points="69.1,219 72.3,217.3 72.3,203.2 74.6,201.6 			"/>
			<polyline class="st5" points="61.8,223.2 64.5,221.7 64.3,208.6 66,207.4 			"/>
			<line class="st5" x1="161.7" y1="202.8" x2="138.2" y2="211.1"/>
			<polyline class="st5" points="101.1,216.5 101.1,206.9 97.5,208.8 97.5,225.8 88.6,228.9 88.6,236.5 			"/>
			<polyline class="st5" points="83.8,215.6 80.6,217.3 80.6,232.6 73.5,235 			"/>
			<polyline class="st5" points="66.7,237.8 66.7,224.1 69.2,222.7 			"/>
			<polyline class="st5" points="117.8,248.6 127.9,248.6 127.9,214.8 131.6,213.4 131.6,191.8 137.4,188.8 137.4,201.3 			"/>
			<line class="st5" x1="144.4" y1="209" x2="144.4" y2="274.7"/>
			<polyline class="st5" points="121.2,206.5 121.2,195.6 116,198.1 116,217.9 107.9,220.8 107.9,250.3 104.9,250.3 			"/>
		</g>
		<g>
			<path class="st2" d="M106.6,267.4l-59.9-5.7c-0.5,0-0.9-0.5-0.9-1V224c0-0.3,0.1-0.6,0.4-0.8c0.2-0.1,0.4-0.2,0.6-0.2
				c0.1,0,0.1,0,0.2,0l60.1,13.8c0.5,0.1,0.8,0.5,0.8,1l-0.2,28.6c0,0.3-0.1,0.5-0.3,0.7C107.2,267.3,106.9,267.4,106.6,267.4
				C106.7,267.4,106.6,267.4,106.6,267.4z"/>
			<path d="M46.8,224l60.1,13.8l-0.2,28.6l-59.9-5.7V224 M46.8,222c-0.4,0-0.9,0.2-1.2,0.4c-0.5,0.4-0.8,1-0.8,1.6v36.7
				c0,1,0.8,1.9,1.8,2l59.9,5.7c0.1,0,0.1,0,0.2,0c0.5,0,1-0.2,1.3-0.5c0.4-0.4,0.7-0.9,0.7-1.5l0.2-28.6c0-0.9-0.6-1.8-1.6-2
				l-60.1-13.8C47.1,222.1,46.9,222,46.8,222L46.8,222z"/>
		</g>
		<g>
			<path class="st0" d="M46.7,261.7l-16.9-1.3c-0.5,0-0.9-0.5-0.9-1v-23.2c0-0.3,0.2-0.6,0.4-0.8l16.9-12.1c0.2-0.1,0.4-0.2,0.6-0.2
				c0.2,0,0.3,0,0.5,0.1c0.3,0.2,0.5,0.5,0.5,0.9v36.7c0,0.3-0.1,0.5-0.3,0.7C47.3,261.6,47,261.7,46.7,261.7
				C46.8,261.7,46.7,261.7,46.7,261.7z"/>
			<g>
				<path d="M46.8,224v36.7l-16.9-1.3v-23.2L46.8,224 M46.8,222c-0.4,0-0.8,0.1-1.2,0.4l-16.9,12.1c-0.5,0.4-0.8,1-0.8,1.6v23.2
					c0,1,0.8,1.9,1.8,2l16.9,1.3c0.1,0,0.1,0,0.2,0c0.5,0,1-0.2,1.4-0.5c0.4-0.4,0.6-0.9,0.6-1.5V224c0-0.8-0.4-1.4-1.1-1.8
					C47.4,222.1,47.1,222,46.8,222L46.8,222z"/>
			</g>
		</g>
		<g>
			<path class="st0" d="M106.8,277.7l-27.3-3.1c-0.5-0.1-0.9-0.5-0.9-1v-18.6c0-0.3,0.1-0.5,0.3-0.7c0.2-0.2,0.4-0.3,0.7-0.3
				c0,0,0,0,0,0c0.1,0,12.5,0.2,20.5,0.2c4.5,0,5.9-0.1,6.4-0.1c0.1-0.1,0.3-0.1,0.4-0.1c0.2,0,0.4,0.1,0.6,0.2
				c0.3,0.2,0.5,0.6,0.4,1c0,0.1-0.1,0.3-0.2,0.4c-0.2,1.6-0.1,11.9,0.2,21c0,0.3-0.1,0.6-0.3,0.8c-0.2,0.2-0.4,0.3-0.7,0.3
				C106.9,277.7,106.8,277.7,106.8,277.7z"/>
			<g>
				<path d="M106.9,255.1C106.9,255.1,106.9,255.1,106.9,255.1C106.9,255.1,106.9,255.1,106.9,255.1
					C106.8,255.1,106.8,255.1,106.9,255.1 M79.5,255.1c0,0,12.4,0.2,20.5,0.2c3.5,0,6.2,0,6.7-0.1c-0.5,1.2,0.1,21.6,0.1,21.6
					l-27.3-3.1V255.1 M106.9,253.1C106.9,253.1,106.9,253.1,106.9,253.1c-0.2,0-0.5,0-0.7,0.1c-0.5,0-2,0.1-6.1,0.1
					c-8,0-20.4-0.2-20.5-0.2c0,0,0,0,0,0c-0.5,0-1,0.2-1.4,0.6c-0.4,0.4-0.6,0.9-0.6,1.4v18.6c0,1,0.8,1.9,1.8,2l27.3,3.1
					c0.1,0,0.1,0,0.2,0c0.5,0,1-0.2,1.4-0.5c0.4-0.4,0.7-1,0.6-1.5c-0.3-8.8-0.4-18.5-0.2-20.7c0.1-0.2,0.1-0.3,0.2-0.5
					c0.2-0.8-0.2-1.6-0.9-2.1C107.7,253.2,107.3,253.1,106.9,253.1L106.9,253.1z"/>
			</g>
		</g>
		<g>
			<path class="st2" d="M106.9,277.7c-0.2,0-0.5-0.1-0.7-0.3c-0.2-0.2-0.3-0.5-0.3-0.7l0-21.6c0-0.3,0.1-0.5,0.3-0.7
				c0.2-0.2,0.4-0.3,0.7-0.3h24.9c0.6,0,1,0.4,1,1v19c0,0.5-0.4,0.9-0.9,1l-24.9,2.6C107,277.7,106.9,277.7,106.9,277.7z"/>
			<path d="M131.8,255.1v19l-24.9,2.6l0-21.6H131.8 M131.8,253.1h-24.9c-0.5,0-1,0.2-1.4,0.6c-0.4,0.4-0.6,0.9-0.6,1.4l0,21.6
				c0,0.6,0.2,1.1,0.7,1.5c0.4,0.3,0.8,0.5,1.3,0.5c0.1,0,0.1,0,0.2,0l24.9-2.6c1-0.1,1.8-1,1.8-2v-19
				C133.8,254,132.9,253.1,131.8,253.1L131.8,253.1z"/>
		</g>
		<g>
			<path class="st2" d="M159.4,276.7c-0.6,0-1-0.4-1-1V124.4c0-0.4,0.2-0.7,0.5-0.9c0.2-0.1,0.3-0.1,0.5-0.1c0.2,0,0.3,0,0.5,0.1
				l7.1,4c0.3,0.2,0.5,0.5,0.5,0.9l-0.3,44.3c0,0.3-0.1,0.6-0.4,0.8c-0.2,0.1-0.4,0.2-0.6,0.2c-0.1,0-0.2,0-0.2,0l-0.3-0.1
				l-0.1,30.6l-1,71.5c0,0.5-0.5,1-1,1H159.4z"/>
			<path d="M159.4,124.4l7.1,4l-0.3,44.3l-1.5-0.4l-0.1,31.9l-1,71.5h-4.3V124.4 M159.4,122.4c-0.4,0-0.7,0.1-1,0.3
				c-0.6,0.4-1,1-1,1.7v151.3c0,1.1,0.9,2,2,2h4.3c1.1,0,2-0.9,2-2l1-71.5l0.1-29.6c0.3-0.1,0.5-0.2,0.8-0.4c0.5-0.4,0.8-1,0.8-1.6
				l0.3-44.3c0-0.7-0.4-1.4-1-1.8l-7.1-4C160.1,122.5,159.8,122.4,159.4,122.4L159.4,122.4z"/>
		</g>
	</g>
	<g>
		<g>
			<path d="M276.5,197.5c-0.6,0-0.9-0.2-1.1-0.4c-0.2-0.2-0.4-0.5-0.4-1.1v-2.2c0-0.6,0.2-0.9,0.4-1.1c0.2-0.2,0.5-0.4,1.1-0.4h1.7
				v-0.5h-1.7c-0.6,0-0.9-0.2-1.1-0.4c-0.2-0.2-0.4-0.5-0.4-1.1v-2.2c0-0.6,0.2-0.9,0.4-1.1c0.2-0.2,0.5-0.4,1.1-0.4h9.1
				c0.6,0,0.9,0.2,1.1,0.4c0.2,0.2,0.4,0.5,0.4,1.1v4.7c0,1.4-0.3,2.3-1,2.9c-0.6,0.6-1.4,0.9-2.4,0.9h-0.6c-0.4,0-0.8-0.1-1.2-0.2
				c-0.1,0.1-0.2,0.3-0.4,0.4c-0.5,0.5-1.2,0.7-2.1,0.7H276.5z"/>
			<path class="st2" d="M285.6,187.6c0.2,0,0.3,0,0.4,0.1s0.1,0.2,0.1,0.4v4.7c0,1-0.2,1.8-0.7,2.2c-0.4,0.4-1,0.6-1.7,0.6h-0.6
				c-0.4,0-0.7-0.1-1-0.2c-0.3-0.1-0.5-0.3-0.6-0.6c-0.1,0.5-0.3,0.9-0.6,1.2s-0.8,0.5-1.4,0.5h-3c-0.2,0-0.3,0-0.4-0.1
				s-0.1-0.2-0.1-0.4v-2.2c0-0.2,0-0.3,0.1-0.4c0.1-0.1,0.2-0.1,0.4-0.1h2.1c0.2,0,0.4,0,0.5-0.1c0.1-0.1,0.1-0.2,0.1-0.4v-2h-2.7
				c-0.2,0-0.3,0-0.4-0.1s-0.1-0.2-0.1-0.4v-2.2c0-0.2,0-0.3,0.1-0.4s0.2-0.1,0.4-0.1H285.6 M282.4,192.5h0.5c0.2,0,0.3,0,0.5-0.1
				c0.1-0.1,0.2-0.2,0.2-0.5v-1h-1.8v1c0,0.2,0.1,0.4,0.2,0.5C282.1,192.4,282.2,192.5,282.4,192.5 M285.6,185.6h-9.1
				c-0.9,0-1.5,0.4-1.8,0.7c-0.3,0.3-0.7,0.9-0.7,1.8v2.2c0,0.9,0.3,1.4,0.7,1.7c-0.3,0.3-0.7,0.9-0.7,1.8v2.2
				c0,0.9,0.4,1.5,0.7,1.8c0.3,0.3,0.9,0.7,1.8,0.7h3c1.4,0,2.2-0.5,2.7-1c0,0,0,0,0,0c0.3,0,0.6,0.1,0.9,0.1h0.6
				c1.2,0,2.2-0.4,3-1.1c0.9-0.8,1.3-2,1.3-3.6v-4.7c0-0.9-0.4-1.5-0.7-1.8C287.1,186,286.5,185.6,285.6,185.6L285.6,185.6z"/>
		</g>
		<g>
			<path d="M276.5,209c-0.6,0-0.9-0.2-1.1-0.4c-0.2-0.2-0.4-0.5-0.4-1.1v-2.2c0-0.6,0.2-0.9,0.4-1.1c0.2-0.2,0.5-0.4,1.1-0.4h2
				c-0.1-0.2-0.1-0.4-0.1-0.6v-0.6c0-0.2,0-0.4,0.1-0.6h-2c-0.6,0-0.9-0.2-1.1-0.4c-0.2-0.2-0.4-0.5-0.4-1.1v-2.1
				c0-0.6,0.2-0.9,0.4-1.1c0.2-0.2,0.5-0.4,1.1-0.4h9.1c0.6,0,0.9,0.2,1.1,0.4c0.2,0.2,0.4,0.5,0.4,1.1v2.3c0,0.3-0.1,0.7-0.3,0.9
				c-0.2,0.2-0.4,0.4-0.7,0.6l-1.3,0.7l1.3,0.7c0.3,0.2,0.5,0.4,0.7,0.6c0.2,0.3,0.3,0.6,0.3,0.9v2.3c0,0.6-0.2,0.9-0.4,1.1
				c-0.2,0.2-0.5,0.4-1.1,0.4H276.5z"/>
			<path class="st2" d="M285.6,198c0.2,0,0.3,0,0.4,0.1s0.1,0.2,0.1,0.4v2.3c0,0.1,0,0.3-0.1,0.4c-0.1,0.1-0.2,0.2-0.3,0.3l-2.3,1.3
				c-0.1,0-0.1,0.1-0.2,0.1c0,0-0.1,0.1-0.1,0.1v0.1c0,0.1,0,0.1,0.1,0.1c0,0,0.1,0.1,0.2,0.1l2.3,1.2c0.1,0.1,0.3,0.2,0.3,0.3
				c0.1,0.1,0.1,0.2,0.1,0.4v2.3c0,0.2,0,0.3-0.1,0.4s-0.2,0.1-0.4,0.1h-9.1c-0.2,0-0.3,0-0.4-0.1s-0.1-0.2-0.1-0.4v-2.2
				c0-0.2,0-0.3,0.1-0.4s0.2-0.1,0.4-0.1h4.9l-1.5-0.8c-0.2-0.1-0.3-0.2-0.3-0.3c-0.1-0.1-0.1-0.3-0.1-0.4v-0.6c0-0.2,0-0.3,0.1-0.4
				c0.1-0.1,0.2-0.2,0.3-0.3l1.5-0.8h-4.9c-0.2,0-0.3,0-0.4-0.1c-0.1-0.1-0.1-0.2-0.1-0.4v-2.1c0-0.2,0-0.3,0.1-0.4s0.2-0.1,0.4-0.1
				H285.6 M285.6,196h-9.1c-0.9,0-1.5,0.4-1.8,0.7c-0.3,0.3-0.7,0.9-0.7,1.8v2.1c0,0.9,0.4,1.5,0.7,1.8c0.2,0.2,0.5,0.4,0.9,0.6
				c-0.4,0.1-0.7,0.4-0.9,0.6c-0.3,0.3-0.7,0.9-0.7,1.8v2.2c0,0.9,0.4,1.5,0.7,1.8c0.3,0.3,0.9,0.7,1.8,0.7h9.1
				c0.9,0,1.5-0.4,1.8-0.7c0.3-0.3,0.7-0.9,0.7-1.8v-2.3c0-0.5-0.1-1-0.4-1.5c-0.2-0.3-0.4-0.5-0.7-0.7c0.3-0.2,0.5-0.5,0.7-0.7
				c0.3-0.4,0.4-0.9,0.4-1.5v-2.3c0-0.9-0.4-1.5-0.7-1.8C287.1,196.4,286.5,196,285.6,196L285.6,196z"/>
		</g>
		<g>
			<path d="M283.9,217.7c-0.6,0-0.9-0.2-1.1-0.4c-0.2-0.2-0.4-0.5-0.4-1.1v-0.4h-2.7v0.4c0,0.6-0.2,0.9-0.4,1.1
				c-0.2,0.2-0.5,0.4-1.1,0.4h-1.7c-0.6,0-0.9-0.2-1.1-0.4c-0.2-0.2-0.4-0.5-0.4-1.1v-6c0-0.6,0.2-0.9,0.4-1.1
				c0.2-0.2,0.5-0.4,1.1-0.4h1.7c0.6,0,0.9,0.2,1.1,0.4c0.2,0.2,0.4,0.5,0.4,1.1v0.4h2.7v-0.4c0-0.6,0.2-0.9,0.4-1.1
				c0.2-0.2,0.5-0.4,1.1-0.4h1.7c0.6,0,0.9,0.2,1.1,0.4c0.2,0.2,0.4,0.5,0.4,1.1v6c0,0.6-0.2,0.9-0.4,1.1c-0.2,0.2-0.5,0.4-1.1,0.4
				H283.9z"/>
			<path class="st2" d="M285.6,209.7c0.2,0,0.3,0,0.4,0.1c0.1,0.1,0.1,0.2,0.1,0.4v6c0,0.2,0,0.3-0.1,0.4s-0.2,0.1-0.4,0.1h-1.7
				c-0.2,0-0.3,0-0.4-0.1s-0.1-0.2-0.1-0.4v-1.4h-4.7v1.4c0,0.2,0,0.3-0.1,0.4s-0.2,0.1-0.4,0.1h-1.7c-0.2,0-0.3,0-0.4-0.1
				s-0.1-0.2-0.1-0.4v-6c0-0.2,0-0.3,0.1-0.4c0.1-0.1,0.2-0.1,0.4-0.1h1.7c0.2,0,0.3,0,0.4,0.1c0.1,0.1,0.1,0.2,0.1,0.4v1.4h4.7
				v-1.4c0-0.2,0-0.3,0.1-0.4c0.1-0.1,0.2-0.1,0.4-0.1H285.6 M285.6,207.7h-1.7c-0.9,0-1.5,0.4-1.8,0.7c-0.2,0.2-0.5,0.6-0.6,1.2
				h-0.8c-0.1-0.6-0.4-0.9-0.6-1.2c-0.3-0.3-0.9-0.7-1.8-0.7h-1.7c-0.9,0-1.5,0.4-1.8,0.7c-0.3,0.3-0.7,0.9-0.7,1.8v6
				c0,0.9,0.4,1.5,0.7,1.8c0.3,0.3,0.9,0.7,1.8,0.7h1.7c0.9,0,1.5-0.4,1.8-0.7c0.2-0.2,0.5-0.6,0.6-1.2h0.8c0.1,0.5,0.4,0.9,0.6,1.2
				c0.3,0.3,0.9,0.7,1.8,0.7h1.7c0.9,0,1.5-0.4,1.8-0.7s0.7-0.9,0.7-1.8v-6c0-0.9-0.4-1.5-0.7-1.8
				C287.1,208.1,286.5,207.7,285.6,207.7L285.6,207.7z"/>
		</g>
		<g>
			<path d="M283.9,227.2c-0.6,0-0.9-0.2-1.1-0.4c-0.2-0.2-0.4-0.5-0.4-1.1v-1.1h-5.9c-0.6,0-0.9-0.2-1.1-0.4
				c-0.2-0.2-0.4-0.5-0.4-1.1v-2.3c0-0.6,0.2-0.9,0.4-1.1c0.2-0.2,0.5-0.4,1.1-0.4h5.9v-1.1c0-0.6,0.2-0.9,0.4-1.1
				c0.2-0.2,0.5-0.4,1.1-0.4h1.7c0.6,0,0.9,0.2,1.1,0.4c0.2,0.2,0.4,0.5,0.4,1.1v7.4c0,0.6-0.2,0.9-0.4,1.1
				c-0.2,0.2-0.5,0.4-1.1,0.4H283.9z"/>
			<path class="st2" d="M285.6,217.8c0.2,0,0.3,0,0.4,0.1s0.1,0.2,0.1,0.4v7.4c0,0.2,0,0.3-0.1,0.4s-0.2,0.1-0.4,0.1h-1.7
				c-0.2,0-0.3,0-0.4-0.1s-0.1-0.2-0.1-0.4v-2.1h-6.9c-0.2,0-0.3,0-0.4-0.1c-0.1-0.1-0.1-0.2-0.1-0.4v-2.3c0-0.2,0-0.3,0.1-0.4
				c0.1-0.1,0.2-0.1,0.4-0.1h6.9v-2.1c0-0.2,0-0.3,0.1-0.4s0.2-0.1,0.4-0.1H285.6 M285.6,215.8h-1.7c-0.9,0-1.5,0.4-1.8,0.7
				c-0.3,0.3-0.7,0.9-0.7,1.8v0.1h-4.9c-0.9,0-1.5,0.4-1.8,0.7c-0.3,0.3-0.7,0.9-0.7,1.8v2.3c0,0.9,0.4,1.5,0.7,1.8
				c0.3,0.3,0.9,0.7,1.8,0.7h4.9v0.1c0,0.9,0.4,1.5,0.7,1.8c0.3,0.3,0.9,0.7,1.8,0.7h1.7c0.9,0,1.5-0.4,1.8-0.7
				c0.3-0.3,0.7-0.9,0.7-1.8v-7.4c0-0.9-0.4-1.5-0.7-1.8C287.1,216.2,286.5,215.8,285.6,215.8L285.6,215.8z"/>
		</g>
	</g>
</g>
</svg>
