<?xml version="1.0" encoding="utf-8"?>
<!-- Generator: Adobe Illustrator 24.0.3, SVG Export Plug-In . SVG Version: 6.00 Build 0)  -->
<svg version="1.1" id="Layer_1" xmlns="http://www.w3.org/2000/svg" xmlns:xlink="http://www.w3.org/1999/xlink" x="0px" y="0px"
	 viewBox="0 0 360 360" style="enable-background:new 0 0 360 360;" xml:space="preserve">
<style type="text/css">
	.st0{opacity:0.3;fill:#0F81C2;}
	.st1{fill:#0B80C0;}
	.st2{fill:#8582BE;}
	.st3{fill:#8582BE;stroke:#000000;stroke-width:2;stroke-linecap:round;stroke-linejoin:round;stroke-miterlimit:10;}
	.st4{fill:none;stroke:#000000;stroke-width:2;stroke-linecap:round;stroke-linejoin:round;stroke-miterlimit:10;}
	.st5{fill:#006D52;}
	.st6{fill:#01AC83;}
	.st7{fill:#ECA420;}
</style>
<title>Q_08</title>
<g>
	<path class="st0" d="M284.6,149.8c10.6,18.8-74.6,27.6-19.9,27.6c89.2,0,111.2,10,32.5,9.9s-76.9,8.7-65.5,12.2
		c11.3,3.5,92.4,36.3-79.8,36.3c-125.4,0-61.5-34.7-28.6-37.3c32.9-2.6,42.9-23.1-42.3-20.1c-85.2,3-94-21.5,6-21.2
		c100,0.3-8.6-12.3,77-12.3c23.7,0,7.7-22.6,73-20.4S232.7,149.2,284.6,149.8z"/>
	<g>
		<path class="st1" d="M77.2,216.9c-0.1,0-0.1,0-0.2,0l-34.4-6.4c-0.1,0-0.2-0.1-0.4-0.1l-6.1-3.9c-0.2-0.1-0.4-0.3-0.4-0.6
			l-2.9-10.7c-0.1-0.3,0-0.6,0.2-0.9c0.2-0.2,0.5-0.4,0.8-0.4c0,0,40.5,0.7,40.5,0.7c0.5-2.6,2.2-9.7,6.7-10.1
			c0.2,0,0.3-0.1,0.4-0.2c0.4-0.5,0.2-1.8,0-2.4c-0.1-0.3,0-0.6,0.1-0.8c0.2-0.2,0.4-0.4,0.7-0.4c0.7-0.1,66.4-10.1,82.2-13.8
			c13.4-3,20.6-5.9,22.6-6.7l0.2-3.2c0-0.4,0.3-0.8,0.8-0.9c1-0.3,25.3-6.2,28.2-6.7c0.4-0.1,0.8-0.1,1.1-0.1c1.2,0,1.8,0.5,2.2,0.8
			c0.2,0.2,0.4,0.5,0.5,0.7l8.3-1.5c0.1,0,0.1,0,0.2,0c0.1,0,0.2,0,0.3,0.1l30.7,10.6c0.3,0.1,0.6,0.4,0.6,0.7s0,0.7-0.3,0.9
			l-6.1,6.1c-0.1,0.1-0.2,0.2-0.3,0.2l-45.2,20.3c-0.1,0-0.1,0-0.2,0.1l-96.8,25.4c-0.1,0-0.1,0-0.2,0L77.2,216.9
			C77.3,216.9,77.3,216.9,77.2,216.9z"/>
		<g>
			<path d="M228.4,150.2l30.7,10.6L253,167l-45.2,20.3L111,212.7l-33.8,3.2l-34.4-6.4l-6.1-3.9l-2.9-10.7l41.4,0.7
				c0,0,1.4-9.7,6-10.1c2.3-0.2,1.3-3.9,1.3-3.9s66.2-10.1,82.3-13.8c16.1-3.7,23.3-7,23.3-7l0.2-3.8c0,0,25.2-6.1,28.1-6.7
				c0.3-0.1,0.6-0.1,0.9-0.1c2,0,1.9,1.7,1.9,1.7L228.4,150.2 M228.4,148.2c-0.1,0-0.2,0-0.4,0l-7.6,1.4c-0.1-0.1-0.2-0.2-0.2-0.3
				c-0.5-0.5-1.4-1.2-2.9-1.2c-0.4,0-0.8,0-1.3,0.1c-2.9,0.6-27.2,6.5-28.2,6.7c-0.9,0.2-1.5,1-1.5,1.8l-0.1,2.6
				c-2.5,1-9.6,3.7-21.9,6.4c-15.8,3.6-81.5,13.6-82.1,13.7c-0.6,0.1-1.1,0.4-1.4,0.9c-0.3,0.5-0.4,1.1-0.3,1.6
				c0.1,0.5,0.2,1.1,0.1,1.4c-4.5,0.7-6.4,6.9-7.1,10l-39.7-0.7c0,0,0,0,0,0c-0.6,0-1.2,0.3-1.6,0.8c-0.4,0.5-0.5,1.1-0.3,1.8
				l2.9,10.7c0.1,0.5,0.4,0.9,0.8,1.2l6.1,3.9c0.2,0.1,0.5,0.2,0.7,0.3l34.4,6.4c0.1,0,0.2,0,0.4,0c0.1,0,0.1,0,0.2,0l33.8-3.2
				c0.1,0,0.2,0,0.3-0.1l96.8-25.4c0.1,0,0.2-0.1,0.3-0.1l45.2-20.3c0.2-0.1,0.4-0.2,0.6-0.4l6.1-6.1c0.5-0.5,0.7-1.2,0.5-1.9
				c-0.2-0.7-0.6-1.2-1.3-1.4l-30.7-10.6C228.9,148.2,228.7,148.2,228.4,148.2L228.4,148.2z"/>
		</g>
	</g>
	<g>
		<path class="st1" d="M207.2,163.4c-0.3,0-0.6-0.1-0.8-0.4s-0.3-0.5-0.2-0.8l2.8-17.4c0.1-0.5,0.5-0.8,1-0.8h2.8
			c0.3,0,0.6,0.1,0.8,0.3c0.2,0.2,0.3,0.5,0.2,0.8l-2.6,17.4c-0.1,0.5-0.5,0.9-1,0.9H207.2z"/>
		<g>
			<path d="M212.7,145l-2.6,17.4h-3L210,145H212.7 M212.7,143H210c-1,0-1.8,0.7-2,1.7l-2.8,17.4c-0.1,0.6,0.1,1.2,0.5,1.6
				s0.9,0.7,1.5,0.7h3c1,0,1.8-0.7,2-1.7l2.6-17.4c0.1-0.6-0.1-1.2-0.5-1.6C213.9,143.2,213.3,143,212.7,143L212.7,143z M212.7,147
				L212.7,147L212.7,147L212.7,147z"/>
		</g>
	</g>
	<g>
		<path class="st2" d="M166,195.9c-0.2,0-0.4-0.1-0.5-0.2l-29.9-19.7c-0.3-0.2-0.5-0.6-0.4-1s0.4-0.7,0.8-0.8
			c1.6-0.3,3.9-0.7,6.8-1.2c11.4-1.9,30.4-5.1,46.7-11.3c0.1,0,0.2-0.1,0.4-0.1c0.2,0,0.3,0,0.5,0.1l24.9,14.3
			c0.3,0.2,0.5,0.4,0.5,0.7s-0.1,0.6-0.3,0.8c-7.2,6.9-26,13.9-49,18.2C166.1,195.9,166,195.9,166,195.9z"/>
		<path d="M189.6,162.7l24.9,14.3c-7.3,7-26.3,13.8-48.5,17.9L136,175.2C144,173.6,169.2,170.5,189.6,162.7 M189.6,160.7
			c-0.2,0-0.5,0-0.7,0.1c-16.1,6.2-35.1,9.4-46.5,11.3c-2.9,0.5-5.2,0.9-6.8,1.2c-0.8,0.2-1.4,0.8-1.6,1.6s0.2,1.6,0.9,2.1
			l29.9,19.7c0.3,0.2,0.7,0.3,1.1,0.3c0.1,0,0.2,0,0.4,0c23.2-4.3,42.2-11.4,49.5-18.4c0.5-0.4,0.7-1.1,0.6-1.7
			c-0.1-0.6-0.4-1.2-1-1.5l-24.9-14.3C190.3,160.8,189.9,160.7,189.6,160.7L189.6,160.7z"/>
	</g>
	<g>
		<g>
			<path class="st2" d="M221.3,179.4c-0.2,0-0.3,0-0.5-0.1l-29.8-17c-0.4-0.2-0.6-0.6-0.5-1c0.1-0.4,0.4-0.7,0.8-0.8l35.3-6.6
				c0.1,0,0.1,0,0.2,0c0.1,0,0.2,0,0.3,0.1l29,10.2c0.4,0.1,0.7,0.5,0.7,0.9s-0.2,0.8-0.6,0.9l-34.5,13.4
				C221.5,179.3,221.4,179.4,221.3,179.4z"/>
			<path d="M226.8,154.7l29,10.2l-34.5,13.4l-29.8-17L226.8,154.7 M226.8,152.7c-0.1,0-0.2,0-0.4,0l-35.3,6.6
				c-0.8,0.2-1.5,0.8-1.6,1.6s0.3,1.7,1,2.1l29.8,17c0.3,0.2,0.6,0.3,1,0.3c0.2,0,0.5,0,0.7-0.1l34.5-13.4c0.8-0.3,1.3-1.1,1.3-1.9
				s-0.5-1.6-1.3-1.9l-29-10.2C227.3,152.7,227,152.7,226.8,152.7L226.8,152.7z"/>
		</g>
		<line class="st3" x1="247.9" y1="168" x2="219.5" y2="156.1"/>
		<line class="st3" x1="238.9" y1="171.5" x2="210.5" y2="157.7"/>
		<line class="st4" x1="228.2" y1="175.7" x2="200.9" y2="159.5"/>
	</g>
	<g>
		<path class="st1" d="M234.1,173.2c-0.3,0-0.6-0.1-0.8-0.4s-0.3-0.5-0.2-0.8l2.8-17.4c0.1-0.5,0.5-0.8,1-0.8h2.8
			c0.3,0,0.6,0.1,0.8,0.3c0.2,0.2,0.3,0.5,0.2,0.8l-2.6,17.4c-0.1,0.5-0.5,0.9-1,0.9H234.1z"/>
		<g>
			<path d="M239.7,154.8l-2.6,17.4h-3l2.8-17.4H239.7 M239.7,152.8h-2.8c-1,0-1.8,0.7-2,1.7l-2.8,17.4c-0.1,0.6,0.1,1.2,0.5,1.6
				s0.9,0.7,1.5,0.7h3c1,0,1.8-0.7,2-1.7l2.6-17.4c0.1-0.6-0.1-1.2-0.5-1.6S240.2,152.8,239.7,152.8L239.7,152.8z M239.7,156.8
				L239.7,156.8L239.7,156.8L239.7,156.8z"/>
		</g>
	</g>
	<g>
		<path class="st2" d="M91,213.4c-26.4-0.1-54.2-6.8-54.5-6.9c-0.4-0.1-0.6-0.4-0.7-0.7l-2.9-10.7c-0.1-0.3,0-0.6,0.2-0.9
			c0.2-0.2,0.5-0.4,0.8-0.4c0,0,41.4,0.7,41.4,0.7c0.3,0,0.5,0.1,0.7,0.3l15.8,16.8c0.3,0.3,0.3,0.7,0.2,1.1
			C91.8,213.2,91.4,213.4,91,213.4C91,213.4,91,213.4,91,213.4z"/>
		<g>
			<path d="M33.8,194.9l41.4,0.7L91,212.4c-26.6-0.1-54.2-6.9-54.2-6.9L33.8,194.9 M33.8,192.9c-0.6,0-1.2,0.3-1.6,0.8
				c-0.4,0.5-0.5,1.1-0.3,1.8l2.9,10.7c0.2,0.7,0.7,1.2,1.5,1.4c0.3,0.1,28.2,6.8,54.7,6.9c0,0,0,0,0,0c0.8,0,1.5-0.5,1.8-1.2
				c0.3-0.7,0.2-1.6-0.4-2.2l-15.8-16.8c-0.4-0.4-0.9-0.6-1.4-0.6L33.8,192.9C33.8,192.9,33.8,192.9,33.8,192.9L33.8,192.9z"/>
		</g>
	</g>
	<g>
		<g>
			<g>
				<path class="st5" d="M152.2,196.3c-1.8,0-4-1-4.6-2.9c-0.4-1-1-1.5-2.5-1.8c-1.6-0.4-2.2-1.5-2.6-2.4c-0.2-0.4-0.3-0.7-0.6-1
					c-0.2-0.2-0.6-0.3-1.1-0.3c-1-0.2-2.4-0.4-3.4-1.7c-1.1-1.4-0.9-2.2-0.5-3.1c0.2-0.4,0.3-0.8,0.3-1.6c0-1.6-0.3-2.5-0.5-3.5
					c-0.1-0.4-0.2-0.8-0.3-1.2c-0.1-0.5,0.2-1,0.7-1.1l11.6-3.9c0.1,0,0.2,0,0.2,0l42.5-2.9c0.7-0.2,2.9-0.8,8.9-2.4
					c7.3-1.9,12.5-2.3,15.6-2.3c1.7,0,2.6,0.1,2.6,0.1c0,0,0.1,0,0.1,0c5.4,1.6,14.6,4.7,14.9,7.6c0.4,3.3-5.7,4.7-10.5,5.8
					c-0.4,0.1-0.9,0.2-1.2,0.3c-4,0.9-10.6,2.7-12.8,3.5c-2.3,0.8-8.5,2.4-11.9,2.4c-1.1,0-2.7,0-3,0.2c0,0,0,0.1,0,0.2
					c-0.3,1.7-2.7,2.2-8,2.7c-0.7,0.1-1.3,0.1-1.8,0.1c-0.1,0.2-0.2,0.3-0.4,0.5c-0.4,0.4-0.5,0.7-0.6,1c-0.4,0.8-0.7,1.3-2.4,2
					c-2.5,0.9-17.6,4.6-20.5,4.7c-0.5,0-1,0-1.5,0c-1.4,0-2.2-0.1-3-0.2c-0.2,0-0.7-0.1-0.7-0.1c-0.2,0-0.4,0.2-0.8,0.4
					C153.9,195.8,153.3,196.3,152.2,196.3z"/>
				<g>
					<path d="M216,165.1c1.6,0,2.5,0.1,2.5,0.1s13.9,4.1,14.2,6.8c0.3,2.7-7.2,4.1-11,5s-10.6,2.7-12.9,3.5
						c-2.3,0.8-8.4,2.3-11.6,2.4c-3.2,0.1-3.8,0.1-4,1.2c-0.2,1.1-3.1,1.5-7.1,1.9c-0.9,0.1-1.5,0.1-1.8,0.1c-0.4,0-0.5,0-0.6,0
						c-0.1,0,0.3,0.1-0.4,0.9c-1.3,1.4-0.4,1.8-2.7,2.7s-17.3,4.5-20.1,4.6c-0.5,0-1,0-1.4,0c-1.8,0-2.6-0.1-3.6-0.2
						c0,0-0.1,0-0.1,0c-1.1,0-1.6,1.3-3,1.3c-1.4,0-3.2-0.8-3.7-2.2c-0.5-1.4-1.5-2.1-3.2-2.5c-1.7-0.4-1.7-1.9-2.6-3
						c-0.9-1.1-3.1-0.2-4.5-2c-1.4-1.8,0-1.7,0-4.1s-0.6-3.6-0.8-4.9l11.6-3.9l42.6-2.9c-0.2,0-0.2,0.1-0.2,0.1c0,0,0.3-0.1,0.3-0.1
						l0,0c0.6-0.2,2.8-0.7,9-2.4C208,165.4,213.2,165.1,216,165.1 M216,163.1l0,2L216,163.1c-3.2,0-8.5,0.4-15.9,2.4
						c-5.7,1.5-7.9,2.1-8.8,2.3l-42.4,2.9c-0.2,0-0.3,0-0.5,0.1l-11.6,3.9c-0.9,0.3-1.5,1.3-1.3,2.2c0.1,0.5,0.2,0.9,0.3,1.3
						c0.2,0.9,0.5,1.8,0.5,3.2c0,0.6-0.1,0.9-0.3,1.2c-0.5,1.3-0.6,2.4,0.7,4.1c1.3,1.7,3,1.9,4,2.1c0.2,0,0.5,0.1,0.6,0.1
						c0.1,0.2,0.2,0.4,0.3,0.7c0.4,0.9,1.2,2.4,3.3,2.9c1.4,0.3,1.6,0.7,1.8,1.2c0.8,2.3,3.4,3.6,5.6,3.6c1.4,0,2.3-0.7,2.8-1.1
						c0.1-0.1,0.2-0.1,0.3-0.2c0.2,0,0.3,0,0.5,0.1c0.8,0.1,1.6,0.2,3.1,0.2c0.4,0,0.9,0,1.5,0c3.2-0.1,18.4-3.9,20.8-4.8
						c1.9-0.7,2.5-1.4,3-2.5c0.1-0.3,0.2-0.4,0.5-0.7c0.1-0.1,0.1-0.2,0.2-0.2c0.4,0,0.8,0,1.3-0.1c4.9-0.4,8-0.9,8.8-3
						c0.6-0.1,1.6-0.1,2.2-0.1c3.6-0.1,9.9-1.6,12.2-2.5c2.1-0.7,8.8-2.5,12.7-3.4c0.4-0.1,0.8-0.2,1.2-0.3
						c5.3-1.2,11.8-2.7,11.3-6.9c-0.1-1-0.5-4-15.7-8.5c-0.1,0-0.2,0-0.3-0.1C218.6,163.2,217.7,163.1,216,163.1L216,163.1z"/>
				</g>
			</g>
			<g>
				<path class="st6" d="M160.2,190.6c-0.9,0-1.7-0.6-2.3-1.7c0,0-0.2-0.4-0.3-0.6c-0.6,0.2-1.5,0.5-3.2,0.5c-2.2,0-6.2-0.2-7.3-1.9
					c-0.4-0.5-0.4-1.1-0.2-1.7c0,0,0,0,0,0c-0.2-0.1-0.5-0.2-0.9-0.2c-0.5-0.1-1.2-0.3-2.1-0.6c-2.8-0.9-3.3-1.6-3.9-3.2
					c-0.1-0.4-0.3-0.8-0.5-1.4c-0.1-0.3-0.2-0.5-0.3-0.7c0,0-0.1,0-0.1,0c-0.4,0-1-0.1-1.6-0.3c-0.9-0.3-1.6-0.8-1.8-1.6
					c-0.3-0.9,0-2,0.8-3c0.3-0.4,0.7-0.7,1.1-1c-2.7-0.8-2.8-2.4-2.9-4.4l0-0.1c-0.1-2.5,1.9-4,4-4.2c0.1,0,0.2,0,0.3,0
					c1.1,0,2.2,0.5,3,1.2c0.6,0.6,0.9,1.4,0.9,2.1c0,0,0,0,0,0c0.1,0,0.4,0.1,0.9,0.1c0.4,0,0.7-0.1,0.9-0.1c0-0.1,0.1-0.1,0.1-0.2
					c0.4-0.8,0.9-1.4,2.5-1.7l0.1,0c0.3-0.1,0.7-0.2,0.9-0.2c0-0.2,0-0.4,0-0.6l0-0.1c0-0.6,0.2-1.2,0.6-1.6
					c0.5-0.5,1.1-0.7,1.8-0.7c0.5,0,1,0.1,1.4,0.4c-0.5-0.5-0.7-1.2-0.5-2c0.3-1.3,1.7-2.2,3.2-2.2c0.7,0,1.7,0.2,2.7,1.2
					c1.5,1.5,1.8,2.3,1.8,3.2c0,0.2,0,0.2,0.1,0.4c0.2,0.3,0.5,0.4,0.7,0.4c0.3,0,0.6-0.3,0.8-0.7c0.5-1.1,1.5-1.8,2.5-1.8
					c0.6,0,1.1,0.2,1.5,0.6c0.4,0.4,0.8,1,0.7,2.3c0,0.2,0,0.3,0,0.3c0,0,0.1,0,0.2,0c0.2,0,0.4-0.1,0.6-0.2c-0.5-0.6-0.6-1.3-0.3-2
					c0.4-0.8,1.3-1.4,2.3-1.4c0.9,0,1.7,0.5,2,1.3c0,0.1,0.1,0.2,0.3,0.2c0.2,0,0.3-0.1,0.5-0.1c-0.5-1-0.6-2.2-0.1-3.1
					c0.4-0.8,1.1-1.2,2-1.3l0.2,0c0.5,0,1.4,0,1.8-0.2c-0.1-0.6,0-1.2,0.2-1.8c0.1-0.3,0.2-0.8,0.1-1l0,0c0,0-0.1,0-0.2-0.1
					c-1.2-0.4-1.5-1.3-1.4-2c0.2-1.2,1.7-2.3,3-2.3c0.2,0,0.3,0,0.5,0c1.5,0.3,1.8,0.5,3,1.7l0.5,0.5c0.5,0.5,0.9,0.8,1.1,0.9
					c0-0.1,0-0.3,0-0.5c-0.1-0.8,0.2-1.6,0.7-2.1c0.5-0.6,1.3-0.9,2.1-0.9c1.4,0,2.5,0.8,2.8,2.1c0.1,0.6,0.2,1.2,0.3,1.6
					c0,0.3,0.1,0.7,0.1,0.8c0,0,0.1,0,0.1,0l0.1,0c0.4,0,0.7-0.3,1.2-0.7c0.6-0.6,1.5-1.4,3-1.5l0.4,0c0.6,0,1.1-0.1,1.5-0.1
					c0.7,0,3,0,3.2,2.6c0.1,0.8,1,1.2,1.7,1.2c0,0,0.1,0,0.1,0c0.2-0.8,0.9-1.3,1.9-1.3c1.2,0,2.7,0.8,3.2,2.2
					c0.3,0.7,0.8,1.2,1.3,1.2c0.1,0,0.3,0,0.5-0.3c1.1-1.1,2.3-2.2,3.7-2.2c0.6,0,1.5,0.2,2.3,1.4c0.4,0.6,0.8,0.9,1,0.9
					c0.3,0,0.8-0.4,1.2-0.7c1-0.7,2.1-1,3.1-1c1,0,1.9,0.3,2.7,1c0.6,0.5,0.6,0.5,0.8,0.5c0.3,0.1,0.7,0.3,2.5,1.5
					c1.5,1,2.4,1.2,3.4,1.5c1,0.3,1.9,0.5,3,1.5c0.9,0.7,1.3,0.9,1.7,1.1c0.6,0.3,1.2,0.5,2.4,1.6c0.4,0.4,0.8,0.7,1.2,0.9
					c0.7,0.5,1.4,1,1.4,1.9c0,0.9-0.8,1.6-2.1,2.5c-1.8,1.2-2.9,1.3-3.8,1.3c-0.8,0-1.2,0-2.2,0.9c-1.6,1.4-2.1,1.6-3.1,1.6
					c-0.3,0-0.6,0-1.3,0.2c-0.4,0.1-0.8,0.2-1.1,0.2c-1.1,0-1.7-0.6-2.1-0.9c-0.3-0.3-0.4-0.3-0.5-0.3l-0.6,0.1
					c-0.8,0.1-0.8,0.1-1.9,1.2c-1,1-1.8,1-2.4,1c-0.5,0-0.8,0-1.6,0.8c-0.6,0.6-1.2,1.1-2,1.1c-0.6,0-1.1-0.4-1.4-0.6
					c-0.4-0.3-0.8-0.6-1.6-0.7c-0.3,0-0.6,0-0.8,0c-1.1,0-1.5,0.2-2.8,1c-0.5,0.3-1.2,0.7-2.1,1.2c-2.6,1.5-5.1,2.2-7.5,2.2
					c-0.6,0-1.3,0-1.9-0.1c-0.7-0.1-1.3-0.3-1.8-0.4c-0.6-0.2-1.1-0.3-1.5-0.3c-0.5,0-1.1,0.1-2.2,1.1c-0.7,0.6-0.6,0.8-0.6,0.9
					c0,0.2,0.1,0.6-0.2,1.1c-0.4,0.6-1,0.7-3.9,1.3c-1.5,0.3-2.8,0.5-3.8,0.6c-2.9,0.5-3.8,0.6-4.5,1.3c-1.6,1.5-2.8,1.6-5.9,1.6
					c-1.5,0-2.4-0.4-2.9-0.7c-0.2-0.1-0.4-0.2-0.5-0.2c-0.1,0-0.4,0.1-1.1,0.6c-0.4,0.3-0.7,0.6-1.1,0.9
					C162.4,189.6,161.3,190.6,160.2,190.6z M152.3,163.3c0.1,0.1,0.2,0.2,0.3,0.3C152.6,163.5,152.5,163.4,152.3,163.3
					C152.3,163.3,152.3,163.3,152.3,163.3z"/>
				<g>
					<path d="M184.6,151.6c0.8,0,1.6,0.4,1.8,1.3c0.5,1.9,0,3.2,1.5,3.2c0.1,0,0.1,0,0.2,0c1.7-0.1,2-2.1,4.2-2.2
						c0.7,0,1.3-0.1,1.8-0.1c1.3,0,2.1,0.3,2.2,1.7c0.1,1.4,1.6,2.1,2.7,2.1c0.6,0,1-0.2,1.1-0.7c0.1-0.5,0.4-0.7,0.9-0.7
						c0.8,0,1.9,0.6,2.3,1.6c0.4,1,1.3,1.8,2.2,1.8c0.4,0,0.8-0.2,1.2-0.6c0.8-0.8,1.9-1.9,3-1.9c0.5,0,1,0.3,1.5,0.9
						c0.7,1,1.2,1.3,1.8,1.3c0.6,0,1.1-0.4,1.8-0.8c0.7-0.5,1.6-0.9,2.5-0.9c0.7,0,1.4,0.2,2.1,0.8c1.5,1.2,0.2,0,3.4,2.1
						c3.2,2.1,4.3,1.2,6.3,2.9s2.1,0.8,4.1,2.6c2,1.8,3.7,1.7,0.6,3.8c-3,2.1-3.7,0.1-6.1,2.2c-2.4,2.1-1.7,1-4,1.6
						c-0.3,0.1-0.6,0.1-0.8,0.1c-1.4,0-1.5-1.2-2.6-1.2c-0.1,0-0.1,0-0.2,0c-1.5,0.2-1.4,0-3,1.5c-1.6,1.5-2-0.2-4,1.8
						c-0.6,0.6-1,0.8-1.3,0.8c-0.7,0-1-1.2-2.9-1.3c-0.3,0-0.6,0-0.9,0c-1.9,0-2.3,0.7-5.4,2.4c-2.7,1.5-5,2-7,2
						c-0.6,0-1.2,0-1.8-0.1c-1.4-0.2-2.4-0.7-3.5-0.7c-0.8,0-1.7,0.3-2.9,1.4c-2.6,2.4,1.6,2-4.2,3c-5.8,1-7.4,0.9-8.8,2.1
						c-1.3,1.2-2.1,1.3-5.2,1.3c0,0,0,0,0,0c-2.1,0-2.6-0.9-3.4-0.9c-0.4,0-0.9,0.2-1.7,0.9c-1.6,1.3-2.9,2.7-4,2.7
						c-0.5,0-1-0.3-1.4-1.1c-0.5-1-0.7-1.3-0.9-1.3c-0.4,0-1,0.7-3.5,0.7c-4.2,0-7.1-0.9-6.6-2.3c0.5-1.4-0.1-1.1-3.6-2.1
						c-3.5-1.1-2.6-1.7-3.8-4.1c-0.6-1.1-0.6-1.3-0.7-1.3c-0.1,0-0.2,0.1-0.6,0.1c-0.3,0-0.7,0-1.3-0.2c-1.6-0.4-1.5-1.9-0.5-3
						c0.9-1.1,3.1-2,0.8-2.6c-2.3-0.6-2.3-1.6-2.4-3.6c-0.1-2.1,1.7-3,3-3.2c0.1,0,0.1,0,0.2,0c1.3,0,2.9,1,2.8,2.3
						c0,0.8,1,1.2,1.9,1.2c0.7,0,1.4-0.2,1.6-0.5c0.5-0.7,0.1-1.2,2.1-1.6c1.9-0.4,1.9-0.4,1.8-2c0-0.8,0.7-1.3,1.5-1.3
						c0.7,0,1.5,0.4,1.7,1.3c0.1,0.4,0.3,0.6,0.5,0.6c0.7,0,1.7-2.2,0.2-3c-1.4-0.8-0.1-2.7,1.7-2.7c0.6,0,1.3,0.2,2,0.9
						c2.4,2.4,0.8,2.3,1.8,3.6c0.4,0.6,1,0.8,1.5,0.8c0.7,0,1.3-0.4,1.7-1.3c0.3-0.8,1-1.2,1.6-1.2c0.7,0,1.3,0.5,1.2,1.9
						c0,1,0.6,1.4,1.3,1.4c1,0,2.2-0.9,1.5-1.7c-0.9-0.9,0.2-1.9,1.1-1.9c0.4,0,0.9,0.2,1.1,0.7c0.2,0.6,0.7,0.8,1.2,0.8
						c0.9,0,1.9-0.7,1.4-1.4c-0.7-1.1-0.5-3,1-3c1.5-0.1,3.3-0.1,3-1.3c-0.3-1.2,1.2-3.1-0.6-3.7c-1.7-0.6,0-2.4,1.4-2.4
						c0.1,0,0.2,0,0.3,0c1.4,0.3,1.4,0.4,3,2c0.8,0.8,1.6,1.3,2.1,1.3c0.5,0,0.8-0.5,0.7-1.7C182.7,152.2,183.7,151.6,184.6,151.6
						 M184.6,149.6c-1.1,0-2.1,0.4-2.9,1.2c-0.4,0.4-0.6,0.8-0.8,1.3c-0.1-0.1-0.1-0.1-0.2-0.2c-1.3-1.3-1.7-1.6-3.5-2
						c-0.2,0-0.4-0.1-0.6-0.1c-1.9,0-3.8,1.5-4,3.2c-0.2,1,0.2,2.2,1.5,2.9c0,0,0,0.1,0,0.1c-0.1,0.3-0.2,0.7-0.2,1.1
						c-0.3,0-0.6,0-0.8,0l-0.2,0c-1.3,0-2.3,0.7-2.9,1.8c-0.2,0.5-0.4,1-0.4,1.5c-0.4-0.2-0.9-0.3-1.4-0.3c-1.1,0-2.2,0.5-2.8,1.3
						c0,0-0.1-0.1-0.1-0.1c-0.6-0.6-1.4-0.9-2.2-0.9c-1.2,0-2.5,0.7-3.2,1.9c-0.1-0.9-0.6-1.8-2-3.2c-1.2-1.2-2.5-1.4-3.4-1.4
						c-1.9,0-3.7,1.3-4.1,2.9c-0.1,0.3-0.1,0.6-0.1,0.8c-0.9,0-1.8,0.4-2.4,1c-0.6,0.6-0.9,1.4-0.9,2.3c0,0-0.1,0-0.1,0l-0.1,0
						c-1.8,0.4-2.6,1.1-3.1,2c0,0-0.1,0-0.2,0c0,0,0,0,0,0c-0.2-0.7-0.5-1.4-1.1-2c-0.9-1-2.3-1.6-3.7-1.6c-0.1,0-0.2,0-0.4,0
						c-2.5,0.2-5.1,2.1-4.9,5.3l0,0.1c0.1,1.6,0.2,3.5,2.1,4.6c0,0,0,0.1-0.1,0.1c-1,1.2-1.3,2.7-0.9,3.9c0.4,1.1,1.3,1.9,2.5,2.3
						c0.5,0.1,0.9,0.2,1.3,0.3c0,0.1,0.1,0.1,0.1,0.2c0.2,0.5,0.4,0.9,0.5,1.3c0.6,1.9,1.4,2.9,4.5,3.8c0.9,0.3,1.6,0.5,2.2,0.6
						c0,0.6,0.2,1.1,0.5,1.6c1.1,1.6,3.8,2.3,8.2,2.3c1.2,0,2.1-0.1,2.8-0.3c0.9,1.6,2.2,2,3.1,2c1.6,0,2.9-1.1,4.2-2.2
						c0.3-0.3,0.7-0.6,1.1-0.9c0.2-0.2,0.4-0.3,0.5-0.4c0,0,0,0,0.1,0c0.6,0.3,1.6,0.8,3.3,0.8c3.2,0,4.7-0.1,6.6-1.8
						c0.5-0.5,1.3-0.6,4-1c1-0.2,2.3-0.4,3.8-0.6c2.8-0.5,3.9-0.7,4.6-1.7c0.4-0.6,0.4-1.2,0.4-1.5c0.1-0.1,0.1-0.2,0.3-0.3
						c0.9-0.8,1.3-0.9,1.5-0.9c0,0,0,0,0,0c0.3,0,0.7,0.1,1.2,0.3c0.6,0.2,1.2,0.3,2,0.4c0.7,0.1,1.4,0.1,2,0.1c2.6,0,5.2-0.7,8-2.3
						c0.9-0.5,1.6-0.9,2.1-1.3c1.3-0.8,1.5-0.9,2.3-0.9c0.2,0,0.4,0,0.7,0c0.5,0,0.7,0.2,1,0.5c0.4,0.3,1.1,0.9,2,0.9
						c1.1,0,2-0.7,2.7-1.4c0.5-0.5,0.6-0.5,0.9-0.5c0.9,0,1.9-0.1,3.1-1.3c0.2-0.2,0.8-0.7,1-0.9c0.1,0,0.2,0,0.4,0
						c0.1,0,0.2,0,0.2,0c0,0,0,0,0,0c0.5,0.4,1.3,1.2,2.8,1.2c0.4,0,0.9-0.1,1.4-0.2c0.6-0.1,0.8-0.2,1.1-0.2c1.3,0,2-0.4,3.8-1.9
						c0.7-0.6,0.9-0.6,1.5-0.6c1.2,0,2.5-0.2,4.3-1.5c1.3-0.9,2.5-1.9,2.5-3.4c0-1.4-1.1-2.2-1.9-2.7c-0.4-0.3-0.7-0.5-1.1-0.9
						c-1.2-1.1-1.9-1.4-2.7-1.8c-0.4-0.2-0.8-0.3-1.5-0.9c-1.3-1.1-2.4-1.4-3.4-1.7c-0.9-0.2-1.7-0.5-3.1-1.4
						c-1.7-1.1-2.3-1.4-2.7-1.5c-0.1,0-0.2-0.1-0.5-0.4c-1-0.8-2.1-1.2-3.4-1.2c-1.6,0-2.9,0.7-3.7,1.2c-0.1,0.1-0.4,0.3-0.5,0.4
						c-0.1-0.1-0.2-0.2-0.3-0.4c-1.1-1.6-2.4-1.8-3.1-1.8c-1.8,0-3.3,1.4-4.3,2.4c-0.1-0.1-0.2-0.3-0.3-0.5
						c-0.7-1.6-2.4-2.9-4.2-2.9c-1,0-1.9,0.5-2.4,1.2c-0.1-0.1-0.2-0.1-0.2-0.2c-0.1-1.3-0.9-3.5-4.2-3.5c-0.5,0-1,0-1.6,0.1l-0.4,0
						c-1.8,0.1-2.9,1.1-3.6,1.7c0-0.4-0.1-0.7-0.2-1.2C188,150.7,186.5,149.6,184.6,149.6L184.6,149.6z M180.8,154
						C180.8,154,180.8,154,180.8,154L180.8,154z"/>
				</g>
			</g>
		</g>
		<g>
			<path class="st7" d="M174.7,164.8c-0.3-0.2-0.7-0.4-1.1-0.3c-0.2,0.1-0.3,0.2-0.4,0.4c-0.6,0.7-0.8,1.7-0.6,2.6s0.9,1.6,1.8,1.9
				c0.5,0.1,1.1,0.1,1.6,0c0.6-0.1,1.2-0.3,1.6-0.7c0.3-0.4,0.5-0.8,0.6-1.3c0.2-0.7,0.4-1.4,0.3-2.1c-0.1-0.7-0.7-1.4-1.4-1.3"/>
			<path class="st7" d="M193.2,174.2c-0.6-0.1-1.1-0.1-1.7,0.1c-0.6,0.3-1.1,0.9-1.2,1.6c-0.1,0.7,0.2,1.4,0.8,1.8
				c0.6,0.4,1.4,0.5,2,0.2c0.7-0.3,1.1-1,1.4-1.6c0.2-0.4,0.3-0.7,0.3-1.1c-0.1-0.5-0.5-1-0.9-1.3"/>
			<path class="st7" d="M230.1,166.6c-0.3,0.2-0.7,0.3-1,0.5c-0.3,0.2-0.6,0.4-0.8,0.8c-0.2,0.5,0.1,1.1,0.6,1.3
				c0.5,0.2,1.1,0.1,1.5-0.2c0.4-0.3,0.7-0.8,0.8-1.3c0.1-0.3,0.1-0.7-0.1-1c-0.1-0.1-0.2-0.3-0.4-0.4c-0.3-0.2-0.7-0.4-1.1-0.6"/>
			<g>
				<path class="st7" d="M147.8,180.7c0.5-0.5,0.9-0.9,1.5-1.2s1.3-0.4,1.9-0.2c0.3,0.1,0.5,0.3,0.8,0.5c0.6,0.3,1.3,0.3,1.9,0
					c0.6-0.3,1-0.9,1.1-1.5c0-0.2,0-0.4,0.1-0.6c0.1-0.2,0.2-0.3,0.4-0.5c0.8-0.6,2-0.4,2.9-0.2c1,0.3,2,0.6,3,0.3
					c0.8-0.3,1.4-0.9,2.2-0.9c0.7,0,1.4,0.6,2.1,0.8c0.2,0.1,0.4,0.1,0.5,0c0.1-0.1,0.3-0.2,0.4-0.3c0.2-0.3,0.5-0.6,0.7-0.8
					c0.5-0.5,0.9-1.1,1-1.8c0.1-0.7-0.3-1.5-0.9-1.9s-1.3-0.7-2-0.9c-1.7-0.4-3.7-0.4-5.2,0.6c0.4-0.4,0.8-0.6,1.2-1
					s0.6-0.9,0.5-1.4c-0.1-0.5-0.5-0.8-1-1s-0.9-0.1-1.4-0.1c-0.7,0.1-1.4,0.2-1.9,0.6c-0.5,0.4-0.8,0.9-1.2,1.4
					c-1.3,1.2-3.6,0.7-4.7,2.2c-0.2,0.2-0.3,0.5-0.5,0.7c-0.4,0.3-1,0.2-1.5,0.2c-1.1-0.1-2.2-0.1-3.4,0c-0.4,0.1-0.9,0.1-1.3,0.4
					c-0.4,0.2-0.7,0.6-0.8,1c0,0.3,0,0.5,0.1,0.8c0.6,1.7,2,3.2,2.2,5"/>
			</g>
			<g>
				<path class="st7" d="M155.5,176.6c1.3,0.5,2.2,1.6,2.6,3c0.2,0.8,0.3,1.9,1.1,2.2c0.6,0.3,1.6,0,1.8,0.6c0.1,0.4,0,1,0.4,1.1
					c0.1,0,0.2,0,0.3,0c1.3-0.4,2.5-0.8,3.8-1.1c0.4-0.1,0.8-0.2,1.2-0.1c0.2,0.1,0.4,0.2,0.6,0.4c0.7,0.5,1.4,1.1,2.2,1.6
					c-0.1-0.7-0.3-1.4-0.1-2.1c0.2-0.7,0.7-1.3,1.4-1.4c0.5,0,1.2,0.3,1.6-0.1c0.2-0.2,0.2-0.6,0.2-0.9c0.5,0.2,0.9,0.2,1.4,0.2
					c-0.3-0.5,0-1.2,0.4-1.5s1.1-0.3,1.7-0.3c2.4,0.1,4.7,0.8,7.1,0.6c1.3-0.1,2.5-0.5,3.7-0.9c0.2-0.1,0.4-0.1,0.5-0.3
					c0.2-0.3,0.1-0.7,0-1c-0.6-1.6-1.6-3.4-3.2-3.9c-0.7-0.2-1.5-0.2-2.2-0.1c-1.5,0.2-3,0.7-4.3,1.3c-0.4-0.7-0.9-1.4-1.7-1.6
					c-1.2-0.3-2.4,0.5-3.1,1.5c-0.3,0.5-0.7,1.1-1.3,1.2c-0.3,0-0.5,0-0.8-0.1c-1.7-0.5-3.4-1.6-3.6-3.4c0-0.1,0-0.2-0.1-0.3
					c-0.1-0.2-0.4-0.1-0.6-0.1c-1.2,0.3-2.4,0.7-3.5,1c-1.2,0.3-2.4,0.7-3.5,1.2c-1.6,0.9-2.9,2.2-4.2,3.6"/>
			</g>
			<g>
				<path class="st7" d="M182.3,162.6c0.7-0.2,1.6-0.4,2.2,0c0.9,0.6,1,2.2,2.1,2.5c0.7,0.2,1.4-0.3,2.1-0.2
					c0.3,0.1,0.5,0.2,0.8,0.3c0.5,0.1,1,0,1.5-0.1s1-0.3,1.5-0.2c0.5,0.1,1,0.5,1,1c0,0.3,0,0.7,0.2,0.7c0.1,0,0.1,0,0.2-0.1
					c1.1-0.6,2.1-1.6,3.4-1.6c0.8,0,1.5,0.5,2.3,0.6c0.1,0,0.2,0,0.2,0c0.1-0.1,0.1-0.3,0.1-0.4c-0.2-0.9-0.9-1.6-1.8-2.1
					c-0.8-0.4-1.7-0.7-2.6-0.9c-0.5-0.1-1-0.2-1.3-0.5s-0.6-0.8-0.4-1.3c-0.7-0.1-1.4,0.3-2.1,0.4s-1.6,0-1.9-0.6
					c-0.2-0.4-0.2-0.9-0.5-1.1c-0.1-0.1-0.3-0.1-0.5-0.1c-2.2-0.1-4.4,0.7-5.9,2.2"/>
			</g>
			<g>
				<path class="st7" d="M198.6,172.4c-0.1,0.2-0.1,0.4-0.2,0.6c0.6-0.5,1.3-1,2.1-1.2c0.8-0.2,1.7-0.1,2.2,0.5
					c0.2,0.2,0.4,0.5,0.6,0.7c0.7,0.4,1.4-0.2,2.2-0.4c2-0.6,3.9,1.4,6,1.1c0.2-0.3,0-0.7,0.1-1c0.2-0.5,0.9-0.6,1.4-0.5
					c0.6,0,1.2,0,1.9-0.1c0.5-0.1,1.1-0.3,1.3-0.8c0.1-0.5-0.2-1,0-1.5c0.2-0.4,0.6-0.5,1-0.6c1.9-0.5,3.9-0.7,5.9-0.6
					c0.2,0,0.4,0,0.5-0.2c0.1-0.1,0-0.3-0.1-0.4c-1.1-1.4-2.9-2-4.6-2.8c-1.2-0.6-2.3-1.3-3.5-1.6s-2.7-0.3-3.7,0.6
					c-0.6,0.5-0.9,1.2-1.5,1.7c-0.6,0.5-1.5,0.7-1.9,1.4c-0.3,0.5-0.3,1-0.6,1.4c-0.4,0.5-1,0.6-1.6,0.6c-0.6-0.1-1.2-0.3-1.8-0.4
					c-1.2-0.2-2.5,0.1-3.4,0.9c-1,0.7-1.6,1.9-1.7,3.1"/>
			</g>
		</g>
		<g>
			<path class="st4" d="M157.6,173.9c0.2-0.8,0.7-1.6,1.4-1.9s1.8,0.1,2,0.8c-0.1-0.8,0.5-1.7,1.2-2c0.8-0.3,1.8-0.1,2.3,0.6
				c0.3,0.4,0.5,0.8,1,1c0.3,0.1,0.6,0,0.8-0.1c0.8-0.1,1.5,0.4,2,1c0.5,0.6,0.7,1.3,1.1,2c0.1,0.2,0.2,0.3,0.3,0.4
				c0.2,0.1,0.5,0,0.7-0.1c0.7-0.2,1.6,0.2,1.9,0.9c0.1,0.2,0.1,0.4,0.3,0.6c0.1,0.1,0.3,0.2,0.5,0.3c0.8,0.4,1.2,1.3,1.1,2.1"/>
			<path class="st4" d="M172.5,174.7c0.6-0.8,1.4-1.4,2.4-1.7c0.5-0.2,1.1-0.2,1.6,0.1c0.5,0.3,0.6,1,0.2,1.4c0.2-0.9,1.2-1.4,2-1.7
				c0.8-0.3,1.7-0.6,2.5-0.2c0.3,0.2,0.6,0.4,1,0.5c0.5,0.1,1,0,1.4,0c1.1,0.1,1.9,1.2,2.5,2.2"/>
			<path class="st4" d="M200.1,171c0.5-0.7,1-1.4,1.7-1.8c0.8-0.3,1.9,0,2,0.8c0.7-0.9,1.8-1.6,2.9-1.7c1.2-0.1,2.4,0.3,3.2,1.2
				c0.4,0.4,0.9,1,1.5,0.7"/>
			<path class="st4" d="M183.4,161.9c0.3-1.2,1.4-2.1,2.7-2.2c0.8-0.1,1.7,0.4,1.8,1.2c0.4-0.4,0.8-0.8,1.3-1.1
				c0.5-0.2,1.2-0.2,1.6,0.2c0.2,0.2,0.3,0.4,0.4,0.6c0.8,0.8,2.2,0,3.2,0.4c1,0.3,1.5,1.6,2.5,1.7c0.2,0,0.4,0.2,0.2,0.2"/>
			<path class="st4" d="M208.5,167.7c0.7-2.4,3.2-4.1,5.7-3.7c0.8,0.1,1.7,0.5,2.5,0.2c0.3-0.1,0.6-0.3,1-0.2c0.6,0,1,0.7,1.5,1
				c0.5,0.3,1.1,0.3,1.6,0.4c1.2,0.4,2.3,1.7,3.6,1.3"/>
		</g>
	</g>
	<g>
		<path class="st1" d="M250.1,170.1c-0.3,0-0.6-0.1-0.8-0.4s-0.3-0.5-0.2-0.8l2.8-17.4c0.1-0.5,0.5-0.8,1-0.8h2.8
			c0.3,0,0.6,0.1,0.8,0.3c0.2,0.2,0.3,0.5,0.2,0.8l-2.6,17.4c-0.1,0.5-0.5,0.9-1,0.9H250.1z"/>
		<g>
			<path d="M255.7,151.7l-2.6,17.4h-3l2.8-17.4H255.7 M255.7,149.7h-2.8c-1,0-1.8,0.7-2,1.7l-2.8,17.4c-0.1,0.6,0.1,1.2,0.5,1.6
				c0.4,0.4,0.9,0.7,1.5,0.7h3c1,0,1.8-0.7,2-1.7l2.6-17.4c0.1-0.6-0.1-1.2-0.5-1.6C256.8,150,256.3,149.7,255.7,149.7L255.7,149.7z
				 M255.7,153.7L255.7,153.7L255.7,153.7L255.7,153.7z"/>
		</g>
	</g>
	<g>
		<g>
			<path class="st6" d="M96.4,207.4c-2.4,0-4.5-0.6-6.4-1.8c-3-1.9-4.1-2.8-4.7-4.7c-0.4-1.2-1.7-2-1.7-2c-0.2-0.2-0.4-0.4-0.5-0.7
				c0-0.1-0.2-0.9-1.4-1.1c-2.6-0.6-3.1-2.7-3.5-4.4c-0.4-1.7-0.2-3-0.1-3.9c0.1-0.4,0.1-0.8,0.1-1l0,0c0,0-0.1-0.1-0.2-0.1
				c-1.3-0.5-3.8-1.9-3.8-3.5c0-0.3,0.1-1.2,1.3-1.7c0.9-0.4,1.8-0.4,2.5-0.4c0.2,0,1.1,0,1.1,0c0.3,0,0.4,0,0.5,0
				c0.5-0.9,1.5-1.9,1.6-2.1c0,0,0.1-0.1,0.1-0.1c0.3-0.3,2-1.6,3.4-1.6c0.1,0,0.2,0,0.3,0c0.6,0.1,1.2,0.4,1.9,0.8
				c0.3,0.2,0.9,0.5,1.2,0.6c0.5-0.9,1.7-1.3,3.3-1.3c1,0,2.1,0.2,2.8,0.5c1.5,0.6,3.7,1.3,4.9,1.3c0.4,0,0.5-0.1,0.5-0.1
				c0,0,0,0,0.1,0c-0.1-0.6-0.1-1.2,0.4-2.4c1.1-2.3,4.1-2.5,5-2.5c0.2,0,0.2,0,0.2,0c0,0,0.3,0,0.6,0c1.5,0,2.1-0.3,2.1-0.4
				c0.5-0.8,1.3-1,1.8-1c0.8,0,1.8,0.4,3,1.1c1.2,0.6,2.2,0.9,2.8,0.9c0.3,0,0.3-0.1,0.3-0.1c0.2-0.5,0.8-2.2,2.7-2.2
				c0.5,0,1.1,0.1,1.7,0.3c1.2,0.4,3,0.6,5.4,0.6c0.6,0,1.2,0,1.8,0l0.1,0c1.8,0,3.9,1.1,5.7,2.1c0.9,0.5,1.7,0.9,2.3,1.1
				c1.1,0.4,1.7,0.9,2.2,1.3c0.6,0.5,1.1,0.9,2.5,1.3c2.7,0.8,2.8,2.3,2.6,3.8c0,0.4-0.1,0.7-0.1,1c0,0.6,0,1,0,1.2
				c-0.1,0.5-0.1,0.7,1.2,2.2c1.6,1.8,1.6,3.3,1.4,4.3c-0.4,1.9-2.2,3.4-5.1,4.6c-3.2,1.3-7.1,2.1-12.1,3.2
				c-2.9,0.6-6.2,1.4-9.8,2.3c-4.8,1.2-6.8,1.3-8.5,1.4c-1.6,0.1-2.7,0.1-5.9,1.3C101.4,206.8,98.8,207.4,96.4,207.4z"/>
			<g>
				<path d="M118.9,174.6c0.4,0,0.8,0.1,1.4,0.3c1.5,0.5,3.7,0.7,5.7,0.7c0.6,0,1.2,0,1.8,0c0,0,0.1,0,0.1,0c2.3,0,5.6,2.3,7.7,3.1
					c2.1,0.8,1.9,1.8,4.8,2.7c2.9,0.9,1.7,2.3,1.8,3.9c0.1,1.7-0.8,1.5,1.5,4c2.2,2.5,1.6,5.3-3.4,7.3s-12.3,3-21.8,5.4
					c-9.5,2.4-8,0.3-14.5,2.7c-3.1,1.1-5.6,1.6-7.7,1.6c-2.4,0-4.3-0.6-5.9-1.6c-3-1.9-3.8-2.6-4.3-4.2s-2.1-2.6-2.1-2.6
					s-0.2-1.5-2.1-2c-1.9-0.4-2.3-1.9-2.7-3.6c-0.8-3.4,1-5-0.9-5.7c-1.9-0.7-4.3-2.6-2.5-3.3c0.7-0.3,1.5-0.3,2.2-0.3
					c0.4,0,0.7,0,1.1,0c0.6,0,1.1-0.1,1.3-0.4c0.4-0.8,1.6-2,1.6-2s1.7-1.4,2.8-1.4c0.1,0,0.1,0,0.2,0c0.8,0.1,2.4,1.5,3.4,1.5
					c0.3,0,0.5-0.1,0.6-0.4c0.3-0.7,1.4-1,2.5-1c0.9,0,1.8,0.2,2.4,0.4c1,0.4,3.6,1.3,5.3,1.3c0.4,0,0.8-0.1,1.1-0.2
					c1.2-0.8-0.1-0.8,0.9-2.8c0.8-1.8,3.4-1.9,4.1-1.9c0.1,0,0.2,0,0.2,0s0.3,0,0.7,0c0.9,0,2.5-0.1,3-0.8c0.3-0.4,0.6-0.6,1-0.6
					c0.6,0,1.5,0.4,2.7,1c1.1,0.5,2.3,1,3.2,1c0.6,0,1.1-0.2,1.3-0.7C117.5,175.2,117.9,174.6,118.9,174.6 M118.9,172.6
					c-1.1,0-2.5,0.4-3.3,2.2c-0.4-0.1-1.1-0.3-2-0.7l-0.1,0c-1.4-0.7-2.4-1.2-3.5-1.2c-1,0-1.9,0.4-2.5,1.2
					c-0.2,0.1-0.7,0.2-1.5,0.2c-0.3,0-0.5,0-0.5,0c0,0-0.1,0-0.3,0c-1.1,0-4.6,0.2-5.9,3.1c-0.3,0.8-0.5,1.4-0.6,1.9
					c-1.1-0.1-2.8-0.6-4.1-1.2c-0.9-0.3-2-0.5-3.2-0.5c-1.8,0-2.9,0.5-3.6,1.1c-0.2-0.1-0.3-0.2-0.5-0.3c-0.7-0.4-1.4-0.8-2.2-0.9
					c-0.1,0-0.3,0-0.4,0c-1.6,0-3.4,1.3-4.1,1.9c-0.1,0-0.1,0.1-0.2,0.1c-0.2,0.2-0.9,1-1.5,1.8c-0.1,0-0.3,0-0.4,0
					c-0.2,0-0.4,0-0.6,0c-0.8,0-1.9,0.1-2.9,0.5c-1.2,0.5-1.9,1.5-1.9,2.6c0,2.2,2.8,3.7,4,4.2c0,0.1,0,0.1,0,0.2
					c-0.1,1-0.3,2.4,0.1,4.3c0.4,1.8,1,4.4,4.2,5.1c0.4,0.1,0.6,0.3,0.6,0.4c0,0.6,0.3,1,0.9,1.4c0.3,0.2,1.1,0.8,1.3,1.5
					c0.8,2.2,2.1,3.3,5.1,5.2c2,1.3,4.3,1.9,6.9,1.9c2.5,0,5.2-0.6,8.4-1.7c3-1.1,4-1.2,5.6-1.2c1.7-0.1,3.8-0.2,8.7-1.4
					c3.6-0.9,6.9-1.6,9.8-2.3c5-1.1,9-2,12.2-3.3c3.3-1.3,5.2-3.1,5.7-5.3c0.3-1.2,0.3-3.1-1.6-5.2c-0.7-0.8-0.9-1.2-1-1.3
					c0,0,0-0.1,0-0.1c0-0.3,0.1-0.8,0-1.4c0-0.2,0-0.5,0.1-0.8c0.2-1.2,0.5-3.7-3.3-4.9c-1.2-0.4-1.6-0.7-2.1-1.1
					c-0.5-0.5-1.2-1-2.5-1.5c-0.6-0.2-1.4-0.6-2.2-1.1c-2-1-4.2-2.2-6.2-2.2c-0.1,0-0.1,0-0.2,0c-0.5,0-1.1,0-1.8,0
					c-2.3,0-4-0.2-5-0.6C120.2,172.7,119.5,172.6,118.9,172.6L118.9,172.6z"/>
			</g>
		</g>
		<g>
			<path class="st7" d="M91.2,189.4c-0.5,0-1,0.1-1.2,0.5c-0.1,0.2-0.1,0.4-0.1,0.5c0,0.7,0,1.4,0.5,1.9c0.3,0.3,0.7,0.5,1,0.6
				c0.3,0.1,0.7,0.1,1,0c0.4-0.1,0.7-0.4,0.9-0.7s0.3-0.7,0.4-1.1c0.1-0.5,0.2-0.9,0.1-1.4c-0.1-0.5-0.5-0.9-1-0.9"/>
			<path class="st7" d="M110.1,184.9c-0.3-0.2-0.7-0.4-1.1-0.3c-0.2,0.1-0.3,0.2-0.4,0.4c-0.6,0.7-0.8,1.7-0.6,2.6s0.9,1.6,1.8,1.9
				c0.5,0.1,1.1,0.1,1.6,0c0.6-0.1,1.2-0.3,1.6-0.7c0.3-0.4,0.5-0.8,0.6-1.3c0.2-0.7,0.4-1.4,0.3-2.1c-0.1-0.7-0.7-1.4-1.4-1.3"/>
			<path class="st7" d="M126.1,182.9c0.6-0.4,1.1-0.9,1.8-1.2s1.4-0.5,2.1-0.3c0.7,0.2,1.3,0.7,1.8,1.2c0.4,0.4,0.8,0.8,0.8,1.4
				c0,0.6-0.4,1.1-0.8,1.5c-0.6,0.5-1.3,1-2,1.1c-0.6,0.1-1.2,0-1.8-0.2c-0.8-0.3-1.6-1-1.8-1.9c-0.2-0.9,0.1-1.9,0.9-2.4"/>
			<path class="st7" d="M87.6,188.5c-0.6-0.5-1.4-0.6-2.1-0.3c-0.7,0.3-1.2,1-1.4,1.7c-0.2,0.7-0.1,1.5,0.3,2.2
				c0.2,0.5,0.6,1,1.1,1.2c0.9,0.5,2.1,0.2,3.1-0.2c0.5-0.2,0.9-0.4,1.2-0.8c0.4-0.5,0.3-1.2,0.1-1.8c-0.2-0.5-0.4-1-0.9-1.3"/>
			<path class="st7" d="M120.1,190.3c-0.6-0.1-1.1-0.1-1.7,0.1c-0.6,0.3-1.1,0.9-1.2,1.6c-0.1,0.7,0.2,1.4,0.8,1.8s1.4,0.5,2,0.2
				c0.7-0.3,1.1-1,1.4-1.6c0.2-0.4,0.3-0.7,0.3-1.1c-0.1-0.5-0.5-1-0.9-1.3"/>
			<path class="st7" d="M104.6,190c-0.3,0.2-0.7,0.3-1,0.5c-0.3,0.2-0.6,0.4-0.8,0.8c-0.2,0.5,0.1,1.1,0.6,1.3
				c0.5,0.2,1.1,0.1,1.5-0.2c0.4-0.3,0.7-0.8,0.8-1.3c0.1-0.3,0.1-0.7-0.1-1c-0.1-0.1-0.2-0.3-0.4-0.4c-0.3-0.2-0.7-0.4-1.1-0.6"/>
			<path class="st7" d="M128.6,187.2c-0.4-0.3-0.8-0.5-1.2-0.6c-0.4-0.1-0.9-0.1-1.3,0.1c-0.4,0.2-0.7,0.7-0.8,1.1
				c-0.1,0.4-0.2,0.8-0.1,1.1c0.1,0.6,0.7,1.1,1.3,1.3c0.3,0.1,0.6,0.1,0.9,0c0.3-0.1,0.5-0.5,0.7-0.8c0.2-0.4,0.4-0.9,0.3-1.4
				s-0.3-1-0.8-1.2"/>
			<path class="st7" d="M100.5,183.9c-0.5-0.2-1-0.3-1.5-0.3c-0.5,0-1,0.2-1.3,0.6c-0.2,0.2-0.2,0.5-0.2,0.8c0,1.3,1.1,2.3,2.3,2.6
				c0.5,0.1,1,0.1,1.5-0.1c0.5-0.2,0.9-0.5,1.2-0.9c0.3-0.3,0.5-0.5,0.7-0.9s0.2-0.8,0-1.1c-0.1-0.1-0.3-0.3-0.4-0.4
				c-0.3-0.2-0.6-0.5-1-0.7"/>
		</g>
		<g>
			<path class="st4" d="M89.7,191.3c-0.5-0.5-0.4-1.5,0.1-2s1.3-0.8,2-0.8c1-0.1,2.3,0.2,2.5,1.3"/>
			<path class="st4" d="M102.9,191c-0.3-0.6,0.1-1.4,0.7-1.6c0.6-0.2,1.4,0.1,1.6,0.7"/>
			<path class="st4" d="M109.1,184.6c1-0.9,2.7-0.8,3.7,0.2"/>
			<path class="st4" d="M120.1,186.8c0.5-0.4,1.1-0.6,1.7-0.7c-0.2,0.7,0.4,1.5,1.2,1.5c0.6,0,1.1-0.4,1.6-0.4
				c0.7-0.9,1.9-1.2,3-0.9c1,0.4,1.8,1.4,1.8,2.5c0,0.1,0,0.2,0,0.3c0.2,0.3,0.6,0.2,1,0.1c0.8-0.1,1.5,0.6,1.5,1.4"/>
			<path class="st4" d="M89.3,188.4c-1.2-1.2-3.1-0.9-4.7-0.5c-1,0.3-2.3,0.7-2.5,1.7c-0.1,0.4,0,0.9,0.3,1.2"/>
			<path class="st4" d="M125.1,185.6c0.2-1.4,0.5-3,1.5-4c1.3-1.3,3.5-1.2,5.3-1c0.2,0,0.4,0,0.6,0.2c0.2,0.1,0.3,0.3,0.4,0.5
				c0.3,0.3,0.9,0.2,1.3,0.5c0.5,0.2,0.6,0.8,0.9,1.3c0.2,0.5,0.7,0.9,1.2,0.7"/>
		</g>
	</g>
	<g>
		<path class="st1" d="M88.4,224.4c-14.6,0-29.8-6.8-31.5-7.6c-5.6-2.6-19-6-19.1-6.1c-0.3-0.1-0.6-0.3-0.7-0.7l-1.3-4.2
			c-0.1-0.3,0-0.7,0.2-1c0.2-0.2,0.5-0.3,0.7-0.3c0.1,0,0.1,0,0.2,0c19.6,4.5,40.1,6.4,53.1,6.8c0.3-2.8,1.6-10.1,6.2-10.1
			c1.1,0,1.2-1.1,1.2-1.5c0-0.5,0.4-1,0.9-1c0.2,0,25.2-1.4,48-5.5c22.3-4.1,61.8-14.2,68.6-16.1v-2.8c0-0.4,0.3-0.8,0.7-1l23.7-7.2
			c0.1,0,0.2-0.1,0.5-0.1c0.6,0,1.2,0.3,1.6,1l17.3-7.3c0.1-0.1,0.3-0.1,0.4-0.1c0.3,0,0.6,0.1,0.8,0.4c0.3,0.4,0.3,0.9,0,1.2
			c0,0-1.6,2.1-2.2,4l-0.3,1.1c-0.4,1.5-1,3.6-1,3.9c0,0.8-0.4,1-4.1,2.5c-2.1,0.8-6,2.4-6.5,3c-0.9,1.3-3.8,4.5-3.9,4.6
			c-0.1,0.1-0.2,0.2-0.3,0.2c-0.2,0.1-22.1,11.7-63,24.5c-41.6,12.9-75.6,18.5-88.3,19.1C89.8,224.4,89.1,224.4,88.4,224.4z"/>
		<g>
			<path d="M259.1,160.8L259.1,160.8 M259.1,160.8c0,0-1.8,2.2-2.3,4.4c-0.6,2.2-1.3,4.8-1.3,5.3c0,0.4-9.5,3.7-10.4,5
				c-0.9,1.3-3.8,4.5-3.8,4.5s-21.5,11.6-62.9,24.4c-41.4,12.9-75.2,18.4-88,19c-0.7,0-1.3,0-2,0c-12.3,0-25.7-5-31.1-7.5
				c-5.7-2.6-19.3-6.1-19.3-6.1l-1.3-4.2c21.2,4.8,42.4,6.6,54.2,6.9c0,0,0.7-10.1,5.3-10.1c2.2,0,2.2-2.5,2.2-2.5s25-1.3,48.1-5.6
				c23.1-4.2,65.1-15.1,69.5-16.4v-3.5l23.7-7.2c0,0,0.1,0,0.2,0c0.3,0,0.9,0.2,1,1.3L259.1,160.8 M259.1,158.8L259.1,158.8
				c-0.3,0-0.6,0.1-0.8,0.2l-16.5,7c-0.6-0.5-1.3-0.8-1.9-0.8c-0.3,0-0.6,0.1-0.7,0.1l-23.7,7.2c-0.8,0.3-1.4,1-1.4,1.9v2
				c-8.5,2.3-46.2,12-67.8,15.9c-22.7,4.2-47.6,5.5-47.8,5.5c-1.1,0.1-1.9,0.9-1.9,2c0,0.1-0.1,0.4-0.1,0.5c0,0,0,0-0.1,0
				c-2,0-4.7,1.1-6.3,6.5c-0.4,1.3-0.6,2.6-0.8,3.6c-13-0.4-33-2.4-52-6.8c-0.1,0-0.3,0-0.4,0c-0.6,0-1.1,0.2-1.5,0.6
				c-0.5,0.5-0.7,1.3-0.4,2l1.3,4.2c0.2,0.7,0.7,1.2,1.4,1.3c0.1,0,13.5,3.5,19,6c1.7,0.8,17.1,7.7,31.9,7.7c0.7,0,1.4,0,2.1,0
				c12.8-0.6,46.9-6.1,88.5-19.1c41.1-12.8,63-24.4,63.2-24.6c0.2-0.1,0.4-0.2,0.5-0.4c0.3-0.3,2.9-3.2,3.9-4.6
				c0.8-0.6,4.4-2.1,6.1-2.8c3.7-1.5,4.7-1.9,4.7-3.3c0.1-0.5,0.6-2.4,0.9-3.7l0.3-1.1c0.4-1.4,1.5-3,1.9-3.6
				c0.3-0.3,0.5-0.8,0.5-1.3C261.1,159.7,260.3,158.8,259.1,158.8L259.1,158.8z M259.1,162.8L259.1,162.8L259.1,162.8L259.1,162.8z"
				/>
		</g>
	</g>
	<g>
		<path class="st2" d="M176.7,190.1c-0.1,0-0.2,0-0.3,0l-60-15.6c-0.4-0.1-0.7-0.4-0.7-0.8c-0.1-0.4,0.1-0.8,0.4-1l3.5-2.3
			c0.2-0.1,0.4-0.2,0.5-0.2c0.1,0,0.2,0,0.2,0l58.9,15.1c0.3,0.1,0.6,0.3,0.7,0.7c0.1,0.3,0,0.7-0.2,1l-2.4,2.8
			C177.3,190,177,190.1,176.7,190.1z"/>
		<g>
			<path d="M120.3,171.2l58.9,15.1l-2.4,2.8l-60-15.6L120.3,171.2 M120.3,169.2c-0.4,0-0.8,0.1-1.1,0.3l-3.5,2.3
				c-0.7,0.4-1,1.2-0.9,2c0.1,0.8,0.7,1.4,1.5,1.6l60,15.6c0.2,0,0.3,0.1,0.5,0.1c0.6,0,1.1-0.2,1.5-0.7l2.4-2.8
				c0.5-0.5,0.6-1.2,0.4-1.9s-0.7-1.2-1.4-1.3l-58.9-15.1C120.6,169.2,120.4,169.2,120.3,169.2L120.3,169.2z"/>
		</g>
	</g>
	<g>
		<path class="st1" d="M237.5,159c-0.1,0-0.2,0-0.3-0.1l-34.7-12.7c-0.4-0.2-0.7-0.6-0.7-1s0.4-0.8,0.8-0.9l24.6-3.9
			c0.1,0,0.1,0,0.2,0c0.1,0,0.2,0,0.3,0.1l33.6,12.3c0.4,0.2,0.7,0.6,0.7,1c0,0.4-0.4,0.8-0.8,0.9l-23.5,4.4
			C237.6,159,237.6,159,237.5,159z"/>
		<g>
			<path d="M227.4,141.3l33.6,12.3l-23.5,4.4l-34.7-12.7L227.4,141.3 M227.4,139.3c-0.1,0-0.2,0-0.3,0l-24.6,3.9
				c-0.9,0.1-1.6,0.9-1.7,1.8c-0.1,0.9,0.4,1.8,1.3,2.1l34.7,12.7c0.2,0.1,0.5,0.1,0.7,0.1c0.1,0,0.2,0,0.4,0l23.5-4.4
				c0.9-0.2,1.6-0.9,1.6-1.8s-0.5-1.7-1.3-2l-33.6-12.3C227.9,139.4,227.6,139.3,227.4,139.3L227.4,139.3z"/>
		</g>
	</g>
	<g>
		<g>
			<path class="st6" d="M182.9,201.3c-1.9,0-3.9-1.5-3.9-4.7c0-3.8,2.2-4.9,4.2-5.5c0.4-0.1,0.8-0.2,1.1-0.2c1.1,0,2,0.4,2.8,1.2
				c0.6,0.6,1.2,1.6,1.2,3.3c-0.1,2.8-1.2,4.5-3.5,5.5C184.1,201.2,183.5,201.3,182.9,201.3C182.9,201.3,182.9,201.3,182.9,201.3z
				 M184.4,195.2c0,0-0.1,0-0.1,0c-0.5,0.1-0.7,0.2-0.8,1.4c0,0.2,0,0.4,0.1,0.4c0,0,0,0,0.1,0c0,0,0.1,0,0.1,0
				c0.5-0.2,0.8-0.3,0.8-1.1C184.5,195.4,184.4,195.2,184.4,195.2L184.4,195.2z"/>
		</g>
		<g>
			<path d="M184.3,192c1.5,0,3,1.2,2.9,3.5c-0.1,2.7-1.2,3.9-2.9,4.6c-0.5,0.2-1,0.3-1.5,0.3c-1.6,0-2.9-1.3-2.9-3.7
				c0-3.1,1.7-4,3.5-4.5C183.8,192,184,192,184.3,192 M183.6,198c0.1,0,0.3,0,0.4-0.1c0.9-0.3,1.5-0.8,1.5-2.1
				c0-1.1-0.5-1.7-1.2-1.7c-0.1,0-0.2,0-0.4,0.1c-0.9,0.2-1.4,0.6-1.5,2.3C182.4,197.5,182.9,198,183.6,198 M184.3,190
				c-0.5,0-1,0.1-1.4,0.2c-1.2,0.4-4.9,1.4-4.9,6.4c0,2.7,1.5,5.7,4.9,5.7c0.7,0,1.5-0.2,2.2-0.5c2.7-1.1,4.1-3.2,4.2-6.4
				c0-1.6-0.5-3-1.5-4.1C186.9,190.5,185.7,190,184.3,190L184.3,190z"/>
		</g>
	</g>
	<path class="st3" d="M219.1,174.6"/>
	<g>
		<g>
			<path class="st6" d="M220.3,185c-2.5,0-3.7-2.2-3.7-4.3c0-1.6,0.9-4.2,3-5c0.8-0.3,1.6-0.5,2.2-0.5c1,0,1.9,0.3,2.5,1
				c0.7,0.7,1,1.8,1,3c-0.1,2.3-0.6,5-4.2,5.7C220.8,185,220.6,185,220.3,185z"/>
		</g>
		<g>
			<path d="M221.9,176.2c1.7,0,2.6,1.2,2.5,3c-0.1,2.4-0.7,4.2-3.4,4.8c-0.2,0-0.5,0.1-0.7,0.1c-2.2,0-2.7-2.3-2.7-3.3
				c0-1.1,0.6-3.4,2.4-4.1C220.7,176.3,221.3,176.2,221.9,176.2 M220.9,181.8c0.1,0,0.2,0,0.3,0c0.8-0.2,0.9-0.9,0.9-1.7
				c0.1-0.7-0.3-1.6-0.7-1.6c0,0-0.1,0-0.1,0c-0.4,0.1-1,0.5-1.1,2.4C220.3,181.3,220.3,181.8,220.9,181.8 M221.9,174.2
				c-0.8,0-1.7,0.2-2.6,0.5c-2.8,1.1-3.7,4.2-3.7,6c0.1,2.5,1.6,5.3,4.7,5.3c0.3,0,0.7,0,1-0.1c4.9-0.9,5-5.2,5.1-6.7
				c0-1.5-0.4-2.8-1.3-3.7C224.3,174.6,223.1,174.2,221.9,174.2L221.9,174.2z"/>
		</g>
	</g>
	<g>
		<g>
			<path class="st6" d="M240,175.9c-1.8,0-2.6-1.3-2.6-2.6c0-2.7,1-4.2,3.2-4.7c0.2,0,0.4-0.1,0.6-0.1c1.7,0,2.5,1.6,2.5,3.1l0,0.2
				c0,0.8,0,3.4-2.7,4C240.7,175.9,240.3,175.9,240,175.9L240,175.9z"/>
		</g>
		<g>
			<path d="M241.2,169.5c1.2,0,1.5,1.4,1.5,2.1c0,0.8,0.2,2.7-1.9,3.2c-0.3,0.1-0.5,0.1-0.8,0.1c-1.4,0-1.6-1.2-1.6-1.6
				c0-2.4,0.8-3.4,2.4-3.7C241,169.5,241.1,169.5,241.2,169.5 M240.8,173.2c0,0,0.1,0,0.1,0c0.5-0.1,0.5-2,0-2c0,0,0,0,0,0
				C240.4,171.3,240.1,173.2,240.8,173.2 M241.2,167.5c-0.3,0-0.5,0-0.8,0.1c-2.7,0.6-4,2.5-4,5.7c0,1.8,1.3,3.6,3.6,3.6
				c0.4,0,0.8,0,1.2-0.1c1.6-0.4,3.5-1.5,3.5-5l0-0.1C244.7,169.2,243.3,167.5,241.2,167.5L241.2,167.5z"/>
		</g>
	</g>
	<g>
		<path class="st4" d="M226.9,182.3c4.1-1.4,8.4-2.9,12.7-4.3"/>
		<path class="st4" d="M193.7,193.7c7.2-2.5,14.9-5.1,23-7.9"/>
		<path class="st4" d="M117.1,213.6c18.3-2.2,35.9-6.7,56.5-13.3"/>
		<path class="st4" d="M110.1,214.3c1.2-0.1,2.5-0.2,3.7-0.3"/>
		<path class="st4" d="M62.4,213.2c16.3,1.9,30.5,2.3,43.9,1.4"/>
	</g>
</g>
</svg>
