<?xml version="1.0" encoding="utf-8"?>
<!-- Generator: Adobe Illustrator 24.0.3, SVG Export Plug-In . SVG Version: 6.00 Build 0)  -->
<svg version="1.1" id="Layer_1" xmlns="http://www.w3.org/2000/svg" xmlns:xlink="http://www.w3.org/1999/xlink" x="0px" y="0px"
	 viewBox="0 0 360 360" style="enable-background:new 0 0 360 360;" xml:space="preserve">
<style type="text/css">
	.st0{fill:#0C81C3;}
	.st1{fill:#010101;}
	.st2{fill:#8683BF;}
	.st3{fill:#08AD84;}
	.st4{fill:none;stroke:#010101;stroke-width:2;stroke-linecap:round;stroke-linejoin:round;}
	.st5{fill:#EDA520;stroke:#010101;stroke-width:2;stroke-linecap:round;stroke-linejoin:round;}
</style>
<title>Q_10</title>
<g id="Layer_2_1_">
	<g id="Landmark">
		<path class="st0" d="M177.6,108.6c-0.9,0-1.8-0.3-2.5-0.9c-0.5-0.6-0.8-1.3-0.8-2.1c0-0.3-0.1-1.4,0.1-6.9
			c0.1-3.5,0.1-7.8,0.1-11.9c0.1-15.8,0.3-17.6,2-17.6c1.3,0,2.1,0,4.6,34.7c0.1,0.8,0.1,1.4,0.1,1.7c0.1,0.7-0.2,1.4-0.7,1.9
			C179.8,108.2,178.7,108.6,177.6,108.6z"/>
		<path class="st1" d="M176.5,70.2c1.3,0,3.5,32.9,3.7,35.4c0.1,1.2-1.3,2-2.6,2c-1.1,0.2-2.1-0.6-2.3-1.7c0-0.1,0-0.2,0-0.4v0.1
			c0.1-0.3,0.1-0.6,0.1-0.8l0,0c-0.1,0.2-0.1,0.5-0.1,0.7c-0.1-0.3-0.1-1.9,0.1-6.8C175.8,87.9,175.2,70.2,176.5,70.2 M176.5,68.2
			c-2.5,0-2.7,3.1-2.8,7c-0.1,3.1-0.1,7.2-0.1,11.6c0,4.1,0,8.4-0.1,11.9c-0.2,5.3-0.1,6.6-0.1,7c0,1,0.4,2,1.1,2.7
			c0.9,0.8,2,1.3,3.2,1.2c1.4,0,2.7-0.5,3.7-1.5c0.7-0.7,1.1-1.7,1-2.7c0-0.3-0.1-0.8-0.1-1.7c-0.3-3.6-0.9-12.1-1.6-19.6
			c-0.4-4.2-0.8-7.6-1.1-10C179,70.6,178.7,68.2,176.5,68.2L176.5,68.2z"/>
		<path class="st2" d="M157.3,290.8c-0.3,0-0.5-0.1-0.7-0.3c-0.2-0.2-0.3-0.4-0.3-0.7v-10.2c0-0.5,0.4-1,0.9-1l68.2-4.8
			c0.6,0,1,0.4,1,1v14c0,0.6-0.4,1-1,1L157.3,290.8z"/>
		<path class="st1" d="M225.5,274.9v14l-68.2,0.9v-10.1L225.5,274.9 M225.5,272.9h-0.1l-68.2,4.8c-1,0.1-1.9,0.9-1.9,2v10.1
			c0,0.5,0.2,1,0.6,1.4c0.4,0.4,0.9,0.6,1.4,0.6l0,0l68.2-0.9c1.1,0,2-0.9,2-2v-14C227.5,273.8,226.6,272.9,225.5,272.9L225.5,272.9
			z"/>
		<path class="st2" d="M160.2,279.1H160l-16.4-3.6c-0.5-0.1-0.8-0.5-0.8-1v-9.2c-2.3-0.3-8-1.2-10.5-4.2c-1-1.1-1.4-2.6-1.2-4
			c0.3-3.1,0.6-4.3,1.7-4.3c1.1,0,1.4,1.1,1.6,3.9c0.1,0.8,1.6,1.6,3.1,1.6c0.3,0,0.6,0,0.8-0.1c1.8-0.5,5.8-1.9,5.8-1.9
			c0.1,0,0.2-0.1,0.3-0.1l10-0.2l-0.2-5.7c-3-0.2-11.9-1.2-13.8-6.7c-1.3-3.7-1.1-4.4-0.8-4.8c0.2-0.3,0.6-0.5,0.9-0.5
			c0.3,0,1.1,0,2.2,2.1c0.9,1.8,2.7,2.9,4.7,3c0.2,0,0.5,0,0.7-0.1c2-0.3,4-0.9,5.8-1.8v-5.8c-1.9-0.3-6.4-1.2-7.9-1.7
			c-1.1-0.3-4.7-1.8-4.6-7.3c0-1.2,0-2.6,1.2-2.6c0.9,0,1.2,0.8,1.7,2.3c0.2,0.6,0.4,1.2,0.7,1.8c0.1,0.2,0.9,0.5,2.6,0.5
			c1.1,0,2.1-0.2,3.1-0.5c1.3-0.5,2.6-1.2,3.4-1.6v-3.7c-1.6-0.6-5.8-2.2-7.7-3.2c-2.1-1.1-4.5-3.5-4.2-8.2c0.1-1.2,0.1-2.1,1.2-2.1
			c0.9,0,1,0.8,1.2,1.5c0.2,0.9,0.7,3.3,1.7,3.7c0.7,0.3,1.5,0.4,2.3,0.4c1.8,0.1,3.6-0.5,5.1-1.6l1.2-1v-3.7
			c-1.6-0.4-5.3-1.5-7-1.9c-2.6-0.7-5.8-4.2-5.9-7.4c0-0.7,0-1.2,0.3-1.6c0.2-0.2,0.5-0.3,0.7-0.3c0.7,0,1,0.5,1.2,1
			c0.4,0.8,1.2,2.6,2.9,2.8c0.2,0,0.4,0,0.7,0c2.5,0,5.7-1.8,6.9-2.5v-3.3c-1.7-0.5-6.2-2-7.4-2.3c-2.2-0.6-4.1-5-4.1-8
			c0-0.4,0-1.6,1.1-1.6c0.7,0,1,0.5,1.3,1.2c0.5,1.1,1.5,3.4,3.3,3.4h0.2c3-0.3,5.5-2.7,6.3-3.5v-2.1l-5.3-2c-1.1,0-4.5-0.3-5.5-2.9
			c-0.7-1.8-1.4-5.8-0.3-6.7c0.2-0.2,0.4-0.3,0.7-0.3c0.7,0,1,0.6,1.5,1.4c0.5,0.9,1.5,2.7,2.5,2.7c1.2,0.1,2.3-0.2,3.3-0.9l0.5-0.3
			c1.3-0.9,2.5-1.8,3.7-2.9v-0.8c-1.7-0.5-5.9-1.9-7.1-2.2c-2-0.5-5-3.9-5-7.3c0-0.8,0-1.9,1.1-1.9c0.8,0,1,0.6,1.2,1.2
			s0.8,2.1,1.5,2.3c0.7,0.2,1.3,0.3,2,0.3c0.6,0,1.2-0.2,1.7-0.5c0.6-0.4,2.8-2.5,4.4-3.9l-5.3-2.5c-0.8-0.2-6.4-2.2-6.6-6.2
			c-0.1-2.3,0.2-3,0.6-3.4c0.2-0.2,0.6-0.4,0.9-0.4c1,0,1.6,1.2,2,2.3c0.5,1.2,1.7,1.9,2.9,1.8c0.7,0,1.3-0.2,1.8-0.6
			c1.6-1.2,3.1-2.6,4.5-4c-1.8-0.5-5.7-1.7-7-2.2c-2.2-0.8-4.6-4.6-4.2-7.9c0.1-0.5,0.2-1.7,1.3-1.7c0.8,0,1.1,0.8,1.6,1.9
			c0.3,0.8,0.7,1.6,1.2,2.3c0.4,0.1,0.9,0.2,1.4,0.2c0.6,0,1.2-0.2,1.6-0.6c0.6-0.7,2.3-2.6,3.4-3.8c-1.7-0.7-4.5-1.7-5.5-2
			c-2.2-0.6-4.5-5.1-4-7.7c0.2-1.1,0.8-1.4,1.3-1.4c0.8,0,1.2,0.7,1.7,1.8c0.2,0.5,1,2.2,1.5,2.2h0.6c0.7,0.1,1.4-0.2,1.9-0.7
			c0.3-0.5,2.5-3.2,3.6-4.8c-0.3-0.1-0.6-0.2-1-0.3c-3.3-1.1-7.4-2.5-7.8-8.3c0-0.6,0.4-1,0.9-1.1c0,0,0,0,0.1,0
			c0.3,0,0.6,0.1,0.8,0.3c0.7,0.8,2.8,2.9,4.4,2.9c0.5,0,1-0.3,1.3-0.7c0.9-1.2,2.2-2.8,3.6-4.4c2-2.4,4-4.8,5.7-7.4
			c0.3-0.6,0.1-3.6-0.1-5.6c-0.3-4.5-0.3-6.3,0.4-7.1c0.2-0.3,0.6-0.4,0.9-0.4h0.1c1.1,0.1,1.4,1.3,2,3.3c0.9,3.1,2.2,7.8,6.3,9.2
			c7,2.4,22.9,7.3,25,7.8c0.2,0,0.3,0,0.5,0c2.1,0,5-1.8,5.1-2.8c0-0.5,0.4-0.9,0.9-0.9h0.1c0.5,0,0.9,0.3,1,0.8
			c0,0.2,1,4.5-4.5,8.5c-2.2,1.5-4.2,3.2-6.2,5c1.9,1,3.9,1.6,6.1,1.8c0.4,0,0.9-0.1,1.2-0.2c2.5-1.1,3.3-4.5,3.3-4.6
			c0.1-0.4,0.4-0.7,0.7-0.8c0.1,0,0.2,0,0.3,0c0.3,0,0.6,0.1,0.8,0.3c0,0,3,3.6-1.5,8.2c-2.7,2.6-5.5,5.1-8.5,7.4
			c1.8,0.8,3.8,1.3,5.8,1.5c0.3,0,0.7,0,0.9-0.2c2.2-1.7,3.2-2.5,2.8-3.7c-0.2-0.4,0-0.9,0.3-1.2c0.2-0.1,0.4-0.2,0.6-0.2
			c0.2,0,0.5,0.1,0.6,0.2c0.9,0.8,1.4,2,1.4,3.3c-0.1,2.1-1.6,4.4-4.7,6.6c-4.1,3-6.2,4.7-7.3,5.6c1.5,0.9,3.2,1.5,5,1.7h0.2
			c1.5,0,2.9-0.5,4-1.5c0.6-0.6,0.9-1.4,0.8-2.3c0-0.5,0.3-0.9,0.8-1c0.1,0,0.2,0,0.2,0c0.4,0,0.7,0.2,0.9,0.6c0,0,2.5,5.1-3.7,9.3
			c-4.2,2.9-6.9,4.8-7.8,5.5v0.5c2,0.9,4.1,1.5,6.2,1.6c0.3,0,0.5,0,0.8-0.1c2.1-0.5,3.8-2.1,4.3-4.2c0.1-0.5,0.5-0.8,1-0.8l0,0
			c0.5,0,0.9,0.3,1,0.8c0.1,0.2,1.4,5.7-5.7,9.9c-4.2,2.5-6,3.5-6.8,3.9v1.3c1.4,0.8,4.1,2.1,5.8,2.1c0.1,0,0.3,0,0.4,0
			c2.4-0.3,4.2-2.2,4.5-4.5c0.1-0.4,0.4-0.7,0.8-0.8h0.2c0.4,0,0.7,0.2,0.9,0.5c0.8,1.4,1,3.1,0.6,4.6c-0.5,2-2,3.8-4.5,5.2
			c-4.4,2.6-6.7,3.7-7.6,4.2v2.3c1.8,1.2,3.9,1.9,6,2c2.7,0,4.1-1.2,4.6-3.8c0.1-0.5,0.5-0.8,1-0.8h0.1c0.5,0,0.9,0.5,0.9,1
			c0,0.3,0.3,7.3-5.9,9.8c-3.6,1.4-5.3,2.2-6.1,2.5v3.3c1.9,1.1,4,1.7,6.2,1.9c0.9,0,1.8-0.2,2.6-0.6c1.6-0.9,1.7-1.3,1.8-2.2v-0.3
			c0.2-1.2,0.9-1.6,1.5-1.6c0.4,0,0.7,0.1,1,0.4c0.4,0.5,0.6,1.1,0.5,1.7c-0.2,4.1-2.5,7-7,8.7c-2.1,0.7-4.2,1.6-6.2,2.7v2.7
			c1,1,3.3,2.8,5.1,2.9c0.4,0,0.7,0.1,1.1,0.1c1.8,0,3.1-0.5,3.8-3c0.3-1.2,0.9-2.8,2.1-2.8c0.4,0,0.8,0.2,1,0.5
			c0.8,1,0.4,3.1,0.2,3.9c-0.9,3.6-4.4,5.4-7.4,7.1l-0.4,0.2c-1.6,0.8-3.2,1.6-4.9,2.2v3.7c2,1.2,4.3,1.8,6.7,1.9
			c0.8,0,1.6-0.1,2.4-0.2c1.2-0.2,1.4-0.8,1.8-2.2c0.1-0.2,0.1-0.5,0.2-0.7c0.4-1.3,1.1-1.5,1.6-1.5c0.4,0,0.8,0.2,1,0.5
			c0.6,0.9,0.2,2.8-0.3,4.3c-1.4,3.9-2.6,4.5-5.6,5.8c-2.3,1-5.5,2.4-6.8,3l0.1,3.7c2,1.4,4.3,2.2,6.8,2.4h0.2
			c3.4-0.1,4-1.8,4.1-3.5c0.1-1.3,0.8-2.2,1.7-2.2c0.4,0,0.8,0.2,1,0.5c0.5,0.6,0.6,1.6,0.4,3.1c-0.6,3.5-2.3,5-5.4,6.8
			c-2.4,1.4-6.6,3.4-8.1,4.1v4.7h9.3c0.2,0,0.4,0.1,0.6,0.2c1.7,1.1,3.6,1.7,5.6,1.7h0.5c3.5-0.2,4.9-3,5.5-5.2
			c0.4-1.6,1.3-1.8,1.7-1.8c0.6,0,1.2,0.4,1.4,1c0.7,1.3,0.6,4-1.3,6.8c-2.8,4.1-7.8,6.7-14.2,7.3v8.2c0,0.5-0.4,0.9-0.9,1
			l-52.3,5.1L160.2,279.1z"/>
		<path class="st1" d="M166.5,89.6L166.5,89.6c1.4,0.2,1.3,10.1,8.1,12.4c6.8,2.3,22.9,7.3,25.2,7.8c0.2,0,0.4,0.1,0.7,0.1
			c2.3,0,5.9-1.9,6.1-3.7c0,0,0.9,3.8-4.1,7.4c-2.6,1.8-5.1,3.8-7.3,6c0,0,4.5,2.5,7.8,2.5c0.6,0,1.1-0.1,1.6-0.3
			c3.1-1.3,3.9-5.3,3.9-5.3s2.5,2.8-1.4,6.8c-3.1,3-6.3,5.8-9.8,8.3c0,0,4.9,2.3,7.7,2.3c0.5,0,1.1-0.1,1.5-0.4
			c2.1-1.4,3.9-2.8,3.1-4.7c0,0,3.8,3.1-3.3,8.3s-8.5,6.6-8.5,6.6s4,2.5,6.7,2.5h0.2c2.7,0,6-1.5,5.8-4.8c0,0,2.1,4.3-3.4,8
			c-5.5,3.7-8.2,5.8-8.2,5.8v1.7c0,0,4.2,2,7.2,2c0.3,0,0.7,0,1-0.1c2.5-0.6,4.5-2.5,5.1-5c0,0,1.3,5-5.2,8.8s-7.3,4.2-7.3,4.2v2.5
			c0,0,4.2,2.6,6.8,2.6c0.2,0,0.4,0,0.6,0c2.8-0.4,4.9-2.6,5.3-5.3c0,0,2.8,4.7-3.6,8.5c-2.6,1.6-5.3,3.1-8.1,4.4v3.4
			c2,1.5,4.5,2.4,7,2.4c4,0,5.2-2.4,5.6-4.6c0,0,0.3,6.6-5.3,8.8c-5.6,2.2-6.7,2.9-6.7,2.9v4.6c3.1,1.6,5.4,2.3,7.2,2.3
			c1.1,0,2.1-0.3,3.1-0.8c2.2-1.2,2.2-2,2.3-3.2c0.1-0.5,0.3-0.8,0.5-0.8c0.2,0,0.5,0.4,0.5,1.1c0,1.3-0.3,5.5-6.3,7.8
			s-6.9,3.1-6.9,3.1v3.7c0,0,3.2,3.2,6,3.5c0.4,0,0.8,0.1,1.2,0.1c2.2,0,3.9-0.7,4.7-3.7c0.4-1.4,0.8-2.1,1.2-2.1s0.7,1.2,0.2,3.2
			c-0.8,3.3-4.3,5-7.3,6.6c-1.8,0.9-3.6,1.7-5.5,2.4v5c2.3,1.4,5,2.2,7.7,2.3c0.9,0,1.7-0.1,2.6-0.3c2.2-0.4,2.3-2,2.8-3.6
			c0.2-0.6,0.4-0.8,0.6-0.8c0.4,0,0.5,1.1-0.3,3.5c-1.2,3.5-2.2,3.9-5.1,5.2s-7.4,3.3-7.4,3.3l0.1,4.8c0,0,3.7,2.8,7.7,2.8h0.3
			c4.2-0.1,4.9-2.6,5.1-4.4c0.1-0.8,0.4-1.3,0.7-1.3c0.3,0,0.7,0.7,0.4,2.4c-0.5,3.1-2,4.4-4.9,6.1c-2.9,1.7-8.6,4.3-8.6,4.3v6.3
			h10.3c1.8,1.2,4,1.9,6.1,1.9h0.6c3.8-0.2,5.6-3,6.4-6c0.2-0.8,0.5-1.1,0.8-1.1c0.8,0,1.5,2.8-0.8,6.1c-3.1,4.4-8.5,6.5-14.4,7v9.2
			l-52.3,5.3l-16.4-3.6v-10.1c0,0-12.4-0.9-11.7-7.1c0.3-2.6,0.5-3.4,0.7-3.4c0.2,0,0.5,1.9,0.6,3c0.1,1.6,2.4,2.5,4.1,2.5
			c0.4,0,0.7,0,1.1-0.1c1.8-0.5,5.9-1.9,5.9-1.9l11-0.2l-0.2-7.7c0,0-11.8-0.2-13.8-6c-1-3-1.1-4-0.8-4s0.9,0.8,1.3,1.6
			c1,2.1,3.2,3.5,5.6,3.6c0.3,0,0.6,0,0.9-0.1c2.3-0.4,4.6-1.1,6.6-2.2v-7.2c0,0-6.8-1.3-8.6-1.8c-1.8-0.5-4-2.2-3.9-6.3
			c0-1.2,0.1-1.6,0.2-1.6c0.3,0,1,2.7,1.5,3.6c0.4,0.7,1.9,1,3.4,1c1.2,0,2.4-0.2,3.5-0.6c1.9-0.8,4-1.9,4-1.9v-5.1
			c0,0-6-2.2-8.2-3.4c-2.2-1.2-3.9-3.4-3.6-7.3c0.1-0.8,0.1-1.2,0.2-1.2s0.6,4.4,2.6,5.1c0.8,0.3,1.7,0.4,2.6,0.4
			c2.1,0.1,4.1-0.6,5.8-1.9l1.5-1.2v-4.9c0,0-5.6-1.5-7.7-2.1c-2.2-0.6-5.1-3.6-5.1-6.5c0-0.6,0-0.8,0.1-0.8c0.2,0,1.1,3.4,3.9,3.9
			c0.3,0,0.6,0.1,0.8,0.1c3.4,0,7.9-2.9,7.9-2.9v-4.5c0,0-6.6-2.1-8.1-2.6c-1.5-0.4-3.4-4.3-3.4-7c0-0.4,0-0.6,0.1-0.6
			c0.3,0,1.4,4.6,4.6,4.6c0.1,0,0.2,0,0.3,0c4-0.4,7.2-4,7.2-4v-3.2l-6.1-2.4l0,0c-0.3,0-3.9,0-4.8-2.2c-0.9-2.2-1-5.2-0.6-5.6h0
			c0.4,0,1.6,4.1,4,4.1h0c1.5,0,3-0.4,4.2-1.3c1.5-1,2.9-2.1,4.1-3.3v-2c0,0-6.3-2-7.8-2.4c-1.6-0.4-4.3-3.5-4.2-6.4
			c0-0.6,0-0.9,0.1-0.9c0.2,0,0.8,3.1,2.5,3.5c0.7,0.2,1.5,0.3,2.2,0.3c0.8,0,1.6-0.2,2.3-0.6c0.9-0.7,5.6-5,5.6-5l-6.7-3.2
			c0,0-5.8-1.8-6-5.3c-0.1-1.9,0.1-2.7,0.5-2.7c0.3,0,0.7,0.6,1,1.6c0.9,2.1,3.4,3.1,5.5,2.2c0.3-0.1,0.6-0.3,0.8-0.5
			c1.8-1.4,3.4-2.9,5-4.5v-1c0,0-6.2-1.8-7.8-2.4c-1.7-0.6-3.9-3.9-3.5-6.9c0.1-0.6,0.2-0.8,0.3-0.8c0.4,0,1.2,3.8,2.5,4.1
			c0.5,0.2,1.1,0.2,1.7,0.2c0.9,0,1.7-0.3,2.3-0.9c1-1,4.4-5,4.4-5s-5.3-2.1-6.9-2.6c-1.6-0.4-3.8-4.3-3.3-6.5
			c0.1-0.4,0.2-0.6,0.3-0.6c0.5,0,1.4,3.8,3,4h0.7c1,0.1,2-0.3,2.7-1.1c0.4-0.6,4.4-5.8,4.4-5.8c-3.4-1.6-8.9-2-9.3-8.4
			c0,0,2.7,3.2,5.2,3.2c0.8,0,1.6-0.4,2.1-1.1c2.6-3.4,8.6-10.3,9.4-12C166.9,100.5,165.1,89.6,166.5,89.6 M166.4,87.6
			c-0.6,0-1.2,0.3-1.6,0.7c-1,1.1-1,2.8-0.7,7.8c0.2,1.7,0.2,3.5,0.1,5.2c-0.6,1-3.6,4.7-5.6,7.2c-1.4,1.7-2.7,3.3-3.6,4.4
			c-0.2,0.3-0.4,0.3-0.5,0.3c-1,0-2.8-1.5-3.7-2.5c-0.4-0.4-0.9-0.7-1.5-0.7c-1.1,0-2,0.9-2,2c0,0,0,0.1,0,0.1
			c0.4,6.2,4.9,8,8.1,9.2l-2.8,3.7c0,0-0.3,0.2-1.1,0.2h-0.2c-0.4-0.5-0.7-1.1-0.9-1.7c-0.5-1.1-1.1-2.3-2.6-2.3
			c-1.2,0-2.2,1-2.2,2.2c-0.6,3.2,2,8.1,4.7,8.9c0.7,0.2,2.5,0.8,4.1,1.5c-0.9,1.1-2,2.3-2.4,2.7c-0.2,0.2-0.6,0.3-0.9,0.3
			c-0.3,0-0.5,0-0.8-0.1c-0.3-0.6-0.6-1.2-0.8-1.8c-0.5-1.2-1-2.5-2.5-2.5c-0.9,0-2,0.4-2.2,2.6c-0.4,3.1,1.7,7.8,4.8,9
			c1,0.4,3.5,1.1,5.5,1.7c-1,1-2,1.9-3.1,2.7c-0.4,0.3-0.8,0.4-1.2,0.4c-0.8,0-1.6-0.4-2-1.2c-0.3-0.9-1-3-2.9-3
			c-0.6,0-1.2,0.3-1.6,0.7c-0.7,0.7-0.9,1.9-0.8,4.1c0.2,4.6,6,6.7,7.2,7.1l3.9,1.9c-1.4,1.3-2.8,2.6-3.2,2.9
			c-0.3,0.2-0.7,0.3-1.1,0.2c-0.6,0-1.1-0.1-1.7-0.2c-0.4-0.5-0.7-1.1-0.9-1.7c-0.2-1-1.1-1.8-2.1-1.8c-1.4,0-2.1,1-2.1,2.9
			c-0.1,3.7,3.1,7.6,5.7,8.3c0.9,0.2,3.9,1.2,6,1.9c-0.9,0.8-1.8,1.5-2.9,2.2l-0.5,0.3c-0.8,0.6-1.8,0.8-2.8,0.7
			c-0.2,0-0.7-0.4-1.6-2.1c-0.5-0.9-1.1-1.9-2.4-1.9c-0.5,0-1,0.2-1.4,0.5c-1.9,1.6-0.4,6.9,0,7.8c1.2,3,4.9,3.4,6.2,3.5l4.5,1.8v1
			c-0.9,0.9-3.1,2.6-5.4,2.9h-0.1c-1.1,0-2-2-2.4-2.8s-0.8-1.8-2.2-1.8c-0.5,0-2.1,0.2-2.1,2.6c0,3,1.9,8.1,4.8,8.9
			c1.1,0.3,4.7,1.5,6.7,2.1v2c-1.5,0.9-4.1,2-5.9,2c-0.2,0-0.3,0-0.5,0c-1.1-0.2-1.8-1.6-2.1-2.3c-0.3-0.9-1.1-1.5-2-1.6
			c-0.5,0-1.1,0.2-1.4,0.6c-0.5,0.6-0.8,1.5-0.6,2.3c0.1,3.8,3.6,7.6,6.7,8.4c1.4,0.4,4.4,1.2,6.2,1.7v2.5l-0.7,0.6l-0.1,0.1
			c-1.3,0.9-2.8,1.4-4.4,1.4c-0.7,0-1.3-0.1-1.9-0.3c-0.2-0.1-0.6-0.7-1.1-3c-0.2-0.7-0.5-2.2-2.2-2.2c-1.9,0-2.1,1.9-2.2,3
			c-0.3,4.1,1.4,7.4,4.7,9.2c2.3,1.1,4.7,2.1,7.1,3v2.4c-0.7,0.4-1.8,0.9-2.7,1.3c-0.9,0.3-1.8,0.4-2.7,0.4c-0.6,0-1.2-0.1-1.8-0.2
			c-0.1-0.4-0.4-1-0.5-1.4c-0.6-1.6-1-3-2.6-3c-2.2,0-2.2,2.4-2.2,3.6c-0.1,6.2,4.1,7.9,5.4,8.3s5,1.1,7.1,1.5v4.3
			c-1.5,0.7-3.2,1.2-4.9,1.5c-0.2,0-0.4,0-0.6,0c-1.6-0.1-3.1-1-3.8-2.5c-1.2-2.4-2.3-2.7-3.1-2.7c-0.7,0-1.3,0.3-1.7,0.9
			c-0.7,1-0.6,2.3,0.6,5.8c1.1,3.1,4.1,5.3,9.1,6.5c1.5,0.4,3.1,0.6,4.7,0.8l0.1,3.8l-9,0.1c-0.2,0-0.4,0-0.6,0.1c0,0-4,1.4-5.7,1.9
			c-0.2,0-0.4,0.1-0.6,0.1c-0.8,0-1.6-0.2-2.1-0.7c-0.2-2.5-0.4-4.8-2.6-4.8c-2.2,0-2.5,2.5-2.8,5.3c-0.2,1.7,0.3,3.4,1.5,4.7
			c2.5,2.9,7.5,4.1,10.3,4.5v8.3c0,1,0.6,1.8,1.6,2l16.4,3.6c0.1,0,0.3,0,0.4,0h0.2l52.3-5.3c1-0.1,1.8-1,1.8-2v-7.4
			c6.2-0.9,11.2-3.5,14-7.7c2.1-3.1,2.2-6.2,1.4-7.8c-0.4-0.9-1.3-1.5-2.3-1.5c-0.5,0-2.1,0.2-2.7,2.6c-0.7,2.8-2.2,4.3-4.6,4.5
			h-0.4c-1.8,0-3.5-0.6-5-1.5c-0.3-0.2-0.7-0.4-1.2-0.4h-8.3v-3.1c1.8-0.9,5.4-2.6,7.6-3.9c3.4-1.9,5.3-3.6,5.9-7.5
			c0.3-1.8,0.1-3.1-0.6-3.9c-0.4-0.5-1.1-0.8-1.8-0.8c-1.2,0-2.5,1-2.7,3.2c-0.1,1.3-0.4,2.5-3.2,2.6h-0.2c-2.1-0.1-4-0.8-5.8-1.9
			l-0.1-2.5c1.6-0.7,4.3-1.9,6.2-2.7c3.3-1.4,4.7-2.2,6.2-6.4c1.3-3.6,0.5-4.8,0.2-5.2c-0.4-0.6-1.1-1-1.8-1c-0.5,0-1.9,0.2-2.5,2.2
			c-0.1,0.3-0.2,0.5-0.2,0.8c-0.4,1.4-0.5,1.4-1,1.5c-0.7,0.2-1.4,0.2-2.2,0.2c-2-0.1-3.9-0.6-5.7-1.5v-2.4c1.5-0.6,3-1.2,4.4-2
			l0.4-0.2c3.1-1.6,6.9-3.7,7.9-7.7c0.4-1.5,0.6-3.6-0.3-4.8c-0.4-0.6-1.1-0.9-1.8-0.9c-2.1,0-2.8,2.6-3.1,3.6
			c-0.5,1.9-1.3,2.2-2.8,2.2c-0.3,0-0.6,0-1,0c-1.2-0.1-2.9-1.3-4.1-2.4v-1.6c1.8-0.9,3.7-1.6,5.6-2.3c3.4-1.2,7.4-3.9,7.7-9.6
			c0.1-0.9-0.2-1.8-0.8-2.5c-0.4-0.5-1-0.7-1.7-0.7c-1.3,0.1-2.4,1.1-2.5,2.5v0.3c-0.1,0.7-0.1,0.9-1.3,1.5
			c-0.6,0.4-1.4,0.5-2.1,0.5c-1.8-0.1-3.6-0.6-5.1-1.5v-2.1c0.9-0.4,2.6-1.1,5.5-2.2c6.7-2.7,6.4-10.4,6.4-10.7c0-1-0.9-1.8-1.9-1.9
			h-0.1c-1,0-1.8,0.7-2,1.6c-0.4,2.1-1.4,2.9-3.6,2.9c-1.8-0.1-3.5-0.6-5-1.5v-1.1c1.2-0.6,3.4-1.8,7.1-4c2.7-1.6,4.4-3.5,5-5.9
			c0.5-1.8,0.2-3.7-0.7-5.4c-0.4-0.6-1-1-1.7-1c-0.1,0-0.2,0-0.4,0c-0.8,0.2-1.5,0.8-1.6,1.6c-0.3,1.9-1.8,3.5-3.7,3.7h-0.2
			c-1.7-0.3-3.3-0.8-4.8-1.7V168c1.2-0.6,3.2-1.8,6.4-3.7c7.7-4.5,6.2-10.8,6.2-11c-0.3-0.8-1.1-1.4-1.9-1.4l0,0
			c-0.9,0-1.8,0.6-2,1.5c-0.4,1.7-1.8,3.1-3.5,3.5c-0.2,0-0.4,0-0.6,0c-1.6-0.1-3.2-0.5-4.6-1.1c1.3-1,3.6-2.6,6.8-4.8
			c5.5-3.7,5-8.6,4-10.6c-0.3-0.7-1-1.1-1.8-1.1c-0.2,0-0.3,0-0.5,0.1c-0.9,0.2-1.5,1.1-1.5,2c0,0.6-0.2,1.1-0.6,1.5
			c-0.9,0.8-2.1,1.2-3.3,1.2h-0.2c-1.1-0.2-2.2-0.5-3.2-1c1.2-1,3.2-2.5,6.1-4.6c3.3-2.4,5-4.9,5.1-7.4c0.1-1.5-0.6-3-1.7-4.1
			c-0.8-0.7-2.1-0.6-2.8,0.2c-0.5,0.6-0.6,1.3-0.3,2c0.2,0.5-1,1.3-2.4,2.3c-0.1,0-0.3,0-0.4,0c-1.3-0.1-2.5-0.4-3.7-0.8
			c2.5-2,4.9-4.1,7.2-6.4c4.1-4.2,2.8-8.1,1.5-9.5c-0.4-0.4-0.9-0.7-1.5-0.7c-0.2,0-0.3,0-0.5,0.1c-0.8,0.2-1.3,0.9-1.4,1.7
			c-0.2,0.8-1,3.1-2.7,3.8c-0.3,0.1-0.6,0.1-0.9,0.1c-1.5-0.1-2.9-0.5-4.2-1.1c1.2-1,2.8-2.3,5-3.9c6.1-4.3,5-9.3,4.9-9.5
			c-0.2-0.9-1.1-1.6-2-1.5h-0.2c-1,0.1-1.7,0.8-1.8,1.8c-1.1,1.2-2.5,1.9-4.1,2c-0.1,0-0.2,0-0.3,0c-2.1-0.4-18.1-5.4-24.9-7.7
			c-3.6-1.2-4.9-5.6-5.7-8.5c-0.6-2.1-1.1-3.8-2.8-4h-0.2L166.4,87.6z"/>
		<polygon class="st0" points="171.2,107.1 176.5,108.9 176.9,255 167.9,255.3 		"/>
		<polygon class="st0" points="189.9,112.9 192.7,113.8 199.9,254.9 193.8,254.7 		"/>
		<polygon class="st3" points="176.5,108.9 176.9,256.3 193.8,256.1 190.1,113.1 		"/>
		<path class="st4" d="M158.9,243.2c2.8-0.4,4.8-1.6,4.5-3.2c-0.4-2.1,1.1,1.6,5.1,2.6c3.3,0.8,23.6,0.7,32.7,0.3"/>
		<path class="st4" d="M158.4,229.1c2.8-0.8,5.2-1.8,5.2-2.9c0-1.7,0-3.1,3.5,0c3.5,3.1,10.6,2.2,13.1,2.2c1.8,0,13.3,0.1,20.1,0.2"
			/>
		<path class="st4" d="M158.4,215.3c2.9-0.7,4.8-1.4,5-2.6c0.4-1.9-1.6-5.1,2.7-1.8s6.1,2.7,8.7,2.9c2.1,0.1,17.2,1,24.5,1.4"/>
		<path class="st4" d="M159.5,201.4c2.6-1.3,4.6-2.8,4.6-4.3c0-2.6-1.4-4.2,2-1.1c3.4,3.1,10,2.6,13.8,3.2
			c2.7,0.4,12.7,1.9,18.8,2.6"/>
		<path class="st4" d="M160.4,185.8c3.2-2.5,4.1-4.8,4-6.4c-0.1-2.2,1.2-0.4,4.4,1.9c2.7,2,21.2,4.7,29.1,5.8"/>
		<path class="st4" d="M160.4,171.5c2.5-1.7,4.2-3.3,4-5.1c-0.4-3.1-1.1-3.6,2-0.9s9.9,3.9,16.6,5.2c4,0.8,10.3,1.7,14.8,2.3"/>
		<path class="st4" d="M161.5,156c2-1.6,3.2-4.1,3.2-6.7c0-2.4,0.2,0.2,3.1,2.2c2.2,1.5,19.4,5.4,29.1,7.6"/>
		<path class="st4" d="M161.9,142.2c1.5-1.3,4.3-5.2,3.5-7.3c-0.8-2.2,1.5,0.5,4.1,3.2c2.3,2.4,18.5,5.9,25.8,7.7"/>
		<path class="st4" d="M161,131.1c2.3-2.4,4.6-5.1,4.4-8s-0.5-3.2,2.1,0s10.3,5.7,14,6.5c2.3,0.5,8.7,2.3,13.1,3.6"/>
		<path class="st4" d="M161.9,118.5c2.9-3.2,4.6-6.3,4.3-8.7s1.4,0.1,2.6,1.8s23.8,8.5,23.8,8.5"/>
		<path class="st4" d="M147,263.5c4.8,0.4,6.1,0.4,8.2,0.6s4.3-0.4,3.2-2.6s0.4-1.8,2.7,0s5.2,1.8,11.9,2.2
			c5.6,0.4,25.4,0.3,34.3-0.2"/>
		<line class="st4" x1="165.4" y1="255.2" x2="200.4" y2="255.2"/>
		<line class="st4" x1="176.5" y1="128.2" x2="176.5" y2="120.9"/>
		<line class="st4" x1="176.6" y1="140.9" x2="176.6" y2="133.6"/>
		<line class="st4" x1="176.6" y1="154.3" x2="176.6" y2="147.7"/>
		<line class="st4" x1="176.7" y1="169.5" x2="176.7" y2="160.8"/>
		<line class="st4" x1="176.7" y1="175.8" x2="176.8" y2="183.5"/>
		<line class="st4" x1="176.7" y1="191.5" x2="176.7" y2="198.8"/>
		<line class="st4" x1="176.7" y1="206.6" x2="176.8" y2="213.9"/>
		<line class="st4" x1="176.8" y1="221.2" x2="176.8" y2="228.6"/>
		<line class="st4" x1="176.8" y1="235" x2="176.8" y2="242.9"/>
		<line class="st4" x1="190.7" y1="137.9" x2="190.9" y2="144.6"/>
		<line class="st4" x1="191.1" y1="151" x2="191.2" y2="157.8"/>
		<line class="st4" x1="191.4" y1="163.8" x2="191.6" y2="172.2"/>
		<line class="st4" x1="191.8" y1="178.4" x2="191.9" y2="186.1"/>
		<line class="st4" x1="192.1" y1="193.4" x2="192.3" y2="200.6"/>
		<line class="st4" x1="192.5" y1="207.4" x2="192.7" y2="214.9"/>
		<line class="st4" x1="192.9" y1="222" x2="193.1" y2="228.6"/>
		<line class="st4" x1="193.3" y1="235.1" x2="193.4" y2="242.6"/>
		<line class="st4" x1="176.8" y1="248.6" x2="176.9" y2="255"/>
		<line class="st4" x1="193.7" y1="248.4" x2="193.8" y2="254.7"/>
		<line class="st4" x1="176.5" y1="115" x2="176.5" y2="108.9"/>
		<line class="st4" x1="190.6" y1="132.1" x2="190.4" y2="125.3"/>
		<line class="st4" x1="190.1" y1="113.1" x2="190.2" y2="119.5"/>
		<line class="st4" x1="176.9" y1="264.7" x2="176.9" y2="271.6"/>
		<line class="st4" x1="194" y1="264.1" x2="194.2" y2="271.6"/>
		<path class="st2" d="M133.4,289.7c-0.6,0-1-0.4-1-1l-0.2-10c0-0.6,0.4-1,1-1l24.1,1c0.6,0,1,0.4,1,1v10.2c0,0.3-0.1,0.5-0.3,0.7
			c-0.2,0.2-0.4,0.3-0.7,0.3L133.4,289.7z"/>
		<path class="st1" d="M133.2,278.7l24.1,1v10.1l-23.9-1.1L133.2,278.7 M133.2,276.7c-1.1,0-2,0.9-2,2l0.2,10c0,1.1,0.8,2,1.9,2
			l23.9,1.1h0.1c1.1,0,2-0.9,2-2l0,0v-10.2c0-1.1-0.8-2-1.9-2L133.2,276.7L133.2,276.7z"/>
		<path class="st2" d="M129.1,279.5c-0.6,0-1-0.4-1-1v-4c0-0.6,0.4-1,1-1l28.2-0.4c0.3,0,0.5,0.1,0.7,0.3c0.2,0.2,0.3,0.4,0.3,0.7
			v5.5c0,0.3-0.1,0.5-0.3,0.7c-0.2,0.2-0.4,0.3-0.7,0.3L129.1,279.5z"/>
		<path class="st1" d="M157.3,274.2v5.5l-28.2-1.2v-4L157.3,274.2 M157.3,272.2L157.3,272.2l-28.2,0.4c-1.1,0-2,0.9-2,2v4
			c0,1.1,0.8,2,1.9,2l28.2,1.1h0.1c0.5,0,1-0.2,1.4-0.5c0.4-0.4,0.6-0.9,0.6-1.5v-5.5C159.3,273.1,158.4,272.2,157.3,272.2z"/>
		<path class="st2" d="M157.3,280.7c-0.3,0-0.5-0.1-0.7-0.3c-0.2-0.2-0.3-0.5-0.3-0.7v-5.5c0-0.3,0.1-0.5,0.3-0.7
			c0.2-0.2,0.4-0.3,0.7-0.3l73.5,0.2c0.6,0,1,0.4,1,1v4.3c0,0.6-0.4,1-1,1L157.3,280.7z"/>
		<path class="st1" d="M157.3,274.2l73.5,0.2v4.3l-73.5,1V274.2 M157.3,272.2c-1.1,0-2,0.9-2,2v5.5c0,1.1,0.9,2,2,2l0,0l73.5-1
			c1.1,0,2-0.9,2-2v-4.3c0-1.1-0.9-2-2-2C230.9,272.4,157.3,272.2,157.3,272.2z"/>
		<polygon class="st3" points="216,280.6 167.9,281.3 167.9,290.6 216,290 		"/>
		<path class="st5" d="M167.9,281.3L167.9,281.3z"/>
		<path class="st5" d="M216,290L216,290z"/>
		<line class="st4" x1="216" y1="280.6" x2="167.9" y2="281.3"/>
		<line class="st4" x1="167.9" y1="290.6" x2="216" y2="290"/>
	</g>
</g>
</svg>
