<svg xmlns="http://www.w3.org/2000/svg" width="292.985" height="436.379" viewBox="0 0 292.985 436.379"><defs><style>.a,.g{fill:#3b3a37;}.a{opacity:0.1;}.b,.n{isolation:isolate;}.c{fill:#fff;}.d{fill:#1a1818;}.e{fill:#c28846;}.f{fill:#130f0f;}.h{fill:#c7c9cb;}.i{fill:#d3d5d6;}.j{fill:#2d2c2d;}.k{fill:#e0e1e3;}.l{fill:#ae0721;}.m{fill:#7f0015;}.n{opacity:0.39;}</style></defs><ellipse class="a" cx="100.722" cy="11.777" rx="100.722" ry="11.777" transform="matrix(1, 0.017, -0.017, 1, 46.85, 409.313)"/><g class="b" transform="translate(229.487 159.603)"><g transform="translate(0.674 0.636)"><path class="c" d="M-293.519,671.641c1.646,12.773,1.619,32.433,11.624,49.069.858,1.429,9.463,11.261,15.411,15.252,2.063,1.384,13.01,8.87,14.724,10.67,3.358,3.527,6.752,13.043,7.075,17.9l-13.965-2.254a6.01,6.01,0,0,1-2.366-.729,6.069,6.069,0,0,1-1.7-2.022c-2.257-3.648-4.651-7.327-8.034-9.963-6-4.674-14.434-5.559-20-10.736a32.3,32.3,0,0,1-4.85-6.239q-5.837-8.989-11.238-18.25" transform="translate(306.838 -671.641)"/></g><path class="d" d="M-293.921,671.893c1.013,7.958,1.429,15.974,2.808,23.889a88.209,88.209,0,0,0,3.39,13.528,51.074,51.074,0,0,0,5.66,12.205,50.847,50.847,0,0,0,5.042,5.83,79.619,79.619,0,0,0,8.322,7.86c4.462,3.544,9.412,6.489,13.977,9.907A23.682,23.682,0,0,1-252,747.319a18.086,18.086,0,0,1,3.108,4.867,36.2,36.2,0,0,1,3.808,12.6l.846-.646-9.309-1.5q-2.069-.335-4.138-.667c-1.547-.252-2.831-.5-3.772-1.879-2.813-4.115-5.188-8.37-9.337-11.337-3.906-2.795-8.584-4.146-12.9-6.146a23.879,23.879,0,0,1-6.314-4,33.383,33.383,0,0,1-5.03-6.541q-5.685-8.778-10.953-17.813a.67.67,0,0,0-1.156.676q4.811,8.241,9.963,16.275c2.886,4.5,5.688,8.71,10.463,11.369,4.353,2.424,9.254,3.691,13.55,6.231,4.865,2.876,7.474,7.433,10.557,11.96,1.681,2.469,4.434,2.472,7.158,2.913l10.862,1.754a.678.678,0,0,0,.846-.646,35.745,35.745,0,0,0-2.777-10.526c-1.161-2.866-2.552-6.122-4.9-8.233a70.653,70.653,0,0,0-6.448-4.848q-3.579-2.541-7.211-5.005a74.378,74.378,0,0,1-14.533-13.723,34.726,34.726,0,0,1-5.012-8.812A75.4,75.4,0,0,1-289,699.623c-1.979-9.149-2.4-18.471-3.578-27.73-.108-.843-1.445-.853-1.338,0Z" transform="translate(307.245 -671.257)"/></g><g class="b" transform="translate(76.633 308.099)"><g transform="translate(0.845 0.852)"><path class="c" d="M-332.571,763.743c-.328,10.428-7.279,19.507-15.144,26.377s-16.957,12.351-23.991,20.065a12.021,12.021,0,0,0-2.167,3.014c-1.7,3.775-1.364,7.905-.464,11.953,2.616,11.642,5.275,23,6.271,33.752l-12.447-3.163a157.8,157.8,0,0,0-12.717-30.235h-.015c-.641-1.186-1.308-2.371-1.99-3.544-.477-.818-.954-1.662-1.431-2.522-1.445-2.712-2.644-5.588-2.331-8.493a8.425,8.425,0,0,1,.205-1.172,12.719,12.719,0,0,1,3.067-5.193c.573-.682,1.186-1.323,1.785-1.964q2.6-2.8,4.976-5.779c1.623-2.018,3.149-4.09,4.608-6.216a102.842,102.842,0,0,0,13.808-29.172Z" transform="translate(399.047 -761.453)"/></g><path class="d" d="M-333.088,764.081c-.629,14.866-13.358,24.927-24.21,33.194-5.512,4.2-11.6,8.473-15.848,14.031-4.6,6.021-1.672,14.389-.2,20.968a220.087,220.087,0,0,1,4.766,26.968l1.078-.821-12.445-3.163.6.594a161.907,161.907,0,0,0-12.8-30.437.85.85,0,0,0-.735-.422h-.015l.737.422c-2.768-5.095-7.971-11.471-4.486-17.391,1.5-2.553,3.85-4.613,5.784-6.829s3.789-4.535,5.537-6.915a104.324,104.324,0,0,0,15.947-32.264l-.823.626,33.264,2.005,4.714.285c1.094.066,1.091-1.639,0-1.7l-33.262-2.007-4.716-.283a.864.864,0,0,0-.821.624,102.453,102.453,0,0,1-18,34.759c-1.984,2.5-4.125,4.83-6.259,7.195-1.747,1.934-3.5,4.047-4.05,6.661-1.237,5.845,3.071,11.27,5.694,16.1a.85.85,0,0,0,.735.422h.015l-.737-.422a158.022,158.022,0,0,1,7.786,16.333q1.664,4.1,3.1,8.286.718,2.094,1.376,4.2c.243.782.262,1.414.979,1.807a9.828,9.828,0,0,0,2.12.538l4.255,1.081,6.059,1.54a.858.858,0,0,0,1.078-.821,198.991,198.991,0,0,0-3.9-23.2c-.866-4-1.894-7.978-2.656-12-.743-3.921-.863-8.471,1.7-11.789,4.537-5.872,11.109-10.309,16.944-14.77,5.471-4.181,10.892-8.481,15.247-13.861,4.549-5.618,7.849-12.227,8.16-19.547C-331.337,762.984-333.042,762.986-333.088,764.081Z" transform="translate(399.558 -760.938)"/></g><g transform="translate(194.532)"><g class="b"><g transform="translate(0.862 0.847)"><path class="e" d="M-298.593,609.261a24.782,24.782,0,0,1-8.64,15.674l-12.078.573-2.754.126c-3.785-.778-5.133-4.252-5.519-7.289a37.029,37.029,0,0,1,6.577-25.3c4.047-5.963,9.791-11.326,12.6-17.663.464.775.931,1.566,1.359,2.348a77.308,77.308,0,0,1,6.466,14.843C-298.883,597.969-297.817,603.6-298.593,609.261Z" transform="translate(327.835 -575.38)"/></g><path class="d" d="M-299.073,609.372a24.851,24.851,0,0,1-3.555,9.764,23.785,23.785,0,0,1-3.565,4.36c-.757.73-.464.825-1.335.954-3.484.517-7.2.341-10.725.508a25.328,25.328,0,0,1-3.3.152c-3.029-.263-4.426-3.684-4.817-6.259-1.151-7.6.9-15.585,4.655-22.186,4.148-7.287,10.871-12.844,14.384-20.521h-1.47c5.828,9.781,11.147,21.811,9.693,33.453-.136,1.086,1.57,1.076,1.7,0,1.489-11.92-3.957-24.3-9.927-34.312a.858.858,0,0,0-1.47,0c-3.471,7.582-10.087,13.089-14.235,20.256a37.274,37.274,0,0,0-5.062,23.14c.353,2.737,1.359,5.615,3.8,7.166,1.755,1.116,3.371.941,5.335.848q5.486-.256,10.975-.52a4.335,4.335,0,0,0,1.52-.169,9.265,9.265,0,0,0,2.278-2.12,26.133,26.133,0,0,0,1.939-2.315,25.932,25.932,0,0,0,4.815-11.748C-297.272,608.751-298.913,608.289-299.073,609.372Z" transform="translate(328.355 -574.868)"/></g><g transform="translate(0.862 0.847)"><path class="f" d="M-307.043,577.728c-14.4,20.887-13.828,39.5-12.268,47.781l-2.754.126c-3.785-.778-5.133-4.252-5.519-7.289a37.029,37.029,0,0,1,6.577-25.3c4.047-5.963,9.791-11.326,12.6-17.663C-307.939,576.155-307.472,576.946-307.043,577.728Z" transform="translate(327.835 -575.38)"/></g></g><g class="b" transform="translate(183.295 14.484)"><g transform="translate(0.816 0.854)"><path class="g" d="M-323.687,614.7l-6.759-6.176c-1.571-1.437-3.2-2.964-3.873-4.986-1.573-4.746,2.768-9.326,7.017-11.962,13.7-8.5,32.04-10.342,46-2.275a50.154,50.154,0,0,1,8.476,6.325c13.576,12.278,22.238,29.366,26.41,47.189s4.088,36.411,2.136,54.612c-.641,5.981-1.507,12.033-3.944,17.532-4.136,9.326-21.794,39.771-31.764,41.93" transform="translate(334.649 -584.132)"/></g><path class="d" d="M-322.763,614.438l-5.792-5.3c-1.841-1.682-4.14-3.437-4.762-5.982-1.2-4.9,4.065-8.928,7.7-11.071a48.4,48.4,0,0,1,26.69-6.714c9.687.469,18.194,4.4,25.39,10.8a80.763,80.763,0,0,1,17.168,21.981c9.72,17.941,13.053,38.488,12.852,58.706-.053,5.458-.354,10.912-.838,16.348a97.222,97.222,0,0,1-2.346,16c-1.513,5.8-4.51,11.082-7.469,16.247a166.79,166.79,0,0,1-12.781,19.451,62.576,62.576,0,0,1-6.81,7.643c-1.742,1.611-3.755,3.3-6.123,3.855-1.068.248-.616,1.893.452,1.643,4.984-1.164,9.009-6.188,12.083-9.927a149.677,149.677,0,0,0,12.473-18.09,115.189,115.189,0,0,0,8.168-15.366c2.08-5.078,2.9-10.551,3.51-15.972.652-5.84,1.1-11.707,1.295-17.58.7-21.455-2.3-43.384-12.342-62.6A82.908,82.908,0,0,0-271.9,595.363c-7.286-6.589-15.818-10.824-25.687-11.606a49.791,49.791,0,0,0-27.475,6.054c-3.8,2.075-7.878,4.862-9.524,9.062-1.758,4.494.914,7.9,4.1,10.813q3.256,2.98,6.517,5.956c.808.739,2.017-.464,1.2-1.2Z" transform="translate(335.142 -583.616)"/></g><g transform="translate(0 159.253)"><g class="b" transform="translate(21.172 14.073)"><path class="c" d="M-432.51,683.375c-.527,5,4.025,8.882,8.513,9.942,3.9.919,8.989-.081,11.837,3.327,2.744,3.282,2.656,7.994,2.252,11.995-.475,4.727-1.373,9.352-.924,14.124a39.779,39.779,0,0,0,11.37,24.268A37.294,37.294,0,0,0-375.39,757.84a39.319,39.319,0,0,0,27.73-9.142,3.441,3.441,0,0,0,.05-4.82,3.476,3.476,0,0,0-4.82-.051c-11.793,9.948-30.419,9.7-41.607-1.023a32.754,32.754,0,0,1-10.026-20.4c-.4-4.484.475-8.882.942-13.321.484-4.613.24-9.2-1.72-13.474-2.206-4.8-6.413-7.459-11.523-8.178-2.371-.333-9.738-.035-9.331-3.9a3.437,3.437,0,0,0-3.328-3.486,3.479,3.479,0,0,0-3.487,3.328Z" transform="translate(433.381 -679.217)"/><path class="d" d="M-372.619,759.074q-1.249,0-2.5-.081a38.186,38.186,0,0,1-24.605-11.049,40.5,40.5,0,0,1-11.607-24.776,50.059,50.059,0,0,1,.533-10.894c.137-1.128.277-2.257.391-3.391.4-3.934.46-8.362-2.063-11.38-1.757-2.1-4.527-2.318-7.463-2.547a26.323,26.323,0,0,1-3.929-.507c-4.866-1.147-9.726-5.335-9.147-10.832h0a4.314,4.314,0,0,1,4.226-4.072l.1,0a4.443,4.443,0,0,1,3.156,1.53,3.74,3.74,0,0,1,.977,2.871,1.454,1.454,0,0,0,.323,1.153c1.1,1.306,4.565,1.548,6.637,1.691.662.046,1.24.088,1.662.147,5.645.793,9.963,3.868,12.16,8.65,1.8,3.934,2.375,8.354,1.792,13.907-.114,1.088-.253,2.172-.392,3.257a46.278,46.278,0,0,0-.548,9.9,31.994,31.994,0,0,0,9.774,19.878c10.758,10.307,28.926,10.751,40.5.99a4.28,4.28,0,0,1,5.944.1,4.424,4.424,0,0,1,1.19,3.272,3.787,3.787,0,0,1-1.3,2.76A40.348,40.348,0,0,1-372.619,759.074Zm-58.74-75.284c-.462,4.391,3.643,8.047,7.88,9.047a24.922,24.922,0,0,0,3.679.465c3.148.247,6.4.5,8.6,3.138,2.918,3.487,2.871,8.33,2.441,12.606-.116,1.149-.255,2.288-.4,3.428a48.307,48.307,0,0,0-.528,10.538,38.835,38.835,0,0,0,11.132,23.761,36.521,36.521,0,0,0,23.539,10.568,38.612,38.612,0,0,0,27.142-8.946,2.156,2.156,0,0,0,.714-1.575,2.8,2.8,0,0,0-.72-2.035,2.65,2.65,0,0,0-3.694,0c-12.2,10.291-31.365,9.816-42.715-1.056a33.681,33.681,0,0,1-10.278-20.926A47.373,47.373,0,0,1-404,712.542c.136-1.073.273-2.144.387-3.22.55-5.246.025-9.39-1.651-13.041-1.982-4.315-5.746-6.978-10.885-7.7-.392-.055-.931-.093-1.546-.134-2.634-.182-6.241-.434-7.789-2.278a3.072,3.072,0,0,1-.7-2.391,2.122,2.122,0,0,0-.575-1.6,2.8,2.8,0,0,0-1.951-.967,2.7,2.7,0,0,0-2.644,2.588Z" transform="translate(433.053 -679.545)"/></g><g class="b"><path class="g" d="M-414.871,695.492c-1.674,2.918-5.921,3.484-8.936,1.994s-5-4.461-6.554-7.446c-1.762-3.4-3.148-6.991-5.075-10.3s-4.5-6.39-7.945-8.059a58.715,58.715,0,0,1,18.646,4.138,18.726,18.726,0,0,1,5.1,2.807c4.146,3.452,5.221,9.314,5.661,14.692Z" transform="translate(447.451 -670.63)"/><path class="d" d="M-418.71,699.516a8.77,8.77,0,0,1-3.853-.873c-3.421-1.692-5.5-5.06-6.92-7.806-.729-1.4-1.393-2.84-2.057-4.275-.926-2-1.883-4.07-3-5.989-2.184-3.75-4.737-6.35-7.589-7.731l-3.709-1.8,4.115.225a59.234,59.234,0,0,1,18.911,4.2,19.683,19.683,0,0,1,5.32,2.938c4.476,3.727,5.535,10.114,5.956,15.26l.017.2-1.02,2.457A6.911,6.911,0,0,1-418.71,699.516Zm-19.8-26.318a23.411,23.411,0,0,1,5.4,6.541c1.157,1.987,2.131,4.093,3.073,6.13.652,1.412,1.306,2.825,2.022,4.206,1.308,2.522,3.194,5.607,6.186,7.084,2.523,1.245,6.345.888,7.825-1.616l.8-1.939c-.429-5.073-1.421-10.654-5.35-13.925a17.908,17.908,0,0,0-4.878-2.672A57.668,57.668,0,0,0-438.512,673.2Z" transform="translate(445.839 -671.046)"/></g></g><g class="b" transform="translate(96.273 305.267)"><path class="h" d="M-340.846,765.147a.084.084,0,0,0-.013.055c-.641,14.859-13.359,24.919-24.21,33.193-5.521,4.2-11.99,8.211-15.854,14.041-3.216,4.852-2.045,8.819-2.29,11.041l-4.484-14.75s4.38-5.113,11.091-22.908c4.053-10.745,7.84-21.029,7.4-26.591Z" transform="translate(387.697 -759.228)"/></g><g class="b" transform="translate(52.376 40.483)"><g transform="translate(0.898 0.947)"><path class="c" d="M-274.654,680.564c-2.656,14.3-12.294,31.548-23.256,41.111-18.618,16.242-48.209,32.416-71.25,41.336-19.726,7.635-34.431,17.63-41.386,36.377-6.4,17.255-2.509,42.619,7.608,58s27.386,25.69,45.664,27.846c10.662,1.257,25.339-1.609,35.542,1.729l21.911-37.647a162.849,162.849,0,0,0,73.477-82.529c3.5-8.817,6.214-17.924,8.879-27.03,5.3-18.092,10.458-36.483,10.826-55.331.411-20.94-4.825-53.819-16.626-68.084-9.935-12.01-28.066-18.441-43.442-15.9a31.508,31.508,0,0,0-11.445,3.914c-6.744,4.153-10.665,11.515-15.353,17.9a75.179,75.179,0,0,1-13.77,14.311c-4.077,3.245-8.686,6.3-10.8,11.062-1.838,4.14-4.739,25.791-9.059,27.147-3.76,1.181-2.144,8.539-2.144,8.539s14.477-3.918,16.211-2.384c2.818,2.5,6.625,5.03,10.36,4.547a318.945,318.945,0,0,0,44.048-8.889,27.321,27.321,0,0,0,8.322-3.368c4.082-2.793,6.4-7.451,8.554-11.9" transform="translate(413.665 -599.889)"/></g><path class="d" d="M-275.119,680.714c-2.179,11.422-7.625,22.378-14.627,31.6s-16.639,16.167-26.205,22.556a284.064,284.064,0,0,1-32.12,18.416c-5.332,2.629-10.741,5.112-16.237,7.383-4.954,2.048-9.975,3.9-14.8,6.237-8.9,4.308-17.315,9.963-23.542,17.745a52.459,52.459,0,0,0-11.125,27.175c-2.317,21.216,4.83,44.124,20.959,58.47a66.131,66.131,0,0,0,29.01,14.969,66.665,66.665,0,0,0,16.192,1.507c5.913-.1,11.844-.53,17.752-.1a35.812,35.812,0,0,1,8.266,1.48.863.863,0,0,0,.962-.391l12.238-21.026,7.6-13.056a21.7,21.7,0,0,1,1.886-3.239c.414-.482.868-.553,1.517-.914q3.025-1.674,5.973-3.481a163.5,163.5,0,0,0,41.007-35.862,163.638,163.638,0,0,0,27.245-48.063c3.87-10.723,6.988-21.744,10.033-32.724a217.729,217.729,0,0,0,6.873-32.64c2.037-17.312.387-35.244-3.707-52.153-1.853-7.655-4.29-15.336-8.125-22.251a42.176,42.176,0,0,0-15.975-16.027c-14.621-8.46-37.268-11.038-49.834,2.408A92.469,92.469,0,0,0-292,619.543a79.76,79.76,0,0,1-10.081,12.018c-3.519,3.4-7.544,6.143-11.188,9.389a18.374,18.374,0,0,0-5.746,8.17c-1.709,5.668-2.547,11.579-4.181,17.275-.676,2.351-1.354,5.083-2.858,7.069-.59.778-1.295.871-2.055,1.419a4.988,4.988,0,0,0-1.8,3.143,14.648,14.648,0,0,0,.162,5.89.863.863,0,0,0,1.048.594c3.138-.848,6.317-1.593,9.516-2.166,1.6-.285,3.856-.919,5.487-.5,1.017.257,1.868,1.335,2.717,1.949a16.823,16.823,0,0,0,4.678,2.475c3.505,1.119,7.516-.022,11.049-.556q6.376-.966,12.708-2.189c8.516-1.646,16.989-3.6,25.332-5.978,3.883-1.1,7.58-2.576,10.405-5.565,2.679-2.835,4.428-6.377,6.11-9.855.475-.982-.993-1.848-1.472-.859a39.484,39.484,0,0,1-5.315,8.93c-2.717,3.126-6.279,4.6-10.18,5.708-8.027,2.282-16.174,4.179-24.36,5.787q-6.165,1.21-12.374,2.177c-4.136.644-8.826,2.086-12.8.22a21.221,21.221,0,0,1-4.509-3.024,3.259,3.259,0,0,0-1.715-.889,16.006,16.006,0,0,0-5.04.333,102.276,102.276,0,0,0-10.693,2.365l1.048.594c-.4-1.881-.647-4.325.169-6.118.507-1.116,1.452-1.217,2.32-1.886a6.548,6.548,0,0,0,1.633-2.109c2.724-4.992,3.668-11.112,4.89-16.6.548-2.462,1.028-4.968,1.782-7.377,1.123-3.578,4.024-6.274,6.852-8.575a129.836,129.836,0,0,0,10.871-9.3,83.793,83.793,0,0,0,9.215-11.312c2.619-3.8,5.138-7.721,8.407-11.006a26.223,26.223,0,0,1,13.149-7.011,46.5,46.5,0,0,1,26,1.965c7.83,2.84,15.308,7.7,20.3,14.462,4.38,5.93,7.077,13.048,9.17,20.057a150.271,150.271,0,0,1,6.132,48.747,163.93,163.93,0,0,1-5.236,32.731c-2.676,10.692-5.79,21.31-9.1,31.822-5.739,18.206-13.8,35.3-25.149,50.7a162.514,162.514,0,0,1-38.672,37.446q-5.482,3.763-11.263,7.057c-1.538.876-3.129,1.366-4.02,2.9l-5.607,9.632-14.868,25.544-.979,1.682.962-.391c-10.726-3.391-22.312-.853-33.32-1.543a62.633,62.633,0,0,1-31.189-11.188,59.157,59.157,0,0,1-20.579-24.589,75.15,75.15,0,0,1-6.2-32.095,52.225,52.225,0,0,1,9.339-29.052c5.742-8.11,13.874-14.058,22.632-18.563,4.843-2.49,9.894-4.443,14.936-6.482q7.734-3.13,15.26-6.754a290.478,290.478,0,0,0,31.836-17.712c9.172-5.91,18.762-12.334,26.127-20.473a81.943,81.943,0,0,0,16.86-29.3,61.632,61.632,0,0,0,1.966-7.6c.205-1.071-1.437-1.53-1.643-.452Z" transform="translate(414.207 -599.317)"/></g><g class="b" transform="translate(116.055 179.911)"><path class="i" d="M-354.7,688.839l-21.054,11.334s28.979,6.835,35.661,5.062a82.394,82.394,0,0,0,31.434-16.283s-22.049-5.2-24.466-5.423S-354.7,688.839-354.7,688.839Z" transform="translate(375.75 -683.522)"/></g><g class="b" transform="translate(54.123 208.706)"><path class="i" d="M-376.7,811.682a65.464,65.464,0,0,1-9.652-5.522,59.132,59.132,0,0,1-20.57-24.591,75.033,75.033,0,0,1-6.2-32.088,52.229,52.229,0,0,1,9.337-29.063c5.739-8.11,13.876-14.053,22.629-18.552.626-.328,1.267-.641,1.894-.954-24.523,19.506-33.522,58.027-17.191,90.626C-390.267,803.891-382.8,808.446-376.7,811.682Z" transform="translate(413.152 -700.912)"/></g><g transform="translate(96.273 354.766)"><path class="i" d="M-387.7,789.122" transform="translate(387.697 -789.122)"/></g><g class="b" transform="translate(180.801 112.985)"><path class="i" d="M-297.539,643.1c-2.767,8.112-4.12,13.089-9.956,18.976-14.82,14.944-28.376,18.58-29.152,18.976,1.35-2.469,3.423-4.772,4.212-6.885a81.3,81.3,0,0,0,6.135-14.122,65.682,65.682,0,0,0,1.868-7.115q5.049-1.125,10.059-2.413c5.057-1.308,10.809-2.318,14.982-5.671A16.055,16.055,0,0,0-297.539,643.1Z" transform="translate(336.648 -643.103)"/></g><g class="b" transform="translate(132.526 254.192)"><g transform="translate(0.895 0.787)"><path class="c" d="M-352.626,728.858a69.366,69.366,0,0,0,21.882,18.833c3.732,2.042,7.7,3.77,10.9,6.579,4.444,3.906,9.718,9.726,11.573,15.346,9.322,28.24-26.571,60.558-31.641,70.99a8.706,8.706,0,0,0-1.114,3.727,9.325,9.325,0,0,0,.926,3.5c3.593,8.723,13.495,26.319,17.654,34.787l-12.98-2c-6.284-6.305-12.617-12.67-17.444-20.15-2.346-3.634-4.486-7.678-8.206-9.882a14.009,14.009,0,0,1-2.737-1.737c-1.74-1.681-1.765-4.542-.838-6.776s2.616-4.049,4.053-5.994c6.7-9.067,10.036-32.393,5.052-42.5" transform="translate(365.262 -728.858)"/></g><path class="d" d="M-353.007,729.6a71.4,71.4,0,0,0,16.593,15.722,114.748,114.748,0,0,0,10.225,5.86,38.474,38.474,0,0,1,9.615,7.359,37.227,37.227,0,0,1,6.928,9.4,25.907,25.907,0,0,1,2.316,9.216,40.973,40.973,0,0,1-2.6,16.8c-3.994,11.245-11.144,21.193-18.431,30.52-2.825,3.616-5.752,7.155-8.514,10.821-2.4,3.181-5.526,7.143-4.337,11.356a52.944,52.944,0,0,0,3.769,8.542c1.611,3.28,3.293,6.524,4.989,9.761,3.214,6.128,6.56,12.194,9.62,18.4l.962-1.25-5.486-.844-4.229-.649a16.019,16.019,0,0,1-2.878-.444c-1.215-.441-2.47-2.31-3.434-3.292-1.846-1.878-3.673-3.777-5.439-5.731a88.7,88.7,0,0,1-9.428-12.338c-2.386-3.8-4.764-7.052-8.721-9.306-5.8-3.3-.449-9.316,2.066-12.808,4.087-5.675,5.817-13.21,6.774-20.014,1.053-7.474,1.542-16.219-1.815-23.221-.475-.989-1.944-.126-1.472.859,3.164,6.6,2.626,15.1,1.611,22.14-1.066,7.4-3.075,14.911-7.726,20.885-2.371,3.048-5.12,7.166-3,11.114,1.1,2.038,3.338,2.649,5.068,3.987a21.409,21.409,0,0,1,4.615,5.446,110.853,110.853,0,0,0,8.811,12.185c1.715,2,3.505,3.928,5.328,5.827q1.369,1.426,2.759,2.828a18.023,18.023,0,0,0,2.87,2.87,5.537,5.537,0,0,0,1.954.407l4.491.691,6.825,1.05a.866.866,0,0,0,.964-1.252c-5.448-11.048-11.826-21.648-16.846-32.906-.68-1.527-1.621-3.249-1.619-4.946a8.667,8.667,0,0,1,1.406-4.068,37.931,37.931,0,0,1,2.689-3.981c2.764-3.711,5.729-7.269,8.577-10.914,7.145-9.145,14.053-18.779,18.274-29.672,4.287-11.066,5.14-23.718-2.24-33.681a48.6,48.6,0,0,0-8.662-9.09c-3.4-2.7-7.426-4.395-11.177-6.526a68.939,68.939,0,0,1-20.58-17.974c-.657-.858-2.138-.01-1.47.861Z" transform="translate(365.802 -728.383)"/></g><g class="b" transform="translate(127.645 79.254)"><g transform="translate(0.83 0.852)"><path class="g" d="M-353.156,630.1a23.626,23.626,0,0,0-10.4,5.277,13.934,13.934,0,0,0-4.683,10.427c.2,5.481,4.351,10.122,9.114,12.843a5.188,5.188,0,0,0,2.209.81,5.663,5.663,0,0,0,2.345-.541l18.592-7.188c1.235-.478,2.615-.959,3.85-.477,1.98.77,2.3,3.669,1.129,5.446s-3.244,2.689-5.2,3.509a135.093,135.093,0,0,1-13.015,4.921c-1.719.518-3.547,1.018-4.8,2.3s-1.585,3.659-.174,4.77a4.569,4.569,0,0,0,2.512.735,48.556,48.556,0,0,0,21.776-3.262,11.649,11.649,0,0,0,5.257-3.476,12.24,12.24,0,0,0,1.878-5.3,51.013,51.013,0,0,0,.33-18.217,28.532,28.532,0,0,0-8.4-15.921,55.127,55.127,0,0,0-5.729-3.288,7.232,7.232,0,0,0-6.3,1.283S-349.571,629.19-353.156,630.1Z" transform="translate(368.25 -623.247)"/></g><path class="d" d="M-353.052,629.615c-6.746,1.77-13.632,5.868-15.358,13.131-1.618,6.807,2.759,12.937,8.3,16.441a6.745,6.745,0,0,0,4.125,1.434c2.11-.182,4.347-1.465,6.309-2.224l12.394-4.794c1.652-.639,4.9-2.489,6.122-.339,1.05,1.844-.351,3.855-1.835,4.88a25.706,25.706,0,0,1-4.858,2.307c-2.143.891-4.292,1.768-6.469,2.571-1.926.712-3.88,1.308-5.832,1.936a9.667,9.667,0,0,0-4.136,2.207c-1.636,1.694-1.977,4.867.22,6.249,1.295.813,3.1.763,4.568.825a48.031,48.031,0,0,0,6.779-.19,49.793,49.793,0,0,0,11.642-2.565c3.192-1.126,6.638-2.507,8.219-5.726,1.684-3.429,1.916-7.915,2.164-11.675.505-7.678-.649-15.661-4.8-22.271a18.853,18.853,0,0,0-5.91-6.294c-2.174-1.326-4.234-2.835-6.878-2.784-2.621.05-4.441,1.507-6.554,2.805a32.992,32.992,0,0,1-8.206,4.077.852.852,0,0,0,.452,1.643c3.721-1.018,7.291-3.279,10.466-5.421a6.335,6.335,0,0,1,7.11-.465,20.439,20.439,0,0,1,4.686,3.068c5.016,5.073,7.464,12.087,7.945,19.108a54.052,54.052,0,0,1-.657,12.167,17.442,17.442,0,0,1-1.409,5.436,8.361,8.361,0,0,1-4.072,3.489,45.307,45.307,0,0,1-22.208,3.827c-1.066-.078-2.51-.065-3.03-1.212a2.7,2.7,0,0,1,.3-2.394c.982-1.6,3.134-2.067,4.8-2.577,3.633-1.111,7.168-2.5,10.677-3.947,2.629-1.088,5.767-2.02,7.633-4.307a5.114,5.114,0,0,0,.465-5.946c-1.754-2.565-4.924-1.254-7.229-.363l-11.154,4.313c-2.065.8-4.121,1.628-6.2,2.4a4.245,4.245,0,0,1-3.9-.184,19.3,19.3,0,0,1-2.176-1.411c-2.949-2.176-5.517-5.251-6.294-8.908-1.886-8.892,6.83-14.725,14.238-16.669A.852.852,0,0,0-353.052,629.615Z" transform="translate(368.751 -622.732)"/></g><g class="b" transform="translate(72.257 143.808)"><g transform="translate(0.878 0.853)"><path class="c" d="M-317.272,689.776c-11.134,2.343-17.411-1.8-27.309-7.417-8.147-4.62-16.467-9.768-24.513-14.566s-30.378-6.858-31.379-4.714c-1.684,3.6-1.394,16.414-.338,16.542,11.111,1.346,16.5-1.176,26.985,2.739,8.609,3.216,12.02,8.892,23.036,16.9,2.947,2.144,10.836,8.282,13.894,10.264,5.259,3.411,10.877,2.123,17.1,1.379a93.171,93.171,0,0,0,28.141-7.994" transform="translate(401.671 -662.233)"/></g><path class="d" d="M-317.152,689.292a25.688,25.688,0,0,1-13.435-.647c-4.3-1.439-8.229-3.843-12.15-6.077q-6.728-3.832-13.361-7.822c-4.3-2.585-8.529-5.436-12.972-7.771-5.38-2.827-11.849-3.868-17.808-4.631a65.277,65.277,0,0,0-8.842-.624c-1.369.013-3.419-.111-4.62.727-1.533,1.07-1.508,4.423-1.651,6.067a47.146,47.146,0,0,0,.022,9.107,8,8,0,0,0,.424,2.252c.527,1.222,1.752,1.028,2.949,1.134,4.264.381,8.522.131,12.793.224a34.136,34.136,0,0,1,21.68,8.167c3.194,2.674,6.246,5.509,9.513,8.1,2.762,2.191,5.633,4.247,8.443,6.373,3.015,2.282,5.994,4.7,9.188,6.733,4.126,2.623,8.845,2.575,13.531,2.007,11.331-1.373,22.158-3.828,32.572-8.622.993-.457.129-1.926-.861-1.47a98.112,98.112,0,0,1-28.871,8.022c-4.171.531-8.624,1.368-12.717-.036-3.191-1.094-6-3.61-8.672-5.608-6.014-4.505-12.051-8.955-17.7-13.916a68.843,68.843,0,0,0-7.666-6.145,32.856,32.856,0,0,0-9.869-4.212,43.4,43.4,0,0,0-11.144-1.1c-1.9.017-3.8.06-5.7.023-.917-.018-1.835-.051-2.75-.106a20.774,20.774,0,0,1-3.12-.139c-.412-.366-.361-2.1-.4-2.563-.111-1.439-.137-2.884-.121-4.325.017-1.424.079-2.848.214-4.265a11.007,11.007,0,0,1,.778-4.087c.184-.318-.128-.041.175-.24a2.387,2.387,0,0,1,.772-.2,15.765,15.765,0,0,1,2.808-.192,63.5,63.5,0,0,1,8.047.527c5.9.7,12.422,1.7,17.742,4.5,4.636,2.436,9.041,5.411,13.531,8.105q7.126,4.274,14.353,8.372c3.815,2.172,7.693,4.395,11.927,5.655a27.477,27.477,0,0,0,13.42.356c1.075-.217.621-1.859-.452-1.643Z" transform="translate(402.201 -661.718)"/></g><g class="b" transform="translate(73.151 145.225)"><path class="g" d="M-382.975,663.976l-2.515,15.336c-4.661-.268-9.016.306-15.361-.459-1-.116-1.265-12.119.306-15.49C-399.945,662.087-391.185,662.407-382.975,663.976Z" transform="translate(401.661 -662.574)"/></g><g class="b" transform="translate(265.89 232.412)"><path class="g" d="M-260.062,734.817c-2.793-.439-5.6-.9-8.392-1.348-1.381-.225-2.76-.451-4.141-.664-1.542-.257-2.827-.5-3.769-1.884-2.537-3.7-4.719-7.524-8.155-10.425,1.959-1.937,6.112-4.419,14.609-4.762.1.065.182.139.278.2a22.428,22.428,0,0,1,2.719,2.216,18.073,18.073,0,0,1,3.115,4.86A37.734,37.734,0,0,1-260.062,734.817Z" transform="translate(285.746 -714.898)"/><path class="d" d="M-258.631,736.135l-1.075-.167q-2.871-.455-5.754-.924l-2.639-.427c-1.379-.222-2.76-.447-4.14-.662-1.484-.247-3.158-.527-4.323-2.235-.477-.7-.944-1.4-1.407-2.1-2.005-3.022-3.9-5.878-6.6-8.158l-.692-.583.644-.638c2.111-2.09,6.456-4.653,15.159-5l.265-.008.222.144c.066.043.127.089.189.136l.527.389a19.543,19.543,0,0,1,2.422,2.01,18.743,18.743,0,0,1,3.264,5.072,38.211,38.211,0,0,1,3.815,12.076Zm-24.16-15.315a41.825,41.825,0,0,1,6.2,7.882c.459.694.921,1.391,1.4,2.083.73,1.071,1.7,1.28,3.221,1.535,1.374.214,2.757.437,4.14.664l2.639.425q2.322.375,4.648.748a38.366,38.366,0,0,0-3.51-10.453,17.4,17.4,0,0,0-2.957-4.636,18.292,18.292,0,0,0-2.225-1.84l-.4-.3a.235.235,0,0,1-.038-.026C-276.822,717.236-280.706,719.1-282.791,720.821Z" transform="translate(285.26 -715.229)"/></g><g class="b" transform="translate(159.967 403.063)"><path class="g" d="M-326.646,836.461c.442,1.911-2.489,2.432-4.448,2.429-7.148-.018-14.5.916-15.467-.51-3.232-4.716.578-14.748-1.871-18.721,0,0,2.02-.426,12.843-.863a37.256,37.256,0,0,1,4.863,6.512A54.173,54.173,0,0,1-326.646,836.461Z" transform="translate(349.753 -817.957)"/><path class="d" d="M-341.732,840.332c-2.828,0-4.378-.256-4.991-1.152-1.884-2.752-1.6-6.883-1.32-10.879.222-3.212.432-6.247-.571-7.873l-.616-1,1.149-.245c.086-.018,2.212-.445,12.982-.881l.288-.012.232.171a36.293,36.293,0,0,1,5.118,6.819,54.667,54.667,0,0,1,4.145,11.328h0a2.181,2.181,0,0,1-.411,1.913c-1.1,1.378-3.711,1.532-4.817,1.532-.071,0-.156,0-.235,0-2.118,0-4.212.078-6.239.156C-338.879,840.278-340.439,840.332-341.732,840.332Zm-4.959-19.666c.7,2.048.5,4.832.3,7.749-.257,3.712-.523,7.554,1.037,9.831.581.6,4.848.435,8.272.306,2.012-.078,4.28-.149,6.514-.157h.026c1.649,0,3.093-.373,3.52-.907a.528.528,0,0,0,.091-.507h0A53.02,53.02,0,0,0-330.948,826a37.764,37.764,0,0,0-4.443-6.03C-342.064,820.246-345.258,820.51-346.692,820.666Z" transform="translate(349.23 -818.29)"/></g><g class="b" transform="translate(91.793 401.791)"><path class="g" d="M-369.217,839.136c.02,1.961-2.954,1.838-4.868,1.411-6.974-1.56-14.729-6.439-15.369-8.041-2.136-5.3,4.126-10.072,2.593-14.478,0,0,2.065.02,12.727,1.931a37.136,37.136,0,0,1,3.341,7.408A54.061,54.061,0,0,1-369.217,839.136Z" transform="translate(390.73 -817.19)"/><path class="d" d="M-371.543,841.972a11.341,11.341,0,0,1-2.394-.285c-6.964-1.558-15.154-6.534-15.957-8.539-1.268-3.149.094-6.09,1.3-8.685.972-2.1,1.893-4.083,1.283-5.832l-.386-1.109,1.176.01c.088,0,2.255.041,12.864,1.942l.283.05.19.215a36.386,36.386,0,0,1,3.527,7.764,54.778,54.778,0,0,1,1.6,11.957h0a2.185,2.185,0,0,1-.813,1.78A4.279,4.279,0,0,1-371.543,841.972Zm-13.945-22.693c.2,1.984-.717,3.961-1.608,5.882-1.164,2.51-2.264,4.885-1.262,7.37.457,1.139,7.676,5.951,14.783,7.541,1.618.363,3.123.313,3.659-.119a.533.533,0,0,0,.2-.475h0a53.119,53.119,0,0,0-1.553-11.587,37.983,37.983,0,0,0-3.035-6.849C-380.879,819.867-384.055,819.438-385.489,819.279Z" transform="translate(390.403 -817.522)"/></g><g transform="translate(93.304 403.376)"><path class="j" d="M-380.537,837.427c-4.593-2.043-8.233-4.661-8.561-5.466-1.022-2.548.149-5.057,1.268-7.483.912-1.964,1.84-3.981,1.58-6,.533.055,1.351.164,2.576.341A23.06,23.06,0,0,0-380.537,837.427Z" transform="translate(389.49 -818.479)"/></g><g transform="translate(162.304 404.999)"><path class="j" d="M-337.773,837.917a1.345,1.345,0,0,1-.232.013c-3.34.136-7.933.3-8.4-.368-1.595-2.318-1.323-6.19-1.063-9.925.2-2.984.409-5.833-.354-7.865.654-.068,1.785-.177,3.585-.313C-343.444,823.643-344.656,831.782-337.773,837.917Z" transform="translate(347.819 -819.459)"/></g><g class="b" transform="translate(134.231 316.672)"><path class="k" d="M-344.018,846.543a89.055,89.055,0,0,1-9.432-12.338c-2.386-3.8-4.757-7.047-8.725-9.309-5.794-3.3-.45-9.311,2.071-12.8,4.09-5.684,5.82-13.208,6.776-20.011,1.05-7.484,1.54-16.222-1.813-23.228a.71.71,0,0,0-.7-.437l.1-2.3c5.138-.027,10.481,3,10.945,15.349.927,24.387-12.9,34.923-11.1,39.872S-347.274,832.42-344.018,846.543Z" transform="translate(364.773 -766.116)"/></g><g transform="translate(128.837 89.594)"><ellipse class="d" cx="8.06" cy="10.759" rx="8.06" ry="10.759" transform="translate(0 4.538) rotate(-16.35)"/></g><g class="b" transform="translate(142.833 115.717)"><path class="d" d="M-359.572,645.606a24.827,24.827,0,0,0,.81,6.069.863.863,0,0,0,1.048.6.867.867,0,0,0,.594-1.048,22.851,22.851,0,0,1-.747-5.617.865.865,0,0,0-.853-.853.867.867,0,0,0-.853.853Z" transform="translate(359.578 -644.753)"/></g><g class="b" transform="translate(147.888 113.648)"><path class="d" d="M-356.525,644.355a11.722,11.722,0,0,0,1.7,6,.869.869,0,0,0,1.166.306.864.864,0,0,0,.306-1.166,9.965,9.965,0,0,1-1.472-5.143.861.861,0,0,0-.853-.851.864.864,0,0,0-.851.851Z" transform="translate(356.525 -643.504)"/></g><g class="b" transform="translate(152.765 110.978)"><path class="d" d="M-353.56,642.965c.449,2.348.9,4.757,2.5,6.63a.859.859,0,0,0,1.205,0,.868.868,0,0,0,0-1.2,7.323,7.323,0,0,1-1.343-2.656,31.442,31.442,0,0,1-.72-3.222.859.859,0,0,0-1.048-.594.867.867,0,0,0-.594,1.046Z" transform="translate(353.58 -641.891)"/></g><g class="b" transform="translate(157.738 109.462)"><path class="d" d="M-350.541,642.053l1.025,3.1a9.758,9.758,0,0,0,1.205,2.783.877.877,0,0,0,1.166.306.858.858,0,0,0,.3-1.166,8.376,8.376,0,0,1-1.068-2.484l-.989-3a.87.87,0,0,0-1.048-.594.86.86,0,0,0-.6,1.046Z" transform="translate(350.577 -640.976)"/></g><g transform="translate(58.843 223.62)"><path class="g" d="M-383.971,720.721c-3.709-.941-2.659,1.662-2.1,2.045,0,0,2.126.777,1.962,1.349-.081.3-.573.368-1.144.354a.752.752,0,0,0-.573,1.267l2.712,2.917a.826.826,0,0,1-.75,1.378,129.454,129.454,0,0,1-26.268-9.066,49.887,49.887,0,0,1,7.594-10.892A144.038,144.038,0,0,0-380.25,719.6C-378.833,720.039-380.523,721.594-383.971,720.721Z" transform="translate(410.414 -709.817)"/><path class="d" d="M-383.589,730.357a1.033,1.033,0,0,1-.2-.02,129.767,129.767,0,0,1-26.314-9.079l-.2-.091.1-.194a50.4,50.4,0,0,1,7.625-10.937l.106-.118.141.073a142.687,142.687,0,0,0,22.254,9.516c.58.177.7.533.628.806-.2.7-1.9,1.359-4.461.709h0c-1.3-.326-2.134-.242-2.355.242a1.476,1.476,0,0,0,.422,1.432c.649.229,2.242.892,2.045,1.576-.131.48-.838.52-1.348.5h-.013a.548.548,0,0,0-.507.33.521.521,0,0,0,.1.588l2.712,2.919a1.019,1.019,0,0,1,.149,1.209A1.006,1.006,0,0,1-383.589,730.357Zm-26.145-9.387a128.958,128.958,0,0,0,26.026,8.961.6.6,0,0,0,.646-.308.611.611,0,0,0-.089-.727l-2.712-2.918a.932.932,0,0,1-.181-1.038.954.954,0,0,1,.888-.576c.055,0,.106,0,.154,0,.7,0,.793-.154.806-.2.051-.179-.755-.705-1.833-1.1a1.835,1.835,0,0,1-.613-1.965c.22-.488.891-.97,2.833-.474h0c2.48.628,3.858-.055,3.961-.421.046-.164-.257-.27-.351-.3a142.484,142.484,0,0,1-22.18-9.47A49.9,49.9,0,0,0-409.734,720.97Z" transform="translate(410.302 -709.919)"/></g><g class="b" transform="translate(176.333 67.577)"><path class="d" d="M-339.3,618.922c-.7,7.307,6.252,12.495,13.112,11.649,6.509-.8,13.3-7.155,12.7-14.075-.093-1.083-1.8-1.093-1.7,0,.518,5.963-5.3,11.533-10.917,12.356-6.012.883-12.1-3.509-11.483-9.93.106-1.091-1.6-1.085-1.7,0Z" transform="translate(339.347 -615.68)"/></g><g transform="translate(190.479 70.036)"><circle class="d" cx="4.053" cy="4.053" r="4.053"/></g><g transform="translate(53.072 259.424)"><path class="g" d="M-357.978,740.067c-13.563,2.946-26.349,6.148-54.92,2.863a76.736,76.736,0,0,1-.763-10.864c15.989,2.317,38.153,4.09,57.565.532C-337.054,729.094-340.638,736.305-357.978,740.067Z" transform="translate(413.869 -731.463)"/><path class="d" d="M-391,744.593a190.9,190.9,0,0,1-21.839-1.378L-413,743.2l-.022-.159a77.174,77.174,0,0,1-.765-10.892v-.238l.237.033c15.389,2.232,37.857,4.135,57.5.531,7.779-1.427,12.641-1.2,13,.609.444,2.216-5.921,5.34-14.8,7.268l-1.679.366C-368.3,742.631-377.284,744.593-391,744.593Zm-21.633-1.772c27.25,3.118,40.349.257,53.016-2.51l1.679-.366c10.357-2.247,14.767-5.377,14.483-6.782-.23-1.151-3.648-1.916-12.521-.281-19.6,3.591-41.983,1.724-57.4-.5A77.13,77.13,0,0,0-412.634,742.821Z" transform="translate(413.787 -731.542)"/></g><g transform="translate(57.543 278.827)"><path class="g" d="M-347.165,754.165c-13.521,5.015-26.185,10.251-57.538,9.173-.013-.026-.026-.04-.04-.068a59.5,59.5,0,0,1-6.161-12.609c16.358,1.349,42.775,1.922,64.435-5.208C-328.067,739.388-330.506,747.989-347.165,754.165Z" transform="translate(411.207 -743.178)"/><path class="d" d="M-396.713,763.769c-2.494,0-5.112-.046-7.877-.141l-.123,0-.056-.111a.541.541,0,0,1-.04-.07,59.294,59.294,0,0,1-6.171-12.631l-.108-.3.32.025c32.095,2.653,52.711-1.364,64.354-5.2,7.464-2.459,12.334-2.754,13.02-.788.942,2.691-6.165,7.142-13.578,9.89l-1.583.588C-360.106,759.332-372.02,763.769-396.713,763.769Zm-7.751-.551c30.01,1.022,43.1-3.861,55.765-8.577l1.583-.59c9.081-3.366,13.992-7.481,13.333-9.364-.445-1.272-3.987-1.765-12.5,1.045-11.639,3.828-32.217,7.839-64.2,5.244A58.812,58.812,0,0,0-404.464,763.218Z" transform="translate(411.087 -743.26)"/></g><g transform="translate(80.582 300.897)"><path class="g" d="M-357.089,767.081c-8.219,3.749-16.111,7.5-28.025,10.905h-.015a65.224,65.224,0,0,1-11.723-6.3c13.127-2.467,27.536-6.122,40.255-11.52C-337.936,752.263-340.226,759.379-357.089,767.081Z" transform="translate(397.384 -756.504)"/><path class="d" d="M-384.875,778.279l-.121-.017a65.578,65.578,0,0,1-11.761-6.319l-.416-.282.493-.093c15.606-2.934,29.136-6.805,40.212-11.5,7.781-3.3,12.632-4.312,13.31-2.772.8,1.818-5.059,6.146-13.634,10.061l-1.581.724a173.577,173.577,0,0,1-26.473,10.193Zm-11.231-6.4a65.248,65.248,0,0,0,11.213,5.976A173.7,173.7,0,0,0-358.546,767.7l1.583-.724c9.571-4.371,13.947-8.337,13.425-9.519-.333-.76-3.4-.985-12.768,2.987C-367.292,765.107-380.681,768.955-396.107,771.882Z" transform="translate(397.173 -756.589)"/></g><g transform="translate(87.126 337.911)"><path class="g" d="M-389.2,785.246q-1.88.02-3.762.041c1.623-2.018,3.149-4.09,4.608-6.216.818.026,1.636.053,2.439.068C-365.408,779.507-370.439,785.068-389.2,785.246Z" transform="translate(393.393 -778.859)"/><path class="d" d="M-393.221,785.581l.275-.341c1.566-1.947,3.07-3.976,4.6-6.2l.063-.094.114,0c.816.028,1.634.056,2.436.068,8.554.154,13.454,1.2,13.447,2.883-.008,1.985-7.2,3.55-16.734,3.639h0Zm5.15-6.218c-1.422,2.07-2.827,3.971-4.279,5.794l3.325-.035c10.642-.1,16.318-1.939,16.323-3.229,0-.828-2.739-2.278-13.04-2.465C-386.508,779.417-387.29,779.392-388.071,779.364Z" transform="translate(393.221 -778.943)"/></g><g transform="translate(77.3 351.87)"><path class="g" d="M-393.468,793.825c-1.841.015-3.681.041-5.549.041a8.429,8.429,0,0,1,.205-1.172,12.719,12.719,0,0,1,3.067-5.193c1.868.108,3.721.191,5.562.217C-369.682,788.087-374.711,793.647-393.468,793.825Z" transform="translate(399.246 -787.289)"/><path class="d" d="M-398.927,794.157h-.229l.023-.229a8.6,8.6,0,0,1,.21-1.2,12.957,12.957,0,0,1,3.111-5.277l.066-.076.1,0c2.139.124,3.9.194,5.554.219,8.552.154,13.454,1.2,13.445,2.88-.007,1.985-7.2,3.552-16.732,3.64l-1.669.015C-396.332,794.144-397.622,794.157-398.927,794.157Zm3.361-6.36a12.464,12.464,0,0,0-2.956,5.03,8.062,8.062,0,0,0-.172.916c1.224,0,2.436-.013,3.645-.027l1.669-.015c10.642-.1,16.316-1.939,16.321-3.227,0-.83-2.737-2.28-13.04-2.464C-391.725,787.986-393.466,787.918-395.565,787.8Z" transform="translate(399.155 -787.373)"/></g><g transform="translate(79.503 366.723)"><path class="g" d="M-394.173,802.539h-.015c-.641-1.186-1.308-2.371-1.99-3.544-.477-.818-.954-1.662-1.431-2.522,1.008.026,2.017.068,3.027.081C-375.512,796.883-378.552,801.736-394.173,802.539Z" transform="translate(397.967 -796.257)"/><path class="d" d="M-394.027,802.834h-.142l-.058-.109c-.611-1.128-1.278-2.318-1.989-3.539-.477-.82-.955-1.666-1.432-2.527l-.177-.316,1.371.04c.672.021,1.343.045,2.015.051,8.511.146,13.409,1.186,13.437,2.853.03,1.717-5.2,3.145-13.02,3.547Zm-.007-.214v0Zm-3.077-5.843c.417.748.835,1.485,1.252,2.2.689,1.181,1.338,2.336,1.932,3.434,8.657-.46,12.528-2.1,12.51-3.12-.013-.825-2.774-2.268-13.028-2.446-.674-.007-1.35-.03-2.022-.051Z" transform="translate(397.825 -796.343)"/></g><g transform="translate(143.338 342.475)"><path class="g" d="M-357.942,788.017c-.4,0-.777.013-1.172.013.49-2,.886-4.088,1.2-6.2,1.091.041,2.182.083,3.259.1C-334.169,782.278-339.2,787.854-357.942,788.017Z" transform="translate(359.377 -781.614)"/><path class="d" d="M-359.01,788.322h-.263l.061-.255c.469-1.912.873-3.994,1.2-6.185l.027-.184.185.007c1.159.045,2.2.083,3.254.1,8.546.149,13.444,1.194,13.435,2.873-.008,1.989-7.2,3.552-16.722,3.635h0c-.2,0-.391,0-.583.007S-358.811,788.322-359.01,788.322Zm1.376-6.2c-.306,2.038-.681,3.981-1.113,5.781l.32-.005c.194,0,.391-.007.589-.007,10.634-.093,16.3-1.932,16.31-3.222,0-.83-2.735-2.28-13.028-2.457C-355.552,782.2-356.544,782.168-357.634,782.126Z" transform="translate(359.273 -781.699)"/></g><g transform="translate(137.127 356.645)"><path class="g" d="M-362.778,796.462c.179-.247.369-.479.546-.724a26.3,26.3,0,0,0,2.931-5.357h.013C-340.04,790.887-344.839,796.176-362.778,796.462Z" transform="translate(363.185 -790.175)"/><path class="d" d="M-363.024,796.758l.24-.336c.089-.124.184-.245.277-.366s.18-.235.268-.356a25.972,25.972,0,0,0,2.909-5.317l.053-.126h.137c8.017.21,12.6,1.255,12.593,2.866-.012,1.954-6.767,3.479-16.065,3.628Zm4.02-6.084a26.069,26.069,0,0,1-2.9,5.269c-.088.124-.182.245-.275.366l-.015.02c10.377-.212,15.227-2.028,15.234-3.209C-346.958,792.333-349.494,790.936-359,790.674Z" transform="translate(363.024 -790.257)"/></g><g transform="translate(134.514 374.964)"><path class="g" d="M-356.921,807.687a16.116,16.116,0,0,0-4.838-4.716,18.851,18.851,0,0,1-2.467-1.5c2.085.136,4.143.219,6.188.26C-339.268,802.07-341.912,806.773-356.921,807.687Z" transform="translate(364.849 -801.221)"/><path class="d" d="M-356.775,808l-.068-.093a15.8,15.8,0,0,0-4.774-4.659c-.262-.156-.531-.3-.8-.447a10.24,10.24,0,0,1-1.7-1.073l-.488-.407.636.043c1.972.131,3.994.215,6.18.26,8.5.154,13.4,1.2,13.434,2.861.035,1.649-4.911,3.058-12.308,3.509Zm-6.511-6.18c.343.224.709.422,1.066.616.275.149.548.3.813.457a16.043,16.043,0,0,1,4.833,4.679c7.7-.48,11.831-1.941,11.806-3.078-.017-.826-2.78-2.272-13.028-2.457C-359.727,802-361.53,801.928-363.286,801.82Z" transform="translate(364.602 -801.32)"/></g><g transform="translate(65.942 134.901)"><g transform="translate(9.903)"><g class="b"><g transform="translate(0.873 0.851)"><path class="l" d="M-389.248,656.853l.659,45.858c-2.78-.3-9.816.26-10.1,0-.354-.324-1.134-45.131-.676-45.505C-399.062,656.959-389.248,656.853-389.248,656.853Z" transform="translate(399.507 -656.853)"/></g><path class="d" d="M-389.754,657.19l.661,45.858.851-.853a39.633,39.633,0,0,0-4.757-.051,32.205,32.205,0,0,0-4.544.122c-.05.008-.541-.043-.551-.018-.056.134.656.474.55.5.05-.013-.051.113-.013-.19a9.226,9.226,0,0,0-.083-1.507c-.19-4.333-.265-8.673-.353-13.01-.2-9.726-.585-19.514-.273-29.242.007-.237.036-.482.028-.719-.008-.3.053-.252.017-.25.026,0-.449.576-.493.5a3.855,3.855,0,0,0,.586-.05c.6.013,1.217-.065,1.818-.086,2.469-.088,4.939-.126,7.41-.152a.852.852,0,0,0,0-1.7c-2.315.025-4.63.063-6.943.137-1.255.04-3.754-.394-4.065,1.22a19.213,19.213,0,0,0-.1,3.423c-.017,2.321,0,4.645.015,6.968.084,10.958.167,21.94.643,32.89.04.917-.2,2.538.866,2.924,1.182.427,3.037.023,4.254-.017a48.136,48.136,0,0,1,5.986.015.857.857,0,0,0,.853-.851l-.661-45.858A.852.852,0,0,0-389.754,657.19Z" transform="translate(400.034 -656.339)"/></g><g transform="translate(2.088 1.822)"><path class="m" d="M-394.528,657.439h-4.245l.708,39.921h2.431Z" transform="translate(398.773 -657.439)"/></g></g><g transform="translate(0.069 41.518)"><g class="b"><g transform="translate(0.851 0.851)"><path class="l" d="M-405.459,682.356l30.583-.429c-.2,1.8.174,6.373,0,6.559-.217.232-30.1.737-30.346.439C-405.388,688.728-405.459,682.356-405.459,682.356Z" transform="translate(405.459 -681.927)"/></g><path class="d" d="M-405.122,683.546l30.583-.429-.853-.853a25.225,25.225,0,0,0-.038,2.961c.015.6.038,1.2.058,1.8.01.3-.132,1.093.026,1.345.278.44.4-.634.682-.369-.033-.033-.185.033-.237.02a4.358,4.358,0,0,0-1.083.056c-2.908.121-5.822.171-8.733.229-6.4.126-12.833.364-19.231.176a2.77,2.77,0,0,0-.535-.018c-.348.063-.119-.1-.126,0-.065.871.416.631.5.306a4.374,4.374,0,0,0-.056-1.114c-.066-1.651-.089-3.3-.108-4.958a.852.852,0,0,0-1.7,0c.017,1.563.041,3.125.1,4.686.036,1.05-.2,2.5,1.075,2.757a12.354,12.354,0,0,0,2.321.066c1.571.01,3.143,0,4.714-.012,7.3-.056,14.624-.1,21.92-.42.747-.033,1.788.108,2.128-.72a7.526,7.526,0,0,0,.027-2.717,33.013,33.013,0,0,1,0-4.068.858.858,0,0,0-.851-.851l-30.583.429A.852.852,0,0,0-405.122,683.546Z" transform="translate(405.973 -681.413)"/></g><g transform="translate(1.7 1.939)"><path class="m" d="M-404.946,682.773v5.043h7.715l3.075-5.232Z" transform="translate(404.946 -682.584)"/></g></g><g transform="translate(0 48.09)"><path class="c" d="M-373.34,705.394c-3.476.437-8.478.94-10.249.573-2.808-.586-7.62.477-11.955,1.295-2.454.464-6.461-.041-9.556-.545a142.256,142.256,0,0,1-.083-20.393l30.345-.437A106.168,106.168,0,0,1-373.34,705.394Z" transform="translate(406.342 -685.051)"/><path class="d" d="M-397.567,708.6a47.525,47.525,0,0,1-7.34-.738l-.634-.1-.056-.639a144.12,144.12,0,0,1-.083-20.529l.058-.753,31.784-.457.137.671a106.679,106.679,0,0,1,1.518,19.675l0,.729-.724.091c-3.76.474-8.637.959-10.523.561-2.343-.49-6.347.281-10.216,1.028l-1.416.27A13.7,13.7,0,0,1-397.567,708.6ZM-404,706.331c4.052.633,6.88.782,8.632.449l1.411-.27c4.03-.775,8.2-1.58,10.867-1.023,1.212.248,4.565.073,9.253-.493a107.217,107.217,0,0,0-1.349-17.936l-28.891.416A142.9,142.9,0,0,0-404,706.331Z" transform="translate(406.015 -685.382)"/><g transform="translate(0.321 19.405)"><path class="g" d="M-373.5,697.668a117.907,117.907,0,0,1-.709,13.114,34.8,34.8,0,0,1-3.447,11.982s-.369-3.817-1.705-3.421c-2.861.844-3.585,5.4-3.585,5.4a3.785,3.785,0,0,0-2.1-2.821c-2.8-1.1-4.335,6.433-4.335,6.433a11.048,11.048,0,0,0-2.086-3.788c-2.1-2.113-5.112,2.686-5.112,2.686s-2.086-5.671-6.271-16.264a45.537,45.537,0,0,1-2.413-11.995c3.095.5,7.1,1.008,9.556.545,4.335-.818,9.147-1.881,11.955-1.295C-381.983,698.609-376.98,698.105-373.5,697.668Z" transform="translate(406.186 -696.729)"/><path class="d" d="M-388.852,732.031l-.959-3.06a10.247,10.247,0,0,0-1.884-3.452.8.8,0,0,0-.712-.286c-1.038.114-2.459,1.8-3.11,2.83l-.9,1.422-.581-1.578c-.022-.056-2.131-5.785-6.264-16.244a45.643,45.643,0,0,1-2.467-12.225l-.1-1.065,1.053.174c4.4.714,7.428.9,9.269.548l1.411-.27c4.03-.775,8.2-1.58,10.867-1.023,1.273.267,4.911.053,9.978-.583l.934-.117,0,.942a118.414,118.414,0,0,1-.715,13.207,35.446,35.446,0,0,1-3.55,12.294l-1.29,2.273-.255-2.6a5.783,5.783,0,0,0-.793-2.729c-1.78.589-2.674,3.631-2.855,4.755l-.869,5.39-.768-5.4a2.986,2.986,0,0,0-1.583-2.169.611.611,0,0,0-.57.04c-1.2.647-2.262,3.9-2.651,5.792Zm-3.457-8.461a2.487,2.487,0,0,1,1.792.783,8.192,8.192,0,0,1,1.318,1.858c.561-1.714,1.5-3.835,2.851-4.568a2.259,2.259,0,0,1,1.967-.121,3.854,3.854,0,0,1,1.619,1.21c.589-1.487,1.662-3.262,3.527-3.812a1.448,1.448,0,0,1,1.247.2,2.943,2.943,0,0,1,.967,1.416,38.621,38.621,0,0,0,2.351-9.478,114.577,114.577,0,0,0,.7-12.078c-3.6.429-7.855.808-9.586.447-2.343-.49-6.347.281-10.216,1.028l-1.416.27c-1.873.354-4.752.232-8.784-.374a41.918,41.918,0,0,0,2.257,10.708c2.949,7.464,4.873,12.528,5.742,14.841a5.93,5.93,0,0,1,3.385-2.31A2.7,2.7,0,0,1-392.309,723.569Z" transform="translate(405.821 -697.101)"/></g><g transform="translate(3.838 2.114)"><path class="d" d="M-403.44,687.476a85.924,85.924,0,0,0,.568,18.482c.151,1.081,1.792.621,1.644-.454a83.733,83.733,0,0,1-.508-18.029c.086-1.093-1.618-1.086-1.7,0Z" transform="translate(403.697 -686.659)"/></g><g transform="translate(7.956 1.672)"><path class="d" d="M-401.21,687.215q.122,8.172.378,16.341c.033,1.095,1.739,1.1,1.7,0q-.256-8.169-.378-16.341a.852.852,0,0,0-1.7,0Z" transform="translate(401.21 -686.392)"/></g><g transform="translate(11.77 1.502)"><path class="d" d="M-398.906,687.112q.32,9.431.878,18.851c.066,1.091,1.77,1.1,1.706,0q-.559-9.418-.879-18.851c-.036-1.095-1.74-1.1-1.7,0Z" transform="translate(398.906 -686.289)"/></g><g transform="translate(15.69 1.15)"><path class="d" d="M-396.539,686.9q.1,9,.381,17.992c.033,1.095,1.739,1.1,1.7,0q-.278-8.993-.381-17.992a.852.852,0,0,0-1.7,0Z" transform="translate(396.539 -686.077)"/></g><g transform="translate(19.249 1.325)"><path class="d" d="M-394.385,687a127.1,127.1,0,0,1,.51,16.954c-.04,1.1,1.664,1.1,1.7,0A127.374,127.374,0,0,0-392.68,687c-.106-1.081-1.811-1.091-1.705,0Z" transform="translate(394.39 -686.182)"/></g><g transform="translate(22.715 3.235)"><path class="d" d="M-392.3,688.157q.318,7.734.459,15.475a.852.852,0,0,0,1.7,0q-.139-7.742-.459-15.475c-.045-1.093-1.749-1.1-1.7,0Z" transform="translate(392.297 -687.336)"/></g><g transform="translate(26.154 1.324)"><path class="d" d="M-390.219,687q.3,8.253.136,16.514a.853.853,0,0,0,1.706,0q.159-8.256-.137-16.514c-.04-1.093-1.744-1.1-1.7,0Z" transform="translate(390.219 -686.182)"/></g></g></g><g class="n" transform="translate(205.791 49.484)"><path class="d" d="M-295.811,610.358c-.285,1.684-6.279,2.073-13.389.869A30.977,30.977,0,0,1-321.556,606a30.973,30.973,0,0,1,13.389-.869C-301.059,606.333-295.526,608.674-295.811,610.358Z" transform="translate(321.556 -604.753)"/></g><g transform="translate(212.618 7.249)"><g class="b"><g transform="translate(0.839 0.827)"><path class="e" d="M-286.575,614.962a24.777,24.777,0,0,1-11.9,13.364l-11.9-2.119-2.712-.489c-3.519-1.6-4.062-5.285-3.764-8.332a37.02,37.02,0,0,1,12.025-23.213c5.269-4.916,12.061-8.872,16.211-14.427.28.859.56,1.735.8,2.593a77.287,77.287,0,0,1,3.01,15.907C-284.351,603.885-284.561,609.609-286.575,614.962Z" transform="translate(316.926 -579.746)"/></g><path class="d" d="M-287.064,615.063a24.479,24.479,0,0,1-5.648,8.642,23.635,23.635,0,0,1-4.186,3.267c-.205.128-1.373.924-1.068.853a2.383,2.383,0,0,1-.659-.118q-5.325-.949-10.649-1.9a15.38,15.38,0,0,1-3.5-.72c-3.247-1.434-3.163-5.8-2.734-8.716a36.145,36.145,0,0,1,9.574-19.239c5.673-6.054,13.3-9.985,18.38-16.63l-1.558-.2c3.514,10.829,6.05,23.731,2.048,34.762-.374,1.032,1.272,1.477,1.643.452,4.1-11.294,1.552-24.577-2.047-35.666a.866.866,0,0,0-1.558-.2c-5.146,6.732-13.051,10.644-18.689,16.914a37.5,37.5,0,0,0-9.605,20.631c-.325,2.838-.036,6,2.061,8.147,1.464,1.5,3.085,1.677,5.032,2.027q5.574,1,11.149,1.987a2.356,2.356,0,0,0,1.855-.22,24.611,24.611,0,0,0,5.345-3.865,26.367,26.367,0,0,0,6.458-9.751C-285.024,614.493-286.67,614.05-287.064,615.063Z" transform="translate(317.433 -579.246)"/></g><g transform="translate(0.839 0.827)"><path class="f" d="M-287.816,582.339c-18.678,17.169-22.249,35.451-22.564,43.868l-2.712-.489c-3.519-1.6-4.062-5.285-3.764-8.332a37.02,37.02,0,0,1,12.025-23.213c5.269-4.916,12.061-8.872,16.211-14.427C-288.341,580.605-288.061,581.481-287.816,582.339Z" transform="translate(316.926 -579.746)"/></g></g></svg>